<svg width="265" height="150" viewBox="0 0 265 150" fill="none" xmlns="http://www.w3.org/2000/svg">
<path d="M132.5 150C205.678 150 265 144.627 265 138C265 131.373 205.678 126 132.5 126C59.3223 126 0 131.373 0 138C0 144.627 59.3223 150 132.5 150Z" fill="#F3F3F3"/>
<path d="M107.771 134.285H56.3584V136.24H107.771V134.285Z" fill="#F1F1F1"/>
<path fill-rule="evenodd" clip-rule="evenodd" d="M114.716 57.2578C114.716 57.2578 115.061 52.6822 108.986 48.0115C102.91 43.3408 93.4083 41.8656 92.5132 30.3139C91.618 18.7572 110.496 5.38528 118.997 18.2422C129.054 33.4594 116.487 57.6979 114.721 57.2578H114.716Z" fill="#A2D855"/>
<path d="M108.508 23.6426C110.478 23.6426 111.998 24.1377 113.064 25.1428C114.129 26.1429 114.664 27.6732 114.664 29.7285C114.664 30.8036 114.549 31.7588 114.309 32.5889C114.069 33.419 113.704 34.1191 113.199 34.6892C112.699 35.2593 112.058 35.6893 111.283 35.9894C110.508 36.2894 109.588 36.4394 108.523 36.4394H104.132L104.112 23.6476H108.503L108.508 23.6426ZM108.668 34.9992C108.858 34.9992 109.098 34.9842 109.383 34.9542C109.668 34.9242 109.973 34.8542 110.298 34.7392C110.618 34.6242 110.938 34.4592 111.258 34.2441C111.573 34.0291 111.858 33.7341 112.108 33.364C112.359 32.9939 112.564 32.5289 112.724 31.9738C112.884 31.4187 112.964 30.7436 112.964 29.9585C112.964 29.1934 112.889 28.5083 112.739 27.9082C112.589 27.3031 112.344 26.793 112.003 26.368C111.663 25.9429 111.223 25.6229 110.683 25.4028C110.143 25.1828 109.483 25.0728 108.693 25.0728H105.823L105.838 35.0042H108.668V34.9992Z" fill="white"/>
<path d="M194.538 51.2168H158.718V127.898H194.538V51.2168Z" fill="#E9E9E9"/>
<path d="M169.071 55.0332H163.485V60.619H169.071V55.0332Z" fill="white"/>
<path d="M169.071 64.5645H163.485V70.1503H169.071V64.5645Z" fill="white"/>
<path d="M177.92 55.0332H172.334V60.619H177.92V55.0332Z" fill="white"/>
<path d="M177.92 64.5645H172.334V70.1503H177.92V64.5645Z" fill="white"/>
<path d="M169.071 74.0996H163.485V79.6854H169.071V74.0996Z" fill="white"/>
<path d="M177.92 74.0996H172.334V79.6854H177.92V74.0996Z" fill="white"/>
<path d="M194.538 127.898V68.2441L158.718 127.898H194.538Z" fill="#F3F3F3"/>
<path d="M169.203 83.7715H163.617V89.3573H169.203V83.7715Z" fill="white"/>
<path d="M178.056 83.7715H172.47V89.3573H178.056V83.7715Z" fill="white"/>
<path d="M169.071 93.4375H163.485V99.0233H169.071V93.4375Z" fill="white"/>
<path d="M177.92 93.4375H172.334V99.0233H177.92V93.4375Z" fill="white"/>
<path d="M168.796 103.109H163.21V108.695H168.796V103.109Z" fill="white"/>
<path d="M177.648 103.109H172.062V108.695H177.648V103.109Z" fill="white"/>
<path d="M168.796 112.646H163.21V118.232H168.796V112.646Z" fill="white"/>
<path d="M177.648 112.646H172.062V118.232H177.648V112.646Z" fill="white"/>
<path d="M214.58 84.9961H194.457V128.077H214.58V84.9961Z" fill="#E9E9E9"/>
<path d="M200.272 87.1367H197.137V90.2722H200.272V87.1367Z" fill="white"/>
<path d="M200.272 92.4922H197.137V95.6276H200.272V92.4922Z" fill="white"/>
<path d="M205.247 87.1367H202.111V90.2722H205.247V87.1367Z" fill="white"/>
<path d="M205.247 92.4922H202.111V95.6276H205.247V92.4922Z" fill="white"/>
<path d="M200.272 97.8477H197.137V100.983H200.272V97.8477Z" fill="white"/>
<path d="M205.247 97.8477H202.111V100.983H205.247V97.8477Z" fill="white"/>
<path d="M214.585 128.078V94.5586L194.457 128.078H214.585Z" fill="#F3F3F3"/>
<path d="M200.351 103.283H197.216V106.419H200.351V103.283Z" fill="white"/>
<path d="M205.322 103.283H202.187V106.419H205.322V103.283Z" fill="white"/>
<path d="M200.272 108.715H197.137V111.85H200.272V108.715Z" fill="white"/>
<path d="M205.247 108.715H202.111V111.85H205.247V108.715Z" fill="white"/>
<path d="M200.118 114.15H196.982V117.286H200.118V114.15Z" fill="white"/>
<path d="M205.092 114.15H201.957V117.286H205.092V114.15Z" fill="white"/>
<path d="M200.118 119.506H196.982V122.641H200.118V119.506Z" fill="white"/>
<path d="M205.092 119.506H201.957V122.641H205.092V119.506Z" fill="white"/>
<path d="M51.195 121.696C51.3833 122.637 50.3475 125.927 50.1592 126.956C50.7242 127.992 52.6012 127.521 52.8837 126.486C52.8837 126.391 53.072 126.391 53.072 126.109C52.9779 125.356 53.7312 123.008 54.3904 121.784L51.195 121.689V121.696Z" fill="#ECBC97"/>
<path fill-rule="evenodd" clip-rule="evenodd" d="M50.0684 128.935C49.8801 128.935 49.5976 128.746 49.5976 128.464C49.5034 127.993 49.5976 127.334 49.6918 126.863C49.8801 126.11 49.9743 126.298 49.9743 126.298C49.9743 126.298 50.3509 127.052 50.9159 127.052C51.3868 127.052 52.6109 126.863 52.9813 126.298C53.2638 125.733 53.6405 125.357 53.8288 125.262C54.0171 125.168 56.365 125.451 58.06 126.957C59.3783 128.087 58.9075 129.023 58.7191 129.023L50.0747 128.929L50.0684 128.935Z" fill="#42210B"/>
<path d="M61.5378 122.449C61.7261 123.391 60.6903 125.551 60.502 126.681C61.0669 127.716 62.944 127.246 63.2265 126.21C63.2265 126.116 63.4148 126.116 63.4148 125.833C63.3207 125.08 64.074 123.109 64.7332 121.979L61.5378 122.449Z" fill="#ECBC97"/>
<path fill-rule="evenodd" clip-rule="evenodd" d="M60.3155 128.935C60.1272 128.935 59.8447 128.746 59.8447 128.464C59.7505 127.993 59.8447 127.334 59.9388 126.863C60.1272 126.11 60.2213 126.298 60.2213 126.298C60.2213 126.298 60.598 127.052 61.163 127.052C61.6338 127.052 62.858 126.863 63.2284 126.298C63.5109 125.733 63.8875 125.357 64.0759 125.262C64.2642 125.168 66.6121 125.451 68.3071 126.957C69.6254 128.087 69.1546 129.023 68.9662 129.023L60.3218 128.929L60.3155 128.935Z" fill="#42210B"/>
<path d="M63.0421 62.1078H70.7511C74.6057 73.6714 75.7357 86.8296 73.4757 99.7994C73.2873 100.835 73.0048 101.771 72.7223 102.806L65.9549 122.826C64.0779 123.579 62.4771 123.203 60.5059 122.732C63.0421 115.305 64.5487 108.632 65.2079 101.394C65.4904 100.264 65.4904 97.916 65.4904 97.916C66.1495 86.635 63.6133 64.9265 63.0483 62.1016L63.0421 62.1078Z" fill="#93C149"/>
<path d="M56.8356 122.638C54.2052 123.391 51.9453 122.543 49.8799 121.696L53.5461 98.8574C53.6403 98.3866 53.6403 98.0099 53.6403 97.5391L51.8574 70.5637C51.8574 69.9045 51.8574 69.2453 51.9515 68.5925C52.234 66.2446 52.8932 62.8609 53.8286 61.6367H63.8855C66.7984 74.9832 66.2334 86.3585 65.1097 92.8434C65.0155 93.4084 64.4505 99.7049 63.7914 101.4L56.8356 122.644V122.638Z" fill="#7BB22D"/>
<path d="M71.5008 63.5127L52.5797 63.701L52.4541 62.9414L71.4066 62.954L71.5008 63.5127Z" fill="#65931C"/>
<path d="M58.5287 17.5527L64.4486 18.1177C62.7536 20.8423 61.4416 23.1964 63.4128 25.0735L57.7754 24.6026C59.6524 23.1902 59.3762 19.9948 58.5287 17.5527Z" fill="#ECBC97"/>
<path fill-rule="evenodd" clip-rule="evenodd" d="M110.6 110.986C112.013 111.739 112.477 113.522 111.73 115.029L101.485 133.36C100.92 134.302 99.9781 134.867 98.9486 134.867H50.0701C48.4693 134.867 47.1572 133.548 47.1572 131.954C47.1572 130.359 48.4756 129.041 50.0701 129.041H97.2536L106.651 112.217C107.405 110.616 109.188 110.151 110.6 110.992V110.986Z" fill="#3DBBC7"/>
<path fill-rule="evenodd" clip-rule="evenodd" d="M36.2467 137.02C38.6887 137.02 40.6662 135.049 40.6662 132.601C40.6662 130.152 38.695 128.181 36.2467 128.181C33.7984 128.181 31.8272 130.152 31.8272 132.601C31.8272 135.049 33.7984 137.02 36.2467 137.02ZM36.2467 142.846C41.8841 142.846 46.4919 138.238 46.4919 132.601C46.4919 126.963 41.8841 122.355 36.2467 122.355C30.6093 122.355 26.0014 126.963 26.0014 132.601C25.9073 138.238 30.5151 142.846 36.2467 142.846Z" fill="#20505A"/>
<path fill-rule="evenodd" clip-rule="evenodd" d="M120.185 137.02C122.627 137.02 124.604 135.049 124.604 132.601C124.604 130.152 122.633 128.181 120.185 128.181C117.736 128.181 115.765 130.152 115.765 132.601C115.765 135.049 117.736 137.02 120.185 137.02ZM120.185 142.846C125.822 142.846 130.43 138.238 130.43 132.601C130.43 126.963 125.822 122.355 120.185 122.355C114.547 122.355 109.939 126.963 109.939 132.601C109.939 138.238 114.547 142.846 120.185 142.846Z" fill="#20505A"/>
<path fill-rule="evenodd" clip-rule="evenodd" d="M98.5653 75.0771C100.072 74.418 101.761 75.0771 102.42 76.4896L103.832 79.4966C104.492 81.0033 103.832 82.692 102.42 83.3512C100.913 84.0103 99.2245 83.3512 98.5653 81.9387L97.1528 78.9317C96.4937 77.5192 97.0587 75.7363 98.5653 75.0771Z" fill="#20505A"/>
<path fill-rule="evenodd" clip-rule="evenodd" d="M103.836 103.843L110.039 119.632C110.415 120.479 111.263 121.697 112.01 122.262C113.046 123.015 114.169 123.204 115.394 122.45C116.806 121.414 116.429 118.407 115.299 115.965L113.981 112.958L103.83 88.1424L95.2735 66.4277L90.7598 68.6815L103.824 103.837L103.836 103.843Z" fill="#65C7CF"/>
<path fill-rule="evenodd" clip-rule="evenodd" d="M90.8669 68.7809L85.5119 54.2103C85.8886 54.2103 83.6349 54.1161 82.3166 54.7752C81.6574 55.1519 79.8745 56.0936 79.592 55.9053C78.6504 55.5286 77.9912 54.7753 77.9912 53.6515C77.9912 52.5278 78.7445 51.9566 79.6862 51.7745L85.9828 51.3037L85.7003 50.1737L80.9041 50.5503L80.7158 49.797L87.2948 49.3262L87.8598 51.9565C88.9898 52.0507 90.0194 52.5215 90.6785 53.8336L95.2864 66.7092L90.8669 68.7746V68.7809Z" fill="#1A1A1A"/>
<g opacity="0.96">
<path d="M101.674 90.2131C101.486 90.3073 101.298 90.4015 101.109 90.5898L100.544 89.2715L99.791 89.554L100.827 91.996C101.109 92.6552 101.957 93.0319 102.61 92.7494C103.363 92.4669 103.646 91.6194 103.363 90.9665C103.175 90.3073 102.421 89.9306 101.668 90.2131H101.674ZM102.428 92.0902C102.145 92.1843 101.769 92.0902 101.58 91.7135C101.486 91.431 101.58 91.0544 101.957 90.8661C102.239 90.7719 102.616 90.866 102.804 91.2427C102.898 91.6194 102.804 91.996 102.428 92.0902Z" fill="white"/>
<path d="M104.775 97.8219C104.116 98.1044 103.739 98.8577 104.022 99.6048L104.587 100.923L105.34 100.641L104.775 99.3223C104.681 99.0398 104.775 98.6631 105.057 98.5689C105.34 98.4748 105.717 98.5689 105.811 98.8514L106.376 100.17L107.129 99.8873L106.564 98.5689C106.282 97.9098 105.434 97.5331 104.781 97.8156L104.775 97.8219Z" fill="white"/>
<path d="M103.461 94.627C103.272 94.7211 103.178 94.9095 103.272 95.0978L104.12 97.2573L104.873 96.9748L103.931 94.9094C103.931 94.7211 103.743 94.627 103.461 94.627Z" fill="white"/>
<path d="M103.177 94.3499C103.437 94.3499 103.648 94.1391 103.648 93.879C103.648 93.619 103.437 93.4082 103.177 93.4082C102.917 93.4082 102.706 93.619 102.706 93.879C102.706 94.1391 102.917 94.3499 103.177 94.3499Z" fill="white"/>
<path d="M96.6929 77.9905C96.5046 78.0847 96.3162 78.1788 96.1279 78.3671L95.5629 77.0488L94.8096 77.3313L95.8454 79.7733C96.1279 80.4325 96.9754 80.8092 97.6283 80.5267C98.3816 80.2442 98.6641 79.3967 98.3816 78.7438C98.1933 78.0846 97.4399 77.708 96.6866 77.9905H96.6929ZM97.4462 79.8675C97.1637 79.9617 96.7871 79.8675 96.5987 79.4908C96.5046 79.2083 96.5987 78.8317 96.9754 78.6434C97.2579 78.5492 97.6346 78.6433 97.8229 79.02C97.9171 79.3967 97.8229 79.6792 97.4462 79.8675Z" fill="white"/>
<path d="M99.7974 85.6059C99.1383 85.8884 98.7616 86.6417 99.0441 87.3888L99.6091 88.7071L100.362 88.4246L99.7974 87.1063C99.7033 86.8238 99.7974 86.4471 100.08 86.353C100.362 86.2588 100.739 86.3529 100.833 86.6354L101.398 87.9538L102.152 87.6713L101.587 86.353C101.304 85.5997 100.551 85.3171 99.8037 85.5996L99.7974 85.6059Z" fill="white"/>
<path d="M98.4792 82.4103C98.2908 82.5045 98.1967 82.6928 98.2908 82.8811L99.1383 85.0407L99.8917 84.7582L98.95 82.6928C98.95 82.4103 98.7617 82.3161 98.4792 82.4103Z" fill="white"/>
<path d="M98.1945 82.1272C98.4545 82.1272 98.6653 81.9164 98.6653 81.6564C98.6653 81.3963 98.4545 81.1855 98.1945 81.1855C97.9344 81.1855 97.7236 81.3963 97.7236 81.6564C97.7236 81.9164 97.9344 82.1272 98.1945 82.1272Z" fill="white"/>
</g>
<path d="M65.7646 34.0957L68.3008 39.0802C68.5833 39.7394 69.0542 40.2102 69.6192 40.681L80.4294 48.7667C81.4653 49.6142 82.3065 50.738 82.8715 52.0563C83.0598 52.4329 83.154 53.0921 83.0598 53.5629C83.0598 53.7513 83.0598 53.8454 82.9656 53.9396C82.7773 54.6929 82.3065 55.3521 81.5531 55.6346C80.5173 56.1054 79.2994 56.0113 78.8286 55.3521C79.3936 55.6346 79.8644 55.0696 80.1469 54.5046C80.4294 54.0337 80.6178 53.4687 80.6178 52.8096C80.6178 52.2446 80.6178 51.6796 80.2411 51.3971C78.8286 50.5496 77.7049 49.4259 76.3866 48.6726C76.1041 48.4842 75.7274 48.3901 75.4449 48.2959C73.3795 47.7309 71.3079 46.6009 68.8658 46.0422C68.395 45.948 68.1125 45.7597 67.7359 45.4772C65.2938 43.3176 62.0984 39.0865 59.9326 35.6086L65.57 32.6016L65.7584 34.1082L65.7646 34.0957Z" fill="#ECBC97"/>
<path d="M64.3534 6.46094C64.3534 6.46094 66.6071 9.18549 66.1363 11.163C66.0421 11.4455 66.0421 11.728 65.9479 11.9163C65.6654 13.0463 65.6654 12.9521 66.8896 13.5171C67.5487 13.7996 66.9837 14.3646 66.6071 14.6471C66.4188 14.7413 66.3246 15.0238 66.3246 15.2121C66.3246 15.4004 66.4187 15.6829 66.4187 15.6829C66.4187 15.7771 66.6071 16.4363 65.9479 16.4363C62.7525 16.5304 65.3829 16.4363 66.1363 16.7188C66.1363 16.7188 66.4188 16.9071 66.3246 17.0954C66.2304 17.2838 66.0421 17.4721 65.9479 17.7546C65.8538 18.0371 65.8538 18.6963 65.6654 19.0729C65.4771 19.4496 63.6 19.9204 62.4701 19.6379C61.6226 19.4496 60.4047 19.1671 59.9338 19.0729C59.7455 19.0729 59.463 18.6021 59.3689 18.5079C59.1805 18.3196 58.5214 18.1313 57.9564 17.8488C56.9205 17.1896 57.768 16.9071 57.8622 16.5304C57.9564 16.1538 58.0505 15.4004 57.9564 15.1179C57.8622 14.8354 57.0147 13.8938 56.8264 13.5171C56.5439 12.858 57.0147 11.7342 57.2972 11.3576C57.5797 10.9809 58.333 10.7926 58.7097 11.0751C59.0864 11.3576 59.463 11.3576 59.6513 10.9809C59.8397 10.6043 61.9992 7.87972 62.4701 7.59723C62.9409 7.31473 64.3471 6.46722 64.3471 6.46722L64.3534 6.46094Z" fill="#ECBC97"/>
<path fill-rule="evenodd" clip-rule="evenodd" d="M80.7612 49.8023L81.6965 49.7207L82.1674 50.4427L80.849 50.587L80.5791 49.8212L80.7612 49.8023Z" fill="#1A1A1A"/>
<path d="M68.9638 62.9546L53.9224 63.3313H52.5099C50.162 50.1732 49.597 31.0888 57.7706 24.5098L63.408 24.9806C66.3209 27.5168 67.1684 32.2188 67.6392 37.5738L78.732 46.7832L76.6666 48.7544L68.4867 45.9357L71.5126 62.9546H69.2903L68.9576 62.9484L68.9638 62.9546Z" fill="#BFE27A"/>
<path d="M66.4283 8.05666C66.3341 8.33916 66.1458 8.62166 66.0516 8.90416C65.7691 9.28082 65.3925 9.65749 64.9216 9.84582C63.5091 10.4108 62.1971 11.07 60.8788 10.8816C60.3138 10.8816 59.8429 11.1641 59.5604 11.635C59.3721 12.1058 59.0896 12.4825 58.7129 12.765C58.1479 13.33 57.9596 14.1775 58.2421 15.0187C58.6188 16.1487 58.2421 16.7137 57.7713 17.649C57.4888 17.9315 57.2063 18.0257 56.7354 17.8374C54.7642 16.8016 53.6343 14.8303 53.1634 12.3883C52.5043 10.2288 52.7868 9.5696 53.2576 8.53378C53.4459 8.25128 53.6342 7.96878 53.8226 7.68628C54.7642 6.74462 55.6055 5.43257 56.453 4.86758C57.2063 4.30258 57.9596 4.02008 58.895 3.64341C60.3075 3.17258 61.902 3.36091 63.1262 4.11424C64.5387 4.96174 65.7566 5.9913 66.2274 7.02712C66.5099 7.40379 66.5099 7.78045 66.4157 8.06294L66.4283 8.05666Z" fill="#42210B"/>
<path d="M55.335 11.1628C55.335 11.1628 55.9 12.2928 55.9941 14.9232C56.1825 17.6477 62.9499 20.7489 62.9499 20.7489L63.2324 20.0898C62.7615 19.5248 60.3195 18.4889 60.1312 18.3948C59.7545 18.2064 57.3125 16.2352 57.1241 15.5761C56.9358 14.9169 56.2766 12.8515 56.2766 11.9099V10.9682C56.2766 10.9682 55.6175 10.7799 55.6175 10.874C55.4291 10.874 55.335 11.1565 55.335 11.1565V11.1628Z" fill="black"/>
<path d="M66.8888 6.2744C66.6063 6.65107 63.2226 6.93357 61.063 8.43395C58.9035 9.9406 57.9618 10.4993 57.6793 10.5935C57.3968 10.5935 58.7152 8.99265 58.7152 8.99265L63.6997 6.3623L66.3301 5.70312C66.3301 5.70312 66.8009 5.98562 66.8009 6.17396L66.895 6.26812L66.8888 6.2744Z" fill="#222323"/>
<path d="M59.8495 0.918478C57.0308 1.10681 54.865 2.42514 53.6471 3.54885C52.7054 4.39635 51.9521 5.52006 51.6759 6.83838C51.3934 8.06254 51.1109 9.65709 51.3934 10.8812C52.0525 13.3233 54.1179 16.3303 54.1179 16.3303C54.1179 16.3303 54.4946 15.6712 54.4946 14.0766C54.4004 12.4758 54.8713 11.8229 55.9071 11.6346C56.9429 11.4462 57.3196 11.4462 57.9724 10.2221C58.7258 8.99793 61.4503 7.68588 61.4503 7.68588C61.4503 7.68588 64.6457 6.36755 65.1165 6.27339C65.5873 6.17922 66.6232 5.99089 66.9936 6.17923C67.2761 6.27339 64.6457 0.63598 59.8495 0.918478Z" fill="#29A9E0"/>
<path d="M68.6237 46.677C61.9504 41.228 61.5361 40.2989 61.0653 38.4155C60.8769 37.8505 60.6886 37.0972 60.2178 36.1618L60.3119 35.7852C60.8769 36.821 61.0653 37.568 61.2536 38.133C61.7244 39.828 62.0069 40.6692 68.4918 45.9363L68.6237 46.677Z" fill="#8EB14B"/>
<path d="M67.6461 37.5747C66.5349 36.9219 65.7816 35.7981 65.0282 34.574C64.2749 33.444 63.4274 32.2261 62.3037 31.2844V31.002C63.622 32.0378 64.4633 33.2556 65.2166 34.4798C65.9699 35.6098 66.6918 36.6896 67.6147 37.2483L67.6398 37.5747H67.6461Z" fill="#8EB14B"/>
<path d="M55.7849 8.87889C55.7095 8.93539 55.653 9.00445 55.6091 9.07978L55.2701 8.61523L55.0127 8.80356L55.6719 9.70755C55.8602 9.94611 56.2117 9.99634 56.4629 9.81428C56.714 9.63223 56.7767 9.26184 56.5884 9.00445C56.4001 8.74706 56.036 8.69056 55.7786 8.87889H55.7849ZM56.2808 9.5569C56.1678 9.63851 56.0046 9.6134 55.9167 9.5004C55.8288 9.3874 55.8602 9.22417 55.9732 9.13628C56.0862 9.04839 56.2494 9.07978 56.3373 9.19278C56.4252 9.30577 56.3938 9.46901 56.2808 9.5569Z" fill="white"/>
<path d="M56.569 8.35106C56.4999 8.40128 56.4811 8.50173 56.5313 8.57078L57.0775 9.34922L57.3662 9.14206L56.7887 8.38246C56.7385 8.3134 56.638 8.29455 56.569 8.34477V8.35106Z" fill="white"/>
<path d="M57.3642 7.72983C57.1131 7.91189 57.0566 8.26971 57.2386 8.52082L57.5776 8.99165L57.835 8.80332L57.496 8.33249C57.4144 8.21949 57.4395 8.06883 57.5525 7.98722C57.6655 7.90561 57.8162 7.93072 57.8978 8.04372L58.2368 8.51455L58.4942 8.32621L58.1552 7.85538C57.9731 7.60427 57.6153 7.54778 57.3642 7.72983Z" fill="white"/>
<path d="M56.3668 8.28821C56.4847 8.28821 56.5802 8.19265 56.5802 8.07477C56.5802 7.95689 56.4847 7.86133 56.3668 7.86133C56.2489 7.86133 56.1533 7.95689 56.1533 8.07477C56.1533 8.19265 56.2489 8.28821 56.3668 8.28821Z" fill="white"/>
<path d="M59.1392 6.26673C59.2571 6.26673 59.3527 6.17117 59.3527 6.05328C59.3527 5.9354 59.2571 5.83984 59.1392 5.83984C59.0214 5.83984 58.9258 5.9354 58.9258 6.05328C58.9258 6.17117 59.0214 6.26673 59.1392 6.26673Z" fill="white"/>
<path d="M60.1366 5.71421C59.8855 5.89626 59.829 6.25408 60.0111 6.50519L60.3501 6.97602L60.6075 6.7877L60.2685 6.31687C60.1869 6.20387 60.212 6.05319 60.325 5.97158C60.438 5.88997 60.5886 5.9151 60.6702 6.02809L61.0092 6.49893L61.2666 6.31058L60.9276 5.83975C60.7456 5.58864 60.3877 5.53215 60.1366 5.71421Z" fill="white"/>
<path d="M58.5622 6.86328C58.4869 6.91978 58.4304 6.98884 58.3864 7.06417L58.0474 6.59961L57.79 6.78795L58.4492 7.69195C58.6375 7.9305 58.9891 7.98071 59.2402 7.79866C59.4913 7.61661 59.5541 7.24623 59.3657 6.98885C59.1774 6.73146 58.8133 6.67495 58.5559 6.86328H58.5622ZM59.0581 7.54127C58.9451 7.62288 58.7819 7.59777 58.694 7.48477C58.6061 7.37177 58.6375 7.20856 58.7505 7.12067C58.8635 7.03278 59.0268 7.06417 59.1146 7.17717C59.2025 7.29017 59.1711 7.45338 59.0581 7.54127Z" fill="white"/>
<path d="M59.3414 6.32957C59.2724 6.3798 59.2535 6.48024 59.3038 6.5493L59.8499 7.32773L60.1387 7.12058L59.5612 6.36097C59.5109 6.29192 59.4105 6.27307 59.3414 6.32329V6.32957Z" fill="white"/>
<path d="M59.1992 12.406C59.0108 12.0293 58.7283 11.7468 58.4458 11.6527C58.3014 11.615 58.1633 11.6276 58.0692 11.6527C57.2217 12.0293 57.0082 12.6634 57.41 13.5297L57.454 13.6176C58.0127 14.5907 58.3517 14.6534 59.105 15.0301L59.1992 12.3997V12.406Z" fill="#ECBC97"/>
<path d="M213.955 130.669L215.245 72.5859H216.465V129.309V130.669H213.955Z" fill="#686867"/>
<path d="M224.572 115.682C224.572 115.682 215.966 124.788 204.134 115.107C192.303 105.425 200.979 92.0885 202.774 87.4278C204.564 82.7672 208.585 80.4718 207.365 72.7257C206.22 64.9795 206.36 62.3292 208.44 56.5183C210.52 50.7075 213.746 39.6659 215.681 40.526C217.616 41.3861 221.562 41.7462 221.847 48.8422C222.132 55.8682 221.562 58.0935 224.642 64.4745C227.653 70.8554 228.658 76.3762 227.653 81.757C226.723 87.1328 226.938 88.643 229.158 93.3737C231.383 98.0344 234.249 100.69 231.383 107.431C228.443 114.172 224.572 115.677 224.572 115.677V115.682Z" fill="#3DBBC7"/>
<path d="M237.08 133.22L237.605 108.621H238.13V132.61V133.22H237.08Z" fill="#686867"/>
<path d="M241.531 126.854C241.531 126.854 237.866 130.694 232.895 126.594C227.924 122.493 231.585 116.822 232.285 114.902C233.07 112.897 234.725 111.937 234.205 108.706C233.685 105.476 233.77 104.345 234.64 101.9C235.51 99.4598 236.911 94.7491 237.696 95.0941C238.481 95.4392 240.226 95.6192 240.311 98.5846C240.396 101.55 240.226 102.51 241.446 105.216C242.756 107.921 243.101 110.276 242.756 112.542C242.411 114.807 242.496 115.422 243.367 117.427C244.327 119.433 245.547 120.483 244.327 123.358C243.106 126.239 241.536 126.849 241.536 126.849L241.531 126.854Z" fill="#8AC43F"/>
</svg>
