<svg width="32" height="32" viewBox="0 0 32 32" fill="none" xmlns="http://www.w3.org/2000/svg">
<path d="M17.2306 29.7891C17.2306 30.0867 16.9172 30.2801 16.6512 30.1466L11.3303 27.4768C10.9533 27.2877 11.0879 26.7193 11.5097 26.7193H14.3436C14.5645 26.7193 14.7436 26.5402 14.7436 26.3193V24.8802C14.7436 24.5826 15.057 24.3892 15.323 24.5227L18.4486 26.091L20.6438 27.1924C21.0208 27.3816 20.8862 27.95 20.4645 27.95H17.6306C17.4097 27.95 17.2306 28.1291 17.2306 28.35V29.7891Z" fill="#FFCE00"/>
<path fill-rule="evenodd" clip-rule="evenodd" d="M6.66659 22.3346C4.8717 22.3346 3.36747 21.7277 2.15392 20.514C0.940141 19.3004 0.333252 17.7962 0.333252 16.0013C0.333252 14.2235 0.951252 12.7193 2.18725 11.4886C3.42303 10.2577 4.91614 9.6423 6.66659 9.6423C8.2837 9.6423 9.66914 10.1555 10.8229 11.182C11.8907 12.1321 12.5684 13.2934 12.856 14.6657C12.8964 14.8581 13.0625 15.0013 13.2591 15.0013H13.9598C14.2366 15.0013 14.4298 14.7268 14.3363 14.4662L11.9923 7.93289C11.9353 7.77397 11.7846 7.66797 11.6158 7.66797H10.0666C9.84567 7.66797 9.66659 7.48888 9.66659 7.26797V6.06797C9.66659 5.84705 9.84567 5.66797 10.0666 5.66797H15.2666C15.4875 5.66797 15.6666 5.84705 15.6666 6.06797V7.26797C15.6666 7.48888 15.4875 7.66797 15.2666 7.66797H14.6115C14.3355 7.66797 14.1424 7.94097 14.2344 8.20124L14.6493 9.37557C14.7058 9.53542 14.8569 9.6423 15.0265 9.6423H21.3163C21.5938 9.6423 21.787 9.36654 21.6922 9.10568L19.7999 3.89863C19.7744 3.82175 19.7316 3.76408 19.6716 3.72563C19.6118 3.68719 19.5435 3.66797 19.4666 3.66797H16.7333C16.5123 3.66797 16.3333 3.48888 16.3333 3.26797V2.06797C16.3333 1.84705 16.5123 1.66797 16.7333 1.66797H19.4666C19.9675 1.66797 20.42 1.8043 20.8243 2.07697C21.2285 2.34964 21.5178 2.72275 21.6923 3.1963L23.9399 9.33875C23.9975 9.49644 24.1476 9.6013 24.3155 9.6013H25.3333C27.0837 9.6013 28.5768 10.2193 29.8126 11.4553C31.0486 12.6911 31.6666 14.1842 31.6666 15.9346C31.6666 17.6986 31.052 19.2021 29.8229 20.445C28.5938 21.6876 27.0973 22.309 25.3333 22.309C23.7675 22.309 22.4025 21.8069 21.2383 20.8026C20.1585 19.8711 19.4619 18.7134 19.1484 17.3295C19.1055 17.1406 18.9409 17.0013 18.7471 17.0013H13.2595C13.0628 17.0013 12.8965 17.1448 12.8563 17.3374C12.5673 18.7215 11.8772 19.8817 10.7859 20.818C9.60725 21.8291 8.23414 22.3346 6.66659 22.3346ZM9.31792 19.431C8.56414 20.0334 7.68036 20.3346 6.66659 20.3346C5.43925 20.3346 4.41014 19.9115 3.57925 19.0653C2.74859 18.2193 2.33325 17.198 2.33325 16.0013C2.33325 14.774 2.74859 13.7449 3.57925 12.914C4.41014 12.0833 5.43925 11.668 6.66659 11.668C7.68036 11.668 8.56414 11.9659 9.31792 12.5616C9.94775 13.0594 10.4046 13.7091 10.6884 14.5105C10.7753 14.7559 10.5837 15.0013 10.3233 15.0013H7.39992C7.17901 15.0013 6.99992 15.1804 6.99992 15.4013V16.6013C6.99992 16.8222 7.17901 17.0013 7.39992 17.0013H10.3217C10.5825 17.0013 10.7742 17.2476 10.686 17.4931C10.402 18.2829 9.94594 18.9289 9.31792 19.431ZM19.1474 14.6691C19.1042 14.8597 18.9387 15.0013 18.7432 15.0013H16.98C16.8132 15.0013 16.6638 14.8977 16.6054 14.7415L15.648 12.1825C15.5502 11.921 15.7435 11.6423 16.0226 11.6423H19.6846C20.065 11.6423 20.2685 12.171 20.0509 12.483C19.897 12.7035 19.7625 12.9434 19.6473 13.2026C19.4194 13.7155 19.2528 14.2043 19.1474 14.6691ZM28.4206 19.0653C27.5897 19.9115 26.5606 20.3346 25.3333 20.3346C24.1059 20.3346 23.0768 19.9115 22.2459 19.0653C21.4153 18.2193 20.9999 17.198 20.9999 16.0013C20.9999 15.28 21.167 14.6039 21.5013 13.973C21.7562 13.492 22.0904 13.077 22.5039 12.7281C22.7026 12.5605 22.9976 12.6584 23.0852 12.9031L24.0686 15.6509C24.1436 15.8606 24.3755 15.9687 24.5843 15.8911L25.7205 15.4695C25.9283 15.3923 26.0338 15.161 25.9557 14.9535L24.8399 11.9894C24.7858 11.8457 24.8695 11.6819 25.0229 11.6743C25.1085 11.6701 25.2119 11.668 25.3333 11.668C26.5606 11.668 27.5897 12.0833 28.4206 12.914C29.2513 13.7449 29.6666 14.774 29.6666 16.0013C29.6666 17.198 29.2513 18.2193 28.4206 19.0653Z" fill="#3DBCC8"/>
</svg>
