<svg width="343" height="233" viewBox="0 0 343 233" fill="none" xmlns="http://www.w3.org/2000/svg">
<path d="M171.043 203.42C259.445 203.42 331.109 195.565 331.109 185.875C331.109 176.185 259.445 168.33 171.043 168.33C82.6402 168.33 10.976 176.185 10.976 185.875C10.976 195.565 82.6402 203.42 171.043 203.42Z" fill="#F3F3F3"/>
<path d="M140.803 178.705H77.4738V181.33H140.803V178.705Z" fill="#F1F1F1"/>
<path d="M260.439 178.705H197.11V181.33H260.439V178.705Z" fill="#F1F1F1"/>
<path d="M222.862 113.553H198.467V170.564H222.862V113.553Z" fill="#E9E9E9"/>
<path d="M205.551 116.379H201.732V120.552H205.551V116.379Z" fill="white"/>
<path d="M205.551 123.449H201.732V127.622H205.551V123.449Z" fill="white"/>
<path d="M211.59 116.379H207.77V120.552H211.59V116.379Z" fill="white"/>
<path d="M211.59 123.449H207.77V127.622H211.59V123.449Z" fill="white"/>
<path d="M205.551 130.584H201.732V134.757H205.551V130.584Z" fill="white"/>
<path d="M211.59 130.584H207.77V134.757H211.59V130.584Z" fill="white"/>
<path d="M222.862 170.562V126.205L198.467 170.562H222.862Z" fill="#F3F3F3"/>
<path d="M205.614 137.785H201.795V141.958H205.614V137.785Z" fill="white"/>
<path d="M211.65 137.785H207.831V141.958H211.65V137.785Z" fill="white"/>
<path d="M205.551 144.918H201.732V149.091H205.551V144.918Z" fill="white"/>
<path d="M211.59 144.918H207.77V149.091H211.59V144.918Z" fill="white"/>
<path d="M205.367 152.123H201.548V156.296H205.367V152.123Z" fill="white"/>
<path d="M211.403 152.123H207.584V156.296H211.403V152.123Z" fill="white"/>
<path d="M205.367 159.258H201.548V163.431H205.367V159.258Z" fill="white"/>
<path d="M211.403 159.258H207.584V163.431H211.403V159.258Z" fill="white"/>
<path d="M255.757 93.7637H222.86V170.563H255.757V93.7637Z" fill="#E9E9E9"/>
<path d="M232.41 97.5352H227.236V103.189H232.41V97.5352Z" fill="white"/>
<path d="M232.41 107.16H227.236V112.814H232.41V107.16Z" fill="white"/>
<path d="M240.541 97.5352H235.366V103.189H240.541V97.5352Z" fill="white"/>
<path d="M240.541 107.16H235.366V112.814H240.541V107.16Z" fill="white"/>
<path d="M232.471 116.783H227.296V122.437H232.471V116.783Z" fill="white"/>
<path d="M240.666 116.783H235.492V122.437H240.666V116.783Z" fill="white"/>
<path d="M255.757 170.565V110.795L222.861 170.565H255.757Z" fill="#F3F3F3"/>
<path d="M232.471 126.41H227.296V132.064H232.471V126.41Z" fill="white"/>
<path d="M240.666 126.41H235.492V132.064H240.666V126.41Z" fill="white"/>
<path d="M232.41 136.033H227.236V141.687H232.41V136.033Z" fill="white"/>
<path d="M240.541 136.033H235.366V141.687H240.541V136.033Z" fill="white"/>
<path d="M232.102 145.658H226.928V151.312H232.102V145.658Z" fill="white"/>
<path d="M240.296 145.658H235.121V151.312H240.296V145.658Z" fill="white"/>
<path d="M232.102 155.285H226.928V160.939H232.102V155.285Z" fill="white"/>
<path d="M240.296 155.285H235.121V160.939H240.296V155.285Z" fill="white"/>
<path d="M261.055 169.985L262.719 87.9355H264.32V168.101V169.985H261.055Z" fill="#686867"/>
<path d="M274.793 148.851C274.793 148.851 263.643 161.707 248.365 148.043C233.088 134.379 244.299 115.533 246.579 108.936C248.92 102.34 254.095 99.1093 252.493 88.1379C251.014 77.1665 251.199 73.4645 253.91 65.2528C256.62 57.0411 260.748 41.4253 263.273 42.6369C265.799 43.8485 270.851 44.387 271.22 54.416C271.59 64.3778 270.851 67.474 274.855 76.4934C278.736 85.5129 280.03 93.3207 278.736 100.927C277.504 108.533 277.812 110.687 280.707 117.35C283.603 123.946 287.299 127.716 283.603 137.206C279.783 146.697 274.793 148.851 274.793 148.851Z" fill="#8AC43F"/>
<path d="M190.15 170.565L190.704 142.025H191.258V169.891V170.565H190.15Z" fill="#686867"/>
<path d="M194.831 163.161C194.831 163.161 190.95 167.603 185.652 162.824C180.354 158.045 184.235 151.449 184.974 149.228C185.837 146.872 187.562 145.795 187.007 142.025C186.453 138.256 186.515 136.977 187.5 134.15C188.424 131.323 189.903 125.871 190.765 126.275C191.628 126.679 193.476 126.881 193.537 130.314C193.661 133.746 193.414 134.891 194.769 137.987C196.186 141.15 196.556 143.843 196.186 146.468C195.817 149.093 195.878 149.833 196.864 152.122C197.911 154.478 199.205 155.689 197.911 158.987C196.618 162.286 194.831 163.161 194.831 163.161Z" fill="#8AC43F"/>
<g clip-path="url(#clip0_21707_140710)">
<path d="M119.849 135.622L120.262 135.429C121.758 134.73 123.485 135.534 124.066 137.2L128.917 151.104C129.014 151.38 129.144 151.638 129.306 151.875C130.241 153.234 133.593 157.619 136.847 155.834C140.441 153.862 146.734 137.93 146.198 139.215C146.198 139.215 152.332 126.72 152.393 126.626C153.592 124.763 155.367 129.584 156.395 131.66L156.311 131.677C156.795 132.658 155.57 133.772 155.045 134.725L146.028 151.744C145.938 151.906 145.089 153.545 144.999 153.71C144.173 155.23 142.347 160.794 138.238 162.032C133.663 163.411 129.142 163.422 128.029 163.142C126.916 162.863 125.433 163.196 124.652 160.163C124.052 157.828 120.067 145.222 118.265 139.546C117.769 137.984 118.462 136.269 119.85 135.62L119.849 135.622Z" fill="#81B928"/>
<path d="M122.466 133.716L123.8 133.308L129.895 149.258C130.232 150.209 130.718 151.093 131.35 151.841C132.214 152.863 133.466 153.789 134.759 152.855C137.109 151.157 140.907 139.552 140.907 139.552C140.907 139.552 142.535 135.285 142.985 135.226C143.434 135.168 143.999 135.187 145.121 135.406C146.243 135.624 147.185 133.733 147.326 133.439C147.466 133.144 149.083 130.829 148.937 129.804C148.791 128.778 149.363 129.004 149.628 129.076C149.893 129.149 151.301 129.671 150.314 128.184C149.326 126.698 152.127 124.941 152.127 124.941L153.012 126.748L153.148 127.231L153.303 127.579L151.735 130.274L146.249 140.407L139.698 153.648C139.698 153.648 136.065 159.482 130.43 153.861C130.43 153.861 128.382 151.524 127.167 147.159C125.952 142.794 122.466 133.718 122.466 133.718L122.466 133.716Z" fill="#76A321"/>
<path d="M178.293 140.505L172.101 154.719L172.795 155.031L179.121 140.856L178.352 140.392L178.293 140.505Z" fill="black"/>
<path d="M177.448 139.975L171.396 153.827L170.678 153.409L176.818 139.647L177.448 139.975Z" fill="black"/>
<path d="M159.121 133.328C159.467 133.96 169.029 154.059 169.029 154.059L166.947 155.54L150.355 125.365L153.98 122.442L159.121 133.328Z" fill="#81B928"/>
<path d="M155.602 125.944L158.845 132.878C158.845 132.878 161.24 132.762 164.439 131.468C167.638 130.173 167.308 126.436 166.992 124.213C166.676 121.991 166.389 121.575 166.389 121.575L155.01 124.665L155.602 125.944Z" fill="#202321"/>
<path d="M155.768 125.082L156.383 126.164L165.897 123.849C165.897 123.849 166.577 123.327 166.053 122.183L155.768 125.082Z" fill="black"/>
<path d="M172.319 181.337C160.961 182.297 150.991 172.75 150.094 160.054C149.196 147.357 157.706 136.248 169.063 135.289C180.42 134.329 190.39 143.876 191.288 156.572C192.186 169.269 183.676 180.378 172.319 181.337ZM169.351 139.362C160.042 140.148 153.07 149.289 153.809 159.74C154.547 170.19 162.722 178.051 172.031 177.264C181.34 176.478 188.312 167.337 187.573 156.886C186.834 146.436 178.66 138.575 169.351 139.362Z" fill="black"/>
<path d="M157.604 170.041L167.155 160.862L166.636 160.269L156.977 169.349L157.508 170.118L157.604 170.041Z" fill="black"/>
<path d="M157.817 171.067L168.266 160.955L168.819 161.755L158.319 171.731L157.817 171.067Z" fill="black"/>
<path d="M158.96 143.401L167.519 156.062L168.095 155.536L159.632 142.763L158.898 143.291L158.96 143.401Z" fill="black"/>
<path d="M158.138 143.97L166.47 156.325L165.797 156.825L157.578 144.427L158.138 143.97Z" fill="black"/>
<path d="M188.044 157.466L173.073 158.342L173.157 159.157L188.16 158.431L188.163 157.468L188.044 157.466Z" fill="black"/>
<path d="M188.062 156.399L172.877 157.331L172.866 156.439L188.021 155.634L188.062 156.399Z" fill="black"/>
<path d="M177.38 176.843L171.37 161.333L170.651 161.765L176.534 177.372L177.425 176.977L177.38 176.843Z" fill="black"/>
<path d="M178.464 175.94L172.02 160.628L172.856 160.244L179.168 175.573L178.464 175.94Z" fill="black"/>
<path d="M165.911 159.003L149.772 153.539L150.232 151.516L166.109 157.011L165.911 159.003Z" fill="black"/>
<path d="M149.877 155.021C149.877 155.021 149.557 150.857 152.299 146.272C155.04 141.687 156.648 138.853 162.937 136.118C169.225 133.382 174.963 135.651 174.963 135.651L177.08 135.032C177.08 135.032 174.475 133.71 171.108 133.719C167.741 133.729 159.687 134.244 154.666 140.672C149.644 147.101 149.441 149.929 149.191 150.666C148.941 151.403 148.321 155.422 148.321 155.422L148.04 157.138" fill="black"/>
<path d="M170.103 162.026C172.376 161.834 174.08 159.729 173.91 157.324C173.74 154.92 171.76 153.126 169.488 153.318C167.215 153.51 165.511 155.615 165.681 158.02C165.851 160.424 167.831 162.218 170.103 162.026Z" fill="black"/>
<path d="M88.2962 134.934L88.5343 138.301C88.5343 138.301 95.0002 138.251 98.4113 141.02C101.822 143.788 104.096 147.528 104.556 153.64L120.314 151.95L122.673 151.689C122.673 151.689 120.31 137.941 108.189 132.806C108.189 132.806 103.918 131.06 98.1 132.105C93.549 132.923 88.2483 134.275 88.2483 134.275L88.2948 134.933L88.2962 134.934Z" fill="black"/>
<path d="M124.224 163.508C123.907 163.535 123.583 163.521 123.261 163.465L103.933 160.105C102.253 159.814 101.089 158.464 101.162 156.897L101.174 156.646C101.253 154.976 102.746 153.657 104.573 153.643C104.689 153.642 104.805 153.647 104.919 153.656L124.222 155.293C125.979 155.441 127.31 156.772 127.32 158.386L127.333 160.359C127.338 161.19 126.996 161.973 126.369 162.564C125.789 163.109 125.028 163.437 124.222 163.505L124.224 163.508ZM104.38 154.966C103.296 155.058 102.413 155.81 102.371 156.715L102.359 156.966C102.318 157.834 103.074 158.627 104.12 158.809L123.449 162.168C124.246 162.307 125.047 162.083 125.59 161.572C125.945 161.236 126.141 160.81 126.138 160.372L126.125 158.399C126.119 157.488 125.244 156.7 124.132 156.606L104.829 154.969C104.748 154.963 104.665 154.96 104.582 154.959C104.514 154.959 104.446 154.963 104.38 154.969L104.38 154.966Z" fill="black"/>
<path d="M104.115 155.578L121.457 157.087L120.828 160.996L103.062 158.477L104.115 155.578Z" fill="#81B928"/>
<path d="M104.14 179.419C92.7825 180.379 82.8125 170.832 81.9148 158.136C81.0172 145.439 89.5268 134.33 100.884 133.371C112.242 132.411 122.212 141.958 123.109 154.654C124.007 167.351 115.497 178.46 104.14 179.419ZM101.172 137.444C91.8634 138.23 84.891 147.371 85.6299 157.822C86.3687 168.272 94.5431 176.133 103.852 175.346C113.161 174.56 120.133 165.419 119.394 154.968C118.655 144.518 110.481 136.657 101.172 137.444Z" fill="black"/>
<path d="M90.1142 169.273L99.3056 157.707L98.6526 157.156L89.3297 168.637L90.0198 169.373L90.1142 169.273Z" fill="black"/>
<path d="M90.8656 170.104L100.088 158.832L100.995 158.813L91.4462 170.652L90.8656 170.104Z" fill="black"/>
<path d="M93.6451 139.151L100.568 152.963L101.202 152.526L94.3897 138.62L93.5954 139.034L93.6451 139.151Z" fill="black"/>
<path d="M92.7595 139.595L99.4954 153.068L98.7667 153.465L92.149 139.966L92.7595 139.595Z" fill="black"/>
<path d="M111.678 171.563L103.716 158.997L103.136 159.517L111.342 172.717L112.081 172.196L111.678 171.563Z" fill="black"/>
<path d="M113.058 171.44L104.142 158.213L104.819 157.72L113.524 170.943L113.058 171.44Z" fill="black"/>
<path d="M97.7332 157.085L81.593 151.619L82.0533 149.598L97.9314 155.093L97.7332 157.085Z" fill="black"/>
<path d="M81.6979 153.103C81.6979 153.103 81.3782 148.939 84.1199 144.354C86.8616 139.769 88.4697 136.935 94.7578 134.199C101.046 131.464 106.784 133.733 106.784 133.733L108.901 133.114C108.901 133.114 106.296 131.792 102.929 131.801C99.5621 131.811 91.548 132.069 86.5248 138.498C81.5016 144.927 81.3236 147.808 81.0137 148.749C80.7696 149.488 80.1434 153.505 80.1434 153.505L79.8629 155.221" fill="black"/>
<path d="M101.925 160.108C104.197 159.916 105.901 157.811 105.731 155.406C105.561 153.002 103.581 151.208 101.309 151.4C99.0365 151.592 97.3323 153.697 97.5023 156.102C97.6723 158.506 99.6522 160.3 101.925 160.108Z" fill="black"/>
<path d="M126.155 166.653C129.652 166.358 132.274 163.118 132.012 159.417C131.751 155.715 128.704 152.955 125.207 153.25C121.71 153.546 119.088 156.786 119.349 160.487C119.611 164.188 122.658 166.949 126.155 166.653Z" fill="black"/>
<path d="M118.121 138.694L116.215 131.986C116.215 131.986 117.19 131.522 118.164 131.442C119.138 131.363 121.264 131.198 121.631 131.196C121.998 131.194 122.723 131.082 123.014 131.596C123.305 132.11 124.633 135.638 124.633 135.638L118.12 138.696L118.121 138.694Z" fill="black"/>
<path d="M124.681 135.615C124.681 135.615 123.316 131.506 122.645 131.259C121.973 131.013 117.612 131.519 117.612 131.519C117.612 131.519 121.665 131.669 122.539 133.545L123.524 136.158L124.68 135.615L124.681 135.615Z" fill="#0F1611"/>
<path d="M117.092 131.67L115.088 125.621L116.968 125.462L118.814 131.524L117.092 131.67Z" fill="#0F1611"/>
<path d="M108.237 122.052C108.237 122.052 109.64 125.927 109.832 126.023C110.025 126.12 124.036 124.814 124.036 124.814C124.036 124.814 125.678 123.174 123.333 122.838C120.989 122.502 108.297 121.488 108.297 121.488L108.005 121.457L108.237 122.051L108.237 122.052Z" fill="#0F1611"/>
<path d="M128.067 165.549C128.067 165.549 129.448 172.453 129.615 173.307C129.782 174.16 128.155 179.783 128.155 179.783C128.155 179.783 128.605 179.782 129.615 179.782C129.956 179.536 131.081 173.307 131.081 173.307L129.712 164.197L128.068 165.549L128.067 165.549Z" fill="#0F1611"/>
<path d="M126.646 168.944L121.076 169.415C120.865 169.433 120.706 169.635 120.723 169.868L120.823 171.289C120.839 171.521 121.024 171.695 121.236 171.677L126.806 171.206C127.018 171.188 127.176 170.986 127.16 170.753L127.059 169.332C127.043 169.1 126.858 168.926 126.646 168.944Z" fill="#0F1611"/>
<path d="M125.445 166.861L123.746 169.188L125.598 169.031L127.108 166.72L125.445 166.861Z" fill="#0F1611"/>
<path d="M150.355 125.364L147.805 119.3C147.805 119.3 147.964 115.871 149.071 114.455C150.177 113.039 149.784 113.514 149.233 113.009C148.896 112.701 148.224 112.111 147.753 111.7C147.412 111.401 147.132 111.028 146.932 110.601L146.764 110.242C146.764 110.242 146.464 109.552 145.227 109.822C143.991 110.092 142.296 110.495 142.296 110.495C142.296 110.495 143.287 108.578 142.219 108.48C140.874 108.355 146.798 106.441 146.798 106.441L149.225 108.068C149.225 108.068 149.259 106.907 149.895 106.853C150.53 106.8 152.482 107.75 153.995 108.367C155.508 108.984 156.22 109.459 155.941 110.31C155.662 111.16 153.927 110.604 153.777 110.617C153.627 110.63 153.036 111.341 153.036 111.341C153.036 111.341 151.79 114.503 152.045 115.97C152.299 117.437 153.992 122.458 153.992 122.458L150.357 125.367L150.355 125.364Z" fill="#202321"/>
<path d="M141.953 110.592C142.52 110.544 142.943 110.002 142.899 109.381C142.855 108.76 142.361 108.295 141.794 108.343C141.228 108.391 140.804 108.933 140.848 109.554C140.892 110.175 141.387 110.64 141.953 110.592Z" fill="#202321"/>
<path d="M124.388 141.375C124.213 141.449 124.124 141.664 124.191 141.856C124.258 142.048 124.732 142.371 124.732 142.371C124.732 142.371 124.893 141.785 124.826 141.593C124.759 141.401 124.564 141.302 124.388 141.375ZM124.552 141.85C124.488 141.876 124.418 141.841 124.394 141.771C124.371 141.702 124.403 141.624 124.466 141.599C124.53 141.573 124.6 141.608 124.624 141.677C124.647 141.747 124.616 141.824 124.552 141.85Z" fill="white"/>
<path d="M123.501 145.688L123.111 144.558C123.098 144.537 123.088 144.513 123.071 144.495C123.05 144.475 123.024 144.461 122.997 144.455C122.967 144.448 122.936 144.446 122.906 144.448C122.896 144.448 122.887 144.449 122.878 144.45C122.87 144.451 122.862 144.454 122.856 144.456C122.856 144.456 122.856 144.456 122.854 144.456C122.848 144.46 122.84 144.462 122.832 144.464L122.127 144.756L122.313 145.297L122.741 145.12L122.781 145.238C122.741 145.306 122.69 145.363 122.631 145.41C122.571 145.456 122.507 145.491 122.439 145.513C122.37 145.535 122.3 145.544 122.226 145.54C122.152 145.534 122.08 145.515 122.011 145.48C121.934 145.441 121.867 145.389 121.81 145.323C121.754 145.256 121.712 145.182 121.684 145.101C121.655 145.02 121.643 144.935 121.644 144.844C121.646 144.753 121.665 144.665 121.699 144.58C121.735 144.495 121.781 144.423 121.843 144.362C121.904 144.301 121.971 144.256 122.045 144.225C122.119 144.194 122.197 144.18 122.279 144.18C122.362 144.182 122.441 144.202 122.52 144.24L122.736 143.713C122.592 143.641 122.444 143.604 122.292 143.601C122.141 143.598 121.996 143.626 121.858 143.682C121.721 143.737 121.596 143.824 121.484 143.936C121.372 144.047 121.284 144.182 121.219 144.341C121.154 144.499 121.12 144.661 121.119 144.828C121.117 144.994 121.142 145.153 121.195 145.305C121.249 145.457 121.324 145.592 121.424 145.716C121.525 145.839 121.648 145.935 121.792 146.007C121.936 146.078 122.084 146.115 122.236 146.118C122.387 146.122 122.532 146.093 122.67 146.038C122.725 146.014 122.781 145.986 122.835 145.954C122.888 145.92 122.939 145.882 122.985 145.838L123.005 145.895L123.499 145.691L123.501 145.688Z" fill="white"/>
<path d="M123.844 142.864C123.991 142.804 124.141 142.776 124.291 142.785C124.442 142.793 124.584 142.831 124.717 142.896C124.849 142.961 124.969 143.053 125.074 143.173C125.18 143.293 125.26 143.432 125.316 143.594C125.371 143.757 125.396 143.92 125.389 144.086C125.382 144.252 125.348 144.407 125.288 144.552C125.227 144.698 125.143 144.828 125.034 144.944C124.926 145.06 124.797 145.148 124.651 145.209C124.504 145.27 124.354 145.297 124.204 145.288C124.052 145.28 123.911 145.242 123.779 145.177C123.647 145.111 123.528 145.019 123.423 144.9C123.318 144.78 123.238 144.641 123.181 144.479C123.125 144.317 123.101 144.153 123.108 143.987C123.115 143.821 123.148 143.666 123.207 143.521C123.266 143.375 123.351 143.245 123.459 143.131C123.567 143.015 123.695 142.927 123.842 142.866L123.844 142.864ZM124.468 144.668C124.547 144.635 124.616 144.589 124.676 144.527C124.734 144.465 124.78 144.395 124.812 144.315C124.845 144.236 124.863 144.151 124.866 144.063C124.869 143.973 124.856 143.885 124.826 143.798C124.796 143.712 124.753 143.635 124.696 143.571C124.64 143.507 124.576 143.456 124.503 143.42C124.431 143.384 124.353 143.364 124.273 143.361C124.191 143.357 124.111 143.371 124.032 143.404C123.953 143.437 123.884 143.484 123.826 143.546C123.767 143.608 123.721 143.678 123.69 143.758C123.657 143.837 123.639 143.922 123.636 144.01C123.633 144.1 123.645 144.188 123.676 144.275C123.706 144.361 123.749 144.438 123.805 144.502C123.862 144.566 123.925 144.616 123.999 144.653C124.071 144.689 124.148 144.709 124.228 144.712C124.31 144.717 124.39 144.701 124.47 144.668L124.468 144.668Z" fill="white"/>
<path d="M122.979 146.807C122.946 146.803 122.923 146.797 122.91 146.79C122.888 146.778 122.873 146.761 122.865 146.737C122.856 146.713 122.857 146.688 122.866 146.664C122.876 146.64 122.893 146.624 122.914 146.613C122.936 146.602 122.959 146.603 122.978 146.615C122.998 146.625 123.012 146.64 123.019 146.66L122.996 146.685C122.987 146.667 122.977 146.654 122.965 146.648C122.952 146.642 122.94 146.641 122.926 146.648C122.912 146.655 122.902 146.665 122.896 146.679C122.891 146.694 122.889 146.708 122.896 146.724C122.902 146.739 122.911 146.75 122.924 146.756C122.933 146.76 122.948 146.765 122.971 146.77C123.006 146.776 123.033 146.782 123.049 146.791C123.077 146.805 123.094 146.827 123.106 146.856C123.117 146.886 123.115 146.917 123.104 146.947C123.092 146.977 123.072 146.997 123.045 147.008C123.017 147.019 122.99 147.019 122.962 147.005C122.934 146.992 122.917 146.973 122.909 146.946L122.936 146.924C122.945 146.947 122.958 146.962 122.976 146.972C122.995 146.981 123.014 146.982 123.033 146.974C123.052 146.967 123.066 146.953 123.074 146.932C123.083 146.911 123.083 146.89 123.076 146.869C123.069 146.848 123.056 146.833 123.037 146.824C123.027 146.819 123.008 146.813 122.98 146.807L122.979 146.807Z" fill="white"/>
<path d="M123.02 146.317L123.051 146.304L123.139 146.558C123.156 146.519 123.182 146.493 123.22 146.477C123.26 146.46 123.297 146.46 123.332 146.477C123.366 146.495 123.391 146.524 123.406 146.566L123.491 146.816L123.46 146.829L123.375 146.582C123.363 146.551 123.344 146.527 123.315 146.514C123.287 146.5 123.258 146.5 123.23 146.511C123.201 146.522 123.18 146.544 123.168 146.575C123.162 146.588 123.159 146.602 123.157 146.615L123.26 146.912L123.229 146.924L123.019 146.317L123.02 146.317Z" fill="white"/>
<path d="M123.961 146.621L123.93 146.633L123.903 146.558C123.9 146.57 123.897 146.581 123.892 146.591C123.87 146.647 123.831 146.687 123.78 146.707C123.728 146.728 123.676 146.728 123.625 146.701C123.574 146.677 123.539 146.634 123.519 146.578C123.499 146.521 123.501 146.464 123.524 146.407C123.547 146.351 123.586 146.313 123.637 146.291C123.689 146.269 123.741 146.271 123.792 146.297C123.801 146.302 123.811 146.308 123.819 146.314L123.801 146.261L123.832 146.248L123.961 146.621ZM123.873 146.469L123.85 146.401C123.833 146.371 123.809 146.346 123.777 146.332C123.734 146.311 123.692 146.31 123.649 146.326C123.606 146.343 123.574 146.376 123.556 146.423C123.537 146.47 123.536 146.517 123.553 146.563C123.569 146.61 123.598 146.645 123.641 146.665C123.684 146.686 123.726 146.687 123.769 146.669C123.811 146.651 123.844 146.619 123.862 146.572C123.876 146.537 123.881 146.502 123.874 146.466L123.873 146.469Z" fill="white"/>
<path d="M123.939 146.204L123.97 146.191L123.993 146.259C123.996 146.246 124.001 146.234 124.005 146.22C124.022 146.179 124.044 146.151 124.072 146.139L124.086 146.175C124.066 146.184 124.05 146.205 124.037 146.236C124.019 146.28 124.017 146.325 124.03 146.371L124.097 146.563L124.066 146.576L123.938 146.204L123.939 146.204Z" fill="white"/>
<path d="M124.155 145.975C124.163 145.979 124.169 145.985 124.172 145.995C124.176 146.005 124.175 146.014 124.171 146.023C124.168 146.032 124.162 146.039 124.153 146.042C124.144 146.046 124.136 146.045 124.127 146.041C124.119 146.038 124.113 146.031 124.11 146.021C124.107 146.011 124.107 146.002 124.111 145.993C124.114 145.984 124.12 145.978 124.129 145.974C124.138 145.97 124.146 145.971 124.155 145.975ZM124.19 146.1L124.319 146.474L124.288 146.487L124.159 146.113L124.19 146.1Z" fill="white"/>
<path d="M124.36 146.124L124.46 146.413L124.429 146.426L124.301 146.054L124.332 146.041L124.34 146.065C124.358 146.022 124.385 145.994 124.423 145.978C124.463 145.961 124.5 145.961 124.534 145.978C124.569 145.996 124.593 146.024 124.608 146.067L124.694 146.316L124.663 146.329L124.578 146.083C124.566 146.051 124.547 146.028 124.518 146.015C124.49 146.001 124.462 146.001 124.433 146.012C124.405 146.023 124.384 146.045 124.371 146.075C124.364 146.092 124.36 146.108 124.36 146.124Z" fill="white"/>
<path d="M125.109 146.061C125.106 146.071 125.103 146.082 125.098 146.092C125.075 146.148 125.037 146.188 124.985 146.209C124.933 146.229 124.881 146.229 124.83 146.203C124.779 146.178 124.744 146.135 124.724 146.079C124.704 146.022 124.705 145.965 124.729 145.909C124.752 145.853 124.791 145.814 124.842 145.793C124.894 145.771 124.946 145.772 124.997 145.797C125.007 145.802 125.017 145.808 125.025 145.814L125.007 145.761L125.038 145.748L125.138 146.038C125.157 146.093 125.155 146.149 125.134 146.203C125.111 146.259 125.073 146.298 125.021 146.319C124.969 146.341 124.917 146.34 124.866 146.314C124.855 146.309 124.845 146.302 124.837 146.296L124.866 146.27C124.866 146.27 124.875 146.276 124.881 146.279C124.924 146.3 124.966 146.301 125.009 146.284C125.052 146.267 125.083 146.234 125.102 146.188C125.119 146.146 125.123 146.103 125.111 146.061L125.109 146.061ZM125.055 145.902C125.039 145.871 125.014 145.848 124.983 145.833C124.94 145.812 124.897 145.811 124.854 145.828C124.811 145.845 124.779 145.878 124.761 145.925C124.742 145.972 124.741 146.019 124.758 146.066C124.774 146.112 124.804 146.148 124.846 146.168C124.889 146.189 124.932 146.19 124.975 146.173C125.017 146.156 125.05 146.123 125.068 146.076C125.081 146.043 125.085 146.007 125.082 145.972L125.057 145.9L125.055 145.902Z" fill="white"/>
<path d="M133.435 153.352C134.103 152.138 141.929 130.729 141.929 130.729C141.929 130.729 142.703 129.066 142.735 128.994C142.767 128.923 143.351 128.474 144.433 128.851C145.516 129.228 149.127 130.577 149.127 130.577L145.923 135.708C145.923 135.708 144.581 135.903 143.714 135.729C142.848 135.555 142.16 136.853 141.441 138.759C140.721 140.665 135.603 154.265 135.603 154.265" fill="black"/>
<ellipse opacity="0.5" cx="128.605" cy="179.783" rx="8.10362" ry="0.984403" fill="url(#paint0_radial_21707_140710)"/>
</g>
<path d="M123.651 185.705C125.288 184.966 127.263 183.609 128.222 183.609C128.504 183.609 128.786 183.424 129.012 183.178C129.237 182.87 129.632 182.685 130.027 182.5C130.253 182.438 130.479 182.5 130.648 182.685C131.212 183.363 131.269 184.103 130.93 184.904L131.212 184.966L135.67 186.63C135.839 186.692 135.952 186.692 136.121 186.815C138.886 187.493 139.676 188.665 139.619 190.021C139.619 190.329 139.337 190.637 138.999 190.637L122.184 190.699L122.241 187.986C122.241 187.493 122.41 187.062 122.636 186.63C122.918 186.137 123.256 185.829 123.651 185.705Z" fill="#0299C1"/>
<path d="M132.058 185.273L130.929 187.493C130.76 187.801 130.873 188.171 131.155 188.356C131.324 188.418 131.55 188.356 131.607 188.171L132.848 185.582L132.058 185.273Z" fill="black"/>
<path d="M133.469 185.828L132.284 188.109C132.114 188.417 132.227 188.849 132.509 189.034C132.679 189.096 132.904 189.034 132.961 188.849L134.258 186.136L133.469 185.828Z" fill="black"/>
<path d="M129.237 88.1134L131.607 92.7371C131.889 93.4153 132.397 94.0318 132.904 94.4017L143.569 103.156C144.641 104.019 145.318 105.252 145.938 106.608C146.108 107.04 146.22 107.471 146.22 107.903C146.22 108.581 145.995 109.074 145.6 109.999C145.036 110.985 144.81 111.109 143.286 110.677C143.23 110.862 144.076 109.814 144.302 109.074C144.584 108.211 144.133 106.732 143.512 106.115C142.271 104.944 140.973 103.896 139.675 103.094C139.393 102.909 139.055 102.786 138.66 102.663C136.516 102.17 134.315 101.368 132.171 100.382C131.776 100.197 131.381 99.8885 131.099 99.5186C128.785 97.1759 126.867 94.4017 124.667 90.7644L129.011 87.5586L129.237 88.1134Z" fill="#DBAD8D"/>
<path d="M129.236 88.2385L131.775 93.6636C132.057 94.3418 132.565 94.9583 133.072 95.3282L143.737 104.082C144.809 105.007 145.598 106.178 146.106 107.596C146.276 108.028 146.388 108.768 146.332 109.199C146.332 109.384 146.332 109.508 146.276 109.631C146.106 110.494 145.599 111.172 144.865 111.48C143.793 111.974 142.608 111.912 142.157 111.172C142.721 111.48 143.172 110.864 143.454 110.247C143.737 109.754 143.906 109.076 144.019 108.459C144.075 107.843 144.019 107.288 143.624 106.918C142.213 105.994 141.141 104.699 139.843 103.959C139.561 103.774 139.223 103.651 138.828 103.528C136.683 103.034 134.483 102.233 132.339 101.247C131.944 101.062 131.549 100.815 131.267 100.507C128.897 98.1641 125.737 93.602 123.537 89.903L129.066 86.6973L129.236 88.2385Z" fill="#EDBD98"/>
<path d="M123.255 132.812C127.882 139.471 121.393 142.738 122.465 150.259C122.86 158.089 119.475 174.426 120.264 183.797C118.064 184.906 116.653 185.399 115.299 185.523C115.92 182.81 116.371 180.221 116.484 178.125C115.807 169.124 116.936 157.102 116.089 153.28L115.073 135.402L123.255 132.812Z" fill="#FFD2C1"/>
<path d="M123.314 185.831L123.144 176.954C122.693 168.939 123.314 160.37 124.837 151.246C124.893 150.753 124.837 150.259 124.668 149.705C121.282 142.183 120.041 134.169 120.605 125.846L119.42 120.853L126.36 117.955C129.125 130.593 132.059 143.663 130.987 149.581C130.987 149.643 130.987 149.766 130.987 149.828C130.592 157.904 128.956 168.384 127.038 179.604C126.981 179.913 126.981 180.283 127.038 180.714L127.489 183.612L123.314 185.831Z" fill="#FFD2C1"/>
<path d="M131.042 100.384C129.745 103.652 130.93 107.228 131.607 108.954C131.776 109.385 131.72 109.509 131.776 110.372C131.776 110.988 131.55 111.296 131.494 111.605C131.437 111.728 131.155 112.283 130.986 112.283C128.842 112.529 128.391 112.591 126.867 112.16C124.159 112.468 121.563 112.406 119.419 111.975C118.009 111.42 118.911 110.31 118.291 109.262C118.234 109.2 118.009 108.276 117.952 108.091C117.501 106.056 118.855 102.419 119.419 100.631C119.476 100.385 119.588 100.015 119.588 99.768C119.588 97.9185 117.219 90.5823 118.573 85.7736C118.516 82.2596 120.66 79.0538 121.676 77.5742L124.441 78.0674L126.811 78.0058L129.293 81.3965C129.575 81.828 129.858 82.3212 129.97 82.8144L132.002 90.459C132.058 90.7672 132.171 91.1987 132.171 91.5686L132.34 93.6647C131.776 93.0482 130.309 90.1507 129.124 87.6847L124.159 90.2123L127.713 96.0074L131.042 100.384Z" fill="#153E44"/>
<path d="M131.324 99.5831C130.196 103.714 129.97 105.748 131.55 109.015C131.606 109.077 131.663 109.94 131.663 110.064C131.663 110.31 131.719 110.927 131.493 111.358C131.437 111.42 131.155 111.975 131.099 111.975C128.898 112.221 128.39 111.913 126.81 111.543C124.102 111.851 121.563 111.975 119.419 111.543C118.629 110.742 119.306 110.248 118.403 108.954C118.347 108.954 118.121 107.906 118.121 107.844C117.557 105.563 119.475 102.666 120.039 100.878C120.096 100.631 120.209 100.261 120.209 100.015C120.209 98.1652 117.67 91.1988 118.572 84.7873C119.588 80.7184 121.281 78.0675 122.296 76.5879L124.384 77.0811L126.415 76.8961L129.349 80.3485C129.632 80.78 129.914 81.2732 130.026 81.7664L132.058 89.411C132.114 89.7192 132.227 90.1507 132.227 90.5206L132.283 92.6167C131.719 92.0002 130.365 88.9794 129.124 86.5751L124.158 89.1027L127.713 94.8978L131.324 99.5831Z" fill="#20505A"/>
<path d="M115.13 185.524C116.202 185.34 117.218 185.093 118.121 184.785C119.193 184.291 120.039 183.86 120.603 183.675C120.773 183.059 120.998 182.689 121.28 182.38C121.506 182.195 121.845 182.134 122.07 182.319C122.747 182.935 122.86 183.737 122.353 184.785L127.318 186.572C127.374 186.572 127.543 186.634 127.6 186.634C130.139 186.942 131.38 188.237 131.55 190.148C131.55 190.456 131.324 190.826 130.929 190.826L120.152 190.641H114.058C113.776 190.641 113.494 190.395 113.494 190.148C113.268 188.73 113.55 187.374 114.34 186.079C114.51 185.771 114.848 185.524 115.13 185.524Z" fill="#0095C9"/>
<path d="M123.255 185.031L122.409 186.819C122.352 186.881 122.352 187.066 122.409 187.127C122.465 187.189 122.634 187.312 122.804 187.312C122.86 187.312 122.973 187.251 123.029 187.127L123.819 185.216L123.255 185.031Z" fill="black"/>
<path d="M124.102 185.342L123.313 187.006C123.256 187.068 123.313 187.253 123.313 187.315C123.369 187.376 123.538 187.5 123.595 187.5C123.651 187.5 123.764 187.438 123.764 187.315L124.44 185.465L124.102 185.342Z" fill="black"/>
<path d="M131.098 112.218C131.098 112.156 131.042 112.095 130.985 112.095C130.365 112.156 127.656 111.971 126.979 111.786C126.189 111.54 123.594 112.095 122.409 111.971C121.224 111.848 119.644 111.663 119.418 111.54C119.193 111.355 114.171 120.602 114.679 128.555C115.13 135.521 115.243 145.879 115.751 147.358C116.259 148.838 122.127 148.036 122.409 147.728C122.522 147.605 122.352 147.605 122.804 145.817C123.537 143.043 123.763 137.556 123.65 137.309L122.917 145.262C122.917 145.262 123.763 147.666 123.932 148.16C124.101 148.714 131.267 147.543 131.211 145.447C131.154 143.413 132.057 131.699 131.662 127.692C131.267 123.931 131.098 113.636 131.098 112.218Z" fill="#564B47"/>
<path d="M122.296 155.62C122.296 155.62 123.142 149.887 122.522 149.64C121.901 149.332 119.588 148.962 118.403 149.948C117.274 150.935 115.92 151.058 115.92 151.058C115.864 151.12 116.146 155.682 116.371 155.99C116.766 156.607 121.28 156.175 121.788 155.805C121.901 155.682 122.296 155.744 122.296 155.62Z" fill="#CECECE"/>
<path d="M130.816 153.708C130.873 153.338 131.211 149.393 131.267 147.605C131.267 147.42 129.744 147.543 128.728 148.037C128.051 148.345 127.205 149.085 126.754 149.085C126.415 149.085 126.133 149.208 125.794 149.27C125.512 149.331 125.117 149.455 124.892 149.455C124.892 149.455 124.61 149.455 124.553 149.393L124.722 149.763C124.722 149.763 125.004 150.503 124.948 151.119C124.892 151.797 124.666 152.784 124.666 152.784L124.497 154.017L124.384 154.941C124.384 154.941 126.641 154.448 128.333 154.756C130.139 155.065 130.76 154.386 130.76 154.325C130.76 154.14 130.76 154.017 130.816 153.708Z" fill="#CECECE"/>
<path d="M122.463 154.325C122.463 154.325 122.914 150.872 122.689 150.502C122.519 150.194 121.391 149.085 120.77 150.934C120.149 152.783 120.827 154.571 120.939 154.818C121.278 155.619 122.237 155.434 122.463 154.325Z" fill="#AEAFAF"/>
<path d="M130.871 152.97C130.871 153.031 131.21 149.641 131.21 149.024C131.21 148.654 129.743 147.606 129.122 149.456C128.502 151.305 129.179 153.031 129.291 153.34C129.574 154.203 130.589 154.141 130.871 152.97Z" fill="#AEAFAF"/>
<path d="M124.097 70.3594L127.652 71.0375C126.354 73.4418 125.846 75.8462 126.806 77.6956L122.122 76.7709C123.42 75.4763 124.436 72.7021 124.097 70.3594Z" fill="#ECBC97"/>
<path d="M129.065 60.4961C129.065 60.4961 130.758 63.147 130.194 64.9965C130.137 65.2431 130.024 65.4897 130.024 65.6746C129.799 66.7227 130.193 66.661 130.701 67.2775C131.153 67.7707 130.701 68.079 130.419 68.2639C130.25 68.3256 130.137 68.5722 130.194 68.7571C130.194 69.0037 130.194 69.1887 130.194 69.2503C130.194 69.3119 130.476 69.9284 129.742 69.9284C129.009 69.9284 128.162 69.4969 128.049 69.4969C127.88 69.4969 129.516 69.9901 129.799 70.175C129.799 70.175 130.024 70.36 129.968 70.4833C129.911 70.6682 129.686 70.7916 129.573 71.0381C129.46 71.2847 129.404 71.9629 129.291 72.2711C129.121 72.5794 127.485 72.9493 126.582 72.5794C125.905 72.3328 124.833 72.0245 124.438 71.9012C124.269 71.9012 124.043 71.4697 123.987 71.3464C123.818 71.1614 123.31 70.9148 122.858 70.6066C122.125 69.9285 122.802 69.6819 122.858 69.3736C122.915 69.0654 123.084 68.3256 123.028 68.1406C122.971 67.894 122.294 66.9693 122.181 66.5377C122.012 65.8596 122.463 64.8732 122.689 64.565C122.971 64.2567 123.592 64.0718 123.93 64.38C124.213 64.6266 124.777 65.1198 125.002 64.8116C125.228 64.5033 126.977 61.6674 127.372 61.4825C127.767 61.2975 129.065 60.4961 129.065 60.4961Z" fill="#ECBC97"/>
<path d="M123.422 68.8185C123.027 70.0515 123.027 70.9762 123.309 71.6543C123.309 72.2092 122.97 72.3941 122.632 72.0859C120.657 69.9282 119.754 71.2228 118.908 69.6199C118.851 69.435 117.441 68.1403 117.272 68.0787C116.989 67.8937 116.594 67.6471 116.538 67.1539C116.369 66.4141 116.482 65.4277 116.482 65.0579C116.538 63.2084 117.102 61.6055 118.851 59.5094C119.077 59.2628 120.206 58.2764 120.431 58.0915C121.729 57.29 123.027 57.0434 124.437 57.1667C124.719 57.1667 125.058 57.2284 125.34 57.3517C127.258 57.9065 128.838 58.7696 129.121 60.4958C129.177 60.7424 129.064 60.989 128.895 61.0506C127.146 62.037 126.017 63.455 125.227 65.1812C125.171 65.4278 124.945 65.4277 124.776 65.3661L124.042 64.8113C123.535 64.5647 122.914 64.8729 122.745 65.3661V65.4278C122.35 66.3525 122.575 67.5238 123.252 68.1403C123.422 68.3869 123.478 68.5719 123.422 68.8185Z" fill="#42210B"/>
<path d="M127.596 58.4606C127.427 58.8921 124.662 59.8785 123.195 61.728C121.728 63.5775 121.051 64.3173 120.825 64.4406C120.6 64.5022 121.39 62.776 121.39 62.776L125.001 59.3237L127.032 58.1523C127.032 58.1523 127.484 58.2756 127.54 58.4606C127.596 58.4606 127.596 58.4606 127.596 58.4606Z" fill="#222323"/>
<path d="M118.738 66.5377C118.738 66.5377 120.825 66.2911 121.277 68.6955C121.785 71.1614 126.468 74.3056 126.468 74.3056L126.637 73.6274C126.186 73.1959 125.114 72.2711 124.888 72.0862C124.549 71.8396 122.687 70.1134 122.405 69.5586C122.123 69.0037 121.333 67.2159 121.22 66.3528C121.107 65.4897 120.995 64.3184 120.995 64.3184C120.995 64.3184 118.963 66.1062 118.963 66.2295C118.794 66.2911 118.738 66.5377 118.738 66.5377Z" fill="black"/>
<path d="M120.657 55.2545C118.344 56.056 116.82 57.7821 116.03 59.0768C115.41 60.0632 115.015 61.2345 115.071 62.5291C115.071 63.7005 115.184 65.2417 115.692 66.2897C116.764 68.3858 119.776 70.5705 119.776 70.5705C119.776 70.5705 119.247 69.9271 118.908 68.4475C118.513 67.0295 118.739 66.2897 119.585 65.9198C120.432 65.4883 120.714 65.4267 120.996 64.1937C121.391 62.899 123.366 61.1112 123.366 61.1112C123.366 61.1112 125.735 59.2001 126.13 59.0151C126.525 58.8302 127.315 58.3986 127.654 58.5219C127.936 58.3986 124.607 53.8982 120.657 55.2545Z" fill="#29A9E0"/>
<path d="M132.901 95.1394C132.901 95.1394 131.999 94.0914 131.886 93.8448C131.773 93.5982 130.757 93.8448 130.419 94.153C130.137 94.4613 127.993 95.8792 128.105 96.1258C128.218 96.3724 130.419 100.441 131.491 100.75C132.563 101.058 134.086 96.8656 133.973 96.3724C133.973 95.9409 132.901 95.1394 132.901 95.1394Z" fill="#CECECE"/>
<path d="M132.847 96.8074C132.847 96.8074 131.662 95.0195 131.267 95.1428C130.928 95.2045 128.389 96.8074 128.784 97.4855C129.236 98.1636 130.082 99.5816 130.308 99.7665C130.533 100.013 131.887 99.2733 132.17 98.7801C132.508 98.287 132.847 97.6088 132.847 97.4239C132.903 97.1773 132.959 96.869 132.847 96.8074Z" fill="#AEAFAF"/>
<path d="M122.802 127.262C123.084 132.502 123.309 137.434 123.309 140.701C123.309 140.701 123.422 140.331 123.422 140.023C123.535 139.098 122.971 129.111 122.971 129.049C122.971 128.988 122.858 126.953 122.802 127.015L122.745 127.077L122.802 127.262Z" fill="#423836"/>
<defs>
<radialGradient id="paint0_radial_21707_140710" cx="0" cy="0" r="1" gradientUnits="userSpaceOnUse" gradientTransform="translate(128.467 179.956) rotate(90) scale(0.984403 8.10362)">
<stop/>
<stop offset="1" stop-color="#D9D9D9" stop-opacity="0"/>
</radialGradient>
<clipPath id="clip0_21707_140710">
<rect width="111.063" height="76.7877" fill="white" transform="matrix(0.996448 -0.0842084 0.0705251 0.99751 76.832 112.352)"/>
</clipPath>
</defs>
</svg>
