<svg width="343" height="233" viewBox="0 0 343 233" fill="none" xmlns="http://www.w3.org/2000/svg">
<path d="M296.033 201.808C294.554 189.407 286.481 191.68 278.997 171.241C277.365 166.796 271.592 170.387 267.813 171.336C247.74 176.353 239.893 186.192 237.819 199.542C237.672 200.49 237.672 201.532 238.34 201.627C248.34 203.234 273.37 202.386 296.038 201.815L296.033 201.808Z" fill="#C4EDEE"/>
<path d="M285.113 178.606C285.113 178.606 285.722 177.846 285.113 171.884C284.503 165.821 287.193 160.424 287.193 160.424C287.193 160.424 286.067 173.115 286.153 174.629C286.153 176.143 285.113 178.606 285.113 178.606Z" fill="#0B9D99"/>
<path d="M286.67 184.858C286.67 184.858 286.584 184.098 283.205 181.164C279.826 178.23 278.527 173.775 278.527 173.775C278.527 173.775 284.417 181.353 285.199 182.106C285.981 182.867 286.67 184.852 286.67 184.852V184.858Z" fill="#0B9D99"/>
<path d="M287.021 192.341C287.021 192.341 287.538 191.87 287.366 187.132C287.28 182.395 289.618 178.418 289.618 178.418C289.618 178.418 288.061 188.169 287.975 189.306C287.889 190.443 287.021 192.334 287.021 192.334V192.341Z" fill="#0B9D99"/>
<path d="M286.412 197.642C286.412 197.642 285.802 197.266 285.113 192.622C284.417 187.979 281.475 184.574 281.475 184.574C281.475 184.574 284.682 193.854 284.941 194.991C285.113 196.034 286.412 197.642 286.412 197.642Z" fill="#0B9D99"/>
<path d="M284.596 202.091C284.596 202.091 289.969 185.14 282.085 171.978C274.2 158.815 280.7 164.495 282.085 166.958C283.642 169.797 289.101 186.371 287.193 197.831C287.193 197.831 286.584 201.62 286.326 202.091C286.067 202.468 284.596 202.091 284.596 202.091Z" fill="#0B9D99"/>
<path d="M295.198 164.406C295.198 164.406 294.503 163.552 295.198 156.076C295.894 148.593 292.687 142.059 292.687 142.059C292.687 142.059 294.072 157.684 293.986 159.575C293.899 161.466 295.198 164.406 295.198 164.406Z" fill="#0B9D99"/>
<path d="M293.29 172.079C293.29 172.079 293.377 171.13 297.537 167.631C301.692 164.031 303.342 158.445 303.342 158.445C303.342 158.445 296.152 167.725 295.198 168.674C294.158 169.623 293.29 172.085 293.29 172.085V172.079Z" fill="#0B9D99"/>
<path d="M292.859 181.262C292.859 181.262 292.25 180.596 292.429 174.823C292.601 169.049 289.659 164.123 289.659 164.123C289.659 164.123 291.653 176.148 291.653 177.568C291.653 178.988 292.866 181.262 292.866 181.262H292.859Z" fill="#0B9D99"/>
<path d="M293.376 191.304C293.376 191.304 293.986 190.739 294.244 184.958C294.503 179.185 297.623 174.447 297.623 174.447C297.623 174.447 295.026 186.284 294.854 187.704C294.595 189.03 293.382 191.304 293.382 191.304H293.376Z" fill="#0B9D99"/>
<path d="M295.629 202.568C295.629 202.568 289.136 172.361 298.922 156.164C308.622 139.973 300.566 146.884 298.922 150.006C297.014 153.512 290.348 173.962 292.687 187.979C292.687 187.979 293.296 201.996 293.555 202.562C293.813 203.127 295.635 202.562 295.635 202.562L295.629 202.568Z" fill="#0B9D99"/>
<path d="M171.5 222.915C256.114 222.915 324.707 215.994 324.707 207.457C324.707 198.921 256.114 192 171.5 192C86.8863 192 18.2933 198.921 18.2933 207.457C18.2933 215.994 86.8863 222.915 171.5 222.915Z" fill="#F3F3F3"/>
<path d="M250.255 206.418H192.781V208.845H250.255V206.418Z" fill="#F2F2F2"/>
<path d="M158.152 206.244H100.678V208.671H158.152V206.244Z" fill="#F2F2F2"/>
<path d="M212.507 73.6465H161.896V195.335H212.507V73.6465Z" fill="#E9E9E9"/>
<path d="M182.745 94.0516H170.976C170.474 94.0516 169.972 93.5029 169.972 92.9543V83.0269C169.972 82.4783 170.474 81.9297 170.976 81.9297H182.745C183.246 81.9297 183.748 82.4783 183.748 83.0269V92.9543C183.748 93.5029 183.246 94.0516 182.745 94.0516Z" fill="white"/>
<path d="M201.909 94.0516H190.14C189.638 94.0516 189.136 93.5029 189.136 92.9543V83.0269C189.136 82.4783 189.638 81.9297 190.14 81.9297H201.909C202.41 81.9297 202.912 82.4783 202.912 83.0269V92.9543C202.912 93.5029 202.41 94.0516 201.909 94.0516Z" fill="white"/>
<path d="M182.745 111.136H170.976C170.474 111.136 169.972 110.587 169.972 110.038V100.111C169.972 99.5623 170.474 99.0137 170.976 99.0137H182.745C183.246 99.0137 183.748 99.5623 183.748 100.111V110.038C183.748 110.587 183.246 111.136 182.745 111.136Z" fill="white"/>
<path d="M201.909 111.136H190.14C189.638 111.136 189.136 110.587 189.136 110.038V100.111C189.136 99.5623 189.638 99.0137 190.14 99.0137H201.909C202.41 99.0137 202.912 99.5623 202.912 100.111V110.038C202.912 110.587 202.41 111.136 201.909 111.136Z" fill="white"/>
<path d="M183.079 128.417H171.311C170.809 128.417 170.307 127.868 170.307 127.32V117.392C170.307 116.844 170.809 116.295 171.311 116.295H183.079C183.581 116.295 184.083 116.844 184.083 117.392V127.32C184.083 128.051 183.748 128.417 183.079 128.417Z" fill="white"/>
<path d="M202.244 128.417H190.475C189.973 128.417 189.471 127.868 189.471 127.32V117.392C189.471 116.844 189.973 116.295 190.475 116.295H202.244C202.745 116.295 203.247 116.844 203.247 117.392V127.32C203.247 128.051 202.913 128.417 202.244 128.417Z" fill="white"/>
<path d="M183.581 146.809H171.813C171.311 146.809 170.809 146.261 170.809 145.712V135.785C170.809 135.236 171.311 134.688 171.813 134.688H183.581C184.083 134.688 184.585 135.236 184.585 135.785V145.712C184.585 146.261 184.083 146.809 183.581 146.809Z" fill="white"/>
<path d="M202.745 146.809H190.977C190.475 146.809 189.973 146.261 189.973 145.712V135.785C189.973 135.236 190.475 134.688 190.977 134.688H202.745C203.247 134.688 203.749 135.236 203.749 135.785V145.712C203.749 146.261 203.247 146.809 202.745 146.809Z" fill="white"/>
<path d="M183.581 163.712H171.813C171.311 163.712 170.809 163.163 170.809 162.614V152.687C170.809 152.138 171.311 151.59 171.813 151.59H183.581C184.083 151.59 184.585 152.138 184.585 152.687V162.614C184.585 163.163 184.083 163.712 183.581 163.712Z" fill="white"/>
<path d="M202.745 163.712H190.977C190.475 163.712 189.973 163.163 189.973 162.614V152.687C189.973 152.138 190.475 151.59 190.977 151.59H202.745C203.247 151.59 203.749 152.138 203.749 152.687V162.614C203.749 163.163 203.247 163.712 202.745 163.712Z" fill="white"/>
<path d="M195.349 170.334H177.189V195.518H195.349V170.334Z" fill="white"/>
<path d="M161.896 73.6472L185.433 56L212.507 73.6472H161.896Z" fill="#BBBCBC"/>
<path d="M280.293 34.709H212.203V198.681H280.293V34.709Z" fill="#E9E9E9"/>
<path d="M240.781 62.2838H224.138C223.636 62.2838 223.135 61.7351 223.135 61.1865V47.0269C223.135 46.4783 223.636 45.9297 224.138 45.9297H240.781C241.283 45.9297 241.785 46.4783 241.785 47.0269V61.1865C241.785 61.7351 241.283 62.2838 240.781 62.2838Z" fill="white"/>
<path d="M266.517 62.2838H249.874C249.372 62.2838 248.87 61.7351 248.87 61.1865V47.0269C248.87 46.4783 249.372 45.9297 249.874 45.9297H266.517C267.019 45.9297 267.52 46.4783 267.52 47.0269V61.1865C267.52 61.7351 267.019 62.2838 266.517 62.2838Z" fill="white"/>
<path d="M240.781 85.2603H224.138C223.636 85.2603 223.135 84.7117 223.135 84.1631V70.0035C223.135 69.4549 223.636 68.9062 224.138 68.9062H240.781C241.283 68.9062 241.785 69.4549 241.785 70.0035V84.1631C241.785 84.7117 241.283 85.2603 240.781 85.2603Z" fill="white"/>
<path d="M266.517 85.2603H249.874C249.372 85.2603 248.87 84.7117 248.87 84.1631V70.0035C248.87 69.4549 249.372 68.9062 249.874 68.9062H266.517C267.019 68.9062 267.52 69.4549 267.52 70.0035V84.1631C267.52 84.7117 267.019 85.2603 266.517 85.2603Z" fill="white"/>
<path d="M241.295 108.616H224.652C224.15 108.616 223.649 108.067 223.649 107.519V93.359C223.649 92.8103 224.15 92.2617 224.652 92.2617H241.295C241.797 92.2617 242.299 92.8103 242.299 93.359V107.519C242.299 108.25 241.797 108.616 241.295 108.616Z" fill="white"/>
<path d="M267.019 108.616H250.375C249.874 108.616 249.372 108.067 249.372 107.519V93.359C249.372 92.8103 249.874 92.2617 250.375 92.2617H267.019C267.52 92.2617 268.022 92.8103 268.022 93.359V107.519C268.022 108.25 267.688 108.616 267.019 108.616Z" fill="white"/>
<path d="M241.797 133.237H225.154C224.652 133.237 224.15 132.688 224.15 132.14V117.98C224.15 117.431 224.652 116.883 225.154 116.883H241.797C242.299 116.883 242.801 117.431 242.801 117.98V132.14C242.801 132.688 242.466 133.237 241.797 133.237Z" fill="white"/>
<path d="M267.688 133.237H251.045C250.543 133.237 250.041 132.688 250.041 132.14V117.98C250.041 117.431 250.543 116.883 251.045 116.883H267.688C268.189 116.883 268.691 117.431 268.691 117.98V132.14C268.691 132.688 268.189 133.237 267.688 133.237Z" fill="white"/>
<path d="M241.797 156.032H225.154C224.652 156.032 224.15 155.483 224.15 154.935V140.775C224.15 140.226 224.652 139.678 225.154 139.678H241.797C242.299 139.678 242.801 140.226 242.801 140.775V154.935C242.801 155.666 242.466 156.032 241.797 156.032Z" fill="white"/>
<path d="M267.688 156.032H251.045C250.543 156.032 250.041 155.483 250.041 154.935V140.775C250.041 140.226 250.543 139.678 251.045 139.678H267.688C268.189 139.678 268.691 140.226 268.691 140.775V154.935C268.691 155.666 268.189 156.032 267.688 156.032Z" fill="white"/>
<path d="M212.203 34.7082L244.151 11L280.472 34.7082H212.203Z" fill="#BBBCBC"/>
<g clip-path="url(#clip0_21707_140715)">
<path d="M157.764 156.945L158.276 156.707C160.126 155.843 162.262 156.837 162.98 158.897L168.98 176.095C169.1 176.436 169.261 176.755 169.462 177.048C170.618 178.729 174.763 184.153 178.789 181.945C183.234 179.506 191.018 159.8 190.354 161.389C190.354 161.389 197.942 145.936 198.016 145.819C199.499 143.514 201.695 149.477 202.966 152.045L202.862 152.066C203.461 153.279 201.946 154.658 201.296 155.837L190.144 176.886C190.033 177.087 188.982 179.114 188.871 179.317C187.85 181.197 185.592 188.079 180.51 189.611C174.851 191.316 169.258 191.329 167.882 190.984C166.505 190.639 164.671 191.051 163.706 187.299C162.963 184.411 158.034 168.819 155.806 161.798C155.192 159.867 156.049 157.745 157.766 156.943L157.764 156.945Z" fill="#81B928"/>
<path d="M161.002 154.589L162.651 154.084L170.191 173.812C170.607 174.987 171.208 176.081 171.99 177.006C173.058 178.27 174.607 179.415 176.206 178.261C179.113 176.16 183.81 161.807 183.81 161.807C183.81 161.807 185.824 156.529 186.38 156.456C186.936 156.384 187.635 156.408 189.022 156.678C190.41 156.948 191.575 154.609 191.749 154.245C191.923 153.881 193.923 151.017 193.742 149.749C193.562 148.481 194.268 148.76 194.597 148.85C194.925 148.94 196.666 149.585 195.445 147.747C194.224 145.908 197.687 143.735 197.687 143.735L198.783 145.97L198.95 146.567L199.143 146.998L197.203 150.331L190.417 162.865L182.315 179.241C182.315 179.241 177.822 186.457 170.852 179.504C170.852 179.504 168.319 176.614 166.816 171.216C165.313 165.817 161.002 154.59 161.002 154.59L161.002 154.589Z" fill="#76A321"/>
<path d="M230.051 162.985L222.393 180.566L223.25 180.951L231.075 163.42L230.124 162.845L230.051 162.985Z" fill="black"/>
<path d="M229.006 162.33L221.52 179.461L220.632 178.945L228.226 161.923L229.006 162.33Z" fill="black"/>
<path d="M206.338 154.109C206.766 154.891 218.592 179.75 218.592 179.75L216.018 181.582L195.496 144.26L199.979 140.645L206.338 154.109Z" fill="#81B928"/>
<path d="M201.986 144.975L205.996 153.552C205.996 153.552 208.959 153.408 212.916 151.807C216.872 150.205 216.464 145.583 216.073 142.834C215.682 140.085 215.327 139.57 215.327 139.57L201.253 143.393L201.986 144.975Z" fill="#202321"/>
<path d="M202.191 143.91L202.951 145.248L214.719 142.384C214.719 142.384 215.56 141.739 214.912 140.324L202.191 143.91Z" fill="black"/>
<path d="M222.662 213.488C208.614 214.675 196.283 202.866 195.173 187.163C194.062 171.46 204.587 157.72 218.635 156.533C232.682 155.346 245.013 167.154 246.124 182.857C247.234 198.56 236.709 212.3 222.662 213.488ZM218.991 161.57C207.477 162.543 198.854 173.849 199.767 186.775C200.681 199.7 210.792 209.423 222.305 208.45C233.819 207.477 242.443 196.171 241.529 183.246C240.615 170.32 230.504 160.597 218.991 161.57Z" fill="black"/>
<path d="M204.462 199.516L216.275 188.163L215.632 187.43L203.687 198.66L204.343 199.611L204.462 199.516Z" fill="black"/>
<path d="M204.725 200.785L217.649 188.278L218.333 189.268L205.346 201.607L204.725 200.785Z" fill="black"/>
<path d="M206.139 166.566L216.725 182.225L217.437 181.575L206.97 165.777L206.062 166.43L206.139 166.566Z" fill="black"/>
<path d="M205.122 167.27L215.428 182.551L214.595 183.17L204.429 167.836L205.122 167.27Z" fill="black"/>
<path d="M242.111 183.963L223.594 185.047L223.699 186.055L242.255 185.157L242.258 183.966L242.111 183.963Z" fill="black"/>
<path d="M242.133 182.644L223.352 183.797L223.339 182.694L242.083 181.698L242.133 182.644Z" fill="black"/>
<path d="M228.921 207.928L221.488 188.744L220.598 189.277L227.875 208.581L228.978 208.093L228.921 207.928Z" fill="black"/>
<path d="M230.262 206.81L222.292 187.871L223.326 187.397L231.133 206.357L230.262 206.81Z" fill="black"/>
<path d="M214.736 185.864L194.775 179.106L195.344 176.603L214.981 183.4L214.736 185.864Z" fill="black"/>
<path d="M194.904 180.939C194.904 180.939 194.509 175.789 197.9 170.118C201.291 164.447 203.28 160.941 211.057 157.558C218.835 154.175 225.932 156.981 225.932 156.981L228.551 156.215C228.551 156.215 225.328 154.58 221.164 154.592C216.999 154.603 207.039 155.241 200.827 163.192C194.616 171.143 194.365 174.641 194.056 175.552C193.748 176.463 192.98 181.435 192.98 181.435L192.633 183.556" fill="black"/>
<path d="M219.921 189.604C222.732 189.366 224.84 186.763 224.63 183.789C224.419 180.814 221.97 178.596 219.16 178.834C216.349 179.071 214.242 181.675 214.452 184.649C214.662 187.623 217.111 189.841 219.921 189.604Z" fill="black"/>
<path d="M118.739 156.095L119.033 160.26C119.033 160.26 127.031 160.197 131.25 163.622C135.469 167.046 138.28 171.672 138.849 179.231L158.34 177.14L161.257 176.818C161.257 176.818 158.335 159.814 143.344 153.463C143.344 153.463 138.06 151.303 130.865 152.596C125.236 153.607 118.68 155.28 118.68 155.28L118.737 156.093L118.739 156.095Z" fill="black"/>
<path d="M163.176 191.436C162.784 191.469 162.383 191.452 161.985 191.383L138.079 187.228C136.002 186.867 134.561 185.197 134.652 183.26L134.667 182.949C134.765 180.883 136.611 179.252 138.871 179.235C139.015 179.234 139.157 179.24 139.298 179.251L163.174 181.275C165.346 181.459 166.993 183.104 167.005 185.102L167.021 187.542C167.028 188.569 166.604 189.537 165.829 190.269C165.112 190.943 164.17 191.348 163.174 191.433L163.176 191.436ZM138.632 180.871C137.291 180.985 136.2 181.915 136.147 183.034L136.132 183.345C136.081 184.419 137.017 185.399 138.311 185.624L162.217 189.78C163.203 189.951 164.194 189.674 164.865 189.042C165.305 188.626 165.547 188.099 165.543 187.558L165.527 185.118C165.52 183.991 164.438 183.016 163.063 182.899L139.187 180.875C139.087 180.867 138.985 180.863 138.882 180.863C138.798 180.863 138.714 180.868 138.632 180.875L138.632 180.871Z" fill="black"/>
<path d="M138.304 181.629L159.754 183.496L158.976 188.331L137.003 185.214L138.304 181.629Z" fill="#81B928"/>
<path d="M138.335 211.115C124.288 212.302 111.957 200.493 110.846 184.79C109.736 169.087 120.261 155.347 134.308 154.16C148.356 152.972 160.687 164.781 161.797 180.484C162.908 196.187 152.383 209.927 138.335 211.115ZM134.665 159.197C123.151 160.17 114.527 171.476 115.441 184.402C116.355 197.327 126.465 207.05 137.979 206.077C149.493 205.104 158.116 193.798 157.202 180.872C156.289 167.947 146.178 158.224 134.665 159.197Z" fill="black"/>
<path d="M120.987 198.566L132.356 184.261L131.548 183.58L120.017 197.779L120.871 198.69L120.987 198.566Z" fill="black"/>
<path d="M121.917 199.594L133.324 185.652L134.445 185.628L122.635 200.271L121.917 199.594Z" fill="black"/>
<path d="M125.355 161.312L133.917 178.394L134.701 177.854L126.276 160.655L125.293 161.167L125.355 161.312Z" fill="black"/>
<path d="M124.259 161.86L132.591 178.524L131.689 179.014L123.504 162.318L124.259 161.86Z" fill="black"/>
<path d="M147.659 201.398L137.811 185.856L137.093 186.499L147.243 202.825L148.157 202.181L147.659 201.398Z" fill="black"/>
<path d="M149.365 201.246L138.338 184.886L139.175 184.276L149.942 200.631L149.365 201.246Z" fill="black"/>
<path d="M130.411 183.491L110.448 176.731L111.018 174.23L130.656 181.027L130.411 183.491Z" fill="black"/>
<path d="M110.578 178.567C110.578 178.567 110.182 173.417 113.574 167.746C116.965 162.074 118.954 158.569 126.731 155.186C134.508 151.803 141.606 154.609 141.606 154.609L144.224 153.843C144.224 153.843 141.002 152.208 136.837 152.22C132.673 152.231 122.761 152.551 116.548 160.502C110.335 168.454 110.115 172.018 109.732 173.181C109.43 174.096 108.655 179.064 108.655 179.064L108.308 181.186" fill="black"/>
<path d="M135.595 187.23C138.405 186.993 140.513 184.39 140.303 181.415C140.093 178.441 137.644 176.223 134.834 176.461C132.023 176.698 129.915 179.302 130.125 182.276C130.336 185.25 132.784 187.468 135.595 187.23Z" fill="black"/>
<path d="M165.564 195.326C169.889 194.961 173.133 190.953 172.809 186.375C172.485 181.798 168.717 178.383 164.392 178.748C160.067 179.114 156.823 183.121 157.147 187.699C157.471 192.277 161.239 195.692 165.564 195.326Z" fill="black"/>
<path d="M155.628 160.745L153.27 152.448C153.27 152.448 154.475 151.874 155.68 151.776C156.885 151.678 159.515 151.474 159.969 151.471C160.423 151.469 161.319 151.33 161.68 151.966C162.04 152.601 163.682 156.966 163.682 156.966L155.626 160.747L155.628 160.745Z" fill="black"/>
<path d="M163.741 156.938C163.741 156.938 162.053 151.855 161.223 151.551C160.392 151.246 154.999 151.872 154.999 151.872C154.999 151.872 160.01 152.057 161.092 154.378L162.31 157.609L163.74 156.938L163.741 156.938Z" fill="#0F1611"/>
<path d="M154.355 152.059L151.876 144.578L154.201 144.382L156.485 151.879L154.355 152.059Z" fill="#0F1611"/>
<path d="M143.402 140.164C143.402 140.164 145.138 144.956 145.376 145.076C145.613 145.195 162.944 143.58 162.944 143.58C162.944 143.58 164.975 141.551 162.074 141.136C159.174 140.72 143.477 139.466 143.477 139.466L143.116 139.428L143.402 140.162L143.402 140.164Z" fill="#0F1611"/>
<path d="M167.929 193.961C167.929 193.961 169.637 202.5 169.844 203.556C170.051 204.612 168.038 211.566 168.038 211.566C168.038 211.566 168.595 211.566 169.844 211.566C170.265 211.261 171.657 203.556 171.657 203.556L169.963 192.288L167.931 193.96L167.929 193.961Z" fill="#0F1611"/>
<path d="M166.172 198.157L159.283 198.739C159.021 198.761 158.825 199.012 158.845 199.299L158.97 201.057C158.99 201.344 159.219 201.559 159.481 201.537L166.37 200.955C166.632 200.933 166.828 200.682 166.807 200.395L166.683 198.637C166.663 198.35 166.434 198.135 166.172 198.157Z" fill="#0F1611"/>
<path d="M164.686 195.584L162.585 198.462L164.876 198.268L166.744 195.41L164.686 195.584Z" fill="#0F1611"/>
<path d="M195.495 144.258L192.342 136.758C192.342 136.758 192.539 132.517 193.907 130.765C195.276 129.013 194.789 129.601 194.108 128.976C193.691 128.595 192.861 127.865 192.278 127.357C191.856 126.987 191.51 126.526 191.263 125.999L191.055 125.555C191.055 125.555 190.684 124.701 189.154 125.035C187.624 125.369 185.528 125.868 185.528 125.868C185.528 125.868 186.754 123.496 185.433 123.375C183.769 123.22 191.097 120.852 191.097 120.852L194.098 122.865C194.098 122.865 194.141 121.43 194.927 121.363C195.713 121.297 198.127 122.472 199.998 123.235C201.87 123.998 202.75 124.586 202.405 125.638C202.06 126.69 199.913 126.002 199.728 126.018C199.542 126.034 198.812 126.914 198.812 126.914C198.812 126.914 197.271 130.825 197.586 132.639C197.901 134.453 199.994 140.663 199.994 140.663L195.499 144.261L195.495 144.258Z" fill="#202321"/>
<path d="M185.104 125.987C185.805 125.928 186.329 125.257 186.274 124.489C186.22 123.721 185.608 123.146 184.907 123.205C184.207 123.265 183.683 123.935 183.737 124.703C183.792 125.471 184.404 126.046 185.104 125.987Z" fill="#202321"/>
<path d="M163.378 164.062C163.162 164.152 163.052 164.419 163.135 164.656C163.217 164.893 163.804 165.293 163.804 165.293C163.804 165.293 164.003 164.568 163.921 164.331C163.838 164.093 163.596 163.971 163.378 164.062ZM163.582 164.649C163.503 164.681 163.416 164.638 163.386 164.551C163.357 164.465 163.397 164.37 163.475 164.338C163.554 164.306 163.641 164.349 163.67 164.435C163.7 164.521 163.66 164.617 163.582 164.649Z" fill="white"/>
<path d="M162.281 169.395L161.799 167.997C161.783 167.971 161.771 167.941 161.749 167.92C161.724 167.894 161.692 167.877 161.658 167.869C161.621 167.862 161.583 167.859 161.545 167.861C161.534 167.862 161.522 167.863 161.511 167.864C161.501 167.864 161.491 167.869 161.483 167.871C161.483 167.871 161.483 167.871 161.482 167.872C161.474 167.876 161.464 167.878 161.454 167.881L160.582 168.243L160.812 168.911L161.342 168.692L161.392 168.838C161.341 168.922 161.279 168.993 161.205 169.051C161.132 169.108 161.052 169.151 160.968 169.178C160.883 169.205 160.796 169.216 160.705 169.211C160.614 169.205 160.524 169.181 160.439 169.138C160.343 169.09 160.261 169.024 160.191 168.944C160.12 168.861 160.069 168.769 160.034 168.669C159.999 168.569 159.983 168.463 159.985 168.351C159.987 168.239 160.011 168.13 160.053 168.025C160.097 167.92 160.155 167.83 160.23 167.755C160.306 167.679 160.39 167.624 160.481 167.585C160.572 167.547 160.668 167.529 160.771 167.53C160.873 167.532 160.971 167.556 161.068 167.604L161.336 166.952C161.158 166.864 160.975 166.818 160.786 166.814C160.599 166.809 160.42 166.845 160.25 166.913C160.08 166.982 159.926 167.089 159.787 167.227C159.648 167.366 159.54 167.533 159.459 167.729C159.379 167.924 159.337 168.125 159.335 168.332C159.333 168.536 159.364 168.733 159.43 168.921C159.496 169.109 159.589 169.277 159.713 169.429C159.838 169.581 159.99 169.701 160.168 169.789C160.346 169.877 160.529 169.923 160.717 169.927C160.904 169.931 161.083 169.896 161.254 169.827C161.322 169.798 161.391 169.763 161.458 169.723C161.524 169.682 161.587 169.635 161.644 169.581L161.669 169.651L162.28 169.399L162.281 169.395Z" fill="white"/>
<path d="M162.706 165.903C162.887 165.828 163.073 165.794 163.259 165.805C163.446 165.815 163.621 165.862 163.785 165.942C163.949 166.022 164.098 166.136 164.227 166.285C164.358 166.433 164.458 166.605 164.527 166.806C164.595 167.006 164.626 167.208 164.617 167.414C164.609 167.619 164.566 167.811 164.491 167.991C164.417 168.171 164.313 168.332 164.177 168.475C164.044 168.619 163.885 168.728 163.704 168.803C163.522 168.878 163.337 168.912 163.151 168.9C162.964 168.891 162.789 168.844 162.626 168.764C162.462 168.682 162.315 168.567 162.186 168.421C162.055 168.273 161.957 168.1 161.887 167.9C161.816 167.699 161.787 167.497 161.796 167.292C161.804 167.087 161.845 166.895 161.918 166.715C161.992 166.535 162.096 166.374 162.229 166.233C162.363 166.089 162.522 165.98 162.703 165.905L162.706 165.903ZM163.478 168.134C163.576 168.094 163.661 168.036 163.735 167.959C163.807 167.882 163.864 167.796 163.903 167.697C163.944 167.599 163.966 167.494 163.97 167.385C163.974 167.274 163.958 167.165 163.92 167.058C163.883 166.951 163.83 166.856 163.76 166.777C163.69 166.697 163.612 166.635 163.521 166.59C163.432 166.546 163.336 166.521 163.237 166.517C163.136 166.513 163.036 166.53 162.938 166.571C162.841 166.612 162.755 166.67 162.683 166.746C162.611 166.823 162.555 166.909 162.515 167.009C162.474 167.106 162.452 167.211 162.448 167.32C162.444 167.431 162.46 167.54 162.498 167.647C162.535 167.754 162.588 167.849 162.658 167.929C162.728 168.008 162.807 168.07 162.897 168.115C162.986 168.16 163.082 168.184 163.181 168.188C163.283 168.194 163.382 168.175 163.48 168.134L163.478 168.134Z" fill="white"/>
<path d="M161.636 170.779C161.596 170.773 161.567 170.767 161.55 170.757C161.523 170.743 161.505 170.721 161.495 170.692C161.484 170.662 161.485 170.631 161.496 170.601C161.509 170.572 161.529 170.552 161.556 170.539C161.583 170.526 161.611 170.527 161.635 170.541C161.659 170.553 161.677 170.572 161.685 170.596L161.658 170.627C161.646 170.605 161.634 170.59 161.618 170.582C161.603 170.574 161.588 170.574 161.571 170.583C161.553 170.591 161.541 170.603 161.534 170.62C161.527 170.639 161.525 170.657 161.533 170.676C161.541 170.695 161.552 170.708 161.569 170.716C161.579 170.721 161.597 170.726 161.626 170.733C161.669 170.74 161.702 170.748 161.723 170.759C161.757 170.776 161.779 170.803 161.793 170.839C161.807 170.876 161.805 170.914 161.791 170.951C161.775 170.989 161.751 171.014 161.717 171.028C161.684 171.041 161.649 171.041 161.615 171.024C161.581 171.007 161.56 170.983 161.549 170.95L161.583 170.924C161.594 170.952 161.61 170.97 161.632 170.983C161.656 170.993 161.679 170.995 161.703 170.986C161.727 170.977 161.744 170.959 161.753 170.933C161.765 170.907 161.764 170.881 161.756 170.855C161.748 170.829 161.731 170.81 161.708 170.8C161.696 170.794 161.672 170.787 161.637 170.779L161.636 170.779Z" fill="white"/>
<path d="M161.687 170.173L161.726 170.157L161.834 170.471C161.855 170.422 161.887 170.391 161.934 170.37C161.983 170.35 162.029 170.35 162.072 170.371C162.115 170.393 162.145 170.428 162.164 170.481L162.27 170.79L162.232 170.806L162.126 170.501C162.112 170.462 162.088 170.433 162.052 170.416C162.017 170.4 161.982 170.399 161.947 170.413C161.911 170.427 161.885 170.454 161.87 170.491C161.863 170.508 161.859 170.525 161.857 170.541L161.983 170.908L161.945 170.924L161.686 170.173L161.687 170.173Z" fill="white"/>
<path d="M162.85 170.548L162.812 170.563L162.779 170.471C162.775 170.485 162.771 170.498 162.766 170.512C162.738 170.581 162.69 170.63 162.626 170.655C162.562 170.68 162.498 170.68 162.435 170.648C162.372 170.617 162.329 170.565 162.304 170.495C162.28 170.425 162.281 170.354 162.311 170.283C162.339 170.214 162.386 170.167 162.45 170.14C162.514 170.113 162.578 170.115 162.641 170.147C162.653 170.153 162.665 170.161 162.676 170.168L162.653 170.103L162.691 170.087L162.85 170.548ZM162.742 170.36L162.713 170.276C162.692 170.238 162.662 170.209 162.623 170.19C162.57 170.164 162.518 170.163 162.465 170.184C162.412 170.204 162.372 170.246 162.35 170.303C162.326 170.361 162.325 170.419 162.346 170.477C162.366 170.534 162.402 170.578 162.455 170.603C162.508 170.629 162.56 170.63 162.613 170.607C162.666 170.585 162.706 170.545 162.728 170.488C162.746 170.445 162.751 170.401 162.743 170.357L162.742 170.36Z" fill="white"/>
<path d="M162.823 170.033L162.862 170.017L162.89 170.101C162.894 170.085 162.9 170.07 162.905 170.053C162.926 170.003 162.953 169.968 162.988 169.952L163.005 169.998C162.981 170.009 162.961 170.034 162.944 170.073C162.922 170.127 162.919 170.183 162.936 170.24L163.019 170.478L162.981 170.493L162.822 170.033L162.823 170.033Z" fill="white"/>
<path d="M163.09 169.75C163.101 169.755 163.108 169.763 163.112 169.776C163.116 169.788 163.115 169.799 163.111 169.81C163.107 169.821 163.099 169.829 163.088 169.834C163.077 169.838 163.067 169.837 163.057 169.833C163.046 169.828 163.039 169.82 163.035 169.807C163.031 169.795 163.032 169.784 163.036 169.773C163.04 169.762 163.048 169.754 163.059 169.749C163.07 169.745 163.08 169.746 163.09 169.75ZM163.134 169.906L163.294 170.367L163.255 170.383L163.096 169.922L163.134 169.906Z" fill="white"/>
<path d="M163.344 169.936L163.468 170.293L163.43 170.309L163.271 169.848L163.309 169.832L163.319 169.862C163.342 169.81 163.376 169.774 163.422 169.754C163.471 169.734 163.517 169.734 163.56 169.755C163.603 169.777 163.633 169.812 163.651 169.865L163.757 170.173L163.719 170.189L163.613 169.884C163.599 169.846 163.576 169.817 163.54 169.8C163.504 169.783 163.47 169.783 163.435 169.796C163.399 169.81 163.373 169.838 163.358 169.875C163.35 169.896 163.344 169.916 163.344 169.936Z" fill="white"/>
<path d="M164.271 169.856C164.267 169.869 164.263 169.882 164.257 169.895C164.229 169.965 164.182 170.014 164.117 170.039C164.053 170.064 163.989 170.064 163.926 170.032C163.863 170.001 163.819 169.949 163.795 169.879C163.77 169.808 163.771 169.738 163.801 169.668C163.829 169.599 163.877 169.552 163.941 169.525C164.005 169.498 164.069 169.499 164.133 169.53C164.145 169.536 164.157 169.544 164.167 169.551L164.144 169.486L164.183 169.47L164.307 169.828C164.33 169.897 164.328 169.965 164.302 170.033C164.274 170.102 164.226 170.149 164.162 170.176C164.098 170.203 164.033 170.202 163.97 170.169C163.956 170.163 163.944 170.155 163.934 170.147L163.97 170.115C163.97 170.115 163.982 170.123 163.988 170.126C164.041 170.152 164.094 170.153 164.147 170.132C164.2 170.112 164.238 170.071 164.262 170.014C164.283 169.962 164.288 169.909 164.273 169.856L164.271 169.856ZM164.204 169.66C164.184 169.622 164.153 169.593 164.114 169.575C164.061 169.549 164.009 169.548 163.956 169.569C163.903 169.589 163.863 169.631 163.84 169.689C163.817 169.747 163.816 169.804 163.836 169.862C163.857 169.92 163.893 169.964 163.946 169.989C163.999 170.015 164.052 170.016 164.104 169.995C164.157 169.974 164.197 169.933 164.22 169.875C164.236 169.834 164.242 169.79 164.237 169.747L164.206 169.658L164.204 169.66Z" fill="white"/>
<path d="M174.569 178.874C175.395 177.373 185.074 150.893 185.074 150.893C185.074 150.893 186.031 148.836 186.071 148.748C186.111 148.659 186.833 148.104 188.172 148.57C189.511 149.036 193.977 150.706 193.977 150.706L190.014 157.051C190.014 157.051 188.354 157.293 187.283 157.078C186.211 156.862 185.36 158.467 184.47 160.825C183.58 163.182 177.25 180.003 177.25 180.003" fill="black"/>
<ellipse opacity="0.5" cx="168.595" cy="211.565" rx="10.0229" ry="1.21755" fill="url(#paint0_radial_21707_140715)"/>
</g>
<path fill-rule="evenodd" clip-rule="evenodd" d="M163.637 96.8372C163.637 96.8372 164.567 91.4366 158.459 85.0361C152.359 78.638 142.109 75.5913 142.517 61.6978C142.925 47.8042 165.259 34.4439 173.037 50.9249C182.236 70.4309 165.522 97.6005 163.637 96.8372Z" fill="#3DBCC8"/>
<path fill-rule="evenodd" clip-rule="evenodd" d="M152.995 56.3191V60.6292H157.008V56.3191H152.995ZM152.925 54.1641C151.875 54.1641 151.024 55.0945 151.024 56.2421V60.7062C151.024 61.8539 151.875 62.7843 152.925 62.7843H157.008C158.058 62.7843 158.909 61.8539 158.909 60.7062V56.2421C158.909 55.0945 158.058 54.1641 157.008 54.1641L152.925 54.1641Z" fill="white"/>
<path fill-rule="evenodd" clip-rule="evenodd" d="M160.844 65.9399C160.844 65.366 161.27 64.9008 161.795 64.9008H164.963C165.488 64.9008 165.913 65.366 165.913 65.9399C165.913 66.5137 165.488 66.9789 164.963 66.9789H162.745V69.057C162.745 69.6308 162.32 70.096 161.795 70.096C161.27 70.096 160.844 69.6308 160.844 69.057V65.9399Z" fill="white"/>
<path fill-rule="evenodd" clip-rule="evenodd" d="M160.844 72.5205C160.844 71.9466 161.27 71.4814 161.795 71.4814H164.963C165.488 71.4814 165.913 71.9466 165.913 72.5205C165.913 73.0943 165.488 73.5595 164.963 73.5595H161.795C161.27 73.5595 160.844 73.0943 160.844 72.5205Z" fill="white"/>
<path fill-rule="evenodd" clip-rule="evenodd" d="M167.814 68.018C168.339 68.018 168.764 68.4832 168.764 69.057V72.5205C168.764 73.0943 168.339 73.5595 167.814 73.5595C167.289 73.5595 166.864 73.0943 166.864 72.5205V70.096H164.963C164.438 70.096 164.012 69.6308 164.012 69.057C164.012 68.4832 164.438 68.018 164.963 68.018H167.814Z" fill="white"/>
<path d="M155.917 58.4357C155.917 59.0095 155.491 59.4747 154.966 59.4747C154.441 59.4747 154.016 59.0095 154.016 58.4357C154.016 57.8618 154.441 57.3966 154.966 57.3966C155.491 57.3966 155.917 57.8618 155.917 58.4357Z" fill="white"/>
<path d="M168.764 65.9399C168.764 66.5137 168.339 66.9789 167.814 66.9789C167.289 66.9789 166.864 66.5137 166.864 65.9399C166.864 65.366 167.289 64.9008 167.814 64.9008C168.339 64.9008 168.764 65.366 168.764 65.9399Z" fill="white"/>
<path fill-rule="evenodd" clip-rule="evenodd" d="M162.851 56.3191V60.6292H166.864V56.3191H162.851ZM162.78 54.1641C161.731 54.1641 160.88 55.0945 160.88 56.2421V60.7062C160.88 61.8539 161.731 62.7843 162.78 62.7843H166.864C167.913 62.7843 168.764 61.8539 168.764 60.7062V56.2421C168.764 55.0945 167.913 54.1641 166.864 54.1641L162.78 54.1641Z" fill="white"/>
<path d="M165.772 58.4357C165.772 59.0095 165.347 59.4747 164.822 59.4747C164.297 59.4747 163.872 59.0095 163.872 58.4357C163.872 57.8618 164.297 57.3966 164.822 57.3966C165.347 57.3966 165.772 57.8618 165.772 58.4357Z" fill="white"/>
<path fill-rule="evenodd" clip-rule="evenodd" d="M152.995 67.0944V71.4045H157.008V67.0944H152.995ZM152.925 64.9393C151.875 64.9393 151.024 65.8697 151.024 67.0174V71.4814C151.024 72.6291 151.875 73.5595 152.925 73.5595H157.008C158.058 73.5595 158.909 72.6291 158.909 71.4814V67.0174C158.909 65.8697 158.058 64.9393 157.008 64.9393H152.925Z" fill="white"/>
<path d="M155.917 69.2109C155.917 69.7848 155.491 70.25 154.966 70.25C154.441 70.25 154.016 69.7848 154.016 69.2109C154.016 68.6371 154.441 68.1719 154.966 68.1719C155.491 68.1719 155.917 68.6371 155.917 69.2109Z" fill="white"/>
<path d="M126.925 107.792C127.259 110.439 137.613 124.681 143.458 125.137C143.542 125.137 143.625 125.137 143.792 125.137C144.21 125.137 144.627 124.954 145.045 124.772C147.132 123.311 155.565 117.286 158.488 113.634L157.987 109.892C153.562 111.535 143.792 118.108 143.792 118.108C143.792 118.108 143.375 118.29 143.208 118.016C135.526 110.165 132.019 107.244 129.514 105.145L126.925 107.792Z" fill="#D7A887"/>
<path d="M112.314 202.734C112.731 203.921 111.98 208.302 111.896 209.672C112.731 210.95 114.819 209.946 115.069 208.576C115.069 208.394 115.236 208.394 115.236 208.029C114.986 207.207 115.487 204.012 116.071 202.277L112.314 202.734Z" fill="#F8AB90"/>
<path d="M125.255 204.651C125.589 205.837 124.587 208.759 124.504 210.219C125.255 211.589 127.426 210.676 127.76 209.306C127.76 209.124 127.927 209.124 127.927 208.759C127.593 207.846 128.345 205.29 129.096 203.646L125.255 204.651Z" fill="#F8AB90"/>
<path d="M125.089 136.549H132.938C136.862 149.512 138.031 164.21 135.693 178.816C135.526 179.911 135.276 181.007 134.942 182.102L132.27 204.742C130.266 205.655 124.421 205.016 122.417 204.468C125.089 196.07 126.592 188.675 127.176 180.55C127.427 179.272 127.427 176.625 127.427 176.625C128.345 164.027 125.673 139.744 125.089 136.549Z" fill="#74B79C"/>
<path d="M118.743 204.56C116.071 205.382 112.397 204.012 110.309 203.099L115.403 177.903C115.486 177.447 115.486 176.899 115.486 176.443L113.649 146.226C113.649 145.496 113.649 144.765 113.733 144.035C114.067 141.388 114.651 137.553 115.653 136.275H125.923C128.846 151.247 128.345 164.027 127.176 171.239C127.092 171.878 126.508 178.908 125.84 180.916L118.743 204.56Z" fill="#74B79C"/>
<path d="M132.937 136.731L115.485 137.005L115.402 136.183L132.853 136.092L132.937 136.731Z" fill="#20505A"/>
<path d="M119.829 86.6133L125.841 87.2523C124.087 90.2649 122.751 92.9123 124.755 95.0119L118.994 94.4642C120.998 93.0035 120.664 89.4433 119.829 86.6133Z" fill="#ECBC97"/>
<path d="M125.842 74.1992C125.842 74.1992 128.096 77.2118 127.595 79.4027C127.512 79.7679 127.512 80.0418 127.428 80.2244C127.178 81.5024 127.178 81.4111 128.43 82.0501C129.098 82.4153 128.514 83.0543 128.18 83.3282C128.013 83.5107 127.929 83.6933 127.929 83.9672C127.929 84.2411 128.013 84.515 128.013 84.515C128.013 84.6063 128.263 85.3365 127.595 85.3365C124.255 85.4278 127.011 85.3365 127.762 85.6104C127.762 85.6104 128.096 85.793 128.013 85.9756C127.929 86.1582 127.679 86.432 127.595 86.7059C127.512 86.9798 127.512 87.8014 127.345 88.1665C127.178 88.5317 125.257 89.1707 124.088 88.8055C123.17 88.5317 122.001 88.2578 121.5 88.1665C121.333 88.1665 120.999 87.7101 120.915 87.5275C120.665 87.3449 119.997 87.1624 119.496 86.7972C118.494 86.0669 119.329 85.7017 119.412 85.2453C119.496 84.7888 119.663 83.9672 119.496 83.6933C119.329 83.4195 118.494 82.324 118.327 81.8676C118.076 81.1372 118.494 79.8592 118.828 79.4027C119.162 78.9463 119.83 78.7637 120.247 79.1289C120.581 79.4027 120.999 79.4028 121.166 79.0376C121.416 78.5812 123.587 75.4773 124.005 75.2034C124.422 74.9296 125.842 74.1992 125.842 74.1992Z" fill="#ECBC97"/>
<path d="M127.928 76.1161C127.844 76.4813 127.677 76.7552 127.51 77.029C127.26 77.4855 126.842 77.8506 126.341 78.0332C124.838 78.6722 123.586 79.3112 122.166 79.2199C121.582 79.1287 121.081 79.4938 120.83 80.1328C120.663 80.6806 120.329 81.0458 119.995 81.4109C119.411 82.0499 119.244 83.0541 119.494 83.8757C119.912 85.0625 121.582 89.3531 121.164 90.3573C122.083 98.8472 114.067 108.615 107.053 102.042C103.713 98.1169 110.226 91.4528 110.393 87.3447C110.142 82.1412 113.983 77.6681 114.401 76.5726C114.568 76.2074 114.735 75.9336 114.985 75.6597C115.987 74.5642 116.822 73.1036 117.657 72.4646C118.409 71.8255 119.244 71.4604 120.162 71.0952C121.582 70.5475 123.168 70.73 124.504 71.6429C125.924 72.5558 127.176 73.8339 127.677 74.9294C128.011 75.2945 128.095 75.751 127.928 76.1161Z" fill="#BC9D02"/>
<path d="M120.33 81.1361C120.163 80.771 119.913 80.4971 119.662 80.4058C119.579 80.3145 119.412 80.4058 119.328 80.4058C118.577 80.771 118.41 81.41 118.744 82.2316C118.744 82.2316 118.744 82.2316 118.744 82.3229C119.245 83.1445 119.579 83.327 120.247 83.6922L120.33 81.1361Z" fill="#ECBC97"/>
<path d="M111.897 207.114C113.149 207.753 114.402 207.753 115.738 206.932C115.821 206.932 115.905 206.932 115.905 207.023C116.656 208.484 117.408 210.401 118.577 211.496C119.829 212.409 121.332 213.048 123.002 213.596C123.169 213.687 123.42 213.778 123.67 213.687C124.505 213.687 125.09 213.778 125.674 214.144C125.758 214.144 125.841 214.235 125.925 214.235C126.259 214.417 126.426 214.874 126.509 215.422C126.509 215.787 126.342 216.061 126.092 216.243C124.756 217.065 123.002 217.43 120.915 217.43L117.074 216.882L110.978 216.334L110.31 216.061C110.227 215.969 110.143 215.878 110.143 215.787C110.143 214.691 110.31 213.505 110.728 212.318C110.811 211.953 111.062 211.496 111.229 211.131C111.73 210.127 111.897 208.849 111.813 207.388C111.73 207.114 111.813 207.023 111.897 207.114Z" fill="#BFBAB8"/>
<path d="M110.144 214.236C109.977 214.236 109.894 215.514 109.977 215.788C110.061 216.153 111.23 216.336 111.48 216.336C112.399 216.519 113.484 216.519 114.486 216.61L117.91 216.975C118.912 217.158 119.997 217.34 121.166 217.34C122.085 217.34 123.003 217.249 123.922 216.975C124.673 216.792 125.341 216.519 126.009 216.062C126.093 215.971 126.176 215.971 126.176 215.788C126.343 215.332 126.343 214.601 125.675 214.236C124.924 214.693 123.755 214.967 122.502 215.24C121.584 215.423 120.498 215.514 119.329 215.423C117.492 215.332 115.739 215.241 114.152 214.875C112.733 214.784 111.313 214.601 110.144 214.236Z" fill="#20505A"/>
<path d="M123.42 213.596C123.336 214.235 123.336 214.691 123.587 215.056C124.505 214.874 125.257 214.6 125.925 214.235C125.257 213.778 124.422 213.504 123.42 213.596Z" fill="#F05A24"/>
<path d="M115.572 208.668C115.757 208.668 115.906 208.505 115.906 208.303C115.906 208.101 115.757 207.938 115.572 207.938C115.388 207.938 115.238 208.101 115.238 208.303C115.238 208.505 115.388 208.668 115.572 208.668Z" fill="#D7CCC2"/>
<path d="M116.156 209.946C116.341 209.946 116.491 209.782 116.491 209.58C116.491 209.378 116.341 209.215 116.156 209.215C115.972 209.215 115.822 209.378 115.822 209.58C115.822 209.782 115.972 209.946 116.156 209.946Z" fill="#D7CCC2"/>
<path d="M116.659 211.039C116.844 211.039 116.993 210.876 116.993 210.674C116.993 210.472 116.844 210.309 116.659 210.309C116.475 210.309 116.325 210.472 116.325 210.674C116.325 210.876 116.475 211.039 116.659 211.039Z" fill="#D7CCC2"/>
<path d="M117.493 212.137C117.678 212.137 117.828 211.973 117.828 211.772C117.828 211.57 117.678 211.406 117.493 211.406C117.309 211.406 117.159 211.57 117.159 211.772C117.159 211.973 117.309 212.137 117.493 212.137Z" fill="#D7CCC2"/>
<path d="M118.409 212.866C118.594 212.866 118.743 212.702 118.743 212.5C118.743 212.298 118.594 212.135 118.409 212.135C118.224 212.135 118.075 212.298 118.075 212.5C118.075 212.702 118.224 212.866 118.409 212.866Z" fill="#D7CCC2"/>
<path d="M119.717 213.419C119.858 213.289 119.877 213.059 119.758 212.904C119.64 212.75 119.429 212.729 119.288 212.859C119.146 212.989 119.127 213.219 119.246 213.374C119.365 213.528 119.575 213.549 119.717 213.419Z" fill="#D7CCC2"/>
<path d="M120.719 213.818C120.825 213.721 120.839 213.548 120.75 213.432C120.661 213.316 120.503 213.301 120.397 213.398C120.291 213.495 120.277 213.668 120.366 213.784C120.455 213.9 120.613 213.915 120.719 213.818Z" fill="#D7CCC2"/>
<path d="M122.044 214.101C122.112 213.969 122.07 213.802 121.949 213.728C121.828 213.653 121.676 213.7 121.607 213.832C121.539 213.963 121.582 214.131 121.703 214.205C121.823 214.279 121.976 214.233 122.044 214.101Z" fill="#D7CCC2"/>
<path d="M116.239 209.214C116.49 209.123 116.824 209.123 116.991 209.306C117.075 209.488 117.158 209.671 117.242 209.762C116.991 209.58 116.573 209.671 116.406 209.671C116.49 209.488 116.406 209.306 116.239 209.214Z" fill="#686461"/>
<path d="M116.741 210.311C116.991 210.22 117.326 210.037 117.576 210.128C117.66 210.22 117.743 210.311 117.827 210.494C117.493 210.402 117.075 210.585 116.992 210.676C116.992 210.494 116.908 210.402 116.741 210.311Z" fill="#686461"/>
<path d="M117.492 211.405C117.659 211.222 118.077 211.131 118.327 211.131C118.411 211.222 118.494 211.313 118.661 211.405C118.327 211.405 117.91 211.587 117.743 211.77C117.743 211.587 117.659 211.405 117.492 211.405Z" fill="#686461"/>
<path d="M118.494 212.135C118.661 211.952 118.911 211.861 119.245 211.77C119.329 211.861 119.496 211.861 119.663 212.043C119.329 212.135 118.995 212.409 118.828 212.5C118.744 212.409 118.661 212.226 118.494 212.135Z" fill="#686461"/>
<path d="M119.497 212.776C119.664 212.502 119.831 212.41 120.081 212.41C120.249 212.502 120.249 212.502 120.416 212.593C120.165 212.776 119.914 213.05 119.831 213.141C119.831 212.958 119.747 212.776 119.497 212.776Z" fill="#686461"/>
<path d="M120.581 213.324C120.748 213.05 120.999 212.959 121.166 212.867C121.333 212.959 121.416 212.959 121.583 213.05C121.333 213.233 121.082 213.507 120.915 213.598C120.831 213.507 120.748 213.324 120.581 213.324Z" fill="#686461"/>
<path d="M121.668 213.778C121.752 213.413 121.752 213.321 121.919 213.139C122.086 213.139 122.253 213.23 122.253 213.23C122.17 213.504 122.17 213.687 122.086 213.869C122.002 213.778 121.835 213.595 121.668 213.778Z" fill="#686461"/>
<path d="M115.657 207.936C115.907 207.844 116.158 207.844 116.325 207.936C116.409 208.118 116.492 208.301 116.576 208.392C116.241 208.301 116.074 208.21 115.907 208.301C115.907 208.21 115.824 208.027 115.657 207.936Z" fill="#686461"/>
<path d="M114.404 207.479C114.404 207.388 114.404 207.297 114.404 207.205C114.404 207.023 114.571 206.84 114.738 206.749C114.988 206.566 115.239 206.384 115.573 206.201C115.656 206.384 115.74 206.658 115.823 206.931C115.573 207.114 115.239 207.205 115.072 207.297C114.905 207.297 114.654 207.388 114.404 207.479Z" fill="#20505A"/>
<path d="M124.507 207.753C125.759 208.392 127.012 208.392 128.348 207.57C128.431 207.57 128.515 207.57 128.515 207.662C129.266 209.122 130.018 211.039 131.187 212.135C132.439 213.048 133.942 213.687 135.612 214.234C135.779 214.326 136.03 214.417 136.28 214.326C137.115 214.326 137.7 214.417 138.284 214.782C138.368 214.782 138.451 214.873 138.535 214.873C138.869 215.056 139.036 215.512 139.119 216.06C139.119 216.425 138.952 216.699 138.702 216.882C137.366 217.703 135.612 218.069 133.525 218.069L129.684 217.521L123.588 216.973L122.92 216.699C122.837 216.608 122.753 216.517 122.753 216.425C122.753 215.33 122.92 214.143 123.338 212.956C123.421 212.591 123.672 212.135 123.839 211.77C124.34 210.765 124.507 209.487 124.423 208.027C124.423 207.753 124.507 207.753 124.507 207.753Z" fill="#BFBAB8"/>
<path d="M122.834 214.963C122.667 214.963 122.584 216.241 122.667 216.515C122.751 216.88 123.92 217.063 124.17 217.063C125.089 217.245 126.174 217.245 127.176 217.336L130.6 217.702C131.602 217.884 132.687 218.067 133.856 218.067C134.775 218.067 135.693 217.975 136.612 217.702C137.363 217.519 138.031 217.245 138.699 216.789C138.783 216.697 138.866 216.697 138.866 216.515C139.033 216.058 139.033 215.328 138.365 214.963C137.614 215.419 136.445 215.693 135.192 215.967C134.274 216.15 133.188 216.241 132.019 216.15C130.182 216.058 128.429 215.967 126.842 215.602C125.423 215.511 124.003 215.328 122.834 214.963Z" fill="#20505A"/>
<path d="M136.027 214.325C135.943 214.964 135.943 215.421 136.194 215.786C137.112 215.603 137.864 215.329 138.532 214.964C137.864 214.416 137.112 214.234 136.027 214.325Z" fill="#20505A"/>
<path d="M128.263 209.305C128.448 209.305 128.598 209.141 128.598 208.94C128.598 208.738 128.448 208.574 128.263 208.574C128.079 208.574 127.929 208.738 127.929 208.94C127.929 209.141 128.079 209.305 128.263 209.305Z" fill="#D7CCC2"/>
<path d="M128.763 210.582C128.948 210.582 129.097 210.419 129.097 210.217C129.097 210.015 128.948 209.852 128.763 209.852C128.579 209.852 128.429 210.015 128.429 210.217C128.429 210.419 128.579 210.582 128.763 210.582Z" fill="#D7CCC2"/>
<path d="M129.349 211.77C129.534 211.77 129.683 211.606 129.683 211.404C129.683 211.203 129.534 211.039 129.349 211.039C129.165 211.039 129.015 211.203 129.015 211.404C129.015 211.606 129.165 211.77 129.349 211.77Z" fill="#D7CCC2"/>
<path d="M130.099 212.774C130.284 212.774 130.433 212.61 130.433 212.408C130.433 212.207 130.284 212.043 130.099 212.043C129.914 212.043 129.765 212.207 129.765 212.408C129.765 212.61 129.914 212.774 130.099 212.774Z" fill="#D7CCC2"/>
<path d="M131.101 213.504C131.285 213.504 131.435 213.341 131.435 213.139C131.435 212.937 131.285 212.773 131.101 212.773C130.916 212.773 130.766 212.937 130.766 213.139C130.766 213.341 130.916 213.504 131.101 213.504Z" fill="#D7CCC2"/>
<path d="M132.385 214.056C132.527 213.926 132.545 213.696 132.427 213.541C132.308 213.386 132.097 213.366 131.956 213.496C131.814 213.625 131.796 213.856 131.914 214.011C132.033 214.165 132.244 214.185 132.385 214.056Z" fill="#D7CCC2"/>
<path d="M133.384 214.453C133.49 214.356 133.504 214.183 133.415 214.067C133.326 213.951 133.168 213.936 133.062 214.033C132.956 214.13 132.942 214.303 133.031 214.419C133.12 214.535 133.278 214.55 133.384 214.453Z" fill="#D7CCC2"/>
<path d="M134.774 214.787C134.842 214.655 134.799 214.488 134.679 214.413C134.558 214.339 134.405 214.385 134.337 214.517C134.269 214.649 134.312 214.816 134.432 214.891C134.553 214.965 134.706 214.918 134.774 214.787Z" fill="#D7CCC2"/>
<path d="M128.929 209.853C129.18 209.762 129.514 209.762 129.681 209.944C129.765 210.127 129.848 210.31 129.932 210.401C129.681 210.218 129.263 210.31 129.096 210.31C129.096 210.127 129.096 209.944 128.929 209.853Z" fill="#686461"/>
<path d="M129.432 211.038C129.683 210.946 130.017 210.764 130.268 210.855C130.351 210.946 130.435 211.038 130.518 211.22C130.184 211.129 129.766 211.312 129.683 211.403C129.683 211.22 129.599 211.038 129.432 211.038Z" fill="#686461"/>
<path d="M130.183 212.043C130.35 211.861 130.768 211.77 131.018 211.77C131.102 211.861 131.185 211.952 131.352 212.043C131.018 212.043 130.601 212.226 130.434 212.409C130.434 212.317 130.35 212.135 130.183 212.043Z" fill="#686461"/>
<path d="M131.103 212.865C131.27 212.683 131.52 212.591 131.854 212.5C131.938 212.591 132.105 212.591 132.272 212.774C131.938 212.865 131.604 213.139 131.437 213.23C131.437 213.048 131.353 212.865 131.103 212.865Z" fill="#686461"/>
<path d="M132.188 213.412C132.355 213.138 132.522 213.047 132.773 213.047C132.94 213.138 132.94 213.138 133.107 213.23C132.857 213.412 132.606 213.686 132.522 213.778C132.439 213.595 132.355 213.412 132.188 213.412Z" fill="#686461"/>
<path d="M133.271 213.961C133.438 213.687 133.688 213.595 133.855 213.504C134.023 213.595 134.106 213.595 134.273 213.687C134.023 213.869 133.772 214.143 133.605 214.235C133.521 214.143 133.438 213.961 133.271 213.961Z" fill="#686461"/>
<path d="M134.358 214.417C134.442 214.051 134.442 213.96 134.609 213.777C134.776 213.777 134.943 213.869 134.943 213.869C134.859 214.143 134.859 214.325 134.776 214.508C134.692 214.417 134.525 214.234 134.358 214.417Z" fill="#686461"/>
<path d="M128.346 208.574C128.597 208.483 128.848 208.483 129.015 208.574C129.098 208.757 129.182 208.94 129.266 209.031C128.931 208.94 128.764 208.848 128.597 208.94C128.597 208.848 128.514 208.666 128.346 208.574Z" fill="#686461"/>
<path d="M127.095 208.118C127.095 208.027 127.095 207.935 127.095 207.844C127.095 207.661 127.262 207.479 127.429 207.388C127.68 207.205 127.93 207.022 128.264 206.84C128.348 207.022 128.431 207.296 128.515 207.57C128.264 207.753 127.93 207.844 127.763 207.935C127.596 208.027 127.346 208.118 127.095 208.118Z" fill="#20505A"/>
<path d="M126.508 108.615C126.842 111.262 137.196 125.503 143.041 125.96C143.125 125.96 143.208 125.96 143.375 125.96C143.793 125.96 144.21 125.777 144.628 125.595C146.715 124.134 155.148 118.109 158.071 114.457L156.317 110.988C151.892 112.631 143.292 119.022 143.292 119.022C143.292 119.022 142.791 119.204 142.707 118.93C139.2 112.631 134.107 109.254 129.013 106.059L126.508 108.615Z" fill="#ECBC97"/>
<path d="M165.755 103.961L161.914 110.625C161.914 110.625 162.332 111.447 163.334 111.355C164.252 111.264 165.588 108.708 165.672 108.252C165.839 107.704 165.588 107.247 165.755 106.882C165.922 106.517 165.839 105.604 165.839 105.604C165.755 105.604 166.59 104.326 165.755 103.961Z" fill="#D7A887"/>
<path d="M160.827 110.626L162.831 101.771C162.915 101.497 163.082 101.314 163.249 101.132L166.171 99.306C166.338 99.2148 166.588 99.2148 166.672 99.3974C166.755 99.4887 166.755 99.6712 166.755 99.7625L164.668 109.074L160.827 110.626Z" fill="#1A2E35"/>
<path d="M164.582 109.893C164.582 109.893 164.666 109.802 164.666 109.528C164.666 109.254 164.666 108.889 164.582 108.432C164.666 108.25 164.666 108.158 164.666 107.976C164.582 107.793 164.499 107.611 164.332 107.519H164.248V107.428C164.415 107.154 164.582 106.88 164.749 106.515C164.833 106.424 164.833 106.333 164.833 106.333C164.833 106.241 164.833 106.15 164.833 106.059C164.749 105.876 164.666 105.785 164.499 105.694V105.602L164.582 105.511C164.749 105.329 164.916 105.146 165.083 104.963C165.334 104.598 165.668 104.324 165.835 103.959C165.918 103.777 166.085 103.594 166.085 103.411C166.085 103.32 166.169 103.229 166.169 103.138C166.169 103.046 166.169 103.046 166.085 103.046C166.002 103.046 165.918 103.046 165.835 103.138C165.751 103.138 165.668 103.229 165.584 103.229C165.417 103.32 165.25 103.411 165.083 103.503C164.749 103.685 164.499 103.959 164.332 104.05C164.165 104.233 163.998 104.324 163.831 104.416C163.747 104.507 163.664 104.598 163.664 104.507C163.664 104.507 163.747 104.416 163.831 104.324C163.914 104.233 164.081 104.05 164.248 103.868C164.415 103.685 164.666 103.503 165 103.229C165.167 103.138 165.334 103.046 165.501 102.864C165.584 102.772 165.668 102.772 165.751 102.681C165.835 102.681 166.002 102.59 166.085 102.59C166.252 102.59 166.336 102.772 166.252 102.864C166.252 102.955 166.252 103.046 166.169 103.138C166.085 103.32 166.002 103.503 165.835 103.685C165.584 104.05 165.334 104.324 165.083 104.689C164.916 104.872 164.749 105.055 164.582 105.237V105.146C164.749 105.237 164.916 105.42 165 105.602C165 105.694 165.083 105.785 165 105.968C165 106.059 164.916 106.15 164.833 106.241C164.666 106.515 164.499 106.88 164.248 107.154V107.063C164.415 107.246 164.582 107.337 164.582 107.611C164.666 107.793 164.582 108.067 164.499 108.158C164.582 108.615 164.582 109.071 164.582 109.254C164.666 109.71 164.666 109.802 164.582 109.893Z" fill="#C89777"/>
<path d="M166.671 99.3965C166.671 99.3965 166.588 99.4878 166.421 99.5791C166.254 99.6704 166.003 99.8529 165.753 100.036C165.419 100.218 165.085 100.492 164.751 100.675C164.584 100.766 164.333 100.948 164.166 101.04C163.916 101.131 163.749 101.314 163.582 101.496C163.415 101.679 163.331 101.953 163.248 102.226C163.164 102.5 163.164 102.774 163.081 102.957C162.997 103.413 162.83 103.87 162.747 104.235C162.663 104.6 162.58 104.874 162.496 105.056C162.413 105.239 162.413 105.33 162.413 105.33C162.413 105.33 162.413 105.239 162.496 104.965C162.496 104.783 162.58 104.509 162.663 104.144C162.747 103.778 162.83 103.322 162.914 102.865C162.997 102.592 162.997 102.409 163.081 102.135C163.164 101.861 163.248 101.587 163.415 101.314C163.582 101.131 163.832 100.948 164.083 100.857C164.333 100.766 164.5 100.583 164.667 100.492C165.085 100.218 165.419 100.036 165.753 99.8529C166.087 99.6704 166.254 99.4878 166.504 99.3965C166.588 99.4878 166.671 99.3965 166.671 99.3965Z" fill="#375A64"/>
<path d="M164.753 102.411C164.669 102.593 164.669 102.776 164.753 102.776C164.837 102.776 164.92 102.685 165.004 102.502C165.087 102.319 165.087 102.137 165.004 102.137C164.92 102.137 164.837 102.228 164.753 102.411Z" fill="white"/>
<path d="M157.569 110.259C158.237 109.894 158.237 108.707 158.571 107.977C158.822 107.338 159.156 106.699 159.406 106.607C159.824 106.334 162.162 104.782 162.162 104.782L161.911 105.968L164.166 104.234C164.416 104.051 166.003 102.408 166.337 103.047C166.504 103.504 165.251 104.69 165.084 104.964C164.667 105.603 164.834 105.603 164.834 105.603C164.834 105.603 165.335 105.877 165.084 106.334C164.834 106.79 164.416 107.338 164.416 107.338C164.416 107.338 165.001 107.612 164.667 108.433C164.667 108.433 164.834 108.89 164.75 109.529C164.667 109.894 164.416 110.35 164.082 110.715C163.748 111.172 163.331 111.446 162.83 111.628C160.909 112.359 159.239 113.18 158.07 114.276L156.317 110.807L157.569 110.259Z" fill="#ECBC97"/>
<path d="M162.582 105.422C162.582 105.422 162.081 105.878 161.413 106.244C160.745 106.7 160.244 106.974 160.244 106.974C160.244 106.974 160.745 106.517 161.413 106.152C161.998 105.696 162.582 105.422 162.582 105.422Z" fill="#C89777"/>
<path d="M164.669 105.51C164.669 105.51 164.251 106.057 163.667 106.697C163.082 107.336 162.581 107.792 162.581 107.792C162.581 107.792 162.999 107.244 163.583 106.605C164.168 105.966 164.669 105.51 164.669 105.51Z" fill="#C89777"/>
<path d="M164.499 107.152C164.499 107.152 164.332 107.517 163.998 107.883C163.748 108.248 163.414 108.522 163.414 108.522C163.414 108.522 163.581 108.157 163.915 107.791C164.165 107.426 164.499 107.152 164.499 107.152Z" fill="#C89777"/>
<path d="M135.111 136.093H110.228C110.228 136.093 111.146 112.905 114.319 100.034C114.737 98.2078 116.156 95.5604 117.409 94.2823C117.91 93.7346 118.494 93.2782 119.162 93.0043C119.58 92.8217 120.081 92.7305 120.582 92.7305L124.84 93.0956C125.341 93.0956 125.759 93.4608 125.926 93.9172L130.184 104.416C130.435 105.055 130.769 105.602 131.27 106.059L137.532 112.175L133.441 117.652L132.94 118.292" fill="#20505A"/>
<path d="M131.768 117.926C124.921 111.992 124.587 110.805 124.086 108.797C123.919 108.158 123.669 107.336 123.168 106.241L123.752 105.967C124.253 107.154 124.504 107.884 124.671 108.614C125.172 110.531 125.506 111.535 132.186 117.378L131.768 117.926Z" fill="black"/>
<defs>
<radialGradient id="paint0_radial_21707_140715" cx="0" cy="0" r="1" gradientUnits="userSpaceOnUse" gradientTransform="translate(168.412 211.768) rotate(90) scale(1.21755 10.0229)">
<stop/>
<stop offset="1" stop-color="#D9D9D9" stop-opacity="0"/>
</radialGradient>
<clipPath id="clip0_21707_140715">
<rect width="137.367" height="94.9743" fill="white" transform="matrix(0.996448 -0.0842084 0.0705251 0.99751 104.56 128.164)"/>
</clipPath>
</defs>
</svg>
