<svg width="343" height="233" viewBox="0 0 343 233" fill="none" xmlns="http://www.w3.org/2000/svg">
<path d="M171.5 225.915C256.114 225.915 324.707 218.994 324.707 210.457C324.707 201.921 256.114 195 171.5 195C86.8863 195 18.2933 201.921 18.2933 210.457C18.2933 218.994 86.8863 225.915 171.5 225.915Z" fill="#F3F3F3"/>
<path d="M250.255 209.418H192.781V211.845H250.255V209.418Z" fill="#F2F2F2"/>
<path d="M158.152 209.244H100.678V211.671H158.152V209.244Z" fill="#F2F2F2"/>
<path d="M209.762 74.6465H159.152V196.335H209.762V74.6465Z" fill="#E9E9E9"/>
<path d="M180.001 95.0516H168.232C167.73 95.0516 167.228 94.5029 167.228 93.9543V84.0269C167.228 83.4783 167.73 82.9297 168.232 82.9297H180.001C180.502 82.9297 181.004 83.4783 181.004 84.0269V93.9543C181.004 94.5029 180.502 95.0516 180.001 95.0516Z" fill="white"/>
<path d="M199.165 95.0516H187.396C186.894 95.0516 186.393 94.5029 186.393 93.9543V84.0269C186.393 83.4783 186.894 82.9297 187.396 82.9297H199.165C199.666 82.9297 200.168 83.4783 200.168 84.0269V93.9543C200.168 94.5029 199.666 95.0516 199.165 95.0516Z" fill="white"/>
<path d="M180.001 112.136H168.232C167.73 112.136 167.228 111.587 167.228 111.038V101.111C167.228 100.562 167.73 100.014 168.232 100.014H180.001C180.502 100.014 181.004 100.562 181.004 101.111V111.038C181.004 111.587 180.502 112.136 180.001 112.136Z" fill="white"/>
<path d="M199.165 112.136H187.396C186.894 112.136 186.393 111.587 186.393 111.038V101.111C186.393 100.562 186.894 100.014 187.396 100.014H199.165C199.666 100.014 200.168 100.562 200.168 101.111V111.038C200.168 111.587 199.666 112.136 199.165 112.136Z" fill="white"/>
<path d="M180.335 129.417H168.567C168.065 129.417 167.563 128.868 167.563 128.32V118.392C167.563 117.844 168.065 117.295 168.567 117.295H180.335C180.837 117.295 181.339 117.844 181.339 118.392V128.32C181.339 129.051 181.004 129.417 180.335 129.417Z" fill="white"/>
<path d="M199.5 129.417H187.731C187.229 129.417 186.727 128.868 186.727 128.32V118.392C186.727 117.844 187.229 117.295 187.731 117.295H199.5C200.001 117.295 200.503 117.844 200.503 118.392V128.32C200.503 129.051 200.169 129.417 199.5 129.417Z" fill="white"/>
<path d="M180.837 147.809H169.069C168.567 147.809 168.065 147.261 168.065 146.712V136.785C168.065 136.236 168.567 135.688 169.069 135.688H180.837C181.339 135.688 181.841 136.236 181.841 136.785V146.712C181.841 147.261 181.339 147.809 180.837 147.809Z" fill="white"/>
<path d="M200.001 147.809H188.233C187.731 147.809 187.229 147.261 187.229 146.712V136.785C187.229 136.236 187.731 135.688 188.233 135.688H200.001C200.503 135.688 201.005 136.236 201.005 136.785V146.712C201.005 147.261 200.503 147.809 200.001 147.809Z" fill="white"/>
<path d="M180.837 164.712H169.069C168.567 164.712 168.065 164.163 168.065 163.614V153.687C168.065 153.138 168.567 152.59 169.069 152.59H180.837C181.339 152.59 181.841 153.138 181.841 153.687V163.614C181.841 164.163 181.339 164.712 180.837 164.712Z" fill="white"/>
<path d="M200.001 164.712H188.233C187.731 164.712 187.229 164.163 187.229 163.614V153.687C187.229 153.138 187.731 152.59 188.233 152.59H200.001C200.503 152.59 201.005 153.138 201.005 153.687V163.614C201.005 164.163 200.503 164.712 200.001 164.712Z" fill="white"/>
<path d="M192.605 171.334H174.445V196.518H192.605V171.334Z" fill="white"/>
<path d="M159.152 74.6472L182.689 57L209.762 74.6472H159.152Z" fill="#BBBCBC"/>
<path d="M277.549 38.709H209.459V202.681H277.549V38.709Z" fill="#E9E9E9"/>
<path d="M238.037 66.2838H221.394C220.893 66.2838 220.391 65.7351 220.391 65.1865V51.0269C220.391 50.4783 220.893 49.9297 221.394 49.9297H238.037C238.539 49.9297 239.041 50.4783 239.041 51.0269V65.1865C239.041 65.7351 238.539 66.2838 238.037 66.2838Z" fill="white"/>
<path d="M263.773 66.2838H247.13C246.628 66.2838 246.126 65.7351 246.126 65.1865V51.0269C246.126 50.4783 246.628 49.9297 247.13 49.9297H263.773C264.275 49.9297 264.776 50.4783 264.776 51.0269V65.1865C264.776 65.7351 264.275 66.2838 263.773 66.2838Z" fill="white"/>
<path d="M238.037 89.2603H221.394C220.893 89.2603 220.391 88.7117 220.391 88.1631V74.0035C220.391 73.4549 220.893 72.9062 221.394 72.9062H238.037C238.539 72.9062 239.041 73.4549 239.041 74.0035V88.1631C239.041 88.7117 238.539 89.2603 238.037 89.2603Z" fill="white"/>
<path d="M263.773 89.2603H247.13C246.628 89.2603 246.126 88.7117 246.126 88.1631V74.0035C246.126 73.4549 246.628 72.9062 247.13 72.9062H263.773C264.275 72.9062 264.776 73.4549 264.776 74.0035V88.1631C264.776 88.7117 264.275 89.2603 263.773 89.2603Z" fill="white"/>
<path d="M238.551 112.616H221.908C221.406 112.616 220.905 112.067 220.905 111.519V97.359C220.905 96.8103 221.406 96.2617 221.908 96.2617H238.551C239.053 96.2617 239.555 96.8103 239.555 97.359V111.519C239.555 112.25 239.053 112.616 238.551 112.616Z" fill="white"/>
<path d="M264.275 112.616H247.631C247.13 112.616 246.628 112.067 246.628 111.519V97.359C246.628 96.8103 247.13 96.2617 247.631 96.2617H264.275C264.776 96.2617 265.278 96.8103 265.278 97.359V111.519C265.278 112.25 264.944 112.616 264.275 112.616Z" fill="white"/>
<path d="M239.053 137.237H222.41C221.908 137.237 221.406 136.688 221.406 136.14V121.98C221.406 121.431 221.908 120.883 222.41 120.883H239.053C239.555 120.883 240.057 121.431 240.057 121.98V136.14C240.057 136.688 239.722 137.237 239.053 137.237Z" fill="white"/>
<path d="M264.944 137.237H248.301C247.799 137.237 247.297 136.688 247.297 136.14V121.98C247.297 121.431 247.799 120.883 248.301 120.883H264.944C265.446 120.883 265.947 121.431 265.947 121.98V136.14C265.947 136.688 265.446 137.237 264.944 137.237Z" fill="white"/>
<path d="M239.053 160.032H222.41C221.908 160.032 221.406 159.483 221.406 158.935V144.775C221.406 144.226 221.908 143.678 222.41 143.678H239.053C239.555 143.678 240.057 144.226 240.057 144.775V158.935C240.057 159.666 239.722 160.032 239.053 160.032Z" fill="white"/>
<path d="M264.944 160.032H248.301C247.799 160.032 247.297 159.483 247.297 158.935V144.775C247.297 144.226 247.799 143.678 248.301 143.678H264.944C265.446 143.678 265.947 144.226 265.947 144.775V158.935C265.947 159.666 265.446 160.032 264.944 160.032Z" fill="white"/>
<path d="M209.459 38.7082L241.407 15L277.728 38.7082H209.459Z" fill="#BBBCBC"/>
<path d="M308.912 203.75C307.433 191.348 299.359 193.621 291.875 173.183C290.244 168.737 284.47 172.329 280.692 173.277C260.619 178.294 252.771 188.133 250.698 201.483C250.55 202.431 250.55 203.474 251.219 203.568C261.218 205.175 286.249 204.328 308.917 203.756L308.912 203.75Z" fill="#C4EDEE"/>
<path d="M297.992 180.548C297.992 180.548 298.601 179.787 297.992 173.825C297.382 167.762 300.072 162.365 300.072 162.365C300.072 162.365 298.946 175.057 299.032 176.571C299.032 178.085 297.992 180.548 297.992 180.548Z" fill="#0B9D99"/>
<path d="M299.549 186.8C299.549 186.8 299.463 186.039 296.084 183.106C292.705 180.172 291.406 175.717 291.406 175.717C291.406 175.717 297.296 183.294 298.078 184.048C298.86 184.808 299.549 186.793 299.549 186.793V186.8Z" fill="#0B9D99"/>
<path d="M299.9 194.282C299.9 194.282 300.417 193.811 300.244 189.074C300.158 184.336 302.497 180.359 302.497 180.359C302.497 180.359 300.94 190.11 300.854 191.247C300.768 192.385 299.9 194.275 299.9 194.275V194.282Z" fill="#0B9D99"/>
<path d="M299.291 199.584C299.291 199.584 298.681 199.207 297.992 194.564C297.296 189.921 294.354 186.516 294.354 186.516C294.354 186.516 297.561 195.795 297.82 196.933C297.992 197.976 299.291 199.584 299.291 199.584Z" fill="#0B9D99"/>
<path d="M297.475 204.032C297.475 204.032 302.848 187.081 294.964 173.919C287.079 160.757 293.579 166.436 294.964 168.899C296.521 171.739 301.98 188.313 300.072 199.773C300.072 199.773 299.463 203.561 299.204 204.032C298.946 204.409 297.475 204.032 297.475 204.032Z" fill="#0B9D99"/>
<path d="M308.077 166.348C308.077 166.348 307.381 165.493 308.077 158.017C308.773 150.534 305.566 144 305.566 144C305.566 144 306.951 159.625 306.864 161.516C306.778 163.407 308.077 166.348 308.077 166.348Z" fill="#0B9D99"/>
<path d="M306.169 174.02C306.169 174.02 306.255 173.071 310.416 169.572C314.571 165.972 316.22 160.387 316.22 160.387C316.22 160.387 309.031 169.666 308.077 170.615C307.037 171.564 306.169 174.027 306.169 174.027V174.02Z" fill="#0B9D99"/>
<path d="M305.738 183.204C305.738 183.204 305.129 182.538 305.307 176.764C305.48 170.99 302.538 166.064 302.538 166.064C302.538 166.064 304.532 178.09 304.532 179.51C304.532 180.929 305.744 183.204 305.744 183.204H305.738Z" fill="#0B9D99"/>
<path d="M306.255 193.245C306.255 193.245 306.865 192.68 307.123 186.9C307.382 181.126 310.502 176.389 310.502 176.389C310.502 176.389 307.905 188.225 307.732 189.645C307.474 190.971 306.261 193.245 306.261 193.245H306.255Z" fill="#0B9D99"/>
<path d="M308.508 204.51C308.508 204.51 302.015 174.302 311.801 158.105C321.501 141.914 313.444 148.825 311.801 151.948C309.893 155.454 303.227 175.904 305.566 189.921C305.566 189.921 306.175 203.938 306.434 204.503C306.692 205.068 308.514 204.503 308.514 204.503L308.508 204.51Z" fill="#0B9D99"/>
<path d="M92.3953 85.9129C92.7916 89.0544 105.078 105.953 112.013 106.495C112.112 106.495 112.212 106.495 112.41 106.495C112.905 106.495 113.401 106.278 113.896 106.061C116.373 104.328 126.38 97.1787 129.848 92.8457L129.254 88.4044C124.002 90.3543 112.41 98.1537 112.41 98.1537C112.41 98.1537 111.914 98.3703 111.716 98.0453C102.601 88.7293 98.4392 85.263 95.4668 82.7715L92.3953 85.9129Z" fill="#D7A887"/>
<path d="M75.0568 198.571C75.5522 199.979 74.6605 205.179 74.5614 206.804C75.5522 208.32 78.0293 207.129 78.3265 205.504C78.3265 205.287 78.5247 205.287 78.5247 204.854C78.2274 203.879 78.8219 200.087 79.5155 198.029L75.0568 198.571Z" fill="#F8AB90"/>
<path d="M90.4138 200.846C90.8101 202.254 89.6212 205.72 89.5221 207.454C90.4138 209.079 92.9899 207.995 93.3863 206.37C93.3863 206.154 93.5844 206.154 93.5844 205.72C93.1881 204.637 94.0798 201.604 94.9716 199.654L90.4138 200.846Z" fill="#F8AB90"/>
<path d="M90.2159 120.035H99.5295C104.186 135.417 105.574 152.858 102.799 170.19C102.601 171.49 102.304 172.79 101.908 174.089L98.7369 200.954C96.3589 202.037 89.4232 201.279 87.0453 200.629C90.2159 190.663 91.9994 181.889 92.6929 172.248C92.9902 170.731 92.9902 167.59 92.9902 167.59C94.0801 152.641 90.9095 123.827 90.2159 120.035Z" fill="#74B79C"/>
<path d="M82.6854 200.736C79.5148 201.711 75.1553 200.086 72.6782 199.003L78.7222 169.105C78.8213 168.564 78.8213 167.914 78.8213 167.372L76.6415 131.516C76.6415 130.65 76.6415 129.783 76.7406 128.917C77.1369 125.775 77.8305 121.226 79.0194 119.709H91.2065C94.6743 137.474 94.0798 152.64 92.6927 161.198C92.5936 161.956 91.9 170.297 91.1074 172.68L82.6854 200.736Z" fill="#74B79C"/>
<path d="M99.5287 120.252L78.8206 120.577L78.7216 119.602L99.4296 119.494L99.5287 120.252Z" fill="#20505A"/>
<path d="M83.9743 60.7812L91.1082 61.5395C89.0275 65.1143 87.4422 68.2557 89.8201 70.7472L82.9835 70.0972C85.3615 68.364 84.9652 64.1393 83.9743 60.7812Z" fill="#ECBC97"/>
<path d="M91.1096 46.0488C91.1096 46.0488 93.7848 49.6236 93.1903 52.2234C93.0912 52.6567 93.0912 52.9817 92.9921 53.1983C92.6949 54.7149 92.6949 54.6066 94.1811 55.3648C94.9737 55.7981 94.2802 56.5564 93.8839 56.8814C93.6857 57.098 93.5866 57.3147 93.5866 57.6396C93.5866 57.9646 93.6857 58.2896 93.6857 58.2896C93.6857 58.398 93.9829 59.2645 93.1903 59.2645C89.227 59.3728 92.4967 59.2645 93.3884 59.5895C93.3884 59.5895 93.7848 59.8062 93.6857 60.0228C93.5866 60.2395 93.2894 60.5644 93.1903 60.8894C93.0912 61.2144 93.0912 62.1893 92.893 62.6226C92.6949 63.0559 90.416 63.8142 89.0289 63.3809C87.939 63.0559 86.5518 62.731 85.9573 62.6226C85.7592 62.6226 85.3628 62.081 85.2638 61.8644C84.9665 61.6477 84.1739 61.4311 83.5794 60.9978C82.3904 60.1312 83.3812 59.6979 83.4803 59.1562C83.5794 58.6146 83.7775 57.6397 83.5794 57.3147C83.3812 56.9897 82.3904 55.6898 82.1922 55.1482C81.895 54.2816 82.3904 52.765 82.7867 52.2234C83.1831 51.6818 83.9757 51.4651 84.4711 51.8984C84.8674 52.2234 85.3628 52.2234 85.561 51.7901C85.8583 51.2485 88.4344 47.5654 88.9298 47.2404C89.4252 46.9155 91.1096 46.0488 91.1096 46.0488Z" fill="#ECBC97"/>
<path d="M93.5847 48.3235C93.4856 48.7568 93.2875 49.0818 93.0893 49.4067C92.7921 49.9484 92.2967 50.3816 91.7022 50.5983C89.9187 51.3566 88.4325 52.1148 86.7481 52.0065C86.0545 51.8982 85.46 52.3315 85.1628 53.0898C84.9646 53.7397 84.5683 54.173 84.172 54.6063C83.4784 55.3646 83.2802 56.5562 83.5775 57.5311C84.0729 58.9394 86.0545 64.0306 85.5591 65.2222C86.649 75.2965 77.1372 86.8872 68.8143 79.0878C64.8511 74.4298 72.5794 66.5221 72.7776 61.6475C72.4803 55.4729 77.0381 50.165 77.5335 48.8651C77.7317 48.4318 77.9298 48.1068 78.2271 47.7819C79.4161 46.482 80.4069 44.7488 81.3977 43.9905C82.2894 43.2322 83.2802 42.7989 84.3701 42.3656C86.0545 41.7157 87.9371 41.9323 89.5224 43.0155C91.2068 44.0988 92.693 45.6154 93.2875 46.9153C93.6838 47.3486 93.7829 47.8902 93.5847 48.3235Z" fill="#BC9D02"/>
<path d="M84.5696 54.2819C84.3715 53.8486 84.0742 53.5237 83.777 53.4153C83.6779 53.307 83.4797 53.4153 83.3806 53.4153C82.4889 53.8486 82.2907 54.6069 82.6871 55.5818C82.6871 55.5818 82.6871 55.5818 82.6871 55.6901C83.2816 56.6651 83.6779 56.8817 84.4705 57.315L84.5696 54.2819Z" fill="#ECBC97"/>
<path d="M74.5623 203.769C76.0485 204.528 77.5347 204.528 79.12 203.553C79.2191 203.553 79.3182 203.553 79.3182 203.661C80.2099 205.394 81.1017 207.669 82.4888 208.969C83.975 210.052 85.7585 210.811 87.7401 211.46C87.9383 211.569 88.2355 211.677 88.5328 211.569C89.5236 211.569 90.2172 211.677 90.9107 212.11C91.0098 212.11 91.1089 212.219 91.208 212.219C91.6043 212.435 91.8025 212.977 91.9015 213.627C91.9015 214.06 91.7034 214.385 91.4061 214.602C89.8208 215.577 87.7401 216.01 85.2631 216.01L80.7053 215.36L73.4724 214.71L72.6797 214.385C72.5807 214.277 72.4816 214.169 72.4816 214.06C72.4816 212.76 72.6797 211.352 73.1751 209.944C73.2742 209.511 73.5715 208.969 73.7696 208.536C74.3641 207.344 74.5623 205.828 74.4632 204.094C74.3641 203.769 74.4632 203.661 74.5623 203.769Z" fill="#BFBAB8"/>
<path d="M72.4828 212.219C72.2846 212.219 72.1855 213.735 72.2846 214.06C72.3837 214.494 73.7708 214.71 74.0681 214.71C75.158 214.927 76.446 214.927 77.635 215.035L81.6973 215.469C82.8863 215.685 84.1744 215.902 85.5615 215.902C86.6514 215.902 87.7413 215.793 88.8312 215.469C89.7229 215.252 90.5156 214.927 91.3082 214.385C91.4073 214.277 91.5064 214.277 91.5064 214.06C91.7046 213.519 91.7046 212.652 90.9119 212.219C90.0202 212.76 88.633 213.085 87.1468 213.41C86.0569 213.627 84.7689 213.735 83.3817 213.627C81.2019 213.519 79.1212 213.41 77.2387 212.977C75.5543 212.869 73.8699 212.652 72.4828 212.219Z" fill="#20505A"/>
<path d="M88.2354 211.46C88.1363 212.218 88.1363 212.76 88.4336 213.193C89.5235 212.977 90.4152 212.652 91.2079 212.218C90.4152 211.677 89.4244 211.352 88.2354 211.46Z" fill="#F05A24"/>
<path d="M78.9235 205.611C79.1426 205.611 79.3201 205.417 79.3201 205.178C79.3201 204.938 79.1426 204.744 78.9235 204.744C78.7045 204.744 78.527 204.938 78.527 205.178C78.527 205.417 78.7045 205.611 78.9235 205.611Z" fill="#D7CCC2"/>
<path d="M79.6169 207.127C79.8359 207.127 80.0135 206.933 80.0135 206.693C80.0135 206.454 79.8359 206.26 79.6169 206.26C79.3979 206.26 79.2203 206.454 79.2203 206.693C79.2203 206.933 79.3979 207.127 79.6169 207.127Z" fill="#D7CCC2"/>
<path d="M80.2135 208.428C80.4325 208.428 80.61 208.234 80.61 207.994C80.61 207.755 80.4325 207.561 80.2135 207.561C79.9944 207.561 79.8169 207.755 79.8169 207.994C79.8169 208.234 79.9944 208.428 80.2135 208.428Z" fill="#D7CCC2"/>
<path d="M81.2034 209.728C81.4225 209.728 81.6 209.534 81.6 209.295C81.6 209.055 81.4225 208.861 81.2034 208.861C80.9844 208.861 80.8069 209.055 80.8069 209.295C80.8069 209.534 80.9844 209.728 81.2034 209.728Z" fill="#D7CCC2"/>
<path d="M82.2899 210.594C82.5089 210.594 82.6865 210.4 82.6865 210.16C82.6865 209.921 82.5089 209.727 82.2899 209.727C82.0709 209.727 81.8933 209.921 81.8933 210.16C81.8933 210.4 82.0709 210.594 82.2899 210.594Z" fill="#D7CCC2"/>
<path d="M83.8417 211.251C84.0095 211.098 84.0316 210.824 83.8909 210.641C83.7502 210.457 83.5001 210.433 83.3323 210.587C83.1644 210.741 83.1423 211.014 83.283 211.197C83.4237 211.381 83.6738 211.405 83.8417 211.251Z" fill="#D7CCC2"/>
<path d="M85.0309 211.723C85.1568 211.608 85.1733 211.403 85.0678 211.265C84.9623 211.127 84.7747 211.109 84.6488 211.225C84.5229 211.34 84.5064 211.545 84.6119 211.683C84.7174 211.82 84.905 211.839 85.0309 211.723Z" fill="#D7CCC2"/>
<path d="M86.6032 212.062C86.684 211.906 86.6335 211.707 86.4904 211.619C86.3474 211.531 86.166 211.586 86.0852 211.742C86.0044 211.899 86.0549 212.097 86.198 212.185C86.341 212.274 86.5224 212.218 86.6032 212.062Z" fill="#D7CCC2"/>
<path d="M79.7151 206.261C80.0125 206.152 80.4091 206.152 80.6074 206.369C80.7065 206.586 80.8057 206.803 80.9048 206.911C80.6074 206.694 80.1117 206.803 79.9134 206.803C80.0125 206.586 79.9134 206.369 79.7151 206.261Z" fill="#686461"/>
<path d="M80.3104 207.561C80.6079 207.452 81.0044 207.236 81.3018 207.344C81.401 207.452 81.5001 207.561 81.5993 207.778C81.2027 207.669 80.707 207.886 80.6079 207.994C80.6079 207.778 80.5087 207.669 80.3104 207.561Z" fill="#686461"/>
<path d="M81.202 208.86C81.4002 208.644 81.8956 208.535 82.1928 208.535C82.2919 208.643 82.391 208.752 82.5892 208.86C82.1928 208.86 81.6974 209.077 81.4993 209.293C81.4993 209.077 81.4002 208.86 81.202 208.86Z" fill="#686461"/>
<path d="M82.3901 209.726C82.5883 209.51 82.8856 209.401 83.2819 209.293C83.381 209.401 83.5791 209.401 83.7773 209.618C83.381 209.726 82.9846 210.051 82.7865 210.16C82.6874 210.051 82.5883 209.835 82.3901 209.726Z" fill="#686461"/>
<path d="M83.5803 210.486C83.7786 210.161 83.9769 210.053 84.2743 210.053C84.4726 210.161 84.4726 210.161 84.6709 210.27C84.3734 210.486 84.076 210.811 83.9769 210.92C83.9769 210.703 83.8777 210.486 83.5803 210.486Z" fill="#686461"/>
<path d="M84.8669 211.136C85.0652 210.811 85.3627 210.702 85.561 210.594C85.7592 210.702 85.8584 210.702 86.0567 210.811C85.7592 211.027 85.4618 211.352 85.2635 211.461C85.1644 211.352 85.0652 211.136 84.8669 211.136Z" fill="#686461"/>
<path d="M86.1572 211.677C86.2564 211.243 86.2564 211.135 86.4547 210.918C86.6529 210.918 86.8512 211.026 86.8512 211.026C86.7521 211.352 86.7521 211.568 86.6529 211.785C86.5538 211.677 86.3555 211.46 86.1572 211.677Z" fill="#686461"/>
<path d="M79.0238 204.743C79.3212 204.635 79.6187 204.635 79.8169 204.743C79.9161 204.96 80.0152 205.177 80.1144 205.285C79.7178 205.177 79.5195 205.069 79.3212 205.177C79.3212 205.069 79.2221 204.852 79.0238 204.743Z" fill="#686461"/>
<path d="M77.537 204.202C77.537 204.094 77.537 203.985 77.537 203.877C77.537 203.66 77.7351 203.444 77.9333 203.335C78.2306 203.119 78.5278 202.902 78.9241 202.686C79.0232 202.902 79.1223 203.227 79.2214 203.552C78.9241 203.769 78.5278 203.877 78.3296 203.985C78.1315 203.985 77.8342 204.094 77.537 204.202Z" fill="#20505A"/>
<path d="M89.5246 204.529C91.0108 205.287 92.497 205.287 94.0823 204.313C94.1814 204.313 94.2805 204.312 94.2805 204.421C95.1722 206.154 96.0639 208.429 97.4511 209.729C98.9373 210.812 100.721 211.57 102.702 212.22C102.901 212.329 103.198 212.437 103.495 212.329C104.486 212.329 105.179 212.437 105.873 212.87C105.972 212.87 106.071 212.979 106.17 212.979C106.567 213.195 106.765 213.737 106.864 214.387C106.864 214.82 106.666 215.145 106.368 215.362C104.783 216.337 102.702 216.77 100.225 216.77L95.6676 216.12L88.4347 215.47L87.642 215.145C87.5429 215.037 87.4438 214.928 87.4438 214.82C87.4438 213.52 87.642 212.112 88.1374 210.704C88.2365 210.27 88.5337 209.729 88.7319 209.295C89.3264 208.104 89.5246 206.587 89.4255 204.854C89.4255 204.529 89.5246 204.529 89.5246 204.529Z" fill="#BFBAB8"/>
<path d="M87.5398 213.086C87.3416 213.086 87.2425 214.603 87.3416 214.927C87.4407 215.361 88.8278 215.577 89.1251 215.577C90.215 215.794 91.503 215.794 92.692 215.902L96.7543 216.336C97.9433 216.552 99.2314 216.769 100.619 216.769C101.708 216.769 102.798 216.661 103.888 216.336C104.78 216.119 105.573 215.794 106.365 215.252C106.464 215.144 106.563 215.144 106.563 214.927C106.762 214.386 106.762 213.519 105.969 213.086C105.077 213.628 103.69 213.953 102.204 214.278C101.114 214.494 99.8259 214.602 98.4387 214.494C96.259 214.386 94.1782 214.278 92.2957 213.844C90.6113 213.736 88.9269 213.519 87.5398 213.086Z" fill="#20505A"/>
<path d="M103.194 212.327C103.095 213.086 103.095 213.627 103.393 214.061C104.482 213.844 105.374 213.519 106.167 213.086C105.374 212.436 104.482 212.219 103.194 212.327Z" fill="#20505A"/>
<path d="M93.9823 206.371C94.2013 206.371 94.3788 206.177 94.3788 205.937C94.3788 205.698 94.2013 205.504 93.9823 205.504C93.7633 205.504 93.5857 205.698 93.5857 205.937C93.5857 206.177 93.7633 206.371 93.9823 206.371Z" fill="#D7CCC2"/>
<path d="M94.5754 207.887C94.7944 207.887 94.972 207.693 94.972 207.453C94.972 207.214 94.7944 207.02 94.5754 207.02C94.3564 207.02 94.1788 207.214 94.1788 207.453C94.1788 207.693 94.3564 207.887 94.5754 207.887Z" fill="#D7CCC2"/>
<path d="M95.2705 209.295C95.4895 209.295 95.667 209.101 95.667 208.861C95.667 208.622 95.4895 208.428 95.2705 208.428C95.0514 208.428 94.8739 208.622 94.8739 208.861C94.8739 209.101 95.0514 209.295 95.2705 209.295Z" fill="#D7CCC2"/>
<path d="M96.1604 210.486C96.3794 210.486 96.5569 210.292 96.5569 210.053C96.5569 209.813 96.3794 209.619 96.1604 209.619C95.9414 209.619 95.7638 209.813 95.7638 210.053C95.7638 210.292 95.9414 210.486 96.1604 210.486Z" fill="#D7CCC2"/>
<path d="M97.349 211.353C97.568 211.353 97.7455 211.159 97.7455 210.92C97.7455 210.68 97.568 210.486 97.349 210.486C97.1299 210.486 96.9524 210.68 96.9524 210.92C96.9524 211.159 97.1299 211.353 97.349 211.353Z" fill="#D7CCC2"/>
<path d="M98.8732 212.007C99.0411 211.853 99.0631 211.58 98.9224 211.396C98.7817 211.213 98.5316 211.189 98.3638 211.343C98.1959 211.496 98.1739 211.77 98.3145 211.953C98.4552 212.137 98.7054 212.161 98.8732 212.007Z" fill="#D7CCC2"/>
<path d="M100.058 212.479C100.184 212.364 100.201 212.159 100.095 212.021C99.9899 211.883 99.8023 211.865 99.6764 211.981C99.5505 212.096 99.534 212.301 99.6395 212.439C99.745 212.576 99.9326 212.594 100.058 212.479Z" fill="#D7CCC2"/>
<path d="M101.707 212.876C101.788 212.72 101.738 212.522 101.595 212.433C101.452 212.345 101.27 212.4 101.189 212.557C101.109 212.713 101.159 212.911 101.302 213C101.445 213.088 101.627 213.033 101.707 212.876Z" fill="#D7CCC2"/>
<path d="M94.7721 207.02C95.0695 206.912 95.4661 206.912 95.6644 207.129C95.7635 207.346 95.8627 207.562 95.9618 207.671C95.6644 207.454 95.1687 207.562 94.9704 207.562C94.9704 207.346 94.9704 207.129 94.7721 207.02Z" fill="#686461"/>
<path d="M95.3691 208.428C95.6666 208.32 96.0631 208.103 96.3606 208.211C96.4597 208.32 96.5589 208.428 96.658 208.645C96.2614 208.536 95.7657 208.753 95.6666 208.862C95.6666 208.645 95.5674 208.428 95.3691 208.428Z" fill="#686461"/>
<path d="M96.2606 209.62C96.4588 209.403 96.9542 209.295 97.2514 209.295C97.3505 209.403 97.4496 209.512 97.6478 209.62C97.2514 209.62 96.756 209.837 96.5579 210.053C96.5579 209.945 96.4588 209.728 96.2606 209.62Z" fill="#686461"/>
<path d="M97.3512 210.595C97.5494 210.379 97.8466 210.27 98.2429 210.162C98.342 210.27 98.5402 210.27 98.7383 210.487C98.342 210.595 97.9457 210.92 97.7475 211.029C97.7475 210.812 97.6484 210.595 97.3512 210.595Z" fill="#686461"/>
<path d="M98.6394 211.246C98.8377 210.921 99.036 210.812 99.3334 210.812C99.5317 210.921 99.5317 210.921 99.73 211.029C99.4325 211.246 99.1351 211.571 99.036 211.68C98.9368 211.463 98.8377 211.246 98.6394 211.246Z" fill="#686461"/>
<path d="M99.924 211.895C100.122 211.57 100.42 211.462 100.618 211.354C100.816 211.462 100.915 211.462 101.114 211.57C100.816 211.787 100.519 212.112 100.321 212.221C100.221 212.112 100.122 211.895 99.924 211.895Z" fill="#686461"/>
<path d="M101.214 212.436C101.313 212.003 101.313 211.895 101.512 211.678C101.71 211.678 101.908 211.786 101.908 211.786C101.809 212.111 101.809 212.328 101.71 212.545C101.611 212.436 101.413 212.22 101.214 212.436Z" fill="#686461"/>
<path d="M94.0808 205.503C94.3782 205.395 94.6757 205.395 94.874 205.503C94.9731 205.72 95.0722 205.937 95.1714 206.045C94.7748 205.937 94.5765 205.828 94.3782 205.937C94.3782 205.828 94.2791 205.612 94.0808 205.503Z" fill="#686461"/>
<path d="M92.5961 204.962C92.5961 204.853 92.5961 204.745 92.5961 204.637C92.5961 204.42 92.7942 204.204 92.9924 204.095C93.2897 203.879 93.5869 203.662 93.9832 203.445C94.0823 203.662 94.1814 203.987 94.2805 204.312C93.9832 204.529 93.5869 204.637 93.3887 204.745C93.1906 204.853 92.8933 204.962 92.5961 204.962Z" fill="#20505A"/>
<path d="M91.9004 86.8866C92.2967 90.028 104.583 106.927 111.519 107.468C111.618 107.468 111.717 107.468 111.915 107.468C112.41 107.468 112.906 107.252 113.401 107.035C115.878 105.302 125.885 98.1525 129.353 93.8195L127.272 89.7031C122.021 91.653 111.816 99.2357 111.816 99.2357C111.816 99.2357 111.221 99.4523 111.122 99.1273C106.961 91.6529 100.917 87.6449 94.8728 83.8535L91.9004 86.8866Z" fill="#ECBC97"/>
<path d="M138.471 81.3633L133.914 89.271C133.914 89.271 134.409 90.2459 135.598 90.1376C136.688 90.0293 138.273 86.9962 138.372 86.4546C138.571 85.8046 138.273 85.263 138.471 84.8297C138.67 84.3964 138.571 83.3131 138.571 83.3131C138.471 83.3131 139.462 81.7966 138.471 81.3633Z" fill="#D7A887"/>
<path d="M132.623 89.2711L135.001 78.7635C135.1 78.4385 135.299 78.2219 135.497 78.0052L138.965 75.8387C139.163 75.7304 139.46 75.7304 139.559 75.9471C139.658 76.0554 139.658 76.272 139.658 76.3803L137.181 87.4295L132.623 89.2711Z" fill="#1A2E35"/>
<path d="M137.08 88.4043C137.08 88.4043 137.179 88.296 137.179 87.971C137.179 87.646 137.179 87.2127 137.08 86.6711C137.179 86.4544 137.179 86.3461 137.179 86.1294C137.08 85.9128 136.98 85.6961 136.782 85.5878H136.683V85.4795C136.881 85.1545 137.08 84.8296 137.278 84.3963C137.377 84.2879 137.377 84.1796 137.377 84.1796C137.377 84.0713 137.377 83.963 137.377 83.8546C137.278 83.638 137.179 83.5296 136.98 83.4213V83.313L137.08 83.2047C137.278 82.9881 137.476 82.7714 137.674 82.5547C137.971 82.1214 138.368 81.7965 138.566 81.3632C138.665 81.1465 138.863 80.9298 138.863 80.7132C138.863 80.6048 138.962 80.4965 138.962 80.3882C138.962 80.2799 138.962 80.2799 138.863 80.2799C138.764 80.2799 138.665 80.2799 138.566 80.3882C138.467 80.3882 138.368 80.4966 138.268 80.4966C138.07 80.6049 137.872 80.7132 137.674 80.8215C137.278 81.0382 136.98 81.3631 136.782 81.4715C136.584 81.6881 136.386 81.7965 136.188 81.9048C136.089 82.0131 135.99 82.1214 135.99 82.0131C135.99 82.0131 136.089 81.9047 136.188 81.7964C136.287 81.6881 136.485 81.4714 136.683 81.2548C136.881 81.0381 137.179 80.8215 137.575 80.4966C137.773 80.3882 137.971 80.2799 138.169 80.0632C138.269 79.9549 138.368 79.9549 138.467 79.8466C138.566 79.8466 138.764 79.7383 138.863 79.7383C139.061 79.7383 139.16 79.9549 139.061 80.0632C139.061 80.1716 139.061 80.2799 138.962 80.3882C138.863 80.6049 138.764 80.8215 138.566 81.0382C138.269 81.4715 137.971 81.7964 137.674 82.2297C137.476 82.4464 137.278 82.663 137.08 82.8797V82.7714C137.278 82.8797 137.476 83.0964 137.575 83.313C137.575 83.4213 137.674 83.5297 137.575 83.7463C137.575 83.8547 137.476 83.963 137.377 84.0713C137.179 84.3963 136.98 84.8296 136.683 85.1545V85.0462C136.881 85.2628 137.08 85.3712 137.08 85.6962C137.179 85.9128 137.08 86.2378 136.98 86.3461C137.08 86.8877 137.08 87.4294 137.08 87.646C137.179 88.1876 137.179 88.296 137.08 88.4043Z" fill="#C89777"/>
<path d="M139.558 75.9473C139.558 75.9473 139.459 76.0556 139.261 76.1639C139.063 76.2723 138.765 76.4889 138.468 76.7056C138.072 76.9222 137.675 77.2471 137.279 77.4638C137.081 77.5721 136.784 77.7888 136.586 77.8971C136.288 78.0054 136.09 78.2221 135.892 78.4387C135.694 78.6554 135.595 78.9803 135.496 79.3053C135.397 79.6303 135.397 79.9553 135.298 80.1719C135.198 80.7135 135 81.2552 134.901 81.6885C134.802 82.1218 134.703 82.4468 134.604 82.6634C134.505 82.8801 134.505 82.9884 134.505 82.9884C134.505 82.9884 134.505 82.8801 134.604 82.5551C134.604 82.3384 134.703 82.0135 134.802 81.5802C134.901 81.1469 135 80.6052 135.099 80.0636C135.198 79.7386 135.198 79.522 135.298 79.197C135.397 78.872 135.496 78.547 135.694 78.2221C135.892 78.0054 136.189 77.7888 136.487 77.6804C136.784 77.5721 136.982 77.3555 137.18 77.2472C137.676 76.9222 138.072 76.7055 138.468 76.4889C138.864 76.2722 139.063 76.0556 139.36 75.9473C139.459 76.0556 139.558 75.9473 139.558 75.9473Z" fill="#375A64"/>
<path d="M137.282 79.5224C137.183 79.7392 137.183 79.956 137.282 79.956C137.381 79.956 137.48 79.8476 137.579 79.6308C137.678 79.414 137.678 79.1973 137.579 79.1973C137.48 79.1973 137.381 79.3056 137.282 79.5224Z" fill="white"/>
<path d="M128.758 88.8373C129.55 88.404 129.55 86.9958 129.947 86.1292C130.244 85.3709 130.64 84.6126 130.937 84.5043C131.433 84.1793 134.207 82.3378 134.207 82.3378L133.91 83.7461L136.585 81.6879C136.882 81.4712 138.765 79.5214 139.161 80.2797C139.359 80.8213 137.873 82.2295 137.675 82.5545C137.18 83.3127 137.378 83.3128 137.378 83.3128C137.378 83.3128 137.972 83.6377 137.675 84.1793C137.378 84.721 136.882 85.371 136.882 85.371C136.882 85.371 137.576 85.6959 137.18 86.6708C137.18 86.6708 137.378 87.2124 137.279 87.9707C137.18 88.404 136.882 88.9456 136.486 89.3789C136.09 89.9206 135.594 90.2455 135 90.4622C132.721 91.3288 130.739 92.3038 129.352 93.6037L127.271 89.4873L128.758 88.8373Z" fill="#ECBC97"/>
<path d="M134.706 83.0957C134.706 83.0957 134.112 83.6374 133.319 84.0707C132.527 84.6123 131.932 84.9372 131.932 84.9372C131.932 84.9372 132.527 84.3956 133.319 83.9623C134.013 83.4207 134.706 83.0957 134.706 83.0957Z" fill="#C89777"/>
<path d="M137.182 83.2051C137.182 83.2051 136.687 83.855 135.993 84.6133C135.3 85.3716 134.705 85.9132 134.705 85.9132C134.705 85.9132 135.201 85.2632 135.894 84.5049C136.588 83.7467 137.182 83.2051 137.182 83.2051Z" fill="#C89777"/>
<path d="M136.981 85.1543C136.981 85.1543 136.783 85.5876 136.387 86.0209C136.089 86.4542 135.693 86.7792 135.693 86.7792C135.693 86.7792 135.891 86.3459 136.288 85.9126C136.585 85.4793 136.981 85.1543 136.981 85.1543Z" fill="#C89777"/>
<path d="M102.108 119.494H72.5819C72.5819 119.494 73.6718 91.9789 77.4369 76.7051C77.9323 74.5386 79.6167 71.3971 81.1029 69.8805C81.6974 69.2306 82.391 68.689 83.1836 68.364C83.679 68.1474 84.2735 68.0391 84.868 68.0391L89.9212 68.4723C90.5157 68.4723 91.0111 68.9057 91.2092 69.4473L96.2624 81.9047C96.5596 82.663 96.956 83.3129 97.5504 83.8545L104.982 91.1123L100.127 97.6118L99.5321 98.3701" fill="#20505A"/>
<path d="M98.1422 97.9367C90.0175 90.8955 89.6212 89.4873 89.0267 87.1041C88.8285 86.3459 88.5313 85.371 87.9368 84.0711L88.6303 83.7461C89.2248 85.1543 89.5221 86.0209 89.7202 86.8875C90.3147 89.1623 90.7111 90.3539 98.6376 97.2867L98.1422 97.9367Z" fill="black"/>
<g clip-path="url(#clip0_21707_140793)">
<path d="M189.06 154.776L189.591 154.528C191.512 153.631 193.729 154.664 194.476 156.803L200.705 174.659C200.83 175.013 200.997 175.345 201.205 175.648C202.405 177.394 206.71 183.025 210.889 180.733C215.505 178.2 223.586 157.74 222.897 159.39C222.897 159.39 230.775 143.345 230.853 143.224C232.392 140.831 234.673 147.022 235.992 149.688L235.884 149.71C236.506 150.97 234.933 152.401 234.258 153.625L222.679 175.48C222.564 175.689 221.473 177.794 221.358 178.005C220.298 179.956 217.952 187.102 212.676 188.693C206.8 190.463 200.994 190.477 199.565 190.118C198.136 189.76 196.231 190.188 195.229 186.292C194.458 183.294 189.34 167.105 187.027 159.815C186.39 157.81 187.279 155.607 189.061 154.774L189.06 154.776Z" fill="#00DFF4"/>
<path d="M192.421 152.329L194.134 151.805L201.962 172.288C202.395 173.509 203.018 174.644 203.83 175.605C204.939 176.917 206.547 178.106 208.207 176.908C211.226 174.726 216.103 159.823 216.103 159.823C216.103 159.823 218.194 154.344 218.771 154.268C219.349 154.193 220.074 154.218 221.515 154.499C222.955 154.779 224.165 152.351 224.346 151.973C224.527 151.595 226.603 148.621 226.415 147.304C226.228 145.988 226.962 146.277 227.302 146.371C227.643 146.464 229.451 147.134 228.183 145.225C226.915 143.316 230.511 141.059 230.511 141.059L231.649 143.38L231.823 144L232.022 144.448L230.008 147.909L222.963 160.922L214.551 177.926C214.551 177.926 209.885 185.418 202.649 178.198C202.649 178.198 200.018 175.198 198.458 169.592C196.898 163.987 192.421 152.331 192.421 152.331L192.421 152.329Z" fill="#00BDF1"/>
<path d="M264.114 161.045L256.163 179.299L257.053 179.7L265.178 161.497L264.19 160.9L264.114 161.045Z" fill="black"/>
<path d="M263.029 160.366L255.257 178.153L254.335 177.617L262.219 159.944L263.029 160.366Z" fill="black"/>
<path d="M239.493 151.83C239.938 152.642 252.217 178.453 252.217 178.453L249.544 180.355L228.236 141.604L232.891 137.85L239.493 151.83Z" fill="#00DFF4"/>
<path d="M234.975 142.346L239.139 151.252C239.139 151.252 242.215 151.102 246.323 149.44C250.43 147.777 250.007 142.978 249.601 140.124C249.195 137.27 248.827 136.735 248.827 136.735L234.214 140.704L234.975 142.346Z" fill="#202321"/>
<path d="M235.188 141.241L235.977 142.631L248.195 139.657C248.195 139.657 249.068 138.988 248.395 137.519L235.188 141.241Z" fill="black"/>
<path d="M256.442 213.482C241.857 214.715 229.053 202.454 227.9 186.15C226.748 169.845 237.676 155.579 252.261 154.347C266.846 153.114 279.649 165.375 280.802 181.679C281.955 197.984 271.027 212.25 256.442 213.482ZM252.631 159.577C240.676 160.588 231.722 172.326 232.671 185.747C233.62 199.167 244.118 209.262 256.072 208.252C268.026 207.241 276.98 195.502 276.031 182.082C275.082 168.662 264.585 158.567 252.631 159.577Z" fill="black"/>
<path d="M237.546 198.977L249.811 187.189L249.143 186.428L236.741 198.088L237.422 199.075L237.546 198.977Z" fill="black"/>
<path d="M237.819 200.296L251.237 187.309L251.947 188.337L238.464 201.149L237.819 200.296Z" fill="black"/>
<path d="M239.287 164.765L250.278 181.024L251.017 180.348L240.149 163.946L239.206 164.623L239.287 164.765Z" fill="black"/>
<path d="M238.231 165.497L248.931 181.363L248.066 182.005L237.512 166.084L238.231 165.497Z" fill="black"/>
<path d="M276.636 182.828L257.41 183.953L257.518 185L276.785 184.067L276.789 182.83L276.636 182.828Z" fill="black"/>
<path d="M276.659 181.458L257.159 182.655L257.145 181.51L276.607 180.476L276.659 181.458Z" fill="black"/>
<path d="M262.941 207.71L255.224 187.792L254.3 188.346L261.855 208.388L263 207.882L262.941 207.71Z" fill="black"/>
<path d="M264.333 206.55L256.058 186.886L257.132 186.393L265.238 206.079L264.333 206.55Z" fill="black"/>
<path d="M248.213 184.802L227.487 177.785L228.078 175.187L248.467 182.244L248.213 184.802Z" fill="black"/>
<path d="M227.622 179.688C227.622 179.688 227.211 174.341 230.732 168.453C234.253 162.564 236.318 158.925 244.393 155.412C252.468 151.899 259.837 154.813 259.837 154.813L262.556 154.018C262.556 154.018 259.21 152.32 254.887 152.332C250.563 152.344 240.221 153.006 233.772 161.261C227.323 169.517 227.062 173.149 226.741 174.095C226.421 175.041 225.624 180.203 225.624 180.203L225.263 182.406" fill="black"/>
<path d="M253.597 188.683C256.515 188.436 258.703 185.733 258.485 182.645C258.267 179.557 255.724 177.254 252.806 177.501C249.888 177.747 247.699 180.45 247.918 183.538C248.136 186.626 250.679 188.93 253.597 188.683Z" fill="black"/>
<path d="M148.541 153.892L148.846 158.217C148.846 158.217 157.15 158.152 161.53 161.708C165.911 165.263 168.83 170.066 169.421 177.915L189.658 175.744L192.687 175.409C192.687 175.409 189.653 157.755 174.087 151.16C174.087 151.16 168.602 148.918 161.131 150.259C155.286 151.31 148.479 153.046 148.479 153.046L148.539 153.891L148.541 153.892Z" fill="black"/>
<path d="M194.679 190.586C194.271 190.621 193.855 190.603 193.442 190.531L168.621 186.217C166.464 185.843 164.969 184.109 165.063 182.098L165.078 181.775C165.18 179.63 167.097 177.936 169.444 177.918C169.593 177.917 169.74 177.923 169.887 177.935L194.677 180.037C196.932 180.227 198.642 181.936 198.655 184.009L198.671 186.543C198.678 187.61 198.238 188.615 197.433 189.374C196.689 190.074 195.711 190.495 194.677 190.583L194.679 190.586ZM169.195 179.617C167.803 179.735 166.67 180.701 166.615 181.863L166.6 182.186C166.547 183.301 167.519 184.318 168.862 184.552L193.683 188.866C194.707 189.045 195.735 188.757 196.433 188.1C196.889 187.669 197.14 187.122 197.136 186.56L197.12 184.026C197.113 182.856 195.989 181.844 194.561 181.723L169.771 179.621C169.668 179.613 169.561 179.609 169.455 179.608C169.368 179.608 169.281 179.614 169.195 179.621L169.195 179.617Z" fill="black"/>
<path d="M168.855 180.403L191.125 182.342L190.318 187.362L167.503 184.126L168.855 180.403Z" fill="#00DFF4"/>
<path d="M168.887 211.019C154.302 212.252 141.498 199.991 140.346 183.687C139.193 167.382 150.121 153.116 164.706 151.884C179.291 150.651 192.095 162.912 193.247 179.216C194.4 195.521 183.472 209.787 168.887 211.019ZM165.076 157.114C153.122 158.125 144.168 169.864 145.117 183.284C146.065 196.704 156.563 206.799 168.517 205.789C180.472 204.778 189.425 193.04 188.477 179.619C187.528 166.199 177.03 156.104 165.076 157.114Z" fill="black"/>
<path d="M150.875 197.99L162.679 183.137L161.84 182.43L149.868 197.173L150.754 198.119L150.875 197.99Z" fill="black"/>
<path d="M151.84 199.056L163.684 184.581L164.848 184.556L152.586 199.76L151.84 199.056Z" fill="black"/>
<path d="M155.41 159.308L164.3 177.045L165.114 176.484L156.366 158.626L155.346 159.158L155.41 159.308Z" fill="black"/>
<path d="M154.272 159.879L162.923 177.181L161.987 177.69L153.488 160.355L154.272 159.879Z" fill="black"/>
<path d="M178.568 200.932L168.342 184.795L167.598 185.463L178.136 202.414L179.085 201.745L178.568 200.932Z" fill="black"/>
<path d="M180.339 200.772L168.89 183.785L169.759 183.152L180.939 200.133L180.339 200.772Z" fill="black"/>
<path d="M160.66 182.339L139.933 175.32L140.524 172.724L160.914 179.781L160.66 182.339Z" fill="black"/>
<path d="M140.067 177.226C140.067 177.226 139.657 171.878 143.177 165.99C146.698 160.102 148.763 156.462 156.839 152.949C164.914 149.437 172.283 152.351 172.283 152.351L175.001 151.555C175.001 151.555 171.656 149.858 167.332 149.87C163.008 149.882 152.717 150.214 146.266 158.47C139.815 166.725 139.586 170.426 139.188 171.634C138.875 172.583 138.071 177.742 138.071 177.742L137.711 179.945" fill="black"/>
<path d="M166.042 186.222C168.96 185.975 171.149 183.272 170.93 180.184C170.712 177.097 168.169 174.793 165.251 175.04C162.333 175.286 160.145 177.99 160.363 181.077C160.581 184.165 163.124 186.469 166.042 186.222Z" fill="black"/>
<path d="M197.158 194.627C201.649 194.247 205.017 190.087 204.681 185.333C204.345 180.58 200.432 177.035 195.941 177.414C191.451 177.794 188.083 181.955 188.419 186.708C188.755 191.461 192.668 195.006 197.158 194.627Z" fill="black"/>
<path d="M186.841 158.721L184.393 150.107C184.393 150.107 185.645 149.511 186.896 149.409C188.147 149.307 190.878 149.095 191.349 149.092C191.82 149.09 192.751 148.946 193.125 149.606C193.499 150.266 195.205 154.797 195.205 154.797L186.84 158.723L186.841 158.721Z" fill="black"/>
<path d="M195.266 154.768C195.266 154.768 193.513 149.491 192.651 149.175C191.788 148.859 186.188 149.509 186.188 149.509C186.188 149.509 191.392 149.7 192.515 152.11L193.779 155.465L195.264 154.768L195.266 154.768Z" fill="#0F1611"/>
<path d="M185.52 149.701L182.946 141.934L185.361 141.73L187.731 149.514L185.52 149.701Z" fill="#0F1611"/>
<path d="M174.148 137.35C174.148 137.35 175.95 142.326 176.197 142.45C176.444 142.574 194.438 140.897 194.438 140.897C194.438 140.897 196.546 138.791 193.535 138.36C190.524 137.928 174.225 136.626 174.225 136.626L173.851 136.586L174.148 137.348L174.148 137.35Z" fill="#0F1611"/>
<path d="M199.614 193.207C199.614 193.207 201.387 202.074 201.602 203.17C201.817 204.266 199.727 211.486 199.727 211.486C199.727 211.486 200.305 211.486 201.602 211.486C202.039 211.17 203.485 203.17 203.485 203.17L201.726 191.471L199.616 193.207L199.614 193.207Z" fill="#0F1611"/>
<path d="M197.79 197.565L190.637 198.169C190.365 198.192 190.161 198.453 190.182 198.751L190.311 200.576C190.333 200.874 190.57 201.097 190.842 201.074L197.995 200.47C198.267 200.447 198.47 200.186 198.449 199.888L198.32 198.063C198.299 197.765 198.062 197.542 197.79 197.565Z" fill="#0F1611"/>
<path d="M196.246 194.893L194.065 197.881L196.443 197.68L198.383 194.712L196.246 194.893Z" fill="#0F1611"/>
<path d="M228.236 141.603L224.961 133.816C224.961 133.816 225.166 129.413 226.587 127.594C228.008 125.775 227.502 126.385 226.795 125.736C226.362 125.341 225.5 124.583 224.895 124.055C224.457 123.671 224.097 123.193 223.841 122.645L223.625 122.184C223.625 122.184 223.24 121.297 221.651 121.644C220.063 121.991 217.887 122.509 217.887 122.509C217.887 122.509 219.159 120.047 217.788 119.92C216.061 119.76 223.669 117.302 223.669 117.302L226.785 119.391C226.785 119.391 226.829 117.901 227.645 117.832C228.461 117.763 230.968 118.983 232.911 119.775C234.854 120.568 235.768 121.178 235.41 122.27C235.052 123.362 232.823 122.649 232.63 122.665C232.438 122.681 231.679 123.595 231.679 123.595C231.679 123.595 230.079 127.656 230.406 129.539C230.733 131.423 232.906 137.871 232.906 137.871L228.239 141.607L228.236 141.603Z" fill="#202321"/>
<path d="M217.446 122.632C218.174 122.571 218.718 121.874 218.661 121.077C218.605 120.279 217.97 119.683 217.242 119.744C216.515 119.806 215.971 120.502 216.027 121.299C216.084 122.097 216.719 122.694 217.446 122.632Z" fill="#202321"/>
<path d="M206.507 177.545C207.366 175.986 217.415 148.493 217.415 148.493C217.415 148.493 218.409 146.357 218.451 146.265C218.492 146.173 219.242 145.597 220.632 146.081C222.022 146.565 226.659 148.298 226.659 148.298L222.545 154.887C222.545 154.887 220.821 155.138 219.708 154.914C218.595 154.691 217.712 156.357 216.788 158.805C215.864 161.253 209.292 178.717 209.292 178.717" fill="black"/>
<ellipse opacity="0.5" cx="200.305" cy="211.487" rx="10.4066" ry="1.26417" fill="url(#paint0_radial_21707_140793)"/>
</g>
<defs>
<radialGradient id="paint0_radial_21707_140793" cx="0" cy="0" r="1" gradientUnits="userSpaceOnUse" gradientTransform="translate(200.087 211.69) rotate(90) scale(1.26417 10.4066)">
<stop/>
<stop offset="1" stop-color="#D9D9D9" stop-opacity="0"/>
</radialGradient>
<clipPath id="clip0_21707_140793">
<rect width="142.626" height="98.6103" fill="white" transform="matrix(0.996448 -0.0842084 0.0705251 0.99751 133.818 124.893)"/>
</clipPath>
</defs>
</svg>
