<svg width="343" height="233" viewBox="0 0 343 233" fill="none" xmlns="http://www.w3.org/2000/svg">
<path d="M252.033 105.064L260.22 118.232C262.167 121.945 262.561 128.215 262.852 130.23L263.143 134.267C263.337 135.859 263.24 137.24 263.24 138.304L263.143 165.802H268.601L267.334 124.396C267.334 123.438 267.431 120.895 267.528 119.408C268.795 106.029 272.398 106.24 275.812 105.078L276.692 104.12H272.598L266.461 110.066V101.041H262.367V110.383L253.986 103.162L250.481 103.267L252.039 105.071L252.033 105.064Z" fill="#754C24"/>
<path d="M281.167 104.211C275.709 110.263 255.144 119.077 242.087 104C241.602 103.472 240.625 103.894 239.94 103.683C235.264 102.513 232.535 99.3288 230.88 95.1862C230.297 93.6996 230 92.1074 230 90.5151C230.097 86.9079 231.365 83.8291 234.094 81.4901C232.244 78.1999 231.365 74.48 232.147 70.133C232.438 68.5408 233.027 67.0542 233.803 65.779C235.95 61.9604 237.508 58.0291 241.207 56.9653C243.057 47.2005 247.248 44.7557 255.241 46.9821C260.311 42.311 267.03 43.0508 268.983 49.7438C279.117 46.665 283.696 52.717 284.187 65.4549C293.15 68.2167 294.321 73.9516 292.568 80.6376C295.976 83.3994 297.438 86.6895 297.244 90.5081C297.05 95.8132 293.739 100.379 289.154 102.189C286.716 103.147 284.181 103.781 282.816 103.993C282.234 103.993 281.549 103.781 281.161 104.204L281.167 104.211Z" fill="#A9D661"/>
<path d="M171.5 194.019C258.639 194.019 329.28 187.512 329.28 179.484C329.28 171.457 258.639 164.949 171.5 164.949C84.3605 164.949 13.72 171.457 13.72 179.484C13.72 187.512 84.3605 194.019 171.5 194.019Z" fill="#F3F3F3"/>
<path d="M131.602 177.385H60.6753V180.262H131.602V177.385Z" fill="#F2F2F2"/>
<path d="M256.174 177.385H185.247V180.262H256.174V177.385Z" fill="#F2F2F2"/>
<path d="M296.199 171.277L64.8511 171.557V163.066L296.199 162.785V171.277Z" fill="#EACE03"/>
<path d="M296.263 163.066H65.0432L83.0962 156.399L303.458 155.908L296.263 163.066Z" fill="#C6AA05"/>
<path d="M303.073 163.487L296.199 171.277V162.996L303.459 155.908L303.073 163.487Z" fill="#B79A08"/>
<path d="M42.3635 145.242H37.6736V171.489H42.3635V145.242Z" fill="#754C24"/>
<path d="M57.5895 146.997C56.8186 147.839 39.6651 151.909 29.8998 146.997C18.3356 140.891 29.8998 98.3632 29.8998 98.3632C29.8998 98.3632 42.2349 58.3616 45.2544 55.0632C48.2739 51.7649 50.8438 75.4851 55.3409 88.1171C59.8381 100.749 57.5895 117.522 59.8381 126.926C62.0867 136.33 62.4722 137.944 60.6091 142.435C59.4527 145.804 57.5895 146.997 57.5895 146.997Z" fill="#A2D855"/>
<path d="M89.5848 148.822H88.043V156.472H89.5848V148.822Z" fill="#754C24"/>
<path d="M93.3117 149.663C93.1189 149.874 88.429 150.997 85.7307 149.663C82.5826 147.979 85.7307 136.329 85.7307 136.329C85.7307 136.329 89.1357 125.382 89.9066 124.469C90.6776 123.557 91.4485 130.084 92.6692 133.522C93.8899 136.961 93.3116 141.593 93.8898 144.119C94.5323 146.716 94.5965 147.137 94.0826 148.4C93.8256 149.312 93.3117 149.663 93.3117 149.663Z" fill="#8FC140"/>
<path d="M109.502 148.822H107.96V156.472H109.502V148.822Z" fill="#754C24"/>
<path d="M113.228 149.663C113.035 149.874 108.345 150.997 105.647 149.663C102.499 147.979 105.647 136.329 105.647 136.329C105.647 136.329 109.052 125.382 109.823 124.469C110.658 123.557 111.365 130.084 112.585 133.522C113.806 136.961 113.228 141.593 113.806 144.119C114.449 146.716 114.513 147.137 113.999 148.4C113.742 149.312 113.228 149.663 113.228 149.663Z" fill="#8FC140"/>
<path d="M130.382 148.68H128.84V156.329H130.382V148.68Z" fill="#754C24"/>
<path d="M134.109 149.593C133.916 149.804 129.226 150.926 126.528 149.593C123.38 147.909 126.528 136.259 126.528 136.259C126.528 136.259 129.933 125.311 130.704 124.399C131.539 123.487 132.246 130.013 133.467 133.452C134.687 136.891 134.109 141.522 134.687 144.049C135.265 146.575 135.394 147.067 134.88 148.33C134.623 149.242 134.109 149.593 134.109 149.593Z" fill="#8FC140"/>
<path d="M193.983 148.613H192.442V156.263H193.983V148.613Z" fill="#754C24"/>
<path d="M197.71 149.525C197.518 149.735 192.828 150.858 190.129 149.525C186.981 147.84 190.129 136.191 190.129 136.191C190.129 136.191 193.534 125.243 194.305 124.331C195.141 123.418 195.847 129.945 197.068 133.384C198.289 136.822 197.71 141.454 198.289 143.981C198.867 146.507 198.995 146.998 198.481 148.261C198.224 149.174 197.71 149.525 197.71 149.525Z" fill="#8FC140"/>
<path d="M216.856 148.611H215.314V156.261H216.856V148.611Z" fill="#754C24"/>
<path d="M220.581 149.454C220.388 149.665 215.698 150.788 213 149.454C209.852 147.77 213 136.12 213 136.12C213 136.12 216.405 125.173 217.176 124.26C217.947 123.348 218.718 129.875 219.938 133.313C221.159 136.752 220.581 141.384 221.159 143.91C221.801 146.507 221.866 146.928 221.352 148.191C221.095 149.103 220.581 149.454 220.581 149.454Z" fill="#8FC140"/>
<path d="M65.0446 148.121H60.3546V171.069H65.0446V148.121Z" fill="#754C24"/>
<path d="M75.0021 149.524C74.3597 150.225 60.2257 153.524 52.2592 149.524C42.7509 144.471 52.2592 109.522 52.2592 109.522C52.2592 109.522 62.41 76.6086 64.8513 73.8716C67.2927 71.2049 69.477 90.6442 73.139 101.101C76.801 111.487 75.0021 125.312 76.801 133.032C78.5999 140.751 78.9854 142.085 77.4435 145.804C76.544 148.541 75.0021 149.524 75.0021 149.524Z" fill="#0B9D99"/>
<path d="M172.012 127.393L176.742 119.969C176.971 119.551 176.742 118.968 176.284 118.968C175.14 118.968 174.072 118.968 172.927 119.051C171.478 119.134 170.104 119.385 168.731 119.718C168.578 119.718 168.426 119.718 168.273 119.635C167.51 119.051 167.434 118.384 168.197 117.549C168.273 117.466 168.349 117.466 168.426 117.383C171.096 116.632 174.682 116.632 178.497 116.799H179.489C179.947 116.799 180.252 117.383 179.947 117.8L173.69 128.644C173.538 128.977 173.156 129.061 172.927 128.811L172.164 128.31C171.935 128.06 171.859 127.726 172.012 127.393Z" fill="#00DFF4"/>
<path d="M147.673 79.7617L152.251 81.9305C150.267 83.7657 148.588 85.5174 149.657 87.6863L145.308 85.6842C147.139 85.0169 147.749 82.1808 147.673 79.7617Z" fill="#EDBD98"/>
<path d="M155.149 71.7539C155.149 71.7539 156.218 74.7569 155.378 76.3418C155.226 76.592 155.149 76.7588 155.073 76.9257C154.539 77.8432 154.615 77.7598 155.378 78.594C155.836 79.0111 155.226 79.3447 154.921 79.5115C154.768 79.595 154.615 79.7618 154.539 79.9286C154.539 80.0955 154.463 80.3457 154.463 80.3457C154.463 80.4291 154.463 81.0965 153.929 80.9297C151.335 80.0955 153.471 80.7628 154.005 81.1799C154.005 81.1799 154.234 81.4301 154.081 81.5136C153.929 81.597 153.776 81.7638 153.623 81.9306C153.471 82.0975 153.318 82.7648 153.089 83.0151C152.86 83.2653 151.258 83.1819 150.419 82.6814C149.809 82.2643 148.893 81.6804 148.512 81.5136C148.359 81.4301 148.283 81.013 148.206 80.8462C148.054 80.5959 147.596 80.2623 147.291 79.8452C146.68 79.0111 147.443 78.9276 147.596 78.6774C147.749 78.3437 148.054 77.7598 147.977 77.5095C147.901 77.2593 147.52 76.1749 147.52 75.7578C147.52 75.0905 148.13 74.2563 148.435 74.0061C148.817 73.7559 149.351 73.7558 149.656 74.1729C149.885 74.5066 150.19 74.59 150.419 74.3398C150.724 74.0895 153.089 72.2544 153.471 72.171C153.776 72.0876 155.149 71.7539 155.149 71.7539Z" fill="#EDBD98"/>
<path d="M156.676 73.8391C156.523 74.0894 156.295 74.2562 156.142 74.423C155.837 74.6733 155.455 74.8401 154.997 74.9235C153.7 75.0903 152.556 75.1738 151.488 74.7567C151.03 74.5899 150.572 74.6733 150.267 75.0904C149.962 75.424 149.657 75.6742 149.275 75.841C148.665 76.1747 148.283 76.9255 148.36 77.6763C148.36 78.7607 147.902 79.1777 147.368 79.8451C147.062 80.0119 146.834 80.0119 146.528 79.7617C145.231 78.3436 144.85 76.2582 145.079 74.0059C145.079 71.9205 145.46 71.42 146.147 70.6693C146.376 70.419 146.605 70.2522 146.834 70.0854C147.825 69.5015 148.817 68.5838 149.657 68.3336C150.42 68.0833 151.106 68 151.946 68C153.166 68 154.387 68.5838 155.226 69.5848C156.142 70.6692 156.829 72.004 156.981 73.005C156.905 73.2552 156.829 73.5889 156.676 73.8391Z" fill="#42210B"/>
<path d="M151.564 76.758C151.488 76.4243 151.412 76.1741 151.183 76.0072C151.107 75.9238 151.03 75.9238 150.878 75.9238C150.191 76.0072 149.886 76.4243 150.039 77.1751C150.039 77.1751 150.039 77.175 150.039 77.2585C150.191 78.0092 150.42 78.2594 150.878 78.7599L151.564 76.758Z" fill="#EDBD98"/>
<path d="M133.786 125.057L135.923 145.827L137.144 173.021L144.392 172.104L146.681 148.58C147.825 142.908 147.825 137.069 147.062 131.063L145.536 116.298L134.321 115.047C133.71 118.3 133.481 121.553 133.786 125.057Z" fill="#5E7625"/>
<path d="M139.279 172.687L139.813 176.357C140.881 177.024 141.95 176.858 142.941 176.107L143.018 172.02L139.279 172.687Z" fill="#EDBD98"/>
<path d="M139.585 176.358L143.629 175.941C145.994 177.777 148.512 178.194 149.656 178.944C150.191 179.278 150.267 180.112 149.809 180.613C149.428 180.946 148.817 181.28 147.902 181.363C144.926 181.781 142.256 181.947 140.119 181.53C139.814 181.447 139.509 181.28 139.432 180.946C138.898 179.612 139.204 178.027 139.585 176.358Z" fill="#F7931E"/>
<path d="M185.747 153.166L171.861 128.392C171.708 128.058 171.785 127.724 172.09 127.557L175.734 124.066L191.52 151.831L192.131 153.166L186.51 154.584L185.747 153.166Z" fill="#00DFF4"/>
<path d="M131.653 190.203C122.116 190.203 114.333 181.694 114.333 171.267C114.333 160.84 122.116 152.332 131.653 152.332C141.19 152.332 148.973 160.84 148.973 171.267C148.973 181.694 141.19 190.203 131.653 190.203ZM131.653 153.833C122.879 153.833 115.707 161.675 115.707 171.267C115.707 180.86 122.879 188.701 131.653 188.701C140.427 188.701 147.599 180.86 147.599 171.267C147.523 161.675 140.427 153.833 131.653 153.833Z" fill="#20505A"/>
<path d="M114.942 169.766L128.676 171.1V171.434L114.942 170.016V169.766Z" fill="#20505A"/>
<path d="M118.606 160.84L129.669 169.765L129.593 169.932L118.453 161.007L118.606 160.84Z" fill="#20505A"/>
<path d="M127.608 154.25L130.736 168.931L130.507 169.015L127.379 154.333L127.608 154.25Z" fill="#20505A"/>
<path d="M135.849 153.75L132.568 168.431L132.34 168.348L135.62 153.75H135.849Z" fill="#20505A"/>
<path d="M144.24 159.173L134.016 169.349L133.787 169.099L144.011 159.006L144.24 159.173Z" fill="#20505A"/>
<path d="M147.827 170.184L134.093 171.185L134.017 170.935L147.827 169.934V170.184Z" fill="#20505A"/>
<path d="M146.376 179.359L133.787 173.02L133.863 172.77L146.452 179.109L146.376 179.359Z" fill="#20505A"/>
<path d="M140.424 186.532L132.871 173.936L133.1 173.77L140.577 186.365L140.424 186.532Z" fill="#20505A"/>
<path d="M116.926 178.774L129.287 173.186L129.439 173.436L117.003 179.025L116.926 178.774Z" fill="#20505A"/>
<path d="M123.639 186.615L130.43 174.02L130.659 174.186L123.792 186.782L123.639 186.615Z" fill="#20505A"/>
<path d="M131.424 188.951L131.653 174.27H131.882L131.653 188.867L131.424 188.951Z" fill="#20505A"/>
<path d="M131.652 174.605C133.338 174.605 134.704 173.111 134.704 171.268C134.704 169.426 133.338 167.932 131.652 167.932C129.967 167.932 128.6 169.426 128.6 171.268C128.6 173.111 129.967 174.605 131.652 174.605Z" fill="#20505A"/>
<path d="M192.157 190.455C182.619 190.455 174.837 181.947 174.837 171.52C174.837 161.092 182.619 152.584 192.157 152.584C201.694 152.584 209.476 161.092 209.476 171.52C209.476 181.947 201.694 190.455 192.157 190.455ZM192.157 154.086C183.382 154.086 176.21 161.927 176.21 171.52C176.21 181.112 183.382 188.953 192.157 188.953C200.931 188.953 208.103 181.112 208.103 171.52C208.103 161.927 200.931 154.086 192.157 154.086Z" fill="#20505A"/>
<path d="M175.446 170.018L189.18 171.352V171.686L175.446 170.268V170.018Z" fill="#20505A"/>
<path d="M179.109 161.092L190.173 170.017L190.096 170.184L178.957 161.259L179.109 161.092Z" fill="#20505A"/>
<path d="M188.112 154.502L191.316 169.183L191.011 169.267L187.883 154.585L188.112 154.502Z" fill="#20505A"/>
<path d="M196.353 154.002L193.072 168.683L192.843 168.6L196.124 154.002H196.353Z" fill="#20505A"/>
<path d="M204.745 159.425L194.521 169.601L194.368 169.351L204.592 159.258L204.745 159.425Z" fill="#20505A"/>
<path d="M208.331 170.436L194.597 171.437L194.521 171.186L208.331 170.186V170.436Z" fill="#20505A"/>
<path d="M206.881 179.611L194.368 173.272L194.444 173.021L206.957 179.361L206.881 179.611Z" fill="#20505A"/>
<path d="M200.933 186.784L193.379 174.188L193.608 174.021L201.162 186.617L200.933 186.784Z" fill="#20505A"/>
<path d="M177.43 179.026L189.791 173.438L189.943 173.688L177.507 179.277L177.43 179.026Z" fill="#20505A"/>
<path d="M184.145 186.867L191.011 174.271L191.164 174.438L184.373 187.034L184.145 186.867Z" fill="#20505A"/>
<path d="M191.927 189.203L192.156 174.521H192.385L192.156 189.119L191.927 189.203Z" fill="#20505A"/>
<path d="M192.156 174.857C193.841 174.857 195.208 173.363 195.208 171.52C195.208 169.677 193.841 168.184 192.156 168.184C190.47 168.184 189.104 169.677 189.104 171.52C189.104 173.363 190.47 174.857 192.156 174.857Z" fill="#20505A"/>
<path d="M130.736 168.182L147.826 145.91L148.971 147.829L132.338 169.35L130.736 168.182Z" fill="#00DFF4"/>
<path d="M144.852 136.4L153.778 166.43L155.533 166.096L145.767 134.648L144.394 135.232L144.852 136.4Z" fill="#00DFF4"/>
<path d="M148.817 145.242L169.341 138.818L177.886 135.982L179.183 139.069L149.656 146.993L148.817 145.242Z" fill="#00DFF4"/>
<path d="M180.536 135.525C180.417 135.656 180.413 135.863 180.53 135.987C180.646 136.111 181.136 136.169 181.136 136.169C181.136 136.169 181.079 135.639 180.963 135.515C180.847 135.391 180.656 135.394 180.536 135.525ZM180.822 135.832C180.779 135.879 180.71 135.881 180.668 135.835C180.627 135.79 180.628 135.716 180.671 135.669C180.715 135.622 180.784 135.62 180.825 135.666C180.867 135.711 180.866 135.785 180.822 135.832Z" fill="white"/>
<path d="M181.263 139.293L180.585 138.563C180.567 138.553 180.551 138.538 180.532 138.531C180.509 138.523 180.483 138.523 180.459 138.529C180.433 138.537 180.407 138.548 180.383 138.562C180.375 138.566 180.368 138.571 180.361 138.575C180.355 138.579 180.35 138.585 180.345 138.589C180.345 138.589 180.345 138.589 180.344 138.59C180.34 138.595 180.334 138.6 180.328 138.605L179.849 139.127L180.174 139.476L180.465 139.16L180.535 139.236C180.524 139.306 180.501 139.372 180.468 139.434C180.435 139.495 180.394 139.549 180.346 139.594C180.297 139.64 180.242 139.676 180.181 139.703C180.12 139.729 180.055 139.744 179.988 139.745C179.912 139.747 179.841 139.733 179.774 139.705C179.707 139.675 179.65 139.634 179.601 139.582C179.552 139.53 179.514 139.468 179.486 139.396C179.458 139.324 179.446 139.246 179.446 139.165C179.447 139.084 179.462 139.007 179.492 138.934C179.522 138.861 179.563 138.797 179.613 138.742C179.663 138.687 179.721 138.644 179.789 138.61C179.857 138.577 179.927 138.56 180.003 138.558L180.01 138.053C179.87 138.056 179.738 138.088 179.613 138.149C179.489 138.209 179.381 138.291 179.287 138.391C179.193 138.492 179.12 138.612 179.065 138.747C179.009 138.881 178.981 139.024 178.98 139.176C178.978 139.327 179.002 139.469 179.054 139.601C179.106 139.732 179.177 139.847 179.269 139.945C179.361 140.042 179.466 140.118 179.587 140.174C179.708 140.229 179.839 140.254 179.979 140.251C180.118 140.247 180.25 140.215 180.375 140.155C180.499 140.095 180.607 140.013 180.701 139.912C180.739 139.87 180.775 139.825 180.808 139.777C180.841 139.729 180.87 139.678 180.893 139.624L180.928 139.661L181.263 139.296L181.263 139.293Z" fill="white"/>
<path d="M180.603 136.948C180.702 136.839 180.816 136.756 180.94 136.701C181.066 136.644 181.193 136.615 181.321 136.612C181.45 136.608 181.577 136.631 181.7 136.682C181.825 136.733 181.935 136.809 182.032 136.914C182.129 137.019 182.201 137.137 182.249 137.271C182.297 137.404 182.318 137.541 182.316 137.68C182.314 137.82 182.287 137.958 182.235 138.094C182.185 138.23 182.109 138.353 182.01 138.461C181.91 138.57 181.797 138.654 181.672 138.708C181.547 138.765 181.42 138.794 181.292 138.797C181.163 138.8 181.037 138.776 180.914 138.726C180.79 138.675 180.681 138.598 180.583 138.494C180.485 138.39 180.413 138.271 180.366 138.137C180.318 138.004 180.295 137.868 180.296 137.729C180.298 137.59 180.324 137.452 180.375 137.317C180.426 137.181 180.502 137.058 180.601 136.95L180.603 136.948ZM181.688 138.111C181.742 138.052 181.783 137.987 181.811 137.913C181.839 137.84 181.853 137.766 181.853 137.69C181.855 137.614 181.842 137.54 181.817 137.469C181.79 137.397 181.752 137.333 181.699 137.277C181.647 137.222 181.588 137.179 181.521 137.152C181.455 137.125 181.387 137.111 181.316 137.113C181.246 137.114 181.177 137.131 181.11 137.161C181.043 137.192 180.982 137.237 180.928 137.296C180.875 137.354 180.834 137.42 180.807 137.493C180.779 137.566 180.764 137.64 180.764 137.716C180.763 137.792 180.775 137.866 180.801 137.937C180.827 138.009 180.866 138.073 180.918 138.129C180.971 138.184 181.03 138.227 181.096 138.254C181.163 138.281 181.231 138.295 181.302 138.293C181.372 138.292 181.441 138.275 181.507 138.245C181.575 138.215 181.636 138.169 181.689 138.11L181.688 138.111Z" fill="white"/>
<path d="M181.216 140.425C181.188 140.435 181.167 140.441 181.154 140.44C181.132 140.441 181.114 140.433 181.1 140.417C181.085 140.401 181.078 140.381 181.077 140.358C181.078 140.335 181.086 140.316 181.1 140.298C181.115 140.281 181.134 140.272 181.153 140.273C181.172 140.273 181.189 140.279 181.201 140.292L181.191 140.321C181.177 140.31 181.165 140.305 181.153 140.305C181.141 140.305 181.131 140.31 181.121 140.321C181.112 140.333 181.107 140.345 181.107 140.358C181.107 140.372 181.111 140.384 181.121 140.394C181.131 140.404 181.142 140.409 181.155 140.408C181.163 140.407 181.177 140.405 181.197 140.399C181.228 140.389 181.252 140.383 181.268 140.383C181.295 140.383 181.317 140.393 181.335 140.411C181.354 140.43 181.363 140.455 181.363 140.484C181.363 140.513 181.353 140.538 181.335 140.558C181.316 140.578 181.293 140.589 181.266 140.59C181.239 140.59 181.219 140.582 181.203 140.565L181.219 140.536C181.233 140.551 181.249 140.557 181.267 140.558C181.285 140.556 181.301 140.55 181.314 140.536C181.328 140.522 181.334 140.505 181.334 140.485C181.334 140.464 181.328 140.448 181.315 140.434C181.303 140.42 181.287 140.413 181.269 140.415C181.259 140.415 181.242 140.418 181.217 140.425L181.216 140.425Z" fill="white"/>
<path d="M181.085 140.023L181.106 140L181.259 140.164C181.26 140.126 181.273 140.095 181.299 140.066C181.326 140.037 181.356 140.021 181.39 140.021C181.424 140.02 181.453 140.032 181.479 140.06L181.629 140.222L181.608 140.245L181.459 140.085C181.44 140.065 181.417 140.055 181.389 140.056C181.361 140.057 181.338 140.068 181.318 140.089C181.299 140.11 181.289 140.136 181.288 140.165C181.288 140.178 181.29 140.19 181.293 140.201L181.471 140.393L181.45 140.417L181.084 140.023L181.085 140.023Z" fill="white"/>
<path d="M181.941 139.878L181.92 139.901L181.874 139.853C181.875 139.864 181.876 139.873 181.876 139.884C181.875 139.937 181.857 139.984 181.821 140.022C181.786 140.059 181.743 140.081 181.694 140.081C181.644 140.083 181.602 140.064 181.568 140.027C181.533 139.991 181.516 139.946 181.517 139.89C181.518 139.837 181.537 139.791 181.572 139.752C181.606 139.714 181.649 139.693 181.699 139.693C181.709 139.693 181.719 139.694 181.727 139.694L181.695 139.661L181.716 139.638L181.941 139.878ZM181.821 139.795L181.78 139.751C181.756 139.734 181.729 139.725 181.698 139.726C181.657 139.727 181.622 139.744 181.593 139.775C181.563 139.806 181.548 139.846 181.548 139.89C181.547 139.935 181.562 139.972 181.59 140.002C181.619 140.032 181.654 140.048 181.695 140.046C181.736 140.045 181.771 140.028 181.8 139.996C181.829 139.964 181.845 139.925 181.845 139.881C181.845 139.847 181.837 139.818 181.821 139.792L181.821 139.795Z" fill="white"/>
<path d="M181.782 139.562L181.803 139.539L181.845 139.583C181.843 139.571 181.843 139.56 181.842 139.547C181.843 139.508 181.852 139.476 181.871 139.454L181.894 139.478C181.881 139.493 181.874 139.516 181.873 139.547C181.872 139.589 181.886 139.626 181.912 139.657L182.029 139.782L182.008 139.805L181.781 139.563L181.782 139.562Z" fill="white"/>
<path d="M181.88 139.294C181.888 139.294 181.895 139.297 181.901 139.303C181.907 139.31 181.91 139.317 181.91 139.325C181.91 139.334 181.907 139.342 181.901 139.348C181.894 139.355 181.888 139.358 181.88 139.358C181.872 139.359 181.865 139.356 181.859 139.349C181.853 139.343 181.85 139.336 181.85 139.327C181.85 139.318 181.853 139.311 181.859 139.304C181.866 139.297 181.872 139.295 181.88 139.294ZM181.95 139.379L182.177 139.622L182.156 139.645L181.929 139.402L181.95 139.379Z" fill="white"/>
<path d="M182.092 139.331L182.267 139.518L182.245 139.541L182.021 139.3L182.042 139.277L182.056 139.292C182.058 139.251 182.071 139.217 182.096 139.189C182.123 139.159 182.153 139.144 182.187 139.143C182.221 139.143 182.25 139.155 182.276 139.182L182.426 139.344L182.405 139.367L182.256 139.208C182.237 139.188 182.214 139.177 182.186 139.179C182.158 139.18 182.135 139.191 182.115 139.212C182.096 139.232 182.086 139.259 182.085 139.288C182.085 139.304 182.087 139.318 182.092 139.331Z" fill="white"/>
<path d="M182.673 138.977C182.674 138.987 182.674 138.997 182.674 139.007C182.674 139.06 182.655 139.108 182.62 139.145C182.584 139.183 182.542 139.205 182.492 139.205C182.442 139.207 182.4 139.188 182.365 139.151C182.331 139.115 182.314 139.069 182.315 139.015C182.316 138.961 182.335 138.915 182.37 138.876C182.405 138.837 182.448 138.817 182.497 138.815C182.507 138.815 182.517 138.816 182.525 138.817L182.493 138.783L182.515 138.76L182.689 138.947C182.722 138.983 182.739 139.028 182.739 139.08C182.739 139.133 182.719 139.179 182.684 139.218C182.649 139.257 182.606 139.277 182.556 139.278C182.546 139.278 182.536 139.277 182.527 139.276L182.542 139.243C182.542 139.243 182.552 139.244 182.557 139.244C182.599 139.243 182.634 139.226 182.663 139.195C182.693 139.164 182.707 139.125 182.708 139.081C182.709 139.04 182.698 139.005 182.674 138.977L182.673 138.977ZM182.578 138.874C182.555 138.857 182.527 138.849 182.497 138.85C182.455 138.851 182.42 138.868 182.391 138.899C182.361 138.93 182.346 138.97 182.346 139.014C182.346 139.06 182.36 139.097 182.389 139.127C182.417 139.157 182.452 139.173 182.494 139.171C182.535 139.17 182.57 139.153 182.6 139.122C182.629 139.091 182.645 139.051 182.644 139.007C182.645 138.975 182.637 138.945 182.622 138.919L182.579 138.872L182.578 138.874Z" fill="white"/>
<path d="M164.537 121.803C164.537 121.552 164.613 121.385 164.842 121.302C165.91 120.635 167.207 120.051 168.657 119.467C169.191 119.217 169.801 119.05 170.335 118.799C170.564 118.716 170.869 118.633 171.098 118.633L174.837 118.049L175.981 118.633L170.259 120.885C169.954 120.968 169.725 121.052 169.496 121.135C168.58 121.719 167.131 122.303 165.528 122.97C165.3 123.054 165.071 123.054 164.918 122.804C164.689 122.637 164.537 122.22 164.537 121.803Z" fill="#00BDF1"/>
<path d="M168.504 119.885C168.58 120.302 168.733 120.719 168.886 121.052C169.038 121.303 169.267 121.47 169.572 121.386C169.725 121.303 169.877 121.303 170.03 121.219C170.259 121.136 170.412 120.886 170.412 120.552C170.335 120.051 170.259 119.634 170.106 119.301C170.03 119.05 169.725 118.884 169.496 118.967C169.267 118.967 169.114 119.05 168.886 119.134C168.58 119.301 168.428 119.634 168.504 119.885Z" fill="black"/>
<path d="M151.792 132.063L144.239 132.564C144.086 132.564 143.933 132.647 143.781 132.647L140.347 133.982C139.813 134.149 139.279 134.065 138.822 133.731C137.906 133.064 136.99 131.896 136.99 131.896C136.99 131.896 136.609 131.479 136.38 130.895C136.304 130.728 136.304 130.562 136.38 130.478C136.761 129.394 138.287 129.31 139.813 129.561C143.018 129.894 145.994 129.978 148.588 129.978C148.664 129.978 148.74 129.978 148.817 129.978C150.114 129.978 151.258 130.145 152.326 130.478C152.631 130.562 152.86 130.812 152.937 131.062C152.937 131.146 152.937 131.229 152.937 131.312C152.937 131.646 152.708 131.896 152.403 131.896L151.792 132.063Z" fill="#1A1A1A"/>
<path d="M140.499 133.899L145.382 135.651L148.892 132.23H147.824L145.306 134.232C145.154 134.316 145.001 134.399 144.848 134.316L141.644 133.482L140.499 133.899Z" fill="#1A1A1A"/>
<path d="M156.981 180.695C160.858 180.695 164 177.333 164 173.187C164 169.041 160.858 165.68 156.981 165.68C153.104 165.68 149.961 169.041 149.961 173.187C149.961 177.333 153.104 180.695 156.981 180.695Z" fill="black"/>
<path d="M178.575 138.986L156.22 170.935H133.635L133.406 172.77L151.413 173.104L157.669 173.187L180.635 142.74L178.575 138.986Z" fill="#00DFF4"/>
<path d="M156.599 170.768L166.594 171.018C167.128 171.685 167.052 172.352 166.67 173.02L156.523 173.437C156.294 173.437 156.065 173.27 155.988 173.02C155.76 172.019 155.836 171.518 156.065 171.101C156.217 170.934 156.37 170.768 156.599 170.768Z" fill="#1A1A1A"/>
<path d="M161.789 175.939C161.56 175.522 161.636 175.022 161.941 174.771L167.206 171.018C167.511 170.767 167.969 170.851 168.198 171.268V171.351C168.427 171.685 168.35 172.186 167.969 172.436L162.704 176.189C162.399 176.44 161.941 176.273 161.789 175.939Z" fill="#333333"/>
<path d="M137.905 113.212L145.687 115.798C149.121 120.386 163.922 125.224 167.127 127.893C168.882 129.312 169.797 131.647 169.568 133.983C168.653 145.411 166.364 155.171 162.168 162.928H156.064C153.851 154.003 154.69 144.744 157.819 135.318C151.791 133.983 143.78 132.315 136.379 129.979C134.014 129.562 133.022 123.306 133.098 120.886C133.098 120.553 133.098 120.136 133.174 119.802C134.014 114.213 135.921 111.878 137.905 113.212Z" fill="#5E7625"/>
<path d="M157.359 162.928V166.598C158.351 167.432 159.419 167.516 160.488 166.932L161.174 162.928H157.359Z" fill="#EDBD98"/>
<path d="M157.056 166.598L161.099 166.931C163.236 169.184 165.601 169.934 166.669 170.935C167.127 171.352 167.127 172.186 166.593 172.604C166.135 172.937 165.525 173.021 164.609 173.021C161.633 172.937 158.963 172.687 156.903 171.853C156.598 171.769 156.369 171.436 156.293 171.102C155.987 169.684 156.445 168.183 157.056 166.598Z" fill="#F7931E"/>
<path d="M153.471 103.118L155.684 107.706C155.989 108.29 156.37 108.791 156.828 109.124L165.908 116.632C166.823 117.383 167.433 118.467 167.968 119.635C168.12 119.968 168.196 120.636 168.196 120.97C168.196 121.136 168.196 121.22 168.12 121.387C167.968 122.137 167.51 122.721 166.899 122.971C165.984 123.388 165.145 123.889 164.763 123.305C165.068 123.138 165.45 122.471 165.679 121.97C165.908 121.47 166.06 120.969 166.136 120.469C166.136 119.968 166.136 119.385 165.831 119.218C164.687 118.384 163.695 117.383 162.627 116.632C162.398 116.465 162.093 116.382 161.787 116.298C159.956 115.881 158.125 115.214 156.218 114.38C155.836 114.213 155.531 113.962 155.302 113.712C153.242 111.71 150.572 107.79 148.74 104.62L153.471 101.867V103.118Z" fill="#E2AF8D"/>
<path d="M156.141 107.122L152.555 111.042L147.672 105.954L151.64 100.615L156.141 107.122Z" fill="#1D4B51"/>
<path d="M172.774 118.716C172.621 118.216 172.621 117.715 172.621 117.215C172.621 116.965 172.85 116.714 173.079 116.631C173.461 116.548 173.766 116.548 174.224 116.631C174.453 116.714 174.605 116.881 174.682 117.048C174.758 117.465 174.834 117.966 174.834 118.466C174.834 118.8 174.605 119.05 174.376 119.05C174.071 119.133 173.766 119.133 173.461 119.133C173.079 119.217 172.85 118.967 172.774 118.716Z" fill="black"/>
<path d="M158.887 98.6145L161.1 103.202C161.405 103.786 161.786 104.287 162.244 104.62L171.324 112.128C172.239 112.879 172.85 113.963 173.384 115.131C173.536 115.465 173.613 116.132 173.613 116.466C173.613 116.632 173.613 116.716 173.536 116.883C173.384 117.633 172.926 118.217 172.316 118.468C171.4 118.885 170.561 119.385 170.179 118.801C170.484 118.634 170.866 117.967 171.095 117.467C171.324 116.966 171.476 116.466 171.553 115.965C171.553 115.465 171.553 114.881 171.247 114.714C170.103 113.88 169.111 112.879 168.043 112.128C167.814 111.961 167.509 111.878 167.204 111.794C165.372 111.377 163.541 110.71 161.634 109.876C161.252 109.709 160.947 109.459 160.718 109.208C158.658 107.206 155.988 103.286 154.157 100.116L158.887 97.3633V98.6145Z" fill="#EDBD98"/>
<path d="M164.535 121.804C164.535 121.554 164.688 121.387 164.84 121.304C165.909 120.553 167.206 119.969 168.655 119.469C169.189 119.302 167.663 119.969 168.274 119.719C168.045 119.719 168.503 119.635 168.274 119.719L168.503 120.553L168.732 121.137L168.808 121.304C168.503 121.387 168.96 121.387 168.732 121.554C167.816 122.138 167.129 122.388 165.527 123.055C165.298 123.139 165.069 123.139 164.917 122.889C164.688 122.638 164.535 122.305 164.535 121.804Z" fill="#00BDF1"/>
<path d="M146.757 117.966L126.92 113.712C130.506 100.449 136.686 90.5222 146.07 84.5996H150.038L162.398 98.8639L155.684 106.705L152.708 102.951L146.757 117.966Z" fill="#20505A"/>
<path d="M285.684 97.3168L294.833 111.996C297.039 116.177 297.446 123.121 297.771 125.341L298.096 129.881C298.259 131.659 298.178 133.176 298.259 134.328L298.178 171.079H304.302L302.915 118.668C302.833 117.6 302.996 114.754 303.159 113.153C304.546 98.2025 308.633 98.4741 312.389 97.2282L313.37 96.1595H308.795L301.934 102.743V92.6875H297.278V103.098L287.966 95.0022L284.047 95.1793L285.679 97.3168H285.684Z" fill="#754C24"/>
<path d="M318.107 96.4258C312.064 103.187 289.028 112.977 274.492 96.1601C273.923 95.5401 272.86 96.0715 272.042 95.8944C266.817 94.5599 263.793 91.0879 261.912 86.3759C261.256 84.6872 260.931 82.9039 261.012 81.1266C261.094 77.0346 262.562 73.6512 265.505 71.0709C263.462 67.4217 262.481 63.2412 263.381 58.3461C263.706 56.5688 264.362 54.9627 265.18 53.4511C267.549 49.182 269.262 44.8184 273.43 43.5725C275.554 32.7196 280.21 29.9561 289.11 32.3594C294.747 27.1101 302.259 27.9131 304.383 35.4712C315.738 31.9992 320.882 38.8546 321.37 53.0023C331.332 56.0256 332.644 62.4322 330.763 69.9076C334.6 72.9308 336.156 76.6685 335.988 80.855C335.744 86.7302 332.069 91.891 327.001 93.934C324.226 95.0913 321.446 95.7113 319.896 95.9829C319.327 96.1601 318.589 95.9829 318.096 96.4258H318.107Z" fill="#BC8E6F"/>
<path d="M285.684 97.3168L294.833 111.996C297.039 116.177 297.446 123.121 297.771 125.341L298.096 129.881C298.259 131.659 298.178 133.176 298.259 134.328L298.178 171.079H304.302L302.915 118.668C302.833 117.6 302.996 114.754 303.159 113.153C304.546 98.2025 308.633 98.4741 312.389 97.2282L313.37 96.1595H308.795L301.934 102.743V92.6875H297.278V103.098L287.966 95.0022L284.047 95.1793L285.679 97.3168H285.684Z" fill="#754C24"/>
<path d="M318.107 96.4258C312.064 103.187 289.028 112.977 274.492 96.1601C273.923 95.5401 272.86 96.0715 272.042 95.8944C266.817 94.5599 263.793 91.0879 261.912 86.3759C261.256 84.6872 260.931 82.9039 261.012 81.1266C261.094 77.0346 262.562 73.6512 265.505 71.0709C263.462 67.4217 262.481 63.2412 263.381 58.3461C263.706 56.5688 264.362 54.9627 265.18 53.4511C267.549 49.182 269.262 44.8184 273.43 43.5725C275.554 32.7196 280.21 29.9561 289.11 32.3594C294.747 27.1101 302.259 27.9131 304.383 35.4712C315.738 31.9992 320.882 38.8546 321.37 53.0023C331.332 56.0256 332.644 62.4322 330.763 69.9076C334.6 72.9308 336.156 76.6685 335.988 80.855C335.744 86.7302 332.069 91.891 327.001 93.934C324.226 95.0913 321.446 95.7113 319.896 95.9829C319.327 96.1601 318.589 95.9829 318.096 96.4258H318.107Z" fill="#BC8E6F"/>
</svg>
