<svg width="343" height="233" viewBox="0 0 343 233" fill="none" xmlns="http://www.w3.org/2000/svg">
<path d="M171.043 204.3C259.445 204.3 331.109 197.793 331.109 189.765C331.109 181.738 259.445 175.23 171.043 175.23C82.6402 175.23 10.976 181.738 10.976 189.765C10.976 197.793 82.6402 204.3 171.043 204.3Z" fill="#F3F3F3"/>
<path d="M130.779 187.758H78.2589V189.892H130.779V187.758Z" fill="#F2F2F2"/>
<path d="M223.043 187.758H170.523V189.892H223.043V187.758Z" fill="#F2F2F2"/>
<path d="M259.794 120.664L258.149 110.328C257.944 108.811 257.224 107.463 256.197 106.396C256.042 106.227 255.837 106.059 255.683 105.89C253.987 104.542 251.777 104.149 249.773 104.935C249.156 105.16 248.591 105.609 248.077 106.115C247.049 107.238 246.69 108.643 247.306 110.552C245.148 108.867 242.99 108.362 240.78 108.755C240.471 108.755 240.215 108.867 239.906 109.092C238.776 109.766 238.108 111.17 238.005 112.519C237.953 114.035 238.364 114.822 239.187 115.889C240.677 117.462 242.219 118.585 243.915 118.248C242.99 118.979 242.527 119.99 242.373 121.169C242.27 122.124 242.527 123.079 243.144 123.753C243.709 124.315 244.377 124.708 245.097 124.821C250.544 125.888 255.374 124.146 259.897 120.945L259.794 120.664Z" fill="#AFC681"/>
<path d="M258.937 98.1944L258.783 92.6333C258.783 91.8468 258.475 91.0604 258.064 90.4425C258.012 90.3301 257.909 90.274 257.858 90.1054C257.087 89.2628 255.905 88.8696 254.826 89.1505C254.466 89.2066 254.158 89.3752 253.85 89.5999C253.233 90.1054 252.925 90.8357 253.182 91.8468C252.154 90.7795 251.075 90.3301 249.893 90.3301C249.739 90.3301 249.584 90.3301 249.43 90.3863C248.814 90.611 248.351 91.3412 248.248 92.0153C248.145 92.7455 248.248 93.2511 248.659 93.869C249.327 94.824 250.047 95.4981 250.92 95.4981C250.407 95.8351 250.047 96.2845 249.893 96.9024C249.79 97.408 249.841 97.9135 250.201 98.3068C250.407 98.6438 250.766 98.8685 251.177 99.037C253.952 100.048 256.573 99.5426 259.143 98.2506L258.937 98.1944Z" fill="#AFC681"/>
<path d="M263.171 72.6922C263.171 72.7483 263.171 72.8045 263.171 72.8607C262.503 76.0064 259.265 132.461 265.792 163.075C265.792 163.131 265.792 163.188 265.792 163.244L267.847 176.388H261.115C261.68 176.613 260.139 133.753 259.111 105.891C258.135 80.6688 259.625 74.3774 260.19 67.6927C260.601 63.0865 263.428 51.4586 262.246 52.245L263.839 56.2333L263.171 72.6922Z" fill="#937F6F"/>
<path d="M263.027 76.9053L271.918 81.5676C273.203 82.2417 274.641 82.4103 276.08 82.1294C276.286 82.0732 276.543 82.0171 276.748 81.9609C278.804 81.2868 280.448 79.433 280.962 77.1299C281.117 76.3997 281.168 75.6133 281.065 74.883C280.86 73.254 279.935 72.0744 278.187 71.5126C280.757 70.5577 282.401 68.8163 283.48 66.6255C283.635 66.4008 283.686 66.0076 283.789 65.6706C283.943 64.2662 283.326 62.8057 282.247 61.9631C281.168 61.0082 280.243 60.8958 278.958 61.0082C276.903 61.4576 275.155 62.1878 274.333 63.9292C274.333 62.6934 273.871 61.6261 273.048 60.7835C272.432 60.1094 271.455 59.7724 270.582 59.9971H270.53C269.811 60.1656 269.04 60.5588 268.526 61.1205C264.466 65.4459 262.873 70.8947 262.616 76.9053H263.027Z" fill="#AFC681"/>
<path d="M267.706 56.4571C275.653 56.4571 282.095 49.4152 282.095 40.7286C282.095 32.0419 275.653 25 267.706 25C259.759 25 253.317 32.0419 253.317 40.7286C253.317 49.4152 259.759 56.4571 267.706 56.4571Z" fill="#A9D661"/>
<path d="M260.793 53.7057L269.169 52.7508C270.351 52.6384 271.533 52.0767 272.407 51.1218C272.561 51.0094 272.715 50.7847 272.818 50.6162C274.051 49.0995 274.462 46.9649 273.949 44.9988C273.794 44.3809 273.486 43.8192 273.178 43.3136C272.407 42.2463 271.174 41.7969 269.683 42.2463C271.174 40.3364 271.687 38.258 271.585 36.0673C271.585 35.8426 271.533 35.5055 271.431 35.2808C270.968 34.1574 269.94 33.4271 268.81 33.3148C267.628 33.2024 266.908 33.4833 266.086 34.2697C264.801 35.5617 263.773 36.966 263.928 38.5951C263.414 37.7525 262.643 37.1907 261.718 36.9099C260.998 36.7413 260.176 36.966 259.611 37.5278C259.097 38.0333 258.737 38.6513 258.635 39.3253C257.453 44.4933 258.532 49.1557 260.742 53.7057H260.793Z" fill="#DEF2AF"/>
<path d="M261.183 93.7005C261.183 93.7005 256.712 74.6577 252.087 71.512C247.462 68.4224 250.648 71.3435 250.648 71.3435C250.648 71.3435 256.61 79.3201 257.997 87.0159C259.436 94.5993 261.183 93.7005 261.183 93.7005Z" fill="#937F6F"/>
<path d="M260.61 132.966C260.61 132.966 262.615 120.271 270.272 114.71C277.929 109.093 272.893 113.362 272.893 113.362C272.893 113.362 264.31 122.35 264.362 127.124C264.413 131.787 260.61 132.966 260.61 132.966Z" fill="#937F6F"/>
<path d="M245.639 81.6804C252.678 81.6804 258.384 75.4433 258.384 67.7494C258.384 60.0555 252.678 53.8184 245.639 53.8184C238.601 53.8184 232.895 60.0555 232.895 67.7494C232.895 75.4433 238.601 81.6804 245.639 81.6804Z" fill="#A9D661"/>
<path d="M253.165 78.142L255.169 70.3339C255.478 69.2104 255.375 67.9746 255.015 66.9073C254.964 66.7388 254.913 66.5141 254.81 66.4017C254.09 64.7727 252.6 63.7054 251.007 63.593C250.493 63.5369 249.979 63.5931 249.465 63.7616C248.386 64.1548 247.718 65.0536 247.512 66.5703C246.536 64.6604 245.2 63.4807 243.555 62.919C243.35 62.8628 243.093 62.8066 242.887 62.8066C241.86 62.8628 240.986 63.5369 240.575 64.548C240.061 65.5591 240.112 66.2894 240.421 67.3005C240.986 68.9295 241.705 70.2215 242.99 70.6709C242.117 70.8394 241.5 71.345 240.986 72.1876C240.575 72.8055 240.523 73.5919 240.78 74.3222C240.986 74.8839 241.346 75.4457 241.808 75.8389C245.303 78.5914 249.157 79.1531 253.319 78.5914V78.142H253.165Z" fill="#DEF2AF"/>
<path d="M277.952 118.135C286.069 118.135 292.649 110.942 292.649 102.07C292.649 93.1967 286.069 86.0039 277.952 86.0039C269.834 86.0039 263.254 93.1967 263.254 102.07C263.254 110.942 269.834 118.135 277.952 118.135Z" fill="#A9D661"/>
<path d="M268.359 113.248L276.889 114.428C278.123 114.596 279.408 114.371 280.487 113.641C280.641 113.529 280.846 113.416 281.001 113.248C282.542 112.068 283.467 110.102 283.262 107.968C283.21 107.294 283.108 106.676 282.799 106.114C282.234 104.822 281.155 104.148 279.562 104.204C281.463 102.631 282.388 100.721 282.748 98.5867C282.799 98.362 282.799 98.025 282.748 97.7441C282.542 96.5083 281.669 95.4972 280.538 95.1601C279.408 94.7107 278.637 94.823 277.66 95.3848C276.067 96.3397 274.834 97.5194 274.577 99.2046C274.217 98.1935 273.601 97.4632 272.676 96.9576C272.007 96.5644 271.134 96.6206 270.466 97.0138C269.901 97.407 269.387 97.8564 269.078 98.5867C266.817 103.361 266.869 108.361 268.153 113.36L268.359 113.248Z" fill="#DEF2AF"/>
<path d="M269.203 161.781H233.898V191.722H269.203V161.781Z" fill="#65C7CF"/>
<path d="M245.718 156.164L276.038 156.333L269.151 161.781H233.898L245.718 156.164Z" fill="#4FBCBF"/>
<path d="M276.067 156.332V186.553L269.181 191.721V161.781L276.067 156.332Z" fill="#47B2B2"/>
<path d="M215.771 154.311L211.351 179.926C210.94 182.285 212.584 184.476 214.794 184.532L230.93 184.7C233.192 184.7 234.887 182.453 234.425 180.038L229.646 154.367H215.771V154.311Z" fill="#6B5353"/>
<path d="M217.761 162.176C217.761 162.176 218.737 147.571 218.891 146.447C219.045 145.324 222.591 141.335 222.9 141.448C224.082 141.897 224.493 142.459 225.264 143.301C226.291 144.425 226.959 145.829 227.011 147.346L227.473 162.4L225.983 162.288C225.932 156.165 225.88 150.042 225.469 146.672C224.904 145.211 224.493 143.47 222.951 143.133C221.718 144.256 220.125 146.222 219.816 147.908C219.457 151.39 219.148 156.952 218.891 162.344L217.761 162.176Z" fill="#6B5353"/>
<path d="M227.79 159.087L222.754 188.466C222.291 191.219 224.193 193.746 226.711 193.746L245.211 193.915C247.781 193.915 249.785 191.331 249.219 188.578L243.721 159.031H227.79V159.087Z" fill="#896A6A"/>
<path d="M230.069 168.188C230.069 168.188 231.2 151.448 231.405 150.156C231.611 148.864 235.671 144.258 236.03 144.426C237.366 144.988 237.88 145.606 238.754 146.561C239.936 147.853 240.707 149.426 240.758 151.167L241.272 168.469L239.576 168.356C239.525 161.335 239.473 154.313 238.959 150.437C238.343 148.808 237.829 146.729 236.082 146.392C234.694 147.684 232.844 149.931 232.484 151.897C232.073 155.886 231.714 162.29 231.405 168.525L230.069 168.188Z" fill="#755959"/>
<path d="M275.338 189.363L284.485 192.453C285.821 192.902 287.209 192.846 288.545 192.341C288.751 192.284 288.956 192.172 289.162 192.06C291.063 191.049 292.348 189.026 292.605 186.723C292.708 185.993 292.605 185.263 292.399 184.533C291.937 183.016 290.96 182.061 289.162 181.724C291.526 180.376 292.913 178.522 293.633 176.163C293.787 175.882 293.787 175.545 293.787 175.208C293.735 173.803 292.965 172.511 291.834 171.837C290.652 171.107 289.83 171.107 288.545 171.444C286.592 172.174 284.999 173.185 284.485 174.983C284.28 173.747 283.715 172.848 282.79 172.174C282.07 171.613 281.145 171.444 280.323 171.781C279.603 172.062 278.987 172.568 278.576 173.185C275.235 178.016 274.464 183.521 274.978 189.307L275.338 189.363Z" fill="#AFC681"/>
<path d="M246.58 194.739L249.201 190.358C249.561 189.74 249.766 189.01 249.715 188.223C249.715 188.111 249.664 187.999 249.664 187.83C249.458 186.707 248.79 185.752 247.813 185.302C247.505 185.134 247.145 185.134 246.837 185.078C246.118 185.078 245.552 185.471 245.193 186.37C244.936 184.965 244.319 183.954 243.394 183.28C243.291 183.168 243.137 183.112 242.983 183.055C242.366 182.887 241.698 183.112 241.236 183.617C240.773 184.123 240.67 184.572 240.619 185.302C240.67 186.426 240.876 187.381 241.595 187.886C241.03 187.83 240.568 187.999 240.156 188.392C239.848 188.673 239.643 189.178 239.643 189.628C239.694 190.021 239.797 190.414 240.002 190.751C241.647 193.167 243.959 194.346 246.58 194.852V194.739Z" fill="#DEF2AF"/>
<path d="M253.778 160.546V158.523C253.778 158.243 253.676 157.962 253.521 157.681C253.47 157.625 253.47 157.625 253.419 157.569C253.162 157.231 252.751 157.063 252.34 157.175C252.237 157.175 252.083 157.288 251.98 157.344C251.774 157.512 251.62 157.793 251.671 158.13C251.312 157.737 250.901 157.569 250.489 157.569C250.438 157.569 250.387 157.569 250.335 157.569C250.078 157.681 249.924 157.906 249.873 158.13C249.821 158.411 249.873 158.58 249.976 158.804C250.181 159.141 250.438 159.422 250.798 159.422C250.592 159.535 250.489 159.703 250.438 159.928C250.387 160.096 250.387 160.321 250.489 160.433C250.592 160.546 250.695 160.658 250.798 160.714C251.774 161.107 252.751 160.995 253.727 160.546H253.778Z" fill="#DEF2AF"/>
<g clip-path="url(#clip0_21707_140754)">
<path d="M108.897 125.208L109.495 124.928C111.66 123.917 114.159 125.081 114.999 127.491L122.019 147.613C122.16 148.012 122.348 148.385 122.583 148.728C123.935 150.695 128.786 157.04 133.495 154.457C138.696 151.603 147.803 128.548 147.027 130.407C147.027 130.407 155.904 112.326 155.991 112.19C157.726 109.494 160.296 116.47 161.783 119.474L161.661 119.499C162.362 120.918 160.589 122.531 159.829 123.91L146.781 148.538C146.651 148.773 145.422 151.145 145.292 151.382C144.097 153.582 141.455 161.634 135.509 163.426C128.888 165.421 122.345 165.436 120.734 165.033C119.124 164.629 116.977 165.111 115.848 160.721C114.98 157.343 109.213 139.1 106.606 130.886C105.888 128.626 106.89 126.144 108.899 125.205L108.897 125.208Z" fill="#81B928"/>
<path d="M112.685 122.45L114.615 121.859L123.436 144.941C123.923 146.316 124.626 147.595 125.541 148.678C126.791 150.156 128.602 151.496 130.473 150.146C133.875 147.688 139.37 130.895 139.37 130.895C139.37 130.895 141.726 124.72 142.377 124.635C143.028 124.55 143.845 124.579 145.469 124.895C147.092 125.211 148.455 122.474 148.659 122.048C148.863 121.622 151.202 118.271 150.991 116.788C150.78 115.304 151.607 115.63 151.991 115.735C152.375 115.841 154.412 116.596 152.983 114.445C151.554 112.293 155.606 109.751 155.606 109.751L156.888 112.365L157.084 113.065L157.309 113.569L155.039 117.468L147.101 132.132L137.622 151.293C137.622 151.293 132.364 159.736 124.21 151.601C124.21 151.601 121.245 148.219 119.487 141.903C117.729 135.587 112.685 122.452 112.685 122.452L112.685 122.45Z" fill="#76A321"/>
<path d="M193.472 132.273L184.512 152.843L185.515 153.294L194.671 132.782L193.557 132.109L193.472 132.273Z" fill="black"/>
<path d="M192.249 131.505L183.491 151.55L182.452 150.945L191.337 131.03L192.249 131.505Z" fill="black"/>
<path d="M165.728 121.889C166.229 122.804 180.065 151.889 180.065 151.889L177.053 154.032L153.042 110.365L158.288 106.136L165.728 121.889Z" fill="#81B928"/>
<path d="M160.636 111.202L165.328 121.237C165.328 121.237 168.795 121.069 173.424 119.196C178.052 117.322 177.575 111.914 177.118 108.698C176.661 105.482 176.245 104.879 176.245 104.879L159.779 109.352L160.636 111.202Z" fill="#202321"/>
<path d="M160.876 109.955L161.765 111.521L175.534 108.17C175.534 108.17 176.517 107.415 175.759 105.76L160.876 109.955Z" fill="black"/>
<path d="M184.826 191.36C168.391 192.749 153.963 178.933 152.664 160.561C151.365 142.188 163.68 126.112 180.115 124.723C196.55 123.334 210.978 137.15 212.277 155.523C213.576 173.896 201.261 189.971 184.826 191.36ZM180.532 130.617C167.061 131.756 156.971 144.984 158.04 160.106C159.11 175.229 170.939 186.604 184.409 185.466C197.88 184.328 207.97 171.1 206.901 155.977C205.832 140.855 194.002 129.479 180.532 130.617Z" fill="black"/>
<path d="M163.533 175.015L177.354 161.732L176.602 160.875L162.626 174.014L163.394 175.127L163.533 175.015Z" fill="black"/>
<path d="M163.841 176.501L178.961 161.867L179.761 163.026L164.567 177.462L163.841 176.501Z" fill="black"/>
<path d="M165.495 136.464L177.881 154.785L178.713 154.024L166.467 135.541L165.404 136.304L165.495 136.464Z" fill="black"/>
<path d="M164.305 137.287L176.363 155.166L175.388 155.89L163.495 137.949L164.305 137.287Z" fill="black"/>
<path d="M207.582 156.818L185.917 158.086L186.039 159.266L207.75 158.214L207.754 156.821L207.582 156.818Z" fill="black"/>
<path d="M207.608 155.275L185.634 156.624L185.618 155.334L207.549 154.168L207.608 155.275Z" fill="black"/>
<path d="M192.15 184.857L183.454 162.413L182.412 163.036L190.926 185.621L192.216 185.051L192.15 184.857Z" fill="black"/>
<path d="M193.719 183.55L184.393 161.392L185.604 160.836L194.738 183.019L193.719 183.55Z" fill="black"/>
<path d="M175.553 159.043L152.199 151.136L152.865 148.208L175.84 156.16L175.553 159.043Z" fill="black"/>
<path d="M152.35 153.28C152.35 153.28 151.888 147.254 155.855 140.619C159.823 133.984 162.15 129.883 171.249 125.924C180.349 121.966 188.652 125.25 188.652 125.25L191.716 124.354C191.716 124.354 187.946 122.44 183.074 122.454C178.202 122.468 166.548 123.213 159.28 132.516C152.013 141.818 151.719 145.911 151.358 146.977C150.997 148.043 150.099 153.86 150.099 153.86L149.693 156.342" fill="black"/>
<path d="M181.62 163.418C184.908 163.14 187.375 160.094 187.129 156.614C186.883 153.135 184.017 150.539 180.729 150.817C177.441 151.095 174.975 154.141 175.221 157.621C175.467 161.1 178.332 163.696 181.62 163.418Z" fill="black"/>
<path d="M63.2379 124.212L63.5824 129.085C63.5824 129.085 72.9391 129.012 77.8753 133.019C82.8115 137.025 86.101 142.437 86.7669 151.281L109.571 148.835L112.984 148.458C112.984 148.458 109.565 128.564 92.0252 121.133C92.0252 121.133 85.8435 118.606 77.4249 120.118C70.8391 121.301 63.1685 123.258 63.1685 123.258L63.2358 124.21L63.2379 124.212Z" fill="black"/>
<path d="M115.228 165.561C114.77 165.6 114.301 165.58 113.835 165.499L85.8657 160.637C83.435 160.216 81.7498 158.262 81.8561 155.995L81.8729 155.632C81.9878 153.214 84.1475 151.306 86.7922 151.286C86.9601 151.284 87.1267 151.291 87.2919 151.305L115.226 153.673C117.768 153.888 119.694 155.813 119.709 158.15L119.727 161.005C119.735 162.207 119.24 163.339 118.332 164.195C117.494 164.984 116.392 165.458 115.226 165.557L115.228 165.561ZM86.5123 153.201C84.9437 153.333 83.6666 154.421 83.6047 155.731L83.5879 156.095C83.528 157.351 84.6231 158.498 86.1367 158.761L114.106 163.623C115.26 163.824 116.419 163.499 117.205 162.76C117.719 162.274 118.002 161.657 117.998 161.024L117.98 158.169C117.971 156.85 116.705 155.71 115.096 155.573L87.1616 153.205C87.045 153.196 86.925 153.191 86.8052 153.191C86.7067 153.19 86.6086 153.197 86.5126 153.205L86.5123 153.201Z" fill="black"/>
<path d="M86.1287 154.085L111.224 156.27L110.315 161.926L84.6058 158.28L86.1287 154.085Z" fill="#81B928"/>
<path d="M86.1651 188.585C69.7298 189.974 55.3022 176.158 54.0032 157.785C52.7043 139.413 65.0185 123.337 81.4538 121.948C97.889 120.559 112.317 134.375 113.616 152.747C114.915 171.12 102.6 187.196 86.1651 188.585ZM81.8705 127.842C68.3997 128.98 58.3101 142.208 59.3793 157.331C60.4484 172.453 72.2776 183.829 85.7484 182.691C99.2191 181.552 109.309 168.324 108.24 153.202C107.17 138.079 95.3413 126.704 81.8705 127.842Z" fill="black"/>
<path d="M65.8684 173.904L79.1692 157.166L78.2244 156.37L64.7332 172.983L65.7318 174.048L65.8684 173.904Z" fill="black"/>
<path d="M66.9558 175.105L80.3022 158.794L81.6136 158.765L67.796 175.898L66.9558 175.105Z" fill="black"/>
<path d="M70.978 130.315L80.9958 150.301L81.913 149.669L72.0555 129.546L70.9061 130.145L70.978 130.315Z" fill="black"/>
<path d="M69.6964 130.956L79.4439 150.453L78.3893 151.027L68.813 131.492L69.6964 130.956Z" fill="black"/>
<path d="M97.074 177.217L85.5515 159.032L84.7124 159.785L96.5874 178.886L97.6564 178.133L97.074 177.217Z" fill="black"/>
<path d="M99.07 177.038L86.1684 157.897L87.1474 157.183L99.7453 176.318L99.07 177.038Z" fill="black"/>
<path d="M76.894 156.265L53.5376 148.356L54.2038 145.431L77.1808 153.382L76.894 156.265Z" fill="black"/>
<path d="M53.6894 150.504C53.6894 150.504 53.2266 144.478 57.1941 137.843C61.1616 131.208 63.4888 127.106 72.5882 123.148C81.6876 119.19 89.9914 122.474 89.9914 122.474L93.0551 121.577C93.0551 121.577 89.2848 119.664 84.4127 119.678C79.5405 119.691 67.9433 120.066 60.6743 129.369C53.4052 138.672 53.1476 142.842 52.6992 144.203C52.346 145.273 51.4398 151.086 51.4398 151.086L51.0339 153.568" fill="black"/>
<path d="M82.9591 160.641C86.2474 160.363 88.7136 157.317 88.4676 153.837C88.2216 150.357 85.3565 147.762 82.0682 148.04C78.7799 148.318 76.3137 151.364 76.5597 154.843C76.8057 158.323 79.6708 160.918 82.9591 160.641Z" fill="black"/>
<path d="M118.023 170.112C123.083 169.684 126.878 164.996 126.499 159.64C126.121 154.284 121.711 150.288 116.651 150.716C111.591 151.144 107.796 155.832 108.175 161.188C108.553 166.544 112.962 170.539 118.023 170.112Z" fill="black"/>
<path d="M106.397 129.653L103.638 119.946C103.638 119.946 105.049 119.274 106.459 119.159C107.868 119.044 110.946 118.805 111.477 118.803C112.008 118.8 113.056 118.637 113.478 119.381C113.899 120.125 115.821 125.231 115.821 125.231L106.395 129.655L106.397 129.653Z" fill="black"/>
<path d="M115.89 125.198C115.89 125.198 113.915 119.252 112.943 118.895C111.972 118.539 105.661 119.271 105.661 119.271C105.661 119.271 111.525 119.487 112.791 122.203L114.215 125.983L115.888 125.198L115.89 125.198Z" fill="#0F1611"/>
<path d="M104.908 119.491L102.008 110.738L104.729 110.508L107.4 119.28L104.908 119.491Z" fill="#0F1611"/>
<path d="M92.0934 105.572C92.0934 105.572 94.1239 111.179 94.4023 111.319C94.6806 111.458 114.957 109.569 114.957 109.569C114.957 109.569 117.333 107.196 113.94 106.71C110.546 106.223 92.1806 104.756 92.1806 104.756L91.7583 104.711L92.0933 105.57L92.0934 105.572Z" fill="#0F1611"/>
<path d="M120.79 168.514C120.79 168.514 122.788 178.506 123.03 179.741C123.272 180.976 120.917 189.112 120.917 189.112C120.917 189.112 121.569 189.112 123.03 189.112C123.523 188.756 125.152 179.741 125.152 179.741L123.17 166.558L120.791 168.514L120.79 168.514Z" fill="#0F1611"/>
<path d="M118.734 173.424L110.674 174.105C110.367 174.131 110.138 174.425 110.162 174.761L110.307 176.817C110.331 177.153 110.599 177.405 110.905 177.379L118.965 176.698C119.272 176.672 119.501 176.378 119.477 176.042L119.332 173.986C119.308 173.65 119.04 173.398 118.734 173.424Z" fill="#0F1611"/>
<path d="M116.995 170.412L114.537 173.779L117.217 173.553L119.403 170.209L116.995 170.412Z" fill="#0F1611"/>
<path d="M153.042 110.363L149.352 101.588C149.352 101.588 149.583 96.6258 151.184 94.5762C152.785 92.5266 152.216 93.2142 151.419 92.4832C150.931 92.0374 149.959 91.1835 149.278 90.5889C148.784 90.1563 148.379 89.6167 148.09 88.9995L147.846 88.48C147.846 88.48 147.413 87.4812 145.623 87.8717C143.833 88.2623 141.381 88.8465 141.381 88.8465C141.381 88.8465 142.815 86.0719 141.269 85.9294C139.323 85.7487 147.896 82.9786 147.896 82.9786L151.408 85.333C151.408 85.333 151.457 83.6538 152.377 83.5761C153.296 83.4984 156.121 84.8733 158.31 85.7661C160.5 86.6589 161.53 87.347 161.126 88.5775C160.723 89.8081 158.211 89.0039 157.994 89.0222C157.777 89.0405 156.923 90.0699 156.923 90.0699C156.923 90.0699 155.12 94.646 155.488 96.7684C155.856 98.8909 158.305 106.157 158.305 106.157L153.046 110.367L153.042 110.363Z" fill="#202321"/>
<path d="M140.884 88.9864C141.704 88.9171 142.317 88.1324 142.253 87.2338C142.19 86.3351 141.474 85.6627 140.654 85.732C139.835 85.8013 139.222 86.5859 139.285 87.4846C139.349 88.3833 140.065 89.0556 140.884 88.9864Z" fill="#202321"/>
<path d="M115.465 133.533C115.212 133.639 115.083 133.951 115.18 134.229C115.277 134.506 115.963 134.973 115.963 134.973C115.963 134.973 116.197 134.126 116.1 133.848C116.003 133.57 115.72 133.427 115.465 133.533ZM115.703 134.22C115.611 134.258 115.509 134.207 115.475 134.106C115.441 134.005 115.487 133.893 115.579 133.856C115.671 133.819 115.773 133.869 115.807 133.97C115.841 134.071 115.795 134.183 115.703 134.22Z" fill="white"/>
<path d="M114.182 139.776L113.618 138.14C113.599 138.11 113.585 138.075 113.56 138.049C113.53 138.02 113.492 138 113.453 137.991C113.41 137.982 113.365 137.979 113.321 137.981C113.308 137.982 113.294 137.983 113.281 137.984C113.269 137.985 113.258 137.99 113.248 137.993C113.248 137.993 113.248 137.993 113.247 137.993C113.237 137.998 113.226 138.001 113.215 138.004L112.194 138.427L112.463 139.209L113.083 138.954L113.141 139.124C113.082 139.223 113.009 139.305 112.923 139.374C112.837 139.44 112.744 139.49 112.646 139.522C112.546 139.554 112.444 139.567 112.338 139.561C112.231 139.553 112.126 139.526 112.026 139.475C111.914 139.419 111.818 139.342 111.736 139.247C111.654 139.151 111.594 139.043 111.553 138.926C111.512 138.809 111.493 138.686 111.496 138.554C111.498 138.423 111.526 138.295 111.575 138.173C111.626 138.05 111.694 137.944 111.782 137.856C111.871 137.769 111.969 137.703 112.076 137.658C112.182 137.613 112.295 137.593 112.415 137.593C112.535 137.596 112.649 137.624 112.763 137.68L113.076 136.917C112.868 136.814 112.653 136.76 112.433 136.755C112.214 136.751 112.005 136.792 111.806 136.872C111.607 136.952 111.426 137.078 111.264 137.24C111.101 137.402 110.974 137.597 110.88 137.827C110.786 138.055 110.737 138.29 110.735 138.532C110.733 138.771 110.768 139.001 110.846 139.221C110.923 139.441 111.031 139.637 111.177 139.816C111.323 139.994 111.501 140.133 111.709 140.236C111.917 140.34 112.132 140.393 112.352 140.398C112.571 140.403 112.78 140.362 112.98 140.282C113.06 140.247 113.14 140.207 113.218 140.16C113.296 140.111 113.369 140.056 113.436 139.993L113.465 140.075L114.18 139.78L114.182 139.776Z" fill="white"/>
<path d="M114.679 135.688C114.891 135.6 115.108 135.561 115.326 135.574C115.545 135.585 115.749 135.64 115.942 135.734C116.134 135.828 116.307 135.961 116.459 136.135C116.612 136.308 116.728 136.51 116.809 136.745C116.889 136.979 116.925 137.215 116.915 137.456C116.905 137.696 116.855 137.92 116.768 138.131C116.68 138.342 116.558 138.53 116.4 138.698C116.244 138.865 116.058 138.993 115.846 139.081C115.634 139.169 115.417 139.209 115.199 139.195C114.98 139.184 114.776 139.129 114.585 139.035C114.393 138.939 114.221 138.806 114.07 138.634C113.917 138.461 113.802 138.259 113.72 138.024C113.638 137.79 113.604 137.553 113.614 137.313C113.624 137.073 113.672 136.849 113.757 136.638C113.843 136.428 113.965 136.24 114.121 136.074C114.277 135.906 114.463 135.778 114.675 135.69L114.679 135.688ZM115.582 138.299C115.697 138.251 115.796 138.183 115.882 138.093C115.967 138.004 116.033 137.903 116.079 137.787C116.127 137.673 116.153 137.55 116.158 137.422C116.162 137.293 116.143 137.165 116.1 137.04C116.056 136.914 115.994 136.803 115.912 136.71C115.83 136.618 115.738 136.545 115.632 136.493C115.528 136.44 115.416 136.411 115.3 136.406C115.181 136.401 115.065 136.422 114.951 136.47C114.836 136.517 114.737 136.585 114.652 136.675C114.568 136.765 114.501 136.866 114.456 136.982C114.408 137.096 114.382 137.219 114.377 137.346C114.373 137.476 114.391 137.603 114.435 137.729C114.479 137.854 114.541 137.965 114.623 138.058C114.704 138.151 114.796 138.223 114.903 138.276C115.007 138.328 115.119 138.357 115.235 138.362C115.353 138.369 115.47 138.346 115.584 138.299L115.582 138.299Z" fill="white"/>
<path d="M113.426 141.394C113.38 141.387 113.347 141.38 113.327 141.369C113.295 141.352 113.274 141.327 113.262 141.292C113.249 141.257 113.251 141.221 113.264 141.186C113.278 141.151 113.302 141.128 113.333 141.113C113.365 141.098 113.398 141.099 113.426 141.116C113.454 141.13 113.475 141.152 113.484 141.18L113.452 141.217C113.439 141.19 113.424 141.173 113.406 141.164C113.388 141.155 113.371 141.154 113.351 141.164C113.33 141.174 113.316 141.188 113.307 141.208C113.299 141.23 113.297 141.251 113.306 141.273C113.316 141.296 113.328 141.312 113.348 141.32C113.36 141.326 113.382 141.332 113.415 141.34C113.465 141.348 113.505 141.358 113.529 141.37C113.568 141.39 113.594 141.422 113.61 141.465C113.627 141.508 113.624 141.552 113.608 141.596C113.59 141.639 113.561 141.669 113.522 141.685C113.483 141.701 113.442 141.7 113.402 141.68C113.363 141.661 113.338 141.633 113.325 141.594L113.365 141.563C113.377 141.596 113.396 141.618 113.422 141.632C113.45 141.645 113.477 141.647 113.505 141.636C113.533 141.625 113.553 141.604 113.564 141.574C113.577 141.543 113.577 141.514 113.567 141.483C113.557 141.452 113.539 141.431 113.511 141.418C113.497 141.411 113.469 141.403 113.428 141.394L113.426 141.394Z" fill="white"/>
<path d="M113.487 140.683L113.532 140.664L113.658 141.032C113.683 140.975 113.721 140.938 113.775 140.914C113.833 140.89 113.887 140.89 113.937 140.915C113.987 140.94 114.023 140.982 114.045 141.043L114.169 141.405L114.124 141.424L114 141.066C113.983 141.021 113.956 140.987 113.914 140.968C113.872 140.948 113.832 140.947 113.79 140.963C113.749 140.98 113.719 141.012 113.7 141.056C113.692 141.075 113.688 141.095 113.685 141.114L113.833 141.543L113.788 141.562L113.485 140.683L113.487 140.683Z" fill="white"/>
<path d="M114.848 141.122L114.803 141.14L114.764 141.032C114.76 141.049 114.755 141.064 114.749 141.079C114.716 141.16 114.66 141.218 114.586 141.247C114.511 141.277 114.436 141.277 114.362 141.239C114.288 141.203 114.238 141.142 114.209 141.06C114.18 140.978 114.182 140.896 114.216 140.813C114.249 140.732 114.305 140.676 114.38 140.645C114.454 140.613 114.529 140.615 114.603 140.653C114.617 140.661 114.631 140.67 114.643 140.677L114.617 140.602L114.662 140.583L114.848 141.122ZM114.721 140.903L114.687 140.804C114.663 140.76 114.627 140.725 114.582 140.704C114.52 140.673 114.458 140.672 114.397 140.696C114.335 140.72 114.288 140.768 114.262 140.836C114.234 140.904 114.233 140.971 114.257 141.039C114.281 141.106 114.323 141.158 114.385 141.186C114.447 141.217 114.508 141.218 114.57 141.192C114.632 141.165 114.678 141.119 114.704 141.052C114.726 141.001 114.732 140.95 114.722 140.898L114.721 140.903Z" fill="white"/>
<path d="M114.816 140.521L114.861 140.502L114.895 140.601C114.899 140.581 114.906 140.564 114.912 140.544C114.937 140.485 114.968 140.445 115.009 140.426L115.028 140.48C115 140.492 114.978 140.522 114.958 140.568C114.931 140.631 114.928 140.697 114.948 140.762L115.045 141.041L115 141.06L114.814 140.521L114.816 140.521Z" fill="white"/>
<path d="M115.128 140.19C115.14 140.195 115.149 140.205 115.154 140.219C115.159 140.234 115.158 140.247 115.153 140.26C115.148 140.273 115.139 140.282 115.126 140.287C115.113 140.293 115.101 140.292 115.089 140.286C115.077 140.281 115.069 140.271 115.064 140.257C115.059 140.242 115.06 140.229 115.065 140.216C115.07 140.203 115.079 140.194 115.092 140.189C115.105 140.183 115.117 140.185 115.128 140.19ZM115.18 140.372L115.367 140.912L115.322 140.93L115.135 140.39L115.18 140.372Z" fill="white"/>
<path d="M115.425 140.405L115.57 140.823L115.526 140.842L115.339 140.303L115.384 140.284L115.396 140.319C115.423 140.258 115.462 140.217 115.516 140.193C115.574 140.169 115.628 140.169 115.678 140.194C115.728 140.22 115.763 140.261 115.785 140.322L115.908 140.683L115.864 140.701L115.74 140.345C115.724 140.3 115.696 140.267 115.655 140.247C115.613 140.227 115.572 140.226 115.531 140.243C115.49 140.259 115.46 140.291 115.442 140.334C115.432 140.358 115.426 140.382 115.425 140.405Z" fill="white"/>
<path d="M116.51 140.314C116.505 140.33 116.5 140.345 116.494 140.36C116.461 140.441 116.405 140.499 116.33 140.528C116.255 140.558 116.18 140.558 116.106 140.52C116.032 140.484 115.981 140.422 115.952 140.34C115.923 140.258 115.925 140.176 115.96 140.094C115.993 140.013 116.049 139.958 116.124 139.926C116.198 139.895 116.274 139.897 116.348 139.933C116.362 139.94 116.376 139.949 116.388 139.957L116.361 139.881L116.406 139.862L116.552 140.281C116.579 140.361 116.577 140.442 116.545 140.521C116.513 140.602 116.457 140.657 116.382 140.689C116.307 140.72 116.232 140.718 116.158 140.68C116.142 140.673 116.128 140.664 116.115 140.654L116.157 140.617C116.157 140.617 116.171 140.626 116.179 140.63C116.241 140.661 116.303 140.662 116.365 140.637C116.427 140.613 116.471 140.565 116.5 140.499C116.524 140.438 116.529 140.376 116.512 140.314L116.51 140.314ZM116.432 140.084C116.407 140.04 116.372 140.007 116.326 139.985C116.264 139.955 116.203 139.953 116.141 139.978C116.079 140.002 116.032 140.05 116.006 140.118C115.978 140.186 115.977 140.254 116.001 140.321C116.025 140.389 116.067 140.441 116.129 140.469C116.191 140.5 116.253 140.501 116.315 140.477C116.377 140.452 116.423 140.404 116.45 140.336C116.469 140.288 116.475 140.237 116.47 140.187L116.433 140.082L116.432 140.084Z" fill="white"/>
<path d="M128.558 150.865C129.525 149.108 140.849 118.128 140.849 118.128C140.849 118.128 141.969 115.721 142.016 115.617C142.063 115.514 142.907 114.864 144.473 115.41C146.04 115.955 151.265 117.908 151.265 117.908L146.629 125.333C146.629 125.333 144.687 125.616 143.433 125.364C142.179 125.112 141.184 126.989 140.143 129.748C139.102 132.506 131.695 152.186 131.695 152.186" fill="black"/>
<ellipse opacity="0.5" cx="121.569" cy="189.112" rx="11.7267" ry="1.42453" fill="url(#paint0_radial_21707_140754)"/>
</g>
<path d="M141.803 84.7301C141.803 84.7301 142.021 84.6217 142.17 84.6366C142.318 84.6516 142.476 84.9283 142.315 85.075C142.153 85.2218 141.294 85.4938 141.294 85.4938C141.294 85.4938 140.775 85.9957 140.684 86.0191C140.649 86.0808 140.484 86.6511 140.436 86.8745C140.389 87.0979 139.496 88.5403 139.427 88.6636C139.357 88.787 138.661 90.0209 138.434 89.8676C138.206 89.7143 137.279 88.5776 137.671 88.1606C138.063 87.7437 140.188 85.089 140.681 84.9105C141.266 84.7086 141.803 84.7301 141.803 84.7301Z" fill="#D8A988"/>
<path d="M106.559 75.001C105.45 77.6605 114.912 97.7682 120.124 101.88C120.181 101.918 120.26 102.056 120.374 102.133C120.772 102.401 121.296 102.585 121.719 102.529C124.54 102.814 135.14 92.9277 138.561 89.7841L137.707 88.1005C135.386 89.4316 125.785 96.158 124.289 94.638C124.289 94.638 122.907 95.492 122.897 95.2303C119.879 83.059 109.731 79.4607 108.388 76L106.559 75.001Z" fill="#D8A988"/>
<path d="M93.2236 186.128C93.6243 187.433 92.823 192.145 92.823 193.739C93.7579 195.117 96.0283 194.029 96.2954 192.579C96.2954 192.434 96.4289 192.362 96.4289 192.072C96.1618 191.13 96.696 187.723 97.4305 185.838L93.2236 186.128Z" fill="#F9AC91"/>
<path d="M107.313 188.232C107.647 189.537 106.645 192.726 106.445 194.249C107.313 195.698 109.65 194.683 109.918 193.234C109.984 193.089 110.051 193.016 110.118 192.726C109.784 191.711 110.518 188.957 111.453 187.145L107.313 188.232Z" fill="#F9AC91"/>
<path d="M107.18 114.291H115.794C120.134 128.354 121.403 144.374 118.799 160.25C118.598 161.482 118.331 162.714 117.931 163.802L115.059 188.376C112.856 189.39 106.445 188.666 104.241 188.086C107.113 179.024 108.782 170.906 109.517 162.062C109.784 160.684 109.784 157.785 109.784 157.785C110.652 144.157 107.781 117.698 107.18 114.291Z" fill="#131851"/>
<path d="M100.169 188.087C97.2306 189.029 93.1571 187.507 90.9535 186.492L96.5628 159.091C96.6295 158.584 96.6295 158.004 96.6295 157.496L94.6262 124.658C94.5594 123.933 94.6262 123.064 94.693 122.266C95.0269 119.367 95.7614 115.235 96.7631 113.857H108.048C111.254 130.168 110.719 144.013 109.451 151.915C109.317 152.567 108.783 160.178 107.982 162.426L100.169 188.087Z" fill="#131851"/>
<path d="M115.794 114.438L96.6961 114.728L96.5626 113.785L115.661 113.713L115.794 114.438Z" fill="#0E0E38"/>
<path d="M101.372 59.9258L107.983 60.5782C106.113 63.8402 104.644 66.7398 106.781 68.987L100.504 68.4071C102.641 66.8848 102.374 62.9704 101.372 59.9258Z" fill="#EDBD98"/>
<path d="M107.982 46.5137C107.982 46.5137 110.519 49.8482 109.918 52.2404C109.851 52.6028 109.785 52.8928 109.718 53.1827C109.451 54.56 109.451 54.4875 110.786 55.14C111.454 55.5024 110.853 56.2273 110.519 56.5173C110.319 56.6622 110.185 56.9522 110.252 57.1697C110.252 57.4596 110.319 57.7496 110.319 57.7496C110.319 57.8221 110.586 58.6919 109.851 58.6919C106.179 58.7644 109.25 58.6919 110.052 58.9819C110.052 58.9819 110.386 59.1994 110.319 59.3443C110.252 59.5618 109.985 59.7793 109.918 60.0692C109.851 60.3592 109.785 61.3016 109.651 61.664C109.517 62.0265 107.314 62.7514 106.045 62.3164C105.043 62.099 103.708 61.7365 103.174 61.664C102.973 61.664 102.706 61.1566 102.573 61.0116C102.306 60.7942 101.571 60.5767 101.037 60.1417C99.9016 59.4168 100.903 58.9819 100.97 58.4745C101.037 58.0395 101.17 57.0972 101.037 56.8072C100.903 56.5897 99.9683 55.3574 99.768 54.85C99.5009 53.9801 99.9684 52.6753 100.302 52.1679C100.636 51.6604 101.437 51.443 101.905 51.8779C102.306 52.1679 102.773 52.1679 102.973 51.8054C103.174 51.3705 105.644 48.036 106.112 47.6735C106.312 47.456 107.982 46.5137 107.982 46.5137Z" fill="#EDBD98"/>
<path d="M110.253 48.4704C110.12 48.8329 109.986 49.1228 109.786 49.4853C109.519 49.9927 108.985 50.4276 108.517 50.6451C106.914 51.37 105.445 52.0949 103.976 51.9499C103.375 51.8775 102.774 52.2399 102.574 52.9648C102.374 53.5447 102.04 53.9797 101.639 54.4146C101.038 55.067 100.771 56.1543 101.172 57.1692C101.572 58.474 101.172 59.1989 100.704 60.3588C100.437 60.7212 100.103 60.7937 99.569 60.5762C97.3653 59.3439 96.0966 56.8792 95.5624 53.9072C94.761 51.225 95.1617 50.5001 95.6291 49.2678C95.7627 48.9054 96.0298 48.6154 96.2301 48.253C97.2986 47.0206 98.1667 45.4984 99.1683 44.7735C100.036 44.1935 100.838 43.6861 101.906 43.3237C103.509 42.7437 105.245 42.9612 106.647 43.8311C108.183 44.8459 109.585 46.2233 110.12 47.3106C110.387 47.6731 110.387 48.108 110.253 48.4704Z" fill="#42210B"/>
<path d="M92.6888 190.914C94.0911 191.566 95.4935 191.566 96.8958 190.696C96.9626 190.624 97.0293 190.696 97.0961 190.769C97.8974 192.363 98.6988 194.393 100.034 195.625C101.37 196.64 103.039 197.365 104.842 197.873C105.043 197.945 105.31 198.017 105.51 198.017C106.445 198.017 107.113 198.163 107.714 198.452C107.78 198.525 107.914 198.525 107.981 198.597C108.381 198.815 108.515 199.25 108.582 199.83C108.582 200.192 108.448 200.482 108.181 200.7C106.712 201.642 104.842 202.077 102.505 202.004L98.2313 201.425L91.5537 200.845L90.7523 200.555C90.6187 200.482 90.552 200.41 90.552 200.192C90.552 198.96 90.7523 197.728 91.153 196.423C91.2866 196.06 91.5536 195.48 91.6872 195.118C92.2214 194.031 92.3549 192.581 92.3549 190.986C92.5553 190.914 92.6221 190.841 92.6888 190.914Z" fill="#F7931E"/>
<path d="M90.7535 198.666C90.62 198.666 90.4865 200.044 90.62 200.333C90.7536 200.696 92.0224 200.841 92.2227 200.913C93.2911 201.058 94.4263 201.131 95.5615 201.203L99.3678 201.638C100.436 201.783 101.705 202.001 102.974 202.001C104.042 202.001 104.977 201.928 105.979 201.638C106.78 201.493 107.515 201.131 108.316 200.551C108.383 200.478 108.45 200.406 108.516 200.333C108.717 199.899 108.65 199.029 108.049 198.594C107.181 199.029 105.979 199.464 104.576 199.681C103.508 199.899 102.306 199.899 101.104 199.899C99.1007 199.826 97.0974 199.681 95.4279 199.391C93.6917 199.246 92.0223 199.029 90.7535 198.666Z" fill="#CE751D"/>
<path d="M105.31 198.017C105.177 198.67 105.244 199.25 105.511 199.612C106.512 199.467 107.314 199.177 108.048 198.67C107.314 198.162 106.379 197.945 105.31 198.017Z" fill="#F15A24"/>
<path d="M96.7621 192.58C96.9465 192.58 97.096 192.418 97.096 192.218C97.096 192.018 96.9465 191.855 96.7621 191.855C96.5777 191.855 96.4282 192.018 96.4282 192.218C96.4282 192.418 96.5777 192.58 96.7621 192.58Z" fill="#D8CDC3"/>
<path d="M97.2959 193.955C97.4803 193.955 97.6298 193.793 97.6298 193.593C97.6298 193.393 97.4803 193.23 97.2959 193.23C97.1115 193.23 96.962 193.393 96.962 193.593C96.962 193.793 97.1115 193.955 97.2959 193.955Z" fill="#D8CDC3"/>
<path d="M97.8966 195.116C98.081 195.116 98.2305 194.953 98.2305 194.753C98.2305 194.553 98.081 194.391 97.8966 194.391C97.7122 194.391 97.5627 194.553 97.5627 194.753C97.5627 194.953 97.7122 195.116 97.8966 195.116Z" fill="#D8CDC3"/>
<path d="M98.766 196.352C98.9504 196.352 99.0999 196.19 99.0999 195.989C99.0999 195.789 98.9504 195.627 98.766 195.627C98.5816 195.627 98.4321 195.789 98.4321 195.989C98.4321 196.19 98.5816 196.352 98.766 196.352Z" fill="#D8CDC3"/>
<path d="M99.901 197.147C100.085 197.147 100.235 196.984 100.235 196.784C100.235 196.584 100.085 196.422 99.901 196.422C99.7166 196.422 99.5671 196.584 99.5671 196.784C99.5671 196.984 99.7166 197.147 99.901 197.147Z" fill="#D8CDC3"/>
<path d="M101.102 197.799C101.287 197.799 101.436 197.637 101.436 197.437C101.436 197.236 101.287 197.074 101.102 197.074C100.918 197.074 100.769 197.236 100.769 197.437C100.769 197.637 100.918 197.799 101.102 197.799Z" fill="#D8CDC3"/>
<path d="M102.478 198.123C102.591 198.021 102.606 197.838 102.511 197.715C102.416 197.593 102.248 197.576 102.135 197.679C102.022 197.782 102.007 197.965 102.102 198.087C102.197 198.21 102.365 198.226 102.478 198.123Z" fill="#D8CDC3"/>
<path d="M103.856 198.534C103.929 198.395 103.883 198.218 103.755 198.14C103.627 198.061 103.464 198.11 103.392 198.25C103.319 198.389 103.364 198.566 103.493 198.644C103.621 198.723 103.784 198.674 103.856 198.534Z" fill="#D8CDC3"/>
<path d="M97.4304 193.158C97.6975 193.086 98.0314 193.013 98.2986 193.231C98.3653 193.376 98.4989 193.593 98.5657 193.738C98.2986 193.593 97.7644 193.593 97.564 193.666C97.6976 193.521 97.6308 193.303 97.4304 193.158Z" fill="#686461"/>
<path d="M98.0333 194.392C98.2337 194.247 98.7011 194.175 99.035 194.247C99.1018 194.392 99.2353 194.465 99.3021 194.61C98.9682 194.537 98.5008 194.682 98.3004 194.755C98.3004 194.61 98.2337 194.465 98.0333 194.392Z" fill="#686461"/>
<path d="M98.8358 195.626C99.0361 195.481 99.4367 195.336 99.7706 195.336C99.9042 195.481 99.971 195.553 100.105 195.698C99.7706 195.698 99.2364 195.916 99.1029 196.061C99.1029 195.843 99.0361 195.626 98.8358 195.626Z" fill="#686461"/>
<path d="M99.9006 196.425C100.034 196.207 100.368 196.062 100.702 196.062C100.835 196.135 100.969 196.207 101.103 196.28C100.769 196.352 100.301 196.642 100.168 196.787C100.168 196.715 100.168 196.497 99.9006 196.425Z" fill="#686461"/>
<path d="M101.036 197.076C101.236 196.858 101.436 196.713 101.637 196.641C101.77 196.713 101.837 196.786 102.037 196.858C101.77 197.003 101.57 197.293 101.436 197.438C101.37 197.221 101.303 197.076 101.036 197.076Z" fill="#686461"/>
<path d="M102.17 197.656C102.37 197.438 102.571 197.221 102.771 197.148C102.905 197.221 102.971 197.221 103.172 197.293C102.905 197.438 102.638 197.801 102.504 197.873C102.571 197.801 102.437 197.656 102.17 197.656Z" fill="#686461"/>
<path d="M103.372 198.162C103.438 197.8 103.505 197.727 103.572 197.51C103.705 197.51 103.905 197.655 103.905 197.655C103.772 197.945 103.838 198.09 103.771 198.307C103.771 198.162 103.572 198.017 103.372 198.162Z" fill="#686461"/>
<path d="M96.8967 191.853C97.1638 191.781 97.3641 191.708 97.698 191.853C97.8316 191.998 97.8984 192.216 97.8984 192.361C97.5645 192.216 97.3641 192.216 97.097 192.288C97.097 192.071 97.0303 191.926 96.8967 191.853Z" fill="#686461"/>
<path d="M95.4956 191.276C95.4956 191.203 95.4956 191.058 95.4956 190.986C95.5624 190.768 95.6292 190.623 95.8295 190.551C96.0966 190.333 96.3636 190.188 96.7643 189.971C96.8979 190.188 96.9647 190.406 96.9647 190.696C96.6976 190.841 96.4305 190.986 96.1634 191.058C95.963 191.131 95.7627 191.203 95.4956 191.276Z" fill="#F15A24"/>
<path d="M106.577 191.636C107.98 192.289 109.382 192.289 110.784 191.419C110.851 191.346 110.918 191.419 110.985 191.491C111.786 193.086 112.587 195.116 113.923 196.348C115.258 197.363 116.928 198.088 118.731 198.595C118.931 198.668 119.198 198.74 119.399 198.74C120.333 198.74 121.001 198.885 121.602 199.175C121.669 199.248 121.803 199.248 121.869 199.32C122.27 199.538 122.404 199.972 122.47 200.552C122.47 200.915 122.337 201.205 122.07 201.422C120.601 202.365 118.731 202.8 116.394 202.727L112.12 202.147L105.442 201.567L104.641 201.277C104.507 201.205 104.441 201.132 104.441 200.915C104.441 199.683 104.641 198.45 105.042 197.145C105.175 196.783 105.442 196.203 105.576 195.841C106.11 194.753 106.244 193.303 106.244 191.709C106.377 191.636 106.444 191.564 106.577 191.636Z" fill="#F7931E"/>
<path d="M104.642 199.389C104.509 199.389 104.375 200.766 104.509 201.056C104.642 201.419 105.911 201.564 106.111 201.636C107.18 201.781 108.315 201.854 109.45 201.926L113.256 202.361C114.325 202.506 115.594 202.723 116.862 202.723C117.931 202.723 118.866 202.651 119.867 202.361C120.669 202.216 121.403 201.854 122.204 201.274C122.271 201.201 122.338 201.129 122.405 201.056C122.605 200.621 122.538 199.751 121.937 199.316C121.069 199.751 119.867 200.186 118.465 200.404C117.396 200.621 116.195 200.621 114.993 200.621C112.989 200.549 110.986 200.404 109.316 200.114C107.514 200.041 105.911 199.824 104.642 199.389Z" fill="#CE751D"/>
<path d="M119.132 198.742C118.998 199.395 119.065 199.974 119.332 200.337C120.334 200.192 121.135 199.902 121.87 199.395C121.202 198.887 120.267 198.67 119.132 198.742Z" fill="#F15A24"/>
<path d="M110.583 193.303C110.768 193.303 110.917 193.141 110.917 192.941C110.917 192.74 110.768 192.578 110.583 192.578C110.399 192.578 110.249 192.74 110.249 192.941C110.249 193.141 110.399 193.303 110.583 193.303Z" fill="#D8CDC3"/>
<path d="M111.249 194.682C111.434 194.682 111.583 194.52 111.583 194.319C111.583 194.119 111.434 193.957 111.249 193.957C111.065 193.957 110.915 194.119 110.915 194.319C110.915 194.52 111.065 194.682 111.249 194.682Z" fill="#D8CDC3"/>
<path d="M111.785 195.912C111.97 195.912 112.119 195.75 112.119 195.55C112.119 195.35 111.97 195.188 111.785 195.188C111.601 195.188 111.451 195.35 111.451 195.55C111.451 195.75 111.601 195.912 111.785 195.912Z" fill="#D8CDC3"/>
<path d="M112.653 197.074C112.837 197.074 112.987 196.912 112.987 196.712C112.987 196.512 112.837 196.35 112.653 196.35C112.469 196.35 112.319 196.512 112.319 196.712C112.319 196.912 112.469 197.074 112.653 197.074Z" fill="#D8CDC3"/>
<path d="M113.79 197.871C113.974 197.871 114.123 197.709 114.123 197.509C114.123 197.309 113.974 197.146 113.79 197.146C113.605 197.146 113.456 197.309 113.456 197.509C113.456 197.709 113.605 197.871 113.79 197.871Z" fill="#D8CDC3"/>
<path d="M114.926 198.522C115.111 198.522 115.26 198.359 115.26 198.159C115.26 197.959 115.111 197.797 114.926 197.797C114.742 197.797 114.592 197.959 114.592 198.159C114.592 198.359 114.742 198.522 114.926 198.522Z" fill="#D8CDC3"/>
<path d="M116.375 198.903C116.488 198.8 116.502 198.617 116.408 198.495C116.313 198.372 116.145 198.356 116.032 198.458C115.919 198.561 115.904 198.744 115.999 198.867C116.093 198.989 116.262 199.005 116.375 198.903Z" fill="#D8CDC3"/>
<path d="M117.77 199.292C117.842 199.153 117.797 198.976 117.669 198.897C117.541 198.819 117.378 198.868 117.305 199.007C117.233 199.147 117.278 199.323 117.406 199.402C117.535 199.481 117.697 199.431 117.77 199.292Z" fill="#D8CDC3"/>
<path d="M111.319 193.955C111.586 193.883 111.92 193.81 112.187 194.028C112.254 194.173 112.387 194.39 112.454 194.535C112.187 194.39 111.653 194.39 111.452 194.463C111.586 194.173 111.519 194.028 111.319 193.955Z" fill="#686461"/>
<path d="M111.853 195.187C112.053 195.042 112.521 194.97 112.854 195.042C112.921 195.187 113.055 195.26 113.121 195.405C112.788 195.332 112.32 195.477 112.12 195.55C112.12 195.405 112.053 195.26 111.853 195.187Z" fill="#686461"/>
<path d="M112.72 196.276C112.92 196.131 113.321 195.986 113.655 195.986C113.789 196.131 113.855 196.204 113.989 196.349C113.655 196.349 113.121 196.566 112.987 196.711C113.054 196.566 112.92 196.276 112.72 196.276Z" fill="#686461"/>
<path d="M113.79 197.148C113.923 196.93 114.257 196.785 114.591 196.785C114.725 196.858 114.858 196.93 114.992 197.003C114.658 197.075 114.19 197.365 114.057 197.51C114.057 197.365 114.057 197.148 113.79 197.148Z" fill="#686461"/>
<path d="M114.857 197.726C115.057 197.509 115.257 197.364 115.458 197.291C115.591 197.364 115.658 197.436 115.858 197.509C115.591 197.653 115.391 197.943 115.257 198.088C115.257 198.016 115.191 197.726 114.857 197.726Z" fill="#686461"/>
<path d="M116.059 198.378C116.259 198.161 116.459 197.944 116.66 197.871C116.793 197.944 116.86 197.944 117.06 198.016C116.793 198.161 116.526 198.524 116.393 198.596C116.393 198.596 116.259 198.378 116.059 198.378Z" fill="#686461"/>
<path d="M117.262 198.811C117.329 198.448 117.395 198.376 117.462 198.158C117.595 198.158 117.795 198.303 117.795 198.303C117.662 198.593 117.729 198.738 117.662 198.956C117.595 198.883 117.462 198.666 117.262 198.811Z" fill="#686461"/>
<path d="M110.718 192.578C110.985 192.505 111.186 192.433 111.52 192.578C111.653 192.723 111.72 192.94 111.72 193.085C111.386 192.94 111.186 192.94 110.919 193.013C110.986 192.795 110.919 192.65 110.718 192.578Z" fill="#686461"/>
<path d="M109.384 191.998C109.384 191.926 109.384 191.781 109.384 191.708C109.451 191.491 109.518 191.346 109.718 191.273C109.985 191.056 110.252 190.911 110.653 190.693C110.786 190.911 110.853 191.128 110.853 191.418C110.586 191.563 110.319 191.708 110.052 191.781C109.852 191.926 109.651 191.998 109.384 191.998Z" fill="#F15A24"/>
<path d="M108.717 83.9187C109.051 86.8183 120.403 102.259 126.813 102.766C126.88 102.766 127.014 102.838 127.147 102.838C127.615 102.838 128.149 102.694 128.483 102.404C130.753 100.881 140.903 92.6175 144.042 88.6305L142.706 86.0209C137.898 87.8331 127.08 95.1546 127.08 95.1546C127.08 95.1546 126.546 95.2996 126.479 95.0821C122.606 88.2681 117.064 84.4986 111.455 81.1641L108.717 83.9187Z" fill="#EDBD98"/>
<path d="M143.642 85.5129C144.11 85.2229 144.177 84.788 144.444 84.2806C144.644 83.7732 145.178 83.3382 145.312 83.1932C145.512 82.9033 146.18 81.8884 146.714 81.671C146.914 81.5985 147.048 81.7434 147.048 81.8884L146.714 82.4684L148.317 81.236C148.517 81.091 149.719 79.8587 149.986 80.2937C150.12 80.5836 149.519 81.236 149.385 81.4535C149.051 81.9609 149.118 81.9609 149.118 81.9609C149.118 81.9609 149.452 82.1784 149.318 82.5408C149.118 82.9033 148.851 83.3382 148.851 83.3382C148.851 83.3382 149.318 83.4832 149.051 84.2081C149.051 84.2081 149.185 84.5705 149.118 85.078C149.051 85.3679 148.851 85.7304 148.651 85.9479C148.384 86.2378 148.05 86.5278 147.716 86.6727C146.247 87.1802 144.517 88.5 143.603 89L142.173 86.3103L143.642 85.5129Z" fill="#EDBD98"/>
<path d="M146.777 82.398C146.777 82.4704 146.51 82.7604 146.243 83.1953C145.976 83.6303 145.642 83.9202 145.642 83.9202C145.642 83.8478 145.909 83.5578 146.176 83.1229C146.51 82.6879 146.71 82.3255 146.777 82.398Z" fill="#C99877"/>
<path d="M148.978 81.9648C148.978 81.9648 148.644 82.3998 148.176 82.9072C147.709 83.4146 147.308 83.7771 147.308 83.7771C147.308 83.7771 147.642 83.3422 148.109 82.8347C148.644 82.3273 148.978 81.9648 148.978 81.9648Z" fill="#C99877"/>
<path d="M148.982 84.1348C148.982 84.1348 148.848 84.3522 148.648 84.6422C148.447 84.8597 148.247 85.0771 148.247 85.0771C148.247 85.0771 148.381 84.8597 148.581 84.5697C148.781 84.2797 148.982 84.1348 148.982 84.1348Z" fill="#C99877"/>
<path d="M118.199 113.711H90.9535C90.9535 113.711 91.9551 88.485 95.4275 74.567C95.895 72.6098 97.4308 69.7827 98.7664 68.3329C99.3006 67.8255 99.9016 67.2455 100.636 66.9556C101.104 66.7381 101.705 66.6656 102.239 66.7381L106.913 67.1731C107.381 67.2456 107.915 67.5355 108.115 68.1154L112.723 79.4963C112.99 80.1487 113.391 80.8011 113.925 81.2361L120.736 87.8326L116.262 93.7768L115.728 94.4292" fill="#F7931E"/>
<path d="M114.525 93.9225C107.046 87.3984 106.712 86.2386 106.111 84.0639C105.911 83.339 105.644 82.4691 105.109 81.3093L105.51 81.0918C106.111 82.3241 106.311 83.194 106.512 83.9189C107.113 86.0211 107.38 87.1085 114.792 93.56L114.525 93.9225Z" fill="#9E4F0D"/>
<path d="M101.772 54.3416C101.638 54.0517 101.438 53.8342 101.237 53.7617C101.104 53.7617 101.037 53.7617 100.97 53.7617C100.369 54.0517 100.236 54.5591 100.503 55.2115C100.503 55.2115 100.503 55.2115 100.503 55.284C100.97 55.9364 101.171 56.0814 101.705 56.3714L101.772 54.3416Z" fill="#ECBC97"/>
<path d="M146.846 82.1808C146.913 82.1083 146.98 82.0358 146.98 81.9633C146.98 81.9633 146.98 81.8184 146.913 81.8184C146.846 81.8184 146.713 81.8184 146.647 81.8909C146.58 81.9633 146.447 82.1083 146.447 82.1083L146.647 82.3258C146.713 82.3983 146.713 82.3983 146.713 82.3983C146.713 82.2533 146.78 82.1808 146.846 82.1808Z" fill="#E5B28F"/>
<path d="M149.45 81.0916L149.784 80.7292C149.784 80.6567 149.851 80.2218 149.45 80.4392L149.05 80.8017C149.05 80.8017 149.116 81.0191 149.183 81.0916C149.25 81.1641 149.383 81.1641 149.383 81.1641C149.45 81.1641 149.45 81.1641 149.45 81.0916Z" fill="#E5B28F"/>
<defs>
<radialGradient id="paint0_radial_21707_140754" cx="0" cy="0" r="1" gradientUnits="userSpaceOnUse" gradientTransform="translate(121.442 189.293) rotate(90) scale(1.42453 11.7267)">
<stop/>
<stop offset="1" stop-color="#D9D9D9" stop-opacity="0"/>
</radialGradient>
<clipPath id="clip0_21707_140754">
<rect width="160.719" height="111.119" fill="white" transform="matrix(0.996448 -0.0842084 0.0705251 0.99751 46.6479 91.5332)"/>
</clipPath>
</defs>
</svg>
