<svg width="343" height="233" viewBox="0 0 343 233" fill="none" xmlns="http://www.w3.org/2000/svg">
<path d="M198.05 126.232L206.237 139.4C208.184 143.112 208.578 149.383 208.869 151.398L209.16 155.435C209.354 157.027 209.257 158.408 209.257 159.472L209.16 186.97H214.619L213.351 145.564C213.351 144.606 213.448 142.063 213.545 140.576C214.813 127.197 218.415 127.408 221.829 126.246L222.709 125.288H218.615L212.478 131.234V122.209H208.384V131.551L200.003 124.33L196.498 124.435L198.057 126.239L198.05 126.232Z" fill="#754C24"/>
<path d="M227.184 125.379C221.726 131.431 201.161 140.245 188.104 125.168C187.619 124.639 186.643 125.062 185.957 124.851C181.281 123.681 178.552 120.497 176.897 116.354C176.315 114.868 176.017 113.275 176.017 111.683C176.114 108.076 177.382 104.997 180.111 102.658C178.261 99.3679 177.382 95.6479 178.164 91.301C178.455 89.7087 179.044 88.2222 179.82 86.947C181.967 83.1284 183.525 79.1971 187.225 78.1333C189.074 68.3684 193.265 65.9237 201.258 68.15C206.328 63.479 213.047 64.2187 215 70.9118C225.134 67.833 229.713 73.8849 230.204 86.6229C239.168 89.3846 240.338 95.1195 238.586 101.806C241.994 104.567 243.455 107.857 243.261 111.676C243.067 116.981 239.756 121.547 235.171 123.357C232.733 124.315 230.198 124.949 228.833 125.161C228.251 125.161 227.566 124.949 227.178 125.372L227.184 125.379Z" fill="#A9D661"/>
<path d="M160.527 135.891L167.252 146.719C168.908 149.798 169.199 154.892 169.399 156.484L169.69 159.774C169.787 161.049 169.787 162.219 169.787 163.064L169.69 185.574H174.172L173.099 151.707C173.099 150.968 173.196 148.84 173.293 147.67C174.366 136.736 177.289 136.947 180.018 135.989L180.697 135.249H177.386L172.413 140.132V132.805H169.005V140.449L162.182 134.503L159.259 134.608L160.527 135.883V135.891Z" fill="#754C24"/>
<path d="M184.306 135.257C179.824 140.245 163.062 147.361 152.339 135.046C151.951 134.623 151.169 134.94 150.587 134.834C146.784 133.876 144.547 131.333 143.182 127.824C142.697 126.655 142.503 125.274 142.503 124.006C142.6 121.032 143.674 118.482 145.814 116.678C144.353 114.022 143.57 110.944 144.256 107.336C144.45 106.061 144.935 104.892 145.62 103.729C147.373 100.65 148.64 97.3601 151.66 96.5076C153.219 88.5464 156.633 86.5244 163.159 88.3351C167.252 84.5165 172.807 85.0449 174.366 90.5614C182.65 88.011 186.453 93.0061 186.841 103.405C194.149 105.631 195.125 110.309 193.761 115.826C196.587 118.052 197.757 120.814 197.563 123.893C197.369 128.247 194.64 131.96 190.934 133.446C188.891 134.299 186.841 134.722 185.767 134.933C185.282 134.933 184.694 134.827 184.306 135.25V135.257Z" fill="#EACE03"/>
<path d="M226.406 99.797L237.322 117.312C239.954 122.3 240.439 130.585 240.827 133.234L241.215 138.652C241.409 140.773 241.312 142.583 241.409 143.957L241.312 187.807H248.62L246.964 125.273C246.867 123.998 247.061 120.602 247.255 118.693C248.911 100.854 253.787 101.178 258.269 99.6913L259.439 98.4161H253.981L245.794 106.272V94.2734H240.239V106.694L229.128 97.0352L224.453 97.2466L226.399 99.797H226.406Z" fill="#754C24"/>
<path d="M265.091 98.7333C257.881 106.8 230.396 118.481 213.051 98.4163C212.372 97.6765 211.105 98.3106 210.128 98.0992C203.894 96.507 200.285 92.3643 198.041 86.7422C197.259 84.7272 196.871 82.5995 196.968 80.4789C197.065 75.5964 198.817 71.5595 202.329 68.4807C199.891 64.1266 198.72 59.1386 199.794 53.298C200.182 51.1773 200.964 49.261 201.941 47.4574C204.767 42.3636 206.811 37.1571 211.784 35.6706C214.319 22.7213 219.874 19.424 230.493 22.2915C237.218 16.0282 246.182 16.9864 248.717 26.0044C262.265 21.8617 268.402 30.0414 268.984 46.922C280.871 50.5292 282.436 58.1733 280.192 67.0927C284.77 70.6999 286.626 75.1596 286.426 80.1548C286.135 87.1649 281.75 93.3225 275.704 95.7602C272.392 97.1411 269.075 97.8808 267.225 98.2049C266.546 98.4163 265.667 98.2049 265.078 98.7333H265.091Z" fill="#BC8E6F"/>
<path d="M226.106 99.5138L237.022 117.028C239.654 122.017 240.139 130.302 240.527 132.951L240.915 138.369C241.109 140.489 241.012 142.3 241.109 143.674L241.012 187.524H248.32L246.664 124.99C246.567 123.714 246.761 120.319 246.956 118.409C248.611 100.571 253.487 100.895 257.969 99.4081L259.139 98.1329H253.681L245.494 105.988V93.9902H239.939V106.411L228.828 96.752L224.153 96.9634L226.099 99.5138H226.106Z" fill="#754C24"/>
<path d="M264.791 98.4501C257.581 106.517 230.096 118.198 212.751 98.1331C212.072 97.3933 210.805 98.0274 209.828 97.816C203.594 96.2238 199.986 92.0811 197.741 86.459C196.959 84.444 196.571 82.3163 196.668 80.1957C196.765 75.3132 198.518 71.2763 202.029 68.1975C199.591 63.8434 198.421 58.8554 199.494 53.0148C199.882 50.8941 200.665 48.9778 201.641 47.1742C204.467 42.0804 206.511 36.8739 211.484 35.3874C214.019 22.4381 219.574 19.1408 230.193 22.0083C236.919 15.745 245.882 16.7032 248.417 25.7212C261.965 21.5785 268.103 29.7581 268.685 46.6388C280.571 50.246 282.136 57.8901 279.892 66.8095C284.471 70.4167 286.327 74.8764 286.126 79.8716C285.835 86.8817 281.45 93.0393 275.404 95.477C272.093 96.8579 268.775 97.5976 266.926 97.9217C266.247 98.1331 265.367 97.9217 264.779 98.4501H264.791Z" fill="#BC8E6F"/>
<path d="M168.756 212.03C255.895 212.03 326.536 204.756 326.536 195.784C326.536 186.811 255.895 179.537 168.756 179.537C81.6163 179.537 10.9758 186.811 10.9758 195.784C10.9758 204.756 81.6163 212.03 168.756 212.03Z" fill="#F3F3F3"/>
<g clip-path="url(#clip0_21707_140720)">
<path d="M116.317 143.945L116.828 143.707C118.679 142.843 120.814 143.837 121.533 145.897L127.533 163.095C127.652 163.436 127.814 163.755 128.014 164.048C129.17 165.729 133.316 171.153 137.341 168.945C141.786 166.506 149.57 146.8 148.907 148.389C148.907 148.389 156.494 132.936 156.568 132.819C158.051 130.514 160.248 136.477 161.519 139.045L161.415 139.066C162.014 140.279 160.498 141.658 159.849 142.837L148.696 163.886C148.585 164.087 147.535 166.114 147.424 166.317C146.403 168.197 144.144 175.079 139.062 176.611C133.403 178.316 127.811 178.329 126.434 177.984C125.058 177.639 123.223 178.051 122.258 174.299C121.516 171.411 116.587 155.819 114.358 148.798C113.745 146.867 114.602 144.745 116.318 143.943L116.317 143.945Z" fill="#81B928"/>
<path d="M119.554 141.589L121.204 141.084L128.743 160.812C129.16 161.987 129.76 163.081 130.542 164.006C131.61 165.27 133.159 166.415 134.758 165.261C137.665 163.16 142.362 148.807 142.362 148.807C142.362 148.807 144.376 143.529 144.932 143.456C145.489 143.384 146.187 143.408 147.575 143.678C148.962 143.948 150.128 141.609 150.302 141.245C150.476 140.881 152.475 138.017 152.295 136.749C152.114 135.481 152.821 135.76 153.149 135.85C153.477 135.94 155.218 136.585 153.997 134.747C152.776 132.908 156.239 130.735 156.239 130.735L157.335 132.97L157.503 133.567L157.695 133.998L155.755 137.331L148.97 149.865L140.868 166.241C140.868 166.241 136.374 173.457 129.405 166.504C129.405 166.504 126.871 163.614 125.368 158.216C123.866 152.817 119.554 141.59 119.554 141.59L119.554 141.589Z" fill="#76A321"/>
<path d="M188.603 149.985L180.945 167.566L181.803 167.951L189.628 150.42L188.676 149.845L188.603 149.985Z" fill="black"/>
<path d="M187.558 149.33L180.073 166.461L179.184 165.945L186.778 148.923L187.558 149.33Z" fill="black"/>
<path d="M164.89 141.109C165.319 141.891 177.145 166.75 177.145 166.75L174.57 168.582L154.048 131.26L158.532 127.645L164.89 141.109Z" fill="#81B928"/>
<path d="M160.538 131.975L164.549 140.552C164.549 140.552 167.512 140.408 171.468 138.807C175.424 137.205 175.016 132.583 174.626 129.834C174.235 127.085 173.88 126.57 173.88 126.57L159.806 130.393L160.538 131.975Z" fill="#202321"/>
<path d="M160.744 130.91L161.504 132.248L173.271 129.384C173.271 129.384 174.112 128.739 173.464 127.324L160.744 130.91Z" fill="black"/>
<path d="M181.214 200.488C167.167 201.675 154.835 189.866 153.725 174.163C152.615 158.46 163.14 144.72 177.187 143.533C191.234 142.346 203.566 154.154 204.676 169.857C205.786 185.56 195.261 199.3 181.214 200.488ZM177.543 148.57C166.03 149.543 157.406 160.849 158.32 173.775C159.234 186.7 169.344 196.423 180.858 195.45C192.371 194.477 200.995 183.171 200.081 170.246C199.167 157.32 189.057 147.597 177.543 148.57Z" fill="black"/>
<path d="M163.014 186.516L174.828 175.163L174.185 174.43L162.239 185.66L162.896 186.611L163.014 186.516Z" fill="black"/>
<path d="M163.277 187.785L176.201 175.278L176.885 176.268L163.899 188.607L163.277 187.785Z" fill="black"/>
<path d="M164.691 153.566L175.278 169.225L175.989 168.575L165.522 152.777L164.614 153.43L164.691 153.566Z" fill="black"/>
<path d="M163.675 154.27L173.98 169.551L173.147 170.17L162.982 154.836L163.675 154.27Z" fill="black"/>
<path d="M200.664 170.963L182.147 172.047L182.251 173.055L200.807 172.157L200.811 170.966L200.664 170.963Z" fill="black"/>
<path d="M200.686 169.644L181.905 170.797L181.891 169.694L200.635 168.698L200.686 169.644Z" fill="black"/>
<path d="M187.474 194.928L180.041 175.744L179.151 176.277L186.427 195.581L187.53 195.093L187.474 194.928Z" fill="black"/>
<path d="M188.815 193.81L180.844 174.871L181.879 174.397L189.686 193.357L188.815 193.81Z" fill="black"/>
<path d="M173.288 172.864L153.327 166.106L153.896 163.603L173.533 170.4L173.288 172.864Z" fill="black"/>
<path d="M153.457 167.939C153.457 167.939 153.061 162.789 156.452 157.118C159.843 151.447 161.832 147.941 169.61 144.558C177.387 141.175 184.484 143.981 184.484 143.981L187.103 143.215C187.103 143.215 183.88 141.58 179.716 141.592C175.552 141.603 165.591 142.241 159.38 150.192C153.169 158.143 152.917 161.641 152.609 162.552C152.3 163.463 151.532 168.435 151.532 168.435L151.185 170.556" fill="black"/>
<path d="M178.474 176.604C181.284 176.366 183.392 173.763 183.182 170.789C182.972 167.814 180.523 165.596 177.712 165.834C174.902 166.071 172.794 168.675 173.004 171.649C173.214 174.623 175.663 176.841 178.474 176.604Z" fill="black"/>
<path d="M77.2914 143.095L77.5858 147.26C77.5858 147.26 85.5831 147.197 89.8021 150.622C94.0211 154.046 96.8327 158.672 97.4018 166.231L116.892 164.14L119.81 163.818C119.81 163.818 116.887 146.814 101.896 140.463C101.896 140.463 96.6126 138.303 89.4171 139.596C83.7882 140.607 77.2321 142.28 77.2321 142.28L77.2896 143.093L77.2914 143.095Z" fill="black"/>
<path d="M121.728 178.436C121.336 178.469 120.935 178.452 120.538 178.383L96.6317 174.228C94.5542 173.867 93.1138 172.197 93.2046 170.26L93.219 169.949C93.3172 167.883 95.1631 166.252 97.4236 166.235C97.5671 166.234 97.7095 166.24 97.8507 166.251L121.726 168.275C123.899 168.459 125.545 170.104 125.558 172.102L125.573 174.542C125.58 175.569 125.157 176.537 124.381 177.269C123.665 177.943 122.722 178.348 121.726 178.433L121.728 178.436ZM97.1843 167.871C95.8436 167.985 94.7521 168.915 94.6992 170.034L94.6849 170.345C94.6337 171.419 95.5696 172.399 96.8633 172.624L120.769 176.78C121.755 176.951 122.746 176.674 123.418 176.042C123.857 175.626 124.099 175.099 124.095 174.558L124.08 172.118C124.073 170.991 122.99 170.016 121.615 169.899L97.7393 167.875C97.6397 167.867 97.537 167.863 97.4347 167.863C97.3505 167.863 97.2666 167.868 97.1846 167.875L97.1843 167.871Z" fill="black"/>
<path d="M96.8565 168.629L118.306 170.496L117.528 175.331L95.5549 172.214L96.8565 168.629Z" fill="#81B928"/>
<path d="M96.8876 198.115C82.8403 199.302 70.5089 187.493 69.3986 171.79C68.2884 156.087 78.8135 142.347 92.8608 141.16C106.908 139.972 119.24 151.781 120.35 167.484C121.46 183.187 110.935 196.927 96.8876 198.115ZM93.217 146.197C81.7034 147.17 73.0797 158.476 73.9936 171.402C74.9074 184.327 85.0179 194.05 96.5314 193.077C108.045 192.104 116.669 180.798 115.755 167.872C114.841 154.947 104.731 145.224 93.217 146.197Z" fill="black"/>
<path d="M79.5398 185.566L90.9081 171.261L90.1006 170.58L78.5696 184.779L79.4231 185.69L79.5398 185.566Z" fill="black"/>
<path d="M80.4692 186.594L91.8764 172.652L92.9973 172.628L81.1873 187.271L80.4692 186.594Z" fill="black"/>
<path d="M83.907 148.312L92.4693 165.394L93.2532 164.854L84.828 147.655L83.8456 148.167L83.907 148.312Z" fill="black"/>
<path d="M82.8117 148.86L91.143 165.524L90.2417 166.014L82.0567 149.318L82.8117 148.86Z" fill="black"/>
<path d="M106.211 188.398L96.363 172.856L95.6458 173.499L105.796 189.825L106.709 189.181L106.211 188.398Z" fill="black"/>
<path d="M107.917 188.246L96.8903 171.886L97.7271 171.276L108.495 187.631L107.917 188.246Z" fill="black"/>
<path d="M88.9635 170.491L69.0006 163.731L69.57 161.23L89.2086 168.027L88.9635 170.491Z" fill="black"/>
<path d="M69.1303 165.567C69.1303 165.567 68.7348 160.417 72.1259 154.746C75.5169 149.074 77.506 145.569 85.2833 142.186C93.0606 138.803 100.158 141.609 100.158 141.609L102.777 140.843C102.777 140.843 99.554 139.208 95.3897 139.22C91.2255 139.231 81.3133 139.551 75.1004 147.502C68.8874 155.454 68.6673 159.018 68.284 160.181C67.9822 161.096 67.2076 166.064 67.2076 166.064L66.8607 168.186" fill="black"/>
<path d="M94.1473 174.23C96.9578 173.993 99.0657 171.39 98.8555 168.415C98.6452 165.441 96.1964 163.223 93.3859 163.461C90.5754 163.698 88.4675 166.302 88.6777 169.276C88.888 172.25 91.3368 174.468 94.1473 174.23Z" fill="black"/>
<path d="M124.116 182.326C128.441 181.961 131.685 177.953 131.361 173.375C131.038 168.798 127.269 165.383 122.944 165.748C118.619 166.114 115.376 170.121 115.699 174.699C116.023 179.277 119.791 182.692 124.116 182.326Z" fill="black"/>
<path d="M114.18 147.745L111.822 139.448C111.822 139.448 113.028 138.874 114.233 138.776C115.437 138.678 118.068 138.474 118.521 138.471C118.975 138.469 119.872 138.33 120.232 138.966C120.592 139.601 122.235 143.966 122.235 143.966L114.178 147.747L114.18 147.745Z" fill="black"/>
<path d="M122.294 143.938C122.294 143.938 120.605 138.855 119.775 138.551C118.945 138.246 113.551 138.872 113.551 138.872C113.551 138.872 118.563 139.057 119.645 141.378L120.862 144.609L122.292 143.938L122.294 143.938Z" fill="#0F1611"/>
<path d="M112.907 139.059L110.428 131.578L112.754 131.382L115.037 138.879L112.907 139.059Z" fill="#0F1611"/>
<path d="M101.955 127.164C101.955 127.164 103.69 131.956 103.928 132.076C104.166 132.195 121.496 130.58 121.496 130.58C121.496 130.58 123.527 128.551 120.627 128.136C117.726 127.72 102.029 126.466 102.029 126.466L101.668 126.428L101.954 127.162L101.955 127.164Z" fill="#0F1611"/>
<path d="M126.481 180.961C126.481 180.961 128.19 189.5 128.396 190.556C128.603 191.612 126.59 198.566 126.59 198.566C126.59 198.566 127.147 198.566 128.396 198.566C128.817 198.261 130.21 190.556 130.21 190.556L128.516 179.288L126.483 180.96L126.481 180.961Z" fill="#0F1611"/>
<path d="M124.724 185.157L117.835 185.739C117.573 185.761 117.377 186.012 117.398 186.299L117.522 188.057C117.542 188.344 117.771 188.559 118.033 188.537L124.922 187.955C125.184 187.933 125.38 187.682 125.36 187.395L125.235 185.637C125.215 185.35 124.986 185.135 124.724 185.157Z" fill="#0F1611"/>
<path d="M123.238 182.584L121.137 185.462L123.428 185.268L125.296 182.41L123.238 182.584Z" fill="#0F1611"/>
<path d="M154.048 131.258L150.894 123.758C150.894 123.758 151.091 119.517 152.46 117.765C153.828 116.013 153.342 116.601 152.66 115.976C152.244 115.595 151.413 114.865 150.831 114.357C150.408 113.987 150.062 113.526 149.815 112.999L149.607 112.555C149.607 112.555 149.236 111.701 147.706 112.035C146.176 112.369 144.081 112.868 144.081 112.868C144.081 112.868 145.306 110.496 143.985 110.375C142.322 110.22 149.649 107.852 149.649 107.852L152.651 109.865C152.651 109.865 152.693 108.43 153.479 108.363C154.265 108.297 156.679 109.472 158.551 110.235C160.422 110.998 161.302 111.586 160.957 112.638C160.612 113.69 158.466 113.002 158.28 113.018C158.095 113.034 157.365 113.914 157.365 113.914C157.365 113.914 155.824 117.825 156.138 119.639C156.453 121.453 158.546 127.663 158.546 127.663L154.051 131.261L154.048 131.258Z" fill="#202321"/>
<path d="M143.656 112.987C144.357 112.928 144.881 112.257 144.827 111.489C144.772 110.721 144.16 110.146 143.46 110.205C142.759 110.265 142.235 110.935 142.29 111.703C142.344 112.471 142.956 113.046 143.656 112.987Z" fill="#202321"/>
<path d="M121.931 151.062C121.714 151.152 121.604 151.419 121.687 151.656C121.77 151.893 122.356 152.293 122.356 152.293C122.356 152.293 122.556 151.568 122.473 151.331C122.39 151.093 122.149 150.971 121.931 151.062ZM122.134 151.649C122.055 151.681 121.968 151.638 121.939 151.551C121.91 151.465 121.949 151.37 122.028 151.338C122.106 151.306 122.194 151.349 122.223 151.435C122.252 151.521 122.213 151.617 122.134 151.649Z" fill="white"/>
<path d="M120.834 156.395L120.352 154.997C120.335 154.971 120.323 154.941 120.302 154.92C120.277 154.894 120.244 154.877 120.211 154.869C120.174 154.862 120.136 154.859 120.098 154.861C120.086 154.862 120.075 154.863 120.063 154.864C120.053 154.864 120.044 154.869 120.036 154.871C120.036 154.871 120.036 154.871 120.034 154.872C120.026 154.876 120.016 154.878 120.007 154.881L119.134 155.243L119.365 155.911L119.894 155.692L119.944 155.838C119.894 155.922 119.831 155.993 119.758 156.051C119.684 156.108 119.605 156.151 119.521 156.178C119.435 156.205 119.348 156.216 119.257 156.211C119.166 156.205 119.077 156.181 118.991 156.138C118.895 156.09 118.813 156.024 118.743 155.944C118.673 155.861 118.622 155.769 118.587 155.669C118.551 155.569 118.536 155.463 118.538 155.351C118.54 155.239 118.563 155.13 118.605 155.025C118.649 154.92 118.707 154.83 118.783 154.755C118.858 154.679 118.942 154.624 119.033 154.585C119.125 154.547 119.221 154.529 119.323 154.53C119.426 154.532 119.523 154.556 119.621 154.604L119.888 153.952C119.71 153.864 119.527 153.818 119.339 153.814C119.152 153.809 118.973 153.845 118.803 153.913C118.632 153.982 118.478 154.089 118.339 154.227C118.201 154.366 118.092 154.533 118.012 154.729C117.931 154.924 117.889 155.125 117.888 155.332C117.886 155.536 117.916 155.733 117.982 155.921C118.048 156.109 118.141 156.277 118.266 156.429C118.39 156.581 118.542 156.701 118.72 156.789C118.898 156.877 119.081 156.923 119.27 156.927C119.457 156.931 119.636 156.896 119.806 156.827C119.875 156.798 119.943 156.763 120.01 156.723C120.076 156.682 120.139 156.635 120.196 156.581L120.221 156.651L120.832 156.399L120.834 156.395Z" fill="white"/>
<path d="M121.259 152.903C121.44 152.828 121.626 152.794 121.811 152.805C121.999 152.815 122.174 152.862 122.338 152.942C122.502 153.022 122.65 153.136 122.78 153.285C122.911 153.433 123.01 153.605 123.079 153.806C123.148 154.006 123.178 154.208 123.17 154.414C123.161 154.619 123.119 154.811 123.044 154.991C122.969 155.171 122.865 155.332 122.73 155.475C122.596 155.619 122.437 155.728 122.256 155.803C122.075 155.878 121.889 155.912 121.703 155.9C121.516 155.891 121.341 155.844 121.179 155.764C121.014 155.682 120.868 155.567 120.738 155.421C120.607 155.273 120.509 155.1 120.439 154.9C120.369 154.699 120.34 154.497 120.348 154.292C120.357 154.087 120.398 153.895 120.471 153.715C120.544 153.535 120.648 153.374 120.782 153.233C120.915 153.089 121.074 152.98 121.255 152.905L121.259 152.903ZM122.03 155.134C122.128 155.094 122.213 155.036 122.287 154.959C122.359 154.882 122.416 154.796 122.455 154.697C122.496 154.599 122.518 154.494 122.522 154.385C122.526 154.274 122.51 154.165 122.473 154.058C122.435 153.951 122.383 153.856 122.313 153.777C122.243 153.697 122.164 153.635 122.073 153.59C121.984 153.546 121.888 153.521 121.789 153.517C121.688 153.513 121.589 153.53 121.491 153.571C121.393 153.612 121.308 153.67 121.236 153.746C121.164 153.823 121.107 153.909 121.068 154.009C121.027 154.106 121.004 154.211 121.001 154.32C120.997 154.431 121.013 154.54 121.05 154.647C121.087 154.754 121.14 154.849 121.21 154.929C121.28 155.008 121.359 155.07 121.45 155.115C121.539 155.16 121.634 155.184 121.734 155.188C121.835 155.194 121.934 155.175 122.032 155.134L122.03 155.134Z" fill="white"/>
<path d="M120.188 157.779C120.148 157.773 120.12 157.767 120.103 157.757C120.075 157.743 120.057 157.721 120.047 157.692C120.037 157.662 120.038 157.631 120.049 157.601C120.062 157.572 120.081 157.552 120.108 157.539C120.136 157.526 120.164 157.527 120.188 157.541C120.211 157.553 120.229 157.572 120.237 157.596L120.21 157.627C120.199 157.605 120.186 157.59 120.171 157.582C120.155 157.574 120.141 157.574 120.123 157.583C120.106 157.591 120.093 157.603 120.086 157.62C120.079 157.639 120.077 157.657 120.085 157.676C120.093 157.695 120.104 157.708 120.121 157.716C120.131 157.721 120.15 157.726 120.178 157.733C120.221 157.74 120.255 157.748 120.275 157.759C120.309 157.776 120.331 157.803 120.345 157.839C120.359 157.876 120.357 157.914 120.343 157.951C120.328 157.989 120.303 158.014 120.27 158.028C120.236 158.041 120.202 158.041 120.167 158.024C120.133 158.007 120.112 157.983 120.101 157.95L120.136 157.924C120.146 157.952 120.162 157.97 120.184 157.983C120.208 157.993 120.231 157.995 120.255 157.986C120.279 157.977 120.296 157.959 120.306 157.933C120.317 157.907 120.317 157.881 120.308 157.855C120.3 157.829 120.284 157.81 120.26 157.8C120.248 157.794 120.225 157.787 120.19 157.779L120.188 157.779Z" fill="white"/>
<path d="M120.24 157.173L120.278 157.157L120.386 157.471C120.407 157.422 120.44 157.391 120.486 157.37C120.536 157.35 120.582 157.35 120.625 157.371C120.667 157.393 120.698 157.428 120.716 157.481L120.822 157.79L120.784 157.806L120.678 157.501C120.664 157.462 120.641 157.433 120.605 157.416C120.569 157.4 120.534 157.399 120.499 157.413C120.464 157.427 120.438 157.454 120.422 157.491C120.415 157.508 120.411 157.525 120.409 157.541L120.536 157.908L120.497 157.924L120.238 157.173L120.24 157.173Z" fill="white"/>
<path d="M121.403 157.548L121.364 157.563L121.332 157.471C121.328 157.485 121.324 157.498 121.318 157.512C121.29 157.581 121.243 157.63 121.179 157.655C121.115 157.68 121.051 157.68 120.988 157.648C120.925 157.617 120.881 157.565 120.857 157.495C120.832 157.425 120.834 157.354 120.863 157.283C120.891 157.214 120.939 157.167 121.003 157.14C121.066 157.113 121.131 157.115 121.194 157.147C121.206 157.153 121.218 157.161 121.228 157.168L121.205 157.103L121.244 157.087L121.403 157.548ZM121.294 157.36L121.265 157.276C121.245 157.238 121.214 157.209 121.175 157.19C121.123 157.164 121.07 157.163 121.017 157.184C120.964 157.204 120.925 157.246 120.902 157.303C120.879 157.361 120.878 157.419 120.898 157.477C120.919 157.534 120.955 157.578 121.007 157.603C121.06 157.629 121.113 157.63 121.165 157.607C121.218 157.585 121.258 157.545 121.28 157.488C121.299 157.445 121.304 157.401 121.296 157.357L121.294 157.36Z" fill="white"/>
<path d="M121.376 157.033L121.414 157.017L121.443 157.101C121.447 157.085 121.452 157.07 121.458 157.053C121.479 157.003 121.506 156.968 121.541 156.952L121.557 156.998C121.533 157.009 121.514 157.034 121.497 157.073C121.474 157.127 121.472 157.183 121.489 157.24L121.571 157.478L121.533 157.493L121.374 157.033L121.376 157.033Z" fill="white"/>
<path d="M121.643 156.75C121.653 156.755 121.66 156.763 121.664 156.776C121.668 156.788 121.668 156.799 121.663 156.81C121.659 156.821 121.652 156.829 121.64 156.834C121.629 156.838 121.619 156.837 121.609 156.833C121.599 156.828 121.592 156.82 121.587 156.807C121.583 156.795 121.584 156.784 121.588 156.773C121.592 156.762 121.6 156.754 121.611 156.749C121.623 156.745 121.633 156.746 121.643 156.75ZM121.687 156.906L121.846 157.367L121.808 157.383L121.648 156.922L121.687 156.906Z" fill="white"/>
<path d="M121.897 156.936L122.02 157.293L121.982 157.309L121.823 156.848L121.861 156.832L121.872 156.862C121.894 156.81 121.928 156.774 121.974 156.754C122.024 156.734 122.07 156.734 122.112 156.755C122.155 156.777 122.185 156.812 122.204 156.865L122.309 157.173L122.271 157.189L122.166 156.884C122.152 156.846 122.128 156.817 122.092 156.8C122.057 156.783 122.022 156.783 121.987 156.796C121.952 156.81 121.926 156.838 121.91 156.875C121.902 156.896 121.897 156.916 121.897 156.936Z" fill="white"/>
<path d="M122.823 156.856C122.819 156.869 122.815 156.882 122.81 156.895C122.782 156.965 122.734 157.014 122.67 157.039C122.606 157.064 122.541 157.064 122.478 157.032C122.415 157.001 122.372 156.949 122.347 156.879C122.322 156.808 122.324 156.738 122.354 156.668C122.382 156.599 122.429 156.552 122.493 156.525C122.557 156.498 122.622 156.499 122.685 156.53C122.697 156.536 122.709 156.544 122.719 156.551L122.697 156.486L122.735 156.47L122.859 156.828C122.882 156.897 122.88 156.965 122.854 157.033C122.826 157.102 122.778 157.149 122.714 157.176C122.65 157.203 122.586 157.202 122.522 157.169C122.509 157.163 122.497 157.155 122.486 157.147L122.522 157.115C122.522 157.115 122.534 157.123 122.541 157.126C122.594 157.152 122.647 157.153 122.699 157.132C122.752 157.112 122.791 157.071 122.815 157.014C122.836 156.962 122.84 156.909 122.825 156.856L122.823 156.856ZM122.757 156.66C122.736 156.622 122.706 156.593 122.667 156.575C122.614 156.549 122.561 156.548 122.508 156.569C122.455 156.589 122.415 156.631 122.393 156.689C122.369 156.747 122.368 156.804 122.389 156.862C122.409 156.92 122.445 156.964 122.498 156.989C122.551 157.015 122.604 157.016 122.657 156.995C122.71 156.974 122.75 156.933 122.772 156.875C122.789 156.834 122.794 156.79 122.789 156.747L122.758 156.658L122.757 156.66Z" fill="white"/>
<path d="M133.121 165.874C133.947 164.373 143.626 137.893 143.626 137.893C143.626 137.893 144.584 135.836 144.624 135.748C144.664 135.659 145.385 135.104 146.724 135.57C148.063 136.036 152.529 137.706 152.529 137.706L148.567 144.051C148.567 144.051 146.907 144.293 145.835 144.078C144.763 143.862 143.913 145.467 143.023 147.825C142.133 150.182 135.802 167.003 135.802 167.003" fill="black"/>
<ellipse opacity="0.5" cx="127.147" cy="198.565" rx="10.0229" ry="1.21755" fill="url(#paint0_radial_21707_140720)"/>
</g>
<path d="M112.914 111.237C113.214 113.615 122.513 126.406 127.763 126.816C127.838 126.816 127.913 126.816 128.063 126.816C128.438 126.816 128.813 126.652 129.188 126.488C131.062 125.176 138.637 119.764 141.262 116.485L140.812 113.123C136.837 114.599 128.063 120.502 128.063 120.502C128.063 120.502 127.688 120.666 127.538 120.42C120.638 113.369 117.488 110.745 115.238 108.859L112.914 111.237Z" fill="#D7A887"/>
<path d="M99.7901 196.51C100.165 197.575 99.4902 201.511 99.4152 202.741C100.165 203.889 102.04 202.987 102.265 201.757C102.265 201.593 102.415 201.593 102.415 201.265C102.19 200.527 102.64 197.657 103.165 196.1L99.7901 196.51Z" fill="#F8AB90"/>
<path d="M111.414 198.23C111.714 199.296 110.814 201.92 110.739 203.232C111.414 204.461 113.364 203.641 113.664 202.412C113.664 202.248 113.814 202.248 113.814 201.92C113.514 201.1 114.189 198.804 114.864 197.328L111.414 198.23Z" fill="#F8AB90"/>
<path d="M111.264 137.064H118.314C121.838 148.707 122.888 161.908 120.789 175.027C120.639 176.011 120.414 176.995 120.114 177.978L117.714 198.313C115.914 199.132 110.664 198.559 108.864 198.067C111.264 190.523 112.614 183.882 113.139 176.585C113.364 175.437 113.364 173.059 113.364 173.059C114.189 161.744 111.789 139.934 111.264 137.064Z" fill="#74B79C"/>
<path d="M105.564 198.148C103.164 198.886 99.8646 197.657 97.9897 196.837L102.564 174.207C102.639 173.797 102.639 173.305 102.639 172.895L100.99 145.756C100.99 145.1 100.99 144.444 101.065 143.788C101.365 141.41 101.89 137.966 102.789 136.818H112.014C114.639 150.265 114.189 161.744 113.139 168.221C113.064 168.795 112.539 175.109 111.939 176.913L105.564 198.148Z" fill="#74B79C"/>
<path d="M118.313 137.226L102.639 137.472L102.564 136.734L118.238 136.652L118.313 137.226Z" fill="#20505A"/>
<path d="M106.54 92.2148L111.94 92.7888C110.365 95.4945 109.165 97.8723 110.965 99.7581L105.79 99.2661C107.59 97.9543 107.29 94.7566 106.54 92.2148Z" fill="#ECBC97"/>
<path d="M111.941 81.0645C111.941 81.0645 113.965 83.7702 113.515 85.738C113.44 86.066 113.44 86.312 113.365 86.476C113.14 87.6239 113.14 87.5419 114.265 88.1158C114.865 88.4438 114.34 89.0177 114.04 89.2637C113.89 89.4276 113.815 89.5916 113.815 89.8376C113.815 90.0836 113.89 90.3296 113.89 90.3296C113.89 90.4116 114.115 91.0675 113.515 91.0675C110.516 91.1495 112.99 91.0675 113.665 91.3135C113.665 91.3135 113.965 91.4775 113.89 91.6415C113.815 91.8054 113.59 92.0514 113.515 92.2974C113.44 92.5434 113.44 93.2813 113.29 93.6093C113.14 93.9373 111.416 94.5112 110.366 94.1832C109.541 93.9372 108.491 93.6913 108.041 93.6093C107.891 93.6093 107.591 93.1993 107.516 93.0353C107.291 92.8713 106.691 92.7074 106.241 92.3794C105.341 91.7235 106.091 91.3955 106.166 90.9855C106.241 90.5756 106.391 89.8376 106.241 89.5917C106.091 89.3457 105.341 88.3618 105.191 87.9518C104.966 87.2959 105.341 86.148 105.641 85.738C105.941 85.3281 106.541 85.1641 106.916 85.492C107.216 85.738 107.591 85.738 107.741 85.4101C107.966 85.0001 109.916 82.2124 110.291 81.9664C110.666 81.7204 111.941 81.0645 111.941 81.0645Z" fill="#ECBC97"/>
<path d="M113.814 82.7863C113.739 83.1143 113.589 83.3602 113.439 83.6062C113.214 84.0162 112.839 84.3441 112.389 84.5081C111.039 85.0821 109.914 85.656 108.639 85.574C108.114 85.492 107.664 85.82 107.439 86.3939C107.289 86.8859 106.989 87.2139 106.689 87.5418C106.164 88.1158 106.014 89.0177 106.239 89.7556C106.614 90.8215 108.114 94.6751 107.739 95.577C108.564 103.202 101.365 111.975 95.0651 106.072C92.0653 102.546 97.915 96.561 98.065 92.8713C97.84 88.1978 101.29 84.1802 101.665 83.1963C101.815 82.8683 101.965 82.6223 102.19 82.3763C103.09 81.3924 103.84 80.0806 104.59 79.5066C105.265 78.9327 106.014 78.6047 106.839 78.2767C108.114 77.7848 109.539 77.9487 110.739 78.7687C112.014 79.5886 113.139 80.7365 113.589 81.7204C113.889 82.0484 113.964 82.4583 113.814 82.7863Z" fill="#BC9D02"/>
<path d="M106.99 87.2939C106.84 86.966 106.615 86.72 106.39 86.638C106.315 86.556 106.165 86.638 106.091 86.638C105.416 86.966 105.266 87.5399 105.566 88.2778C105.566 88.2778 105.566 88.2778 105.566 88.3598C106.016 89.0977 106.315 89.2617 106.915 89.5897L106.99 87.2939Z" fill="#ECBC97"/>
<path d="M99.4159 200.443C100.541 201.017 101.666 201.017 102.866 200.279C102.941 200.279 103.016 200.279 103.016 200.361C103.691 201.673 104.366 203.395 105.415 204.379C106.54 205.199 107.89 205.773 109.39 206.265C109.54 206.347 109.765 206.429 109.99 206.347C110.74 206.347 111.265 206.429 111.79 206.757C111.865 206.757 111.94 206.839 112.015 206.839C112.315 207.003 112.465 207.413 112.54 207.905C112.54 208.233 112.39 208.479 112.165 208.643C110.965 209.38 109.39 209.708 107.515 209.708L104.066 209.216L98.5909 208.724L97.9909 208.479C97.9159 208.397 97.8409 208.315 97.8409 208.233C97.8409 207.249 97.9909 206.183 98.3659 205.117C98.4409 204.789 98.6659 204.379 98.8159 204.051C99.2659 203.149 99.4158 202.001 99.3409 200.689C99.2659 200.443 99.3409 200.361 99.4159 200.443Z" fill="#BFBAB8"/>
<path d="M97.8419 206.84C97.6919 206.84 97.6169 207.988 97.6919 208.234C97.7669 208.562 98.8168 208.726 99.0418 208.726C99.8668 208.89 100.842 208.89 101.742 208.972L104.816 209.3C105.716 209.464 106.691 209.628 107.741 209.628C108.566 209.628 109.391 209.546 110.216 209.3C110.891 209.136 111.491 208.89 112.091 208.48C112.166 208.398 112.241 208.398 112.241 208.234C112.391 207.824 112.391 207.168 111.791 206.84C111.116 207.25 110.066 207.496 108.941 207.742C108.116 207.906 107.141 207.988 106.091 207.906C104.441 207.824 102.867 207.742 101.442 207.414C100.167 207.332 98.8918 207.168 97.8419 206.84Z" fill="#20505A"/>
<path d="M109.765 206.264C109.69 206.838 109.69 207.248 109.915 207.576C110.74 207.412 111.415 207.166 112.015 206.838C111.415 206.428 110.665 206.182 109.765 206.264Z" fill="#F05A24"/>
<path d="M102.717 201.84C102.883 201.84 103.017 201.693 103.017 201.512C103.017 201.331 102.883 201.184 102.717 201.184C102.551 201.184 102.417 201.331 102.417 201.512C102.417 201.693 102.551 201.84 102.717 201.84Z" fill="#D7CCC2"/>
<path d="M103.242 202.984C103.407 202.984 103.542 202.838 103.542 202.656C103.542 202.475 103.407 202.328 103.242 202.328C103.076 202.328 102.942 202.475 102.942 202.656C102.942 202.838 103.076 202.984 103.242 202.984Z" fill="#D7CCC2"/>
<path d="M103.693 203.967C103.859 203.967 103.994 203.82 103.994 203.639C103.994 203.457 103.859 203.311 103.693 203.311C103.528 203.311 103.393 203.457 103.393 203.639C103.393 203.82 103.528 203.967 103.693 203.967Z" fill="#D7CCC2"/>
<path d="M104.443 204.955C104.608 204.955 104.743 204.808 104.743 204.627C104.743 204.446 104.608 204.299 104.443 204.299C104.277 204.299 104.142 204.446 104.142 204.627C104.142 204.808 104.277 204.955 104.443 204.955Z" fill="#D7CCC2"/>
<path d="M105.265 205.609C105.431 205.609 105.565 205.463 105.565 205.281C105.565 205.1 105.431 204.953 105.265 204.953C105.099 204.953 104.965 205.1 104.965 205.281C104.965 205.463 105.099 205.609 105.265 205.609Z" fill="#D7CCC2"/>
<path d="M106.439 206.107C106.567 205.99 106.583 205.783 106.477 205.644C106.37 205.505 106.181 205.487 106.054 205.604C105.927 205.72 105.91 205.927 106.017 206.066C106.123 206.205 106.312 206.223 106.439 206.107Z" fill="#D7CCC2"/>
<path d="M107.34 206.463C107.435 206.376 107.447 206.221 107.368 206.117C107.288 206.012 107.146 205.999 107.05 206.086C106.955 206.173 106.943 206.329 107.023 206.433C107.102 206.537 107.244 206.551 107.34 206.463Z" fill="#D7CCC2"/>
<path d="M108.53 206.719C108.591 206.601 108.553 206.451 108.444 206.384C108.336 206.317 108.199 206.359 108.138 206.477C108.076 206.595 108.115 206.746 108.223 206.812C108.331 206.879 108.468 206.837 108.53 206.719Z" fill="#D7CCC2"/>
<path d="M103.316 202.329C103.541 202.247 103.841 202.247 103.991 202.411C104.066 202.575 104.141 202.739 104.217 202.822C103.991 202.657 103.616 202.74 103.466 202.74C103.541 202.575 103.466 202.411 103.316 202.329Z" fill="#686461"/>
<path d="M103.767 203.315C103.992 203.233 104.292 203.069 104.517 203.151C104.592 203.233 104.667 203.315 104.742 203.479C104.442 203.397 104.067 203.561 103.992 203.643C103.992 203.479 103.917 203.397 103.767 203.315Z" fill="#686461"/>
<path d="M104.441 204.297C104.591 204.133 104.966 204.051 105.191 204.051C105.266 204.133 105.341 204.215 105.491 204.297C105.191 204.297 104.816 204.461 104.666 204.625C104.666 204.461 104.591 204.297 104.441 204.297Z" fill="#686461"/>
<path d="M105.341 204.951C105.491 204.787 105.716 204.705 106.016 204.623C106.091 204.705 106.241 204.705 106.391 204.869C106.091 204.951 105.791 205.197 105.641 205.279C105.566 205.197 105.491 205.033 105.341 204.951Z" fill="#686461"/>
<path d="M106.242 205.527C106.392 205.281 106.542 205.199 106.767 205.199C106.917 205.281 106.917 205.281 107.067 205.363C106.842 205.527 106.617 205.774 106.542 205.856C106.542 205.691 106.467 205.527 106.242 205.527Z" fill="#686461"/>
<path d="M107.216 206.022C107.366 205.775 107.591 205.693 107.741 205.611C107.891 205.693 107.966 205.693 108.116 205.775C107.891 205.94 107.666 206.186 107.516 206.268C107.441 206.186 107.366 206.022 107.216 206.022Z" fill="#686461"/>
<path d="M108.192 206.428C108.267 206.1 108.267 206.018 108.417 205.854C108.567 205.854 108.717 205.936 108.717 205.936C108.642 206.182 108.642 206.346 108.567 206.51C108.492 206.428 108.342 206.264 108.192 206.428Z" fill="#686461"/>
<path d="M102.793 201.181C103.018 201.099 103.243 201.099 103.393 201.181C103.468 201.345 103.543 201.509 103.618 201.591C103.318 201.509 103.168 201.427 103.018 201.509C103.018 201.427 102.943 201.263 102.793 201.181Z" fill="#686461"/>
<path d="M101.667 200.771C101.667 200.689 101.667 200.607 101.667 200.525C101.667 200.361 101.817 200.197 101.967 200.115C102.192 199.951 102.417 199.787 102.717 199.623C102.792 199.787 102.867 200.033 102.942 200.279C102.717 200.443 102.417 200.525 102.267 200.607C102.117 200.607 101.892 200.689 101.667 200.771Z" fill="#20505A"/>
<path d="M110.741 201.018C111.866 201.591 112.991 201.591 114.191 200.854C114.266 200.854 114.341 200.853 114.341 200.935C115.016 202.247 115.691 203.969 116.741 204.953C117.866 205.773 119.216 206.347 120.716 206.839C120.866 206.921 121.091 207.003 121.316 206.921C122.066 206.921 122.591 207.003 123.116 207.331C123.191 207.331 123.266 207.413 123.341 207.413C123.641 207.577 123.791 207.987 123.866 208.479C123.866 208.807 123.716 209.053 123.491 209.217C122.291 209.955 120.716 210.283 118.841 210.283L115.391 209.791L109.916 209.299L109.316 209.053C109.241 208.971 109.167 208.889 109.167 208.807C109.167 207.823 109.316 206.757 109.691 205.691C109.766 205.363 109.991 204.953 110.141 204.625C110.591 203.723 110.741 202.575 110.666 201.263C110.666 201.017 110.741 201.018 110.741 201.018Z" fill="#BFBAB8"/>
<path d="M109.239 207.492C109.089 207.492 109.014 208.64 109.089 208.886C109.164 209.214 110.214 209.378 110.439 209.378C111.264 209.542 112.239 209.542 113.139 209.624L116.214 209.952C117.114 210.116 118.089 210.28 119.139 210.28C119.963 210.28 120.788 210.198 121.613 209.952C122.288 209.788 122.888 209.542 123.488 209.132C123.563 209.05 123.638 209.05 123.638 208.886C123.788 208.476 123.788 207.82 123.188 207.492C122.513 207.902 121.463 208.148 120.338 208.394C119.513 208.558 118.539 208.64 117.489 208.558C115.839 208.476 114.264 208.394 112.839 208.066C111.564 207.984 110.289 207.82 109.239 207.492Z" fill="#20505A"/>
<path d="M121.088 206.921C121.013 207.494 121.013 207.904 121.238 208.232C122.063 208.068 122.738 207.822 123.338 207.494C122.738 207.003 122.063 206.839 121.088 206.921Z" fill="#20505A"/>
<path d="M114.115 202.41C114.281 202.41 114.416 202.263 114.416 202.082C114.416 201.901 114.281 201.754 114.115 201.754C113.95 201.754 113.815 201.901 113.815 202.082C113.815 202.263 113.95 202.41 114.115 202.41Z" fill="#D7CCC2"/>
<path d="M114.564 203.557C114.73 203.557 114.865 203.41 114.865 203.229C114.865 203.047 114.73 202.9 114.564 202.9C114.399 202.9 114.264 203.047 114.264 203.229C114.264 203.41 114.399 203.557 114.564 203.557Z" fill="#D7CCC2"/>
<path d="M115.091 204.621C115.256 204.621 115.391 204.474 115.391 204.293C115.391 204.112 115.256 203.965 115.091 203.965C114.925 203.965 114.79 204.112 114.79 204.293C114.79 204.474 114.925 204.621 115.091 204.621Z" fill="#D7CCC2"/>
<path d="M115.764 205.526C115.93 205.526 116.064 205.379 116.064 205.197C116.064 205.016 115.93 204.869 115.764 204.869C115.598 204.869 115.464 205.016 115.464 205.197C115.464 205.379 115.598 205.526 115.764 205.526Z" fill="#D7CCC2"/>
<path d="M116.664 206.182C116.829 206.182 116.964 206.035 116.964 205.854C116.964 205.672 116.829 205.525 116.664 205.525C116.498 205.525 116.364 205.672 116.364 205.854C116.364 206.035 116.498 206.182 116.664 206.182Z" fill="#D7CCC2"/>
<path d="M117.818 206.677C117.945 206.561 117.961 206.354 117.855 206.215C117.748 206.076 117.559 206.058 117.432 206.174C117.305 206.29 117.288 206.497 117.395 206.636C117.501 206.775 117.691 206.793 117.818 206.677Z" fill="#D7CCC2"/>
<path d="M118.715 207.034C118.81 206.946 118.822 206.791 118.743 206.687C118.663 206.583 118.521 206.569 118.425 206.656C118.33 206.744 118.318 206.899 118.398 207.003C118.477 207.107 118.619 207.121 118.715 207.034Z" fill="#D7CCC2"/>
<path d="M119.963 207.332C120.024 207.214 119.986 207.064 119.877 206.997C119.769 206.93 119.632 206.972 119.571 207.09C119.51 207.209 119.548 207.359 119.656 207.426C119.764 207.493 119.902 207.451 119.963 207.332Z" fill="#D7CCC2"/>
<path d="M114.713 202.9C114.938 202.818 115.239 202.818 115.389 202.982C115.464 203.146 115.539 203.31 115.614 203.392C115.389 203.228 115.013 203.31 114.863 203.31C114.863 203.146 114.863 202.982 114.713 202.9Z" fill="#686461"/>
<path d="M115.165 203.966C115.39 203.884 115.69 203.72 115.916 203.802C115.991 203.884 116.066 203.966 116.141 204.13C115.841 204.048 115.465 204.212 115.39 204.294C115.39 204.13 115.315 203.966 115.165 203.966Z" fill="#686461"/>
<path d="M115.84 204.869C115.99 204.705 116.365 204.623 116.59 204.623C116.665 204.705 116.74 204.787 116.89 204.869C116.59 204.869 116.215 205.033 116.065 205.197C116.065 205.115 115.99 204.951 115.84 204.869Z" fill="#686461"/>
<path d="M116.665 205.609C116.815 205.445 117.04 205.363 117.34 205.281C117.415 205.363 117.565 205.363 117.715 205.527C117.415 205.609 117.115 205.855 116.965 205.937C116.965 205.773 116.89 205.609 116.665 205.609Z" fill="#686461"/>
<path d="M117.641 206.1C117.791 205.853 117.941 205.771 118.166 205.771C118.316 205.854 118.316 205.854 118.466 205.936C118.241 206.1 118.016 206.346 117.941 206.428C117.866 206.264 117.791 206.1 117.641 206.1Z" fill="#686461"/>
<path d="M118.613 206.592C118.763 206.346 118.988 206.264 119.138 206.182C119.288 206.264 119.363 206.264 119.513 206.346C119.288 206.51 119.063 206.756 118.913 206.838C118.838 206.756 118.763 206.592 118.613 206.592Z" fill="#686461"/>
<path d="M119.589 207C119.664 206.672 119.664 206.59 119.814 206.426C119.965 206.426 120.115 206.508 120.115 206.508C120.04 206.754 120.04 206.918 119.965 207.082C119.89 207 119.739 206.836 119.589 207Z" fill="#686461"/>
<path d="M114.19 201.751C114.415 201.669 114.64 201.669 114.79 201.751C114.865 201.915 114.94 202.079 115.016 202.161C114.715 202.079 114.565 201.997 114.415 202.079C114.415 201.997 114.34 201.833 114.19 201.751Z" fill="#686461"/>
<path d="M113.066 201.343C113.066 201.261 113.066 201.179 113.066 201.097C113.066 200.933 113.216 200.769 113.366 200.687C113.591 200.523 113.816 200.359 114.116 200.195C114.191 200.359 114.266 200.605 114.341 200.851C114.116 201.015 113.816 201.097 113.666 201.179C113.516 201.261 113.291 201.343 113.066 201.343Z" fill="#20505A"/>
<path d="M112.539 111.975C112.839 114.353 122.139 127.144 127.388 127.554C127.463 127.554 127.538 127.554 127.688 127.554C128.063 127.554 128.438 127.39 128.813 127.226C130.688 125.914 138.234 120.28 140.859 117L139.487 113.5C135.512 114.976 127.613 121.323 127.613 121.323C127.613 121.323 127.163 121.487 127.088 121.241C123.938 115.583 119.364 112.549 114.789 109.68L112.539 111.975Z" fill="#ECBC97"/>
<path d="M140.401 113C141.001 112.672 141.037 112.061 141.336 111.405C141.561 110.831 141.861 110.257 142.086 110.175C142.461 109.929 146.347 108.679 146.347 108.679L144.336 109.601L146.886 108.431C147.111 108.267 147.719 108 147.951 108.28C148.101 108.69 147.411 108.754 147.261 108.999C146.886 109.573 146.961 109.273 146.961 109.273C146.961 109.273 147.411 109.519 147.186 109.929C146.961 110.339 146.586 110.831 146.586 110.831C146.586 110.831 147.111 111.077 146.811 111.815C146.811 111.815 146.961 112.225 146.886 112.799C146.811 113.127 146.586 113.537 146.286 113.865C145.986 114.275 145.611 114.521 145.161 114.685C143.436 115.341 141.909 116.016 140.859 117L139.487 113.5L140.401 113Z" fill="#ECBC97"/>
<path d="M145.432 109C145.432 109 144.489 109.518 143.889 109.846C143.289 110.255 142.839 110.501 142.839 110.501C142.839 110.501 143.289 110.091 143.889 109.764C144.414 109.354 145.432 109 145.432 109Z" fill="#C89777"/>
<path d="M146.813 109.189C146.813 109.189 146.438 109.681 145.913 110.255C145.388 110.829 144.938 111.239 144.938 111.239C144.938 111.239 145.313 110.747 145.838 110.173C146.363 109.599 146.813 109.189 146.813 109.189Z" fill="#C89777"/>
<path d="M146.661 110.66C146.661 110.66 146.511 110.988 146.211 111.316C145.986 111.644 145.686 111.89 145.686 111.89C145.686 111.89 145.836 111.562 146.136 111.234C146.361 110.906 146.661 110.66 146.661 110.66Z" fill="#C89777"/>
<path d="M120.266 136.655H97.9169C97.9169 136.655 98.7418 115.829 101.592 104.268C101.967 102.629 103.242 100.251 104.366 99.1028C104.816 98.6109 105.341 98.2009 105.941 97.955C106.316 97.791 106.766 97.709 107.216 97.709L111.041 98.0369C111.491 98.0369 111.866 98.3649 112.016 98.7749L115.841 108.204C116.066 108.778 116.366 109.27 116.816 109.68L122.44 115.173L118.766 120.093L118.316 120.667" fill="#20505A"/>
<path d="M117.263 120.337C111.114 115.007 110.814 113.941 110.364 112.137C110.214 111.563 109.989 110.826 109.539 109.842L110.064 109.596C110.514 110.662 110.739 111.318 110.889 111.973C111.339 113.695 111.639 114.597 117.638 119.845L117.263 120.337Z" fill="black"/>
<path d="M321.848 94.6509L264.156 88.916L256.357 182.555L325.651 189.354L332.079 113.229L321.848 94.6509Z" fill="#65C8D0"/>
<path d="M332.079 113.229L321.848 94.6504C321.848 94.6504 315.316 109.305 319.998 111.425C324.674 113.652 332.085 113.229 332.085 113.229H332.079Z" fill="#EFEFEF"/>
<path d="M322.042 116.836L317.269 121.19L315.517 118.851C315.323 118.534 314.838 118.534 314.637 118.746C314.346 118.957 314.346 119.485 314.54 119.704L316.784 122.571C316.881 122.677 317.075 122.783 317.269 122.783C317.463 122.783 317.56 122.783 317.754 122.571L323.115 117.689C323.407 117.477 323.407 116.949 323.213 116.731C322.727 116.625 322.236 116.519 322.042 116.836Z" fill="white"/>
<path d="M320.484 135.422L315.711 139.776L313.958 137.437C313.764 137.12 313.279 137.12 313.079 137.332C312.788 137.543 312.788 138.071 312.982 138.29L315.226 141.157C315.323 141.263 315.517 141.369 315.711 141.369C315.905 141.369 316.002 141.369 316.196 141.157L321.557 136.275C321.848 136.063 321.848 135.535 321.654 135.317C321.169 135.211 320.678 135.105 320.484 135.422Z" fill="white"/>
<path d="M318.925 154L314.152 158.354L312.4 156.015C312.206 155.698 311.721 155.698 311.52 155.91C311.229 156.121 311.229 156.649 311.423 156.868L313.667 159.735C313.764 159.841 313.958 159.947 314.152 159.947C314.346 159.947 314.443 159.947 314.637 159.735L319.998 154.853C320.289 154.642 320.289 154.113 320.095 153.895C319.61 153.789 319.216 153.683 318.925 154Z" fill="white"/>
<path d="M317.366 172.579L312.594 176.933L310.841 174.594C310.647 174.276 310.162 174.276 309.962 174.488C309.671 174.699 309.671 175.228 309.865 175.446L312.109 178.313C312.206 178.419 312.4 178.525 312.594 178.525C312.788 178.525 312.885 178.525 313.079 178.313L318.44 173.431C318.731 173.22 318.731 172.691 318.537 172.473C318.052 172.367 317.657 172.262 317.366 172.579Z" fill="white"/>
<path d="M304.6 118.435L271.172 115.145C270.784 115.145 270.59 114.723 270.59 114.406C270.59 113.983 270.978 113.771 271.269 113.771L304.697 117.062C305.085 117.062 305.279 117.484 305.279 117.801C305.279 118.224 304.988 118.435 304.6 118.435Z" fill="white"/>
<path d="M303.139 136.268L269.711 132.977C269.323 132.977 269.129 132.555 269.129 132.238C269.129 131.815 269.517 131.604 269.808 131.604L303.236 134.894C303.624 134.894 303.818 135.316 303.818 135.633C303.818 136.056 303.527 136.373 303.139 136.268Z" fill="white"/>
<path d="M301.574 154.951L268.146 151.661C267.758 151.661 267.564 151.238 267.564 150.921C267.564 150.498 267.952 150.287 268.243 150.287L301.671 153.577C302.059 153.577 302.253 154 302.253 154.317C302.253 154.634 301.962 154.951 301.574 154.951Z" fill="white"/>
<path d="M300.015 173.537L266.587 170.247C266.199 170.247 266.005 169.824 266.005 169.507C266.005 169.084 266.393 168.873 266.684 168.873L300.112 172.163C300.5 172.163 300.694 172.586 300.694 172.903C300.694 173.22 300.403 173.537 300.015 173.537Z" fill="white"/>
<path opacity="0.51" d="M156.408 116.295L272.389 84L273.485 144L156.408 116.295Z" fill="#E5E5E5"/>
<defs>
<radialGradient id="paint0_radial_21707_140720" cx="0" cy="0" r="1" gradientUnits="userSpaceOnUse" gradientTransform="translate(127.012 198.756) rotate(90) scale(1.21755 10.0229)">
<stop/>
<stop offset="1" stop-color="#D9D9D9" stop-opacity="0"/>
</radialGradient>
<clipPath id="clip0_21707_140720">
<rect width="137.367" height="94.9743" fill="white" transform="matrix(0.996448 -0.0842084 0.0705251 0.99751 63.1119 115.164)"/>
</clipPath>
</defs>
</svg>
