<svg width="350" height="233" viewBox="0 0 350 233" fill="none" xmlns="http://www.w3.org/2000/svg">
<path d="M240.68 112.017L255.856 127.55C258.077 129.88 259.278 132.984 259.192 136.285L258.077 163.269L257.52 207.729H272.509L270.013 144.722L269.456 136.375C269.181 131.913 270.751 127.542 273.898 124.431L286.297 112.009L287.96 110.263H280.184L268.985 120.751C268.797 120.948 268.522 120.751 268.522 120.553L268.616 104.633H260.753L260.847 121.237C260.847 121.525 260.573 121.624 260.384 121.434L244.839 108.527L238.082 108.724L240.672 112.025L240.68 112.017Z" fill="#937F6F"/>
<path d="M301.103 110.561C292.682 112.693 253.72 110.561 226.513 110.174C225.124 110.174 223.735 109.976 222.346 109.688C213.368 107.556 208.189 101.728 205.042 93.9652C203.928 91.2486 203.378 88.3345 203.473 85.3216C203.661 78.6209 206.156 72.9902 211.249 68.7178C207.828 62.7003 206.07 55.8102 207.545 47.7511C208.103 44.837 209.209 42.1205 210.598 39.6921C214.671 32.7032 219.67 27.2701 226.795 25.2286C231.794 10.5675 241.509 4.1631 252.982 0.475201C263.992 -1.36875 271.957 2.22037 277.78 10.0819C297.767 7.4641 308.408 15.9101 306.933 38.9101C318.689 46.3846 323.036 55.9995 322.942 66.7751C329.51 71.8213 332.194 77.9376 331.919 84.8277C331.456 94.5332 325.163 102.979 316.468 106.379C311.751 108.223 306.933 109.293 304.344 109.68C303.229 110.067 302.123 110.264 301.103 110.552V110.561Z" fill="#DEF2AF"/>
<path d="M301.569 114.249C293.329 116.291 254.923 114.249 228.179 113.862C226.79 113.862 225.401 113.665 224.107 113.376C215.317 111.244 210.13 105.614 207.078 97.9416C205.963 95.225 205.414 92.3109 205.508 89.4956C205.697 82.8936 208.098 77.3618 213.097 73.1882C209.675 67.2694 208.004 60.4698 209.487 52.5096C210.044 49.6943 211.056 46.9777 212.539 44.5493C216.518 37.6592 221.517 32.3167 228.454 30.3739C233.359 16.0092 242.98 9.59655 254.178 6.00743C265.007 4.16348 272.871 7.7526 278.521 15.4248C298.233 12.807 308.686 21.1542 307.211 43.7755C318.778 51.1513 323.126 60.5686 323.039 71.2454C329.513 76.1928 332.197 82.2186 331.828 89.0099C331.365 98.6166 325.166 106.873 316.651 110.174C312.021 112.018 307.305 112.99 304.715 113.475C303.695 113.673 302.683 113.961 301.569 114.249Z" fill="#A9D661"/>
<path d="M175 233C271.65 233 350 225.613 350 216.5C350 207.387 271.65 200 175 200C78.3502 200 0 207.387 0 216.5C0 225.613 78.3502 233 175 233Z" fill="#F3F3F3"/>
<path d="M84.4839 184.124C95.2319 171.265 97.7992 167.027 111.874 163.997C125.949 160.974 133.362 152.802 146.526 160.518C159.841 168.235 160.297 170.81 171.341 166.875C182.537 163.093 187.991 165.212 197.979 173.688C207.815 182.316 215.533 188.665 222.042 189.121C228.4 189.577 226.281 201.531 226.281 201.531L104.613 204.106L81.0051 204.562C78.5821 198.509 80.8532 191.4 84.4839 184.131V184.124Z" fill="#AED3D3"/>
<path d="M130.08 174.368C130.08 174.368 130.824 173.624 130.08 166.674C129.335 159.725 132.563 153.52 132.563 153.52C132.563 153.52 131.075 168.163 131.325 169.894C131.576 171.634 130.087 174.36 130.087 174.36L130.08 174.368Z" fill="#0B9D99"/>
<path d="M132.066 181.568C132.066 181.568 132.066 180.824 127.851 177.353C123.635 173.882 121.896 168.672 121.896 168.672C121.896 168.672 129.339 177.353 130.334 178.348C131.329 179.343 132.074 181.576 132.074 181.576L132.066 181.568Z" fill="#0B9D99"/>
<path d="M132.553 190.249C132.553 190.249 133.298 189.755 133.047 184.294C132.796 178.834 135.774 174.117 135.774 174.117C135.774 174.117 133.791 185.282 133.791 186.77C133.791 188.008 132.553 190.241 132.553 190.241V190.249Z" fill="#0B9D99"/>
<path d="M131.811 196.454C131.811 196.454 131.066 195.96 130.322 190.499C129.327 185.039 125.605 181.066 125.605 181.066C125.605 181.066 129.578 191.737 130.071 192.975C130.565 194.213 131.811 196.446 131.811 196.446V196.454Z" fill="#0B9D99"/>
<path d="M129.578 201.414C129.578 201.414 136.277 181.812 126.35 166.675C116.422 151.538 124.61 157.994 126.35 160.971C128.332 164.199 135.282 183.551 132.799 196.706C132.799 196.706 132.054 201.171 131.804 201.665C131.31 201.916 129.57 201.414 129.57 201.414H129.578Z" fill="#0B9D99"/>
<path d="M156.731 159.231C156.731 159.231 157.726 158.236 156.731 149.555C155.735 140.873 159.959 133.18 159.959 133.18C159.959 133.18 158.219 151.294 158.219 153.276C158.219 155.76 156.731 159.231 156.731 159.231Z" fill="#EACE03"/>
<path d="M159.208 167.92C159.208 167.92 159.208 166.925 153.746 162.71C148.536 158.495 146.553 152.039 146.553 152.039C146.553 152.039 155.737 162.71 156.975 163.948C157.97 165.186 159.208 167.92 159.208 167.92Z" fill="#EACE03"/>
<path d="M159.707 178.59C159.707 178.59 160.452 177.845 160.201 171.147C159.95 164.448 163.672 158.736 163.672 158.736C163.672 158.736 161.189 172.635 161.189 174.367C161.189 176.098 159.7 178.582 159.7 178.582L159.707 178.59Z" fill="#EACE03"/>
<path d="M158.965 190.249C158.965 190.249 158.221 189.505 157.97 182.806C157.719 176.107 153.754 170.646 153.754 170.646C153.754 170.646 156.983 184.295 157.226 186.034C157.476 187.773 158.965 190.249 158.965 190.249Z" fill="#EACE03"/>
<path d="M156.232 203.403C156.232 203.403 164.42 168.412 152.016 149.805C139.605 131.197 149.783 139.134 152.016 142.612C154.5 146.584 162.939 170.152 159.954 186.534C159.954 186.534 159.209 202.666 158.715 203.41C158.465 203.904 156.232 203.41 156.232 203.41V203.403Z" fill="#EACE03"/>
<path d="M206.708 144.756C206.708 144.756 207.703 143.761 206.708 135.574C205.713 127.386 209.685 119.943 209.685 119.943C209.685 119.943 207.946 137.313 208.197 139.295C208.197 141.278 206.708 144.756 206.708 144.756Z" fill="#EACE03"/>
<path d="M209.189 153.193C209.189 153.193 209.189 152.199 203.978 148.234C199.018 144.262 197.028 138.057 197.028 138.057C197.028 138.057 205.71 148.477 206.955 149.472C207.95 150.467 209.189 153.193 209.189 153.193Z" fill="#EACE03"/>
<path d="M209.686 163.363C209.686 163.363 210.431 162.619 210.18 156.171C209.929 149.723 213.408 144.262 213.408 144.262C213.408 144.262 210.924 157.659 210.924 159.148C210.924 160.887 209.686 163.363 209.686 163.363Z" fill="#EACE03"/>
<path d="M208.695 170.807C208.695 170.807 207.951 170.314 206.713 163.858C205.475 157.41 201.252 152.693 201.252 152.693C201.252 152.693 205.969 165.347 206.462 166.835C206.713 168.575 208.695 170.807 208.695 170.807Z" fill="#EACE03"/>
<path d="M205.963 176.762C205.963 176.762 213.9 153.437 202.241 135.574C190.331 117.71 200.258 125.397 202.241 128.624C204.474 132.597 212.662 155.177 209.935 170.807C209.935 170.807 208.94 176.017 208.697 176.511C208.203 177.255 205.97 176.762 205.97 176.762H205.963Z" fill="#EACE03"/>
<path d="M176.568 150.089C176.568 150.089 175.573 148.851 176.568 138.673C177.563 128.496 172.846 119.564 172.846 119.564C172.846 119.564 174.829 140.906 174.829 143.382C174.829 146.109 176.568 150.081 176.568 150.081V150.089Z" fill="#0B9D99"/>
<path d="M173.836 160.51C173.836 160.51 173.836 159.272 180.041 154.305C186.247 149.345 188.723 141.895 188.723 141.895C188.723 141.895 178.051 154.548 176.562 156.036C175.074 157.274 173.836 160.502 173.836 160.502V160.51Z" fill="#0B9D99"/>
<path d="M173.09 173.17C173.09 173.17 172.095 172.426 172.345 164.489C172.596 156.552 168.13 149.846 168.13 149.846C168.13 149.846 171.107 166.221 171.107 168.21C171.107 170.2 173.09 173.17 173.09 173.17Z" fill="#0B9D99"/>
<path d="M173.836 186.81C173.836 186.81 174.831 186.066 175.074 178.129C175.324 170.192 180.034 163.736 180.034 163.736C180.034 163.736 176.061 179.868 175.818 181.85C175.818 183.833 173.836 186.81 173.836 186.81Z" fill="#0B9D99"/>
<path d="M177.31 202.198C177.31 202.198 167.633 161.01 182.27 138.673C196.915 116.587 184.754 126.02 182.27 130.235C179.293 134.952 169.365 162.993 172.836 182.094C172.836 182.094 173.831 201.203 174.075 201.947C174.568 202.942 177.303 202.198 177.303 202.198H177.31Z" fill="#0B9D99"/>
<path d="M220.685 130.57C220.685 130.57 221.43 129.575 220.685 121.387C219.941 113.2 223.663 106 223.663 106C223.663 106 221.923 123.119 222.174 125.352C222.174 127.091 220.685 130.562 220.685 130.562V130.57Z" fill="#0B9D99"/>
<path d="M222.916 139.008C222.916 139.008 222.916 138.013 217.956 134.048C212.996 130.076 211.006 123.871 211.006 123.871C211.006 123.871 219.687 134.048 220.933 135.286C221.928 136.281 222.916 139.008 222.916 139.008Z" fill="#0B9D99"/>
<path d="M223.42 148.935C223.42 148.935 224.164 148.19 223.914 141.742C223.663 135.294 227.142 130.076 227.142 130.076C227.142 130.076 224.909 143.231 224.658 144.962C224.909 146.451 223.42 148.935 223.42 148.935Z" fill="#0B9D99"/>
<path d="M222.917 160.1C222.917 160.1 222.173 159.355 221.922 153.15C221.671 146.702 217.949 141.484 217.949 141.484C217.949 141.484 221.178 154.639 221.178 156.128C221.178 157.616 222.917 160.1 222.917 160.1Z" fill="#0B9D99"/>
<path d="M219.94 172.51C219.94 172.51 227.634 139.259 215.967 121.396C204.3 103.532 213.985 111.219 215.967 114.697C218.2 118.669 226.389 140.999 223.411 156.386C223.411 156.386 222.667 171.774 222.416 172.518C222.165 173.012 219.932 172.518 219.932 172.518L219.94 172.51Z" fill="#0B9D99"/>
<path d="M251.465 181.041C244.682 168.577 242.988 164.438 234.967 161.909C226.946 159.38 222.305 151.481 215.462 159.638C208.618 167.795 208.436 170.385 202.048 166.846C195.576 163.458 192.682 165.767 187.646 174.57C182.709 183.517 178.812 190.132 175.22 190.808C171.71 191.484 173.632 203.34 173.632 203.34L241.507 201.676L254.678 201.312C255.635 195.038 253.934 188.013 251.465 181.048V181.041Z" fill="#C4EDEE"/>
<g clip-path="url(#clip0_21707_140788)">
<path d="M244.238 181.718L244.526 181.583C245.568 181.097 246.77 181.657 247.174 182.817L250.553 192.499C250.62 192.691 250.711 192.871 250.824 193.036C251.475 193.983 253.809 197.036 256.075 195.793C258.578 194.42 262.96 183.325 262.587 184.22C262.587 184.22 266.859 175.519 266.9 175.453C267.735 174.156 268.972 177.513 269.688 178.959L269.629 178.971C269.966 179.653 269.113 180.43 268.747 181.093L262.468 192.945C262.406 193.058 261.814 194.199 261.752 194.314C261.177 195.372 259.905 199.247 257.044 200.109C253.858 201.069 250.709 201.077 249.934 200.882C249.159 200.688 248.126 200.92 247.583 198.808C247.165 197.182 244.39 188.403 243.135 184.45C242.79 183.362 243.272 182.168 244.239 181.717L244.238 181.718Z" fill="#81B928"/>
<path d="M246.06 180.39L246.989 180.106L251.234 191.214C251.469 191.875 251.807 192.491 252.247 193.012C252.849 193.724 253.72 194.368 254.621 193.719C256.258 192.536 258.902 184.454 258.902 184.454C258.902 184.454 260.036 181.483 260.349 181.442C260.662 181.401 261.056 181.415 261.837 181.567C262.618 181.719 263.274 180.402 263.372 180.197C263.47 179.992 264.596 178.38 264.494 177.666C264.393 176.952 264.791 177.109 264.975 177.159C265.16 177.21 266.14 177.574 265.453 176.538C264.765 175.503 266.715 174.279 266.715 174.279L267.332 175.538L267.427 175.874L267.535 176.117L266.443 177.993L262.622 185.05L258.061 194.271C258.061 194.271 255.531 198.333 251.607 194.419C251.607 194.419 250.18 192.791 249.334 189.752C248.488 186.712 246.061 180.391 246.061 180.391L246.06 180.39Z" fill="#76A321"/>
<path d="M284.937 185.119L280.625 195.017L281.108 195.234L285.514 185.364L284.978 185.04L284.937 185.119Z" fill="black"/>
<path d="M284.349 184.75L280.134 194.396L279.634 194.105L283.91 184.521L284.349 184.75Z" fill="black"/>
<path d="M271.586 180.122C271.827 180.562 278.486 194.559 278.486 194.559L277.036 195.59L265.481 174.577L268.006 172.541L271.586 180.122Z" fill="#81B928"/>
<path d="M269.136 174.978L271.394 179.807C271.394 179.807 273.062 179.726 275.289 178.824C277.517 177.923 277.287 175.32 277.067 173.772C276.847 172.225 276.647 171.935 276.647 171.935L268.723 174.087L269.136 174.978Z" fill="#202321"/>
<path d="M269.251 174.38L269.679 175.133L276.305 173.521C276.305 173.521 276.778 173.158 276.413 172.361L269.251 174.38Z" fill="black"/>
<path d="M280.777 213.552C272.868 214.221 265.925 207.572 265.3 198.731C264.675 189.889 270.6 182.154 278.509 181.485C286.418 180.817 293.361 187.465 293.986 196.307C294.611 205.148 288.686 212.884 280.777 213.552ZM278.71 184.321C272.228 184.869 267.372 191.235 267.887 198.512C268.401 205.789 274.094 211.264 280.576 210.716C287.058 210.168 291.914 203.802 291.399 196.525C290.885 189.248 285.192 183.774 278.71 184.321Z" fill="black"/>
<path d="M270.53 205.687L277.181 199.295L276.819 198.882L270.093 205.205L270.463 205.74L270.53 205.687Z" fill="black"/>
<path d="M270.678 206.401L277.954 199.359L278.339 199.916L271.028 206.863L270.678 206.401Z" fill="black"/>
<path d="M271.474 187.133L277.434 195.95L277.835 195.584L271.942 186.689L271.43 187.057L271.474 187.133Z" fill="black"/>
<path d="M270.902 187.53L276.704 196.133L276.235 196.482L270.511 187.848L270.902 187.53Z" fill="black"/>
<path d="M291.727 196.931L281.302 197.541L281.36 198.109L291.808 197.603L291.81 196.932L291.727 196.931Z" fill="black"/>
<path d="M291.74 196.188L281.166 196.837L281.158 196.216L291.711 195.655L291.74 196.188Z" fill="black"/>
<path d="M284.301 210.423L280.116 199.622L279.615 199.922L283.712 210.791L284.333 210.516L284.301 210.423Z" fill="black"/>
<path d="M285.056 209.794L280.568 199.131L281.151 198.864L285.546 209.538L285.056 209.794Z" fill="black"/>
<path d="M276.314 198.001L265.076 194.196L265.396 192.787L276.452 196.614L276.314 198.001Z" fill="black"/>
<path d="M265.149 195.227C265.149 195.227 264.926 192.327 266.835 189.134C268.744 185.941 269.864 183.968 274.243 182.063C278.622 180.158 282.618 181.738 282.618 181.738L284.092 181.307C284.092 181.307 282.278 180.386 279.933 180.393C277.589 180.399 271.981 180.758 268.483 185.235C264.986 189.712 264.845 191.681 264.671 192.194C264.497 192.707 264.065 195.506 264.065 195.506L263.87 196.701" fill="black"/>
<path d="M279.234 200.105C280.816 199.971 282.003 198.505 281.885 196.831C281.766 195.156 280.387 193.907 278.805 194.041C277.223 194.175 276.036 195.641 276.154 197.315C276.273 198.99 277.651 200.239 279.234 200.105Z" fill="black"/>
<path d="M222.266 181.24L222.431 183.585C222.431 183.585 226.934 183.55 229.31 185.478C231.685 187.406 233.268 190.01 233.588 194.266L244.562 193.089L246.205 192.907C246.205 192.907 244.559 183.334 236.119 179.758C236.119 179.758 233.144 178.542 229.093 179.27C225.924 179.839 222.232 180.781 222.232 180.781L222.265 181.239L222.266 181.24Z" fill="black"/>
<path d="M247.285 201.138C247.064 201.156 246.838 201.147 246.614 201.108L233.155 198.768C231.985 198.565 231.174 197.625 231.225 196.535L231.233 196.36C231.289 195.196 232.328 194.278 233.601 194.268C233.681 194.267 233.761 194.271 233.841 194.277L247.284 195.417C248.507 195.52 249.434 196.447 249.441 197.571L249.45 198.945C249.453 199.524 249.215 200.069 248.778 200.481C248.375 200.86 247.844 201.088 247.284 201.136L247.285 201.138ZM233.466 195.19C232.711 195.253 232.096 195.777 232.067 196.407L232.059 196.582C232.03 197.187 232.557 197.739 233.285 197.866L246.745 200.205C247.3 200.302 247.858 200.146 248.236 199.79C248.483 199.556 248.619 199.259 248.617 198.954L248.609 197.58C248.605 196.946 247.995 196.397 247.221 196.331L233.778 195.192C233.722 195.187 233.664 195.185 233.607 195.185C233.559 195.185 233.512 195.188 233.466 195.192L233.466 195.19Z" fill="black"/>
<path d="M233.281 195.616L245.358 196.667L244.92 199.389L232.548 197.634L233.281 195.616Z" fill="#81B928"/>
<path d="M233.299 212.218C225.39 212.887 218.447 206.238 217.822 197.397C217.197 188.555 223.123 180.82 231.032 180.151C238.941 179.483 245.883 186.131 246.509 194.973C247.134 203.814 241.208 211.55 233.299 212.218ZM231.232 182.988C224.75 183.535 219.894 189.901 220.409 197.178C220.923 204.455 226.616 209.93 233.098 209.382C239.581 208.834 244.436 202.468 243.922 195.191C243.407 187.914 237.715 182.44 231.232 182.988Z" fill="black"/>
<path d="M223.532 205.152L229.932 197.097L229.478 196.714L222.985 204.709L223.466 205.221L223.532 205.152Z" fill="black"/>
<path d="M224.055 205.73L230.477 197.881L231.108 197.867L224.459 206.112L224.055 205.73Z" fill="black"/>
<path d="M225.99 184.177L230.811 193.795L231.253 193.491L226.509 183.807L225.956 184.096L225.99 184.177Z" fill="black"/>
<path d="M225.374 184.486L230.064 193.868L229.557 194.145L224.949 184.744L225.374 184.486Z" fill="black"/>
<path d="M238.548 206.746L233.003 197.995L232.6 198.357L238.314 207.549L238.829 207.187L238.548 206.746Z" fill="black"/>
<path d="M239.509 206.66L233.3 197.448L233.771 197.105L239.834 206.313L239.509 206.66Z" fill="black"/>
<path d="M228.837 196.665L217.598 192.859L217.918 191.451L228.975 195.278L228.837 196.665Z" fill="black"/>
<path d="M217.671 193.892C217.671 193.892 217.448 190.992 219.357 187.799C221.267 184.606 222.386 182.633 226.765 180.728C231.144 178.823 235.14 180.403 235.14 180.403L236.614 179.972C236.614 179.972 234.8 179.051 232.455 179.058C230.111 179.064 224.53 179.244 221.032 183.721C217.534 188.198 217.41 190.205 217.194 190.86C217.024 191.375 216.588 194.172 216.588 194.172L216.393 195.367" fill="black"/>
<path d="M231.756 198.771C233.338 198.637 234.525 197.171 234.407 195.497C234.288 193.822 232.91 192.573 231.327 192.707C229.745 192.841 228.558 194.307 228.676 195.981C228.795 197.656 230.174 198.905 231.756 198.771Z" fill="black"/>
<path d="M248.629 203.328C251.064 203.122 252.891 200.866 252.708 198.289C252.526 195.711 250.404 193.789 247.969 193.995C245.534 194.2 243.708 196.457 243.89 199.034C244.072 201.611 246.194 203.534 248.629 203.328Z" fill="black"/>
<path d="M243.035 183.857L241.707 179.186C241.707 179.186 242.386 178.863 243.064 178.808C243.743 178.752 245.224 178.637 245.479 178.636C245.735 178.635 246.239 178.557 246.442 178.914C246.645 179.272 247.57 181.73 247.57 181.73L243.034 183.858L243.035 183.857Z" fill="black"/>
<path d="M247.603 181.713C247.603 181.713 246.653 178.852 246.185 178.68C245.717 178.509 242.681 178.861 242.681 178.861C242.681 178.861 245.502 178.965 246.112 180.272L246.797 182.091L247.602 181.714L247.603 181.713Z" fill="#0F1611"/>
<path d="M242.318 178.968L240.923 174.756L242.232 174.645L243.517 178.866L242.318 178.968Z" fill="#0F1611"/>
<path d="M236.152 172.27C236.152 172.27 237.129 174.968 237.263 175.035C237.397 175.103 247.154 174.193 247.154 174.193C247.154 174.193 248.297 173.051 246.664 172.817C245.032 172.583 236.194 171.877 236.194 171.877L235.99 171.855L236.152 172.269L236.152 172.27Z" fill="#0F1611"/>
<path d="M249.961 202.558C249.961 202.558 250.923 207.366 251.039 207.96C251.155 208.555 250.022 212.47 250.022 212.47C250.022 212.47 250.336 212.47 251.039 212.47C251.276 212.298 252.06 207.96 252.06 207.96L251.106 201.616L249.962 202.557L249.961 202.558Z" fill="#0F1611"/>
<path d="M248.972 204.921L245.093 205.249C244.945 205.261 244.835 205.403 244.847 205.564L244.916 206.554C244.928 206.716 245.057 206.837 245.204 206.824L249.083 206.496C249.23 206.484 249.341 206.343 249.329 206.181L249.259 205.191C249.248 205.03 249.119 204.909 248.972 204.921Z" fill="#0F1611"/>
<path d="M248.135 203.471L246.952 205.091L248.242 204.982L249.293 203.373L248.135 203.471Z" fill="#0F1611"/>
<path d="M265.481 174.576L263.706 170.353C263.706 170.353 263.817 167.965 264.587 166.979C265.358 165.993 265.084 166.324 264.7 165.972C264.466 165.757 263.998 165.346 263.67 165.06C263.432 164.852 263.237 164.592 263.098 164.295L262.981 164.045C262.981 164.045 262.772 163.565 261.911 163.753C261.05 163.941 259.87 164.222 259.87 164.222C259.87 164.222 260.56 162.887 259.816 162.818C258.879 162.731 263.005 161.398 263.005 161.398L264.695 162.531C264.695 162.531 264.719 161.723 265.161 161.686C265.604 161.648 266.963 162.31 268.017 162.739C269.07 163.169 269.566 163.5 269.372 164.092C269.178 164.684 267.969 164.297 267.864 164.306C267.76 164.315 267.349 164.81 267.349 164.81C267.349 164.81 266.481 167.013 266.658 168.034C266.836 169.055 268.014 172.552 268.014 172.552L265.483 174.578L265.481 174.576Z" fill="#202321"/>
<path d="M259.631 164.289C260.025 164.256 260.32 163.878 260.29 163.446C260.259 163.013 259.915 162.69 259.52 162.723C259.126 162.756 258.831 163.134 258.861 163.566C258.892 163.999 259.236 164.322 259.631 164.289Z" fill="#202321"/>
<path d="M247.399 185.725C247.277 185.776 247.215 185.926 247.262 186.059C247.308 186.193 247.638 186.418 247.638 186.418C247.638 186.418 247.751 186.01 247.704 185.876C247.657 185.743 247.521 185.674 247.399 185.725ZM247.513 186.055C247.469 186.073 247.42 186.049 247.403 186C247.387 185.952 247.409 185.898 247.453 185.88C247.498 185.862 247.547 185.886 247.563 185.935C247.58 185.984 247.557 186.037 247.513 186.055Z" fill="white"/>
<path d="M246.781 188.727L246.51 187.94C246.5 187.926 246.494 187.909 246.482 187.897C246.468 187.883 246.449 187.873 246.43 187.868C246.409 187.864 246.388 187.863 246.367 187.864C246.36 187.864 246.354 187.865 246.347 187.865C246.342 187.866 246.336 187.868 246.332 187.87C246.332 187.87 246.332 187.87 246.331 187.87C246.326 187.872 246.321 187.874 246.315 187.875L245.824 188.079L245.954 188.455L246.252 188.332L246.28 188.414C246.252 188.461 246.217 188.501 246.175 188.534C246.134 188.566 246.089 188.59 246.042 188.605C245.994 188.621 245.945 188.627 245.893 188.624C245.842 188.62 245.792 188.607 245.744 188.583C245.69 188.556 245.643 188.519 245.604 188.473C245.564 188.427 245.536 188.375 245.516 188.319C245.496 188.262 245.487 188.203 245.488 188.14C245.489 188.076 245.503 188.015 245.526 187.956C245.551 187.897 245.584 187.846 245.626 187.804C245.669 187.762 245.716 187.73 245.767 187.708C245.819 187.687 245.873 187.677 245.931 187.677C245.988 187.678 246.043 187.692 246.098 187.719L246.249 187.352C246.149 187.302 246.045 187.276 245.939 187.274C245.834 187.272 245.733 187.291 245.637 187.33C245.542 187.369 245.455 187.429 245.377 187.507C245.299 187.585 245.237 187.679 245.192 187.79C245.147 187.899 245.123 188.012 245.122 188.129C245.121 188.244 245.138 188.355 245.176 188.46C245.213 188.566 245.265 188.661 245.335 188.747C245.405 188.832 245.491 188.9 245.591 188.949C245.691 188.999 245.794 189.025 245.901 189.027C246.006 189.029 246.107 189.01 246.202 188.971C246.241 188.954 246.28 188.935 246.317 188.912C246.355 188.889 246.39 188.862 246.422 188.832L246.436 188.872L246.78 188.729L246.781 188.727Z" fill="white"/>
<path d="M247.02 186.76C247.122 186.718 247.227 186.699 247.331 186.706C247.437 186.711 247.535 186.737 247.628 186.783C247.72 186.828 247.804 186.892 247.877 186.975C247.95 187.059 248.007 187.156 248.045 187.269C248.084 187.382 248.101 187.496 248.096 187.611C248.091 187.727 248.068 187.835 248.025 187.936C247.983 188.037 247.925 188.128 247.849 188.209C247.773 188.29 247.684 188.351 247.582 188.393C247.48 188.436 247.375 188.455 247.271 188.448C247.165 188.443 247.067 188.417 246.975 188.371C246.883 188.325 246.8 188.261 246.727 188.178C246.654 188.095 246.598 187.998 246.559 187.885C246.519 187.772 246.503 187.658 246.508 187.543C246.513 187.427 246.536 187.319 246.577 187.218C246.618 187.117 246.677 187.026 246.752 186.946C246.827 186.865 246.916 186.804 247.018 186.762L247.02 186.76ZM247.455 188.017C247.51 187.994 247.558 187.961 247.599 187.918C247.64 187.875 247.672 187.826 247.694 187.77C247.717 187.716 247.73 187.656 247.732 187.595C247.734 187.533 247.725 187.471 247.704 187.411C247.683 187.351 247.653 187.297 247.614 187.252C247.574 187.208 247.53 187.173 247.479 187.148C247.429 187.122 247.375 187.109 247.319 187.106C247.262 187.104 247.206 187.114 247.151 187.137C247.096 187.16 247.048 187.192 247.007 187.235C246.967 187.279 246.935 187.327 246.913 187.383C246.89 187.438 246.877 187.497 246.875 187.558C246.873 187.621 246.882 187.682 246.903 187.743C246.924 187.803 246.954 187.856 246.993 187.901C247.032 187.946 247.077 187.981 247.128 188.006C247.178 188.031 247.232 188.045 247.288 188.047C247.345 188.051 247.401 188.04 247.456 188.017L247.455 188.017Z" fill="white"/>
<path d="M246.417 189.506C246.395 189.503 246.379 189.499 246.369 189.494C246.354 189.486 246.344 189.474 246.338 189.457C246.332 189.44 246.333 189.423 246.339 189.406C246.346 189.389 246.358 189.378 246.373 189.371C246.388 189.364 246.404 189.364 246.417 189.372C246.431 189.379 246.441 189.39 246.445 189.403L246.43 189.421C246.423 189.408 246.416 189.4 246.408 189.395C246.399 189.391 246.391 189.391 246.381 189.396C246.371 189.4 246.364 189.407 246.36 189.417C246.356 189.427 246.355 189.437 246.36 189.448C246.364 189.459 246.37 189.466 246.38 189.471C246.386 189.473 246.396 189.476 246.412 189.48C246.436 189.484 246.455 189.489 246.467 189.495C246.486 189.504 246.498 189.52 246.506 189.54C246.514 189.561 246.513 189.582 246.505 189.603C246.496 189.624 246.482 189.639 246.463 189.646C246.445 189.654 246.425 189.654 246.406 189.644C246.387 189.634 246.375 189.621 246.369 189.603L246.388 189.588C246.394 189.603 246.403 189.614 246.415 189.621C246.429 189.627 246.442 189.628 246.455 189.623C246.469 189.617 246.478 189.607 246.484 189.593C246.49 189.578 246.49 189.564 246.485 189.549C246.481 189.534 246.471 189.524 246.458 189.518C246.451 189.514 246.438 189.51 246.418 189.506L246.417 189.506Z" fill="white"/>
<path d="M246.447 189.165L246.468 189.156L246.529 189.333C246.541 189.306 246.559 189.288 246.585 189.277C246.613 189.265 246.639 189.265 246.663 189.277C246.687 189.289 246.705 189.309 246.715 189.339L246.775 189.513L246.753 189.522L246.694 189.35C246.685 189.328 246.672 189.312 246.652 189.302C246.632 189.293 246.612 189.293 246.593 189.3C246.573 189.308 246.558 189.324 246.549 189.345C246.545 189.354 246.543 189.364 246.542 189.373L246.613 189.579L246.592 189.588L246.446 189.165L246.447 189.165Z" fill="white"/>
<path d="M247.101 189.376L247.08 189.385L247.061 189.332C247.059 189.341 247.057 189.348 247.054 189.355C247.038 189.394 247.011 189.422 246.975 189.436C246.939 189.45 246.903 189.45 246.868 189.432C246.832 189.415 246.808 189.385 246.794 189.346C246.78 189.307 246.781 189.267 246.798 189.227C246.813 189.188 246.84 189.161 246.876 189.146C246.912 189.131 246.948 189.132 246.984 189.15C246.99 189.154 246.997 189.158 247.003 189.162L246.99 189.125L247.012 189.117L247.101 189.376ZM247.04 189.27L247.024 189.223C247.012 189.202 246.995 189.185 246.973 189.175C246.944 189.16 246.914 189.159 246.884 189.171C246.855 189.183 246.832 189.206 246.82 189.238C246.806 189.271 246.806 189.303 246.817 189.336C246.829 189.368 246.849 189.393 246.879 189.407C246.909 189.421 246.938 189.422 246.968 189.409C246.997 189.397 247.02 189.375 247.032 189.342C247.043 189.318 247.046 189.293 247.041 189.268L247.04 189.27Z" fill="white"/>
<path d="M247.086 189.088L247.108 189.079L247.124 189.126C247.126 189.117 247.129 189.109 247.132 189.099C247.144 189.071 247.159 189.051 247.179 189.043L247.188 189.068C247.175 189.074 247.164 189.089 247.154 189.111C247.142 189.141 247.14 189.173 247.15 189.204L247.196 189.338L247.175 189.347L247.085 189.088L247.086 189.088Z" fill="white"/>
<path d="M247.237 188.928C247.242 188.93 247.246 188.935 247.249 188.942C247.251 188.949 247.251 188.955 247.248 188.962C247.246 188.968 247.242 188.972 247.235 188.975C247.229 188.977 247.223 188.977 247.218 188.974C247.212 188.972 247.208 188.967 247.205 188.96C247.203 188.953 247.204 188.947 247.206 188.941C247.208 188.934 247.213 188.93 247.219 188.927C247.225 188.925 247.231 188.925 247.237 188.928ZM247.261 189.015L247.351 189.275L247.33 189.284L247.24 189.024L247.261 189.015Z" fill="white"/>
<path d="M247.379 189.032L247.449 189.233L247.428 189.242L247.338 188.983L247.36 188.974L247.365 188.99C247.378 188.961 247.397 188.941 247.423 188.93C247.451 188.918 247.477 188.918 247.501 188.93C247.525 188.942 247.542 188.962 247.552 188.992L247.612 189.165L247.59 189.174L247.531 189.003C247.523 188.981 247.51 188.965 247.49 188.955C247.47 188.946 247.45 188.946 247.43 188.953C247.411 188.961 247.396 188.977 247.387 188.998C247.383 189.009 247.38 189.021 247.379 189.032Z" fill="white"/>
<path d="M247.901 188.988C247.899 188.996 247.897 189.003 247.894 189.01C247.878 189.049 247.851 189.077 247.815 189.091C247.779 189.106 247.743 189.106 247.707 189.087C247.671 189.07 247.647 189.04 247.633 189.001C247.619 188.961 247.62 188.922 247.637 188.883C247.653 188.844 247.679 188.817 247.715 188.802C247.752 188.786 247.788 188.787 247.823 188.805C247.83 188.808 247.837 188.813 247.843 188.816L247.83 188.78L247.852 188.771L247.921 188.972C247.934 189.011 247.933 189.05 247.918 189.088C247.903 189.127 247.876 189.153 247.84 189.169C247.804 189.184 247.767 189.183 247.732 189.164C247.724 189.161 247.717 189.156 247.711 189.152L247.732 189.134C247.732 189.134 247.738 189.138 247.742 189.14C247.772 189.155 247.802 189.155 247.832 189.144C247.861 189.132 247.883 189.109 247.896 189.077C247.908 189.048 247.911 189.018 247.902 188.988L247.901 188.988ZM247.864 188.878C247.852 188.856 247.835 188.84 247.813 188.83C247.783 188.815 247.754 188.815 247.724 188.826C247.694 188.838 247.671 188.861 247.659 188.894C247.645 188.927 247.645 188.959 247.657 188.992C247.668 189.024 247.688 189.049 247.718 189.063C247.748 189.078 247.778 189.078 247.808 189.066C247.837 189.055 247.86 189.032 247.872 188.999C247.882 188.976 247.885 188.951 247.882 188.927L247.865 188.876L247.864 188.878Z" fill="white"/>
<path d="M253.699 194.066C254.164 193.221 259.614 178.312 259.614 178.312C259.614 178.312 260.153 177.154 260.175 177.104C260.198 177.054 260.604 176.742 261.358 177.004C262.112 177.267 264.626 178.207 264.626 178.207L262.395 181.779C262.395 181.779 261.461 181.915 260.857 181.794C260.254 181.673 259.775 182.577 259.274 183.904C258.773 185.231 255.209 194.702 255.209 194.702" fill="black"/>
<ellipse opacity="0.5" cx="250.336" cy="212.471" rx="5.64315" ry="0.685513" fill="url(#paint0_radial_21707_140788)"/>
</g>
<g clip-path="url(#clip1_21707_140788)">
<path d="M223.502 184.152L223.833 183.998C225.032 183.438 226.416 184.082 226.882 185.417L230.771 196.564C230.849 196.785 230.953 196.992 231.083 197.181C231.832 198.271 234.519 201.786 237.128 200.355C240.009 198.774 245.054 186.003 244.624 187.033C244.624 187.033 249.541 177.017 249.589 176.941C250.551 175.448 251.974 179.312 252.798 180.976L252.73 180.99C253.119 181.776 252.136 182.67 251.715 183.434L244.487 197.076C244.415 197.206 243.735 198.52 243.663 198.652C243.001 199.87 241.537 204.331 238.243 205.324C234.575 206.429 230.951 206.437 230.059 206.213C229.167 205.99 227.978 206.257 227.352 203.825C226.871 201.954 223.676 191.848 222.232 187.298C221.835 186.046 222.39 184.671 223.502 184.151L223.502 184.152Z" fill="#81B928"/>
<path d="M225.6 182.624L226.669 182.297L231.555 195.083C231.825 195.845 232.215 196.554 232.721 197.154C233.414 197.973 234.417 198.715 235.454 197.967C237.338 196.605 240.382 187.303 240.382 187.303C240.382 187.303 241.688 183.882 242.048 183.835C242.408 183.788 242.861 183.804 243.76 183.979C244.66 184.154 245.415 182.638 245.528 182.402C245.641 182.166 246.937 180.31 246.82 179.488C246.703 178.666 247.161 178.847 247.373 178.905C247.586 178.963 248.715 179.382 247.923 178.19C247.132 176.998 249.376 175.59 249.376 175.59L250.086 177.038L250.195 177.426L250.32 177.705L249.062 179.865L244.665 187.988L239.414 198.602C239.414 198.602 236.501 203.279 231.984 198.773C231.984 198.773 230.342 196.9 229.368 193.401C228.394 189.902 225.6 182.626 225.6 182.626L225.6 182.624Z" fill="#76A321"/>
<path d="M270.352 188.066L265.388 199.461L265.944 199.711L271.016 188.348L270.399 187.976L270.352 188.066Z" fill="black"/>
<path d="M269.675 187.642L264.823 198.745L264.247 198.41L269.169 187.378L269.675 187.642Z" fill="black"/>
<path d="M254.983 182.314C255.261 182.821 262.925 198.932 262.925 198.932L261.257 200.12L247.956 175.931L250.862 173.588L254.983 182.314Z" fill="#81B928"/>
<path d="M252.162 176.394L254.762 181.952C254.762 181.952 256.682 181.859 259.246 180.821C261.81 179.784 261.546 176.788 261.293 175.006C261.039 173.225 260.809 172.891 260.809 172.891L251.688 175.369L252.162 176.394Z" fill="#202321"/>
<path d="M252.296 175.703L252.788 176.571L260.415 174.714C260.415 174.714 260.96 174.297 260.54 173.38L252.296 175.703Z" fill="black"/>
<path d="M265.563 220.797C256.458 221.567 248.466 213.914 247.747 203.736C247.027 193.558 253.848 184.653 262.953 183.884C272.057 183.115 280.049 190.768 280.769 200.945C281.488 211.123 274.667 220.028 265.563 220.797ZM263.184 187.149C255.722 187.78 250.132 195.107 250.725 203.484C251.317 211.862 257.87 218.163 265.332 217.532C272.794 216.902 278.383 209.574 277.791 201.197C277.199 192.82 270.646 186.518 263.184 187.149Z" fill="black"/>
<path d="M253.767 211.743L261.424 204.385L261.007 203.91L253.265 211.188L253.69 211.805L253.767 211.743Z" fill="black"/>
<path d="M253.938 212.565L262.314 204.459L262.757 205.101L254.34 213.098L253.938 212.565Z" fill="black"/>
<path d="M254.854 190.387L261.715 200.536L262.177 200.114L255.393 189.876L254.804 190.299L254.854 190.387Z" fill="black"/>
<path d="M254.195 190.843L260.874 200.747L260.334 201.148L253.746 191.209L254.195 190.843Z" fill="black"/>
<path d="M278.168 201.663L266.167 202.365L266.235 203.019L278.262 202.436L278.264 201.664L278.168 201.663Z" fill="black"/>
<path d="M278.183 200.808L266.01 201.555L266.002 200.84L278.15 200.195L278.183 200.808Z" fill="black"/>
<path d="M269.62 217.193L264.802 204.76L264.225 205.106L268.941 217.616L269.656 217.3L269.62 217.193Z" fill="black"/>
<path d="M270.489 216.469L265.323 204.195L265.993 203.887L271.053 216.175L270.489 216.469Z" fill="black"/>
<path d="M260.426 202.895L247.489 198.515L247.858 196.893L260.585 201.298L260.426 202.895Z" fill="black"/>
<path d="M247.573 199.703C247.573 199.703 247.316 196.365 249.514 192.689C251.712 189.014 253.001 186.742 258.042 184.549C263.082 182.356 267.682 184.175 267.682 184.175L269.379 183.679C269.379 183.679 267.291 182.619 264.592 182.627C261.893 182.634 255.437 183.047 251.412 188.2C247.386 193.354 247.223 195.621 247.023 196.211C246.823 196.802 246.325 200.024 246.325 200.024L246.101 201.399" fill="black"/>
<path d="M263.787 205.319C265.608 205.165 266.974 203.477 266.838 201.55C266.702 199.622 265.115 198.185 263.293 198.338C261.472 198.492 260.105 200.18 260.242 202.107C260.378 204.035 261.965 205.473 263.787 205.319Z" fill="black"/>
<path d="M198.209 183.601L198.399 186.301C198.399 186.301 203.583 186.26 206.317 188.48C209.051 190.699 210.874 193.697 211.243 198.596L223.875 197.241L225.766 197.032C225.766 197.032 223.872 186.012 214.155 181.896C214.155 181.896 210.731 180.496 206.068 181.334C202.419 181.989 198.17 183.073 198.17 183.073L198.207 183.6L198.209 183.601Z" fill="black"/>
<path d="M227.009 206.506C226.755 206.528 226.495 206.517 226.237 206.472L210.743 203.778C209.397 203.545 208.463 202.463 208.522 201.207L208.532 201.006C208.595 199.667 209.792 198.609 211.257 198.598C211.35 198.597 211.442 198.601 211.533 198.609L227.008 199.921C228.416 200.04 229.483 201.106 229.491 202.401L229.501 203.982C229.505 204.648 229.231 205.275 228.728 205.75C228.264 206.186 227.653 206.449 227.008 206.504L227.009 206.506ZM211.102 199.659C210.233 199.732 209.525 200.335 209.491 201.061L209.482 201.262C209.448 201.958 210.055 202.593 210.894 202.739L226.387 205.432C227.027 205.544 227.669 205.364 228.104 204.954C228.389 204.685 228.545 204.343 228.543 203.993L228.533 202.411C228.528 201.681 227.827 201.049 226.936 200.973L211.461 199.661C211.397 199.656 211.33 199.654 211.264 199.653C211.209 199.653 211.155 199.657 211.102 199.661L211.102 199.659Z" fill="black"/>
<path d="M210.889 200.15L224.791 201.36L224.287 204.493L210.045 202.473L210.889 200.15Z" fill="#81B928"/>
<path d="M210.909 219.26C201.805 220.03 193.813 212.377 193.093 202.199C192.374 192.021 199.195 183.116 208.299 182.347C217.404 181.577 225.396 189.231 226.116 199.408C226.835 209.586 220.014 218.491 210.909 219.26ZM208.53 185.612C201.068 186.242 195.479 193.57 196.071 201.947C196.664 210.324 203.216 216.626 210.678 215.995C218.141 215.365 223.73 208.037 223.137 199.66C222.545 191.283 215.992 184.981 208.53 185.612Z" fill="black"/>
<path d="M199.666 211.128L207.034 201.857L206.51 201.415L199.037 210.618L199.59 211.208L199.666 211.128Z" fill="black"/>
<path d="M200.268 211.794L207.661 202.759L208.388 202.743L200.734 212.234L200.268 211.794Z" fill="black"/>
<path d="M202.496 186.982L208.046 198.053L208.554 197.703L203.093 186.556L202.457 186.888L202.496 186.982Z" fill="black"/>
<path d="M201.786 187.338L207.186 198.138L206.602 198.456L201.297 187.635L201.786 187.338Z" fill="black"/>
<path d="M216.952 212.963L210.569 202.89L210.104 203.307L216.683 213.888L217.275 213.471L216.952 212.963Z" fill="black"/>
<path d="M218.058 212.863L210.911 202.26L211.453 201.864L218.432 212.464L218.058 212.863Z" fill="black"/>
<path d="M205.774 201.358L192.835 196.977L193.204 195.356L205.932 199.761L205.774 201.358Z" fill="black"/>
<path d="M192.919 198.166C192.919 198.166 192.663 194.828 194.861 191.152C197.059 187.477 198.348 185.204 203.388 183.012C208.429 180.819 213.029 182.638 213.029 182.638L214.726 182.142C214.726 182.142 212.637 181.082 209.938 181.089C207.24 181.097 200.815 181.304 196.789 186.458C192.762 191.611 192.619 193.921 192.371 194.675C192.175 195.268 191.673 198.488 191.673 198.488L191.448 199.863" fill="black"/>
<path d="M209.133 203.782C210.955 203.628 212.321 201.94 212.185 200.013C212.048 198.085 210.461 196.647 208.64 196.801C206.818 196.955 205.452 198.643 205.588 200.57C205.725 202.498 207.312 203.935 209.133 203.782Z" fill="black"/>
<path d="M228.557 209.028C231.36 208.791 233.462 206.194 233.252 203.227C233.043 200.26 230.6 198.047 227.797 198.284C224.994 198.521 222.892 201.118 223.101 204.085C223.311 207.052 225.754 209.265 228.557 209.028Z" fill="black"/>
<path d="M222.117 186.615L220.589 181.238C220.589 181.238 221.37 180.865 222.151 180.802C222.932 180.738 224.636 180.606 224.931 180.604C225.225 180.603 225.806 180.513 226.039 180.925C226.273 181.337 227.337 184.165 227.337 184.165L222.116 186.616L222.117 186.615Z" fill="black"/>
<path d="M227.375 184.148C227.375 184.148 226.281 180.854 225.743 180.656C225.205 180.459 221.709 180.865 221.709 180.865C221.709 180.865 224.957 180.984 225.659 182.489L226.448 184.583L227.374 184.148L227.375 184.148Z" fill="#0F1611"/>
<path d="M221.292 180.983L219.685 176.135L221.193 176.007L222.672 180.867L221.292 180.983Z" fill="#0F1611"/>
<path d="M214.193 173.274C214.193 173.274 215.318 176.38 215.472 176.457C215.626 176.535 226.859 175.488 226.859 175.488C226.859 175.488 228.175 174.173 226.295 173.904C224.415 173.635 214.242 172.822 214.242 172.822L214.008 172.797L214.193 173.273L214.193 173.274Z" fill="#0F1611"/>
<path d="M230.09 208.143C230.09 208.143 231.197 213.678 231.331 214.362C231.465 215.046 230.16 219.553 230.16 219.553C230.16 219.553 230.521 219.553 231.331 219.553C231.604 219.356 232.506 214.362 232.506 214.362L231.408 207.059L230.091 208.143L230.09 208.143Z" fill="#0F1611"/>
<path d="M228.951 210.864L224.486 211.242C224.316 211.256 224.189 211.418 224.202 211.605L224.283 212.744C224.296 212.93 224.444 213.069 224.614 213.055L229.079 212.678C229.249 212.663 229.376 212.501 229.363 212.315L229.282 211.175C229.269 210.989 229.121 210.85 228.951 210.864Z" fill="#0F1611"/>
<path d="M227.988 209.195L226.626 211.06L228.111 210.935L229.321 209.082L227.988 209.195Z" fill="#0F1611"/>
<path d="M247.956 175.928L245.912 171.067C245.912 171.067 246.04 168.319 246.927 167.183C247.814 166.048 247.498 166.429 247.057 166.024C246.787 165.777 246.248 165.304 245.871 164.975C245.597 164.735 245.373 164.436 245.212 164.094L245.078 163.806C245.078 163.806 244.837 163.253 243.846 163.469C242.854 163.686 241.496 164.009 241.496 164.009C241.496 164.009 242.29 162.472 241.434 162.393C240.356 162.293 245.105 160.759 245.105 160.759L247.05 162.063C247.05 162.063 247.078 161.133 247.587 161.09C248.097 161.047 249.661 161.808 250.874 162.303C252.087 162.798 252.658 163.179 252.434 163.86C252.211 164.542 250.819 164.097 250.699 164.107C250.579 164.117 250.106 164.687 250.106 164.687C250.106 164.687 249.107 167.222 249.311 168.398C249.515 169.573 250.871 173.599 250.871 173.599L247.958 175.93L247.956 175.928Z" fill="#202321"/>
<path d="M241.221 164.087C241.675 164.048 242.015 163.614 241.979 163.116C241.944 162.618 241.548 162.246 241.094 162.284C240.64 162.322 240.3 162.757 240.335 163.255C240.37 163.753 240.767 164.125 241.221 164.087Z" fill="#202321"/>
<path d="M227.14 188.763C227 188.822 226.929 188.995 226.982 189.148C227.036 189.302 227.416 189.561 227.416 189.561C227.416 189.561 227.545 189.091 227.492 188.938C227.438 188.784 227.281 188.704 227.14 188.763ZM227.272 189.144C227.221 189.165 227.164 189.137 227.145 189.081C227.127 189.025 227.152 188.963 227.203 188.942C227.254 188.921 227.311 188.949 227.329 189.005C227.348 189.061 227.323 189.123 227.272 189.144Z" fill="white"/>
<path d="M226.429 192.222L226.117 191.315C226.106 191.299 226.098 191.279 226.084 191.265C226.068 191.249 226.047 191.238 226.025 191.233C226.001 191.228 225.977 191.226 225.952 191.227C225.945 191.228 225.937 191.229 225.93 191.229C225.924 191.23 225.917 191.233 225.912 191.234C225.912 191.234 225.912 191.234 225.911 191.234C225.906 191.237 225.9 191.239 225.893 191.24L225.328 191.475L225.477 191.908L225.82 191.766L225.853 191.861C225.82 191.915 225.779 191.961 225.732 191.999C225.684 192.036 225.633 192.064 225.578 192.081C225.523 192.099 225.467 192.106 225.407 192.103C225.348 192.098 225.291 192.083 225.235 192.055C225.173 192.024 225.12 191.982 225.074 191.929C225.029 191.875 224.996 191.816 224.973 191.751C224.95 191.686 224.94 191.618 224.941 191.545C224.942 191.472 224.958 191.402 224.985 191.334C225.013 191.266 225.051 191.207 225.1 191.159C225.149 191.11 225.203 191.074 225.262 191.049C225.322 191.024 225.384 191.013 225.45 191.013C225.517 191.014 225.58 191.03 225.643 191.061L225.816 190.638C225.701 190.581 225.582 190.551 225.46 190.549C225.339 190.546 225.223 190.569 225.113 190.613C225.003 190.658 224.903 190.727 224.813 190.817C224.723 190.907 224.652 191.015 224.6 191.142C224.548 191.268 224.521 191.399 224.52 191.532C224.518 191.665 224.538 191.793 224.581 191.914C224.624 192.036 224.684 192.145 224.765 192.244C224.846 192.343 224.944 192.42 225.059 192.477C225.175 192.534 225.294 192.564 225.416 192.566C225.537 192.569 225.653 192.546 225.763 192.502C225.808 192.483 225.852 192.46 225.895 192.434C225.938 192.407 225.979 192.377 226.016 192.342L226.032 192.388L226.428 192.224L226.429 192.222Z" fill="white"/>
<path d="M226.705 189.958C226.822 189.909 226.942 189.887 227.063 189.895C227.184 189.901 227.298 189.931 227.404 189.983C227.51 190.035 227.606 190.109 227.69 190.205C227.775 190.301 227.84 190.413 227.884 190.543C227.929 190.673 227.949 190.804 227.943 190.937C227.938 191.07 227.91 191.194 227.862 191.311C227.813 191.428 227.746 191.532 227.658 191.625C227.571 191.718 227.468 191.789 227.351 191.837C227.234 191.886 227.113 191.908 226.993 191.901C226.871 191.894 226.758 191.864 226.653 191.812C226.546 191.759 226.451 191.685 226.367 191.59C226.282 191.494 226.219 191.382 226.173 191.252C226.128 191.122 226.109 190.991 226.114 190.858C226.12 190.725 226.147 190.601 226.194 190.484C226.241 190.368 226.309 190.263 226.395 190.172C226.482 190.079 226.585 190.008 226.702 189.959L226.705 189.958ZM227.205 191.404C227.268 191.378 227.323 191.34 227.371 191.29C227.418 191.241 227.455 191.185 227.48 191.12C227.507 191.057 227.521 190.989 227.524 190.918C227.526 190.847 227.516 190.776 227.491 190.707C227.467 190.637 227.433 190.575 227.388 190.524C227.342 190.473 227.291 190.433 227.232 190.403C227.175 190.374 227.113 190.358 227.048 190.356C226.983 190.353 226.918 190.364 226.855 190.391C226.792 190.417 226.736 190.455 226.69 190.504C226.643 190.554 226.606 190.61 226.581 190.674C226.554 190.738 226.54 190.806 226.537 190.876C226.535 190.948 226.545 191.019 226.569 191.088C226.594 191.158 226.628 191.219 226.673 191.271C226.719 191.322 226.77 191.362 226.828 191.391C226.886 191.42 226.948 191.436 227.013 191.439C227.078 191.443 227.142 191.43 227.206 191.404L227.205 191.404Z" fill="white"/>
<path d="M226.01 193.118C225.985 193.114 225.966 193.11 225.955 193.104C225.938 193.095 225.926 193.081 225.919 193.062C225.913 193.042 225.913 193.023 225.92 193.003C225.929 192.984 225.942 192.971 225.959 192.963C225.977 192.954 225.995 192.955 226.01 192.964C226.026 192.972 226.037 192.984 226.043 193L226.025 193.02C226.017 193.006 226.009 192.996 225.999 192.991C225.989 192.986 225.98 192.985 225.969 192.991C225.957 192.997 225.949 193.004 225.945 193.015C225.94 193.027 225.939 193.039 225.944 193.051C225.949 193.064 225.956 193.073 225.967 193.077C225.974 193.08 225.986 193.084 226.004 193.088C226.032 193.093 226.054 193.098 226.067 193.105C226.089 193.116 226.103 193.134 226.112 193.157C226.121 193.181 226.12 193.206 226.111 193.23C226.101 193.254 226.085 193.27 226.063 193.279C226.042 193.288 226.019 193.288 225.997 193.277C225.975 193.266 225.961 193.251 225.954 193.229L225.977 193.212C225.983 193.23 225.994 193.242 226.008 193.25C226.023 193.257 226.038 193.258 226.054 193.252C226.07 193.246 226.08 193.235 226.087 193.218C226.094 193.201 226.094 193.185 226.088 193.168C226.083 193.15 226.073 193.139 226.057 193.132C226.049 193.128 226.034 193.123 226.012 193.118L226.01 193.118Z" fill="white"/>
<path d="M226.044 192.723L226.069 192.713L226.139 192.916C226.153 192.885 226.174 192.864 226.204 192.851C226.236 192.838 226.266 192.838 226.294 192.852C226.321 192.866 226.341 192.889 226.353 192.923L226.422 193.123L226.397 193.133L226.328 192.935C226.319 192.91 226.304 192.892 226.281 192.881C226.258 192.87 226.235 192.87 226.212 192.879C226.189 192.887 226.172 192.905 226.162 192.93C226.158 192.94 226.155 192.951 226.154 192.962L226.236 193.2L226.211 193.21L226.043 192.723L226.044 192.723Z" fill="white"/>
<path d="M226.797 192.966L226.773 192.976L226.751 192.916C226.749 192.926 226.746 192.934 226.743 192.943C226.725 192.988 226.694 193.019 226.652 193.036C226.611 193.052 226.57 193.052 226.529 193.031C226.488 193.011 226.46 192.977 226.444 192.932C226.428 192.887 226.429 192.841 226.448 192.795C226.466 192.75 226.497 192.72 226.538 192.702C226.58 192.685 226.621 192.686 226.662 192.707C226.67 192.711 226.678 192.716 226.684 192.72L226.67 192.678L226.695 192.668L226.797 192.966ZM226.727 192.845L226.708 192.791C226.695 192.766 226.676 192.747 226.65 192.735C226.616 192.718 226.582 192.717 226.548 192.731C226.514 192.744 226.488 192.771 226.474 192.808C226.458 192.846 226.458 192.883 226.471 192.92C226.484 192.958 226.507 192.986 226.542 193.002C226.576 193.019 226.61 193.019 226.644 193.005C226.678 192.99 226.704 192.965 226.718 192.927C226.73 192.9 226.733 192.871 226.728 192.843L226.727 192.845Z" fill="white"/>
<path d="M226.78 192.635L226.805 192.624L226.824 192.679C226.826 192.668 226.83 192.658 226.833 192.648C226.847 192.615 226.865 192.592 226.887 192.582L226.898 192.612C226.882 192.619 226.87 192.635 226.859 192.661C226.844 192.696 226.843 192.732 226.854 192.768L226.907 192.922L226.882 192.933L226.779 192.635L226.78 192.635Z" fill="white"/>
<path d="M226.954 192.451C226.96 192.454 226.965 192.46 226.967 192.468C226.97 192.476 226.97 192.483 226.967 192.49C226.964 192.497 226.959 192.502 226.952 192.505C226.945 192.508 226.938 192.508 226.932 192.505C226.925 192.502 226.92 192.496 226.918 192.488C226.915 192.48 226.916 192.473 226.918 192.466C226.921 192.459 226.926 192.454 226.933 192.451C226.94 192.448 226.947 192.448 226.954 192.451ZM226.982 192.552L227.085 192.851L227.061 192.862L226.957 192.562L226.982 192.552Z" fill="white"/>
<path d="M227.118 192.57L227.198 192.801L227.173 192.812L227.07 192.514L227.095 192.503L227.102 192.523C227.116 192.489 227.138 192.466 227.168 192.453C227.2 192.44 227.23 192.439 227.258 192.453C227.285 192.467 227.305 192.49 227.317 192.524L227.385 192.724L227.36 192.734L227.292 192.537C227.283 192.512 227.268 192.493 227.245 192.483C227.222 192.472 227.199 192.471 227.176 192.48C227.154 192.489 227.137 192.507 227.127 192.531C227.121 192.544 227.118 192.557 227.118 192.57Z" fill="white"/>
<path d="M227.719 192.52C227.716 192.529 227.713 192.537 227.71 192.545C227.692 192.59 227.661 192.622 227.619 192.639C227.578 192.655 227.536 192.655 227.495 192.634C227.454 192.614 227.426 192.58 227.41 192.535C227.394 192.489 227.395 192.443 227.414 192.398C227.432 192.353 227.463 192.323 227.505 192.305C227.546 192.288 227.588 192.289 227.629 192.309C227.637 192.313 227.645 192.318 227.651 192.322L227.637 192.28L227.661 192.27L227.742 192.502C227.757 192.546 227.756 192.591 227.738 192.634C227.72 192.679 227.689 192.71 227.648 192.728C227.606 192.745 227.565 192.744 227.524 192.723C227.515 192.719 227.507 192.714 227.5 192.708L227.523 192.688C227.523 192.688 227.531 192.693 227.536 192.695C227.57 192.712 227.604 192.713 227.638 192.699C227.673 192.686 227.698 192.659 227.713 192.622C227.727 192.589 227.73 192.554 227.72 192.52L227.719 192.52ZM227.675 192.393C227.662 192.368 227.643 192.35 227.617 192.338C227.583 192.321 227.549 192.32 227.514 192.334C227.48 192.347 227.454 192.374 227.44 192.411C227.424 192.449 227.424 192.487 227.437 192.524C227.45 192.562 227.474 192.59 227.508 192.606C227.542 192.623 227.576 192.623 227.611 192.61C227.645 192.597 227.671 192.57 227.685 192.532C227.696 192.506 227.7 192.477 227.697 192.449L227.676 192.391L227.675 192.393Z" fill="white"/>
<path d="M234.393 198.364C234.928 197.391 241.201 180.23 241.201 180.23C241.201 180.23 241.822 178.896 241.848 178.839C241.874 178.781 242.342 178.422 243.209 178.724C244.077 179.026 246.972 180.108 246.972 180.108L244.404 184.221C244.404 184.221 243.328 184.377 242.633 184.238C241.938 184.098 241.387 185.138 240.81 186.666C240.233 188.194 236.131 199.096 236.131 199.096" fill="black"/>
<ellipse opacity="0.5" cx="230.521" cy="219.553" rx="6.49602" ry="0.789119" fill="url(#paint1_radial_21707_140788)"/>
</g>
<g clip-path="url(#clip2_21707_140788)">
<path d="M94.678 170.052L95.1603 169.827C96.9055 169.012 98.9195 169.95 99.5971 171.893L105.256 188.112C105.369 188.434 105.521 188.735 105.71 189.011C106.8 190.597 110.71 195.712 114.506 193.629C118.698 191.329 126.039 172.745 125.413 174.244C125.413 174.244 132.569 159.669 132.639 159.559C134.038 157.386 136.109 163.009 137.308 165.431L137.209 165.451C137.774 166.595 136.345 167.895 135.733 169.007L125.215 188.858C125.11 189.048 124.12 190.96 124.015 191.151C123.052 192.924 120.922 199.415 116.129 200.859C110.792 202.467 105.518 202.48 104.22 202.154C102.922 201.828 101.191 202.217 100.281 198.679C99.5811 195.956 94.9325 181.251 92.8312 174.629C92.2525 172.808 93.0608 170.807 94.6794 170.051L94.678 170.052Z" fill="#81B928"/>
<path d="M97.7312 167.832L99.2871 167.355L106.397 185.961C106.79 187.069 107.357 188.1 108.094 188.973C109.102 190.165 110.562 191.245 112.07 190.157C114.812 188.175 119.242 174.639 119.242 174.639C119.242 174.639 121.141 169.661 121.665 169.593C122.19 169.525 122.849 169.548 124.157 169.802C125.466 170.057 126.565 167.851 126.729 167.508C126.893 167.165 128.779 164.464 128.609 163.268C128.439 162.072 129.105 162.335 129.414 162.42C129.724 162.504 131.366 163.113 130.214 161.379C129.063 159.645 132.329 157.595 132.329 157.595L133.362 159.703L133.52 160.267L133.702 160.673L131.872 163.816L125.473 175.637L117.832 191.081C117.832 191.081 113.594 197.887 107.021 191.329C107.021 191.329 104.632 188.604 103.215 183.512C101.798 178.421 97.7313 167.833 97.7313 167.833L97.7312 167.832Z" fill="#76A321"/>
<path d="M162.851 175.75L155.628 192.331L156.437 192.694L163.817 176.16L162.919 175.618L162.851 175.75Z" fill="black"/>
<path d="M161.865 175.132L154.806 191.289L153.968 190.801L161.13 174.748L161.865 175.132Z" fill="black"/>
<path d="M140.487 167.379C140.891 168.117 152.044 191.561 152.044 191.561L149.616 193.289L130.262 158.091L134.491 154.681L140.487 167.379Z" fill="#81B928"/>
<path d="M136.383 158.765L140.165 166.854C140.165 166.854 142.96 166.718 146.691 165.208C150.422 163.698 150.037 159.339 149.669 156.746C149.3 154.154 148.965 153.668 148.965 153.668L135.692 157.274L136.383 158.765Z" fill="#202321"/>
<path d="M136.577 157.76L137.293 159.022L148.392 156.321C148.392 156.321 149.185 155.713 148.573 154.378L136.577 157.76Z" fill="black"/>
<path d="M155.882 223.379C142.634 224.498 131.005 213.362 129.958 198.552C128.91 183.743 138.837 170.784 152.084 169.665C165.332 168.545 176.962 179.682 178.009 194.491C179.056 209.301 169.13 222.259 155.882 223.379ZM152.42 174.416C141.562 175.334 133.429 185.996 134.291 198.186C135.153 210.376 144.688 219.545 155.546 218.628C166.404 217.71 174.537 207.047 173.676 194.858C172.814 182.668 163.279 173.498 152.42 174.416Z" fill="black"/>
<path d="M138.718 210.201L149.859 199.494L149.253 198.803L137.987 209.394L138.606 210.291L138.718 210.201Z" fill="black"/>
<path d="M138.966 211.399L151.154 199.603L151.799 200.537L139.552 212.174L138.966 211.399Z" fill="black"/>
<path d="M140.3 179.127L150.284 193.895L150.955 193.282L141.083 178.383L140.227 178.999L140.3 179.127Z" fill="black"/>
<path d="M139.341 179.792L149.06 194.203L148.274 194.786L138.687 180.325L139.341 179.792Z" fill="black"/>
<path d="M174.225 195.535L156.762 196.557L156.86 197.508L174.36 196.66L174.363 195.537L174.225 195.535Z" fill="black"/>
<path d="M174.246 194.29L156.534 195.377L156.521 194.337L174.198 193.398L174.246 194.29Z" fill="black"/>
<path d="M161.786 218.135L154.776 200.044L153.936 200.546L160.799 218.751L161.839 218.291L161.786 218.135Z" fill="black"/>
<path d="M163.05 217.08L155.533 199.219L156.509 198.771L163.871 216.652L163.05 217.08Z" fill="black"/>
<path d="M148.407 197.327L129.582 190.953L130.119 188.593L148.639 195.003L148.407 197.327Z" fill="black"/>
<path d="M129.704 192.682C129.704 192.682 129.331 187.825 132.53 182.477C135.728 177.128 137.603 173.822 144.938 170.632C152.273 167.441 158.966 170.088 158.966 170.088L161.436 169.365C161.436 169.365 158.397 167.823 154.469 167.834C150.542 167.845 141.148 168.446 135.291 175.945C129.433 183.443 129.196 186.742 128.905 187.602C128.614 188.461 127.889 193.149 127.889 193.149L127.562 195.15" fill="black"/>
<path d="M153.298 200.853C155.948 200.629 157.936 198.174 157.738 195.369C157.54 192.564 155.23 190.472 152.58 190.696C149.929 190.92 147.941 193.375 148.139 196.18C148.338 198.985 150.647 201.077 153.298 200.853Z" fill="black"/>
<path d="M57.8738 169.251L58.1515 173.179C58.1515 173.179 65.6937 173.12 69.6726 176.35C73.6515 179.579 76.303 183.942 76.8397 191.071L95.2212 189.099L97.9725 188.795C97.9725 188.795 95.2165 172.759 81.0783 166.769C81.0783 166.769 76.0955 164.732 69.3095 165.951C64.0009 166.905 57.8179 168.482 57.8179 168.482L57.8721 169.249L57.8738 169.251Z" fill="black"/>
<path d="M99.7818 202.581C99.4119 202.612 99.034 202.596 98.6588 202.531L76.1135 198.612C74.1542 198.272 72.7958 196.697 72.8815 194.87L72.895 194.577C72.9877 192.629 74.7285 191.09 76.8603 191.074C76.9957 191.073 77.13 191.079 77.2631 191.09L99.78 192.998C101.829 193.172 103.382 194.723 103.393 196.607L103.408 198.908C103.414 199.877 103.015 200.79 102.284 201.48C101.608 202.116 100.719 202.498 99.78 202.578L99.7818 202.581ZM76.6347 192.617C75.3702 192.724 74.3409 193.602 74.291 194.657L74.2774 194.95C74.2292 195.963 75.1119 196.887 76.3319 197.1L98.8773 201.019C99.8073 201.181 100.742 200.919 101.375 200.323C101.79 199.931 102.018 199.434 102.014 198.924L101.999 196.622C101.993 195.559 100.972 194.64 99.675 194.53L77.158 192.621C77.0641 192.614 76.9673 192.61 76.8708 192.609C76.7914 192.609 76.7123 192.614 76.6349 192.621L76.6347 192.617Z" fill="black"/>
<path d="M76.3254 193.332L96.5541 195.093L95.8209 199.652L75.0979 196.713L76.3254 193.332Z" fill="#81B928"/>
<path d="M76.3548 221.14C63.107 222.26 51.4774 211.123 50.4303 196.314C49.3832 181.504 59.3093 168.546 72.5572 167.427C85.8051 166.307 97.4347 177.443 98.4818 192.253C99.5288 207.063 89.6027 220.021 76.3548 221.14ZM72.8931 172.178C62.0348 173.095 53.9019 183.758 54.7637 195.948C55.6256 208.137 65.1606 217.307 76.0189 216.389C86.8773 215.472 95.0102 204.809 94.1483 192.619C93.2865 180.43 83.7514 171.26 72.8931 172.178Z" fill="black"/>
<path d="M59.9943 209.306L70.7157 195.815L69.9541 195.173L59.0793 208.564L59.8843 209.423L59.9943 209.306Z" fill="black"/>
<path d="M60.8709 210.275L71.629 197.128L72.686 197.105L61.5482 210.915L60.8709 210.275Z" fill="black"/>
<path d="M64.1131 174.17L72.1881 190.28L72.9274 189.77L64.9816 173.55L64.0552 174.033L64.1131 174.17Z" fill="black"/>
<path d="M63.08 174.688L70.9372 190.403L70.0871 190.866L62.3679 175.12L63.08 174.688Z" fill="black"/>
<path d="M85.148 211.978L75.8602 197.32L75.1838 197.927L84.7559 213.324L85.6175 212.717L85.148 211.978Z" fill="black"/>
<path d="M86.757 211.833L76.3574 196.404L77.1466 195.829L87.3013 211.253L86.757 211.833Z" fill="black"/>
<path d="M68.8817 195.088L50.0549 188.713L50.5919 186.355L69.1128 192.765L68.8817 195.088Z" fill="black"/>
<path d="M50.1772 190.445C50.1772 190.445 49.8043 185.587 53.0023 180.239C56.2004 174.891 58.0762 171.585 65.4109 168.394C72.7457 165.204 79.4391 167.85 79.4391 167.85L81.9086 167.128C81.9086 167.128 78.8695 165.586 74.9422 165.597C71.0149 165.608 61.6669 165.909 55.8075 173.408C49.9482 180.907 49.7406 184.268 49.3791 185.366C49.0944 186.228 48.3639 190.914 48.3639 190.914L48.0368 192.914" fill="black"/>
<path d="M73.7706 198.615C76.4211 198.391 78.4091 195.935 78.2108 193.131C78.0125 190.326 75.703 188.234 73.0524 188.458C70.4019 188.682 68.4139 191.137 68.6122 193.942C68.8105 196.747 71.12 198.839 73.7706 198.615Z" fill="black"/>
<path d="M102.034 206.25C106.113 205.906 109.172 202.126 108.867 197.809C108.561 193.492 105.007 190.271 100.929 190.616C96.8498 190.961 93.7907 194.74 94.0959 199.057C94.4011 203.375 97.9551 206.595 102.034 206.25Z" fill="black"/>
<path d="M92.663 173.637L90.4393 165.813C90.4393 165.813 91.5764 165.271 92.7127 165.178C93.8489 165.086 96.3294 164.893 96.7574 164.891C97.1854 164.889 98.0309 164.758 98.3706 165.357C98.7104 165.957 100.259 170.073 100.259 170.073L92.6616 173.639L92.663 173.637Z" fill="black"/>
<path d="M100.315 170.046C100.315 170.046 98.7229 165.253 97.9397 164.965C97.1565 164.678 92.0698 165.269 92.0698 165.269C92.0698 165.269 96.7964 165.443 97.8168 167.632L98.9648 170.679L100.314 170.046L100.315 170.046Z" fill="#0F1611"/>
<path d="M91.4626 165.444L89.1251 158.389L91.3181 158.203L93.4715 165.274L91.4626 165.444Z" fill="#0F1611"/>
<path d="M81.1334 154.225C81.1334 154.225 82.7701 158.745 82.9945 158.858C83.2189 158.97 99.5629 157.447 99.5629 157.447C99.5629 157.447 101.478 155.534 98.7429 155.142C96.0078 154.75 81.2037 153.567 81.2037 153.567L80.8633 153.531L81.1333 154.224L81.1334 154.225Z" fill="#0F1611"/>
<path d="M104.264 204.961C104.264 204.961 105.875 213.015 106.07 214.011C106.265 215.006 104.367 221.564 104.367 221.564C104.367 221.564 104.892 221.564 106.07 221.564C106.468 221.277 107.781 214.011 107.781 214.011L106.183 203.384L104.266 204.961L104.264 204.961Z" fill="#0F1611"/>
<path d="M102.607 208.921L96.1102 209.47C95.8632 209.491 95.6785 209.727 95.6976 209.998L95.8148 211.656C95.834 211.927 96.0498 212.129 96.2968 212.109L102.794 211.559C103.041 211.539 103.226 211.302 103.206 211.031L103.089 209.374C103.07 209.103 102.854 208.9 102.607 208.921Z" fill="#0F1611"/>
<path d="M101.206 206.491L99.2242 209.205L101.385 209.023L103.146 206.327L101.206 206.491Z" fill="#0F1611"/>
<path d="M130.262 158.088L127.288 151.015C127.288 151.015 127.474 147.015 128.764 145.363C130.055 143.711 129.596 144.265 128.953 143.676C128.561 143.316 127.777 142.628 127.228 142.149C126.829 141.8 126.503 141.365 126.27 140.868L126.074 140.449C126.074 140.449 125.724 139.644 124.281 139.959C122.839 140.273 120.862 140.744 120.862 140.744C120.862 140.744 122.018 138.508 120.772 138.393C119.203 138.247 126.114 136.014 126.114 136.014L128.944 137.912C128.944 137.912 128.984 136.559 129.725 136.496C130.467 136.433 132.744 137.542 134.509 138.261C136.274 138.981 137.104 139.536 136.778 140.527C136.453 141.519 134.428 140.871 134.254 140.886C134.079 140.901 133.39 141.73 133.39 141.73C133.39 141.73 131.937 145.419 132.234 147.13C132.53 148.841 134.504 154.698 134.504 154.698L130.265 158.091L130.262 158.088Z" fill="#202321"/>
<path d="M120.462 140.858C121.123 140.802 121.617 140.17 121.566 139.445C121.514 138.721 120.937 138.179 120.277 138.235C119.616 138.291 119.122 138.923 119.173 139.648C119.224 140.372 119.801 140.914 120.462 140.858Z" fill="#202321"/>
<path d="M99.9726 176.765C99.7685 176.851 99.6648 177.102 99.7429 177.326C99.821 177.549 100.374 177.926 100.374 177.926C100.374 177.926 100.562 177.243 100.484 177.019C100.406 176.795 100.178 176.679 99.9726 176.765ZM100.164 177.319C100.09 177.349 100.008 177.308 99.9804 177.227C99.9528 177.146 99.99 177.056 100.064 177.025C100.138 176.995 100.221 177.036 100.248 177.117C100.276 177.199 100.238 177.289 100.164 177.319Z" fill="white"/>
<path d="M98.938 181.796L98.4836 180.477C98.4678 180.453 98.4565 180.425 98.4364 180.405C98.4129 180.381 98.3822 180.365 98.3505 180.357C98.3158 180.35 98.2798 180.348 98.2441 180.349C98.2333 180.35 98.2224 180.351 98.2116 180.352C98.2023 180.353 98.1933 180.357 98.1856 180.359C98.1856 180.359 98.1856 180.359 98.1841 180.359C98.1766 180.363 98.1674 180.366 98.1583 180.368L97.3354 180.709L97.5528 181.34L98.052 181.134L98.0991 181.271C98.0518 181.35 97.9926 181.417 97.9234 181.472C97.854 181.526 97.779 181.566 97.6998 181.592C97.6191 181.617 97.5373 181.628 97.4514 181.623C97.3653 181.617 97.2812 181.595 97.2005 181.554C97.1101 181.508 97.0326 181.447 96.9665 181.37C96.9002 181.292 96.8521 181.206 96.8189 181.111C96.7858 181.017 96.771 180.917 96.7728 180.812C96.7747 180.706 96.797 180.603 96.8367 180.504C96.878 180.405 96.9327 180.32 97.0039 180.249C97.0752 180.178 97.154 180.126 97.2402 180.089C97.3264 180.053 97.4171 180.037 97.5136 180.037C97.6103 180.039 97.7022 180.062 97.7942 180.107L98.0465 179.492C97.8787 179.409 97.7059 179.365 97.5282 179.362C97.3519 179.358 97.183 179.391 97.0226 179.456C96.8621 179.52 96.7167 179.621 96.5858 179.752C96.4549 179.882 96.3524 180.04 96.2767 180.225C96.201 180.409 96.1615 180.599 96.1597 180.793C96.1577 180.986 96.1864 181.172 96.2488 181.349C96.3111 181.526 96.3986 181.685 96.5162 181.828C96.6338 181.972 96.7772 182.085 96.945 182.168C97.1128 182.251 97.2855 182.294 97.4633 182.298C97.6395 182.302 97.8084 182.269 97.9689 182.204C98.0339 182.176 98.0985 182.144 98.1612 182.106C98.2238 182.066 98.283 182.022 98.337 181.971L98.3604 182.038L98.9367 181.8L98.938 181.796Z" fill="white"/>
<path d="M99.3387 178.502C99.5097 178.431 99.6849 178.399 99.86 178.41C100.037 178.419 100.202 178.463 100.356 178.539C100.511 178.614 100.651 178.722 100.773 178.862C100.897 179.002 100.991 179.164 101.056 179.354C101.12 179.543 101.149 179.733 101.141 179.927C101.133 180.12 101.093 180.301 101.022 180.471C100.952 180.641 100.854 180.792 100.726 180.928C100.6 181.063 100.45 181.166 100.279 181.237C100.109 181.308 99.9333 181.34 99.7581 181.329C99.5816 181.32 99.4165 181.276 99.2633 181.2C99.1084 181.123 98.9699 181.015 98.8481 180.877C98.7245 180.737 98.6321 180.574 98.5658 180.385C98.4995 180.196 98.472 180.005 98.4801 179.812C98.4882 179.618 98.5268 179.437 98.5958 179.268C98.6647 179.098 98.763 178.946 98.889 178.813C99.0149 178.678 99.1648 178.574 99.3358 178.504L99.3387 178.502ZM100.067 180.606C100.159 180.568 100.239 180.513 100.309 180.441C100.377 180.368 100.43 180.287 100.467 180.194C100.506 180.102 100.527 180.002 100.531 179.9C100.534 179.795 100.519 179.692 100.484 179.591C100.449 179.49 100.399 179.4 100.333 179.326C100.267 179.251 100.193 179.193 100.107 179.15C100.023 179.108 99.9327 179.085 99.839 179.081C99.7437 179.077 99.6499 179.093 99.5577 179.132C99.4654 179.17 99.3852 179.225 99.3171 179.297C99.2491 179.37 99.1957 179.451 99.1587 179.545C99.1201 179.637 99.099 179.736 99.0954 179.838C99.0919 179.943 99.1069 180.046 99.1421 180.147C99.1773 180.248 99.2272 180.338 99.2932 180.412C99.3592 180.487 99.4334 180.545 99.5189 180.588C99.6029 180.63 99.6933 180.653 99.787 180.657C99.8823 180.663 99.976 180.645 100.068 180.606L100.067 180.606Z" fill="white"/>
<path d="M98.3286 183.1C98.2912 183.095 98.2645 183.089 98.2484 183.08C98.2227 183.067 98.2058 183.046 98.1961 183.019C98.1864 182.991 98.1875 182.962 98.1978 182.934C98.2098 182.906 98.2285 182.887 98.2539 182.875C98.2793 182.862 98.3057 182.864 98.3283 182.877C98.3507 182.889 98.3674 182.906 98.3752 182.929L98.3495 182.958C98.3387 182.937 98.3269 182.923 98.3125 182.916C98.298 182.908 98.2841 182.908 98.2677 182.916C98.2512 182.924 98.2397 182.935 98.2331 182.951C98.2266 182.969 98.2247 182.986 98.2322 183.004C98.2396 183.022 98.2498 183.034 98.2657 183.041C98.2753 183.046 98.2927 183.051 98.3194 183.057C98.36 183.064 98.3915 183.071 98.4107 183.082C98.4428 183.098 98.4631 183.123 98.4764 183.157C98.4896 183.192 98.4875 183.228 98.4745 183.263C98.46 183.298 98.437 183.322 98.4054 183.335C98.3739 183.347 98.3414 183.347 98.3094 183.331C98.2773 183.315 98.2572 183.293 98.2473 183.262L98.2795 183.237C98.2891 183.263 98.3043 183.28 98.3252 183.292C98.3475 183.302 98.3693 183.304 98.3918 183.295C98.4144 183.286 98.4302 183.27 98.4393 183.245C98.4499 183.221 98.4498 183.197 98.4419 183.172C98.4339 183.147 98.4188 183.13 98.3965 183.12C98.3852 183.114 98.3631 183.108 98.3302 183.1L98.3286 183.1Z" fill="white"/>
<path d="M98.3779 182.527L98.4141 182.512L98.5159 182.809C98.536 182.763 98.5665 182.733 98.6102 182.714C98.657 182.695 98.7005 182.694 98.7408 182.715C98.7812 182.735 98.8099 182.769 98.8274 182.818L98.9273 183.11L98.8911 183.125L98.7914 182.837C98.778 182.8 98.7559 182.773 98.7221 182.757C98.6883 182.741 98.6556 182.741 98.6224 182.754C98.5891 182.767 98.5645 182.793 98.5499 182.828C98.5433 182.844 98.5397 182.86 98.5377 182.875L98.657 183.221L98.6207 183.236L98.3763 182.527L98.3779 182.527Z" fill="white"/>
<path d="M99.4732 182.88L99.4371 182.895L99.4062 182.807C99.4026 182.821 99.3988 182.833 99.3935 182.846C99.3672 182.911 99.3225 182.957 99.2624 182.98C99.2023 183.004 99.142 183.004 99.0827 182.974C99.0235 182.945 98.9829 182.896 98.9597 182.83C98.9365 182.764 98.938 182.698 98.9658 182.631C98.9921 182.566 99.0368 182.522 99.0969 182.496C99.1569 182.471 99.2172 182.473 99.2766 182.503C99.2878 182.509 99.2992 182.517 99.3088 182.523L99.2875 182.462L99.3236 182.447L99.4732 182.88ZM99.3711 182.704L99.3439 182.625C99.3244 182.589 99.2961 182.561 99.2594 182.544C99.2097 182.519 99.1602 182.518 99.1106 182.538C99.061 182.557 99.0235 182.596 99.0026 182.65C98.9802 182.704 98.9794 182.759 98.9987 182.813C99.018 182.867 99.0518 182.908 99.1013 182.931C99.151 182.956 99.2005 182.957 99.25 182.936C99.2995 182.915 99.337 182.878 99.3579 182.823C99.3752 182.783 99.38 182.742 99.3724 182.7L99.3711 182.704Z" fill="white"/>
<path d="M99.4492 182.396L99.4852 182.381L99.5124 182.46C99.516 182.445 99.5212 182.431 99.5262 182.415C99.5461 182.368 99.5716 182.335 99.6045 182.32L99.6199 182.363C99.5975 182.373 99.579 182.397 99.5631 182.434C99.542 182.485 99.5395 182.538 99.5556 182.59L99.6333 182.814L99.5972 182.829L99.4476 182.396L99.4492 182.396Z" fill="white"/>
<path d="M99.7011 182.131C99.7108 182.135 99.7176 182.143 99.7215 182.155C99.7254 182.167 99.7246 182.177 99.7207 182.187C99.7168 182.198 99.7095 182.205 99.6989 182.21C99.6884 182.214 99.679 182.213 99.6693 182.209C99.6597 182.205 99.6529 182.197 99.649 182.185C99.6451 182.173 99.6459 182.163 99.6498 182.153C99.6537 182.142 99.661 182.135 99.6716 182.13C99.6821 182.126 99.6915 182.127 99.7011 182.131ZM99.7426 182.278L99.8931 182.713L99.8568 182.728L99.7063 182.293L99.7426 182.278Z" fill="white"/>
<path d="M99.9403 182.304L100.057 182.64L100.021 182.655L99.8711 182.222L99.9071 182.207L99.9169 182.235C99.9381 182.186 99.9697 182.152 100.013 182.133C100.06 182.114 100.103 182.114 100.143 182.134C100.183 182.155 100.212 182.188 100.229 182.237L100.328 182.527L100.292 182.542L100.193 182.255C100.18 182.219 100.158 182.192 100.124 182.177C100.091 182.161 100.058 182.16 100.025 182.173C99.9922 182.186 99.9678 182.212 99.9533 182.247C99.9453 182.266 99.9405 182.285 99.9403 182.304Z" fill="white"/>
<path d="M100.814 182.231C100.811 182.243 100.807 182.255 100.802 182.268C100.775 182.333 100.73 182.38 100.67 182.403C100.609 182.427 100.549 182.427 100.489 182.396C100.429 182.367 100.389 182.318 100.365 182.252C100.342 182.186 100.343 182.119 100.371 182.054C100.398 181.988 100.443 181.944 100.503 181.918C100.564 181.893 100.624 181.894 100.684 181.923C100.695 181.929 100.707 181.937 100.716 181.943L100.695 181.881L100.731 181.866L100.848 182.204C100.87 182.269 100.868 182.334 100.843 182.397C100.817 182.462 100.772 182.507 100.711 182.533C100.651 182.558 100.59 182.557 100.531 182.526C100.518 182.52 100.506 182.513 100.497 182.505L100.53 182.475C100.53 182.475 100.542 182.482 100.548 182.485C100.598 182.51 100.648 182.511 100.698 182.491C100.748 182.472 100.784 182.433 100.806 182.38C100.826 182.33 100.83 182.281 100.816 182.231L100.814 182.231ZM100.752 182.045C100.732 182.01 100.704 181.983 100.667 181.966C100.617 181.941 100.567 181.94 100.517 181.96C100.467 181.979 100.43 182.018 100.409 182.073C100.386 182.127 100.385 182.182 100.405 182.237C100.424 182.291 100.458 182.333 100.508 182.356C100.558 182.38 100.608 182.381 100.657 182.362C100.707 182.342 100.745 182.303 100.766 182.249C100.782 182.21 100.787 182.169 100.782 182.128L100.753 182.044L100.752 182.045Z" fill="white"/>
<path d="M110.526 190.735C111.306 189.318 120.434 164.346 120.434 164.346C120.434 164.346 121.336 162.406 121.374 162.323C121.412 162.239 122.092 161.716 123.355 162.155C124.618 162.595 128.83 164.169 128.83 164.169L125.093 170.154C125.093 170.154 123.527 170.382 122.516 170.179C121.506 169.976 120.703 171.489 119.864 173.712C119.025 175.936 113.055 191.799 113.055 191.799" fill="black"/>
<ellipse opacity="0.5" cx="104.892" cy="221.566" rx="9.45249" ry="1.14826" fill="url(#paint2_radial_21707_140788)"/>
</g>
<defs>
<radialGradient id="paint0_radial_21707_140788" cx="0" cy="0" r="1" gradientUnits="userSpaceOnUse" gradientTransform="translate(250.054 212.675) rotate(90) scale(0.685513 5.64315)">
<stop/>
<stop offset="1" stop-color="#D9D9D9" stop-opacity="0"/>
</radialGradient>
<radialGradient id="paint1_radial_21707_140788" cx="0" cy="0" r="1" gradientUnits="userSpaceOnUse" gradientTransform="translate(230.263 219.764) rotate(90) scale(0.789119 6.49602)">
<stop/>
<stop offset="1" stop-color="#D9D9D9" stop-opacity="0"/>
</radialGradient>
<radialGradient id="paint2_radial_21707_140788" cx="0" cy="0" r="1" gradientUnits="userSpaceOnUse" gradientTransform="translate(104.782 221.779) rotate(90) scale(1.14826 9.45249)">
<stop/>
<stop offset="1" stop-color="#D9D9D9" stop-opacity="0"/>
</radialGradient>
<clipPath id="clip0_21707_140788">
<rect width="77.3413" height="53.4729" fill="white" transform="matrix(0.996448 -0.0842084 0.0705251 0.99751 214.282 165.514)"/>
</clipPath>
<clipPath id="clip1_21707_140788">
<rect width="89.0302" height="61.5546" fill="white" transform="matrix(0.996448 -0.0842084 0.0705251 0.99751 189.019 165.498)"/>
</clipPath>
<clipPath id="clip2_21707_140788">
<rect width="129.55" height="89.5693" fill="white" transform="matrix(0.996448 -0.0842084 0.0705251 0.99751 44.5013 142.91)"/>
</clipPath>
</defs>
</svg>
