<svg width="343" height="233" viewBox="0 0 343 233" fill="none" xmlns="http://www.w3.org/2000/svg">
<path d="M171.408 215.395C258.501 215.395 329.103 207.94 329.103 198.743C329.103 189.547 258.501 182.092 171.408 182.092C84.3153 182.092 13.7126 189.547 13.7126 198.743C13.7126 207.94 84.3153 215.395 171.408 215.395Z" fill="#F3F3F3"/>
<path d="M158.553 194.211H94.2405V196.871H158.553V194.211Z" fill="#F1F1F1"/>
<path d="M280.151 194.211H215.838V196.871H280.151V194.211Z" fill="#F1F1F1"/>
<path d="M80.1957 184.997L81.7269 102.922H83.4383V183.125V184.997H80.1957Z" fill="#686867"/>
<path d="M95.416 157.21C95.416 157.21 84.337 169.822 69.0245 156.422C53.7121 143.022 64.9712 124.499 67.3132 118.094C69.6551 111.69 74.7892 108.438 73.258 97.6987C71.7267 86.959 71.9069 83.3134 74.6091 75.234C77.3113 67.1546 81.4546 51.8825 83.8866 53.0649C86.3186 54.2472 91.5429 54.7399 91.9031 64.5928C92.2634 74.4458 91.5429 77.4016 95.5061 86.2693C99.4693 95.0384 100.64 102.724 99.4693 110.212C98.2083 117.7 98.5686 119.769 101.451 126.272C104.333 132.775 108.026 136.421 104.333 145.781C100.37 155.141 95.416 157.21 95.416 157.21Z" fill="#E9CD03"/>
<path d="M93.8854 186.573C93.7053 186.77 89.5619 187.755 87.22 186.573C84.4277 185.095 87.22 174.848 87.22 174.848C87.22 174.848 90.1924 165.192 90.913 164.404C91.6336 163.616 92.2641 169.33 93.345 172.385C94.4259 175.439 93.8854 179.479 94.4259 181.745C94.9663 184.011 95.0564 184.405 94.606 185.489C94.2457 186.277 93.8854 186.573 93.8854 186.573Z" fill="#0B9D99"/>
<path d="M77.2231 187.852C77.0429 188.049 72.8996 189.035 70.5577 187.852C67.7654 186.374 70.5577 176.127 70.5577 176.127C70.5577 176.127 73.5301 166.471 74.2507 165.683C74.9713 164.895 75.6018 170.61 76.6826 173.664C77.7635 176.719 77.2231 180.758 77.7635 183.024C78.304 185.291 78.394 185.685 77.9437 186.769C77.6735 187.655 77.2231 187.852 77.2231 187.852Z" fill="#0B9D99"/>
<path d="M96.2278 186.573C96.408 186.77 100.551 187.755 102.893 186.573C105.686 185.095 102.893 174.848 102.893 174.848C102.893 174.848 99.9208 165.192 99.2002 164.404C98.4796 163.616 97.8491 169.33 96.7683 172.385C95.6874 175.439 96.2278 179.479 95.6874 181.745C95.1469 184.011 95.0569 184.405 95.5072 185.489C95.7775 186.277 96.2278 186.573 96.2278 186.573Z" fill="#0B9D99"/>
<path d="M111.45 186.079C111.359 186.276 107.937 187.065 105.955 186.079C103.613 184.897 105.955 176.423 105.955 176.423C105.955 176.423 108.387 168.344 109.018 167.753C109.558 167.162 110.188 171.792 110.999 174.354C111.9 176.916 111.45 180.266 111.9 182.138C112.35 184.01 112.35 184.404 112.08 185.192C111.81 185.784 111.45 186.079 111.45 186.079Z" fill="#0B9D99"/>
<path d="M66.4139 188.247C66.3238 188.444 62.901 189.233 60.9194 188.247C58.5775 187.065 60.9194 178.591 60.9194 178.591C60.9194 178.591 63.3514 170.512 63.9819 169.921C64.5223 169.33 65.1528 173.96 65.9635 176.522C66.8642 179.084 66.4139 182.434 66.8642 184.306C67.3146 186.178 67.3146 186.572 67.0444 187.36C66.7742 188.05 66.4139 188.247 66.4139 188.247Z" fill="#0B9D99"/>
<path d="M56.5948 191.794C56.5047 191.893 53.172 192.779 51.2805 191.794C49.0286 190.612 51.2805 182.532 51.2805 182.532C51.2805 182.532 53.6224 174.847 54.1628 174.256C54.7033 173.665 55.2437 178.197 56.1444 180.66C56.9551 183.123 56.5948 186.276 56.9551 188.148C57.4055 189.922 57.4055 190.316 57.1352 191.104C56.865 191.597 56.5948 191.794 56.5948 191.794Z" fill="#0B9D99"/>
<path d="M268.933 93.68C269.273 96.3756 279.81 110.876 285.758 111.341C285.843 111.341 285.928 111.341 286.098 111.341C286.523 111.341 286.948 111.155 287.373 110.969C289.497 109.482 298.079 103.347 301.053 99.6288L300.544 95.8178C296.04 97.491 286.098 104.183 286.098 104.183C286.098 104.183 285.673 104.369 285.503 104.09C277.686 96.0967 274.117 93.1222 271.568 90.9844L268.933 93.68Z" fill="#D7A887"/>
<path d="M254.064 190.35C254.489 191.558 253.724 196.02 253.639 197.414C254.489 198.715 256.613 197.693 256.868 196.298C256.868 196.112 257.038 196.112 257.038 195.741C256.783 194.904 257.293 191.651 257.887 189.885L254.064 190.35Z" fill="#F8AB90"/>
<path d="M267.234 192.302C267.574 193.51 266.554 196.485 266.469 197.972C267.234 199.366 269.443 198.436 269.783 197.042C269.783 196.856 269.953 196.856 269.953 196.485C269.613 195.555 270.378 192.952 271.143 191.279L267.234 192.302Z" fill="#F8AB90"/>
<path d="M267.064 122.959H275.052C279.045 136.158 280.235 151.123 277.856 165.995C277.686 167.111 277.431 168.226 277.091 169.342L274.372 192.393C272.332 193.323 266.384 192.672 264.345 192.115C267.064 183.563 268.594 176.034 269.188 167.761C269.443 166.46 269.443 163.764 269.443 163.764C270.378 150.937 267.659 126.212 267.064 122.959Z" fill="#8BA943"/>
<path d="M260.606 192.209C257.887 193.046 254.148 191.651 252.023 190.722L257.207 165.067C257.292 164.603 257.292 164.045 257.292 163.58L255.422 132.813C255.422 132.07 255.422 131.326 255.507 130.582C255.847 127.887 256.442 123.983 257.462 122.682H267.914C270.888 137.926 270.378 150.939 269.188 158.282C269.103 158.933 268.508 166.09 267.829 168.135L260.606 192.209Z" fill="#8BA943"/>
<path d="M275.051 123.147L257.291 123.426L257.206 122.589L274.966 122.496L275.051 123.147Z" fill="#778E30"/>
<path d="M261.711 72.1152L267.829 72.7659C266.045 75.8333 264.685 78.5289 266.725 80.6667L260.862 80.109C262.901 78.6218 262.561 74.9967 261.711 72.1152Z" fill="#ECBC97"/>
<path d="M267.831 59.4746C267.831 59.4746 270.125 62.542 269.615 64.7728C269.53 65.1446 269.53 65.4235 269.445 65.6094C269.19 66.9107 269.19 66.8178 270.465 67.4684C271.145 67.8402 270.55 68.4909 270.21 68.7697C270.04 68.9556 269.955 69.1415 269.955 69.4204C269.955 69.6992 270.04 69.9781 270.04 69.9781C270.04 70.0711 270.295 70.8146 269.615 70.8146C266.216 70.9076 269.02 70.8146 269.785 71.0935C269.785 71.0935 270.125 71.2794 270.04 71.4653C269.955 71.6512 269.7 71.9301 269.615 72.2089C269.53 72.4878 269.53 73.3244 269.36 73.6962C269.19 74.068 267.236 74.7186 266.046 74.3468C265.111 74.0679 263.922 73.7891 263.412 73.6962C263.242 73.6962 262.902 73.2314 262.817 73.0455C262.562 72.8596 261.882 72.6737 261.373 72.3019C260.353 71.5583 261.203 71.1865 261.288 70.7217C261.373 70.257 261.543 69.4204 261.373 69.1415C261.203 68.8627 260.353 67.7473 260.183 67.2825C259.928 66.5389 260.353 65.2376 260.693 64.7728C261.033 64.3081 261.713 64.1222 262.137 64.494C262.477 64.7728 262.902 64.7729 263.072 64.4011C263.327 63.9363 265.536 60.776 265.961 60.4971C266.386 60.2183 267.831 59.4746 267.831 59.4746Z" fill="#ECBC97"/>
<path d="M269.953 61.426C269.868 61.7978 269.698 62.0767 269.529 62.3555C269.274 62.8203 268.849 63.1921 268.339 63.378C266.809 64.0286 265.535 64.6793 264.09 64.5863C263.495 64.4934 262.986 64.8652 262.731 65.5158C262.561 66.0735 262.221 66.4454 261.881 66.8172C261.286 67.4678 261.116 68.4903 261.371 69.3269C261.796 70.5352 263.495 74.9039 263.071 75.9264C264.005 84.5708 255.848 94.5166 248.71 87.8241C245.311 83.8272 251.939 77.0418 252.109 72.859C251.854 67.5608 255.763 63.0062 256.188 61.8908C256.358 61.519 256.528 61.2401 256.782 60.9613C257.802 59.8459 258.652 58.3586 259.502 57.708C260.266 57.0573 261.116 56.6855 262.051 56.3137C263.495 55.756 265.11 55.9419 266.469 56.8714C267.914 57.8009 269.189 59.1023 269.698 60.2177C270.038 60.5895 270.123 61.0542 269.953 61.426Z" fill="#BC9D02"/>
<path d="M262.222 66.5388C262.052 66.167 261.797 65.8882 261.542 65.7952C261.457 65.7023 261.287 65.7952 261.202 65.7952C260.437 66.167 260.267 66.8177 260.607 67.6542C260.607 67.6542 260.607 67.6542 260.607 67.7472C261.117 68.5837 261.457 68.7696 262.137 69.1414L262.222 66.5388Z" fill="#ECBC97"/>
<path d="M253.64 194.811C254.914 195.462 256.189 195.462 257.548 194.625C257.633 194.625 257.718 194.625 257.718 194.718C258.483 196.205 259.248 198.157 260.437 199.273C261.712 200.202 263.242 200.853 264.941 201.41C265.111 201.503 265.366 201.596 265.621 201.503C266.471 201.503 267.065 201.596 267.66 201.968C267.745 201.968 267.83 202.061 267.915 202.061C268.255 202.247 268.425 202.712 268.51 203.269C268.51 203.641 268.34 203.92 268.085 204.106C266.726 204.943 264.941 205.314 262.817 205.314L258.908 204.757L252.705 204.199L252.025 203.92C251.94 203.827 251.855 203.734 251.855 203.641C251.855 202.526 252.025 201.317 252.45 200.109C252.535 199.737 252.79 199.273 252.96 198.901C253.47 197.878 253.64 196.577 253.555 195.09C253.47 194.811 253.555 194.718 253.64 194.811Z" fill="#F6921E"/>
<path d="M251.856 202.061C251.686 202.061 251.601 203.362 251.686 203.641C251.771 204.013 252.961 204.198 253.216 204.198C254.151 204.384 255.255 204.384 256.275 204.477L259.759 204.849C260.779 205.035 261.883 205.221 263.073 205.221C264.008 205.221 264.942 205.128 265.877 204.849C266.642 204.663 267.322 204.384 268.001 203.92C268.086 203.827 268.171 203.827 268.171 203.641C268.341 203.176 268.341 202.432 267.661 202.061C266.897 202.525 265.707 202.804 264.432 203.083C263.498 203.269 262.393 203.362 261.203 203.269C259.334 203.176 257.55 203.083 255.935 202.711C254.491 202.618 253.046 202.432 251.856 202.061Z" fill="#CD751D"/>
<path d="M265.366 201.41C265.281 202.061 265.281 202.526 265.536 202.898C266.471 202.712 267.236 202.433 267.915 202.061C267.236 201.596 266.386 201.317 265.366 201.41Z" fill="#F05A24"/>
<path d="M257.38 196.39C257.567 196.39 257.72 196.224 257.72 196.018C257.72 195.813 257.567 195.646 257.38 195.646C257.192 195.646 257.04 195.813 257.04 196.018C257.04 196.224 257.192 196.39 257.38 196.39Z" fill="#D7CCC2"/>
<path d="M257.974 197.693C258.162 197.693 258.314 197.526 258.314 197.321C258.314 197.116 258.162 196.949 257.974 196.949C257.787 196.949 257.634 197.116 257.634 197.321C257.634 197.526 257.787 197.693 257.974 197.693Z" fill="#D7CCC2"/>
<path d="M258.486 198.808C258.674 198.808 258.826 198.642 258.826 198.436C258.826 198.231 258.674 198.064 258.486 198.064C258.299 198.064 258.146 198.231 258.146 198.436C258.146 198.642 258.299 198.808 258.486 198.808Z" fill="#D7CCC2"/>
<path d="M259.335 199.923C259.523 199.923 259.675 199.757 259.675 199.551C259.675 199.346 259.523 199.18 259.335 199.18C259.148 199.18 258.995 199.346 258.995 199.551C258.995 199.757 259.148 199.923 259.335 199.923Z" fill="#D7CCC2"/>
<path d="M260.267 200.665C260.454 200.665 260.607 200.499 260.607 200.294C260.607 200.088 260.454 199.922 260.267 199.922C260.079 199.922 259.927 200.088 259.927 200.294C259.927 200.499 260.079 200.665 260.267 200.665Z" fill="#D7CCC2"/>
<path d="M261.598 201.231C261.741 201.1 261.76 200.865 261.64 200.708C261.519 200.55 261.305 200.53 261.161 200.662C261.017 200.793 260.998 201.028 261.119 201.185C261.239 201.343 261.454 201.363 261.598 201.231Z" fill="#D7CCC2"/>
<path d="M262.618 201.635C262.726 201.536 262.74 201.36 262.649 201.242C262.559 201.124 262.398 201.109 262.29 201.208C262.182 201.307 262.168 201.482 262.259 201.6C262.349 201.718 262.51 201.734 262.618 201.635Z" fill="#D7CCC2"/>
<path d="M263.966 201.926C264.035 201.792 263.992 201.622 263.87 201.546C263.747 201.47 263.591 201.518 263.522 201.652C263.453 201.786 263.496 201.956 263.619 202.032C263.741 202.107 263.897 202.06 263.966 201.926Z" fill="#D7CCC2"/>
<path d="M258.059 196.948C258.314 196.855 258.654 196.855 258.824 197.041C258.909 197.227 258.994 197.413 259.078 197.505C258.824 197.32 258.399 197.413 258.229 197.413C258.314 197.227 258.229 197.041 258.059 196.948Z" fill="#686461"/>
<path d="M258.569 198.065C258.824 197.972 259.164 197.786 259.419 197.879C259.504 197.972 259.589 198.065 259.674 198.251C259.334 198.158 258.909 198.344 258.824 198.437C258.824 198.251 258.739 198.158 258.569 198.065Z" fill="#686461"/>
<path d="M259.334 199.179C259.504 198.993 259.929 198.9 260.184 198.9C260.269 198.993 260.354 199.086 260.524 199.179C260.184 199.179 259.759 199.365 259.589 199.551C259.589 199.365 259.504 199.179 259.334 199.179Z" fill="#686461"/>
<path d="M260.353 199.923C260.523 199.737 260.778 199.644 261.118 199.551C261.203 199.644 261.373 199.644 261.543 199.83C261.203 199.923 260.863 200.201 260.693 200.294C260.608 200.201 260.523 200.016 260.353 199.923Z" fill="#686461"/>
<path d="M261.374 200.573C261.544 200.294 261.714 200.201 261.969 200.201C262.139 200.294 262.139 200.294 262.308 200.387C262.054 200.573 261.799 200.852 261.714 200.945C261.714 200.759 261.629 200.573 261.374 200.573Z" fill="#686461"/>
<path d="M262.477 201.131C262.647 200.852 262.902 200.759 263.072 200.666C263.242 200.759 263.327 200.759 263.497 200.852C263.242 201.038 262.987 201.317 262.817 201.41C262.732 201.317 262.647 201.131 262.477 201.131Z" fill="#686461"/>
<path d="M263.584 201.596C263.669 201.224 263.669 201.131 263.839 200.945C264.009 200.945 264.179 201.038 264.179 201.038C264.094 201.317 264.094 201.503 264.009 201.689C263.924 201.596 263.754 201.41 263.584 201.596Z" fill="#686461"/>
<path d="M257.466 195.648C257.721 195.555 257.976 195.555 258.146 195.648C258.231 195.834 258.316 196.02 258.401 196.113C258.061 196.02 257.891 195.927 257.721 196.02C257.721 195.927 257.636 195.741 257.466 195.648Z" fill="#686461"/>
<path d="M256.191 195.182C256.191 195.089 256.191 194.996 256.191 194.903C256.191 194.717 256.361 194.531 256.531 194.439C256.786 194.253 257.041 194.067 257.38 193.881C257.465 194.067 257.55 194.346 257.635 194.624C257.38 194.81 257.041 194.903 256.871 194.996C256.701 194.996 256.446 195.089 256.191 195.182Z" fill="#F05A24"/>
<path d="M266.471 195.461C267.746 196.112 269.021 196.112 270.38 195.275C270.465 195.275 270.55 195.275 270.55 195.368C271.315 196.856 272.08 198.808 273.269 199.923C274.544 200.852 276.073 201.503 277.773 202.061C277.943 202.154 278.198 202.247 278.453 202.154C279.302 202.154 279.897 202.247 280.492 202.618C280.577 202.618 280.662 202.711 280.747 202.711C281.087 202.897 281.257 203.362 281.342 203.92C281.342 204.292 281.172 204.57 280.917 204.756C279.557 205.593 277.773 205.965 275.649 205.965L271.74 205.407L265.537 204.849L264.857 204.57C264.772 204.478 264.687 204.385 264.687 204.292C264.687 203.176 264.857 201.968 265.282 200.759C265.367 200.388 265.622 199.923 265.792 199.551C266.302 198.529 266.471 197.227 266.386 195.74C266.386 195.461 266.471 195.461 266.471 195.461Z" fill="#F6921E"/>
<path d="M264.769 202.805C264.599 202.805 264.514 204.106 264.599 204.385C264.684 204.757 265.874 204.943 266.129 204.943C267.063 205.128 268.168 205.128 269.188 205.221L272.672 205.593C273.691 205.779 274.796 205.965 275.985 205.965C276.92 205.965 277.855 205.872 278.79 205.593C279.554 205.407 280.234 205.128 280.914 204.664C280.999 204.571 281.084 204.571 281.084 204.385C281.254 203.92 281.254 203.176 280.574 202.805C279.809 203.269 278.62 203.548 277.345 203.827C276.41 204.013 275.306 204.106 274.116 204.013C272.247 203.92 270.462 203.827 268.848 203.455C267.403 203.362 265.959 203.176 264.769 202.805Z" fill="#CD751D"/>
<path d="M278.195 202.154C278.11 202.804 278.11 203.269 278.365 203.641C279.299 203.455 280.064 203.176 280.744 202.804C280.064 202.247 279.299 202.061 278.195 202.154Z" fill="#F05A24"/>
<path d="M270.294 197.04C270.482 197.04 270.634 196.874 270.634 196.669C270.634 196.463 270.482 196.297 270.294 196.297C270.106 196.297 269.954 196.463 269.954 196.669C269.954 196.874 270.106 197.04 270.294 197.04Z" fill="#D7CCC2"/>
<path d="M270.803 198.343C270.99 198.343 271.143 198.177 271.143 197.971C271.143 197.766 270.99 197.6 270.803 197.6C270.615 197.6 270.463 197.766 270.463 197.971C270.463 198.177 270.615 198.343 270.803 198.343Z" fill="#D7CCC2"/>
<path d="M271.399 199.55C271.587 199.55 271.739 199.384 271.739 199.178C271.739 198.973 271.587 198.807 271.399 198.807C271.211 198.807 271.059 198.973 271.059 199.178C271.059 199.384 271.211 199.55 271.399 199.55Z" fill="#D7CCC2"/>
<path d="M272.162 200.574C272.35 200.574 272.502 200.407 272.502 200.202C272.502 199.997 272.35 199.83 272.162 199.83C271.974 199.83 271.822 199.997 271.822 200.202C271.822 200.407 271.974 200.574 272.162 200.574Z" fill="#D7CCC2"/>
<path d="M273.181 201.316C273.369 201.316 273.521 201.149 273.521 200.944C273.521 200.739 273.369 200.572 273.181 200.572C272.993 200.572 272.841 200.739 272.841 200.944C272.841 201.149 272.993 201.316 273.181 201.316Z" fill="#D7CCC2"/>
<path d="M274.488 201.88C274.632 201.748 274.651 201.514 274.53 201.356C274.41 201.199 274.196 201.178 274.052 201.31C273.908 201.442 273.889 201.676 274.009 201.834C274.13 201.991 274.344 202.012 274.488 201.88Z" fill="#D7CCC2"/>
<path d="M275.505 202.282C275.613 202.183 275.627 202.007 275.536 201.889C275.446 201.771 275.285 201.755 275.177 201.854C275.069 201.953 275.055 202.129 275.146 202.247C275.236 202.365 275.397 202.38 275.505 202.282Z" fill="#D7CCC2"/>
<path d="M276.919 202.625C276.988 202.491 276.945 202.321 276.822 202.245C276.7 202.169 276.544 202.217 276.475 202.351C276.406 202.485 276.449 202.655 276.572 202.731C276.694 202.807 276.85 202.759 276.919 202.625Z" fill="#D7CCC2"/>
<path d="M270.972 197.598C271.226 197.505 271.566 197.505 271.736 197.691C271.821 197.877 271.906 198.063 271.991 198.156C271.736 197.97 271.311 198.063 271.142 198.063C271.142 197.877 271.142 197.691 270.972 197.598Z" fill="#686461"/>
<path d="M271.484 198.807C271.739 198.714 272.078 198.528 272.333 198.621C272.418 198.714 272.503 198.807 272.588 198.993C272.248 198.9 271.824 199.086 271.739 199.179C271.739 198.993 271.654 198.807 271.484 198.807Z" fill="#686461"/>
<path d="M272.248 199.83C272.418 199.644 272.843 199.551 273.098 199.551C273.183 199.644 273.268 199.737 273.438 199.83C273.098 199.83 272.673 200.016 272.503 200.201C272.503 200.108 272.418 199.923 272.248 199.83Z" fill="#686461"/>
<path d="M273.183 200.667C273.353 200.481 273.608 200.388 273.948 200.295C274.033 200.388 274.203 200.388 274.373 200.574C274.033 200.667 273.693 200.946 273.523 201.039C273.523 200.853 273.438 200.667 273.183 200.667Z" fill="#686461"/>
<path d="M274.288 201.223C274.458 200.944 274.628 200.852 274.883 200.852C275.053 200.945 275.053 200.945 275.223 201.037C274.968 201.223 274.713 201.502 274.628 201.595C274.543 201.409 274.458 201.223 274.288 201.223Z" fill="#686461"/>
<path d="M275.39 201.781C275.56 201.502 275.815 201.409 275.985 201.316C276.155 201.409 276.24 201.409 276.409 201.502C276.155 201.688 275.9 201.967 275.73 202.06C275.645 201.967 275.56 201.781 275.39 201.781Z" fill="#686461"/>
<path d="M276.496 202.246C276.581 201.875 276.581 201.782 276.751 201.596C276.921 201.596 277.091 201.689 277.091 201.689C277.006 201.967 277.006 202.153 276.921 202.339C276.836 202.246 276.666 202.06 276.496 202.246Z" fill="#686461"/>
<path d="M270.379 196.298C270.634 196.205 270.889 196.205 271.058 196.298C271.143 196.484 271.228 196.67 271.313 196.763C270.973 196.67 270.804 196.577 270.634 196.67C270.634 196.577 270.549 196.391 270.379 196.298Z" fill="#686461"/>
<path d="M269.105 195.833C269.105 195.74 269.105 195.647 269.105 195.554C269.105 195.368 269.275 195.182 269.445 195.089C269.7 194.903 269.955 194.717 270.295 194.531C270.38 194.717 270.465 194.996 270.55 195.275C270.295 195.461 269.955 195.554 269.785 195.647C269.615 195.74 269.36 195.833 269.105 195.833Z" fill="#F05A24"/>
<path d="M268.509 94.5167C268.849 97.2123 279.385 111.713 285.334 112.177C285.419 112.177 285.504 112.177 285.673 112.177C286.098 112.177 286.523 111.992 286.948 111.806C289.072 110.318 297.655 104.184 300.629 100.466L298.844 96.9334C294.341 98.6066 285.588 105.113 285.588 105.113C285.588 105.113 285.079 105.299 284.994 105.02C281.425 98.6065 276.241 95.1673 271.058 91.9141L268.509 94.5167Z" fill="#ECBC97"/>
<path d="M308.449 89.7754L304.54 96.5608C304.54 96.5608 304.965 97.3973 305.985 97.3044C306.919 97.2114 308.279 94.6089 308.364 94.1441C308.534 93.5864 308.279 93.1216 308.449 92.7498C308.619 92.378 308.534 91.4485 308.534 91.4485C308.449 91.4485 309.299 90.1472 308.449 89.7754Z" fill="#D7A887"/>
<path d="M303.433 96.5616L305.473 87.5453C305.558 87.2665 305.728 87.0806 305.898 86.8947L308.872 85.0357C309.042 84.9427 309.297 84.9427 309.382 85.1286C309.466 85.2216 309.466 85.4075 309.466 85.5004L307.342 94.9814L303.433 96.5616Z" fill="#1A2E35"/>
<path d="M307.255 95.8189C307.255 95.8189 307.34 95.7259 307.34 95.4471C307.34 95.1682 307.34 94.7964 307.255 94.3316C307.34 94.1457 307.34 94.0528 307.34 93.8669C307.255 93.681 307.17 93.4951 307 93.4021H306.915V93.3092C307.085 93.0304 307.255 92.7515 307.425 92.3797C307.51 92.2867 307.51 92.1938 307.51 92.1938C307.51 92.1008 307.51 92.0079 307.51 91.9149C307.425 91.729 307.34 91.6361 307.17 91.5431V91.4502L307.255 91.3573C307.425 91.1714 307.595 90.9854 307.765 90.7995C308.02 90.4277 308.36 90.1489 308.53 89.7771C308.615 89.5912 308.785 89.4052 308.785 89.2193C308.785 89.1264 308.87 89.0334 308.87 88.9405C308.87 88.8475 308.87 88.8476 308.785 88.8476C308.7 88.8476 308.615 88.8475 308.53 88.9405C308.445 88.9405 308.36 89.0335 308.275 89.0335C308.105 89.1264 307.935 89.2194 307.765 89.3123C307.425 89.4982 307.17 89.7771 307 89.87C306.83 90.0559 306.66 90.1489 306.491 90.2418C306.406 90.3348 306.321 90.4277 306.321 90.3348C306.321 90.3348 306.406 90.2418 306.491 90.1488C306.575 90.0559 306.745 89.87 306.915 89.6841C307.085 89.4982 307.34 89.3123 307.68 89.0335C307.85 88.9405 308.02 88.8476 308.19 88.6617C308.275 88.5687 308.36 88.5687 308.445 88.4757C308.53 88.4757 308.7 88.3828 308.785 88.3828C308.955 88.3828 309.04 88.5687 308.955 88.6617C308.955 88.7546 308.955 88.8475 308.87 88.9405C308.785 89.1264 308.7 89.3123 308.53 89.4982C308.275 89.87 308.02 90.1489 307.765 90.5207C307.595 90.7066 307.425 90.8925 307.255 91.0784V90.9854C307.425 91.0784 307.595 91.2643 307.68 91.4502C307.68 91.5431 307.765 91.6361 307.68 91.822C307.68 91.915 307.595 92.0079 307.51 92.1009C307.34 92.3797 307.17 92.7515 306.915 93.0304V92.9374C307.085 93.1233 307.255 93.2163 307.255 93.4951C307.34 93.681 307.255 93.9599 307.17 94.0528C307.255 94.5176 307.255 94.9823 307.255 95.1682C307.34 95.633 307.34 95.7259 307.255 95.8189Z" fill="#C89777"/>
<path d="M309.381 85.1289C309.381 85.1289 309.296 85.2219 309.126 85.3148C308.956 85.4078 308.701 85.5937 308.446 85.7796C308.106 85.9655 307.766 86.2443 307.426 86.4302C307.257 86.5231 307.002 86.7091 306.832 86.802C306.577 86.895 306.407 87.0809 306.237 87.2668C306.067 87.4527 305.982 87.7315 305.897 88.0104C305.812 88.2892 305.812 88.5681 305.727 88.754C305.642 89.2187 305.472 89.6835 305.387 90.0553C305.302 90.4271 305.217 90.706 305.132 90.8919C305.047 91.0778 305.047 91.1707 305.047 91.1707C305.047 91.1707 305.047 91.0777 305.132 90.7989C305.132 90.613 305.217 90.3342 305.302 89.9624C305.387 89.5906 305.472 89.1258 305.557 88.661C305.642 88.3822 305.642 88.1963 305.727 87.9174C305.812 87.6386 305.897 87.3597 306.067 87.0809C306.237 86.895 306.492 86.7091 306.747 86.6161C307.002 86.5231 307.172 86.3373 307.342 86.2443C307.766 85.9655 308.106 85.7796 308.446 85.5937C308.786 85.4078 308.956 85.2219 309.211 85.1289C309.296 85.2219 309.381 85.1289 309.381 85.1289Z" fill="#375A64"/>
<path d="M307.429 88.1968C307.344 88.3827 307.344 88.5686 307.429 88.5686C307.514 88.5686 307.599 88.4756 307.684 88.2897C307.769 88.1038 307.769 87.918 307.684 87.918C307.599 87.918 307.514 88.0109 307.429 88.1968Z" fill="white"/>
<path d="M300.118 96.1898C300.798 95.818 300.798 94.6097 301.138 93.8661C301.393 93.2154 301.732 92.5647 301.987 92.4718C302.412 92.1929 304.792 90.6128 304.792 90.6128L304.537 91.8212L306.831 90.0551C307.086 89.8692 308.7 88.1961 309.04 88.8467C309.21 89.3115 307.936 90.5198 307.766 90.7987C307.341 91.4493 307.511 91.4494 307.511 91.4494C307.511 91.4494 308.021 91.7282 307.766 92.1929C307.511 92.6577 307.086 93.2154 307.086 93.2154C307.086 93.2154 307.681 93.4942 307.341 94.3308C307.341 94.3308 307.511 94.7956 307.426 95.4462C307.341 95.818 307.086 96.2828 306.746 96.6546C306.406 97.1193 305.981 97.3982 305.471 97.5841C303.517 98.3277 301.817 99.1643 300.628 100.28L298.843 96.7476L300.118 96.1898Z" fill="#ECBC97"/>
<path d="M305.22 91.2637C305.22 91.2637 304.71 91.7284 304.03 92.1003C303.35 92.565 302.841 92.8438 302.841 92.8438C302.841 92.8438 303.35 92.3791 304.03 92.0073C304.625 91.5425 305.22 91.2637 305.22 91.2637Z" fill="#C89777"/>
<path d="M307.343 91.3555C307.343 91.3555 306.918 91.9132 306.324 92.5638C305.729 93.2145 305.219 93.6792 305.219 93.6792C305.219 93.6792 305.644 93.1215 306.239 92.4708C306.833 91.8202 307.343 91.3555 307.343 91.3555Z" fill="#C89777"/>
<path d="M307.171 93.0293C307.171 93.0293 307.001 93.4011 306.661 93.7729C306.406 94.1447 306.066 94.4236 306.066 94.4236C306.066 94.4236 306.236 94.0518 306.576 93.68C306.831 93.3082 307.171 93.0293 307.171 93.0293Z" fill="#C89777"/>
<path d="M277.263 122.495H251.941C251.941 122.495 252.876 98.8859 256.105 85.7798C256.529 83.9208 257.974 81.2252 259.249 79.9239C259.758 79.3662 260.353 78.9014 261.033 78.6226C261.458 78.4367 261.968 78.3438 262.478 78.3438L266.811 78.7155C267.321 78.7155 267.746 79.0873 267.916 79.5521L272.25 90.2415C272.505 90.8921 272.844 91.4498 273.354 91.9146L279.727 98.1423L275.564 103.719L275.054 104.37" fill="#131851"/>
<path d="M273.862 103.999C266.894 97.957 266.554 96.7486 266.044 94.7037C265.874 94.0531 265.619 93.2165 265.11 92.1011L265.704 91.8223C266.214 93.0306 266.469 93.7742 266.639 94.5178C267.149 96.4698 267.489 97.4923 274.287 103.441L273.862 103.999Z" fill="black"/>
<path d="M195.294 122.939L201.339 113.447C201.632 112.914 201.339 112.167 200.754 112.167C199.292 112.167 197.927 112.167 196.464 112.274C194.612 112.38 192.857 112.7 191.101 113.127C190.906 113.127 190.711 113.127 190.516 113.02C189.541 112.274 189.444 111.42 190.419 110.354C190.516 110.247 190.614 110.247 190.711 110.141C194.124 109.181 198.707 109.181 203.582 109.394H204.849C205.434 109.394 205.824 110.141 205.434 110.674L197.439 124.539C197.244 124.966 196.757 125.073 196.464 124.753L195.489 124.113C195.197 123.793 195.099 123.366 195.294 122.939Z" fill="#81BB27"/>
<path d="M164.191 62.0391L170.041 64.8121C167.506 67.1586 165.361 69.3984 166.726 72.1715L161.168 69.6117C163.508 68.7584 164.288 65.1321 164.191 62.0391Z" fill="#EDBD98"/>
<path d="M173.745 51.7988C173.745 51.7988 175.11 55.6385 174.038 57.6649C173.843 57.9849 173.745 58.1982 173.648 58.4115C172.965 59.5847 173.063 59.4781 174.038 60.5446C174.623 61.0779 173.843 61.5045 173.453 61.7178C173.258 61.8245 173.063 62.0378 172.965 62.2511C172.965 62.4644 172.868 62.7844 172.868 62.7844C172.868 62.8911 172.868 63.7444 172.185 63.5311C168.87 62.4645 171.6 63.3177 172.283 63.851C172.283 63.851 172.575 64.171 172.38 64.2776C172.185 64.3843 171.99 64.5976 171.795 64.8109C171.6 65.0242 171.405 65.8775 171.113 66.1975C170.82 66.5175 168.773 66.4108 167.7 65.7708C166.92 65.2376 165.75 64.4909 165.263 64.2776C165.068 64.171 164.97 63.6376 164.873 63.4243C164.678 63.1043 164.093 62.6778 163.703 62.1445C162.922 61.0779 163.897 60.9712 164.092 60.6513C164.288 60.2246 164.678 59.478 164.58 59.158C164.483 58.8381 163.995 57.4516 163.995 56.9183C163.995 56.065 164.775 54.9985 165.165 54.6785C165.653 54.3585 166.335 54.3585 166.725 54.8918C167.018 55.3184 167.408 55.4251 167.7 55.1052C168.09 54.7852 171.113 52.4388 171.6 52.3321C171.99 52.2255 173.745 51.7988 173.745 51.7988Z" fill="#EDBD98"/>
<path d="M175.696 54.466C175.501 54.7859 175.209 54.9992 175.014 55.2125C174.624 55.5325 174.136 55.7458 173.551 55.8524C171.894 56.0657 170.431 56.1725 169.066 55.6392C168.481 55.4259 167.896 55.5325 167.506 56.0658C167.116 56.4925 166.726 56.8123 166.238 57.0256C165.458 57.4523 164.971 58.4122 165.068 59.3722C165.068 60.7587 164.483 61.292 163.801 62.1452C163.411 62.3585 163.118 62.3585 162.728 62.0386C161.071 60.2254 160.583 57.559 160.876 54.6792C160.876 52.0128 161.363 51.3729 162.241 50.413C162.533 50.093 162.826 49.8797 163.118 49.6664C164.386 48.9198 165.653 47.7465 166.726 47.4265C167.701 47.1066 168.579 47 169.651 47C171.211 47 172.771 47.7465 173.844 49.0264C175.014 50.4129 175.891 52.1195 176.086 53.3994C175.989 53.7194 175.891 54.146 175.696 54.466Z" fill="#42210B"/>
<path d="M169.164 58.1974C169.067 57.7708 168.969 57.4508 168.677 57.2375C168.579 57.1308 168.482 57.1309 168.287 57.1309C167.409 57.2375 167.019 57.7708 167.214 58.7307C167.214 58.7307 167.214 58.7307 167.214 58.8373C167.409 59.7973 167.702 60.1171 168.287 60.7571L169.164 58.1974Z" fill="#EDBD98"/>
<path d="M146.445 119.953L149.175 146.511L150.735 181.281L159.998 180.108L162.923 150.03C164.386 142.778 164.386 135.312 163.411 127.632L161.461 108.754L147.128 107.154C146.348 111.314 146.055 115.474 146.445 119.953Z" fill="#5E7625"/>
<path d="M153.464 180.853L154.147 185.546C155.512 186.399 156.877 186.186 158.144 185.226L158.242 180L153.464 180.853Z" fill="#EDBD98"/>
<path d="M153.855 185.549L159.023 185.016C162.046 187.362 165.263 187.895 166.726 188.855C167.408 189.282 167.506 190.349 166.921 190.989C166.433 191.415 165.653 191.842 164.483 191.948C160.681 192.482 157.268 192.695 154.538 192.162C154.148 192.055 153.758 191.842 153.66 191.415C152.978 189.709 153.368 187.682 153.855 185.549Z" fill="#F7931E"/>
<path d="M212.847 155.895L195.101 124.218C194.906 123.791 195.004 123.364 195.394 123.151L200.051 118.688L220.225 154.188L221.005 155.895L213.822 157.708L212.847 155.895Z" fill="#81BB27"/>
<path d="M143.719 203.25C131.531 203.25 121.585 192.371 121.585 179.039C121.585 165.707 131.531 154.828 143.719 154.828C155.907 154.828 165.852 165.707 165.852 179.039C165.852 192.371 155.907 203.25 143.719 203.25ZM143.719 156.748C132.506 156.748 123.34 166.774 123.34 179.039C123.34 191.305 132.506 201.33 143.719 201.33C154.932 201.33 164.097 191.305 164.097 179.039C163.999 166.774 154.932 156.748 143.719 156.748Z" fill="#20505A"/>
<path d="M122.364 177.119L139.914 178.826V179.252L122.364 177.439V177.119Z" fill="#20505A"/>
<path d="M127.045 165.707L141.183 177.119L141.086 177.333L126.85 165.92L127.045 165.707Z" fill="#20505A"/>
<path d="M138.549 157.281L142.547 176.053L142.254 176.16L138.257 157.388L138.549 157.281Z" fill="#20505A"/>
<path d="M149.081 156.641L144.889 175.412L144.596 175.306L148.789 156.641H149.081Z" fill="#20505A"/>
<path d="M159.803 163.575L146.738 176.587L146.445 176.267L159.511 163.361L159.803 163.575Z" fill="#20505A"/>
<path d="M164.387 177.654L146.836 178.934L146.739 178.614L164.387 177.334V177.654Z" fill="#20505A"/>
<path d="M162.533 189.387L146.445 181.281L146.543 180.961L162.631 189.067L162.533 189.387Z" fill="#20505A"/>
<path d="M154.928 198.557L145.275 182.452L145.567 182.238L155.123 198.343L154.928 198.557Z" fill="#20505A"/>
<path d="M124.899 188.636L140.695 181.49L140.89 181.81L124.997 188.956L124.899 188.636Z" fill="#20505A"/>
<path d="M133.478 198.662L142.156 182.557L142.448 182.77L133.673 198.875L133.478 198.662Z" fill="#20505A"/>
<path d="M143.426 201.651L143.719 182.879H144.011L143.719 201.544L143.426 201.651Z" fill="#20505A"/>
<path d="M143.717 183.306C145.871 183.306 147.618 181.396 147.618 179.04C147.618 176.684 145.871 174.773 143.717 174.773C141.563 174.773 139.817 176.684 139.817 179.04C139.817 181.396 141.563 183.306 143.717 183.306Z" fill="#20505A"/>
<path d="M221.038 203.573C208.85 203.573 198.905 192.694 198.905 179.362C198.905 166.029 208.85 155.15 221.038 155.15C233.226 155.15 243.171 166.029 243.171 179.362C243.171 192.694 233.226 203.573 221.038 203.573ZM221.038 157.07C209.825 157.07 200.66 167.096 200.66 179.362C200.66 191.627 209.825 201.653 221.038 201.653C232.251 201.653 241.416 191.627 241.416 179.362C241.416 167.096 232.251 157.07 221.038 157.07Z" fill="#20505A"/>
<path d="M199.683 177.441L217.234 179.148V179.575L199.683 177.761V177.441Z" fill="#20505A"/>
<path d="M204.364 166.029L218.502 177.442L218.405 177.655L204.169 166.243L204.364 166.029Z" fill="#20505A"/>
<path d="M215.869 157.604L219.964 176.375L219.574 176.482L215.576 157.71L215.869 157.604Z" fill="#20505A"/>
<path d="M226.401 156.965L222.208 175.736L221.915 175.63L226.108 156.965H226.401Z" fill="#20505A"/>
<path d="M237.124 163.897L224.059 176.909L223.864 176.589L236.929 163.684L237.124 163.897Z" fill="#20505A"/>
<path d="M241.707 177.976L224.157 179.256L224.059 178.936L241.707 177.656V177.976Z" fill="#20505A"/>
<path d="M239.854 189.709L223.864 181.603L223.961 181.283L239.952 189.389L239.854 189.709Z" fill="#20505A"/>
<path d="M232.253 198.879L222.6 182.774L222.893 182.561L232.546 198.666L232.253 198.879Z" fill="#20505A"/>
<path d="M202.219 188.961L218.014 181.814L218.209 182.134L202.316 189.28L202.219 188.961Z" fill="#20505A"/>
<path d="M210.799 198.986L219.574 182.881L219.769 183.094L211.091 199.199L210.799 198.986Z" fill="#20505A"/>
<path d="M220.745 201.973L221.037 183.201H221.33L221.037 201.866L220.745 201.973Z" fill="#20505A"/>
<path d="M221.037 183.63C223.191 183.63 224.937 181.72 224.937 179.364C224.937 177.008 223.191 175.098 221.037 175.098C218.883 175.098 217.137 177.008 217.137 179.364C217.137 181.72 218.883 183.63 221.037 183.63Z" fill="#20505A"/>
<path d="M142.546 175.095L164.387 146.617L165.849 149.07L144.594 176.588L142.546 175.095Z" fill="#81BB27"/>
<path d="M160.585 134.459L171.993 172.855L174.236 172.428L161.755 132.219L160 132.965L160.585 134.459Z" fill="#81BB27"/>
<path d="M165.652 145.763L191.881 137.55L202.801 133.924L204.459 137.87L166.725 148.002L165.652 145.763Z" fill="#81BB27"/>
<path d="M206.187 133.341C206.035 133.508 206.031 133.773 206.179 133.932C206.328 134.09 206.954 134.165 206.954 134.165C206.954 134.165 206.882 133.487 206.733 133.328C206.584 133.17 206.34 133.173 206.187 133.341ZM206.553 133.734C206.498 133.794 206.41 133.796 206.357 133.738C206.303 133.68 206.305 133.585 206.36 133.525C206.416 133.465 206.504 133.463 206.557 133.521C206.61 133.579 206.609 133.674 206.553 133.734Z" fill="white"/>
<path d="M207.117 138.157L206.25 137.224C206.227 137.211 206.207 137.192 206.182 137.183C206.153 137.173 206.12 137.173 206.089 137.181C206.056 137.191 206.023 137.205 205.992 137.222C205.982 137.228 205.973 137.234 205.964 137.239C205.956 137.244 205.949 137.252 205.943 137.258C205.943 137.258 205.943 137.258 205.942 137.258C205.937 137.265 205.929 137.272 205.922 137.278L205.31 137.946L205.725 138.391L206.096 137.987L206.187 138.084C206.172 138.174 206.143 138.258 206.101 138.337C206.058 138.415 206.006 138.484 205.944 138.542C205.881 138.601 205.812 138.647 205.734 138.682C205.655 138.715 205.573 138.735 205.487 138.736C205.39 138.738 205.3 138.72 205.214 138.684C205.128 138.646 205.055 138.594 204.992 138.527C204.929 138.46 204.881 138.381 204.846 138.289C204.81 138.197 204.794 138.098 204.794 137.994C204.796 137.89 204.815 137.792 204.854 137.699C204.892 137.605 204.944 137.524 205.008 137.453C205.072 137.383 205.147 137.328 205.233 137.284C205.319 137.242 205.409 137.22 205.507 137.218L205.515 136.572C205.336 136.576 205.168 136.617 205.008 136.694C204.85 136.771 204.711 136.876 204.592 137.005C204.472 137.134 204.378 137.287 204.307 137.459C204.237 137.631 204.201 137.813 204.199 138.008C204.196 138.201 204.227 138.382 204.294 138.551C204.36 138.719 204.451 138.866 204.568 138.991C204.686 139.116 204.82 139.213 204.975 139.283C205.13 139.354 205.297 139.386 205.475 139.382C205.653 139.377 205.822 139.337 205.982 139.259C206.14 139.183 206.278 139.077 206.398 138.949C206.446 138.895 206.492 138.838 206.535 138.777C206.577 138.714 206.614 138.649 206.644 138.581L206.688 138.628L207.117 138.161L207.117 138.157Z" fill="white"/>
<path d="M206.273 135.155C206.4 135.017 206.545 134.91 206.705 134.839C206.865 134.767 207.027 134.73 207.191 134.725C207.356 134.721 207.518 134.75 207.675 134.815C207.834 134.88 207.975 134.978 208.099 135.112C208.223 135.246 208.316 135.397 208.377 135.568C208.438 135.739 208.465 135.913 208.462 136.092C208.459 136.271 208.425 136.446 208.359 136.621C208.295 136.795 208.198 136.952 208.071 137.091C207.943 137.229 207.799 137.336 207.639 137.406C207.479 137.479 207.317 137.516 207.154 137.52C206.989 137.523 206.828 137.493 206.671 137.429C206.512 137.364 206.372 137.265 206.247 137.132C206.122 136.999 206.03 136.847 205.97 136.676C205.909 136.505 205.88 136.332 205.881 136.154C205.883 135.976 205.917 135.8 205.982 135.628C206.047 135.454 206.144 135.297 206.271 135.158L206.273 135.155ZM207.66 136.642C207.728 136.567 207.781 136.484 207.817 136.39C207.852 136.296 207.871 136.202 207.871 136.104C207.873 136.007 207.857 135.912 207.824 135.822C207.791 135.73 207.741 135.648 207.674 135.577C207.607 135.505 207.532 135.451 207.447 135.416C207.362 135.381 207.275 135.365 207.184 135.367C207.095 135.368 207.006 135.389 206.921 135.428C206.835 135.468 206.758 135.525 206.689 135.6C206.621 135.675 206.568 135.759 206.533 135.852C206.498 135.945 206.479 136.04 206.479 136.137C206.477 136.234 206.493 136.33 206.526 136.42C206.56 136.512 206.609 136.594 206.676 136.665C206.743 136.736 206.819 136.791 206.904 136.826C206.989 136.86 207.075 136.877 207.166 136.875C207.256 136.873 207.344 136.852 207.429 136.813C207.516 136.775 207.593 136.717 207.661 136.642L207.66 136.642Z" fill="white"/>
<path d="M207.056 139.606C207.021 139.619 206.994 139.625 206.977 139.625C206.949 139.625 206.927 139.615 206.908 139.595C206.889 139.575 206.88 139.55 206.879 139.52C206.88 139.49 206.89 139.466 206.909 139.443C206.927 139.421 206.951 139.41 206.976 139.411C207.001 139.411 207.022 139.418 207.037 139.435L207.024 139.472C207.007 139.459 206.991 139.452 206.976 139.452C206.96 139.452 206.948 139.458 206.936 139.473C206.924 139.488 206.917 139.503 206.917 139.519C206.918 139.538 206.922 139.553 206.935 139.566C206.948 139.578 206.962 139.584 206.979 139.583C206.989 139.583 207.006 139.579 207.032 139.572C207.071 139.56 207.102 139.552 207.123 139.552C207.158 139.551 207.185 139.564 207.209 139.588C207.233 139.612 207.244 139.644 207.245 139.681C207.244 139.718 207.232 139.749 207.208 139.775C207.185 139.801 207.155 139.815 207.121 139.816C207.086 139.817 207.06 139.807 207.04 139.784L207.06 139.747C207.078 139.766 207.098 139.774 207.121 139.775C207.145 139.773 207.165 139.765 207.182 139.747C207.199 139.729 207.208 139.707 207.207 139.682C207.208 139.655 207.199 139.635 207.183 139.617C207.168 139.599 207.148 139.591 207.124 139.592C207.112 139.592 207.09 139.597 207.057 139.605L207.056 139.606Z" fill="white"/>
<path d="M206.889 139.089L206.916 139.06L207.112 139.27C207.113 139.221 207.13 139.181 207.162 139.145C207.197 139.107 207.236 139.087 207.279 139.086C207.322 139.086 207.36 139.102 207.393 139.137L207.585 139.344L207.558 139.373L207.367 139.169C207.342 139.143 207.313 139.13 207.277 139.132C207.242 139.133 207.212 139.148 207.187 139.174C207.162 139.2 207.149 139.234 207.149 139.271C207.148 139.288 207.151 139.303 207.154 139.318L207.383 139.563L207.356 139.593L206.888 139.09L206.889 139.089Z" fill="white"/>
<path d="M207.983 138.907L207.956 138.936L207.897 138.875C207.899 138.888 207.9 138.901 207.899 138.914C207.899 138.982 207.875 139.043 207.83 139.091C207.784 139.139 207.731 139.166 207.667 139.167C207.604 139.169 207.55 139.144 207.506 139.098C207.462 139.051 207.44 138.993 207.441 138.923C207.442 138.854 207.466 138.795 207.511 138.746C207.556 138.696 207.61 138.67 207.674 138.67C207.686 138.67 207.699 138.671 207.71 138.672L207.669 138.629L207.696 138.599L207.983 138.907ZM207.829 138.801L207.777 138.744C207.747 138.722 207.712 138.711 207.673 138.713C207.62 138.714 207.575 138.736 207.538 138.775C207.5 138.815 207.48 138.866 207.481 138.922C207.48 138.98 207.499 139.027 207.535 139.065C207.571 139.104 207.616 139.124 207.669 139.121C207.722 139.12 207.766 139.098 207.803 139.057C207.84 139.017 207.86 138.967 207.86 138.911C207.861 138.868 207.851 138.83 207.829 138.797L207.829 138.801Z" fill="white"/>
<path d="M207.78 138.503L207.807 138.473L207.86 138.53C207.858 138.515 207.857 138.5 207.856 138.484C207.857 138.433 207.869 138.393 207.893 138.365L207.922 138.395C207.906 138.415 207.898 138.444 207.896 138.484C207.895 138.538 207.912 138.585 207.946 138.624L208.096 138.785L208.069 138.814L207.778 138.504L207.78 138.503Z" fill="white"/>
<path d="M207.905 138.159C207.916 138.159 207.925 138.163 207.932 138.171C207.94 138.179 207.943 138.189 207.943 138.2C207.943 138.211 207.939 138.22 207.931 138.229C207.923 138.238 207.915 138.241 207.904 138.242C207.894 138.242 207.885 138.239 207.878 138.23C207.87 138.222 207.867 138.213 207.867 138.202C207.867 138.191 207.871 138.181 207.878 138.172C207.886 138.164 207.895 138.16 207.905 138.159ZM207.995 138.268L208.285 138.579L208.258 138.608L207.967 138.298L207.995 138.268Z" fill="white"/>
<path d="M208.176 138.207L208.399 138.446L208.372 138.475L208.085 138.167L208.112 138.137L208.13 138.157C208.132 138.105 208.149 138.062 208.181 138.025C208.216 137.987 208.254 137.967 208.298 137.967C208.341 137.966 208.378 137.982 208.411 138.017L208.602 138.223L208.575 138.253L208.385 138.049C208.361 138.024 208.331 138.01 208.296 138.012C208.26 138.013 208.231 138.028 208.206 138.054C208.181 138.081 208.168 138.114 208.167 138.151C208.167 138.172 208.17 138.19 208.176 138.207Z" fill="white"/>
<path d="M208.919 137.753C208.919 137.766 208.92 137.778 208.92 137.791C208.919 137.86 208.896 137.92 208.85 137.968C208.805 138.016 208.751 138.044 208.687 138.045C208.623 138.046 208.57 138.022 208.525 137.976C208.481 137.929 208.459 137.871 208.461 137.801C208.462 137.733 208.486 137.674 208.531 137.624C208.576 137.574 208.631 137.548 208.694 137.546C208.706 137.546 208.719 137.548 208.73 137.548L208.689 137.505L208.716 137.476L208.939 137.715C208.981 137.761 209.003 137.818 209.003 137.884C209.002 137.953 208.978 138.012 208.933 138.061C208.888 138.111 208.833 138.137 208.769 138.138C208.756 138.138 208.743 138.137 208.732 138.135L208.751 138.094C208.751 138.094 208.764 138.095 208.771 138.094C208.824 138.093 208.868 138.071 208.906 138.032C208.944 137.992 208.962 137.942 208.964 137.886C208.964 137.834 208.95 137.789 208.92 137.752L208.919 137.753ZM208.797 137.621C208.767 137.599 208.732 137.589 208.693 137.591C208.64 137.592 208.595 137.614 208.558 137.654C208.52 137.693 208.5 137.744 208.501 137.801C208.5 137.859 208.519 137.906 208.555 137.945C208.592 137.983 208.637 138.003 208.689 138.001C208.742 137.999 208.787 137.978 208.825 137.938C208.862 137.898 208.882 137.847 208.882 137.791C208.882 137.75 208.872 137.712 208.854 137.679L208.798 137.619L208.797 137.621Z" fill="white"/>
<path d="M185.741 115.794C185.741 115.474 185.839 115.26 186.131 115.154C187.497 114.3 189.154 113.554 191.007 112.807C191.689 112.487 192.469 112.274 193.152 111.954C193.444 111.847 193.834 111.741 194.127 111.741L198.904 110.994L200.367 111.741L193.054 114.62C192.664 114.727 192.372 114.834 192.079 114.94C190.909 115.687 189.057 116.434 187.009 117.287C186.716 117.393 186.424 117.393 186.229 117.074C185.936 116.86 185.741 116.327 185.741 115.794Z" fill="#81BB27"/>
<path d="M190.811 113.342C190.909 113.875 191.104 114.408 191.299 114.835C191.494 115.155 191.786 115.368 192.176 115.261C192.371 115.155 192.567 115.155 192.762 115.048C193.054 114.941 193.249 114.622 193.249 114.195C193.152 113.555 193.054 113.022 192.859 112.595C192.762 112.275 192.372 112.062 192.079 112.168C191.786 112.168 191.591 112.275 191.299 112.382C190.909 112.595 190.714 113.022 190.811 113.342Z" fill="black"/>
<path d="M169.455 128.912L159.802 129.552C159.607 129.552 159.412 129.659 159.217 129.659L154.83 131.365C154.147 131.579 153.465 131.472 152.88 131.045C151.709 130.192 150.539 128.699 150.539 128.699C150.539 128.699 150.052 128.166 149.759 127.419C149.662 127.206 149.662 126.992 149.759 126.886C150.247 125.499 152.197 125.392 154.147 125.712C158.242 126.139 162.045 126.246 165.36 126.246C165.457 126.246 165.555 126.246 165.652 126.246C167.31 126.246 168.773 126.459 170.138 126.886C170.528 126.992 170.82 127.312 170.918 127.632C170.918 127.739 170.918 127.846 170.918 127.952C170.918 128.379 170.625 128.699 170.235 128.699L169.455 128.912Z" fill="#1A1A1A"/>
<path d="M155.024 131.26L161.264 133.5L165.749 129.127H164.384L161.166 131.687C160.971 131.793 160.776 131.9 160.581 131.793L156.486 130.727L155.024 131.26Z" fill="#1A1A1A"/>
<path d="M176.086 191.093C181.04 191.093 185.056 186.795 185.056 181.494C185.056 176.192 181.04 171.895 176.086 171.895C171.131 171.895 167.115 176.192 167.115 181.494C167.115 186.795 171.131 191.093 176.086 191.093Z" fill="black"/>
<path d="M203.681 137.766L175.113 178.615H146.252L145.959 180.962L168.97 181.388L176.965 181.495L206.314 142.565L203.681 137.766Z" fill="#81BB27"/>
<path d="M175.597 178.4L188.37 178.72C189.053 179.574 188.955 180.427 188.468 181.28L175.5 181.813C175.207 181.813 174.915 181.6 174.817 181.28C174.525 180 174.623 179.36 174.915 178.827C175.11 178.614 175.305 178.4 175.597 178.4Z" fill="#1A1A1A"/>
<path d="M182.23 185.014C181.938 184.48 182.035 183.841 182.425 183.521L189.153 178.721C189.543 178.401 190.128 178.508 190.42 179.041V179.148C190.713 179.574 190.615 180.214 190.128 180.534L183.4 185.334C183.01 185.654 182.425 185.44 182.23 185.014Z" fill="#333333"/>
<path d="M151.708 104.809L161.653 108.115C166.041 113.981 184.956 120.167 189.052 123.58C191.294 125.393 192.464 128.38 192.172 131.366C191.002 145.978 188.077 158.457 182.714 168.376H174.914C172.086 156.964 173.159 145.125 177.156 133.073C169.453 131.366 159.216 129.233 149.758 126.246C146.735 125.713 145.468 117.714 145.565 114.621C145.565 114.194 145.565 113.661 145.663 113.234C146.735 106.088 149.173 103.102 151.708 104.809Z" fill="#5E7625"/>
<path d="M176.569 168.375V173.068C177.837 174.134 179.202 174.241 180.567 173.495L181.444 168.375H176.569Z" fill="#EDBD98"/>
<path d="M176.181 173.068L181.349 173.495C184.079 176.375 187.102 177.335 188.467 178.614C189.052 179.148 189.052 180.214 188.369 180.748C187.784 181.174 187.004 181.281 185.834 181.281C182.031 181.174 178.619 180.854 175.986 179.788C175.596 179.681 175.304 179.254 175.206 178.828C174.816 177.015 175.401 175.095 176.181 173.068Z" fill="#F7931E"/>
<path d="M171.601 91.9026L174.428 97.7687C174.818 98.5153 175.306 99.1552 175.891 99.5818L187.494 109.181C188.664 110.141 189.444 111.527 190.126 113.021C190.321 113.447 190.419 114.301 190.419 114.727C190.419 114.94 190.419 115.047 190.321 115.26C190.126 116.22 189.541 116.967 188.761 117.287C187.591 117.82 186.518 118.46 186.031 117.713C186.421 117.5 186.908 116.647 187.201 116.007C187.494 115.367 187.688 114.727 187.786 114.087C187.786 113.447 187.786 112.701 187.396 112.487C185.933 111.421 184.666 110.141 183.301 109.181C183.008 108.968 182.618 108.861 182.228 108.754C179.888 108.221 177.548 107.368 175.111 106.301C174.623 106.088 174.233 105.768 173.941 105.448C171.308 102.888 167.895 97.8753 165.555 93.8223L171.601 90.3027V91.9026Z" fill="#E2AF8D"/>
<path d="M175.013 97.0223L170.43 102.035L164.19 95.5292L169.26 88.7031L175.013 97.0223Z" fill="#1D4B51"/>
<path d="M196.268 111.846C196.073 111.206 196.073 110.566 196.073 109.926C196.073 109.606 196.366 109.286 196.658 109.18C197.146 109.073 197.536 109.073 198.121 109.18C198.413 109.286 198.608 109.5 198.706 109.713C198.803 110.246 198.901 110.886 198.901 111.526C198.901 111.953 198.608 112.273 198.316 112.273C197.926 112.379 197.536 112.379 197.146 112.379C196.658 112.486 196.366 112.166 196.268 111.846Z" fill="black"/>
<path d="M178.522 86.1448L181.349 92.0109C181.739 92.7575 182.227 93.3974 182.812 93.824L194.415 103.423C195.585 104.383 196.365 105.77 197.047 107.263C197.242 107.689 197.34 108.543 197.34 108.969C197.34 109.183 197.34 109.289 197.242 109.503C197.047 110.463 196.462 111.209 195.682 111.529C194.512 112.062 193.44 112.702 192.952 111.956C193.342 111.742 193.83 110.889 194.122 110.249C194.415 109.609 194.61 108.969 194.707 108.329C194.707 107.689 194.707 106.943 194.317 106.73C192.855 105.663 191.587 104.383 190.222 103.423C189.929 103.21 189.539 103.103 189.149 102.997C186.809 102.463 184.469 101.61 182.032 100.543C181.544 100.33 181.154 100.01 180.862 99.6901C178.229 97.1304 174.817 92.1176 172.476 88.0646L178.522 84.5449V86.1448Z" fill="#EDBD98"/>
<path d="M185.74 115.795C185.74 115.475 185.935 115.261 186.13 115.155C187.495 114.195 189.152 113.448 191.005 112.808C191.687 112.595 189.737 113.448 190.517 113.128C190.225 113.128 190.81 113.021 190.517 113.128L190.81 114.195L191.102 114.941L191.2 115.155C190.81 115.261 191.395 115.261 191.102 115.475C189.932 116.221 189.055 116.541 187.007 117.394C186.715 117.501 186.422 117.501 186.227 117.181C185.935 116.861 185.74 116.435 185.74 115.795Z" fill="#81BB27"/>
<path d="M163.021 110.887L137.67 105.448C142.252 88.4894 150.15 75.7972 162.143 68.2246H167.213L183.009 86.463L174.428 96.4887L170.626 91.6891L163.021 110.887Z" fill="#20505A"/>
</svg>
