<svg width="263" height="136" viewBox="0 0 263 136" fill="none" xmlns="http://www.w3.org/2000/svg">
<path d="M131.5 135.731C204.125 135.731 263 130.522 263 124.096C263 117.67 204.125 112.461 131.5 112.461C58.8746 112.461 0 117.67 0 124.096C0 130.522 58.8746 135.731 131.5 135.731Z" fill="#F3F3F3"/>
<path d="M111.126 120.918H61.7773V122.795H111.126V120.918Z" fill="#F1F1F1"/>
<path d="M204.333 120.918H154.984V122.795H204.333V120.918Z" fill="#F1F1F1"/>
<path fill-rule="evenodd" clip-rule="evenodd" d="M122.111 46.9787C122.111 46.9787 122.442 42.5868 116.61 38.1036C110.778 33.6204 101.658 32.2044 100.799 21.1165C99.9399 10.0238 118.06 -2.81137 126.22 9.52936C135.872 24.1357 123.81 47.4011 122.116 46.9787H122.111Z" fill="#A2D855"/>
<path d="M120.816 14.3672L120.826 15.7304L114.048 15.7688L114.067 19.6328L120.384 19.5992L120.394 20.9623L114.077 20.9959L114.101 25.2007L120.927 25.1623L120.936 26.5255L112.493 26.5735L112.426 14.42L120.821 14.372L120.816 14.3672Z" fill="white"/>
<path d="M198.722 41.1816H164.34V114.784H198.722V41.1816Z" fill="#E9E9E9"/>
<path d="M174.276 44.8438H168.914V50.2053H174.276V44.8438Z" fill="white"/>
<path d="M174.276 53.998H168.914V59.3596H174.276V53.998Z" fill="white"/>
<path d="M182.772 44.8438H177.41V50.2053H182.772V44.8438Z" fill="white"/>
<path d="M182.772 53.998H177.41V59.3596H182.772V53.998Z" fill="white"/>
<path d="M174.276 63.1465H168.914V68.508H174.276V63.1465Z" fill="white"/>
<path d="M182.772 63.1465H177.41V68.508H182.772V63.1465Z" fill="white"/>
<path d="M198.722 114.789V57.5254L164.34 114.789H198.722Z" fill="#F3F3F3"/>
<path d="M174.405 72.4297H169.043V77.7913H174.405V72.4297Z" fill="white"/>
<path d="M182.905 72.4297H177.543V77.7913H182.905V72.4297Z" fill="white"/>
<path d="M174.276 81.7129H168.914V87.0745H174.276V81.7129Z" fill="white"/>
<path d="M182.772 81.7129H177.41V87.0745H182.772V81.7129Z" fill="white"/>
<path d="M174.01 90.9902H168.648V96.3518H174.01V90.9902Z" fill="white"/>
<path d="M182.514 90.9902H177.152V96.3518H182.514V90.9902Z" fill="white"/>
<path d="M174.01 100.145H168.648V105.506H174.01V100.145Z" fill="white"/>
<path d="M182.514 100.145H177.152V105.506H182.514V100.145Z" fill="white"/>
<path d="M217.964 73.6055H198.648V114.957H217.964V73.6055Z" fill="#E9E9E9"/>
<path d="M204.228 75.6602H201.219V78.6697H204.228V75.6602Z" fill="white"/>
<path d="M204.228 80.8047H201.219V83.8143H204.228V80.8047Z" fill="white"/>
<path d="M209.006 75.6602H205.996V78.6697H209.006V75.6602Z" fill="white"/>
<path d="M209.006 80.8047H205.996V83.8143H209.006V80.8047Z" fill="white"/>
<path d="M204.228 85.9453H201.219V88.9549H204.228V85.9453Z" fill="white"/>
<path d="M209.006 85.9453H205.996V88.9549H209.006V85.9453Z" fill="white"/>
<path d="M217.968 114.957V82.7871L198.648 114.957H217.968Z" fill="#F3F3F3"/>
<path d="M204.306 91.1602H201.297V94.1697H204.306V91.1602Z" fill="white"/>
<path d="M209.076 91.1602H206.066V94.1697H209.076V91.1602Z" fill="white"/>
<path d="M204.228 96.377H201.219V99.3865H204.228V96.377Z" fill="white"/>
<path d="M209.006 96.377H205.996V99.3865H209.006V96.377Z" fill="white"/>
<path d="M204.084 101.59H201.074V104.599H204.084V101.59Z" fill="white"/>
<path d="M208.857 101.59H205.848V104.599H208.857V101.59Z" fill="white"/>
<path d="M204.084 106.73H201.074V109.74H204.084V106.73Z" fill="white"/>
<path d="M208.857 106.73H205.848V109.74H208.857V106.73Z" fill="white"/>
<path d="M73.1738 13.918L76.9644 14.5649C75.5798 16.9709 74.9329 19.3712 76.0395 21.1303L70.9551 20.2962C72.4361 19.0024 73.4519 16.1367 73.1738 13.918Z" fill="#EDBD98"/>
<path fill-rule="evenodd" clip-rule="evenodd" d="M119.126 99.8089C120.42 100.547 120.885 102.215 120.142 103.509L110.711 120.334C110.251 121.168 109.326 121.718 108.401 121.718H63.5612C62.0801 121.718 60.8828 120.515 60.8828 119.04C60.8828 117.565 62.0858 116.362 63.5612 116.362H106.83L115.523 100.921C116.261 99.5365 117.833 99.0712 119.126 99.8089Z" fill="#3DBCC8"/>
<path fill-rule="evenodd" clip-rule="evenodd" d="M50.9926 123.664C53.2114 123.664 55.0613 121.814 55.0613 119.595C55.0613 117.376 53.2114 115.527 50.9926 115.527C48.7739 115.527 46.924 117.376 46.924 119.595C46.924 121.814 48.7739 123.664 50.9926 123.664ZM50.9926 129.026C56.1678 129.026 60.4237 124.776 60.4237 119.595C60.4237 114.414 56.1735 110.164 50.9926 110.164C45.8118 110.164 41.5615 114.414 41.5615 119.595C41.5615 124.776 45.721 129.026 50.9926 129.026Z" fill="#20505A"/>
<path fill-rule="evenodd" clip-rule="evenodd" d="M127.915 123.664C130.133 123.664 131.983 121.814 131.983 119.595C131.983 117.376 130.133 115.527 127.915 115.527C125.696 115.527 123.846 117.376 123.846 119.595C123.846 121.814 125.696 123.664 127.915 123.664ZM127.915 129.026C133.09 129.026 137.346 124.776 137.346 119.595C137.346 114.414 133.095 110.164 127.915 110.164C122.734 110.164 118.483 114.414 118.483 119.595C118.483 124.776 122.734 129.026 127.915 129.026Z" fill="#20505A"/>
<path fill-rule="evenodd" clip-rule="evenodd" d="M108.131 66.8964C109.515 66.2495 111.087 66.8964 111.734 68.1902L113.028 70.965C113.675 72.3496 113.028 73.9214 111.734 74.5683C110.349 75.2152 108.777 74.5683 108.131 73.2745L106.837 70.4997C106.19 69.1151 106.837 67.5433 108.131 66.8964Z" fill="#20505A"/>
<path fill-rule="evenodd" clip-rule="evenodd" d="M112.932 93.2423L118.663 107.758C118.941 108.592 119.775 109.698 120.513 110.164C121.438 110.811 122.454 110.998 123.657 110.351C124.95 109.426 124.582 106.651 123.566 104.432L122.363 101.658L113.023 78.914L105.254 58.9453L101.004 61.1641L112.932 93.248V93.2423Z" fill="#65C8D0"/>
<path fill-rule="evenodd" clip-rule="evenodd" d="M101.007 61.1638L96.1043 47.7605C96.3823 47.7605 94.3451 47.6697 93.2386 48.2201C92.5917 48.4982 91.0199 49.4231 90.7418 49.2359C89.9076 48.867 89.2607 48.2201 89.2607 47.1079C89.2607 46.0922 89.9076 45.5361 90.7418 45.4453L96.5639 44.9856L96.3766 43.8734L92.0299 44.2423L91.8427 43.5046L97.852 43.0449L98.4081 45.4509C99.4239 45.5417 100.349 46.007 100.996 47.1136L105.246 58.945L100.996 61.1638H101.007Z" fill="#1A1A1A"/>
<path fill-rule="evenodd" clip-rule="evenodd" d="M106.954 60.6369C106.63 60.5291 105.978 60.7731 105.978 60.7731L107.43 64.5069L107.981 64.2913C107.981 64.2913 107.93 60.9717 106.948 60.6425L106.954 60.6369Z" fill="#1A1A1A"/>
<path d="M68.8311 53.5837C68.8311 53.5837 70.3122 69.6711 64.6717 74.8463C64.3936 75.1243 64.0248 75.4932 63.7467 75.7712C58.2935 82.4275 53.9468 82.4275 45.9968 84.8335C45.8095 84.8335 45.7187 84.9243 45.5371 85.0207L52.1934 96.4833C58.0154 90.6612 64.0248 85.7584 70.1306 82.6147C70.6867 82.2459 71.1463 81.7806 71.5152 81.2301C72.7182 79.6583 73.7339 77.7176 74.6589 75.5896C74.9369 74.9427 75.3058 74.3866 75.7711 73.7397L76.8833 72.3551C77.4394 68.1957 75.5895 62.646 73.0927 56.6367L68.746 51.365L68.1899 51.1777C68.1899 51.9154 68.8368 53.5837 68.8368 53.5837H68.8311Z" fill="#E87F18"/>
<path d="M70.3075 43.9649C70.4948 43.2272 80.0167 41.19 80.4763 43.9649C80.8452 46.2744 83.8073 50.3431 85.1919 55.1494C87.3198 62.5434 85.9296 66.4304 85.6515 71.7929C85.5607 74.9366 84.3577 81.9617 84.3577 81.9617C84.3577 81.9617 82.6951 95.3649 83.2455 100.915L82.5986 100.824L71.2268 99.8081C76.3112 91.2112 75.2955 88.1583 75.9424 79.5613C77.327 71.9801 77.0546 65.2331 72.6114 59.7742C72.2426 59.4053 71.6865 58.662 71.4084 58.1115L69.0024 53.396C68.0774 51.5461 67.8902 49.4181 68.5428 47.4774C68.8208 46.4617 69.4677 45.1679 70.3019 43.9649H70.3075Z" fill="#F7931E"/>
<g opacity="0.96">
<path d="M110.989 80.8556C110.802 80.9464 110.62 81.0429 110.529 81.2245L110.07 80.0215L109.423 80.2995L110.348 82.6091C110.626 83.256 111.364 83.534 112.01 83.256C112.657 82.9779 112.935 82.2402 112.748 81.5933C112.379 80.8556 111.636 80.5776 110.989 80.8556ZM111.727 82.5183C111.449 82.6091 111.08 82.5183 110.989 82.2402C110.898 81.9622 110.989 81.5933 111.267 81.5025C111.545 81.4117 111.914 81.5025 112.005 81.7806C112.096 82.0587 112.005 82.4275 111.727 82.5183Z" fill="white"/>
<path d="M113.848 87.791C113.201 88.069 112.923 88.8067 113.201 89.4536L113.661 90.6566L114.308 90.3786L113.848 89.1756C113.757 88.8975 113.848 88.6195 114.126 88.4379C114.404 88.3471 114.682 88.4379 114.864 88.7159L115.323 89.9189L115.97 89.6409L115.511 88.4379C115.142 87.791 114.495 87.5129 113.848 87.791Z" fill="white"/>
<path d="M112.651 84.924C112.464 85.0148 112.373 85.2021 112.464 85.3836L113.202 87.3243L113.94 87.0463L113.105 85.1056C113.015 84.9183 112.827 84.8275 112.646 84.9183L112.651 84.924Z" fill="white"/>
<path d="M112.38 84.6452C112.634 84.6452 112.839 84.4395 112.839 84.1859C112.839 83.9322 112.634 83.7266 112.38 83.7266C112.127 83.7266 111.921 83.9322 111.921 84.1859C111.921 84.4395 112.127 84.6452 112.38 84.6452Z" fill="white"/>
<path d="M106.459 69.5744C106.271 69.6652 106.09 69.7617 105.999 69.9432L105.539 68.7402L104.893 69.0183L105.818 71.3278C106.096 71.9747 106.833 72.2528 107.48 71.9747C108.127 71.6967 108.405 70.959 108.218 70.3121C107.849 69.6652 107.106 69.2963 106.459 69.5744ZM107.106 71.3335C106.828 71.4243 106.459 71.3335 106.368 71.0555C106.277 70.7774 106.368 70.4086 106.646 70.3178C106.924 70.227 107.293 70.3178 107.384 70.5958C107.571 70.8739 107.384 71.1519 107.106 71.3335Z" fill="white"/>
<path d="M109.235 76.5093C108.588 76.7874 108.31 77.5251 108.588 78.172L109.048 79.375L109.694 79.0969L109.235 77.8939C109.144 77.6158 109.235 77.3378 109.513 77.1562C109.791 77.0654 110.069 77.1562 110.251 77.4343L110.71 78.6373L111.357 78.3592L110.897 77.1562C110.619 76.6001 109.882 76.3221 109.235 76.5093Z" fill="white"/>
<path d="M108.112 73.6428C107.925 73.7335 107.834 73.9208 107.925 74.1024L108.663 76.0431L109.401 75.765L108.566 73.8243C108.476 73.6371 108.288 73.5463 108.107 73.6371L108.112 73.6428Z" fill="white"/>
<path d="M107.836 73.4557C108.09 73.4557 108.296 73.2501 108.296 72.9964C108.296 72.7427 108.09 72.5371 107.836 72.5371C107.583 72.5371 107.377 72.7427 107.377 72.9964C107.377 73.2501 107.583 73.4557 107.836 73.4557Z" fill="white"/>
</g>
<path d="M82.0507 34.3531C86.3009 37.2188 90.4661 39.9936 91.9414 41.8435C92.5883 42.5812 94.0694 44.0623 94.4382 44.5219C94.529 44.6127 94.6255 44.7092 94.6255 44.7999C94.7163 44.9872 94.9036 45.4468 94.9036 45.7249C94.9036 46.281 94.1659 46.9279 93.7913 47.6656C93.3317 48.4998 93.1444 48.5905 91.6634 48.2217C91.5726 48.409 92.3103 47.484 92.5883 46.8371C92.8664 46.0994 92.4011 44.8056 91.8507 44.3403C90.7384 43.3246 89.5411 42.4904 88.3381 41.7527C88.0601 41.5655 87.782 41.4747 87.4132 41.3839C85.4725 41.015 83.4353 40.3681 81.4038 39.4432C81.035 39.2559 80.6661 39.0743 80.2916 38.7055C78.1636 36.674 80.8477 36.7648 78.8105 33.7119L80.7512 31.4023" fill="#DBAD8D"/>
<path d="M78.0764 29.3583L80.4824 33.9831C80.7604 34.5392 81.2201 34.9988 81.6854 35.4641L91.5761 42.9545C92.5919 43.6922 93.2388 44.7136 93.7949 46.0074C93.9821 46.3763 94.0729 46.9324 93.9821 47.3012C93.9821 47.4885 93.9821 47.5793 93.8913 47.6701C93.8006 48.4078 93.2444 48.9639 92.5976 49.2419C91.5818 49.7016 90.4696 49.6108 90.1008 48.9639C90.6569 49.2419 91.0257 48.6858 91.3946 48.1297C91.6726 47.6701 91.7634 47.114 91.8542 46.6487C91.8542 46.189 91.8542 45.6329 91.4853 45.4457C90.1915 44.6115 89.1758 43.5958 87.9728 42.8581C87.6947 42.6708 87.4167 42.58 87.0478 42.4892C85.1071 42.1204 83.07 41.4735 81.0385 40.5485C80.6697 40.3613 80.3008 40.1797 80.0228 39.9016C77.804 37.9609 75.676 35.0953 73.7354 31.9516L77.8948 29.0859L78.0821 29.364L78.0764 29.3583Z" fill="#EDBD98"/>
<path d="M78.3569 4.39611C78.3569 4.39611 80.2976 6.89291 79.6507 8.64635C79.56 8.9244 79.4635 9.10599 79.4635 9.29325C79.1854 10.309 79.6507 10.309 80.2012 10.8651C80.6608 11.3247 80.2012 11.6993 79.9231 11.8808C79.7359 11.9716 79.6451 12.1589 79.6451 12.3405V12.8001C79.6451 12.8909 80.0139 13.447 79.1854 13.447C78.3569 13.447 77.5228 13.0782 77.4263 12.9874C77.2391 12.9874 78.9982 13.447 79.367 13.6343C79.367 13.6343 79.6451 13.8215 79.5543 14.0031C79.4635 14.1847 79.2762 14.2812 79.1854 14.5592C79.0946 14.7465 78.9982 15.4842 78.8166 15.7622C78.635 16.0403 76.8759 16.4091 75.8601 16.0403C75.1224 15.7622 74.0102 15.4842 73.5506 15.3934C73.3633 15.3934 73.1818 14.9337 73.091 14.8373C72.9037 14.65 72.3533 14.4684 71.888 14.0996C71.0538 13.4527 71.7972 13.1746 71.888 12.8966C71.9788 12.5277 72.166 11.8808 72.0752 11.6936C71.9844 11.5063 71.2411 10.4906 71.1503 10.1217C70.963 9.47483 71.4283 8.45909 71.7972 8.18104C72.166 7.81219 72.7221 7.7214 73.091 7.99378C73.369 8.27183 74.0159 8.73147 74.2032 8.36262C74.3904 7.99378 76.3311 5.30972 76.7908 5.03166C77.0688 4.8444 78.3626 4.38477 78.3626 4.38477L78.3569 4.39611Z" fill="#EDBD98"/>
<path d="M75.6672 20.2956C75.5764 20.2956 75.2984 20.3864 74.555 20.4828C74.1862 20.5736 73.8173 20.4828 73.4428 20.4828C72.5178 20.2956 71.8709 20.114 71.3148 19.8359C69.4649 20.6701 67.9839 23.2577 66.9681 27.9732C66.2304 31.5766 64.7494 37.4043 66.412 43.0448C67.4278 44.6167 72.5122 44.6167 75.1054 44.4294C77.7838 44.1514 80.2806 43.6917 80.5587 42.5795L80.6495 40.4516C78.4307 38.8797 76.5808 36.3829 74.7309 33.7045C74.7309 33.7045 78.4307 30.47 78.4307 30.5608C78.4307 30.6516 79.5429 33.1484 80.0026 33.7045L80.4622 32.5015C80.6495 32.0419 80.6495 31.5766 80.553 31.1169C79.8153 28.7109 79.1684 26.4922 77.9654 25.0168C77.6874 24.7387 77.3185 24.0011 77.3185 24.0011C77.3185 24.0011 77.2277 23.9103 77.2277 23.8138C76.9497 22.52 76.3936 21.4078 75.6559 20.3013L75.6672 20.2956Z" fill="#232323"/>
<path fill-rule="evenodd" clip-rule="evenodd" d="M91.8494 43.5047L93.7901 43.4082L94.1589 44.0551L91.8494 44.3332L91.6621 43.5955L91.8494 43.5047Z" fill="#1A1A1A"/>
<path d="M74.9251 33.6095C73.3533 32.225 72.1503 30.3751 71.2253 28.3379L71.0381 28.5252C72.0538 30.5566 73.3476 32.4065 74.7379 33.7968L74.9251 33.6095Z" fill="#0F0F0F"/>
<path d="M78.4407 30.561C77.5158 28.7111 76.0347 27.0484 74.3721 25.5674L74.5593 25.4766C76.3184 27.0484 77.703 28.7111 78.628 30.4702L78.4407 30.561Z" fill="#0F0F0F"/>
<path d="M66.7836 41.3758C66.9872 41.3758 67.1522 41.2108 67.1522 41.0072C67.1522 40.8037 66.9872 40.6387 66.7836 40.6387C66.58 40.6387 66.415 40.8037 66.415 41.0072C66.415 41.2108 66.58 41.3758 66.7836 41.3758Z" fill="#565656"/>
<path d="M67.6147 43.0399C67.8182 43.0399 67.9832 42.8749 67.9832 42.6713C67.9832 42.4677 67.8182 42.3027 67.6147 42.3027C67.4111 42.3027 67.2461 42.4677 67.2461 42.6713C67.2461 42.8749 67.4111 43.0399 67.6147 43.0399Z" fill="#565656"/>
<path d="M69.4623 43.7762C69.6659 43.7762 69.8309 43.6112 69.8309 43.4076C69.8309 43.2041 69.6659 43.0391 69.4623 43.0391C69.2588 43.0391 69.0938 43.2041 69.0938 43.4076C69.0938 43.6112 69.2588 43.7762 69.4623 43.7762Z" fill="#565656"/>
<path d="M68.8218 42.3916C68.9752 42.3916 69.0996 42.2672 69.0996 42.1138C69.0996 41.9603 68.9752 41.8359 68.8218 41.8359C68.6683 41.8359 68.5439 41.9603 68.5439 42.1138C68.5439 42.2672 68.6683 42.3916 68.8218 42.3916Z" fill="#565656"/>
<path d="M67.898 41.5635C68.0514 41.5635 68.1758 41.4391 68.1758 41.2857C68.1758 41.1322 68.0514 41.0078 67.898 41.0078C67.7445 41.0078 67.6201 41.1322 67.6201 41.2857C67.6201 41.4391 67.7445 41.5635 67.898 41.5635Z" fill="#565656"/>
<path d="M70.5718 42.9483C70.7252 42.9483 70.8496 42.8239 70.8496 42.6704C70.8496 42.517 70.7252 42.3926 70.5718 42.3926C70.4183 42.3926 70.2939 42.517 70.2939 42.6704C70.2939 42.8239 70.4183 42.9483 70.5718 42.9483Z" fill="#565656"/>
<path d="M72.6128 43.2276C72.7663 43.2276 72.8907 43.1032 72.8907 42.9497C72.8907 42.7963 72.7663 42.6719 72.6128 42.6719C72.4594 42.6719 72.335 42.7963 72.335 42.9497C72.335 43.1032 72.4594 43.2276 72.6128 43.2276Z" fill="#565656"/>
<path d="M74.7329 43.3174C74.8864 43.3174 75.0108 43.193 75.0108 43.0396C75.0108 42.8861 74.8864 42.7617 74.7329 42.7617C74.5795 42.7617 74.4551 42.8861 74.4551 43.0396C74.4551 43.193 74.5795 43.3174 74.7329 43.3174Z" fill="#565656"/>
<path d="M76.5845 43.2276C76.7379 43.2276 76.8623 43.1032 76.8623 42.9497C76.8623 42.7963 76.7379 42.6719 76.5845 42.6719C76.431 42.6719 76.3066 42.7963 76.3066 42.9497C76.3066 43.1032 76.431 43.2276 76.5845 43.2276Z" fill="#565656"/>
<path d="M78.5288 42.8584C78.6823 42.8584 78.8067 42.734 78.8067 42.5806C78.8067 42.4271 78.6823 42.3027 78.5288 42.3027C78.3754 42.3027 78.251 42.4271 78.251 42.5806C78.251 42.734 78.3754 42.8584 78.5288 42.8584Z" fill="#565656"/>
<path d="M79.1665 41.6553C79.32 41.6553 79.4444 41.5309 79.4444 41.3775C79.4444 41.224 79.32 41.0996 79.1665 41.0996C79.0131 41.0996 78.8887 41.224 78.8887 41.3775C78.8887 41.5309 79.0131 41.6553 79.1665 41.6553Z" fill="#565656"/>
<path d="M71.4984 44.0555C71.702 44.0555 71.867 43.8905 71.867 43.6869C71.867 43.4834 71.702 43.3184 71.4984 43.3184C71.2949 43.3184 71.1299 43.4834 71.1299 43.6869C71.1299 43.8905 71.2949 44.0555 71.4984 44.0555Z" fill="#565656"/>
<path d="M73.7152 44.1512C73.9188 44.1512 74.0838 43.9862 74.0838 43.7826C74.0838 43.5791 73.9188 43.4141 73.7152 43.4141C73.5117 43.4141 73.3467 43.5791 73.3467 43.7826C73.3467 43.9862 73.5117 44.1512 73.7152 44.1512Z" fill="#565656"/>
<path d="M75.8442 43.9637C76.0477 43.9637 76.2127 43.7987 76.2127 43.5951C76.2127 43.3916 76.0477 43.2266 75.8442 43.2266C75.6406 43.2266 75.4756 43.3916 75.4756 43.5951C75.4756 43.7987 75.6406 43.9637 75.8442 43.9637Z" fill="#565656"/>
<path d="M77.599 43.6864C77.8026 43.6864 77.9676 43.5213 77.9676 43.3178C77.9676 43.1142 77.8026 42.9492 77.599 42.9492C77.3955 42.9492 77.2305 43.1142 77.2305 43.3178C77.2305 43.5213 77.3955 43.6864 77.599 43.6864Z" fill="#565656"/>
<path d="M79.5473 43.0399C79.7508 43.0399 79.9159 42.8749 79.9159 42.6713C79.9159 42.4677 79.7508 42.3027 79.5473 42.3027C79.3437 42.3027 79.1787 42.4677 79.1787 42.6713C79.1787 42.8749 79.3437 43.0399 79.5473 43.0399Z" fill="#565656"/>
<path d="M80.0971 41.0985C80.3006 41.0985 80.4657 40.9335 80.4657 40.7299C80.4657 40.5263 80.3006 40.3613 80.0971 40.3613C79.8935 40.3613 79.7285 40.5263 79.7285 40.7299C79.7285 40.9335 79.8935 41.0985 80.0971 41.0985Z" fill="#565656"/>
<path d="M74.9265 100.271L74.5576 106.928H78.2574L78.9951 100.64L74.9265 100.271Z" fill="#FFD2C1"/>
<path d="M72.5281 112.473L72.3408 115.985C72.3408 115.985 72.3408 116.172 73.0785 116.263C73.8162 116.354 75.8534 116.263 75.8534 116.263V113.21L72.5224 112.473H72.5281Z" fill="#151616"/>
<path d="M75.7676 113.398V113.676C76.8798 114.136 78.3552 114.97 79.8362 115.986C79.927 115.986 79.927 116.077 80.0235 116.077C80.4831 116.264 81.2265 116.355 81.2265 116.355L78.8205 114.692L75.9548 113.211H75.864L75.7733 113.398H75.7676Z" fill="#230D01"/>
<path d="M72.8063 104.432C73.4532 106.928 73.3625 109.516 72.4375 112.2C72.4375 112.387 72.4375 112.478 72.6248 112.478C75.3996 113.034 77.9872 114.141 80.3932 115.991C80.6713 116.269 81.0401 116.36 81.5054 116.36C83.0773 116.269 84.4619 116.081 85.3868 115.525C85.5741 115.435 85.6649 115.247 85.6649 115.066C85.5741 114.606 85.3868 114.232 85.018 114.05C84.8307 113.959 84.6491 113.863 84.3711 113.863C83.5369 113.863 82.7084 113.772 82.1523 113.494C81.3182 112.938 80.4897 111.644 79.7463 110.163C79.5591 109.703 79.3775 109.238 79.3775 108.778C79.2867 107.575 79.3775 106.1 79.5647 104.619L72.8177 104.432H72.8063Z" fill="#42210B"/>
<path d="M47.1905 87.8789L41.7373 91.3915L43.8653 94.4444L49.3185 91.3915L47.1905 87.8789Z" fill="#FFD2C1"/>
<path d="M36.0033 92.9627L33.0468 94.9034C33.0468 94.9034 32.8596 94.9942 33.2341 95.6411C33.6029 96.288 34.8967 97.8598 34.8967 97.8598L37.1155 96.1972L37.3027 96.0099L36.0089 92.957L36.0033 92.9627Z" fill="#151616"/>
<path d="M37.1111 96.2025L36.833 96.3898C37.1111 97.5928 37.2926 99.2554 37.3891 101.015V101.202C37.4799 101.758 37.8488 102.405 37.8488 102.405L37.758 99.4483L37.2019 96.2138V96.123L37.1111 96.2138V96.2025Z" fill="#230D01"/>
<path d="M42.659 88.5254C40.9963 90.4661 38.8684 91.9471 36.1843 92.8721C35.9971 92.9629 35.9971 93.0594 35.9971 93.2409C37.2001 95.7377 37.7562 98.6034 37.7562 101.56C37.7562 101.929 37.847 102.298 38.125 102.672C39.05 103.875 40.0657 104.891 41.0815 105.35C41.2687 105.441 41.4503 105.35 41.6376 105.26C42.0064 104.891 42.0972 104.522 42.0972 104.147C42.0972 103.96 42.0064 103.688 41.9099 103.501C41.4503 102.854 40.985 102.116 40.8942 101.469C40.8942 100.453 41.4503 99.063 42.0972 97.5876C42.2845 97.128 42.5568 96.7535 43.0222 96.4754C43.9471 95.7377 45.1501 94.9036 46.5347 94.1659L42.6533 88.5254H42.659Z" fill="#42210B"/>
<path d="M77.4204 2.35822C76.6827 1.89858 74.1859 0.326727 72.7049 0.877158C71.133 1.43326 69.4704 1.80211 68.8235 2.26175C68.2674 2.63059 67.0644 3.8336 66.4175 4.57129C65.8614 5.21819 64.0114 9.28684 63.7391 10.3026C63.5518 11.1367 62.8141 12.981 63.2794 14.2804C63.8355 15.5742 65.4074 16.59 64.8513 17.8838C64.2952 19.1776 63.8355 20.2898 63.8355 21.2147C63.7447 21.8616 63.7447 25.0961 66.0543 25.3742C68.273 25.6522 69.198 21.6744 71.2295 21.4928C73.4482 21.3055 75.2981 22.3269 74.6512 20.5678C74.0043 18.8087 73.7263 18.1618 74.0043 15.4834C74.2824 12.8051 73.6355 12.6178 73.2666 11.9709C72.8978 11.2332 72.5289 10.7679 73.2666 9.3833C73.9135 8.08951 74.4696 8.54915 75.2073 7.5334C75.945 6.42119 77.148 5.59271 78.351 4.66776C78.9071 4.11165 78.1638 2.72706 77.4261 2.35822H77.4204Z" fill="#42210B"/>
<path d="M72.0635 98.2345L83.0664 99.4376V98.6034L72.5231 97.4004L72.0635 98.2345Z" fill="#DD7517"/>
<path d="M72.8945 96.6642L83.0633 97.8672L83.1541 97.0331L73.2634 95.8301L72.8945 96.6642Z" fill="#DD7517"/>
<path d="M47.6572 84.3671L53.6666 95.0012L54.217 94.4451L48.4857 84.1855L47.6572 84.3671Z" fill="#CE6711"/>
<path d="M49.3154 83.908L54.8595 93.8895L55.5064 93.2426L50.2404 83.7207L49.3154 83.908Z" fill="#CE6711"/>
<path d="M74.0947 8.27746L70.0261 5.04297L69.6572 5.78066L73.7259 8.74277L74.0947 8.36825V8.27746Z" fill="#F7931E"/>
<path d="M208.4 76.7737L207.008 68.8058C206.816 67.6538 206.24 66.5978 205.376 65.7818C205.232 65.6378 205.088 65.5418 204.944 65.3978C203.504 64.3418 201.632 64.0538 199.952 64.6778C199.424 64.8698 198.944 65.2058 198.512 65.5898C197.648 66.4538 197.36 67.5578 197.84 68.9978C196.016 67.7018 194.192 67.3178 192.32 67.6058C192.08 67.6058 191.84 67.7018 191.6 67.8458C190.64 68.3738 190.064 69.4298 190.016 70.4858C189.968 71.6377 190.304 72.2617 191.024 73.0777C192.272 74.2777 193.568 75.1417 195.008 74.9017C194.24 75.4777 193.856 76.2457 193.712 77.1577C193.616 77.8777 193.856 78.6457 194.384 79.1737C194.864 79.6057 195.44 79.8937 196.016 79.9897C200.624 80.8057 204.704 79.4617 208.496 77.0137L208.4 76.7737Z" fill="#AFC681"/>
<path d="M207.728 59.4467L207.584 55.1747C207.584 54.5508 207.344 53.9748 206.96 53.4948C206.912 53.3988 206.816 53.3508 206.768 53.2548C206.096 52.5828 205.136 52.2948 204.224 52.5348C203.936 52.5828 203.648 52.7268 203.408 52.8708C202.88 53.2548 202.64 53.8308 202.832 54.5987C201.968 53.7828 201.056 53.4468 200.048 53.4468C199.904 53.4468 199.808 53.4468 199.664 53.4948C199.136 53.6868 198.752 54.2148 198.656 54.7427C198.56 55.3187 198.656 55.7027 198.992 56.1827C199.568 56.9027 200.144 57.4307 200.912 57.4307C200.48 57.6707 200.192 58.0547 200.048 58.5347C199.952 58.9187 200 59.3027 200.288 59.6387C200.48 59.8787 200.768 60.0707 201.104 60.2147C203.456 60.9827 205.664 60.5987 207.824 59.5907L207.728 59.4467Z" fill="#AFC681"/>
<path d="M211.233 39.7182V39.8622C210.657 42.3102 207.921 85.894 213.441 109.51V109.654L215.169 119.782H209.505C209.985 119.974 208.689 86.8539 207.825 65.3501C207.009 45.8622 208.257 41.0142 208.737 35.8782C209.073 32.3263 211.473 23.3503 210.465 23.9743L211.809 27.0463L211.233 39.7182Z" fill="#937F6F"/>
<path d="M211.138 42.981L218.626 46.581C219.73 47.109 220.93 47.253 222.13 47.013C222.322 46.965 222.514 46.917 222.706 46.869C224.434 46.341 225.826 44.901 226.258 43.125C226.402 42.549 226.45 41.973 226.354 41.397C226.162 40.149 225.394 39.237 223.906 38.805C226.066 38.085 227.458 36.7411 228.37 35.0131C228.514 34.8211 228.562 34.5331 228.61 34.2931C228.754 33.1891 228.226 32.0851 227.314 31.4131C226.402 30.6931 225.634 30.5971 224.53 30.6931C222.802 31.0291 221.314 31.6051 220.642 32.9491C220.642 31.9891 220.258 31.1731 219.538 30.5011C219.01 29.9731 218.194 29.7331 217.474 29.8771H217.426C216.802 30.0211 216.178 30.3091 215.746 30.7411C212.338 34.1011 210.994 38.277 210.754 42.933L211.138 42.981Z" fill="#AFC681"/>
<path d="M215.124 27.1902C221.831 27.1902 227.268 21.7532 227.268 15.0463C227.268 8.33937 221.831 2.90234 215.124 2.90234C208.417 2.90234 202.98 8.33937 202.98 15.0463C202.98 21.7532 208.417 27.1902 215.124 27.1902Z" fill="#A9D661"/>
<path d="M209.265 25.0778L216.321 24.3578C217.329 24.2618 218.337 23.8298 219.057 23.1098C219.201 23.0138 219.297 22.8698 219.393 22.7258C220.449 21.5738 220.785 19.8938 220.353 18.4058C220.209 17.9258 219.969 17.4939 219.681 17.1099C219.009 16.2939 218.001 15.9579 216.753 16.2939C218.001 14.8059 218.433 13.2219 218.337 11.5419C218.337 11.3499 218.289 11.1099 218.193 10.9179C217.809 10.0539 216.945 9.4779 215.985 9.3819C214.977 9.2859 214.401 9.5259 213.681 10.1019C212.577 11.1099 211.713 12.1659 211.857 13.4619C211.425 12.7899 210.753 12.3579 209.985 12.1659C209.361 12.0219 208.689 12.2139 208.209 12.6459C207.777 13.0299 207.489 13.5099 207.393 14.0379C206.385 18.0218 207.297 21.6218 209.169 25.1258L209.265 25.0778Z" fill="#DEF2AF"/>
<path d="M209.598 55.9424C209.598 55.9424 205.806 41.2545 201.918 38.8065C198.03 36.4065 200.718 38.6625 200.718 38.6625C200.718 38.6625 205.758 44.8065 206.91 50.7584C208.11 56.6624 209.598 55.9424 209.598 55.9424Z" fill="#937F6F"/>
<path d="M209.07 86.2776C209.07 86.2776 210.75 76.4857 217.23 72.1657C223.71 67.8457 219.438 71.1097 219.438 71.1097C219.438 71.1097 212.19 78.0697 212.238 81.7176C212.286 85.3656 209.07 86.2776 209.07 86.2776Z" fill="#937F6F"/>
<path d="M196.443 46.6777C202.381 46.6777 207.195 41.8639 207.195 35.9258C207.195 29.9876 202.381 25.1738 196.443 25.1738C190.505 25.1738 185.691 29.9876 185.691 35.9258C185.691 41.8639 190.505 46.6777 196.443 46.6777Z" fill="#A9D661"/>
<path d="M202.83 43.9419L204.51 37.8939C204.75 37.0299 204.702 36.0699 204.366 35.2539C204.318 35.1099 204.27 34.9659 204.174 34.8699C203.55 33.6219 202.302 32.8059 200.958 32.7099C200.526 32.6619 200.094 32.7099 199.662 32.8539C198.75 33.1419 198.174 33.8619 198.03 35.0139C197.214 33.5259 196.062 32.6139 194.67 32.1819C194.478 32.1339 194.286 32.0859 194.094 32.0859C193.23 32.1339 192.51 32.6619 192.126 33.4299C191.694 34.1979 191.742 34.7739 191.982 35.5419C192.462 36.7899 193.086 37.7979 194.142 38.1339C193.422 38.2779 192.894 38.6619 192.462 39.2859C192.126 39.7659 192.078 40.3899 192.27 40.9179C192.462 41.3499 192.75 41.7819 193.134 42.0699C196.062 44.1819 199.326 44.6139 202.83 44.1819V43.9419Z" fill="#DEF2AF"/>
<path d="M223.708 74.805C230.548 74.805 236.092 69.2605 236.092 62.421C236.092 55.5816 230.548 50.0371 223.708 50.0371C216.869 50.0371 211.324 55.5816 211.324 62.421C211.324 69.2605 216.869 74.805 223.708 74.805Z" fill="#A9D661"/>
<path d="M215.602 71.0617L222.802 71.9737C223.858 72.1177 224.914 71.9257 225.826 71.3497C225.97 71.2537 226.114 71.1577 226.258 71.0617C227.554 70.1497 228.322 68.6137 228.178 66.9817C228.13 66.4537 228.034 65.9737 227.794 65.5417C227.314 64.5338 226.402 64.0058 225.058 64.0538C226.642 62.8538 227.458 61.3658 227.746 59.7338C227.794 59.5418 227.794 59.3018 227.746 59.0618C227.554 58.1018 226.834 57.3338 225.874 57.0458C224.914 56.7098 224.29 56.8058 223.426 57.2378C222.082 57.9578 221.026 58.8698 220.834 60.1658C220.546 59.3978 220.018 58.8218 219.25 58.4378C218.674 58.1498 217.954 58.1978 217.378 58.4858C216.898 58.7738 216.466 59.1578 216.226 59.6858C214.306 63.3818 214.354 67.2217 215.458 71.1097L215.602 71.0617Z" fill="#DEF2AF"/>
<path d="M223.526 119.205C223.382 119.397 219.014 120.357 216.518 119.205C213.542 117.813 216.518 107.974 216.518 107.974C216.518 107.974 219.638 98.6616 220.358 97.9416C221.078 97.2216 221.798 102.694 222.902 105.622C224.006 108.598 223.478 112.437 224.006 114.597C224.582 116.757 224.63 117.189 224.198 118.197C224.006 118.965 223.526 119.205 223.526 119.205Z" fill="#A9D661"/>
<path d="M199.955 120.071C200.099 120.263 204.467 121.223 206.963 120.071C209.939 118.679 206.963 108.839 206.963 108.839C206.963 108.839 203.843 99.5268 203.123 98.8068C202.403 98.0868 201.683 103.559 200.579 106.487C199.475 109.463 200.003 113.303 199.475 115.463C198.899 117.623 198.851 118.055 199.283 119.063C199.523 119.831 199.955 120.071 199.955 120.071Z" fill="#A9D661"/>
<path d="M191.121 120.215C191.217 120.359 194.577 121.127 196.449 120.215C198.705 119.159 196.449 111.623 196.449 111.623C196.449 111.623 194.049 104.519 193.521 103.943C192.993 103.367 192.417 107.543 191.553 109.847C190.689 112.103 191.121 115.079 190.689 116.711C190.257 118.391 190.209 118.679 190.545 119.447C190.785 120.023 191.121 120.215 191.121 120.215Z" fill="#A9D661"/>
<path d="M185.749 119.973C185.845 120.069 188.197 120.597 189.541 119.973C191.125 119.205 189.541 113.925 189.541 113.925C189.541 113.925 187.861 108.885 187.477 108.501C187.093 108.117 186.709 111.045 186.085 112.677C185.461 114.309 185.797 116.373 185.461 117.525C185.173 118.677 185.125 118.917 185.365 119.445C185.461 119.829 185.749 119.973 185.749 119.973Z" fill="#A9D661"/>
<path d="M225.156 119.349C225.252 119.493 228.612 120.261 230.484 119.349C232.74 118.293 230.484 110.757 230.484 110.757C230.484 110.757 228.084 103.653 227.556 103.077C226.98 102.501 226.452 106.677 225.588 108.981C224.724 111.237 225.156 114.213 224.724 115.845C224.292 117.525 224.244 117.813 224.58 118.581C224.82 119.157 225.156 119.349 225.156 119.349Z" fill="#A9D661"/>
<path d="M236.148 119.11C236.052 119.206 233.7 119.734 232.356 119.11C230.772 118.342 232.356 113.062 232.356 113.062C232.356 113.062 234.036 108.022 234.42 107.638C234.804 107.254 235.188 110.182 235.812 111.814C236.436 113.398 236.1 115.51 236.436 116.662C236.724 117.814 236.772 118.054 236.532 118.582C236.388 118.966 236.148 119.11 236.148 119.11Z" fill="#A9D661"/>
<path d="M239.892 119.158C239.844 119.206 238.26 119.59 237.348 119.158C236.292 118.63 237.348 115.078 237.348 115.078C237.348 115.078 238.5 111.718 238.74 111.43C238.98 111.19 239.268 113.158 239.652 114.214C240.036 115.27 239.844 116.71 240.036 117.478C240.228 118.246 240.276 118.438 240.132 118.774C240.036 119.062 239.892 119.158 239.892 119.158Z" fill="#A9D661"/>
<path d="M181.859 120.07C181.907 120.118 183.491 120.502 184.403 120.07C185.459 119.542 184.403 115.99 184.403 115.99C184.403 115.99 183.251 112.63 183.011 112.342C182.771 112.102 182.483 114.07 182.099 115.126C181.715 116.182 181.907 117.622 181.715 118.39C181.523 119.158 181.475 119.35 181.619 119.686C181.715 119.974 181.859 120.07 181.859 120.07Z" fill="#A9D661"/>
</svg>
