<svg width="40" height="40" viewBox="0 0 40 40" fill="none" xmlns="http://www.w3.org/2000/svg">
<path d="M38 14.5366C38 14.4857 38 14.4857 38 14.5366C38 14.4857 38 14.4348 37.9491 14.4348C34.843 7.66245 27.9179 3.23242 20.229 3.23242C14.8315 3.23242 8.46649 6.44038 6.37877 13.6201C5.4113 17.3372 6.17509 22.2255 10.0959 24.3132C10.4524 25.739 11.0634 26.8083 11.6744 27.7758C11.6744 27.7758 11.6744 27.7758 11.6744 27.8267C12.591 29.2525 12.7947 30.9837 12.2855 32.6132L10.656 37.3487C10.5542 37.6033 10.707 37.9088 10.9616 38.0107C11.0125 38.0107 11.0634 38.0616 11.1143 38.0616C11.318 38.0616 11.5217 37.9088 11.5726 37.7052L13.202 32.9696C13.8131 31.0856 13.5585 29.0488 12.5401 27.3684C12.5401 27.3684 12.5401 27.3684 12.5401 27.3175C11.98 26.4519 11.4198 25.4335 11.0634 24.1096C11.4198 23.6004 11.8272 23.1421 12.1836 22.7347L24.048 31.2893C24.0989 32.1549 24.2007 33.0205 24.3026 33.8862C24.0989 33.7843 23.8952 33.6316 23.6915 33.4788L21.6547 31.442C21.451 31.2383 21.1455 31.2383 20.9419 31.442C20.7382 31.6457 20.7382 31.9512 20.9419 32.1549L22.9786 34.1917C23.1314 34.3444 23.2332 34.4463 23.386 34.5481L22.2148 37.2978C22.113 37.5524 22.2148 37.8579 22.4694 37.9598C22.5204 38.0107 22.6222 38.0107 22.6731 38.0107C22.8768 38.0107 23.0805 37.9088 23.1314 37.7052L24.2516 35.0064C24.3026 35.0064 24.3535 35.0573 24.4044 35.0573C24.4553 35.3628 24.5062 35.6684 24.6081 35.9739C24.7608 36.6358 25.3719 37.1451 26.0848 37.1451C26.1866 37.1451 26.2884 37.145 26.3903 37.0941C27.205 36.9414 27.7142 36.1266 27.5105 35.3119C27.5105 35.261 27.4596 35.2101 27.4596 35.1083H30.362C32.0933 35.1083 33.6209 33.8862 33.9264 32.1549L34.792 27.9285H35.8614C36.5233 27.9285 37.1344 27.5721 37.4908 26.9611C37.8472 26.35 37.7963 25.6881 37.4908 25.077L35.1994 20.7489C34.9957 20.3415 34.843 19.9341 34.792 19.4759C34.7411 18.9667 34.6393 18.4065 34.4865 17.8973C35.5558 17.1335 36.6252 16.1151 37.7454 14.8421C37.7454 14.7912 37.7963 14.7912 37.7963 14.7403C37.7963 14.6894 37.7963 14.6894 37.8472 14.6385C37.8472 14.6385 37.8472 14.6385 37.8472 14.5875V14.5366V14.4857C38 14.5366 38 14.5366 38 14.5366ZM26.2375 36.0248C25.9829 36.0757 25.7283 35.923 25.6774 35.6684C25.321 34.0389 25.1173 32.4095 25.0664 30.9328C25.0664 30.7291 24.9645 30.5764 24.8118 30.5255L12.9474 21.9709C13.202 21.7672 13.4057 21.5636 13.6603 21.4108L24.3535 29.0997L24.4044 29.1506C24.4044 29.1506 24.4553 29.1506 24.5062 29.2015C24.5062 29.2015 24.5062 29.2015 24.5572 29.2015H24.6081C24.6081 29.2015 24.6081 29.2015 24.659 29.2015C24.7099 29.2015 24.7099 29.2015 24.7608 29.2015C24.7608 29.2015 24.7608 29.2015 24.8118 29.2015C24.8118 29.2015 24.8627 29.2016 24.8627 29.1506C24.8627 29.1506 24.8627 29.1506 24.9136 29.1506L24.9645 29.0997C24.9645 29.0997 24.9645 29.0997 25.0154 29.0997C25.0664 29.0997 25.0664 29.0488 25.0664 28.9979C25.0664 28.9979 25.0664 28.9469 25.1173 28.9469V28.896V28.8451V28.7942C25.1173 28.7942 25.1173 28.7942 25.1173 28.7433C25.321 25.7899 26.0848 23.1421 27.4596 20.647C27.867 20.647 28.2234 20.5961 28.6307 20.5452C26.1357 24.6188 25.4228 29.2525 26.4412 34.7009C26.4921 34.9555 26.543 35.2101 26.594 35.5156C26.6449 35.7193 26.4921 35.9739 26.2375 36.0248ZM14.526 20.8507C16.9701 19.5777 19.4652 19.9341 22.2148 20.2906C23.4878 20.4433 24.8627 20.647 26.2375 20.647C25.0664 22.8366 24.3535 25.2298 24.0989 27.7249L14.526 20.8507ZM33.8755 19.6795C33.9264 20.2396 34.1301 20.7998 34.3847 21.309L36.6761 25.6372C36.8288 25.8918 36.8288 26.2482 36.6761 26.5028C36.5233 26.7574 36.2178 26.9611 35.9123 26.9611H34.4356C34.181 26.9611 33.9773 27.1138 33.9264 27.3684L33.0099 32.0021C32.7553 33.2242 31.6859 34.1408 30.4129 34.1408H27.3068C26.3903 28.896 27.205 24.4151 29.751 20.5452L29.9037 20.2906C31.1258 19.9851 32.3479 19.4758 33.6209 18.6611C33.7737 18.9666 33.8246 19.3231 33.8755 19.6795ZM33.7737 17.3372C33.7737 17.3372 33.7227 17.3372 33.7227 17.3881C32.297 18.3556 30.9731 18.9667 29.6491 19.2722H29.5982C28.7835 19.4759 27.9688 19.5777 27.1541 19.5777H27.1032C25.5246 19.6286 23.9461 19.4249 22.4185 19.2213C18.1922 18.6611 14.2204 18.101 10.4014 23.2439C7.60085 21.6145 6.78613 18.2538 7.14257 15.2495C8.41557 17.3372 10.707 18.6102 13.202 18.6102C13.5585 18.6102 13.9149 18.6102 14.2714 18.5084L36.2687 15.2495C35.3012 16.1152 34.5374 16.7771 33.7737 17.3372ZM14.0168 17.5409C11.1652 17.9483 8.41557 16.3188 7.39717 13.671C9.38305 7.10233 15.2897 4.19991 20.229 4.19991C27.3068 4.19991 33.6718 8.12073 36.727 14.1802L14.0168 17.5409Z" fill="#3DBCC8"/>
<path d="M30.8713 8.6806C28.1725 6.59289 24.7609 5.47266 21.1965 5.47266C17.683 5.47266 14.2205 6.59289 11.5217 8.6806C11.318 8.83336 11.2671 9.18981 11.4199 9.39349C11.5217 9.54625 11.6745 9.59715 11.8272 9.59715C11.9291 9.59715 12.0309 9.54623 12.1328 9.49531C14.6278 7.56035 17.8358 6.49105 21.1456 6.49105C24.4554 6.49105 27.6633 7.56035 30.1584 9.49531C30.3621 9.64807 30.7185 9.64809 30.8713 9.39349C31.1259 9.13889 31.0749 8.83336 30.8713 8.6806Z" fill="#3DBCC8"/>
</svg>
