<svg width="350" height="233" viewBox="0 0 350 233" fill="none" xmlns="http://www.w3.org/2000/svg">
<path d="M240.68 112.017L255.856 127.55C258.077 129.88 259.278 132.984 259.192 136.285L258.077 163.269L257.52 207.729H272.509L270.013 144.722L269.456 136.375C269.181 131.913 270.751 127.542 273.898 124.431L286.297 112.009L287.96 110.263H280.184L268.985 120.751C268.797 120.948 268.522 120.751 268.522 120.553L268.616 104.633H260.753L260.847 121.237C260.847 121.525 260.573 121.624 260.384 121.434L244.839 108.527L238.082 108.724L240.672 112.025L240.68 112.017Z" fill="#937F6F"/>
<path d="M301.102 110.561C292.682 112.693 253.72 110.561 226.513 110.174C225.124 110.174 223.735 109.976 222.346 109.688C213.368 107.556 208.189 101.728 205.042 93.9652C203.928 91.2486 203.378 88.3345 203.473 85.3216C203.661 78.6209 206.156 72.9902 211.249 68.7178C207.828 62.7003 206.07 55.8102 207.545 47.7511C208.103 44.837 209.209 42.1205 210.598 39.6921C214.671 32.7032 219.67 27.2701 226.795 25.2286C231.794 10.5675 241.509 4.1631 252.982 0.475201C263.992 -1.36875 271.957 2.22037 277.78 10.0819C297.767 7.4641 308.408 15.9101 306.933 38.9101C318.689 46.3846 323.036 55.9995 322.942 66.7751C329.51 71.8213 332.194 77.9376 331.919 84.8277C331.456 94.5332 325.163 102.979 316.468 106.379C311.751 108.223 306.933 109.293 304.343 109.68C303.229 110.067 302.123 110.264 301.102 110.552V110.561Z" fill="#DEF2AF"/>
<path d="M301.569 114.249C293.329 116.291 254.923 114.249 228.179 113.862C226.79 113.862 225.401 113.665 224.107 113.376C215.317 111.244 210.13 105.614 207.078 97.9416C205.963 95.225 205.414 92.3109 205.508 89.4956C205.697 82.8936 208.098 77.3618 213.097 73.1882C209.675 67.2694 208.004 60.4698 209.487 52.5096C210.044 49.6943 211.056 46.9777 212.539 44.5493C216.518 37.6592 221.517 32.3167 228.454 30.3739C233.359 16.0092 242.98 9.59655 254.178 6.00743C265.007 4.16348 272.871 7.7526 278.521 15.4248C298.233 12.807 308.686 21.1542 307.211 43.7755C318.778 51.1513 323.126 60.5686 323.039 71.2454C329.513 76.1928 332.197 82.2186 331.828 89.0099C331.365 98.6166 325.166 106.873 316.651 110.174C312.021 112.018 307.305 112.99 304.715 113.475C303.695 113.673 302.683 113.961 301.569 114.249Z" fill="#A9D661"/>
<path d="M175 233C271.65 233 350 225.613 350 216.5C350 207.387 271.65 200 175 200C78.3502 200 0 207.387 0 216.5C0 225.613 78.3502 233 175 233Z" fill="#F3F3F3"/>
<path d="M89.6391 97.9531L95.7402 98.5915C93.9878 101.646 92.6252 104.347 94.6355 106.48L88.7922 105.912C90.8054 104.42 90.5446 100.795 89.6362 97.9531H89.6391Z" fill="#EDBD98"/>
<path d="M95.7403 85.375C95.7403 85.375 98.0758 88.5028 97.5571 90.7035C97.4927 91.0596 97.4282 91.3419 97.3637 91.5568C97.1029 92.8368 97.1029 92.7663 98.3366 93.4046C98.9872 93.7607 98.4011 94.3991 98.0758 94.6846C97.8824 94.8258 97.7506 95.1113 97.815 95.323C97.815 95.6085 97.8795 95.8908 97.8795 95.8908C97.8795 95.9614 98.1403 96.7442 97.4253 96.7442C94.0495 96.8148 96.8421 96.7442 97.6187 97.0297C97.6187 97.0297 97.944 97.2414 97.8795 97.3858C97.815 97.5975 97.5542 97.8124 97.4897 98.098C97.4253 98.3835 97.3608 99.2336 97.2289 99.5897C97.0971 99.9458 95.0868 100.584 93.9176 100.228C93.0092 100.016 91.7755 99.6603 91.2568 99.5897C91.0634 99.5897 90.8026 99.0924 90.6736 98.9513C90.4128 98.7396 89.7652 98.5246 89.2465 98.1685C88.2092 97.4564 89.1176 97.1035 89.1821 96.6062C89.2465 96.1796 89.3755 95.3262 89.2465 95.0439C89.1176 94.8322 88.2736 93.6934 88.0773 93.1961C87.8165 92.4134 88.2707 91.1366 88.596 90.7099C88.9212 90.2833 89.6333 89.9977 90.0875 90.4244C90.4773 90.7099 90.867 90.7099 91.0604 90.3538C91.2538 89.9272 93.5278 86.7994 93.9821 86.5171C94.2429 86.3053 95.7344 85.3814 95.7344 85.3814L95.7403 85.375Z" fill="#EDBD98"/>
<path d="M97.8822 87.2222C97.7533 87.5783 97.6214 87.8606 97.428 88.1462C97.1672 88.6434 96.713 88.9995 96.2588 89.2112C94.7672 89.9234 93.4016 90.5618 92.039 90.4206C91.4558 90.3501 90.9342 90.7061 90.7408 91.3445C90.5474 91.9124 90.2221 92.2684 89.8968 92.6951C89.3137 93.3335 89.1174 94.328 89.4426 95.2519C89.8324 96.4613 89.4426 97.1703 88.9884 98.2353C88.7276 98.5914 88.4053 98.662 87.9511 98.4471C85.9379 97.3114 84.7042 94.9664 84.25 92.1947C83.5349 89.7085 83.8602 88.9963 84.3144 87.8606C84.4434 87.5046 84.7042 87.2222 84.8976 86.9367C85.8705 85.8011 86.7144 84.38 87.6229 83.6678C88.4023 83.1 89.1818 82.6733 90.1547 82.3172C91.6463 81.7494 93.2697 81.9611 94.5679 82.8144C95.995 83.7384 97.2932 85.0183 97.8148 86.0834C98.0082 86.4395 98.0082 86.8662 97.8793 87.219L97.8822 87.2222Z" fill="#42210B"/>
<path d="M89.7944 92.8243C89.6655 92.5388 89.4691 92.3271 89.2757 92.2565C89.1761 92.2276 89.0823 92.2373 89.0149 92.2565C88.4318 92.542 88.2823 93.02 88.5607 93.6777L88.59 93.745C88.9768 94.4797 89.2083 94.531 89.7299 94.8133L89.7944 92.8243Z" fill="#ECBC97"/>
<path d="M98.7664 86.8595C97.6313 82.1974 92.6471 81.605 89.0231 82.1833C83.7939 83.0179 81.1803 88.5146 82.2323 93.5128C83.0131 97.225 88.4414 101.158 92.0631 98.4476C94.8254 96.3787 90.2151 93.0144 92.0915 90.614C93.6115 88.6674 96.3126 90.4001 97.99 89.2575C98.8408 88.6792 98.9939 87.7905 98.7664 86.8571V86.8595Z" fill="#00DFF4"/>
<path d="M73.235 163.004C73.235 163.004 73.1959 162.979 73.1802 162.962C72.8051 162.637 68.4365 158.852 67.3893 158.22C66.3421 157.588 65.123 157.434 65.4981 156.323C65.8732 155.212 68.1161 153.649 68.8976 153.358C69.5932 153.102 70.9608 152.529 71.2578 152.41C71.2968 152.393 71.3281 152.376 71.3672 152.359C71.6016 152.222 72.5785 151.649 72.8286 151.666C73.1177 151.692 74.7745 149.761 76.6892 152.76C78.6038 155.759 79.3072 155.981 79.3072 156.477C79.3072 156.947 77.7676 161.586 74.923 163.56C74.6182 163.773 74.2353 163.756 73.9383 163.534L73.2271 163.004H73.235Z" stroke="black" stroke-width="0.91" stroke-miterlimit="10"/>
<path d="M79.9634 164.886C79.9634 164.886 74.8837 166.261 75.5089 162.852C76.1341 159.443 76.8531 155.487 80.784 155.427C84.7149 155.368 85.1213 157.017 89.4664 158.888C93.8116 160.759 94.4055 161.314 102.26 161.536C110.114 161.759 112.568 161.81 113.912 161.699C115.256 161.588 116.545 168.141 115.725 169.901C114.904 171.661 108.363 170.226 107.988 170.055C107.613 169.884 86.2701 166.039 83.6834 165.27C81.0966 164.501 79.9791 164.886 79.9791 164.886H79.9634Z" fill="#131315"/>
<path d="M64.826 156.768C64.826 156.768 62.8957 157.469 61.7625 156.768C60.6293 156.068 54.815 154 53.2285 154.248C51.6421 154.495 50.0869 153.248 50.0869 153.248C50.0869 153.248 56.4796 154.248 59.7619 154.367C63.052 154.487 64.6384 153.906 65.162 154.487C65.6856 155.068 65.6309 155.222 65.3496 155.845C65.0682 156.469 64.8182 156.768 64.8182 156.768H64.826Z" fill="#1E1E1E"/>
<path d="M109.715 169.046C109.715 169.046 100.235 194.635 98.6411 194.593C97.0469 194.55 96.4451 201.368 96.2966 202.06C96.1481 202.752 93.9365 206.067 99.3054 207.221C104.674 208.374 129.753 213.415 129.753 213.415C129.753 213.415 135.114 214.569 138.365 213.826C141.616 213.082 144.335 211.595 145.617 211.433C146.899 211.271 152.268 203.914 153.854 201.77C155.44 199.625 171.078 173.6 171.227 172.284C171.375 170.968 169.289 167.722 168.077 164.671C166.866 161.621 157.691 148.472 157.691 148.472L149.087 138.407C149.087 138.407 147.93 137.689 146.922 138.407C145.914 139.125 143.827 141.346 143.679 142.508C143.53 143.67 143.374 147.797 143.53 148.455C143.687 149.113 146.977 156.52 146.977 156.52C146.977 156.52 139.599 155.367 139.443 156.606C139.287 157.845 139.709 163.339 139.85 166.56C139.99 169.781 140.068 170.78 139.85 172.062C139.701 172.908 134.887 194.815 134.887 194.815L116.451 188.082L118.366 167.764L117.186 168.337L110.098 167.696L109.723 169.063L109.715 169.046Z" fill="black"/>
<path d="M153.752 170.892L139.646 147.43C139.646 147.43 136.598 142.38 136.02 143.465C135.441 144.55 135.871 149.412 135.871 149.412C135.871 149.412 141.56 162.074 142.873 164.501C144.186 166.927 145.39 173.754 145.39 173.754L141.162 188.954L142.873 200.412L143.733 200.856L149.93 188.963L157.425 176.454L153.752 170.9V170.892Z" fill="#00DFF4"/>
<path d="M169.609 184.279L167.358 179.11L167.945 178.393L169.312 181.827L170.383 184.279H169.609Z" fill="#B7C4B7"/>
<path d="M137.207 152.384C137.207 152.384 134.144 146.13 132.714 143.857C131.284 141.584 130.799 141.251 128.634 139.671C126.899 138.397 124.797 135.518 124.102 135.142C122.906 134.493 118.42 138.022 118.123 137.851C117.826 137.68 118.905 135.962 118.85 135.467C118.803 134.937 117.85 134.775 117.185 135.134C116.92 135.279 114.567 136.842 113.536 137.534C113.106 137.825 112.536 137.671 112.285 137.184C112.184 136.988 112.114 136.731 112.106 136.415C112.067 135.219 114.388 133.732 114.388 133.732L119.342 128.239C119.342 128.239 122.781 124.385 126.61 123.505C130.44 122.625 132.096 122.617 133.151 123.163C134.207 123.71 140.373 127.905 141.732 129.341C143.092 130.776 147.015 135.202 146.312 135.791C145.609 136.381 142.092 137.5 141.357 137.902C140.709 138.252 139.318 139.303 139.318 139.303C138.958 139.833 138.122 140.098 136.996 143.379C136.645 144.412 135.84 142.951 135.723 146.121C135.644 148.146 137.215 152.376 137.215 152.376L137.207 152.384Z" fill="black"/>
<path d="M73.9693 152.325C73.9693 152.325 68.0768 155.887 63.0361 155.999C58.0033 156.11 45.0069 154.512 42.4827 152.863C39.9663 151.214 36.2854 144.49 36.2385 142.507C36.1916 140.525 36.2385 139.919 36.2385 139.919C36.2385 139.919 35.1835 139.645 35.3789 138.047C35.5742 136.45 35.4805 136.116 36.0353 135.954C36.5902 135.792 37.2935 135.681 37.2935 135.681C37.2935 135.681 37.7468 133.254 38.6065 132.263C39.4661 131.272 43.3423 128.41 45.8119 126.923C48.2814 125.436 55.7838 122.352 63.1846 122.685C70.5854 123.018 75.6261 122.352 77.5407 128.136C77.5407 128.136 78.7521 132.87 79.0021 133.639C79.2522 134.408 79.557 136.339 78.6505 139.039C77.7439 141.738 75.9308 149.966 75.2666 151C74.6023 152.034 73.9693 152.325 73.9693 152.325Z" fill="#1E1E1E"/>
<path d="M36.0431 135.954C36.0431 135.954 56.8232 136.894 60.0664 136.398C63.3174 135.902 78.6426 132.365 78.6426 132.365L79.1819 134.459C79.1819 134.459 64.6694 138.303 62.2546 138.303C59.8398 138.303 35.6602 137.013 35.6602 137.013H35.5039L35.5586 136.569C35.5586 136.569 35.5899 136.415 35.6133 136.355C35.6368 136.296 35.6758 136.219 35.6758 136.21C35.6758 136.202 35.7305 136.125 35.7774 136.09C35.8243 136.056 35.9415 135.996 35.9572 135.988C35.9728 135.979 36.0353 135.962 36.0353 135.962L36.0431 135.954Z" fill="#070707"/>
<path d="M35.5037 136.988C35.5037 136.988 35.1989 139.192 35.7225 139.551C36.2461 139.91 46.7729 140.995 46.7729 140.995C46.7729 140.995 61.5042 141.679 62.4889 141.593C63.4736 141.508 78.6581 139.03 78.6581 139.03C78.6581 139.03 79.3067 135.493 79.252 134.972C79.1973 134.45 79.1348 134.459 79.1348 134.459C79.1348 134.459 67.3263 137.484 65.3413 137.834C63.3563 138.184 40.4662 137.091 40.4662 137.091L35.5115 136.988H35.5037Z" fill="#3D3D3D"/>
<path d="M77.1345 137.22C77.1345 137.22 80.0808 136.639 80.2292 136.186C80.3777 135.733 80.1902 134.742 79.6978 134.742C79.2055 134.742 76.6734 135.468 76.6734 135.468L76.3999 135.562C75.9466 135.708 75.6731 136.229 75.7981 136.724C75.7981 136.724 75.7981 136.742 75.7981 136.75L76.0091 137.536L77.1267 137.229L77.1345 137.22Z" fill="white"/>
<path d="M64.8886 140.662C64.8886 140.662 67.874 140.431 68.0693 139.996C68.2647 139.56 68.1709 138.552 67.6864 138.5C67.2019 138.449 64.6073 138.876 64.6073 138.876L64.326 138.936C63.8649 139.03 63.5366 139.509 63.6148 140.021C63.6148 140.021 63.6148 140.038 63.6148 140.047L63.7477 140.85L64.8886 140.671V140.662Z" fill="white"/>
<path d="M76.9779 220.934C87.725 220.934 96.4372 211.409 96.4372 199.66C96.4372 187.91 87.725 178.385 76.9779 178.385C66.2308 178.385 57.5186 187.91 57.5186 199.66C57.5186 211.409 66.2308 220.934 76.9779 220.934Z" fill="#393A38"/>
<path d="M75.0013 212.962C81.4798 212.962 86.7316 206.944 86.7316 199.522C86.7316 192.099 81.4798 186.082 75.0013 186.082C68.5228 186.082 63.271 192.099 63.271 199.522C63.271 206.944 68.5228 212.962 75.0013 212.962Z" fill="black"/>
<path d="M108.535 173.951L99.149 195.473C98.7114 196.473 97.7188 197.02 96.7263 196.815L91.5294 195.73C90.912 195.601 90.3806 195.183 90.0445 194.593C89.5444 193.705 88.5753 192.415 86.9185 191.791C84.3708 190.834 61.512 183.221 59.8162 182.657C59.7458 182.632 59.6833 182.606 59.6208 182.58C58.3235 181.999 57.839 180.265 58.6126 178.992C59.2613 177.924 59.9881 176.779 60.4726 176.181C61.5276 174.856 66.8809 166.629 67.8734 165.86C68.9284 165.031 72.1013 163.219 76.1807 163.63C80.2602 164.04 85.8479 162.288 91.4434 163.578C97.0311 164.868 109.269 169.004 109.496 169.995C109.723 170.986 108.511 173.959 108.511 173.959L108.535 173.951Z" fill="#00DFF4"/>
<path d="M104.776 200.095C104.776 200.095 94.5538 198.498 92.7407 197.78C90.9276 197.062 72.7969 199.045 72.1873 198.933C71.5777 198.822 69.4677 198.489 69.2645 200.087C69.0613 201.685 69.116 203.889 70.0225 203.94C70.9291 203.992 89.6694 205.316 91.8342 204.547C93.9989 203.778 93.9989 203.641 96.7185 203.376C99.4382 203.112 104.971 203.881 105.503 203.65C106.034 203.419 106.636 201.873 106.3 201.044C105.964 200.215 104.784 200.078 104.784 200.078L104.776 200.095Z" fill="#1E1E1D"/>
<path d="M70.9921 198.908C70.9921 198.908 70.3122 196.088 70.6874 195.763C71.0625 195.439 71.4845 195.721 72.1253 194.815C72.7661 193.909 73.3288 191.338 73.7899 189.449C74.251 187.561 74.3213 187.51 74.3213 187.51L77.6036 188.612C77.6036 188.612 74.6183 193.533 74.0947 195.353C73.5711 197.173 73.7977 198.703 73.7977 198.703L73.8133 198.925H71L70.9921 198.908Z" fill="#1E1E1D"/>
<path d="M121.024 185.135C121.024 185.135 119.906 188.237 122.384 188.126C124.861 188.015 124.861 186.366 125.861 185.435C126.862 184.503 127.768 187.135 130.644 189.16C133.528 191.185 134.278 191.868 134.403 192.449C134.528 193.03 133.153 194.389 132.074 194.731C130.996 195.072 129.37 194.833 126.307 194.149C123.251 193.466 118.664 194.226 118.085 193.107C117.507 191.988 117.358 191.373 117.585 190.911C117.773 190.527 118.953 189.792 119.469 189.1C119.57 188.963 119.648 188.827 119.687 188.69C119.914 187.895 120.016 186.195 120.367 185.674C120.719 185.153 121.016 185.127 121.016 185.127L121.024 185.135Z" fill="#072D63"/>
<path d="M122.978 191.03C124.478 191.825 127.166 192.508 128.339 192.705C129.511 192.901 132.301 193.756 133.098 193.303C133.895 192.85 134.403 192.465 134.403 192.465C134.403 192.465 133.942 195.943 129.519 195.473C125.095 195.003 121.352 194.422 120.383 194.166C119.414 193.909 118.218 193.832 117.859 192.645C117.499 191.457 117.187 191.363 117.593 190.927C117.999 190.492 118.961 188.979 119.476 189.116C119.992 189.253 122.978 191.039 122.978 191.039V191.03Z" fill="white"/>
<path d="M121.985 182.947L120.93 188.791C120.93 188.791 122.5 188.971 123.759 188.569C125.017 188.168 125.595 185.818 125.673 185.63C125.752 185.442 124.79 184.058 124.79 184.058L121.985 182.947Z" fill="#FED5B5"/>
<path d="M126.369 183.989L125.298 184.1L123.727 184.083L122.758 183.989L124.36 168.968C124.36 168.968 124.36 160.1 123.86 158.186C123.36 156.272 123.258 156.391 122.156 155.605C120.656 154.529 112.638 152.598 112.45 152.547C112.263 152.495 109.23 152.102 106.44 152.145C103.651 152.188 98.8443 148.719 97.7658 147.984C96.6874 147.249 96.1794 143.857 95.9996 143.088C95.8199 142.319 94.5148 140.542 96.3591 141.61C98.0941 142.61 101.392 147.403 104.455 148.326C107.519 149.249 116.014 151.068 120.015 152.393C122.93 153.358 125.306 154.554 125.712 156.366C126.165 158.399 126.931 165.286 126.666 168.755C126.4 172.224 127.385 176.453 127.119 178.64C126.924 180.281 127.721 181.938 127.463 182.955C127.385 183.263 126.845 183.938 126.361 183.997L126.369 183.989Z" fill="#091B4C"/>
<path d="M114.021 185.86L111.989 196.318C111.989 196.318 113.013 196.053 114.951 195.626C116.78 195.224 119.366 191.286 119.484 191.004C119.601 190.722 118.249 187.535 118.249 187.535L114.021 185.852V185.86Z" fill="#FED5B5"/>
<path d="M112.88 191.431C113.153 191.474 113.341 191.747 113.294 192.038C113.169 192.798 113.536 194.695 115.959 193.986C119.233 193.029 118.124 190.824 119.64 189.423C121.156 188.022 122.508 191.986 126.853 195.037C131.198 198.087 132.331 199.129 132.519 199.992C132.706 200.855 130.628 202.914 129.002 203.435C127.377 203.957 124.535 203.5 119.773 203.316C115.162 202.282 109.853 202.192 108.985 200.5C108.118 198.809 107.735 197.192 108.071 196.5C108.352 195.919 109.23 195.994 110.012 194.951C110.168 194.746 110.934 193.738 110.988 193.541C111.332 192.345 110.871 191.909 111.7 191.559C112.137 191.371 112.567 191.38 112.872 191.422L112.88 191.431Z" fill="#072D63"/>
<path d="M114.943 200.282C117.21 201.479 121.305 201.419 123.094 201.581C124.884 201.744 129.401 202.461 130.612 201.778C131.824 201.094 132.519 199.992 132.519 199.992C132.519 199.992 132.123 204.709 125.449 204C118.775 203.291 113.191 202.384 111.729 202C110.268 201.615 109.075 202.077 108.528 200.282C107.981 198.488 107.461 197.158 108.071 196.5C108.68 195.842 110.739 194.114 110.012 194.951C109.09 196.019 113.005 199.42 114.943 200.282Z" fill="white"/>
<path d="M80.299 143.832C80.299 143.832 77.5716 151.992 79.9317 154.264C82.2919 156.537 93.6961 163.722 99.8387 163.5C105.981 163.278 112.847 165.185 112.644 167.5C112.441 169.816 109.863 188.441 109.863 188.441C109.863 188.441 109.527 189.235 111.856 189.62C114.357 190.038 116.381 188.714 116.381 188.714C116.381 188.714 117.366 188.227 118.475 188.304C118.968 188.338 119.976 188.56 120.929 188.791C122.172 189.099 123.102 189.235 123.274 187.86C123.993 182.033 124.368 169.994 124.368 168.302C124.368 164.996 125.476 156.816 123.163 155.5C120.849 154.176 114.077 151.124 109.443 151.5C105.91 151.782 100.524 149.36 99.0863 148.395C98.633 148.087 98.2579 147.668 97.9843 147.173C97.3748 146.054 96.2807 143.969 96.3119 143.413C96.3588 142.644 90.4038 142.576 89.5989 142.388C88.7939 142.2 84.6754 141.619 84.6754 141.619H81.4478L80.299 143.849V143.832Z" fill="#0F256D"/>
<path d="M136.301 143.935L151.04 167.431C151.04 167.431 155.885 175.958 157.417 176.445C158.292 176.727 166.076 170.729 168.069 169.123C171.226 166.594 169.554 164.749 163.169 155.769C157.683 148.053 149.735 138.663 147.609 136.177C147.273 135.784 146.773 135.639 146.304 135.793C144.476 136.399 139.904 138.082 138.466 140.244C136.653 142.97 136.301 143.935 136.301 143.935Z" fill="#3EF0FB"/>
<path d="M172.961 229.478C184.593 229.478 194.023 219.169 194.023 206.452C194.023 193.735 184.593 183.426 172.961 183.426C161.329 183.426 151.9 193.735 151.9 206.452C151.9 219.169 161.329 229.478 172.961 229.478Z" fill="#393A38"/>
<path d="M172.962 220.994C179.971 220.994 185.653 214.484 185.653 206.452C185.653 198.421 179.971 191.91 172.962 191.91C165.952 191.91 160.27 198.421 160.27 206.452C160.27 214.484 165.952 220.994 172.962 220.994Z" fill="black"/>
<path d="M171.5 207.35L175.502 204.624L178.792 189.877C178.792 189.877 179.323 187.647 180.191 186.528C181.058 185.409 181.629 184.939 181.965 185.938C181.965 185.938 182.113 185.05 180.644 184.417C179.175 183.785 171.274 180.496 165.537 181.53C159.793 182.563 171.508 207.341 171.508 207.341L171.5 207.35Z" fill="#00DFF4"/>
<path d="M158.488 182.837L161.138 188.689L162.271 188.023L159.286 181.162L157.379 176.531L156.394 178.172L158.488 182.837Z" fill="#B7C4B7"/>
<path d="M171.157 207.229L163.857 187.928C163.764 187.681 163.521 187.552 163.279 187.612C162.615 187.8 161.294 188.21 160.434 188.791C160.122 188.996 159.872 189.227 159.739 189.475C159.247 190.346 166.366 201.633 170.305 207.742C170.641 208.263 171.383 207.819 171.157 207.229Z" fill="#1E1E1D"/>
<path d="M95.789 106.426C95.789 106.426 105.894 123.36 119.625 124.078C119.625 124.078 126.252 124.257 125.306 124.77C124.228 125.351 122.04 127.402 122.04 127.402C122.04 127.402 112.138 127.701 110.426 126.257C108.715 124.813 99.0869 120.284 98.8524 119.285C98.618 118.285 95.4686 114.816 94.8981 112.313C94.3276 109.809 93.7883 107.229 93.7883 107.229L95.789 106.426Z" fill="#B5C5C6"/>
<path d="M87.4032 106.742C87.7705 105.383 89.1616 104.7 90.3338 105.298C94.3664 107.357 94.5539 106.785 95.0775 106.263C95.6793 105.657 94.5696 116.026 96.3827 119C98.1957 121.973 98.9929 124.377 98.7506 127.658C98.6881 128.555 98.7272 129.093 98.8053 129.409C98.9303 129.922 100.492 130.513 100.296 131C99.7725 132.307 99.8154 134.784 99.8388 138C99.555 140.5 98.5161 141.157 96.75 143.071C93.5302 146.574 89.5445 146.241 87.3642 145.464C85.1838 144.686 84.2895 144.5 82.9175 144C82.0028 143.5 81.8077 143.148 80.6745 142.969C79.5414 142.789 79.4241 142.123 79.5882 140.858L83.6833 121.831C83.6989 121.72 83.7224 121.6 83.7458 121.497L87.4032 106.75V106.742Z" fill="#BAD4D8"/>
<path d="M120.429 135.458C120.336 135.433 120.281 135.398 120.203 135.339C119.726 134.954 118.147 134.074 117.217 134.083C116.201 134.1 115.717 133.57 114.005 133.775H112.747C112.661 133.801 111.598 133.775 111.536 133.707C111.395 133.561 111.45 133.168 111.622 132.562C111.872 131.665 111.989 131.22 112.294 130.981C112.771 130.597 116.045 130.178 118.507 130.955C118.507 130.955 118.796 130.938 120.312 132.408C121.914 133.954 122.711 135.612 122.766 135.868C122.766 136.055 122.571 136.159 122.571 136.159C122.571 136.159 122.227 136.022 122.047 135.766C121.734 135.339 121.406 134.877 121.375 134.817C121.32 134.723 120.265 133.288 120.265 133.288L122.297 136.125C122.297 136.125 122.328 136.167 122.344 136.193C122.422 136.347 122.184 136.615 121.977 136.458C121.492 136.09 120.883 135.253 120.265 134.553C120.031 134.288 120 134.254 119.789 134.083C118.944 133.382 119.273 133.621 119.273 133.621L120.328 134.706C120.328 134.706 120.797 135.074 120.695 135.356C120.664 135.45 120.601 135.492 120.437 135.45L120.429 135.458Z" fill="#EDBD98"/>
<path d="M118.288 134.972C118.218 135.057 118.061 134.972 118.061 135.322C118.061 135.672 117.944 135.937 117.725 135.758C117.507 135.578 117.311 135.117 117.397 134.997C117.468 134.895 118.288 134.963 118.288 134.972Z" fill="#EDBD98"/>
<path d="M108.175 133.255C108.175 133.255 105.534 132.691 103.283 131.965C99.1412 130.632 97.5938 130.546 96.6873 129.222C95.7808 127.898 93.5144 125.915 91.7013 123.113C89.8882 120.311 87.4734 116.833 87.6219 114.193C87.7704 111.553 86.0511 109.169 87.4109 107.349C88.7707 105.529 89.2318 102.838 93.0064 104.162C96.7811 105.487 96.32 108.605 96.4059 111.194C96.5075 114.133 98.1174 118.516 100.235 121.661C102.353 124.796 108.144 126.069 111.317 128.051C114.49 130.034 114.779 130.341 114.779 130.341C114.779 130.341 114.334 130.461 114.091 132.571C113.896 134.297 111.575 133.793 111.168 133.981C111.067 134.024 110.95 134.024 110.84 133.99L108.175 133.263V133.255Z" fill="#B7CCCE"/>
<path d="M127.213 110.861C127.213 110.861 128.026 111.049 127.869 112.143C127.713 113.237 126.439 115.176 125.877 115.441C125.314 115.706 124.743 115.33 124.743 115.33L127.213 110.861Z" fill="black"/>
<path d="M126.635 113.531C127.345 112.297 127.661 111.117 127.34 110.896C127.018 110.675 126.182 111.495 125.471 112.729C124.76 113.963 124.444 115.142 124.765 115.364C125.087 115.585 125.924 114.764 126.635 113.531Z" fill="white"/>
<path d="M126.58 114.739L127.815 121.421L128.135 123.574H128.573L126.869 114.338L126.58 114.739Z" fill="black"/>
<path d="M114.623 121.309C114.623 121.309 119.288 125.402 119.32 125.496C119.351 125.59 119.32 128.307 119.32 128.307H119.953V125.411L117.796 123.446L114.177 120.455L113.966 120.788L114.615 121.318L114.623 121.309Z" fill="black"/>
<path d="M112.247 121.9C113.71 121.9 114.896 120.553 114.896 118.892C114.896 117.231 113.71 115.885 112.247 115.885C110.784 115.885 109.598 117.231 109.598 118.892C109.598 120.553 110.784 121.9 112.247 121.9Z" fill="black"/>
<path d="M121.14 121.575C121.14 121.575 124.798 123.489 124.767 124.3C124.735 125.112 122.555 126.53 121.609 126.915C120.484 127.368 119.781 127.188 119.695 127.641C119.663 127.821 119.718 127.897 119.726 128.017C119.726 128.188 119.859 128.316 120.015 128.299C120.546 128.248 121.695 127.769 122.094 127.59C122.531 127.385 124.938 125.966 125.314 124.753C125.626 123.754 125.118 123.258 123.766 121.925C122.414 120.592 122.063 120.062 122.063 120.062L121.148 121.575H121.14Z" fill="black"/>
<path d="M120.672 116.611H123.173C123.579 116.611 123.837 117.081 123.642 117.457L120.445 123.549C120.312 123.805 120.015 123.908 119.765 123.797L117.843 122.908C117.554 122.772 117.436 122.413 117.585 122.122L120.203 116.919C120.297 116.731 120.477 116.62 120.672 116.62V116.611Z" fill="#99DB26"/>
<path d="M121.094 116.713H123.18C123.68 116.713 123.993 117.302 123.751 117.781L120.844 123.471C120.679 123.796 120.32 123.924 120.007 123.779L118.405 123.018C118.054 122.848 117.905 122.395 118.093 122.019L120.507 117.089C120.625 116.858 120.844 116.713 121.086 116.713H121.094Z" fill="black"/>
<path d="M122.946 126.839C122.946 126.839 123.673 123.686 125.197 122.251C126.72 120.815 128.104 120.038 128.823 121.14L129.518 122.994C129.518 122.994 126.189 125.036 125.345 125.634C124.501 126.232 123.024 127.036 123.024 127.036L122.954 126.839H122.946Z" fill="#1E1E1E"/>
<path d="M129.088 123.08L128.393 121.218C128.361 121.141 128.299 121.098 128.221 121.107C127.932 121.141 127.213 121.277 126.884 121.841C126.853 121.893 126.853 121.952 126.877 122.004L127.603 123.96C127.642 124.063 127.752 124.106 127.838 124.046L129.018 123.302C129.088 123.26 129.119 123.166 129.088 123.08Z" fill="white"/>
<path d="M130.8 122.26C130.8 122.26 133.058 120.611 133.387 120.619C133.715 120.628 134.567 120.807 134.176 121.662L131.949 123.883L129.784 125.686L129.346 123.892L129.518 122.969L130.808 122.26H130.8Z" fill="black"/>
<g clip-path="url(#clip0_22158_427302)">
<path d="M264.63 191.569C264.622 191.563 264.614 191.557 264.607 191.55C264.446 191.41 262.583 189.794 262.137 189.524C261.67 189.241 261.17 189.188 261.331 188.712C261.492 188.235 262.447 187.568 262.782 187.445C263.078 187.334 263.663 187.092 263.788 187.039C263.804 187.033 263.819 187.025 263.834 187.015C263.935 186.955 264.35 186.71 264.457 186.719C264.58 186.728 265.288 185.904 266.105 187.187C266.921 188.47 267.222 188.564 267.222 188.777C267.222 188.977 266.566 190.961 265.353 191.807C265.224 191.897 265.059 191.89 264.933 191.796L264.63 191.57V191.569Z" stroke="black" stroke-width="4" stroke-miterlimit="10"/>
<path d="M267.498 192.376C267.498 192.376 265.332 192.965 265.597 191.505C265.861 190.045 266.17 188.354 267.845 188.329C269.521 188.303 269.697 189.009 271.55 189.81C273.402 190.611 273.657 190.848 277.008 190.942C280.36 191.036 281.404 191.06 281.978 191.012C282.553 190.965 283.104 193.766 282.751 194.519C282.398 195.272 279.61 194.659 279.449 194.587C279.288 194.514 270.183 192.871 269.082 192.541C267.979 192.211 267.5 192.376 267.5 192.376H267.498Z" fill="#131315"/>
<path d="M261.04 188.905C261.04 188.905 260.218 189.205 259.734 188.905C259.25 188.604 256.768 187.721 256.092 187.828C255.415 187.934 254.75 187.398 254.75 187.398C254.75 187.398 257.476 187.826 258.879 187.878C260.282 187.929 260.959 187.679 261.185 187.93C261.411 188.182 261.384 188.245 261.266 188.511C261.148 188.776 261.04 188.905 261.04 188.905Z" fill="#1E1E1E"/>
<path d="M280.191 194.156C280.191 194.156 276.148 205.1 275.466 205.082C274.785 205.063 274.529 207.98 274.465 208.274C274.401 208.568 273.46 209.988 275.747 210.482C278.036 210.977 288.736 213.132 288.736 213.132C288.736 213.132 291.025 213.626 292.411 213.308C293.796 212.991 294.957 212.355 295.505 212.284C296.053 212.213 298.342 209.07 299.019 208.15C299.696 207.232 306.368 196.105 306.432 195.54C306.496 194.974 305.605 193.589 305.089 192.282C304.573 190.975 300.657 185.352 300.657 185.352L296.987 181.046C296.987 181.046 296.493 180.74 296.064 181.046C295.634 181.353 294.743 182.305 294.679 182.799C294.615 183.293 294.55 185.06 294.615 185.342C294.68 185.625 296.086 188.793 296.086 188.793C296.086 188.793 292.937 188.297 292.873 188.828C292.809 189.358 292.985 191.708 293.047 193.083C293.108 194.458 293.141 194.889 293.047 195.437C292.984 195.8 290.928 205.167 290.928 205.167L283.065 202.285L283.881 193.598L283.377 193.842L280.352 193.569L280.192 194.155L280.191 194.156Z" fill="black"/>
<path d="M298.978 194.945L292.961 184.913C292.961 184.913 291.662 182.754 291.414 183.218C291.166 183.681 291.35 185.761 291.35 185.761C291.35 185.761 293.778 191.177 294.336 192.214C294.895 193.25 295.411 196.17 295.411 196.17L293.606 202.669L294.336 207.567L294.702 207.756L297.344 202.669L300.543 197.32L298.978 194.945Z" fill="#00DFF4"/>
<path d="M305.743 200.671L304.783 198.461L305.033 198.152L305.617 199.622L306.073 200.671H305.743Z" fill="#B7C4B7"/>
<path d="M291.921 187.029C291.921 187.029 290.615 184.354 290.003 183.382C289.391 182.411 289.186 182.269 288.263 181.592C287.523 181.048 286.627 179.817 286.329 179.655C285.818 179.377 283.906 180.886 283.777 180.815C283.648 180.744 284.11 180.008 284.089 179.796C284.067 179.571 283.662 179.499 283.38 179.655C283.266 179.718 282.265 180.387 281.823 180.682C281.639 180.805 281.396 180.74 281.291 180.532C281.248 180.447 281.217 180.339 281.214 180.202C281.198 179.69 282.186 179.052 282.186 179.052L284.3 176.704C284.3 176.704 285.767 175.056 287.399 174.678C289.033 174.302 289.738 174.298 290.19 174.533C290.642 174.769 293.271 176.56 293.851 177.174C294.431 177.789 296.107 179.683 295.805 179.933C295.504 180.183 294.006 180.665 293.69 180.834C293.412 180.982 292.819 181.433 292.819 181.433C292.667 181.661 292.309 181.772 291.831 183.176C291.68 183.618 291.338 182.994 291.286 184.349C291.253 185.214 291.922 187.024 291.922 187.024L291.921 187.029Z" fill="black"/>
<path d="M264.942 187.004C264.942 187.004 262.428 188.528 260.279 188.574C258.13 188.621 252.586 187.938 251.512 187.232C250.438 186.525 248.869 183.652 248.848 182.804C248.826 181.956 248.848 181.697 248.848 181.697C248.848 181.697 248.397 181.579 248.482 180.896C248.568 180.213 248.526 180.072 248.762 180.002C248.998 179.932 249.3 179.884 249.3 179.884C249.3 179.884 249.492 178.848 249.858 178.424C250.223 178 251.877 176.775 252.931 176.14C253.984 175.504 257.185 174.186 260.344 174.327C263.502 174.468 265.65 174.186 266.468 176.659C266.468 176.659 266.984 178.684 267.091 179.013C267.198 179.342 267.327 180.167 266.94 181.322C266.553 182.475 265.781 185.994 265.495 186.437C265.21 186.88 264.942 187.004 264.942 187.004Z" fill="#1E1E1E"/>
<path d="M248.762 180.001C248.762 180.001 257.626 180.401 259.011 180.19C260.397 179.979 266.937 178.465 266.937 178.465L267.167 179.358C267.167 179.358 260.977 181.002 259.945 181.002C258.913 181.002 248.601 180.449 248.601 180.449L248.532 180.445L248.558 180.259C248.558 180.259 248.57 180.193 248.579 180.168C248.588 180.143 248.606 180.107 248.607 180.106C248.608 180.105 248.629 180.071 248.649 180.056C248.668 180.041 248.719 180.016 248.727 180.012C248.735 180.009 248.761 180.001 248.761 180.001H248.762Z" fill="#070707"/>
<path d="M248.534 180.446C248.534 180.446 248.402 181.388 248.625 181.543C248.847 181.698 253.339 182.16 253.339 182.16C253.339 182.16 259.624 182.452 260.043 182.417C260.462 182.382 266.94 181.322 266.94 181.322C266.94 181.322 267.217 179.809 267.193 179.584C267.169 179.359 267.143 179.365 267.143 179.365C267.143 179.365 262.106 180.659 261.26 180.809C260.414 180.959 250.649 180.491 250.649 180.491L248.535 180.446H248.534Z" fill="#3D3D3D"/>
<path d="M266.291 180.544C266.291 180.544 267.548 180.296 267.613 180.102C267.678 179.908 267.597 179.484 267.387 179.484C267.177 179.484 266.098 179.796 266.098 179.796L265.98 179.835C265.787 179.898 265.67 180.119 265.725 180.33C265.725 180.334 265.727 180.336 265.727 180.34L265.816 180.675L266.291 180.543V180.544Z" fill="white"/>
<path d="M261.068 182.016C261.068 182.016 262.342 181.917 262.426 181.731C262.509 181.544 262.47 181.114 262.261 181.09C262.053 181.065 260.948 181.25 260.948 181.25L260.827 181.275C260.629 181.315 260.492 181.521 260.525 181.738C260.525 181.742 260.525 181.745 260.526 181.748L260.582 182.092L261.067 182.016H261.068Z" fill="white"/>
<path d="M266.227 216.347C270.813 216.347 274.53 212.272 274.53 207.247C274.53 202.221 270.813 198.146 266.227 198.146C261.641 198.146 257.924 202.221 257.924 207.247C257.924 212.272 261.641 216.347 266.227 216.347Z" fill="#393A38"/>
<path d="M265.381 212.936C268.144 212.936 270.384 210.363 270.384 207.189C270.384 204.015 268.144 201.441 265.381 201.441C262.618 201.441 260.378 204.015 260.378 207.189C260.378 210.363 262.618 212.936 265.381 212.936Z" fill="black"/>
<path d="M279.686 196.253L275.682 205.456C275.497 205.882 275.072 206.117 274.649 206.029L272.433 205.566C272.168 205.511 271.942 205.332 271.801 205.08C271.588 204.701 271.173 204.147 270.467 203.882C269.381 203.474 259.629 200.216 258.906 199.975C258.878 199.965 258.85 199.955 258.823 199.942C258.271 199.693 258.063 198.951 258.394 198.407C258.672 197.951 258.982 197.463 259.187 197.206C259.638 196.641 261.922 193.123 262.346 192.791C262.795 192.438 264.15 191.66 265.891 191.838C267.632 192.014 270.017 191.264 272.402 191.815C274.787 192.367 280.009 194.134 280.105 194.558C280.201 194.982 279.686 196.253 279.686 196.253Z" fill="#00DFF4"/>
<path d="M272.34 192.725C271.984 192.725 271.694 193.043 271.694 193.435C271.694 193.827 272.34 194.747 272.34 194.747C272.34 194.747 272.987 193.827 272.987 193.435C272.987 193.043 272.698 192.725 272.34 192.725ZM272.34 193.69C272.211 193.69 272.108 193.575 272.108 193.433C272.108 193.292 272.213 193.177 272.34 193.177C272.468 193.177 272.573 193.292 272.573 193.433C272.573 193.575 272.468 193.69 272.34 193.69Z" fill="white"/>
<path d="M268.119 199.743V197.446C268.108 197.399 268.106 197.349 268.086 197.305C268.061 197.253 268.025 197.211 267.979 197.18C267.93 197.146 267.876 197.119 267.821 197.1C267.805 197.094 267.787 197.09 267.771 197.085C267.756 197.084 267.741 197.082 267.727 197.08C267.727 197.08 267.724 197.08 267.723 197.08C267.708 197.08 267.693 197.08 267.678 197.077H266.245V198.173H267.114V198.413C266.999 198.504 266.876 198.569 266.741 198.607C266.607 198.646 266.472 198.66 266.337 198.65C266.201 198.64 266.069 198.603 265.94 198.54C265.812 198.476 265.697 198.389 265.595 198.277C265.48 198.152 265.394 198.009 265.335 197.849C265.276 197.688 265.246 197.526 265.246 197.362C265.246 197.199 265.276 197.035 265.335 196.876C265.394 196.716 265.48 196.573 265.595 196.447C265.709 196.322 265.839 196.228 265.985 196.165C266.13 196.101 266.278 196.07 266.428 196.07C266.579 196.07 266.725 196.101 266.872 196.165C267.017 196.228 267.147 196.321 267.262 196.447L267.971 195.668C267.759 195.434 267.518 195.26 267.251 195.142C266.983 195.026 266.709 194.967 266.429 194.967C266.15 194.967 265.876 195.026 265.608 195.142C265.341 195.259 265.1 195.434 264.888 195.668C264.675 195.902 264.517 196.166 264.412 196.459C264.307 196.754 264.254 197.054 264.254 197.361C264.254 197.667 264.307 197.968 264.412 198.26C264.517 198.551 264.675 198.815 264.888 199.048C265.1 199.282 265.341 199.457 265.608 199.574C265.876 199.69 266.15 199.749 266.429 199.749C266.544 199.749 266.659 199.739 266.775 199.72C266.891 199.701 267.005 199.67 267.115 199.625V199.742H268.121L268.119 199.743Z" fill="white"/>
<path d="M270.462 194.973C270.761 194.973 271.043 195.036 271.307 195.161C271.57 195.286 271.8 195.456 271.998 195.671C272.194 195.885 272.35 196.137 272.464 196.427C272.578 196.717 272.635 197.026 272.635 197.355C272.635 197.684 272.578 197.993 272.464 198.283C272.35 198.573 272.194 198.825 271.998 199.039C271.801 199.253 271.57 199.424 271.307 199.549C271.043 199.674 270.762 199.737 270.462 199.737C270.163 199.737 269.882 199.674 269.618 199.549C269.355 199.424 269.125 199.254 268.93 199.039C268.735 198.825 268.58 198.573 268.466 198.283C268.352 197.993 268.295 197.684 268.295 197.355C268.295 197.026 268.352 196.717 268.466 196.427C268.58 196.137 268.735 195.885 268.93 195.671C269.125 195.457 269.353 195.286 269.618 195.161C269.882 195.036 270.163 194.973 270.462 194.973ZM270.465 198.64C270.626 198.64 270.778 198.606 270.921 198.54C271.063 198.473 271.187 198.38 271.293 198.264C271.399 198.148 271.483 198.011 271.545 197.854C271.605 197.698 271.636 197.532 271.636 197.355C271.636 197.178 271.605 197.012 271.545 196.856C271.484 196.699 271.399 196.564 271.293 196.447C271.187 196.331 271.062 196.238 270.921 196.172C270.778 196.104 270.628 196.072 270.465 196.072C270.302 196.072 270.152 196.106 270.009 196.172C269.867 196.24 269.743 196.331 269.637 196.447C269.531 196.564 269.447 196.701 269.386 196.856C269.325 197.012 269.294 197.178 269.294 197.355C269.294 197.532 269.325 197.698 269.386 197.854C269.446 198.011 269.531 198.146 269.637 198.264C269.743 198.38 269.868 198.473 270.009 198.54C270.152 198.607 270.302 198.64 270.465 198.64Z" fill="white"/>
<path d="M266.506 201.348C266.452 201.316 266.415 201.29 266.394 201.266C266.362 201.231 266.346 201.188 266.346 201.138C266.346 201.088 266.362 201.043 266.394 201.008C266.427 200.973 266.466 200.955 266.511 200.955C266.557 200.955 266.595 200.971 266.626 201.005C266.655 201.038 266.669 201.074 266.669 201.116V201.12L266.614 201.144C266.609 201.104 266.597 201.076 266.58 201.055C266.562 201.036 266.54 201.026 266.51 201.026C266.48 201.026 266.458 201.036 266.437 201.058C266.417 201.08 266.407 201.107 266.407 201.138C266.407 201.169 266.416 201.195 266.437 201.217C266.45 201.231 266.474 201.25 266.511 201.276C266.572 201.312 266.614 201.344 266.639 201.372C266.679 201.416 266.698 201.469 266.698 201.53C266.698 201.59 266.678 201.646 266.639 201.69C266.599 201.734 266.55 201.757 266.494 201.757C266.437 201.757 266.389 201.734 266.349 201.69C266.308 201.646 266.29 201.597 266.29 201.546L266.353 201.528C266.353 201.574 266.366 201.611 266.394 201.642C266.423 201.673 266.456 201.687 266.495 201.687C266.534 201.687 266.568 201.673 266.596 201.642C266.624 201.611 266.638 201.574 266.638 201.531C266.638 201.488 266.624 201.452 266.596 201.422C266.581 201.406 266.55 201.381 266.505 201.35L266.506 201.348Z" fill="white"/>
<path d="M266.88 200.504H266.943V201.021C266.997 200.965 267.061 200.936 267.135 200.936C267.217 200.936 267.283 200.964 267.334 201.02C267.385 201.076 267.412 201.146 267.414 201.232V201.739H267.35V201.238C267.35 201.173 267.329 201.118 267.287 201.073C267.244 201.027 267.194 201.005 267.137 201.005C267.079 201.005 267.028 201.027 266.986 201.073C266.967 201.093 266.954 201.114 266.944 201.137V201.74H266.881V200.504H266.88Z" fill="white"/>
<path d="M268.371 201.741H268.308V201.586C268.295 201.604 268.282 201.621 268.267 201.637C268.192 201.72 268.101 201.761 267.993 201.761C267.885 201.761 267.795 201.72 267.72 201.637C267.645 201.555 267.607 201.455 267.607 201.338C267.607 201.222 267.645 201.12 267.72 201.038C267.795 200.955 267.887 200.914 267.993 200.914C268.099 200.914 268.191 200.955 268.267 201.038C268.282 201.054 268.295 201.072 268.308 201.089V200.982H268.371V201.741ZM268.308 201.406V201.269C268.295 201.201 268.266 201.141 268.22 201.089C268.158 201.02 268.083 200.986 267.994 200.986C267.906 200.986 267.83 201.02 267.768 201.089C267.707 201.157 267.674 201.241 267.674 201.337C267.674 201.433 267.705 201.517 267.768 201.584C267.83 201.652 267.906 201.686 267.994 201.686C268.083 201.686 268.158 201.652 268.22 201.583C268.267 201.531 268.297 201.472 268.308 201.405V201.406Z" fill="white"/>
<path d="M268.582 200.981H268.645V201.119C268.658 201.098 268.673 201.079 268.691 201.06C268.747 200.998 268.804 200.967 268.863 200.963V201.038C268.822 201.039 268.782 201.065 268.739 201.112C268.679 201.177 268.648 201.256 268.645 201.347V201.739H268.582V200.981Z" fill="white"/>
<path d="M269.107 200.732C269.119 200.745 269.126 200.761 269.126 200.78C269.126 200.799 269.119 200.816 269.107 200.83C269.095 200.844 269.08 200.851 269.063 200.851C269.045 200.851 269.031 200.844 269.019 200.83C269.006 200.817 269 200.801 269 200.78C269 200.76 269.006 200.745 269.019 200.732C269.031 200.718 269.045 200.711 269.063 200.711C269.08 200.711 269.095 200.718 269.107 200.732ZM269.094 200.981V201.739H269.031V200.981H269.094Z" fill="white"/>
<path d="M269.383 201.151V201.74H269.32V200.981H269.383V201.03C269.441 200.966 269.508 200.936 269.584 200.936C269.666 200.936 269.732 200.964 269.783 201.02C269.834 201.076 269.861 201.146 269.863 201.232V201.738H269.799V201.238C269.799 201.173 269.778 201.118 269.736 201.073C269.693 201.027 269.644 201.005 269.586 201.005C269.528 201.005 269.477 201.027 269.435 201.073C269.412 201.098 269.395 201.124 269.384 201.151H269.383Z" fill="white"/>
<path d="M270.753 201.59C270.741 201.607 270.728 201.623 270.715 201.637C270.64 201.72 270.548 201.761 270.441 201.761C270.333 201.761 270.243 201.72 270.168 201.637C270.093 201.555 270.055 201.455 270.055 201.338C270.055 201.222 270.093 201.12 270.168 201.038C270.243 200.955 270.335 200.914 270.441 200.914C270.547 200.914 270.638 200.955 270.715 201.038C270.73 201.054 270.743 201.072 270.755 201.089V200.982H270.818V201.571C270.818 201.685 270.782 201.782 270.708 201.863C270.633 201.945 270.542 201.987 270.435 201.987C270.329 201.987 270.238 201.945 270.161 201.863C270.145 201.845 270.132 201.828 270.119 201.81L270.187 201.783C270.193 201.792 270.201 201.801 270.21 201.81C270.271 201.878 270.347 201.913 270.435 201.913C270.524 201.913 270.598 201.879 270.661 201.81C270.718 201.748 270.749 201.674 270.754 201.589L270.753 201.59ZM270.754 201.266C270.742 201.2 270.712 201.141 270.667 201.091C270.605 201.022 270.529 200.988 270.441 200.988C270.352 200.988 270.277 201.022 270.215 201.091C270.153 201.159 270.121 201.243 270.121 201.338C270.121 201.434 270.152 201.518 270.215 201.586C270.277 201.654 270.352 201.689 270.441 201.689C270.529 201.689 270.605 201.655 270.667 201.586C270.712 201.536 270.741 201.478 270.754 201.412V201.265V201.266Z" fill="white"/>
<path d="M278.082 207.433C278.082 207.433 273.721 206.75 272.947 206.444C272.173 206.137 264.438 206.986 264.18 206.938C263.922 206.891 263.02 206.749 262.934 207.432C262.847 208.115 262.87 209.057 263.255 209.081C263.642 209.105 271.635 209.67 272.56 209.34C273.483 209.01 273.483 208.954 274.644 208.841C275.804 208.728 278.166 209.055 278.391 208.959C278.615 208.862 278.875 208.199 278.728 207.846C278.583 207.494 278.081 207.435 278.081 207.435L278.082 207.433Z" fill="#1E1E1D"/>
<path d="M263.671 206.925C263.671 206.925 263.38 205.721 263.541 205.579C263.702 205.438 263.879 205.562 264.153 205.173C264.427 204.784 264.666 203.685 264.864 202.877C265.061 202.069 265.09 202.049 265.09 202.049L266.489 202.52C266.489 202.52 265.216 204.626 264.991 205.403C264.766 206.18 264.864 206.834 264.864 206.834L264.872 206.928H263.671V206.925Z" fill="#1E1E1D"/>
<path d="M291.534 183.417L297.821 193.466C297.821 193.466 299.887 197.111 300.544 197.321C300.917 197.44 304.237 194.878 305.089 194.191C306.435 193.108 305.723 192.32 302.999 188.48C300.658 185.179 297.268 181.164 296.362 180.101C296.22 179.933 296.004 179.87 295.804 179.935C295.024 180.194 293.073 180.914 292.46 181.838C291.686 183.004 291.535 183.416 291.535 183.416L291.534 183.417Z" fill="#3EF0FB"/>
<path d="M307.172 219.999C312.135 219.999 316.158 215.59 316.158 210.151C316.158 204.712 312.135 200.303 307.172 200.303C302.21 200.303 298.187 204.712 298.187 210.151C298.187 215.59 302.21 219.999 307.172 219.999Z" fill="#393A38"/>
<path d="M307.172 216.372C310.163 216.372 312.587 213.587 312.587 210.153C312.587 206.718 310.163 203.934 307.172 203.934C304.182 203.934 301.758 206.718 301.758 210.153C301.758 213.587 304.182 216.372 307.172 216.372Z" fill="black"/>
<path d="M306.55 210.534L308.258 209.368L309.66 203.063C309.66 203.063 309.886 202.11 310.256 201.632C310.625 201.154 310.867 200.953 311.014 201.38C311.014 201.38 311.077 201.001 310.45 200.731C309.828 200.463 306.453 199.054 304.004 199.495C301.554 199.937 306.55 210.534 306.55 210.534Z" fill="#00DFF4"/>
<path d="M300.997 200.053L302.127 202.556L302.613 202.272L301.34 199.337L300.523 197.355L300.103 198.057L300.997 200.053Z" fill="#B7C4B7"/>
<path d="M306.402 210.485L303.289 202.232C303.249 202.127 303.145 202.069 303.044 202.097C302.759 202.176 302.197 202.352 301.829 202.6C301.698 202.688 301.591 202.786 301.531 202.891C301.32 203.263 304.36 208.092 306.038 210.705C306.182 210.929 306.497 210.738 306.402 210.485Z" fill="#1E1E1D"/>
<path d="M283.848 179.584C283.817 179.621 283.752 179.584 283.751 179.733C283.75 179.882 283.702 179.996 283.607 179.918C283.513 179.841 283.432 179.646 283.467 179.594C283.498 179.549 283.846 179.581 283.848 179.586V179.584Z" fill="#D5C4BB"/>
<path d="M284.639 179.658C284.629 179.65 284.628 179.635 284.635 179.625C284.653 179.6 284.681 179.547 284.697 179.545C284.725 179.542 284.847 179.665 284.852 179.684C284.852 179.684 284.858 179.745 284.772 179.764L284.639 179.658Z" fill="#B7C4B7"/>
<path d="M285.344 180.066C285.344 180.066 285.404 179.937 285.438 179.979C285.472 180.022 285.563 180.129 285.557 180.169C285.551 180.21 285.548 180.246 285.514 180.241C285.479 180.236 285.345 180.067 285.345 180.067L285.344 180.066Z" fill="#B7C4B7"/>
<path d="M285.484 179.86C285.484 179.86 285.547 179.725 285.582 179.768C285.617 179.812 285.734 179.947 285.728 179.989C285.722 180.03 285.697 180.047 285.661 180.042C285.624 180.037 285.484 179.86 285.484 179.86Z" fill="#B7C4B7"/>
<path d="M287.655 169.271C287.655 169.271 288 169.353 287.935 169.818C287.87 170.284 287.325 171.116 287.084 171.229C286.844 171.343 286.603 171.182 286.603 171.182L287.656 169.271H287.655Z" fill="black"/>
<path d="M287.41 170.415C287.713 169.888 287.847 169.384 287.71 169.289C287.573 169.195 287.216 169.545 286.913 170.073C286.61 170.6 286.476 171.104 286.613 171.199C286.75 171.293 287.107 170.943 287.41 170.415Z" fill="white"/>
<path d="M287.386 170.931L287.912 173.789L288.048 174.707H288.236L287.508 170.76L287.386 170.931Z" fill="black"/>
<path d="M282.285 173.741C282.285 173.741 284.277 175.491 284.289 175.53C284.3 175.569 284.289 176.731 284.289 176.731H284.559V175.491L283.64 174.652L282.096 173.373L282.008 173.516L282.285 173.742V173.741Z" fill="black"/>
<path d="M281.272 173.992C281.897 173.992 282.403 173.416 282.403 172.707C282.403 171.997 281.897 171.422 281.272 171.422C280.647 171.422 280.141 171.997 280.141 172.707C280.141 173.416 280.647 173.992 281.272 173.992Z" fill="black"/>
<path d="M285.066 173.852C285.066 173.852 286.628 174.671 286.612 175.017C286.596 175.362 285.669 175.971 285.263 176.135C284.783 176.329 284.484 176.253 284.448 176.447C284.435 176.522 284.46 176.555 284.461 176.608C284.463 176.68 284.519 176.736 284.584 176.729C284.811 176.707 285.302 176.504 285.47 176.425C285.657 176.338 286.685 175.731 286.844 175.212C286.977 174.784 286.762 174.572 286.183 174.003C285.605 173.434 285.456 173.205 285.456 173.205L285.067 173.852H285.066Z" fill="black"/>
<path d="M284.865 171.73H285.932C286.106 171.73 286.217 171.929 286.131 172.091L284.768 174.697C284.711 174.806 284.585 174.851 284.478 174.801L283.657 174.42C283.535 174.363 283.485 174.207 283.548 174.082L284.664 171.857C284.704 171.779 284.781 171.729 284.865 171.729V171.73Z" fill="#99DB26"/>
<path d="M285.045 171.775H285.937C286.15 171.775 286.285 172.027 286.181 172.231L284.943 174.665C284.873 174.803 284.719 174.86 284.587 174.797L283.904 174.471C283.754 174.4 283.692 174.204 283.769 174.046L284.799 171.938C284.848 171.838 284.943 171.777 285.045 171.777V171.775Z" fill="black"/>
<path d="M285.834 176.105C285.834 176.105 286.145 174.755 286.796 174.145C287.446 173.534 288.036 173.199 288.341 173.668L288.637 174.462C288.637 174.462 287.217 175.334 286.856 175.59C286.495 175.845 285.865 176.189 285.865 176.189L285.834 176.105Z" fill="#1E1E1E"/>
<path d="M288.458 174.497L288.161 173.698C288.149 173.666 288.12 173.647 288.088 173.651C287.963 173.666 287.656 173.726 287.517 173.965C287.506 173.985 287.504 174.012 287.512 174.035L287.823 174.871C287.839 174.913 287.886 174.932 287.922 174.908L288.426 174.592C288.457 174.573 288.469 174.532 288.455 174.497H288.458Z" fill="white"/>
<path d="M289.185 174.148C289.185 174.148 290.147 173.445 290.287 173.447C290.428 173.45 290.79 173.529 290.623 173.893L289.673 174.842L288.749 175.612L288.564 174.846L288.636 174.449L289.185 174.147V174.148Z" fill="black"/>
<ellipse opacity="0.7" cx="265.393" cy="216.702" rx="7.80984" ry="0.623955" fill="url(#paint0_radial_22158_427302)"/>
<ellipse opacity="0.7" cx="307.979" cy="220.042" rx="7.80984" ry="0.623957" fill="url(#paint1_radial_22158_427302)"/>
</g>
<g clip-path="url(#clip1_22158_427302)">
<path d="M226.485 193.462C226.475 193.454 226.465 193.446 226.457 193.439C226.257 193.263 223.941 191.243 223.386 190.905C222.805 190.552 222.184 190.486 222.384 189.89C222.584 189.294 223.772 188.461 224.188 188.306C224.557 188.169 225.283 187.865 225.439 187.799C225.459 187.792 225.478 187.782 225.496 187.77C225.621 187.695 226.138 187.388 226.271 187.399C226.423 187.41 227.304 186.381 228.319 187.984C229.334 189.588 229.708 189.706 229.708 189.972C229.708 190.222 228.892 192.702 227.385 193.759C227.225 193.872 227.019 193.862 226.863 193.745L226.485 193.464V193.462Z" stroke="black" stroke-width="4" stroke-miterlimit="10"/>
<path d="M230.052 194.47C230.052 194.47 227.358 195.207 227.688 193.382C228.017 191.557 228.4 189.442 230.483 189.411C232.567 189.378 232.785 190.262 235.089 191.263C237.392 192.263 237.708 192.561 241.875 192.678C246.042 192.795 247.34 192.825 248.054 192.765C248.768 192.706 249.453 196.207 249.015 197.149C248.576 198.09 245.109 197.324 244.909 197.233C244.709 197.143 233.39 195.089 232.02 194.676C230.649 194.264 230.053 194.47 230.053 194.47H230.052Z" fill="#131315"/>
<path d="M222.022 190.131C222.022 190.131 221 190.506 220.399 190.131C219.797 189.756 216.712 188.652 215.87 188.784C215.029 188.917 214.203 188.248 214.203 188.248C214.203 188.248 217.592 188.783 219.336 188.847C221.08 188.911 221.921 188.598 222.202 188.913C222.483 189.227 222.449 189.307 222.303 189.638C222.157 189.97 222.022 190.131 222.022 190.131Z" fill="#1E1E1E"/>
<path d="M245.831 196.694C245.831 196.694 240.805 210.374 239.958 210.351C239.11 210.328 238.792 213.974 238.713 214.342C238.633 214.709 237.463 216.484 240.307 217.102C243.152 217.72 256.455 220.414 256.455 220.414C256.455 220.414 259.301 221.032 261.024 220.635C262.746 220.237 264.19 219.443 264.871 219.354C265.552 219.265 268.398 215.336 269.239 214.187C270.081 213.039 278.376 199.131 278.455 198.424C278.535 197.717 277.428 195.986 276.786 194.352C276.145 192.717 271.276 185.69 271.276 185.69L266.713 180.307C266.713 180.307 266.099 179.924 265.565 180.307C265.031 180.69 263.923 181.88 263.843 182.498C263.764 183.116 263.683 185.324 263.764 185.677C263.845 186.031 265.593 189.99 265.593 189.99C265.593 189.99 261.678 189.371 261.598 190.034C261.519 190.697 261.737 193.634 261.814 195.352C261.891 197.071 261.932 197.611 261.814 198.296C261.736 198.749 259.18 210.457 259.18 210.457L249.405 206.856L250.42 195.997L249.792 196.302L246.032 195.961L245.833 196.693L245.831 196.694Z" fill="black"/>
<path d="M269.188 197.682L261.708 185.142C261.708 185.142 260.093 182.443 259.785 183.023C259.477 183.602 259.705 186.202 259.705 186.202C259.705 186.202 262.724 192.972 263.418 194.269C264.112 195.563 264.753 199.213 264.753 199.213L262.51 207.337L263.418 213.46L263.872 213.696L267.157 207.337L271.134 200.65L269.188 197.682Z" fill="#00DFF4"/>
<path d="M277.6 204.837L276.406 202.076L276.717 201.689L277.442 203.527L278.01 204.837H277.6Z" fill="#B7C4B7"/>
<path d="M260.415 187.787C260.415 187.787 258.791 184.443 258.031 183.228C257.27 182.014 257.014 181.836 255.868 180.99C254.947 180.31 253.833 178.771 253.462 178.569C252.828 178.222 250.451 180.108 250.29 180.019C250.13 179.93 250.703 179.01 250.678 178.746C250.651 178.465 250.147 178.374 249.797 178.569C249.655 178.648 248.41 179.484 247.861 179.853C247.632 180.007 247.33 179.925 247.2 179.666C247.146 179.559 247.107 179.425 247.103 179.253C247.083 178.613 248.312 177.816 248.312 177.816L250.94 174.88C250.94 174.88 252.764 172.821 254.793 172.349C256.824 171.878 257.701 171.873 258.263 172.167C258.825 172.461 262.094 174.701 262.815 175.468C263.536 176.236 265.619 178.604 265.244 178.917C264.87 179.229 263.008 179.831 262.614 180.043C262.268 180.229 261.532 180.792 261.532 180.792C261.343 181.076 260.897 181.215 260.303 182.97C260.115 183.524 259.69 182.743 259.626 184.437C259.585 185.517 260.416 187.78 260.416 187.78L260.415 187.787Z" fill="black"/>
<path d="M226.873 187.754C226.873 187.754 223.748 189.659 221.076 189.716C218.405 189.776 211.512 188.922 210.176 188.038C208.841 187.155 206.891 183.564 206.864 182.504C206.837 181.444 206.864 181.12 206.864 181.12C206.864 181.12 206.303 180.973 206.41 180.119C206.516 179.265 206.464 179.089 206.758 179.001C207.051 178.914 207.426 178.854 207.426 178.854C207.426 178.854 207.666 177.559 208.12 177.029C208.574 176.499 210.631 174.968 211.94 174.174C213.25 173.379 217.23 171.731 221.156 171.908C225.083 172.084 227.754 171.731 228.77 174.823C228.77 174.823 229.412 177.354 229.545 177.766C229.679 178.177 229.839 179.208 229.358 180.651C228.877 182.093 227.916 186.492 227.561 187.045C227.206 187.599 226.873 187.754 226.873 187.754Z" fill="#1E1E1E"/>
<path d="M206.758 179.002C206.758 179.002 217.777 179.503 219.5 179.239C221.223 178.974 229.354 177.082 229.354 177.082L229.64 178.199C229.64 178.199 221.944 180.253 220.661 180.253C219.378 180.253 206.558 179.562 206.558 179.562L206.472 179.558L206.504 179.325C206.504 179.325 206.519 179.242 206.531 179.21C206.542 179.179 206.563 179.135 206.565 179.134C206.566 179.132 206.593 179.09 206.617 179.071C206.641 179.052 206.704 179.021 206.714 179.016C206.724 179.012 206.756 179.002 206.756 179.002H206.758Z" fill="#070707"/>
<path d="M206.474 179.556C206.474 179.556 206.311 180.734 206.587 180.928C206.864 181.122 212.449 181.699 212.449 181.699C212.449 181.699 220.262 182.063 220.783 182.019C221.304 181.975 229.358 180.651 229.358 180.651C229.358 180.651 229.701 178.76 229.671 178.479C229.642 178.197 229.61 178.205 229.61 178.205C229.61 178.205 223.348 179.822 222.296 180.01C221.244 180.197 209.104 179.613 209.104 179.613L206.475 179.556H206.474Z" fill="#3D3D3D"/>
<path d="M228.55 179.678C228.55 179.678 230.113 179.368 230.194 179.126C230.275 178.884 230.174 178.354 229.913 178.354C229.652 178.354 228.31 178.743 228.31 178.743L228.164 178.791C227.924 178.871 227.778 179.146 227.846 179.411C227.846 179.415 227.849 179.418 227.849 179.423L227.96 179.842L228.55 179.677V179.678Z" fill="white"/>
<path d="M222.058 181.52C222.058 181.52 223.641 181.396 223.745 181.163C223.849 180.93 223.8 180.392 223.541 180.362C223.282 180.331 221.909 180.562 221.909 180.562L221.758 180.594C221.511 180.644 221.341 180.9 221.382 181.172C221.382 181.177 221.382 181.18 221.384 181.185L221.453 181.615L222.056 181.52H222.058Z" fill="white"/>
<path d="M228.471 224.434C234.172 224.434 238.794 219.341 238.794 213.059C238.794 206.776 234.172 201.684 228.471 201.684C222.77 201.684 218.148 206.776 218.148 213.059C218.148 219.341 222.77 224.434 228.471 224.434Z" fill="#393A38"/>
<path d="M227.419 220.171C230.855 220.171 233.64 216.955 233.64 212.987C233.64 209.019 230.855 205.803 227.419 205.803C223.984 205.803 221.199 209.019 221.199 212.987C221.199 216.955 223.984 220.171 227.419 220.171Z" fill="black"/>
<path d="M245.204 199.316L240.226 210.82C239.996 211.353 239.468 211.647 238.942 211.536L236.187 210.957C235.858 210.888 235.577 210.665 235.401 210.35C235.137 209.877 234.62 209.184 233.743 208.852C232.392 208.342 220.268 204.27 219.37 203.969C219.334 203.956 219.3 203.943 219.266 203.928C218.579 203.617 218.321 202.689 218.733 202.009C219.079 201.438 219.464 200.828 219.719 200.508C220.28 199.801 223.119 195.403 223.646 194.989C224.205 194.548 225.89 193.575 228.054 193.797C230.218 194.018 233.183 193.08 236.149 193.769C239.113 194.459 245.606 196.667 245.725 197.197C245.844 197.727 245.204 199.316 245.204 199.316Z" fill="#00DFF4"/>
<path d="M243.21 213.291C243.21 213.291 237.788 212.438 236.825 212.054C235.863 211.671 226.247 212.732 225.926 212.672C225.605 212.613 224.484 212.436 224.377 213.29C224.269 214.144 224.297 215.321 224.777 215.351C225.258 215.381 235.195 216.087 236.344 215.675C237.492 215.262 237.492 215.191 238.936 215.051C240.378 214.91 243.314 215.318 243.593 215.198C243.873 215.077 244.195 214.248 244.013 213.807C243.833 213.366 243.209 213.293 243.209 213.293L243.21 213.291Z" fill="#1E1E1D"/>
<path d="M225.293 212.656C225.293 212.656 224.932 211.15 225.132 210.974C225.332 210.797 225.552 210.952 225.892 210.465C226.233 209.979 226.531 208.606 226.776 207.596C227.022 206.586 227.057 206.561 227.057 206.561L228.797 207.15C228.797 207.15 227.214 209.782 226.934 210.753C226.654 211.724 226.776 212.542 226.776 212.542L226.786 212.659H225.293V212.656Z" fill="#1E1E1D"/>
<path d="M259.934 183.27L267.751 195.831C267.751 195.831 270.319 200.388 271.135 200.651C271.599 200.799 275.726 197.596 276.786 196.738C278.46 195.384 277.574 194.398 274.188 189.599C271.277 185.472 267.062 180.454 265.937 179.125C265.76 178.915 265.491 178.837 265.243 178.918C264.272 179.242 261.847 180.141 261.085 181.297C260.123 182.754 259.935 183.269 259.935 183.269L259.934 183.27Z" fill="#3EF0FB"/>
<path d="M279.376 229C285.546 229 290.548 223.488 290.548 216.689C290.548 209.89 285.546 204.379 279.376 204.379C273.206 204.379 268.205 209.89 268.205 216.689C268.205 223.488 273.206 229 279.376 229Z" fill="#393A38"/>
<path d="M279.376 224.463C283.094 224.463 286.107 220.983 286.107 216.69C286.107 212.396 283.094 208.916 279.376 208.916C275.659 208.916 272.645 212.396 272.645 216.69C272.645 220.983 275.659 224.463 279.376 224.463Z" fill="black"/>
<path d="M278.603 217.169L280.726 215.712L282.469 207.83C282.469 207.83 282.75 206.638 283.21 206.041C283.669 205.444 283.97 205.192 284.152 205.727C284.152 205.727 284.231 205.253 283.451 204.915C282.677 204.58 278.482 202.818 275.437 203.37C272.391 203.922 278.603 217.169 278.603 217.169Z" fill="#00DFF4"/>
<path d="M271.699 204.065L273.104 207.194L273.708 206.839L272.124 203.17L271.11 200.693L270.587 201.571L271.699 204.065Z" fill="#B7C4B7"/>
<path d="M278.418 217.105L274.548 206.789C274.499 206.657 274.37 206.585 274.243 206.62C273.89 206.718 273.19 206.939 272.733 207.249C272.57 207.36 272.437 207.482 272.363 207.613C272.1 208.077 275.88 214.114 277.966 217.38C278.145 217.66 278.536 217.421 278.418 217.105Z" fill="#1E1E1D"/>
<path d="M250.379 178.48C250.34 178.526 250.259 178.48 250.258 178.666C250.257 178.853 250.197 178.995 250.079 178.898C249.961 178.801 249.861 178.557 249.905 178.493C249.943 178.437 250.376 178.476 250.379 178.482V178.48Z" fill="#D5C4BB"/>
<path d="M251.362 178.572C251.349 178.563 251.348 178.544 251.356 178.532C251.379 178.5 251.415 178.435 251.434 178.432C251.469 178.429 251.62 178.582 251.626 178.605C251.626 178.605 251.635 178.682 251.527 178.705L251.362 178.572Z" fill="#B7C4B7"/>
<path d="M252.238 179.082C252.238 179.082 252.313 178.92 252.355 178.974C252.398 179.027 252.51 179.161 252.503 179.211C252.496 179.261 252.492 179.307 252.449 179.3C252.406 179.294 252.239 179.083 252.239 179.083L252.238 179.082Z" fill="#B7C4B7"/>
<path d="M252.412 178.824C252.412 178.824 252.49 178.655 252.534 178.71C252.578 178.765 252.723 178.934 252.716 178.985C252.709 179.037 252.677 179.059 252.632 179.053C252.587 179.046 252.412 178.824 252.412 178.824Z" fill="#B7C4B7"/>
<path d="M255.111 165.588C255.111 165.588 255.54 165.69 255.459 166.271C255.378 166.853 254.701 167.893 254.402 168.035C254.102 168.178 253.803 167.976 253.803 167.976L255.113 165.588H255.111Z" fill="black"/>
<path d="M254.806 167.016C255.183 166.357 255.35 165.727 255.18 165.609C255.01 165.49 254.566 165.929 254.189 166.588C253.812 167.247 253.645 167.877 253.815 167.995C253.986 168.114 254.43 167.675 254.806 167.016Z" fill="white"/>
<path d="M254.777 167.663L255.431 171.235L255.6 172.383H255.834L254.928 167.449L254.777 167.663Z" fill="black"/>
<path d="M248.436 171.175C248.436 171.175 250.912 173.362 250.926 173.411C250.94 173.459 250.926 174.912 250.926 174.912H251.263V173.362L250.12 172.313L248.2 170.715L248.091 170.893L248.436 171.176V171.175Z" fill="black"/>
<path d="M247.175 171.487C247.952 171.487 248.582 170.768 248.582 169.881C248.582 168.994 247.952 168.275 247.175 168.275C246.399 168.275 245.769 168.994 245.769 169.881C245.769 170.768 246.399 171.487 247.175 171.487Z" fill="black"/>
<path d="M251.893 171.316C251.893 171.316 253.834 172.341 253.815 172.772C253.795 173.204 252.642 173.965 252.138 174.17C251.541 174.413 251.169 174.317 251.125 174.56C251.108 174.653 251.139 174.696 251.141 174.761C251.144 174.852 251.213 174.921 251.294 174.913C251.576 174.885 252.187 174.632 252.395 174.533C252.628 174.424 253.905 173.665 254.104 173.016C254.269 172.481 254.002 172.217 253.282 171.506C252.563 170.794 252.378 170.508 252.378 170.508L251.894 171.316H251.893Z" fill="black"/>
<path d="M251.643 168.662H252.97C253.186 168.662 253.323 168.91 253.217 169.114L251.522 172.371C251.452 172.507 251.295 172.563 251.162 172.501L250.142 172.024C249.99 171.954 249.927 171.758 250.005 171.602L251.393 168.821C251.443 168.723 251.538 168.66 251.643 168.66V168.662Z" fill="#99DB26"/>
<path d="M251.867 168.719H252.976C253.241 168.719 253.409 169.033 253.279 169.288L251.74 172.331C251.653 172.503 251.462 172.575 251.297 172.495L250.448 172.089C250.262 172 250.184 171.754 250.281 171.557L251.561 168.922C251.622 168.797 251.74 168.72 251.867 168.72V168.719Z" fill="black"/>
<path d="M252.848 174.131C252.848 174.131 253.234 172.443 254.043 171.68C254.852 170.917 255.585 170.498 255.964 171.084L256.332 172.077C256.332 172.077 254.567 173.167 254.118 173.486C253.67 173.805 252.886 174.236 252.886 174.236L252.848 174.131Z" fill="#1E1E1E"/>
<path d="M256.109 172.12L255.74 171.123C255.726 171.082 255.689 171.058 255.649 171.063C255.495 171.082 255.113 171.157 254.94 171.456C254.926 171.481 254.924 171.515 254.934 171.543L255.32 172.588C255.34 172.641 255.398 172.664 255.444 172.635L256.069 172.239C256.108 172.216 256.123 172.164 256.106 172.12H256.109Z" fill="white"/>
<path d="M257.013 171.684C257.013 171.684 258.21 170.805 258.384 170.809C258.559 170.812 259.009 170.91 258.801 171.365L257.621 172.552L256.471 173.514L256.241 172.557L256.331 172.061L257.013 171.683V171.684Z" fill="black"/>
<ellipse opacity="0.7" cx="227.435" cy="224.878" rx="9.70954" ry="0.779945" fill="url(#paint2_radial_22158_427302)"/>
<ellipse opacity="0.7" cx="280.378" cy="229.053" rx="9.70954" ry="0.779945" fill="url(#paint3_radial_22158_427302)"/>
</g>
<defs>
<radialGradient id="paint0_radial_22158_427302" cx="0" cy="0" r="1" gradientUnits="userSpaceOnUse" gradientTransform="translate(265.393 216.702) rotate(90) scale(0.623955 7.80984)">
<stop/>
<stop offset="1" stop-color="#D9D9D9" stop-opacity="0"/>
</radialGradient>
<radialGradient id="paint1_radial_22158_427302" cx="0" cy="0" r="1" gradientUnits="userSpaceOnUse" gradientTransform="translate(307.979 220.042) rotate(90) scale(0.623957 7.80984)">
<stop/>
<stop offset="1" stop-color="#D9D9D9" stop-opacity="0"/>
</radialGradient>
<radialGradient id="paint2_radial_22158_427302" cx="0" cy="0" r="1" gradientUnits="userSpaceOnUse" gradientTransform="translate(227.435 224.878) rotate(90) scale(0.779945 9.70954)">
<stop/>
<stop offset="1" stop-color="#D9D9D9" stop-opacity="0"/>
</radialGradient>
<radialGradient id="paint3_radial_22158_427302" cx="0" cy="0" r="1" gradientUnits="userSpaceOnUse" gradientTransform="translate(280.378 229.053) rotate(90) scale(0.779945 9.70954)">
<stop/>
<stop offset="1" stop-color="#D9D9D9" stop-opacity="0"/>
</radialGradient>
<clipPath id="clip0_22158_427302">
<rect width="67.6853" height="64" fill="white" transform="translate(248.472 156)"/>
</clipPath>
<clipPath id="clip1_22158_427302">
<rect width="84.1493" height="80" fill="white" transform="translate(206.397 149)"/>
</clipPath>
</defs>
</svg>
