<svg width="343" height="295" viewBox="0 0 343 295" fill="none" xmlns="http://www.w3.org/2000/svg">
<path d="M155 205.593C240.604 205.593 310 199.985 310 193.066C310 186.148 240.604 180.539 155 180.539C69.3958 180.539 0 186.148 0 193.066C0 199.985 69.3958 205.593 155 205.593Z" fill="#D5D5D5"/>
<path d="M119.791 189.598H66.5967V191.616H119.791V189.598Z" fill="#F1F1F1"/>
<path d="M220.282 189.598H167.087V191.616H220.282V189.598Z" fill="#F1F1F1"/>
<path fill-rule="evenodd" clip-rule="evenodd" d="M134.539 103.048C134.539 103.048 137.954 101.495 138.937 95.3353C139.92 89.1753 137.281 81.7729 145.198 76.5964C153.115 71.42 170.088 79.7541 164.189 90.8835C157.203 104.032 134.901 104.498 134.539 103.048Z" fill="#A2D855"/>
<path fill-rule="evenodd" clip-rule="evenodd" d="M131.124 102.27C131.124 102.27 130.659 98.543 125.018 95.7995C119.378 93.0559 111.565 93.4183 108.926 84.3077C106.286 75.1971 119.223 61.4277 128.123 70.3312C138.731 80.8912 132.625 102.322 131.124 102.27Z" fill="#A2D855"/>
<path fill-rule="evenodd" clip-rule="evenodd" d="M132.987 107.24C132.987 107.24 135.626 109.932 141.732 108.741C147.89 107.55 153.893 102.529 161.499 108.223C169.106 113.917 167.036 132.708 154.565 131C139.766 128.929 131.746 108.12 132.987 107.24Z" fill="#A2D855"/>
<path d="M125.951 76.128L125.899 77.2668L120.155 76.9045L119.948 80.1657L125.33 80.528L125.278 81.6668L119.897 81.3045L119.69 84.8763L125.485 85.2386L125.433 86.3775L118.241 85.9116L118.913 75.5586L125.951 76.128Z" fill="white"/>
<path d="M151.615 83.0127C153.219 83.1163 154.41 83.5821 155.186 84.4621C156.014 85.3421 156.324 86.5845 156.221 88.241C156.169 89.121 156.014 89.8974 155.807 90.5186C155.6 91.1398 155.237 91.7092 154.823 92.1751C154.41 92.5892 153.84 92.8998 153.219 93.1069C152.598 93.3139 151.822 93.3657 150.994 93.3139L147.476 93.1069L148.148 82.7539L151.615 83.0127ZM151.15 92.2269C151.305 92.2269 151.512 92.2269 151.719 92.2269C151.977 92.2269 152.184 92.1751 152.443 92.1233C152.702 92.0716 152.961 91.9163 153.219 91.761C153.478 91.6057 153.737 91.3986 153.944 91.088C154.151 90.7774 154.358 90.4151 154.513 90.001C154.668 89.5869 154.772 89.0174 154.823 88.3963C154.875 87.7751 154.823 87.2057 154.772 86.7398C154.668 86.2221 154.513 85.808 154.254 85.4457C153.996 85.0833 153.685 84.8245 153.219 84.6174C152.805 84.4104 152.288 84.3068 151.615 84.2551L149.287 84.0998L148.769 92.1233L151.15 92.2269Z" fill="white"/>
<path d="M154.616 114.227C154.202 113.864 153.581 113.657 152.908 113.606C152.598 113.606 152.339 113.606 152.028 113.657C151.77 113.709 151.511 113.761 151.252 113.916C151.045 114.02 150.838 114.227 150.683 114.434C150.528 114.641 150.476 114.952 150.424 115.262C150.424 115.573 150.476 115.832 150.683 116.039C150.838 116.246 151.097 116.401 151.408 116.556C151.718 116.712 152.08 116.815 152.442 116.919C152.856 117.022 153.219 117.126 153.633 117.281C154.047 117.384 154.409 117.54 154.823 117.695C155.237 117.85 155.547 118.057 155.858 118.264C156.168 118.523 156.375 118.782 156.53 119.144C156.686 119.507 156.789 119.921 156.737 120.439C156.686 121.008 156.53 121.474 156.272 121.836C156.013 122.199 155.651 122.509 155.288 122.716C154.874 122.923 154.46 123.079 153.943 123.182C153.477 123.286 152.96 123.286 152.494 123.234C151.925 123.182 151.356 123.079 150.89 122.923C150.373 122.768 149.959 122.509 149.596 122.199C149.234 121.888 148.924 121.474 148.717 121.008C148.51 120.542 148.458 119.973 148.458 119.352L149.752 119.455C149.7 119.869 149.803 120.283 149.959 120.594C150.114 120.904 150.321 121.215 150.58 121.422C150.838 121.629 151.149 121.836 151.511 121.94C151.873 122.043 152.235 122.147 152.649 122.147C152.96 122.147 153.27 122.147 153.581 122.095C153.891 122.043 154.202 121.992 154.46 121.836C154.719 121.733 154.926 121.526 155.081 121.319C155.237 121.112 155.34 120.801 155.392 120.387C155.392 120.024 155.34 119.714 155.185 119.507C155.03 119.248 154.771 119.093 154.46 118.937C154.15 118.782 153.788 118.627 153.426 118.523C153.012 118.42 152.649 118.316 152.235 118.161C151.821 118.057 151.459 117.902 151.045 117.747C150.683 117.592 150.321 117.436 150.01 117.177C149.7 116.97 149.493 116.712 149.286 116.349C149.131 116.039 149.027 115.624 149.079 115.159C149.131 114.641 149.234 114.175 149.493 113.813C149.752 113.45 150.01 113.14 150.424 112.933C150.787 112.726 151.201 112.57 151.666 112.467C152.132 112.363 152.598 112.363 153.063 112.363C153.581 112.415 154.098 112.467 154.512 112.622C154.978 112.777 155.34 112.984 155.651 113.295C155.961 113.606 156.22 113.968 156.375 114.382C156.53 114.796 156.634 115.314 156.582 115.883L155.288 115.78C155.288 115.159 155.03 114.589 154.616 114.227Z" fill="white"/>
<path d="M214.226 103.617H177.176V182.973H214.226V103.617Z" fill="#E9E9E9"/>
<path d="M187.887 107.605H182.092V113.403H187.887V107.605Z" fill="white"/>
<path d="M187.887 117.438H182.092V123.235H187.887V117.438Z" fill="white"/>
<path d="M197.046 107.605H191.25V113.403H197.046V107.605Z" fill="white"/>
<path d="M197.046 117.438H191.25V123.235H197.046V117.438Z" fill="white"/>
<path d="M187.887 127.324H182.092V133.122H187.887V127.324Z" fill="white"/>
<path d="M197.046 127.324H191.25V133.122H197.046V127.324Z" fill="white"/>
<path d="M214.226 183.025V121.27L177.176 183.025H214.226Z" fill="#F3F3F3"/>
<path d="M188.043 137.316H182.247V143.114H188.043V137.316Z" fill="white"/>
<path d="M197.203 137.316H191.407V143.114H197.203V137.316Z" fill="white"/>
<path d="M187.887 147.359H182.092V153.157H187.887V147.359Z" fill="white"/>
<path d="M197.046 147.359H191.25V153.157H197.046V147.359Z" fill="white"/>
<path d="M187.628 157.348H181.833V163.145H187.628V157.348Z" fill="white"/>
<path d="M196.788 157.348H190.993V163.145H196.788V157.348Z" fill="white"/>
<path d="M187.628 167.238H181.833V173.036H187.628V167.238Z" fill="white"/>
<path d="M196.788 167.238H190.993V173.036H196.788V167.238Z" fill="white"/>
<path d="M234.978 138.609H214.176V183.231H234.978V138.609Z" fill="#E9E9E9"/>
<path d="M220.177 140.836H216.917V144.097H220.177V140.836Z" fill="white"/>
<path d="M220.177 146.375H216.917V149.636H220.177V146.375Z" fill="white"/>
<path d="M225.352 140.836H222.092V144.097H225.352V140.836Z" fill="white"/>
<path d="M225.352 146.375H222.092V149.636H225.352V146.375Z" fill="white"/>
<path d="M220.177 151.914H216.917V155.175H220.177V151.914Z" fill="white"/>
<path d="M225.352 151.914H222.092V155.175H225.352V151.914Z" fill="white"/>
<path d="M234.978 183.179V148.496L214.176 183.179H234.978Z" fill="#F3F3F3"/>
<path d="M220.283 157.555H217.023V160.816H220.283V157.555Z" fill="white"/>
<path d="M225.406 157.555H222.146V160.816H225.406V157.555Z" fill="white"/>
<path d="M220.177 163.148H216.917V166.41H220.177V163.148Z" fill="white"/>
<path d="M225.352 163.148H222.092V166.41H225.352V163.148Z" fill="white"/>
<path d="M220.022 168.789H216.762V172.05H220.022V168.789Z" fill="white"/>
<path d="M225.197 168.789H221.938V172.05H225.197V168.789Z" fill="white"/>
<path d="M220.022 174.328H216.762V177.589H220.022V174.328Z" fill="white"/>
<path d="M225.197 174.328H221.938V177.589H225.197V174.328Z" fill="white"/>
<path d="M217.851 127.79L227.269 137.004C228.666 138.401 229.39 140.213 229.339 142.18L228.666 158.176L228.304 184.524H237.618L236.066 147.201L235.703 142.232C235.548 139.592 236.531 137.004 238.446 135.14L246.156 127.79L247.191 126.754H242.379L235.445 132.966C235.341 133.07 235.134 132.966 235.134 132.863L235.186 123.441H230.322L230.374 133.277C230.374 133.432 230.218 133.484 230.063 133.38L220.387 125.719L216.195 125.823L217.851 127.79Z" fill="#AAAAAA"/>
<path d="M255.367 126.909C250.14 128.152 225.923 126.909 209.054 126.702C208.175 126.702 207.347 126.599 206.467 126.392C200.878 125.149 197.67 121.681 195.704 117.074C195.031 115.469 194.669 113.761 194.721 111.949C194.824 107.964 196.377 104.651 199.533 102.114C197.411 98.5423 196.325 94.4529 197.256 89.6905C197.618 87.9823 198.291 86.3776 199.171 84.9281C201.706 80.787 204.811 77.5775 209.209 76.3352C212.314 67.6387 218.368 63.8599 225.458 61.6858C232.288 60.5987 237.256 62.7211 240.878 67.3799C253.297 65.8269 259.92 70.8481 258.989 84.4623C266.285 88.914 268.976 94.5564 268.924 100.975C273.012 103.978 274.668 107.601 274.512 111.691C274.202 117.436 270.321 122.458 264.939 124.476C261.99 125.564 259.04 126.185 257.385 126.444C256.712 126.599 255.987 126.754 255.367 126.909Z" fill="#3DBCC8"/>
<path d="M255.677 129.082C250.555 130.272 226.7 129.082 210.089 128.875C209.21 128.875 208.382 128.771 207.554 128.564C202.069 127.322 198.861 123.957 196.998 119.402C196.325 117.797 195.963 116.089 196.015 114.38C196.118 110.446 197.619 107.185 200.724 104.7C198.602 101.18 197.567 97.1428 198.498 92.4322C198.861 90.7757 199.482 89.171 200.413 87.7216C202.897 83.6322 206.002 80.4745 210.296 79.3357C213.349 70.8463 219.3 67.0157 226.286 64.8933C233.013 63.8063 237.877 65.9286 241.396 70.4839C253.659 68.931 260.127 73.9004 259.196 87.2557C266.389 91.6039 269.079 97.1946 269.028 103.51C273.064 106.46 274.72 110.032 274.513 114.018C274.202 119.712 270.373 124.578 265.095 126.545C262.197 127.632 259.3 128.202 257.695 128.512C256.971 128.719 256.35 128.926 255.677 129.082Z" fill="#65C8D0"/>
<path d="M84.2456 90.1562L87.8678 90.7774C86.5224 93.0551 86.005 95.281 87.0399 96.9892L82.2275 96.161C83.4694 94.9704 84.5044 92.3304 84.2456 90.1562Z" fill="#EDBD98"/>
<path fill-rule="evenodd" clip-rule="evenodd" d="M127.762 171.43C129.004 172.103 129.418 173.656 128.746 174.899L119.845 190.842C119.431 191.671 118.5 192.188 117.62 192.188H75.1888C73.7917 192.188 72.6016 191.049 72.6016 189.6C72.6016 188.202 73.74 187.012 75.1888 187.012H116.068L124.295 172.414C125.02 171.223 126.521 170.706 127.762 171.43Z" fill="#3DBCC8"/>
<path fill-rule="evenodd" clip-rule="evenodd" d="M63.2362 193.998C65.306 193.998 67.0653 192.238 67.0653 190.167C67.0653 188.097 65.306 186.337 63.2362 186.337C61.1663 186.337 59.407 188.097 59.407 190.167C59.407 192.341 61.1146 193.998 63.2362 193.998ZM63.2362 199.174C68.152 199.174 72.1364 195.188 72.1364 190.271C72.1364 185.353 68.152 181.367 63.2362 181.367C58.3203 181.367 54.3359 185.353 54.3359 190.271C54.3359 195.137 58.3203 199.174 63.2362 199.174Z" fill="#20505A"/>
<path fill-rule="evenodd" clip-rule="evenodd" d="M136.043 193.998C138.113 193.998 139.872 192.238 139.872 190.167C139.872 188.097 138.113 186.337 136.043 186.337C133.973 186.337 132.214 188.097 132.214 190.167C132.214 192.341 133.973 193.998 136.043 193.998ZM136.043 199.174C140.959 199.174 144.943 195.188 144.943 190.271C144.943 185.353 140.959 181.367 136.043 181.367C131.127 181.367 127.143 185.353 127.143 190.271C127.143 195.137 131.127 199.174 136.043 199.174Z" fill="#20505A"/>
<path fill-rule="evenodd" clip-rule="evenodd" d="M117.363 140.318C118.604 139.697 120.157 140.267 120.778 141.561L121.968 144.149C122.589 145.391 122.02 146.944 120.726 147.566C119.484 148.187 117.932 147.617 117.311 146.323L116.121 143.735C115.448 142.389 116.017 140.94 117.363 140.318Z" fill="#20505A"/>
<path fill-rule="evenodd" clip-rule="evenodd" d="M121.866 165.218L127.299 178.936C127.558 179.712 128.334 180.748 129.059 181.214C129.938 181.835 130.921 182.042 131.956 181.369C133.198 180.489 132.836 177.797 131.905 175.727L130.715 173.138L121.866 151.656L114.57 132.762L110.585 134.832L121.866 165.218Z" fill="#65C8D0"/>
<path fill-rule="evenodd" clip-rule="evenodd" d="M110.584 134.883L105.978 122.201C106.237 122.201 104.374 122.149 103.288 122.615C102.667 122.874 101.114 123.754 100.907 123.598C100.079 123.236 99.5103 122.615 99.5103 121.58C99.5103 120.596 100.131 120.13 100.959 119.975L106.444 119.561L106.237 118.526L102.046 118.888L101.891 118.215L107.583 117.801L108.048 120.078C109.031 120.234 109.911 120.544 110.48 121.683L114.516 132.864L110.584 134.883Z" fill="#1A1A1A"/>
<path fill-rule="evenodd" clip-rule="evenodd" d="M115.967 133.9C115.656 133.797 115.087 134.004 115.087 134.004L116.433 137.42L116.95 137.213C116.899 137.265 116.847 134.211 115.967 133.9Z" fill="#1A1A1A"/>
<g opacity="0.96">
<path d="M120.052 153.468C119.845 153.52 119.69 153.675 119.587 153.83L119.173 152.691L118.552 152.95L119.431 155.124C119.69 155.694 120.415 155.953 120.984 155.746C121.605 155.487 121.863 154.762 121.656 154.141C121.398 153.52 120.622 153.261 120.052 153.468ZM120.673 155.073C120.415 155.228 120.052 155.073 120.001 154.814C119.845 154.555 120.001 154.193 120.259 154.141C120.518 153.986 120.88 154.141 120.932 154.4C121.087 154.658 120.984 155.021 120.673 155.073Z" fill="white"/>
<path d="M122.693 160.093C122.072 160.351 121.813 160.973 122.072 161.646L122.537 162.784L123.158 162.526L122.693 161.438C122.537 161.18 122.693 160.869 122.951 160.765C123.21 160.61 123.521 160.765 123.624 161.024L124.09 162.163L124.711 161.904L124.245 160.817C124.038 160.093 123.314 159.782 122.693 160.093Z" fill="white"/>
<path d="M121.606 157.299C121.45 157.35 121.347 157.557 121.399 157.713L122.072 159.576L122.745 159.317L121.968 157.506C121.916 157.35 121.813 157.247 121.606 157.299Z" fill="white"/>
<path d="M121.294 157.09C121.523 157.09 121.708 156.905 121.708 156.676C121.708 156.447 121.523 156.262 121.294 156.262C121.065 156.262 120.88 156.447 120.88 156.676C120.88 156.905 121.065 157.09 121.294 157.09Z" fill="white"/>
<path d="M115.758 142.804C115.551 142.856 115.396 143.011 115.292 143.166L114.878 142.027L114.257 142.286L115.137 144.46C115.396 145.03 116.12 145.289 116.689 145.081C117.31 144.823 117.569 144.098 117.362 143.477C117.052 142.907 116.327 142.597 115.758 142.804ZM116.379 144.512C116.12 144.667 115.758 144.512 115.706 144.253C115.551 143.994 115.706 143.632 115.965 143.58C116.224 143.425 116.586 143.58 116.638 143.839C116.793 143.994 116.638 144.357 116.379 144.512Z" fill="white"/>
<path d="M118.396 149.43C117.775 149.689 117.517 150.31 117.775 150.983L118.241 152.122L118.862 151.863L118.396 150.724C118.241 150.465 118.396 150.155 118.655 150.051C118.914 149.948 119.224 150.051 119.328 150.31L119.793 151.449L120.414 151.19L119.949 150.051C119.69 149.482 119.017 149.223 118.396 149.43Z" fill="white"/>
<path d="M117.259 146.736C117.103 146.788 117 146.995 117.052 147.15L117.724 149.014L118.397 148.755L117.621 146.943C117.621 146.736 117.414 146.632 117.259 146.736Z" fill="white"/>
<path d="M117 146.426C117.229 146.426 117.414 146.24 117.414 146.012C117.414 145.783 117.229 145.598 117 145.598C116.771 145.598 116.586 145.783 116.586 146.012C116.586 146.24 116.771 146.426 117 146.426Z" fill="white"/>
</g>
<path d="M88.7471 178.156V183.074L92.7315 181.314L92.3175 180.693C92.1105 180.434 92.0587 180.072 92.0587 179.709L92.1105 178.363L88.7471 178.156Z" fill="#FFD2C1"/>
<path d="M56.3542 163.613C55.1641 164.804 53.3013 165.58 51.2314 166.202C52.2146 167.392 53.1978 168.479 54.4396 168.997C55.6298 168.324 56.8717 167.237 57.9066 166.15L56.3542 163.613Z" fill="#FFD2C1"/>
<path d="M88.8496 104.755L90.9194 108.43C91.1782 109 91.5922 109.414 92.1096 109.828L101.424 116.868C102.304 117.541 103.028 118.524 103.494 119.663C103.649 120.025 103.752 120.336 103.752 120.698C103.752 121.268 103.545 121.682 103.183 122.355C102.769 123.183 102.562 123.235 101.165 122.924C101.113 123.08 101.786 122.303 102.045 121.682C102.303 121.009 101.889 119.715 101.372 119.249C100.234 118.266 99.147 117.489 98.0086 116.816C97.7498 116.661 97.4394 116.557 97.1807 116.557C95.3178 116.195 93.4032 115.574 91.4886 114.745C91.1264 114.59 90.8159 114.383 90.5055 114.124C88.4874 112.261 86.8316 110.035 84.8652 107.084L88.6944 104.496L88.8496 104.755Z" fill="#DBAD8D"/>
<path d="M88.8501 104.752L91.0752 109.048C91.3339 109.618 91.7478 110.032 92.2653 110.446L101.579 117.486C102.459 118.159 103.184 119.143 103.753 120.333C103.908 120.696 103.96 121.213 103.96 121.576C103.96 121.731 103.908 121.834 103.908 121.938C103.753 122.611 103.287 123.18 102.666 123.387C101.786 123.801 100.648 123.75 100.286 123.18C100.752 123.439 101.166 122.921 101.476 122.404C101.683 121.99 101.89 121.524 101.89 120.954C101.89 120.54 101.89 120.074 101.528 119.816C100.338 119.039 99.3027 118.056 98.1643 117.383C97.9056 117.227 97.5951 117.124 97.3364 117.124C95.4735 116.761 93.5589 116.14 91.6443 115.312C91.2821 115.157 90.9716 114.95 90.6612 114.691C88.5913 112.827 86.5733 110.084 84.6587 107.133L88.6431 104.441L88.8501 104.752Z" fill="#EDBD98"/>
<path d="M89.2645 80.8906C89.2645 80.8906 91.0238 83.3754 90.4546 85.0836C90.4029 85.3424 90.2994 85.5495 90.2477 85.7047C90.0407 86.6883 90.4029 86.5848 90.9204 87.1542C91.3343 87.5683 90.9204 87.9306 90.6616 88.0342C90.5064 88.0859 90.4029 88.293 90.4029 88.5001C90.4029 88.7071 90.4029 88.9142 90.4029 88.9142C90.4029 88.9659 90.7651 89.5871 89.9889 89.5354C89.2127 89.4836 88.3848 89.1212 88.3331 89.1212C88.3848 89.1212 89.782 89.5354 90.1442 89.7424C90.1442 89.7424 90.4029 89.8977 90.3512 90.0013C90.2994 90.1565 90.0924 90.2601 89.9889 90.4671C89.9372 90.6742 89.8337 91.2954 89.6267 91.6059C89.4197 91.9165 87.7639 92.2271 86.8325 91.8648C86.1598 91.6059 85.0731 91.2954 84.6592 91.2436C84.5039 91.2436 84.2969 90.8295 84.1934 90.7777C83.9865 90.5707 83.5207 90.4153 83.0033 90.1048C82.1753 89.4836 82.9515 89.2765 83.0033 88.9142C83.055 88.5518 83.262 87.9306 83.1585 87.7236C83.0033 87.5165 82.3824 86.6365 82.3306 86.1706C82.1236 85.5495 82.5893 84.6177 82.8998 84.3589C83.1585 84.1 83.7795 83.9448 84.1417 84.2036C84.4004 84.4624 84.9696 84.8248 85.1766 84.6177C85.3836 84.3589 87.1947 81.7189 87.6086 81.5118C87.9191 81.5636 89.2645 80.8906 89.2645 80.8906Z" fill="#F4D2BA"/>
<path fill-rule="evenodd" clip-rule="evenodd" d="M101.891 118.212L102.668 118.16L103.133 118.833L101.995 118.885L101.684 118.212H101.891Z" fill="#1A1A1A"/>
<path d="M54.1302 165.421C54.5442 166.197 52.4226 167.181 53.0436 167.802C53.2506 168.009 53.6127 168.268 54.0267 168.268C54.5442 168.164 54.5442 168.268 54.9064 168.216C55.2686 168.113 55.8896 168.009 55.7861 168.268C55.6308 168.993 54.6477 170.494 55.1651 172.513L55.6309 174.842C55.6826 174.946 55.7343 175.308 55.7343 175.411C56.3035 177.637 55.2686 178.362 53.9232 179.087C53.6645 179.242 53.354 179.139 53.1988 178.88L49.5249 171.374L47.5068 167.491C47.455 167.336 47.455 166.974 47.662 166.819C48.5417 166.146 51.6464 164.644 52.8883 164.851C53.4575 164.8 53.975 165.162 54.1302 165.421Z" fill="#101011"/>
<path d="M54.2339 170.958C54.0269 170.803 53.8716 170.647 53.8716 170.44C53.8716 170.285 53.9234 170.182 54.0787 170.026C54.2857 169.871 54.4928 169.819 54.6481 169.871C54.9586 169.974 55.0622 170.44 55.114 170.596C55.1657 170.803 54.9586 171.32 54.9069 171.32V171.372H54.8551C54.8034 171.32 54.4927 171.165 54.2339 170.958ZM54.6998 170.026C54.648 169.975 54.6481 169.975 54.5963 169.975C54.441 169.923 54.2857 169.974 54.0787 170.13C53.9751 170.233 53.8716 170.337 53.9233 170.492C53.9751 170.855 54.6998 171.269 54.8551 171.32C54.9069 171.217 55.0621 170.803 55.0104 170.647C55.0104 170.492 54.9069 170.182 54.6998 170.026Z" fill="#AAB2B2"/>
<path d="M55.5791 171.116C55.7862 171.064 56.0451 171.064 56.2004 171.168C56.3039 171.271 56.4074 171.375 56.3556 171.582C56.3556 171.841 56.2521 172.048 56.0968 172.1C55.838 172.255 55.3721 172.048 55.2686 171.996C55.0615 171.893 54.8545 171.375 54.8545 171.375V171.323H54.9062C54.9062 171.323 55.2168 171.168 55.5791 171.116ZM55.9933 172.1C56.0451 172.1 56.0968 172.1 56.0968 172.048C56.2521 171.996 56.3039 171.789 56.3039 171.582C56.3039 171.427 56.2521 171.323 56.1486 171.22C55.838 171.013 55.0615 171.271 54.9062 171.375C54.958 171.478 55.165 171.841 55.3203 171.944C55.4239 171.996 55.7345 172.151 55.9933 172.1Z" fill="#AAB2B2"/>
<path d="M54.8556 171.273C54.8556 171.273 54.545 171.584 54.1826 171.584C53.8203 171.636 53.5615 171.688 53.3544 171.843C53.1474 171.998 53.1991 172.102 53.1991 172.102C53.1991 172.102 53.1991 172.153 53.3027 171.998C53.4062 171.895 53.3544 171.946 53.5615 171.843C53.7686 171.739 54.2344 171.688 54.4415 171.636C54.6485 171.584 54.9591 171.429 54.9591 171.377C54.9591 171.325 54.8556 171.273 54.8556 171.273Z" fill="#AAB2B2"/>
<path d="M54.8552 171.273C54.8552 171.273 54.7516 171.688 54.4928 171.946C54.234 172.205 54.0269 172.412 53.9752 172.671C53.9234 172.93 53.9752 172.982 53.9752 172.982C53.9752 172.982 54.0269 172.982 54.0269 172.826C54.0269 172.671 54.0269 172.723 54.1305 172.516C54.234 172.309 54.5963 171.998 54.6999 171.843C54.8034 171.636 55.0105 171.325 54.9587 171.325C54.9069 171.325 54.8552 171.273 54.8552 171.273Z" fill="#AAB2B2"/>
<path d="M54.9585 171.527C55.0729 171.527 55.1656 171.435 55.1656 171.32C55.1656 171.206 55.0729 171.113 54.9585 171.113C54.8442 171.113 54.7515 171.206 54.7515 171.32C54.7515 171.435 54.8442 171.527 54.9585 171.527Z" fill="#AAB2B2"/>
<path d="M56.3521 163.61C62.4063 157.761 68.8228 153.465 75.3945 149.789C76.2741 149.168 76.9468 148.185 77.2056 147.098L81.9144 127.841L82.9493 118.938H87.0372C87.296 129.498 85.2262 138.09 83.0528 149.22C82.7941 151.083 81.6557 152.792 79.9998 153.672L57.7492 166.199L56.3521 163.61Z" fill="#FFD2C1"/>
<path d="M88.7462 178.157C88.1252 169.772 87.97 161.023 89.8328 150.67C87.4008 142.233 86.935 131.051 87.142 118.887L90.7642 118.473C93.8172 129.084 97.6464 139.541 96.3528 152.068C94.3864 161.23 93.0928 169.927 92.1096 178.52L88.7462 178.157Z" fill="#FFD2C1"/>
<path d="M58.8362 167.647C58.8362 167.647 56.8698 165.525 55.5762 162.212C55.5762 162.212 56.7146 162.781 59.0949 160.711C61.5269 158.64 65.7701 155.276 68.7713 153.101C71.7725 150.927 76.5332 149.323 77.7233 146.424C78.9135 143.525 83.0013 119.299 83.0013 119.299L84.295 118.16L88.9004 118.522L87.348 139.332C87.348 139.332 86.1578 154.758 84.1915 153.619C81.035 151.756 61.5787 164.231 58.8362 167.647Z" fill="#B2AAA8"/>
<path d="M85.5381 118.419L89.0051 149.012C89.0051 151.6 87.6079 176.706 87.7114 177.638C87.7632 178.156 92.886 177.638 92.886 177.638C94.3349 167.958 94.5936 157.295 95.6285 152.998C95.111 149.789 95.9389 139.539 95.9389 138.142C95.9389 137.52 89.626 116.711 89.626 116.711L85.5381 118.419Z" fill="#B2AAA8"/>
<path d="M97.6465 161.799C97.1808 162.265 96.4564 162.368 95.9389 161.954C95.0075 161.281 93.1447 160.246 90.2987 159.987C85.952 159.573 84.5032 161.903 81.5019 159.366C78.5524 156.83 77.7244 155.846 72.6534 154.293C67.5823 152.74 62.7182 150.462 62.3043 149.375C61.2176 146.477 56.4053 146.062 55.9396 144.044C55.5256 142.18 65.2538 144.199 67.7893 138.453C70.2731 132.707 81.3984 128.152 80.8292 121.992C80.8292 121.992 80.6222 116.453 79.4838 113.295C78.3454 110.086 78.9146 102.166 79.3286 100.354C79.6908 98.853 82.485 95.9023 82.485 95.9023L86.573 96.3165L90.6609 105.375C90.8679 105.841 90.9713 106.307 91.0231 106.773L91.2301 109.154L91.2818 109.568C91.2818 109.568 91.7993 110.189 92.0062 110.345C92.2132 110.552 96.1976 113.554 96.1976 113.554L98.2157 115.055L97.75 117.281L94.6971 116.556C93.2999 116.091 91.9545 115.625 91.2818 115.262L91.2301 117.178C91.2301 117.333 91.23 117.488 91.2818 117.644C91.9545 119.869 95.6802 137.314 95.7837 138.142C95.8872 139.126 98.6297 160.039 98.2157 161.022C98.164 161.385 97.8535 161.592 97.6465 161.799Z" fill="#112E44"/>
<path d="M89.2631 80.9422C89.2631 80.9422 87.2967 81.7187 86.1583 83.5304C85.0199 85.3422 84.6059 87.0505 84.5024 87.6716C84.3989 88.2928 84.4507 90.1046 84.9164 90.5187C85.2269 90.7775 85.6926 91.2952 86.2101 91.554C86.4688 91.7093 86.9862 91.9163 87.2967 91.9681C87.5037 92.0199 88.5903 92.0716 88.6938 92.0199C88.9008 92.0199 86.9862 93.1587 86.7275 93.6763C86.417 94.2975 87.5037 98.0246 87.7107 98.4905C87.9177 98.9046 82.0704 96.8857 81.1907 97.6105C80.5698 98.1281 81.1907 93.5728 81.5012 93.0034C81.8117 92.434 82.3291 91.8646 82.1221 91.0363C81.9669 90.3116 82.0186 90.0528 81.4494 89.4834C80.8802 88.9658 79.7936 88.2928 79.2761 87.2575C78.8104 86.274 78.5 81.9775 81.6047 79.1304C81.6047 79.1304 83.1053 77.7328 85.3303 78.0951C87.5554 78.4575 88.9525 80.5281 88.9525 80.5281C89.1078 80.7351 89.2631 80.8387 89.2631 80.9422Z" fill="#B2AAA8"/>
<path d="M91.3833 109.517L91.3315 109.051L92.1077 109.827L98.4207 114.59L98.6277 114.745L98.4207 115.107L94.9019 112.415C93.8153 111.587 92.6769 110.759 92.1077 110.293C91.849 110.138 91.642 109.879 91.3833 109.517Z" fill="#0A2333"/>
<path d="M87.2441 98.8004C87.2441 98.8004 84.8638 98.4381 83.5184 98.3345C82.173 98.231 80.5172 98.5933 79.948 99.9392C79.4305 101.182 76.1188 104.08 74.1524 102.32C72.4448 100.819 68.1499 104.96 66.9598 104.08C65.7696 103.2 63.1824 103.459 61.1643 104.08C59.5084 104.598 57.5421 102.942 59.0427 101.285C61.2161 98.9039 57.7491 94.711 59.9741 94.0381C66.2353 92.1228 64.7347 88.4474 69.2883 90.7251C74.3077 93.2616 77.7229 91.0875 78.4991 92.1227C79.4822 93.4169 83.3114 94.4522 85.3295 94.2451C87.2441 94.038 87.4511 97.6616 87.865 98.1792C88.7964 99.4216 87.7616 98.8522 87.2441 98.8004Z" fill="#B2AAA8"/>
<path d="M88.9517 180.281C89.8313 180.229 89.7796 182.558 90.6593 182.299C90.918 182.196 91.332 181.989 91.4872 181.626C91.5907 181.109 91.7459 181.161 91.7977 180.798C91.8494 180.436 92.0564 179.815 92.2117 180.022C92.8326 180.488 93.7123 182.041 95.7821 182.455L98.0589 183.024C98.1624 183.024 98.5246 183.128 98.6281 183.179C100.853 183.645 101.06 184.888 101.164 186.441C101.164 186.751 100.957 187.01 100.646 187.01H92.2634L87.9167 187.113C87.7098 187.113 87.451 186.906 87.3993 186.699C87.1923 185.612 87.1406 182.196 87.865 181.161C88.1237 180.591 88.6412 180.332 88.9517 180.281Z" fill="#101011"/>
<path d="M94.0228 182.611C93.8157 182.714 93.5569 182.766 93.4016 182.714C93.2463 182.663 93.1428 182.559 93.1428 182.352C93.091 182.093 93.091 181.886 93.2463 181.783C93.4533 181.576 93.9192 181.627 94.0745 181.679C94.2816 181.731 94.6439 182.145 94.6439 182.145C94.5921 182.249 94.3333 182.456 94.0228 182.611ZM93.3498 181.731C93.298 181.731 93.2981 181.783 93.2463 181.783C93.1428 181.886 93.091 182.041 93.1428 182.3C93.1945 182.456 93.2463 182.559 93.4016 182.611C93.764 182.714 94.3851 182.249 94.5404 182.145C94.4369 182.041 94.1781 181.731 94.0228 181.679C93.9192 181.731 93.5569 181.627 93.3498 181.731Z" fill="#AAB2B2"/>
<path d="M94.6929 181.471C94.7447 181.263 94.8482 181.005 95.0035 180.953C95.107 180.901 95.2623 180.901 95.4694 180.953C95.7282 181.056 95.8317 181.212 95.8317 181.419C95.8317 181.729 95.4694 182.04 95.3658 182.092C95.1588 182.195 94.6411 182.195 94.6411 182.195H94.5894V182.144C94.5894 182.144 94.5894 181.781 94.6929 181.471ZM95.78 181.522C95.78 181.471 95.78 181.419 95.78 181.419C95.78 181.263 95.6764 181.108 95.4176 181.005C95.2623 180.953 95.1588 180.901 95.0553 181.005C94.7447 181.212 94.6411 181.988 94.6411 182.195C94.7446 182.195 95.1588 182.195 95.3141 182.092C95.4694 181.988 95.7282 181.781 95.78 181.522Z" fill="#AAB2B2"/>
<path d="M94.5397 182.195C94.5397 182.195 94.6432 182.609 94.5397 182.972C94.4362 183.334 94.3326 183.593 94.3844 183.852C94.4361 184.11 94.5397 184.11 94.5397 184.11C94.5397 184.11 94.5915 184.11 94.4879 183.955C94.4362 183.8 94.4362 183.852 94.4362 183.645C94.4362 183.438 94.5914 183.023 94.6432 182.765C94.6432 182.557 94.6432 182.195 94.6432 182.143C94.6432 182.092 94.5397 182.195 94.5397 182.195Z" fill="#AAB2B2"/>
<path d="M94.5396 182.143C94.5396 182.143 94.9019 182.401 95.0054 182.764C95.109 183.126 95.2125 183.385 95.4195 183.54C95.6266 183.696 95.7302 183.644 95.7302 183.644C95.7302 183.644 95.7819 183.592 95.6266 183.54C95.4713 183.488 95.5231 183.488 95.4195 183.333C95.2642 183.178 95.1607 182.712 95.0572 182.505C94.9537 182.298 94.7466 182.039 94.6949 182.039C94.6431 182.039 94.5396 182.143 94.5396 182.143Z" fill="#AAB2B2"/>
<path d="M94.6435 182.301C94.7579 182.301 94.8506 182.208 94.8506 182.094C94.8506 181.979 94.7579 181.887 94.6435 181.887C94.5292 181.887 94.4365 181.979 94.4365 182.094C94.4365 182.208 94.5292 182.301 94.6435 182.301Z" fill="#AAB2B2"/>
<path d="M85.0171 85.9132L89.7259 85.3438L89.9847 85.1367L85.0688 85.7061L85.0171 85.9132Z" fill="#303030"/>
<path d="M90.1929 86.8948C89.9341 86.9466 89.727 86.4807 89.6753 86.0148C89.6235 85.549 89.6753 85.0831 89.9341 85.0313C90.1929 84.9795 90.4 85.4454 90.4517 85.9113C90.5035 86.3772 90.4517 86.8948 90.1929 86.8948ZM89.9858 85.1866C89.8823 85.1866 89.7788 85.4972 89.8306 86.0148C89.8823 86.5325 90.0894 86.7913 90.1929 86.7395C90.2964 86.7395 90.4 86.4289 90.3482 85.9113C90.2447 85.4972 90.0894 85.1866 89.9858 85.1866Z" fill="#303030"/>
<path d="M90.1392 85.1875L90.3988 85.2395L90.3469 85.3952L90.1392 85.2914V85.1875Z" fill="#303030"/>
</svg>
