<svg width="343" height="233" viewBox="0 0 343 233" fill="none" xmlns="http://www.w3.org/2000/svg">
<path d="M296.033 201.808C294.554 189.407 286.48 191.68 278.996 171.241C277.365 166.796 271.591 170.387 267.813 171.336C247.74 176.353 239.892 186.192 237.819 199.542C237.672 200.49 237.672 201.532 238.34 201.627C248.34 203.234 273.37 202.386 296.038 201.815L296.033 201.808Z" fill="#C4EDEE"/>
<path d="M285.113 178.604C285.113 178.604 285.722 177.844 285.113 171.882C284.503 165.819 287.193 160.422 287.193 160.422C287.193 160.422 286.067 173.113 286.153 174.627C286.153 176.141 285.113 178.604 285.113 178.604Z" fill="#0B9D99"/>
<path d="M286.67 184.857C286.67 184.857 286.584 184.096 283.205 181.162C279.826 178.228 278.527 173.773 278.527 173.773C278.527 173.773 284.417 181.351 285.199 182.104C285.981 182.865 286.67 184.85 286.67 184.85V184.857Z" fill="#0B9D99"/>
<path d="M287.021 192.341C287.021 192.341 287.538 191.87 287.365 187.132C287.279 182.395 289.618 178.418 289.618 178.418C289.618 178.418 288.061 188.169 287.975 189.306C287.888 190.443 287.021 192.334 287.021 192.334V192.341Z" fill="#0B9D99"/>
<path d="M286.411 197.642C286.411 197.642 285.802 197.266 285.113 192.622C284.417 187.979 281.475 184.574 281.475 184.574C281.475 184.574 284.682 193.854 284.94 194.991C285.113 196.034 286.411 197.642 286.411 197.642Z" fill="#0B9D99"/>
<path d="M284.596 202.091C284.596 202.091 289.969 185.14 282.085 171.978C274.2 158.815 280.7 164.495 282.085 166.958C283.642 169.797 289.101 186.371 287.193 197.831C287.193 197.831 286.584 201.62 286.326 202.091C286.067 202.468 284.596 202.091 284.596 202.091Z" fill="#0B9D99"/>
<path d="M295.198 164.406C295.198 164.406 294.502 163.552 295.198 156.076C295.893 148.593 292.687 142.059 292.687 142.059C292.687 142.059 294.071 157.684 293.985 159.575C293.899 161.466 295.198 164.406 295.198 164.406Z" fill="#0B9D99"/>
<path d="M293.29 172.079C293.29 172.079 293.376 171.13 297.537 167.631C301.692 164.031 303.341 158.445 303.341 158.445C303.341 158.445 296.152 167.725 295.198 168.674C294.158 169.623 293.29 172.085 293.29 172.085V172.079Z" fill="#0B9D99"/>
<path d="M292.859 181.264C292.859 181.264 292.25 180.598 292.428 174.825C292.601 169.051 289.659 164.125 289.659 164.125C289.659 164.125 291.653 176.15 291.653 177.57C291.653 178.99 292.865 181.264 292.865 181.264H292.859Z" fill="#0B9D99"/>
<path d="M293.376 191.302C293.376 191.302 293.985 190.737 294.244 184.956C294.502 179.183 297.623 174.445 297.623 174.445C297.623 174.445 295.026 186.282 294.853 187.702C294.595 189.028 293.382 191.302 293.382 191.302H293.376Z" fill="#0B9D99"/>
<path d="M295.629 202.568C295.629 202.568 289.135 172.361 298.922 156.164C308.622 139.973 300.565 146.884 298.922 150.006C297.014 153.512 290.348 173.962 292.687 187.979C292.687 187.979 293.296 201.996 293.555 202.562C293.813 203.127 295.635 202.562 295.635 202.562L295.629 202.568Z" fill="#0B9D99"/>
<path d="M171.5 222.915C256.114 222.915 324.707 215.994 324.707 207.457C324.707 198.921 256.114 192 171.5 192C86.8864 192 18.2935 198.921 18.2935 207.457C18.2935 215.994 86.8864 222.915 171.5 222.915Z" fill="#F3F3F3"/>
<path d="M250.255 206.418H192.781V208.845H250.255V206.418Z" fill="#F2F2F2"/>
<path d="M158.152 206.242H100.678V208.669H158.152V206.242Z" fill="#F2F2F2"/>
<path d="M212.507 73.6484H161.896V195.337H212.507V73.6484Z" fill="#E9E9E9"/>
<path d="M182.744 94.0516H170.976C170.474 94.0516 169.972 93.5029 169.972 92.9543V83.0269C169.972 82.4783 170.474 81.9297 170.976 81.9297H182.744C183.246 81.9297 183.748 82.4783 183.748 83.0269V92.9543C183.748 93.5029 183.246 94.0516 182.744 94.0516Z" fill="white"/>
<path d="M201.909 94.0516H190.14C189.639 94.0516 189.137 93.5029 189.137 92.9543V83.0269C189.137 82.4783 189.639 81.9297 190.14 81.9297H201.909C202.411 81.9297 202.912 82.4783 202.912 83.0269V92.9543C202.912 93.5029 202.411 94.0516 201.909 94.0516Z" fill="white"/>
<path d="M182.744 111.138H170.976C170.474 111.138 169.972 110.589 169.972 110.04V100.113C169.972 99.5642 170.474 99.0156 170.976 99.0156H182.744C183.246 99.0156 183.748 99.5642 183.748 100.113V110.04C183.748 110.589 183.246 111.138 182.744 111.138Z" fill="white"/>
<path d="M201.909 111.138H190.14C189.639 111.138 189.137 110.589 189.137 110.04V100.113C189.137 99.5642 189.639 99.0156 190.14 99.0156H201.909C202.411 99.0156 202.912 99.5642 202.912 100.113V110.04C202.912 110.589 202.411 111.138 201.909 111.138Z" fill="white"/>
<path d="M183.079 128.419H171.311C170.809 128.419 170.307 127.87 170.307 127.322V117.394C170.307 116.845 170.809 116.297 171.311 116.297H183.079C183.581 116.297 184.083 116.845 184.083 117.394V127.322C184.083 128.053 183.748 128.419 183.079 128.419Z" fill="white"/>
<path d="M202.243 128.419H190.475C189.973 128.419 189.471 127.87 189.471 127.322V117.394C189.471 116.845 189.973 116.297 190.475 116.297H202.243C202.745 116.297 203.247 116.845 203.247 117.394V127.322C203.247 128.053 202.912 128.419 202.243 128.419Z" fill="white"/>
<path d="M183.581 146.809H171.813C171.311 146.809 170.809 146.261 170.809 145.712V135.785C170.809 135.236 171.311 134.688 171.813 134.688H183.581C184.083 134.688 184.585 135.236 184.585 135.785V145.712C184.585 146.261 184.083 146.809 183.581 146.809Z" fill="white"/>
<path d="M202.745 146.809H190.977C190.475 146.809 189.973 146.261 189.973 145.712V135.785C189.973 135.236 190.475 134.688 190.977 134.688H202.745C203.247 134.688 203.749 135.236 203.749 135.785V145.712C203.749 146.261 203.247 146.809 202.745 146.809Z" fill="white"/>
<path d="M183.581 163.712H171.813C171.311 163.712 170.809 163.163 170.809 162.614V152.687C170.809 152.138 171.311 151.59 171.813 151.59H183.581C184.083 151.59 184.585 152.138 184.585 152.687V162.614C184.585 163.163 184.083 163.712 183.581 163.712Z" fill="white"/>
<path d="M202.745 163.712H190.977C190.475 163.712 189.973 163.163 189.973 162.614V152.687C189.973 152.138 190.475 151.59 190.977 151.59H202.745C203.247 151.59 203.749 152.138 203.749 152.687V162.614C203.749 163.163 203.247 163.712 202.745 163.712Z" fill="white"/>
<path d="M195.349 170.336H177.189V195.52H195.349V170.336Z" fill="white"/>
<path d="M161.896 73.6472L185.433 56L212.507 73.6472H161.896Z" fill="#BBBCBC"/>
<path d="M280.293 34.707H212.203V198.679H280.293V34.707Z" fill="#E9E9E9"/>
<path d="M240.782 62.2838H224.138C223.637 62.2838 223.135 61.7351 223.135 61.1865V47.0269C223.135 46.4783 223.637 45.9297 224.138 45.9297H240.782C241.283 45.9297 241.785 46.4783 241.785 47.0269V61.1865C241.785 61.7351 241.283 62.2838 240.782 62.2838Z" fill="white"/>
<path d="M266.517 62.2838H249.874C249.372 62.2838 248.87 61.7351 248.87 61.1865V47.0269C248.87 46.4783 249.372 45.9297 249.874 45.9297H266.517C267.019 45.9297 267.52 46.4783 267.52 47.0269V61.1865C267.52 61.7351 267.019 62.2838 266.517 62.2838Z" fill="white"/>
<path d="M240.782 85.2603H224.138C223.637 85.2603 223.135 84.7117 223.135 84.1631V70.0035C223.135 69.4549 223.637 68.9062 224.138 68.9062H240.782C241.283 68.9062 241.785 69.4549 241.785 70.0035V84.1631C241.785 84.7117 241.283 85.2603 240.782 85.2603Z" fill="white"/>
<path d="M266.517 85.2603H249.874C249.372 85.2603 248.87 84.7117 248.87 84.1631V70.0035C248.87 69.4549 249.372 68.9062 249.874 68.9062H266.517C267.019 68.9062 267.52 69.4549 267.52 70.0035V84.1631C267.52 84.7117 267.019 85.2603 266.517 85.2603Z" fill="white"/>
<path d="M241.295 108.616H224.652C224.15 108.616 223.648 108.067 223.648 107.519V93.359C223.648 92.8103 224.15 92.2617 224.652 92.2617H241.295C241.797 92.2617 242.299 92.8103 242.299 93.359V107.519C242.299 108.25 241.797 108.616 241.295 108.616Z" fill="white"/>
<path d="M267.018 108.616H250.375C249.873 108.616 249.372 108.067 249.372 107.519V93.359C249.372 92.8103 249.873 92.2617 250.375 92.2617H267.018C267.52 92.2617 268.022 92.8103 268.022 93.359V107.519C268.022 108.25 267.687 108.616 267.018 108.616Z" fill="white"/>
<path d="M241.797 133.237H225.154C224.652 133.237 224.15 132.688 224.15 132.14V117.98C224.15 117.431 224.652 116.883 225.154 116.883H241.797C242.299 116.883 242.801 117.431 242.801 117.98V132.14C242.801 132.688 242.466 133.237 241.797 133.237Z" fill="white"/>
<path d="M267.688 133.237H251.045C250.543 133.237 250.041 132.688 250.041 132.14V117.98C250.041 117.431 250.543 116.883 251.045 116.883H267.688C268.19 116.883 268.691 117.431 268.691 117.98V132.14C268.691 132.688 268.19 133.237 267.688 133.237Z" fill="white"/>
<path d="M241.797 156.03H225.154C224.652 156.03 224.15 155.481 224.15 154.933V140.773C224.15 140.224 224.652 139.676 225.154 139.676H241.797C242.299 139.676 242.801 140.224 242.801 140.773V154.933C242.801 155.664 242.466 156.03 241.797 156.03Z" fill="white"/>
<path d="M267.688 156.03H251.045C250.543 156.03 250.041 155.481 250.041 154.933V140.773C250.041 140.224 250.543 139.676 251.045 139.676H267.688C268.19 139.676 268.691 140.224 268.691 140.773V154.933C268.691 155.664 268.19 156.03 267.688 156.03Z" fill="white"/>
<path d="M212.203 34.7082L244.151 11L280.472 34.7082H212.203Z" fill="#BBBCBC"/>
<g clip-path="url(#clip0_22158_427123)">
<path d="M157.764 156.943L158.275 156.705C160.126 155.841 162.261 156.835 162.98 158.895L168.98 176.093C169.1 176.434 169.261 176.753 169.462 177.046C170.617 178.727 174.763 184.151 178.789 181.943C183.234 179.504 191.017 159.798 190.354 161.387C190.354 161.387 197.941 145.934 198.016 145.817C199.499 143.512 201.695 149.475 202.966 152.043L202.862 152.064C203.461 153.277 201.946 154.656 201.296 155.835L190.144 176.884C190.032 177.085 188.982 179.112 188.871 179.315C187.85 181.195 185.591 188.077 180.509 189.609C174.85 191.314 169.258 191.327 167.882 190.982C166.505 190.637 164.671 191.049 163.705 187.297C162.963 184.41 158.034 168.817 155.806 161.797C155.192 159.865 156.049 157.743 157.765 156.941L157.764 156.943Z" fill="#00DFF4"/>
<path d="M161.001 154.587L162.651 154.082L170.191 173.81C170.607 174.985 171.208 176.079 171.99 177.004C173.058 178.268 174.607 179.413 176.206 178.259C179.113 176.158 183.81 161.805 183.81 161.805C183.81 161.805 185.824 156.527 186.38 156.455C186.936 156.382 187.635 156.406 189.022 156.676C190.41 156.947 191.575 154.607 191.749 154.243C191.923 153.879 193.923 151.015 193.742 149.747C193.562 148.479 194.268 148.758 194.597 148.848C194.925 148.938 196.666 149.584 195.445 147.745C194.224 145.906 197.687 143.733 197.687 143.733L198.783 145.968L198.95 146.565L199.143 146.996L197.202 150.329L190.417 162.863L182.315 179.239C182.315 179.239 177.822 186.455 170.852 179.502C170.852 179.502 168.319 176.612 166.816 171.214C165.313 165.815 161.002 154.588 161.002 154.588L161.001 154.587Z" fill="#00BDF1"/>
<path d="M230.051 162.983L222.393 180.564L223.251 180.949L231.076 163.418L230.124 162.843L230.051 162.983Z" fill="black"/>
<path d="M229.006 162.328L221.521 179.46L220.632 178.943L228.226 161.921L229.006 162.328Z" fill="black"/>
<path d="M206.338 154.109C206.766 154.891 218.592 179.75 218.592 179.75L216.018 181.582L195.496 144.26L199.979 140.645L206.338 154.109Z" fill="#00DFF4"/>
<path d="M201.986 144.977L205.996 153.553C205.996 153.553 208.959 153.41 212.916 151.809C216.872 150.207 216.464 145.585 216.073 142.836C215.682 140.087 215.327 139.572 215.327 139.572L201.253 143.395L201.986 144.977Z" fill="#202321"/>
<path d="M202.191 143.91L202.951 145.248L214.719 142.384C214.719 142.384 215.56 141.739 214.912 140.324L202.191 143.91Z" fill="black"/>
<path d="M222.662 213.49C208.614 214.677 196.283 202.868 195.173 187.165C194.062 171.462 204.587 157.722 218.635 156.535C232.682 155.347 245.013 167.156 246.124 182.859C247.234 198.562 236.709 212.302 222.662 213.49ZM218.991 161.572C207.477 162.545 198.854 173.851 199.767 186.777C200.681 199.702 210.792 209.425 222.305 208.452C233.819 207.479 242.443 196.173 241.529 183.247C240.615 170.322 230.504 160.599 218.991 161.572Z" fill="black"/>
<path d="M204.462 199.516L216.276 188.163L215.633 187.43L203.687 198.66L204.344 199.611L204.462 199.516Z" fill="black"/>
<path d="M204.726 200.785L217.649 188.278L218.333 189.268L205.347 201.607L204.726 200.785Z" fill="black"/>
<path d="M206.139 166.568L216.726 182.227L217.437 181.577L206.97 165.779L206.062 166.432L206.139 166.568Z" fill="black"/>
<path d="M205.123 167.27L215.428 182.551L214.595 183.17L204.43 167.836L205.123 167.27Z" fill="black"/>
<path d="M242.111 183.963L223.594 185.047L223.699 186.055L242.255 185.157L242.258 183.966L242.111 183.963Z" fill="black"/>
<path d="M242.134 182.644L223.352 183.797L223.339 182.694L242.083 181.698L242.134 182.644Z" fill="black"/>
<path d="M228.922 207.934L221.489 188.75L220.599 189.283L227.875 208.587L228.978 208.099L228.922 207.934Z" fill="black"/>
<path d="M230.262 206.812L222.292 187.873L223.326 187.399L231.133 206.358L230.262 206.812Z" fill="black"/>
<path d="M214.736 185.866L194.775 179.108L195.344 176.605L214.981 183.402L214.736 185.866Z" fill="black"/>
<path d="M194.904 180.941C194.904 180.941 194.509 175.791 197.9 170.12C201.291 164.448 203.28 160.943 211.057 157.56C218.835 154.177 225.932 156.983 225.932 156.983L228.551 156.217C228.551 156.217 225.328 154.582 221.164 154.594C217 154.605 207.039 155.242 200.828 163.194C194.616 171.145 194.365 174.643 194.056 175.554C193.748 176.465 192.98 181.437 192.98 181.437L192.633 183.558" fill="black"/>
<path d="M219.922 189.605C222.732 189.368 224.84 186.765 224.63 183.79C224.42 180.816 221.971 178.598 219.16 178.836C216.35 179.073 214.242 181.677 214.452 184.651C214.662 187.625 217.111 189.843 219.922 189.605Z" fill="black"/>
<path d="M118.739 156.097L119.034 160.262C119.034 160.262 127.031 160.199 131.25 163.624C135.469 167.048 138.281 171.674 138.85 179.233L158.34 177.142L161.258 176.82C161.258 176.82 158.335 159.816 143.344 153.465C143.344 153.465 138.06 151.305 130.865 152.598C125.236 153.609 118.68 155.282 118.68 155.282L118.737 156.095L118.739 156.097Z" fill="black"/>
<path d="M163.176 191.436C162.784 191.469 162.383 191.452 161.985 191.383L138.079 187.228C136.002 186.867 134.561 185.197 134.652 183.26L134.667 182.949C134.765 180.883 136.611 179.252 138.871 179.235C139.015 179.234 139.157 179.24 139.298 179.251L163.174 181.275C165.346 181.459 166.993 183.104 167.005 185.102L167.021 187.542C167.028 188.569 166.604 189.537 165.829 190.269C165.112 190.943 164.17 191.348 163.174 191.433L163.176 191.436ZM138.632 180.871C137.291 180.985 136.2 181.915 136.147 183.034L136.132 183.345C136.081 184.419 137.017 185.399 138.311 185.624L162.217 189.78C163.203 189.951 164.194 189.674 164.865 189.042C165.305 188.626 165.547 188.099 165.543 187.558L165.527 185.118C165.52 183.991 164.438 183.016 163.063 182.899L139.187 180.875C139.087 180.867 138.985 180.863 138.882 180.863C138.798 180.863 138.714 180.868 138.632 180.875L138.632 180.871Z" fill="black"/>
<path d="M138.304 181.627L159.754 183.494L158.976 188.329L137.003 185.212L138.304 181.627Z" fill="#00DFF4"/>
<path d="M138.335 211.115C124.288 212.302 111.956 200.493 110.846 184.79C109.736 169.087 120.261 155.347 134.308 154.16C148.355 152.972 160.687 164.781 161.797 180.484C162.907 196.187 152.382 209.927 138.335 211.115ZM134.664 159.197C123.151 160.17 114.527 171.476 115.441 184.402C116.355 197.327 126.465 207.05 137.979 206.077C149.492 205.104 158.116 193.798 157.202 180.872C156.288 167.947 146.178 158.224 134.664 159.197Z" fill="black"/>
<path d="M120.987 198.566L132.355 184.261L131.548 183.58L120.017 197.779L120.87 198.69L120.987 198.566Z" fill="black"/>
<path d="M121.916 199.595L133.324 185.654L134.445 185.63L122.635 200.273L121.916 199.595Z" fill="black"/>
<path d="M125.354 161.314L133.917 178.396L134.7 177.856L126.275 160.657L125.293 161.169L125.354 161.314Z" fill="black"/>
<path d="M124.259 161.86L132.59 178.524L131.689 179.014L123.504 162.318L124.259 161.86Z" fill="black"/>
<path d="M147.659 201.4L137.81 185.858L137.093 186.501L147.243 202.827L148.157 202.183L147.659 201.4Z" fill="black"/>
<path d="M149.365 201.248L138.338 184.888L139.174 184.278L149.942 200.633L149.365 201.248Z" fill="black"/>
<path d="M130.411 183.491L110.448 176.731L111.017 174.23L130.656 181.027L130.411 183.491Z" fill="black"/>
<path d="M110.578 178.567C110.578 178.567 110.182 173.417 113.573 167.746C116.964 162.074 118.953 158.569 126.731 155.186C134.508 151.803 141.605 154.609 141.605 154.609L144.224 153.843C144.224 153.843 141.001 152.208 136.837 152.22C132.673 152.231 122.761 152.551 116.548 160.502C110.335 168.454 110.115 172.018 109.731 173.181C109.43 174.096 108.655 179.064 108.655 179.064L108.308 181.186" fill="black"/>
<path d="M135.595 187.23C138.405 186.993 140.513 184.39 140.303 181.415C140.093 178.441 137.644 176.223 134.834 176.461C132.023 176.698 129.915 179.302 130.125 182.276C130.336 185.25 132.784 187.468 135.595 187.23Z" fill="black"/>
<path d="M165.564 195.326C169.889 194.961 173.132 190.953 172.809 186.375C172.485 181.798 168.717 178.383 164.392 178.748C160.067 179.114 156.823 183.121 157.147 187.699C157.47 192.277 161.239 195.692 165.564 195.326Z" fill="black"/>
<path d="M155.628 160.747L153.27 152.45C153.27 152.45 154.476 151.876 155.68 151.778C156.885 151.68 159.515 151.476 159.969 151.473C160.423 151.471 161.319 151.332 161.68 151.968C162.04 152.603 163.682 156.968 163.682 156.968L155.626 160.749L155.628 160.747Z" fill="black"/>
<path d="M163.741 156.936C163.741 156.936 162.053 151.853 161.222 151.549C160.392 151.244 154.998 151.87 154.998 151.87C154.998 151.87 160.01 152.055 161.092 154.376L162.309 157.607L163.739 156.936L163.741 156.936Z" fill="#0F1611"/>
<path d="M154.355 152.059L151.876 144.578L154.201 144.382L156.485 151.879L154.355 152.059Z" fill="#0F1611"/>
<path d="M143.402 140.162C143.402 140.162 145.138 144.954 145.376 145.074C145.613 145.193 162.944 143.578 162.944 143.578C162.944 143.578 164.975 141.55 162.074 141.134C159.174 140.718 143.477 139.464 143.477 139.464L143.116 139.426L143.402 140.16L143.402 140.162Z" fill="#0F1611"/>
<path d="M167.929 193.963C167.929 193.963 169.637 202.502 169.844 203.558C170.05 204.614 168.038 211.567 168.038 211.567C168.038 211.567 168.595 211.567 169.844 211.567C170.265 211.263 171.657 203.558 171.657 203.558L169.963 192.29L167.93 193.962L167.929 193.963Z" fill="#0F1611"/>
<path d="M166.172 198.159L159.283 198.741C159.021 198.763 158.825 199.014 158.845 199.301L158.97 201.059C158.99 201.346 159.219 201.561 159.481 201.539L166.37 200.957C166.632 200.935 166.828 200.684 166.807 200.397L166.683 198.639C166.663 198.352 166.434 198.137 166.172 198.159Z" fill="#0F1611"/>
<path d="M164.685 195.584L162.584 198.462L164.875 198.268L166.743 195.41L164.685 195.584Z" fill="#0F1611"/>
<path d="M195.495 144.258L192.342 136.758C192.342 136.758 192.539 132.517 193.908 130.765C195.276 129.013 194.789 129.601 194.108 128.976C193.691 128.595 192.861 127.865 192.278 127.357C191.856 126.987 191.51 126.526 191.263 125.999L191.055 125.555C191.055 125.555 190.684 124.701 189.154 125.035C187.624 125.369 185.528 125.868 185.528 125.868C185.528 125.868 186.754 123.496 185.433 123.375C183.769 123.22 191.097 120.852 191.097 120.852L194.099 122.865C194.099 122.865 194.141 121.43 194.927 121.363C195.713 121.297 198.127 122.472 199.998 123.235C201.87 123.998 202.75 124.586 202.405 125.638C202.06 126.69 199.913 126.002 199.728 126.018C199.543 126.034 198.812 126.914 198.812 126.914C198.812 126.914 197.271 130.825 197.586 132.639C197.901 134.453 199.994 140.663 199.994 140.663L195.499 144.261L195.495 144.258Z" fill="#202321"/>
<path d="M185.104 125.987C185.805 125.928 186.329 125.257 186.275 124.489C186.22 123.721 185.608 123.146 184.908 123.205C184.207 123.265 183.683 123.935 183.737 124.703C183.792 125.471 184.404 126.046 185.104 125.987Z" fill="#202321"/>
<path d="M174.569 178.874C175.395 177.373 185.074 150.893 185.074 150.893C185.074 150.893 186.031 148.836 186.071 148.748C186.111 148.659 186.833 148.104 188.172 148.57C189.511 149.036 193.977 150.706 193.977 150.706L190.014 157.051C190.014 157.051 188.354 157.293 187.283 157.078C186.211 156.862 185.36 158.467 184.47 160.825C183.58 163.182 177.25 180.003 177.25 180.003" fill="black"/>
<ellipse opacity="0.5" cx="168.595" cy="211.565" rx="10.0229" ry="1.21755" fill="url(#paint0_radial_22158_427123)"/>
</g>
<path fill-rule="evenodd" clip-rule="evenodd" d="M163.637 96.8372C163.637 96.8372 164.567 91.4366 158.459 85.0361C152.359 78.638 142.109 75.5913 142.517 61.6978C142.925 47.8042 165.259 34.4439 173.037 50.9249C182.236 70.4309 165.522 97.6005 163.637 96.8372Z" fill="#00DFF4"/>
<path fill-rule="evenodd" clip-rule="evenodd" d="M152.995 56.3191V60.6292H157.008V56.3191H152.995ZM152.925 54.1641C151.875 54.1641 151.024 55.0945 151.024 56.2421V60.7062C151.024 61.8539 151.875 62.7843 152.925 62.7843H157.008C158.058 62.7843 158.909 61.8539 158.909 60.7062V56.2421C158.909 55.0945 158.058 54.1641 157.008 54.1641L152.925 54.1641Z" fill="white"/>
<path fill-rule="evenodd" clip-rule="evenodd" d="M160.844 65.9399C160.844 65.366 161.27 64.9008 161.795 64.9008H164.963C165.488 64.9008 165.913 65.366 165.913 65.9399C165.913 66.5137 165.488 66.9789 164.963 66.9789H162.745V69.057C162.745 69.6308 162.32 70.096 161.795 70.096C161.27 70.096 160.844 69.6308 160.844 69.057V65.9399Z" fill="white"/>
<path fill-rule="evenodd" clip-rule="evenodd" d="M160.844 72.5205C160.844 71.9466 161.27 71.4814 161.795 71.4814H164.963C165.488 71.4814 165.913 71.9466 165.913 72.5205C165.913 73.0943 165.488 73.5595 164.963 73.5595H161.795C161.27 73.5595 160.844 73.0943 160.844 72.5205Z" fill="white"/>
<path fill-rule="evenodd" clip-rule="evenodd" d="M167.814 68.018C168.339 68.018 168.764 68.4832 168.764 69.057V72.5205C168.764 73.0943 168.339 73.5595 167.814 73.5595C167.289 73.5595 166.864 73.0943 166.864 72.5205V70.096H164.963C164.438 70.096 164.012 69.6308 164.012 69.057C164.012 68.4832 164.438 68.018 164.963 68.018H167.814Z" fill="white"/>
<path d="M155.917 58.4357C155.917 59.0095 155.491 59.4747 154.966 59.4747C154.441 59.4747 154.016 59.0095 154.016 58.4357C154.016 57.8618 154.441 57.3966 154.966 57.3966C155.491 57.3966 155.917 57.8618 155.917 58.4357Z" fill="white"/>
<path d="M168.764 65.9399C168.764 66.5137 168.339 66.9789 167.814 66.9789C167.289 66.9789 166.864 66.5137 166.864 65.9399C166.864 65.366 167.289 64.9008 167.814 64.9008C168.339 64.9008 168.764 65.366 168.764 65.9399Z" fill="white"/>
<path fill-rule="evenodd" clip-rule="evenodd" d="M162.851 56.3191V60.6292H166.864V56.3191H162.851ZM162.78 54.1641C161.731 54.1641 160.88 55.0945 160.88 56.2421V60.7062C160.88 61.8539 161.731 62.7843 162.78 62.7843H166.864C167.913 62.7843 168.764 61.8539 168.764 60.7062V56.2421C168.764 55.0945 167.913 54.1641 166.864 54.1641L162.78 54.1641Z" fill="white"/>
<path d="M165.772 58.4357C165.772 59.0095 165.347 59.4747 164.822 59.4747C164.297 59.4747 163.872 59.0095 163.872 58.4357C163.872 57.8618 164.297 57.3966 164.822 57.3966C165.347 57.3966 165.772 57.8618 165.772 58.4357Z" fill="white"/>
<path fill-rule="evenodd" clip-rule="evenodd" d="M152.995 67.0944V71.4045H157.008V67.0944H152.995ZM152.925 64.9393C151.875 64.9393 151.024 65.8697 151.024 67.0174V71.4814C151.024 72.6291 151.875 73.5595 152.925 73.5595H157.008C158.058 73.5595 158.909 72.6291 158.909 71.4814V67.0174C158.909 65.8697 158.058 64.9393 157.008 64.9393H152.925Z" fill="white"/>
<path d="M155.917 69.2109C155.917 69.7848 155.491 70.25 154.966 70.25C154.441 70.25 154.016 69.7848 154.016 69.2109C154.016 68.6371 154.441 68.1719 154.966 68.1719C155.491 68.1719 155.917 68.6371 155.917 69.2109Z" fill="white"/>
<path d="M126.925 107.796C127.259 110.443 137.613 124.684 143.458 125.141C143.542 125.141 143.625 125.141 143.792 125.141C144.21 125.141 144.627 124.958 145.045 124.776C147.132 123.315 155.566 117.29 158.488 113.638L157.987 109.896C153.562 111.539 143.792 118.112 143.792 118.112C143.792 118.112 143.375 118.294 143.208 118.02C135.526 110.169 132.019 107.248 129.514 105.148L126.925 107.796Z" fill="#D7A887"/>
<path d="M112.314 202.738C112.731 203.924 111.98 208.306 111.896 209.676C112.731 210.954 114.819 209.95 115.069 208.58C115.069 208.398 115.236 208.398 115.236 208.032C114.986 207.211 115.487 204.016 116.071 202.281L112.314 202.738Z" fill="#F8AB90"/>
<path d="M125.256 204.653C125.59 205.839 124.588 208.761 124.504 210.221C125.256 211.591 127.427 210.678 127.761 209.308C127.761 209.126 127.928 209.126 127.928 208.761C127.594 207.848 128.345 205.292 129.097 203.648L125.256 204.653Z" fill="#F8AB90"/>
<path d="M125.089 136.551H132.938C136.862 149.514 138.031 164.211 135.693 178.818C135.526 179.913 135.276 181.009 134.942 182.104L132.27 204.744C130.266 205.657 124.421 205.018 122.417 204.47C125.089 196.071 126.592 188.677 127.176 180.552C127.427 179.274 127.427 176.627 127.427 176.627C128.345 164.029 125.673 139.746 125.089 136.551Z" fill="#74B79C"/>
<path d="M118.743 204.562C116.071 205.384 112.397 204.014 110.309 203.101L115.403 177.905C115.486 177.449 115.486 176.901 115.486 176.445L113.649 146.228C113.649 145.498 113.649 144.767 113.733 144.037C114.067 141.39 114.651 137.555 115.653 136.277H125.923C128.846 151.249 128.345 164.029 127.176 171.241C127.092 171.88 126.508 178.91 125.84 180.918L118.743 204.562Z" fill="#74B79C"/>
<path d="M132.937 136.733L115.486 137.007L115.402 136.185L132.854 136.094L132.937 136.733Z" fill="#20505A"/>
<path d="M119.829 86.6172L125.841 87.2562C124.087 90.2688 122.751 92.9162 124.755 95.0158L118.994 94.4681C120.998 93.0074 120.664 89.4472 119.829 86.6172Z" fill="#ECBC97"/>
<path d="M125.842 74.1992C125.842 74.1992 128.096 77.2118 127.595 79.4027C127.512 79.7679 127.512 80.0418 127.428 80.2244C127.178 81.5024 127.178 81.4111 128.43 82.0501C129.098 82.4153 128.514 83.0543 128.18 83.3282C128.013 83.5107 127.929 83.6933 127.929 83.9672C127.929 84.2411 128.013 84.515 128.013 84.515C128.013 84.6063 128.263 85.3365 127.595 85.3365C124.255 85.4278 127.011 85.3365 127.762 85.6104C127.762 85.6104 128.096 85.793 128.013 85.9756C127.929 86.1582 127.679 86.432 127.595 86.7059C127.512 86.9798 127.512 87.8014 127.345 88.1665C127.178 88.5317 125.257 89.1707 124.088 88.8055C123.17 88.5317 122.001 88.2578 121.5 88.1665C121.333 88.1665 120.999 87.7101 120.915 87.5275C120.665 87.3449 119.997 87.1624 119.496 86.7972C118.494 86.0669 119.329 85.7017 119.412 85.2453C119.496 84.7888 119.663 83.9672 119.496 83.6933C119.329 83.4195 118.494 82.324 118.327 81.8676C118.076 81.1372 118.494 79.8592 118.828 79.4027C119.162 78.9463 119.83 78.7637 120.247 79.1289C120.581 79.4027 120.999 79.4028 121.166 79.0376C121.416 78.5812 123.587 75.4773 124.005 75.2034C124.422 74.9296 125.842 74.1992 125.842 74.1992Z" fill="#ECBC97"/>
<path d="M127.928 76.1181C127.844 76.4833 127.677 76.7571 127.51 77.031C127.26 77.4874 126.842 77.8526 126.341 78.0351C124.838 78.6742 123.586 79.3132 122.166 79.2219C121.582 79.1306 121.081 79.4958 120.83 80.1348C120.663 80.6825 120.329 81.0477 119.995 81.4129C119.411 82.0519 119.244 83.0561 119.494 83.8777C119.912 85.0645 121.582 89.355 121.164 90.3592C122.083 98.8491 114.067 108.617 107.053 102.044C103.713 98.1188 110.226 91.4547 110.393 87.3467C110.143 82.1432 113.983 77.67 114.401 76.5745C114.568 76.2094 114.735 75.9355 114.985 75.6616C115.987 74.5662 116.822 73.1055 117.657 72.4665C118.409 71.8275 119.244 71.4623 120.162 71.0972C121.582 70.5494 123.168 70.732 124.504 71.6449C125.924 72.5578 127.176 73.8359 127.677 74.9313C128.011 75.2965 128.095 75.7529 127.928 76.1181Z" fill="#BC9D02"/>
<path d="M120.331 81.1381C120.164 80.7729 119.913 80.4991 119.663 80.4078C119.579 80.3165 119.412 80.4078 119.329 80.4078C118.577 80.7729 118.41 81.4119 118.744 82.2336C118.744 82.2336 118.744 82.2335 118.744 82.3248C119.245 83.1464 119.579 83.329 120.247 83.6942L120.331 81.1381Z" fill="#ECBC97"/>
<path d="M111.897 207.116C113.15 207.755 114.402 207.755 115.738 206.934C115.822 206.934 115.905 206.934 115.905 207.025C116.657 208.485 117.408 210.403 118.577 211.498C119.829 212.411 121.332 213.05 123.002 213.598C123.169 213.689 123.42 213.78 123.67 213.689C124.505 213.689 125.09 213.78 125.674 214.145C125.758 214.145 125.841 214.237 125.925 214.237C126.259 214.419 126.426 214.876 126.509 215.424C126.509 215.789 126.342 216.063 126.092 216.245C124.756 217.067 123.002 217.432 120.915 217.432L117.074 216.884L110.979 216.336L110.311 216.063C110.227 215.971 110.144 215.88 110.144 215.789C110.144 214.693 110.311 213.506 110.728 212.32C110.812 211.955 111.062 211.498 111.229 211.133C111.73 210.129 111.897 208.851 111.814 207.39C111.73 207.116 111.814 207.025 111.897 207.116Z" fill="#BFBAB8"/>
<path d="M110.145 214.238C109.978 214.238 109.894 215.516 109.978 215.79C110.061 216.155 111.23 216.338 111.481 216.338C112.399 216.521 113.485 216.52 114.487 216.612L117.91 216.977C118.912 217.16 119.998 217.342 121.167 217.342C122.085 217.342 123.003 217.251 123.922 216.977C124.673 216.794 125.341 216.521 126.009 216.064C126.093 215.973 126.176 215.973 126.176 215.79C126.343 215.334 126.343 214.603 125.675 214.238C124.924 214.695 123.755 214.969 122.502 215.242C121.584 215.425 120.499 215.516 119.33 215.425C117.493 215.334 115.739 215.242 114.153 214.877C112.733 214.786 111.314 214.603 110.145 214.238Z" fill="#20505A"/>
<path d="M123.42 213.6C123.336 214.239 123.336 214.695 123.587 215.06C124.505 214.878 125.257 214.604 125.925 214.239C125.257 213.782 124.422 213.508 123.42 213.6Z" fill="#F05A24"/>
<path d="M115.572 208.668C115.757 208.668 115.906 208.505 115.906 208.303C115.906 208.101 115.757 207.938 115.572 207.938C115.387 207.938 115.238 208.101 115.238 208.303C115.238 208.505 115.387 208.668 115.572 208.668Z" fill="#D7CCC2"/>
<path d="M116.156 209.946C116.341 209.946 116.491 209.782 116.491 209.58C116.491 209.378 116.341 209.215 116.156 209.215C115.972 209.215 115.822 209.378 115.822 209.58C115.822 209.782 115.972 209.946 116.156 209.946Z" fill="#D7CCC2"/>
<path d="M116.659 211.043C116.844 211.043 116.994 210.88 116.994 210.678C116.994 210.476 116.844 210.312 116.659 210.312C116.475 210.312 116.325 210.476 116.325 210.678C116.325 210.88 116.475 211.043 116.659 211.043Z" fill="#D7CCC2"/>
<path d="M117.493 212.137C117.678 212.137 117.828 211.973 117.828 211.772C117.828 211.57 117.678 211.406 117.493 211.406C117.309 211.406 117.159 211.57 117.159 211.772C117.159 211.973 117.309 212.137 117.493 212.137Z" fill="#D7CCC2"/>
<path d="M118.409 212.867C118.593 212.867 118.743 212.704 118.743 212.502C118.743 212.3 118.593 212.137 118.409 212.137C118.224 212.137 118.075 212.3 118.075 212.502C118.075 212.704 118.224 212.867 118.409 212.867Z" fill="#D7CCC2"/>
<path d="M119.717 213.423C119.859 213.293 119.877 213.063 119.759 212.908C119.64 212.754 119.429 212.733 119.288 212.863C119.146 212.993 119.128 213.223 119.246 213.378C119.365 213.532 119.576 213.553 119.717 213.423Z" fill="#D7CCC2"/>
<path d="M120.719 213.818C120.825 213.721 120.839 213.548 120.75 213.432C120.661 213.316 120.503 213.301 120.397 213.398C120.291 213.495 120.277 213.668 120.366 213.784C120.455 213.9 120.613 213.915 120.719 213.818Z" fill="#D7CCC2"/>
<path d="M122.044 214.105C122.112 213.973 122.07 213.806 121.949 213.732C121.829 213.657 121.676 213.704 121.608 213.836C121.54 213.967 121.582 214.135 121.703 214.209C121.823 214.283 121.976 214.237 122.044 214.105Z" fill="#D7CCC2"/>
<path d="M116.239 209.216C116.49 209.125 116.824 209.125 116.991 209.308C117.075 209.49 117.158 209.673 117.242 209.764C116.991 209.582 116.573 209.673 116.406 209.673C116.49 209.49 116.406 209.308 116.239 209.216Z" fill="#686461"/>
<path d="M116.741 210.313C116.992 210.222 117.326 210.039 117.577 210.13C117.66 210.222 117.744 210.313 117.827 210.496C117.493 210.404 117.075 210.587 116.992 210.678C116.992 210.496 116.908 210.404 116.741 210.313Z" fill="#686461"/>
<path d="M117.492 211.407C117.659 211.224 118.077 211.133 118.327 211.133C118.411 211.224 118.494 211.315 118.661 211.407C118.327 211.407 117.91 211.589 117.743 211.772C117.743 211.589 117.659 211.407 117.492 211.407Z" fill="#686461"/>
<path d="M118.494 212.139C118.661 211.956 118.911 211.865 119.245 211.773C119.329 211.865 119.496 211.865 119.663 212.047C119.329 212.139 118.995 212.412 118.828 212.504C118.744 212.412 118.661 212.23 118.494 212.139Z" fill="#686461"/>
<path d="M119.497 212.776C119.664 212.502 119.831 212.41 120.081 212.41C120.249 212.502 120.249 212.502 120.416 212.593C120.165 212.776 119.914 213.05 119.831 213.141C119.831 212.958 119.747 212.776 119.497 212.776Z" fill="#686461"/>
<path d="M120.581 213.324C120.748 213.05 120.999 212.959 121.166 212.867C121.333 212.959 121.417 212.959 121.584 213.05C121.333 213.233 121.082 213.507 120.915 213.598C120.832 213.507 120.748 213.324 120.581 213.324Z" fill="#686461"/>
<path d="M121.668 213.78C121.752 213.415 121.752 213.323 121.919 213.141C122.086 213.141 122.253 213.232 122.253 213.232C122.17 213.506 122.17 213.689 122.086 213.871C122.003 213.78 121.836 213.597 121.668 213.78Z" fill="#686461"/>
<path d="M115.657 207.936C115.907 207.844 116.158 207.844 116.325 207.936C116.409 208.118 116.492 208.301 116.576 208.392C116.242 208.301 116.074 208.21 115.907 208.301C115.907 208.21 115.824 208.027 115.657 207.936Z" fill="#686461"/>
<path d="M114.404 207.481C114.404 207.39 114.404 207.299 114.404 207.207C114.404 207.025 114.571 206.842 114.738 206.751C114.988 206.568 115.239 206.386 115.573 206.203C115.656 206.386 115.74 206.66 115.823 206.933C115.573 207.116 115.239 207.207 115.072 207.299C114.905 207.299 114.654 207.39 114.404 207.481Z" fill="#20505A"/>
<path d="M124.507 207.757C125.759 208.396 127.012 208.396 128.348 207.574C128.431 207.574 128.515 207.574 128.515 207.665C129.266 209.126 130.018 211.043 131.187 212.139C132.439 213.052 133.942 213.691 135.612 214.238C135.779 214.33 136.03 214.421 136.28 214.33C137.115 214.33 137.7 214.421 138.284 214.786C138.368 214.786 138.451 214.877 138.535 214.877C138.869 215.06 139.036 215.516 139.119 216.064C139.119 216.429 138.952 216.703 138.702 216.886C137.366 217.707 135.612 218.072 133.525 218.072L129.684 217.525L123.588 216.977L122.92 216.703C122.837 216.612 122.753 216.521 122.753 216.429C122.753 215.334 122.92 214.147 123.338 212.96C123.421 212.595 123.672 212.139 123.839 211.774C124.34 210.769 124.507 209.491 124.423 208.031C124.423 207.757 124.507 207.757 124.507 207.757Z" fill="#BFBAB8"/>
<path d="M122.835 214.969C122.668 214.969 122.584 216.247 122.668 216.521C122.751 216.886 123.92 217.068 124.171 217.068C125.089 217.251 126.175 217.251 127.176 217.342L130.6 217.707C131.602 217.89 132.687 218.073 133.856 218.073C134.775 218.073 135.693 217.981 136.612 217.707C137.363 217.525 138.031 217.251 138.699 216.795C138.783 216.703 138.866 216.703 138.866 216.521C139.033 216.064 139.033 215.334 138.365 214.969C137.614 215.425 136.445 215.699 135.192 215.973C134.274 216.156 133.188 216.247 132.019 216.156C130.182 216.064 128.429 215.973 126.842 215.608C125.423 215.516 124.004 215.334 122.835 214.969Z" fill="#20505A"/>
<path d="M136.027 214.327C135.943 214.966 135.943 215.423 136.194 215.788C137.112 215.605 137.864 215.331 138.532 214.966C137.864 214.418 137.112 214.236 136.027 214.327Z" fill="#20505A"/>
<path d="M128.264 209.309C128.448 209.309 128.598 209.145 128.598 208.944C128.598 208.742 128.448 208.578 128.264 208.578C128.079 208.578 127.93 208.742 127.93 208.944C127.93 209.145 128.079 209.309 128.264 209.309Z" fill="#D7CCC2"/>
<path d="M128.764 210.586C128.948 210.586 129.098 210.423 129.098 210.221C129.098 210.019 128.948 209.855 128.764 209.855C128.579 209.855 128.43 210.019 128.43 210.221C128.43 210.423 128.579 210.586 128.764 210.586Z" fill="#D7CCC2"/>
<path d="M129.349 211.774C129.534 211.774 129.684 211.61 129.684 211.408C129.684 211.207 129.534 211.043 129.349 211.043C129.165 211.043 129.015 211.207 129.015 211.408C129.015 211.61 129.165 211.774 129.349 211.774Z" fill="#D7CCC2"/>
<path d="M130.099 212.778C130.284 212.778 130.434 212.614 130.434 212.412C130.434 212.21 130.284 212.047 130.099 212.047C129.915 212.047 129.765 212.21 129.765 212.412C129.765 212.614 129.915 212.778 130.099 212.778Z" fill="#D7CCC2"/>
<path d="M131.101 213.508C131.285 213.508 131.435 213.344 131.435 213.143C131.435 212.941 131.285 212.777 131.101 212.777C130.916 212.777 130.767 212.941 130.767 213.143C130.767 213.344 130.916 213.508 131.101 213.508Z" fill="#D7CCC2"/>
<path d="M132.386 214.06C132.527 213.93 132.546 213.7 132.427 213.545C132.309 213.39 132.098 213.37 131.956 213.5C131.815 213.629 131.796 213.86 131.915 214.014C132.033 214.169 132.244 214.189 132.386 214.06Z" fill="#D7CCC2"/>
<path d="M133.384 214.459C133.49 214.362 133.504 214.189 133.415 214.073C133.326 213.957 133.168 213.942 133.062 214.039C132.956 214.136 132.942 214.309 133.031 214.425C133.12 214.541 133.278 214.556 133.384 214.459Z" fill="#D7CCC2"/>
<path d="M134.774 214.793C134.842 214.661 134.8 214.494 134.679 214.419C134.559 214.345 134.406 214.391 134.338 214.523C134.27 214.655 134.312 214.822 134.433 214.896C134.553 214.971 134.706 214.924 134.774 214.793Z" fill="#D7CCC2"/>
<path d="M128.929 209.857C129.18 209.766 129.514 209.766 129.681 209.948C129.765 210.131 129.848 210.314 129.932 210.405C129.681 210.222 129.263 210.314 129.096 210.314C129.096 210.131 129.096 209.948 128.929 209.857Z" fill="#686461"/>
<path d="M129.433 211.044C129.683 210.952 130.017 210.769 130.268 210.861C130.352 210.952 130.435 211.044 130.519 211.226C130.185 211.135 129.767 211.318 129.683 211.409C129.683 211.226 129.6 211.044 129.433 211.044Z" fill="#686461"/>
<path d="M130.184 212.047C130.351 211.865 130.768 211.773 131.019 211.773C131.102 211.865 131.186 211.956 131.353 212.047C131.019 212.047 130.601 212.23 130.434 212.412C130.434 212.321 130.351 212.139 130.184 212.047Z" fill="#686461"/>
<path d="M131.103 212.869C131.27 212.687 131.521 212.595 131.855 212.504C131.938 212.595 132.105 212.595 132.272 212.778C131.938 212.869 131.604 213.143 131.437 213.234C131.437 213.052 131.354 212.869 131.103 212.869Z" fill="#686461"/>
<path d="M132.188 213.416C132.356 213.142 132.523 213.051 132.773 213.051C132.94 213.142 132.94 213.142 133.108 213.233C132.857 213.416 132.606 213.69 132.523 213.782C132.439 213.599 132.356 213.416 132.188 213.416Z" fill="#686461"/>
<path d="M133.271 213.965C133.438 213.691 133.689 213.599 133.856 213.508C134.023 213.599 134.107 213.599 134.274 213.691C134.023 213.873 133.772 214.147 133.605 214.239C133.522 214.147 133.438 213.965 133.271 213.965Z" fill="#686461"/>
<path d="M134.358 214.421C134.442 214.055 134.442 213.964 134.609 213.781C134.776 213.781 134.943 213.873 134.943 213.873C134.86 214.147 134.86 214.329 134.776 214.512C134.693 214.421 134.525 214.238 134.358 214.421Z" fill="#686461"/>
<path d="M128.347 208.576C128.597 208.485 128.848 208.485 129.015 208.576C129.099 208.759 129.182 208.942 129.266 209.033C128.932 208.942 128.764 208.85 128.597 208.942C128.597 208.85 128.514 208.668 128.347 208.576Z" fill="#686461"/>
<path d="M127.096 208.122C127.096 208.03 127.096 207.939 127.096 207.848C127.096 207.665 127.263 207.483 127.43 207.391C127.68 207.209 127.931 207.026 128.265 206.844C128.348 207.026 128.432 207.3 128.515 207.574C128.265 207.757 127.931 207.848 127.764 207.939C127.597 208.03 127.346 208.122 127.096 208.122Z" fill="#20505A"/>
<path d="M126.508 108.615C126.842 111.262 137.196 125.503 143.041 125.96C143.125 125.96 143.208 125.96 143.375 125.96C143.793 125.96 144.21 125.777 144.628 125.595C146.715 124.134 155.149 118.109 158.071 114.457L156.318 110.988C151.892 112.631 143.292 119.022 143.292 119.022C143.292 119.022 142.791 119.204 142.707 118.93C139.2 112.631 134.107 109.254 129.013 106.059L126.508 108.615Z" fill="#ECBC97"/>
<path d="M165.756 103.961L161.915 110.625C161.915 110.625 162.332 111.447 163.334 111.355C164.253 111.264 165.589 108.708 165.672 108.252C165.839 107.704 165.589 107.247 165.756 106.882C165.923 106.517 165.839 105.604 165.839 105.604C165.756 105.604 166.591 104.326 165.756 103.961Z" fill="#D7A887"/>
<path d="M160.827 110.626L162.831 101.771C162.915 101.497 163.082 101.314 163.249 101.132L166.171 99.306C166.338 99.2148 166.589 99.2148 166.672 99.3974C166.756 99.4887 166.756 99.6712 166.756 99.7625L164.668 109.074L160.827 110.626Z" fill="#1A2E35"/>
<path d="M164.583 109.893C164.583 109.893 164.666 109.802 164.666 109.528C164.666 109.254 164.666 108.889 164.583 108.432C164.666 108.25 164.666 108.158 164.666 107.976C164.583 107.793 164.499 107.611 164.332 107.519H164.249V107.428C164.416 107.154 164.583 106.88 164.75 106.515C164.833 106.424 164.833 106.333 164.833 106.333C164.833 106.241 164.833 106.15 164.833 106.059C164.75 105.876 164.666 105.785 164.499 105.694V105.602L164.583 105.511C164.75 105.329 164.917 105.146 165.084 104.963C165.334 104.598 165.668 104.324 165.835 103.959C165.919 103.777 166.086 103.594 166.086 103.411C166.086 103.32 166.169 103.229 166.169 103.138C166.169 103.046 166.169 103.046 166.086 103.046C166.002 103.046 165.919 103.046 165.835 103.138C165.752 103.138 165.668 103.229 165.585 103.229C165.418 103.32 165.251 103.411 165.084 103.503C164.75 103.685 164.499 103.959 164.332 104.05C164.165 104.233 163.998 104.324 163.831 104.416C163.748 104.507 163.664 104.598 163.664 104.507C163.664 104.507 163.748 104.416 163.831 104.324C163.915 104.233 164.082 104.05 164.249 103.868C164.416 103.685 164.666 103.503 165 103.229C165.167 103.138 165.334 103.046 165.501 102.864C165.585 102.772 165.668 102.772 165.752 102.681C165.835 102.681 166.002 102.59 166.086 102.59C166.253 102.59 166.336 102.772 166.253 102.864C166.253 102.955 166.253 103.046 166.169 103.138C166.086 103.32 166.002 103.503 165.835 103.685C165.585 104.05 165.334 104.324 165.084 104.689C164.917 104.872 164.75 105.055 164.583 105.237V105.146C164.75 105.237 164.917 105.42 165 105.602C165 105.694 165.084 105.785 165 105.968C165 106.059 164.917 106.15 164.833 106.241C164.666 106.515 164.499 106.88 164.249 107.154V107.063C164.416 107.246 164.583 107.337 164.583 107.611C164.666 107.793 164.583 108.067 164.499 108.158C164.583 108.615 164.583 109.071 164.583 109.254C164.666 109.71 164.666 109.802 164.583 109.893Z" fill="#C89777"/>
<path d="M166.671 99.3945C166.671 99.3945 166.588 99.4858 166.421 99.5771C166.254 99.6684 166.003 99.851 165.753 100.034C165.419 100.216 165.085 100.49 164.751 100.673C164.584 100.764 164.333 100.946 164.166 101.038C163.916 101.129 163.749 101.312 163.582 101.494C163.415 101.677 163.331 101.951 163.248 102.224C163.164 102.498 163.164 102.772 163.081 102.955C162.997 103.411 162.83 103.868 162.747 104.233C162.663 104.598 162.58 104.872 162.496 105.054C162.413 105.237 162.413 105.328 162.413 105.328C162.413 105.328 162.413 105.237 162.496 104.963C162.496 104.781 162.58 104.507 162.663 104.142C162.747 103.776 162.83 103.32 162.914 102.864C162.997 102.59 162.997 102.407 163.081 102.133C163.164 101.859 163.248 101.585 163.415 101.312C163.582 101.129 163.832 100.946 164.083 100.855C164.333 100.764 164.5 100.581 164.667 100.49C165.085 100.216 165.419 100.034 165.753 99.851C166.087 99.6684 166.254 99.4858 166.504 99.3945C166.588 99.4858 166.671 99.3945 166.671 99.3945Z" fill="#375A64"/>
<path d="M164.753 102.411C164.67 102.593 164.67 102.776 164.753 102.776C164.837 102.776 164.92 102.685 165.004 102.502C165.087 102.319 165.087 102.137 165.004 102.137C164.92 102.137 164.837 102.228 164.753 102.411Z" fill="white"/>
<path d="M157.569 110.261C158.237 109.896 158.237 108.709 158.571 107.979C158.822 107.34 159.156 106.701 159.406 106.609C159.824 106.336 162.162 104.784 162.162 104.784L161.911 105.97L164.166 104.236C164.416 104.053 166.003 102.41 166.337 103.049C166.504 103.506 165.251 104.692 165.084 104.966C164.667 105.605 164.834 105.605 164.834 105.605C164.834 105.605 165.335 105.879 165.084 106.336C164.834 106.792 164.416 107.34 164.416 107.34C164.416 107.34 165.001 107.614 164.667 108.435C164.667 108.435 164.834 108.892 164.75 109.531C164.667 109.896 164.416 110.352 164.082 110.717C163.748 111.174 163.331 111.448 162.83 111.63C160.909 112.361 159.239 113.182 158.07 114.278L156.317 110.809L157.569 110.261Z" fill="#ECBC97"/>
<path d="M162.583 105.422C162.583 105.422 162.082 105.878 161.414 106.244C160.746 106.7 160.245 106.974 160.245 106.974C160.245 106.974 160.746 106.517 161.414 106.152C161.998 105.696 162.583 105.422 162.583 105.422Z" fill="#C89777"/>
<path d="M164.669 105.512C164.669 105.512 164.252 106.059 163.667 106.698C163.083 107.337 162.582 107.794 162.582 107.794C162.582 107.794 162.999 107.246 163.584 106.607C164.168 105.968 164.669 105.512 164.669 105.512Z" fill="#C89777"/>
<path d="M164.5 107.152C164.5 107.152 164.333 107.517 163.999 107.883C163.748 108.248 163.414 108.522 163.414 108.522C163.414 108.522 163.581 108.157 163.915 107.791C164.166 107.426 164.5 107.152 164.5 107.152Z" fill="#C89777"/>
<path d="M135.111 136.093H110.228C110.228 136.093 111.147 112.905 114.319 100.034C114.737 98.2078 116.156 95.5604 117.409 94.2823C117.91 93.7346 118.494 93.2782 119.162 93.0043C119.58 92.8217 120.081 92.7305 120.582 92.7305L124.84 93.0956C125.341 93.0956 125.759 93.4608 125.926 93.9172L130.184 104.416C130.435 105.055 130.769 105.602 131.27 106.059L137.532 112.175L133.441 117.652L132.94 118.292" fill="#20505A"/>
<path d="M131.768 117.928C124.921 111.994 124.587 110.807 124.086 108.799C123.919 108.16 123.669 107.338 123.168 106.243L123.752 105.969C124.253 107.156 124.504 107.886 124.671 108.616C125.172 110.533 125.506 111.537 132.186 117.38L131.768 117.928Z" fill="black"/>
<defs>
<radialGradient id="paint0_radial_22158_427123" cx="0" cy="0" r="1" gradientUnits="userSpaceOnUse" gradientTransform="translate(168.412 211.768) rotate(90) scale(1.21755 10.0229)">
<stop/>
<stop offset="1" stop-color="#D9D9D9" stop-opacity="0"/>
</radialGradient>
<clipPath id="clip0_22158_427123">
<rect width="137.367" height="94.9743" fill="white" transform="matrix(0.996448 -0.0842084 0.0705251 0.99751 104.56 128.164)"/>
</clipPath>
</defs>
</svg>
