<svg width="356" height="233" viewBox="0 0 356 233" fill="none" xmlns="http://www.w3.org/2000/svg">
<path d="M233.247 172.631H235.818V185.147H233.247V172.631Z" fill="#754C24"/>
<path d="M227.788 173.395C228.14 173.778 235.889 175.577 240.256 173.395C245.469 170.639 240.256 151.579 240.256 151.579C240.256 151.579 234.691 133.628 233.353 132.136C232.014 130.681 230.817 141.283 228.809 146.986C226.802 152.65 227.788 160.191 226.802 164.401C225.816 168.611 225.604 169.338 226.45 171.367C226.943 172.859 227.788 173.395 227.788 173.395Z" fill="#0B9D99"/>
<path d="M247.629 166.947H250.44V182.595H247.629V166.947Z" fill="#754C24"/>
<path d="M238.505 167.993C238.967 168.495 249.246 170.922 255.098 167.993C262.028 164.353 255.098 139 255.098 139C255.098 139 247.706 115.152 245.897 113.186C244.087 111.219 242.547 125.36 239.852 132.891C237.157 140.422 238.505 150.421 237.157 156.028C235.81 161.634 235.579 162.596 236.695 165.274C237.388 167.282 238.505 167.993 238.505 167.993Z" fill="#A2D855"/>
<path d="M187.815 214.594C280.497 214.594 355.63 206.947 355.63 197.513C355.63 188.079 280.497 180.432 187.815 180.432C95.1333 180.432 20 188.079 20 197.513C20 206.947 95.1333 214.594 187.815 214.594Z" fill="#F3F3F3"/>
<path d="M264.596 164.389H268.86V185.147H264.596V164.389Z" fill="#754C24"/>
<path d="M255.542 165.656C256.126 166.291 268.977 169.275 276.221 165.656C284.866 161.086 276.221 129.473 276.221 129.473C276.221 129.473 266.991 99.7006 264.771 97.2249C262.551 94.8126 260.565 112.397 257.236 121.855C253.906 131.25 255.542 143.756 253.906 150.738C252.27 157.721 251.92 158.927 253.322 162.292C254.14 164.768 255.542 165.656 255.542 165.656Z" fill="#0B9D99"/>
<g clip-path="url(#clip0_22158_427350)">
<path opacity="0.4" d="M87.8081 142.5L132.169 86C132.932 89 135.188 96.9 138.115 104.5C141.042 112.1 149.701 122 153.664 126L152.292 126.5L87.8081 142.5Z" fill="#00DFF4"/>
<path d="M61.0008 161.134C60.9883 161.124 60.9758 161.115 60.965 161.105C60.7127 160.884 57.7925 158.333 57.0928 157.906C56.361 157.46 55.5772 157.377 55.8295 156.625C56.0818 155.873 57.5795 154.82 58.1038 154.625C58.5691 154.451 59.4852 154.068 59.682 153.985C59.7071 153.975 59.7304 153.964 59.7536 153.948C59.9111 153.853 60.5624 153.466 60.7306 153.48C60.9221 153.494 62.0333 152.195 63.3127 154.218C64.5921 156.244 65.0645 156.392 65.0645 156.728C65.0645 157.044 64.0356 160.175 62.1353 161.509C61.9331 161.652 61.6736 161.64 61.4768 161.492L61.0008 161.136V161.134Z" stroke="black" stroke-width="4" stroke-miterlimit="10"/>
<path d="M65.4975 162.406C65.4975 162.406 62.1012 163.336 62.5164 161.031C62.9315 158.727 63.4146 156.058 66.0415 156.019C68.6683 155.977 68.9438 157.093 71.848 158.356C74.7522 159.62 75.1512 159.995 80.4048 160.143C85.6584 160.291 87.2957 160.329 88.1958 160.254C89.0958 160.179 89.9601 164.599 89.4072 165.788C88.8543 166.976 84.4828 166.009 84.2305 165.894C83.9782 165.78 69.7061 163.187 67.9794 162.666C66.2508 162.145 65.4993 162.406 65.4993 162.406H65.4975Z" fill="#131315"/>
<path d="M55.3732 156.928C55.3732 156.928 54.0848 157.402 53.3261 156.928C52.5674 156.454 48.6773 155.06 47.6162 155.228C46.5551 155.396 45.5137 154.551 45.5137 154.551C45.5137 154.551 49.7867 155.226 51.9859 155.307C54.185 155.388 55.2461 154.993 55.6004 155.39C55.9547 155.787 55.9118 155.887 55.7275 156.306C55.5432 156.725 55.3732 156.928 55.3732 156.928Z" fill="#1E1E1E"/>
<path d="M85.3936 165.214C85.3936 165.214 79.0556 182.486 77.9874 182.456C76.9191 182.426 76.5183 187.031 76.4181 187.495C76.3179 187.958 74.8416 190.199 78.4276 190.979C82.0153 191.759 98.7889 195.161 98.7889 195.161C98.7889 195.161 102.377 195.941 104.549 195.439C106.721 194.938 108.541 193.935 109.4 193.822C110.259 193.71 113.847 188.75 114.908 187.299C115.969 185.85 126.428 168.29 126.528 167.398C126.628 166.506 125.232 164.32 124.424 162.257C123.615 160.194 117.475 151.321 117.475 151.321L111.723 144.526C111.723 144.526 110.948 144.042 110.275 144.526C109.602 145.009 108.205 146.512 108.104 147.292C108.004 148.071 107.902 150.859 108.004 151.305C108.106 151.752 110.311 156.75 110.311 156.75C110.311 156.75 105.374 155.969 105.274 156.806C105.173 157.643 105.449 161.351 105.546 163.52C105.642 165.69 105.694 166.371 105.546 167.236C105.447 167.809 102.225 182.59 102.225 182.59L89.8993 178.043L91.1787 164.334L90.3878 164.719L85.6459 164.288L85.3954 165.212L85.3936 165.214Z" fill="black"/>
<path d="M114.843 166.46L105.412 150.628C105.412 150.628 103.375 147.22 102.987 147.953C102.599 148.683 102.887 151.967 102.887 151.967C102.887 151.967 106.693 160.513 107.568 162.15C108.443 163.785 109.252 168.393 109.252 168.393L106.423 178.649L107.568 186.379L108.14 186.677L112.283 178.649L117.297 170.207L114.843 166.46Z" fill="#00DFF4"/>
<path d="M125.449 175.496L123.944 172.009L124.336 171.521L125.25 173.841L125.966 175.496H125.449Z" fill="#B7C4B7"/>
<path d="M103.781 153.967C103.781 153.967 101.734 149.745 100.775 148.211C99.816 146.679 99.4939 146.454 98.0481 145.386C96.8868 144.527 95.4821 142.585 95.0151 142.33C94.2152 141.892 91.218 144.273 91.0158 144.16C90.8136 144.048 91.5365 142.887 91.5043 142.553C91.4703 142.198 90.8351 142.083 90.3931 142.33C90.2142 142.429 88.6449 143.485 87.9524 143.951C87.6643 144.144 87.2832 144.042 87.1186 143.714C87.0506 143.58 87.0023 143.41 86.9969 143.193C86.9718 142.385 88.5214 141.378 88.5214 141.378L91.8354 137.673C91.8354 137.673 94.1347 135.072 96.6935 134.476C99.2541 133.882 100.36 133.876 101.069 134.247C101.777 134.618 105.898 137.445 106.807 138.415C107.716 139.384 110.343 142.373 109.871 142.768C109.398 143.163 107.05 143.923 106.555 144.19C106.118 144.425 105.19 145.135 105.19 145.135C104.952 145.495 104.39 145.67 103.64 147.886C103.404 148.585 102.867 147.599 102.786 149.738C102.734 151.102 103.783 153.959 103.783 153.959L103.781 153.967Z" fill="black"/>
<path d="M61.4892 153.927C61.4892 153.927 57.549 156.331 54.1796 156.404C50.8119 156.479 42.1209 155.401 40.4371 154.286C38.7533 153.17 36.2947 148.637 36.2607 147.299C36.2267 145.96 36.2607 145.552 36.2607 145.552C36.2607 145.552 35.5539 145.366 35.6881 144.288C35.8223 143.21 35.7561 142.987 36.1265 142.876C36.4969 142.766 36.9693 142.691 36.9693 142.691C36.9693 142.691 37.2717 141.056 37.8443 140.387C38.4169 139.717 41.0097 137.785 42.6613 136.782C44.3129 135.779 49.3303 133.698 54.2815 133.921C59.2328 134.144 62.6004 133.698 63.8816 137.601C63.8816 137.601 64.6904 140.797 64.8586 141.317C65.0268 141.836 65.229 143.137 64.6224 144.959C64.0158 146.78 62.8044 152.333 62.357 153.032C61.9097 153.731 61.4892 153.927 61.4892 153.927Z" fill="#1E1E1E"/>
<path d="M36.1265 142.878C36.1265 142.878 50.0211 143.509 52.1934 143.176C54.3657 142.842 64.617 140.453 64.617 140.453L64.9785 141.863C64.9785 141.863 55.2747 144.457 53.6571 144.457C52.0395 144.457 35.8742 143.584 35.8742 143.584L35.7668 143.578L35.8062 143.284C35.8062 143.284 35.8259 143.18 35.8402 143.14C35.8545 143.101 35.8814 143.045 35.8832 143.043C35.8849 143.041 35.9189 142.988 35.9494 142.964C35.9798 142.941 36.0585 142.901 36.071 142.895C36.0836 142.889 36.1247 142.878 36.1247 142.878H36.1265Z" fill="#070707"/>
<path d="M35.7688 143.579C35.7688 143.579 35.563 145.066 35.9119 145.31C36.2608 145.555 43.3021 146.284 43.3021 146.284C43.3021 146.284 53.1544 146.744 53.8111 146.688C54.4678 146.633 64.6225 144.961 64.6225 144.961C64.6225 144.961 65.0556 142.574 65.018 142.219C64.9804 141.863 64.941 141.873 64.941 141.873C64.941 141.873 57.0445 143.915 55.7186 144.151C54.3926 144.388 39.0845 143.65 39.0845 143.65L35.7706 143.579H35.7688Z" fill="#3D3D3D"/>
<path d="M63.6045 143.733C63.6045 143.733 65.5746 143.342 65.6766 143.036C65.7786 142.73 65.6515 142.061 65.3223 142.061C64.993 142.061 63.3021 142.552 63.3021 142.552L63.1178 142.613C62.8154 142.714 62.631 143.062 62.7169 143.395C62.7169 143.401 62.7205 143.405 62.7205 143.411L62.8601 143.94L63.6045 143.731V143.733Z" fill="white"/>
<path d="M55.4178 146.056C55.4178 146.056 57.4148 145.9 57.5454 145.606C57.676 145.312 57.6152 144.633 57.2877 144.595C56.9621 144.556 55.23 144.848 55.23 144.848L55.0403 144.888C54.7289 144.951 54.5142 145.275 54.5661 145.618C54.5661 145.624 54.5661 145.628 54.5679 145.634L54.6556 146.177L55.416 146.056H55.4178Z" fill="white"/>
<path d="M63.5042 200.234C70.6927 200.234 76.5202 193.804 76.5202 185.873C76.5202 177.941 70.6927 171.512 63.5042 171.512C56.3157 171.512 50.4883 177.941 50.4883 185.873C50.4883 193.804 56.3157 200.234 63.5042 200.234Z" fill="#393A38"/>
<path d="M62.1783 194.853C66.5098 194.853 70.0212 190.792 70.0212 185.783C70.0212 180.774 66.5098 176.713 62.1783 176.713C57.8468 176.713 54.3354 180.774 54.3354 185.783C54.3354 190.792 57.8468 194.853 62.1783 194.853Z" fill="black"/>
<path d="M84.6026 168.523L78.3255 183.046C78.0356 183.72 77.37 184.091 76.7061 183.951L73.2329 183.22C72.8178 183.133 72.4635 182.851 72.2416 182.454C71.9088 181.856 71.2574 180.981 70.1516 180.563C68.4481 179.919 53.1614 174.778 52.0288 174.397C51.984 174.381 51.9411 174.365 51.8981 174.346C51.0321 173.953 50.7064 172.782 51.2253 171.923C51.6619 171.203 52.1469 170.433 52.4689 170.028C53.1758 169.135 56.7563 163.584 57.4202 163.06C58.1252 162.504 60.2492 161.276 62.978 161.556C65.7068 161.834 69.4448 160.65 73.1846 161.521C76.9226 162.391 85.109 165.179 85.2593 165.848C85.4097 166.518 84.6026 168.523 84.6026 168.523Z" fill="#00DFF4"/>
<path d="M82.0885 186.167C82.0885 186.167 75.2513 185.089 74.0381 184.606C72.8249 184.122 60.7001 185.461 60.2957 185.385C59.8913 185.31 58.4777 185.087 58.3417 186.165C58.2057 187.243 58.2415 188.73 58.8463 188.767C59.4529 188.805 71.9821 189.697 73.4315 189.176C74.8791 188.655 74.8791 188.566 76.6989 188.388C78.5169 188.211 82.2192 188.726 82.5717 188.574C82.9242 188.422 83.3304 187.376 83.1013 186.819C82.8741 186.262 82.0868 186.169 82.0868 186.169L82.0885 186.167Z" fill="#1E1E1D"/>
<path d="M59.4978 185.366C59.4978 185.366 59.0415 183.465 59.2938 183.241C59.5461 183.018 59.8235 183.214 60.2529 182.6C60.6824 181.986 61.0582 180.252 61.3677 178.977C61.6773 177.702 61.722 177.67 61.722 177.67L63.9158 178.414C63.9158 178.414 61.9188 181.737 61.5663 182.963C61.2138 184.189 61.3677 185.222 61.3677 185.222L61.3802 185.37H59.4978V185.366Z" fill="#1E1E1D"/>
<path d="M103.175 148.267L113.031 164.124C113.031 164.124 116.269 169.878 117.298 170.209C117.884 170.397 123.087 166.353 124.424 165.27C126.533 163.56 125.417 162.316 121.147 156.257C117.477 151.047 112.163 144.711 110.744 143.033C110.52 142.768 110.182 142.67 109.869 142.772C108.645 143.181 105.587 144.316 104.626 145.775C103.413 147.615 103.177 148.265 103.177 148.265L103.175 148.267Z" fill="#3EF0FB"/>
<path d="M127.689 206C135.469 206 141.775 199.041 141.775 190.458C141.775 181.874 135.469 174.916 127.689 174.916C119.91 174.916 113.603 181.874 113.603 190.458C113.603 199.041 119.91 206 127.689 206Z" fill="#393A38"/>
<path d="M127.689 200.273C132.376 200.273 136.176 195.879 136.176 190.459C136.176 185.039 132.376 180.645 127.689 180.645C123.002 180.645 119.202 185.039 119.202 190.459C119.202 195.879 123.002 200.273 127.689 200.273Z" fill="black"/>
<path d="M126.714 191.063L129.391 189.223L131.588 179.273C131.588 179.273 131.943 177.768 132.522 177.014C133.102 176.26 133.482 175.942 133.711 176.617C133.711 176.617 133.811 176.019 132.827 175.593C131.851 175.17 126.562 172.945 122.722 173.642C118.882 174.339 126.714 191.063 126.714 191.063Z" fill="#00DFF4"/>
<path d="M118.009 174.52L119.78 178.471L120.543 178.023L118.546 173.391L117.266 170.264L116.608 171.371L118.009 174.52Z" fill="#B7C4B7"/>
<path d="M126.481 190.983L121.602 177.958C121.539 177.793 121.376 177.702 121.217 177.745C120.772 177.87 119.889 178.148 119.313 178.539C119.107 178.679 118.939 178.833 118.846 178.999C118.515 179.585 123.28 187.206 125.911 191.33C126.136 191.684 126.63 191.382 126.481 190.983Z" fill="#1E1E1D"/>
<path d="M91.1268 142.217C91.0785 142.275 90.9765 142.217 90.9747 142.452C90.9729 142.687 90.8978 142.867 90.7492 142.745C90.6007 142.622 90.4737 142.314 90.5291 142.233C90.5775 142.162 91.1232 142.211 91.1268 142.219V142.217Z" fill="#D5C4BB"/>
<path d="M92.367 142.334C92.3508 142.322 92.3491 142.298 92.3598 142.283C92.3884 142.243 92.4332 142.16 92.4582 142.156C92.5012 142.152 92.6926 142.346 92.6998 142.375C92.6998 142.375 92.7105 142.472 92.5745 142.502L92.367 142.334Z" fill="#B7C4B7"/>
<path d="M93.4709 142.978C93.4709 142.978 93.5658 142.775 93.6195 142.842C93.6731 142.909 93.8145 143.079 93.8056 143.142C93.7966 143.205 93.7912 143.262 93.7376 143.254C93.6839 143.246 93.4727 142.98 93.4727 142.98L93.4709 142.978Z" fill="#B7C4B7"/>
<path d="M93.6909 142.654C93.6909 142.654 93.7893 142.441 93.8448 142.51C93.9003 142.579 94.0828 142.792 94.0738 142.857C94.0649 142.923 94.0255 142.95 93.9683 142.942C93.911 142.934 93.6909 142.654 93.6909 142.654Z" fill="#B7C4B7"/>
<path d="M97.0946 125.943C97.0946 125.943 97.635 126.072 97.533 126.806C97.431 127.541 96.5775 128.853 96.1999 129.033C95.8224 129.213 95.4448 128.958 95.4448 128.958L97.0964 125.943H97.0946Z" fill="black"/>
<path d="M96.7098 127.747C97.1849 126.915 97.3959 126.119 97.181 125.97C96.9661 125.82 96.4067 126.374 95.9316 127.206C95.4565 128.038 95.2455 128.834 95.4604 128.983C95.6753 129.133 96.2347 128.579 96.7098 127.747Z" fill="white"/>
<path d="M96.6721 128.563L97.497 133.073L97.71 134.522H98.0052L96.8636 128.293L96.6721 128.563Z" fill="black"/>
<path d="M88.6772 132.996C88.6772 132.996 91.7997 135.759 91.8176 135.82C91.8355 135.881 91.8176 137.715 91.8176 137.715H92.2417V135.759L90.8012 134.434L88.3802 132.416L88.2424 132.641L88.6772 132.998V132.996Z" fill="black"/>
<path d="M87.0882 133.393C88.0676 133.393 88.8615 132.485 88.8615 131.366C88.8615 130.246 88.0676 129.338 87.0882 129.338C86.1089 129.338 85.3149 130.246 85.3149 131.366C85.3149 132.485 86.1089 133.393 87.0882 133.393Z" fill="black"/>
<path d="M93.0362 133.173C93.0362 133.173 95.4841 134.466 95.459 135.011C95.434 135.556 93.981 136.518 93.3458 136.776C92.5924 137.082 92.1236 136.962 92.0682 137.268C92.0467 137.386 92.0861 137.44 92.0878 137.522C92.0914 137.637 92.1791 137.724 92.2811 137.714C92.6372 137.678 93.4066 137.359 93.6697 137.234C93.9631 137.096 95.5736 136.138 95.8241 135.319C96.0316 134.644 95.6952 134.31 94.788 133.412C93.8808 132.514 93.6482 132.152 93.6482 132.152L93.038 133.173H93.0362Z" fill="black"/>
<path d="M92.7212 129.822H94.3943C94.6663 129.822 94.8398 130.136 94.7056 130.393L92.5691 134.505C92.4797 134.677 92.2828 134.748 92.1146 134.669L90.8281 134.067C90.6366 133.978 90.5579 133.731 90.6563 133.534L92.4063 130.024C92.4689 129.899 92.5888 129.82 92.7212 129.82V129.822Z" fill="#99DB26"/>
<path d="M93.0038 129.895H94.4013C94.736 129.895 94.9471 130.291 94.7843 130.613L92.8428 134.455C92.7336 134.672 92.4921 134.763 92.2845 134.663L91.2145 134.149C90.9801 134.037 90.8816 133.727 91.0033 133.478L92.6173 130.151C92.6943 129.993 92.8428 129.897 93.0038 129.897V129.895Z" fill="black"/>
<path d="M94.2402 136.727C94.2402 136.727 94.7269 134.597 95.7469 133.634C96.7668 132.67 97.6919 132.141 98.1697 132.881L98.6332 134.135C98.6332 134.135 96.4072 135.511 95.8417 135.914C95.2763 136.317 94.2885 136.86 94.2885 136.86L94.2402 136.727Z" fill="#1E1E1E"/>
<path d="M98.3522 134.189L97.887 132.929C97.8691 132.878 97.8226 132.848 97.7725 132.854C97.5774 132.878 97.0961 132.973 96.8778 133.35C96.8599 133.381 96.8581 133.425 96.8706 133.46L97.3573 134.779C97.3824 134.846 97.4558 134.876 97.513 134.838L98.3021 134.339C98.3504 134.309 98.3701 134.244 98.3486 134.189H98.3522Z" fill="white"/>
<path d="M99.4922 133.639C99.4922 133.639 101.001 132.529 101.221 132.533C101.441 132.537 102.008 132.662 101.747 133.236L100.258 134.735L98.8087 135.949L98.5188 134.74L98.6315 134.115L99.4922 133.637V133.639Z" fill="black"/>
<ellipse opacity="0.7" cx="62.1975" cy="200.795" rx="12.2425" ry="0.98468" fill="url(#paint0_radial_22158_427350)"/>
<ellipse opacity="0.7" cx="128.953" cy="206.067" rx="12.2425" ry="0.98468" fill="url(#paint1_radial_22158_427350)"/>
</g>
<path d="M160.524 19.5C189.254 19.5002 212.617 44.977 212.617 76.5C212.617 108.023 189.254 133.5 160.524 133.5C131.795 133.5 108.431 108.023 108.431 76.5C108.431 44.9769 131.795 19.5 160.524 19.5Z" fill="#F3F3F3" stroke="#CCCDD0"/>
<path d="M288.41 165.854H292.675V189.595H288.41V165.854Z" fill="#754C24"/>
<path d="M274.566 167.44C275.267 168.202 290.864 171.884 299.743 167.44C310.258 161.918 299.743 123.449 299.743 123.449C299.743 123.449 288.527 87.2651 285.782 84.2816C283.036 81.298 280.699 102.754 276.61 114.181C272.521 125.607 274.566 140.779 272.521 149.285C270.477 157.791 270.126 159.251 271.82 163.314C272.872 166.361 274.566 167.44 274.566 167.44Z" fill="#A2D855"/>
<path d="M143.214 48.4277H142.791C142.287 48.4277 141.878 48.836 141.878 49.3397V56.5007C141.878 57.0044 142.287 57.4127 142.791 57.4127H143.214C143.718 57.4127 144.126 57.0044 144.126 56.5007V49.3397C144.126 48.836 143.718 48.4277 143.214 48.4277Z" fill="#231F20"/>
<path d="M184.026 47H143.483V47.9434C144.238 47.9434 144.854 48.5589 144.854 49.3181V56.4521C144.854 57.2114 144.243 57.8223 143.483 57.8268V58.7702H150.298C152.707 58.7702 155.022 59.7226 156.74 61.4163L160.349 64.9878C163.249 67.854 167.16 69.4623 171.237 69.4623H184.022C186.22 69.4623 188 67.6833 188 65.4865V50.9803C188.009 48.7835 186.224 47 184.026 47Z" fill="#231F20"/>
<path d="M153.76 70.7656H131.67C130.322 70.7656 129.229 71.8578 129.229 73.205V81.8036C129.229 83.1508 130.322 84.243 131.67 84.243H153.76C155.108 84.243 156.201 83.1508 156.201 81.8036V73.205C156.201 71.8578 155.108 70.7656 153.76 70.7656Z" fill="#2B2D33"/>
<path d="M149.457 70.7656H135.971V84.243H149.457V70.7656Z" fill="#231F20"/>
<path d="M184.026 47H143.483V47.9434C144.216 47.9434 144.805 48.5229 144.845 49.2462H181.374C183.572 49.2462 185.352 50.6703 185.352 52.4314V64.0219C185.352 65.7785 183.572 67.2026 181.378 67.2071L169.061 67.2206C166.018 67.2206 163.069 66.5108 160.561 65.1945C163.438 67.9304 167.254 69.4668 171.232 69.4668H184.017C186.215 69.4668 187.995 67.6878 187.995 65.491V50.9803C188 48.7835 186.22 47 184.017 47H184.026Z" fill="#2B2D33"/>
<path d="M101.978 47H142.521V47.9434C141.766 47.9434 141.15 48.5589 141.15 49.3181V56.4521C141.15 57.2114 141.762 57.8223 142.521 57.8268V58.7702H135.707C133.297 58.7702 130.982 59.7226 129.265 61.4163L125.655 64.9878C122.756 67.854 118.845 69.4623 114.767 69.4623H101.983C99.7846 69.4623 98.0045 67.6833 98 65.4865V50.9803C98 48.7835 99.7801 47 101.978 47Z" fill="#231F20"/>
<path d="M101.978 47H142.521V47.9434C141.789 47.9434 141.2 48.5229 141.159 49.2462H104.631C102.432 49.2462 100.652 50.6703 100.652 52.4314V64.0219C100.652 65.7785 102.432 67.2026 104.626 67.2071L116.943 67.2206C119.987 67.2206 122.935 66.5108 125.444 65.1945C122.567 67.9304 118.75 69.4668 114.772 69.4668H101.983C99.7846 69.4623 98.0045 67.6833 98 65.4865V50.9803C98 48.7835 99.7801 47 101.978 47Z" fill="#2B2D33"/>
<path d="M143.214 97.4453H142.791C142.287 97.4453 141.878 97.8536 141.878 98.3573V105.518C141.878 106.022 142.287 106.43 142.791 106.43H143.214C143.718 106.43 144.126 106.022 144.126 105.518V98.3573C144.126 97.8536 143.718 97.4453 143.214 97.4453Z" fill="#231F20"/>
<path d="M184.026 107.857H143.483V106.913C144.238 106.913 144.854 106.298 144.854 105.539V98.4047C144.854 97.6455 144.243 97.0345 143.483 97.03V96.0866H150.298C152.707 96.0866 155.022 95.1342 156.74 93.4405L160.349 89.869C163.249 87.0028 167.16 85.3945 171.237 85.3945H184.022C186.22 85.3945 188 87.1735 188 89.3704V103.877C188.004 106.073 186.224 107.857 184.022 107.857H184.026Z" fill="#231F20"/>
<path fill-rule="evenodd" clip-rule="evenodd" d="M178.008 89.4065C178.158 89.6039 178.12 89.8858 177.923 90.0361L159.043 104.412C158.845 104.562 158.563 104.524 158.413 104.327C158.262 104.13 158.3 103.848 158.498 103.697L177.378 89.3214C177.575 89.1711 177.857 89.2092 178.008 89.4065Z" fill="white"/>
<path d="M184.026 107.859H143.483V106.916C144.216 106.916 144.805 106.336 144.845 105.613H181.374C183.572 105.613 185.352 104.189 185.352 102.428V90.8374C185.352 89.0809 183.572 87.6568 181.378 87.6523L169.061 87.6388C166.018 87.6388 163.069 88.3486 160.561 89.6649C163.438 86.929 167.254 85.3926 171.232 85.3926H184.017C186.215 85.3926 187.995 87.1716 187.995 89.3684V103.875C188 106.071 186.22 107.855 184.017 107.855L184.026 107.859Z" fill="#2B2D33"/>
<path d="M101.978 107.857H142.521V106.913C141.766 106.913 141.15 106.298 141.15 105.539V98.4047C141.15 97.6455 141.762 97.0345 142.521 97.03V96.0866H135.707C133.297 96.0866 130.982 95.1342 129.265 93.4405L125.655 89.869C122.756 87.0028 118.845 85.3945 114.767 85.3945H101.983C99.7846 85.3945 98.0045 87.1735 98 89.3704V103.877C97.9955 106.073 99.7757 107.857 101.978 107.857Z" fill="#231F20"/>
<g clip-path="url(#clip1_22158_427350)">
<path fill-rule="evenodd" clip-rule="evenodd" d="M111.289 89.7032C110.92 88.9661 109.869 88.9661 109.5 89.7032L102.736 103.231C102.404 103.896 102.887 104.678 103.631 104.678H117.158C117.902 104.678 118.385 103.896 118.053 103.231L111.289 89.7032ZM107.711 88.8087C108.817 86.5976 111.972 86.5976 113.078 88.8087L119.842 102.337C120.839 104.331 119.389 106.678 117.158 106.678H103.631C101.4 106.678 99.9499 104.331 100.947 102.337L107.711 88.8087Z" fill="white"/>
<path fill-rule="evenodd" clip-rule="evenodd" d="M110.395 93.6777C110.947 93.6777 111.395 94.1254 111.395 94.6777V98.6777C111.395 99.23 110.947 99.6777 110.395 99.6777C109.842 99.6777 109.395 99.23 109.395 98.6777V94.6777C109.395 94.1254 109.842 93.6777 110.395 93.6777Z" fill="white"/>
<path d="M111.395 101.678C111.395 102.23 110.947 102.678 110.395 102.678C109.842 102.678 109.395 102.23 109.395 101.678C109.395 101.125 109.842 100.678 110.395 100.678C110.947 100.678 111.395 101.125 111.395 101.678Z" fill="white"/>
<path fill-rule="evenodd" clip-rule="evenodd" d="M110.395 102.678C110.947 102.678 111.395 102.23 111.395 101.678C111.395 101.125 110.947 100.678 110.395 100.678C109.842 100.678 109.395 101.125 109.395 101.678C109.395 102.23 109.842 102.678 110.395 102.678Z" fill="white"/>
</g>
<path d="M101.978 107.859H142.521V106.916C141.789 106.916 141.2 106.336 141.159 105.613H104.631C102.432 105.613 100.652 104.189 100.652 102.428V90.8374C100.652 89.0809 102.432 87.6568 104.626 87.6523L116.943 87.6388C119.987 87.6388 122.935 88.3486 125.444 89.6649C122.567 86.929 118.75 85.3926 114.772 85.3926H101.983C99.7846 85.3971 98.0045 87.1761 98 89.3729V103.879C97.9955 106.076 99.7757 107.859 101.978 107.859Z" fill="#2B2D33"/>
<path d="M115.244 59.8604V56.0651H113.957V55.1738H117.596V56.0651H116.309V59.8604H115.244Z" fill="white"/>
<path d="M110.391 59.8604V55.1738H113.325V56.0651H111.448V57.0068H113.045V57.8909H111.448V58.9691H113.397V59.8604H110.391Z" fill="white"/>
<path d="M107.825 59.945C107.518 59.945 107.211 59.8875 106.904 59.7725C106.602 59.6575 106.331 59.4897 106.092 59.2693L106.696 58.5433C106.864 58.6871 107.051 58.8045 107.257 58.8955C107.463 58.9866 107.662 59.0321 107.854 59.0321C108.074 59.0321 108.237 58.9914 108.343 58.9099C108.453 58.8285 108.508 58.7182 108.508 58.5793C108.508 58.4307 108.446 58.3229 108.321 58.2558C108.201 58.1839 108.038 58.1049 107.832 58.0186L107.221 57.7598C107.063 57.6928 106.911 57.6041 106.768 57.4939C106.624 57.3789 106.506 57.2375 106.415 57.0698C106.324 56.9021 106.279 56.7056 106.279 56.4804C106.279 56.2216 106.348 55.9868 106.487 55.776C106.631 55.5651 106.828 55.3974 107.077 55.2728C107.331 55.1482 107.621 55.0859 107.947 55.0859C108.216 55.0859 108.484 55.1386 108.753 55.2441C109.021 55.3495 109.256 55.5028 109.458 55.7041L108.918 56.3726C108.765 56.2528 108.611 56.1617 108.458 56.0994C108.304 56.0323 108.134 55.9988 107.947 55.9988C107.765 55.9988 107.619 56.0371 107.508 56.1138C107.403 56.1857 107.35 56.2887 107.35 56.4229C107.35 56.5667 107.417 56.6745 107.552 56.7464C107.691 56.8182 107.861 56.8949 108.062 56.9764L108.666 57.2208C108.949 57.3358 109.175 57.4939 109.343 57.6952C109.51 57.8964 109.594 58.1624 109.594 58.493C109.594 58.7518 109.525 58.9914 109.386 59.2118C109.247 59.4322 109.045 59.6095 108.782 59.7437C108.518 59.8779 108.199 59.945 107.825 59.945Z" fill="white"/>
<path fill-rule="evenodd" clip-rule="evenodd" d="M176.235 98.0235C174.822 98.0235 173.673 99.1745 173.673 100.598C173.673 101.308 173.96 101.951 174.426 102.418C174.601 102.594 174.6 102.879 174.424 103.054C174.248 103.229 173.964 103.228 173.788 103.052C173.163 102.424 172.774 101.555 172.774 100.598C172.774 98.6822 174.322 97.125 176.235 97.125C178.149 97.125 179.697 98.6822 179.697 100.598C179.697 101.558 179.309 102.427 178.682 103.053C178.535 103.201 178.288 103.429 178.085 103.615C177.981 103.709 177.887 103.795 177.819 103.856C177.784 103.887 177.756 103.912 177.737 103.93L177.707 103.957C177.522 104.122 177.238 104.107 177.072 103.922C176.906 103.737 176.922 103.453 177.107 103.288L177.136 103.261C177.155 103.244 177.182 103.22 177.216 103.189C177.284 103.128 177.377 103.044 177.478 102.952C177.683 102.764 177.915 102.549 178.045 102.418L178.046 102.417C178.51 101.954 178.798 101.312 178.798 100.598C178.798 99.1745 177.649 98.0235 176.235 98.0235Z" fill="white"/>
<path fill-rule="evenodd" clip-rule="evenodd" d="M177.407 101.83C177.656 101.83 177.857 102.031 177.857 102.279V103.174H178.746C178.994 103.174 179.196 103.375 179.196 103.623C179.196 103.871 178.994 104.073 178.746 104.073H177.407C177.159 104.073 176.958 103.871 176.958 103.623V102.279C176.958 102.031 177.159 101.83 177.407 101.83Z" fill="white"/>
<path fill-rule="evenodd" clip-rule="evenodd" d="M169.795 97.7552C169.889 97.5252 170.151 97.4144 170.381 97.5077L183.58 102.857C183.81 102.95 183.921 103.212 183.828 103.442C183.735 103.672 183.472 103.783 183.242 103.689L170.043 98.3403C169.813 98.2471 169.702 97.9851 169.795 97.7552Z" fill="white"/>
<path fill-rule="evenodd" clip-rule="evenodd" d="M183.828 97.4056C183.921 97.6356 183.81 97.8975 183.58 97.9907L170.381 103.336C170.151 103.43 169.888 103.319 169.795 103.089C169.702 102.859 169.813 102.597 170.043 102.504L183.242 97.158C183.473 97.0648 183.735 97.1757 183.828 97.4056Z" fill="white"/>
<path fill-rule="evenodd" clip-rule="evenodd" d="M163.96 90.5762C162.537 90.5762 161.384 91.7292 161.384 93.151C161.384 93.8598 161.672 94.503 162.14 94.9703C162.315 95.1457 162.315 95.4302 162.14 95.6056C161.964 95.781 161.679 95.781 161.504 95.6056C160.875 94.9775 160.485 94.1087 160.485 93.151C160.485 91.2329 162.041 89.6777 163.96 89.6777C165.879 89.6777 167.435 91.2329 167.435 93.151C167.435 94.1113 167.045 94.9806 166.416 95.6061C166.268 95.7541 166.02 95.9824 165.815 96.1683C165.712 96.2625 165.617 96.3479 165.548 96.4098C165.514 96.4407 165.486 96.4657 165.466 96.4831L165.436 96.5101C165.251 96.6753 164.966 96.6591 164.801 96.4739C164.636 96.2888 164.652 96.0048 164.838 95.8397L164.867 95.8135C164.886 95.7965 164.913 95.7719 164.947 95.7414C165.015 95.6805 165.109 95.5964 165.21 95.5038C165.417 95.316 165.65 95.1011 165.78 94.9703L165.781 94.9693C166.248 94.5062 166.536 93.8637 166.536 93.151C166.536 91.7292 165.383 90.5762 163.96 90.5762Z" fill="white"/>
<path fill-rule="evenodd" clip-rule="evenodd" d="M165.137 94.3828C165.385 94.3828 165.586 94.5839 165.586 94.8321V95.7268H166.482C166.73 95.7268 166.931 95.9279 166.931 96.1761C166.931 96.4242 166.73 96.6253 166.482 96.6253H165.137C164.889 96.6253 164.687 96.4242 164.687 96.1761V94.8321C164.687 94.5839 164.889 94.3828 165.137 94.3828Z" fill="white"/>
<defs>
<radialGradient id="paint0_radial_22158_427350" cx="0" cy="0" r="1" gradientUnits="userSpaceOnUse" gradientTransform="translate(62.1975 200.795) rotate(90) scale(0.98468 12.2425)">
<stop/>
<stop offset="1" stop-color="#D9D9D9" stop-opacity="0"/>
</radialGradient>
<radialGradient id="paint1_radial_22158_427350" cx="0" cy="0" r="1" gradientUnits="userSpaceOnUse" gradientTransform="translate(128.953 206.067) rotate(90) scale(0.98468 12.2425)">
<stop/>
<stop offset="1" stop-color="#D9D9D9" stop-opacity="0"/>
</radialGradient>
<clipPath id="clip0_22158_427350">
<rect width="106.101" height="101" fill="white" transform="translate(35.6721 105)"/>
</clipPath>
<clipPath id="clip1_22158_427350">
<rect width="14.385" height="14.3759" fill="white" transform="translate(103.395 89.6777)"/>
</clipPath>
</defs>
</svg>
