<svg width="343" height="233" viewBox="0 0 343 233" fill="none" xmlns="http://www.w3.org/2000/svg">
<path d="M171.408 215.393C258.501 215.393 329.103 207.938 329.103 198.741C329.103 189.545 258.501 182.09 171.408 182.09C84.315 182.09 13.7124 189.545 13.7124 198.741C13.7124 207.938 84.315 215.393 171.408 215.393Z" fill="#F3F3F3"/>
<path d="M158.553 194.211H94.2402V196.871H158.553V194.211Z" fill="#F1F1F1"/>
<path d="M280.15 194.211H215.838V196.871H280.15V194.211Z" fill="#F1F1F1"/>
<path d="M80.1953 184.997L81.7266 102.922H83.4379V183.125V184.997H80.1953Z" fill="#686867"/>
<path d="M95.4155 157.21C95.4155 157.21 84.3365 169.822 69.024 156.422C53.7116 143.022 64.9708 124.499 67.3127 118.094C69.6546 111.69 74.7887 108.438 73.2575 97.6987C71.7262 86.959 71.9064 83.3134 74.6086 75.234C77.3108 67.1546 81.4542 51.8825 83.8861 53.0649C86.3181 54.2472 91.5424 54.7399 91.9027 64.5928C92.2629 74.4458 91.5424 77.4016 95.5056 86.2693C99.4688 95.0384 100.64 102.724 99.4688 110.212C98.2078 117.7 98.5681 119.769 101.45 126.272C104.333 132.775 108.026 136.421 104.333 145.781C100.37 155.141 95.4155 157.21 95.4155 157.21Z" fill="#E9CD03"/>
<path d="M93.885 186.571C93.7048 186.768 89.5614 187.753 87.2195 186.571C84.4273 185.093 87.2195 174.846 87.2195 174.846C87.2195 174.846 90.1919 165.19 90.9125 164.402C91.6331 163.614 92.2636 169.328 93.3445 172.383C94.4254 175.437 93.8849 179.477 94.4254 181.743C94.9658 184.009 95.0559 184.403 94.6055 185.487C94.2452 186.276 93.885 186.571 93.885 186.571Z" fill="#0B9D99"/>
<path d="M77.2228 187.852C77.0427 188.049 72.8993 189.035 70.5574 187.852C67.7651 186.374 70.5574 176.127 70.5574 176.127C70.5574 176.127 73.5298 166.471 74.2504 165.683C74.971 164.895 75.6015 170.61 76.6824 173.664C77.7633 176.719 77.2228 180.758 77.7633 183.024C78.3037 185.291 78.3938 185.685 77.9434 186.769C77.6732 187.655 77.2228 187.852 77.2228 187.852Z" fill="#0B9D99"/>
<path d="M96.2277 186.571C96.4078 186.768 100.551 187.753 102.893 186.571C105.685 185.093 102.893 174.846 102.893 174.846C102.893 174.846 99.9207 165.19 99.2001 164.402C98.4795 163.614 97.849 169.328 96.7681 172.383C95.6873 175.437 96.2277 179.477 95.6873 181.743C95.1468 184.009 95.0567 184.403 95.5071 185.487C95.7773 186.276 96.2277 186.571 96.2277 186.571Z" fill="#0B9D99"/>
<path d="M111.449 186.081C111.359 186.278 107.937 187.066 105.955 186.081C103.613 184.899 105.955 176.425 105.955 176.425C105.955 176.425 108.387 168.346 109.017 167.755C109.558 167.164 110.188 171.794 110.999 174.356C111.9 176.918 111.449 180.268 111.9 182.14C112.35 184.012 112.35 184.406 112.08 185.194C111.81 185.786 111.449 186.081 111.449 186.081Z" fill="#0B9D99"/>
<path d="M66.4133 188.245C66.3232 188.442 62.9004 189.231 60.9188 188.245C58.5769 187.063 60.9188 178.589 60.9188 178.589C60.9188 178.589 63.3508 170.51 63.9813 169.919C64.5217 169.328 65.1522 173.959 65.9629 176.52C66.8636 179.082 66.4133 182.432 66.8636 184.304C67.314 186.176 67.314 186.57 67.0438 187.359C66.7735 188.048 66.4133 188.245 66.4133 188.245Z" fill="#0B9D99"/>
<path d="M56.5944 191.794C56.5044 191.893 53.1716 192.779 51.2801 191.794C49.0283 190.612 51.2801 182.532 51.2801 182.532C51.2801 182.532 53.622 174.847 54.1625 174.256C54.7029 173.665 55.2433 178.197 56.1441 180.66C56.9547 183.123 56.5944 186.276 56.9547 188.148C57.4051 189.922 57.4051 190.316 57.1349 191.104C56.8647 191.597 56.5944 191.794 56.5944 191.794Z" fill="#0B9D99"/>
<path d="M268.933 93.68C269.273 96.3756 279.81 110.876 285.758 111.341C285.843 111.341 285.928 111.341 286.098 111.341C286.523 111.341 286.948 111.155 287.372 110.969C289.497 109.482 298.079 103.347 301.053 99.6288L300.543 95.8178C296.04 97.491 286.098 104.183 286.098 104.183C286.098 104.183 285.673 104.369 285.503 104.09C277.685 96.0967 274.117 93.1222 271.567 90.9844L268.933 93.68Z" fill="#D7A887"/>
<path d="M254.064 190.348C254.488 191.556 253.724 196.018 253.639 197.412C254.488 198.713 256.613 197.691 256.868 196.296C256.868 196.11 257.038 196.111 257.038 195.739C256.783 194.902 257.293 191.649 257.887 189.883L254.064 190.348Z" fill="#F8AB90"/>
<path d="M267.234 192.3C267.573 193.508 266.554 196.483 266.469 197.97C267.234 199.364 269.443 198.435 269.783 197.04C269.783 196.854 269.953 196.854 269.953 196.483C269.613 195.553 270.378 192.95 271.142 191.277L267.234 192.3Z" fill="#F8AB90"/>
<path d="M267.064 122.961H275.051C279.045 136.16 280.235 151.125 277.856 165.997C277.686 167.113 277.431 168.228 277.091 169.343L274.372 192.395C272.332 193.325 266.384 192.674 264.345 192.116C267.064 183.565 268.593 176.036 269.188 167.763C269.443 166.462 269.443 163.766 269.443 163.766C270.378 150.939 267.659 126.214 267.064 122.961Z" fill="#8BA943"/>
<path d="M260.606 192.207C257.886 193.044 254.148 191.649 252.023 190.72L257.207 165.065C257.292 164.601 257.292 164.043 257.292 163.578L255.422 132.811C255.422 132.068 255.422 131.324 255.507 130.581C255.847 127.885 256.442 123.981 257.462 122.68H267.913C270.887 137.924 270.378 150.937 269.188 158.28C269.103 158.931 268.508 166.088 267.828 168.133L260.606 192.207Z" fill="#8BA943"/>
<path d="M275.051 123.147L257.291 123.426L257.206 122.589L274.966 122.496L275.051 123.147Z" fill="#778E30"/>
<path d="M261.711 72.1172L267.829 72.7679C266.045 75.8352 264.685 78.5308 266.725 80.6687L260.861 80.111C262.901 78.6237 262.561 74.9987 261.711 72.1172Z" fill="#ECBC97"/>
<path d="M267.83 59.4727C267.83 59.4727 270.125 62.5401 269.615 64.7709C269.53 65.1427 269.53 65.4216 269.445 65.6075C269.19 66.9088 269.19 66.8158 270.465 67.4665C271.144 67.8383 270.55 68.4889 270.21 68.7678C270.04 68.9537 269.955 69.1396 269.955 69.4184C269.955 69.6973 270.04 69.9762 270.04 69.9762C270.04 70.0691 270.295 70.8127 269.615 70.8127C266.216 70.9056 269.02 70.8127 269.785 71.0915C269.785 71.0915 270.125 71.2775 270.04 71.4634C269.955 71.6493 269.7 71.9281 269.615 72.207C269.53 72.4858 269.53 73.3224 269.36 73.6942C269.19 74.066 267.236 74.7166 266.046 74.3448C265.111 74.066 263.922 73.7872 263.412 73.6942C263.242 73.6942 262.902 73.2294 262.817 73.0435C262.562 72.8576 261.882 72.6717 261.372 72.2999C260.353 71.5563 261.202 71.1845 261.287 70.7198C261.372 70.255 261.542 69.4184 261.372 69.1396C261.202 68.8607 260.353 67.7453 260.183 67.2806C259.928 66.537 260.353 65.2356 260.693 64.7709C261.032 64.3061 261.712 64.1202 262.137 64.492C262.477 64.7709 262.902 64.7709 263.072 64.3991C263.327 63.9344 265.536 60.774 265.961 60.4952C266.386 60.2163 267.83 59.4727 267.83 59.4727Z" fill="#ECBC97"/>
<path d="M269.953 61.426C269.868 61.7978 269.698 62.0767 269.528 62.3555C269.273 62.8203 268.848 63.1921 268.339 63.378C266.809 64.0286 265.535 64.6793 264.09 64.5863C263.495 64.4934 262.985 64.8652 262.73 65.5158C262.56 66.0735 262.221 66.4454 261.881 66.8172C261.286 67.4678 261.116 68.4903 261.371 69.3269C261.796 70.5352 263.495 74.9039 263.07 75.9264C264.005 84.5708 255.848 94.5166 248.71 87.8241C245.311 83.8272 251.939 77.0418 252.109 72.859C251.854 67.5608 255.763 63.0062 256.187 61.8908C256.357 61.519 256.527 61.2401 256.782 60.9613C257.802 59.8459 258.652 58.3586 259.501 57.708C260.266 57.0573 261.116 56.6855 262.051 56.3137C263.495 55.756 265.11 55.9419 266.469 56.8714C267.914 57.8009 269.188 59.1023 269.698 60.2177C270.038 60.5895 270.123 61.0542 269.953 61.426Z" fill="#BC9D02"/>
<path d="M262.222 66.5388C262.052 66.167 261.797 65.8882 261.542 65.7952C261.457 65.7023 261.287 65.7952 261.202 65.7952C260.437 66.167 260.267 66.8177 260.607 67.6542C260.607 67.6542 260.607 67.6542 260.607 67.7472C261.117 68.5837 261.457 68.7696 262.137 69.1414L262.222 66.5388Z" fill="#ECBC97"/>
<path d="M253.639 194.811C254.914 195.462 256.188 195.462 257.548 194.625C257.633 194.625 257.718 194.625 257.718 194.718C258.483 196.205 259.247 198.157 260.437 199.273C261.712 200.202 263.241 200.853 264.941 201.41C265.111 201.503 265.366 201.596 265.62 201.503C266.47 201.503 267.065 201.596 267.66 201.968C267.745 201.968 267.83 202.061 267.915 202.061C268.255 202.247 268.425 202.712 268.51 203.269C268.51 203.641 268.34 203.92 268.085 204.106C266.725 204.943 264.941 205.314 262.816 205.314L258.908 204.757L252.704 204.199L252.025 203.92C251.94 203.827 251.855 203.734 251.855 203.641C251.855 202.526 252.025 201.317 252.45 200.109C252.535 199.737 252.789 199.273 252.959 198.901C253.469 197.878 253.639 196.577 253.554 195.09C253.469 194.811 253.554 194.718 253.639 194.811Z" fill="#F6921E"/>
<path d="M251.856 202.062C251.686 202.062 251.601 203.364 251.686 203.643C251.771 204.014 252.961 204.2 253.215 204.2C254.15 204.386 255.255 204.386 256.275 204.479L259.758 204.851C260.778 205.037 261.883 205.223 263.072 205.223C264.007 205.223 264.942 205.13 265.877 204.851C266.641 204.665 267.321 204.386 268.001 203.922C268.086 203.829 268.171 203.829 268.171 203.643C268.341 203.178 268.341 202.434 267.661 202.062C266.896 202.527 265.707 202.806 264.432 203.085C263.497 203.271 262.393 203.364 261.203 203.271C259.334 203.178 257.549 203.085 255.935 202.713C254.49 202.62 253.046 202.434 251.856 202.062Z" fill="#CD751D"/>
<path d="M265.366 201.412C265.281 202.063 265.281 202.528 265.536 202.9C266.47 202.714 267.235 202.435 267.915 202.063C267.235 201.598 266.385 201.319 265.366 201.412Z" fill="#F05A24"/>
<path d="M257.379 196.392C257.567 196.392 257.719 196.226 257.719 196.02C257.719 195.815 257.567 195.648 257.379 195.648C257.191 195.648 257.039 195.815 257.039 196.02C257.039 196.226 257.191 196.392 257.379 196.392Z" fill="#D7CCC2"/>
<path d="M257.974 197.693C258.162 197.693 258.314 197.526 258.314 197.321C258.314 197.116 258.162 196.949 257.974 196.949C257.786 196.949 257.634 197.116 257.634 197.321C257.634 197.526 257.786 197.693 257.974 197.693Z" fill="#D7CCC2"/>
<path d="M258.486 198.81C258.674 198.81 258.826 198.644 258.826 198.438C258.826 198.233 258.674 198.066 258.486 198.066C258.298 198.066 258.146 198.233 258.146 198.438C258.146 198.644 258.298 198.81 258.486 198.81Z" fill="#D7CCC2"/>
<path d="M259.335 199.923C259.523 199.923 259.675 199.757 259.675 199.551C259.675 199.346 259.523 199.18 259.335 199.18C259.147 199.18 258.995 199.346 258.995 199.551C258.995 199.757 259.147 199.923 259.335 199.923Z" fill="#D7CCC2"/>
<path d="M260.266 200.669C260.454 200.669 260.606 200.503 260.606 200.298C260.606 200.092 260.454 199.926 260.266 199.926C260.079 199.926 259.927 200.092 259.927 200.298C259.927 200.503 260.079 200.669 260.266 200.669Z" fill="#D7CCC2"/>
<path d="M261.597 201.233C261.741 201.102 261.76 200.867 261.639 200.71C261.519 200.552 261.305 200.532 261.161 200.664C261.017 200.795 260.998 201.03 261.118 201.187C261.239 201.345 261.453 201.365 261.597 201.233Z" fill="#D7CCC2"/>
<path d="M262.617 201.639C262.725 201.54 262.739 201.364 262.649 201.246C262.559 201.128 262.398 201.113 262.29 201.212C262.182 201.31 262.168 201.486 262.258 201.604C262.349 201.722 262.509 201.738 262.617 201.639Z" fill="#D7CCC2"/>
<path d="M263.966 201.926C264.035 201.792 263.992 201.622 263.869 201.546C263.747 201.47 263.591 201.518 263.522 201.652C263.453 201.786 263.496 201.956 263.618 202.032C263.741 202.107 263.897 202.06 263.966 201.926Z" fill="#D7CCC2"/>
<path d="M258.059 196.952C258.314 196.859 258.653 196.859 258.823 197.045C258.908 197.231 258.993 197.416 259.078 197.509C258.823 197.323 258.398 197.416 258.229 197.416C258.314 197.231 258.229 197.045 258.059 196.952Z" fill="#686461"/>
<path d="M258.569 198.067C258.824 197.974 259.164 197.788 259.419 197.881C259.504 197.974 259.589 198.067 259.673 198.253C259.334 198.16 258.909 198.346 258.824 198.438C258.824 198.253 258.739 198.16 258.569 198.067Z" fill="#686461"/>
<path d="M259.333 199.181C259.503 198.995 259.928 198.902 260.183 198.902C260.268 198.995 260.353 199.088 260.523 199.181C260.183 199.181 259.758 199.367 259.588 199.553C259.588 199.367 259.503 199.181 259.333 199.181Z" fill="#686461"/>
<path d="M260.353 199.927C260.522 199.741 260.777 199.648 261.117 199.555C261.202 199.648 261.372 199.648 261.542 199.834C261.202 199.926 260.862 200.205 260.692 200.298C260.607 200.205 260.522 200.019 260.353 199.927Z" fill="#686461"/>
<path d="M261.373 200.575C261.543 200.296 261.713 200.203 261.968 200.203C262.138 200.296 262.138 200.296 262.308 200.389C262.053 200.575 261.798 200.854 261.713 200.947C261.713 200.761 261.628 200.575 261.373 200.575Z" fill="#686461"/>
<path d="M262.477 201.133C262.647 200.854 262.902 200.761 263.072 200.668C263.242 200.761 263.327 200.761 263.496 200.854C263.242 201.04 262.987 201.319 262.817 201.412C262.732 201.319 262.647 201.133 262.477 201.133Z" fill="#686461"/>
<path d="M263.583 201.596C263.668 201.224 263.668 201.131 263.838 200.945C264.008 200.945 264.178 201.038 264.178 201.038C264.093 201.317 264.093 201.503 264.008 201.689C263.923 201.596 263.753 201.41 263.583 201.596Z" fill="#686461"/>
<path d="M257.466 195.648C257.72 195.555 257.975 195.555 258.145 195.648C258.23 195.834 258.315 196.02 258.4 196.113C258.06 196.02 257.89 195.927 257.721 196.02C257.721 195.927 257.636 195.741 257.466 195.648Z" fill="#686461"/>
<path d="M256.19 195.184C256.19 195.091 256.19 194.998 256.19 194.905C256.19 194.719 256.36 194.533 256.53 194.44C256.785 194.255 257.04 194.069 257.38 193.883C257.465 194.069 257.55 194.348 257.635 194.626C257.38 194.812 257.04 194.905 256.87 194.998C256.7 194.998 256.445 195.091 256.19 195.184Z" fill="#F05A24"/>
<path d="M266.471 195.459C267.746 196.11 269.02 196.11 270.38 195.273C270.465 195.273 270.55 195.273 270.55 195.366C271.315 196.854 272.079 198.806 273.269 199.921C274.544 200.85 276.073 201.501 277.773 202.059C277.943 202.152 278.198 202.245 278.453 202.152C279.302 202.152 279.897 202.245 280.492 202.617C280.577 202.617 280.662 202.71 280.747 202.71C281.087 202.895 281.257 203.36 281.342 203.918C281.342 204.29 281.172 204.569 280.917 204.754C279.557 205.591 277.773 205.963 275.648 205.963L271.74 205.405L265.537 204.847L264.857 204.569C264.772 204.476 264.687 204.383 264.687 204.29C264.687 203.174 264.857 201.966 265.282 200.758C265.367 200.386 265.621 199.921 265.791 199.549C266.301 198.527 266.471 197.225 266.386 195.738C266.386 195.459 266.471 195.459 266.471 195.459Z" fill="#F6921E"/>
<path d="M264.769 202.805C264.599 202.805 264.514 204.106 264.599 204.385C264.684 204.757 265.873 204.943 266.128 204.943C267.063 205.128 268.168 205.128 269.187 205.221L272.671 205.593C273.691 205.779 274.796 205.965 275.985 205.965C276.92 205.965 277.855 205.872 278.789 205.593C279.554 205.407 280.234 205.128 280.914 204.664C280.999 204.571 281.084 204.571 281.084 204.385C281.254 203.92 281.254 203.176 280.574 202.805C279.809 203.269 278.619 203.548 277.345 203.827C276.41 204.013 275.305 204.106 274.116 204.013C272.246 203.92 270.462 203.827 268.847 203.455C267.403 203.362 265.958 203.176 264.769 202.805Z" fill="#CD751D"/>
<path d="M278.194 202.152C278.109 202.802 278.109 203.267 278.364 203.639C279.299 203.453 280.064 203.174 280.744 202.802C280.064 202.245 279.299 202.059 278.194 202.152Z" fill="#F05A24"/>
<path d="M270.294 197.04C270.481 197.04 270.634 196.874 270.634 196.669C270.634 196.463 270.481 196.297 270.294 196.297C270.106 196.297 269.954 196.463 269.954 196.669C269.954 196.874 270.106 197.04 270.294 197.04Z" fill="#D7CCC2"/>
<path d="M270.803 198.341C270.99 198.341 271.142 198.175 271.142 197.969C271.142 197.764 270.99 197.598 270.803 197.598C270.615 197.598 270.463 197.764 270.463 197.969C270.463 198.175 270.615 198.341 270.803 198.341Z" fill="#D7CCC2"/>
<path d="M271.399 199.552C271.586 199.552 271.739 199.386 271.739 199.18C271.739 198.975 271.586 198.809 271.399 198.809C271.211 198.809 271.059 198.975 271.059 199.18C271.059 199.386 271.211 199.552 271.399 199.552Z" fill="#D7CCC2"/>
<path d="M272.162 200.572C272.349 200.572 272.502 200.405 272.502 200.2C272.502 199.995 272.349 199.828 272.162 199.828C271.974 199.828 271.822 199.995 271.822 200.2C271.822 200.405 271.974 200.572 272.162 200.572Z" fill="#D7CCC2"/>
<path d="M273.181 201.318C273.369 201.318 273.521 201.151 273.521 200.946C273.521 200.741 273.369 200.574 273.181 200.574C272.993 200.574 272.841 200.741 272.841 200.946C272.841 201.151 272.993 201.318 273.181 201.318Z" fill="#D7CCC2"/>
<path d="M274.488 201.878C274.632 201.746 274.651 201.512 274.53 201.354C274.41 201.197 274.195 201.176 274.052 201.308C273.908 201.44 273.889 201.674 274.009 201.832C274.13 201.989 274.344 202.01 274.488 201.878Z" fill="#D7CCC2"/>
<path d="M275.505 202.283C275.612 202.185 275.627 202.009 275.536 201.891C275.446 201.773 275.285 201.757 275.177 201.856C275.069 201.955 275.055 202.131 275.145 202.249C275.236 202.367 275.397 202.382 275.505 202.283Z" fill="#D7CCC2"/>
<path d="M276.919 202.621C276.988 202.487 276.945 202.317 276.822 202.241C276.7 202.166 276.544 202.213 276.475 202.347C276.406 202.481 276.449 202.651 276.572 202.727C276.694 202.803 276.85 202.755 276.919 202.621Z" fill="#D7CCC2"/>
<path d="M270.971 197.6C271.226 197.507 271.566 197.507 271.736 197.693C271.821 197.879 271.906 198.065 271.991 198.158C271.736 197.972 271.311 198.065 271.141 198.065C271.141 197.879 271.141 197.693 270.971 197.6Z" fill="#686461"/>
<path d="M271.483 198.805C271.738 198.712 272.078 198.526 272.333 198.619C272.418 198.712 272.503 198.805 272.588 198.991C272.248 198.898 271.823 199.084 271.738 199.177C271.738 198.991 271.653 198.805 271.483 198.805Z" fill="#686461"/>
<path d="M272.248 199.83C272.418 199.644 272.843 199.551 273.098 199.551C273.183 199.644 273.268 199.737 273.438 199.83C273.098 199.83 272.673 200.016 272.503 200.201C272.503 200.108 272.418 199.923 272.248 199.83Z" fill="#686461"/>
<path d="M273.183 200.665C273.353 200.479 273.608 200.386 273.948 200.293C274.033 200.386 274.203 200.386 274.372 200.572C274.033 200.665 273.693 200.944 273.523 201.037C273.523 200.851 273.438 200.665 273.183 200.665Z" fill="#686461"/>
<path d="M274.288 201.223C274.458 200.944 274.628 200.852 274.883 200.852C275.053 200.945 275.053 200.945 275.223 201.037C274.968 201.223 274.713 201.502 274.628 201.595C274.543 201.409 274.458 201.223 274.288 201.223Z" fill="#686461"/>
<path d="M275.389 201.781C275.559 201.502 275.814 201.409 275.984 201.316C276.154 201.409 276.239 201.409 276.409 201.502C276.154 201.688 275.899 201.967 275.729 202.06C275.644 201.967 275.559 201.781 275.389 201.781Z" fill="#686461"/>
<path d="M276.496 202.244C276.581 201.873 276.581 201.78 276.751 201.594C276.921 201.594 277.091 201.687 277.091 201.687C277.006 201.966 277.006 202.151 276.921 202.337C276.836 202.244 276.666 202.059 276.496 202.244Z" fill="#686461"/>
<path d="M270.378 196.296C270.633 196.203 270.888 196.203 271.058 196.296C271.143 196.482 271.228 196.668 271.313 196.761C270.973 196.668 270.803 196.575 270.633 196.668C270.633 196.575 270.548 196.389 270.378 196.296Z" fill="#686461"/>
<path d="M269.105 195.833C269.105 195.74 269.105 195.647 269.105 195.554C269.105 195.368 269.275 195.182 269.445 195.089C269.7 194.903 269.955 194.717 270.295 194.531C270.38 194.717 270.465 194.996 270.55 195.275C270.295 195.461 269.955 195.554 269.785 195.647C269.615 195.74 269.36 195.833 269.105 195.833Z" fill="#F05A24"/>
<path d="M268.509 94.5167C268.848 97.2123 279.385 111.713 285.333 112.177C285.418 112.177 285.503 112.177 285.673 112.177C286.098 112.177 286.523 111.992 286.948 111.806C289.072 110.318 297.654 104.184 300.629 100.466L298.844 96.9334C294.341 98.6066 285.588 105.113 285.588 105.113C285.588 105.113 285.078 105.299 284.993 105.02C281.425 98.6065 276.241 95.1673 271.058 91.9141L268.509 94.5167Z" fill="#ECBC97"/>
<path d="M308.449 89.7734L304.54 96.5588C304.54 96.5588 304.965 97.3954 305.985 97.3024C306.919 97.2095 308.279 94.6069 308.364 94.1421C308.534 93.5844 308.279 93.1197 308.449 92.7479C308.619 92.3761 308.534 91.4465 308.534 91.4465C308.449 91.4465 309.299 90.1452 308.449 89.7734Z" fill="#D7A887"/>
<path d="M303.433 96.5597L305.472 87.5434C305.557 87.2645 305.727 87.0786 305.897 86.8927L308.871 85.0337C309.041 84.9407 309.296 84.9408 309.381 85.1267C309.466 85.2196 309.466 85.4055 309.466 85.4985L307.342 94.9795L303.433 96.5597Z" fill="#1A2E35"/>
<path d="M307.255 95.815C307.255 95.815 307.34 95.722 307.34 95.4432C307.34 95.1643 307.34 94.7925 307.255 94.3277C307.34 94.1418 307.34 94.0489 307.34 93.863C307.255 93.6771 307.17 93.4912 307 93.3982H306.915V93.3053C307.085 93.0264 307.255 92.7476 307.425 92.3758C307.51 92.2828 307.51 92.1899 307.51 92.1899C307.51 92.0969 307.51 92.004 307.51 91.911C307.425 91.7251 307.34 91.6322 307.17 91.5392V91.4463L307.255 91.3533C307.425 91.1674 307.595 90.9815 307.765 90.7956C308.02 90.4238 308.36 90.145 308.53 89.7732C308.615 89.5873 308.785 89.4013 308.785 89.2154C308.785 89.1225 308.87 89.0295 308.87 88.9366C308.87 88.8436 308.87 88.8437 308.785 88.8437C308.7 88.8437 308.615 88.8436 308.53 88.9366C308.445 88.9366 308.36 89.0296 308.275 89.0296C308.105 89.1225 307.935 89.2155 307.765 89.3084C307.425 89.4943 307.17 89.7731 307 89.8661C306.83 90.052 306.66 90.145 306.49 90.2379C306.405 90.3309 306.32 90.4238 306.32 90.3309C306.32 90.3309 306.405 90.2379 306.49 90.1449C306.575 90.052 306.745 89.8661 306.915 89.6802C307.085 89.4943 307.34 89.3084 307.68 89.0296C307.85 88.9366 308.02 88.8436 308.19 88.6577C308.275 88.5648 308.36 88.5648 308.445 88.4718C308.53 88.4718 308.7 88.3789 308.785 88.3789C308.954 88.3789 309.039 88.5648 308.954 88.6577C308.954 88.7507 308.954 88.8436 308.87 88.9366C308.785 89.1225 308.7 89.3084 308.53 89.4943C308.275 89.8661 308.02 90.145 307.765 90.5168C307.595 90.7027 307.425 90.8885 307.255 91.0745V90.9815C307.425 91.0745 307.595 91.2604 307.68 91.4463C307.68 91.5392 307.765 91.6322 307.68 91.8181C307.68 91.9111 307.595 92.004 307.51 92.0969C307.34 92.3758 307.17 92.7476 306.915 93.0265V92.9335C307.085 93.1194 307.255 93.2124 307.255 93.4912C307.34 93.6771 307.255 93.9559 307.17 94.0489C307.255 94.5137 307.255 94.9784 307.255 95.1643C307.34 95.6291 307.34 95.722 307.255 95.815Z" fill="#C89777"/>
<path d="M309.381 85.125C309.381 85.125 309.296 85.218 309.126 85.3109C308.956 85.4039 308.701 85.5898 308.446 85.7757C308.106 85.9616 307.766 86.2404 307.426 86.4263C307.256 86.5192 307.001 86.7052 306.831 86.7981C306.576 86.8911 306.406 87.077 306.236 87.2629C306.067 87.4488 305.982 87.7276 305.897 88.0065C305.812 88.2853 305.812 88.5642 305.727 88.7501C305.642 89.2148 305.472 89.6796 305.387 90.0514C305.302 90.4232 305.217 90.7021 305.132 90.888C305.047 91.0739 305.047 91.1668 305.047 91.1668C305.047 91.1668 305.047 91.0738 305.132 90.795C305.132 90.6091 305.217 90.3303 305.302 89.9585C305.387 89.5867 305.472 89.1219 305.557 88.6571C305.642 88.3783 305.642 88.1924 305.727 87.9135C305.812 87.6347 305.897 87.3558 306.067 87.0769C306.237 86.891 306.491 86.7051 306.746 86.6122C307.001 86.5192 307.171 86.3334 307.341 86.2404C307.766 85.9616 308.106 85.7757 308.446 85.5898C308.786 85.4039 308.956 85.218 309.211 85.125C309.296 85.218 309.381 85.125 309.381 85.125Z" fill="#375A64"/>
<path d="M307.428 88.1929C307.344 88.3788 307.344 88.5647 307.428 88.5647C307.513 88.5647 307.598 88.4717 307.683 88.2858C307.768 88.0999 307.768 87.9141 307.683 87.9141C307.598 87.9141 307.513 88.007 307.428 88.1929Z" fill="white"/>
<path d="M300.118 96.1918C300.798 95.82 300.798 94.6116 301.138 93.868C301.392 93.2173 301.732 92.5667 301.987 92.4737C302.412 92.1949 304.791 90.6147 304.791 90.6147L304.536 91.8231L306.831 90.057C307.086 89.8711 308.7 88.198 309.04 88.8487C309.21 89.3134 307.935 90.5218 307.766 90.8006C307.341 91.4513 307.511 91.4513 307.511 91.4513C307.511 91.4513 308.02 91.7301 307.766 92.1949C307.511 92.6597 307.086 93.2174 307.086 93.2174C307.086 93.2174 307.681 93.4962 307.341 94.3328C307.341 94.3328 307.511 94.7975 307.426 95.4482C307.341 95.82 307.086 96.2847 306.746 96.6565C306.406 97.1213 305.981 97.4001 305.471 97.586C303.517 98.3297 301.817 99.1662 300.628 100.282L298.843 96.7495L300.118 96.1918Z" fill="#ECBC97"/>
<path d="M305.22 91.2617C305.22 91.2617 304.71 91.7265 304.03 92.0983C303.35 92.5631 302.84 92.8419 302.84 92.8419C302.84 92.8419 303.35 92.3771 304.03 92.0053C304.625 91.5406 305.22 91.2617 305.22 91.2617Z" fill="#C89777"/>
<path d="M307.343 91.3555C307.343 91.3555 306.918 91.9132 306.323 92.5638C305.729 93.2145 305.219 93.6792 305.219 93.6792C305.219 93.6792 305.644 93.1215 306.238 92.4708C306.833 91.8202 307.343 91.3555 307.343 91.3555Z" fill="#C89777"/>
<path d="M307.171 93.0312C307.171 93.0312 307.001 93.403 306.661 93.7748C306.406 94.1466 306.066 94.4255 306.066 94.4255C306.066 94.4255 306.236 94.0537 306.576 93.6819C306.831 93.3101 307.171 93.0312 307.171 93.0312Z" fill="#C89777"/>
<path d="M277.263 122.495H251.941C251.941 122.495 252.875 98.8859 256.104 85.7798C256.529 83.9208 257.974 81.2252 259.248 79.9239C259.758 79.3662 260.353 78.9014 261.033 78.6226C261.458 78.4367 261.968 78.3438 262.477 78.3438L266.811 78.7155C267.321 78.7155 267.746 79.0873 267.916 79.5521L272.249 90.2415C272.504 90.8921 272.844 91.4498 273.354 91.9146L279.727 98.1423L275.563 103.719L275.054 104.37" fill="#131851"/>
<path d="M273.862 103.997C266.894 97.9551 266.554 96.7467 266.044 94.7018C265.874 94.0511 265.619 93.2146 265.109 92.0992L265.704 91.8203C266.214 93.0287 266.469 93.7722 266.639 94.5159C267.149 96.4678 267.489 97.4903 274.287 103.439L273.862 103.997Z" fill="black"/>
<path d="M195.294 122.941L201.34 113.449C201.632 112.916 201.34 112.169 200.755 112.169C199.292 112.169 197.927 112.169 196.464 112.276C194.612 112.382 192.857 112.702 191.102 113.129C190.907 113.129 190.712 113.129 190.517 113.022C189.542 112.276 189.444 111.422 190.419 110.356C190.517 110.249 190.614 110.249 190.712 110.143C194.124 109.183 198.707 109.183 203.582 109.396H204.85C205.435 109.396 205.825 110.143 205.435 110.676L197.439 124.541C197.244 124.968 196.757 125.074 196.464 124.755L195.489 124.115C195.197 123.795 195.099 123.368 195.294 122.941Z" fill="#00DFF4"/>
<path d="M164.191 62.0391L170.041 64.8121C167.506 67.1586 165.361 69.3984 166.726 72.1715L161.168 69.6117C163.509 68.7584 164.289 65.1321 164.191 62.0391Z" fill="#EDBD98"/>
<path d="M173.745 51.8008C173.745 51.8008 175.11 55.6404 174.038 57.6669C173.843 57.9869 173.745 58.2001 173.648 58.4134C172.965 59.5867 173.063 59.48 174.038 60.5466C174.623 61.0799 173.843 61.5065 173.453 61.7198C173.258 61.8264 173.063 62.0398 172.965 62.2531C172.965 62.4664 172.868 62.7863 172.868 62.7863C172.868 62.893 172.868 63.7463 172.185 63.533C168.87 62.4665 171.6 63.3196 172.283 63.8529C172.283 63.8529 172.575 64.1729 172.38 64.2796C172.185 64.3862 171.99 64.5995 171.795 64.8129C171.6 65.0262 171.405 65.8795 171.113 66.1994C170.82 66.5194 168.773 66.4127 167.7 65.7728C166.92 65.2395 165.75 64.4929 165.262 64.2796C165.067 64.1729 164.97 63.6396 164.872 63.4263C164.677 63.1063 164.092 62.6797 163.702 62.1464C162.922 61.0799 163.897 60.9732 164.092 60.6532C164.287 60.2266 164.677 59.48 164.58 59.16C164.482 58.84 163.995 57.4535 163.995 56.9202C163.995 56.067 164.775 55.0004 165.165 54.6805C165.652 54.3605 166.335 54.3604 166.725 54.8937C167.017 55.3203 167.407 55.4271 167.7 55.1071C168.09 54.7871 171.113 52.4407 171.6 52.3341C171.99 52.2274 173.745 51.8008 173.745 51.8008Z" fill="#EDBD98"/>
<path d="M175.696 54.466C175.501 54.7859 175.209 54.9992 175.014 55.2125C174.624 55.5325 174.136 55.7458 173.551 55.8524C171.894 56.0657 170.431 56.1725 169.066 55.6392C168.481 55.4259 167.896 55.5325 167.506 56.0658C167.116 56.4925 166.726 56.8123 166.238 57.0256C165.458 57.4523 164.971 58.4122 165.068 59.3722C165.068 60.7587 164.483 61.292 163.801 62.1452C163.411 62.3585 163.118 62.3585 162.728 62.0386C161.071 60.2254 160.583 57.559 160.876 54.6792C160.876 52.0128 161.363 51.3729 162.241 50.413C162.533 50.093 162.826 49.8797 163.118 49.6664C164.386 48.9198 165.653 47.7465 166.726 47.4265C167.701 47.1066 168.579 47 169.651 47C171.211 47 172.771 47.7465 173.844 49.0264C175.014 50.4129 175.891 52.1195 176.086 53.3994C175.989 53.7194 175.891 54.146 175.696 54.466Z" fill="#42210B"/>
<path d="M169.164 58.1994C169.066 57.7728 168.969 57.4528 168.676 57.2394C168.579 57.1328 168.481 57.1328 168.286 57.1328C167.409 57.2395 167.019 57.7728 167.214 58.7327C167.214 58.7327 167.214 58.7326 167.214 58.8393C167.409 59.7992 167.701 60.1191 168.286 60.759L169.164 58.1994Z" fill="#EDBD98"/>
<path d="M146.445 119.955L149.175 146.513L150.735 181.283L159.998 180.11L162.923 150.032C164.385 142.78 164.385 135.314 163.41 127.634L161.46 108.756L147.127 107.156C146.347 111.316 146.055 115.475 146.445 119.955Z" fill="#5E7625"/>
<path d="M153.464 180.857L154.147 185.55C155.512 186.403 156.877 186.19 158.144 185.23L158.242 180.004L153.464 180.857Z" fill="#EDBD98"/>
<path d="M153.855 185.549L159.023 185.016C162.045 187.362 165.263 187.895 166.725 188.855C167.408 189.282 167.505 190.349 166.92 190.989C166.433 191.415 165.653 191.842 164.483 191.948C160.68 192.482 157.268 192.695 154.538 192.162C154.148 192.055 153.757 191.842 153.66 191.415C152.977 189.709 153.367 187.682 153.855 185.549Z" fill="#F7931E"/>
<path d="M212.847 155.895L195.101 124.218C194.906 123.791 195.004 123.364 195.394 123.151L200.051 118.688L220.225 154.188L221.005 155.895L213.822 157.708L212.847 155.895Z" fill="#00DFF4"/>
<path d="M143.719 203.25C131.531 203.25 121.585 192.371 121.585 179.039C121.585 165.707 131.531 154.828 143.719 154.828C155.907 154.828 165.852 165.707 165.852 179.039C165.852 192.371 155.907 203.25 143.719 203.25ZM143.719 156.748C132.506 156.748 123.34 166.774 123.34 179.039C123.34 191.305 132.506 201.33 143.719 201.33C154.932 201.33 164.097 191.305 164.097 179.039C163.999 166.774 154.932 156.748 143.719 156.748Z" fill="#20505A"/>
<path d="M122.364 177.117L139.914 178.824V179.25L122.364 177.437V177.117Z" fill="#20505A"/>
<path d="M127.045 165.707L141.183 177.119L141.086 177.333L126.85 165.92L127.045 165.707Z" fill="#20505A"/>
<path d="M138.549 157.281L142.547 176.053L142.254 176.16L138.256 157.388L138.549 157.281Z" fill="#20505A"/>
<path d="M149.081 156.641L144.889 175.412L144.596 175.306L148.789 156.641H149.081Z" fill="#20505A"/>
<path d="M159.803 163.577L146.738 176.589L146.445 176.269L159.511 163.363L159.803 163.577Z" fill="#20505A"/>
<path d="M164.387 177.652L146.837 178.932L146.739 178.612L164.387 177.332V177.652Z" fill="#20505A"/>
<path d="M162.533 189.387L146.445 181.281L146.543 180.961L162.631 189.067L162.533 189.387Z" fill="#20505A"/>
<path d="M154.928 198.557L145.275 182.452L145.567 182.238L155.123 198.343L154.928 198.557Z" fill="#20505A"/>
<path d="M124.899 188.638L140.694 181.492L140.889 181.812L124.996 188.958L124.899 188.638Z" fill="#20505A"/>
<path d="M133.478 198.664L142.156 182.559L142.448 182.772L133.673 198.877L133.478 198.664Z" fill="#20505A"/>
<path d="M143.426 201.651L143.718 182.879H144.011L143.718 201.544L143.426 201.651Z" fill="#20505A"/>
<path d="M143.718 183.306C145.871 183.306 147.618 181.396 147.618 179.04C147.618 176.684 145.871 174.773 143.718 174.773C141.564 174.773 139.817 176.684 139.817 179.04C139.817 181.396 141.564 183.306 143.718 183.306Z" fill="#20505A"/>
<path d="M221.038 203.571C208.85 203.571 198.904 192.692 198.904 179.36C198.904 166.028 208.85 155.148 221.038 155.148C233.225 155.148 243.171 166.028 243.171 179.36C243.171 192.692 233.225 203.571 221.038 203.571ZM221.038 157.068C209.825 157.068 200.659 167.094 200.659 179.36C200.659 191.625 209.825 201.651 221.038 201.651C232.25 201.651 241.416 191.625 241.416 179.36C241.416 167.094 232.25 157.068 221.038 157.068Z" fill="#20505A"/>
<path d="M199.683 177.438L217.233 179.144V179.571L199.683 177.758V177.438Z" fill="#20505A"/>
<path d="M204.364 166.027L218.502 177.44L218.405 177.653L204.169 166.241L204.364 166.027Z" fill="#20505A"/>
<path d="M215.869 157.602L219.964 176.373L219.574 176.48L215.576 157.708L215.869 157.602Z" fill="#20505A"/>
<path d="M226.4 156.961L222.208 175.732L221.915 175.626L226.108 156.961H226.4Z" fill="#20505A"/>
<path d="M237.124 163.897L224.059 176.909L223.864 176.589L236.929 163.684L237.124 163.897Z" fill="#20505A"/>
<path d="M241.707 177.972L224.157 179.252L224.059 178.932L241.707 177.652V177.972Z" fill="#20505A"/>
<path d="M239.854 189.707L223.864 181.601L223.961 181.281L239.952 189.387L239.854 189.707Z" fill="#20505A"/>
<path d="M232.253 198.877L222.6 182.772L222.893 182.559L232.545 198.664L232.253 198.877Z" fill="#20505A"/>
<path d="M202.218 188.959L218.014 181.812L218.209 182.133L202.316 189.278L202.218 188.959Z" fill="#20505A"/>
<path d="M210.799 198.984L219.574 182.879L219.769 183.092L211.091 199.197L210.799 198.984Z" fill="#20505A"/>
<path d="M220.744 201.971L221.037 183.199H221.329L221.037 201.864L220.744 201.971Z" fill="#20505A"/>
<path d="M221.036 183.626C223.19 183.626 224.936 181.716 224.936 179.36C224.936 177.004 223.19 175.094 221.036 175.094C218.882 175.094 217.136 177.004 217.136 179.36C217.136 181.716 218.882 183.626 221.036 183.626Z" fill="#20505A"/>
<path d="M142.546 175.095L164.387 146.617L165.85 149.07L144.594 176.588L142.546 175.095Z" fill="#00DFF4"/>
<path d="M160.586 134.455L171.993 172.851L174.236 172.425L161.756 132.215L160 132.962L160.586 134.455Z" fill="#00DFF4"/>
<path d="M165.652 145.761L191.881 137.548L202.801 133.922L204.459 137.868L166.725 148.001L165.652 145.761Z" fill="#00DFF4"/>
<path d="M185.742 115.792C185.742 115.472 185.839 115.258 186.132 115.152C187.497 114.298 189.154 113.552 191.007 112.805C191.689 112.485 192.469 112.272 193.152 111.952C193.444 111.845 193.834 111.739 194.127 111.739L198.905 110.992L200.367 111.739L193.054 114.618C192.664 114.725 192.372 114.832 192.079 114.938C190.909 115.685 189.057 116.432 187.009 117.285C186.717 117.391 186.424 117.392 186.229 117.072C185.937 116.858 185.742 116.325 185.742 115.792Z" fill="#00BDF1"/>
<path d="M190.811 113.338C190.909 113.871 191.104 114.404 191.299 114.831C191.494 115.151 191.786 115.364 192.176 115.258C192.371 115.151 192.567 115.151 192.762 115.044C193.054 114.937 193.249 114.618 193.249 114.191C193.152 113.551 193.054 113.018 192.859 112.591C192.762 112.271 192.372 112.058 192.079 112.164C191.786 112.164 191.591 112.271 191.299 112.378C190.909 112.591 190.714 113.018 190.811 113.338Z" fill="black"/>
<path d="M169.455 128.912L159.803 129.552C159.608 129.552 159.412 129.659 159.217 129.659L154.83 131.365C154.147 131.579 153.465 131.472 152.88 131.045C151.71 130.192 150.54 128.699 150.54 128.699C150.54 128.699 150.052 128.166 149.76 127.419C149.662 127.206 149.662 126.992 149.76 126.886C150.247 125.499 152.197 125.392 154.147 125.712C158.242 126.139 162.045 126.246 165.36 126.246C165.458 126.246 165.555 126.246 165.653 126.246C167.31 126.246 168.773 126.459 170.138 126.886C170.528 126.992 170.82 127.312 170.918 127.632C170.918 127.739 170.918 127.846 170.918 127.952C170.918 128.379 170.625 128.699 170.235 128.699L169.455 128.912Z" fill="#1A1A1A"/>
<path d="M155.024 131.258L161.264 133.498L165.749 129.125H164.384L161.167 131.685C160.972 131.791 160.777 131.898 160.582 131.791L156.486 130.725L155.024 131.258Z" fill="#1A1A1A"/>
<path d="M176.085 191.093C181.04 191.093 185.056 186.795 185.056 181.494C185.056 176.192 181.04 171.895 176.085 171.895C171.131 171.895 167.115 176.192 167.115 181.494C167.115 186.795 171.131 191.093 176.085 191.093Z" fill="black"/>
<path d="M203.681 137.762L175.113 178.611H146.252L145.959 180.958L168.97 181.384L176.965 181.491L206.314 142.561L203.681 137.762Z" fill="#00DFF4"/>
<path d="M175.598 178.398L188.371 178.718C189.053 179.572 188.956 180.425 188.468 181.278L175.5 181.811C175.208 181.811 174.915 181.598 174.818 181.278C174.525 179.998 174.623 179.358 174.915 178.825C175.11 178.612 175.305 178.398 175.598 178.398Z" fill="#1A1A1A"/>
<path d="M182.23 185.012C181.938 184.478 182.035 183.839 182.425 183.519L189.153 178.719C189.543 178.399 190.128 178.506 190.42 179.039V179.146C190.713 179.572 190.615 180.212 190.128 180.532L183.4 185.332C183.01 185.652 182.425 185.438 182.23 185.012Z" fill="#333333"/>
<path d="M151.708 104.809L161.653 108.115C166.041 113.981 184.957 120.167 189.052 123.58C191.294 125.393 192.464 128.38 192.172 131.366C191.002 145.978 188.077 158.457 182.714 168.376H174.914C172.086 156.964 173.159 145.125 177.156 133.073C169.454 131.366 159.216 129.233 149.758 126.246C146.735 125.713 145.468 117.714 145.565 114.621C145.565 114.194 145.565 113.661 145.663 113.234C146.735 106.088 149.173 103.102 151.708 104.809Z" fill="#5E7625"/>
<path d="M176.569 168.375V173.068C177.837 174.134 179.202 174.241 180.567 173.495L181.444 168.375H176.569Z" fill="#EDBD98"/>
<path d="M176.181 173.066L181.349 173.493C184.079 176.373 187.102 177.333 188.467 178.612C189.052 179.146 189.052 180.212 188.369 180.746C187.784 181.172 187.004 181.279 185.834 181.279C182.031 181.172 178.619 180.852 175.986 179.786C175.596 179.679 175.304 179.253 175.206 178.826C174.816 177.013 175.401 175.093 176.181 173.066Z" fill="#F7931E"/>
<path d="M171.6 91.9045L174.428 97.7707C174.818 98.5173 175.306 99.1571 175.891 99.5838L187.493 109.183C188.663 110.143 189.443 111.529 190.126 113.023C190.321 113.449 190.418 114.302 190.418 114.729C190.418 114.942 190.418 115.049 190.321 115.262C190.126 116.222 189.541 116.969 188.761 117.289C187.591 117.822 186.518 118.462 186.031 117.715C186.421 117.502 186.908 116.649 187.201 116.009C187.493 115.369 187.688 114.729 187.786 114.089C187.786 113.449 187.786 112.703 187.396 112.489C185.933 111.423 184.666 110.143 183.301 109.183C183.008 108.97 182.618 108.863 182.228 108.756C179.888 108.223 177.548 107.37 175.11 106.303C174.623 106.09 174.233 105.77 173.94 105.45C171.308 102.89 167.895 97.8772 165.555 93.8243L171.6 90.3047V91.9045Z" fill="#E2AF8D"/>
<path d="M175.013 97.0223L170.43 102.035L164.19 95.5292L169.26 88.7031L175.013 97.0223Z" fill="#1D4B51"/>
<path d="M196.268 111.848C196.073 111.208 196.073 110.568 196.073 109.928C196.073 109.608 196.366 109.288 196.658 109.182C197.146 109.075 197.536 109.075 198.121 109.182C198.413 109.288 198.608 109.502 198.706 109.715C198.803 110.248 198.901 110.888 198.901 111.528C198.901 111.955 198.608 112.275 198.316 112.275C197.926 112.381 197.536 112.381 197.146 112.381C196.658 112.488 196.366 112.168 196.268 111.848Z" fill="black"/>
<path d="M178.522 86.1428L181.349 92.0089C181.739 92.7555 182.227 93.3954 182.812 93.8221L194.415 103.421C195.585 104.381 196.365 105.768 197.047 107.261C197.242 107.688 197.34 108.541 197.34 108.967C197.34 109.181 197.34 109.287 197.242 109.501C197.047 110.461 196.462 111.207 195.682 111.527C194.512 112.06 193.44 112.7 192.952 111.954C193.342 111.74 193.83 110.887 194.122 110.247C194.415 109.607 194.61 108.967 194.707 108.327C194.707 107.688 194.707 106.941 194.317 106.728C192.855 105.661 191.587 104.381 190.222 103.421C189.93 103.208 189.54 103.101 189.15 102.995C186.809 102.461 184.469 101.608 182.032 100.541C181.544 100.328 181.154 100.008 180.862 99.6882C178.229 97.1284 174.817 92.1157 172.477 88.0627L178.522 84.543V86.1428Z" fill="#EDBD98"/>
<path d="M185.74 115.795C185.74 115.475 185.935 115.261 186.13 115.155C187.495 114.195 189.152 113.448 191.005 112.808C191.687 112.595 189.737 113.448 190.517 113.128C190.225 113.128 190.81 113.021 190.517 113.128L190.81 114.195L191.102 114.941L191.2 115.155C190.81 115.261 191.395 115.261 191.102 115.475C189.932 116.221 189.055 116.541 187.007 117.394C186.715 117.501 186.422 117.501 186.227 117.181C185.935 116.861 185.74 116.435 185.74 115.795Z" fill="#00BDF1"/>
<path d="M163.021 110.885L137.67 105.446C142.253 88.4875 150.15 75.7953 162.143 68.2227H167.213L183.009 86.4611L174.429 96.4867L170.626 91.6871L163.021 110.885Z" fill="#20505A"/>
</svg>
