<svg width="343" height="233" viewBox="0 0 343 233" fill="none" xmlns="http://www.w3.org/2000/svg">
<path d="M171.408 215.395C258.501 215.395 329.103 207.94 329.103 198.743C329.103 189.547 258.501 182.092 171.408 182.092C84.315 182.092 13.7124 189.547 13.7124 198.743C13.7124 207.94 84.315 215.395 171.408 215.395Z" fill="#F3F3F3"/>
<path d="M158.553 194.211H94.2402V196.871H158.553V194.211Z" fill="#F1F1F1"/>
<path d="M280.15 194.211H215.838V196.871H280.15V194.211Z" fill="#F1F1F1"/>
<path d="M56.4268 188.997L57.958 106.922H59.6694V187.125V188.997H56.4268Z" fill="#686867"/>
<path d="M71.647 161.21C71.647 161.21 60.5679 173.822 45.2555 160.422C29.943 147.022 41.2022 128.499 43.5441 122.094C45.886 115.69 51.0202 112.438 49.4889 101.699C47.9577 90.959 48.1378 87.3134 50.84 79.234C53.5422 71.1546 57.6856 55.8825 60.1176 57.0649C62.5496 58.2472 67.7738 58.7399 68.1341 68.5928C68.4944 78.4458 67.7738 81.4016 71.737 90.2693C75.7003 99.0384 76.8712 106.724 75.7003 114.212C74.4392 121.7 74.7995 123.769 77.6819 130.272C80.5642 136.775 84.2572 140.421 80.5642 149.781C76.601 159.141 71.647 161.21 71.647 161.21Z" fill="#E9CD03"/>
<path d="M70.1164 190.573C69.9362 190.77 65.7929 191.755 63.451 190.573C60.6587 189.095 63.451 178.848 63.451 178.848C63.451 178.848 66.4234 169.192 67.144 168.404C67.8646 167.616 68.4951 173.33 69.576 176.385C70.6568 179.439 70.1164 183.479 70.6568 185.745C71.1973 188.011 71.2874 188.405 70.837 189.489C70.4767 190.277 70.1164 190.573 70.1164 190.573Z" fill="#0B9D99"/>
<path d="M53.4543 191.852C53.2741 192.049 49.1308 193.035 46.7889 191.852C43.9966 190.374 46.7889 180.127 46.7889 180.127C46.7889 180.127 49.7613 170.471 50.4819 169.683C51.2024 168.895 51.833 174.61 52.9138 177.664C53.9947 180.719 53.4543 184.758 53.9947 187.024C54.5352 189.291 54.6252 189.685 54.1749 190.769C53.9046 191.655 53.4543 191.852 53.4543 191.852Z" fill="#0B9D99"/>
<path d="M72.4591 190.573C72.6393 190.77 76.7827 191.755 79.1246 190.573C81.9168 189.095 79.1246 178.848 79.1246 178.848C79.1246 178.848 76.1521 169.192 75.4316 168.404C74.711 167.616 74.0805 173.33 72.9996 176.385C71.9187 179.439 72.4591 183.479 71.9187 185.745C71.3783 188.011 71.2882 188.405 71.7386 189.489C72.0088 190.277 72.4591 190.573 72.4591 190.573Z" fill="#0B9D99"/>
<path d="M87.6808 190.079C87.5908 190.276 84.168 191.065 82.1864 190.079C79.8444 188.897 82.1864 180.423 82.1864 180.423C82.1864 180.423 84.6183 172.344 85.2489 171.753C85.7893 171.162 86.4198 175.792 87.2305 178.354C88.1312 180.916 87.6808 184.266 88.1312 186.138C88.5816 188.01 88.5816 188.404 88.3113 189.192C88.0411 189.784 87.6808 190.079 87.6808 190.079Z" fill="#0B9D99"/>
<path d="M42.6447 192.247C42.5546 192.444 39.1318 193.233 37.1502 192.247C34.8083 191.065 37.1502 182.591 37.1502 182.591C37.1502 182.591 39.5822 174.512 40.2127 173.921C40.7532 173.33 41.3837 177.96 42.1943 180.522C43.0951 183.084 42.6447 186.434 43.0951 188.306C43.5454 190.178 43.5454 190.572 43.2752 191.36C43.005 192.05 42.6447 192.247 42.6447 192.247Z" fill="#0B9D99"/>
<path d="M32.8259 195.794C32.7358 195.893 29.4031 196.779 27.5116 195.794C25.2597 194.612 27.5116 186.532 27.5116 186.532C27.5116 186.532 29.8535 178.847 30.3939 178.256C30.9343 177.665 31.4748 182.197 32.3755 184.66C33.1862 187.123 32.8259 190.276 33.1862 192.148C33.6365 193.922 33.6365 194.316 33.3663 195.104C33.0961 195.597 32.8259 195.794 32.8259 195.794Z" fill="#0B9D99"/>
<path d="M275.332 91.68C275.672 94.3756 286.209 108.876 292.157 109.341C292.242 109.341 292.327 109.341 292.497 109.341C292.922 109.341 293.347 109.155 293.772 108.969C295.896 107.482 304.478 101.347 307.452 97.6288L306.942 93.8178C302.439 95.491 292.497 102.183 292.497 102.183C292.497 102.183 292.072 102.369 291.902 102.09C284.085 94.0967 280.516 91.1222 277.966 88.9844L275.332 91.68Z" fill="#D7A887"/>
<path d="M260.463 188.35C260.888 189.558 260.123 194.02 260.038 195.414C260.888 196.715 263.012 195.693 263.267 194.298C263.267 194.112 263.437 194.112 263.437 193.741C263.182 192.904 263.692 189.651 264.287 187.885L260.463 188.35Z" fill="#F8AB90"/>
<path d="M273.633 190.302C273.973 191.51 272.953 194.485 272.868 195.972C273.633 197.366 275.842 196.436 276.182 195.042C276.182 194.856 276.352 194.856 276.352 194.485C276.012 193.555 276.777 190.952 277.541 189.279L273.633 190.302Z" fill="#F8AB90"/>
<path d="M273.463 120.959H281.451C285.444 134.158 286.634 149.123 284.255 163.995C284.085 165.111 283.83 166.226 283.49 167.342L280.771 190.393C278.731 191.323 272.783 190.672 270.744 190.115C273.463 181.563 274.993 174.034 275.587 165.761C275.842 164.46 275.842 161.764 275.842 161.764C276.777 148.937 274.058 124.212 273.463 120.959Z" fill="#8BA943"/>
<path d="M267.005 190.209C264.286 191.046 260.547 189.651 258.422 188.722L263.606 163.067C263.691 162.603 263.691 162.045 263.691 161.58L261.821 130.813C261.821 130.07 261.821 129.326 261.906 128.582C262.246 125.887 262.841 121.983 263.861 120.682H274.312C277.287 135.926 276.777 148.939 275.587 156.282C275.502 156.933 274.907 164.09 274.227 166.135L267.005 190.209Z" fill="#8BA943"/>
<path d="M281.45 121.147L263.69 121.426L263.605 120.589L281.365 120.496L281.45 121.147Z" fill="#778E30"/>
<path d="M268.11 70.1152L274.228 70.7659C272.444 73.8333 271.084 76.5289 273.124 78.6667L267.26 78.109C269.3 76.6218 268.96 72.9967 268.11 70.1152Z" fill="#ECBC97"/>
<path d="M274.23 57.4746C274.23 57.4746 276.524 60.542 276.014 62.7728C275.929 63.1446 275.929 63.4235 275.844 63.6094C275.589 64.9107 275.589 64.8178 276.864 65.4684C277.544 65.8402 276.949 66.4909 276.609 66.7697C276.439 66.9556 276.354 67.1415 276.354 67.4204C276.354 67.6992 276.439 67.9781 276.439 67.9781C276.439 68.0711 276.694 68.8146 276.014 68.8146C272.615 68.9076 275.419 68.8146 276.184 69.0935C276.184 69.0935 276.524 69.2794 276.439 69.4653C276.354 69.6512 276.099 69.9301 276.014 70.2089C275.929 70.4878 275.929 71.3244 275.759 71.6962C275.589 72.068 273.635 72.7186 272.445 72.3468C271.51 72.0679 270.321 71.7891 269.811 71.6962C269.641 71.6962 269.301 71.2314 269.216 71.0455C268.961 70.8596 268.281 70.6737 267.772 70.3019C266.752 69.5583 267.602 69.1865 267.687 68.7217C267.772 68.257 267.941 67.4204 267.772 67.1415C267.602 66.8627 266.752 65.7473 266.582 65.2825C266.327 64.5389 266.752 63.2376 267.092 62.7728C267.432 62.3081 268.111 62.1222 268.536 62.494C268.876 62.7728 269.301 62.7729 269.471 62.4011C269.726 61.9363 271.935 58.776 272.36 58.4971C272.785 58.2183 274.23 57.4746 274.23 57.4746Z" fill="#ECBC97"/>
<path d="M276.352 59.426C276.267 59.7978 276.097 60.0767 275.927 60.3555C275.673 60.8203 275.248 61.1921 274.738 61.378C273.208 62.0286 271.934 62.6793 270.489 62.5863C269.894 62.4934 269.384 62.8652 269.13 63.5158C268.96 64.0735 268.62 64.4454 268.28 64.8172C267.685 65.4678 267.515 66.4903 267.77 67.3269C268.195 68.5352 269.894 72.9039 269.469 73.9264C270.404 82.5708 262.247 92.5166 255.109 85.8241C251.71 81.8272 258.338 75.0418 258.508 70.859C258.253 65.5608 262.162 61.0062 262.587 59.8908C262.757 59.519 262.926 59.2401 263.181 58.9613C264.201 57.8459 265.051 56.3586 265.901 55.708C266.665 55.0573 267.515 54.6855 268.45 54.3137C269.894 53.756 271.509 53.9419 272.868 54.8714C274.313 55.8009 275.588 57.1023 276.097 58.2177C276.437 58.5895 276.522 59.0542 276.352 59.426Z" fill="#BC9D02"/>
<path d="M268.621 64.5388C268.451 64.167 268.196 63.8882 267.941 63.7952C267.856 63.7023 267.686 63.7952 267.601 63.7952C266.836 64.167 266.666 64.8177 267.006 65.6542C267.006 65.6542 267.006 65.6542 267.006 65.7472C267.516 66.5837 267.856 66.7696 268.536 67.1414L268.621 64.5388Z" fill="#ECBC97"/>
<path d="M260.038 192.811C261.313 193.462 262.588 193.462 263.947 192.625C264.032 192.625 264.117 192.625 264.117 192.718C264.882 194.205 265.647 196.157 266.836 197.273C268.111 198.202 269.64 198.853 271.34 199.41C271.51 199.503 271.765 199.596 272.02 199.503C272.869 199.503 273.464 199.596 274.059 199.968C274.144 199.968 274.229 200.061 274.314 200.061C274.654 200.247 274.824 200.712 274.909 201.269C274.909 201.641 274.739 201.92 274.484 202.106C273.124 202.943 271.34 203.314 269.216 203.314L265.307 202.757L259.104 202.199L258.424 201.92C258.339 201.827 258.254 201.734 258.254 201.641C258.254 200.526 258.424 199.318 258.849 198.109C258.934 197.737 259.189 197.273 259.359 196.901C259.868 195.878 260.038 194.577 259.953 193.09C259.868 192.811 259.953 192.718 260.038 192.811Z" fill="#F6921E"/>
<path d="M258.255 200.061C258.085 200.061 258 201.362 258.085 201.641C258.17 202.013 259.36 202.198 259.615 202.198C260.549 202.384 261.654 202.384 262.674 202.477L266.158 202.849C267.177 203.035 268.282 203.221 269.472 203.221C270.406 203.221 271.341 203.128 272.276 202.849C273.04 202.663 273.72 202.384 274.4 201.92C274.485 201.827 274.57 201.827 274.57 201.641C274.74 201.176 274.74 200.432 274.06 200.061C273.295 200.525 272.106 200.804 270.831 201.083C269.896 201.269 268.792 201.362 267.602 201.269C265.733 201.176 263.948 201.083 262.334 200.711C260.889 200.618 259.445 200.432 258.255 200.061Z" fill="#CD751D"/>
<path d="M271.765 199.41C271.68 200.061 271.68 200.526 271.935 200.898C272.87 200.712 273.634 200.433 274.314 200.061C273.634 199.596 272.785 199.317 271.765 199.41Z" fill="#F05A24"/>
<path d="M263.778 194.39C263.966 194.39 264.118 194.224 264.118 194.018C264.118 193.813 263.966 193.646 263.778 193.646C263.591 193.646 263.438 193.813 263.438 194.018C263.438 194.224 263.591 194.39 263.778 194.39Z" fill="#D7CCC2"/>
<path d="M264.373 195.693C264.561 195.693 264.713 195.526 264.713 195.321C264.713 195.116 264.561 194.949 264.373 194.949C264.185 194.949 264.033 195.116 264.033 195.321C264.033 195.526 264.185 195.693 264.373 195.693Z" fill="#D7CCC2"/>
<path d="M264.885 196.808C265.073 196.808 265.225 196.642 265.225 196.436C265.225 196.231 265.073 196.064 264.885 196.064C264.697 196.064 264.545 196.231 264.545 196.436C264.545 196.642 264.697 196.808 264.885 196.808Z" fill="#D7CCC2"/>
<path d="M265.734 197.923C265.922 197.923 266.074 197.757 266.074 197.551C266.074 197.346 265.922 197.18 265.734 197.18C265.546 197.18 265.394 197.346 265.394 197.551C265.394 197.757 265.546 197.923 265.734 197.923Z" fill="#D7CCC2"/>
<path d="M266.666 198.665C266.853 198.665 267.005 198.499 267.005 198.294C267.005 198.088 266.853 197.922 266.666 197.922C266.478 197.922 266.326 198.088 266.326 198.294C266.326 198.499 266.478 198.665 266.666 198.665Z" fill="#D7CCC2"/>
<path d="M267.996 199.231C268.14 199.1 268.159 198.865 268.039 198.708C267.918 198.55 267.704 198.53 267.56 198.662C267.416 198.793 267.397 199.028 267.518 199.185C267.638 199.343 267.853 199.363 267.996 199.231Z" fill="#D7CCC2"/>
<path d="M269.016 199.635C269.124 199.536 269.139 199.36 269.048 199.242C268.958 199.124 268.797 199.109 268.689 199.208C268.581 199.307 268.567 199.482 268.657 199.6C268.748 199.718 268.909 199.734 269.016 199.635Z" fill="#D7CCC2"/>
<path d="M270.365 199.926C270.434 199.792 270.391 199.622 270.268 199.546C270.145 199.47 269.99 199.518 269.921 199.652C269.852 199.786 269.895 199.956 270.017 200.032C270.14 200.107 270.295 200.06 270.365 199.926Z" fill="#D7CCC2"/>
<path d="M264.458 194.948C264.712 194.855 265.052 194.855 265.222 195.041C265.307 195.227 265.392 195.413 265.477 195.505C265.222 195.32 264.797 195.413 264.627 195.413C264.712 195.227 264.627 195.041 264.458 194.948Z" fill="#686461"/>
<path d="M264.968 196.065C265.223 195.972 265.563 195.786 265.818 195.879C265.903 195.972 265.988 196.065 266.073 196.251C265.733 196.158 265.308 196.344 265.223 196.437C265.223 196.251 265.138 196.158 264.968 196.065Z" fill="#686461"/>
<path d="M265.733 197.179C265.903 196.993 266.327 196.9 266.582 196.9C266.667 196.993 266.752 197.086 266.922 197.179C266.582 197.179 266.158 197.365 265.988 197.551C265.988 197.365 265.903 197.179 265.733 197.179Z" fill="#686461"/>
<path d="M266.752 197.923C266.922 197.737 267.177 197.644 267.516 197.551C267.601 197.644 267.771 197.644 267.941 197.83C267.601 197.923 267.262 198.201 267.092 198.294C267.007 198.201 266.922 198.016 266.752 197.923Z" fill="#686461"/>
<path d="M267.772 198.573C267.942 198.294 268.112 198.201 268.367 198.201C268.537 198.294 268.537 198.294 268.707 198.387C268.452 198.573 268.197 198.852 268.112 198.945C268.112 198.759 268.027 198.573 267.772 198.573Z" fill="#686461"/>
<path d="M268.876 199.131C269.046 198.852 269.301 198.759 269.471 198.666C269.641 198.759 269.726 198.759 269.896 198.852C269.641 199.038 269.386 199.317 269.216 199.41C269.131 199.317 269.046 199.131 268.876 199.131Z" fill="#686461"/>
<path d="M269.982 199.596C270.067 199.224 270.067 199.131 270.237 198.945C270.407 198.945 270.577 199.038 270.577 199.038C270.492 199.317 270.492 199.503 270.407 199.689C270.322 199.596 270.152 199.41 269.982 199.596Z" fill="#686461"/>
<path d="M263.865 193.648C264.12 193.555 264.375 193.555 264.545 193.648C264.63 193.834 264.714 194.02 264.799 194.113C264.46 194.02 264.29 193.927 264.12 194.02C264.12 193.927 264.035 193.741 263.865 193.648Z" fill="#686461"/>
<path d="M262.59 193.182C262.59 193.089 262.59 192.996 262.59 192.903C262.59 192.717 262.76 192.531 262.929 192.439C263.184 192.253 263.439 192.067 263.779 191.881C263.864 192.067 263.949 192.346 264.034 192.624C263.779 192.81 263.439 192.903 263.269 192.996C263.099 192.996 262.845 193.089 262.59 193.182Z" fill="#F05A24"/>
<path d="M272.87 193.461C274.145 194.112 275.42 194.112 276.779 193.275C276.864 193.275 276.949 193.275 276.949 193.368C277.714 194.856 278.479 196.808 279.668 197.923C280.943 198.852 282.472 199.503 284.172 200.061C284.342 200.154 284.597 200.247 284.852 200.154C285.701 200.154 286.296 200.247 286.891 200.618C286.976 200.618 287.061 200.711 287.146 200.711C287.486 200.897 287.656 201.362 287.741 201.92C287.741 202.292 287.571 202.571 287.316 202.756C285.956 203.593 284.172 203.965 282.048 203.965L278.139 203.407L271.936 202.849L271.256 202.571C271.171 202.478 271.086 202.385 271.086 202.292C271.086 201.176 271.256 199.968 271.681 198.759C271.766 198.388 272.021 197.923 272.191 197.551C272.7 196.529 272.87 195.227 272.785 193.74C272.785 193.461 272.87 193.461 272.87 193.461Z" fill="#F6921E"/>
<path d="M271.168 200.805C270.998 200.805 270.913 202.106 270.998 202.385C271.083 202.757 272.273 202.943 272.527 202.943C273.462 203.128 274.567 203.128 275.587 203.221L279.07 203.593C280.09 203.779 281.195 203.965 282.384 203.965C283.319 203.965 284.254 203.872 285.189 203.593C285.953 203.407 286.633 203.128 287.313 202.664C287.398 202.571 287.483 202.571 287.483 202.385C287.653 201.92 287.653 201.176 286.973 200.805C286.208 201.269 285.019 201.548 283.744 201.827C282.809 202.013 281.705 202.106 280.515 202.013C278.646 201.92 276.861 201.827 275.247 201.455C273.802 201.362 272.358 201.176 271.168 200.805Z" fill="#CD751D"/>
<path d="M284.594 200.154C284.509 200.804 284.509 201.269 284.763 201.641C285.698 201.455 286.463 201.176 287.143 200.804C286.463 200.247 285.698 200.061 284.594 200.154Z" fill="#F05A24"/>
<path d="M276.693 195.04C276.881 195.04 277.033 194.874 277.033 194.669C277.033 194.463 276.881 194.297 276.693 194.297C276.505 194.297 276.353 194.463 276.353 194.669C276.353 194.874 276.505 195.04 276.693 195.04Z" fill="#D7CCC2"/>
<path d="M277.202 196.343C277.389 196.343 277.542 196.177 277.542 195.971C277.542 195.766 277.389 195.6 277.202 195.6C277.014 195.6 276.862 195.766 276.862 195.971C276.862 196.177 277.014 196.343 277.202 196.343Z" fill="#D7CCC2"/>
<path d="M277.798 197.55C277.986 197.55 278.138 197.384 278.138 197.178C278.138 196.973 277.986 196.807 277.798 196.807C277.61 196.807 277.458 196.973 277.458 197.178C277.458 197.384 277.61 197.55 277.798 197.55Z" fill="#D7CCC2"/>
<path d="M278.561 198.574C278.749 198.574 278.901 198.407 278.901 198.202C278.901 197.997 278.749 197.83 278.561 197.83C278.373 197.83 278.221 197.997 278.221 198.202C278.221 198.407 278.373 198.574 278.561 198.574Z" fill="#D7CCC2"/>
<path d="M279.58 199.316C279.768 199.316 279.92 199.149 279.92 198.944C279.92 198.739 279.768 198.572 279.58 198.572C279.392 198.572 279.24 198.739 279.24 198.944C279.24 199.149 279.392 199.316 279.58 199.316Z" fill="#D7CCC2"/>
<path d="M280.887 199.88C281.031 199.748 281.05 199.514 280.929 199.356C280.809 199.199 280.594 199.178 280.45 199.31C280.307 199.442 280.288 199.676 280.408 199.834C280.529 199.991 280.743 200.012 280.887 199.88Z" fill="#D7CCC2"/>
<path d="M281.904 200.282C282.012 200.183 282.026 200.007 281.935 199.889C281.845 199.771 281.684 199.755 281.576 199.854C281.468 199.953 281.454 200.129 281.545 200.247C281.635 200.365 281.796 200.38 281.904 200.282Z" fill="#D7CCC2"/>
<path d="M283.318 200.625C283.387 200.491 283.344 200.321 283.221 200.245C283.099 200.169 282.943 200.217 282.874 200.351C282.805 200.485 282.848 200.655 282.971 200.731C283.093 200.807 283.249 200.759 283.318 200.625Z" fill="#D7CCC2"/>
<path d="M277.37 195.598C277.625 195.505 277.965 195.505 278.135 195.691C278.22 195.877 278.305 196.063 278.39 196.156C278.135 195.97 277.71 196.063 277.54 196.063C277.54 195.877 277.54 195.691 277.37 195.598Z" fill="#686461"/>
<path d="M277.883 196.807C278.137 196.714 278.477 196.528 278.732 196.621C278.817 196.714 278.902 196.807 278.987 196.993C278.647 196.9 278.222 197.086 278.137 197.179C278.137 196.993 278.053 196.807 277.883 196.807Z" fill="#686461"/>
<path d="M278.647 197.83C278.817 197.644 279.242 197.551 279.497 197.551C279.582 197.644 279.667 197.737 279.837 197.83C279.497 197.83 279.072 198.016 278.902 198.201C278.902 198.108 278.817 197.923 278.647 197.83Z" fill="#686461"/>
<path d="M279.582 198.667C279.752 198.481 280.007 198.388 280.347 198.295C280.432 198.388 280.602 198.388 280.772 198.574C280.432 198.667 280.092 198.946 279.922 199.039C279.922 198.853 279.837 198.667 279.582 198.667Z" fill="#686461"/>
<path d="M280.687 199.223C280.857 198.944 281.027 198.852 281.282 198.852C281.452 198.945 281.452 198.945 281.622 199.037C281.367 199.223 281.112 199.502 281.027 199.595C280.942 199.409 280.857 199.223 280.687 199.223Z" fill="#686461"/>
<path d="M281.789 199.781C281.959 199.502 282.213 199.409 282.383 199.316C282.553 199.409 282.638 199.409 282.808 199.502C282.553 199.688 282.298 199.967 282.128 200.06C282.043 199.967 281.959 199.781 281.789 199.781Z" fill="#686461"/>
<path d="M282.895 200.246C282.98 199.875 282.98 199.782 283.15 199.596C283.32 199.596 283.49 199.689 283.49 199.689C283.405 199.967 283.405 200.153 283.32 200.339C283.235 200.246 283.065 200.06 282.895 200.246Z" fill="#686461"/>
<path d="M276.778 194.298C277.033 194.205 277.287 194.205 277.457 194.298C277.542 194.484 277.627 194.67 277.712 194.763C277.372 194.67 277.202 194.577 277.033 194.67C277.033 194.577 276.948 194.391 276.778 194.298Z" fill="#686461"/>
<path d="M275.504 193.833C275.504 193.74 275.504 193.647 275.504 193.554C275.504 193.368 275.674 193.182 275.844 193.089C276.099 192.903 276.354 192.717 276.694 192.531C276.779 192.717 276.864 192.996 276.949 193.275C276.694 193.461 276.354 193.554 276.184 193.647C276.014 193.74 275.759 193.833 275.504 193.833Z" fill="#F05A24"/>
<path d="M274.908 92.5167C275.248 95.2123 285.784 109.713 291.732 110.177C291.817 110.177 291.902 110.177 292.072 110.177C292.497 110.177 292.922 109.992 293.347 109.806C295.471 108.318 304.054 102.184 307.028 98.4656L305.243 94.9334C300.74 96.6066 291.987 103.113 291.987 103.113C291.987 103.113 291.478 103.299 291.393 103.02C287.824 96.6065 282.64 93.1673 277.457 89.9141L274.908 92.5167Z" fill="#ECBC97"/>
<path d="M314.848 87.7754L310.939 94.5608C310.939 94.5608 311.364 95.3973 312.384 95.3044C313.318 95.2114 314.678 92.6089 314.763 92.1441C314.933 91.5864 314.678 91.1216 314.848 90.7498C315.018 90.378 314.933 89.4485 314.933 89.4485C314.848 89.4485 315.698 88.1472 314.848 87.7754Z" fill="#D7A887"/>
<path d="M309.832 94.5616L311.872 85.5453C311.957 85.2665 312.127 85.0806 312.297 84.8947L315.271 83.0357C315.441 82.9427 315.695 82.9427 315.78 83.1286C315.865 83.2216 315.865 83.4075 315.865 83.5004L313.741 92.9814L309.832 94.5616Z" fill="#1A2E35"/>
<path d="M313.654 93.8189C313.654 93.8189 313.739 93.7259 313.739 93.4471C313.739 93.1682 313.739 92.7964 313.654 92.3316C313.739 92.1457 313.739 92.0528 313.739 91.8669C313.654 91.681 313.569 91.4951 313.399 91.4021H313.314V91.3092C313.484 91.0304 313.654 90.7515 313.824 90.3797C313.909 90.2867 313.909 90.1938 313.909 90.1938C313.909 90.1008 313.909 90.0079 313.909 89.9149C313.824 89.729 313.739 89.6361 313.569 89.5431V89.4502L313.654 89.3573C313.824 89.1714 313.994 88.9854 314.164 88.7995C314.419 88.4277 314.759 88.1489 314.929 87.7771C315.014 87.5912 315.184 87.4052 315.184 87.2193C315.184 87.1264 315.269 87.0334 315.269 86.9405C315.269 86.8475 315.269 86.8476 315.184 86.8476C315.099 86.8476 315.014 86.8475 314.929 86.9405C314.844 86.9405 314.759 87.0335 314.674 87.0335C314.504 87.1264 314.334 87.2194 314.164 87.3123C313.824 87.4982 313.569 87.7771 313.399 87.87C313.229 88.0559 313.059 88.1489 312.889 88.2418C312.804 88.3348 312.719 88.4277 312.719 88.3348C312.719 88.3348 312.804 88.2418 312.889 88.1488C312.974 88.0559 313.144 87.87 313.314 87.6841C313.484 87.4982 313.739 87.3123 314.079 87.0335C314.249 86.9405 314.419 86.8476 314.589 86.6617C314.674 86.5687 314.759 86.5687 314.844 86.4757C314.929 86.4757 315.099 86.3828 315.184 86.3828C315.354 86.3828 315.439 86.5687 315.354 86.6617C315.354 86.7546 315.354 86.8475 315.269 86.9405C315.184 87.1264 315.099 87.3123 314.929 87.4982C314.674 87.87 314.419 88.1489 314.164 88.5207C313.994 88.7066 313.824 88.8925 313.654 89.0784V88.9854C313.824 89.0784 313.994 89.2643 314.079 89.4502C314.079 89.5431 314.164 89.6361 314.079 89.822C314.079 89.915 313.994 90.0079 313.909 90.1009C313.739 90.3797 313.569 90.7515 313.314 91.0304V90.9374C313.484 91.1233 313.654 91.2163 313.654 91.4951C313.739 91.681 313.654 91.9599 313.569 92.0528C313.654 92.5176 313.654 92.9823 313.654 93.1682C313.739 93.633 313.739 93.7259 313.654 93.8189Z" fill="#C89777"/>
<path d="M315.78 83.1289C315.78 83.1289 315.695 83.2219 315.525 83.3148C315.355 83.4078 315.1 83.5937 314.845 83.7796C314.505 83.9655 314.165 84.2443 313.825 84.4302C313.655 84.5231 313.4 84.7091 313.23 84.802C312.976 84.895 312.806 85.0809 312.636 85.2668C312.466 85.4527 312.381 85.7315 312.296 86.0104C312.211 86.2892 312.211 86.5681 312.126 86.754C312.041 87.2187 311.871 87.6835 311.786 88.0553C311.701 88.4271 311.616 88.706 311.531 88.8919C311.446 89.0778 311.446 89.1707 311.446 89.1707C311.446 89.1707 311.446 89.0777 311.531 88.7989C311.531 88.613 311.616 88.3342 311.701 87.9624C311.786 87.5906 311.871 87.1258 311.956 86.661C312.041 86.3822 312.041 86.1963 312.126 85.9174C312.211 85.6386 312.296 85.3597 312.466 85.0809C312.636 84.895 312.891 84.7091 313.146 84.6161C313.4 84.5231 313.57 84.3373 313.74 84.2443C314.165 83.9655 314.505 83.7796 314.845 83.5937C315.185 83.4078 315.355 83.2219 315.61 83.1289C315.695 83.2219 315.78 83.1289 315.78 83.1289Z" fill="#375A64"/>
<path d="M313.828 86.1968C313.743 86.3827 313.743 86.5686 313.828 86.5686C313.913 86.5686 313.998 86.4756 314.083 86.2897C314.168 86.1038 314.168 85.918 314.083 85.918C313.998 85.918 313.913 86.0109 313.828 86.1968Z" fill="white"/>
<path d="M306.517 94.1898C307.197 93.818 307.197 92.6097 307.537 91.8661C307.792 91.2154 308.132 90.5647 308.386 90.4718C308.811 90.1929 311.191 88.6128 311.191 88.6128L310.936 89.8212L313.23 88.0551C313.485 87.8692 315.099 86.1961 315.439 86.8467C315.609 87.3115 314.335 88.5198 314.165 88.7987C313.74 89.4493 313.91 89.4494 313.91 89.4494C313.91 89.4494 314.42 89.7282 314.165 90.1929C313.91 90.6577 313.485 91.2154 313.485 91.2154C313.485 91.2154 314.08 91.4943 313.74 92.3308C313.74 92.3308 313.91 92.7956 313.825 93.4462C313.74 93.818 313.485 94.2828 313.145 94.6546C312.805 95.1193 312.38 95.3982 311.87 95.5841C309.916 96.3277 308.216 97.1643 307.027 98.2797L305.242 94.7476L306.517 94.1898Z" fill="#ECBC97"/>
<path d="M311.619 89.2637C311.619 89.2637 311.109 89.7284 310.429 90.1003C309.749 90.565 309.24 90.8438 309.24 90.8438C309.24 90.8438 309.749 90.3791 310.429 90.0073C311.024 89.5425 311.619 89.2637 311.619 89.2637Z" fill="#C89777"/>
<path d="M313.742 89.3555C313.742 89.3555 313.317 89.9132 312.723 90.5638C312.128 91.2145 311.618 91.6792 311.618 91.6792C311.618 91.6792 312.043 91.1215 312.638 90.4708C313.232 89.8202 313.742 89.3555 313.742 89.3555Z" fill="#C89777"/>
<path d="M313.57 91.0293C313.57 91.0293 313.4 91.4011 313.06 91.7729C312.805 92.1447 312.465 92.4236 312.465 92.4236C312.465 92.4236 312.635 92.0518 312.975 91.68C313.23 91.3082 313.57 91.0293 313.57 91.0293Z" fill="#C89777"/>
<path d="M283.662 120.495H258.34C258.34 120.495 259.275 96.8859 262.504 83.7798C262.928 81.9208 264.373 79.2252 265.648 77.9239C266.157 77.3662 266.752 76.9014 267.432 76.6226C267.857 76.4367 268.367 76.3438 268.877 76.3438L273.21 76.7155C273.72 76.7155 274.145 77.0873 274.315 77.5521L278.649 88.2415C278.903 88.8921 279.243 89.4498 279.753 89.9146L286.126 96.1423L281.963 101.719L281.453 102.37" fill="#131851"/>
<path d="M280.261 101.999C273.293 95.957 272.953 94.7486 272.443 92.7037C272.273 92.0531 272.018 91.2165 271.509 90.1011L272.103 89.8223C272.613 91.0306 272.868 91.7742 273.038 92.5178C273.548 94.4698 273.888 95.4923 280.686 101.441L280.261 101.999Z" fill="black"/>
<g clip-path="url(#clip0_22158_427254)">
<path d="M197.601 184H133.47V186.606H197.601V184Z" fill="white"/>
<path d="M121.245 131.477C121.227 131.463 121.209 131.449 121.194 131.435C120.833 131.122 116.656 127.51 115.656 126.907C114.609 126.275 113.488 126.157 113.849 125.092C114.21 124.027 116.352 122.538 117.102 122.261C117.767 122.015 119.077 121.473 119.359 121.355C119.395 121.341 119.428 121.324 119.461 121.302C119.687 121.168 120.618 120.62 120.859 120.64C121.133 120.659 122.722 118.82 124.552 121.685C126.382 124.553 127.057 124.763 127.057 125.238C127.057 125.685 125.586 130.118 122.868 132.008C122.579 132.209 122.207 132.193 121.926 131.983L121.245 131.48V131.477Z" stroke="black" stroke-width="4" stroke-miterlimit="10"/>
<path d="M127.677 133.277C127.677 133.277 122.819 134.593 123.413 131.331C124.007 128.069 124.698 124.29 128.455 124.234C132.212 124.175 132.606 125.755 136.76 127.544C140.914 129.333 141.484 129.864 148.998 130.073C156.512 130.283 158.854 130.336 160.142 130.23C161.429 130.124 162.665 136.382 161.874 138.065C161.083 139.748 154.831 138.378 154.47 138.216C154.109 138.054 133.696 134.384 131.227 133.646C128.754 132.908 127.679 133.277 127.679 133.277H127.677Z" fill="#131315"/>
<path d="M113.196 125.522C113.196 125.522 111.354 126.193 110.269 125.522C109.183 124.851 103.62 122.877 102.102 123.115C100.584 123.353 99.0947 122.156 99.0947 122.156C99.0947 122.156 105.206 123.112 108.352 123.227C111.497 123.341 113.015 122.782 113.521 123.344C114.028 123.906 113.967 124.049 113.703 124.641C113.44 125.234 113.196 125.522 113.196 125.522Z" fill="#1E1E1E"/>
<path d="M156.134 137.255C156.134 137.255 147.069 161.708 145.541 161.666C144.013 161.624 143.44 168.143 143.296 168.8C143.153 169.457 141.042 172.629 146.171 173.734C151.302 174.838 175.293 179.654 175.293 179.654C175.293 179.654 180.424 180.758 183.531 180.048C186.638 179.338 189.241 177.918 190.469 177.759C191.698 177.599 196.829 170.578 198.347 168.523C199.864 166.471 214.824 141.61 214.967 140.346C215.11 139.083 213.114 135.988 211.957 133.067C210.8 130.146 202.019 117.584 202.019 117.584L193.791 107.963C193.791 107.963 192.683 107.278 191.721 107.963C190.759 108.647 188.76 110.775 188.616 111.879C188.473 112.983 188.327 116.93 188.473 117.562C188.619 118.193 191.772 125.271 191.772 125.271C191.772 125.271 184.711 124.164 184.568 125.349C184.424 126.535 184.818 131.784 184.957 134.856C185.095 137.928 185.169 138.893 184.957 140.117C184.816 140.928 180.207 161.856 180.207 161.856L162.578 155.419L164.408 136.008L163.277 136.553L156.495 135.944L156.136 137.252L156.134 137.255Z" fill="black"/>
<path d="M198.255 139.017L184.765 116.602C184.765 116.602 181.852 111.777 181.297 112.814C180.741 113.848 181.153 118.497 181.153 118.497C181.153 118.497 186.597 130.598 187.849 132.915C189.1 135.23 190.257 141.754 190.257 141.754L186.211 156.276L187.849 167.219L188.667 167.641L194.592 156.276L201.763 144.323L198.255 139.017Z" fill="#00DFF4"/>
<path d="M213.423 151.809L211.271 146.872L211.831 146.182L213.139 149.466L214.163 151.809H213.423Z" fill="#B7C4B7"/>
<path d="M182.433 121.329C182.433 121.329 179.505 115.352 178.133 113.18C176.761 111.011 176.301 110.692 174.233 109.18C172.572 107.964 170.563 105.214 169.895 104.853C168.751 104.232 164.464 107.604 164.175 107.444C163.886 107.285 164.92 105.641 164.874 105.169C164.825 104.666 163.916 104.504 163.284 104.853C163.028 104.993 160.784 106.488 159.793 107.148C159.381 107.422 158.836 107.276 158.601 106.812C158.503 106.622 158.434 106.382 158.427 106.074C158.391 104.931 160.607 103.506 160.607 103.506L165.347 98.2588C165.347 98.2588 168.636 94.5773 172.296 93.7332C175.958 92.8918 177.539 92.8834 178.553 93.4089C179.566 93.9344 185.461 97.9373 186.761 99.3098C188.061 100.682 191.818 104.914 191.142 105.473C190.466 106.033 187.109 107.109 186.4 107.486C185.775 107.819 184.447 108.825 184.447 108.825C184.107 109.334 183.303 109.583 182.231 112.719C181.893 113.708 181.125 112.314 181.01 115.341C180.936 117.273 182.435 121.317 182.435 121.317L182.433 121.329Z" fill="black"/>
<path d="M121.944 121.274C121.944 121.274 116.308 124.679 111.489 124.782C106.672 124.889 94.242 123.362 91.8337 121.783C89.4254 120.204 85.9089 113.786 85.8603 111.89C85.8117 109.995 85.8603 109.416 85.8603 109.416C85.8603 109.416 84.8494 109.154 85.0413 107.627C85.2333 106.101 85.1386 105.785 85.6684 105.629C86.1981 105.472 86.8738 105.366 86.8738 105.366C86.8738 105.366 87.3063 103.052 88.1253 102.104C88.9443 101.156 92.6527 98.4197 95.0149 96.9997C97.3771 95.5797 104.553 92.6334 111.635 92.9493C118.717 93.2652 123.533 92.6334 125.366 98.1598C125.366 98.1598 126.522 102.685 126.763 103.421C127.004 104.156 127.293 105.998 126.425 108.578C125.557 111.155 123.825 119.018 123.185 120.008C122.545 120.997 121.944 121.274 121.944 121.274Z" fill="#1E1E1E"/>
<path d="M85.6687 105.628C85.6687 105.628 105.542 106.522 108.649 106.05C111.756 105.578 126.418 102.195 126.418 102.195L126.935 104.191C126.935 104.191 113.056 107.864 110.742 107.864C108.429 107.864 85.3079 106.629 85.3079 106.629L85.1543 106.62L85.2106 106.204C85.2106 106.204 85.2388 106.056 85.2592 106C85.2797 105.944 85.3181 105.866 85.3207 105.863C85.3232 105.86 85.3718 105.784 85.4153 105.751C85.4589 105.717 85.5715 105.662 85.5894 105.653C85.6073 105.645 85.6662 105.628 85.6662 105.628H85.6687Z" fill="#070707"/>
<path d="M85.157 106.62C85.157 106.62 84.8627 108.725 85.3617 109.072C85.8608 109.418 95.9316 110.45 95.9316 110.45C95.9316 110.45 110.023 111.101 110.962 111.023C111.902 110.945 126.426 108.577 126.426 108.577C126.426 108.577 127.045 105.197 126.991 104.694C126.937 104.191 126.881 104.205 126.881 104.205C126.881 104.205 115.587 107.095 113.691 107.431C111.794 107.766 89.8994 106.721 89.8994 106.721L85.1596 106.62H85.157Z" fill="#3D3D3D"/>
<path d="M124.969 106.838C124.969 106.838 127.787 106.285 127.933 105.852C128.079 105.418 127.897 104.471 127.426 104.471C126.955 104.471 124.537 105.167 124.537 105.167L124.273 105.253C123.84 105.396 123.577 105.888 123.7 106.36C123.7 106.369 123.705 106.374 123.705 106.383L123.904 107.132L124.969 106.836V106.838Z" fill="white"/>
<path d="M113.261 110.128C113.261 110.128 116.117 109.908 116.304 109.491C116.49 109.075 116.403 108.113 115.935 108.06C115.469 108.004 112.992 108.418 112.992 108.418L112.721 108.474C112.275 108.563 111.968 109.021 112.042 109.508C112.042 109.516 112.042 109.522 112.045 109.53L112.17 110.299L113.258 110.128H113.261Z" fill="white"/>
<path d="M124.826 186.838C135.107 186.838 143.442 177.735 143.442 166.505C143.442 155.275 135.107 146.172 124.826 146.172C114.544 146.172 106.209 155.275 106.209 166.505C106.209 177.735 114.544 186.838 124.826 186.838Z" fill="#393A38"/>
<path d="M122.929 179.219C129.124 179.219 134.147 173.469 134.147 166.377C134.147 159.285 129.124 153.535 122.929 153.535C116.734 153.535 111.712 159.285 111.712 166.377C111.712 173.469 116.734 179.219 122.929 179.219Z" fill="black"/>
<path d="M155.002 141.94L146.024 162.502C145.61 163.455 144.658 163.981 143.708 163.782L138.741 162.748C138.147 162.625 137.64 162.225 137.323 161.664C136.847 160.817 135.915 159.578 134.334 158.986C131.897 158.074 110.033 150.795 108.413 150.256C108.349 150.234 108.288 150.211 108.226 150.183C106.988 149.627 106.522 147.969 107.264 146.753C107.888 145.733 108.582 144.643 109.043 144.07C110.054 142.806 115.175 134.946 116.124 134.205C117.133 133.417 120.171 131.678 124.073 132.075C127.976 132.469 133.323 130.792 138.672 132.025C144.018 133.258 155.727 137.205 155.942 138.152C156.157 139.1 155.002 141.94 155.002 141.94Z" fill="#00DFF4"/>
<path d="M151.406 166.921C151.406 166.921 141.627 165.395 139.892 164.71C138.157 164.025 120.815 165.92 120.237 165.814C119.658 165.708 117.637 165.392 117.442 166.918C117.248 168.445 117.299 170.55 118.164 170.603C119.031 170.656 136.952 171.919 139.025 171.181C141.095 170.443 141.095 170.318 143.698 170.066C146.298 169.814 151.593 170.544 152.097 170.329C152.602 170.113 153.183 168.632 152.855 167.844C152.53 167.055 151.404 166.924 151.404 166.924L151.406 166.921Z" fill="#1E1E1D"/>
<path d="M119.095 165.787C119.095 165.787 118.443 163.095 118.804 162.779C119.164 162.463 119.561 162.74 120.175 161.871C120.79 161.001 121.327 158.547 121.77 156.741C122.213 154.935 122.277 154.891 122.277 154.891L125.414 155.944C125.414 155.944 122.558 160.649 122.054 162.385C121.55 164.121 121.77 165.583 121.77 165.583L121.788 165.792H119.095V165.787Z" fill="#1E1E1D"/>
<path d="M166.947 152.625C166.947 152.625 165.874 155.588 168.247 155.485C170.619 155.381 170.614 153.805 171.571 152.913C172.531 152.024 173.393 154.537 176.15 156.474C178.906 158.411 179.625 159.065 179.746 159.616C179.866 160.167 178.548 161.469 177.516 161.799C176.485 162.129 174.929 161.897 172.004 161.24C169.078 160.586 164.692 161.316 164.142 160.242C163.591 159.169 163.445 158.587 163.663 158.146C163.842 157.777 164.971 157.081 165.467 156.418C165.567 156.287 165.641 156.155 165.677 156.03C165.892 155.269 165.989 153.648 166.325 153.151C166.66 152.653 166.949 152.628 166.949 152.628L166.947 152.625Z" fill="#15B1FF"/>
<path d="M168.817 158.255C170.256 159.015 172.82 159.669 173.946 159.851C175.072 160.032 177.734 160.854 178.499 160.418C179.267 159.982 179.745 159.616 179.745 159.616C179.745 159.616 179.305 162.942 175.072 162.492C170.839 162.042 167.261 161.489 166.337 161.246C165.413 161.002 164.269 160.927 163.921 159.792C163.573 158.657 163.279 158.568 163.663 158.148C164.049 157.729 164.971 156.287 165.467 156.421C165.964 156.555 168.817 158.257 168.817 158.257V158.255Z" fill="white"/>
<path d="M167.865 150.531L166.857 156.116C166.857 156.116 168.357 156.29 169.565 155.907C170.773 155.524 171.323 153.276 171.397 153.095C171.471 152.913 170.55 151.596 170.55 151.596L167.865 150.531Z" fill="#E8DBD1"/>
<path d="M172.062 151.528L171.039 151.631L169.534 151.617L168.607 151.525L170.143 137.171C170.143 137.171 170.14 128.696 169.667 126.865C169.193 125.036 169.094 125.148 168.039 124.396C166.603 123.368 158.936 121.526 158.759 121.475C158.583 121.425 155.678 121.053 153.014 121.095C150.349 121.137 145.75 117.819 144.716 117.123C143.68 116.427 143.201 113.182 143.027 112.446C142.853 111.708 141.607 110.017 143.368 111.029C145.026 111.982 148.182 116.564 151.11 117.444C153.996 118.314 162.163 120.066 165.992 121.33C168.784 122.25 171.054 123.398 171.438 125.126C171.87 127.071 172.605 133.649 172.354 136.964C172.101 140.279 173.04 144.316 172.787 146.409C172.597 147.98 173.363 149.56 173.117 150.533C173.043 150.829 172.526 151.472 172.065 151.528H172.062Z" fill="#E0C448"/>
<path d="M160.252 153.322L158.307 163.316C158.307 163.316 159.282 163.064 161.142 162.659C162.89 162.278 165.365 158.513 165.478 158.242C165.59 157.971 164.301 154.93 164.301 154.93L160.254 153.325L160.252 153.322Z" fill="#E8DBD1"/>
<path d="M159.159 158.639C159.417 158.678 159.599 158.94 159.553 159.223C159.435 159.952 159.783 161.764 162.104 161.084C165.237 160.168 164.178 158.066 165.624 156.724C167.07 155.382 168.37 159.17 172.523 162.091C176.68 165.012 177.762 165.999 177.944 166.826C178.126 167.653 176.137 169.619 174.584 170.116C173.03 170.614 170.164 170.991 165.757 170.004C161.349 169.018 155.256 169.392 154.424 167.774C153.592 166.155 153.377 165.277 153.702 164.612C153.974 164.056 155.676 163.005 156.423 162.007C156.571 161.808 157.301 160.852 157.357 160.66C157.682 159.516 157.242 159.105 158.038 158.77C158.457 158.594 158.87 158.599 159.161 158.641L159.159 158.639Z" fill="#15B1FF"/>
<path d="M161.14 167.103C163.307 168.247 167.221 168.191 168.935 168.347C170.65 168.504 174.97 169.192 176.124 168.532C177.279 167.872 177.947 166.827 177.947 166.827C177.947 166.827 177.281 171.842 170.901 171.162C164.521 170.483 159.126 169.647 157.733 169.281C156.341 168.915 154.619 168.803 154.089 167.089C153.562 165.376 153.119 165.245 153.7 164.613C154.281 163.981 157.116 161.205 156.42 162.008C155.537 163.025 159.287 166.276 161.137 167.103H161.14Z" fill="white"/>
<path d="M127.997 113.162C127.997 113.162 125.391 120.961 127.646 123.128C129.901 125.294 142.549 131.332 148.428 131.122C154.306 130.913 161.058 129.945 160.866 132.157C160.674 134.368 156.277 155.78 156.277 155.78C156.277 155.78 155.957 156.537 158.181 156.909C160.574 157.309 162.511 156.045 162.511 156.045C162.511 156.045 163.453 155.584 164.513 155.654C164.986 155.685 165.943 155.897 166.86 156.121C168.05 156.412 168.938 156.546 169.102 155.226C169.793 149.661 170.151 138.158 170.151 136.537C170.151 133.381 170.583 125.859 168.37 124.598C166.153 123.335 158.591 120.768 154.158 121.126C150.782 121.397 147.345 118.434 145.968 117.506C145.536 117.216 145.175 116.816 144.914 116.338C144.33 115.27 143.283 113.277 143.314 112.746C143.358 112.008 137.661 111.941 136.895 111.765C136.13 111.589 132.184 111.035 132.184 111.035H129.097L127.999 113.168L127.997 113.162Z" fill="#F6D751"/>
<path d="M181.565 113.26L195.662 135.712C195.662 135.712 200.294 143.857 201.766 144.327C202.603 144.592 210.045 138.868 211.957 137.333C214.974 134.912 213.377 133.151 207.271 124.572C202.022 117.195 194.421 108.225 192.391 105.849C192.071 105.475 191.588 105.335 191.14 105.48C189.389 106.059 185.015 107.666 183.641 109.732C181.906 112.337 181.568 113.257 181.568 113.257L181.565 113.26Z" fill="#3EF0FB"/>
<path d="M216.628 195C227.754 195 236.774 185.148 236.774 172.995C236.774 160.842 227.754 150.99 216.628 150.99C205.501 150.99 196.481 160.842 196.481 172.995C196.481 185.148 205.501 195 216.628 195Z" fill="#393A38"/>
<path d="M216.627 186.891C223.332 186.891 228.766 180.669 228.766 172.995C228.766 165.321 223.332 159.1 216.627 159.1C209.923 159.1 204.489 165.321 204.489 172.995C204.489 180.669 209.923 186.891 216.627 186.891Z" fill="black"/>
<path d="M215.233 173.85L219.061 171.245L222.204 157.156C222.204 157.156 222.711 155.026 223.54 153.958C224.369 152.891 224.912 152.441 225.239 153.397C225.239 153.397 225.383 152.55 223.975 151.946C222.58 151.348 215.015 148.197 209.523 149.184C204.031 150.171 215.233 173.85 215.233 173.85Z" fill="#00DFF4"/>
<path d="M202.782 150.429L205.315 156.022L206.406 155.388L203.55 148.83L201.72 144.402L200.778 145.971L202.782 150.429Z" fill="#B7C4B7"/>
<path d="M214.9 173.738L207.921 155.298C207.831 155.063 207.598 154.934 207.371 154.996C206.733 155.172 205.472 155.566 204.647 156.119C204.353 156.318 204.113 156.536 203.979 156.771C203.506 157.601 210.321 168.391 214.084 174.23C214.406 174.731 215.112 174.303 214.9 173.738Z" fill="#1E1E1D"/>
<path d="M167.778 159.197C168.211 159.04 168.587 158.73 169.02 158.887C169.037 158.901 169.45 159.312 169.634 159.555C169.055 159.398 168.357 159.669 168.211 159.829C168.211 159.513 168.068 159.197 167.778 159.197Z" fill="#282625"/>
<path d="M169.078 160.933C169.367 160.617 170.079 160.436 170.514 160.436C170.808 160.628 170.908 160.807 171.062 160.936C170.483 160.936 169.802 161.252 169.513 161.568C169.513 161.411 169.37 161.095 169.081 160.936L169.078 160.933Z" fill="#282625"/>
<path d="M170.667 162.352C170.957 162.036 171.407 161.849 171.986 161.689C172.065 161.737 172.321 161.938 172.689 162.193C172.111 162.349 171.533 162.824 171.246 162.981C171.246 162.665 171.103 162.349 170.667 162.349V162.352Z" fill="#282625"/>
<path d="M172.546 163.457C172.835 162.985 173.122 162.814 173.554 162.814C173.844 162.999 173.928 163.086 174.066 163.181C173.634 163.497 173.268 163.93 173.122 164.086C172.979 163.77 172.833 163.455 172.543 163.455L172.546 163.457Z" fill="#282625"/>
<path d="M172.981 164.562C173.226 164.338 173.258 163.94 173.053 163.673C172.847 163.405 172.483 163.37 172.238 163.594C171.993 163.818 171.961 164.217 172.166 164.484C172.371 164.752 172.736 164.787 172.981 164.562Z" fill="black"/>
<path d="M167.671 160.39C167.99 160.39 168.249 160.108 168.249 159.759C168.249 159.41 167.99 159.127 167.671 159.127C167.351 159.127 167.092 159.41 167.092 159.759C167.092 160.108 167.351 160.39 167.671 160.39Z" fill="black"/>
<path d="M168.989 162.16C169.308 162.16 169.567 161.877 169.567 161.528C169.567 161.179 169.308 160.896 168.989 160.896C168.669 160.896 168.41 161.179 168.41 161.528C168.41 161.877 168.669 162.16 168.989 162.16Z" fill="black"/>
<path d="M170.621 162.286C171.051 162.174 171.43 162.585 171.325 163.055C171.277 163.276 171.11 163.457 170.908 163.51C170.478 163.622 170.099 163.211 170.204 162.742C170.253 162.521 170.419 162.339 170.621 162.286Z" fill="black"/>
<path d="M173.555 155.075C173.821 154.966 174.046 154.765 174.317 154.851C174.328 154.86 174.594 155.103 174.714 155.251C174.353 155.167 173.923 155.354 173.836 155.455C173.829 155.259 173.734 155.066 173.555 155.075Z" fill="#282625"/>
<path d="M174.399 156.12C174.57 155.916 175.011 155.785 175.279 155.773C175.466 155.885 175.53 155.994 175.63 156.07C175.272 156.084 174.854 156.296 174.683 156.5C174.68 156.402 174.583 156.21 174.401 156.12H174.399Z" fill="#282625"/>
<path d="M175.413 156.962C175.584 156.758 175.86 156.632 176.216 156.518C176.267 156.546 176.429 156.663 176.664 156.811C176.308 156.923 175.96 157.23 175.784 157.337C175.776 157.141 175.681 156.948 175.413 156.959V156.962Z" fill="#282625"/>
<path d="M176.603 157.6C176.771 157.298 176.945 157.186 177.214 157.178C177.398 157.287 177.452 157.337 177.539 157.393C177.278 157.6 177.058 157.877 176.974 157.98C176.876 157.787 176.782 157.597 176.603 157.603V157.6Z" fill="#282625"/>
<path d="M176.893 158.274C177.04 158.129 177.052 157.881 176.919 157.721C176.786 157.56 176.56 157.548 176.413 157.693C176.266 157.838 176.254 158.085 176.387 158.245C176.52 158.406 176.746 158.418 176.893 158.274Z" fill="black"/>
<path d="M173.509 155.822C173.707 155.814 173.861 155.633 173.854 155.417C173.847 155.201 173.68 155.032 173.483 155.04C173.285 155.048 173.13 155.23 173.138 155.446C173.145 155.662 173.311 155.83 173.509 155.822Z" fill="black"/>
<path d="M174.364 156.889C174.561 156.881 174.716 156.699 174.708 156.483C174.701 156.267 174.535 156.099 174.337 156.107C174.139 156.115 173.985 156.296 173.992 156.512C174 156.728 174.166 156.897 174.364 156.889Z" fill="black"/>
<path d="M175.384 156.92C175.648 156.839 175.891 157.085 175.837 157.378C175.812 157.515 175.712 157.633 175.589 157.672C175.325 157.753 175.082 157.507 175.136 157.213C175.162 157.076 175.261 156.959 175.384 156.92Z" fill="black"/>
<path d="M142.815 77.418C142.815 77.418 152.484 93.6028 165.613 94.2905C165.613 94.2905 171.95 94.4638 171.046 94.953C170.015 95.5093 167.924 97.4688 167.924 97.4688C167.924 97.4688 158.452 97.7595 156.814 96.373C155.176 94.9893 145.97 90.6678 145.745 89.7118C145.52 88.7558 142.51 85.4461 141.96 83.0477C141.412 80.6494 140.898 78.1895 140.898 78.1895L142.812 77.4208L142.815 77.418Z" fill="#F15A24"/>
<path d="M137.912 69.2441C137.912 69.2441 137.43 74.2561 136.404 75.6818C135.378 77.1074 140.517 76.8502 140.517 76.8502L141.615 76.867C141.615 76.867 140.952 75.2932 141.615 71.978C142.242 68.85 141.907 70.1945 141.894 69.9234L137.912 69.2441Z" fill="#F7E7E7"/>
<path d="M134.794 77.7205C135.145 76.4207 136.476 75.7666 137.599 76.3396C141.459 78.3075 141.638 77.7597 142.137 77.2593C142.715 76.6807 144.451 86.2295 146.183 89.0723C147.918 91.9124 145.881 94.5651 145.653 97.7015C145.589 98.5624 145.63 99.0712 145.707 99.3731C145.83 99.865 145.817 100.382 145.63 100.849C145.126 102.101 144.246 104.315 143.391 106.571C142.091 110.009 145.431 110.599 143.742 112.43C140.658 115.773 136.847 115.46 134.761 114.719C132.721 113.995 134.879 112.961 132.593 113.076C131.478 113.132 129.445 112.503 128.36 112.335C127.275 112.167 127.165 111.524 127.319 110.317L131.237 92.1332C131.25 92.0242 131.273 91.9151 131.301 91.8117L134.797 77.7233L134.794 77.7205Z" fill="#F15A24"/>
<path d="M166.378 105.159C166.289 105.137 166.232 105.098 166.161 105.042C165.703 104.679 164.101 103.382 163.205 103.396C162.23 103.412 161.864 103.354 160.231 103.555H159.028C158.944 103.577 157.93 103.558 157.866 103.493C157.731 103.351 157.787 102.982 157.951 102.4C158.191 101.542 158.304 101.12 158.593 100.888C159.046 100.519 162.179 100.122 164.536 100.863C164.536 100.863 164.812 100.846 166.258 102.247C167.786 103.725 168.556 105.313 168.605 105.554C168.695 105.984 168.421 105.833 168.421 105.833C168.421 105.833 168.093 105.699 167.919 105.461C167.622 105.053 167.305 104.614 167.272 104.556C167.22 104.463 166.207 103.097 166.207 103.097L168.152 105.805C168.167 105.828 168.185 105.844 168.198 105.869C168.275 106.012 168.395 106.535 167.845 106.124C167.379 105.777 166.796 104.975 166.204 104.304C165.979 104.05 165.948 104.019 165.751 103.854C164.945 103.183 165.26 103.415 165.26 103.415L166.268 104.449C166.268 104.449 166.719 104.799 166.624 105.073C166.593 105.162 166.534 105.204 166.378 105.165V105.159Z" fill="#D5C4BB"/>
<path d="M164.334 104.695C164.265 104.776 164.119 104.695 164.116 105.028C164.114 105.361 164.006 105.615 163.794 105.442C163.581 105.268 163.4 104.832 163.479 104.718C163.548 104.617 164.329 104.687 164.334 104.698V104.695Z" fill="#D5C4BB"/>
<path d="M154.662 103.048C154.662 103.048 152.136 102.509 149.978 101.818C146.014 100.547 144.537 100.463 143.67 99.1992C142.802 97.9357 140.634 96.0433 138.899 93.3597C137.164 90.6762 134.853 87.361 134.996 84.8368C135.14 82.3099 133.491 80.0345 134.791 78.2958C136.092 76.5599 136.534 73.9854 140.146 75.2489C143.759 76.5124 143.314 79.495 143.401 81.966C143.498 84.7753 145.039 88.9655 147.063 91.9621C149.088 94.9615 154.626 96.1718 157.661 98.0671C160.697 99.9623 160.976 100.259 160.976 100.259C160.976 100.259 160.553 100.376 160.32 102.386C160.131 104.038 157.915 103.551 157.523 103.73C157.426 103.775 157.313 103.77 157.211 103.742L154.662 103.051V103.048Z" fill="#F15A24"/>
<path d="M166.107 104.859C166.084 104.842 166.082 104.809 166.097 104.786C166.138 104.731 166.202 104.613 166.238 104.608C166.299 104.602 166.573 104.876 166.583 104.918C166.583 104.918 166.599 105.055 166.404 105.097L166.107 104.859Z" fill="#B7C4B7"/>
<path d="M167.687 105.771C167.687 105.771 167.822 105.483 167.899 105.578C167.976 105.673 168.178 105.913 168.165 106.003C168.152 106.092 168.145 106.173 168.068 106.162C167.991 106.151 167.689 105.774 167.689 105.774L167.687 105.771Z" fill="#B7C4B7"/>
<path d="M168.001 105.311C168.001 105.311 168.142 105.01 168.221 105.107C168.3 105.205 168.561 105.507 168.549 105.599C168.536 105.692 168.48 105.731 168.398 105.72C168.316 105.708 168.001 105.311 168.001 105.311Z" fill="#B7C4B7"/>
<path d="M137.72 64.0586C137.72 64.0586 136.642 66.1187 138.495 68.3494C138.495 68.3494 139.711 70.0909 140.174 71.5249C140.174 71.5249 140.55 72.7464 140.919 75.1029C141.095 76.2294 141.584 78.242 142.408 80.0674L143.514 81.8312C143.514 81.8312 141.546 80.537 140.448 78.0743C140.448 78.0743 139.017 75.5977 138.559 73.2636C138.559 73.2636 138.672 75.6256 137.382 76.7801C136.092 77.9345 134.792 78.2253 135.091 80.5006C135.091 80.5006 135.34 82.5832 135.918 84.7216L136.583 87.3296C136.583 87.3296 135.033 87.4386 133.436 86.7929C131.839 86.1472 129.471 85.1493 129.233 81.834C128.998 78.5216 131.444 75.525 132.266 73.504C133.087 71.483 131.977 68.8498 133.425 65.5457C133.425 65.5457 135.383 65.8923 137.722 64.0642L137.72 64.0586Z" fill="#563324"/>
<path d="M129.23 81.8291C129.097 79.9814 129.801 78.2315 130.592 76.6969C128.992 82.0611 130.576 83.1988 130.576 83.1988C130.497 78.539 132.67 76.8674 132.67 76.8674C130.976 79.4083 131.408 81.9576 132.056 83.7522C132.805 85.8292 134.456 85.4714 134.456 85.4714L133.97 84.0262C132.931 81.3539 133.494 78.1197 134.175 77.7675C134.853 77.4153 136.493 75.534 136.967 73.8093C137.44 72.0846 136.409 66.2871 136.409 66.2871C137.225 66.603 139.14 74.497 139.14 74.497C139.14 74.497 139.14 74.7737 139.14 75.2517C138.904 74.6172 138.689 73.9323 138.559 73.2586C138.559 73.2586 138.671 75.6207 137.381 76.7751C136.092 77.9296 134.791 78.2203 135.091 80.4957C135.091 80.4957 135.339 82.5782 135.918 84.7166L136.583 87.3247C136.583 87.3247 135.032 87.4337 133.435 86.788C131.838 86.1422 129.471 85.1443 129.233 81.8291H129.23Z" fill="#422720"/>
<path d="M145.443 59.1964C145.443 59.1964 145.64 61.6479 145.63 62.5564C145.62 63.4648 145.223 64.4628 145.185 65.3237C145.146 66.1847 145.523 67.2413 145.484 67.5488C145.454 67.7948 144.555 68.2337 144.87 68.4992C145.185 68.7648 144.379 68.8906 144.704 68.8794C144.926 68.8738 144.96 69.1282 144.745 69.1561C144.53 69.1841 144.317 69.7739 144.353 69.8913C144.389 70.0087 144.589 72.5944 142.564 71.8061C140.54 71.0178 138.464 70.0003 138.336 69.6397C138.208 69.2791 136.985 65.8856 136.985 65.8856C136.985 65.8856 137 60.144 137.09 59.9847C137.179 59.8253 138.247 58.151 138.247 58.151L139.368 57.5388L142.257 57.0859H144.01L145.057 58.2292L145.441 59.1936L145.443 59.1964Z" fill="#F7E7E7"/>
<path d="M140 71.9173C140.691 72.1326 141.062 71.0424 140.427 70.6762C139.862 70.3519 139.329 69.9774 139.368 69.7398C139.445 69.2394 141.011 68.194 140.745 67.6097C140.479 67.0255 140.821 64.8536 139.675 64.5628C138.528 64.2721 138.528 64.479 138.413 63.8528C138.298 63.2267 137.801 61.6389 139.178 60.8059C140.555 59.9701 140.783 59.0533 142.925 59.0533C145.067 59.0533 145.533 60.272 145.533 60.3978C145.533 60.5236 146.326 60.0568 146.518 59.0533C146.71 58.0498 146.06 54.1671 142.045 52.5821C138.278 51.0922 133.937 52.9064 132.975 53.2977C132.934 53.3145 132.389 53.7002 132.35 53.7282C131.879 54.0944 128.742 56.7248 129.276 61.2252C129.85 66.0695 131.419 66.6537 131.877 66.9864C132.335 67.319 134.554 69.2003 135.278 69.5329C136.002 69.8656 139.255 71.6629 139.979 71.9117C139.987 71.9117 139.995 71.9173 140.002 71.9201L140 71.9173Z" fill="#00DFF4"/>
<path d="M144.886 68.7561C145.003 68.6722 144.939 68.4766 144.855 68.4766C144.512 68.4766 143.76 68.6862 143.568 68.6778C143.371 68.6666 144.341 69.0692 144.666 69.1418C144.707 69.1502 144.714 69.153 144.786 69.1614C144.957 69.181 145.044 68.8987 144.822 68.8595C144.719 68.8427 144.824 68.8036 144.886 68.7589V68.7561Z" fill="#F7CDCD"/>
<path d="M172.869 81.6523C172.869 81.6523 173.642 81.834 173.496 82.8739C173.35 83.9138 172.129 85.7726 171.589 86.027C171.049 86.2814 170.509 85.9208 170.509 85.9208L172.872 81.6523H172.869Z" fill="black"/>
<path d="M172.319 84.2067C172.998 83.0285 173.3 81.9019 172.993 81.6905C172.685 81.479 171.885 82.2627 171.206 83.4409C170.526 84.6191 170.224 85.7457 170.532 85.9571C170.839 86.1686 171.639 85.3849 172.319 84.2067Z" fill="white"/>
<path d="M172.265 85.3615L173.444 91.746L173.749 93.7977H174.171L172.538 84.9785L172.265 85.3615Z" fill="black"/>
<path d="M160.83 91.6382C160.83 91.6382 165.296 95.5489 165.321 95.6355C165.347 95.7222 165.321 98.319 165.321 98.319H165.928V95.5489L163.868 93.6732L160.405 90.8164L160.208 91.1351L160.83 91.641V91.6382Z" fill="black"/>
<path d="M158.557 92.1986C159.958 92.1986 161.094 90.9133 161.094 89.3278C161.094 87.7423 159.958 86.457 158.557 86.457C157.157 86.457 156.021 87.7423 156.021 89.3278C156.021 90.9133 157.157 92.1986 158.557 92.1986Z" fill="black"/>
<path d="M167.064 91.8885C167.064 91.8885 170.565 93.7195 170.529 94.491C170.494 95.2625 168.415 96.6238 167.507 96.99C166.429 97.4233 165.759 97.2528 165.68 97.686C165.649 97.8537 165.705 97.9292 165.708 98.0466C165.713 98.2087 165.838 98.3317 165.984 98.3178C166.493 98.2674 167.594 97.8146 167.97 97.6385C168.39 97.4428 170.693 96.0871 171.052 94.927C171.348 93.9711 170.867 93.4986 169.57 92.2268C168.272 90.9549 167.939 90.4434 167.939 90.4434L167.067 91.8885H167.064Z" fill="black"/>
<path d="M166.614 87.1454H169.007C169.396 87.1454 169.644 87.5898 169.452 87.9532L166.396 93.7759C166.268 94.0191 165.987 94.1197 165.746 94.0079L163.906 93.1553C163.632 93.0295 163.52 92.6801 163.66 92.4006L166.163 87.4305C166.253 87.2544 166.424 87.1426 166.614 87.1426V87.1454Z" fill="#99DB26"/>
<path d="M167.018 87.248H169.017C169.496 87.248 169.798 87.8099 169.565 88.2655L166.788 93.7052C166.632 94.0127 166.286 94.1413 165.989 93.9987L164.459 93.272C164.124 93.1126 163.983 92.6738 164.157 92.3215L166.465 87.6114C166.575 87.3878 166.788 87.2508 167.018 87.2508V87.248Z" fill="black"/>
<path d="M168.787 96.9208C168.787 96.9208 169.483 93.9046 170.942 92.5405C172.4 91.1764 173.723 90.4273 174.407 91.4755L175.07 93.2505C175.07 93.2505 171.886 95.1989 171.077 95.7691C170.268 96.3394 168.856 97.1081 168.856 97.1081L168.787 96.9208Z" fill="#1E1E1E"/>
<path d="M174.668 93.3262L174.002 91.5428C173.977 91.4702 173.91 91.4282 173.839 91.4366C173.56 91.4702 172.871 91.6043 172.559 92.1382C172.533 92.183 172.531 92.2445 172.549 92.2948L173.245 94.162C173.281 94.2571 173.386 94.299 173.467 94.2459L174.596 93.5387C174.665 93.4968 174.693 93.4045 174.663 93.3262H174.668Z" fill="white"/>
<path d="M176.299 92.5498C176.299 92.5498 178.456 90.9788 178.771 90.9844C179.086 90.99 179.897 91.1661 179.523 91.9795L177.394 94.1012L175.321 95.8203L174.906 94.1096L175.067 93.2234L176.299 92.547V92.5498Z" fill="black"/>
<ellipse opacity="0.7" cx="122.957" cy="187.63" rx="17.51" ry="1.39415" fill="url(#paint0_radial_22158_427254)"/>
<ellipse opacity="0.7" cx="207.405" cy="194.662" rx="17.51" ry="1.39415" fill="url(#paint1_radial_22158_427254)"/>
</g>
<defs>
<radialGradient id="paint0_radial_22158_427254" cx="0" cy="0" r="1" gradientUnits="userSpaceOnUse" gradientTransform="translate(122.957 187.63) rotate(90) scale(1.39415 17.51)">
<stop/>
<stop offset="1" stop-color="#D9D9D9" stop-opacity="0"/>
</radialGradient>
<radialGradient id="paint1_radial_22158_427254" cx="0" cy="0" r="1" gradientUnits="userSpaceOnUse" gradientTransform="translate(207.405 194.662) rotate(90) scale(1.39415 17.51)">
<stop/>
<stop offset="1" stop-color="#D9D9D9" stop-opacity="0"/>
</radialGradient>
<clipPath id="clip0_22158_427254">
<rect width="151.753" height="143" fill="white" transform="translate(85.0186 52)"/>
</clipPath>
</defs>
</svg>
