<svg width="356" height="233" viewBox="0 0 356 233" fill="none" xmlns="http://www.w3.org/2000/svg">
<path opacity="0.4" d="M150 135.5L101.5 79C100.667 82 98.2 89.9 95 97.5C91.8 105.1 82.3333 115 78 119L79.5 119.5L150 135.5Z" fill="#68FCFF"/>
<path d="M187.815 214.594C280.497 214.594 355.63 206.947 355.63 197.513C355.63 188.079 280.497 180.432 187.815 180.432C95.1333 180.432 20 188.079 20 197.513C20 206.947 95.1333 214.594 187.815 214.594Z" fill="#F3F3F3"/>
<circle cx="74.5" cy="69.5" r="57" fill="#F3F3F3" stroke="#CCCDD0"/>
<path d="M67.9053 41.3965H67.5271C67.0761 41.3965 66.7104 41.7954 66.7104 42.2876V49.2844C66.7104 49.7765 67.0761 50.1755 67.5271 50.1755H67.9053C68.3564 50.1755 68.722 49.7765 68.722 49.2844V42.2876C68.722 41.7954 68.3564 41.3965 67.9053 41.3965Z" fill="#231F20"/>
<path d="M104.431 40H68.146V40.9218C68.8219 40.9218 69.3731 41.5232 69.3731 42.265V49.2355C69.3731 49.9773 68.8259 50.5743 68.146 50.5787V51.5005H74.245C76.4014 51.5005 78.4734 52.431 80.0102 54.0859L83.2408 57.5755C85.8357 60.376 89.3358 61.9474 92.9848 61.9474H104.427C106.394 61.9474 107.987 60.2092 107.987 58.0627V43.8891C107.995 41.7426 106.398 40 104.431 40Z" fill="#231F20"/>
<path d="M77.3429 63.2188H57.5732C56.3667 63.2188 55.3887 64.2859 55.3887 65.6022V74.0037C55.3887 75.3201 56.3667 76.3872 57.5732 76.3872H77.3429C78.5494 76.3872 79.5274 75.3201 79.5274 74.0037V65.6022C79.5274 64.2859 78.5494 63.2188 77.3429 63.2188Z" fill="#2B2D33"/>
<path d="M73.4927 63.2188H61.4233V76.3872H73.4927V63.2188Z" fill="#231F20"/>
<path d="M104.431 40H68.146V40.9218C68.8018 40.9218 69.3288 41.488 69.365 42.1947H102.057C104.024 42.1947 105.617 43.5862 105.617 45.3069V56.6318C105.617 58.3481 104.024 59.7395 102.061 59.7439L91.0376 59.7571C88.3139 59.7571 85.6747 59.0635 83.4298 57.7774C86.0046 60.4506 89.4203 61.9518 92.9807 61.9518H104.423C106.39 61.9518 107.983 60.2136 107.983 58.0671V43.8891C107.987 41.7426 106.394 40 104.423 40H104.431Z" fill="#2B2D33"/>
<path d="M31.0004 40H67.285V40.9218C66.6091 40.9218 66.0579 41.5232 66.0579 42.265V49.2355C66.0579 49.9773 66.605 50.5743 67.285 50.5787V51.5005H61.1859C59.0295 51.5005 56.9576 52.431 55.4208 54.0859L52.1902 57.5755C49.5953 60.376 46.0952 61.9474 42.4462 61.9474H31.0044C29.0371 61.9474 27.444 60.2092 27.4399 58.0627V43.8891C27.4399 41.7426 29.0331 40 31.0004 40Z" fill="#231F20"/>
<path d="M31.0004 40H67.285V40.9218C66.6292 40.9218 66.1022 41.488 66.066 42.1947H33.374C31.4067 42.1947 29.8136 43.5862 29.8136 45.3069V56.6318C29.8136 58.3481 31.4067 59.7395 33.37 59.7439L44.3934 59.7571C47.117 59.7571 49.7562 59.0635 52.0011 57.7774C49.4263 60.4506 46.0107 61.9518 42.4502 61.9518H31.0044C29.0371 61.9474 27.444 60.2092 27.4399 58.0627V43.8891C27.4399 41.7426 29.0331 40 31.0004 40Z" fill="#2B2D33"/>
<path d="M67.9053 89.2891H67.5271C67.0761 89.2891 66.7104 89.688 66.7104 90.1801V97.177C66.7104 97.6691 67.0761 98.068 67.5271 98.068H67.9053C68.3564 98.068 68.722 97.6691 68.722 97.177V90.1801C68.722 89.688 68.3564 89.2891 67.9053 89.2891Z" fill="#231F20"/>
<path d="M104.431 99.465H68.146V98.5432C68.8219 98.5432 69.3731 97.9419 69.3731 97.2V90.2295C69.3731 89.4877 68.8259 88.8907 68.146 88.8863V87.9646H74.2451C76.4014 87.9646 78.4734 87.034 80.0102 85.3791L83.2408 81.8895C85.8357 79.089 89.3358 77.5176 92.9848 77.5176H104.427C106.394 77.5176 107.987 79.2558 107.987 81.4023V95.5759C107.991 97.7224 106.398 99.465 104.427 99.465H104.431Z" fill="#231F20"/>
<path d="M104.431 99.4635H68.146V98.5417C68.8018 98.5417 69.3288 97.9755 69.365 97.2688H102.057C104.024 97.2688 105.617 95.8773 105.617 94.1566V82.8318C105.617 81.1155 104.024 79.724 102.061 79.7196L91.0376 79.7065C88.3139 79.7065 85.6747 80.4 83.4298 81.6861C86.0046 79.0129 89.4203 77.5117 92.9807 77.5117H104.423C106.39 77.5117 107.983 79.25 107.983 81.3964V95.5701C107.987 97.7165 106.394 99.4592 104.423 99.4592L104.431 99.4635Z" fill="#2B2D33"/>
<path d="M31.0004 99.465H67.285V98.5432C66.6091 98.5432 66.0579 97.9419 66.0579 97.2V90.2295C66.0579 89.4877 66.6051 88.8907 67.285 88.8863V87.9646H61.1859C59.0295 87.9646 56.9576 87.034 55.4208 85.3791L52.1902 81.8895C49.5953 79.089 46.0952 77.5176 42.4462 77.5176H31.0044C29.0371 77.5176 27.444 79.2558 27.4399 81.4023V95.5759C27.4359 97.7224 29.0291 99.465 31.0004 99.465Z" fill="#231F20"/>
<path fill-rule="evenodd" clip-rule="evenodd" d="M35.9097 86.0898H37.0276L37.1454 86.2186C37.9477 87.095 39.0416 87.5885 40.1811 87.5885H42.8774V89.6654H40.1811C39.0423 89.6654 37.9532 90.1585 37.1445 91.0363L37.0268 91.1641H35.9097V86.0898ZM36.7143 86.9843V90.2704C37.6571 89.3197 38.8918 88.7875 40.1811 88.7875H42.0727V88.4664H40.1811C38.8931 88.4664 37.6535 87.9352 36.7143 86.9843Z" fill="#FDFDFD"/>
<path fill-rule="evenodd" clip-rule="evenodd" d="M43.2703 88.1982C43.0535 88.1982 42.8769 88.3904 42.8769 88.6285C42.8769 88.8666 43.0535 89.0588 43.2703 89.0588C43.4872 89.0588 43.6638 88.8666 43.6638 88.6285C43.6638 88.3904 43.4872 88.1982 43.2703 88.1982ZM42.0723 88.6285C42.0723 87.9065 42.6082 87.3203 43.2703 87.3203C43.9325 87.3203 44.4684 87.9065 44.4684 88.6285C44.4684 89.3505 43.9325 89.9367 43.2703 89.9367C42.6082 89.9367 42.0723 89.3505 42.0723 88.6285Z" fill="#FDFDFD"/>
<path fill-rule="evenodd" clip-rule="evenodd" d="M41.3929 90.5741C41.0148 90.8362 40.5071 91.0059 39.9576 91.0491C39.4073 91.0922 38.8825 91.0018 38.4742 90.7997C38.0823 90.6057 37.7018 90.2527 37.667 89.7256L38.4695 89.6625C38.4731 89.7169 38.5262 89.8614 38.8066 90.0002C39.0705 90.1308 39.4568 90.2082 39.8999 90.1734C40.3437 90.1386 40.7168 90.0027 40.9616 89.8331C41.2216 89.6528 41.2542 89.5028 41.2507 89.4498L42.0532 89.3867C42.0881 89.9152 41.7557 90.3227 41.3929 90.5741Z" fill="#FDFDFD"/>
<path fill-rule="evenodd" clip-rule="evenodd" d="M34.66 87.8249C34.806 87.5574 35.0647 87.2891 35.4282 87.2891V88.167C35.4338 88.167 35.4374 88.1664 35.4392 88.1659C35.4321 88.1689 35.3985 88.1877 35.3513 88.2741C35.2859 88.394 35.2324 88.5879 35.2324 88.8251C35.2324 89.0622 35.2859 89.2561 35.3513 89.376C35.3985 89.4624 35.4321 89.4812 35.4392 89.4842C35.4374 89.4838 35.4338 89.4832 35.4282 89.4832V90.3611C35.0647 90.3611 34.806 90.0927 34.66 89.8252C34.5087 89.548 34.4277 89.1934 34.4277 88.8251C34.4277 88.4567 34.5087 88.1021 34.66 87.8249ZM35.4406 89.4847C35.4406 89.4847 35.4401 89.4846 35.4392 89.4842C35.4402 89.4844 35.4406 89.4846 35.4406 89.4847ZM35.4406 88.1655C35.4406 88.1655 35.4402 88.1657 35.4392 88.1659C35.4401 88.1655 35.4406 88.1654 35.4406 88.1655Z" fill="#FDFDFD"/>
<path fill-rule="evenodd" clip-rule="evenodd" d="M33.4051 87.3875C33.6132 87.0081 33.9571 86.6719 34.413 86.6719V87.5498C34.3531 87.5498 34.2278 87.5972 34.0956 87.8383C33.9686 88.0697 33.8769 88.4177 33.8769 88.8253C33.8769 89.2329 33.9686 89.5809 34.0956 89.8124C34.2278 90.0534 34.3531 90.1009 34.413 90.1009V90.9788C33.9571 90.9788 33.6132 90.6426 33.4051 90.2632C33.1918 89.8742 33.0723 89.3649 33.0723 88.8253C33.0723 88.2858 33.1918 87.7765 33.4051 87.3875Z" fill="#FDFDFD"/>
<path d="M31.0004 99.4635H67.285V98.5417C66.6292 98.5417 66.1022 97.9755 66.066 97.2688H33.3741C31.4067 97.2688 29.8136 95.8773 29.8136 94.1566V82.8318C29.8136 81.1155 31.4067 79.724 33.37 79.7196L44.3934 79.7065C47.117 79.7065 49.7562 80.4 52.0011 81.6861C49.4263 79.0129 46.0107 77.5117 42.4502 77.5117H31.0044C29.0371 77.5161 27.444 79.2543 27.4399 81.4008V95.5745C27.4359 97.7209 29.0291 99.4635 31.0004 99.4635Z" fill="#2B2D33"/>
<g clip-path="url(#clip0_22158_427206)">
<path fill-rule="evenodd" clip-rule="evenodd" d="M47.1083 47.1699H49.4282C50.8219 47.1699 52.0716 48.3781 52.0458 49.9516C52.0206 51.6334 50.7074 53.0167 49.1868 53.0167H46.6633L46.5504 52.781C45.7145 51.0348 45.7883 49.6635 46.112 48.7097C46.2711 48.2407 46.4859 47.8865 46.6627 47.6477C46.7512 47.5282 46.8307 47.4368 46.8901 47.3736C46.9198 47.342 46.9445 47.3173 46.9629 47.2996C46.9721 47.2908 46.9797 47.2836 46.9855 47.2782L46.993 47.2714L46.9957 47.269L46.9968 47.268L46.9973 47.2676C46.9975 47.2674 46.9977 47.2672 47.2503 47.6089L46.9977 47.2672L47.1083 47.1699ZM47.4104 48.0478C47.3761 48.087 47.3344 48.1375 47.2886 48.1994C47.1554 48.3793 46.9897 48.6516 46.8666 49.0145C46.6382 49.6874 46.5383 50.723 47.1558 52.1388H49.1868C50.2731 52.1388 51.2235 51.1345 51.2413 49.9369L51.2413 49.9362C51.2582 48.9112 50.4268 48.0478 49.4282 48.0478H47.4104Z" fill="white"/>
<path fill-rule="evenodd" clip-rule="evenodd" d="M41.1836 47.1699H45.8021V48.0478H41.1836V47.1699Z" fill="white"/>
<path fill-rule="evenodd" clip-rule="evenodd" d="M41.1836 49.6562H45.55V50.5341H41.1836V49.6562Z" fill="white"/>
<path fill-rule="evenodd" clip-rule="evenodd" d="M41.1836 52.1445H45.8021V53.0224H41.1836V52.1445Z" fill="white"/>
</g>
<g clip-path="url(#clip1_22158_427206)">
<path d="M39.195 75.9947L34.2793 70.2884L39.195 64.582V68.1389H42.7279V72.4378H39.195V75.9947ZM35.883 70.2884L38.0329 72.7833V71.1584H41.5657V69.4183H38.0329V67.7934L35.883 70.2884Z" fill="#00DFF4"/>
</g>
<path d="M96.1472 64.144L101.063 69.8503L96.1472 75.5566V71.9998H92.6144V67.7008H96.1472V64.144ZM99.4593 69.8503L97.3094 67.3554V68.9803H93.7765V70.7203H97.3094V72.3452L99.4593 69.8503Z" fill="#00DFF4"/>
<path d="M70.3096 59.3135V54.7344H72.9552V55.6052H71.2558V56.6657H72.7106V57.5366H71.2558V59.3135H70.3096Z" fill="black"/>
<path d="M66.9341 59.3135V54.7344H69.5797V55.6052H67.8803V56.6657H69.3351V57.5366H67.8803V59.3135H66.9341Z" fill="black"/>
<path d="M64.2398 59.3961C63.8622 59.3961 63.5296 59.3001 63.2421 59.1082C62.9589 58.9162 62.7357 58.6423 62.5726 58.2864C62.4139 57.9259 62.3345 57.4975 62.3345 57.0012C62.3345 56.5002 62.4139 56.0765 62.5726 55.73C62.7357 55.3788 62.9589 55.112 63.2421 54.9294C63.5296 54.7421 63.8622 54.6484 64.2398 54.6484C64.6175 54.6484 64.9479 54.7421 65.2311 54.9294C65.5186 55.112 65.7418 55.3788 65.9006 55.73C66.0636 56.0812 66.1452 56.5049 66.1452 57.0012C66.1452 57.4975 66.0636 57.9259 65.9006 58.2864C65.7418 58.6423 65.5186 58.9162 65.2311 59.1082C64.9479 59.3001 64.6175 59.3961 64.2398 59.3961ZM64.2398 58.5042C64.5273 58.5042 64.7548 58.3684 64.9221 58.0968C65.0895 57.8253 65.1732 57.4601 65.1732 57.0012C65.1732 56.5424 65.0895 56.1842 64.9221 55.9267C64.7548 55.6691 64.5273 55.5404 64.2398 55.5404C63.9523 55.5404 63.7249 55.6691 63.5575 55.9267C63.3901 56.1842 63.3065 56.5424 63.3065 57.0012C63.3065 57.4601 63.3901 57.8253 63.5575 58.0968C63.7249 58.3684 63.9523 58.5042 64.2398 58.5042Z" fill="black"/>
<g clip-path="url(#clip2_22158_427206)">
<path d="M36.2907 53.7959V52.6621C36.2907 52.5083 36.1781 52.3809 36.0332 52.3809H33.3297C33.1889 52.3809 33.0722 52.5039 33.0722 52.6621V53.8003C33.0722 54.0069 32.9153 54.1739 32.7182 54.1739H32.3923C32.3239 54.1739 32.2676 54.231 32.2676 54.3057V54.8946C32.2676 54.9649 32.3199 55.0264 32.3883 55.0264H36.9746C37.043 55.0264 37.0993 54.9649 37.0993 54.8902V54.3057C37.0993 54.2354 37.043 54.1739 36.9746 54.1739H36.6447C36.4516 54.1739 36.2907 54.0069 36.2907 53.8003V53.7959Z" fill="#F9F9F9"/>
</g>
<g clip-path="url(#clip3_22158_427206)">
<path d="M36.2907 47.7341V45.8277C36.2907 45.7605 36.2344 45.7051 36.166 45.7051H33.1969C33.1285 45.7051 33.0722 45.7605 33.0722 45.8277V47.7341C33.0722 47.9239 32.9153 48.0821 32.7182 48.0821H32.3923C32.3239 48.0821 32.2676 48.1375 32.2676 48.2047V48.7545C32.2676 48.8217 32.3239 48.8771 32.3923 48.8771H36.9746C37.043 48.8771 37.0993 48.8217 37.0993 48.7545V48.2047C37.0993 48.1375 37.043 48.0821 36.9746 48.0821H36.6447C36.4516 48.0821 36.2907 47.9279 36.2907 47.7341Z" fill="#F9F9F9"/>
</g>
<g clip-path="url(#clip4_22158_427206)">
<path d="M96.6727 164.134C96.6602 164.124 96.6476 164.115 96.6369 164.105C96.3846 163.884 93.4643 161.333 92.7647 160.906C92.0328 160.46 91.2491 160.377 91.5014 159.625C91.7537 158.873 93.2514 157.82 93.7757 157.625C94.2409 157.451 95.1571 157.068 95.3539 156.985C95.379 156.975 95.4022 156.964 95.4255 156.948C95.583 156.853 96.2343 156.466 96.4025 156.48C96.594 156.494 97.7052 155.195 98.9846 157.218C100.264 159.244 100.736 159.392 100.736 159.728C100.736 160.044 99.7075 163.175 97.8072 164.509C97.605 164.652 97.3455 164.64 97.1487 164.492L96.6727 164.136V164.134Z" stroke="black" stroke-width="4" stroke-miterlimit="10"/>
<path d="M101.17 165.406C101.17 165.406 97.7734 166.336 98.1885 164.031C98.6036 161.727 99.0868 159.058 101.714 159.019C104.34 158.977 104.616 160.093 107.52 161.356C110.424 162.62 110.823 162.995 116.077 163.143C121.331 163.291 122.968 163.329 123.868 163.254C124.768 163.179 125.632 167.599 125.079 168.788C124.526 169.976 120.155 169.009 119.903 168.894C119.65 168.78 105.378 166.187 103.651 165.666C101.923 165.145 101.171 165.406 101.171 165.406H101.17Z" fill="#131315"/>
<path d="M91.0455 159.928C91.0455 159.928 89.7572 160.402 88.9985 159.928C88.2398 159.454 84.3497 158.06 83.2886 158.228C82.2275 158.396 81.186 157.551 81.186 157.551C81.186 157.551 85.4591 158.226 87.6582 158.307C89.8574 158.388 90.9185 157.993 91.2728 158.39C91.6271 158.787 91.5841 158.887 91.3998 159.306C91.2155 159.725 91.0455 159.928 91.0455 159.928Z" fill="#1E1E1E"/>
<path d="M121.066 168.214C121.066 168.214 114.728 185.486 113.659 185.456C112.591 185.426 112.19 190.031 112.09 190.495C111.99 190.958 110.514 193.199 114.1 193.979C117.687 194.759 134.461 198.161 134.461 198.161C134.461 198.161 138.049 198.941 140.221 198.439C142.393 197.938 144.213 196.935 145.072 196.822C145.931 196.71 149.519 191.75 150.58 190.299C151.641 188.85 162.1 171.29 162.2 170.398C162.3 169.506 160.904 167.32 160.096 165.257C159.287 163.194 153.148 154.321 153.148 154.321L147.395 147.526C147.395 147.526 146.62 147.042 145.947 147.526C145.274 148.009 143.877 149.512 143.777 150.292C143.676 151.071 143.574 153.859 143.676 154.305C143.778 154.752 145.983 159.75 145.983 159.75C145.983 159.75 141.046 158.969 140.946 159.806C140.846 160.643 141.121 164.351 141.218 166.52C141.314 168.69 141.366 169.371 141.218 170.236C141.119 170.809 137.897 185.59 137.897 185.59L125.571 181.043L126.851 167.334L126.06 167.719L121.318 167.288L121.068 168.212L121.066 168.214Z" fill="black"/>
<path d="M150.516 169.46L141.084 153.628C141.084 153.628 139.047 150.22 138.659 150.953C138.271 151.683 138.559 154.967 138.559 154.967C138.559 154.967 142.365 163.513 143.24 165.15C144.115 166.785 144.924 171.393 144.924 171.393L142.095 181.649L143.24 189.379L143.812 189.677L147.955 181.649L152.969 173.207L150.516 169.46Z" fill="#00DFF4"/>
<path d="M161.121 178.496L159.616 175.009L160.008 174.521L160.922 176.841L161.638 178.496H161.121Z" fill="#B7C4B7"/>
<path d="M139.454 156.967C139.454 156.967 137.407 152.745 136.447 151.211C135.488 149.679 135.166 149.454 133.72 148.386C132.559 147.527 131.154 145.585 130.687 145.33C129.888 144.892 126.89 147.273 126.688 147.16C126.486 147.048 127.209 145.887 127.177 145.553C127.143 145.198 126.507 145.083 126.065 145.33C125.887 145.429 124.317 146.485 123.625 146.951C123.337 147.144 122.956 147.042 122.791 146.714C122.723 146.58 122.675 146.41 122.669 146.193C122.644 145.385 124.194 144.378 124.194 144.378L127.508 140.673C127.508 140.673 129.807 138.072 132.366 137.476C134.927 136.882 136.032 136.876 136.741 137.247C137.45 137.618 141.57 140.445 142.479 141.415C143.388 142.384 146.015 145.373 145.543 145.768C145.071 146.163 142.723 146.923 142.227 147.19C141.791 147.425 140.862 148.135 140.862 148.135C140.624 148.495 140.062 148.67 139.312 150.886C139.076 151.585 138.539 150.599 138.459 152.738C138.407 154.102 139.455 156.959 139.455 156.959L139.454 156.967Z" fill="black"/>
<path d="M97.1613 156.927C97.1613 156.927 93.2211 159.331 89.8517 159.404C86.4841 159.479 77.793 158.401 76.1092 157.286C74.4254 156.17 71.9668 151.637 71.9328 150.299C71.8988 148.96 71.9328 148.552 71.9328 148.552C71.9328 148.552 71.226 148.366 71.3602 147.288C71.4944 146.21 71.4282 145.987 71.7986 145.876C72.169 145.766 72.6414 145.691 72.6414 145.691C72.6414 145.691 72.9438 144.056 73.5164 143.387C74.089 142.717 76.6818 140.785 78.3334 139.782C79.985 138.779 85.0024 136.698 89.9537 136.921C94.9049 137.144 98.2725 136.698 99.5537 140.601C99.5537 140.601 100.362 143.797 100.531 144.317C100.699 144.836 100.901 146.137 100.294 147.959C99.6879 149.78 98.4765 155.333 98.0291 156.032C97.5818 156.731 97.1613 156.927 97.1613 156.927Z" fill="#1E1E1E"/>
<path d="M71.7986 145.878C71.7986 145.878 85.6932 146.509 87.8655 146.176C90.0378 145.842 100.289 143.453 100.289 143.453L100.651 144.863C100.651 144.863 90.9468 147.457 89.3292 147.457C87.7116 147.457 71.5463 146.584 71.5463 146.584L71.439 146.578L71.4783 146.284C71.4783 146.284 71.498 146.18 71.5123 146.14C71.5266 146.101 71.5535 146.045 71.5553 146.043C71.5571 146.041 71.5911 145.988 71.6215 145.964C71.6519 145.941 71.7306 145.901 71.7432 145.895C71.7557 145.889 71.7968 145.878 71.7968 145.878H71.7986Z" fill="#070707"/>
<path d="M71.4406 146.579C71.4406 146.579 71.2349 148.066 71.5838 148.31C71.9327 148.555 78.9739 149.284 78.9739 149.284C78.9739 149.284 88.8263 149.744 89.483 149.688C90.1397 149.633 100.294 147.961 100.294 147.961C100.294 147.961 100.727 145.574 100.69 145.219C100.652 144.863 100.613 144.873 100.613 144.873C100.613 144.873 92.7164 146.915 91.3904 147.151C90.0645 147.388 74.7564 146.65 74.7564 146.65L71.4424 146.579H71.4406Z" fill="#3D3D3D"/>
<path d="M99.2763 146.733C99.2763 146.733 101.246 146.342 101.348 146.036C101.45 145.73 101.323 145.061 100.994 145.061C100.665 145.061 98.9739 145.552 98.9739 145.552L98.7896 145.613C98.4872 145.714 98.3029 146.062 98.3888 146.395C98.3888 146.401 98.3924 146.405 98.3924 146.411L98.532 146.94L99.2763 146.731V146.733Z" fill="white"/>
<path d="M91.09 149.056C91.09 149.056 93.0869 148.9 93.2175 148.606C93.3482 148.312 93.2873 147.633 92.9599 147.595C92.6342 147.556 90.9021 147.848 90.9021 147.848L90.7124 147.888C90.401 147.951 90.1863 148.275 90.2382 148.618C90.2382 148.624 90.2382 148.628 90.24 148.634L90.3277 149.177L91.0882 149.056H91.09Z" fill="white"/>
<path d="M99.1761 203.234C106.365 203.234 112.192 196.804 112.192 188.873C112.192 180.941 106.365 174.512 99.1761 174.512C91.9876 174.512 86.1602 180.941 86.1602 188.873C86.1602 196.804 91.9876 203.234 99.1761 203.234Z" fill="#393A38"/>
<path d="M97.8502 197.853C102.182 197.853 105.693 193.792 105.693 188.783C105.693 183.774 102.182 179.713 97.8502 179.713C93.5187 179.713 90.0073 183.774 90.0073 188.783C90.0073 193.792 93.5187 197.853 97.8502 197.853Z" fill="black"/>
<path d="M120.275 171.523L113.998 186.046C113.708 186.72 113.042 187.091 112.378 186.951L108.905 186.22C108.49 186.133 108.136 185.851 107.914 185.454C107.581 184.856 106.93 183.981 105.824 183.563C104.12 182.919 88.8338 177.778 87.7011 177.397C87.6564 177.381 87.6134 177.365 87.5705 177.346C86.7044 176.953 86.3788 175.782 86.8977 174.923C87.3343 174.203 87.8192 173.433 88.1413 173.028C88.8481 172.135 92.4287 166.584 93.0925 166.06C93.7975 165.504 95.9215 164.276 98.6503 164.556C101.379 164.834 105.117 163.65 108.857 164.521C112.595 165.391 120.781 168.179 120.932 168.848C121.082 169.518 120.275 171.523 120.275 171.523Z" fill="#00DFF4"/>
<path d="M117.761 189.167C117.761 189.167 110.924 188.089 109.71 187.606C108.497 187.122 96.3724 188.461 95.968 188.385C95.5636 188.31 94.15 188.087 94.014 189.165C93.878 190.243 93.9138 191.73 94.5186 191.767C95.1252 191.805 107.654 192.697 109.104 192.176C110.551 191.655 110.551 191.566 112.371 191.388C114.189 191.211 117.892 191.726 118.244 191.574C118.597 191.422 119.003 190.376 118.774 189.819C118.546 189.262 117.759 189.169 117.759 189.169L117.761 189.167Z" fill="#1E1E1D"/>
<path d="M95.1697 188.366C95.1697 188.366 94.7134 186.465 94.9657 186.241C95.218 186.018 95.4954 186.214 95.9248 185.6C96.3543 184.986 96.73 183.252 97.0396 181.977C97.3492 180.702 97.3939 180.67 97.3939 180.67L99.5877 181.414C99.5877 181.414 97.5907 184.737 97.2382 185.963C96.8857 187.189 97.0396 188.222 97.0396 188.222L97.0521 188.37H95.1697V188.366Z" fill="#1E1E1D"/>
<path d="M138.847 151.267L148.703 167.124C148.703 167.124 151.941 172.878 152.97 173.209C153.555 173.397 158.759 169.353 160.096 168.27C162.205 166.56 161.089 165.316 156.819 159.257C153.149 154.047 147.835 147.711 146.416 146.033C146.192 145.768 145.854 145.67 145.541 145.772C144.317 146.181 141.259 147.316 140.298 148.775C139.085 150.615 138.848 151.265 138.848 151.265L138.847 151.267Z" fill="#3EF0FB"/>
<path d="M163.361 209C171.141 209 177.447 202.041 177.447 193.458C177.447 184.874 171.141 177.916 163.361 177.916C155.582 177.916 149.275 184.874 149.275 193.458C149.275 202.041 155.582 209 163.361 209Z" fill="#393A38"/>
<path d="M163.362 203.273C168.049 203.273 171.849 198.879 171.849 193.459C171.849 188.039 168.049 183.645 163.362 183.645C158.674 183.645 154.875 188.039 154.875 193.459C154.875 198.879 158.674 203.273 163.362 203.273Z" fill="black"/>
<path d="M162.386 194.063L165.063 192.223L167.26 182.273C167.26 182.273 167.615 180.768 168.195 180.014C168.774 179.26 169.154 178.942 169.383 179.617C169.383 179.617 169.483 179.019 168.499 178.593C167.524 178.17 162.234 175.945 158.394 176.642C154.554 177.339 162.386 194.063 162.386 194.063Z" fill="#00DFF4"/>
<path d="M153.681 177.52L155.452 181.471L156.215 181.023L154.218 176.391L152.938 173.264L152.28 174.371L153.681 177.52Z" fill="#B7C4B7"/>
<path d="M162.154 193.983L157.274 180.958C157.211 180.793 157.049 180.702 156.889 180.745C156.444 180.87 155.562 181.148 154.985 181.539C154.78 181.679 154.611 181.833 154.518 181.999C154.187 182.585 158.952 190.206 161.583 194.33C161.808 194.684 162.302 194.382 162.154 193.983Z" fill="#1E1E1D"/>
<path d="M126.799 145.217C126.751 145.275 126.649 145.217 126.647 145.452C126.645 145.687 126.57 145.867 126.421 145.745C126.273 145.622 126.146 145.314 126.201 145.233C126.25 145.162 126.795 145.211 126.799 145.219V145.217Z" fill="#D5C4BB"/>
<path d="M128.039 145.334C128.023 145.322 128.021 145.298 128.032 145.283C128.06 145.243 128.105 145.16 128.13 145.156C128.173 145.152 128.364 145.346 128.372 145.375C128.372 145.375 128.382 145.472 128.246 145.502L128.039 145.334Z" fill="#B7C4B7"/>
<path d="M129.143 145.978C129.143 145.978 129.238 145.775 129.292 145.842C129.345 145.909 129.487 146.079 129.478 146.142C129.469 146.205 129.463 146.262 129.41 146.254C129.356 146.246 129.145 145.98 129.145 145.98L129.143 145.978Z" fill="#B7C4B7"/>
<path d="M129.363 145.654C129.363 145.654 129.462 145.441 129.517 145.51C129.573 145.579 129.755 145.792 129.746 145.857C129.737 145.923 129.698 145.95 129.641 145.942C129.583 145.934 129.363 145.654 129.363 145.654Z" fill="#B7C4B7"/>
<path d="M132.767 128.943C132.767 128.943 133.307 129.072 133.205 129.806C133.103 130.541 132.249 131.853 131.872 132.033C131.494 132.213 131.117 131.958 131.117 131.958L132.768 128.943H132.767Z" fill="black"/>
<path d="M132.382 130.747C132.857 129.915 133.068 129.119 132.853 128.97C132.638 128.82 132.079 129.374 131.603 130.206C131.128 131.038 130.917 131.834 131.132 131.983C131.347 132.133 131.907 131.579 132.382 130.747Z" fill="white"/>
<path d="M132.344 131.563L133.169 136.073L133.382 137.522H133.677L132.536 131.293L132.344 131.563Z" fill="black"/>
<path d="M124.349 135.996C124.349 135.996 127.471 138.759 127.489 138.82C127.507 138.881 127.489 140.715 127.489 140.715H127.913V138.759L126.473 137.434L124.052 135.416L123.914 135.641L124.349 135.998V135.996Z" fill="black"/>
<path d="M122.76 136.393C123.739 136.393 124.533 135.485 124.533 134.366C124.533 133.246 123.739 132.338 122.76 132.338C121.781 132.338 120.987 133.246 120.987 134.366C120.987 135.485 121.781 136.393 122.76 136.393Z" fill="black"/>
<path d="M128.708 136.173C128.708 136.173 131.156 137.466 131.131 138.011C131.106 138.556 129.653 139.518 129.017 139.776C128.264 140.082 127.795 139.962 127.74 140.268C127.718 140.386 127.758 140.44 127.759 140.522C127.763 140.637 127.851 140.724 127.953 140.714C128.309 140.678 129.078 140.359 129.341 140.234C129.635 140.096 131.245 139.138 131.496 138.319C131.703 137.644 131.367 137.31 130.46 136.412C129.552 135.514 129.32 135.152 129.32 135.152L128.71 136.173H128.708Z" fill="black"/>
<path d="M128.393 132.822H130.066C130.338 132.822 130.512 133.136 130.378 133.393L128.241 137.505C128.152 137.677 127.955 137.748 127.786 137.669L126.5 137.067C126.308 136.978 126.23 136.731 126.328 136.534L128.078 133.024C128.141 132.899 128.261 132.82 128.393 132.82V132.822Z" fill="#99DB26"/>
<path d="M128.676 132.895H130.073C130.408 132.895 130.619 133.291 130.456 133.613L128.515 137.455C128.406 137.672 128.164 137.763 127.957 137.663L126.887 137.149C126.652 137.037 126.554 136.727 126.675 136.478L128.289 133.151C128.366 132.993 128.515 132.897 128.676 132.897V132.895Z" fill="black"/>
<path d="M129.913 139.727C129.913 139.727 130.399 137.597 131.419 136.634C132.439 135.67 133.364 135.141 133.842 135.881L134.306 137.135C134.306 137.135 132.08 138.511 131.514 138.914C130.949 139.317 129.961 139.86 129.961 139.86L129.913 139.727Z" fill="#1E1E1E"/>
<path d="M134.025 137.189L133.56 135.929C133.542 135.878 133.495 135.848 133.445 135.854C133.25 135.878 132.769 135.973 132.55 136.35C132.532 136.381 132.531 136.425 132.543 136.46L133.03 137.779C133.055 137.846 133.128 137.876 133.186 137.838L133.975 137.339C134.023 137.309 134.043 137.244 134.021 137.189H134.025Z" fill="white"/>
<path d="M135.164 136.639C135.164 136.639 136.673 135.529 136.893 135.533C137.113 135.537 137.68 135.662 137.419 136.236L135.93 137.735L134.481 138.949L134.191 137.74L134.304 137.115L135.164 136.637V136.639Z" fill="black"/>
<ellipse opacity="0.7" cx="97.8694" cy="203.795" rx="12.2425" ry="0.98468" fill="url(#paint0_radial_22158_427206)"/>
<ellipse opacity="0.7" cx="164.625" cy="209.067" rx="12.2425" ry="0.98468" fill="url(#paint1_radial_22158_427206)"/>
</g>
<path opacity="0.4" d="M123.48 146.195L215.861 149.933C215.269 146.887 219.678 136.152 219.062 127.934C218.447 119.715 217.237 112.483 219.062 106.934L187.964 119.433L123.48 146.195Z" fill="#68FCFF"/>
<path d="M248.333 58.5C277.062 58.5002 300.425 83.977 300.425 115.5C300.425 147.023 277.062 172.5 248.333 172.5C219.603 172.5 196.239 147.023 196.239 115.5C196.239 83.9769 219.603 58.5 248.333 58.5Z" fill="#F3F3F3" stroke="#CCCDD0"/>
<path d="M239.214 84.4277H238.791C238.287 84.4277 237.878 84.836 237.878 85.3397V92.5007C237.878 93.0044 238.287 93.4127 238.791 93.4127H239.214C239.718 93.4127 240.126 93.0044 240.126 92.5007V85.3397C240.126 84.836 239.718 84.4277 239.214 84.4277Z" fill="#231F20"/>
<path d="M280.026 83H239.483V83.9434C240.238 83.9434 240.854 84.5589 240.854 85.3181V92.4521C240.854 93.2114 240.243 93.8223 239.483 93.8268V94.7702H246.298C248.707 94.7702 251.022 95.7226 252.74 97.4163L256.349 100.988C259.249 103.854 263.16 105.462 267.237 105.462H280.022C282.22 105.462 284 103.683 284 101.486V86.9803C284.009 84.7835 282.224 83 280.026 83Z" fill="#231F20"/>
<path d="M249.759 106.766H227.669C226.321 106.766 225.229 107.858 225.229 109.205V117.804C225.229 119.151 226.321 120.243 227.669 120.243H249.759C251.107 120.243 252.2 119.151 252.2 117.804V109.205C252.2 107.858 251.107 106.766 249.759 106.766Z" fill="#2B2D33"/>
<path d="M245.457 106.766H231.971V120.243H245.457V106.766Z" fill="#231F20"/>
<path d="M280.026 83H239.483V83.9434C240.216 83.9434 240.805 84.5229 240.845 85.2462H277.374C279.572 85.2462 281.352 86.6703 281.352 88.4314V100.022C281.352 101.778 279.572 103.203 277.378 103.207L265.061 103.221C262.018 103.221 259.069 102.511 256.561 101.194C259.438 103.93 263.254 105.467 267.232 105.467H280.017C282.215 105.467 283.995 103.688 283.995 101.491V86.9803C284 84.7835 282.22 83 280.017 83H280.026Z" fill="#2B2D33"/>
<path d="M197.978 83H238.521V83.9434C237.766 83.9434 237.15 84.5589 237.15 85.3181V92.4521C237.15 93.2114 237.762 93.8223 238.521 93.8268V94.7702H231.707C229.297 94.7702 226.982 95.7226 225.265 97.4163L221.655 100.988C218.756 103.854 214.845 105.462 210.767 105.462H197.983C195.785 105.462 194.004 103.683 194 101.486V86.9803C194 84.7835 195.78 83 197.978 83Z" fill="#231F20"/>
<path d="M197.978 83H238.521V83.9434C237.789 83.9434 237.2 84.5229 237.159 85.2462H200.631C198.432 85.2462 196.652 86.6703 196.652 88.4314V100.022C196.652 101.778 198.432 103.203 200.626 103.207L212.943 103.221C215.987 103.221 218.935 102.511 221.444 101.194C218.567 103.93 214.75 105.467 210.772 105.467H197.983C195.785 105.462 194.004 103.683 194 101.486V86.9803C194 84.7835 195.78 83 197.978 83Z" fill="#2B2D33"/>
<path d="M239.214 133.445H238.791C238.287 133.445 237.878 133.854 237.878 134.357V141.518C237.878 142.022 238.287 142.43 238.791 142.43H239.214C239.718 142.43 240.126 142.022 240.126 141.518V134.357C240.126 133.854 239.718 133.445 239.214 133.445Z" fill="#231F20"/>
<path d="M280.026 143.857H239.483V142.913C240.238 142.913 240.854 142.298 240.854 141.539V134.405C240.854 133.645 240.243 133.034 239.483 133.03V132.087H246.298C248.707 132.087 251.022 131.134 252.74 129.441L256.349 125.869C259.249 123.003 263.16 121.395 267.237 121.395H280.022C282.22 121.395 284 123.174 284 125.37V139.877C284.004 142.073 282.224 143.857 280.022 143.857H280.026Z" fill="#231F20"/>
<path fill-rule="evenodd" clip-rule="evenodd" d="M274.008 125.407C274.158 125.604 274.12 125.886 273.923 126.036L255.043 140.412C254.845 140.562 254.563 140.524 254.413 140.327C254.262 140.13 254.3 139.848 254.498 139.697L273.378 125.321C273.575 125.171 273.857 125.209 274.008 125.407Z" fill="white"/>
<path d="M280.026 143.859H239.483V142.916C240.216 142.916 240.805 142.336 240.845 141.613H277.374C279.572 141.613 281.352 140.189 281.352 138.428V126.837C281.352 125.081 279.572 123.657 277.378 123.652L265.061 123.639C262.018 123.639 259.069 124.349 256.561 125.665C259.438 122.929 263.254 121.393 267.232 121.393H280.017C282.215 121.393 283.995 123.172 283.995 125.368V139.875C284 142.071 282.22 143.855 280.017 143.855L280.026 143.859Z" fill="#2B2D33"/>
<path d="M197.978 143.857H238.521V142.913C237.766 142.913 237.15 142.298 237.15 141.539V134.405C237.15 133.645 237.762 133.034 238.521 133.03V132.087H231.707C229.297 132.087 226.982 131.134 225.265 129.441L221.655 125.869C218.756 123.003 214.845 121.395 210.767 121.395H197.983C195.785 121.395 194.005 123.174 194 125.37V139.877C193.996 142.073 195.776 143.857 197.978 143.857Z" fill="#231F20"/>
<g clip-path="url(#clip5_22158_427206)">
<path fill-rule="evenodd" clip-rule="evenodd" d="M207.289 125.703C206.921 124.966 205.869 124.966 205.5 125.703L198.736 139.231C198.404 139.896 198.887 140.678 199.631 140.678H213.159C213.902 140.678 214.386 139.896 214.053 139.231L207.289 125.703ZM203.711 124.809C204.817 122.598 207.972 122.598 209.078 124.809L215.842 138.337C216.839 140.331 215.389 142.678 213.159 142.678H199.631C197.401 142.678 195.95 140.331 196.948 138.337L203.711 124.809Z" fill="white"/>
<path fill-rule="evenodd" clip-rule="evenodd" d="M206.395 129.678C206.947 129.678 207.395 130.125 207.395 130.678V134.678C207.395 135.23 206.947 135.678 206.395 135.678C205.842 135.678 205.395 135.23 205.395 134.678V130.678C205.395 130.125 205.842 129.678 206.395 129.678Z" fill="white"/>
<path d="M207.395 137.678C207.395 138.23 206.947 138.678 206.395 138.678C205.842 138.678 205.395 138.23 205.395 137.678C205.395 137.125 205.842 136.678 206.395 136.678C206.947 136.678 207.395 137.125 207.395 137.678Z" fill="white"/>
<path fill-rule="evenodd" clip-rule="evenodd" d="M206.395 138.678C206.947 138.678 207.395 138.23 207.395 137.678C207.395 137.125 206.947 136.678 206.395 136.678C205.842 136.678 205.395 137.125 205.395 137.678C205.395 138.23 205.842 138.678 206.395 138.678Z" fill="white"/>
</g>
<path d="M197.978 143.859H238.521V142.916C237.789 142.916 237.2 142.336 237.159 141.613H200.631C198.432 141.613 196.652 140.189 196.652 138.428V126.837C196.652 125.081 198.432 123.657 200.626 123.652L212.943 123.639C215.987 123.639 218.935 124.349 221.444 125.665C218.567 122.929 214.75 121.393 210.772 121.393H197.983C195.785 121.397 194.005 123.176 194 125.373V139.879C193.996 142.076 195.776 143.859 197.978 143.859Z" fill="#2B2D33"/>
<path d="M211.245 95.8604V92.0651H209.958V91.1738H213.597V92.0651H212.309V95.8604H211.245Z" fill="white"/>
<path d="M206.391 95.8604V91.1738H209.326V92.0651H207.448V93.0068H209.045V93.8909H207.448V94.9691H209.398V95.8604H206.391Z" fill="white"/>
<path d="M203.825 95.945C203.518 95.945 203.211 95.8875 202.905 95.7725C202.602 95.6575 202.332 95.4897 202.092 95.2693L202.696 94.5433C202.864 94.6871 203.051 94.8045 203.257 94.8955C203.463 94.9866 203.662 95.0321 203.854 95.0321C204.075 95.0321 204.238 94.9914 204.343 94.9099C204.453 94.8285 204.508 94.7182 204.508 94.5793C204.508 94.4307 204.446 94.3229 204.321 94.2558C204.202 94.1839 204.039 94.1049 203.832 94.0186L203.221 93.7598C203.063 93.6928 202.912 93.6041 202.768 93.4939C202.624 93.3789 202.507 93.2375 202.415 93.0698C202.324 92.9021 202.279 92.7056 202.279 92.4804C202.279 92.2216 202.348 91.9868 202.487 91.776C202.631 91.5651 202.828 91.3974 203.077 91.2728C203.331 91.1482 203.621 91.0859 203.947 91.0859C204.216 91.0859 204.484 91.1386 204.753 91.2441C205.022 91.3495 205.256 91.5028 205.458 91.7041L204.918 92.3726C204.765 92.2528 204.612 92.1617 204.458 92.0994C204.305 92.0323 204.134 91.9988 203.947 91.9988C203.765 91.9988 203.619 92.0371 203.509 92.1138C203.403 92.1857 203.35 92.2887 203.35 92.4229C203.35 92.5667 203.418 92.6745 203.552 92.7464C203.691 92.8182 203.861 92.8949 204.063 92.9764L204.667 93.2208C204.95 93.3358 205.175 93.4939 205.343 93.6952C205.511 93.8964 205.595 94.1624 205.595 94.493C205.595 94.7518 205.525 94.9914 205.386 95.2118C205.247 95.4322 205.046 95.6095 204.782 95.7437C204.518 95.8779 204.199 95.945 203.825 95.945Z" fill="white"/>
<path fill-rule="evenodd" clip-rule="evenodd" d="M272.235 134.023C270.822 134.023 269.673 135.174 269.673 136.598C269.673 137.308 269.96 137.951 270.426 138.418C270.601 138.594 270.6 138.879 270.424 139.054C270.248 139.229 269.964 139.228 269.788 139.052C269.163 138.424 268.774 137.555 268.774 136.598C268.774 134.682 270.322 133.125 272.235 133.125C274.149 133.125 275.697 134.682 275.697 136.598C275.697 137.558 275.309 138.427 274.682 139.053C274.535 139.201 274.288 139.429 274.085 139.615C273.981 139.709 273.887 139.795 273.819 139.856C273.784 139.887 273.756 139.912 273.737 139.93L273.707 139.957C273.522 140.122 273.238 140.107 273.072 139.922C272.906 139.737 272.922 139.453 273.107 139.288L273.136 139.261C273.155 139.244 273.182 139.22 273.216 139.189C273.284 139.128 273.377 139.044 273.478 138.952C273.683 138.764 273.915 138.549 274.045 138.418L274.046 138.417C274.51 137.954 274.798 137.312 274.798 136.598C274.798 135.174 273.649 134.023 272.235 134.023Z" fill="white"/>
<path fill-rule="evenodd" clip-rule="evenodd" d="M273.408 137.83C273.656 137.83 273.857 138.031 273.857 138.279V139.174H274.746C274.994 139.174 275.196 139.375 275.196 139.623C275.196 139.871 274.994 140.073 274.746 140.073H273.408C273.159 140.073 272.958 139.871 272.958 139.623V138.279C272.958 138.031 273.159 137.83 273.408 137.83Z" fill="white"/>
<path fill-rule="evenodd" clip-rule="evenodd" d="M265.795 133.755C265.889 133.525 266.151 133.414 266.381 133.508L279.58 138.857C279.81 138.95 279.921 139.212 279.828 139.442C279.735 139.672 279.472 139.783 279.242 139.689L266.043 134.34C265.813 134.247 265.702 133.985 265.795 133.755Z" fill="white"/>
<path fill-rule="evenodd" clip-rule="evenodd" d="M279.828 133.406C279.921 133.636 279.81 133.898 279.58 133.991L266.381 139.336C266.151 139.43 265.888 139.319 265.795 139.089C265.702 138.859 265.813 138.597 266.043 138.504L279.242 133.158C279.473 133.065 279.735 133.176 279.828 133.406Z" fill="white"/>
<path fill-rule="evenodd" clip-rule="evenodd" d="M259.96 126.576C258.537 126.576 257.383 127.729 257.383 129.151C257.383 129.86 257.672 130.503 258.139 130.97C258.315 131.146 258.315 131.43 258.139 131.606C257.964 131.781 257.679 131.781 257.504 131.606C256.875 130.977 256.484 130.109 256.484 129.151C256.484 127.233 258.041 125.678 259.96 125.678C261.879 125.678 263.435 127.233 263.435 129.151C263.435 130.111 263.045 130.981 262.416 131.606C262.267 131.754 262.02 131.982 261.815 132.168C261.712 132.263 261.617 132.348 261.548 132.41C261.514 132.441 261.486 132.466 261.466 132.483L261.436 132.51C261.251 132.675 260.966 132.659 260.801 132.474C260.636 132.289 260.652 132.005 260.837 131.84L260.867 131.813C260.886 131.797 260.913 131.772 260.947 131.741C261.015 131.68 261.108 131.596 261.21 131.504C261.417 131.316 261.649 131.101 261.78 130.97L261.781 130.969C262.247 130.506 262.536 129.864 262.536 129.151C262.536 127.729 261.383 126.576 259.96 126.576Z" fill="white"/>
<path fill-rule="evenodd" clip-rule="evenodd" d="M261.137 130.383C261.385 130.383 261.586 130.584 261.586 130.832V131.727H262.481C262.73 131.727 262.931 131.928 262.931 132.176C262.931 132.424 262.73 132.625 262.481 132.625H261.137C260.888 132.625 260.687 132.424 260.687 132.176V130.832C260.687 130.584 260.888 130.383 261.137 130.383Z" fill="white"/>
<defs>
<radialGradient id="paint0_radial_22158_427206" cx="0" cy="0" r="1" gradientUnits="userSpaceOnUse" gradientTransform="translate(97.8694 203.795) rotate(90) scale(0.98468 12.2425)">
<stop/>
<stop offset="1" stop-color="#D9D9D9" stop-opacity="0"/>
</radialGradient>
<radialGradient id="paint1_radial_22158_427206" cx="0" cy="0" r="1" gradientUnits="userSpaceOnUse" gradientTransform="translate(164.625 209.067) rotate(90) scale(0.98468 12.2425)">
<stop/>
<stop offset="1" stop-color="#D9D9D9" stop-opacity="0"/>
</radialGradient>
<clipPath id="clip0_22158_427206">
<rect width="12.874" height="14.0464" fill="white" transform="translate(39.9121 43.0723)"/>
</clipPath>
<clipPath id="clip1_22158_427206">
<rect width="8.44856" height="11.4127" fill="white" transform="translate(34.2793 64.582)"/>
</clipPath>
<clipPath id="clip2_22158_427206">
<rect width="4.82775" height="2.63676" fill="white" transform="translate(32.2676 52.3809)"/>
</clipPath>
<clipPath id="clip3_22158_427206">
<rect width="4.82775" height="3.16411" fill="white" transform="translate(32.2676 45.7051)"/>
</clipPath>
<clipPath id="clip4_22158_427206">
<rect width="106.101" height="101" fill="white" transform="translate(71.3442 108)"/>
</clipPath>
<clipPath id="clip5_22158_427206">
<rect width="14.385" height="14.3759" fill="white" transform="translate(199.395 125.678)"/>
</clipPath>
</defs>
</svg>
