<svg width="343" height="295" viewBox="0 0 343 295" fill="none" xmlns="http://www.w3.org/2000/svg">
<path d="M175 227C258.395 227 326 220.956 326 213.5C326 206.044 258.395 200 175 200C91.605 200 24 206.044 24 213.5C24 220.956 91.605 227 175 227Z" fill="#F3F3F3"/>
<path d="M216.476 135.689L228.904 147.294C230.722 149.035 231.706 151.353 231.635 153.819L230.722 173.98L230.266 207.197H242.54L240.496 160.123L240.04 153.887C239.815 150.554 241.101 147.288 243.677 144.963L253.831 135.682L255.193 134.379H248.825L239.655 142.214C239.5 142.362 239.276 142.214 239.276 142.066L239.353 130.172H232.914L232.991 142.577C232.991 142.792 232.766 142.866 232.612 142.724L219.882 133.081L214.349 133.229L216.469 135.695L216.476 135.689Z" fill="#937F6F"/>
<path d="M265.955 134.602C259.06 136.194 227.155 134.602 204.875 134.312C203.738 134.312 202.601 134.165 201.463 133.95C194.112 132.357 189.871 128.002 187.294 122.203C186.381 120.173 185.931 117.996 186.008 115.745C186.163 110.739 188.206 106.532 192.377 103.34C189.575 98.8443 188.136 93.6966 189.344 87.6756C189.8 85.4984 190.706 83.4689 191.843 81.6545C195.178 76.433 199.272 72.3739 205.107 70.8487C209.2 59.8952 217.156 55.1103 226.55 52.355C235.566 50.9774 242.089 53.6589 246.857 59.5323C263.224 57.5765 271.938 63.8866 270.73 81.0703C280.356 86.6547 283.916 93.8381 283.839 101.889C289.217 105.659 291.415 110.228 291.19 115.376C290.811 122.627 285.657 128.937 278.537 131.477C274.675 132.855 270.73 133.654 268.609 133.943C267.697 134.233 266.79 134.38 265.955 134.595V134.602Z" fill="#DEF2AF"/>
<path d="M266.337 137.357C259.589 138.883 228.14 137.357 206.24 137.068C205.103 137.068 203.965 136.921 202.905 136.706C195.708 135.113 191.46 130.906 188.96 125.174C188.048 123.144 187.598 120.967 187.675 118.864C187.829 113.931 189.796 109.798 193.889 106.68C191.087 102.258 189.719 97.1783 190.933 91.231C191.39 89.1277 192.218 87.0981 193.433 85.2838C196.691 80.1361 200.784 76.1446 206.465 74.6931C210.481 63.9611 218.36 59.1701 227.53 56.4886C236.398 55.1109 242.837 57.7924 247.463 63.5244C263.606 61.5686 272.165 67.8049 270.957 84.7057C280.429 90.2162 283.989 97.2521 283.918 105.229C289.22 108.925 291.417 113.427 291.115 118.501C290.736 125.678 285.66 131.847 278.687 134.313C274.896 135.691 271.034 136.416 268.913 136.779C268.078 136.927 267.249 137.142 266.337 137.357Z" fill="#A9D661"/>
<path fill-rule="evenodd" clip-rule="evenodd" d="M283.268 219.664L271.816 219.566L276.691 167.113L278.44 167.185L283.268 219.664Z" fill="#D1EEF2"/>
<path d="M277.578 184.29C288.514 184.29 297.378 175.778 297.378 165.278C297.378 154.778 288.514 146.266 277.578 146.266C266.643 146.266 257.778 154.778 257.778 165.278C257.778 175.778 266.643 184.29 277.578 184.29Z" fill="#00DFF4"/>
<path d="M264.932 163.791C264.491 163.791 264.079 163.897 263.709 164.083V161.379H262.21V166.619C262.27 168.062 263.467 169.213 264.928 169.213C266.389 169.213 267.65 167.999 267.65 166.5C267.65 165.002 266.431 163.787 264.928 163.787L264.932 163.791ZM264.932 167.723C264.257 167.723 263.709 167.177 263.709 166.504C263.709 165.831 264.257 165.285 264.932 165.285C265.607 165.285 266.155 165.831 266.155 166.504C266.155 167.177 265.607 167.723 264.932 167.723Z" fill="white"/>
<path d="M269.4 163.953C268.988 163.953 268.653 164.287 268.653 164.698L268.568 169.163H270.232L270.147 164.698C270.147 164.287 269.812 163.953 269.4 163.953Z" fill="white"/>
<path d="M274.122 163.789C272.653 163.789 271.455 164.983 271.455 166.447V169.169H272.954V166.447C272.954 165.804 273.481 165.283 274.122 165.283C274.763 165.283 275.289 165.808 275.289 166.447V169.169H276.788V166.447C276.788 164.983 275.591 163.789 274.122 163.789Z" fill="white"/>
<path d="M269.398 163.362C269.956 163.362 270.409 162.911 270.409 162.355C270.409 161.799 269.956 161.348 269.398 161.348C268.84 161.348 268.388 161.799 268.388 162.355C268.388 162.911 268.84 163.362 269.398 163.362Z" fill="white"/>
<path d="M285.555 163.362C286.113 163.362 286.565 162.911 286.565 162.355C286.565 161.799 286.113 161.348 285.555 161.348C284.996 161.348 284.544 161.799 284.544 162.355C284.544 162.911 284.996 163.362 285.555 163.362Z" fill="white"/>
<path d="M290.275 163.789C288.805 163.789 287.608 164.983 287.608 166.447V169.169H289.107V166.447C289.107 165.804 289.633 165.283 290.275 165.283C290.916 165.283 291.442 165.808 291.442 166.447V169.169H292.941V166.447C292.941 164.983 291.744 163.789 290.275 163.789Z" fill="white"/>
<path d="M281.085 163.791C280.644 163.791 280.232 163.897 279.862 164.083V161.379H278.363V166.619C278.423 168.062 279.62 169.213 281.081 169.213C282.542 169.213 283.803 167.999 283.803 166.5C283.803 165.002 282.584 163.787 281.081 163.787L281.085 163.791ZM281.085 167.723C280.41 167.723 279.862 167.177 279.862 166.504C279.862 165.831 280.41 165.285 281.085 165.285C281.76 165.285 282.308 165.831 282.308 166.504C282.308 167.177 281.76 167.723 281.085 167.723Z" fill="white"/>
<path d="M285.553 163.953C285.141 163.953 284.805 164.287 284.805 164.698L284.72 169.163H286.385L286.3 164.698C286.3 164.287 285.965 163.953 285.553 163.953Z" fill="white"/>
<path fill-rule="evenodd" clip-rule="evenodd" d="M254.711 196.51C255.228 196.796 255.418 197.443 255.13 197.953L251.389 204.604C251.193 204.925 250.843 205.149 250.452 205.149H232.687C232.106 205.149 231.623 204.667 231.623 204.089C231.623 203.51 232.106 203.029 232.687 203.029H249.808L253.228 196.922C253.55 196.407 254.193 196.246 254.711 196.504V196.51Z" fill="#00DFF4"/>
<path fill-rule="evenodd" clip-rule="evenodd" d="M227.694 205.96C228.562 205.96 229.303 205.256 229.303 204.356C229.303 203.457 228.596 202.752 227.694 202.752C226.791 202.752 226.084 203.457 226.084 204.356C226.084 205.256 226.826 205.96 227.694 205.96ZM227.694 208.08C229.757 208.08 231.435 206.407 231.435 204.351C231.435 202.294 229.757 200.621 227.694 200.621C225.63 200.621 223.952 202.294 223.952 204.351C223.952 206.407 225.63 208.08 227.694 208.08Z" fill="#20505A"/>
<path fill-rule="evenodd" clip-rule="evenodd" d="M258.194 205.96C259.062 205.96 259.803 205.256 259.803 204.356C259.803 203.457 259.096 202.752 258.194 202.752C257.292 202.752 256.585 203.457 256.585 204.356C256.585 205.256 257.326 205.96 258.194 205.96ZM258.194 208.08C260.257 208.08 261.936 206.407 261.936 204.351C261.936 202.294 260.257 200.621 258.194 200.621C256.131 200.621 254.452 202.294 254.452 204.351C254.452 206.407 256.131 208.08 258.194 208.08Z" fill="#20505A"/>
<path fill-rule="evenodd" clip-rule="evenodd" d="M250.36 183.527C250.906 183.269 251.521 183.527 251.779 184.043L252.297 185.137C252.555 185.681 252.297 186.294 251.779 186.552C251.233 186.809 250.618 186.552 250.36 186.036L249.842 184.942C249.584 184.426 249.808 183.785 250.36 183.527Z" fill="#20505A"/>
<path fill-rule="evenodd" clip-rule="evenodd" d="M252.266 193.94L254.524 199.663C254.651 199.984 254.978 200.437 255.231 200.626C255.616 200.883 256.007 200.946 256.455 200.689C256.973 200.305 256.812 199.211 256.421 198.34L255.938 197.246L252.26 188.28L249.133 180.438L247.524 181.274L252.266 193.934V193.94Z" fill="#15E5F6"/>
<path fill-rule="evenodd" clip-rule="evenodd" d="M249.689 180.877C249.569 180.837 249.327 180.929 249.327 180.929L249.862 182.304L250.063 182.224C250.063 182.224 250.046 181.003 249.683 180.877H249.689Z" fill="#1A1A1A"/>
<path fill-rule="evenodd" clip-rule="evenodd" d="M247.523 181.274L245.587 176.004C245.713 176.004 244.908 175.969 244.426 176.198C244.167 176.324 243.523 176.68 243.426 176.582C243.069 176.422 242.845 176.198 242.811 175.746C242.811 175.328 243.069 175.133 243.426 175.07L245.713 174.875L245.615 174.457L243.874 174.583L243.811 174.296L246.196 174.102L246.42 175.064C246.839 175.098 247.196 175.259 247.454 175.74L249.133 180.432L247.518 181.268L247.523 181.274Z" fill="#1A1A1A"/>
<g opacity="0.96">
<path d="M251.78 189.338C251.717 189.373 251.654 189.401 251.585 189.464L251.389 189.012L251.131 189.109L251.487 190.009C251.585 190.266 251.872 190.364 252.131 190.266C252.389 190.169 252.516 189.882 252.418 189.625C252.32 189.367 252.033 189.241 251.774 189.338H251.78ZM252.067 190.014C251.941 190.049 251.809 190.014 251.78 189.888C251.746 189.762 251.78 189.63 251.907 189.602C252.033 189.573 252.165 189.602 252.194 189.728C252.228 189.854 252.159 189.986 252.067 190.014Z" fill="white"/>
<path d="M252.907 192.107C252.648 192.204 252.522 192.491 252.648 192.749L252.844 193.23L253.102 193.133L252.907 192.651C252.872 192.554 252.907 192.428 253.033 192.365C253.131 192.33 253.257 192.365 253.321 192.491L253.516 192.972L253.775 192.875L253.579 192.394C253.453 192.136 253.16 192.01 252.901 192.107H252.907Z" fill="white"/>
<path d="M252.425 190.95C252.362 190.984 252.327 191.047 252.362 191.144L252.649 191.918L252.936 191.792L252.614 191.018C252.58 190.984 252.517 190.921 252.419 190.955L252.425 190.95Z" fill="white"/>
<path d="M252.326 190.886C252.433 190.886 252.521 190.798 252.521 190.691C252.521 190.583 252.433 190.496 252.326 190.496C252.218 190.496 252.13 190.583 252.13 190.691C252.13 190.798 252.218 190.886 252.326 190.886Z" fill="white"/>
<path d="M249.977 184.905C249.913 184.939 249.85 184.968 249.781 185.031L249.586 184.578L249.327 184.676L249.683 185.575C249.781 185.833 250.069 185.93 250.327 185.833C250.586 185.735 250.712 185.449 250.615 185.191C250.517 184.933 250.229 184.807 249.971 184.905H249.977ZM250.235 185.581C250.109 185.615 249.977 185.581 249.948 185.455C249.913 185.329 249.948 185.197 250.074 185.168C250.201 185.14 250.333 185.168 250.362 185.294C250.425 185.42 250.362 185.552 250.235 185.581Z" fill="white"/>
<path d="M251.103 187.673C250.845 187.771 250.718 188.057 250.845 188.315L251.04 188.796L251.299 188.699L251.103 188.218C251.069 188.12 251.103 187.994 251.23 187.931C251.356 187.868 251.454 187.931 251.517 188.057L251.713 188.539L251.971 188.441L251.776 187.96C251.615 187.702 251.356 187.576 251.098 187.673H251.103Z" fill="white"/>
<path d="M250.622 186.516C250.559 186.55 250.524 186.613 250.559 186.71L250.846 187.484L251.133 187.358L250.811 186.584C250.777 186.55 250.685 186.521 250.616 186.521L250.622 186.516Z" fill="white"/>
<path d="M250.523 186.452C250.631 186.452 250.718 186.365 250.718 186.257C250.718 186.15 250.631 186.062 250.523 186.062C250.415 186.062 250.327 186.15 250.327 186.257C250.327 186.365 250.415 186.452 250.523 186.452Z" fill="white"/>
</g>
<path fill-rule="evenodd" clip-rule="evenodd" d="M243.916 174.304L244.238 174.27L244.434 174.562L243.916 174.625L243.819 174.333L243.916 174.304Z" fill="#1A1A1A"/>
<path fill-rule="evenodd" clip-rule="evenodd" d="M245.156 200.289C245.817 200.662 246.064 201.481 245.69 202.14L240.903 210.653C240.655 211.065 240.201 211.351 239.707 211.351H216.982C216.24 211.351 215.62 210.733 215.62 209.994C215.62 209.255 216.24 208.636 216.982 208.636H238.885L243.259 200.822C243.673 200.163 244.495 199.957 245.156 200.289Z" fill="#00DFF4"/>
<path fill-rule="evenodd" clip-rule="evenodd" d="M210.59 212.379C211.705 212.379 212.653 211.474 212.653 210.323C212.653 209.171 211.745 208.266 210.59 208.266C209.434 208.266 208.526 209.171 208.526 210.323C208.526 211.474 209.475 212.379 210.59 212.379ZM210.59 215.095C213.228 215.095 215.377 212.958 215.377 210.323C215.377 207.688 213.233 205.551 210.59 205.551C207.946 205.551 205.802 207.688 205.802 210.323C205.802 212.958 207.946 215.095 210.59 215.095Z" fill="#20505A"/>
<path fill-rule="evenodd" clip-rule="evenodd" d="M249.609 212.379C250.724 212.379 251.672 211.474 251.672 210.323C251.672 209.171 250.764 208.266 249.609 208.266C248.454 208.266 247.546 209.171 247.546 210.323C247.546 211.474 248.494 212.379 249.609 212.379ZM249.609 215.095C252.247 215.095 254.397 212.958 254.397 210.323C254.397 207.688 252.253 205.551 249.609 205.551C246.965 205.551 244.822 207.688 244.822 210.323C244.822 212.958 246.965 215.095 249.609 215.095Z" fill="#20505A"/>
<path fill-rule="evenodd" clip-rule="evenodd" d="M239.584 183.683C240.285 183.356 241.067 183.683 241.4 184.341L242.061 185.739C242.389 186.438 242.061 187.217 241.4 187.55C240.699 187.876 239.917 187.55 239.584 186.891L238.923 185.493C238.595 184.834 238.883 184.015 239.584 183.683Z" fill="#20505A"/>
<path fill-rule="evenodd" clip-rule="evenodd" d="M242.022 197.003L244.907 204.318C245.074 204.731 245.482 205.304 245.815 205.55C246.31 205.877 246.804 205.962 247.384 205.63C248.045 205.138 247.838 203.74 247.344 202.628L246.723 201.231L242.022 189.762L238.022 179.73L235.958 180.802L242.022 197.003Z" fill="#15E5F6"/>
<path fill-rule="evenodd" clip-rule="evenodd" d="M238.727 180.295C238.572 180.243 238.267 180.358 238.267 180.358L238.957 182.116L239.216 182.013C239.216 182.013 239.193 180.449 238.727 180.295Z" fill="#1A1A1A"/>
<path fill-rule="evenodd" clip-rule="evenodd" d="M235.957 180.801L233.48 174.058C233.647 174.058 232.612 174.018 231.997 174.304C231.67 174.47 230.842 174.923 230.721 174.797C230.267 174.591 229.98 174.304 229.94 173.726C229.94 173.193 230.267 172.947 230.721 172.861L233.653 172.614L233.526 172.081L231.296 172.248L231.216 171.875L234.268 171.629L234.555 172.861C235.089 172.901 235.543 173.107 235.877 173.726L238.021 179.729L235.957 180.801Z" fill="#1A1A1A"/>
<g opacity="0.96">
<path d="M241.399 191.122C241.319 191.162 241.232 191.202 241.152 191.288L240.905 190.715L240.577 190.841L241.031 191.992C241.158 192.319 241.525 192.445 241.859 192.319C242.186 192.193 242.353 191.826 242.232 191.494C242.106 191.167 241.738 191.001 241.405 191.122H241.399ZM241.773 191.987C241.606 192.027 241.445 191.987 241.399 191.82C241.359 191.654 241.399 191.494 241.566 191.448C241.732 191.402 241.893 191.448 241.939 191.614C241.98 191.78 241.899 191.941 241.773 191.987Z" fill="white"/>
<path d="M242.844 194.658C242.516 194.784 242.35 195.151 242.516 195.483L242.763 196.102L243.091 195.976L242.844 195.357C242.804 195.231 242.844 195.071 243.01 194.985C243.137 194.945 243.298 194.985 243.384 195.151L243.631 195.77L243.959 195.644L243.712 195.025C243.545 194.698 243.177 194.532 242.844 194.652V194.658Z" fill="white"/>
<path d="M242.221 193.181C242.141 193.221 242.095 193.307 242.141 193.427L242.514 194.413L242.888 194.247L242.474 193.261C242.434 193.221 242.347 193.135 242.227 193.181H242.221Z" fill="white"/>
<path d="M242.1 193.094C242.237 193.094 242.347 192.984 242.347 192.848C242.347 192.712 242.237 192.602 242.1 192.602C241.964 192.602 241.853 192.712 241.853 192.848C241.853 192.984 241.964 193.094 242.1 193.094Z" fill="white"/>
<path d="M239.09 185.446C239.01 185.486 238.924 185.526 238.843 185.612L238.596 185.039L238.268 185.165L238.722 186.317C238.849 186.643 239.217 186.769 239.55 186.643C239.878 186.517 240.044 186.15 239.924 185.818C239.797 185.492 239.429 185.326 239.096 185.446H239.09ZM239.418 186.311C239.251 186.351 239.09 186.311 239.044 186.145C239.004 185.979 239.044 185.818 239.211 185.772C239.378 185.727 239.538 185.772 239.584 185.938C239.665 186.105 239.584 186.265 239.418 186.311Z" fill="white"/>
<path d="M240.531 188.986C240.204 189.112 240.037 189.479 240.204 189.811L240.451 190.43L240.778 190.304L240.531 189.685C240.491 189.559 240.531 189.399 240.698 189.313C240.865 189.227 240.985 189.313 241.072 189.479L241.319 190.098L241.646 189.972L241.399 189.353C241.192 189.026 240.865 188.86 240.531 188.981V188.986Z" fill="white"/>
<path d="M239.913 187.504C239.833 187.544 239.787 187.63 239.833 187.75L240.206 188.736L240.58 188.569L240.166 187.584C240.126 187.544 239.999 187.504 239.919 187.504H239.913Z" fill="white"/>
<path d="M239.792 187.422C239.929 187.422 240.039 187.312 240.039 187.176C240.039 187.04 239.929 186.93 239.792 186.93C239.656 186.93 239.545 187.04 239.545 187.176C239.545 187.312 239.656 187.422 239.792 187.422Z" fill="white"/>
</g>
<path fill-rule="evenodd" clip-rule="evenodd" d="M231.338 171.88L231.746 171.84L231.999 172.206L231.338 172.292L231.211 171.92L231.338 171.88Z" fill="#1A1A1A"/>
<path fill-rule="evenodd" clip-rule="evenodd" d="M234.396 203.543C235.207 203.996 235.511 205.01 235.057 205.817L229.178 216.278C228.873 216.782 228.316 217.137 227.706 217.137H199.78C198.866 217.137 198.107 216.381 198.107 215.47C198.107 214.559 198.866 213.803 199.78 213.803H226.695L232.069 204.202C232.574 203.394 233.592 203.142 234.402 203.543H234.396Z" fill="#00DFF4"/>
<path fill-rule="evenodd" clip-rule="evenodd" d="M191.923 218.399C193.291 218.399 194.458 217.287 194.458 215.872C194.458 214.457 193.343 213.346 191.923 213.346C190.503 213.346 189.388 214.457 189.388 215.872C189.388 217.287 190.555 218.399 191.923 218.399ZM191.923 221.733C195.165 221.733 197.803 219.103 197.803 215.872C197.803 212.641 195.165 210.012 191.923 210.012C188.682 210.012 186.043 212.641 186.043 215.872C186.043 219.103 188.682 221.733 191.923 221.733Z" fill="#20505A"/>
<path fill-rule="evenodd" clip-rule="evenodd" d="M239.875 218.399C241.243 218.399 242.41 217.287 242.41 215.872C242.41 214.457 241.295 213.346 239.875 213.346C238.456 213.346 237.341 214.457 237.341 215.872C237.341 217.287 238.507 218.399 239.875 218.399ZM239.875 221.733C243.117 221.733 245.755 219.103 245.755 215.872C245.755 212.641 243.117 210.012 239.875 210.012C236.634 210.012 233.996 212.641 233.996 215.872C233.996 219.103 236.634 221.733 239.875 221.733Z" fill="#20505A"/>
<path fill-rule="evenodd" clip-rule="evenodd" d="M227.558 183.132C228.42 182.726 229.38 183.132 229.788 183.94L230.598 185.659C231.006 186.518 230.598 187.475 229.788 187.881C228.926 188.288 227.966 187.881 227.558 187.074L226.748 185.355C226.339 184.547 226.696 183.539 227.558 183.132Z" fill="#20505A"/>
<path fill-rule="evenodd" clip-rule="evenodd" d="M230.546 199.497L234.092 208.491C234.293 208.995 234.799 209.705 235.207 210.009C235.816 210.416 236.426 210.513 237.133 210.112C237.943 209.505 237.69 207.786 237.081 206.423L236.322 204.704L230.546 190.606L225.632 178.277L223.097 179.589L230.546 199.497Z" fill="#15E5F6"/>
<path fill-rule="evenodd" clip-rule="evenodd" d="M226.501 178.973C226.311 178.91 225.937 179.053 225.937 179.053L226.782 181.213L227.104 181.087C227.104 181.087 227.075 179.168 226.506 178.973H226.501Z" fill="#1A1A1A"/>
<path fill-rule="evenodd" clip-rule="evenodd" d="M223.096 179.591L220.056 171.307C220.257 171.307 218.992 171.256 218.234 171.611C217.826 171.811 216.814 172.367 216.665 172.218C216.107 171.966 215.751 171.611 215.699 170.906C215.699 170.247 216.107 169.944 216.665 169.846L220.263 169.543L220.113 168.884L217.377 169.084L217.274 168.632L221.027 168.328L221.383 169.846C222.044 169.898 222.602 170.15 223.004 170.906L225.642 178.285L223.108 179.597L223.096 179.591Z" fill="#1A1A1A"/>
<g opacity="0.96">
<path d="M229.786 192.274C229.682 192.325 229.585 192.377 229.481 192.474L229.177 191.77L228.769 191.918L229.326 193.333C229.475 193.74 229.935 193.889 230.338 193.74C230.746 193.591 230.947 193.133 230.792 192.732C230.642 192.325 230.182 192.125 229.78 192.279L229.786 192.274ZM230.24 193.333C230.039 193.385 229.832 193.333 229.786 193.133C229.734 192.932 229.786 192.726 229.987 192.68C230.188 192.635 230.395 192.68 230.441 192.881C230.493 193.081 230.389 193.288 230.24 193.333Z" fill="white"/>
<path d="M231.557 196.617C231.149 196.766 230.947 197.224 231.149 197.625L231.453 198.381L231.861 198.232L231.557 197.476C231.505 197.327 231.557 197.121 231.758 197.024C231.907 196.972 232.114 197.023 232.212 197.224L232.517 197.98L232.925 197.831L232.62 197.075C232.419 196.668 231.959 196.468 231.557 196.622V196.617Z" fill="white"/>
<path d="M230.797 194.801C230.693 194.853 230.647 194.95 230.693 195.105L231.147 196.319L231.601 196.119L231.095 194.904C231.044 194.853 230.946 194.755 230.791 194.801H230.797Z" fill="white"/>
<path d="M230.648 194.697C230.816 194.697 230.952 194.561 230.952 194.393C230.952 194.226 230.816 194.09 230.648 194.09C230.48 194.09 230.343 194.226 230.343 194.393C230.343 194.561 230.48 194.697 230.648 194.697Z" fill="white"/>
<path d="M226.946 185.301C226.843 185.353 226.745 185.404 226.641 185.502L226.337 184.797L225.929 184.946L226.486 186.361C226.636 186.768 227.095 186.917 227.498 186.768C227.906 186.619 228.107 186.16 227.952 185.759C227.802 185.353 227.343 185.152 226.94 185.307L226.946 185.301ZM227.354 186.361C227.153 186.412 226.946 186.361 226.9 186.16C226.848 185.96 226.9 185.754 227.101 185.708C227.302 185.662 227.509 185.708 227.555 185.908C227.659 186.109 227.555 186.315 227.354 186.361Z" fill="white"/>
<path d="M228.721 189.644C228.313 189.793 228.112 190.251 228.313 190.652L228.617 191.409L229.025 191.26L228.721 190.503C228.669 190.354 228.721 190.148 228.922 190.051C229.123 189.953 229.278 190.051 229.376 190.251L229.681 191.008L230.089 190.859L229.784 190.102C229.531 189.696 229.123 189.495 228.721 189.65V189.644Z" fill="white"/>
<path d="M227.958 187.828C227.854 187.88 227.809 187.977 227.854 188.132L228.309 189.346L228.763 189.146L228.257 187.931C228.205 187.88 228.056 187.828 227.952 187.828H227.958Z" fill="white"/>
<path d="M227.809 187.724C227.977 187.724 228.114 187.588 228.114 187.421C228.114 187.253 227.977 187.117 227.809 187.117C227.641 187.117 227.505 187.253 227.505 187.421C227.505 187.588 227.641 187.724 227.809 187.724Z" fill="white"/>
</g>
<path fill-rule="evenodd" clip-rule="evenodd" d="M217.418 168.634L217.924 168.582L218.229 169.035L217.418 169.138L217.263 168.685L217.418 168.634Z" fill="#1A1A1A"/>
<g clip-path="url(#clip0_22158_460000)">
<path d="M97.2019 141.102C101.549 142.294 95.6512 148.152 98.5877 163.526C100.12 171.532 93.136 191.029 95.871 199.984C96.6158 202.43 91.5487 200.556 89.9737 200.654C91.1275 198.731 91.4816 194.686 91.1092 191.857C90.1019 184.112 91.0847 170.37 91.6647 166.373L89.876 147.873L97.2019 141.102Z" fill="#FFD2C1"/>
<path d="M99.2898 200.632C99.7843 199.196 99.9736 196.039 99.5585 192.602C99.3997 191.294 99.3143 189.974 99.3387 188.654C99.4791 181.013 99.7905 172.83 100.926 164.301C101.024 163.808 100.731 162.725 100.731 162.725C100.731 162.725 96.9517 142.966 96.0909 138.227L94.8088 133.111L102.611 130.16C105.669 143.149 108.563 156.636 107.379 162.738V163.036C106.921 171.005 104.381 180.569 103.319 192.486C103.258 193.186 103.35 194.573 103.398 195.273C103.398 195.346 103.411 195.419 103.411 195.492L103.539 199.884C101.775 200.754 100.206 201.35 99.2898 200.62V200.632Z" fill="#FFD2C1"/>
<path d="M97.4765 80.8789L102.116 81.2743C100.633 84.3222 100.242 87.1754 101.719 89.2438L95.4985 88.751C97.0797 87.0781 98.0626 83.5374 97.4704 80.8789H97.4765Z" fill="#FFD2C1"/>
<path fill-rule="evenodd" clip-rule="evenodd" d="M154.24 184.372C155.821 185.26 156.413 187.225 155.522 188.8L144.069 209.162C143.477 210.148 142.39 210.835 141.206 210.835H86.8113C85.0348 210.835 83.5513 209.357 83.5513 207.586C83.5513 205.816 85.0348 204.338 86.8113 204.338H139.234L149.698 185.649C150.687 184.073 152.659 183.581 154.24 184.372Z" fill="#00DFF4"/>
<path fill-rule="evenodd" clip-rule="evenodd" d="M71.5124 213.291C74.1802 213.291 76.4513 211.126 76.4513 208.37C76.4513 205.614 74.2779 203.448 71.5124 203.448C68.7469 203.448 66.5735 205.614 66.5735 208.37C66.5735 211.126 68.8445 213.291 71.5124 213.291ZM71.5124 219.783C77.831 219.783 82.9652 214.666 82.9652 208.37C82.9652 202.073 77.831 196.957 71.5124 196.957C65.1938 196.957 60.0596 202.073 60.0596 208.37C60.0596 214.666 65.1938 219.783 71.5124 219.783Z" fill="#20505A"/>
<path fill-rule="evenodd" clip-rule="evenodd" d="M164.899 213.291C167.567 213.291 169.838 211.126 169.838 208.37C169.838 205.614 167.665 203.448 164.899 203.448C162.134 203.448 159.96 205.614 159.96 208.37C159.96 211.126 162.232 213.291 164.899 213.291ZM164.899 219.783C171.218 219.783 176.352 214.666 176.352 208.37C176.352 202.073 171.218 196.957 164.899 196.957C158.581 196.957 153.447 202.073 153.447 208.37C153.447 214.666 158.581 219.783 164.899 219.783Z" fill="#20505A"/>
<path fill-rule="evenodd" clip-rule="evenodd" d="M140.913 144.628C142.592 143.843 144.466 144.628 145.26 146.204L146.841 149.55C147.628 151.223 146.841 153.09 145.26 153.881C143.581 154.666 141.707 153.881 140.913 152.306L139.332 148.96C138.544 147.384 139.234 145.419 140.913 144.628Z" fill="#20505A"/>
<path fill-rule="evenodd" clip-rule="evenodd" d="M146.737 176.501L153.648 194.01C154.045 194.995 155.028 196.37 155.821 196.96C157.006 197.745 158.19 197.946 159.57 197.155C161.151 195.975 160.656 192.629 159.472 189.977L157.989 186.631L146.737 159.182L137.159 135.176L132.22 137.731L146.731 176.489L146.737 176.501Z" fill="#15E5F6"/>
<path fill-rule="evenodd" clip-rule="evenodd" d="M138.856 136.523C138.489 136.402 137.757 136.675 137.757 136.675L139.399 140.885L140.022 140.642C140.022 140.642 139.961 136.901 138.856 136.529V136.523Z" fill="#1A1A1A"/>
<path fill-rule="evenodd" clip-rule="evenodd" d="M132.226 137.742L126.304 121.608C126.701 121.608 124.228 121.511 122.751 122.199C121.963 122.594 119.985 123.677 119.692 123.379C118.606 122.886 117.916 122.199 117.818 120.824C117.818 119.546 118.606 118.956 119.692 118.755L126.701 118.165L126.402 116.888L121.072 117.283L120.877 116.395L128.184 115.805L128.874 118.755C130.156 118.853 131.243 119.345 132.03 120.824L137.165 135.187L132.226 137.742Z" fill="#1A1A1A"/>
<g opacity="0.96">
<path d="M145.254 162.436C145.058 162.534 144.857 162.631 144.661 162.832L144.069 161.457L143.282 161.755L144.368 164.511C144.668 165.296 145.553 165.594 146.34 165.296C147.128 164.998 147.525 164.116 147.232 163.331C146.932 162.546 146.047 162.151 145.26 162.443L145.254 162.436ZM146.145 164.505C145.748 164.602 145.357 164.505 145.254 164.109C145.156 163.714 145.254 163.325 145.65 163.221C146.047 163.124 146.438 163.221 146.542 163.617C146.639 164.012 146.444 164.401 146.145 164.505Z" fill="white"/>
<path d="M148.709 170.893C147.921 171.192 147.525 172.074 147.921 172.858L148.514 174.337L149.301 174.039L148.709 172.56C148.611 172.262 148.709 171.873 149.106 171.672C149.405 171.575 149.796 171.672 149.997 172.068L150.589 173.546L151.377 173.248L150.785 171.769C150.388 170.985 149.503 170.589 148.709 170.881V170.893Z" fill="white"/>
<path d="M147.232 167.353C147.036 167.45 146.933 167.651 147.036 167.943L147.928 170.304L148.819 169.908L147.83 167.548C147.732 167.45 147.531 167.25 147.238 167.353H147.232Z" fill="white"/>
<path d="M146.933 167.157C147.26 167.157 147.525 166.893 147.525 166.567C147.525 166.241 147.26 165.977 146.933 165.977C146.605 165.977 146.34 166.241 146.34 166.567C146.34 166.893 146.605 167.157 146.933 167.157Z" fill="white"/>
<path d="M139.729 148.858C139.533 148.956 139.332 149.053 139.137 149.254L138.544 147.879L137.757 148.177L138.844 150.933C139.143 151.718 140.028 152.016 140.815 151.718C141.603 151.42 142 150.537 141.707 149.753C141.408 148.968 140.522 148.572 139.735 148.864L139.729 148.858ZM140.516 150.927C140.119 151.024 139.729 150.927 139.625 150.531C139.527 150.136 139.625 149.747 140.022 149.643C140.419 149.54 140.809 149.643 140.913 150.039C141.108 150.434 140.913 150.823 140.516 150.927Z" fill="white"/>
<path d="M143.184 157.319C142.397 157.617 142 158.499 142.397 159.284L142.989 160.763L143.776 160.464L143.184 158.986C143.086 158.688 143.184 158.299 143.581 158.098C143.978 157.903 144.271 158.098 144.472 158.493L145.064 159.972L145.852 159.674L145.26 158.195C144.765 157.41 143.978 157.015 143.184 157.307V157.319Z" fill="white"/>
<path d="M141.701 153.781C141.505 153.879 141.402 154.079 141.505 154.371L142.397 156.732L143.288 156.336L142.299 153.976C142.201 153.879 141.902 153.781 141.707 153.781H141.701Z" fill="white"/>
<path d="M141.408 153.579C141.735 153.579 142 153.314 142 152.989C142 152.663 141.735 152.398 141.408 152.398C141.081 152.398 140.815 152.663 140.815 152.989C140.815 153.314 141.081 153.579 141.408 153.579Z" fill="white"/>
</g>
<path d="M104.387 99.2747L107.055 103.996C107.452 104.683 107.947 105.273 108.539 105.766L120.486 114.818C121.67 115.706 122.562 116.984 123.154 118.359C123.349 118.754 123.453 119.247 123.453 119.734C123.453 120.421 123.258 121.011 122.763 121.899C122.171 122.982 121.976 123.08 120.199 122.587C120.101 122.782 120.987 121.699 121.286 120.914C121.585 120.026 121.09 118.456 120.395 117.866C119.015 116.686 117.531 115.603 116.048 114.818C115.749 114.623 115.358 114.52 114.961 114.423C112.592 113.93 110.126 113.145 107.654 112.062C107.159 111.868 106.762 111.57 106.372 111.278C103.704 108.82 101.634 106.064 99.1677 102.323L104.003 98.9766L104.4 99.2747H104.387Z" fill="#E8C2B8"/>
<path d="M104.387 99.2768L107.251 104.789C107.647 105.476 108.142 106.066 108.734 106.559L120.681 115.611C121.866 116.499 122.757 117.777 123.447 119.249C123.642 119.645 123.746 120.429 123.746 120.922C123.746 121.117 123.746 121.22 123.648 121.415C123.453 122.303 122.861 122.991 122.067 123.38C120.883 123.873 119.503 123.775 119.106 123.082C119.699 123.38 120.291 122.784 120.59 122.096C120.889 121.506 121.084 120.916 121.182 120.229C121.182 119.639 121.182 118.951 120.785 118.75C119.204 117.765 118.02 116.487 116.542 115.702C116.5 115.672 116.457 115.648 116.414 115.623C116.139 115.477 115.797 115.392 115.456 115.307C113.087 114.814 110.621 114.029 108.148 112.947C107.654 112.752 107.257 112.454 106.866 112.162C104.198 109.801 100.547 105.081 98.1787 101.242C95.7184 96.667 96.5182 94.0815 99.9186 93.0898C102.043 93.4914 103.557 95.505 104.4 99.2707L104.387 99.2768Z" fill="#FFD2C1"/>
<path d="M102.806 67.1055C102.806 67.1055 105.37 71.6316 104.778 73.7974C104.68 74.0955 104.68 74.3875 104.583 74.5822C104.387 75.8597 104.485 75.9571 105.175 76.6506C105.767 77.1433 105.669 77.338 105.37 77.6361C105.175 77.7335 105.071 78.0315 105.071 78.2262C105.071 78.5243 105.169 78.719 105.169 78.8163C105.169 78.9137 105.468 79.6011 104.674 79.5038C102.403 79.1083 104.18 79.6011 104.674 79.6984C104.674 79.6984 105.364 79.8931 105.266 80.0939C105.169 80.2946 104.87 80.7813 104.772 81.0794C104.674 81.3775 104.674 82.1623 104.473 82.5577C104.271 82.9532 102.202 83.5433 100.92 83.2452C99.9306 83.0505 98.6486 82.7524 98.0564 82.6551C97.8611 82.6551 97.5619 82.1623 97.3666 82.0649C97.0674 81.8703 96.3776 81.6695 95.7854 81.2802C94.6987 80.5927 95.5901 80.1973 95.6877 79.8019C95.7854 79.4064 95.7183 78.5973 95.6206 78.4026C95.5229 78.208 94.7048 77.046 94.5034 76.4559C94.2042 75.6711 94.6987 74.4909 94.9979 74.0955C95.3947 73.7001 96.0846 73.408 96.5791 73.7974C96.9759 74.0955 97.7634 74.5822 97.9588 74.1928C98.1541 73.7974 100.23 70.2568 100.724 69.9647C101.219 69.472 102.8 67.1116 102.8 67.1116L102.806 67.1055Z" fill="#FFD2C1"/>
<path fill-rule="evenodd" clip-rule="evenodd" d="M121.17 116.396L122.153 116.293L122.739 117.157L121.164 117.339L120.871 116.427L121.17 116.396Z" fill="#1A1A1A"/>
<path d="M105.23 79.1439C105.218 78.7728 105.23 78.6511 104.931 78.8458C104.833 78.9431 103.447 79.2534 103.545 79.3507L104.241 79.4359C104.461 79.4724 104.748 79.5515 104.833 79.5332C104.931 79.515 105.028 79.5332 105.132 79.4359C105.242 79.3386 105.224 79.2047 105.23 79.1378V79.1439Z" fill="#D6A483"/>
<path d="M104.992 80.6178C105.187 80.4232 105.291 80.1251 105.291 80.0277C105.291 79.9304 105.291 79.8331 105.096 79.7296C104.503 79.6323 103.533 79.4255 103.533 79.3281C103.533 79.4255 104.406 80.5144 104.998 80.6118L104.992 80.6178Z" fill="#D6A483"/>
<path d="M103.16 67.6964C103.16 67.6964 102.257 67.8363 102.043 68.9435C101.829 70.0507 101.835 71.0971 100.718 71.8575C99.6011 72.618 99.0882 73.0256 98.8379 73.7312C98.4594 74.7898 97.7696 75.0088 96.9576 74.7046C96.1335 74.3944 95.4314 73.8286 94.8697 74.808C94.3752 75.6658 95.175 77.8802 95.8832 78.3365C96.3105 78.6103 95.993 78.3913 96.2617 80.0521C96.5425 81.7676 96.628 81.3296 96.3288 82.1326C95.932 83.1973 95.5047 83.5197 93.7831 83.6596C91.4022 83.8543 92.2752 82.5524 90.4742 83.0087C88.9419 83.398 86.5304 83.1851 86.0848 81.433C85.6452 79.7114 86.2313 79.1213 84.1312 77.8924C82.141 76.7244 84.1312 74.4187 83.4352 73.0986C82.7393 71.7784 82.7393 70.5982 83.7832 69.6978C84.8272 68.7975 84.5524 67.2644 86.9883 67.3374C89.4242 67.4104 89.6378 66.0903 91.0298 65.1169C92.4217 64.1436 94.3813 63.669 95.8465 63.8759C97.3117 64.0827 99.8636 64.4356 100.865 64.8492C101.817 65.2386 103.343 67.3313 103.166 67.6964H103.16Z" fill="#42210B"/>
<path d="M95.6389 88.3867C95.9869 88.5936 97.1713 88.6666 99.1248 88.5266C101.078 88.3867 100.798 88.3867 101.701 88.6666C102.605 88.9464 102.641 90.9905 103.026 91.6536C103.41 92.3106 103.966 94.087 104.277 95.0908C104.589 96.1007 104.87 96.1676 105.321 97.1045C105.773 98.0413 105.865 101.941 105.865 101.941L104.381 99.2763C103.868 98.6254 104.039 95.7722 101.231 93.6551C99.3873 92.268 97.9344 94.2939 97.275 95.6262C96.9637 96.2467 96.7683 97.0497 96.9759 97.7067C97.3239 99.3371 97.7024 100.225 98.2518 101.253L99.8635 103.754L100.315 104.368C100.413 104.32 100.315 104.569 101.921 106.394C103.685 108.402 102.678 107.526 104.558 109.667C104.766 109.904 105.938 111.23 105.938 111.23L109.644 136.788C109.644 136.788 112.116 150.171 110.529 153.426C108.502 157.581 100.016 156.742 94.2165 157.228C89.8759 157.593 89.8759 155.251 82.0433 154.18C74.4915 153.152 89.1494 139.075 90.0896 134.056C90.8344 130.077 92.0614 124.912 92.8246 121.858C93.5938 118.805 91.0053 110.872 90.8283 107.069C90.7001 104.277 90.9076 101.625 91.3594 99.1242C91.5425 98.1083 91.8478 97.1166 92.2568 96.1676L95.6389 88.3867Z" fill="#74B79C"/>
<path d="M95.932 78.8782C96.2692 78.8782 96.5425 78.5977 96.5425 78.2516C96.5425 77.9055 96.2692 77.625 95.932 77.625C95.5949 77.625 95.3215 77.9055 95.3215 78.2516C95.3215 78.5977 95.5949 78.8782 95.932 78.8782Z" fill="#2EB779"/>
<path d="M96.8234 201.551C96.6768 201.618 96.5669 202.463 96.5608 202.634C96.5608 202.847 96.5425 203.4 96.7196 203.583C96.8356 203.704 97.2385 203.808 98.1481 203.844C99.0578 203.881 101.011 203.923 101.011 203.923H105.199L108.13 203.893C108.545 203.869 110.804 203.583 111.616 203.388C112.342 203.212 113.331 202.877 113.551 202.719C113.685 202.615 113.758 202.463 113.764 202.36C113.764 202.275 113.789 201.776 113.758 201.605C113.728 201.435 113.649 201.119 113.618 201.046C113.587 200.973 113.496 200.845 113.484 200.827C113.465 200.802 113.38 200.705 113.319 200.663C113.264 200.62 113.227 200.59 113.209 200.577C113.191 200.565 112.861 200.358 112.751 200.334C112.641 200.31 112.348 200.298 112.312 200.322C112.275 200.346 112.208 200.352 112.208 200.352C112.208 200.352 112.47 200.328 112.537 200.395C112.605 200.462 112.83 200.65 112.873 200.796C112.916 200.942 112.934 201.04 112.898 201.07C112.861 201.101 112.226 201.283 111.988 201.35C111.75 201.417 110.816 201.636 110.682 201.66C110.547 201.685 109.9 201.8 109.784 201.824C109.668 201.849 108.936 201.91 108.795 201.928C108.655 201.946 107.513 202.013 107.513 202.013L106.548 202.025L105.028 202.037H100.26L98.6243 201.971L97.4888 201.958C97.4888 201.958 97.0614 201.837 96.976 201.824C96.8905 201.812 96.8172 201.563 96.8172 201.563L96.8234 201.551Z" fill="#F9F9F9"/>
<path d="M97.9099 198.835C97.9099 198.835 98.203 199.194 98.3128 199.273C98.4227 199.352 98.9844 199.656 99.485 199.705C99.9856 199.754 100.871 199.778 101.347 199.644C101.823 199.51 102.415 199.224 102.605 199.097C102.794 198.969 103.465 198.458 103.49 198.446C103.514 198.434 103.636 198.701 103.679 198.78C103.722 198.859 103.746 198.89 103.71 198.926C103.673 198.963 103.319 199.218 103.313 199.218C103.307 199.218 102.953 199.431 102.94 199.431C102.928 199.431 102.476 199.632 102.476 199.632L101.994 199.839C101.994 199.839 101.787 199.924 101.744 199.936C101.701 199.948 101.084 200.082 101.084 200.082C101.084 200.082 100.645 200.155 100.553 200.161C100.462 200.167 100.303 200.186 100.163 200.149C100.022 200.113 99.7048 200.027 99.6803 200.021C99.6559 200.015 99.0943 199.839 99.0943 199.839C99.0943 199.839 98.6486 199.681 98.5448 199.62C98.441 199.559 98.3128 199.492 98.2579 199.419C98.203 199.346 98.1236 199.243 98.0747 199.157C98.0259 199.072 97.8977 198.823 97.8977 198.823L97.9099 198.835Z" fill="#3A1903"/>
<path d="M105.327 198.034C105.327 198.034 105.498 197.943 105.462 197.9C105.425 197.858 105.315 197.766 105.315 197.766C105.315 197.766 105.376 197.76 105.413 197.785C105.449 197.809 106.091 198.137 106.145 198.174C106.219 198.223 106.921 198.6 106.982 198.661C107.043 198.721 107.537 198.983 107.635 199.038C107.733 199.093 108.325 199.33 108.355 199.354C108.386 199.378 108.88 199.555 108.887 199.555C108.899 199.555 109.497 199.938 109.497 199.938L107.629 199.117L106.286 198.496L105.327 198.04V198.034Z" fill="#260E01"/>
<path d="M97.7878 198.708C97.7878 198.708 97.2506 198.829 97.1712 199.225C97.159 199.273 97.1529 199.316 97.1407 199.365C97.098 199.553 96.9942 200.003 96.9637 200.265C96.927 200.6 96.7866 201.494 96.7988 201.616C96.8111 201.737 96.8294 201.798 97.1224 201.889C97.4399 201.987 100.828 202.048 100.822 202.035L107.354 202.06C107.354 202.06 110.565 201.95 112.073 201.421C112.379 201.33 112.635 201.22 112.836 201.092C112.922 201.044 112.977 201.001 112.965 200.94C112.952 200.855 112.922 200.721 112.898 200.673C112.855 200.587 112.543 200.32 112.452 200.295C112.36 200.271 111.976 200.35 111.768 200.308C111.561 200.265 109.576 199.9 109.509 199.87C109.442 199.839 109.021 199.632 108.337 199.34C107.653 199.048 105.578 198.038 105.388 197.978C105.199 197.917 104.509 198.184 104.351 198.318C104.192 198.452 103.307 199.176 103.105 199.286C102.977 199.359 102.342 199.632 102.006 199.772C101.86 199.833 101.707 199.882 101.555 199.912C101.176 199.991 100.486 200.095 100.15 200.095C99.7536 200.095 98.5449 199.657 98.264 199.377C97.9832 199.097 97.8977 198.726 97.8428 198.714H97.7817L97.7878 198.708Z" fill="#66300C"/>
<path d="M107.953 199.948C108.118 199.948 108.252 199.812 108.252 199.644C108.252 199.476 108.118 199.34 107.953 199.34C107.787 199.34 107.654 199.476 107.654 199.644C107.654 199.812 107.787 199.948 107.953 199.948Z" fill="#C3F2F4"/>
<path d="M108.74 200.166C108.872 200.166 108.978 200.057 108.978 199.923C108.978 199.789 108.872 199.68 108.74 199.68C108.609 199.68 108.502 199.789 108.502 199.923C108.502 200.057 108.609 200.166 108.74 200.166Z" fill="#C3F2F4"/>
<path d="M105.614 198.981C105.793 198.981 105.938 198.836 105.938 198.658C105.938 198.48 105.793 198.336 105.614 198.336C105.436 198.336 105.291 198.48 105.291 198.658C105.291 198.836 105.436 198.981 105.614 198.981Z" fill="#C3F2F4"/>
<path d="M106.402 199.3C106.567 199.3 106.701 199.164 106.701 198.996C106.701 198.828 106.567 198.691 106.402 198.691C106.237 198.691 106.103 198.828 106.103 198.996C106.103 199.164 106.237 199.3 106.402 199.3Z" fill="#C3F2F4"/>
<path d="M107.147 199.608C107.312 199.608 107.446 199.472 107.446 199.304C107.446 199.136 107.312 199 107.147 199C106.982 199 106.848 199.136 106.848 199.304C106.848 199.472 106.982 199.608 107.147 199.608Z" fill="#C3F2F4"/>
<path d="M105.505 198.733C105.407 198.617 105.474 198.349 105.608 198.289C105.706 198.24 105.846 198.033 105.889 198.039C105.932 198.045 106.243 198.216 106.335 198.276C106.414 198.331 106.347 198.343 106.194 198.447C105.889 198.654 105.828 198.806 105.694 198.812C105.56 198.818 105.505 198.739 105.505 198.739V198.733Z" fill="#C18E6C"/>
<path d="M106.347 199.059C106.274 198.968 106.323 198.755 106.433 198.7C106.512 198.664 106.634 198.463 106.671 198.469C106.707 198.475 106.97 198.609 107.013 198.682C107.055 198.755 107.019 198.743 106.897 198.822C106.652 198.986 106.61 199.108 106.494 199.114C106.378 199.12 106.347 199.059 106.347 199.059Z" fill="#C18E6C"/>
<path d="M107.068 199.373C106.994 199.287 107.043 199.093 107.147 199.044C107.22 199.008 107.324 198.855 107.354 198.855C107.385 198.855 107.623 198.971 107.66 199.044C107.696 199.117 107.69 199.081 107.574 199.16C107.348 199.312 107.306 199.427 107.202 199.427C107.098 199.427 107.061 199.373 107.061 199.373H107.068Z" fill="#C18E6C"/>
<path d="M107.891 199.662C107.837 199.589 107.873 199.431 107.953 199.394C108.014 199.364 108.093 199.242 108.123 199.242C108.154 199.242 108.362 199.327 108.398 199.382C108.435 199.437 108.398 199.425 108.307 199.486C108.123 199.613 108.087 199.705 108.001 199.705C107.916 199.705 107.885 199.662 107.885 199.662H107.891Z" fill="#C18E6C"/>
<path d="M108.655 199.978C108.6 199.905 108.636 199.747 108.716 199.711C108.777 199.68 108.856 199.559 108.887 199.559C108.917 199.559 109.106 199.656 109.137 199.711C109.167 199.765 109.161 199.741 109.07 199.802C108.887 199.93 108.85 200.021 108.765 200.021C108.679 200.021 108.649 199.978 108.649 199.978H108.655Z" fill="#C18E6C"/>
<path d="M103.716 198.843C103.716 198.843 103.63 198.399 103.63 198.265C103.63 198.131 103.728 197.261 103.722 197.225C103.722 197.182 103.698 197.024 103.643 197.097C103.606 197.146 103.362 197.748 103.435 198.223C103.514 198.721 103.704 198.849 103.716 198.837V198.843Z" fill="#2D1301"/>
<path d="M103.636 197.102C103.636 197.102 103.844 196.834 104.107 196.974C104.332 197.09 104.943 197.491 105.12 197.613C105.151 197.637 105.187 197.655 105.224 197.668C105.364 197.735 105.505 197.801 105.553 197.856C105.553 197.856 105.462 197.96 105.419 197.984H105.407C105.358 198.02 105.303 198.039 105.248 198.045C105.151 198.057 104.98 198.081 104.925 198.106C104.845 198.136 104.54 198.282 104.436 198.367C104.436 198.367 104.29 198.489 104.162 198.592C104.033 198.696 103.716 198.848 103.704 198.854C103.685 198.86 103.539 198.166 103.533 198.051C103.533 197.984 103.551 197.643 103.618 197.394C103.679 197.169 103.63 197.108 103.63 197.108L103.636 197.102Z" fill="#4F2305"/>
<path d="M89.003 202.062C88.8565 202.129 88.7466 202.975 88.7405 203.145C88.7405 203.358 88.7222 203.912 88.8993 204.094C89.0153 204.216 89.4182 204.319 90.3278 204.356C91.2313 204.386 93.191 204.435 93.191 204.435H97.379L100.309 204.405C100.724 204.38 102.983 204.094 103.795 203.9C104.522 203.723 105.511 203.389 105.731 203.231C105.865 203.127 105.938 202.975 105.944 202.872C105.944 202.786 105.969 202.288 105.938 202.117C105.908 201.947 105.828 201.631 105.798 201.558C105.767 201.485 105.676 201.357 105.663 201.339C105.645 201.314 105.56 201.217 105.499 201.174C105.444 201.132 105.407 201.101 105.389 201.089C105.37 201.077 105.041 200.87 104.931 200.846C104.821 200.821 104.528 200.809 104.491 200.834C104.455 200.858 104.387 200.864 104.387 200.864C104.387 200.864 104.65 200.84 104.717 200.907C104.784 200.974 105.01 201.162 105.053 201.308C105.096 201.454 105.114 201.551 105.077 201.582C105.041 201.612 104.406 201.795 104.168 201.862C103.93 201.929 102.996 202.148 102.861 202.172C102.727 202.196 102.08 202.312 101.964 202.336C101.848 202.361 101.115 202.421 100.975 202.44C100.834 202.458 99.6927 202.525 99.6927 202.525L98.7282 202.537L97.208 202.549H92.4401L90.804 202.482L89.6685 202.47C89.6685 202.47 89.2411 202.348 89.1557 202.336C89.0702 202.324 88.9969 202.075 88.9969 202.075L89.003 202.062Z" fill="white"/>
<path d="M90.0896 199.347C90.0896 199.347 90.3826 199.706 90.4925 199.785C90.6024 199.864 91.1641 200.168 91.6647 200.217C92.1653 200.265 93.0505 200.29 93.5267 200.156C94.0029 200.022 94.595 199.736 94.7843 199.608C94.9735 199.481 95.6451 198.97 95.6695 198.957C95.6939 198.945 95.816 199.213 95.8587 199.292C95.9015 199.371 95.9259 199.402 95.8893 199.438C95.8526 199.475 95.4986 199.73 95.4925 199.73C95.4863 199.73 95.1323 199.943 95.1201 199.943C95.1078 199.943 94.6561 200.144 94.6561 200.144L94.1738 200.351C94.1738 200.351 93.9662 200.436 93.9235 200.448C93.8808 200.46 93.2642 200.594 93.2642 200.594C93.2642 200.594 92.8246 200.667 92.733 200.673C92.6415 200.679 92.4827 200.697 92.3423 200.661C92.2019 200.624 91.8844 200.539 91.86 200.533C91.8356 200.527 91.274 200.351 91.274 200.351C91.274 200.351 90.8283 200.192 90.7245 200.132C90.6207 200.071 90.4925 200.004 90.4376 199.931C90.3826 199.858 90.3033 199.754 90.2544 199.669C90.2056 199.584 90.0774 199.335 90.0774 199.335L90.0896 199.347Z" fill="#3A1903"/>
<path d="M97.5132 198.538C97.5132 198.538 97.6841 198.447 97.6475 198.404C97.6109 198.361 97.501 198.27 97.501 198.27C97.501 198.27 97.562 198.264 97.5987 198.288C97.6353 198.313 98.2763 198.641 98.3312 198.678C98.4045 198.726 99.1066 199.104 99.1676 199.164C99.2287 199.225 99.7232 199.487 99.8208 199.542C99.9185 199.596 100.511 199.834 100.541 199.858C100.572 199.882 101.066 200.059 101.072 200.059C101.085 200.059 101.683 200.442 101.683 200.442L99.8147 199.621L98.4717 199L97.5132 198.544V198.538Z" fill="#260E01"/>
<path d="M89.9675 199.219C89.9675 199.219 89.4303 199.341 89.3509 199.736C89.3387 199.785 89.3326 199.828 89.3204 199.876C89.2777 200.065 89.1739 200.515 89.1434 200.777C89.1067 201.111 88.9663 202.006 88.9785 202.127C88.9907 202.249 89.0091 202.31 89.3021 202.401C89.6196 202.498 93.0078 202.559 93.0017 202.547L99.5339 202.571C99.5339 202.571 102.745 202.462 104.253 201.933C104.558 201.841 104.815 201.732 105.016 201.604C105.102 201.555 105.157 201.513 105.144 201.452C105.132 201.367 105.102 201.233 105.077 201.184C105.034 201.099 104.723 200.831 104.632 200.807C104.54 200.783 104.155 200.862 103.948 200.819C103.74 200.777 101.756 200.412 101.689 200.381C101.622 200.351 101.201 200.144 100.517 199.852C99.8331 199.56 97.7574 198.55 97.5681 198.489C97.3789 198.428 96.689 198.696 96.5303 198.83C96.3716 198.964 95.4864 199.688 95.2849 199.797C95.1567 199.87 94.5218 200.144 94.186 200.284C94.0395 200.345 93.8869 200.393 93.7343 200.424C93.3558 200.503 92.6659 200.606 92.3301 200.606C91.9333 200.606 90.7245 200.168 90.4437 199.889C90.1629 199.609 90.0774 199.238 90.0225 199.225H89.9614L89.9675 199.219Z" fill="#66300C"/>
<path d="M100.138 200.46C100.304 200.46 100.438 200.324 100.438 200.156C100.438 199.988 100.304 199.852 100.138 199.852C99.9733 199.852 99.8394 199.988 99.8394 200.156C99.8394 200.324 99.9733 200.46 100.138 200.46Z" fill="#C3F2F4"/>
<path d="M100.926 200.678C101.057 200.678 101.164 200.569 101.164 200.435C101.164 200.3 101.057 200.191 100.926 200.191C100.794 200.191 100.688 200.3 100.688 200.435C100.688 200.569 100.794 200.678 100.926 200.678Z" fill="#C3F2F4"/>
<path d="M97.8001 199.493C97.9788 199.493 98.1237 199.348 98.1237 199.17C98.1237 198.992 97.9788 198.848 97.8001 198.848C97.6214 198.848 97.4766 198.992 97.4766 199.17C97.4766 199.348 97.6214 199.493 97.8001 199.493Z" fill="#C3F2F4"/>
<path d="M98.5816 199.811C98.7468 199.811 98.8808 199.675 98.8808 199.507C98.8808 199.339 98.7468 199.203 98.5816 199.203C98.4164 199.203 98.2825 199.339 98.2825 199.507C98.2825 199.675 98.4164 199.811 98.5816 199.811Z" fill="#C3F2F4"/>
<path d="M99.3265 200.12C99.4917 200.12 99.6256 199.984 99.6256 199.816C99.6256 199.648 99.4917 199.512 99.3265 199.512C99.1613 199.512 99.0273 199.648 99.0273 199.816C99.0273 199.984 99.1613 200.12 99.3265 200.12Z" fill="#C3F2F4"/>
<path d="M97.6843 199.244C97.5866 199.129 97.6538 198.861 97.7881 198.8C97.8858 198.752 98.0262 198.545 98.0689 198.551C98.1116 198.557 98.423 198.727 98.5146 198.788C98.5939 198.843 98.5268 198.855 98.3742 198.959C98.0689 199.165 98.0079 199.317 97.8736 199.324C97.7392 199.33 97.6843 199.251 97.6843 199.251V199.244Z" fill="#C18E6C"/>
<path d="M98.5329 199.567C98.4596 199.476 98.5085 199.263 98.6183 199.208C98.6977 199.171 98.8198 198.971 98.8564 198.977C98.8931 198.983 99.1556 199.117 99.1983 199.19C99.2411 199.263 99.2044 199.25 99.0823 199.33C98.8381 199.494 98.7954 199.615 98.6794 199.622C98.5634 199.628 98.5329 199.567 98.5329 199.567Z" fill="#C18E6C"/>
<path d="M99.2472 199.884C99.1739 199.799 99.2228 199.604 99.3266 199.556C99.3998 199.519 99.5036 199.367 99.5341 199.367C99.5647 199.367 99.8028 199.483 99.8394 199.556C99.876 199.629 99.8699 199.592 99.7539 199.671C99.528 199.823 99.4853 199.939 99.3815 199.939C99.2777 199.939 99.2411 199.884 99.2411 199.884H99.2472Z" fill="#C18E6C"/>
<path d="M100.071 200.17C100.016 200.097 100.053 199.939 100.132 199.902C100.193 199.872 100.273 199.75 100.303 199.75C100.334 199.75 100.541 199.835 100.578 199.89C100.614 199.945 100.578 199.933 100.486 199.993C100.303 200.121 100.267 200.212 100.181 200.212C100.096 200.212 100.065 200.17 100.065 200.17H100.071Z" fill="#C18E6C"/>
<path d="M100.834 200.49C100.779 200.417 100.816 200.259 100.895 200.222C100.956 200.192 101.036 200.07 101.066 200.07C101.097 200.07 101.286 200.168 101.317 200.222C101.347 200.277 101.341 200.253 101.249 200.314C101.066 200.441 101.03 200.533 100.944 200.533C100.859 200.533 100.828 200.49 100.828 200.49H100.834Z" fill="#C18E6C"/>
<path d="M95.8955 199.355C95.8955 199.355 95.8101 198.911 95.8101 198.777C95.8101 198.643 95.9077 197.773 95.9016 197.737C95.9016 197.694 95.8772 197.536 95.8223 197.609C95.7856 197.657 95.5414 198.26 95.6147 198.734C95.6941 199.233 95.8833 199.361 95.8955 199.349V199.355Z" fill="#2D1301"/>
<path d="M95.8162 197.614C95.8162 197.614 96.0238 197.346 96.2863 197.486C96.5121 197.601 97.1226 198.003 97.2997 198.125C97.3302 198.149 97.3668 198.167 97.4035 198.179C97.5439 198.246 97.6843 198.313 97.7331 198.368C97.7331 198.368 97.6416 198.471 97.5988 198.496H97.5866C97.5378 198.532 97.4828 198.55 97.4279 198.557C97.3302 198.569 97.1593 198.593 97.1043 198.617C97.025 198.648 96.7197 198.794 96.6159 198.879C96.6159 198.879 96.4694 199.001 96.3412 199.104C96.213 199.207 95.8955 199.36 95.8833 199.366C95.865 199.372 95.7185 198.678 95.7124 198.563C95.7124 198.496 95.7307 198.155 95.7979 197.906C95.8589 197.68 95.8101 197.62 95.8101 197.62L95.8162 197.614Z" fill="#4F2305"/>
</g>
<defs>
<clipPath id="clip0_22158_460000">
<rect width="116.293" height="155.958" fill="white" transform="translate(60.0596 63.8281)"/>
</clipPath>
</defs>
</svg>
