<svg width="350" height="233" viewBox="0 0 350 233" fill="none" xmlns="http://www.w3.org/2000/svg">
<path d="M240.68 112.017L255.856 127.55C258.077 129.88 259.278 132.984 259.192 136.285L258.077 163.269L257.52 207.729H272.509L270.013 144.722L269.456 136.375C269.181 131.913 270.751 127.542 273.898 124.431L286.297 112.009L287.96 110.263H280.184L268.985 120.751C268.797 120.948 268.522 120.751 268.522 120.553L268.616 104.633H260.753L260.847 121.237C260.847 121.525 260.573 121.624 260.384 121.434L244.839 108.527L238.082 108.724L240.672 112.025L240.68 112.017Z" fill="#937F6F"/>
<path d="M301.102 110.561C292.682 112.693 253.72 110.561 226.513 110.174C225.124 110.174 223.735 109.976 222.346 109.688C213.368 107.556 208.189 101.728 205.042 93.9652C203.928 91.2486 203.378 88.3345 203.473 85.3216C203.661 78.6209 206.156 72.9902 211.249 68.7178C207.828 62.7003 206.07 55.8102 207.545 47.7511C208.103 44.837 209.209 42.1205 210.598 39.6921C214.671 32.7032 219.67 27.2701 226.795 25.2286C231.794 10.5675 241.509 4.1631 252.982 0.475201C263.992 -1.36875 271.957 2.22037 277.78 10.0819C297.767 7.4641 308.408 15.9101 306.933 38.9101C318.689 46.3846 323.036 55.9995 322.942 66.7751C329.51 71.8213 332.194 77.9376 331.919 84.8277C331.456 94.5332 325.163 102.979 316.468 106.379C311.751 108.223 306.933 109.293 304.343 109.68C303.229 110.067 302.123 110.264 301.102 110.552V110.561Z" fill="#DEF2AF"/>
<path d="M301.569 114.249C293.329 116.291 254.923 114.249 228.179 113.862C226.79 113.862 225.401 113.665 224.107 113.376C215.317 111.244 210.13 105.614 207.078 97.9416C205.963 95.225 205.414 92.3109 205.508 89.4956C205.697 82.8936 208.098 77.3618 213.097 73.1882C209.675 67.2694 208.004 60.4698 209.487 52.5096C210.044 49.6943 211.056 46.9777 212.539 44.5493C216.518 37.6592 221.517 32.3167 228.454 30.3739C233.359 16.0092 242.98 9.59655 254.178 6.00743C265.007 4.16348 272.871 7.7526 278.521 15.4248C298.233 12.807 308.686 21.1542 307.211 43.7755C318.778 51.1513 323.126 60.5686 323.039 71.2454C329.513 76.1928 332.197 82.2186 331.828 89.0099C331.365 98.6166 325.166 106.873 316.651 110.174C312.021 112.018 307.305 112.99 304.715 113.475C303.695 113.673 302.683 113.961 301.569 114.249Z" fill="#A9D661"/>
<path d="M175 233C271.65 233 350 225.613 350 216.5C350 207.387 271.65 200 175 200C78.3502 200 0 207.387 0 216.5C0 225.613 78.3502 233 175 233Z" fill="#F3F3F3"/>
<path d="M84.4839 184.122C95.2319 171.263 97.7992 167.025 111.874 163.995C125.949 160.972 133.362 152.8 146.526 160.516C159.841 168.233 160.297 170.808 171.341 166.873C182.537 163.091 187.991 165.21 197.979 173.686C207.815 182.314 215.533 188.663 222.042 189.119C228.4 189.575 226.281 201.529 226.281 201.529L104.613 204.104L81.0051 204.56C78.5821 198.507 80.8532 191.398 84.4839 184.129V184.122Z" fill="#AED3D3"/>
<path d="M130.08 174.368C130.08 174.368 130.824 173.624 130.08 166.674C129.335 159.725 132.564 153.52 132.564 153.52C132.564 153.52 131.075 168.163 131.325 169.894C131.576 171.634 130.087 174.36 130.087 174.36L130.08 174.368Z" fill="#0B9D99"/>
<path d="M132.066 181.568C132.066 181.568 132.066 180.824 127.851 177.353C123.635 173.882 121.896 168.672 121.896 168.672C121.896 168.672 129.34 177.353 130.335 178.348C131.33 179.343 132.074 181.576 132.074 181.576L132.066 181.568Z" fill="#0B9D99"/>
<path d="M132.553 190.249C132.553 190.249 133.298 189.755 133.047 184.294C132.796 178.834 135.774 174.117 135.774 174.117C135.774 174.117 133.791 185.282 133.791 186.77C133.791 188.008 132.553 190.241 132.553 190.241V190.249Z" fill="#0B9D99"/>
<path d="M131.811 196.454C131.811 196.454 131.067 195.96 130.322 190.499C129.327 185.039 125.605 181.066 125.605 181.066C125.605 181.066 129.578 191.737 130.071 192.975C130.565 194.213 131.811 196.446 131.811 196.446V196.454Z" fill="#0B9D99"/>
<path d="M129.578 201.414C129.578 201.414 136.278 181.812 126.35 166.675C116.422 151.538 124.611 157.994 126.35 160.971C128.332 164.199 135.283 183.551 132.799 196.706C132.799 196.706 132.054 201.171 131.804 201.665C131.31 201.916 129.571 201.414 129.571 201.414H129.578Z" fill="#0B9D99"/>
<path d="M156.731 159.231C156.731 159.231 157.726 158.236 156.731 149.555C155.736 140.873 159.959 133.18 159.959 133.18C159.959 133.18 158.219 151.294 158.219 153.276C158.219 155.76 156.731 159.231 156.731 159.231Z" fill="#EACE03"/>
<path d="M159.208 167.92C159.208 167.92 159.208 166.925 153.746 162.71C148.536 158.495 146.553 152.039 146.553 152.039C146.553 152.039 155.736 162.71 156.975 163.948C157.97 165.186 159.208 167.92 159.208 167.92Z" fill="#EACE03"/>
<path d="M159.707 178.592C159.707 178.592 160.452 177.847 160.201 171.149C159.95 164.45 163.672 158.738 163.672 158.738C163.672 158.738 161.188 172.637 161.188 174.369C161.188 176.1 159.7 178.584 159.7 178.584L159.707 178.592Z" fill="#EACE03"/>
<path d="M158.965 190.247C158.965 190.247 158.221 189.503 157.97 182.804C157.719 176.105 153.754 170.645 153.754 170.645C153.754 170.645 156.983 184.293 157.226 186.032C157.476 187.771 158.965 190.247 158.965 190.247Z" fill="#EACE03"/>
<path d="M156.232 203.405C156.232 203.405 164.42 168.414 152.016 149.807C139.605 131.199 149.783 139.136 152.016 142.614C154.5 146.586 162.939 170.154 159.954 186.536C159.954 186.536 159.209 202.668 158.715 203.412C158.465 203.906 156.232 203.412 156.232 203.412V203.405Z" fill="#EACE03"/>
<path d="M206.708 144.758C206.708 144.758 207.703 143.763 206.708 135.576C205.713 127.388 209.685 119.945 209.685 119.945C209.685 119.945 207.946 137.315 208.197 139.297C208.197 141.28 206.708 144.758 206.708 144.758Z" fill="#EACE03"/>
<path d="M209.189 153.195C209.189 153.195 209.189 152.2 203.978 148.236C199.018 144.264 197.028 138.059 197.028 138.059C197.028 138.059 205.71 148.479 206.955 149.474C207.95 150.469 209.189 153.195 209.189 153.195Z" fill="#EACE03"/>
<path d="M209.686 163.367C209.686 163.367 210.431 162.623 210.18 156.175C209.929 149.726 213.408 144.266 213.408 144.266C213.408 144.266 210.924 157.663 210.924 159.152C210.924 160.891 209.686 163.367 209.686 163.367Z" fill="#EACE03"/>
<path d="M208.695 170.809C208.695 170.809 207.951 170.316 206.713 163.86C205.475 157.412 201.252 152.695 201.252 152.695C201.252 152.695 205.969 165.349 206.462 166.837C206.713 168.576 208.695 170.809 208.695 170.809Z" fill="#EACE03"/>
<path d="M205.963 176.762C205.963 176.762 213.9 153.437 202.241 135.574C190.331 117.71 200.258 125.397 202.241 128.624C204.474 132.597 212.662 155.177 209.935 170.807C209.935 170.807 208.94 176.017 208.697 176.511C208.203 177.255 205.97 176.762 205.97 176.762H205.963Z" fill="#EACE03"/>
<path d="M176.568 150.091C176.568 150.091 175.573 148.853 176.568 138.675C177.563 128.498 172.846 119.566 172.846 119.566C172.846 119.566 174.828 140.908 174.828 143.384C174.828 146.111 176.568 150.083 176.568 150.083V150.091Z" fill="#0B9D99"/>
<path d="M173.835 160.51C173.835 160.51 173.835 159.272 180.041 154.305C186.247 149.345 188.723 141.895 188.723 141.895C188.723 141.895 178.051 154.548 176.562 156.036C175.074 157.274 173.835 160.502 173.835 160.502V160.51Z" fill="#0B9D99"/>
<path d="M173.09 173.172C173.09 173.172 172.095 172.428 172.345 164.491C172.596 156.554 168.13 149.848 168.13 149.848C168.13 149.848 171.107 166.222 171.107 168.212C171.107 170.202 173.09 173.172 173.09 173.172Z" fill="#0B9D99"/>
<path d="M173.835 186.812C173.835 186.812 174.83 186.068 175.074 178.131C175.324 170.194 180.034 163.738 180.034 163.738C180.034 163.738 176.061 179.87 175.818 181.852C175.818 183.835 173.835 186.812 173.835 186.812Z" fill="#0B9D99"/>
<path d="M177.31 202.2C177.31 202.2 167.633 161.012 182.27 138.675C196.915 116.589 184.754 126.022 182.27 130.237C179.293 134.954 169.365 162.995 172.836 182.096C172.836 182.096 173.831 201.205 174.074 201.949C174.568 202.944 177.303 202.2 177.303 202.2H177.31Z" fill="#0B9D99"/>
<path d="M220.685 130.57C220.685 130.57 221.43 129.575 220.685 121.387C219.941 113.2 223.663 106 223.663 106C223.663 106 221.923 123.119 222.174 125.352C222.174 127.091 220.685 130.562 220.685 130.562V130.57Z" fill="#0B9D99"/>
<path d="M222.916 139.008C222.916 139.008 222.916 138.013 217.956 134.048C212.996 130.076 211.006 123.871 211.006 123.871C211.006 123.871 219.688 134.048 220.933 135.286C221.928 136.281 222.916 139.008 222.916 139.008Z" fill="#0B9D99"/>
<path d="M223.42 148.937C223.42 148.937 224.164 148.192 223.914 141.744C223.663 135.296 227.142 130.078 227.142 130.078C227.142 130.078 224.909 143.233 224.658 144.964C224.909 146.453 223.42 148.937 223.42 148.937Z" fill="#0B9D99"/>
<path d="M222.917 160.1C222.917 160.1 222.173 159.355 221.922 153.15C221.671 146.702 217.949 141.484 217.949 141.484C217.949 141.484 221.178 154.639 221.178 156.128C221.178 157.616 222.917 160.1 222.917 160.1Z" fill="#0B9D99"/>
<path d="M219.94 172.51C219.94 172.51 227.634 139.259 215.967 121.396C204.3 103.532 213.985 111.219 215.967 114.697C218.201 118.669 226.389 140.999 223.411 156.386C223.411 156.386 222.667 171.774 222.416 172.518C222.165 173.012 219.932 172.518 219.932 172.518L219.94 172.51Z" fill="#0B9D99"/>
<path d="M251.465 181.039C244.682 168.575 242.988 164.436 234.967 161.907C226.946 159.378 222.305 151.479 215.462 159.636C208.618 167.793 208.436 170.383 202.048 166.844C195.576 163.456 192.682 165.765 187.646 174.568C182.709 183.515 178.812 190.13 175.22 190.806C171.71 191.482 173.632 203.338 173.632 203.338L241.507 201.674L254.678 201.31C255.635 195.036 253.934 188.011 251.465 181.046V181.039Z" fill="#C4EDEE"/>
<g clip-path="url(#clip0_22158_427326)">
<path d="M244.238 181.716L244.526 181.581C245.568 181.095 246.77 181.655 247.175 182.815L250.553 192.497C250.62 192.689 250.711 192.869 250.824 193.034C251.475 193.981 253.809 197.034 256.075 195.791C258.578 194.418 262.96 183.323 262.587 184.218C262.587 184.218 266.859 175.517 266.901 175.451C267.736 174.154 268.972 177.511 269.688 178.957L269.629 178.969C269.966 179.651 269.113 180.428 268.747 181.091L262.468 192.943C262.406 193.056 261.814 194.197 261.752 194.312C261.177 195.37 259.905 199.245 257.044 200.107C253.858 201.067 250.709 201.075 249.934 200.88C249.159 200.686 248.126 200.918 247.583 198.806C247.165 197.18 244.39 188.401 243.135 184.448C242.79 183.361 243.272 182.166 244.239 181.715L244.238 181.716Z" fill="#00DFF4"/>
<path d="M246.06 180.39L246.989 180.106L251.234 191.214C251.469 191.875 251.807 192.491 252.247 193.012C252.849 193.724 253.72 194.368 254.621 193.719C256.258 192.536 258.902 184.454 258.902 184.454C258.902 184.454 260.036 181.483 260.349 181.442C260.662 181.401 261.056 181.415 261.837 181.567C262.618 181.719 263.274 180.402 263.372 180.197C263.47 179.992 264.596 178.38 264.494 177.666C264.393 176.952 264.791 177.109 264.975 177.159C265.16 177.21 266.14 177.574 265.453 176.538C264.765 175.503 266.715 174.279 266.715 174.279L267.332 175.538L267.427 175.874L267.535 176.117L266.443 177.993L262.622 185.05L258.061 194.271C258.061 194.271 255.531 198.333 251.607 194.419C251.607 194.419 250.18 192.791 249.334 189.752C248.488 186.712 246.061 180.391 246.061 180.391L246.06 180.39Z" fill="#00BDF1"/>
<path d="M284.937 185.115L280.625 195.013L281.108 195.23L285.514 185.36L284.978 185.036L284.937 185.115Z" fill="black"/>
<path d="M284.349 184.746L280.134 194.392L279.634 194.101L283.91 184.517L284.349 184.746Z" fill="black"/>
<path d="M271.586 180.118C271.827 180.559 278.485 194.555 278.485 194.555L277.036 195.586L265.481 174.573L268.006 172.538L271.586 180.118Z" fill="#00DFF4"/>
<path d="M269.136 174.978L271.394 179.807C271.394 179.807 273.062 179.726 275.289 178.824C277.517 177.923 277.287 175.32 277.067 173.772C276.847 172.225 276.647 171.935 276.647 171.935L268.723 174.087L269.136 174.978Z" fill="#202321"/>
<path d="M269.251 174.378L269.679 175.131L276.305 173.519C276.305 173.519 276.778 173.156 276.413 172.359L269.251 174.378Z" fill="black"/>
<path d="M280.777 213.55C272.868 214.219 265.925 207.57 265.3 198.729C264.675 189.888 270.6 182.152 278.509 181.483C286.418 180.815 293.361 187.463 293.986 196.305C294.611 205.146 288.686 212.882 280.777 213.55ZM278.71 184.32C272.228 184.867 267.372 191.233 267.887 198.51C268.401 205.788 274.094 211.262 280.576 210.714C287.058 210.166 291.914 203.8 291.399 196.523C290.885 189.246 285.192 183.772 278.71 184.32Z" fill="black"/>
<path d="M270.53 205.683L277.181 199.291L276.819 198.878L270.093 205.201L270.463 205.736L270.53 205.683Z" fill="black"/>
<path d="M270.678 206.397L277.954 199.355L278.339 199.912L271.028 206.859L270.678 206.397Z" fill="black"/>
<path d="M271.474 187.133L277.434 195.95L277.835 195.584L271.942 186.689L271.43 187.057L271.474 187.133Z" fill="black"/>
<path d="M270.902 187.532L276.704 196.135L276.235 196.484L270.512 187.85L270.902 187.532Z" fill="black"/>
<path d="M291.727 196.925L281.302 197.535L281.36 198.103L291.808 197.597L291.81 196.926L291.727 196.925Z" fill="black"/>
<path d="M291.74 196.184L281.166 196.833L281.158 196.212L291.711 195.651L291.74 196.184Z" fill="black"/>
<path d="M284.301 210.421L280.116 199.62L279.615 199.92L283.712 210.789L284.333 210.514L284.301 210.421Z" fill="black"/>
<path d="M285.056 209.79L280.569 199.127L281.151 198.86L285.546 209.535L285.056 209.79Z" fill="black"/>
<path d="M276.314 197.999L265.076 194.194L265.396 192.785L276.452 196.612L276.314 197.999Z" fill="black"/>
<path d="M265.149 195.225C265.149 195.225 264.926 192.325 266.835 189.132C268.744 185.94 269.864 183.966 274.243 182.061C278.622 180.156 282.618 181.736 282.618 181.736L284.092 181.305C284.092 181.305 282.278 180.384 279.933 180.391C277.589 180.398 271.981 180.756 268.483 185.233C264.986 189.71 264.845 191.679 264.671 192.192C264.497 192.705 264.065 195.504 264.065 195.504L263.87 196.699" fill="black"/>
<path d="M279.234 200.103C280.816 199.969 282.003 198.503 281.885 196.829C281.766 195.154 280.387 193.905 278.805 194.039C277.223 194.173 276.036 195.639 276.154 197.313C276.273 198.988 277.651 200.237 279.234 200.103Z" fill="black"/>
<path d="M222.266 181.238L222.432 183.583C222.432 183.583 226.934 183.548 229.31 185.476C231.685 187.404 233.268 190.008 233.588 194.264L244.562 193.087L246.205 192.906C246.205 192.906 244.559 183.332 236.119 179.756C236.119 179.756 233.144 178.54 229.093 179.268C225.924 179.837 222.232 180.779 222.232 180.779L222.265 181.237L222.266 181.238Z" fill="black"/>
<path d="M247.285 201.136C247.064 201.154 246.838 201.145 246.614 201.106L233.155 198.766C231.985 198.563 231.174 197.623 231.225 196.533L231.233 196.358C231.289 195.194 232.328 194.276 233.601 194.266C233.681 194.266 233.761 194.269 233.841 194.275L247.284 195.415C248.507 195.518 249.434 196.445 249.441 197.569L249.45 198.943C249.453 199.522 249.215 200.067 248.778 200.479C248.375 200.858 247.844 201.086 247.284 201.134L247.285 201.136ZM233.466 195.188C232.711 195.251 232.096 195.775 232.067 196.405L232.059 196.58C232.03 197.185 232.557 197.737 233.285 197.864L246.745 200.203C247.3 200.3 247.858 200.144 248.236 199.788C248.483 199.554 248.619 199.257 248.617 198.952L248.609 197.578C248.605 196.944 247.995 196.395 247.221 196.329L233.778 195.19C233.722 195.185 233.664 195.183 233.607 195.183C233.559 195.183 233.512 195.186 233.466 195.19L233.466 195.188Z" fill="black"/>
<path d="M233.281 195.614L245.358 196.665L244.92 199.387L232.548 197.632L233.281 195.614Z" fill="#81B928"/>
<path d="M233.299 212.214C225.39 212.883 218.447 206.234 217.822 197.393C217.196 188.552 223.122 180.816 231.031 180.147C238.94 179.479 245.883 186.127 246.508 194.969C247.133 203.81 241.208 211.546 233.299 212.214ZM231.232 182.984C224.749 183.531 219.894 189.897 220.409 197.174C220.923 204.452 226.616 209.926 233.098 209.378C239.58 208.83 244.436 202.465 243.921 195.187C243.407 187.91 237.714 182.436 231.232 182.984Z" fill="black"/>
<path d="M223.531 205.15L229.932 197.095L229.477 196.712L222.985 204.707L223.466 205.219L223.531 205.15Z" fill="black"/>
<path d="M224.055 205.728L230.477 197.879L231.108 197.865L224.459 206.11L224.055 205.728Z" fill="black"/>
<path d="M225.99 184.173L230.811 193.791L231.252 193.487L226.509 183.803L225.956 184.092L225.99 184.173Z" fill="black"/>
<path d="M225.374 184.482L230.064 193.865L229.557 194.141L224.948 184.74L225.374 184.482Z" fill="black"/>
<path d="M238.548 206.746L233.004 197.995L232.6 198.357L238.314 207.549L238.829 207.187L238.548 206.746Z" fill="black"/>
<path d="M239.509 206.662L233.3 197.45L233.772 197.107L239.834 206.315L239.509 206.662Z" fill="black"/>
<path d="M228.837 196.663L217.598 192.857L217.918 191.449L228.975 195.276L228.837 196.663Z" fill="black"/>
<path d="M217.671 193.89C217.671 193.89 217.448 190.99 219.357 187.797C221.266 184.604 222.386 182.631 226.765 180.726C231.144 178.821 235.14 180.401 235.14 180.401L236.614 179.97C236.614 179.97 234.8 179.049 232.455 179.056C230.111 179.062 224.53 179.243 221.032 183.719C217.534 188.196 217.41 190.203 217.194 190.858C217.024 191.373 216.588 194.17 216.588 194.17L216.393 195.365" fill="black"/>
<path d="M231.756 198.767C233.338 198.633 234.525 197.167 234.407 195.493C234.288 193.818 232.909 192.569 231.327 192.703C229.745 192.837 228.558 194.303 228.676 195.977C228.795 197.652 230.173 198.901 231.756 198.767Z" fill="black"/>
<path d="M248.629 203.324C251.064 203.119 252.89 200.862 252.708 198.285C252.526 195.707 250.404 193.785 247.969 193.991C245.534 194.196 243.708 196.453 243.89 199.03C244.072 201.608 246.194 203.53 248.629 203.324Z" fill="black"/>
<path d="M243.035 183.855L241.707 179.184C241.707 179.184 242.386 178.861 243.064 178.806C243.743 178.75 245.224 178.635 245.479 178.634C245.735 178.633 246.239 178.555 246.442 178.912C246.645 179.27 247.57 181.728 247.57 181.728L243.034 183.857L243.035 183.855Z" fill="black"/>
<path d="M247.603 181.713C247.603 181.713 246.653 178.852 246.185 178.68C245.717 178.509 242.681 178.861 242.681 178.861C242.681 178.861 245.503 178.965 246.112 180.272L246.797 182.091L247.602 181.714L247.603 181.713Z" fill="#0F1611"/>
<path d="M242.318 178.962L240.923 174.75L242.232 174.639L243.517 178.861L242.318 178.962Z" fill="#0F1611"/>
<path d="M236.152 172.266C236.152 172.266 237.129 174.964 237.263 175.031C237.397 175.099 247.154 174.189 247.154 174.189C247.154 174.189 248.297 173.047 246.664 172.813C245.032 172.579 236.193 171.873 236.193 171.873L235.99 171.852L236.151 172.265L236.152 172.266Z" fill="#0F1611"/>
<path d="M249.961 202.556C249.961 202.556 250.922 207.364 251.039 207.958C251.155 208.553 250.022 212.468 250.022 212.468C250.022 212.468 250.336 212.468 251.039 212.468C251.276 212.296 252.06 207.958 252.06 207.958L251.106 201.614L249.962 202.555L249.961 202.556Z" fill="#0F1611"/>
<path d="M248.971 204.919L245.093 205.247C244.945 205.259 244.835 205.401 244.846 205.562L244.916 206.552C244.928 206.714 245.057 206.835 245.204 206.822L249.083 206.494C249.23 206.482 249.341 206.341 249.329 206.179L249.259 205.189C249.248 205.028 249.119 204.907 248.971 204.919Z" fill="#0F1611"/>
<path d="M248.135 203.469L246.952 205.089L248.242 204.98L249.293 203.371L248.135 203.469Z" fill="#0F1611"/>
<path d="M265.481 174.574L263.706 170.351C263.706 170.351 263.817 167.963 264.587 166.977C265.358 165.991 265.084 166.322 264.7 165.97C264.466 165.755 263.998 165.344 263.67 165.058C263.432 164.85 263.237 164.59 263.098 164.293L262.981 164.043C262.981 164.043 262.772 163.563 261.911 163.751C261.05 163.939 259.87 164.22 259.87 164.22C259.87 164.22 260.56 162.885 259.816 162.816C258.879 162.729 263.005 161.396 263.005 161.396L264.695 162.529C264.695 162.529 264.719 161.721 265.161 161.684C265.604 161.646 266.963 162.308 268.017 162.737C269.07 163.167 269.566 163.498 269.372 164.09C269.177 164.683 267.969 164.296 267.864 164.304C267.76 164.313 267.349 164.809 267.349 164.809C267.349 164.809 266.481 167.011 266.658 168.032C266.836 169.053 268.014 172.55 268.014 172.55L265.483 174.576L265.481 174.574Z" fill="#202321"/>
<path d="M259.631 164.287C260.025 164.254 260.32 163.876 260.29 163.444C260.259 163.011 259.915 162.688 259.52 162.721C259.126 162.754 258.831 163.132 258.861 163.564C258.892 163.997 259.236 164.32 259.631 164.287Z" fill="#202321"/>
<path d="M247.399 185.723C247.277 185.774 247.215 185.924 247.261 186.057C247.308 186.191 247.638 186.416 247.638 186.416C247.638 186.416 247.751 186.008 247.704 185.874C247.657 185.741 247.521 185.672 247.399 185.723ZM247.513 186.053C247.469 186.071 247.42 186.047 247.403 185.999C247.387 185.95 247.409 185.896 247.453 185.878C247.497 185.86 247.547 185.885 247.563 185.933C247.58 185.982 247.557 186.035 247.513 186.053Z" fill="white"/>
<path d="M246.781 188.727L246.51 187.94C246.5 187.926 246.494 187.909 246.482 187.897C246.468 187.883 246.449 187.873 246.43 187.868C246.41 187.864 246.388 187.863 246.367 187.864C246.36 187.864 246.354 187.865 246.347 187.865C246.342 187.866 246.336 187.868 246.332 187.87C246.332 187.87 246.332 187.87 246.331 187.87C246.327 187.872 246.321 187.874 246.316 187.875L245.824 188.079L245.954 188.455L246.252 188.332L246.28 188.414C246.252 188.461 246.217 188.501 246.175 188.534C246.134 188.566 246.089 188.59 246.042 188.605C245.994 188.621 245.945 188.627 245.894 188.624C245.842 188.62 245.792 188.607 245.744 188.583C245.69 188.556 245.644 188.519 245.604 188.473C245.565 188.427 245.536 188.375 245.516 188.319C245.496 188.262 245.487 188.203 245.488 188.14C245.49 188.076 245.503 188.015 245.527 187.956C245.551 187.897 245.584 187.846 245.626 187.804C245.669 187.762 245.716 187.73 245.768 187.708C245.819 187.687 245.873 187.677 245.931 187.677C245.988 187.678 246.043 187.692 246.098 187.719L246.249 187.352C246.149 187.302 246.046 187.276 245.939 187.274C245.834 187.272 245.733 187.291 245.638 187.33C245.542 187.369 245.455 187.429 245.377 187.507C245.299 187.585 245.237 187.679 245.192 187.79C245.147 187.899 245.124 188.012 245.122 188.129C245.121 188.244 245.138 188.355 245.176 188.46C245.213 188.566 245.265 188.661 245.335 188.747C245.405 188.832 245.491 188.9 245.591 188.949C245.691 188.999 245.795 189.025 245.901 189.027C246.006 189.029 246.107 189.01 246.203 188.971C246.241 188.954 246.28 188.935 246.317 188.912C246.355 188.889 246.39 188.862 246.422 188.832L246.436 188.872L246.78 188.729L246.781 188.727Z" fill="white"/>
<path d="M247.02 186.76C247.122 186.718 247.227 186.699 247.331 186.706C247.437 186.711 247.535 186.737 247.628 186.783C247.72 186.828 247.804 186.892 247.877 186.975C247.95 187.059 248.006 187.156 248.045 187.269C248.084 187.382 248.101 187.496 248.096 187.611C248.091 187.727 248.067 187.835 248.025 187.936C247.983 188.037 247.925 188.128 247.848 188.209C247.773 188.29 247.684 188.351 247.582 188.393C247.48 188.436 247.375 188.455 247.271 188.448C247.165 188.443 247.067 188.417 246.975 188.371C246.883 188.325 246.8 188.261 246.727 188.178C246.653 188.095 246.598 187.998 246.559 187.885C246.519 187.772 246.503 187.658 246.508 187.543C246.512 187.427 246.535 187.319 246.577 187.218C246.618 187.117 246.676 187.026 246.752 186.946C246.827 186.865 246.916 186.804 247.018 186.762L247.02 186.76ZM247.455 188.017C247.51 187.994 247.558 187.961 247.599 187.918C247.64 187.875 247.672 187.826 247.694 187.77C247.717 187.716 247.729 187.656 247.732 187.595C247.734 187.533 247.725 187.471 247.704 187.411C247.683 187.351 247.653 187.297 247.614 187.252C247.574 187.208 247.53 187.173 247.479 187.148C247.429 187.122 247.375 187.109 247.319 187.106C247.262 187.104 247.206 187.114 247.151 187.137C247.096 187.16 247.048 187.192 247.007 187.235C246.967 187.279 246.935 187.327 246.913 187.383C246.89 187.438 246.877 187.497 246.875 187.558C246.873 187.621 246.882 187.682 246.903 187.743C246.924 187.803 246.954 187.856 246.993 187.901C247.032 187.946 247.077 187.981 247.128 188.006C247.178 188.031 247.232 188.045 247.288 188.047C247.345 188.051 247.401 188.04 247.456 188.017L247.455 188.017Z" fill="white"/>
<path d="M246.418 189.506C246.395 189.503 246.379 189.499 246.369 189.494C246.354 189.486 246.344 189.474 246.338 189.457C246.332 189.44 246.333 189.423 246.339 189.406C246.346 189.389 246.358 189.378 246.373 189.371C246.388 189.364 246.404 189.364 246.417 189.372C246.431 189.379 246.441 189.39 246.445 189.403L246.43 189.421C246.424 189.408 246.416 189.4 246.408 189.395C246.399 189.391 246.391 189.391 246.381 189.396C246.371 189.4 246.364 189.407 246.36 189.417C246.356 189.427 246.355 189.437 246.36 189.448C246.364 189.459 246.37 189.466 246.38 189.471C246.386 189.473 246.396 189.476 246.412 189.48C246.436 189.484 246.455 189.489 246.467 189.495C246.486 189.504 246.498 189.52 246.506 189.54C246.514 189.561 246.513 189.582 246.505 189.603C246.496 189.624 246.482 189.639 246.464 189.646C246.445 189.654 246.425 189.654 246.406 189.644C246.387 189.634 246.375 189.621 246.369 189.603L246.388 189.588C246.394 189.603 246.403 189.614 246.415 189.621C246.429 189.627 246.442 189.628 246.455 189.623C246.469 189.617 246.478 189.607 246.484 189.593C246.49 189.578 246.49 189.564 246.485 189.549C246.481 189.534 246.472 189.524 246.458 189.518C246.451 189.514 246.438 189.51 246.418 189.506L246.418 189.506Z" fill="white"/>
<path d="M246.446 189.163L246.468 189.154L246.529 189.331C246.541 189.304 246.559 189.286 246.585 189.275C246.613 189.263 246.639 189.263 246.663 189.275C246.687 189.287 246.704 189.307 246.715 189.337L246.775 189.511L246.753 189.52L246.693 189.348C246.685 189.326 246.672 189.31 246.652 189.301C246.632 189.291 246.612 189.291 246.592 189.298C246.573 189.306 246.558 189.322 246.549 189.343C246.545 189.352 246.543 189.362 246.542 189.371L246.613 189.577L246.591 189.586L246.446 189.163L246.446 189.163Z" fill="white"/>
<path d="M247.101 189.376L247.08 189.385L247.061 189.332C247.059 189.341 247.057 189.348 247.054 189.355C247.038 189.394 247.011 189.422 246.975 189.436C246.939 189.45 246.903 189.45 246.868 189.432C246.832 189.415 246.808 189.385 246.794 189.346C246.78 189.307 246.781 189.267 246.798 189.227C246.813 189.188 246.84 189.161 246.876 189.146C246.912 189.131 246.948 189.132 246.984 189.15C246.99 189.154 246.997 189.158 247.003 189.162L246.99 189.125L247.012 189.117L247.101 189.376ZM247.04 189.27L247.024 189.223C247.012 189.202 246.995 189.185 246.973 189.175C246.944 189.16 246.914 189.159 246.884 189.171C246.855 189.183 246.832 189.206 246.82 189.238C246.806 189.271 246.806 189.303 246.817 189.336C246.829 189.368 246.849 189.393 246.879 189.407C246.908 189.421 246.938 189.422 246.968 189.409C246.997 189.397 247.02 189.375 247.032 189.342C247.043 189.318 247.046 189.293 247.041 189.268L247.04 189.27Z" fill="white"/>
<path d="M247.086 189.084L247.108 189.075L247.124 189.122C247.126 189.113 247.129 189.105 247.132 189.095C247.144 189.067 247.159 189.047 247.179 189.039L247.188 189.064C247.175 189.071 247.164 189.085 247.154 189.107C247.142 189.137 247.14 189.169 247.15 189.2L247.196 189.334L247.175 189.343L247.085 189.084L247.086 189.084Z" fill="white"/>
<path d="M247.237 188.926C247.242 188.929 247.246 188.933 247.249 188.94C247.251 188.947 247.251 188.953 247.248 188.96C247.246 188.966 247.242 188.97 247.235 188.973C247.229 188.975 247.223 188.975 247.218 188.972C247.212 188.97 247.208 188.965 247.205 188.958C247.203 188.951 247.204 188.945 247.206 188.939C247.208 188.932 247.213 188.928 247.219 188.925C247.225 188.923 247.231 188.923 247.237 188.926ZM247.261 189.013L247.351 189.273L247.329 189.282L247.24 189.022L247.261 189.013Z" fill="white"/>
<path d="M247.379 189.03L247.449 189.231L247.428 189.24L247.338 188.981L247.36 188.972L247.365 188.988C247.378 188.959 247.397 188.939 247.423 188.928C247.451 188.916 247.477 188.916 247.501 188.928C247.525 188.94 247.542 188.96 247.552 188.99L247.612 189.163L247.59 189.172L247.531 189.001C247.523 188.979 247.51 188.963 247.49 188.954C247.47 188.944 247.45 188.944 247.43 188.951C247.411 188.959 247.396 188.975 247.387 188.996C247.383 189.007 247.38 189.019 247.379 189.03Z" fill="white"/>
<path d="M247.901 188.986C247.899 188.994 247.897 189.001 247.894 189.008C247.878 189.047 247.851 189.075 247.815 189.089C247.779 189.104 247.743 189.104 247.707 189.085C247.671 189.068 247.647 189.038 247.633 188.999C247.619 188.959 247.62 188.92 247.637 188.881C247.653 188.842 247.679 188.815 247.716 188.8C247.752 188.784 247.788 188.785 247.823 188.803C247.83 188.806 247.837 188.811 247.843 188.814L247.83 188.778L247.852 188.769L247.922 188.97C247.934 189.009 247.934 189.048 247.919 189.086C247.903 189.125 247.876 189.151 247.84 189.167C247.804 189.182 247.768 189.181 247.732 189.162C247.724 189.159 247.717 189.155 247.712 189.15L247.732 189.132C247.732 189.132 247.738 189.136 247.742 189.138C247.772 189.153 247.802 189.154 247.832 189.142C247.861 189.13 247.883 189.107 247.896 189.075C247.908 189.046 247.911 189.016 247.902 188.986L247.901 188.986ZM247.864 188.876C247.852 188.854 247.835 188.838 247.813 188.828C247.783 188.813 247.754 188.813 247.724 188.824C247.694 188.836 247.671 188.859 247.659 188.892C247.645 188.925 247.645 188.957 247.657 188.99C247.668 189.022 247.688 189.047 247.718 189.061C247.748 189.076 247.778 189.076 247.808 189.065C247.837 189.053 247.86 189.03 247.872 188.997C247.882 188.974 247.885 188.949 247.882 188.925L247.865 188.875L247.864 188.876Z" fill="white"/>
<path d="M253.699 194.062C254.164 193.217 259.614 178.308 259.614 178.308C259.614 178.308 260.153 177.15 260.175 177.1C260.198 177.05 260.604 176.738 261.358 177C262.112 177.263 264.626 178.203 264.626 178.203L262.396 181.776C262.396 181.776 261.461 181.912 260.857 181.79C260.254 181.669 259.775 182.573 259.274 183.9C258.773 185.227 255.209 194.698 255.209 194.698" fill="black"/>
<ellipse opacity="0.5" cx="250.336" cy="212.471" rx="5.64315" ry="0.685513" fill="url(#paint0_radial_22158_427326)"/>
</g>
<g clip-path="url(#clip1_22158_427326)">
<path d="M223.501 184.152L223.833 183.998C225.032 183.438 226.416 184.082 226.882 185.417L230.771 196.564C230.848 196.785 230.953 196.992 231.083 197.181C231.832 198.271 234.519 201.786 237.128 200.355C240.009 198.774 245.054 186.003 244.624 187.033C244.624 187.033 249.541 177.017 249.589 176.941C250.55 175.448 251.974 179.312 252.798 180.976L252.73 180.99C253.119 181.776 252.136 182.67 251.715 183.434L244.487 197.076C244.415 197.206 243.734 198.52 243.662 198.652C243.001 199.87 241.537 204.331 238.243 205.324C234.575 206.429 230.951 206.437 230.059 206.213C229.167 205.99 227.978 206.257 227.352 203.825C226.871 201.954 223.676 191.848 222.232 187.298C221.835 186.046 222.39 184.671 223.502 184.151L223.501 184.152Z" fill="#00DFF4"/>
<path d="M225.6 182.624L226.669 182.297L231.555 195.083C231.825 195.845 232.214 196.554 232.721 197.154C233.414 197.973 234.417 198.715 235.454 197.967C237.338 196.605 240.382 187.303 240.382 187.303C240.382 187.303 241.687 183.882 242.048 183.835C242.408 183.788 242.861 183.804 243.76 183.979C244.66 184.154 245.415 182.638 245.528 182.402C245.64 182.166 246.936 180.31 246.819 179.488C246.703 178.666 247.16 178.847 247.373 178.905C247.586 178.963 248.714 179.382 247.923 178.19C247.131 176.998 249.376 175.59 249.376 175.59L250.086 177.038L250.195 177.426L250.319 177.705L249.062 179.865L244.664 187.988L239.413 198.602C239.413 198.602 236.501 203.279 231.984 198.773C231.984 198.773 230.342 196.9 229.368 193.401C228.394 189.902 225.6 182.626 225.6 182.626L225.6 182.624Z" fill="#00BDF1"/>
<path d="M270.352 188.07L265.388 199.465L265.944 199.715L271.016 188.352L270.399 187.98L270.352 188.07Z" fill="black"/>
<path d="M269.674 187.644L264.823 198.747L264.247 198.412L269.169 187.38L269.674 187.644Z" fill="black"/>
<path d="M254.983 182.316C255.261 182.823 262.925 198.934 262.925 198.934L261.257 200.122L247.956 175.933L250.862 173.59L254.983 182.316Z" fill="#00DFF4"/>
<path d="M252.162 176.394L254.762 181.952C254.762 181.952 256.682 181.859 259.246 180.821C261.81 179.784 261.546 176.788 261.293 175.006C261.039 173.225 260.809 172.891 260.809 172.891L251.688 175.369L252.162 176.394Z" fill="#202321"/>
<path d="M252.296 175.703L252.788 176.571L260.415 174.714C260.415 174.714 260.96 174.297 260.54 173.38L252.296 175.703Z" fill="black"/>
<path d="M265.562 220.799C256.458 221.569 248.466 213.916 247.746 203.738C247.027 193.56 253.848 184.655 262.953 183.886C272.057 183.117 280.049 190.77 280.769 200.947C281.488 211.125 274.667 220.03 265.562 220.799ZM263.183 187.151C255.721 187.782 250.132 195.109 250.724 203.486C251.317 211.863 257.869 218.165 265.332 217.534C272.794 216.904 278.383 209.576 277.791 201.199C277.198 192.822 270.646 186.52 263.183 187.151Z" fill="black"/>
<path d="M253.767 211.745L261.423 204.387L261.007 203.912L253.265 211.19L253.69 211.807L253.767 211.745Z" fill="black"/>
<path d="M253.938 212.569L262.314 204.463L262.757 205.105L254.34 213.102L253.938 212.569Z" fill="black"/>
<path d="M254.854 190.389L261.715 200.538L262.176 200.116L255.392 189.878L254.804 190.301L254.854 190.389Z" fill="black"/>
<path d="M254.195 190.847L260.874 200.751L260.334 201.152L253.746 191.213L254.195 190.847Z" fill="black"/>
<path d="M278.168 201.665L266.167 202.367L266.235 203.021L278.261 202.438L278.263 201.666L278.168 201.665Z" fill="black"/>
<path d="M278.183 200.808L266.01 201.555L266.001 200.84L278.15 200.195L278.183 200.808Z" fill="black"/>
<path d="M269.62 217.199L264.802 204.766L264.225 205.111L268.941 217.622L269.656 217.306L269.62 217.199Z" fill="black"/>
<path d="M270.489 216.473L265.323 204.199L265.993 203.891L271.053 216.179L270.489 216.473Z" fill="black"/>
<path d="M260.426 202.895L247.489 198.515L247.857 196.893L260.585 201.298L260.426 202.895Z" fill="black"/>
<path d="M247.573 199.705C247.573 199.705 247.316 196.367 249.514 192.691C251.712 189.016 253.001 186.744 258.042 184.551C263.082 182.358 267.682 184.177 267.682 184.177L269.379 183.681C269.379 183.681 267.291 182.621 264.592 182.629C261.893 182.636 255.437 183.049 251.411 188.202C247.386 193.356 247.223 195.623 247.023 196.213C246.823 196.804 246.325 200.026 246.325 200.026L246.1 201.401" fill="black"/>
<path d="M263.787 205.319C265.608 205.165 266.974 203.477 266.838 201.55C266.702 199.622 265.115 198.185 263.293 198.338C261.472 198.492 260.105 200.18 260.242 202.107C260.378 204.035 261.965 205.473 263.787 205.319Z" fill="black"/>
<path d="M198.209 183.601L198.399 186.301C198.399 186.301 203.583 186.26 206.317 188.48C209.051 190.699 210.874 193.697 211.243 198.596L223.875 197.241L225.766 197.032C225.766 197.032 223.872 186.012 214.155 181.896C214.155 181.896 210.731 180.496 206.067 181.334C202.419 181.989 198.17 183.073 198.17 183.073L198.207 183.6L198.209 183.601Z" fill="black"/>
<path d="M227.009 206.506C226.755 206.528 226.495 206.517 226.237 206.472L210.743 203.778C209.397 203.545 208.463 202.463 208.522 201.207L208.532 201.006C208.595 199.667 209.792 198.609 211.257 198.598C211.35 198.597 211.442 198.601 211.533 198.609L227.008 199.921C228.416 200.04 229.483 201.106 229.491 202.401L229.501 203.982C229.505 204.648 229.231 205.275 228.728 205.75C228.264 206.186 227.653 206.449 227.008 206.504L227.009 206.506ZM211.102 199.659C210.233 199.732 209.525 200.335 209.491 201.061L209.482 201.262C209.448 201.958 210.055 202.593 210.894 202.739L226.387 205.432C227.027 205.544 227.669 205.364 228.104 204.954C228.389 204.685 228.545 204.343 228.543 203.993L228.533 202.411C228.528 201.681 227.827 201.049 226.936 200.973L211.461 199.661C211.397 199.656 211.33 199.654 211.264 199.653C211.209 199.653 211.155 199.657 211.102 199.661L211.102 199.659Z" fill="black"/>
<path d="M210.889 200.15L224.791 201.36L224.287 204.493L210.045 202.473L210.889 200.15Z" fill="#00DFF4"/>
<path d="M210.909 219.26C201.805 220.03 193.813 212.377 193.093 202.199C192.373 192.021 199.195 183.116 208.299 182.347C217.404 181.577 225.396 189.231 226.115 199.408C226.835 209.586 220.013 218.491 210.909 219.26ZM208.53 185.612C201.068 186.242 195.479 193.57 196.071 201.947C196.663 210.324 203.216 216.626 210.678 215.995C218.14 215.365 223.73 208.037 223.137 199.66C222.545 191.283 215.992 184.981 208.53 185.612Z" fill="black"/>
<path d="M199.666 211.128L207.034 201.857L206.51 201.415L199.037 210.618L199.59 211.208L199.666 211.128Z" fill="black"/>
<path d="M200.268 211.794L207.661 202.759L208.388 202.743L200.733 212.234L200.268 211.794Z" fill="black"/>
<path d="M202.496 186.984L208.045 198.055L208.554 197.705L203.093 186.558L202.456 186.89L202.496 186.984Z" fill="black"/>
<path d="M201.786 187.34L207.186 198.14L206.602 198.458L201.297 187.637L201.786 187.34Z" fill="black"/>
<path d="M216.952 212.965L210.569 202.892L210.104 203.309L216.683 213.89L217.275 213.473L216.952 212.965Z" fill="black"/>
<path d="M218.058 212.865L210.911 202.262L211.453 201.866L218.432 212.466L218.058 212.865Z" fill="black"/>
<path d="M205.773 201.356L192.835 196.975L193.204 195.354L205.932 199.759L205.773 201.356Z" fill="black"/>
<path d="M192.919 198.166C192.919 198.166 192.663 194.828 194.861 191.152C197.058 187.477 198.347 185.204 203.388 183.012C208.429 180.819 213.029 182.638 213.029 182.638L214.726 182.142C214.726 182.142 212.637 181.082 209.938 181.089C207.239 181.097 200.815 181.304 196.788 186.458C192.762 191.611 192.619 193.921 192.371 194.675C192.175 195.268 191.673 198.488 191.673 198.488L191.448 199.863" fill="black"/>
<path d="M209.133 203.78C210.955 203.626 212.321 201.938 212.184 200.011C212.048 198.083 210.461 196.645 208.639 196.799C206.818 196.953 205.452 198.641 205.588 200.568C205.724 202.496 207.311 203.934 209.133 203.78Z" fill="black"/>
<path d="M228.557 209.026C231.36 208.789 233.462 206.192 233.252 203.225C233.042 200.258 230.6 198.045 227.797 198.282C224.994 198.519 222.891 201.116 223.101 204.083C223.311 207.05 225.753 209.263 228.557 209.026Z" fill="black"/>
<path d="M222.117 186.617L220.588 181.24C220.588 181.24 221.37 180.867 222.151 180.804C222.932 180.74 224.636 180.608 224.93 180.606C225.225 180.605 225.806 180.515 226.039 180.927C226.273 181.339 227.337 184.167 227.337 184.167L222.116 186.618L222.117 186.617Z" fill="black"/>
<path d="M227.375 184.148C227.375 184.148 226.281 180.854 225.743 180.656C225.205 180.459 221.709 180.865 221.709 180.865C221.709 180.865 224.957 180.984 225.659 182.489L226.447 184.583L227.374 184.148L227.375 184.148Z" fill="#0F1611"/>
<path d="M221.292 180.989L219.685 176.141L221.192 176.013L222.672 180.872L221.292 180.989Z" fill="#0F1611"/>
<path d="M214.193 173.278C214.193 173.278 215.318 176.384 215.472 176.461C215.626 176.539 226.858 175.492 226.858 175.492C226.858 175.492 228.175 174.177 226.295 173.908C224.415 173.639 214.241 172.826 214.241 172.826L214.008 172.801L214.193 173.277L214.193 173.278Z" fill="#0F1611"/>
<path d="M230.089 208.143C230.089 208.143 231.197 213.678 231.33 214.362C231.464 215.046 230.16 219.553 230.16 219.553C230.16 219.553 230.521 219.553 231.331 219.553C231.603 219.356 232.506 214.362 232.506 214.362L231.408 207.059L230.09 208.143L230.089 208.143Z" fill="#0F1611"/>
<path d="M228.951 210.862L224.486 211.24C224.316 211.254 224.189 211.417 224.202 211.603L224.283 212.742C224.296 212.928 224.444 213.067 224.614 213.053L229.079 212.676C229.249 212.661 229.375 212.499 229.362 212.313L229.282 211.173C229.269 210.987 229.12 210.848 228.951 210.862Z" fill="#0F1611"/>
<path d="M227.987 209.195L226.626 211.06L228.11 210.935L229.321 209.082L227.987 209.195Z" fill="#0F1611"/>
<path d="M247.956 175.932L245.912 171.071C245.912 171.071 246.04 168.323 246.926 167.187C247.813 166.052 247.498 166.433 247.056 166.028C246.786 165.781 246.248 165.308 245.87 164.978C245.597 164.739 245.372 164.44 245.212 164.098L245.077 163.81C245.077 163.81 244.837 163.257 243.846 163.473C242.854 163.69 241.496 164.013 241.496 164.013C241.496 164.013 242.29 162.476 241.434 162.397C240.356 162.297 245.105 160.763 245.105 160.763L247.05 162.067C247.05 162.067 247.078 161.137 247.587 161.094C248.096 161.051 249.661 161.812 250.874 162.307C252.087 162.801 252.658 163.183 252.434 163.864C252.21 164.546 250.819 164.1 250.699 164.111C250.579 164.121 250.105 164.691 250.105 164.691C250.105 164.691 249.107 167.226 249.311 168.402C249.515 169.577 250.871 173.602 250.871 173.602L247.958 175.934L247.956 175.932Z" fill="#202321"/>
<path d="M241.221 164.089C241.675 164.05 242.014 163.616 241.979 163.118C241.944 162.62 241.547 162.248 241.093 162.286C240.639 162.324 240.3 162.759 240.335 163.257C240.37 163.755 240.767 164.127 241.221 164.089Z" fill="#202321"/>
<path d="M234.393 198.368C234.928 197.395 241.201 180.233 241.201 180.233C241.201 180.233 241.822 178.9 241.848 178.843C241.874 178.785 242.341 178.426 243.209 178.728C244.077 179.03 246.972 180.112 246.972 180.112L244.403 184.225C244.403 184.225 243.327 184.381 242.633 184.242C241.938 184.102 241.387 185.142 240.81 186.67C240.233 188.198 236.131 199.1 236.131 199.1" fill="black"/>
<ellipse opacity="0.5" cx="230.521" cy="219.555" rx="6.49602" ry="0.789119" fill="url(#paint1_radial_22158_427326)"/>
</g>
<g clip-path="url(#clip2_22158_427326)">
<path d="M94.6778 170.054L95.1601 169.829C96.9054 169.014 98.9194 169.952 99.597 171.895L105.256 188.114C105.369 188.436 105.521 188.737 105.71 189.013C106.8 190.599 110.71 195.713 114.506 193.631C118.698 191.331 126.039 172.747 125.413 174.246C125.413 174.246 132.569 159.671 132.639 159.561C134.037 157.388 136.109 163.011 137.307 165.433L137.209 165.453C137.774 166.597 136.345 167.897 135.732 169.009L125.215 188.86C125.11 189.05 124.119 190.962 124.015 191.153C123.052 192.926 120.922 199.417 116.129 200.861C110.792 202.469 105.518 202.482 104.22 202.156C102.922 201.83 101.191 202.219 100.281 198.681C99.581 195.958 94.9324 181.253 92.8311 174.631C92.2524 172.81 93.0606 170.809 94.6793 170.053L94.6778 170.054Z" fill="#00DFF4"/>
<path d="M97.731 167.832L99.2869 167.355L106.397 185.961C106.79 187.069 107.356 188.1 108.094 188.973C109.101 190.165 110.562 191.245 112.07 190.157C114.811 188.175 119.241 174.639 119.241 174.639C119.241 174.639 121.141 169.661 121.665 169.593C122.19 169.525 122.848 169.548 124.157 169.802C125.466 170.057 126.565 167.851 126.729 167.508C126.893 167.165 128.779 164.464 128.609 163.268C128.438 162.072 129.105 162.335 129.414 162.42C129.724 162.504 131.366 163.113 130.214 161.379C129.062 159.645 132.329 157.595 132.329 157.595L133.362 159.703L133.52 160.267L133.701 160.673L131.872 163.816L125.472 175.637L117.832 191.081C117.832 191.081 113.594 197.887 107.021 191.329C107.021 191.329 104.632 188.604 103.215 183.512C101.797 178.421 97.7311 167.833 97.7311 167.833L97.731 167.832Z" fill="#00BDF1"/>
<path d="M162.851 175.748L155.628 192.329L156.437 192.692L163.817 176.158L162.919 175.616L162.851 175.748Z" fill="black"/>
<path d="M161.865 175.132L154.806 191.289L153.968 190.801L161.13 174.748L161.865 175.132Z" fill="black"/>
<path d="M140.487 167.377C140.891 168.115 152.044 191.559 152.044 191.559L149.616 193.287L130.262 158.089L134.491 154.679L140.487 167.377Z" fill="#00DFF4"/>
<path d="M136.383 158.765L140.165 166.854C140.165 166.854 142.96 166.718 146.691 165.208C150.422 163.698 150.037 159.339 149.668 156.746C149.3 154.154 148.965 153.668 148.965 153.668L135.692 157.274L136.383 158.765Z" fill="#202321"/>
<path d="M136.577 157.76L137.293 159.022L148.392 156.321C148.392 156.321 149.185 155.713 148.573 154.378L136.577 157.76Z" fill="black"/>
<path d="M155.882 223.379C142.634 224.498 131.004 213.362 129.957 198.552C128.91 183.743 138.836 170.784 152.084 169.665C165.332 168.545 176.962 179.682 178.009 194.491C179.056 209.301 169.13 222.259 155.882 223.379ZM152.42 174.416C141.562 175.334 133.429 185.996 134.291 198.186C135.153 210.376 144.688 219.545 155.546 218.628C166.404 217.71 174.537 207.047 173.675 194.858C172.814 182.668 163.279 173.498 152.42 174.416Z" fill="black"/>
<path d="M138.718 210.201L149.859 199.494L149.253 198.803L137.987 209.394L138.606 210.291L138.718 210.201Z" fill="black"/>
<path d="M138.966 211.401L151.154 199.605L151.799 200.539L139.552 212.176L138.966 211.401Z" fill="black"/>
<path d="M140.3 179.125L150.284 193.893L150.955 193.28L141.083 178.381L140.227 178.997L140.3 179.125Z" fill="black"/>
<path d="M139.341 179.79L149.06 194.201L148.274 194.784L138.687 180.323L139.341 179.79Z" fill="black"/>
<path d="M174.225 195.533L156.761 196.555L156.86 197.506L174.36 196.658L174.363 195.535L174.225 195.533Z" fill="black"/>
<path d="M174.246 194.288L156.533 195.375L156.521 194.335L174.198 193.396L174.246 194.288Z" fill="black"/>
<path d="M161.786 218.135L154.776 200.044L153.936 200.546L160.798 218.751L161.839 218.291L161.786 218.135Z" fill="black"/>
<path d="M163.05 217.084L155.533 199.222L156.509 198.775L163.871 216.656L163.05 217.084Z" fill="black"/>
<path d="M148.407 197.327L129.582 190.953L130.119 188.593L148.638 195.003L148.407 197.327Z" fill="black"/>
<path d="M129.704 192.682C129.704 192.682 129.331 187.825 132.529 182.477C135.727 177.128 137.603 173.822 144.938 170.632C152.273 167.441 158.966 170.088 158.966 170.088L161.436 169.365C161.436 169.365 158.397 167.823 154.469 167.834C150.542 167.845 141.148 168.446 135.29 175.945C129.433 183.443 129.196 186.742 128.905 187.602C128.613 188.461 127.889 193.149 127.889 193.149L127.562 195.15" fill="black"/>
<path d="M153.298 200.853C155.948 200.629 157.936 198.174 157.738 195.369C157.54 192.564 155.23 190.472 152.58 190.696C149.929 190.92 147.941 193.375 148.139 196.18C148.338 198.985 150.647 201.077 153.298 200.853Z" fill="black"/>
<path d="M57.8738 169.251L58.1515 173.179C58.1515 173.179 65.6937 173.12 69.6726 176.35C73.6515 179.579 76.303 183.942 76.8397 191.071L95.2212 189.099L97.9725 188.795C97.9725 188.795 95.2165 172.759 81.0783 166.769C81.0783 166.769 76.0955 164.732 69.3095 165.951C64.0009 166.905 57.8179 168.482 57.8179 168.482L57.8721 169.249L57.8738 169.251Z" fill="black"/>
<path d="M99.7815 202.583C99.4117 202.614 99.0338 202.598 98.6586 202.533L76.1132 198.614C74.154 198.274 72.7955 196.699 72.8812 194.872L72.8948 194.579C72.9874 192.631 74.7283 191.092 76.8601 191.076C76.9954 191.075 77.1297 191.081 77.2628 191.092L99.7797 193C101.828 193.174 103.381 194.725 103.393 196.609L103.408 198.91C103.414 199.879 103.015 200.792 102.284 201.482C101.608 202.118 100.719 202.5 99.7798 202.58L99.7815 202.583ZM76.6344 192.619C75.37 192.726 74.3406 193.604 74.2907 194.659L74.2772 194.952C74.2289 195.965 75.1116 196.889 76.3317 197.102L98.8771 201.021C99.8071 201.183 100.741 200.921 101.375 200.325C101.789 199.933 102.017 199.436 102.014 198.926L101.999 196.624C101.993 195.561 100.972 194.642 99.6747 194.532L77.1578 192.623C77.0639 192.616 76.9671 192.612 76.8705 192.611C76.7911 192.611 76.7121 192.616 76.6347 192.623L76.6344 192.619Z" fill="black"/>
<path d="M76.3253 193.33L96.554 195.091L95.8208 199.65L75.0978 196.711L76.3253 193.33Z" fill="#00DFF4"/>
<path d="M76.3546 221.14C63.1067 222.26 51.4771 211.123 50.4301 196.314C49.383 181.504 59.3091 168.546 72.557 167.427C85.8049 166.307 97.4345 177.443 98.4815 192.253C99.5286 207.063 89.6025 220.021 76.3546 221.14ZM72.8929 172.178C62.0346 173.095 53.9017 183.758 54.7635 195.948C55.6253 208.137 65.1604 217.307 76.0187 216.389C86.877 215.472 95.0099 204.809 94.1481 192.619C93.2863 180.43 83.7512 171.26 72.8929 172.178Z" fill="black"/>
<path d="M59.9942 209.308L70.7155 195.817L69.9539 195.175L59.0792 208.566L59.8841 209.425L59.9942 209.308Z" fill="black"/>
<path d="M60.8706 210.275L71.6287 197.128L72.6858 197.105L61.5479 210.915L60.8706 210.275Z" fill="black"/>
<path d="M64.1127 174.172L72.1877 190.282L72.927 189.772L64.9813 173.552L64.0548 174.035L64.1127 174.172Z" fill="black"/>
<path d="M63.0798 174.688L70.9369 190.403L70.0869 190.866L62.3677 175.12L63.0798 174.688Z" fill="black"/>
<path d="M85.1479 211.98L75.86 197.322L75.1836 197.929L84.7557 213.326L85.6174 212.719L85.1479 211.98Z" fill="black"/>
<path d="M86.7568 211.833L76.3573 196.404L77.1464 195.829L87.3012 211.253L86.7568 211.833Z" fill="black"/>
<path d="M68.8814 195.092L50.0546 188.717L50.5916 186.359L69.1126 192.768L68.8814 195.092Z" fill="black"/>
<path d="M50.1771 190.447C50.1771 190.447 49.8041 185.589 53.0022 180.241C56.2002 174.893 58.0761 171.587 65.4108 168.396C72.7455 165.206 79.439 167.852 79.439 167.852L81.9085 167.13C81.9085 167.13 78.8694 165.588 74.9421 165.599C71.0148 165.61 61.6667 165.911 55.8074 173.41C49.9481 180.909 49.7404 184.27 49.379 185.368C49.0943 186.23 48.3638 190.916 48.3638 190.916L48.0366 192.916" fill="black"/>
<path d="M73.7706 198.619C76.4211 198.395 78.4091 195.939 78.2108 193.135C78.0125 190.33 75.703 188.238 73.0524 188.462C70.4019 188.686 68.4139 191.141 68.6122 193.946C68.8105 196.75 71.12 198.843 73.7706 198.619Z" fill="black"/>
<path d="M102.034 206.252C106.113 205.908 109.172 202.128 108.867 197.811C108.561 193.494 105.007 190.273 100.929 190.618C96.8498 190.963 93.7907 194.742 94.0959 199.059C94.4011 203.377 97.9551 206.597 102.034 206.252Z" fill="black"/>
<path d="M92.6628 173.639L90.439 165.814C90.439 165.814 91.5762 165.273 92.7124 165.18C93.8486 165.088 96.3292 164.895 96.7572 164.893C97.1852 164.891 98.0306 164.76 98.3704 165.359C98.7101 165.959 100.259 170.075 100.259 170.075L92.6613 173.641L92.6628 173.639Z" fill="black"/>
<path d="M100.315 170.048C100.315 170.048 98.7227 165.254 97.9396 164.967C97.1564 164.68 92.0697 165.271 92.0697 165.271C92.0697 165.271 96.7963 165.445 97.8167 167.634L98.9647 170.681L100.313 170.048L100.315 170.048Z" fill="#0F1611"/>
<path d="M91.4623 165.446L89.1248 158.391L91.3178 158.205L93.4711 165.276L91.4623 165.446Z" fill="#0F1611"/>
<path d="M81.1332 154.225C81.1332 154.225 82.7699 158.745 82.9942 158.858C83.2186 158.97 99.5627 157.447 99.5627 157.447C99.5627 157.447 101.478 155.534 98.7427 155.142C96.0075 154.75 81.2034 153.567 81.2034 153.567L80.863 153.531L81.1331 154.224L81.1332 154.225Z" fill="#0F1611"/>
<path d="M104.264 204.961C104.264 204.961 105.875 213.015 106.07 214.011C106.265 215.006 104.367 221.564 104.367 221.564C104.367 221.564 104.892 221.564 106.07 221.564C106.468 221.277 107.781 214.011 107.781 214.011L106.183 203.384L104.266 204.961L104.264 204.961Z" fill="#0F1611"/>
<path d="M102.607 208.921L96.1104 209.47C95.8633 209.491 95.6786 209.727 95.6978 209.998L95.815 211.656C95.8341 211.927 96.0499 212.129 96.2969 212.109L102.794 211.559C103.041 211.539 103.226 211.302 103.207 211.031L103.089 209.374C103.07 209.103 102.854 208.9 102.607 208.921Z" fill="#0F1611"/>
<path d="M101.206 206.493L99.2242 209.207L101.385 209.025L103.146 206.329L101.206 206.493Z" fill="#0F1611"/>
<path d="M130.262 158.088L127.288 151.015C127.288 151.015 127.474 147.015 128.764 145.363C130.055 143.711 129.596 144.265 128.953 143.676C128.56 143.316 127.777 142.628 127.228 142.149C126.829 141.8 126.503 141.365 126.27 140.868L126.074 140.449C126.074 140.449 125.724 139.644 124.281 139.959C122.838 140.273 120.862 140.744 120.862 140.744C120.862 140.744 122.018 138.508 120.772 138.393C119.203 138.247 126.114 136.014 126.114 136.014L128.944 137.912C128.944 137.912 128.984 136.559 129.725 136.496C130.467 136.433 132.743 137.542 134.508 138.261C136.273 138.981 137.104 139.536 136.778 140.527C136.453 141.519 134.428 140.871 134.253 140.886C134.079 140.901 133.39 141.73 133.39 141.73C133.39 141.73 131.936 145.419 132.233 147.13C132.53 148.841 134.504 154.698 134.504 154.698L130.265 158.091L130.262 158.088Z" fill="#202321"/>
<path d="M120.462 140.858C121.123 140.802 121.617 140.17 121.565 139.445C121.514 138.721 120.937 138.179 120.276 138.235C119.616 138.291 119.122 138.923 119.173 139.648C119.224 140.372 119.801 140.914 120.462 140.858Z" fill="#202321"/>
<path d="M110.526 190.736C111.305 189.32 120.433 164.348 120.433 164.348C120.433 164.348 121.336 162.408 121.374 162.325C121.412 162.241 122.092 161.718 123.355 162.157C124.617 162.597 128.83 164.171 128.83 164.171L125.093 170.156C125.093 170.156 123.527 170.384 122.516 170.181C121.505 169.978 120.703 171.491 119.864 173.714C119.025 175.938 113.055 191.801 113.055 191.801" fill="black"/>
<ellipse opacity="0.5" cx="104.892" cy="221.566" rx="9.45249" ry="1.14826" fill="url(#paint2_radial_22158_427326)"/>
</g>
<defs>
<radialGradient id="paint0_radial_22158_427326" cx="0" cy="0" r="1" gradientUnits="userSpaceOnUse" gradientTransform="translate(250.054 212.675) rotate(90) scale(0.685513 5.64315)">
<stop/>
<stop offset="1" stop-color="#D9D9D9" stop-opacity="0"/>
</radialGradient>
<radialGradient id="paint1_radial_22158_427326" cx="0" cy="0" r="1" gradientUnits="userSpaceOnUse" gradientTransform="translate(230.263 219.766) rotate(90) scale(0.789119 6.49602)">
<stop/>
<stop offset="1" stop-color="#D9D9D9" stop-opacity="0"/>
</radialGradient>
<radialGradient id="paint2_radial_22158_427326" cx="0" cy="0" r="1" gradientUnits="userSpaceOnUse" gradientTransform="translate(104.782 221.779) rotate(90) scale(1.14826 9.45249)">
<stop/>
<stop offset="1" stop-color="#D9D9D9" stop-opacity="0"/>
</radialGradient>
<clipPath id="clip0_22158_427326">
<rect width="77.3413" height="53.4729" fill="white" transform="matrix(0.996448 -0.0842084 0.0705251 0.99751 214.282 165.512)"/>
</clipPath>
<clipPath id="clip1_22158_427326">
<rect width="89.0302" height="61.5546" fill="white" transform="matrix(0.996448 -0.0842084 0.0705251 0.99751 189.019 165.5)"/>
</clipPath>
<clipPath id="clip2_22158_427326">
<rect width="129.55" height="89.5693" fill="white" transform="matrix(0.996448 -0.0842084 0.0705251 0.99751 44.5012 142.91)"/>
</clipPath>
</defs>
</svg>
