<svg width="343" height="233" viewBox="0 0 343 233" fill="none" xmlns="http://www.w3.org/2000/svg">
<path d="M171.5 225.915C256.114 225.915 324.707 218.994 324.707 210.457C324.707 201.921 256.114 195 171.5 195C86.8862 195 18.2932 201.921 18.2932 210.457C18.2932 218.994 86.8862 225.915 171.5 225.915Z" fill="#F3F3F3"/>
<path d="M250.255 209.418H192.781V211.845H250.255V209.418Z" fill="#F2F2F2"/>
<path d="M158.152 209.242H100.678V211.669H158.152V209.242Z" fill="#F2F2F2"/>
<path d="M209.762 74.6484H159.152V196.337H209.762V74.6484Z" fill="#E9E9E9"/>
<path d="M180 95.0516H168.232C167.73 95.0516 167.228 94.5029 167.228 93.9543V84.0269C167.228 83.4783 167.73 82.9297 168.232 82.9297H180C180.502 82.9297 181.004 83.4783 181.004 84.0269V93.9543C181.004 94.5029 180.502 95.0516 180 95.0516Z" fill="white"/>
<path d="M199.164 95.0516H187.396C186.894 95.0516 186.392 94.5029 186.392 93.9543V84.0269C186.392 83.4783 186.894 82.9297 187.396 82.9297H199.164C199.666 82.9297 200.168 83.4783 200.168 84.0269V93.9543C200.168 94.5029 199.666 95.0516 199.164 95.0516Z" fill="white"/>
<path d="M180 112.138H168.232C167.73 112.138 167.228 111.589 167.228 111.04V101.113C167.228 100.564 167.73 100.016 168.232 100.016H180C180.502 100.016 181.004 100.564 181.004 101.113V111.04C181.004 111.589 180.502 112.138 180 112.138Z" fill="white"/>
<path d="M199.164 112.138H187.396C186.894 112.138 186.392 111.589 186.392 111.04V101.113C186.392 100.564 186.894 100.016 187.396 100.016H199.164C199.666 100.016 200.168 100.564 200.168 101.113V111.04C200.168 111.589 199.666 112.138 199.164 112.138Z" fill="white"/>
<path d="M180.335 129.419H168.567C168.065 129.419 167.563 128.87 167.563 128.322V118.394C167.563 117.845 168.065 117.297 168.567 117.297H180.335C180.837 117.297 181.339 117.845 181.339 118.394V128.322C181.339 129.053 181.004 129.419 180.335 129.419Z" fill="white"/>
<path d="M199.499 129.419H187.731C187.229 129.419 186.727 128.87 186.727 128.322V118.394C186.727 117.845 187.229 117.297 187.731 117.297H199.499C200.001 117.297 200.503 117.845 200.503 118.394V128.322C200.503 129.053 200.168 129.419 199.499 129.419Z" fill="white"/>
<path d="M180.837 147.809H169.068C168.566 147.809 168.065 147.261 168.065 146.712V136.785C168.065 136.236 168.566 135.688 169.068 135.688H180.837C181.339 135.688 181.84 136.236 181.84 136.785V146.712C181.84 147.261 181.339 147.809 180.837 147.809Z" fill="white"/>
<path d="M200.001 147.809H188.233C187.731 147.809 187.229 147.261 187.229 146.712V136.785C187.229 136.236 187.731 135.688 188.233 135.688H200.001C200.503 135.688 201.005 136.236 201.005 136.785V146.712C201.005 147.261 200.503 147.809 200.001 147.809Z" fill="white"/>
<path d="M180.837 164.712H169.068C168.566 164.712 168.065 164.163 168.065 163.614V153.687C168.065 153.138 168.566 152.59 169.068 152.59H180.837C181.339 152.59 181.84 153.138 181.84 153.687V163.614C181.84 164.163 181.339 164.712 180.837 164.712Z" fill="white"/>
<path d="M200.001 164.712H188.233C187.731 164.712 187.229 164.163 187.229 163.614V153.687C187.229 153.138 187.731 152.59 188.233 152.59H200.001C200.503 152.59 201.005 153.138 201.005 153.687V163.614C201.005 164.163 200.503 164.712 200.001 164.712Z" fill="white"/>
<path d="M192.605 171.336H174.445V196.52H192.605V171.336Z" fill="white"/>
<path d="M159.152 74.6472L182.689 57L209.762 74.6472H159.152Z" fill="#BBBCBC"/>
<path d="M277.548 38.707H209.458V202.679H277.548V38.707Z" fill="#E9E9E9"/>
<path d="M238.037 66.2838H221.394C220.892 66.2838 220.391 65.7351 220.391 65.1865V51.0269C220.391 50.4783 220.892 49.9297 221.394 49.9297H238.037C238.539 49.9297 239.041 50.4783 239.041 51.0269V65.1865C239.041 65.7351 238.539 66.2838 238.037 66.2838Z" fill="white"/>
<path d="M263.773 66.2838H247.13C246.628 66.2838 246.126 65.7351 246.126 65.1865V51.0269C246.126 50.4783 246.628 49.9297 247.13 49.9297H263.773C264.275 49.9297 264.776 50.4783 264.776 51.0269V65.1865C264.776 65.7351 264.275 66.2838 263.773 66.2838Z" fill="white"/>
<path d="M238.037 89.2603H221.394C220.892 89.2603 220.391 88.7117 220.391 88.1631V74.0035C220.391 73.4549 220.892 72.9062 221.394 72.9062H238.037C238.539 72.9062 239.041 73.4549 239.041 74.0035V88.1631C239.041 88.7117 238.539 89.2603 238.037 89.2603Z" fill="white"/>
<path d="M263.773 89.2603H247.13C246.628 89.2603 246.126 88.7117 246.126 88.1631V74.0035C246.126 73.4549 246.628 72.9062 247.13 72.9062H263.773C264.275 72.9062 264.776 73.4549 264.776 74.0035V88.1631C264.776 88.7117 264.275 89.2603 263.773 89.2603Z" fill="white"/>
<path d="M238.551 112.616H221.908C221.406 112.616 220.905 112.067 220.905 111.519V97.359C220.905 96.8103 221.406 96.2617 221.908 96.2617H238.551C239.053 96.2617 239.555 96.8103 239.555 97.359V111.519C239.555 112.25 239.053 112.616 238.551 112.616Z" fill="white"/>
<path d="M264.274 112.616H247.631C247.129 112.616 246.628 112.067 246.628 111.519V97.359C246.628 96.8103 247.129 96.2617 247.631 96.2617H264.274C264.776 96.2617 265.278 96.8103 265.278 97.359V111.519C265.278 112.25 264.944 112.616 264.274 112.616Z" fill="white"/>
<path d="M239.053 137.237H222.41C221.908 137.237 221.406 136.688 221.406 136.14V121.98C221.406 121.431 221.908 120.883 222.41 120.883H239.053C239.555 120.883 240.057 121.431 240.057 121.98V136.14C240.057 136.688 239.722 137.237 239.053 137.237Z" fill="white"/>
<path d="M264.944 137.237H248.301C247.799 137.237 247.297 136.688 247.297 136.14V121.98C247.297 121.431 247.799 120.883 248.301 120.883H264.944C265.445 120.883 265.947 121.431 265.947 121.98V136.14C265.947 136.688 265.445 137.237 264.944 137.237Z" fill="white"/>
<path d="M239.053 160.03H222.41C221.908 160.03 221.406 159.481 221.406 158.933V144.773C221.406 144.224 221.908 143.676 222.41 143.676H239.053C239.555 143.676 240.057 144.224 240.057 144.773V158.933C240.057 159.664 239.722 160.03 239.053 160.03Z" fill="white"/>
<path d="M264.944 160.03H248.301C247.799 160.03 247.297 159.481 247.297 158.933V144.773C247.297 144.224 247.799 143.676 248.301 143.676H264.944C265.445 143.676 265.947 144.224 265.947 144.773V158.933C265.947 159.664 265.445 160.03 264.944 160.03Z" fill="white"/>
<path d="M209.458 38.7082L241.407 15L277.728 38.7082H209.458Z" fill="#BBBCBC"/>
<path d="M308.912 203.75C307.433 191.348 299.359 193.621 291.875 173.183C290.244 168.737 284.47 172.329 280.692 173.277C260.619 178.294 252.771 188.133 250.698 201.483C250.55 202.431 250.55 203.474 251.219 203.568C261.218 205.175 286.249 204.328 308.917 203.756L308.912 203.75Z" fill="#C4EDEE"/>
<path d="M297.992 180.55C297.992 180.55 298.601 179.789 297.992 173.827C297.382 167.764 300.072 162.367 300.072 162.367C300.072 162.367 298.946 175.059 299.032 176.573C299.032 178.087 297.992 180.55 297.992 180.55Z" fill="#0B9D99"/>
<path d="M299.549 186.802C299.549 186.802 299.463 186.041 296.084 183.107C292.705 180.174 291.406 175.719 291.406 175.719C291.406 175.719 297.296 183.296 298.078 184.05C298.86 184.81 299.549 186.795 299.549 186.795V186.802Z" fill="#0B9D99"/>
<path d="M299.9 194.286C299.9 194.286 300.417 193.815 300.245 189.078C300.158 184.34 302.497 180.363 302.497 180.363C302.497 180.363 300.94 190.114 300.854 191.251C300.768 192.388 299.9 194.279 299.9 194.279V194.286Z" fill="#0B9D99"/>
<path d="M299.291 199.588C299.291 199.588 298.681 199.211 297.992 194.568C297.296 189.925 294.354 186.52 294.354 186.52C294.354 186.52 297.561 195.799 297.82 196.936C297.992 197.979 299.291 199.588 299.291 199.588Z" fill="#0B9D99"/>
<path d="M297.475 204.036C297.475 204.036 302.848 187.085 294.964 173.923C287.079 160.76 293.579 166.44 294.964 168.903C296.521 171.743 301.98 188.317 300.072 199.777C300.072 199.777 299.463 203.565 299.204 204.036C298.946 204.413 297.475 204.036 297.475 204.036Z" fill="#0B9D99"/>
<path d="M308.077 166.348C308.077 166.348 307.381 165.493 308.077 158.017C308.772 150.534 305.566 144 305.566 144C305.566 144 306.951 159.625 306.864 161.516C306.778 163.407 308.077 166.348 308.077 166.348Z" fill="#0B9D99"/>
<path d="M306.169 174.02C306.169 174.02 306.256 173.071 310.416 169.572C314.571 165.972 316.221 160.387 316.221 160.387C316.221 160.387 309.032 169.666 308.077 170.615C307.037 171.564 306.169 174.027 306.169 174.027V174.02Z" fill="#0B9D99"/>
<path d="M305.738 183.206C305.738 183.206 305.129 182.54 305.308 176.766C305.48 170.992 302.538 166.066 302.538 166.066C302.538 166.066 304.532 178.092 304.532 179.511C304.532 180.931 305.745 183.206 305.745 183.206H305.738Z" fill="#0B9D99"/>
<path d="M306.255 193.243C306.255 193.243 306.864 192.678 307.123 186.898C307.382 181.124 310.502 176.387 310.502 176.387C310.502 176.387 307.905 188.223 307.732 189.643C307.474 190.969 306.261 193.243 306.261 193.243H306.255Z" fill="#0B9D99"/>
<path d="M308.508 204.51C308.508 204.51 302.015 174.302 311.801 158.105C321.501 141.914 313.445 148.825 311.801 151.948C309.893 155.454 303.227 175.904 305.566 189.921C305.566 189.921 306.175 203.938 306.434 204.503C306.693 205.068 308.514 204.503 308.514 204.503L308.508 204.51Z" fill="#0B9D99"/>
<path d="M92.3953 85.911C92.7916 89.0524 105.078 105.951 112.013 106.493C112.112 106.493 112.212 106.493 112.41 106.493C112.905 106.493 113.401 106.276 113.896 106.059C116.373 104.326 126.38 97.1768 129.848 92.8438L129.254 88.4025C124.002 90.3523 112.41 98.1517 112.41 98.1517C112.41 98.1517 111.914 98.3683 111.716 98.0434C102.601 88.7274 98.4392 85.261 95.4668 82.7695L92.3953 85.911Z" fill="#D7A887"/>
<path d="M75.0569 198.569C75.5523 199.977 74.6606 205.177 74.5615 206.802C75.5523 208.318 78.0294 207.127 78.3266 205.502C78.3266 205.285 78.5248 205.285 78.5248 204.852C78.2275 203.877 78.822 200.086 79.5156 198.027L75.0569 198.569Z" fill="#F8AB90"/>
<path d="M90.4137 200.844C90.81 202.252 89.6211 205.719 89.522 207.452C90.4137 209.077 92.9898 207.993 93.3861 206.368C93.3861 206.152 93.5843 206.152 93.5843 205.719C93.188 204.635 94.0797 201.602 94.9715 199.652L90.4137 200.844Z" fill="#F8AB90"/>
<path d="M90.2158 120.035H99.5294C104.186 135.417 105.573 152.858 102.799 170.19C102.601 171.49 102.304 172.79 101.907 174.089L98.7368 200.954C96.3588 202.037 89.4231 201.279 87.0452 200.629C90.2158 190.663 91.9992 181.889 92.6928 172.248C92.9901 170.731 92.9901 167.59 92.9901 167.59C94.08 152.641 90.9093 123.827 90.2158 120.035Z" fill="#74B79C"/>
<path d="M82.6854 200.738C79.5148 201.713 75.1553 200.088 72.6782 199.005L78.7222 169.107C78.8213 168.566 78.8213 167.916 78.8213 167.374L76.6415 131.518C76.6415 130.652 76.6415 129.785 76.7406 128.919C77.1369 125.777 77.8305 121.227 79.0194 119.711H91.2065C94.6743 137.476 94.0798 152.642 92.6927 161.2C92.5936 161.958 91.9 170.299 91.1074 172.682L82.6854 200.738Z" fill="#74B79C"/>
<path d="M99.5288 120.25L78.8208 120.575L78.7217 119.6L99.4297 119.492L99.5288 120.25Z" fill="#20505A"/>
<path d="M83.9745 60.7812L91.1083 61.5395C89.0276 65.1143 87.4423 68.2557 89.8203 70.7472L82.9836 70.0972C85.3616 68.364 84.9653 64.1393 83.9745 60.7812Z" fill="#ECBC97"/>
<path d="M91.1096 46.0469C91.1096 46.0469 93.7848 49.6216 93.1903 52.2214C93.0912 52.6547 93.0912 52.9797 92.9921 53.1964C92.6949 54.7129 92.6949 54.6046 94.1811 55.3629C94.9737 55.7962 94.2802 56.5544 93.8839 56.8794C93.6857 57.0961 93.5866 57.3127 93.5866 57.6377C93.5866 57.9627 93.6857 58.2877 93.6857 58.2877C93.6857 58.396 93.9829 59.2626 93.1903 59.2626C89.227 59.3709 92.4967 59.2626 93.3884 59.5875C93.3884 59.5875 93.7848 59.8042 93.6857 60.0209C93.5866 60.2375 93.2894 60.5625 93.1903 60.8875C93.0912 61.2124 93.0912 62.1874 92.893 62.6207C92.6949 63.054 90.416 63.8122 89.0289 63.3789C87.939 63.0539 86.5518 62.729 85.9573 62.6207C85.7592 62.6207 85.3628 62.0791 85.2638 61.8624C84.9665 61.6458 84.1739 61.4291 83.5794 60.9958C82.3904 60.1292 83.3812 59.6959 83.4803 59.1543C83.5794 58.6126 83.7775 57.6377 83.5794 57.3127C83.3812 56.9878 82.3904 55.6878 82.1922 55.1462C81.895 54.2796 82.3904 52.7631 82.7867 52.2214C83.1831 51.6798 83.9757 51.4632 84.4711 51.8965C84.8674 52.2214 85.3628 52.2215 85.561 51.7882C85.8583 51.2465 88.4344 47.5635 88.9298 47.2385C89.4252 46.9135 91.1096 46.0469 91.1096 46.0469Z" fill="#ECBC97"/>
<path d="M93.5847 48.3235C93.4856 48.7568 93.2875 49.0818 93.0893 49.4067C92.7921 49.9484 92.2967 50.3816 91.7022 50.5983C89.9187 51.3566 88.4325 52.1148 86.7481 52.0065C86.0545 51.8982 85.46 52.3315 85.1628 53.0898C84.9646 53.7397 84.5683 54.173 84.172 54.6063C83.4784 55.3646 83.2802 56.5562 83.5775 57.5311C84.0729 58.9394 86.0545 64.0306 85.5591 65.2222C86.649 75.2965 77.1372 86.8872 68.8143 79.0878C64.8511 74.4298 72.5794 66.5221 72.7776 61.6475C72.4803 55.4729 77.0381 50.165 77.5335 48.8651C77.7317 48.4318 77.9298 48.1068 78.2271 47.7819C79.4161 46.482 80.4069 44.7488 81.3977 43.9905C82.2894 43.2322 83.2802 42.7989 84.3701 42.3656C86.0545 41.7157 87.9371 41.9323 89.5224 43.0155C91.2068 44.0988 92.693 45.6154 93.2875 46.9153C93.6838 47.3486 93.7829 47.8902 93.5847 48.3235Z" fill="#BC9D02"/>
<path d="M84.5696 54.2819C84.3715 53.8486 84.0742 53.5237 83.777 53.4153C83.6779 53.307 83.4797 53.4153 83.3806 53.4153C82.4889 53.8486 82.2907 54.6069 82.6871 55.5818C82.6871 55.5818 82.6871 55.5818 82.6871 55.6901C83.2816 56.6651 83.6779 56.8817 84.4705 57.315L84.5696 54.2819Z" fill="#ECBC97"/>
<path d="M74.5622 203.771C76.0484 204.53 77.5346 204.53 79.1199 203.555C79.219 203.555 79.3181 203.555 79.3181 203.663C80.2098 205.396 81.1015 207.671 82.4887 208.971C83.9749 210.054 85.7584 210.812 87.74 211.462C87.9382 211.571 88.2354 211.679 88.5327 211.571C89.5235 211.571 90.217 211.679 90.9106 212.112C91.0097 212.112 91.1088 212.221 91.2079 212.221C91.6042 212.437 91.8023 212.979 91.9014 213.629C91.9014 214.062 91.7033 214.387 91.406 214.604C89.8207 215.579 87.74 216.012 85.263 216.012L80.7052 215.362L73.4723 214.712L72.6796 214.387C72.5805 214.279 72.4814 214.171 72.4814 214.062C72.4814 212.762 72.6796 211.354 73.175 209.946C73.2741 209.513 73.5713 208.971 73.7695 208.538C74.364 207.346 74.5622 205.83 74.4631 204.096C74.364 203.771 74.4631 203.663 74.5622 203.771Z" fill="#BFBAB8"/>
<path d="M72.4826 212.219C72.2845 212.219 72.1854 213.735 72.2845 214.06C72.3836 214.494 73.7707 214.71 74.0679 214.71C75.1578 214.927 76.4459 214.927 77.6349 215.035L81.6972 215.469C82.8862 215.685 84.1743 215.902 85.5614 215.902C86.6513 215.902 87.7412 215.793 88.8311 215.469C89.7228 215.252 90.5155 214.927 91.3081 214.385C91.4072 214.277 91.5063 214.277 91.5063 214.06C91.7045 213.519 91.7045 212.652 90.9118 212.219C90.0201 212.76 88.6329 213.085 87.1467 213.41C86.0568 213.627 84.7687 213.735 83.3816 213.627C81.2018 213.519 79.1211 213.41 77.2386 212.977C75.5542 212.869 73.8698 212.652 72.4826 212.219Z" fill="#20505A"/>
<path d="M88.2353 211.462C88.1362 212.22 88.1362 212.762 88.4334 213.195C89.5233 212.979 90.4151 212.654 91.2077 212.22C90.4151 211.679 89.4243 211.354 88.2353 211.462Z" fill="#F05A24"/>
<path d="M78.9234 205.613C79.1424 205.613 79.32 205.419 79.32 205.18C79.32 204.94 79.1424 204.746 78.9234 204.746C78.7044 204.746 78.5269 204.94 78.5269 205.18C78.5269 205.419 78.7044 205.613 78.9234 205.613Z" fill="#D7CCC2"/>
<path d="M79.6168 207.129C79.8358 207.129 80.0134 206.935 80.0134 206.695C80.0134 206.456 79.8358 206.262 79.6168 206.262C79.3978 206.262 79.2202 206.456 79.2202 206.695C79.2202 206.935 79.3978 207.129 79.6168 207.129Z" fill="#D7CCC2"/>
<path d="M80.2135 208.43C80.4325 208.43 80.61 208.235 80.61 207.996C80.61 207.757 80.4325 207.562 80.2135 207.562C79.9944 207.562 79.8169 207.757 79.8169 207.996C79.8169 208.235 79.9944 208.43 80.2135 208.43Z" fill="#D7CCC2"/>
<path d="M81.2034 209.73C81.4225 209.73 81.6 209.536 81.6 209.297C81.6 209.057 81.4225 208.863 81.2034 208.863C80.9844 208.863 80.8069 209.057 80.8069 209.297C80.8069 209.536 80.9844 209.73 81.2034 209.73Z" fill="#D7CCC2"/>
<path d="M82.2896 210.598C82.5087 210.598 82.6862 210.403 82.6862 210.164C82.6862 209.925 82.5087 209.73 82.2896 209.73C82.0706 209.73 81.8931 209.925 81.8931 210.164C81.8931 210.403 82.0706 210.598 82.2896 210.598Z" fill="#D7CCC2"/>
<path d="M83.8417 211.257C84.0095 211.103 84.0316 210.83 83.8909 210.646C83.7502 210.463 83.5001 210.439 83.3323 210.593C83.1644 210.746 83.1423 211.02 83.283 211.203C83.4237 211.387 83.6738 211.411 83.8417 211.257Z" fill="#D7CCC2"/>
<path d="M85.0306 211.723C85.1565 211.608 85.1731 211.403 85.0676 211.265C84.9621 211.127 84.7745 211.109 84.6486 211.225C84.5227 211.34 84.5062 211.545 84.6117 211.683C84.7172 211.82 84.9048 211.839 85.0306 211.723Z" fill="#D7CCC2"/>
<path d="M86.6029 212.064C86.6837 211.908 86.6332 211.709 86.4902 211.621C86.3472 211.533 86.1657 211.588 86.085 211.744C86.0042 211.901 86.0547 212.099 86.1977 212.187C86.3408 212.276 86.5222 212.22 86.6029 212.064Z" fill="#D7CCC2"/>
<path d="M79.7151 206.263C80.0125 206.154 80.4091 206.154 80.6074 206.371C80.7065 206.588 80.8057 206.805 80.9048 206.913C80.6074 206.696 80.1117 206.805 79.9134 206.805C80.0125 206.588 79.9134 206.371 79.7151 206.263Z" fill="#686461"/>
<path d="M80.3103 207.563C80.6077 207.454 81.0043 207.238 81.3017 207.346C81.4009 207.454 81.5 207.563 81.5992 207.78C81.2026 207.671 80.7069 207.888 80.6077 207.996C80.6077 207.779 80.5086 207.671 80.3103 207.563Z" fill="#686461"/>
<path d="M81.2019 208.864C81.4001 208.647 81.8955 208.539 82.1927 208.539C82.2918 208.647 82.3909 208.756 82.5891 208.864C82.1927 208.864 81.6973 209.081 81.4992 209.297C81.4992 209.081 81.4001 208.864 81.2019 208.864Z" fill="#686461"/>
<path d="M82.3899 209.73C82.5881 209.514 82.8853 209.405 83.2816 209.297C83.3807 209.405 83.5789 209.405 83.777 209.622C83.3807 209.73 82.9844 210.055 82.7862 210.163C82.6871 210.055 82.5881 209.839 82.3899 209.73Z" fill="#686461"/>
<path d="M83.5803 210.488C83.7786 210.163 83.9769 210.055 84.2743 210.055C84.4726 210.163 84.4726 210.163 84.6709 210.271C84.3734 210.488 84.076 210.813 83.9769 210.922C83.9769 210.705 83.8777 210.488 83.5803 210.488Z" fill="#686461"/>
<path d="M84.8669 211.136C85.0652 210.811 85.3627 210.702 85.561 210.594C85.7592 210.702 85.8584 210.702 86.0567 210.811C85.7592 211.027 85.4618 211.352 85.2635 211.461C85.1644 211.352 85.0652 211.136 84.8669 211.136Z" fill="#686461"/>
<path d="M86.1572 211.681C86.2564 211.247 86.2564 211.139 86.4547 210.922C86.6529 210.922 86.8512 211.03 86.8512 211.03C86.7521 211.355 86.7521 211.572 86.6529 211.789C86.5538 211.681 86.3555 211.464 86.1572 211.681Z" fill="#686461"/>
<path d="M79.0237 204.745C79.3211 204.637 79.6185 204.637 79.8168 204.745C79.916 204.962 80.0151 205.179 80.1143 205.287C79.7177 205.179 79.5194 205.071 79.3211 205.179C79.3211 205.071 79.222 204.854 79.0237 204.745Z" fill="#686461"/>
<path d="M77.5369 204.204C77.5369 204.096 77.5369 203.987 77.5369 203.879C77.5369 203.662 77.735 203.446 77.9332 203.337C78.2304 203.121 78.5277 202.904 78.924 202.688C79.0231 202.904 79.1222 203.229 79.2212 203.554C78.924 203.771 78.5277 203.879 78.3295 203.987C78.1314 203.987 77.8341 204.096 77.5369 204.204Z" fill="#20505A"/>
<path d="M89.5246 204.529C91.0108 205.287 92.497 205.287 94.0823 204.313C94.1814 204.313 94.2805 204.312 94.2805 204.421C95.1722 206.154 96.0639 208.429 97.4511 209.729C98.9373 210.812 100.721 211.57 102.702 212.22C102.901 212.329 103.198 212.437 103.495 212.329C104.486 212.329 105.179 212.437 105.873 212.87C105.972 212.87 106.071 212.979 106.17 212.979C106.567 213.195 106.765 213.737 106.864 214.387C106.864 214.82 106.666 215.145 106.368 215.362C104.783 216.337 102.702 216.77 100.225 216.77L95.6676 216.12L88.4347 215.47L87.642 215.145C87.5429 215.037 87.4438 214.928 87.4438 214.82C87.4438 213.52 87.642 212.112 88.1374 210.704C88.2365 210.27 88.5337 209.729 88.7319 209.295C89.3264 208.104 89.5246 206.587 89.4255 204.854C89.4255 204.529 89.5246 204.529 89.5246 204.529Z" fill="#BFBAB8"/>
<path d="M87.5398 213.086C87.3416 213.086 87.2425 214.603 87.3416 214.927C87.4407 215.361 88.8278 215.577 89.1251 215.577C90.215 215.794 91.503 215.794 92.692 215.902L96.7543 216.336C97.9433 216.552 99.2314 216.769 100.619 216.769C101.708 216.769 102.798 216.661 103.888 216.336C104.78 216.119 105.573 215.794 106.365 215.252C106.464 215.144 106.563 215.144 106.563 214.927C106.762 214.386 106.762 213.519 105.969 213.086C105.077 213.628 103.69 213.953 102.204 214.278C101.114 214.494 99.8259 214.602 98.4387 214.494C96.259 214.386 94.1782 214.278 92.2957 213.844C90.6113 213.736 88.9269 213.519 87.5398 213.086Z" fill="#20505A"/>
<path d="M103.194 212.327C103.095 213.086 103.095 213.627 103.392 214.061C104.482 213.844 105.374 213.519 106.167 213.086C105.374 212.436 104.482 212.219 103.194 212.327Z" fill="#20505A"/>
<path d="M93.982 206.371C94.201 206.371 94.3786 206.177 94.3786 205.937C94.3786 205.698 94.201 205.504 93.982 205.504C93.763 205.504 93.5854 205.698 93.5854 205.937C93.5854 206.177 93.763 206.371 93.982 206.371Z" fill="#D7CCC2"/>
<path d="M94.5753 207.887C94.7943 207.887 94.9719 207.693 94.9719 207.453C94.9719 207.214 94.7943 207.02 94.5753 207.02C94.3563 207.02 94.1787 207.214 94.1787 207.453C94.1787 207.693 94.3563 207.887 94.5753 207.887Z" fill="#D7CCC2"/>
<path d="M95.2703 209.297C95.4894 209.297 95.6669 209.103 95.6669 208.863C95.6669 208.624 95.4894 208.43 95.2703 208.43C95.0513 208.43 94.8738 208.624 94.8738 208.863C94.8738 209.103 95.0513 209.297 95.2703 209.297Z" fill="#D7CCC2"/>
<path d="M96.1602 210.488C96.3793 210.488 96.5568 210.294 96.5568 210.055C96.5568 209.815 96.3793 209.621 96.1602 209.621C95.9412 209.621 95.7637 209.815 95.7637 210.055C95.7637 210.294 95.9412 210.488 96.1602 210.488Z" fill="#D7CCC2"/>
<path d="M97.3487 211.352C97.5677 211.352 97.7453 211.157 97.7453 210.918C97.7453 210.678 97.5677 210.484 97.3487 210.484C97.1297 210.484 96.9521 210.678 96.9521 210.918C96.9521 211.157 97.1297 211.352 97.3487 211.352Z" fill="#D7CCC2"/>
<path d="M98.873 212.011C99.0408 211.857 99.0628 211.584 98.9222 211.4C98.7815 211.217 98.5314 211.193 98.3635 211.347C98.1957 211.5 98.1736 211.774 98.3143 211.957C98.455 212.141 98.7051 212.165 98.873 212.011Z" fill="#D7CCC2"/>
<path d="M100.058 212.481C100.184 212.366 100.201 212.161 100.095 212.023C99.9897 211.885 99.8021 211.867 99.6762 211.983C99.5503 212.098 99.5338 212.303 99.6393 212.441C99.7448 212.578 99.9324 212.596 100.058 212.481Z" fill="#D7CCC2"/>
<path d="M101.707 212.876C101.788 212.72 101.737 212.522 101.594 212.433C101.451 212.345 101.27 212.4 101.189 212.557C101.108 212.713 101.159 212.911 101.302 213C101.445 213.088 101.626 213.033 101.707 212.876Z" fill="#D7CCC2"/>
<path d="M94.772 207.02C95.0694 206.912 95.466 206.912 95.6643 207.129C95.7634 207.346 95.8626 207.562 95.9617 207.671C95.6643 207.454 95.1686 207.562 94.9703 207.562C94.9703 207.346 94.9703 207.129 94.772 207.02Z" fill="#686461"/>
<path d="M95.3689 208.43C95.6663 208.322 96.0629 208.105 96.3603 208.213C96.4595 208.322 96.5586 208.43 96.6578 208.647C96.2612 208.538 95.7655 208.755 95.6663 208.864C95.6663 208.647 95.5672 208.43 95.3689 208.43Z" fill="#686461"/>
<path d="M96.2605 209.618C96.4587 209.401 96.9541 209.293 97.2513 209.293C97.3504 209.401 97.4495 209.51 97.6477 209.618C97.2513 209.618 96.7559 209.835 96.5577 210.051C96.5577 209.943 96.4587 209.726 96.2605 209.618Z" fill="#686461"/>
<path d="M97.3511 210.593C97.5492 210.377 97.8465 210.268 98.2428 210.16C98.3419 210.268 98.54 210.269 98.7382 210.485C98.3419 210.594 97.9456 210.918 97.7474 211.027C97.7474 210.81 97.6483 210.593 97.3511 210.593Z" fill="#686461"/>
<path d="M98.6392 211.246C98.8374 210.921 99.0357 210.812 99.3332 210.812C99.5314 210.921 99.5314 210.921 99.7297 211.029C99.4323 211.246 99.1349 211.571 99.0357 211.68C98.9366 211.463 98.8374 211.246 98.6392 211.246Z" fill="#686461"/>
<path d="M99.9238 211.894C100.122 211.568 100.42 211.46 100.618 211.352C100.816 211.46 100.915 211.46 101.114 211.568C100.816 211.785 100.519 212.11 100.32 212.219C100.221 212.11 100.122 211.894 99.9238 211.894Z" fill="#686461"/>
<path d="M101.214 212.438C101.313 212.005 101.313 211.896 101.512 211.68C101.71 211.68 101.908 211.788 101.908 211.788C101.809 212.113 101.809 212.33 101.71 212.547C101.611 212.438 101.412 212.222 101.214 212.438Z" fill="#686461"/>
<path d="M94.0808 205.503C94.3782 205.395 94.6757 205.395 94.874 205.503C94.9731 205.72 95.0722 205.937 95.1714 206.045C94.7748 205.937 94.5765 205.828 94.3782 205.937C94.3782 205.828 94.2791 205.612 94.0808 205.503Z" fill="#686461"/>
<path d="M92.5959 204.962C92.5959 204.853 92.5959 204.745 92.5959 204.637C92.5959 204.42 92.7941 204.204 92.9923 204.095C93.2895 203.879 93.5868 203.662 93.9831 203.445C94.0822 203.662 94.1813 203.987 94.2803 204.312C93.9831 204.529 93.5868 204.637 93.3886 204.745C93.1904 204.853 92.8932 204.962 92.5959 204.962Z" fill="#20505A"/>
<path d="M91.9004 86.8886C92.2967 90.03 104.583 106.929 111.519 107.47C111.618 107.47 111.717 107.47 111.915 107.47C112.41 107.47 112.906 107.254 113.401 107.037C115.878 105.304 125.885 98.1544 129.353 93.8214L127.272 89.7051C122.021 91.6549 111.816 99.2377 111.816 99.2377C111.816 99.2377 111.221 99.4543 111.122 99.1293C106.961 91.6549 100.917 87.6469 94.8728 83.8555L91.9004 86.8886Z" fill="#ECBC97"/>
<path d="M138.472 81.3633L133.914 89.271C133.914 89.271 134.409 90.2459 135.598 90.1376C136.688 90.0293 138.273 86.9962 138.372 86.4546C138.571 85.8046 138.273 85.263 138.472 84.8297C138.67 84.3964 138.571 83.3131 138.571 83.3131C138.472 83.3131 139.462 81.7966 138.472 81.3633Z" fill="#D7A887"/>
<path d="M132.624 89.2691L135.001 78.7616C135.101 78.4366 135.299 78.2199 135.497 78.0033L138.965 75.8368C139.163 75.7284 139.46 75.7285 139.559 75.9451C139.658 76.0535 139.658 76.2701 139.658 76.3784L137.181 87.4276L132.624 89.2691Z" fill="#1A2E35"/>
<path d="M137.08 88.4043C137.08 88.4043 137.179 88.296 137.179 87.971C137.179 87.646 137.179 87.2127 137.08 86.6711C137.179 86.4544 137.179 86.3461 137.179 86.1294C137.08 85.9128 136.981 85.6961 136.782 85.5878H136.683V85.4795C136.881 85.1545 137.08 84.8296 137.278 84.3963C137.377 84.2879 137.377 84.1796 137.377 84.1796C137.377 84.0713 137.377 83.963 137.377 83.8546C137.278 83.638 137.179 83.5296 136.981 83.4213V83.313L137.08 83.2047C137.278 82.9881 137.476 82.7714 137.674 82.5547C137.971 82.1214 138.368 81.7965 138.566 81.3632C138.665 81.1465 138.863 80.9298 138.863 80.7132C138.863 80.6048 138.962 80.4965 138.962 80.3882C138.962 80.2799 138.962 80.2799 138.863 80.2799C138.764 80.2799 138.665 80.2799 138.566 80.3882C138.467 80.3882 138.368 80.4966 138.269 80.4966C138.07 80.6049 137.872 80.7132 137.674 80.8215C137.278 81.0382 136.981 81.3631 136.782 81.4715C136.584 81.6881 136.386 81.7965 136.188 81.9048C136.089 82.0131 135.99 82.1214 135.99 82.0131C135.99 82.0131 136.089 81.9047 136.188 81.7964C136.287 81.6881 136.485 81.4714 136.683 81.2548C136.881 81.0381 137.179 80.8215 137.575 80.4966C137.773 80.3882 137.971 80.2799 138.17 80.0632C138.269 79.9549 138.368 79.9549 138.467 79.8466C138.566 79.8466 138.764 79.7383 138.863 79.7383C139.061 79.7383 139.16 79.9549 139.061 80.0632C139.061 80.1716 139.061 80.2799 138.962 80.3882C138.863 80.6049 138.764 80.8215 138.566 81.0382C138.269 81.4715 137.971 81.7964 137.674 82.2297C137.476 82.4464 137.278 82.663 137.08 82.8797V82.7714C137.278 82.8797 137.476 83.0964 137.575 83.313C137.575 83.4213 137.674 83.5297 137.575 83.7463C137.575 83.8547 137.476 83.963 137.377 84.0713C137.179 84.3963 136.981 84.8296 136.683 85.1545V85.0462C136.881 85.2628 137.08 85.3712 137.08 85.6962C137.179 85.9128 137.08 86.2378 136.981 86.3461C137.08 86.8877 137.08 87.4294 137.08 87.646C137.179 88.1876 137.179 88.296 137.08 88.4043Z" fill="#C89777"/>
<path d="M139.558 75.9453C139.558 75.9453 139.459 76.0537 139.261 76.162C139.063 76.2703 138.765 76.487 138.468 76.7036C138.072 76.9203 137.675 77.2452 137.279 77.4618C137.081 77.5702 136.784 77.7868 136.586 77.8952C136.288 78.0035 136.09 78.2201 135.892 78.4368C135.694 78.6534 135.595 78.9784 135.496 79.3034C135.397 79.6283 135.397 79.9533 135.298 80.17C135.198 80.7116 135 81.2532 134.901 81.6865C134.802 82.1198 134.703 82.4448 134.604 82.6615C134.505 82.8781 134.505 82.9865 134.505 82.9865C134.505 82.9865 134.505 82.8781 134.604 82.5531C134.604 82.3365 134.703 82.0115 134.802 81.5782C134.901 81.1449 135 80.6033 135.099 80.0617C135.198 79.7367 135.198 79.52 135.298 79.1951C135.397 78.8701 135.496 78.5451 135.694 78.2201C135.892 78.0035 136.189 77.7868 136.487 77.6785C136.784 77.5702 136.982 77.3536 137.18 77.2452C137.676 76.9203 138.072 76.7036 138.468 76.4869C138.864 76.2703 139.063 76.0536 139.36 75.9453C139.459 76.0536 139.558 75.9453 139.558 75.9453Z" fill="#375A64"/>
<path d="M137.282 79.5205C137.183 79.7373 137.183 79.9541 137.282 79.9541C137.381 79.9541 137.48 79.8456 137.58 79.6288C137.679 79.4121 137.679 79.1953 137.58 79.1953C137.48 79.1953 137.381 79.3037 137.282 79.5205Z" fill="white"/>
<path d="M128.758 88.8373C129.55 88.404 129.55 86.9958 129.947 86.1292C130.244 85.3709 130.64 84.6126 130.937 84.5043C131.433 84.1793 134.207 82.3378 134.207 82.3378L133.91 83.7461L136.585 81.6879C136.882 81.4712 138.765 79.5214 139.161 80.2797C139.359 80.8213 137.873 82.2295 137.675 82.5545C137.18 83.3127 137.378 83.3128 137.378 83.3128C137.378 83.3128 137.972 83.6377 137.675 84.1793C137.378 84.721 136.882 85.371 136.882 85.371C136.882 85.371 137.576 85.6959 137.18 86.6708C137.18 86.6708 137.378 87.2124 137.279 87.9707C137.18 88.404 136.882 88.9456 136.486 89.3789C136.09 89.9206 135.594 90.2455 135 90.4622C132.721 91.3288 130.739 92.3038 129.352 93.6037L127.271 89.4873L128.758 88.8373Z" fill="#ECBC97"/>
<path d="M134.706 83.0977C134.706 83.0977 134.112 83.6393 133.319 84.0726C132.527 84.6142 131.932 84.9392 131.932 84.9392C131.932 84.9392 132.527 84.3975 133.319 83.9642C134.013 83.4226 134.706 83.0977 134.706 83.0977Z" fill="#C89777"/>
<path d="M137.182 83.2031C137.182 83.2031 136.687 83.8531 135.993 84.6113C135.3 85.3696 134.705 85.9113 134.705 85.9113C134.705 85.9113 135.2 85.2613 135.894 84.503C136.588 83.7447 137.182 83.2031 137.182 83.2031Z" fill="#C89777"/>
<path d="M136.981 85.1523C136.981 85.1523 136.783 85.5856 136.387 86.0189C136.089 86.4522 135.693 86.7772 135.693 86.7772C135.693 86.7772 135.891 86.3439 136.288 85.9106C136.585 85.4773 136.981 85.1523 136.981 85.1523Z" fill="#C89777"/>
<path d="M102.108 119.494H72.5818C72.5818 119.494 73.6717 91.9789 77.4368 76.7051C77.9322 74.5386 79.6166 71.3971 81.1028 69.8805C81.6973 69.2306 82.3909 68.689 83.1835 68.364C83.6789 68.1474 84.2734 68.0391 84.8679 68.0391L89.921 68.4723C90.5155 68.4723 91.0109 68.9057 91.2091 69.4473L96.2623 81.9047C96.5595 82.663 96.9558 83.3129 97.5503 83.8545L104.981 91.1123L100.126 97.6118L99.5319 98.3701" fill="#20505A"/>
<path d="M98.1422 97.9367C90.0175 90.8955 89.6212 89.4873 89.0267 87.1041C88.8285 86.3459 88.5313 85.371 87.9368 84.0711L88.6303 83.7461C89.2248 85.1543 89.5221 86.0209 89.7202 86.8875C90.3147 89.1623 90.7111 90.3539 98.6376 97.2867L98.1422 97.9367Z" fill="black"/>
<g clip-path="url(#clip0_22158_427637)">
<path d="M189.06 154.774L189.591 154.526C191.512 153.629 193.73 154.662 194.476 156.801L200.705 174.657C200.83 175.011 200.997 175.343 201.206 175.647C202.405 177.392 206.71 183.023 210.889 180.731C215.505 178.198 223.587 157.739 222.898 159.388C222.898 159.388 230.776 143.343 230.853 143.222C232.392 140.829 234.673 147.02 235.993 149.686L235.884 149.709C236.507 150.968 234.933 152.399 234.259 153.623L222.679 175.478C222.564 175.687 221.473 177.792 221.358 178.003C220.298 179.955 217.953 187.1 212.676 188.691C206.8 190.461 200.994 190.475 199.565 190.116C198.136 189.758 196.231 190.186 195.229 186.29C194.458 183.292 189.34 167.103 187.027 159.813C186.39 157.808 187.279 155.605 189.062 154.772L189.06 154.774Z" fill="#00DFF4"/>
<path d="M192.421 152.327L194.134 151.803L201.962 172.286C202.395 173.507 203.018 174.642 203.83 175.603C204.939 176.915 206.547 178.104 208.207 176.906C211.226 174.724 216.103 159.821 216.103 159.821C216.103 159.821 218.194 154.342 218.771 154.266C219.349 154.191 220.074 154.216 221.515 154.497C222.955 154.777 224.165 152.349 224.346 151.971C224.527 151.593 226.603 148.619 226.416 147.302C226.228 145.986 226.962 146.275 227.303 146.369C227.643 146.462 229.451 147.132 228.183 145.223C226.915 143.314 230.511 141.057 230.511 141.057L231.649 143.378L231.823 143.998L232.023 144.446L230.008 147.907L222.963 160.92L214.551 177.924C214.551 177.924 209.885 185.416 202.649 178.197C202.649 178.197 200.018 175.196 198.458 169.591C196.898 163.985 192.421 152.329 192.421 152.329L192.421 152.327Z" fill="#00BDF1"/>
<path d="M264.114 161.042L256.162 179.296L257.053 179.696L265.178 161.493L264.189 160.896L264.114 161.042Z" fill="black"/>
<path d="M263.029 160.362L255.257 178.15L254.334 177.613L262.219 159.94L263.029 160.362Z" fill="black"/>
<path d="M239.493 151.828C239.938 152.64 252.217 178.451 252.217 178.451L249.544 180.353L228.236 141.602L232.891 137.848L239.493 151.828Z" fill="#00DFF4"/>
<path d="M234.975 142.344L239.139 151.25C239.139 151.25 242.215 151.101 246.323 149.438C250.43 147.775 250.007 142.976 249.601 140.122C249.195 137.268 248.827 136.733 248.827 136.733L234.214 140.702L234.975 142.344Z" fill="#202321"/>
<path d="M235.188 141.239L235.977 142.629L248.195 139.655C248.195 139.655 249.068 138.986 248.395 137.517L235.188 141.239Z" fill="black"/>
<path d="M256.442 213.482C241.857 214.715 229.053 202.454 227.9 186.15C226.748 169.845 237.676 155.579 252.261 154.347C266.846 153.114 279.649 165.375 280.802 181.679C281.955 197.984 271.027 212.25 256.442 213.482ZM252.63 159.577C240.676 160.588 231.722 172.326 232.671 185.747C233.62 199.167 244.117 209.262 256.072 208.252C268.026 207.241 276.98 195.502 276.031 182.082C275.082 168.662 264.585 158.567 252.63 159.577Z" fill="black"/>
<path d="M237.545 198.977L249.811 187.189L249.143 186.428L236.74 198.088L237.422 199.075L237.545 198.977Z" fill="black"/>
<path d="M237.819 200.294L251.237 187.307L251.947 188.335L238.463 201.147L237.819 200.294Z" fill="black"/>
<path d="M239.287 164.763L250.278 181.022L251.017 180.346L240.149 163.944L239.206 164.621L239.287 164.763Z" fill="black"/>
<path d="M238.231 165.495L248.931 181.361L248.066 182.003L237.512 166.082L238.231 165.495Z" fill="black"/>
<path d="M276.636 182.828L257.41 183.953L257.518 185L276.785 184.067L276.789 182.83L276.636 182.828Z" fill="black"/>
<path d="M276.659 181.458L257.159 182.655L257.145 181.51L276.607 180.476L276.659 181.458Z" fill="black"/>
<path d="M262.941 207.712L255.224 187.794L254.3 188.348L261.855 208.39L263 207.884L262.941 207.712Z" fill="black"/>
<path d="M264.333 206.552L256.058 186.888L257.132 186.395L265.237 206.081L264.333 206.552Z" fill="black"/>
<path d="M248.213 184.8L227.487 177.783L228.078 175.185L248.467 182.242L248.213 184.8Z" fill="black"/>
<path d="M227.622 179.688C227.622 179.688 227.211 174.341 230.732 168.453C234.253 162.564 236.318 158.925 244.393 155.412C252.468 151.899 259.837 154.813 259.837 154.813L262.556 154.018C262.556 154.018 259.21 152.32 254.887 152.332C250.563 152.344 240.221 153.006 233.772 161.261C227.323 169.517 227.062 173.149 226.741 174.095C226.421 175.041 225.624 180.203 225.624 180.203L225.263 182.406" fill="black"/>
<path d="M253.597 188.685C256.515 188.438 258.703 185.735 258.485 182.647C258.267 179.559 255.724 177.256 252.806 177.503C249.888 177.749 247.699 180.452 247.918 183.54C248.136 186.628 250.678 188.932 253.597 188.685Z" fill="black"/>
<path d="M148.541 153.89L148.846 158.215C148.846 158.215 157.15 158.15 161.53 161.706C165.911 165.261 168.83 170.064 169.421 177.913L189.658 175.742L192.687 175.407C192.687 175.407 189.653 157.753 174.087 151.158C174.087 151.158 168.602 148.916 161.131 150.258C155.286 151.308 148.479 153.044 148.479 153.044L148.539 153.889L148.541 153.89Z" fill="black"/>
<path d="M194.679 190.584C194.271 190.619 193.855 190.601 193.442 190.529L168.621 186.215C166.464 185.841 164.969 184.107 165.063 182.096L165.078 181.773C165.18 179.628 167.097 177.934 169.444 177.916C169.593 177.915 169.74 177.921 169.887 177.933L194.677 180.035C196.932 180.225 198.642 181.934 198.655 184.007L198.671 186.541C198.678 187.608 198.238 188.613 197.433 189.373C196.689 190.072 195.711 190.493 194.677 190.581L194.679 190.584ZM169.195 179.615C167.803 179.733 166.67 180.699 166.615 181.861L166.6 182.184C166.547 183.299 167.519 184.316 168.862 184.55L193.683 188.864C194.707 189.043 195.735 188.755 196.433 188.098C196.889 187.667 197.14 187.12 197.136 186.558L197.12 184.024C197.113 182.854 195.989 181.842 194.561 181.721L169.771 179.619C169.668 179.611 169.561 179.607 169.455 179.607C169.368 179.606 169.281 179.612 169.195 179.619L169.195 179.615Z" fill="black"/>
<path d="M168.855 180.403L191.125 182.342L190.318 187.362L167.503 184.126L168.855 180.403Z" fill="#00DFF4"/>
<path d="M168.887 211.017C154.302 212.25 141.498 199.989 140.346 183.685C139.193 167.38 150.121 153.114 164.706 151.882C179.291 150.649 192.095 162.91 193.247 179.214C194.4 195.519 183.472 209.785 168.887 211.017ZM165.076 157.112C153.121 158.123 144.168 169.862 145.116 183.282C146.065 196.702 156.563 206.797 168.517 205.787C180.471 204.776 189.425 193.038 188.477 179.617C187.528 166.197 177.03 156.102 165.076 157.112Z" fill="black"/>
<path d="M150.875 197.986L162.679 183.133L161.84 182.426L149.868 197.169L150.754 198.115L150.875 197.986Z" fill="black"/>
<path d="M151.84 199.054L163.684 184.579L164.848 184.554L152.586 199.758L151.84 199.054Z" fill="black"/>
<path d="M155.41 159.304L164.3 177.041L165.114 176.48L156.366 158.622L155.346 159.154L155.41 159.304Z" fill="black"/>
<path d="M154.272 159.877L162.922 177.179L161.987 177.688L153.488 160.353L154.272 159.877Z" fill="black"/>
<path d="M178.568 200.926L168.342 184.789L167.598 185.457L178.136 202.408L179.085 201.739L178.568 200.926Z" fill="black"/>
<path d="M180.339 200.77L168.89 183.783L169.759 183.15L180.939 200.131L180.339 200.77Z" fill="black"/>
<path d="M160.66 182.335L139.932 175.316L140.524 172.72L160.914 179.777L160.66 182.335Z" fill="black"/>
<path d="M140.067 177.222C140.067 177.222 139.656 171.874 143.177 165.986C146.698 160.098 148.763 156.458 156.838 152.946C164.914 149.433 172.283 152.347 172.283 152.347L175.001 151.552C175.001 151.552 171.655 149.854 167.332 149.866C163.008 149.878 152.716 150.21 146.266 158.466C139.815 166.721 139.586 170.422 139.188 171.63C138.875 172.579 138.071 177.738 138.071 177.738L137.711 179.941" fill="black"/>
<path d="M166.042 186.216C168.96 185.97 171.149 183.266 170.93 180.179C170.712 177.091 168.169 174.787 165.251 175.034C162.333 175.281 160.145 177.984 160.363 181.072C160.581 184.159 163.124 186.463 166.042 186.216Z" fill="black"/>
<path d="M197.158 194.623C201.649 194.243 205.017 190.083 204.681 185.33C204.344 180.577 200.432 177.031 195.941 177.411C191.451 177.79 188.083 181.951 188.419 186.704C188.755 191.457 192.668 195.002 197.158 194.623Z" fill="black"/>
<path d="M186.842 158.719L184.393 150.105C184.393 150.105 185.645 149.509 186.896 149.407C188.147 149.305 190.878 149.093 191.349 149.091C191.82 149.088 192.751 148.944 193.125 149.604C193.499 150.264 195.205 154.795 195.205 154.795L186.84 158.721L186.842 158.719Z" fill="black"/>
<path d="M195.266 154.764C195.266 154.764 193.513 149.487 192.651 149.171C191.788 148.855 186.188 149.505 186.188 149.505C186.188 149.505 191.392 149.696 192.515 152.106L193.779 155.461L195.264 154.764L195.266 154.764Z" fill="#0F1611"/>
<path d="M185.52 149.701L182.946 141.934L185.361 141.73L187.731 149.514L185.52 149.701Z" fill="#0F1611"/>
<path d="M174.148 137.35C174.148 137.35 175.95 142.326 176.197 142.45C176.444 142.574 194.438 140.897 194.438 140.897C194.438 140.897 196.546 138.791 193.535 138.36C190.524 137.928 174.225 136.626 174.225 136.626L173.851 136.586L174.148 137.348L174.148 137.35Z" fill="#0F1611"/>
<path d="M199.614 193.207C199.614 193.207 201.387 202.074 201.602 203.17C201.817 204.266 199.727 211.486 199.727 211.486C199.727 211.486 200.305 211.486 201.602 211.486C202.039 211.17 203.485 203.17 203.485 203.17L201.726 191.471L199.615 193.207L199.614 193.207Z" fill="#0F1611"/>
<path d="M197.79 197.565L190.637 198.169C190.365 198.192 190.161 198.453 190.182 198.751L190.311 200.576C190.333 200.874 190.57 201.097 190.842 201.074L197.995 200.47C198.267 200.447 198.47 200.186 198.449 199.888L198.32 198.063C198.299 197.765 198.062 197.542 197.79 197.565Z" fill="#0F1611"/>
<path d="M196.246 194.893L194.065 197.881L196.443 197.68L198.383 194.712L196.246 194.893Z" fill="#0F1611"/>
<path d="M228.236 141.599L224.961 133.812C224.961 133.812 225.166 129.409 226.587 127.59C228.008 125.771 227.502 126.381 226.795 125.733C226.362 125.337 225.5 124.579 224.895 124.051C224.457 123.668 224.097 123.189 223.841 122.641L223.625 122.18C223.625 122.18 223.24 121.294 221.651 121.64C220.063 121.987 217.887 122.505 217.887 122.505C217.887 122.505 219.159 120.043 217.788 119.916C216.061 119.756 223.669 117.298 223.669 117.298L226.785 119.387C226.785 119.387 226.829 117.897 227.645 117.828C228.461 117.759 230.968 118.979 232.911 119.772C234.854 120.564 235.768 121.174 235.41 122.266C235.052 123.358 232.823 122.645 232.63 122.661C232.438 122.677 231.679 123.591 231.679 123.591C231.679 123.591 230.079 127.652 230.406 129.535C230.733 131.419 232.906 137.867 232.906 137.867L228.239 141.603L228.236 141.599Z" fill="#202321"/>
<path d="M217.447 122.632C218.174 122.571 218.718 121.874 218.662 121.077C218.605 120.279 217.97 119.683 217.242 119.744C216.515 119.806 215.971 120.502 216.027 121.299C216.084 122.097 216.719 122.694 217.447 122.632Z" fill="#202321"/>
<path d="M206.508 177.545C207.366 175.986 217.415 148.493 217.415 148.493C217.415 148.493 218.409 146.357 218.451 146.265C218.492 146.173 219.242 145.597 220.632 146.081C222.022 146.565 226.659 148.298 226.659 148.298L222.545 154.887C222.545 154.887 220.821 155.138 219.708 154.914C218.596 154.691 217.712 156.357 216.788 158.805C215.865 161.253 209.292 178.717 209.292 178.717" fill="black"/>
<ellipse opacity="0.5" cx="200.305" cy="211.487" rx="10.4066" ry="1.26417" fill="url(#paint0_radial_22158_427637)"/>
</g>
<defs>
<radialGradient id="paint0_radial_22158_427637" cx="0" cy="0" r="1" gradientUnits="userSpaceOnUse" gradientTransform="translate(200.086 211.69) rotate(90) scale(1.26417 10.4066)">
<stop/>
<stop offset="1" stop-color="#D9D9D9" stop-opacity="0"/>
</radialGradient>
<clipPath id="clip0_22158_427637">
<rect width="142.626" height="98.6103" fill="white" transform="matrix(0.996448 -0.0842084 0.0705251 0.99751 133.818 124.891)"/>
</clipPath>
</defs>
</svg>
