<svg width="343" height="295" viewBox="0 0 343 295" fill="none" xmlns="http://www.w3.org/2000/svg">
<g clip-path="url(#clip0_22158_459978)">
<path d="M171 197.582C256.604 197.582 326 192.202 326 185.566C326 178.93 256.604 173.551 171 173.551C85.3959 173.551 16 178.93 16 185.566C16 192.202 85.3959 197.582 171 197.582Z" fill="#D6D6D6"/>
<path d="M122.541 183.832H58.4377V186.211H122.541V183.832Z" fill="#F2F2F2"/>
<path d="M235.128 183.832H171.024V186.211H235.128V183.832Z" fill="#F2F2F2"/>
<path d="M271.302 178.781L62.2119 179.013V171.994L271.302 171.762V178.781Z" fill="#EACE03"/>
<path d="M271.359 171.996H62.3855L78.7016 166.484L277.862 166.078L271.359 171.996Z" fill="#C6AA05"/>
<path d="M277.514 172.344L271.302 178.783V171.938L277.863 166.078L277.514 172.344Z" fill="#B79A08"/>
<path d="M262.767 77.3164H241.747V118.854H262.767V77.3164Z" fill="#232323"/>
<path opacity="0.54" d="M252.257 90.137C254.951 90.137 257.134 87.9552 257.134 85.2638C257.134 82.5724 254.951 80.3906 252.257 80.3906C249.563 80.3906 247.379 82.5724 247.379 85.2638C247.379 87.9552 249.563 90.137 252.257 90.137Z" fill="#CE1B0D"/>
<path opacity="0.54" d="M252.257 102.957C254.951 102.957 257.134 100.776 257.134 98.0841C257.134 95.3927 254.951 93.2109 252.257 93.2109C249.563 93.2109 247.38 95.3927 247.38 98.0841C247.38 100.776 249.563 102.957 252.257 102.957Z" fill="#E56D0A"/>
<path d="M252.257 115.723C254.951 115.723 257.134 113.541 257.134 110.85C257.134 108.158 254.951 105.977 252.257 105.977C249.563 105.977 247.38 108.158 247.38 110.85C247.38 113.541 249.563 115.723 252.257 115.723Z" fill="#00A300"/>
<path d="M254.115 118.508H250.224V178.842H254.115V118.508Z" fill="#232323"/>
<path d="M41.8876 157.262H37.6489V178.959H41.8876V157.262Z" fill="#754C24"/>
<path d="M55.6489 158.713C54.9521 159.409 39.449 162.774 30.6232 158.713C20.1716 153.665 30.6232 118.509 30.6232 118.509C30.6232 118.509 41.7715 85.441 44.5005 82.7144C47.2296 79.9877 49.5522 99.5964 53.6167 110.039C57.6812 120.481 55.6489 134.347 57.6812 142.121C59.7134 149.895 60.0618 151.229 58.3779 154.942C57.3328 157.726 55.6489 158.713 55.6489 158.713Z" fill="#A2D855"/>
<path d="M84.5659 160.223H83.1724V166.546H84.5659V160.223Z" fill="#754C24"/>
<path d="M87.9338 160.918C87.7596 161.092 83.5208 162.02 81.0821 160.918C78.237 159.526 81.0821 149.895 81.0821 149.895C81.0821 149.895 84.1596 140.845 84.8563 140.091C85.5531 139.337 86.2499 144.732 87.3531 147.575C88.4563 150.418 87.9337 154.246 88.4563 156.335C89.037 158.481 89.095 158.83 88.6305 159.874C88.3983 160.628 87.9338 160.918 87.9338 160.918Z" fill="#8FC140"/>
<path d="M102.566 160.219H101.173V166.542H102.566V160.219Z" fill="#754C24"/>
<path d="M105.934 160.914C105.76 161.088 101.521 162.016 99.0824 160.914C96.2372 159.522 99.0824 149.892 99.0824 149.892C99.0824 149.892 102.16 140.841 102.857 140.087C103.611 139.333 104.25 144.728 105.353 147.571C106.457 150.414 105.934 154.243 106.457 156.331C107.037 158.478 107.095 158.826 106.631 159.87C106.398 160.624 105.934 160.914 105.934 160.914Z" fill="#8FC140"/>
<path d="M121.438 160.102H120.044V166.425H121.438V160.102Z" fill="#754C24"/>
<path d="M124.116 160.899C123.942 161.073 119.703 162.001 117.264 160.899C114.419 159.506 117.264 149.876 117.264 149.876C117.264 149.876 120.342 140.826 121.038 140.072C121.793 139.317 122.432 144.713 123.535 147.555C124.638 150.398 124.116 154.227 124.638 156.315C125.161 158.404 125.277 158.81 124.813 159.854C124.58 160.608 124.116 160.899 124.116 160.899Z" fill="#8FC140"/>
<path d="M178.92 160.047H177.527V166.37H178.92V160.047Z" fill="#754C24"/>
<path d="M182.289 160.801C182.115 160.975 177.876 161.903 175.437 160.801C172.592 159.408 175.437 149.778 175.437 149.778C175.437 149.778 178.515 140.728 179.211 139.974C179.966 139.22 180.605 144.615 181.708 147.458C182.811 150.3 182.289 154.129 182.811 156.218C183.334 158.306 183.45 158.712 182.985 159.757C182.753 160.511 182.289 160.801 182.289 160.801Z" fill="#8FC140"/>
<path d="M199.592 160.047H198.198V166.37H199.592V160.047Z" fill="#754C24"/>
<path d="M202.958 160.742C202.784 160.916 198.546 161.845 196.107 160.742C193.262 159.35 196.107 149.72 196.107 149.72C196.107 149.72 199.184 140.669 199.881 139.915C200.578 139.161 201.275 144.556 202.378 147.399C203.481 150.242 202.958 154.071 203.481 156.159C204.062 158.306 204.12 158.654 203.655 159.698C203.423 160.452 202.958 160.742 202.958 160.742Z" fill="#8FC140"/>
<path d="M62.3862 159.641H58.1475V178.611H62.3862V159.641Z" fill="#754C24"/>
<path d="M71.3859 160.799C70.8052 161.379 58.031 164.106 50.8311 160.799C42.2375 156.622 50.8311 127.731 50.8311 127.731C50.8311 127.731 60.0052 100.523 62.2117 98.2602C64.4181 96.0556 66.3923 112.125 69.702 120.77C73.0117 129.356 71.3859 140.784 73.0117 147.166C74.6375 153.547 74.9859 154.65 73.5923 157.724C72.7794 159.987 71.3859 160.799 71.3859 160.799Z" fill="#0B9D99"/>
<path d="M164.672 81.0547L168.133 81.631C166.835 83.7442 166.306 85.9054 167.316 87.5383L162.701 86.8179C163.999 85.6653 165.008 83.1199 164.672 81.0547Z" fill="#EDBD98"/>
<path fill-rule="evenodd" clip-rule="evenodd" d="M206.253 158.572C207.407 159.244 207.792 160.685 207.167 161.838L198.61 177.014C198.178 177.735 197.361 178.263 196.495 178.263H155.973C154.675 178.263 153.522 177.207 153.522 175.814C153.522 174.421 154.579 173.364 155.973 173.364H195.005L202.792 159.389C203.61 158.332 205.1 157.9 206.253 158.572Z" fill="#3DBCC8"/>
<path fill-rule="evenodd" clip-rule="evenodd" d="M144.629 180.138C146.696 180.138 148.234 178.505 148.234 176.536C148.234 174.47 146.6 172.933 144.629 172.933C142.562 172.933 141.024 174.566 141.024 176.536C141.024 178.505 142.658 180.138 144.629 180.138ZM144.629 184.988C149.291 184.988 153.185 181.194 153.185 176.439C153.185 171.685 149.388 167.891 144.629 167.891C139.966 167.891 136.073 171.685 136.073 176.439C136.073 181.242 139.918 184.988 144.629 184.988Z" fill="#20505A"/>
<path fill-rule="evenodd" clip-rule="evenodd" d="M214.233 180.138C216.299 180.138 217.838 178.505 217.838 176.536C217.838 174.47 216.203 172.933 214.233 172.933C212.262 172.933 210.627 174.566 210.627 176.536C210.531 178.505 212.166 180.138 214.233 180.138ZM214.233 184.988C218.895 184.988 222.789 181.194 222.789 176.439C222.789 171.685 218.991 167.891 214.233 167.891C209.474 167.891 205.676 171.685 205.676 176.439C205.676 181.242 209.474 184.988 214.233 184.988Z" fill="#20505A"/>
<path fill-rule="evenodd" clip-rule="evenodd" d="M196.303 128.941C197.553 128.365 198.947 128.941 199.523 130.094L200.677 132.543C201.254 133.792 200.677 135.184 199.523 135.761C198.274 136.337 196.88 135.761 196.303 134.608L195.149 132.159C194.572 130.91 195.101 129.517 196.303 128.941Z" fill="#20505A"/>
<path fill-rule="evenodd" clip-rule="evenodd" d="M200.677 152.664L205.868 165.823C206.109 166.544 206.878 167.552 207.503 168.033C208.32 168.609 209.329 168.753 210.291 168.177C211.444 167.264 211.108 164.815 210.195 162.846L209.137 160.396L200.773 139.889L194.716 124.328L193.707 121.734L189.909 123.703L200.677 152.664Z" fill="#65C8D0"/>
<path fill-rule="evenodd" clip-rule="evenodd" d="M189.909 123.657L185.487 111.603C185.727 111.603 183.948 111.506 182.843 112.035C182.266 112.275 180.776 113.091 180.632 112.947C179.91 112.611 179.334 112.035 179.238 111.074C179.238 110.162 179.814 109.681 180.632 109.537L185.871 109.105L185.727 108.097L181.785 108.433L181.641 107.76L187.073 107.328L187.553 109.441C188.563 109.537 189.38 109.922 189.861 110.978L193.706 121.64L189.909 123.657Z" fill="#1A1A1A"/>
<path d="M159.913 116.259C157.606 122.838 156.549 129.466 156.693 136.286C148.377 137.199 139.388 137.727 133.86 144.21L145.012 162.605C151.261 155.161 157.222 148.965 162.605 145.219C163.086 144.883 164.48 143.442 164.816 142.962C165.874 141.569 167.653 139.888 168.518 137.967C168.758 137.391 166.595 135.662 167.028 135.085L168.037 133.837L164.576 119.717L160.731 114.962L160.25 113.617V114.818C160.154 115.298 160.058 115.778 159.913 116.259Z" fill="#51BABC"/>
<path d="M162.979 107.955C163.143 107.287 170.331 106.541 172.156 108.23C173.841 109.77 176.539 117.634 176.539 117.634C178.062 121.38 178.533 126.535 179.223 132.417C179.355 136.025 179.824 138.057 180.45 141.247C182.028 147.973 178.498 153.441 178.224 159.391L177.631 166.34L155.645 163.424C156.045 154.883 163.621 147.567 166.963 140.363C165.664 133.934 164.549 127.798 163.896 122.301C163.814 121.818 163.683 121.382 163.505 120.896L161.423 116.557C160.655 114.901 160.522 112.927 161.15 111.216C161.616 110.125 162.128 109.083 162.979 107.955Z" fill="#65C8D0"/>
<g opacity="0.96">
<path d="M198.849 141.377C198.705 141.473 198.513 141.521 198.416 141.713L197.984 140.656L197.407 140.896L198.224 142.962C198.465 143.538 199.137 143.778 199.714 143.538C200.291 143.298 200.628 142.625 200.387 142.049C200.195 141.473 199.522 141.233 198.849 141.377ZM199.522 142.962C199.282 143.058 198.945 142.962 198.849 142.721C198.753 142.481 198.849 142.145 199.089 142.049C199.33 141.953 199.666 142.049 199.762 142.289C199.907 142.529 199.762 142.865 199.522 142.962Z" fill="white"/>
<path d="M201.397 147.717C200.82 147.958 200.58 148.63 200.724 149.206L201.157 150.263L201.733 150.023L201.301 148.966C201.205 148.726 201.301 148.39 201.541 148.294C201.782 148.198 202.118 148.294 202.214 148.534L202.647 149.591L203.224 149.35L202.791 148.294C202.647 147.717 201.974 147.477 201.397 147.717Z" fill="white"/>
<path d="M200.434 145.075C200.29 145.171 200.194 145.315 200.29 145.507L200.963 147.332L201.636 147.092L200.915 145.363C200.771 145.075 200.579 145.027 200.434 145.075Z" fill="white"/>
<path d="M200.099 144.88C200.338 144.88 200.531 144.687 200.531 144.448C200.531 144.209 200.338 144.016 200.099 144.016C199.86 144.016 199.666 144.209 199.666 144.448C199.666 144.687 199.86 144.88 200.099 144.88Z" fill="white"/>
<path d="M194.762 131.291C194.618 131.387 194.426 131.435 194.33 131.627L193.897 130.57L193.32 130.81L194.137 132.876C194.378 133.452 195.051 133.692 195.627 133.452C196.204 133.212 196.541 132.539 196.3 131.963C196.06 131.387 195.339 131.051 194.762 131.291ZM195.387 132.876C195.147 132.972 194.81 132.876 194.714 132.635C194.618 132.395 194.714 132.059 194.954 131.963C195.195 131.867 195.531 131.963 195.627 132.203C195.82 132.443 195.675 132.683 195.387 132.876Z" fill="white"/>
<path d="M197.311 137.632C196.734 137.872 196.494 138.544 196.638 139.12L197.07 140.177L197.647 139.937L197.215 138.88C197.119 138.64 197.215 138.304 197.455 138.208C197.695 138.112 198.032 138.208 198.128 138.448L198.561 139.505L199.137 139.264L198.705 138.208C198.513 137.631 197.888 137.391 197.311 137.632Z" fill="white"/>
<path d="M196.253 134.989C196.109 135.085 196.013 135.229 196.109 135.421L196.782 137.246L197.455 137.006L196.734 135.277C196.638 134.989 196.398 134.893 196.253 134.989Z" fill="white"/>
<path d="M195.965 134.747C196.204 134.747 196.398 134.554 196.398 134.315C196.398 134.076 196.204 133.883 195.965 133.883C195.726 133.883 195.533 134.076 195.533 134.315C195.533 134.554 195.726 134.747 195.965 134.747Z" fill="white"/>
</g>
<path d="M168.998 165.102V169.856L172.796 168.223L172.363 167.647C172.219 167.407 172.123 167.071 172.123 166.734L172.219 165.438L168.998 165.102Z" fill="#FFD2C1"/>
<path d="M138.041 151.078C136.888 152.231 135.061 152.951 133.09 153.527C134.1 154.68 134.917 155.737 136.119 156.217C137.272 155.545 138.474 154.536 139.483 153.479L138.041 151.078Z" fill="#FFD2C1"/>
<path d="M135.734 152.998C136.215 153.719 134.196 154.871 134.869 155.399C135.061 155.544 135.494 155.832 135.878 155.736C136.359 155.592 136.359 155.736 136.744 155.592C137.08 155.496 137.705 155.303 137.609 155.544C137.513 156.264 136.648 157.801 137.32 159.77L137.945 161.979C137.993 162.075 138.09 162.411 138.09 162.556C138.811 164.669 137.849 165.485 136.599 166.302C136.359 166.446 136.023 166.398 135.878 166.158L131.696 159.098L129.437 155.447C129.341 155.303 129.341 154.967 129.533 154.775C130.35 154.055 133.235 152.326 134.484 152.422C135.061 152.47 135.542 152.758 135.734 152.998Z" fill="#101011"/>
<path d="M137.369 160.011C137.417 160.155 137.033 159.05 137.033 158.234C137.033 157.417 136.648 157.513 136.36 157.609C135.927 157.753 135.639 158.762 135.879 159.386C136.119 160.059 136.552 161.115 137.417 160.539C137.561 160.443 137.465 160.203 137.369 160.011Z" fill="#C6C6C6"/>
<path d="M169.094 94.9345L171.064 98.4886C171.305 98.9688 171.737 99.4971 172.122 99.7853L181.063 106.509C181.976 107.181 182.553 108.046 183.13 109.151C183.274 109.487 183.37 109.823 183.37 110.159C183.37 110.639 183.226 111.072 182.889 111.696C182.457 112.416 182.313 112.512 181.015 112.176C180.919 112.32 181.688 111.504 181.832 110.928C182.072 110.255 181.688 109.103 181.159 108.622C180.101 107.71 179.044 106.893 177.938 106.317C177.698 106.173 177.361 106.077 177.121 105.981C175.295 105.645 173.516 105.068 171.689 104.252C171.353 104.108 171.016 103.916 170.776 103.579C168.805 101.754 167.219 99.6412 165.344 96.8556L168.949 94.4062L169.094 94.9345Z" fill="#E5C6B1"/>
<path d="M169.094 94.983L171.21 99.0653C171.45 99.5456 171.883 100.074 172.267 100.362L181.208 107.086C182.121 107.758 182.746 108.719 183.275 109.775C183.419 110.112 183.515 110.592 183.419 111.024C183.371 111.168 183.371 111.216 183.323 111.36C183.179 112.033 182.746 112.513 182.169 112.753C181.256 113.185 180.295 113.089 179.958 112.513C180.439 112.753 180.871 112.273 181.112 111.792C181.352 111.36 181.544 110.88 181.544 110.4C181.544 109.968 181.544 109.487 181.208 109.343C180.054 108.623 179.093 107.614 177.987 107.038C177.747 106.894 177.507 106.798 177.17 106.702C175.343 106.365 173.565 105.789 171.738 104.973C171.402 104.829 171.065 104.636 170.825 104.396C168.854 102.571 166.883 100.026 165.153 97.1923L168.95 94.5508L169.094 94.983Z" fill="#F4D2BA"/>
<path d="M169.431 72.2656C169.431 72.2656 171.065 74.667 170.584 76.2038C170.488 76.444 170.44 76.6361 170.44 76.7802C170.2 77.6927 170.584 77.6927 171.113 78.173C171.546 78.6052 171.113 78.8934 170.873 79.0855C170.729 79.1815 170.632 79.3256 170.632 79.5657C170.632 79.7098 170.632 79.998 170.632 79.998C170.632 80.094 170.969 80.5743 170.2 80.5743C169.479 80.5743 168.662 80.1421 168.662 80.1421C168.517 80.094 170.056 80.5743 170.392 80.7184C170.392 80.7184 170.632 80.8625 170.536 81.0546C170.44 81.1987 170.296 81.3908 170.2 81.5349C170.104 81.6789 170.056 82.3513 169.863 82.5915C169.719 82.8316 168.133 83.1678 167.219 82.8316C166.547 82.5915 165.585 82.2553 165.153 82.1592C165.008 82.1592 164.816 81.727 164.72 81.6789C164.576 81.5349 164.047 81.3427 163.662 81.0065C162.941 80.4302 163.566 80.1901 163.662 79.8539C163.759 79.5177 163.903 78.9414 163.807 78.7012C163.71 78.5572 163.086 77.6447 162.989 77.3085C162.845 76.7322 163.23 75.8196 163.566 75.5795C163.903 75.2433 164.383 75.1472 164.72 75.4354C164.96 75.6755 165.537 76.1078 165.729 75.7716C165.874 75.4354 167.7 72.986 168.037 72.7939C168.373 72.6498 169.431 72.2656 169.431 72.2656Z" fill="#F4D2BA"/>
<path fill-rule="evenodd" clip-rule="evenodd" d="M181.592 107.76L182.313 107.664L182.746 108.288L181.592 108.432L181.4 107.76H181.592Z" fill="#1A1A1A"/>
<path d="M168.951 166.832C169.816 166.784 169.768 169.089 170.585 168.801C170.825 168.705 171.258 168.513 171.402 168.129C171.498 167.6 171.643 167.696 171.739 167.312C171.787 166.976 171.979 166.352 172.123 166.544C172.7 166.976 173.613 168.513 175.632 168.945L177.892 169.521C177.988 169.521 178.324 169.618 178.468 169.666C180.68 170.146 180.872 171.347 180.968 172.835C180.968 173.124 180.728 173.364 180.439 173.412H172.219L167.941 173.556C167.749 173.556 167.461 173.364 167.413 173.172C167.172 172.067 167.172 168.753 167.893 167.744C168.134 167.12 168.614 166.832 168.951 166.832Z" fill="#101011"/>
<path d="M175.825 168.944C175.969 168.992 174.815 168.752 174.142 168.32C173.469 167.887 173.325 168.32 173.277 168.608C173.181 169.04 173.95 169.808 174.575 169.953C175.296 170.097 176.401 170.241 176.305 169.184C176.305 168.992 176.065 168.992 175.825 168.944Z" fill="#C6C6C6"/>
<path fill-rule="evenodd" clip-rule="evenodd" d="M195.051 122.695C194.763 122.599 194.138 122.839 194.138 122.839L195.484 126.345L196.012 126.152C196.012 126.152 195.964 123.031 195.051 122.695Z" fill="#1A1A1A"/>
<path d="M171.066 98.441C171.066 98.441 169.287 94.6949 169.047 93.7344C168.854 92.7738 167.989 88.5955 167.605 88.0672C167.268 87.5389 167.124 87.3948 167.124 87.3948C167.124 87.3948 166.163 87.2987 165.345 87.1547C164.576 86.9625 162.798 86.7704 162.557 86.6744C162.317 86.5783 161.163 89.2678 160.538 90.8047C159.481 93.3021 159.096 95.7515 159.144 96.568C159.241 97.5285 158.52 100.506 158.568 101.659C158.616 102.956 156.693 113.858 157.174 114.434C157.654 115.058 160.442 116.259 164.192 116.451C167.941 116.643 174.863 114.386 172.748 108.239C172.604 107.758 172.363 105.309 172.363 105.309C172.363 105.309 171.21 104.925 170.777 104.444C170.345 103.964 168.133 101.803 167.701 101.083C167.22 100.362 165.345 97.6726 165.249 97.4325C165.153 97.1923 168.902 94.5989 168.902 94.5989L168.999 94.935L170.248 97.1923L171.066 98.441Z" fill="#1A1A1A"/>
<path d="M169.047 94.4062L165.249 97.1918L165.297 97.48L166.018 98.3925L168.133 101.514L170.2 103.724L171.066 104.588L172.267 105.26L175.007 106.173L176.017 106.461L177.17 106.701C177.17 106.701 177.747 106.797 178.18 107.133C178.661 107.47 179.526 108.094 179.526 108.094C179.526 108.094 179.382 107.326 179.862 107.278C180.343 107.278 180.487 106.893 180.487 106.797C180.487 106.701 180.391 106.509 180.391 106.509L179.382 105.741L178.324 104.972L177.363 104.252L176.257 103.435L174.238 101.946L172.988 101.034L172.027 100.314C172.027 100.314 171.354 99.5932 171.21 99.257C171.066 98.9208 170.297 97.432 170.297 97.432L169.287 95.4628L169.047 94.4062Z" fill="#1A1A1A"/>
<path d="M169.383 95.56L169.239 95.1758C169.431 95.3679 170.056 96.5205 170.585 97.385L171.258 98.7778L171.546 99.1621L171.979 99.5943L172.988 100.363L174.19 101.275L175.68 102.38L176.882 103.292L177.843 104.013L178.901 104.829L180.295 105.838L181.256 106.558C181.256 106.558 180.968 106.414 180.823 106.51C180.679 106.606 180.439 106.51 180.439 106.51L178.804 105.31L176.497 103.581L174.574 102.14L173.229 101.179L172.027 100.219C172.027 100.219 171.21 99.2581 171.162 99.114C171.113 98.97 169.383 95.56 169.383 95.56Z" fill="#2D2D2D"/>
<path d="M167.749 86.5276C167.845 86.9118 168.182 88.0645 167.653 88.3046C167.365 88.4487 166.884 88.9769 165.826 88.6888C164.769 88.4486 164.336 87.9684 162.846 88.4006C161.308 88.8809 160.202 92.3388 160.106 92.579C159.914 93.1073 159.529 94.9803 159.529 95.3646C159.529 95.9889 158.904 101.272 158.808 101.368C158.808 101.368 155.059 102.569 155.395 97.6218C155.54 95.3645 156.789 91.9066 158.568 89.8895C159.241 89.121 159.577 88.1125 160.298 87.3441C160.923 86.6717 161.74 85.8552 162.269 85.423C163.615 84.3664 163.279 85.9993 165.49 85.9513C167.701 85.9032 167.749 86.5276 167.749 86.5276Z" fill="#A8938A"/>
<path d="M169.719 72.6975C169.719 72.6975 167.604 73.5139 166.355 75.5311C165.105 77.5482 164.624 79.4693 164.528 80.0937C164.432 80.718 164.528 81.5345 165.057 81.9187C165.393 82.1588 166.21 82.543 166.739 82.7351C167.076 82.8312 167.412 82.9272 167.749 82.9753C167.989 83.0233 168.229 83.0233 168.325 83.0233C168.518 83.0233 167.316 84.7043 167.604 85.1846C167.7 85.3767 168.566 88.6905 167.652 88.4984C167.172 88.4023 163.278 87.778 162.317 88.5945C161.644 89.1708 161.596 86.5293 161.932 85.905C162.269 85.2806 163.374 83.9839 163.182 83.0713C162.99 82.2549 162.942 81.7266 162.221 81.5345C161.451 81.3424 159.336 80.766 158.808 79.6614C158.279 78.5568 157.942 73.8021 161.403 70.6323C161.403 70.6323 163.086 69.0954 165.585 69.4796C168.085 69.8639 169.575 72.2172 169.575 72.2172C169.575 72.3613 169.719 72.5534 169.719 72.6975Z" fill="#A8938A"/>
</g>
<defs>
<clipPath id="clip0_22158_459978">
<rect width="343" height="295" rx="16" fill="white"/>
</clipPath>
</defs>
</svg>
