<svg width="343" height="295" viewBox="0 0 343 295" fill="none" xmlns="http://www.w3.org/2000/svg">
<g clip-path="url(#clip0_21671_117448)">
<path d="M307.651 233.807C306.035 221.406 297.208 223.679 289.026 203.241C287.242 198.795 280.93 202.387 276.798 203.335C254.853 208.352 246.274 218.191 244.006 231.541C243.845 232.489 243.845 233.532 244.576 233.626C255.509 235.233 282.875 234.386 307.657 233.814L307.651 233.807Z" fill="#C4EDEE"/>
<path d="M295.712 210.606C295.712 210.606 296.378 209.845 295.712 203.883C295.045 197.82 297.986 192.423 297.986 192.423C297.986 192.423 296.755 205.115 296.849 206.629C296.849 208.143 295.712 210.606 295.712 210.606Z" fill="#0B9D99"/>
<path d="M297.415 216.857C297.415 216.857 297.32 216.097 293.626 213.163C289.932 210.229 288.512 205.774 288.512 205.774C288.512 205.774 294.952 213.351 295.806 214.105C296.661 214.865 297.415 216.85 297.415 216.85V216.857Z" fill="#0B9D99"/>
<path d="M297.797 224.34C297.797 224.34 298.362 223.869 298.174 219.132C298.08 214.394 300.637 210.417 300.637 210.417C300.637 210.417 298.934 220.168 298.84 221.305C298.746 222.443 297.797 224.334 297.797 224.334V224.34Z" fill="#0B9D99"/>
<path d="M297.131 229.643C297.131 229.643 296.465 229.266 295.711 224.623C294.951 219.98 291.734 216.575 291.734 216.575C291.734 216.575 295.24 225.854 295.523 226.991C295.711 228.035 297.131 229.643 297.131 229.643Z" fill="#0B9D99"/>
<path d="M295.147 234.091C295.147 234.091 301.021 217.14 292.401 203.977C283.781 190.815 290.887 196.495 292.401 198.957C294.104 201.797 300.073 218.371 297.987 229.831C297.987 229.831 297.32 233.62 297.038 234.091C296.755 234.468 295.147 234.091 295.147 234.091Z" fill="#0B9D99"/>
<path d="M306.74 196.406C306.74 196.406 305.979 195.552 306.74 188.075C307.5 180.593 303.994 174.058 303.994 174.058C303.994 174.058 305.508 189.684 305.414 191.575C305.32 193.466 306.74 196.406 306.74 196.406Z" fill="#0B9D99"/>
<path d="M304.654 204.078C304.654 204.078 304.749 203.129 309.297 199.63C313.84 196.03 315.643 190.444 315.643 190.444C315.643 190.444 307.783 199.724 306.74 200.673C305.603 201.622 304.654 204.084 304.654 204.084V204.078Z" fill="#0B9D99"/>
<path d="M304.183 213.263C304.183 213.263 303.517 212.597 303.712 206.823C303.9 201.05 300.684 196.124 300.684 196.124C300.684 196.124 302.864 208.149 302.864 209.569C302.864 210.989 304.19 213.263 304.19 213.263H304.183Z" fill="#0B9D99"/>
<path d="M304.748 223.303C304.748 223.303 305.414 222.738 305.697 216.957C305.98 211.184 309.391 206.446 309.391 206.446C309.391 206.446 306.551 218.283 306.363 219.703C306.08 221.029 304.755 223.303 304.755 223.303H304.748Z" fill="#0B9D99"/>
<path d="M307.211 234.568C307.211 234.568 300.112 204.36 310.811 188.163C321.416 171.972 312.608 178.883 310.811 182.006C308.725 185.512 301.437 205.962 303.994 219.979C303.994 219.979 304.661 233.996 304.943 234.561C305.226 235.126 307.218 234.561 307.218 234.561L307.211 234.568Z" fill="#0B9D99"/>
<path d="M171.5 254.915C264.008 254.915 339 247.994 339 239.457C339 230.921 264.008 224 171.5 224C78.9923 224 4 230.921 4 239.457C4 247.994 78.9923 254.915 171.5 254.915Z" fill="#F3F3F3"/>
<path d="M257.602 238.419H194.766V240.846H257.602V238.419Z" fill="#F2F2F2"/>
<path d="M156.906 238.244H94.0703V240.671H156.906V238.244Z" fill="#F2F2F2"/>
<path d="M216.332 105.647H161V227.336H216.332V105.647Z" fill="#E9E9E9"/>
<path d="M183.794 126.051H170.927C170.379 126.051 169.83 125.502 169.83 124.954V115.026C169.83 114.478 170.379 113.929 170.927 113.929H183.794C184.342 113.929 184.891 114.478 184.891 115.026V124.954C184.891 125.502 184.342 126.051 183.794 126.051Z" fill="white"/>
<path d="M204.745 126.051H191.878C191.33 126.051 190.781 125.502 190.781 124.954V115.026C190.781 114.478 191.33 113.929 191.878 113.929H204.745C205.294 113.929 205.842 114.478 205.842 115.026V124.954C205.842 125.502 205.294 126.051 204.745 126.051Z" fill="white"/>
<path d="M183.794 143.136H170.927C170.379 143.136 169.83 142.588 169.83 142.039V132.112C169.83 131.563 170.379 131.014 170.927 131.014H183.794C184.342 131.014 184.891 131.563 184.891 132.112V142.039C184.891 142.588 184.342 143.136 183.794 143.136Z" fill="white"/>
<path d="M204.745 143.136H191.878C191.33 143.136 190.781 142.588 190.781 142.039V132.112C190.781 131.563 191.33 131.014 191.878 131.014H204.745C205.294 131.014 205.842 131.563 205.842 132.112V142.039C205.842 142.588 205.294 143.136 204.745 143.136Z" fill="white"/>
<path d="M184.159 160.418H171.293C170.744 160.418 170.195 159.869 170.195 159.32V149.393C170.195 148.844 170.744 148.296 171.293 148.296H184.159C184.708 148.296 185.256 148.844 185.256 149.393V159.32C185.256 160.052 184.89 160.418 184.159 160.418Z" fill="white"/>
<path d="M205.112 160.418H192.246C191.697 160.418 191.148 159.869 191.148 159.32V149.393C191.148 148.844 191.697 148.296 192.246 148.296H205.112C205.661 148.296 206.209 148.844 206.209 149.393V159.32C206.209 160.052 205.844 160.418 205.112 160.418Z" fill="white"/>
<path d="M184.708 178.809H171.841C171.293 178.809 170.744 178.261 170.744 177.712V167.785C170.744 167.236 171.293 166.688 171.841 166.688H184.708C185.256 166.688 185.805 167.236 185.805 167.785V177.712C185.805 178.261 185.256 178.809 184.708 178.809Z" fill="white"/>
<path d="M205.661 178.809H192.794C192.246 178.809 191.697 178.261 191.697 177.712V167.785C191.697 167.236 192.246 166.688 192.794 166.688H205.661C206.21 166.688 206.758 167.236 206.758 167.785V177.712C206.758 178.261 206.21 178.809 205.661 178.809Z" fill="white"/>
<path d="M184.708 195.712H171.841C171.293 195.712 170.744 195.164 170.744 194.615V184.688C170.744 184.139 171.293 183.59 171.841 183.59H184.708C185.256 183.59 185.805 184.139 185.805 184.688V194.615C185.805 195.164 185.256 195.712 184.708 195.712Z" fill="white"/>
<path d="M205.661 195.712H192.794C192.246 195.712 191.697 195.164 191.697 194.615V184.688C191.697 184.139 192.246 183.59 192.794 183.59H205.661C206.21 183.59 206.758 184.139 206.758 184.688V194.615C206.758 195.164 206.21 195.712 205.661 195.712Z" fill="white"/>
<path d="M197.574 202.335H177.719V227.519H197.574V202.335Z" fill="white"/>
<path d="M161 105.647L186.733 88L216.332 105.647H161Z" fill="#BBBCBC"/>
<path d="M290.442 66.7081H216V230.68H290.442V66.7081Z" fill="#E9E9E9"/>
<path d="M247.244 94.2828H229.048C228.5 94.2828 227.951 93.7342 227.951 93.1855V79.0259C227.951 78.4773 228.5 77.9287 229.048 77.9287H247.244C247.793 77.9287 248.342 78.4773 248.342 79.0259V93.1855C248.342 93.7342 247.793 94.2828 247.244 94.2828Z" fill="white"/>
<path d="M275.381 94.2828H257.185C256.637 94.2828 256.088 93.7342 256.088 93.1855V79.0259C256.088 78.4773 256.637 77.9287 257.185 77.9287H275.381C275.93 77.9287 276.478 78.4773 276.478 79.0259V93.1855C276.478 93.7342 275.93 94.2828 275.381 94.2828Z" fill="white"/>
<path d="M247.244 117.26H229.048C228.5 117.26 227.951 116.711 227.951 116.162V102.003C227.951 101.454 228.5 100.906 229.048 100.906H247.244C247.793 100.906 248.342 101.454 248.342 102.003V116.162C248.342 116.711 247.793 117.26 247.244 117.26Z" fill="white"/>
<path d="M275.381 117.26H257.185C256.637 117.26 256.088 116.711 256.088 116.162V102.003C256.088 101.454 256.637 100.906 257.185 100.906H275.381C275.93 100.906 276.478 101.454 276.478 102.003V116.162C276.478 116.711 275.93 117.26 275.381 117.26Z" fill="white"/>
<path d="M247.807 140.615H229.611C229.062 140.615 228.514 140.066 228.514 139.518V125.358C228.514 124.809 229.062 124.261 229.611 124.261H247.807C248.355 124.261 248.904 124.809 248.904 125.358V139.518C248.904 140.249 248.355 140.615 247.807 140.615Z" fill="white"/>
<path d="M275.93 140.615H257.734C257.185 140.615 256.637 140.066 256.637 139.518V125.358C256.637 124.809 257.185 124.261 257.734 124.261H275.93C276.478 124.261 277.027 124.809 277.027 125.358V139.518C277.027 140.249 276.661 140.615 275.93 140.615Z" fill="white"/>
<path d="M248.356 165.238H230.16C229.611 165.238 229.062 164.689 229.062 164.14V149.981C229.062 149.432 229.611 148.884 230.16 148.884H248.356C248.904 148.884 249.453 149.432 249.453 149.981V164.14C249.453 164.689 249.087 165.238 248.356 165.238Z" fill="white"/>
<path d="M276.662 165.238H258.466C257.918 165.238 257.369 164.689 257.369 164.14V149.981C257.369 149.432 257.918 148.884 258.466 148.884H276.662C277.211 148.884 277.76 149.432 277.76 149.981V164.14C277.76 164.689 277.211 165.238 276.662 165.238Z" fill="white"/>
<path d="M248.356 188.031H230.16C229.611 188.031 229.062 187.483 229.062 186.934V172.775C229.062 172.226 229.611 171.677 230.16 171.677H248.356C248.904 171.677 249.453 172.226 249.453 172.775V186.934C249.453 187.666 249.087 188.031 248.356 188.031Z" fill="white"/>
<path d="M276.662 188.031H258.466C257.918 188.031 257.369 187.483 257.369 186.934V172.775C257.369 172.226 257.918 171.677 258.466 171.677H276.662C277.211 171.677 277.76 172.226 277.76 172.775V186.934C277.76 187.666 277.211 188.031 276.662 188.031Z" fill="white"/>
<path d="M216 66.7082L250.929 43L290.638 66.7082H216Z" fill="#BBBCBC"/>
<g clip-path="url(#clip1_21671_117448)">
<path d="M156.483 188.945L157.042 188.707C159.065 187.843 161.4 188.837 162.186 190.897L168.745 208.095C168.876 208.436 169.053 208.755 169.272 209.048C170.535 210.729 175.068 216.153 179.469 213.945C184.329 211.506 192.839 191.8 192.113 193.389C192.113 193.389 200.409 177.936 200.49 177.819C202.111 175.514 204.512 181.477 205.902 184.045L205.788 184.066C206.443 185.279 204.787 186.658 204.076 187.837L191.883 208.886C191.762 209.087 190.614 211.114 190.492 211.317C189.376 213.197 186.906 220.079 181.35 221.611C175.163 223.316 169.049 223.329 167.545 222.984C166.04 222.639 164.034 223.051 162.979 219.299C162.167 216.411 156.778 200.819 154.342 193.798C153.671 191.867 154.608 189.745 156.485 188.943L156.483 188.945Z" fill="#81B928"/>
<path d="M160.022 186.588L161.825 186.083L170.068 205.812C170.523 206.987 171.18 208.08 172.035 209.006C173.203 210.27 174.896 211.415 176.644 210.261C179.822 208.16 184.958 193.807 184.958 193.807C184.958 193.807 187.16 188.529 187.768 188.456C188.376 188.384 189.139 188.408 190.656 188.678C192.174 188.948 193.447 186.609 193.638 186.245C193.828 185.881 196.014 183.017 195.817 181.749C195.62 180.481 196.392 180.76 196.751 180.85C197.11 180.94 199.013 181.585 197.678 179.747C196.343 177.908 200.13 175.734 200.13 175.734L201.327 177.969L201.511 178.567L201.721 178.998L199.6 182.331L192.181 194.864L183.324 211.241C183.324 211.241 178.411 218.457 170.791 211.504C170.791 211.504 168.021 208.614 166.378 203.215C164.736 197.817 160.022 186.59 160.022 186.59L160.022 186.588Z" fill="#76A321"/>
<path d="M235.512 194.985L227.14 212.566L228.077 212.951L236.633 195.419L235.592 194.845L235.512 194.985Z" fill="black"/>
<path d="M234.371 194.329L226.187 211.461L225.216 210.944L233.518 193.923L234.371 194.329Z" fill="black"/>
<path d="M209.589 186.109C210.057 186.891 222.987 211.75 222.987 211.75L220.172 213.582L197.735 176.26L202.637 172.645L209.589 186.109Z" fill="#81B928"/>
<path d="M204.829 176.975L209.214 185.552C209.214 185.552 212.453 185.408 216.779 183.807C221.104 182.205 220.658 177.583 220.231 174.834C219.804 172.085 219.415 171.57 219.415 171.57L204.029 175.393L204.829 176.975Z" fill="#202321"/>
<path d="M205.054 175.909L205.885 177.248L218.751 174.384C218.751 174.384 219.67 173.739 218.962 172.324L205.054 175.909Z" fill="black"/>
<path d="M227.434 245.487C212.077 246.674 198.595 234.866 197.381 219.163C196.167 203.459 207.674 189.719 223.032 188.532C238.39 187.345 251.872 199.154 253.086 214.857C254.299 230.56 242.792 244.3 227.434 245.487ZM223.421 193.57C210.834 194.543 201.405 205.849 202.405 218.774C203.404 231.7 214.457 241.423 227.045 240.45C239.633 239.477 249.061 228.171 248.062 215.245C247.063 202.32 236.009 192.597 223.421 193.57Z" fill="black"/>
<path d="M207.537 231.516L220.453 220.163L219.75 219.43L206.69 230.66L207.407 231.611L207.537 231.516Z" fill="black"/>
<path d="M207.824 232.786L221.953 220.279L222.701 221.269L208.503 233.608L207.824 232.786Z" fill="black"/>
<path d="M209.371 198.566L220.945 214.225L221.723 213.574L210.279 197.777L209.286 198.429L209.371 198.566Z" fill="black"/>
<path d="M208.259 199.271L219.526 214.551L218.616 215.17L207.502 199.836L208.259 199.271Z" fill="black"/>
<path d="M248.7 215.963L228.455 217.047L228.569 218.055L248.857 217.157L248.86 215.965L248.7 215.963Z" fill="black"/>
<path d="M248.724 214.644L228.19 215.797L228.175 214.694L248.668 213.698L248.724 214.644Z" fill="black"/>
<path d="M234.279 239.928L226.153 220.745L225.18 221.278L233.135 240.582L234.341 240.094L234.279 239.928Z" fill="black"/>
<path d="M235.746 238.811L227.032 219.872L228.163 219.397L236.698 238.357L235.746 238.811Z" fill="black"/>
<path d="M218.77 217.864L196.946 211.106L197.569 208.604L219.038 215.4L218.77 217.864Z" fill="black"/>
<path d="M197.088 212.939C197.088 212.939 196.656 207.789 200.363 202.118C204.071 196.447 206.245 192.941 214.748 189.558C223.251 186.175 231.011 188.982 231.011 188.982L233.873 188.216C233.873 188.216 230.35 186.58 225.797 186.592C221.245 186.604 210.355 187.241 203.564 195.192C196.773 203.143 196.498 206.641 196.161 207.552C195.824 208.463 194.984 213.435 194.984 213.435L194.605 215.557" fill="black"/>
<path d="M224.439 221.603C227.512 221.366 229.816 218.762 229.586 215.788C229.357 212.814 226.679 210.596 223.607 210.833C220.534 211.071 218.229 213.674 218.459 216.648C218.689 219.622 221.366 221.841 224.439 221.603Z" fill="black"/>
<path d="M113.816 188.095L114.138 192.26C114.138 192.26 122.881 192.198 127.494 195.622C132.106 199.047 135.18 203.672 135.803 211.231L157.112 209.141L160.301 208.818C160.301 208.818 157.106 191.815 140.716 185.464C140.716 185.464 134.94 183.304 127.073 184.596C120.919 185.607 113.751 187.28 113.751 187.28L113.814 188.093L113.816 188.095Z" fill="black"/>
<path d="M162.4 223.436C161.971 223.469 161.533 223.452 161.098 223.383L134.962 219.227C132.69 218.867 131.116 217.197 131.215 215.26L131.231 214.949C131.338 212.883 133.356 211.252 135.827 211.235C135.984 211.234 136.14 211.24 136.294 211.251L162.398 213.275C164.773 213.459 166.573 215.104 166.586 217.102L166.604 219.542C166.611 220.569 166.148 221.537 165.3 222.269C164.517 222.943 163.487 223.348 162.398 223.432L162.4 223.436ZM135.566 212.871C134.1 212.985 132.907 213.915 132.849 215.034L132.833 215.345C132.777 216.419 133.801 217.399 135.215 217.624L161.351 221.779C162.429 221.951 163.512 221.674 164.247 221.042C164.727 220.626 164.992 220.099 164.988 219.558L164.971 217.118C164.963 215.991 163.779 215.016 162.276 214.899L136.173 212.875C136.064 212.867 135.952 212.863 135.84 212.863C135.748 212.863 135.656 212.868 135.566 212.875L135.566 212.871Z" fill="black"/>
<path d="M135.208 213.628L158.658 215.495L157.808 220.33L133.785 217.214L135.208 213.628Z" fill="#81B928"/>
<path d="M135.241 243.115C119.883 244.302 106.401 232.494 105.188 216.791C103.974 201.087 115.481 187.347 130.839 186.16C146.196 184.973 159.678 196.781 160.892 212.485C162.106 228.188 150.599 241.928 135.241 243.115ZM131.228 191.198C118.64 192.171 109.212 203.477 110.211 216.402C111.21 229.328 122.264 239.05 134.852 238.077C147.439 237.104 156.868 225.798 155.869 212.873C154.869 199.948 143.816 190.225 131.228 191.198Z" fill="black"/>
<path d="M116.274 230.567L128.703 216.261L127.82 215.58L115.213 229.78L116.147 230.691L116.274 230.567Z" fill="black"/>
<path d="M117.29 231.594L129.762 217.653L130.987 217.629L118.075 232.272L117.29 231.594Z" fill="black"/>
<path d="M121.049 193.311L130.41 210.394L131.267 209.853L122.056 192.654L120.982 193.166L121.049 193.311Z" fill="black"/>
<path d="M119.852 193.86L128.96 210.524L127.975 211.015L119.026 194.318L119.852 193.86Z" fill="black"/>
<path d="M145.436 233.399L134.669 217.857L133.885 218.5L144.981 234.826L145.98 234.182L145.436 233.399Z" fill="black"/>
<path d="M147.3 233.246L135.245 216.885L136.159 216.275L147.932 232.63L147.3 233.246Z" fill="black"/>
<path d="M126.578 215.492L104.753 208.732L105.375 206.231L126.846 213.028L126.578 215.492Z" fill="black"/>
<path d="M104.894 210.567C104.894 210.567 104.461 205.417 108.169 199.746C111.876 194.075 114.051 190.569 122.554 187.186C131.057 183.803 138.816 186.61 138.816 186.61L141.679 185.843C141.679 185.843 138.156 184.208 133.603 184.22C129.05 184.231 118.213 184.551 111.421 192.503C104.628 200.454 104.388 204.018 103.969 205.182C103.639 206.096 102.792 211.064 102.792 211.064L102.412 213.186" fill="black"/>
<path d="M132.246 219.231C135.318 218.994 137.623 216.39 137.393 213.416C137.163 210.442 134.486 208.224 131.413 208.461C128.341 208.699 126.036 211.302 126.266 214.276C126.496 217.25 129.173 219.469 132.246 219.231Z" fill="black"/>
<path d="M165.009 227.326C169.738 226.961 173.284 222.954 172.93 218.376C172.576 213.798 168.456 210.383 163.728 210.749C158.999 211.114 155.453 215.122 155.807 219.699C156.161 224.277 160.281 227.692 165.009 227.326Z" fill="black"/>
<path d="M154.147 192.746L151.569 184.449C151.569 184.449 152.888 183.875 154.205 183.777C155.522 183.678 158.397 183.474 158.894 183.472C159.39 183.47 160.37 183.331 160.764 183.966C161.158 184.602 162.953 188.966 162.953 188.966L154.145 192.748L154.147 192.746Z" fill="black"/>
<path d="M163.018 188.938C163.018 188.938 161.173 183.855 160.265 183.551C159.357 183.246 153.46 183.872 153.46 183.872C153.46 183.872 158.939 184.057 160.122 186.378L161.453 189.609L163.017 188.938L163.018 188.938Z" fill="#0F1611"/>
<path d="M152.755 184.059L150.045 176.578L152.587 176.381L155.084 183.879L152.755 184.059Z" fill="#0F1611"/>
<path d="M140.78 172.163C140.78 172.163 142.677 176.955 142.937 177.075C143.198 177.194 162.145 175.579 162.145 175.579C162.145 175.579 164.365 173.551 161.194 173.135C158.023 172.719 140.861 171.465 140.861 171.465L140.467 171.427L140.78 172.161L140.78 172.163Z" fill="#0F1611"/>
<path d="M167.596 225.961C167.596 225.961 169.463 234.501 169.689 235.556C169.915 236.612 167.715 243.566 167.715 243.566C167.715 243.566 168.324 243.566 169.689 243.566C170.15 243.262 171.672 235.556 171.672 235.556L169.82 224.289L167.598 225.961L167.596 225.961Z" fill="#0F1611"/>
<path d="M165.673 230.158L158.142 230.74C157.855 230.763 157.641 231.013 157.663 231.3L157.799 233.058C157.821 233.345 158.071 233.56 158.358 233.538L165.89 232.956C166.176 232.934 166.39 232.683 166.368 232.396L166.232 230.638C166.21 230.351 165.96 230.136 165.673 230.158Z" fill="#0F1611"/>
<path d="M164.05 227.583L161.752 230.461L164.257 230.268L166.299 227.41L164.05 227.583Z" fill="#0F1611"/>
<path d="M197.733 176.258L194.286 168.758C194.286 168.758 194.501 164.517 195.997 162.765C197.494 161.013 196.961 161.601 196.216 160.976C195.761 160.595 194.853 159.866 194.216 159.357C193.754 158.988 193.376 158.526 193.106 157.999L192.878 157.555C192.878 157.555 192.473 156.701 190.8 157.035C189.128 157.369 186.836 157.868 186.836 157.868C186.836 157.868 188.176 155.497 186.732 155.375C184.913 155.22 192.925 152.853 192.925 152.853L196.206 154.865C196.206 154.865 196.252 153.43 197.112 153.363C197.971 153.297 200.61 154.472 202.656 155.235C204.703 155.998 205.665 156.586 205.288 157.638C204.911 158.69 202.564 158.003 202.361 158.018C202.158 158.034 201.36 158.914 201.36 158.914C201.36 158.914 199.675 162.825 200.019 164.639C200.363 166.453 202.652 172.664 202.652 172.664L197.737 176.261L197.733 176.258Z" fill="#202321"/>
<path d="M186.373 157.987C187.139 157.928 187.712 157.257 187.653 156.489C187.593 155.721 186.924 155.146 186.158 155.206C185.392 155.265 184.82 155.935 184.879 156.704C184.938 157.472 185.607 158.046 186.373 157.987Z" fill="#202321"/>
<path d="M174.855 210.875C175.759 209.374 186.341 182.894 186.341 182.894C186.341 182.894 187.387 180.837 187.431 180.749C187.475 180.66 188.264 180.105 189.728 180.571C191.191 181.037 196.074 182.707 196.074 182.707L191.742 189.052C191.742 189.052 189.927 189.294 188.755 189.079C187.584 188.863 186.654 190.468 185.681 192.826C184.708 195.183 177.787 212.004 177.787 212.004" fill="black"/>
<ellipse opacity="0.5" cx="168.323" cy="243.566" rx="10.958" ry="1.21755" fill="url(#paint0_radial_21671_117448)"/>
</g>
<path fill-rule="evenodd" clip-rule="evenodd" d="M162.903 128.837C162.903 128.837 163.921 123.437 157.243 117.036C150.573 110.638 139.367 107.591 139.814 93.6978C140.26 79.8042 164.678 66.4439 173.181 82.9249C183.238 102.431 164.964 129.601 162.903 128.837Z" fill="#3DBCC8"/>
<path fill-rule="evenodd" clip-rule="evenodd" d="M151.268 88.3184V92.6285H155.655V88.3184H151.268ZM151.191 86.1633C150.044 86.1633 149.113 87.0937 149.113 88.2414V92.7054C149.113 93.8531 150.044 94.7835 151.191 94.7835H155.655C156.803 94.7835 157.733 93.8531 157.733 92.7054V88.2414C157.733 87.0937 156.803 86.1633 155.655 86.1633L151.191 86.1633Z" fill="white"/>
<path fill-rule="evenodd" clip-rule="evenodd" d="M159.85 97.9391C159.85 97.3653 160.315 96.9001 160.889 96.9001H164.353C164.926 96.9001 165.392 97.3653 165.392 97.9391C165.392 98.513 164.926 98.9782 164.353 98.9782H161.928V101.056C161.928 101.63 161.463 102.095 160.889 102.095C160.315 102.095 159.85 101.63 159.85 101.056V97.9391Z" fill="white"/>
<path fill-rule="evenodd" clip-rule="evenodd" d="M159.85 104.52C159.85 103.946 160.315 103.481 160.889 103.481H164.353C164.926 103.481 165.392 103.946 165.392 104.52C165.392 105.094 164.926 105.559 164.353 105.559H160.889C160.315 105.559 159.85 105.094 159.85 104.52Z" fill="white"/>
<path fill-rule="evenodd" clip-rule="evenodd" d="M167.47 100.017C168.044 100.017 168.509 100.482 168.509 101.056V104.52C168.509 105.094 168.044 105.559 167.47 105.559C166.896 105.559 166.431 105.094 166.431 104.52V102.095H164.353C163.779 102.095 163.314 101.63 163.314 101.056C163.314 100.482 163.779 100.017 164.353 100.017H167.47Z" fill="white"/>
<path d="M154.462 90.4349C154.462 91.0088 153.997 91.474 153.423 91.474C152.85 91.474 152.384 91.0088 152.384 90.4349C152.384 89.8611 152.85 89.3959 153.423 89.3959C153.997 89.3959 154.462 89.8611 154.462 90.4349Z" fill="white"/>
<path d="M168.509 97.9391C168.509 98.513 168.044 98.9782 167.47 98.9782C166.896 98.9782 166.431 98.513 166.431 97.9391C166.431 97.3653 166.896 96.9001 167.47 96.9001C168.044 96.9001 168.509 97.3653 168.509 97.9391Z" fill="white"/>
<path fill-rule="evenodd" clip-rule="evenodd" d="M162.044 88.3184V92.6285H166.431V88.3184H162.044ZM161.967 86.1633C160.819 86.1633 159.889 87.0937 159.889 88.2414V92.7054C159.889 93.8531 160.819 94.7835 161.967 94.7835H166.431C167.578 94.7835 168.509 93.8531 168.509 92.7054V88.2414C168.509 87.0937 167.578 86.1633 166.431 86.1633L161.967 86.1633Z" fill="white"/>
<path d="M165.238 90.4349C165.238 91.0088 164.772 91.474 164.199 91.474C163.625 91.474 163.16 91.0088 163.16 90.4349C163.16 89.8611 163.625 89.3959 164.199 89.3959C164.772 89.3959 165.238 89.8611 165.238 90.4349Z" fill="white"/>
<path fill-rule="evenodd" clip-rule="evenodd" d="M151.268 99.0936V103.404H155.655V99.0936H151.268ZM151.191 96.9386C150.044 96.9386 149.113 97.869 149.113 99.0167V103.481C149.113 104.628 150.044 105.559 151.191 105.559H155.655C156.803 105.559 157.733 104.628 157.733 103.481V99.0167C157.733 97.869 156.803 96.9386 155.655 96.9386H151.191Z" fill="white"/>
<path d="M154.462 101.21C154.462 101.784 153.997 102.249 153.423 102.249C152.85 102.249 152.384 101.784 152.384 101.21C152.384 100.636 152.85 100.171 153.423 100.171C153.997 100.171 154.462 100.636 154.462 101.21Z" fill="white"/>
<path d="M122.768 139.793C123.133 142.44 134.453 156.681 140.843 157.138C140.934 157.138 141.025 157.138 141.208 157.138C141.664 157.138 142.121 156.955 142.577 156.773C144.86 155.312 154.08 149.287 157.275 145.635L156.727 141.892C151.889 143.536 141.208 150.109 141.208 150.109C141.208 150.109 140.752 150.291 140.569 150.017C132.17 142.166 128.336 139.245 125.598 137.145L122.768 139.793Z" fill="#D7A887"/>
<path d="M106.792 234.735C107.249 235.921 106.427 240.303 106.336 241.673C107.249 242.951 109.531 241.946 109.805 240.577C109.805 240.394 109.988 240.395 109.988 240.029C109.714 239.208 110.261 236.013 110.9 234.278L106.792 234.735Z" fill="#F8AB90"/>
<path d="M120.941 236.652C121.306 237.839 120.21 240.76 120.119 242.221C120.941 243.59 123.314 242.677 123.679 241.308C123.679 241.125 123.862 241.125 123.862 240.76C123.497 239.847 124.318 237.291 125.14 235.648L120.941 236.652Z" fill="#F8AB90"/>
<path d="M120.759 168.55H129.34C133.631 181.513 134.909 196.21 132.353 210.817C132.17 211.912 131.896 213.008 131.531 214.103L128.61 236.743C126.419 237.656 120.029 237.017 117.838 236.469C120.759 228.07 122.402 220.676 123.041 212.551C123.315 211.273 123.315 208.626 123.315 208.626C124.319 196.028 121.398 171.745 120.759 168.55Z" fill="#74B79C"/>
<path d="M113.82 236.56C110.899 237.382 106.882 236.012 104.6 235.099L110.168 209.903C110.26 209.447 110.26 208.899 110.26 208.443L108.251 178.226C108.251 177.496 108.251 176.765 108.342 176.035C108.708 173.388 109.347 169.554 110.442 168.275H121.671C124.866 183.247 124.318 196.027 123.04 203.239C122.949 203.878 122.31 210.908 121.579 212.916L113.82 236.56Z" fill="#74B79C"/>
<path d="M129.339 168.732L110.259 169.006L110.168 168.184L129.247 168.093L129.339 168.732Z" fill="#20505A"/>
<path d="M115.009 118.615L121.581 119.254C119.664 122.266 118.204 124.914 120.395 127.013L114.096 126.466C116.287 125.005 115.921 121.445 115.009 118.615Z" fill="#ECBC97"/>
<path d="M121.583 106.2C121.583 106.2 124.048 109.212 123.5 111.403C123.409 111.768 123.409 112.042 123.317 112.225C123.043 113.503 123.043 113.412 124.413 114.051C125.143 114.416 124.504 115.055 124.139 115.329C123.956 115.511 123.865 115.694 123.865 115.968C123.865 116.241 123.956 116.515 123.956 116.515C123.956 116.607 124.23 117.337 123.5 117.337C119.848 117.428 122.861 117.337 123.682 117.611C123.682 117.611 124.048 117.793 123.956 117.976C123.865 118.159 123.591 118.432 123.5 118.706C123.409 118.98 123.409 119.802 123.226 120.167C123.043 120.532 120.944 121.171 119.666 120.806C118.662 120.532 117.383 120.258 116.836 120.167C116.653 120.167 116.288 119.711 116.197 119.528C115.923 119.345 115.193 119.163 114.645 118.798C113.549 118.067 114.462 117.702 114.554 117.246C114.645 116.789 114.827 115.968 114.645 115.694C114.462 115.42 113.549 114.324 113.367 113.868C113.093 113.138 113.549 111.86 113.914 111.403C114.28 110.947 115.01 110.764 115.466 111.129C115.832 111.403 116.288 111.403 116.471 111.038C116.744 110.582 119.118 107.478 119.574 107.204C120.031 106.93 121.583 106.2 121.583 106.2Z" fill="#ECBC97"/>
<path d="M123.863 108.117C123.771 108.482 123.589 108.756 123.406 109.03C123.132 109.486 122.676 109.851 122.128 110.034C120.485 110.673 119.116 111.312 117.564 111.22C116.925 111.129 116.377 111.494 116.103 112.133C115.92 112.681 115.555 113.046 115.19 113.411C114.551 114.05 114.369 115.055 114.642 115.876C115.099 117.063 116.925 121.354 116.468 122.358C117.472 130.848 108.709 140.616 101.04 134.043C97.3887 130.117 104.509 123.453 104.692 119.345C104.418 114.142 108.617 109.669 109.074 108.573C109.256 108.208 109.439 107.934 109.713 107.66C110.808 106.565 111.721 105.104 112.634 104.465C113.456 103.826 114.369 103.461 115.373 103.096C116.925 102.548 118.659 102.731 120.12 103.643C121.672 104.556 123.041 105.834 123.589 106.93C123.954 107.295 124.045 107.751 123.863 108.117Z" fill="#BC9D02"/>
<path d="M115.556 113.137C115.374 112.772 115.1 112.498 114.826 112.407C114.735 112.316 114.552 112.407 114.461 112.407C113.639 112.772 113.457 113.411 113.822 114.233C113.822 114.233 113.822 114.233 113.822 114.324C114.37 115.146 114.735 115.328 115.465 115.694L115.556 113.137Z" fill="#ECBC97"/>
<path d="M106.335 239.116C107.704 239.755 109.074 239.755 110.534 238.934C110.626 238.934 110.717 238.934 110.717 239.025C111.539 240.485 112.36 242.403 113.638 243.498C115.008 244.411 116.651 245.05 118.477 245.598C118.659 245.689 118.933 245.78 119.207 245.689C120.12 245.689 120.759 245.78 121.398 246.145C121.489 246.145 121.58 246.237 121.672 246.237C122.037 246.419 122.219 246.876 122.311 247.423C122.311 247.789 122.128 248.062 121.854 248.245C120.394 249.067 118.477 249.432 116.194 249.432L111.995 248.884L105.331 248.336L104.601 248.062C104.509 247.971 104.418 247.88 104.418 247.789C104.418 246.693 104.601 245.506 105.057 244.32C105.148 243.954 105.422 243.498 105.605 243.133C106.152 242.129 106.335 240.851 106.244 239.39C106.152 239.116 106.244 239.025 106.335 239.116Z" fill="#BFBAB8"/>
<path d="M104.42 246.237C104.237 246.237 104.146 247.515 104.237 247.789C104.328 248.154 105.606 248.337 105.88 248.337C106.884 248.519 108.071 248.519 109.167 248.611L112.909 248.976C114.005 249.158 115.192 249.341 116.47 249.341C117.474 249.341 118.478 249.25 119.482 248.976C120.304 248.793 121.034 248.519 121.765 248.063C121.856 247.972 121.947 247.972 121.947 247.789C122.13 247.333 122.13 246.602 121.399 246.237C120.578 246.694 119.3 246.967 117.93 247.241C116.926 247.424 115.739 247.515 114.461 247.424C112.453 247.333 110.536 247.241 108.801 246.876C107.25 246.785 105.698 246.602 104.42 246.237Z" fill="#20505A"/>
<path d="M118.934 245.597C118.842 246.236 118.842 246.693 119.116 247.058C120.12 246.875 120.942 246.602 121.672 246.236C120.942 245.78 120.029 245.506 118.934 245.597Z" fill="#F05A24"/>
<path d="M110.354 240.668C110.555 240.668 110.719 240.505 110.719 240.303C110.719 240.101 110.555 239.938 110.354 239.938C110.152 239.938 109.988 240.101 109.988 240.303C109.988 240.505 110.152 240.668 110.354 240.668Z" fill="#D7CCC2"/>
<path d="M110.992 241.946C111.194 241.946 111.358 241.782 111.358 241.58C111.358 241.379 111.194 241.215 110.992 241.215C110.791 241.215 110.627 241.379 110.627 241.58C110.627 241.782 110.791 241.946 110.992 241.946Z" fill="#D7CCC2"/>
<path d="M111.541 243.04C111.743 243.04 111.907 242.877 111.907 242.675C111.907 242.473 111.743 242.31 111.541 242.31C111.339 242.31 111.176 242.473 111.176 242.675C111.176 242.877 111.339 243.04 111.541 243.04Z" fill="#D7CCC2"/>
<path d="M112.453 244.137C112.655 244.137 112.819 243.974 112.819 243.772C112.819 243.57 112.655 243.406 112.453 243.406C112.251 243.406 112.088 243.57 112.088 243.772C112.088 243.974 112.251 244.137 112.453 244.137Z" fill="#D7CCC2"/>
<path d="M113.455 244.867C113.657 244.867 113.821 244.703 113.821 244.501C113.821 244.3 113.657 244.136 113.455 244.136C113.253 244.136 113.09 244.3 113.09 244.501C113.09 244.703 113.253 244.867 113.455 244.867Z" fill="#D7CCC2"/>
<path d="M114.884 245.421C115.039 245.292 115.059 245.061 114.929 244.907C114.8 244.752 114.569 244.732 114.415 244.861C114.26 244.991 114.24 245.221 114.369 245.376C114.499 245.531 114.73 245.551 114.884 245.421Z" fill="#D7CCC2"/>
<path d="M115.98 245.819C116.096 245.722 116.111 245.549 116.014 245.433C115.917 245.317 115.744 245.302 115.628 245.399C115.512 245.496 115.497 245.669 115.594 245.785C115.691 245.901 115.864 245.916 115.98 245.819Z" fill="#D7CCC2"/>
<path d="M117.428 246.103C117.503 245.972 117.456 245.804 117.325 245.73C117.193 245.656 117.026 245.702 116.951 245.834C116.877 245.966 116.923 246.133 117.055 246.207C117.187 246.282 117.354 246.235 117.428 246.103Z" fill="#D7CCC2"/>
<path d="M111.082 241.215C111.356 241.124 111.721 241.124 111.904 241.306C111.995 241.489 112.087 241.672 112.178 241.763C111.904 241.58 111.447 241.672 111.265 241.672C111.356 241.489 111.265 241.306 111.082 241.215Z" fill="#686461"/>
<path d="M111.631 242.311C111.905 242.22 112.27 242.037 112.544 242.129C112.636 242.22 112.727 242.311 112.818 242.494C112.453 242.403 111.996 242.585 111.905 242.677C111.905 242.494 111.814 242.403 111.631 242.311Z" fill="#686461"/>
<path d="M112.453 243.406C112.636 243.223 113.092 243.132 113.366 243.132C113.457 243.223 113.549 243.315 113.731 243.406C113.366 243.406 112.91 243.588 112.727 243.771C112.727 243.588 112.636 243.406 112.453 243.406Z" fill="#686461"/>
<path d="M113.547 244.136C113.729 243.953 114.003 243.862 114.368 243.771C114.46 243.862 114.642 243.862 114.825 244.044C114.46 244.136 114.095 244.41 113.912 244.501C113.821 244.41 113.729 244.227 113.547 244.136Z" fill="#686461"/>
<path d="M114.645 244.776C114.827 244.502 115.01 244.411 115.284 244.411C115.467 244.502 115.467 244.502 115.649 244.593C115.375 244.776 115.101 245.05 115.01 245.141C115.01 244.959 114.919 244.776 114.645 244.776Z" fill="#686461"/>
<path d="M115.83 245.324C116.013 245.05 116.287 244.959 116.47 244.867C116.652 244.959 116.744 244.959 116.926 245.05C116.652 245.233 116.378 245.507 116.195 245.598C116.104 245.507 116.013 245.324 115.83 245.324Z" fill="#686461"/>
<path d="M117.018 245.78C117.109 245.414 117.109 245.323 117.292 245.14C117.474 245.14 117.657 245.232 117.657 245.232C117.566 245.506 117.566 245.688 117.474 245.871C117.383 245.78 117.2 245.597 117.018 245.78Z" fill="#686461"/>
<path d="M110.445 239.936C110.719 239.845 110.993 239.845 111.176 239.936C111.267 240.119 111.359 240.302 111.45 240.393C111.085 240.302 110.902 240.211 110.719 240.302C110.719 240.211 110.628 240.028 110.445 239.936Z" fill="#686461"/>
<path d="M109.076 239.48C109.076 239.389 109.076 239.298 109.076 239.206C109.076 239.024 109.259 238.841 109.441 238.75C109.715 238.567 109.989 238.385 110.354 238.202C110.446 238.385 110.537 238.659 110.628 238.933C110.354 239.115 109.989 239.206 109.806 239.298C109.624 239.298 109.35 239.389 109.076 239.48Z" fill="#20505A"/>
<path d="M120.124 239.754C121.493 240.393 122.863 240.393 124.323 239.572C124.415 239.572 124.506 239.572 124.506 239.663C125.328 241.123 126.149 243.041 127.427 244.136C128.797 245.049 130.44 245.688 132.266 246.236C132.448 246.327 132.722 246.418 132.996 246.327C133.909 246.327 134.548 246.418 135.187 246.783C135.278 246.783 135.369 246.875 135.461 246.875C135.826 247.057 136.008 247.514 136.1 248.061C136.1 248.427 135.917 248.7 135.643 248.883C134.183 249.705 132.266 250.07 129.983 250.07L125.784 249.522L119.12 248.974L118.39 248.7C118.298 248.609 118.207 248.518 118.207 248.427C118.207 247.331 118.39 246.144 118.846 244.958C118.937 244.592 119.211 244.136 119.394 243.771C119.942 242.767 120.124 241.489 120.033 240.028C120.033 239.754 120.124 239.754 120.124 239.754Z" fill="#BFBAB8"/>
<path d="M118.295 246.964C118.112 246.964 118.021 248.242 118.112 248.516C118.203 248.882 119.481 249.064 119.755 249.064C120.759 249.247 121.946 249.247 123.042 249.338L126.784 249.703C127.88 249.886 129.067 250.068 130.345 250.068C131.349 250.068 132.353 249.977 133.357 249.703C134.179 249.521 134.909 249.247 135.64 248.79C135.731 248.699 135.822 248.699 135.822 248.516C136.005 248.06 136.005 247.33 135.274 246.964C134.453 247.421 133.175 247.695 131.805 247.969C130.801 248.151 129.614 248.242 128.336 248.151C126.328 248.06 124.411 247.969 122.676 247.603C121.125 247.512 119.573 247.33 118.295 246.964Z" fill="#20505A"/>
<path d="M132.719 246.326C132.627 246.965 132.627 247.421 132.901 247.786C133.905 247.604 134.727 247.33 135.457 246.965C134.727 246.417 133.905 246.234 132.719 246.326Z" fill="#20505A"/>
<path d="M124.231 241.306C124.432 241.306 124.596 241.143 124.596 240.941C124.596 240.739 124.432 240.576 124.231 240.576C124.029 240.576 123.865 240.739 123.865 240.941C123.865 241.143 124.029 241.306 124.231 241.306Z" fill="#D7CCC2"/>
<path d="M124.777 242.584C124.979 242.584 125.143 242.42 125.143 242.218C125.143 242.016 124.979 241.853 124.777 241.853C124.576 241.853 124.412 242.016 124.412 242.218C124.412 242.42 124.576 242.584 124.777 242.584Z" fill="#D7CCC2"/>
<path d="M125.418 243.77C125.62 243.77 125.784 243.606 125.784 243.404C125.784 243.203 125.62 243.039 125.418 243.039C125.216 243.039 125.053 243.203 125.053 243.404C125.053 243.606 125.216 243.77 125.418 243.77Z" fill="#D7CCC2"/>
<path d="M126.236 244.774C126.438 244.774 126.602 244.61 126.602 244.409C126.602 244.207 126.438 244.043 126.236 244.043C126.035 244.043 125.871 244.207 125.871 244.409C125.871 244.61 126.035 244.774 126.236 244.774Z" fill="#D7CCC2"/>
<path d="M127.332 245.505C127.534 245.505 127.698 245.342 127.698 245.14C127.698 244.938 127.534 244.774 127.332 244.774C127.13 244.774 126.967 244.938 126.967 245.14C126.967 245.342 127.13 245.505 127.332 245.505Z" fill="#D7CCC2"/>
<path d="M128.738 246.057C128.892 245.927 128.913 245.697 128.783 245.542C128.653 245.387 128.423 245.367 128.268 245.497C128.114 245.626 128.093 245.857 128.223 246.011C128.353 246.166 128.583 246.186 128.738 246.057Z" fill="#D7CCC2"/>
<path d="M129.83 246.455C129.946 246.357 129.961 246.185 129.864 246.069C129.766 245.953 129.594 245.937 129.478 246.035C129.362 246.132 129.346 246.305 129.444 246.421C129.541 246.537 129.714 246.552 129.83 246.455Z" fill="#D7CCC2"/>
<path d="M131.348 246.789C131.423 246.657 131.376 246.49 131.244 246.415C131.113 246.341 130.945 246.387 130.871 246.519C130.797 246.651 130.843 246.818 130.975 246.893C131.107 246.967 131.274 246.921 131.348 246.789Z" fill="#D7CCC2"/>
<path d="M124.959 241.853C125.233 241.762 125.598 241.762 125.781 241.944C125.872 242.127 125.964 242.31 126.055 242.401C125.781 242.218 125.324 242.31 125.142 242.31C125.142 242.127 125.142 241.944 124.959 241.853Z" fill="#686461"/>
<path d="M125.508 243.039C125.782 242.947 126.147 242.765 126.421 242.856C126.513 242.947 126.604 243.039 126.695 243.222C126.33 243.13 125.873 243.313 125.782 243.404C125.782 243.222 125.691 243.039 125.508 243.039Z" fill="#686461"/>
<path d="M126.33 244.044C126.513 243.861 126.969 243.77 127.243 243.77C127.334 243.861 127.426 243.953 127.608 244.044C127.243 244.044 126.787 244.227 126.604 244.409C126.604 244.318 126.513 244.135 126.33 244.044Z" fill="#686461"/>
<path d="M127.334 244.866C127.517 244.684 127.79 244.592 128.156 244.501C128.247 244.592 128.429 244.592 128.612 244.775C128.247 244.866 127.882 245.14 127.699 245.232C127.699 245.049 127.608 244.866 127.334 244.866Z" fill="#686461"/>
<path d="M128.521 245.414C128.704 245.14 128.887 245.049 129.161 245.049C129.344 245.14 129.344 245.14 129.526 245.231C129.252 245.414 128.978 245.688 128.887 245.779C128.796 245.597 128.704 245.414 128.521 245.414Z" fill="#686461"/>
<path d="M129.705 245.962C129.888 245.688 130.162 245.597 130.344 245.505C130.527 245.597 130.619 245.597 130.801 245.688C130.527 245.871 130.253 246.145 130.07 246.236C129.979 246.145 129.888 245.962 129.705 245.962Z" fill="#686461"/>
<path d="M130.895 246.418C130.986 246.052 130.986 245.961 131.169 245.778C131.351 245.778 131.534 245.87 131.534 245.87C131.443 246.144 131.443 246.327 131.351 246.509C131.26 246.418 131.077 246.235 130.895 246.418Z" fill="#686461"/>
<path d="M124.322 240.574C124.596 240.483 124.87 240.483 125.053 240.574C125.144 240.757 125.236 240.94 125.327 241.031C124.962 240.94 124.779 240.848 124.596 240.94C124.596 240.848 124.505 240.666 124.322 240.574Z" fill="#686461"/>
<path d="M122.953 240.119C122.953 240.027 122.953 239.936 122.953 239.845C122.953 239.662 123.136 239.48 123.318 239.388C123.592 239.206 123.866 239.023 124.231 238.841C124.322 239.023 124.414 239.297 124.505 239.571C124.231 239.754 123.866 239.845 123.683 239.936C123.501 240.027 123.227 240.119 122.953 240.119Z" fill="#20505A"/>
<path d="M122.311 140.615C122.676 143.262 133.996 157.504 140.386 157.96C140.477 157.96 140.568 157.96 140.751 157.96C141.207 157.96 141.664 157.778 142.12 157.595C144.403 156.134 153.623 150.109 156.818 146.458L154.901 142.989C150.063 144.632 140.66 151.022 140.66 151.022C140.66 151.022 140.112 151.205 140.021 150.931C136.187 144.632 130.618 141.254 125.049 138.059L122.311 140.615Z" fill="#ECBC97"/>
<path d="M165.221 135.961L161.021 142.625C161.021 142.625 161.478 143.446 162.573 143.355C163.578 143.264 165.038 140.708 165.13 140.251C165.312 139.703 165.038 139.247 165.221 138.882C165.403 138.517 165.312 137.604 165.312 137.604C165.221 137.604 166.134 136.326 165.221 135.961Z" fill="#D7A887"/>
<path d="M159.832 142.626L162.023 133.771C162.114 133.497 162.297 133.315 162.479 133.132L165.675 131.307C165.857 131.215 166.131 131.215 166.222 131.398C166.314 131.489 166.314 131.672 166.314 131.763L164.031 141.075L159.832 142.626Z" fill="#1A2E35"/>
<path d="M163.938 141.893C163.938 141.893 164.029 141.801 164.029 141.527C164.029 141.254 164.029 140.888 163.938 140.432C164.029 140.249 164.029 140.158 164.029 139.976C163.938 139.793 163.846 139.61 163.664 139.519H163.573V139.428C163.755 139.154 163.938 138.88 164.12 138.515C164.212 138.424 164.212 138.332 164.212 138.332C164.212 138.241 164.212 138.15 164.212 138.058C164.12 137.876 164.029 137.785 163.846 137.693V137.602L163.938 137.511C164.12 137.328 164.303 137.146 164.486 136.963C164.759 136.598 165.125 136.324 165.307 135.959C165.398 135.776 165.581 135.594 165.581 135.411C165.581 135.32 165.672 135.228 165.672 135.137C165.672 135.046 165.672 135.046 165.581 135.046C165.49 135.046 165.398 135.046 165.307 135.137C165.216 135.137 165.125 135.229 165.033 135.229C164.851 135.32 164.668 135.411 164.486 135.502C164.12 135.685 163.846 135.959 163.664 136.05C163.481 136.233 163.299 136.324 163.116 136.415C163.025 136.507 162.934 136.598 162.934 136.507C162.934 136.507 163.025 136.415 163.116 136.324C163.207 136.233 163.39 136.05 163.573 135.867C163.755 135.685 164.029 135.502 164.394 135.229C164.577 135.137 164.759 135.046 164.942 134.863C165.033 134.772 165.125 134.772 165.216 134.681C165.307 134.681 165.49 134.589 165.581 134.589C165.764 134.589 165.855 134.772 165.764 134.863C165.764 134.955 165.764 135.046 165.672 135.137C165.581 135.32 165.49 135.502 165.307 135.685C165.033 136.05 164.759 136.324 164.486 136.689C164.303 136.872 164.12 137.054 163.938 137.237V137.146C164.12 137.237 164.303 137.419 164.394 137.602C164.394 137.693 164.486 137.785 164.394 137.967C164.394 138.058 164.303 138.15 164.212 138.241C164.029 138.515 163.846 138.88 163.573 139.154V139.063C163.755 139.245 163.938 139.337 163.938 139.61C164.029 139.793 163.938 140.067 163.846 140.158C163.938 140.615 163.938 141.071 163.938 141.254C164.029 141.71 164.029 141.801 163.938 141.893Z" fill="#C89777"/>
<path d="M166.222 131.396C166.222 131.396 166.131 131.488 165.948 131.579C165.766 131.67 165.492 131.853 165.218 132.035C164.853 132.218 164.488 132.492 164.123 132.674C163.94 132.766 163.666 132.948 163.483 133.039C163.21 133.131 163.027 133.313 162.844 133.496C162.662 133.678 162.571 133.952 162.479 134.226C162.388 134.5 162.388 134.774 162.297 134.956C162.205 135.413 162.023 135.869 161.932 136.235C161.84 136.6 161.749 136.874 161.658 137.056C161.566 137.239 161.566 137.33 161.566 137.33C161.566 137.33 161.566 137.239 161.658 136.965C161.658 136.782 161.749 136.508 161.84 136.143C161.932 135.778 162.023 135.322 162.114 134.865C162.205 134.591 162.205 134.409 162.297 134.135C162.388 133.861 162.479 133.587 162.662 133.313C162.844 133.131 163.118 132.948 163.392 132.857C163.666 132.766 163.849 132.583 164.031 132.492C164.488 132.218 164.853 132.035 165.218 131.853C165.583 131.67 165.766 131.488 166.04 131.396C166.131 131.488 166.222 131.396 166.222 131.396Z" fill="#375A64"/>
<path d="M164.125 134.41C164.034 134.593 164.034 134.776 164.125 134.776C164.216 134.776 164.308 134.684 164.399 134.502C164.491 134.319 164.491 134.136 164.399 134.136C164.308 134.136 164.216 134.228 164.125 134.41Z" fill="white"/>
<path d="M156.27 142.259C157 141.894 157 140.707 157.365 139.977C157.639 139.338 158.004 138.699 158.278 138.607C158.735 138.333 161.291 136.782 161.291 136.782L161.017 137.968L163.482 136.234C163.755 136.051 165.49 134.408 165.855 135.047C166.038 135.504 164.668 136.69 164.486 136.964C164.029 137.603 164.212 137.603 164.212 137.603C164.212 137.603 164.76 137.877 164.486 138.333C164.212 138.79 163.755 139.338 163.755 139.338C163.755 139.338 164.395 139.612 164.029 140.433C164.029 140.433 164.212 140.89 164.121 141.529C164.029 141.894 163.755 142.35 163.39 142.715C163.025 143.172 162.569 143.446 162.021 143.628C159.921 144.359 158.096 145.18 156.817 146.276L154.9 142.807L156.27 142.259Z" fill="#ECBC97"/>
<path d="M161.749 137.422C161.749 137.422 161.202 137.878 160.471 138.244C159.741 138.7 159.193 138.974 159.193 138.974C159.193 138.974 159.741 138.517 160.471 138.152C161.11 137.696 161.749 137.422 161.749 137.422Z" fill="#C89777"/>
<path d="M164.032 137.509C164.032 137.509 163.576 138.057 162.937 138.696C162.298 139.335 161.75 139.792 161.75 139.792C161.75 139.792 162.206 139.244 162.845 138.605C163.484 137.966 164.032 137.509 164.032 137.509Z" fill="#C89777"/>
<path d="M163.847 139.152C163.847 139.152 163.664 139.517 163.299 139.883C163.025 140.248 162.66 140.522 162.66 140.522C162.66 140.522 162.843 140.156 163.208 139.791C163.482 139.426 163.847 139.152 163.847 139.152Z" fill="#C89777"/>
<path d="M131.716 168.093H104.512C104.512 168.093 105.516 144.905 108.985 132.034C109.441 130.208 110.993 127.56 112.363 126.282C112.91 125.734 113.549 125.278 114.28 125.004C114.736 124.822 115.284 124.73 115.832 124.73L120.487 125.095C121.035 125.095 121.492 125.461 121.674 125.917L126.33 136.415C126.604 137.054 126.969 137.602 127.517 138.059L134.363 144.175L129.89 149.652L129.342 150.291" fill="#20505A"/>
<path d="M128.061 149.927C120.575 143.993 120.21 142.806 119.662 140.798C119.48 140.159 119.206 139.337 118.658 138.242L119.297 137.968C119.845 139.154 120.119 139.885 120.301 140.615C120.849 142.532 121.214 143.536 128.517 149.379L128.061 149.927Z" fill="black"/>
</g>
<defs>
<radialGradient id="paint0_radial_21671_117448" cx="0" cy="0" r="1" gradientUnits="userSpaceOnUse" gradientTransform="translate(168.323 243.566) rotate(90) scale(1.21755 10.958)">
<stop/>
<stop offset="1" stop-color="#D9D9D9" stop-opacity="0"/>
</radialGradient>
<clipPath id="clip0_21671_117448">
<rect width="343" height="295" rx="16" fill="white"/>
</clipPath>
<clipPath id="clip1_21671_117448">
<rect width="150.096" height="95.0204" fill="white" transform="translate(98.3145 160.164) rotate(-4.42001)"/>
</clipPath>
</defs>
</svg>
