<svg width="343" height="295" viewBox="0 0 343 295" fill="none" xmlns="http://www.w3.org/2000/svg">
<path d="M171.5 202.953C257.104 202.953 326.5 197.573 326.5 190.937C326.5 184.301 257.104 178.922 171.5 178.922C85.8959 178.922 16.5 184.301 16.5 190.937C16.5 197.573 85.8959 202.953 171.5 202.953Z" fill="#D6D6D6"/>
<path d="M263.545 191.715H196.863V194.199H263.545V191.715Z" fill="#F2F2F2"/>
<path fill-rule="evenodd" clip-rule="evenodd" d="M258.822 185.566L263.854 191.49C264.49 191.426 264.936 191.171 265.191 190.662L260.35 184.738L258.822 185.566Z" fill="#20505A"/>
<path fill-rule="evenodd" clip-rule="evenodd" d="M274.11 159.195C275.702 160.087 276.275 162.061 275.384 163.717L263.792 184.354C263.219 185.373 262.073 186.074 260.926 186.074H205.964C204.18 186.074 202.652 184.545 202.652 182.762C202.652 180.978 204.18 179.45 205.964 179.45H258.952L269.524 160.469C270.543 158.94 272.518 158.431 274.11 159.195Z" fill="#00DFF4"/>
<path fill-rule="evenodd" clip-rule="evenodd" d="M190.488 188.558C193.163 188.558 195.455 186.392 195.455 183.59C195.455 180.787 193.29 178.621 190.488 178.621C187.813 178.621 185.52 180.787 185.52 183.59C185.52 186.392 187.813 188.558 190.488 188.558ZM190.488 195.118C196.857 195.118 202.079 189.959 202.079 183.526C202.079 177.093 196.92 171.934 190.488 171.934C184.119 171.934 178.896 177.093 178.896 183.526C178.896 189.959 184.119 195.118 190.488 195.118Z" fill="#20505A"/>
<path fill-rule="evenodd" clip-rule="evenodd" d="M284.873 188.558C287.548 188.558 289.841 186.392 289.841 183.59C289.841 180.787 287.676 178.621 284.873 178.621C282.071 178.621 279.906 180.787 279.906 183.59C279.906 186.392 282.199 188.558 284.873 188.558ZM284.873 195.118C291.242 195.118 296.465 189.959 296.465 183.526C296.465 177.093 291.306 171.934 284.873 171.934C278.441 171.934 273.282 177.093 273.282 183.526C273.346 189.959 278.505 195.118 284.873 195.118Z" fill="#20505A"/>
<path fill-rule="evenodd" clip-rule="evenodd" d="M260.672 118.877C262.391 118.049 264.239 118.877 265.067 120.469L266.659 123.845C267.487 125.565 266.659 127.412 265.067 128.24C263.347 129.068 261.5 128.24 260.672 126.648L259.079 123.272C258.251 121.679 258.952 119.705 260.672 118.877Z" fill="#20505A"/>
<path fill-rule="evenodd" clip-rule="evenodd" d="M266.531 151.238L273.536 169.008C273.919 170.027 274.938 171.429 275.702 172.002C276.912 172.83 278.122 173.021 279.523 172.193C281.115 170.983 280.606 167.607 279.396 164.932L277.867 161.556L266.467 133.722L256.787 109.391L251.819 112.002L266.531 151.238Z" fill="#15E5F6"/>
<path fill-rule="evenodd" clip-rule="evenodd" d="M258.569 110.661C258.187 110.533 257.486 110.788 257.486 110.788L259.142 115.056L259.779 114.801C259.779 114.864 259.716 111.043 258.569 110.661Z" fill="#1A1A1A"/>
<path fill-rule="evenodd" clip-rule="evenodd" d="M251.882 111.936L245.895 95.5669C246.277 95.5669 243.793 95.4395 242.329 96.1401C241.501 96.5223 239.526 97.6688 239.208 97.3503C238.125 96.8408 237.425 96.1401 237.297 94.7389C237.297 93.465 238.125 92.828 239.208 92.637L246.277 92.0637L245.959 90.7898L240.546 91.172L240.354 90.2803L247.742 89.707L248.443 92.7007C249.717 92.828 250.863 93.2739 251.627 94.8026L256.786 109.388L251.882 111.936Z" fill="#1A1A1A"/>
<g opacity="0.96">
<path d="M265.066 136.968C264.875 137.096 264.684 137.159 264.493 137.35L263.919 135.949L263.091 136.268L264.174 139.07C264.493 139.898 265.384 140.153 266.149 139.898C266.977 139.58 267.359 138.688 267.04 137.924C266.722 137.032 265.83 136.65 265.066 136.968ZM265.958 139.07C265.575 139.198 265.13 139.07 265.066 138.688C264.938 138.306 265.066 137.86 265.448 137.796C265.83 137.669 266.276 137.796 266.34 138.179C266.467 138.561 266.212 138.943 265.958 139.07Z" fill="white"/>
<path d="M268.505 145.566C267.677 145.884 267.295 146.776 267.677 147.54L268.25 149.069L269.078 148.75L268.505 147.222C268.378 146.903 268.505 146.521 268.887 146.33C269.206 146.203 269.588 146.33 269.779 146.712L270.352 148.241L271.18 147.922L270.607 146.394C270.225 145.629 269.333 145.247 268.505 145.566Z" fill="white"/>
<path d="M267.039 141.935C266.848 142.062 266.721 142.253 266.848 142.508L267.74 144.928L268.632 144.546L267.613 142.126C267.549 142.062 267.358 141.871 267.039 141.935Z" fill="white"/>
<path d="M266.72 141.744C267.037 141.744 267.293 141.488 267.293 141.171C267.293 140.854 267.037 140.598 266.72 140.598C266.404 140.598 266.147 140.854 266.147 141.171C266.147 141.488 266.404 141.744 266.72 141.744Z" fill="white"/>
<path d="M259.461 123.211C259.27 123.338 259.079 123.402 258.888 123.593L258.314 122.191L257.486 122.51L258.569 125.312C258.888 126.14 259.779 126.395 260.544 126.14C261.372 125.822 261.754 124.93 261.435 124.166C261.181 123.274 260.225 122.892 259.461 123.211ZM260.225 125.312C259.843 125.44 259.397 125.312 259.334 124.93C259.206 124.548 259.333 124.102 259.716 124.039C260.098 123.975 260.544 124.039 260.607 124.421C260.862 124.803 260.671 125.185 260.225 125.312Z" fill="white"/>
<path d="M262.963 131.747C262.135 132.066 261.753 132.957 262.135 133.722L262.708 135.25L263.536 134.932L262.963 133.403C262.836 133.085 262.963 132.703 263.345 132.511C263.727 132.32 264.046 132.512 264.237 132.894L264.81 134.422L265.638 134.104L265.065 132.575C264.555 131.875 263.727 131.492 262.963 131.747Z" fill="white"/>
<path d="M261.436 128.18C261.245 128.307 261.118 128.498 261.245 128.753L262.137 131.173L263.028 130.791L262.009 128.371C261.946 128.307 261.627 128.18 261.436 128.18Z" fill="white"/>
<path d="M261.181 127.924C261.498 127.924 261.754 127.667 261.754 127.351C261.754 127.034 261.498 126.777 261.181 126.777C260.864 126.777 260.608 127.034 260.608 127.351C260.608 127.667 260.864 127.924 261.181 127.924Z" fill="white"/>
</g>
<path d="M215.896 96.205C215.896 98.6254 224.494 112.829 230.226 113.976C230.29 113.976 230.417 114.039 230.544 114.103C230.99 114.167 231.436 114.103 231.818 113.848C234.238 112.957 239.715 101.364 241.499 97.6699L240.161 96.7782C238.633 98.689 233.092 107.415 231.245 106.842C231.245 106.842 230.799 106.906 230.672 106.714C223.985 98.5617 220.991 96.3324 218.698 94.2305L215.896 96.205Z" fill="#D8A988"/>
<path d="M217.042 186.329C217.424 187.475 216.66 191.743 216.66 193.208C217.552 194.418 219.845 193.463 220.1 192.189C220.1 192.061 220.227 191.998 220.227 191.679C219.972 190.851 220.482 187.794 221.182 186.074L217.042 186.329Z" fill="#F9AC91"/>
<path d="M245.256 182.507C245.83 183.59 245.511 186.584 245.702 187.985C246.785 189.068 248.887 187.666 248.823 186.329C248.887 186.202 248.887 186.074 248.887 185.819C248.377 185.055 248.505 182.38 249.014 180.66L245.256 182.507Z" fill="#F9AC91"/>
<path d="M221.054 120.088L236.085 117.285C244.619 127.604 247.803 140.024 250.605 154.228C250.796 155.31 250.924 156.457 250.988 157.54L252.389 179.578C250.733 181.17 244.619 182.89 242.453 183.145C242.135 174.546 241.052 167.094 238.823 159.451C238.632 158.177 237.677 155.756 237.677 155.756C233.983 143.973 222.774 122.763 221.054 120.088Z" fill="#131851"/>
<path d="M223.857 188.114C220.991 188.942 216.978 187.541 214.813 186.649L220.29 161.936C220.354 161.426 220.354 160.981 220.354 160.471L218.38 130.853C218.316 130.153 218.379 129.388 218.443 128.751C218.762 126.14 219.462 122.446 220.481 121.172H231.499C234.684 135.821 234.111 148.369 232.901 155.439C232.773 156.076 232.2 162.891 231.436 164.93L223.857 188.114Z" fill="#131851"/>
<path d="M236.467 117.795L219.207 124.992L218.761 124.291L236.148 117.285L236.467 117.795Z" fill="#0E0E38"/>
<path d="M218.953 79.5781L225.386 80.2151C223.539 83.145 222.074 85.7564 224.239 87.7946L218.061 87.2214C220.163 85.8201 219.908 82.317 218.953 79.5781Z" fill="#EDBD98"/>
<path d="M225.385 67.4141C225.385 67.4141 227.869 70.4077 227.296 72.5733C227.232 72.8918 227.169 73.2102 227.105 73.4013C226.85 74.6115 226.85 74.5478 228.124 75.1847C228.825 75.5032 228.188 76.1401 227.869 76.3949C227.678 76.5223 227.551 76.7771 227.615 77.0319C227.615 77.2866 227.678 77.6051 227.678 77.6051C227.678 77.6688 227.933 78.4331 227.169 78.4331C223.602 78.4968 226.532 78.4331 227.36 78.6879C227.36 78.6879 227.678 78.879 227.615 79.0064C227.551 79.1975 227.296 79.3885 227.232 79.707C227.169 79.9618 227.105 80.7898 226.978 81.172C226.85 81.5541 224.685 82.1274 223.475 81.8089C222.52 81.6178 221.182 81.2357 220.672 81.172C220.481 81.172 220.163 80.6624 220.036 80.535C219.781 80.344 219.08 80.1529 218.507 79.7707C217.424 79.0701 218.38 78.7516 218.443 78.242C218.507 77.8599 218.634 77.0319 218.507 76.7134C218.38 76.5223 217.488 75.4395 217.297 74.93C217.042 74.1656 217.488 72.9554 217.87 72.5096C218.189 72.1274 218.953 71.809 219.462 72.2548C219.845 72.5096 220.29 72.5096 220.482 72.1911C220.673 71.8089 223.093 68.7516 223.538 68.4969C223.793 68.3058 225.385 67.4141 225.385 67.4141Z" fill="#EDBD98"/>
<path d="M227.678 69.1968C227.551 69.5153 227.423 69.8337 227.169 70.0885C226.914 70.5981 226.404 70.9165 225.958 71.1076C224.366 71.8082 222.965 72.3815 221.5 72.2541C220.863 72.1904 220.354 72.5089 220.099 73.1458C219.908 73.7191 219.526 74.0375 219.208 74.4197C218.571 75.0566 218.38 76.012 218.698 76.9037C219.08 78.0502 218.698 78.7509 218.188 79.77C217.934 80.0884 217.552 80.1522 217.106 79.9611C215.004 78.8783 213.667 76.5853 213.221 73.9101C212.456 71.4898 212.839 70.8528 213.284 69.7063C213.412 69.3879 213.667 69.0694 213.921 68.8146C214.94 67.7318 215.832 66.3306 216.787 65.6299C217.615 65.0567 218.443 64.6745 219.462 64.356C221.054 63.7828 222.774 64.0376 224.111 64.8656C225.64 65.7573 226.977 66.9675 227.551 68.0503C227.805 68.4324 227.805 68.8783 227.678 69.1968Z" fill="#42210B"/>
<path d="M216.532 190.663C217.933 191.3 219.271 191.3 220.672 190.472C220.736 190.408 220.799 190.472 220.863 190.535C221.627 192 222.455 193.847 223.729 194.93C225.003 195.822 226.659 196.523 228.442 196.968C228.633 197.032 228.952 197.096 229.143 197.096C230.034 197.096 230.735 197.223 231.244 197.478C231.308 197.542 231.435 197.542 231.499 197.605C231.881 197.797 232.072 198.242 232.136 198.688C232.136 199.007 232.009 199.325 231.754 199.453C230.289 200.281 228.442 200.663 226.213 200.599L222.01 200.026L215.513 199.453L214.749 199.198C214.622 199.134 214.558 199.07 214.558 198.879C214.558 197.797 214.749 196.714 215.195 195.44C215.322 195.121 215.577 194.612 215.768 194.293C216.341 193.338 216.469 192 216.469 190.599C216.341 190.663 216.469 190.599 216.532 190.663Z" fill="#F7931E"/>
<path d="M214.685 197.668C214.558 197.668 214.431 198.878 214.558 199.197C214.686 199.515 215.959 199.706 216.15 199.77C217.169 199.897 218.252 199.961 219.462 200.025L223.156 200.407C224.175 200.534 225.449 200.725 226.659 200.725C227.678 200.725 228.633 200.662 229.588 200.407C230.353 200.279 231.117 199.897 231.881 199.451C231.945 199.388 232.009 199.324 232.072 199.26C232.263 198.878 232.2 198.114 231.563 197.668C230.735 198.05 229.525 198.432 228.124 198.623C227.105 198.814 225.958 198.814 224.684 198.814C222.71 198.751 220.8 198.623 219.144 198.305C217.488 198.178 215.896 197.986 214.685 197.668Z" fill="#CE751D"/>
<path d="M228.824 197.031C228.697 197.668 228.76 198.114 229.015 198.496C229.97 198.369 230.798 198.114 231.499 197.668C230.862 197.159 229.97 196.968 228.824 197.031Z" fill="#F15A24"/>
<path d="M220.481 192.125C220.656 192.125 220.799 191.983 220.799 191.807C220.799 191.631 220.656 191.488 220.481 191.488C220.305 191.488 220.162 191.631 220.162 191.807C220.162 191.983 220.305 192.125 220.481 192.125Z" fill="#D8CDC3"/>
<path d="M221.054 193.399C221.23 193.399 221.372 193.256 221.372 193.08C221.372 192.904 221.23 192.762 221.054 192.762C220.878 192.762 220.735 192.904 220.735 193.08C220.735 193.256 220.878 193.399 221.054 193.399Z" fill="#D8CDC3"/>
<path d="M221.627 194.485C221.803 194.485 221.946 194.342 221.946 194.166C221.946 193.99 221.803 193.848 221.627 193.848C221.451 193.848 221.309 193.99 221.309 194.166C221.309 194.342 221.451 194.485 221.627 194.485Z" fill="#D8CDC3"/>
<path d="M222.455 195.567C222.631 195.567 222.774 195.424 222.774 195.248C222.774 195.072 222.631 194.93 222.455 194.93C222.279 194.93 222.137 195.072 222.137 195.248C222.137 195.424 222.279 195.567 222.455 195.567Z" fill="#D8CDC3"/>
<path d="M223.538 196.266C223.714 196.266 223.856 196.123 223.856 195.947C223.856 195.771 223.714 195.629 223.538 195.629C223.362 195.629 223.219 195.771 223.219 195.947C223.219 196.123 223.362 196.266 223.538 196.266Z" fill="#D8CDC3"/>
<path d="M224.749 196.84C224.925 196.84 225.067 196.697 225.067 196.522C225.067 196.346 224.925 196.203 224.749 196.203C224.573 196.203 224.43 196.346 224.43 196.522C224.43 196.697 224.573 196.84 224.749 196.84Z" fill="#D8CDC3"/>
<path d="M226.009 197.27C226.117 197.179 226.131 197.019 226.041 196.911C225.95 196.803 225.789 196.789 225.682 196.879C225.574 196.97 225.56 197.13 225.65 197.238C225.74 197.346 225.901 197.36 226.009 197.27Z" fill="#D8CDC3"/>
<path d="M227.506 197.47C227.575 197.348 227.532 197.192 227.409 197.123C227.287 197.054 227.131 197.097 227.062 197.22C226.993 197.342 227.036 197.498 227.159 197.567C227.281 197.636 227.437 197.593 227.506 197.47Z" fill="#D8CDC3"/>
<path d="M221.181 192.7C221.436 192.637 221.818 192.573 222.009 192.764C222.073 192.892 222.2 193.083 222.264 193.274C222.009 193.146 221.5 193.146 221.309 193.21C221.436 192.955 221.372 192.764 221.181 192.7Z" fill="#686461"/>
<path d="M221.691 193.781C221.882 193.654 222.392 193.59 222.646 193.654C222.71 193.781 222.837 193.845 222.901 193.972C222.583 193.909 222.137 194.036 221.946 194.1C222.009 194.036 221.946 193.845 221.691 193.781Z" fill="#686461"/>
<path d="M222.519 194.931C222.71 194.803 223.155 194.676 223.41 194.676C223.538 194.803 223.601 194.867 223.729 194.994C223.41 194.994 222.901 195.185 222.773 195.313C222.837 195.122 222.773 194.931 222.519 194.931Z" fill="#686461"/>
<path d="M223.538 195.565C223.665 195.373 224.047 195.246 224.302 195.246C224.429 195.31 224.557 195.374 224.684 195.437C224.366 195.501 223.92 195.756 223.792 195.947C223.856 195.883 223.856 195.628 223.538 195.565Z" fill="#686461"/>
<path d="M224.684 196.202C224.875 196.011 225.066 195.884 225.321 195.82C225.448 195.884 225.512 195.948 225.703 196.011C225.448 196.139 225.193 196.394 225.066 196.585C225.002 196.33 224.938 196.202 224.684 196.202Z" fill="#686461"/>
<path d="M225.831 196.775C226.022 196.584 226.213 196.393 226.468 196.266C226.595 196.329 226.659 196.329 226.85 196.393C226.595 196.52 226.277 196.903 226.15 196.966C226.15 196.903 226.022 196.775 225.831 196.775Z" fill="#686461"/>
<path d="M226.976 197.156C227.04 196.838 227.103 196.774 227.167 196.52C227.295 196.52 227.486 196.647 227.486 196.647C227.358 196.902 227.422 197.029 227.358 197.284C227.358 197.156 227.231 197.029 226.976 197.156Z" fill="#686461"/>
<path d="M220.608 191.488C220.863 191.424 221.117 191.36 221.372 191.488C221.5 191.615 221.563 191.806 221.563 191.997C221.245 191.87 220.99 191.87 220.799 191.933C220.799 191.679 220.735 191.551 220.608 191.488Z" fill="#686461"/>
<path d="M219.271 190.98C219.271 190.916 219.271 190.789 219.271 190.725C219.335 190.534 219.398 190.406 219.589 190.343C219.844 190.152 220.163 190.024 220.481 189.77C220.609 189.961 220.672 190.152 220.672 190.47C220.417 190.598 220.099 190.725 219.908 190.789C219.717 190.852 219.526 190.916 219.271 190.98Z" fill="#F15A24"/>
<path d="M245.257 185.69C246.721 186.009 248.059 185.69 249.205 184.544C249.269 184.48 249.333 184.544 249.396 184.544C250.479 185.754 251.689 187.41 253.218 188.175C254.682 188.748 256.466 189.066 258.313 189.13C258.504 189.13 258.822 189.13 259.013 189.13C259.905 188.939 260.605 188.875 261.179 189.066C261.242 189.13 261.37 189.066 261.497 189.13C261.943 189.257 262.198 189.576 262.325 190.085C262.389 190.404 262.325 190.722 262.07 190.913C260.86 192.06 259.141 192.888 256.912 193.334L252.708 193.78L246.212 194.735L245.384 194.608C245.257 194.544 245.129 194.544 245.129 194.289C244.875 193.206 244.811 192.124 244.938 190.786C245.002 190.404 245.129 189.894 245.193 189.512C245.511 188.429 245.32 187.155 245.002 185.754C245.129 185.69 245.129 185.627 245.257 185.69Z" fill="#F7931E"/>
<path d="M245.002 192.888C244.875 192.888 245.002 194.162 245.193 194.417C245.384 194.735 246.658 194.544 246.849 194.608C247.868 194.48 248.951 194.353 250.098 194.098L253.791 193.652C254.81 193.525 256.084 193.461 257.294 193.207C258.313 192.952 259.205 192.697 260.097 192.187C260.797 191.869 261.434 191.359 262.071 190.722C262.134 190.659 262.198 190.531 262.198 190.468C262.326 190.022 262.071 189.321 261.37 189.066C260.67 189.64 259.523 190.277 258.249 190.786C257.294 191.232 256.148 191.487 254.938 191.742C252.963 192.124 251.116 192.442 249.397 192.506C247.868 192.761 246.276 192.952 245.002 192.888Z" fill="#CE751D"/>
<path d="M258.694 189.067C258.694 189.704 258.885 190.15 259.204 190.405C260.095 190.022 260.86 189.577 261.433 189.067C260.669 188.749 259.777 188.749 258.694 189.067Z" fill="#F15A24"/>
<path d="M249.397 186.203C249.573 186.203 249.716 186.061 249.716 185.885C249.716 185.709 249.573 185.566 249.397 185.566C249.221 185.566 249.079 185.709 249.079 185.885C249.079 186.061 249.221 186.203 249.397 186.203Z" fill="#D8CDC3"/>
<path d="M250.225 187.285C250.401 187.285 250.543 187.143 250.543 186.967C250.543 186.791 250.401 186.648 250.225 186.648C250.049 186.648 249.906 186.791 249.906 186.967C249.906 187.143 250.049 187.285 250.225 187.285Z" fill="#D8CDC3"/>
<path d="M251.052 188.239C251.228 188.239 251.37 188.096 251.37 187.92C251.37 187.744 251.228 187.602 251.052 187.602C250.876 187.602 250.733 187.744 250.733 187.92C250.733 188.096 250.876 188.239 251.052 188.239Z" fill="#D8CDC3"/>
<path d="M252.071 189.004C252.247 189.004 252.39 188.862 252.39 188.686C252.39 188.51 252.247 188.367 252.071 188.367C251.896 188.367 251.753 188.51 251.753 188.686C251.753 188.862 251.896 189.004 252.071 189.004Z" fill="#D8CDC3"/>
<path d="M253.281 189.512C253.457 189.512 253.6 189.369 253.6 189.193C253.6 189.018 253.457 188.875 253.281 188.875C253.105 188.875 252.963 189.018 252.963 189.193C252.963 189.369 253.105 189.512 253.281 189.512Z" fill="#D8CDC3"/>
<path d="M254.555 189.77C254.731 189.77 254.874 189.627 254.874 189.451C254.874 189.275 254.731 189.133 254.555 189.133C254.379 189.133 254.237 189.275 254.237 189.451C254.237 189.627 254.379 189.77 254.555 189.77Z" fill="#D8CDC3"/>
<path d="M256.101 189.962C256.185 189.849 256.163 189.69 256.05 189.605C255.938 189.521 255.778 189.543 255.694 189.656C255.609 189.768 255.632 189.928 255.744 190.012C255.857 190.097 256.016 190.074 256.101 189.962Z" fill="#D8CDC3"/>
<path d="M257.411 189.825C257.451 189.69 257.373 189.548 257.238 189.508C257.103 189.469 256.962 189.546 256.922 189.681C256.883 189.816 256.96 189.958 257.095 189.997C257.23 190.037 257.372 189.96 257.411 189.825Z" fill="#D8CDC3"/>
<path d="M250.225 186.583C250.479 186.455 250.798 186.328 251.053 186.455C251.18 186.582 251.307 186.774 251.435 186.837C251.116 186.774 250.67 186.901 250.479 186.965C250.543 186.774 250.479 186.646 250.225 186.583Z" fill="#686461"/>
<path d="M251.052 187.538C251.243 187.347 251.689 187.156 251.943 187.156C252.071 187.284 252.198 187.284 252.262 187.411C251.943 187.411 251.561 187.666 251.37 187.793C251.37 187.666 251.243 187.538 251.052 187.538Z" fill="#686461"/>
<path d="M252.072 188.368C252.263 188.177 252.581 187.986 252.9 187.922C253.091 188.049 253.155 188.049 253.282 188.177C252.964 188.24 252.518 188.559 252.454 188.75C252.454 188.495 252.263 188.304 252.072 188.368Z" fill="#686461"/>
<path d="M253.218 188.877C253.281 188.622 253.6 188.431 253.855 188.367C253.982 188.431 254.173 188.431 254.301 188.495C253.982 188.622 253.664 189.004 253.536 189.195C253.536 189.004 253.473 188.813 253.218 188.877Z" fill="#686461"/>
<path d="M254.428 189.131C254.555 188.876 254.746 188.685 254.937 188.621C255.065 188.685 255.192 188.685 255.383 188.748C255.128 188.94 255.001 189.258 254.937 189.449C254.81 189.258 254.683 189.067 254.428 189.131Z" fill="#686461"/>
<path d="M255.702 189.449C255.829 189.195 256.02 188.94 256.211 188.812C256.339 188.876 256.402 188.812 256.657 188.876C256.402 189.067 256.211 189.449 256.084 189.577C256.084 189.513 255.893 189.386 255.702 189.449Z" fill="#686461"/>
<path d="M256.913 189.578C256.913 189.26 256.976 189.132 256.976 188.941C257.104 188.941 257.358 189.005 257.358 189.005C257.295 189.324 257.358 189.451 257.358 189.642C257.295 189.578 257.104 189.387 256.913 189.578Z" fill="#686461"/>
<path d="M249.46 185.501C249.715 185.374 249.906 185.246 250.225 185.31C250.416 185.437 250.48 185.628 250.543 185.756C250.161 185.692 249.97 185.756 249.779 185.883C249.652 185.692 249.588 185.565 249.46 185.501Z" fill="#686461"/>
<path d="M247.995 185.31C247.995 185.246 247.931 185.119 247.931 185.055C247.931 184.864 247.995 184.673 248.186 184.546C248.377 184.291 248.632 184.1 248.95 183.781C249.141 183.972 249.269 184.163 249.332 184.418C249.078 184.609 248.887 184.8 248.695 184.928C248.441 185.119 248.25 185.246 247.995 185.31Z" fill="#F15A24"/>
<path d="M220.545 94.0356C219.398 96.2012 224.876 109.704 229.397 113.462C229.461 113.526 229.525 113.653 229.652 113.717C230.034 113.972 230.48 114.099 230.862 114.099C233.282 114.227 244.81 113.844 249.077 112.825L249.396 110.341C244.937 109.067 233.346 108.43 233.346 108.43C233.346 108.43 232.837 108.239 232.9 108.048C233.346 101.36 226.086 97.9846 223.474 92.7617L220.545 94.0356Z" fill="#EDBD98"/>
<path d="M226.914 110.533L232.837 106.839C232.9 105.82 232.709 104.482 232.2 103.336L229.971 97.285C229.652 96.5207 228.952 95.2468 228.633 94.7373L224.366 86.9666C224.111 86.5844 223.666 86.457 223.22 86.457L219.271 86.9029C218.825 86.9666 218.316 87.094 217.997 87.3488C217.424 87.7309 217.042 88.2405 216.66 88.75C215.768 90.0876 214.94 92.508 214.877 94.1003C214.24 105.374 217.424 124.801 217.424 124.801L236.085 117.221C229.78 114.1 229.143 113.527 226.914 110.533Z" fill="#F7931E"/>
<path d="M226.787 110.471C222.265 105.885 222.138 105.121 221.883 103.719C221.819 103.274 221.692 102.7 221.437 101.936L221.692 101.809C222.01 102.637 222.074 103.146 222.201 103.656C222.456 104.993 222.583 105.694 227.042 110.28L226.787 110.471Z" fill="#9E4F0D"/>
<path d="M255.894 109.515C255.894 109.005 255.575 108.942 255.384 109.005L253.027 109.578L253.983 108.878C254.11 108.75 253.983 108.559 253.855 108.559C253.282 108.432 252.263 108.941 251.945 109.069C251.754 109.069 251.117 109.26 250.734 109.515C250.289 109.833 250.034 110.152 249.461 110.152L247.741 110.024L248.25 112.891C249.333 112.636 250.862 112.699 252.39 113.018C252.773 113.082 253.155 113.018 253.537 112.891C253.855 112.827 254.174 112.572 254.365 112.381C254.683 112.063 254.683 111.68 254.683 111.68C255.257 111.298 254.875 110.916 254.875 110.916C254.875 110.916 255.32 110.725 255.639 110.534C255.957 110.279 255.639 109.833 255.639 109.833C255.766 109.833 255.894 109.706 255.894 109.515Z" fill="#EDBD98"/>
<path d="M253.09 109.579C253.09 109.642 252.708 109.77 252.262 109.897C251.816 110.088 251.434 110.216 251.434 110.216C251.434 110.152 251.816 110.025 252.262 109.897C252.708 109.642 253.026 109.515 253.09 109.579Z" fill="#C99877"/>
<path d="M255.637 109.832C255.637 109.832 255.128 110.023 254.555 110.151C253.918 110.342 253.408 110.405 253.408 110.405C253.408 110.405 253.918 110.214 254.491 110.087C255.064 109.959 255.637 109.832 255.637 109.832Z" fill="#C99877"/>
<path d="M254.683 111.681C254.683 111.681 254.428 111.809 254.173 111.936C253.855 112 253.6 112.063 253.6 112.063C253.6 112.063 253.855 111.936 254.11 111.809C254.428 111.681 254.683 111.618 254.683 111.681Z" fill="#C99877"/>
<path d="M254.874 110.98C254.874 110.98 254.62 111.107 254.365 111.171C254.046 111.234 253.792 111.234 253.792 111.234C253.792 111.234 254.046 111.107 254.301 111.043C254.683 110.98 254.938 110.916 254.874 110.98Z" fill="#C99877"/>
<path d="M253.728 109.004C253.791 109.004 253.855 108.941 253.982 108.877C253.982 108.877 254.046 108.75 253.982 108.686C253.919 108.622 253.791 108.559 253.728 108.559C253.664 108.559 253.409 108.622 253.409 108.622C253.409 108.622 253.473 108.877 253.473 108.941C253.536 109.004 253.537 109.004 253.537 109.004C253.6 109.068 253.664 109.068 253.728 109.004Z" fill="#E5B28F"/>
<path d="M242.326 91.8101C242.326 91.8101 242.517 91.619 242.645 91.5553C242.772 91.4916 243.091 91.619 242.963 91.8738C242.836 92.1285 242.199 92.7018 242.199 92.7018C242.199 92.7018 241.944 93.3387 241.88 93.4024C241.817 93.4661 241.944 94.0394 242.008 94.2305C242.072 94.4215 241.88 96.0776 241.88 96.205C241.88 96.3324 241.626 97.7336 241.371 97.7336C241.116 97.7336 239.906 97.2878 240.097 96.7145C240.288 96.1413 240.989 92.7655 241.435 92.3833C241.817 92.0012 242.326 91.8101 242.326 91.8101Z" fill="#D8A988"/>
<path d="M242.39 91.8087L242.644 91.6176C242.772 91.5539 242.963 91.6176 242.899 91.8087C242.836 91.9361 242.708 91.9998 242.644 92.0635C242.517 91.9361 242.453 91.8724 242.39 91.8087Z" fill="#EDC7AE"/>
<path d="M233.92 114.039L236.149 117.287L233.283 117.351L229.525 114.039L229.907 113.848C229.907 113.848 230.226 114.039 230.353 114.039C230.544 114.039 232.391 114.102 232.391 114.102L233.92 114.039Z" fill="#F7931E"/>
<path d="M28.6593 168.995C37.6393 158.231 39.8046 154.664 51.6506 152.116C63.4329 149.568 69.6744 142.753 80.6925 149.186C91.8379 155.683 92.22 157.785 101.518 154.536C110.881 151.352 115.466 153.135 123.873 160.269C132.153 167.53 138.585 172.816 144.062 173.199C149.412 173.581 147.629 183.581 147.629 183.581L45.6003 185.746L25.7934 186.129C23.6916 181.097 25.6023 175.109 28.6593 168.995Z" fill="#AED3D3"/>
<path d="M75.5331 162.304C75.5331 162.304 76.17 161.667 75.5331 155.871C74.8961 150.074 77.635 144.852 77.635 144.852C77.635 144.852 76.3612 157.144 76.616 158.609C76.8071 160.011 75.5331 162.304 75.5331 162.304Z" fill="#0B9D99"/>
<path d="M77.1917 168.355C77.1917 168.355 77.1916 167.718 73.6247 164.788C70.0579 161.859 68.6567 157.527 68.6567 157.527C68.6567 157.527 74.8987 164.788 75.7267 165.616C76.5547 166.444 77.1917 168.355 77.1917 168.355Z" fill="#0B9D99"/>
<path d="M77.6357 175.616C77.6357 175.616 78.2727 175.171 78.0816 170.648C77.8905 166.062 80.3746 162.113 80.3746 162.113C80.3746 162.113 78.7185 171.476 78.7185 172.75C78.6548 173.769 77.6357 175.616 77.6357 175.616Z" fill="#0B9D99"/>
<path d="M76.9997 180.839C76.9997 180.839 76.3628 180.393 75.7259 175.871C74.8978 171.285 71.7769 167.973 71.7769 167.973C71.7769 167.973 75.0889 176.89 75.5347 177.973C75.9806 178.928 76.9997 180.839 76.9997 180.839Z" fill="#0B9D99"/>
<path d="M75.1518 184.977C75.1518 184.977 80.7564 168.544 72.4769 155.869C64.1338 143.194 71.0121 148.608 72.4769 151.092C74.1328 153.767 79.9921 170.009 77.8904 181.028C77.8904 181.028 77.2535 184.786 77.0625 185.168C76.553 185.423 75.1518 184.977 75.1518 184.977Z" fill="#0B9D99"/>
<path d="M91.5832 147.273C91.5832 147.273 92.4112 146.445 91.5832 139.184C90.7552 131.923 94.2583 125.426 94.2583 125.426C94.2583 125.426 92.7933 140.585 92.7933 142.305C92.857 144.343 91.5832 147.273 91.5832 147.273Z" fill="#EACE03"/>
<path d="M93.6852 154.535C93.6852 154.535 93.6852 153.707 89.0997 150.14C84.7052 146.573 83.0493 141.223 83.0493 141.223C83.0493 141.223 90.7556 150.14 91.7746 151.223C92.6662 152.242 93.6852 154.535 93.6852 154.535Z" fill="#EACE03"/>
<path d="M94.1309 163.452C94.1309 163.452 94.7678 162.815 94.5767 157.21C94.3856 151.605 97.5065 146.828 97.5065 146.828C97.5065 146.828 95.4047 158.484 95.4047 159.949C95.4047 161.414 94.1309 163.452 94.1309 163.452Z" fill="#EACE03"/>
<path d="M93.4951 173.261C93.4951 173.261 92.8581 172.624 92.667 167.019C92.4759 161.414 89.1001 156.828 89.1001 156.828C89.1001 156.828 91.7753 168.293 92.0301 169.758C92.2212 171.159 93.4951 173.261 93.4951 173.261Z" fill="#EACE03"/>
<path d="M91.201 184.278C91.201 184.278 98.0793 154.915 87.6344 139.31C77.2532 123.705 85.7875 130.393 87.6344 133.259C89.7361 136.571 96.8055 156.38 94.3217 170.074C94.3217 170.074 93.6849 183.577 93.3027 184.214C93.048 184.724 91.201 184.278 91.201 184.278Z" fill="#EACE03"/>
<path d="M133.49 139.312C133.49 139.312 134.318 138.484 133.49 131.605C132.662 124.726 135.974 118.484 135.974 118.484C135.974 118.484 134.509 133.07 134.7 134.726C134.764 136.446 133.49 139.312 133.49 139.312Z" fill="#EACE03"/>
<path d="M135.592 146.382C135.592 146.382 135.592 145.554 131.198 142.242C127.058 138.93 125.402 133.707 125.402 133.707C125.402 133.707 132.662 142.433 133.745 143.261C134.573 144.089 135.592 146.382 135.592 146.382Z" fill="#EACE03"/>
<path d="M136.038 154.918C136.038 154.918 136.675 154.281 136.484 148.867C136.292 143.453 139.159 138.867 139.159 138.867C139.159 138.867 137.057 150.077 137.057 151.351C137.057 152.88 136.038 154.918 136.038 154.918Z" fill="#EACE03"/>
<path d="M135.21 161.159C135.21 161.159 134.573 160.713 133.554 155.363C132.535 149.949 128.968 146 128.968 146C128.968 146 132.917 156.637 133.363 157.847C133.49 159.312 135.21 161.159 135.21 161.159Z" fill="#EACE03"/>
<path d="M132.917 166.191C132.917 166.191 139.604 146.637 129.796 131.669C119.797 116.701 128.14 123.134 129.796 125.873C131.643 129.185 138.522 148.166 136.229 161.223C136.229 161.223 135.401 165.618 135.21 166C134.764 166.574 132.917 166.191 132.917 166.191Z" fill="#EACE03"/>
<path d="M106.104 140.652C106.104 140.652 105.276 139.633 106.104 131.098C106.932 122.563 102.983 115.047 102.983 115.047C102.983 115.047 104.639 132.945 104.639 135.047C104.703 137.34 106.104 140.652 106.104 140.652Z" fill="#0B9D99"/>
<path d="M103.81 149.378C103.81 149.378 103.81 148.359 109.032 144.156C114.255 140.015 116.293 133.773 116.293 133.773C116.293 133.773 107.377 144.41 106.103 145.621C104.893 146.703 103.81 149.378 103.81 149.378Z" fill="#0B9D99"/>
<path d="M103.237 160.015C103.237 160.015 102.409 159.378 102.6 152.754C102.792 146.066 99.0337 140.461 99.0337 140.461C99.0337 140.461 101.518 154.219 101.518 155.875C101.581 157.467 103.237 160.015 103.237 160.015Z" fill="#0B9D99"/>
<path d="M103.81 171.416C103.81 171.416 104.638 170.78 104.829 164.155C105.02 157.531 108.969 152.117 108.969 152.117C108.969 152.117 105.657 165.62 105.402 167.276C105.53 168.932 103.81 171.416 103.81 171.416Z" fill="#0B9D99"/>
<path d="M106.74 184.348C106.74 184.348 98.6515 149.826 110.88 131.1C123.171 112.565 112.981 120.463 110.88 124.029C108.396 127.979 100.053 151.482 102.982 167.532C102.982 167.532 103.81 183.583 104.001 184.157C104.447 184.985 106.74 184.348 106.74 184.348Z" fill="#0B9D99"/>
<path d="M145.208 127.465C145.208 127.465 145.845 126.637 145.208 119.758C144.571 112.879 147.692 106.828 147.692 106.828C147.692 106.828 146.227 121.159 146.418 123.07C146.482 124.535 145.208 127.465 145.208 127.465Z" fill="#0B9D99"/>
<path d="M147.119 134.534C147.119 134.534 147.119 133.706 142.979 130.394C138.839 127.082 137.183 121.859 137.183 121.859C137.183 121.859 144.444 130.394 145.526 131.413C146.291 132.241 147.119 134.534 147.119 134.534Z" fill="#0B9D99"/>
<path d="M147.5 142.817C147.5 142.817 148.138 142.18 147.946 136.766C147.755 131.352 150.622 126.957 150.622 126.957C150.622 126.957 148.774 137.976 148.52 139.441C148.774 140.779 147.5 142.817 147.5 142.817Z" fill="#0B9D99"/>
<path d="M147.118 152.179C147.118 152.179 146.481 151.542 146.29 146.383C146.099 140.969 142.978 136.574 142.978 136.574C142.978 136.574 145.653 147.593 145.653 148.867C145.653 150.141 147.118 152.179 147.118 152.179Z" fill="#0B9D99"/>
<path d="M144.634 162.626C144.634 162.626 151.067 134.728 141.323 119.76C131.515 104.792 139.667 111.225 141.323 114.155C143.17 117.467 150.048 136.193 147.564 149.123C147.564 149.123 146.927 162.053 146.736 162.626C146.481 163.008 144.634 162.626 144.634 162.626Z" fill="#0B9D99"/>
<path d="M170.556 165.871C164.888 155.425 163.423 151.922 156.736 149.82C149.985 147.718 146.1 141.094 140.368 147.909C134.636 154.724 134.509 156.954 129.095 153.96C123.682 151.094 121.262 153.068 116.994 160.457C112.855 167.973 109.607 173.514 106.55 174.087C103.62 174.661 105.212 184.597 105.212 184.597L162.149 183.196L173.167 182.877C173.995 177.591 172.594 171.731 170.556 165.871Z" fill="#C4EDEE"/>
<path d="M129.032 185.109H128.268V190.332H129.032V185.109Z" fill="#754C24"/>
<path d="M128.586 185.555C128.268 185.619 125.847 184.027 125.593 181.734C125.338 179.313 125.911 177.657 126.357 176.511C127.185 174.473 128.777 173.645 129.351 173.645C129.351 173.645 131.007 173.708 131.516 176.957C132.026 180.205 132.79 178.995 132.026 182.243C131.389 184.918 129.223 185.555 128.586 185.555Z" fill="#76A814"/>
<path d="M69.2908 186.508H68.5264V191.731H69.2908V186.508Z" fill="#754C24"/>
<path d="M68.7815 186.954C68.4631 187.017 66.0427 185.425 65.7879 183.132C65.5332 180.712 66.1064 179.056 66.5522 177.909C67.3803 175.871 68.9726 175.043 69.5458 175.043C69.5458 175.043 71.2018 175.107 71.7114 178.355C72.2209 181.603 72.9853 180.393 72.2209 183.642C71.584 186.317 69.4185 187.017 68.7815 186.954Z" fill="#76A814"/>
<path d="M39.1676 185.555H38.4033V190.778H39.1676V185.555Z" fill="#754C24"/>
<path d="M38.6585 186.001C38.34 186.064 35.9197 184.472 35.6649 182.179C35.4101 179.759 35.9833 178.103 36.4292 176.956C37.2572 174.918 38.8495 174.09 39.4228 174.09C39.4228 174.09 41.0789 174.154 41.5885 177.402C42.098 180.65 42.8622 179.44 42.0979 182.689C41.461 185.364 39.3591 186.001 38.6585 186.001Z" fill="#76A814"/>
<path d="M99.1632 186.508H98.3989V191.731H99.1632V186.508Z" fill="#754C24"/>
<path d="M98.7171 186.954C98.3986 187.017 95.9783 185.425 95.7235 183.132C95.4687 180.712 96.0419 179.056 96.4878 177.909C97.3158 175.871 98.9081 175.043 99.4814 175.043C99.4814 175.043 101.137 175.107 101.647 178.355C102.156 181.603 102.921 180.393 102.156 183.642C101.52 186.317 99.354 187.017 98.7171 186.954Z" fill="#76A814"/>
<path d="M160.238 183.961H159.474V189.184H160.238V183.961Z" fill="#754C24"/>
<path d="M159.729 184.407C159.41 184.471 156.99 182.878 156.735 180.585C156.48 178.165 157.054 176.509 157.5 175.362C158.328 173.324 159.92 172.496 160.493 172.496C160.493 172.496 162.149 172.56 162.659 175.808C163.168 179.057 163.933 177.846 163.168 181.095C162.531 183.77 160.43 184.407 159.729 184.407Z" fill="#76A814"/>
<path d="M143.87 182.688H143.106V187.91H143.87V182.688Z" fill="#754C24"/>
<path d="M143.425 183.133C143.107 183.197 140.686 181.605 140.431 179.312C140.177 176.891 140.75 175.235 141.196 174.089C142.024 172.051 143.616 171.223 144.189 171.223C144.189 171.223 145.846 171.286 146.355 174.535C146.865 177.783 147.629 176.573 146.864 179.821C146.164 182.496 144.062 183.133 143.425 183.133Z" fill="#A9D661"/>
<path d="M114.129 182.305H113.365V187.528H114.129V182.305Z" fill="#754C24"/>
<path d="M113.62 182.751C113.301 182.814 110.881 181.222 110.626 178.929C110.372 176.509 110.945 174.853 111.391 173.706C112.219 171.668 113.811 170.84 114.384 170.84C114.384 170.84 116.04 170.904 116.55 174.152C117.059 177.4 117.824 176.19 117.059 179.439C116.423 182.114 114.321 182.751 113.62 182.751Z" fill="#A9D661"/>
<path d="M54.8351 185.109H54.0708V190.332H54.8351V185.109Z" fill="#754C24"/>
<path d="M54.389 185.555C54.0705 185.619 51.6501 184.027 51.3954 181.734C51.1406 179.313 51.7138 177.657 52.1597 176.511C52.9877 174.473 54.58 173.645 55.1532 173.645C55.1532 173.645 56.8094 173.708 57.3189 176.957C57.8285 180.205 58.5928 178.995 57.8285 182.243C57.1279 184.918 55.0259 185.555 54.389 185.555Z" fill="#A9D661"/>
<path d="M27.131 182.941H26.3667V188.164H27.131V182.941Z" fill="#754C24"/>
<path d="M26.6848 183.387C26.3664 183.451 23.946 181.859 23.6913 179.566C23.4365 177.145 24.0097 175.489 24.4556 174.343C25.2836 172.305 26.8759 171.477 27.4491 171.477C27.4491 171.477 29.1053 171.54 29.6148 174.789C30.1244 178.037 30.8887 176.827 30.1244 180.075C29.4875 182.75 27.3218 183.387 26.6848 183.387Z" fill="#A9D661"/>
<path d="M84.4503 184.727H83.686V189.949H84.4503V184.727Z" fill="#754C24"/>
<path d="M84.0042 185.173C83.6857 185.236 81.2654 183.644 81.0106 181.351C80.7558 178.93 81.329 177.274 81.7749 176.128C82.6029 174.09 84.1952 173.262 84.7685 173.262C84.7685 173.262 86.4246 173.325 86.9342 176.574C87.4437 179.822 88.2081 178.612 87.4438 181.86C86.8068 184.536 84.6411 185.173 84.0042 185.173Z" fill="#A9D661"/>
<path d="M173.167 179.566H172.403V184.789H173.167V179.566Z" fill="#754C24"/>
<path d="M172.658 180.012C172.34 180.076 169.919 178.484 169.664 176.191C169.41 173.77 169.983 172.114 170.429 170.968C171.257 168.93 172.849 168.102 173.422 168.102C173.422 168.102 175.078 168.165 175.588 171.414C176.098 174.662 176.862 173.452 176.098 176.7C175.461 179.375 173.295 180.012 172.658 180.012Z" fill="#A9D661"/>
</svg>
