<svg width="343" height="295" viewBox="0 0 343 295" fill="none" xmlns="http://www.w3.org/2000/svg">
<path d="M171.5 205.593C257.104 205.593 326.5 199.1 326.5 191.09C326.5 183.08 257.104 176.586 171.5 176.586C85.8959 176.586 16.5 183.08 16.5 191.09C16.5 199.1 85.8959 205.593 171.5 205.593Z" fill="#D5D5D5"/>
<path d="M133.836 185.164H76.6001V187.334H133.836V185.164Z" fill="#F1F1F1"/>
<path d="M241.962 185.164H184.726V187.334H241.962V185.164Z" fill="#F1F1F1"/>
<path d="M208.001 131.305H185.953V178.434H208.001V131.305Z" fill="#E9E9E9"/>
<path d="M192.355 133.641H188.903V137.09H192.355V133.641Z" fill="white"/>
<path d="M192.355 139.484H188.903V142.934H192.355V139.484Z" fill="white"/>
<path d="M197.813 133.641H194.361V137.09H197.813V133.641Z" fill="white"/>
<path d="M197.813 139.484H194.361V142.934H197.813V139.484Z" fill="white"/>
<path d="M192.355 145.383H188.903V148.833H192.355V145.383Z" fill="white"/>
<path d="M197.813 145.383H194.361V148.833H197.813V145.383Z" fill="white"/>
<path d="M208.001 178.434V141.766L185.953 178.434H208.001Z" fill="#F3F3F3"/>
<path d="M192.412 151.336H188.96V154.786H192.412V151.336Z" fill="white"/>
<path d="M197.867 151.336H194.416V154.786H197.867V151.336Z" fill="white"/>
<path d="M192.355 157.234H188.903V160.684H192.355V157.234Z" fill="white"/>
<path d="M197.813 157.234H194.361V160.684H197.813V157.234Z" fill="white"/>
<path d="M192.189 163.188H188.737V166.637H192.189V163.188Z" fill="white"/>
<path d="M197.644 163.188H194.192V166.637H197.644V163.188Z" fill="white"/>
<path d="M192.189 169.086H188.737V172.536H192.189V169.086Z" fill="white"/>
<path d="M197.644 169.086H194.192V172.536H197.644V169.086Z" fill="white"/>
<path d="M237.731 114.945H207.999V178.433H237.731V114.945Z" fill="#E9E9E9"/>
<path d="M216.63 118.062H211.953V122.736H216.63V118.062Z" fill="white"/>
<path d="M216.63 126.02H211.953V130.693H216.63V126.02Z" fill="white"/>
<path d="M223.978 118.062H219.301V122.736H223.978V118.062Z" fill="white"/>
<path d="M223.978 126.02H219.301V130.693H223.978V126.02Z" fill="white"/>
<path d="M216.685 133.977H212.008V138.651H216.685V133.977Z" fill="white"/>
<path d="M224.092 133.977H219.415V138.651H224.092V133.977Z" fill="white"/>
<path d="M237.731 178.434V129.023L207.999 178.434H237.731Z" fill="#F3F3F3"/>
<path d="M216.685 141.934H212.008V146.608H216.685V141.934Z" fill="white"/>
<path d="M224.092 141.934H219.415V146.608H224.092V141.934Z" fill="white"/>
<path d="M216.63 149.887H211.953V154.561H216.63V149.887Z" fill="white"/>
<path d="M223.978 149.887H219.301V154.561H223.978V149.887Z" fill="white"/>
<path d="M216.352 157.844H211.675V162.518H216.352V157.844Z" fill="white"/>
<path d="M223.756 157.844H219.08V162.518H223.756V157.844Z" fill="white"/>
<path d="M216.352 165.801H211.675V170.475H216.352V165.801Z" fill="white"/>
<path d="M223.756 165.801H219.08V170.475H223.756V165.801Z" fill="white"/>
<path d="M242.519 177.953L244.023 110.125H245.47V176.395V177.953H242.519Z" fill="#686867"/>
<path d="M254.936 160.484C254.936 160.484 244.858 171.111 231.05 159.816C217.242 148.52 227.375 132.941 229.435 127.488C231.551 122.035 236.228 119.364 234.781 110.294C233.444 101.225 233.611 98.1642 236.061 91.3759C238.511 84.5875 242.241 71.6785 244.524 72.6801C246.807 73.6816 251.372 74.1268 251.706 82.4175C252.04 90.6525 251.372 93.2121 254.991 100.668C258.499 108.124 259.668 114.579 258.499 120.866C257.385 127.154 257.664 128.934 260.281 134.443C262.897 139.896 266.238 143.012 262.897 150.857C259.445 158.703 254.936 160.484 254.936 160.484Z" fill="#8AC43F"/>
<path d="M178.436 178.436L178.936 154.844H179.437V177.88V178.436H178.436Z" fill="#686867"/>
<path d="M182.666 172.314C182.666 172.314 179.159 175.987 174.37 172.036C169.582 168.085 173.09 162.632 173.758 160.796C174.537 158.849 176.096 157.958 175.595 154.843C175.094 151.727 175.15 150.669 176.041 148.332C176.876 145.995 178.212 141.488 178.992 141.822C179.771 142.156 181.441 142.323 181.497 145.161C181.608 147.999 181.386 148.944 182.611 151.504C183.891 154.119 184.225 156.345 183.891 158.515C183.557 160.685 183.613 161.297 184.504 163.189C185.45 165.136 186.619 166.138 185.45 168.864C184.281 171.591 182.666 172.314 182.666 172.314Z" fill="#8AC43F"/>
<path fill-rule="evenodd" clip-rule="evenodd" d="M146.422 166.192C147.814 166.971 148.315 168.695 147.48 170.087L137.402 187.948C136.845 188.838 135.954 189.394 134.897 189.394H87.237C85.6224 189.394 84.3418 188.115 84.3418 186.501C84.3418 184.887 85.6224 183.608 87.237 183.608H133.226L142.413 167.193C143.304 165.969 145.085 165.413 146.422 166.192Z" fill="#3DBCC8"/>
<path fill-rule="evenodd" clip-rule="evenodd" d="M73.9315 191.618C76.27 191.618 78.2186 189.727 78.2186 187.334C78.2186 184.941 76.3257 183.049 73.9315 183.049C71.5931 183.049 69.6444 184.941 69.6444 187.334C69.5887 189.727 71.5931 191.618 73.9315 191.618ZM73.9315 197.35C79.4992 197.35 84.0091 192.843 84.0091 187.278C84.0091 181.714 79.4992 177.207 73.9315 177.207C68.3638 177.207 63.854 181.714 63.854 187.278C63.9097 192.843 68.4195 197.35 73.9315 197.35Z" fill="#20505A"/>
<path fill-rule="evenodd" clip-rule="evenodd" d="M155.832 191.618C158.171 191.618 160.12 189.727 160.12 187.334C160.12 184.941 158.227 183.049 155.832 183.049C153.438 183.049 151.545 184.941 151.545 187.334C151.545 189.727 153.438 191.618 155.832 191.618ZM155.832 197.35C161.4 197.35 165.91 192.843 165.91 187.278C165.91 181.714 161.4 177.207 155.832 177.207C150.265 177.207 145.755 181.714 145.755 187.278C145.755 192.843 150.265 197.35 155.832 197.35Z" fill="#20505A"/>
<path fill-rule="evenodd" clip-rule="evenodd" d="M134.73 131.246C136.178 130.579 137.848 131.191 138.516 132.637L139.908 135.531C140.576 136.977 139.964 138.647 138.516 139.314C137.069 139.982 135.398 139.37 134.73 137.923L133.338 135.03C132.67 133.639 133.338 131.97 134.73 131.246Z" fill="#20505A"/>
<path fill-rule="evenodd" clip-rule="evenodd" d="M139.909 159.29L145.978 174.759C146.256 175.594 147.147 176.818 147.871 177.374C148.873 178.042 149.987 178.265 151.212 177.541C152.604 176.54 152.214 173.591 151.156 171.198L149.875 168.305L139.965 144.156L131.669 123.012L127.159 125.237L139.909 159.29Z" fill="#65C8D0"/>
<path fill-rule="evenodd" clip-rule="evenodd" d="M127.158 125.182L121.98 110.937C122.259 110.937 120.143 110.882 118.918 111.494C118.25 111.772 116.58 112.774 116.246 112.551C115.355 112.162 114.742 111.494 114.631 110.325C114.631 109.268 115.299 108.656 116.246 108.489L122.426 108.044L122.203 106.876L117.582 107.265L117.415 106.486L123.818 105.93L124.43 108.545C125.599 108.712 126.546 109.101 127.158 110.381L131.668 122.956L127.158 125.182Z" fill="#1A1A1A"/>
<g opacity="0.96">
<path d="M137.735 146.046C137.513 146.101 137.346 146.268 137.178 146.435L136.622 145.211L135.954 145.489L136.956 147.937C137.234 148.605 138.014 148.939 138.682 148.605C139.35 148.327 139.684 147.548 139.461 146.88C139.294 146.101 138.459 145.823 137.735 146.046ZM138.515 147.882C138.236 148.049 137.847 147.882 137.735 147.604C137.568 147.325 137.735 146.936 138.014 146.825C138.292 146.658 138.682 146.825 138.793 147.103C138.96 147.381 138.849 147.715 138.515 147.882Z" fill="white"/>
<path d="M140.797 153.386C140.129 153.664 139.795 154.443 140.017 155.111L140.574 156.391L141.242 156.113L140.686 154.833C140.519 154.555 140.686 154.221 140.964 154.054C141.242 153.887 141.576 154.054 141.743 154.332L142.3 155.612L142.968 155.334L142.412 154.054C142.245 153.497 141.521 153.164 140.797 153.386Z" fill="white"/>
<path d="M139.516 150.385C139.293 150.44 139.237 150.663 139.293 150.83L140.128 152.889L140.908 152.61L140.017 150.552C139.961 150.385 139.738 150.273 139.516 150.385Z" fill="white"/>
<path d="M139.185 150.164C139.492 150.164 139.741 149.915 139.741 149.607C139.741 149.3 139.492 149.051 139.185 149.051C138.878 149.051 138.628 149.3 138.628 149.607C138.628 149.915 138.878 150.164 139.185 150.164Z" fill="white"/>
<path d="M132.892 134.081C132.669 134.136 132.502 134.303 132.335 134.47L131.778 133.246L131.11 133.524L132.112 135.973C132.39 136.64 133.17 136.974 133.838 136.64C134.506 136.362 134.84 135.583 134.618 134.915C134.395 134.136 133.671 133.858 132.892 134.081ZM133.671 135.917C133.393 136.084 133.003 135.917 132.892 135.639C132.725 135.361 132.892 134.971 133.17 134.86C133.448 134.693 133.838 134.86 133.949 135.138C134.116 135.472 133.949 135.806 133.671 135.917Z" fill="white"/>
<path d="M135.953 141.537C135.285 141.815 134.951 142.594 135.174 143.262L135.73 144.541L136.399 144.263L135.842 142.983C135.675 142.705 135.842 142.371 136.12 142.204C136.399 142.038 136.733 142.204 136.9 142.483L137.456 143.762L138.125 143.484L137.568 142.204C137.401 141.537 136.621 141.259 135.953 141.537Z" fill="white"/>
<path d="M134.73 138.419C134.507 138.475 134.452 138.698 134.507 138.864L135.343 140.923L136.122 140.645L135.231 138.586C135.12 138.419 134.897 138.364 134.73 138.419Z" fill="white"/>
<path d="M134.395 138.308C134.703 138.308 134.952 138.059 134.952 137.752C134.952 137.444 134.703 137.195 134.395 137.195C134.088 137.195 133.839 137.444 133.839 137.752C133.839 138.059 134.088 138.308 134.395 138.308Z" fill="white"/>
</g>
<path d="M97.2044 179.375C98.8191 178.708 100.768 177.483 101.714 177.483C101.993 177.483 102.271 177.316 102.494 177.094C102.716 176.816 103.106 176.649 103.496 176.482C103.719 176.426 103.941 176.482 104.108 176.649C104.665 177.261 104.721 177.929 104.387 178.652L104.665 178.707L109.064 180.21C109.231 180.265 109.342 180.265 109.509 180.377C112.237 180.989 113.017 182.046 112.961 183.27C112.961 183.548 112.683 183.827 112.349 183.827L95.7568 183.882L95.8125 181.434C95.8125 180.989 95.9796 180.599 96.2023 180.21C96.4807 179.765 96.8147 179.486 97.2044 179.375Z" fill="#0299C1"/>
<path d="M105.5 178.988L104.386 180.991C104.219 181.27 104.33 181.603 104.609 181.77C104.776 181.826 104.999 181.77 105.054 181.603L106.279 179.266L105.5 178.988Z" fill="black"/>
<path d="M106.892 179.484L105.723 181.543C105.555 181.821 105.667 182.211 105.945 182.378C106.112 182.433 106.335 182.378 106.391 182.211L107.671 179.763L106.892 179.484Z" fill="black"/>
<path d="M102.716 91.2937L105.054 95.4669C105.333 96.079 105.834 96.6354 106.335 96.9693L116.858 104.87C117.916 105.649 118.584 106.762 119.196 107.986C119.363 108.376 119.475 108.765 119.475 109.155C119.475 109.767 119.252 110.212 118.862 111.047C118.305 111.937 118.083 112.048 116.579 111.659C116.524 111.826 117.359 110.88 117.582 110.212C117.86 109.433 117.415 108.098 116.802 107.541C115.577 106.484 114.297 105.538 113.016 104.815C112.738 104.648 112.404 104.537 112.014 104.425C109.898 103.98 107.727 103.257 105.611 102.367C105.221 102.2 104.832 101.921 104.553 101.588C102.27 99.4732 100.377 96.9693 98.2061 93.6864L102.493 90.793L102.716 91.2937Z" fill="#DBAD8D"/>
<path d="M102.715 91.4067L105.22 96.3032C105.499 96.9153 106 97.4717 106.501 97.8055L117.024 105.707C118.082 106.541 118.861 107.599 119.362 108.878C119.529 109.268 119.641 109.936 119.585 110.325C119.585 110.492 119.585 110.603 119.529 110.715C119.362 111.494 118.861 112.106 118.137 112.384C117.079 112.829 115.91 112.773 115.465 112.106C116.022 112.384 116.467 111.827 116.745 111.271C117.024 110.826 117.191 110.214 117.302 109.657C117.358 109.101 117.302 108.6 116.912 108.266C115.52 107.432 114.463 106.263 113.182 105.595C112.904 105.429 112.57 105.317 112.18 105.206C110.064 104.761 107.893 104.037 105.777 103.147C105.387 102.98 104.997 102.758 104.719 102.479C102.381 100.365 99.2627 96.2476 97.0913 92.909L102.548 90.0156L102.715 91.4067Z" fill="#EDBD98"/>
<path fill-rule="evenodd" clip-rule="evenodd" d="M117.525 106.544L118.361 106.488L118.917 107.212L117.525 107.323L117.303 106.544H117.525Z" fill="#1A1A1A"/>
<path d="M96.8134 131.637C101.379 137.646 94.9761 140.595 96.0339 147.383C96.4237 154.45 93.083 169.195 93.8625 177.653C91.6911 178.654 90.2992 179.1 88.963 179.211C89.5754 176.763 90.0208 174.426 90.1322 172.534C89.464 164.41 90.5776 153.56 89.7424 150.11L88.7402 133.974L96.8134 131.637Z" fill="#FFD2C1"/>
<path d="M96.871 179.489L96.704 171.476C96.2586 164.243 96.8711 156.508 98.3743 148.273C98.43 147.828 98.3743 147.383 98.2073 146.882C94.8667 140.094 93.6418 132.86 94.1986 125.349L93.0293 120.842L99.8776 118.227C102.606 129.633 105.501 141.429 104.443 146.771C104.443 146.827 104.443 146.938 104.443 146.994C104.053 154.283 102.439 163.742 100.546 173.869C100.49 174.147 100.49 174.481 100.546 174.87L100.991 177.486L96.871 179.489Z" fill="#FFD2C1"/>
<path d="M104.498 102.369C103.217 105.318 104.386 108.545 105.054 110.103C105.221 110.493 105.166 110.604 105.221 111.383C105.221 111.939 104.999 112.218 104.943 112.496C104.887 112.607 104.609 113.108 104.442 113.108C102.326 113.33 101.881 113.386 100.378 112.997C97.7051 113.275 95.1439 113.219 93.0281 112.83C91.6362 112.329 92.5271 111.327 91.9146 110.381C91.8589 110.326 91.6362 109.491 91.5806 109.324C91.1351 107.488 92.4714 104.205 93.0281 102.591C93.0838 102.369 93.1952 102.035 93.1952 101.812C93.1952 100.143 90.8567 93.5218 92.193 89.1817C92.1373 86.0101 94.253 83.1167 95.2552 81.7812L97.9834 82.2264L100.322 82.1708L102.772 85.2311C103.05 85.6206 103.328 86.0657 103.44 86.5108L105.444 93.4105C105.5 93.6887 105.611 94.0782 105.611 94.4121L105.778 96.3039C105.221 95.7475 103.774 93.1323 102.605 90.9066L97.705 93.1879L101.213 98.4183L104.498 102.369Z" fill="#153E44"/>
<path d="M104.776 101.645C103.662 105.373 103.439 107.209 104.998 110.158C105.054 110.214 105.11 110.993 105.11 111.104C105.11 111.327 105.165 111.883 104.943 112.273C104.887 112.329 104.609 112.829 104.553 112.829C102.382 113.052 101.881 112.774 100.322 112.44C97.6491 112.718 95.1436 112.829 93.0279 112.44C92.2484 111.716 92.9166 111.271 92.0257 110.103C91.9701 110.103 91.7473 109.157 91.7473 109.101C91.1906 107.042 93.0836 104.427 93.6404 102.814C93.6961 102.591 93.8074 102.257 93.8074 102.035C93.8074 100.365 91.3019 94.0778 92.1927 88.291C93.1949 84.6187 94.8653 82.226 95.8675 80.8906L97.9275 81.3358L99.9319 81.1688L102.827 84.2848C103.105 84.6743 103.384 85.1194 103.495 85.5646L105.5 92.4642C105.555 92.7424 105.667 93.1319 105.667 93.4658L105.722 95.3576C105.166 94.8012 103.829 92.0747 102.604 89.9047L97.7048 92.186L101.212 97.4164L104.776 101.645Z" fill="#20505A"/>
<path d="M88.7958 179.209C89.8537 179.042 90.8559 178.82 91.7467 178.541C92.8046 178.096 93.6398 177.707 94.1965 177.54C94.3636 176.983 94.5862 176.649 94.8646 176.371C95.0873 176.204 95.4214 176.149 95.6441 176.316C96.3122 176.872 96.4236 177.595 95.9225 178.541L100.822 180.155C100.878 180.155 101.045 180.211 101.1 180.211C103.606 180.489 104.831 181.657 104.998 183.382C104.998 183.66 104.775 183.994 104.385 183.994L93.7511 183.827H87.7379C87.4596 183.827 87.1812 183.605 87.1812 183.382C86.9585 182.102 87.2368 180.878 88.0163 179.71C88.1834 179.432 88.5174 179.209 88.7958 179.209Z" fill="#0095C9"/>
<path d="M96.8129 178.766L95.9778 180.379C95.9221 180.435 95.9221 180.602 95.9778 180.657C96.0335 180.713 96.2005 180.824 96.3675 180.824C96.4232 180.824 96.5345 180.769 96.5902 180.657L97.3697 178.933L96.8129 178.766Z" fill="black"/>
<path d="M97.649 179.043L96.8699 180.545C96.8143 180.601 96.8699 180.768 96.8699 180.824C96.9256 180.879 97.0925 180.99 97.1482 180.99C97.2038 180.99 97.3151 180.935 97.3151 180.824L97.9828 179.154L97.649 179.043Z" fill="black"/>
<path d="M104.553 113.052C104.553 112.996 104.497 112.941 104.441 112.941C103.829 112.996 101.156 112.829 100.488 112.663C99.7086 112.44 97.1475 112.941 95.9782 112.829C94.809 112.718 93.25 112.551 93.0273 112.44C92.8046 112.273 87.8494 120.619 88.3505 127.797C88.7959 134.085 88.9072 143.433 89.4083 144.768C89.9094 146.104 95.6999 145.38 95.9782 145.102C96.0896 144.991 95.9225 144.991 96.368 143.377C97.0918 140.873 97.3145 135.921 97.2031 135.698L96.4793 142.876C96.4793 142.876 97.3145 145.046 97.4815 145.491C97.6485 145.992 104.72 144.935 104.664 143.043C104.608 141.207 105.499 130.635 105.109 127.018C104.72 123.624 104.553 114.332 104.553 113.052Z" fill="#564B47"/>
<path d="M95.8671 152.224C95.8671 152.224 96.7022 147.049 96.0898 146.827C95.4773 146.548 93.1946 146.215 92.0254 147.105C90.9118 147.995 89.5756 148.106 89.5756 148.106C89.5199 148.162 89.7983 152.28 90.021 152.558C90.4107 153.114 94.8649 152.725 95.366 152.391C95.4773 152.28 95.8671 152.335 95.8671 152.224Z" fill="#CECECE"/>
<path d="M104.274 150.496C104.33 150.162 104.664 146.601 104.72 144.988C104.72 144.821 103.217 144.932 102.214 145.377C101.546 145.655 100.711 146.323 100.266 146.323C99.9316 146.323 99.6532 146.434 99.3192 146.49C99.0408 146.546 98.6511 146.657 98.4284 146.657C98.4284 146.657 98.15 146.657 98.0943 146.601L98.2613 146.935C98.2613 146.935 98.5397 147.603 98.484 148.159C98.4283 148.771 98.2056 149.662 98.2056 149.662L98.0386 150.775L97.9272 151.609C97.9272 151.609 100.154 151.164 101.825 151.442C103.606 151.72 104.219 151.108 104.219 151.053C104.219 150.886 104.219 150.775 104.274 150.496Z" fill="#CECECE"/>
<path d="M96.0319 151.053C96.0319 151.053 96.4773 147.937 96.2546 147.603C96.0876 147.325 94.974 146.323 94.3616 147.992C93.7491 149.662 94.4173 151.275 94.5286 151.498C94.8627 152.221 95.8092 152.054 96.0319 151.053Z" fill="#AEAFAF"/>
<path d="M104.329 149.83C104.329 149.886 104.663 146.826 104.663 146.269C104.663 145.935 103.215 144.989 102.603 146.659C101.99 148.328 102.658 149.886 102.77 150.164C103.048 150.943 104.05 150.887 104.329 149.83Z" fill="#AEAFAF"/>
<path d="M97.644 75.2695L101.152 75.8816C99.8711 78.0516 99.37 80.2217 100.317 81.891L95.6953 81.0563C96.9759 79.8878 97.9781 77.3839 97.644 75.2695Z" fill="#ECBC97"/>
<path d="M102.546 66.3672C102.546 66.3672 104.216 68.7598 103.66 70.4291C103.604 70.6516 103.493 70.8742 103.493 71.0411C103.27 71.9871 103.66 71.9314 104.161 72.4878C104.606 72.933 104.161 73.2112 103.882 73.3781C103.715 73.4338 103.604 73.6563 103.66 73.8232C103.66 74.0458 103.66 74.2127 103.66 74.2684C103.66 74.324 103.938 74.8805 103.214 74.8805C102.49 74.8805 101.655 74.491 101.544 74.491C101.377 74.491 102.991 74.9361 103.27 75.103C103.27 75.103 103.493 75.2699 103.437 75.3812C103.381 75.5482 103.158 75.6595 103.047 75.882C102.936 76.1046 102.88 76.7167 102.769 76.9949C102.602 77.2731 100.987 77.6069 100.096 77.2731C99.4282 77.0505 98.3703 76.7723 97.9805 76.661C97.8135 76.661 97.5908 76.2715 97.5352 76.1602C97.3681 75.9933 96.867 75.7707 96.4216 75.4925C95.6978 74.8805 96.3659 74.6579 96.4216 74.3797C96.4773 74.1015 96.6443 73.4338 96.5886 73.2668C96.5329 73.0443 95.8648 72.2096 95.7534 71.8201C95.5864 71.2081 96.0318 70.3178 96.2546 70.0396C96.5329 69.7614 97.1454 69.5944 97.4794 69.8726C97.7578 70.0952 98.3146 70.5404 98.5373 70.2621C98.76 69.9839 100.486 67.4244 100.876 67.2575C101.266 67.0905 102.546 66.3672 102.546 66.3672Z" fill="#ECBC97"/>
<path d="M96.9774 73.8794C96.5877 74.9923 96.5877 75.8269 96.8661 76.439C96.8661 76.9397 96.532 77.1067 96.198 76.8285C94.2493 74.881 93.3584 76.0495 92.5233 74.6028C92.4676 74.4358 91.0757 73.2673 90.9086 73.2117C90.6302 73.0448 90.2405 72.8222 90.1848 72.3771C90.0178 71.7094 90.1291 70.8191 90.1291 70.4852C90.1848 68.816 90.7416 67.3693 92.4676 65.4774C92.6903 65.2549 93.8038 64.3646 94.0265 64.1977C95.3071 63.4743 96.5877 63.2517 97.9796 63.363C98.258 63.363 98.592 63.4187 98.8704 63.53C100.763 64.0307 102.322 64.8097 102.601 66.3677C102.656 66.5903 102.545 66.8128 102.378 66.8685C100.652 67.7588 99.5386 69.0385 98.7591 70.5965C98.7034 70.8191 98.4807 70.8191 98.3136 70.7634L97.5899 70.2627C97.0888 70.0401 96.4763 70.3183 96.3093 70.7634V70.8191C95.9195 71.6537 96.1423 72.7109 96.8104 73.2673C96.9774 73.4899 97.0331 73.6568 96.9774 73.8794Z" fill="#42210B"/>
<path d="M101.097 64.5282C100.93 64.9177 98.2016 65.808 96.754 67.4773C95.3064 69.1465 94.6382 69.8142 94.4155 69.9255C94.1928 69.9812 94.9723 68.4232 94.9723 68.4232L98.5356 65.3072L100.54 64.25C100.54 64.25 100.985 64.3613 101.041 64.5282C101.097 64.5282 101.097 64.5282 101.097 64.5282Z" fill="#222323"/>
<path d="M92.3555 71.8195C92.3555 71.8195 94.4155 71.597 94.8609 73.767C95.362 75.9927 99.9832 78.8305 99.9832 78.8305L100.15 78.2184C99.7048 77.8289 98.647 76.9943 98.4243 76.8273C98.0902 76.6048 96.2529 75.0468 95.9745 74.546C95.6961 74.0452 94.9166 72.4316 94.8053 71.6526C94.6939 70.8736 94.5826 69.8164 94.5826 69.8164C94.5826 69.8164 92.5782 71.43 92.5782 71.5413C92.4112 71.597 92.3555 71.8195 92.3555 71.8195Z" fill="black"/>
<path d="M94.2497 61.636C91.967 62.3593 90.4637 63.9173 89.6842 65.0858C89.0717 65.976 88.682 67.0333 88.7377 68.2017C88.7377 69.2589 88.849 70.65 89.3501 71.5959C90.408 73.4878 92.6908 75.4909 92.6908 75.4909C92.6908 75.4909 92.8578 74.8788 92.5238 73.5434C92.134 72.2636 92.3567 71.5959 93.1919 71.2621C94.027 70.8726 94.3054 70.8169 94.5838 69.7041C94.9735 68.5356 96.9222 66.922 96.9222 66.922C96.9222 66.922 99.2606 65.1971 99.6504 65.0301C100.04 64.8632 100.82 64.4737 101.154 64.585C101.432 64.4737 98.1471 60.4118 94.2497 61.636Z" fill="#29A9E0"/>
<path d="M92.693 68.8713C92.6373 68.9269 92.5817 68.9826 92.5817 69.0939L92.2476 68.76L92.0806 68.9269L92.7487 69.5946C92.9714 69.7616 93.2498 69.7616 93.4168 69.539C93.5839 69.3721 93.5839 69.0382 93.4168 68.8713C93.2498 68.7044 92.86 68.7044 92.693 68.8713ZM93.1941 69.3721C93.0828 69.4834 92.9714 69.4834 92.8601 69.3721C92.7487 69.2608 92.7487 69.1495 92.8601 69.0382C92.9714 68.9269 93.0828 68.9269 93.1941 69.0382C93.3055 69.1495 93.3055 69.2608 93.1941 69.3721Z" fill="white"/>
<path d="M93.2488 68.3135C93.1931 68.3691 93.1931 68.4247 93.2488 68.4804L93.8052 69.0368L94.0278 68.8142L93.4157 68.2578C93.4157 68.2578 93.3044 68.2578 93.2488 68.3135Z" fill="white"/>
<path d="M93.8068 67.7035C93.6399 67.8704 93.6399 68.2043 93.8068 68.3712L94.1407 68.7051L94.3076 68.5382L93.9738 68.2043C93.8625 68.1487 93.8625 67.9817 93.9738 67.9261C94.0294 67.8148 94.1964 67.8148 94.252 67.9261L94.5858 68.2599L94.7528 68.093L94.4189 67.7592C94.3076 67.481 94.0294 67.481 93.8068 67.7035Z" fill="white"/>
<path d="M93.0272 68.2596C93.1194 68.2596 93.1942 68.1849 93.1942 68.0927C93.1942 68.0005 93.1194 67.9258 93.0272 67.9258C92.935 67.9258 92.8604 68.0005 92.8604 68.0927C92.8604 68.1849 92.935 68.2596 93.0272 68.2596Z" fill="white"/>
<path d="M95.0317 66.201C95.1239 66.201 95.1986 66.1263 95.1986 66.0341C95.1986 65.9419 95.1239 65.8672 95.0317 65.8672C94.9395 65.8672 94.8647 65.9419 94.8647 66.0341C94.8647 66.1263 94.9395 66.201 95.0317 66.201Z" fill="white"/>
<path d="M95.8112 65.5883C95.6443 65.7553 95.6443 66.0891 95.8112 66.256L96.1451 66.5899L96.312 66.423L95.9782 66.0891C95.8669 66.0335 95.8669 65.8665 95.9782 65.8109C96.0338 65.6996 96.2008 65.6996 96.2564 65.8109L96.5902 66.1448L96.7572 65.9778L96.4233 65.644C96.3121 65.3657 96.0338 65.4214 95.8112 65.5883Z" fill="white"/>
<path d="M94.6974 66.758C94.6417 66.8136 94.5861 66.8693 94.5861 66.9806L94.252 66.6467L94.085 66.8137L94.7531 67.4814C94.9758 67.6483 95.2542 67.6483 95.4212 67.4257C95.5883 67.2588 95.5883 66.9249 95.4212 66.758C95.2542 66.5911 94.8644 66.5911 94.6974 66.758ZM95.1985 67.2588C95.0871 67.3701 94.9758 67.3701 94.8645 67.2588C94.7531 67.1475 94.7531 67.0362 94.8645 66.9249C94.9758 66.8137 95.0871 66.8137 95.1985 66.9249C95.2542 67.0362 95.3099 67.2032 95.1985 67.2588Z" fill="white"/>
<path d="M95.2536 66.2002C95.198 66.2558 95.198 66.3115 95.2536 66.3671L95.8101 66.9235L96.0327 66.701L95.4206 66.1445C95.4206 66.1445 95.3093 66.1445 95.2536 66.2002Z" fill="white"/>
<path d="M106.332 97.6382C106.332 97.6382 105.441 96.6923 105.33 96.4698C105.219 96.2472 104.216 96.4698 103.882 96.748C103.604 97.0262 101.488 98.3059 101.599 98.5285C101.711 98.7511 103.882 102.423 104.94 102.702C105.998 102.98 107.501 99.1962 107.39 98.7511C107.39 98.3616 106.332 97.6382 106.332 97.6382Z" fill="#CECECE"/>
<path d="M106.278 99.1407C106.278 99.1407 105.109 97.527 104.719 97.6383C104.385 97.694 101.879 99.1407 102.269 99.7527C102.714 100.365 103.55 101.645 103.772 101.811C103.995 102.034 105.331 101.366 105.61 100.921C105.944 100.476 106.278 99.864 106.278 99.6971C106.333 99.4745 106.389 99.1963 106.278 99.1407Z" fill="#AEAFAF"/>
<path d="M96.3662 126.626C96.6444 131.356 96.867 135.807 96.867 138.756C96.867 138.756 96.9783 138.422 96.9783 138.144C97.0896 137.309 96.5331 128.295 96.5331 128.24C96.5331 128.184 96.4218 126.348 96.3662 126.404L96.3105 126.459L96.3662 126.626Z" fill="#423836"/>
<path fill-rule="evenodd" clip-rule="evenodd" d="M133.002 124.348C132.779 124.236 132.278 124.459 132.278 124.459L133.392 127.352L133.837 127.185C133.782 127.13 133.726 124.57 133.002 124.348Z" fill="#1A1A1A"/>
</svg>
