<svg width="343" height="295" viewBox="0 0 343 295" fill="none" xmlns="http://www.w3.org/2000/svg">
<g clip-path="url(#clip0_21671_117424)">
<path d="M187.5 257.915C280.008 257.915 355 250.994 355 242.457C355 233.921 280.008 227 187.5 227C94.9923 227 20 233.921 20 242.457C20 250.994 94.9923 257.915 187.5 257.915Z" fill="#F3F3F3"/>
<path d="M273.602 241.419H210.766V243.846H273.602V241.419Z" fill="#F2F2F2"/>
<path d="M172.906 241.244H110.07V243.671H172.906V241.244Z" fill="#F2F2F2"/>
<path d="M230.332 75.5469H175V197.236H230.332V75.5469Z" fill="#E9E9E9"/>
<path d="M197.794 95.9505H184.927C184.379 95.9505 183.83 95.4019 183.83 94.8532V84.9259C183.83 84.3772 184.379 83.8286 184.927 83.8286H197.794C198.342 83.8286 198.891 84.3772 198.891 84.9259V94.8532C198.891 95.4019 198.342 95.9505 197.794 95.9505Z" fill="white"/>
<path d="M218.745 95.9505H205.878C205.33 95.9505 204.781 95.4019 204.781 94.8532V84.9259C204.781 84.3772 205.33 83.8286 205.878 83.8286H218.745C219.294 83.8286 219.842 84.3772 219.842 84.9259V94.8532C219.842 95.4019 219.294 95.9505 218.745 95.9505Z" fill="white"/>
<path d="M197.794 113.036H184.927C184.379 113.036 183.83 112.487 183.83 111.939V102.011C183.83 101.463 184.379 100.914 184.927 100.914H197.794C198.342 100.914 198.891 101.463 198.891 102.011V111.939C198.891 112.487 198.342 113.036 197.794 113.036Z" fill="white"/>
<path d="M218.745 113.036H205.878C205.33 113.036 204.781 112.487 204.781 111.939V102.011C204.781 101.463 205.33 100.914 205.878 100.914H218.745C219.294 100.914 219.842 101.463 219.842 102.011V111.939C219.842 112.487 219.294 113.036 218.745 113.036Z" fill="white"/>
<path d="M198.159 130.317H185.293C184.744 130.317 184.195 129.769 184.195 129.22V119.293C184.195 118.744 184.744 118.195 185.293 118.195H198.159C198.708 118.195 199.256 118.744 199.256 119.293V129.22C199.256 129.952 198.89 130.317 198.159 130.317Z" fill="white"/>
<path d="M219.112 130.317H206.246C205.697 130.317 205.148 129.769 205.148 129.22V119.293C205.148 118.744 205.697 118.195 206.246 118.195H219.112C219.661 118.195 220.209 118.744 220.209 119.293V129.22C220.209 129.952 219.844 130.317 219.112 130.317Z" fill="white"/>
<path d="M198.708 148.709H185.841C185.293 148.709 184.744 148.161 184.744 147.612V137.685C184.744 137.136 185.293 136.587 185.841 136.587H198.708C199.256 136.587 199.805 137.136 199.805 137.685V147.612C199.805 148.161 199.256 148.709 198.708 148.709Z" fill="white"/>
<path d="M219.661 148.709H206.794C206.246 148.709 205.697 148.161 205.697 147.612V137.685C205.697 137.136 206.246 136.587 206.794 136.587H219.661C220.21 136.587 220.758 137.136 220.758 137.685V147.612C220.758 148.161 220.21 148.709 219.661 148.709Z" fill="white"/>
<path d="M198.708 165.612H185.841C185.293 165.612 184.744 165.063 184.744 164.515V154.587C184.744 154.038 185.293 153.49 185.841 153.49H198.708C199.256 153.49 199.805 154.038 199.805 154.587V164.515C199.805 165.063 199.256 165.612 198.708 165.612Z" fill="white"/>
<path d="M219.661 165.612H206.794C206.246 165.612 205.697 165.063 205.697 164.515V154.587C205.697 154.038 206.246 153.49 206.794 153.49H219.661C220.21 153.49 220.758 154.038 220.758 154.587V164.515C220.758 165.063 220.21 165.612 219.661 165.612Z" fill="white"/>
<path d="M211.574 172.234H191.719V197.419H211.574V172.234Z" fill="white"/>
<path d="M175 75.5469L200.733 57.8997L230.332 75.5469H175Z" fill="#BBBCBC"/>
<path d="M306.917 60.708H232.475V224.68H306.917V60.708Z" fill="#E9E9E9"/>
<path d="M263.719 88.2828H245.523C244.974 88.2828 244.426 87.7342 244.426 87.1855V73.0259C244.426 72.4773 244.974 71.9287 245.523 71.9287H263.719C264.267 71.9287 264.816 72.4773 264.816 73.0259V87.1855C264.816 87.7342 264.267 88.2828 263.719 88.2828Z" fill="white"/>
<path d="M291.856 88.2828H273.66C273.111 88.2828 272.562 87.7342 272.562 87.1855V73.0259C272.562 72.4773 273.111 71.9287 273.66 71.9287H291.856C292.404 71.9287 292.953 72.4773 292.953 73.0259V87.1855C292.953 87.7342 292.404 88.2828 291.856 88.2828Z" fill="white"/>
<path d="M263.719 111.26H245.523C244.974 111.26 244.426 110.711 244.426 110.162V96.0028C244.426 95.4541 244.974 94.9055 245.523 94.9055H263.719C264.267 94.9055 264.816 95.4541 264.816 96.0028V110.162C264.816 110.711 264.267 111.26 263.719 111.26Z" fill="white"/>
<path d="M291.856 111.26H273.66C273.111 111.26 272.562 110.711 272.562 110.162V96.0028C272.562 95.4541 273.111 94.9055 273.66 94.9055H291.856C292.404 94.9055 292.953 95.4541 292.953 96.0028V110.162C292.953 110.711 292.404 111.26 291.856 111.26Z" fill="white"/>
<path d="M264.281 134.615H246.086C245.537 134.615 244.988 134.066 244.988 133.518V119.358C244.988 118.809 245.537 118.261 246.086 118.261H264.281C264.83 118.261 265.379 118.809 265.379 119.358V133.518C265.379 134.249 264.83 134.615 264.281 134.615Z" fill="white"/>
<path d="M292.404 134.615H274.209C273.66 134.615 273.111 134.066 273.111 133.518V119.358C273.111 118.809 273.66 118.261 274.209 118.261H292.404C292.953 118.261 293.502 118.809 293.502 119.358V133.518C293.502 134.249 293.136 134.615 292.404 134.615Z" fill="white"/>
<path d="M264.83 159.238H246.634C246.086 159.238 245.537 158.689 245.537 158.14V143.981C245.537 143.432 246.086 142.884 246.634 142.884H264.83C265.379 142.884 265.927 143.432 265.927 143.981V158.14C265.927 158.689 265.562 159.238 264.83 159.238Z" fill="white"/>
<path d="M293.137 159.238H274.941C274.392 159.238 273.844 158.689 273.844 158.14V143.981C273.844 143.432 274.392 142.884 274.941 142.884H293.137C293.686 142.884 294.234 143.432 294.234 143.981V158.14C294.234 158.689 293.686 159.238 293.137 159.238Z" fill="white"/>
<path d="M264.83 182.031H246.634C246.086 182.031 245.537 181.483 245.537 180.934V166.775C245.537 166.226 246.086 165.677 246.634 165.677H264.83C265.379 165.677 265.927 166.226 265.927 166.775V180.934C265.927 181.666 265.562 182.031 264.83 182.031Z" fill="white"/>
<path d="M293.137 182.031H274.941C274.392 182.031 273.844 181.483 273.844 180.934V166.775C273.844 166.226 274.392 165.677 274.941 165.677H293.137C293.686 165.677 294.234 166.226 294.234 166.775V180.934C294.234 181.666 293.686 182.031 293.137 182.031Z" fill="white"/>
<path d="M232.475 60.7082L267.403 37L307.113 60.7082H232.475Z" fill="#BBBCBC"/>
<path d="M323.651 233.807C322.035 221.406 313.208 223.679 305.026 203.241C303.242 198.795 296.93 202.387 292.798 203.335C270.853 208.352 262.274 218.191 260.006 231.541C259.845 232.489 259.845 233.532 260.576 233.626C271.509 235.233 298.875 234.386 323.657 233.814L323.651 233.807Z" fill="#C4EDEE"/>
<path d="M311.712 210.606C311.712 210.606 312.378 209.845 311.712 203.883C311.045 197.82 313.986 192.423 313.986 192.423C313.986 192.423 312.755 205.115 312.849 206.629C312.849 208.143 311.712 210.606 311.712 210.606Z" fill="#0B9D99"/>
<path d="M313.415 216.857C313.415 216.857 313.32 216.097 309.626 213.163C305.932 210.229 304.512 205.774 304.512 205.774C304.512 205.774 310.952 213.351 311.806 214.105C312.661 214.865 313.415 216.85 313.415 216.85V216.857Z" fill="#0B9D99"/>
<path d="M313.797 224.34C313.797 224.34 314.362 223.869 314.174 219.132C314.08 214.394 316.637 210.417 316.637 210.417C316.637 210.417 314.934 220.168 314.84 221.305C314.746 222.443 313.797 224.334 313.797 224.334V224.34Z" fill="#0B9D99"/>
<path d="M313.131 229.643C313.131 229.643 312.465 229.266 311.711 224.623C310.951 219.98 307.734 216.575 307.734 216.575C307.734 216.575 311.24 225.854 311.523 226.991C311.711 228.035 313.131 229.643 313.131 229.643Z" fill="#0B9D99"/>
<path d="M311.147 234.091C311.147 234.091 317.021 217.14 308.401 203.978C299.781 190.815 306.887 196.495 308.401 198.958C310.104 201.797 316.073 218.371 313.987 229.831C313.987 229.831 313.32 233.62 313.038 234.091C312.755 234.468 311.147 234.091 311.147 234.091Z" fill="#0B9D99"/>
<path d="M322.738 196.406C322.738 196.406 321.977 195.552 322.738 188.075C323.498 180.592 319.992 174.058 319.992 174.058C319.992 174.058 321.506 189.684 321.412 191.575C321.318 193.466 322.738 196.406 322.738 196.406Z" fill="#0B9D99"/>
<path d="M320.652 204.078C320.652 204.078 320.747 203.129 325.296 199.63C329.838 196.029 331.641 190.444 331.641 190.444C331.641 190.444 323.781 199.724 322.738 200.673C321.601 201.621 320.652 204.084 320.652 204.084V204.078Z" fill="#0B9D99"/>
<path d="M320.181 213.263C320.181 213.263 319.515 212.597 319.71 206.823C319.898 201.049 316.682 196.124 316.682 196.124C316.682 196.124 318.862 208.149 318.862 209.569C318.862 210.989 320.188 213.263 320.188 213.263H320.181Z" fill="#0B9D99"/>
<path d="M320.746 223.303C320.746 223.303 321.412 222.738 321.695 216.957C321.978 211.184 325.389 206.446 325.389 206.446C325.389 206.446 322.55 218.283 322.361 219.703C322.078 221.029 320.753 223.303 320.753 223.303H320.746Z" fill="#0B9D99"/>
<path d="M323.209 234.568C323.209 234.568 316.11 204.36 326.809 188.163C337.414 171.972 328.606 178.883 326.809 182.006C324.723 185.512 317.435 205.962 319.992 219.979C319.992 219.979 320.659 233.996 320.941 234.561C321.224 235.126 323.216 234.561 323.216 234.561L323.209 234.568Z" fill="#0B9D99"/>
<g clip-path="url(#clip1_21671_117424)">
<path d="M153.746 188.255C153.726 188.241 153.706 188.226 153.689 188.212C153.283 187.888 148.585 184.15 147.46 183.525C146.282 182.871 145.021 182.75 145.427 181.648C145.833 180.545 148.243 179.003 149.086 178.717C149.834 178.462 151.308 177.901 151.625 177.78C151.665 177.765 151.703 177.748 151.74 177.725C151.993 177.586 153.041 177.019 153.312 177.039C153.62 177.059 155.407 175.156 157.466 178.121C159.524 181.089 160.284 181.306 160.284 181.798C160.284 182.261 158.628 186.849 155.571 188.805C155.246 189.013 154.829 188.996 154.512 188.779L153.746 188.258V188.255Z" stroke="black" stroke-width="4" stroke-miterlimit="10"/>
<path d="M160.981 190.118C160.981 190.118 155.518 191.481 156.185 188.105C156.853 184.729 157.631 180.817 161.856 180.759C166.082 180.699 166.525 182.333 171.197 184.185C175.869 186.036 176.511 186.586 184.963 186.803C193.414 187.02 196.048 187.075 197.496 186.965C198.944 186.855 200.334 193.333 199.445 195.074C198.555 196.816 191.523 195.398 191.117 195.231C190.711 195.063 167.752 191.264 164.974 190.5C162.193 189.737 160.984 190.118 160.984 190.118H160.981Z" fill="#131315"/>
<path d="M144.693 182.093C144.693 182.093 142.62 182.787 141.4 182.093C140.179 181.399 133.921 179.356 132.214 179.602C130.507 179.848 128.832 178.61 128.832 178.61C128.832 178.61 135.706 179.599 139.244 179.718C142.782 179.837 144.489 179.258 145.059 179.839C145.629 180.421 145.56 180.568 145.263 181.182C144.967 181.795 144.693 182.093 144.693 182.093Z" fill="#1E1E1E"/>
<path d="M192.988 194.235C192.988 194.235 182.792 219.544 181.074 219.5C179.355 219.457 178.71 226.203 178.549 226.883C178.388 227.563 176.013 230.847 181.782 231.99C187.553 233.132 214.537 238.117 214.537 238.117C214.537 238.117 220.309 239.26 223.804 238.525C227.298 237.79 230.226 236.32 231.607 236.156C232.989 235.991 238.761 228.723 240.468 226.597C242.175 224.473 259 198.743 259.161 197.435C259.323 196.127 257.077 192.925 255.776 189.901C254.475 186.878 244.599 173.877 244.599 173.877L235.344 163.919C235.344 163.919 234.097 163.21 233.015 163.919C231.933 164.628 229.685 166.829 229.523 167.972C229.362 169.115 229.198 173.2 229.362 173.854C229.526 174.507 233.073 181.833 233.073 181.833C233.073 181.833 225.131 180.687 224.969 181.914C224.808 183.14 225.252 188.574 225.407 191.753C225.562 194.932 225.646 195.931 225.407 197.198C225.249 198.037 220.064 219.697 220.064 219.697L200.237 213.034L202.295 192.945L201.022 193.509L193.394 192.878L192.991 194.232L192.988 194.235Z" fill="black"/>
<path d="M240.363 196.061L225.19 172.861C225.19 172.861 221.914 167.868 221.289 168.941C220.665 170.012 221.128 174.823 221.128 174.823C221.128 174.823 227.251 187.347 228.659 189.745C230.066 192.141 231.367 198.893 231.367 198.893L226.816 213.923L228.659 225.249L229.58 225.686L236.244 213.923L244.31 201.552L240.363 196.061Z" fill="#81BB27"/>
<path d="M257.425 209.299L255.004 204.19L255.634 203.476L257.105 206.875L258.257 209.299H257.425Z" fill="#B7C4B7"/>
<path d="M222.568 177.754C222.568 177.754 219.275 171.568 217.732 169.32C216.189 167.075 215.671 166.745 213.345 165.18C211.477 163.922 209.217 161.075 208.466 160.702C207.179 160.06 202.357 163.549 202.032 163.384C201.707 163.219 202.87 161.518 202.818 161.029C202.763 160.508 201.741 160.34 201.03 160.702C200.743 160.847 198.218 162.394 197.104 163.077C196.641 163.361 196.027 163.21 195.763 162.73C195.653 162.533 195.576 162.284 195.567 161.966C195.527 160.783 198.019 159.307 198.019 159.307L203.351 153.877C203.351 153.877 207.05 150.067 211.166 149.193C215.285 148.322 217.064 148.314 218.204 148.858C219.344 149.402 225.973 153.544 227.436 154.965C228.898 156.385 233.124 160.766 232.364 161.344C231.604 161.923 227.827 163.037 227.03 163.427C226.328 163.771 224.834 164.813 224.834 164.813C224.451 165.339 223.547 165.597 222.341 168.843C221.961 169.867 221.097 168.423 220.968 171.557C220.884 173.556 222.571 177.742 222.571 177.742L222.568 177.754Z" fill="black"/>
<path d="M154.532 177.696C154.532 177.696 148.193 181.219 142.773 181.327C137.355 181.436 123.374 179.857 120.665 178.222C117.956 176.588 114.001 169.945 113.946 167.984C113.892 166.022 113.946 165.423 113.946 165.423C113.946 165.423 112.809 165.151 113.025 163.572C113.241 161.992 113.135 161.665 113.731 161.503C114.326 161.341 115.086 161.231 115.086 161.231C115.086 161.231 115.573 158.836 116.494 157.855C117.415 156.874 121.586 154.042 124.243 152.572C126.9 151.103 134.972 148.053 142.937 148.38C150.902 148.707 156.319 148.053 158.38 153.773C158.38 153.773 159.682 158.457 159.952 159.218C160.223 159.979 160.548 161.885 159.572 164.555C158.596 167.223 156.648 175.361 155.928 176.385C155.208 177.409 154.532 177.696 154.532 177.696Z" fill="#1E1E1E"/>
<path d="M113.731 161.503C113.731 161.503 136.083 162.429 139.578 161.94C143.072 161.451 159.564 157.951 159.564 157.951L160.145 160.016C160.145 160.016 144.535 163.818 141.933 163.818C139.33 163.818 113.325 162.539 113.325 162.539L113.152 162.53L113.216 162.099C113.216 162.099 113.247 161.946 113.27 161.888C113.293 161.83 113.337 161.749 113.339 161.746C113.342 161.743 113.397 161.665 113.446 161.631C113.495 161.596 113.622 161.538 113.642 161.529C113.662 161.521 113.728 161.503 113.728 161.503H113.731Z" fill="#070707"/>
<path d="M113.156 162.53C113.156 162.53 112.825 164.709 113.386 165.067C113.947 165.426 125.274 166.494 125.274 166.494C125.274 166.494 141.124 167.168 142.18 167.087C143.237 167.006 159.573 164.555 159.573 164.555C159.573 164.555 160.269 161.058 160.209 160.537C160.149 160.016 160.085 160.031 160.085 160.031C160.085 160.031 147.382 163.022 145.249 163.369C143.116 163.716 118.49 162.634 118.49 162.634L113.158 162.53H113.156Z" fill="#3D3D3D"/>
<path d="M157.934 162.756C157.934 162.756 161.104 162.183 161.268 161.735C161.432 161.286 161.228 160.306 160.698 160.306C160.168 160.306 157.448 161.026 157.448 161.026L157.151 161.116C156.665 161.263 156.368 161.772 156.507 162.261C156.507 162.27 156.512 162.276 156.512 162.284L156.737 163.06L157.934 162.753V162.756Z" fill="white"/>
<path d="M144.765 166.161C144.765 166.161 147.978 165.932 148.188 165.501C148.398 165.07 148.3 164.075 147.774 164.02C147.25 163.962 144.463 164.39 144.463 164.39L144.158 164.448C143.657 164.541 143.312 165.015 143.395 165.519C143.395 165.527 143.395 165.533 143.398 165.542L143.539 166.337L144.763 166.161H144.765Z" fill="white"/>
<path d="M157.773 245.552C169.337 245.552 178.712 236.131 178.712 224.508C178.712 212.886 169.337 203.464 157.773 203.464C146.209 203.464 136.834 212.886 136.834 224.508C136.834 236.131 146.209 245.552 157.773 245.552Z" fill="#393A38"/>
<path d="M155.64 237.666C162.608 237.666 168.257 231.715 168.257 224.375C168.257 217.035 162.608 211.084 155.64 211.084C148.672 211.084 143.023 217.035 143.023 224.375C143.023 231.715 148.672 237.666 155.64 237.666Z" fill="black"/>
<path d="M191.716 199.084L181.618 220.365C181.151 221.352 180.08 221.896 179.012 221.69L173.425 220.62C172.757 220.493 172.187 220.079 171.83 219.497C171.295 218.621 170.247 217.339 168.468 216.726C165.728 215.783 141.136 208.249 139.314 207.691C139.242 207.668 139.173 207.645 139.104 207.616C137.71 207.04 137.186 205.324 138.021 204.066C138.724 203.01 139.504 201.882 140.022 201.289C141.159 199.981 146.919 191.846 147.987 191.079C149.121 190.263 152.538 188.464 156.928 188.874C161.318 189.282 167.331 187.547 173.347 188.822C179.361 190.098 192.53 194.183 192.772 195.164C193.014 196.145 191.716 199.084 191.716 199.084Z" fill="#81BB27"/>
<path d="M187.67 224.939C187.67 224.939 176.671 223.36 174.719 222.651C172.768 221.942 153.262 223.904 152.612 223.794C151.961 223.684 149.687 223.357 149.468 224.936C149.25 226.516 149.307 228.694 150.28 228.749C151.256 228.804 171.412 230.112 173.744 229.348C176.072 228.585 176.072 228.454 179 228.194C181.924 227.934 187.88 228.689 188.447 228.466C189.014 228.243 189.668 226.71 189.299 225.894C188.934 225.078 187.667 224.942 187.667 224.942L187.67 224.939Z" fill="#1E1E1D"/>
<path d="M151.329 223.765C151.329 223.765 150.595 220.979 151.001 220.652C151.407 220.325 151.853 220.611 152.544 219.712C153.235 218.812 153.84 216.272 154.338 214.403C154.836 212.534 154.908 212.488 154.908 212.488L158.437 213.578C158.437 213.578 155.224 218.447 154.657 220.244C154.09 222.04 154.338 223.553 154.338 223.553L154.358 223.77H151.329V223.765Z" fill="#1E1E1D"/>
<path d="M221.592 169.401L237.447 192.638C237.447 192.638 242.657 201.069 244.313 201.555C245.254 201.83 253.625 195.905 255.775 194.316C259.169 191.811 257.373 189.988 250.504 181.109C244.6 173.475 236.051 164.191 233.768 161.732C233.408 161.344 232.864 161.199 232.361 161.35C230.392 161.949 225.472 163.612 223.926 165.75C221.975 168.447 221.595 169.398 221.595 169.398L221.592 169.401Z" fill="#99DB26"/>
<path d="M261.029 254C273.544 254 283.69 243.804 283.69 231.226C283.69 218.648 273.544 208.452 261.029 208.452C248.514 208.452 238.369 218.648 238.369 231.226C238.369 243.804 248.514 254 261.029 254Z" fill="#393A38"/>
<path d="M261.028 245.607C268.569 245.607 274.681 239.168 274.681 231.226C274.681 223.283 268.569 216.844 261.028 216.844C253.488 216.844 247.375 223.283 247.375 231.226C247.375 239.168 253.488 245.607 261.028 245.607Z" fill="black"/>
<path d="M259.461 232.111L263.767 229.415L267.302 214.834C267.302 214.834 267.872 212.629 268.805 211.524C269.737 210.419 270.348 209.953 270.716 210.943C270.716 210.943 270.877 210.066 269.294 209.441C267.725 208.822 259.216 205.562 253.039 206.583C246.861 207.604 259.461 232.111 259.461 232.111Z" fill="#81BB27"/>
<path d="M245.455 207.87L248.305 213.659L249.531 213.003L246.319 206.215L244.26 201.633L243.201 203.256L245.455 207.87Z" fill="#B7C4B7"/>
<path d="M259.087 231.995L251.237 212.91C251.136 212.667 250.874 212.534 250.618 212.597C249.901 212.78 248.482 213.188 247.555 213.761C247.224 213.966 246.953 214.192 246.804 214.435C246.271 215.294 253.937 226.461 258.168 232.505C258.531 233.022 259.326 232.58 259.087 231.995Z" fill="#1E1E1D"/>
<path d="M202.211 160.537C202.134 160.621 201.97 160.537 201.967 160.881C201.964 161.226 201.843 161.489 201.604 161.309C201.365 161.13 201.161 160.679 201.25 160.56C201.328 160.456 202.206 160.528 202.211 160.54V160.537Z" fill="#D5C4BB"/>
<path d="M204.206 160.708C204.18 160.69 204.177 160.656 204.194 160.632C204.241 160.575 204.313 160.453 204.353 160.447C204.422 160.441 204.73 160.725 204.741 160.768C204.741 160.768 204.759 160.91 204.54 160.954L204.206 160.708Z" fill="#B7C4B7"/>
<path d="M205.98 161.651C205.98 161.651 206.133 161.353 206.219 161.451C206.306 161.55 206.533 161.798 206.519 161.891C206.504 161.984 206.496 162.067 206.409 162.056C206.323 162.044 205.983 161.654 205.983 161.654L205.98 161.651Z" fill="#B7C4B7"/>
<path d="M206.336 161.176C206.336 161.176 206.494 160.864 206.584 160.965C206.673 161.066 206.966 161.379 206.952 161.474C206.938 161.57 206.874 161.61 206.782 161.599C206.69 161.587 206.336 161.176 206.336 161.176Z" fill="#B7C4B7"/>
<path d="M211.812 136.689C211.812 136.689 212.682 136.878 212.518 137.954C212.353 139.03 210.98 140.954 210.373 141.217C209.766 141.48 209.158 141.107 209.158 141.107L211.815 136.689H211.812Z" fill="black"/>
<path d="M211.193 139.332C211.957 138.113 212.296 136.947 211.951 136.728C211.605 136.509 210.705 137.32 209.941 138.54C209.176 139.759 208.837 140.925 209.183 141.144C209.528 141.363 210.428 140.552 211.193 139.332Z" fill="white"/>
<path d="M211.133 140.529L212.46 147.136L212.802 149.26H213.277L211.441 140.132L211.133 140.529Z" fill="black"/>
<path d="M198.27 147.024C198.27 147.024 203.293 151.071 203.322 151.161C203.351 151.25 203.322 153.938 203.322 153.938H204.004V151.071L201.687 149.13L197.792 146.173L197.57 146.503L198.27 147.026V147.024Z" fill="black"/>
<path d="M195.714 147.605C197.29 147.605 198.567 146.275 198.567 144.634C198.567 142.993 197.29 141.663 195.714 141.663C194.139 141.663 192.861 142.993 192.861 144.634C192.861 146.275 194.139 147.605 195.714 147.605Z" fill="black"/>
<path d="M205.282 147.284C205.282 147.284 209.22 149.179 209.18 149.977C209.14 150.776 206.802 152.185 205.78 152.564C204.569 153.012 203.814 152.836 203.725 153.284C203.691 153.458 203.754 153.536 203.757 153.657C203.763 153.825 203.904 153.952 204.068 153.938C204.641 153.886 205.878 153.417 206.301 153.235C206.774 153.032 209.364 151.629 209.767 150.429C210.101 149.439 209.56 148.95 208.101 147.634C206.641 146.318 206.267 145.788 206.267 145.788L205.285 147.284H205.282Z" fill="black"/>
<path d="M204.775 142.374H207.467C207.904 142.374 208.183 142.834 207.967 143.21L204.53 149.237C204.386 149.488 204.07 149.593 203.799 149.477L201.729 148.594C201.421 148.464 201.295 148.103 201.453 147.813L204.268 142.669C204.369 142.487 204.562 142.371 204.775 142.371V142.374Z" fill="#99DB26"/>
<path d="M205.23 142.481H207.478C208.017 142.481 208.356 143.063 208.094 143.535L204.971 149.164C204.796 149.483 204.407 149.616 204.073 149.468L202.352 148.716C201.975 148.551 201.816 148.097 202.012 147.732L204.608 142.858C204.732 142.626 204.971 142.484 205.23 142.484V142.481Z" fill="black"/>
<path d="M207.219 152.491C207.219 152.491 208.002 149.37 209.643 147.958C211.283 146.546 212.772 145.771 213.54 146.856L214.286 148.693C214.286 148.693 210.705 150.709 209.795 151.299C208.885 151.89 207.296 152.685 207.296 152.685L207.219 152.491Z" fill="#1E1E1E"/>
<path d="M213.834 148.771L213.086 146.925C213.057 146.85 212.982 146.807 212.901 146.815C212.588 146.85 211.813 146.989 211.462 147.541C211.433 147.588 211.43 147.651 211.45 147.703L212.233 149.636C212.274 149.734 212.392 149.778 212.484 149.723L213.753 148.991C213.831 148.947 213.863 148.852 213.828 148.771H213.834Z" fill="white"/>
<path d="M215.668 147.967C215.668 147.967 218.094 146.341 218.448 146.347C218.802 146.352 219.715 146.535 219.295 147.376L216.9 149.572L214.568 151.352L214.102 149.581L214.283 148.664L215.668 147.964V147.967Z" fill="black"/>
</g>
<path fill-rule="evenodd" clip-rule="evenodd" d="M143.64 106.817C143.64 106.817 144.848 100.408 136.924 92.8137C129.009 85.2216 115.712 81.6063 116.242 65.1201C116.772 48.6338 145.746 32.7803 155.836 52.3368C167.77 75.483 146.086 107.723 143.64 106.817Z" fill="#3DBCC8"/>
<path fill-rule="evenodd" clip-rule="evenodd" d="M129.837 58.7363V63.8507H135.042V58.7363H129.837ZM129.745 56.1791C128.383 56.1791 127.279 57.2831 127.279 58.645V63.942C127.279 65.3039 128.383 66.4079 129.745 66.4079H135.042C136.404 66.4079 137.508 65.3039 137.508 63.942V58.645C137.508 57.2831 136.404 56.1791 135.042 56.1791L129.745 56.1791Z" fill="white"/>
<path fill-rule="evenodd" clip-rule="evenodd" d="M140.02 70.1524C140.02 69.4715 140.572 68.9195 141.253 68.9195H145.362C146.043 68.9195 146.595 69.4715 146.595 70.1524C146.595 70.8333 146.043 71.3853 145.362 71.3853H142.486V73.8512C142.486 74.5322 141.934 75.0842 141.253 75.0842C140.572 75.0842 140.02 74.5322 140.02 73.8512V70.1524Z" fill="white"/>
<path fill-rule="evenodd" clip-rule="evenodd" d="M140.02 77.961C140.02 77.2801 140.572 76.7281 141.253 76.7281H145.362C146.043 76.7281 146.595 77.2801 146.595 77.961C146.595 78.642 146.043 79.194 145.362 79.194H141.253C140.572 79.194 140.02 78.642 140.02 77.961Z" fill="white"/>
<path fill-rule="evenodd" clip-rule="evenodd" d="M149.061 72.6183C149.742 72.6183 150.294 73.1703 150.294 73.8512V77.961C150.294 78.642 149.742 79.194 149.061 79.194C148.38 79.194 147.828 78.642 147.828 77.961V75.0842H145.362C144.681 75.0842 144.129 74.5322 144.129 73.8512C144.129 73.1703 144.681 72.6183 145.362 72.6183H149.061Z" fill="white"/>
<path d="M133.627 61.2478C133.627 61.9288 133.075 62.4808 132.394 62.4808C131.713 62.4808 131.161 61.9288 131.161 61.2478C131.161 60.5669 131.713 60.0149 132.394 60.0149C133.075 60.0149 133.627 60.5669 133.627 61.2478Z" fill="white"/>
<path d="M150.294 70.1524C150.294 70.8333 149.742 71.3853 149.061 71.3853C148.38 71.3853 147.828 70.8333 147.828 70.1524C147.828 69.4715 148.38 68.9195 149.061 68.9195C149.742 68.9195 150.294 69.4715 150.294 70.1524Z" fill="white"/>
<path fill-rule="evenodd" clip-rule="evenodd" d="M142.623 58.7363V63.8507H147.828V58.7363H142.623ZM142.531 56.1791C141.169 56.1791 140.065 57.2831 140.065 58.645V63.942C140.065 65.3039 141.169 66.4079 142.531 66.4079H147.828C149.19 66.4079 150.294 65.3039 150.294 63.942V58.645C150.294 57.2831 149.19 56.1791 147.828 56.1791L142.531 56.1791Z" fill="white"/>
<path d="M146.413 61.2478C146.413 61.9288 145.861 62.4808 145.18 62.4808C144.499 62.4808 143.947 61.9288 143.947 61.2478C143.947 60.5669 144.499 60.0149 145.18 60.0149C145.861 60.0149 146.413 60.5669 146.413 61.2478Z" fill="white"/>
<path fill-rule="evenodd" clip-rule="evenodd" d="M129.837 71.5223V76.6368H135.042V71.5223H129.837ZM129.745 68.9651C128.383 68.9651 127.279 70.0691 127.279 71.431V76.7281C127.279 78.09 128.383 79.194 129.745 79.194H135.042C136.404 79.194 137.508 78.09 137.508 76.7281V71.431C137.508 70.0691 136.404 68.9651 135.042 68.9651H129.745Z" fill="white"/>
<path d="M133.627 74.0339C133.627 74.7148 133.075 75.2668 132.394 75.2668C131.713 75.2668 131.161 74.7148 131.161 74.0339C131.161 73.353 131.713 72.8009 132.394 72.8009C133.075 72.8009 133.627 73.353 133.627 74.0339Z" fill="white"/>
<path d="M96.0156 119.817C96.4489 122.959 109.881 139.857 117.464 140.399C117.572 140.399 117.681 140.399 117.897 140.399C118.439 140.399 118.981 140.182 119.522 139.966C122.23 138.232 133.171 131.083 136.963 126.75L136.313 122.309C130.571 124.258 117.897 132.058 117.897 132.058C117.897 132.058 117.356 132.274 117.139 131.949C107.173 122.634 102.623 119.167 99.3737 116.676L96.0156 119.817Z" fill="#D7A887"/>
<path d="M77.0592 232.476C77.6008 233.884 76.6259 239.084 76.5176 240.708C77.6008 242.225 80.309 241.033 80.6339 239.408C80.6339 239.192 80.8506 239.192 80.8506 238.759C80.5256 237.784 81.1756 233.992 81.9338 231.934L77.0592 232.476Z" fill="#F8AB90"/>
<path d="M93.848 234.751C94.2813 236.159 92.9814 239.625 92.873 241.358C93.848 242.983 96.6644 241.9 97.0977 240.275C97.0977 240.058 97.3144 240.058 97.3144 239.625C96.8811 238.542 97.856 235.509 98.8309 233.559L93.848 234.751Z" fill="#F8AB90"/>
<path d="M93.6324 153.939H103.815C108.906 169.322 110.423 186.762 107.39 204.094C107.173 205.394 106.848 206.694 106.415 207.994L102.948 234.858C100.349 235.942 92.7658 235.183 90.166 234.533C93.6324 224.567 95.5823 215.793 96.3406 206.152C96.6655 204.636 96.6655 201.494 96.6655 201.494C97.8571 186.545 94.3907 157.731 93.6324 153.939Z" fill="#74B79C"/>
<path d="M85.3998 234.642C81.9334 235.617 77.1671 233.992 74.459 232.909L81.0668 203.011C81.1751 202.469 81.1751 201.819 81.1751 201.278L78.792 165.422C78.792 164.556 78.792 163.689 78.9003 162.822C79.3336 159.681 80.0919 155.131 81.3918 153.615H94.7158C98.5072 171.38 97.8572 186.546 96.3407 195.103C96.2324 195.862 95.4741 204.203 94.6075 206.586L85.3998 234.642Z" fill="#74B79C"/>
<path d="M103.815 154.156L81.1747 154.481L81.0664 153.506L103.706 153.398L103.815 154.156Z" fill="#20505A"/>
<path d="M86.8079 94.6859L94.6073 95.4442C92.3324 99.0189 90.5992 102.16 93.199 104.652L85.7246 104.002C88.3244 102.269 87.8911 98.044 86.8079 94.6859Z" fill="#ECBC97"/>
<path d="M94.6101 79.9535C94.6101 79.9535 97.5349 83.5282 96.885 86.128C96.7766 86.5613 96.7766 86.8863 96.6683 87.103C96.3433 88.6196 96.3433 88.5112 97.9682 89.2695C98.8348 89.7028 98.0765 90.461 97.6432 90.786C97.4266 91.0027 97.3183 91.2193 97.3183 91.5443C97.3183 91.8693 97.4266 92.1943 97.4266 92.1943C97.4266 92.3026 97.7516 93.1692 96.885 93.1692C92.5519 93.2775 96.1267 93.1692 97.1016 93.4941C97.1016 93.4941 97.5349 93.7108 97.4266 93.9275C97.3183 94.1441 96.9933 94.4691 96.885 94.7941C96.7766 95.119 96.7766 96.094 96.56 96.5273C96.3433 96.9606 93.8519 97.7188 92.3353 97.2855C91.1437 96.9606 89.6272 96.6356 88.9772 96.5273C88.7606 96.5273 88.3273 95.9857 88.2189 95.769C87.894 95.5524 87.0274 95.3357 86.3774 94.9024C85.0775 94.0358 86.1608 93.6025 86.2691 93.0609C86.3774 92.5193 86.5941 91.5443 86.3774 91.2193C86.1608 90.8944 85.0775 89.5945 84.8608 89.0528C84.5359 88.1862 85.0775 86.6697 85.5108 86.128C85.9441 85.5864 86.8107 85.3698 87.3523 85.8031C87.7856 86.1281 88.3273 86.1281 88.5439 85.6948C88.8689 85.1532 91.6853 81.4701 92.227 81.1451C92.7686 80.8201 94.6101 79.9535 94.6101 79.9535Z" fill="#ECBC97"/>
<path d="M97.3157 82.2283C97.2073 82.6616 96.9907 82.9866 96.774 83.3115C96.4491 83.8532 95.9075 84.2864 95.2575 84.5031C93.3076 85.2614 91.6828 86.0196 89.8412 85.9113C89.083 85.803 88.433 86.2363 88.108 86.9946C87.8914 87.6445 87.4581 88.0778 87.0248 88.5111C86.2665 89.2694 86.0499 90.461 86.3748 91.4359C86.9165 92.8442 89.083 97.9354 88.5413 99.127C89.7329 109.201 79.3337 120.792 70.2344 112.993C65.9014 108.335 74.3507 100.427 74.5674 95.5523C74.2424 89.3777 79.2254 84.0698 79.767 82.7699C79.9836 82.3366 80.2003 82.0116 80.5253 81.6867C81.8252 80.3868 82.9084 78.6535 83.9917 77.8953C84.9666 77.137 86.0498 76.7037 87.2414 76.2704C89.083 75.6204 91.1411 75.8371 92.8743 76.9203C94.7159 78.0036 96.3407 79.5202 96.9907 80.8201C97.424 81.2534 97.5323 81.795 97.3157 82.2283Z" fill="#BC9D02"/>
<path d="M87.4604 88.1861C87.2438 87.7528 86.9188 87.4278 86.5938 87.3195C86.4855 87.2112 86.2688 87.3195 86.1605 87.3195C85.1856 87.7528 84.9689 88.5111 85.4023 89.486C85.4023 89.486 85.4023 89.486 85.4023 89.5943C86.0522 90.5692 86.4855 90.7859 87.3521 91.2192L87.4604 88.1861Z" fill="#ECBC97"/>
<path d="M76.519 237.675C78.1439 238.433 79.7687 238.433 81.5019 237.458C81.6103 237.458 81.7186 237.458 81.7186 237.566C82.6935 239.299 83.6684 241.574 85.185 242.874C86.8099 243.957 88.7597 244.716 90.9262 245.366C91.1429 245.474 91.4679 245.582 91.7928 245.474C92.8761 245.474 93.6344 245.582 94.3926 246.016C94.501 246.016 94.6093 246.124 94.7176 246.124C95.1509 246.341 95.3676 246.882 95.4759 247.532C95.4759 247.965 95.2592 248.29 94.9343 248.507C93.2011 249.482 90.9262 249.915 88.2181 249.915L83.2351 249.265L75.3274 248.615L74.4608 248.29C74.3525 248.182 74.2441 248.074 74.2441 247.965C74.2441 246.666 74.4608 245.257 75.0024 243.849C75.1108 243.416 75.4357 242.874 75.6524 242.441C76.3023 241.249 76.519 239.733 76.4106 238C76.3023 237.675 76.4107 237.566 76.519 237.675Z" fill="#BFBAB8"/>
<path d="M74.2455 246.124C74.0288 246.124 73.9205 247.641 74.0288 247.966C74.1372 248.399 75.6537 248.616 75.9787 248.616C77.1703 248.832 78.5785 248.832 79.8784 248.941L84.3197 249.374C85.6196 249.591 87.0279 249.807 88.5444 249.807C89.736 249.807 90.9276 249.699 92.1191 249.374C93.0941 249.157 93.9607 248.832 94.8273 248.291C94.9356 248.182 95.0439 248.182 95.0439 247.966C95.2606 247.424 95.2606 246.557 94.394 246.124C93.419 246.666 91.9025 246.991 90.2776 247.316C89.086 247.532 87.6778 247.641 86.1613 247.532C83.7781 247.424 81.5033 247.316 79.4451 246.882C77.6036 246.774 75.762 246.557 74.2455 246.124Z" fill="#20505A"/>
<path d="M91.4671 245.365C91.3588 246.124 91.3588 246.665 91.6838 247.099C92.8754 246.882 93.8503 246.557 94.7169 246.124C93.8503 245.582 92.767 245.257 91.4671 245.365Z" fill="#F05A24"/>
<path d="M81.2871 239.517C81.5265 239.517 81.7207 239.323 81.7207 239.083C81.7207 238.844 81.5265 238.65 81.2871 238.65C81.0476 238.65 80.8535 238.844 80.8535 239.083C80.8535 239.323 81.0476 239.517 81.2871 239.517Z" fill="#D7CCC2"/>
<path d="M82.0449 241.033C82.2844 241.033 82.4785 240.839 82.4785 240.6C82.4785 240.36 82.2844 240.166 82.0449 240.166C81.8055 240.166 81.6113 240.36 81.6113 240.6C81.6113 240.839 81.8055 241.033 82.0449 241.033Z" fill="#D7CCC2"/>
<path d="M82.6972 242.333C82.9367 242.333 83.1308 242.139 83.1308 241.9C83.1308 241.66 82.9367 241.466 82.6972 241.466C82.4578 241.466 82.2637 241.66 82.2637 241.9C82.2637 242.139 82.4578 242.333 82.6972 242.333Z" fill="#D7CCC2"/>
<path d="M83.7793 243.633C84.0187 243.633 84.2128 243.439 84.2128 243.2C84.2128 242.96 84.0187 242.766 83.7793 242.766C83.5398 242.766 83.3457 242.96 83.3457 243.2C83.3457 243.439 83.5398 243.633 83.7793 243.633Z" fill="#D7CCC2"/>
<path d="M84.9668 244.5C85.2062 244.5 85.4003 244.305 85.4003 244.066C85.4003 243.827 85.2062 243.632 84.9668 243.632C84.7273 243.632 84.5332 243.827 84.5332 244.066C84.5332 244.305 84.7273 244.5 84.9668 244.5Z" fill="#D7CCC2"/>
<path d="M86.6646 245.158C86.8482 245.004 86.8722 244.731 86.7184 244.547C86.5646 244.364 86.2912 244.339 86.1077 244.493C85.9242 244.647 85.9 244.92 86.0538 245.104C86.2076 245.288 86.4811 245.312 86.6646 245.158Z" fill="#D7CCC2"/>
<path d="M87.9638 245.628C88.1014 245.513 88.1195 245.308 88.0041 245.17C87.8888 245.032 87.6837 245.014 87.5461 245.13C87.4084 245.245 87.3904 245.45 87.5057 245.588C87.6211 245.725 87.8261 245.743 87.9638 245.628Z" fill="#D7CCC2"/>
<path d="M89.6832 245.967C89.7715 245.81 89.7163 245.612 89.56 245.523C89.4036 245.435 89.2052 245.49 89.1169 245.647C89.0286 245.803 89.0838 246.002 89.2402 246.09C89.3966 246.178 89.5949 246.123 89.6832 245.967Z" fill="#D7CCC2"/>
<path d="M82.1523 240.166C82.4775 240.058 82.9111 240.058 83.1279 240.275C83.2363 240.492 83.3446 240.708 83.453 240.817C83.1279 240.6 82.5859 240.708 82.3691 240.708C82.4775 240.492 82.3691 240.275 82.1523 240.166Z" fill="#686461"/>
<path d="M82.8027 241.466C83.1279 241.358 83.5615 241.141 83.8867 241.25C83.995 241.358 84.1034 241.466 84.2118 241.683C83.7783 241.575 83.2363 241.792 83.1279 241.9C83.1279 241.683 83.0195 241.575 82.8027 241.466Z" fill="#686461"/>
<path d="M83.7773 242.766C83.994 242.549 84.5356 242.441 84.8606 242.441C84.9689 242.549 85.0773 242.658 85.2939 242.766C84.8606 242.766 84.319 242.983 84.1023 243.199C84.1023 242.983 83.994 242.766 83.7773 242.766Z" fill="#686461"/>
<path d="M85.0762 243.633C85.2928 243.416 85.6178 243.308 86.0511 243.199C86.1594 243.308 86.3761 243.308 86.5927 243.524C86.1594 243.633 85.7261 243.958 85.5095 244.066C85.4012 243.958 85.2928 243.741 85.0762 243.633Z" fill="#686461"/>
<path d="M86.3789 244.392C86.5957 244.066 86.8125 243.958 87.1376 243.958C87.3544 244.066 87.3544 244.066 87.5712 244.175C87.246 244.392 86.9209 244.717 86.8125 244.825C86.8125 244.608 86.7041 244.392 86.3789 244.392Z" fill="#686461"/>
<path d="M87.7852 245.041C88.0019 244.716 88.3271 244.608 88.5439 244.499C88.7607 244.608 88.8691 244.608 89.0859 244.716C88.7607 244.933 88.4355 245.258 88.2187 245.366C88.1103 245.258 88.0019 245.041 87.7852 245.041Z" fill="#686461"/>
<path d="M89.1953 245.583C89.3037 245.149 89.3037 245.041 89.5205 244.824C89.7373 244.824 89.9541 244.933 89.9541 244.933C89.8457 245.258 89.8457 245.475 89.7373 245.691C89.6289 245.583 89.4121 245.366 89.1953 245.583Z" fill="#686461"/>
<path d="M81.3965 238.65C81.7217 238.541 82.0468 238.541 82.2636 238.65C82.372 238.866 82.4804 239.083 82.5888 239.191C82.1552 239.083 81.9384 238.975 81.7217 239.083C81.7217 238.975 81.6133 238.758 81.3965 238.65Z" fill="#686461"/>
<path d="M79.7715 238.108C79.7715 237.999 79.7715 237.891 79.7715 237.783C79.7715 237.566 79.9881 237.35 80.2048 237.241C80.5298 237.025 80.8547 236.808 81.288 236.591C81.3964 236.808 81.5047 237.133 81.613 237.458C81.288 237.675 80.8547 237.783 80.6381 237.891C80.4214 237.891 80.0965 237.999 79.7715 238.108Z" fill="#20505A"/>
<path d="M92.8764 238.433C94.5013 239.192 96.1261 239.192 97.8594 238.217C97.9677 238.217 98.076 238.217 98.076 238.325C99.0509 240.058 100.026 242.333 101.542 243.633C103.167 244.716 105.117 245.474 107.284 246.124C107.5 246.233 107.825 246.341 108.15 246.233C109.234 246.233 109.992 246.341 110.75 246.774C110.858 246.774 110.967 246.883 111.075 246.883C111.508 247.099 111.725 247.641 111.833 248.291C111.833 248.724 111.617 249.049 111.292 249.266C109.558 250.241 107.284 250.674 104.576 250.674L99.5926 250.024L91.6848 249.374L90.8182 249.049C90.7099 248.941 90.6016 248.833 90.6016 248.724C90.6016 247.424 90.8182 246.016 91.3598 244.608C91.4682 244.175 91.7931 243.633 92.0098 243.2C92.6597 242.008 92.8764 240.492 92.7681 238.758C92.7681 238.433 92.8764 238.433 92.8764 238.433Z" fill="#BFBAB8"/>
<path d="M90.7064 246.991C90.4898 246.991 90.3814 248.508 90.4898 248.833C90.5981 249.266 92.1146 249.482 92.4396 249.482C93.6312 249.699 95.0394 249.699 96.3393 249.807L100.781 250.241C102.081 250.457 103.489 250.674 105.005 250.674C106.197 250.674 107.389 250.566 108.58 250.241C109.555 250.024 110.422 249.699 111.288 249.157C111.397 249.049 111.505 249.049 111.505 248.833C111.722 248.291 111.722 247.424 110.855 246.991C109.88 247.533 108.363 247.858 106.739 248.183C105.547 248.399 104.139 248.508 102.622 248.399C100.239 248.291 97.9642 248.183 95.906 247.749C94.0645 247.641 92.223 247.424 90.7064 246.991Z" fill="#20505A"/>
<path d="M107.821 246.232C107.712 246.991 107.712 247.532 108.037 247.966C109.229 247.749 110.204 247.424 111.07 246.991C110.204 246.341 109.229 246.124 107.821 246.232Z" fill="#20505A"/>
<path d="M97.75 240.275C97.9894 240.275 98.1835 240.081 98.1835 239.842C98.1835 239.602 97.9894 239.408 97.75 239.408C97.5105 239.408 97.3164 239.602 97.3164 239.842C97.3164 240.081 97.5105 240.275 97.75 240.275Z" fill="#D7CCC2"/>
<path d="M98.3984 241.792C98.6379 241.792 98.832 241.598 98.832 241.358C98.832 241.119 98.6379 240.925 98.3984 240.925C98.159 240.925 97.9648 241.119 97.9648 241.358C97.9648 241.598 98.159 241.792 98.3984 241.792Z" fill="#D7CCC2"/>
<path d="M99.1582 243.2C99.3976 243.2 99.5917 243.006 99.5917 242.766C99.5917 242.527 99.3976 242.333 99.1582 242.333C98.9187 242.333 98.7246 242.527 98.7246 242.766C98.7246 243.006 98.9187 243.2 99.1582 243.2Z" fill="#D7CCC2"/>
<path d="M100.131 244.392C100.37 244.392 100.564 244.198 100.564 243.958C100.564 243.719 100.37 243.525 100.131 243.525C99.8914 243.525 99.6973 243.719 99.6973 243.958C99.6973 244.198 99.8914 244.392 100.131 244.392Z" fill="#D7CCC2"/>
<path d="M101.432 245.258C101.671 245.258 101.865 245.064 101.865 244.824C101.865 244.585 101.671 244.391 101.432 244.391C101.192 244.391 100.998 244.585 100.998 244.824C100.998 245.064 101.192 245.258 101.432 245.258Z" fill="#D7CCC2"/>
<path d="M103.098 245.913C103.282 245.759 103.306 245.486 103.152 245.302C102.998 245.119 102.725 245.095 102.541 245.248C102.358 245.402 102.334 245.676 102.487 245.859C102.641 246.043 102.915 246.067 103.098 245.913Z" fill="#D7CCC2"/>
<path d="M104.393 246.383C104.531 246.268 104.549 246.063 104.434 245.925C104.318 245.788 104.113 245.77 103.976 245.885C103.838 246 103.82 246.205 103.935 246.343C104.051 246.481 104.256 246.499 104.393 246.383Z" fill="#D7CCC2"/>
<path d="M106.197 246.781C106.285 246.624 106.23 246.426 106.074 246.338C105.917 246.249 105.719 246.304 105.631 246.461C105.542 246.617 105.597 246.816 105.754 246.904C105.91 246.992 106.109 246.937 106.197 246.781Z" fill="#D7CCC2"/>
<path d="M98.6133 240.925C98.9385 240.816 99.372 240.816 99.5888 241.033C99.6972 241.25 99.8056 241.467 99.914 241.575C99.5888 241.358 99.0469 241.467 98.8301 241.467C98.8301 241.25 98.8301 241.033 98.6133 240.925Z" fill="#686461"/>
<path d="M99.2656 242.333C99.5908 242.224 100.024 242.007 100.35 242.116C100.458 242.224 100.566 242.333 100.675 242.549C100.241 242.441 99.6992 242.658 99.5908 242.766C99.5908 242.549 99.4824 242.333 99.2656 242.333Z" fill="#686461"/>
<path d="M100.24 243.524C100.457 243.308 100.999 243.199 101.323 243.199C101.432 243.308 101.54 243.416 101.757 243.524C101.323 243.524 100.782 243.741 100.565 243.958C100.565 243.849 100.457 243.633 100.24 243.524Z" fill="#686461"/>
<path d="M101.434 244.499C101.65 244.283 101.975 244.174 102.409 244.066C102.517 244.174 102.733 244.174 102.95 244.391C102.517 244.499 102.084 244.824 101.867 244.933C101.867 244.716 101.759 244.499 101.434 244.499Z" fill="#686461"/>
<path d="M102.842 245.15C103.059 244.825 103.275 244.716 103.601 244.716C103.817 244.825 103.817 244.825 104.034 244.933C103.709 245.15 103.384 245.475 103.275 245.584C103.167 245.367 103.059 245.15 102.842 245.15Z" fill="#686461"/>
<path d="M104.246 245.8C104.463 245.475 104.788 245.366 105.005 245.258C105.222 245.366 105.33 245.366 105.547 245.475C105.222 245.691 104.896 246.017 104.68 246.125C104.571 246.017 104.463 245.8 104.246 245.8Z" fill="#686461"/>
<path d="M105.656 246.342C105.765 245.908 105.765 245.8 105.981 245.583C106.198 245.583 106.415 245.691 106.415 245.691C106.307 246.016 106.307 246.233 106.198 246.45C106.09 246.341 105.873 246.125 105.656 246.342Z" fill="#686461"/>
<path d="M97.8574 239.408C98.1826 239.3 98.5078 239.3 98.7246 239.408C98.833 239.625 98.9413 239.842 99.0497 239.95C98.6162 239.842 98.3994 239.733 98.1826 239.842C98.1826 239.733 98.0742 239.516 97.8574 239.408Z" fill="#686461"/>
<path d="M96.2344 238.866C96.2344 238.758 96.2344 238.65 96.2344 238.541C96.2344 238.325 96.451 238.108 96.6677 238C96.9927 237.783 97.3176 237.567 97.7509 237.35C97.8593 237.567 97.9676 237.891 98.0759 238.216C97.7509 238.433 97.3176 238.541 97.101 238.65C96.8843 238.758 96.5594 238.866 96.2344 238.866Z" fill="#20505A"/>
<path d="M95.4746 120.792C95.9079 123.933 109.34 140.832 116.923 141.374C117.031 141.374 117.14 141.374 117.356 141.374C117.898 141.374 118.44 141.157 118.981 140.941C121.689 139.207 132.63 132.058 136.422 127.725L134.147 123.609C128.405 125.558 117.248 133.141 117.248 133.141C117.248 133.141 116.598 133.358 116.49 133.033C111.94 125.558 105.332 121.55 98.7244 117.759L95.4746 120.792Z" fill="#ECBC97"/>
<path d="M146.389 115.267L141.406 123.175C141.406 123.175 141.948 124.15 143.248 124.042C144.439 123.933 146.173 120.9 146.281 120.359C146.498 119.709 146.173 119.167 146.389 118.734C146.606 118.301 146.498 117.217 146.498 117.217C146.389 117.217 147.472 115.701 146.389 115.267Z" fill="#D7A887"/>
<path d="M139.996 123.175L142.596 112.668C142.704 112.343 142.921 112.126 143.138 111.909L146.929 109.743C147.146 109.634 147.471 109.634 147.579 109.851C147.687 109.959 147.687 110.176 147.687 110.284L144.979 121.334L139.996 123.175Z" fill="#1A2E35"/>
<path d="M144.867 122.309C144.867 122.309 144.976 122.201 144.976 121.876C144.976 121.551 144.976 121.118 144.867 120.576C144.976 120.359 144.976 120.251 144.976 120.034C144.867 119.818 144.759 119.601 144.542 119.493H144.434V119.384C144.651 119.059 144.867 118.734 145.084 118.301C145.192 118.193 145.192 118.084 145.192 118.084C145.192 117.976 145.192 117.868 145.192 117.76C145.084 117.543 144.976 117.435 144.759 117.326V117.218L144.867 117.11C145.084 116.893 145.301 116.676 145.517 116.46C145.842 116.026 146.276 115.701 146.492 115.268C146.601 115.051 146.817 114.835 146.817 114.618C146.817 114.51 146.926 114.401 146.926 114.293C146.926 114.185 146.926 114.185 146.817 114.185C146.709 114.185 146.601 114.185 146.492 114.293C146.384 114.293 146.276 114.401 146.167 114.401C145.951 114.51 145.734 114.618 145.517 114.726C145.084 114.943 144.759 115.268 144.542 115.376C144.326 115.593 144.109 115.701 143.892 115.81C143.784 115.918 143.676 116.026 143.676 115.918C143.676 115.918 143.784 115.81 143.892 115.701C144.001 115.593 144.217 115.376 144.434 115.16C144.651 114.943 144.976 114.726 145.409 114.401C145.626 114.293 145.842 114.185 146.059 113.968C146.167 113.86 146.276 113.86 146.384 113.751C146.492 113.751 146.709 113.643 146.817 113.643C147.034 113.643 147.142 113.86 147.034 113.968C147.034 114.076 147.034 114.185 146.926 114.293C146.817 114.51 146.709 114.726 146.492 114.943C146.167 115.376 145.842 115.701 145.517 116.135C145.301 116.351 145.084 116.568 144.867 116.785V116.676C145.084 116.785 145.301 117.001 145.409 117.218C145.409 117.326 145.517 117.435 145.409 117.651C145.409 117.76 145.301 117.868 145.192 117.976C144.976 118.301 144.759 118.734 144.434 119.059V118.951C144.651 119.168 144.867 119.276 144.867 119.601C144.976 119.818 144.867 120.143 144.759 120.251C144.867 120.793 144.867 121.334 144.867 121.551C144.976 122.093 144.976 122.201 144.867 122.309Z" fill="#C89777"/>
<path d="M147.577 109.851C147.577 109.851 147.469 109.96 147.252 110.068C147.036 110.176 146.711 110.393 146.386 110.609C145.952 110.826 145.519 111.151 145.086 111.368C144.869 111.476 144.544 111.693 144.328 111.801C144.003 111.909 143.786 112.126 143.569 112.343C143.353 112.559 143.244 112.884 143.136 113.209C143.028 113.534 143.028 113.859 142.919 114.076C142.811 114.617 142.594 115.159 142.486 115.592C142.378 116.026 142.269 116.351 142.161 116.567C142.053 116.784 142.053 116.892 142.053 116.892C142.053 116.892 142.053 116.784 142.161 116.459C142.161 116.242 142.269 115.917 142.378 115.484C142.486 115.051 142.594 114.509 142.703 113.968C142.811 113.643 142.811 113.426 142.919 113.101C143.028 112.776 143.136 112.451 143.353 112.126C143.569 111.909 143.894 111.693 144.219 111.584C144.544 111.476 144.761 111.259 144.978 111.151C145.519 110.826 145.952 110.609 146.386 110.393C146.819 110.176 147.036 109.96 147.361 109.851C147.469 109.96 147.577 109.851 147.577 109.851Z" fill="#375A64"/>
<path d="M145.089 113.426C144.981 113.643 144.981 113.86 145.089 113.86C145.197 113.86 145.306 113.751 145.414 113.534C145.523 113.318 145.523 113.101 145.414 113.101C145.306 113.101 145.197 113.209 145.089 113.426Z" fill="white"/>
<path d="M135.769 122.742C136.636 122.309 136.636 120.901 137.069 120.034C137.394 119.276 137.828 118.517 138.153 118.409C138.694 118.084 141.727 116.243 141.727 116.243L141.402 117.651L144.327 115.593C144.652 115.376 146.71 113.426 147.144 114.184C147.36 114.726 145.735 116.134 145.519 116.459C144.977 117.218 145.194 117.218 145.194 117.218C145.194 117.218 145.844 117.543 145.519 118.084C145.194 118.626 144.652 119.276 144.652 119.276C144.652 119.276 145.41 119.601 144.977 120.576C144.977 120.576 145.194 121.117 145.085 121.876C144.977 122.309 144.652 122.85 144.219 123.284C143.785 123.825 143.244 124.15 142.594 124.367C140.102 125.234 137.936 126.209 136.419 127.508L134.145 123.392L135.769 122.742Z" fill="#ECBC97"/>
<path d="M142.273 117.001C142.273 117.001 141.623 117.542 140.757 117.976C139.89 118.517 139.24 118.842 139.24 118.842C139.24 118.842 139.89 118.301 140.757 117.867C141.515 117.326 142.273 117.001 142.273 117.001Z" fill="#C89777"/>
<path d="M144.982 117.109C144.982 117.109 144.44 117.759 143.682 118.517C142.923 119.275 142.273 119.817 142.273 119.817C142.273 119.817 142.815 119.167 143.573 118.409C144.332 117.65 144.982 117.109 144.982 117.109Z" fill="#C89777"/>
<path d="M144.762 119.059C144.762 119.059 144.545 119.492 144.112 119.926C143.787 120.359 143.354 120.684 143.354 120.684C143.354 120.684 143.57 120.251 144.003 119.817C144.328 119.384 144.762 119.059 144.762 119.059Z" fill="#C89777"/>
<path d="M106.634 153.398H74.3535C74.3535 153.398 75.5451 125.883 79.6614 110.61C80.2031 108.443 82.0446 105.302 83.6695 103.785C84.3194 103.135 85.0777 102.594 85.9443 102.269C86.4859 102.052 87.1359 101.944 87.7858 101.944L93.3104 102.377C93.9604 102.377 94.502 102.81 94.7187 103.352L100.243 115.809C100.568 116.568 101.002 117.217 101.651 117.759L109.776 125.017L104.468 131.516L103.818 132.275" fill="#20505A"/>
<path d="M102.298 131.842C93.4155 124.8 92.9822 123.392 92.3322 121.009C92.1156 120.251 91.7906 119.276 91.1406 117.976L91.8989 117.651C92.5488 119.059 92.8738 119.926 93.0905 120.792C93.7404 123.067 94.1737 124.259 102.84 131.192L102.298 131.842Z" fill="black"/>
</g>
<defs>
<clipPath id="clip0_21671_117424">
<rect width="343" height="295" rx="16" fill="white"/>
</clipPath>
<clipPath id="clip1_21671_117424">
<rect width="170.686" height="148" fill="white" transform="translate(113 106)"/>
</clipPath>
</defs>
</svg>
