<svg width="343" height="233" viewBox="0 0 343 233" fill="none" xmlns="http://www.w3.org/2000/svg">
<path d="M171.5 225.915C256.114 225.915 324.707 218.994 324.707 210.457C324.707 201.921 256.114 195 171.5 195C86.8864 195 18.2935 201.921 18.2935 210.457C18.2935 218.994 86.8864 225.915 171.5 225.915Z" fill="#F3F3F3"/>
<path d="M250.255 209.418H192.781V211.845H250.255V209.418Z" fill="#F2F2F2"/>
<path d="M158.152 209.244H100.678V211.671H158.152V209.244Z" fill="#F2F2F2"/>
<path d="M210.677 43.5469H160.067V165.236H210.677V43.5469Z" fill="#E9E9E9"/>
<path d="M180.915 63.952H169.147C168.645 63.952 168.143 63.4033 168.143 62.8547V52.9273C168.143 52.3787 168.645 51.8301 169.147 51.8301H180.915C181.417 51.8301 181.919 52.3787 181.919 52.9273V62.8547C181.919 63.4033 181.417 63.952 180.915 63.952Z" fill="white"/>
<path d="M200.08 63.952H188.311C187.809 63.952 187.308 63.4033 187.308 62.8547V52.9273C187.308 52.3787 187.809 51.8301 188.311 51.8301H200.08C200.582 51.8301 201.083 52.3787 201.083 52.9273V62.8547C201.083 63.4033 200.582 63.952 200.08 63.952Z" fill="white"/>
<path d="M180.915 81.0359H169.147C168.645 81.0359 168.143 80.4873 168.143 79.9387V70.0113C168.143 69.4627 168.645 68.9141 169.147 68.9141H180.915C181.417 68.9141 181.919 69.4627 181.919 70.0113V79.9387C181.919 80.4873 181.417 81.0359 180.915 81.0359Z" fill="white"/>
<path d="M200.08 81.0359H188.311C187.809 81.0359 187.308 80.4873 187.308 79.9387V70.0113C187.308 69.4627 187.809 68.9141 188.311 68.9141H200.08C200.582 68.9141 201.083 69.4627 201.083 70.0113V79.9387C201.083 80.4873 200.582 81.0359 200.08 81.0359Z" fill="white"/>
<path d="M181.25 98.3172H169.482C168.98 98.3172 168.478 97.7686 168.478 97.22V87.2925C168.478 86.7439 168.98 86.1953 169.482 86.1953H181.25C181.752 86.1953 182.254 86.7439 182.254 87.2925V97.22C182.254 97.9514 181.919 98.3172 181.25 98.3172Z" fill="white"/>
<path d="M200.414 98.3172H188.646C188.144 98.3172 187.642 97.7686 187.642 97.22V87.2925C187.642 86.7439 188.144 86.1953 188.646 86.1953H200.414C200.916 86.1953 201.418 86.7439 201.418 87.2925V97.22C201.418 97.9514 201.083 98.3172 200.414 98.3172Z" fill="white"/>
<path d="M181.752 116.71H169.984C169.482 116.71 168.98 116.161 168.98 115.613V105.685C168.98 105.137 169.482 104.588 169.984 104.588H181.752C182.254 104.588 182.756 105.137 182.756 105.685V115.613C182.756 116.161 182.254 116.71 181.752 116.71Z" fill="white"/>
<path d="M200.916 116.71H189.148C188.646 116.71 188.144 116.161 188.144 115.613V105.685C188.144 105.137 188.646 104.588 189.148 104.588H200.916C201.418 104.588 201.92 105.137 201.92 105.685V115.613C201.92 116.161 201.418 116.71 200.916 116.71Z" fill="white"/>
<path d="M181.752 133.612H169.984C169.482 133.612 168.98 133.063 168.98 132.515V122.587C168.98 122.039 169.482 121.49 169.984 121.49H181.752C182.254 121.49 182.756 122.039 182.756 122.587V132.515C182.756 133.063 182.254 133.612 181.752 133.612Z" fill="white"/>
<path d="M200.916 133.612H189.148C188.646 133.612 188.144 133.063 188.144 132.515V122.587C188.144 122.039 188.646 121.49 189.148 121.49H200.916C201.418 121.49 201.92 122.039 201.92 122.587V132.515C201.92 133.063 201.418 133.612 200.916 133.612Z" fill="white"/>
<path d="M193.52 140.234H175.36V165.419H193.52V140.234Z" fill="white"/>
<path d="M160.067 43.5476L183.604 25.9004L210.677 43.5476H160.067Z" fill="#BBBCBC"/>
<path d="M280.727 28.709H212.637V192.681H280.727V28.709Z" fill="#E9E9E9"/>
<path d="M241.216 56.2838H224.572C224.071 56.2838 223.569 55.7351 223.569 55.1865V41.0269C223.569 40.4783 224.071 39.9297 224.572 39.9297H241.216C241.717 39.9297 242.219 40.4783 242.219 41.0269V55.1865C242.219 55.7351 241.717 56.2838 241.216 56.2838Z" fill="white"/>
<path d="M266.951 56.2838H250.308C249.806 56.2838 249.304 55.7351 249.304 55.1865V41.0269C249.304 40.4783 249.806 39.9297 250.308 39.9297H266.951C267.453 39.9297 267.955 40.4783 267.955 41.0269V55.1865C267.955 55.7351 267.453 56.2838 266.951 56.2838Z" fill="white"/>
<path d="M241.216 79.2603H224.572C224.071 79.2603 223.569 78.7117 223.569 78.1631V64.0035C223.569 63.4549 224.071 62.9062 224.572 62.9062H241.216C241.717 62.9062 242.219 63.4549 242.219 64.0035V78.1631C242.219 78.7117 241.717 79.2603 241.216 79.2603Z" fill="white"/>
<path d="M266.951 79.2603H250.308C249.806 79.2603 249.304 78.7117 249.304 78.1631V64.0035C249.304 63.4549 249.806 62.9062 250.308 62.9062H266.951C267.453 62.9062 267.955 63.4549 267.955 64.0035V78.1631C267.955 78.7117 267.453 79.2603 266.951 79.2603Z" fill="white"/>
<path d="M241.729 102.616H225.086C224.584 102.616 224.083 102.067 224.083 101.519V87.359C224.083 86.8103 224.584 86.2617 225.086 86.2617H241.729C242.231 86.2617 242.733 86.8103 242.733 87.359V101.519C242.733 102.25 242.231 102.616 241.729 102.616Z" fill="white"/>
<path d="M267.452 102.616H250.809C250.307 102.616 249.806 102.067 249.806 101.519V87.359C249.806 86.8103 250.307 86.2617 250.809 86.2617H267.452C267.954 86.2617 268.456 86.8103 268.456 87.359V101.519C268.456 102.25 268.122 102.616 267.452 102.616Z" fill="white"/>
<path d="M242.231 127.237H225.588C225.086 127.237 224.584 126.688 224.584 126.14V111.98C224.584 111.431 225.086 110.883 225.588 110.883H242.231C242.733 110.883 243.235 111.431 243.235 111.98V126.14C243.235 126.688 242.9 127.237 242.231 127.237Z" fill="white"/>
<path d="M268.122 127.237H251.479C250.977 127.237 250.475 126.688 250.475 126.14V111.98C250.475 111.431 250.977 110.883 251.479 110.883H268.122C268.624 110.883 269.125 111.431 269.125 111.98V126.14C269.125 126.688 268.624 127.237 268.122 127.237Z" fill="white"/>
<path d="M242.231 150.032H225.588C225.086 150.032 224.584 149.483 224.584 148.935V134.775C224.584 134.226 225.086 133.678 225.588 133.678H242.231C242.733 133.678 243.235 134.226 243.235 134.775V148.935C243.235 149.666 242.9 150.032 242.231 150.032Z" fill="white"/>
<path d="M268.122 150.032H251.479C250.977 150.032 250.475 149.483 250.475 148.935V134.775C250.475 134.226 250.977 133.678 251.479 133.678H268.122C268.624 133.678 269.125 134.226 269.125 134.775V148.935C269.125 149.666 268.624 150.032 268.122 150.032Z" fill="white"/>
<path d="M212.637 28.7082L244.585 5L280.906 28.7082H212.637Z" fill="#BBBCBC"/>
<path d="M296.033 201.808C294.554 189.407 286.481 191.68 278.997 171.241C277.365 166.796 271.592 170.387 267.813 171.336C247.74 176.353 239.893 186.192 237.819 199.542C237.672 200.49 237.672 201.532 238.34 201.627C248.34 203.234 273.371 202.386 296.039 201.815L296.033 201.808Z" fill="#C4EDEE"/>
<path d="M285.113 178.606C285.113 178.606 285.723 177.846 285.113 171.884C284.504 165.821 287.194 160.424 287.194 160.424C287.194 160.424 286.067 173.115 286.153 174.629C286.153 176.143 285.113 178.606 285.113 178.606Z" fill="#0B9D99"/>
<path d="M286.67 184.858C286.67 184.858 286.584 184.098 283.205 181.164C279.826 178.23 278.527 173.775 278.527 173.775C278.527 173.775 284.418 181.353 285.199 182.106C285.981 182.867 286.67 184.852 286.67 184.852V184.858Z" fill="#0B9D99"/>
<path d="M287.021 192.341C287.021 192.341 287.538 191.87 287.366 187.132C287.28 182.395 289.618 178.418 289.618 178.418C289.618 178.418 288.061 188.169 287.975 189.306C287.889 190.443 287.021 192.334 287.021 192.334V192.341Z" fill="#0B9D99"/>
<path d="M286.412 197.642C286.412 197.642 285.803 197.266 285.113 192.622C284.418 187.979 281.476 184.574 281.476 184.574C281.476 184.574 284.682 193.854 284.941 194.991C285.113 196.034 286.412 197.642 286.412 197.642Z" fill="#0B9D99"/>
<path d="M284.596 202.091C284.596 202.091 289.97 185.14 282.085 171.978C274.201 158.815 280.7 164.495 282.085 166.958C283.642 169.797 289.102 186.371 287.194 197.831C287.194 197.831 286.585 201.62 286.326 202.091C286.068 202.468 284.596 202.091 284.596 202.091Z" fill="#0B9D99"/>
<path d="M295.198 164.406C295.198 164.406 294.503 163.552 295.198 156.076C295.894 148.593 292.687 142.059 292.687 142.059C292.687 142.059 294.072 157.684 293.986 159.575C293.9 161.466 295.198 164.406 295.198 164.406Z" fill="#0B9D99"/>
<path d="M293.291 172.079C293.291 172.079 293.377 171.13 297.537 167.631C301.692 164.031 303.342 158.445 303.342 158.445C303.342 158.445 296.153 167.725 295.199 168.674C294.158 169.623 293.291 172.085 293.291 172.085V172.079Z" fill="#0B9D99"/>
<path d="M292.86 181.262C292.86 181.262 292.25 180.596 292.429 174.823C292.601 169.049 289.659 164.123 289.659 164.123C289.659 164.123 291.653 176.148 291.653 177.568C291.653 178.988 292.866 181.262 292.866 181.262H292.86Z" fill="#0B9D99"/>
<path d="M293.376 191.304C293.376 191.304 293.986 190.739 294.244 184.958C294.503 179.185 297.623 174.447 297.623 174.447C297.623 174.447 295.026 186.284 294.854 187.704C294.595 189.03 293.383 191.304 293.383 191.304H293.376Z" fill="#0B9D99"/>
<path d="M295.629 202.568C295.629 202.568 289.136 172.361 298.922 156.164C308.623 139.973 300.566 146.884 298.922 150.006C297.014 153.512 290.348 173.962 292.687 187.979C292.687 187.979 293.297 201.996 293.555 202.562C293.814 203.127 295.635 202.562 295.635 202.562L295.629 202.568Z" fill="#0B9D99"/>
<g clip-path="url(#clip0_22158_427099)">
<path d="M140.627 156.254C140.609 156.24 140.59 156.226 140.574 156.211C140.203 155.887 135.906 152.149 134.877 151.524C133.8 150.871 132.647 150.749 133.018 149.647C133.389 148.544 135.593 147.002 136.364 146.716C137.049 146.461 138.397 145.9 138.687 145.779C138.723 145.764 138.758 145.747 138.792 145.724C139.024 145.585 139.982 145.018 140.229 145.038C140.511 145.058 142.146 143.155 144.029 146.12C145.911 149.088 146.606 149.305 146.606 149.797C146.606 150.26 145.093 154.848 142.296 156.804C141.999 157.012 141.617 156.995 141.327 156.778L140.627 156.257V156.254Z" stroke="black" stroke-width="4" stroke-miterlimit="10"/>
<path d="M147.243 158.118C147.243 158.118 142.246 159.481 142.857 156.105C143.468 152.729 144.179 148.817 148.044 148.759C151.909 148.699 152.314 150.333 156.588 152.185C160.861 154.036 161.448 154.586 169.179 154.803C176.909 155.02 179.318 155.075 180.642 154.965C181.967 154.855 183.239 161.333 182.425 163.074C181.611 164.816 175.179 163.398 174.808 163.231C174.437 163.063 153.436 159.264 150.895 158.5C148.352 157.737 147.246 158.118 147.246 158.118H147.243Z" fill="#131315"/>
<path d="M132.346 150.093C132.346 150.093 130.451 150.787 129.334 150.093C128.218 149.398 122.494 147.356 120.933 147.602C119.371 147.848 117.839 146.609 117.839 146.609C117.839 146.609 124.126 147.599 127.362 147.717C130.598 147.836 132.159 147.257 132.681 147.839C133.202 148.42 133.139 148.568 132.868 149.181C132.597 149.795 132.346 150.093 132.346 150.093Z" fill="#1E1E1E"/>
<path d="M176.519 162.235C176.519 162.235 167.193 187.543 165.621 187.5C164.05 187.457 163.46 194.203 163.312 194.883C163.165 195.563 160.993 198.846 166.269 199.989C171.548 201.132 196.229 206.117 196.229 206.117C196.229 206.117 201.509 207.259 204.705 206.525C207.901 205.79 210.579 204.32 211.843 204.155C213.107 203.99 218.386 196.723 219.947 194.597C221.508 192.473 236.898 166.742 237.045 165.435C237.193 164.127 235.139 160.924 233.949 157.901C232.759 154.878 223.725 141.876 223.725 141.876L215.26 131.919C215.26 131.919 214.12 131.21 213.13 131.919C212.14 132.627 210.084 134.829 209.937 135.972C209.789 137.114 209.639 141.199 209.789 141.853C209.939 142.507 213.183 149.832 213.183 149.832C213.183 149.832 205.919 148.687 205.771 149.913C205.624 151.14 206.029 156.573 206.171 159.753C206.314 162.932 206.39 163.93 206.171 165.197C206.027 166.036 201.285 187.697 201.285 187.697L183.149 181.034L185.032 160.945L183.868 161.509L176.89 160.878L176.522 162.232L176.519 162.235Z" fill="black"/>
<path d="M219.853 164.062L205.974 140.862C205.974 140.862 202.978 135.869 202.407 136.942C201.835 138.013 202.259 142.824 202.259 142.824C202.259 142.824 207.859 155.348 209.147 157.746C210.435 160.142 211.625 166.894 211.625 166.894L207.462 181.923L209.147 193.25L209.99 193.687L216.085 181.923L223.462 169.553L219.853 164.062Z" fill="#00DFF4"/>
<path d="M235.458 177.3L233.244 172.191L233.82 171.477L235.166 174.876L236.219 177.3H235.458Z" fill="#B7C4B7"/>
<path d="M203.575 145.753C203.575 145.753 200.563 139.567 199.152 137.32C197.741 135.075 197.267 134.745 195.139 133.18C193.431 131.921 191.364 129.074 190.677 128.701C189.5 128.059 185.09 131.548 184.792 131.383C184.494 131.218 185.558 129.517 185.511 129.028C185.461 128.507 184.526 128.34 183.876 128.701C183.612 128.846 181.303 130.394 180.284 131.076C179.86 131.36 179.3 131.209 179.057 130.729C178.957 130.532 178.886 130.284 178.878 129.965C178.842 128.782 181.122 127.307 181.122 127.307L185.998 121.876C185.998 121.876 189.381 118.066 193.146 117.193C196.914 116.322 198.541 116.313 199.584 116.857C200.627 117.401 206.69 121.544 208.028 122.964C209.365 124.385 213.23 128.765 212.535 129.343C211.84 129.922 208.386 131.036 207.657 131.426C207.014 131.771 205.648 132.812 205.648 132.812C205.297 133.339 204.471 133.596 203.367 136.842C203.02 137.866 202.23 136.423 202.112 139.556C202.035 141.555 203.578 145.741 203.578 145.741L203.575 145.753Z" fill="black"/>
<path d="M141.345 145.695C141.345 145.695 135.548 149.219 130.59 149.326C125.635 149.436 112.846 147.856 110.369 146.222C107.891 144.587 104.273 137.945 104.223 135.983C104.173 134.022 104.223 133.423 104.223 133.423C104.223 133.423 103.183 133.151 103.381 131.571C103.578 129.992 103.481 129.665 104.026 129.503C104.571 129.341 105.266 129.231 105.266 129.231C105.266 129.231 105.711 126.835 106.554 125.855C107.396 124.874 111.211 122.042 113.642 120.572C116.072 119.102 123.455 116.053 130.74 116.38C138.025 116.707 142.98 116.053 144.866 121.772C144.866 121.772 146.056 126.456 146.303 127.217C146.551 127.978 146.848 129.885 145.956 132.555C145.063 135.222 143.281 143.36 142.622 144.385C141.964 145.409 141.345 145.695 141.345 145.695Z" fill="#1E1E1E"/>
<path d="M104.026 129.504C104.026 129.504 124.471 130.43 127.668 129.941C130.864 129.452 145.948 125.951 145.948 125.951L146.48 128.017C146.48 128.017 132.202 131.818 129.821 131.818C127.441 131.818 103.655 130.54 103.655 130.54L103.497 130.531L103.555 130.1C103.555 130.1 103.584 129.946 103.605 129.889C103.626 129.831 103.666 129.75 103.668 129.747C103.671 129.744 103.721 129.666 103.766 129.631C103.81 129.596 103.926 129.539 103.945 129.53C103.963 129.521 104.024 129.504 104.024 129.504H104.026Z" fill="#070707"/>
<path d="M103.5 130.531C103.5 130.531 103.197 132.709 103.71 133.068C104.224 133.427 114.585 134.494 114.585 134.494C114.585 134.494 129.082 135.168 130.048 135.087C131.014 135.006 145.956 132.556 145.956 132.556C145.956 132.556 146.593 129.058 146.538 128.538C146.483 128.017 146.425 128.031 146.425 128.031C146.425 128.031 134.806 131.023 132.855 131.37C130.904 131.717 108.379 130.635 108.379 130.635L103.502 130.531H103.5Z" fill="#3D3D3D"/>
<path d="M144.458 130.755C144.458 130.755 147.357 130.182 147.507 129.734C147.657 129.285 147.47 128.305 146.985 128.305C146.501 128.305 144.013 129.025 144.013 129.025L143.741 129.115C143.297 129.262 143.025 129.771 143.152 130.26C143.152 130.269 143.157 130.275 143.157 130.284L143.362 131.059L144.458 130.752V130.755Z" fill="white"/>
<path d="M132.412 134.162C132.412 134.162 135.351 133.933 135.543 133.502C135.735 133.071 135.645 132.076 135.164 132.021C134.684 131.963 132.136 132.391 132.136 132.391L131.857 132.449C131.398 132.542 131.082 133.016 131.159 133.52C131.159 133.528 131.159 133.534 131.161 133.543L131.29 134.338L132.41 134.162H132.412Z" fill="white"/>
<path d="M144.31 213.553C154.888 213.553 163.462 204.131 163.462 192.509C163.462 180.887 154.888 171.465 144.31 171.465C133.733 171.465 125.158 180.887 125.158 192.509C125.158 204.131 133.733 213.553 144.31 213.553Z" fill="#393A38"/>
<path d="M142.36 205.665C148.733 205.665 153.9 199.715 153.9 192.375C153.9 185.034 148.733 179.084 142.36 179.084C135.986 179.084 130.819 185.034 130.819 192.375C130.819 199.715 135.986 205.665 142.36 205.665Z" fill="black"/>
<path d="M175.355 167.084L166.119 188.365C165.693 189.352 164.713 189.896 163.736 189.69L158.626 188.62C158.015 188.493 157.494 188.079 157.167 187.497C156.677 186.621 155.719 185.339 154.092 184.726C151.585 183.783 129.092 176.249 127.425 175.691C127.359 175.668 127.296 175.644 127.233 175.616C125.959 175.04 125.479 173.324 126.243 172.066C126.885 171.01 127.599 169.882 128.073 169.288C129.113 167.981 134.381 159.845 135.358 159.079C136.396 158.263 139.521 156.464 143.536 156.874C147.551 157.282 153.052 155.546 158.555 156.822C164.055 158.098 176.101 162.183 176.322 163.164C176.543 164.145 175.355 167.084 175.355 167.084Z" fill="#00DFF4"/>
<path d="M171.656 192.939C171.656 192.939 161.596 191.36 159.811 190.651C158.025 189.942 140.184 191.904 139.589 191.794C138.994 191.684 136.914 191.357 136.714 192.936C136.514 194.516 136.567 196.694 137.457 196.749C138.349 196.804 156.785 198.112 158.918 197.348C161.048 196.585 161.048 196.454 163.726 196.194C166.401 195.934 171.848 196.689 172.367 196.466C172.886 196.243 173.483 194.71 173.146 193.894C172.812 193.078 171.654 192.942 171.654 192.942L171.656 192.939Z" fill="#1E1E1D"/>
<path d="M138.415 191.765C138.415 191.765 137.744 188.979 138.115 188.652C138.486 188.326 138.894 188.612 139.526 187.712C140.158 186.812 140.711 184.272 141.166 182.403C141.622 180.535 141.688 180.488 141.688 180.488L144.916 181.579C144.916 181.579 141.977 186.448 141.459 188.245C140.94 190.041 141.166 191.554 141.166 191.554L141.185 191.771H138.415V191.765Z" fill="#1E1E1D"/>
<path d="M202.683 137.401L217.185 160.638C217.185 160.638 221.951 169.068 223.465 169.554C224.326 169.829 231.983 163.904 233.949 162.316C237.054 159.81 235.411 157.988 229.128 149.109C223.728 141.474 215.908 132.19 213.82 129.731C213.491 129.344 212.994 129.199 212.533 129.349C210.732 129.948 206.232 131.612 204.818 133.75C203.033 136.446 202.686 137.398 202.686 137.398L202.683 137.401Z" fill="#3EF0FB"/>
<path d="M238.754 221.999C250.201 221.999 259.481 211.803 259.481 199.225C259.481 186.647 250.201 176.451 238.754 176.451C227.307 176.451 218.028 186.647 218.028 199.225C218.028 211.803 227.307 221.999 238.754 221.999Z" fill="#393A38"/>
<path d="M238.754 213.606C245.651 213.606 251.242 207.168 251.242 199.225C251.242 191.283 245.651 184.844 238.754 184.844C231.857 184.844 226.266 191.283 226.266 199.225C226.266 207.168 231.857 213.606 238.754 213.606Z" fill="black"/>
<path d="M237.319 200.112L241.258 197.415L244.492 182.834C244.492 182.834 245.013 180.63 245.866 179.525C246.719 178.419 247.277 177.954 247.614 178.943C247.614 178.943 247.762 178.067 246.314 177.442C244.879 176.822 237.096 173.562 231.445 174.583C225.795 175.605 237.319 200.112 237.319 200.112Z" fill="#00DFF4"/>
<path d="M224.51 175.87L227.116 181.659L228.238 181.003L225.3 174.215L223.417 169.633L222.448 171.256L224.51 175.87Z" fill="#B7C4B7"/>
<path d="M236.977 199.996L229.797 180.91C229.705 180.667 229.465 180.534 229.231 180.598C228.575 180.78 227.277 181.188 226.43 181.761C226.127 181.966 225.879 182.192 225.742 182.435C225.255 183.294 232.267 194.461 236.137 200.505C236.469 201.023 237.196 200.58 236.977 199.996Z" fill="#1E1E1D"/>
<path d="M184.955 128.536C184.884 128.62 184.734 128.536 184.731 128.88C184.729 129.225 184.618 129.488 184.4 129.309C184.181 129.129 183.994 128.678 184.076 128.559C184.147 128.455 184.95 128.528 184.955 128.539V128.536Z" fill="#D5C4BB"/>
<path d="M186.78 128.708C186.756 128.69 186.753 128.656 186.769 128.633C186.811 128.575 186.877 128.453 186.914 128.447C186.977 128.442 187.259 128.725 187.27 128.768C187.27 128.768 187.285 128.91 187.085 128.954L186.78 128.708Z" fill="#B7C4B7"/>
<path d="M188.404 129.651C188.404 129.651 188.544 129.353 188.623 129.452C188.702 129.55 188.91 129.799 188.897 129.891C188.883 129.984 188.876 130.068 188.797 130.056C188.718 130.045 188.407 129.654 188.407 129.654L188.404 129.651Z" fill="#B7C4B7"/>
<path d="M188.728 129.177C188.728 129.177 188.873 128.864 188.954 128.966C189.036 129.067 189.305 129.379 189.291 129.475C189.278 129.57 189.22 129.611 189.136 129.599C189.052 129.588 188.728 129.177 188.728 129.177Z" fill="#B7C4B7"/>
<path d="M193.736 104.689C193.736 104.689 194.531 104.878 194.381 105.954C194.231 107.03 192.975 108.954 192.419 109.217C191.864 109.48 191.308 109.107 191.308 109.107L193.738 104.689H193.736Z" fill="black"/>
<path d="M193.17 107.333C193.869 106.113 194.179 104.947 193.863 104.728C193.547 104.51 192.724 105.321 192.025 106.54C191.326 107.76 191.015 108.925 191.331 109.144C191.648 109.363 192.471 108.552 193.17 107.333Z" fill="white"/>
<path d="M193.114 108.529L194.328 115.137L194.641 117.26H195.076L193.396 108.133L193.114 108.529Z" fill="black"/>
<path d="M181.351 115.024C181.351 115.024 185.945 119.072 185.972 119.161C185.998 119.251 185.972 121.939 185.972 121.939H186.596V119.072L184.476 117.131L180.914 114.174L180.711 114.504L181.351 115.027V115.024Z" fill="black"/>
<path d="M179.013 115.606C180.454 115.606 181.622 114.276 181.622 112.635C181.622 110.994 180.454 109.664 179.013 109.664C177.572 109.664 176.403 110.994 176.403 112.635C176.403 114.276 177.572 115.606 179.013 115.606Z" fill="black"/>
<path d="M187.764 115.283C187.764 115.283 191.366 117.178 191.329 117.976C191.293 118.775 189.155 120.184 188.22 120.563C187.111 121.011 186.422 120.835 186.34 121.283C186.308 121.457 186.366 121.535 186.369 121.656C186.374 121.824 186.503 121.951 186.653 121.937C187.177 121.885 188.309 121.416 188.696 121.234C189.128 121.031 191.498 119.628 191.867 118.428C192.172 117.438 191.677 116.949 190.342 115.633C189.007 114.317 188.665 113.787 188.665 113.787L187.767 115.283H187.764Z" fill="black"/>
<path d="M187.301 110.374H189.763C190.163 110.374 190.419 110.834 190.221 111.21L187.077 117.236C186.946 117.488 186.656 117.592 186.409 117.476L184.515 116.594C184.234 116.464 184.118 116.102 184.263 115.813L186.838 110.669C186.93 110.487 187.106 110.371 187.301 110.371V110.374Z" fill="#99DB26"/>
<path d="M187.717 110.48H189.773C190.266 110.48 190.576 111.062 190.337 111.534L187.48 117.163C187.319 117.482 186.964 117.615 186.659 117.467L185.084 116.715C184.739 116.55 184.594 116.096 184.773 115.731L187.148 110.857C187.262 110.625 187.48 110.483 187.717 110.483V110.48Z" fill="black"/>
<path d="M189.537 120.492C189.537 120.492 190.253 117.37 191.754 115.958C193.254 114.546 194.616 113.771 195.319 114.856L196.001 116.693C196.001 116.693 192.725 118.71 191.893 119.3C191.061 119.89 189.608 120.686 189.608 120.686L189.537 120.492Z" fill="#1E1E1E"/>
<path d="M195.587 116.771L194.902 114.925C194.876 114.85 194.808 114.807 194.734 114.816C194.447 114.85 193.739 114.989 193.417 115.542C193.391 115.588 193.388 115.652 193.407 115.704L194.123 117.636C194.16 117.735 194.268 117.778 194.352 117.723L195.513 116.991C195.584 116.948 195.613 116.852 195.582 116.771H195.587Z" fill="white"/>
<path d="M197.264 115.966C197.264 115.966 199.484 114.34 199.808 114.346C200.132 114.352 200.966 114.534 200.582 115.376L198.391 117.571L196.259 119.351L195.832 117.58L195.998 116.663L197.264 115.963V115.966Z" fill="black"/>
</g>
<path fill-rule="evenodd" clip-rule="evenodd" d="M131.384 74.817C131.384 74.817 132.489 68.4085 125.241 60.8137C118.002 53.2216 105.84 49.6063 106.324 33.1201C106.808 16.6338 133.31 0.780313 142.539 20.3368C153.455 43.483 133.621 75.7227 131.384 74.817Z" fill="#00DFF4"/>
<path fill-rule="evenodd" clip-rule="evenodd" d="M118.756 26.7369V31.8513H123.518V26.7369H118.756ZM118.673 24.1797C117.427 24.1797 116.417 25.2837 116.417 26.6456V31.9426C116.417 33.3045 117.427 34.4085 118.673 34.4085H123.518C124.764 34.4085 125.773 33.3045 125.773 31.9426V26.6456C125.773 25.2837 124.764 24.1797 123.518 24.1797L118.673 24.1797Z" fill="white"/>
<path fill-rule="evenodd" clip-rule="evenodd" d="M128.071 38.153C128.071 37.4721 128.576 36.9201 129.198 36.9201H132.958C133.58 36.9201 134.085 37.4721 134.085 38.153C134.085 38.834 133.58 39.386 132.958 39.386H130.326V41.8518C130.326 42.5328 129.821 43.0848 129.198 43.0848C128.576 43.0848 128.071 42.5328 128.071 41.8518V38.153Z" fill="white"/>
<path fill-rule="evenodd" clip-rule="evenodd" d="M128.071 45.9616C128.071 45.2807 128.576 44.7287 129.198 44.7287H132.958C133.58 44.7287 134.085 45.2807 134.085 45.9616C134.085 46.6426 133.58 47.1946 132.958 47.1946H129.198C128.576 47.1946 128.071 46.6426 128.071 45.9616Z" fill="white"/>
<path fill-rule="evenodd" clip-rule="evenodd" d="M136.341 40.6189C136.964 40.6189 137.468 41.1709 137.468 41.8518V45.9616C137.468 46.6426 136.964 47.1946 136.341 47.1946C135.718 47.1946 135.213 46.6426 135.213 45.9616V43.0848H132.958C132.335 43.0848 131.83 42.5328 131.83 41.8518C131.83 41.1709 132.335 40.6189 132.958 40.6189H136.341Z" fill="white"/>
<path d="M122.223 29.2484C122.223 29.9294 121.718 30.4814 121.095 30.4814C120.473 30.4814 119.968 29.9294 119.968 29.2484C119.968 28.5675 120.473 28.0155 121.095 28.0155C121.718 28.0155 122.223 28.5675 122.223 29.2484Z" fill="white"/>
<path d="M137.468 38.153C137.468 38.834 136.964 39.386 136.341 39.386C135.718 39.386 135.213 38.834 135.213 38.153C135.213 37.4721 135.718 36.9201 136.341 36.9201C136.964 36.9201 137.468 37.4721 137.468 38.153Z" fill="white"/>
<path fill-rule="evenodd" clip-rule="evenodd" d="M130.451 26.7369V31.8513H135.213V26.7369H130.451ZM130.368 24.1797C129.122 24.1797 128.112 25.2837 128.112 26.6456V31.9426C128.112 33.3045 129.122 34.4085 130.368 34.4085H135.213C136.459 34.4085 137.468 33.3045 137.468 31.9426V26.6456C137.468 25.2837 136.459 24.1797 135.213 24.1797L130.368 24.1797Z" fill="white"/>
<path d="M133.918 29.2484C133.918 29.9294 133.413 30.4814 132.79 30.4814C132.168 30.4814 131.663 29.9294 131.663 29.2484C131.663 28.5675 132.168 28.0155 132.79 28.0155C133.413 28.0155 133.918 28.5675 133.918 29.2484Z" fill="white"/>
<path fill-rule="evenodd" clip-rule="evenodd" d="M118.756 39.523V44.6374H123.518V39.523H118.756ZM118.673 36.9657C117.427 36.9657 116.417 38.0698 116.417 39.4316V44.7287C116.417 46.0906 117.427 47.1946 118.673 47.1946H123.518C124.764 47.1946 125.773 46.0906 125.773 44.7287V39.4316C125.773 38.0698 124.764 36.9657 123.518 36.9657H118.673Z" fill="white"/>
<path d="M122.223 42.0345C122.223 42.7154 121.718 43.2674 121.095 43.2674C120.473 43.2674 119.968 42.7154 119.968 42.0345C119.968 41.3536 120.473 40.8016 121.095 40.8016C121.718 40.8016 122.223 41.3536 122.223 42.0345Z" fill="white"/>
<path d="M87.8223 87.8172C88.2186 90.9587 100.505 107.857 107.44 108.399C107.539 108.399 107.639 108.399 107.837 108.399C108.332 108.399 108.828 108.182 109.323 107.966C111.8 106.233 121.807 99.083 125.275 94.75L124.681 90.3087C119.429 92.2586 107.837 100.058 107.837 100.058C107.837 100.058 107.341 100.275 107.143 99.9496C98.0277 90.6336 93.8662 87.1673 90.8938 84.6758L87.8223 87.8172Z" fill="#D7A887"/>
<path d="M70.4837 200.475C70.9791 201.883 70.0874 207.083 69.9883 208.708C70.9791 210.224 73.4561 209.033 73.7534 207.408C73.7534 207.191 73.9515 207.191 73.9515 206.758C73.6543 205.783 74.2488 201.992 74.9424 199.934L70.4837 200.475Z" fill="#F8AB90"/>
<path d="M85.8409 202.75C86.2373 204.158 85.0483 207.625 84.9492 209.358C85.841 210.983 88.4171 209.9 88.8134 208.275C88.8134 208.058 89.0116 208.058 89.0116 207.625C88.6152 206.542 89.507 203.508 90.3987 201.559L85.8409 202.75Z" fill="#F8AB90"/>
<path d="M85.6428 121.939H94.9564C99.6133 137.322 101 154.762 98.2261 172.094C98.028 173.394 97.7307 174.694 97.3344 175.994L94.1638 202.858C91.7858 203.942 84.8501 203.183 82.4722 202.533C85.6428 192.567 87.4262 183.793 88.1198 174.152C88.4171 172.636 88.4171 169.494 88.4171 169.494C89.507 154.545 86.3363 125.731 85.6428 121.939Z" fill="#74B79C"/>
<path d="M78.1127 202.641C74.9421 203.616 70.5825 201.991 68.1055 200.907L74.1494 171.01C74.2485 170.468 74.2485 169.818 74.2485 169.276L72.0687 133.421C72.0687 132.554 72.0687 131.688 72.1678 130.821C72.5641 127.679 73.2577 123.13 74.4467 121.613H86.6337C90.1016 139.379 89.5071 154.544 88.1199 163.102C88.0208 163.86 87.3273 172.201 86.5346 174.584L78.1127 202.641Z" fill="#74B79C"/>
<path d="M94.9556 122.157L74.2475 122.482L74.1484 121.507L94.8565 121.398L94.9556 122.157Z" fill="#20505A"/>
<path d="M79.4015 62.6855L86.5353 63.4438C84.4546 67.0186 82.8693 70.16 85.2473 72.6515L78.4106 72.0015C80.7886 70.2683 80.3923 66.0436 79.4015 62.6855Z" fill="#ECBC97"/>
<path d="M86.5363 47.9531C86.5363 47.9531 89.2115 51.5279 88.617 54.1277C88.518 54.561 88.518 54.886 88.4189 55.1026C88.1216 56.6192 88.1216 56.5109 89.6079 57.2691C90.4005 57.7024 89.7069 58.4607 89.3106 58.7857C89.1124 59.0023 89.0134 59.219 89.0134 59.5439C89.0134 59.8689 89.1124 60.1939 89.1124 60.1939C89.1124 60.3023 89.4097 61.1688 88.617 61.1688C84.6538 61.2771 87.9235 61.1688 88.8152 61.4938C88.8152 61.4938 89.2115 61.7105 89.1124 61.9271C89.0134 62.1438 88.7161 62.4687 88.617 62.7937C88.518 63.1187 88.518 64.0936 88.3198 64.5269C88.1216 64.9602 85.8428 65.7185 84.4556 65.2852C83.3657 64.9602 81.9786 64.6353 81.3841 64.5269C81.1859 64.5269 80.7896 63.9853 80.6905 63.7687C80.3933 63.552 79.6006 63.3354 79.0061 62.9021C77.8172 62.0355 78.808 61.6021 78.9071 61.0605C79.0061 60.5189 79.2043 59.544 79.0061 59.219C78.808 58.894 77.8172 57.5941 77.619 57.0525C77.3217 56.1859 77.8172 54.6693 78.2135 54.1277C78.6098 53.5861 79.4025 53.3694 79.8979 53.8027C80.2942 54.1277 80.7896 54.1277 80.9878 53.6944C81.285 53.1528 83.8611 49.4697 84.3565 49.1447C84.8519 48.8198 86.5363 47.9531 86.5363 47.9531Z" fill="#ECBC97"/>
<path d="M89.0117 50.2278C88.9126 50.6611 88.7145 50.9861 88.5163 51.311C88.2191 51.8527 87.7237 52.2859 87.1292 52.5026C85.3457 53.2609 83.8595 54.0191 82.1751 53.9108C81.4815 53.8025 80.887 54.2358 80.5898 54.9941C80.3916 55.644 79.9953 56.0773 79.599 56.5106C78.9054 57.2689 78.7072 58.4605 79.0045 59.4354C79.4999 60.8437 81.4815 65.9349 80.9861 67.1265C82.076 77.2008 72.5642 88.7915 64.2413 80.9921C60.2781 76.3341 68.0064 68.4264 68.2046 63.5518C67.9074 57.3772 72.4651 52.0693 72.9605 50.7694C73.1587 50.3361 73.3568 50.0111 73.6541 49.6862C74.8431 48.3863 75.8339 46.6531 76.8247 45.8948C77.7164 45.1365 78.7072 44.7032 79.7971 44.2699C81.4815 43.62 83.3641 43.8366 84.9494 44.9198C86.6338 46.0031 88.12 47.5197 88.7145 48.8196C89.1108 49.2529 89.2099 49.7945 89.0117 50.2278Z" fill="#BC9D02"/>
<path d="M79.9966 56.1862C79.7985 55.7529 79.5012 55.428 79.204 55.3196C79.1049 55.2113 78.9067 55.3196 78.8076 55.3196C77.9159 55.7529 77.7177 56.5112 78.1141 57.4861C78.1141 57.4861 78.1141 57.4861 78.1141 57.5944C78.7086 58.5694 79.1049 58.786 79.8975 59.2193L79.9966 56.1862Z" fill="#ECBC97"/>
<path d="M69.9894 205.674C71.4756 206.432 72.9619 206.432 74.5472 205.457C74.6462 205.457 74.7453 205.457 74.7453 205.565C75.6371 207.299 76.5288 209.573 77.9159 210.873C79.4021 211.957 81.1856 212.715 83.1672 213.365C83.3654 213.473 83.6627 213.581 83.9599 213.473C84.9507 213.473 85.6443 213.581 86.3379 214.015C86.4369 214.015 86.536 214.123 86.6351 214.123C87.0314 214.34 87.2296 214.881 87.3287 215.531C87.3287 215.965 87.1305 216.29 86.8333 216.506C85.248 217.481 83.1672 217.914 80.6902 217.914L76.1325 217.265L68.8995 216.615L68.1069 216.29C68.0078 216.181 67.9087 216.073 67.9087 215.965C67.9087 214.665 68.1069 213.256 68.6023 211.848C68.7014 211.415 68.9986 210.873 69.1968 210.44C69.7912 209.248 69.9894 207.732 69.8903 205.999C69.7912 205.674 69.8903 205.565 69.9894 205.674Z" fill="#BFBAB8"/>
<path d="M67.9099 214.123C67.7117 214.123 67.6126 215.64 67.7117 215.965C67.8108 216.398 69.1979 216.615 69.4952 216.615C70.5851 216.831 71.8732 216.831 73.0621 216.939L77.1245 217.373C78.3134 217.589 79.6015 217.806 80.9887 217.806C82.0785 217.806 83.1684 217.698 84.2583 217.373C85.1501 217.156 85.9427 216.831 86.7354 216.29C86.8344 216.181 86.9335 216.181 86.9335 215.965C87.1317 215.423 87.1317 214.556 86.339 214.123C85.4473 214.665 84.0602 214.99 82.5739 215.315C81.4841 215.531 80.196 215.64 78.8088 215.531C76.6291 215.423 74.5483 215.315 72.6658 214.881C70.9814 214.773 69.297 214.556 67.9099 214.123Z" fill="#20505A"/>
<path d="M83.6623 213.365C83.5632 214.123 83.5632 214.664 83.8604 215.098C84.9503 214.881 85.8421 214.556 86.6347 214.123C85.8421 213.581 84.8513 213.256 83.6623 213.365Z" fill="#F05A24"/>
<path d="M74.3507 207.516C74.5697 207.516 74.7472 207.321 74.7472 207.082C74.7472 206.843 74.5697 206.648 74.3507 206.648C74.1316 206.648 73.9541 206.843 73.9541 207.082C73.9541 207.321 74.1316 207.516 74.3507 207.516Z" fill="#D7CCC2"/>
<path d="M75.044 209.031C75.2631 209.031 75.4406 208.837 75.4406 208.598C75.4406 208.358 75.2631 208.164 75.044 208.164C74.825 208.164 74.6475 208.358 74.6475 208.598C74.6475 208.837 74.825 209.031 75.044 209.031Z" fill="#D7CCC2"/>
<path d="M75.6402 210.332C75.8592 210.332 76.0368 210.138 76.0368 209.898C76.0368 209.659 75.8592 209.465 75.6402 209.465C75.4212 209.465 75.2437 209.659 75.2437 209.898C75.2437 210.138 75.4212 210.332 75.6402 210.332Z" fill="#D7CCC2"/>
<path d="M76.6305 211.633C76.8495 211.633 77.027 211.439 77.027 211.199C77.027 210.96 76.8495 210.766 76.6305 210.766C76.4114 210.766 76.2339 210.96 76.2339 211.199C76.2339 211.439 76.4114 211.633 76.6305 211.633Z" fill="#D7CCC2"/>
<path d="M77.7169 212.498C77.9359 212.498 78.1135 212.304 78.1135 212.064C78.1135 211.825 77.9359 211.631 77.7169 211.631C77.4979 211.631 77.3203 211.825 77.3203 212.064C77.3203 212.304 77.4979 212.498 77.7169 212.498Z" fill="#D7CCC2"/>
<path d="M79.2689 213.156C79.4368 213.002 79.4588 212.728 79.3181 212.545C79.1774 212.361 78.9274 212.337 78.7595 212.491C78.5916 212.645 78.5696 212.918 78.7103 213.102C78.8509 213.285 79.1011 213.309 79.2689 213.156Z" fill="#D7CCC2"/>
<path d="M80.4577 213.627C80.5835 213.512 80.6001 213.307 80.4946 213.169C80.3891 213.032 80.2015 213.014 80.0756 213.129C79.9497 213.244 79.9332 213.449 80.0387 213.587C80.1442 213.725 80.3318 213.743 80.4577 213.627Z" fill="#D7CCC2"/>
<path d="M82.0299 213.966C82.1107 213.81 82.0602 213.612 81.9172 213.523C81.7742 213.435 81.5927 213.49 81.512 213.647C81.4312 213.803 81.4817 214.001 81.6247 214.09C81.7678 214.178 81.9492 214.123 82.0299 213.966Z" fill="#D7CCC2"/>
<path d="M75.1421 208.165C75.4395 208.057 75.8361 208.057 76.0344 208.273C76.1335 208.49 76.2327 208.707 76.3318 208.815C76.0344 208.599 75.5387 208.707 75.3404 208.707C75.4395 208.49 75.3404 208.273 75.1421 208.165Z" fill="#686461"/>
<path d="M75.7373 209.465C76.0347 209.357 76.4313 209.14 76.7287 209.248C76.8279 209.357 76.927 209.465 77.0262 209.682C76.6296 209.573 76.1339 209.79 76.0347 209.899C76.0347 209.682 75.9356 209.573 75.7373 209.465Z" fill="#686461"/>
<path d="M76.6289 210.764C76.8271 210.548 77.3225 210.439 77.6197 210.439C77.7188 210.548 77.8179 210.656 78.0161 210.764C77.6197 210.764 77.1243 210.981 76.9262 211.198C76.9262 210.981 76.8271 210.764 76.6289 210.764Z" fill="#686461"/>
<path d="M77.8169 211.631C78.0151 211.414 78.3123 211.306 78.7086 211.197C78.8077 211.306 79.0059 211.306 79.204 211.522C78.8077 211.631 78.4114 211.956 78.2132 212.064C78.1141 211.956 78.0151 211.739 77.8169 211.631Z" fill="#686461"/>
<path d="M79.0073 212.391C79.2056 212.065 79.4039 211.957 79.7013 211.957C79.8996 212.065 79.8996 212.065 80.0979 212.174C79.8005 212.391 79.503 212.716 79.4039 212.824C79.4039 212.607 79.3048 212.391 79.0073 212.391Z" fill="#686461"/>
<path d="M80.2939 213.04C80.4922 212.715 80.7897 212.606 80.988 212.498C81.1862 212.606 81.2854 212.606 81.4837 212.715C81.1862 212.932 80.8888 213.257 80.6905 213.365C80.5914 213.257 80.4922 213.04 80.2939 213.04Z" fill="#686461"/>
<path d="M81.584 213.581C81.6831 213.147 81.6831 213.039 81.8814 212.822C82.0797 212.822 82.278 212.931 82.278 212.931C82.1788 213.256 82.1788 213.473 82.0797 213.689C81.9806 213.581 81.7823 213.364 81.584 213.581Z" fill="#686461"/>
<path d="M74.4507 206.648C74.7481 206.539 75.0455 206.539 75.2438 206.648C75.343 206.864 75.4421 207.081 75.5413 207.19C75.1447 207.081 74.9464 206.973 74.7481 207.081C74.7481 206.973 74.649 206.756 74.4507 206.648Z" fill="#686461"/>
<path d="M72.9639 206.106C72.9639 205.998 72.9639 205.89 72.9639 205.781C72.9639 205.565 73.162 205.348 73.3602 205.24C73.6574 205.023 73.9547 204.806 74.351 204.59C74.4501 204.806 74.5492 205.131 74.6482 205.456C74.351 205.673 73.9547 205.781 73.7565 205.89C73.5584 205.89 73.2611 205.998 72.9639 206.106Z" fill="#20505A"/>
<path d="M84.9513 206.433C86.4375 207.192 87.9238 207.192 89.5091 206.217C89.6081 206.217 89.7072 206.217 89.7072 206.325C90.599 208.058 91.4907 210.333 92.8778 211.633C94.3641 212.716 96.1475 213.475 98.1292 214.125C98.3273 214.233 98.6246 214.341 98.9218 214.233C99.9126 214.233 100.606 214.341 101.3 214.774C101.399 214.774 101.498 214.883 101.597 214.883C101.993 215.099 102.192 215.641 102.291 216.291C102.291 216.724 102.092 217.049 101.795 217.266C100.21 218.241 98.1292 218.674 95.6521 218.674L91.0944 218.024L83.8614 217.374L83.0688 217.049C82.9697 216.941 82.8706 216.833 82.8706 216.724C82.8706 215.424 83.0688 214.016 83.5642 212.608C83.6633 212.175 83.9605 211.633 84.1587 211.2C84.7532 210.008 84.9513 208.492 84.8522 206.758C84.8522 206.433 84.9513 206.433 84.9513 206.433Z" fill="#BFBAB8"/>
<path d="M82.9665 214.99C82.7684 214.99 82.6693 216.507 82.7684 216.832C82.8674 217.265 84.2546 217.482 84.5518 217.482C85.6417 217.698 86.9298 217.698 88.1188 217.807L92.1811 218.24C93.3701 218.457 94.6582 218.673 96.0453 218.673C97.1352 218.673 98.2251 218.565 99.315 218.24C100.207 218.023 100.999 217.698 101.792 217.157C101.891 217.048 101.99 217.048 101.99 216.832C102.188 216.29 102.188 215.424 101.396 214.99C100.504 215.532 99.1168 215.857 97.6306 216.182C96.5407 216.399 95.2526 216.507 93.8655 216.398C91.6857 216.29 89.605 216.182 87.7224 215.749C86.0381 215.64 84.3537 215.424 82.9665 214.99Z" fill="#20505A"/>
<path d="M98.6213 214.232C98.5222 214.99 98.5222 215.532 98.8194 215.965C99.9093 215.748 100.801 215.423 101.594 214.99C100.801 214.34 99.9093 214.123 98.6213 214.232Z" fill="#20505A"/>
<path d="M89.4093 208.275C89.6283 208.275 89.8058 208.081 89.8058 207.842C89.8058 207.602 89.6283 207.408 89.4093 207.408C89.1903 207.408 89.0127 207.602 89.0127 207.842C89.0127 208.081 89.1903 208.275 89.4093 208.275Z" fill="#D7CCC2"/>
<path d="M90.0025 209.791C90.2215 209.791 90.3991 209.597 90.3991 209.357C90.3991 209.118 90.2215 208.924 90.0025 208.924C89.7835 208.924 89.606 209.118 89.606 209.357C89.606 209.597 89.7835 209.791 90.0025 209.791Z" fill="#D7CCC2"/>
<path d="M90.6973 211.199C90.9164 211.199 91.0939 211.005 91.0939 210.766C91.0939 210.526 90.9164 210.332 90.6973 210.332C90.4783 210.332 90.3008 210.526 90.3008 210.766C90.3008 211.005 90.4783 211.199 90.6973 211.199Z" fill="#D7CCC2"/>
<path d="M91.587 212.391C91.806 212.391 91.9836 212.196 91.9836 211.957C91.9836 211.718 91.806 211.523 91.587 211.523C91.368 211.523 91.1904 211.718 91.1904 211.957C91.1904 212.196 91.368 212.391 91.587 212.391Z" fill="#D7CCC2"/>
<path d="M92.776 213.258C92.995 213.258 93.1725 213.064 93.1725 212.824C93.1725 212.585 92.995 212.391 92.776 212.391C92.5569 212.391 92.3794 212.585 92.3794 212.824C92.3794 213.064 92.5569 213.258 92.776 213.258Z" fill="#D7CCC2"/>
<path d="M94.3002 213.912C94.4681 213.758 94.4901 213.484 94.3494 213.301C94.2087 213.117 93.9586 213.093 93.7908 213.247C93.6229 213.401 93.6009 213.674 93.7415 213.858C93.8822 214.041 94.1324 214.065 94.3002 213.912Z" fill="#D7CCC2"/>
<path d="M95.4855 214.383C95.6114 214.268 95.6279 214.063 95.5224 213.925C95.4169 213.788 95.2293 213.77 95.1034 213.885C94.9775 214 94.961 214.205 95.0665 214.343C95.172 214.481 95.3596 214.499 95.4855 214.383Z" fill="#D7CCC2"/>
<path d="M97.1344 214.781C97.2152 214.624 97.1647 214.426 97.0217 214.338C96.8786 214.249 96.6972 214.305 96.6165 214.461C96.5357 214.617 96.5862 214.816 96.7292 214.904C96.8722 214.992 97.0537 214.937 97.1344 214.781Z" fill="#D7CCC2"/>
<path d="M90.1992 208.925C90.4966 208.816 90.8932 208.816 91.0915 209.033C91.1906 209.25 91.2898 209.467 91.3889 209.575C91.0915 209.358 90.5958 209.467 90.3975 209.467C90.3975 209.25 90.3975 209.033 90.1992 208.925Z" fill="#686461"/>
<path d="M90.7959 210.332C91.0933 210.224 91.4899 210.007 91.7873 210.115C91.8865 210.224 91.9856 210.332 92.0848 210.549C91.6882 210.441 91.1925 210.657 91.0933 210.766C91.0933 210.549 90.9942 210.332 90.7959 210.332Z" fill="#686461"/>
<path d="M91.6875 211.524C91.8857 211.308 92.3811 211.199 92.6783 211.199C92.7774 211.308 92.8765 211.416 93.0747 211.524C92.6783 211.524 92.1829 211.741 91.9847 211.958C91.9847 211.849 91.8857 211.633 91.6875 211.524Z" fill="#686461"/>
<path d="M92.7778 212.5C92.976 212.283 93.2732 212.175 93.6696 212.066C93.7686 212.175 93.9668 212.175 94.165 212.391C93.7686 212.5 93.3723 212.825 93.1742 212.933C93.1742 212.716 93.0751 212.5 92.7778 212.5Z" fill="#686461"/>
<path d="M94.0664 213.15C94.2647 212.825 94.463 212.717 94.7604 212.717C94.9587 212.825 94.9587 212.825 95.157 212.934C94.8595 213.15 94.5621 213.476 94.463 213.584C94.3638 213.367 94.2647 213.15 94.0664 213.15Z" fill="#686461"/>
<path d="M95.3506 213.8C95.5489 213.475 95.8463 213.366 96.0446 213.258C96.2429 213.366 96.342 213.366 96.5403 213.475C96.2429 213.691 95.9454 214.017 95.7471 214.125C95.648 214.017 95.5489 213.8 95.3506 213.8Z" fill="#686461"/>
<path d="M96.6411 214.341C96.7403 213.907 96.7403 213.799 96.9385 213.582C97.1368 213.582 97.3351 213.69 97.3351 213.69C97.236 214.016 97.236 214.232 97.1368 214.449C97.0377 214.341 96.8394 214.124 96.6411 214.341Z" fill="#686461"/>
<path d="M89.5078 207.407C89.8052 207.299 90.1027 207.299 90.301 207.407C90.4001 207.624 90.4992 207.841 90.5984 207.949C90.2018 207.841 90.0035 207.733 89.8052 207.841C89.8052 207.733 89.7061 207.516 89.5078 207.407Z" fill="#686461"/>
<path d="M88.0229 206.866C88.0229 206.758 88.0229 206.649 88.0229 206.541C88.0229 206.325 88.2211 206.108 88.4193 206C88.7165 205.783 89.0138 205.566 89.4101 205.35C89.5092 205.566 89.6083 205.891 89.7073 206.216C89.4101 206.433 89.0138 206.541 88.8156 206.649C88.6174 206.758 88.3202 206.866 88.0229 206.866Z" fill="#20505A"/>
<path d="M87.3276 88.7909C87.724 91.9323 100.01 108.831 106.946 109.373C107.045 109.373 107.144 109.373 107.342 109.373C107.838 109.373 108.333 109.156 108.828 108.939C111.305 107.206 121.313 100.057 124.78 95.7237L122.7 91.6074C117.448 93.5573 107.243 101.14 107.243 101.14C107.243 101.14 106.649 101.357 106.549 101.032C102.388 93.5572 96.3441 89.5492 90.3001 85.7578L87.3276 88.7909Z" fill="#ECBC97"/>
<path d="M133.898 83.2676L129.34 91.1753C129.34 91.1753 129.836 92.1502 131.025 92.0419C132.115 91.9336 133.7 88.9005 133.799 88.3589C133.997 87.7089 133.7 87.1673 133.898 86.734C134.096 86.3007 133.997 85.2174 133.997 85.2174C133.898 85.2174 134.889 83.7009 133.898 83.2676Z" fill="#D7A887"/>
<path d="M128.05 91.1754L130.428 80.6678C130.527 80.3428 130.725 80.1262 130.924 79.9095L134.392 77.743C134.59 77.6347 134.887 77.6347 134.986 77.8514C135.085 77.9597 135.085 78.1763 135.085 78.2846L132.608 89.3338L128.05 91.1754Z" fill="#1A2E35"/>
<path d="M132.506 90.3086C132.506 90.3086 132.605 90.2002 132.605 89.8753C132.605 89.5503 132.605 89.117 132.506 88.5754C132.605 88.3587 132.605 88.2504 132.605 88.0337C132.506 87.8171 132.407 87.6004 132.209 87.4921H132.11V87.3838C132.308 87.0588 132.506 86.7339 132.705 86.3006C132.804 86.1922 132.804 86.0839 132.804 86.0839C132.804 85.9756 132.804 85.8673 132.804 85.7589C132.705 85.5423 132.605 85.4339 132.407 85.3256V85.2173L132.506 85.109C132.705 84.8923 132.903 84.6757 133.101 84.459C133.398 84.0257 133.794 83.7008 133.993 83.2675C134.092 83.0508 134.29 82.8341 134.29 82.6175C134.29 82.5091 134.389 82.4008 134.389 82.2925C134.389 82.1842 134.389 82.1842 134.29 82.1842C134.191 82.1842 134.092 82.1842 133.993 82.2925C133.894 82.2925 133.794 82.4009 133.695 82.4009C133.497 82.5092 133.299 82.6175 133.101 82.7258C132.705 82.9425 132.407 83.2674 132.209 83.3758C132.011 83.5924 131.813 83.7008 131.615 83.8091C131.516 83.9174 131.417 84.0257 131.417 83.9174C131.417 83.9174 131.516 83.809 131.615 83.7007C131.714 83.5924 131.912 83.3757 132.11 83.1591C132.308 82.9424 132.605 82.7258 133.002 82.4009C133.2 82.2925 133.398 82.1842 133.596 81.9675C133.695 81.8592 133.794 81.8592 133.894 81.7509C133.993 81.7509 134.191 81.6426 134.29 81.6426C134.488 81.6426 134.587 81.8592 134.488 81.9675C134.488 82.0759 134.488 82.1842 134.389 82.2925C134.29 82.5092 134.191 82.7258 133.993 82.9425C133.695 83.3758 133.398 83.7007 133.101 84.134C132.903 84.3507 132.705 84.5673 132.506 84.784V84.6757C132.705 84.784 132.903 85.0006 133.002 85.2173C133.002 85.3256 133.101 85.434 133.002 85.6506C133.002 85.759 132.903 85.8673 132.804 85.9756C132.605 86.3006 132.407 86.7339 132.11 87.0588V86.9505C132.308 87.1671 132.506 87.2755 132.506 87.6005C132.605 87.8171 132.506 88.1421 132.407 88.2504C132.506 88.792 132.506 89.3337 132.506 89.5503C132.605 90.0919 132.605 90.2003 132.506 90.3086Z" fill="#C89777"/>
<path d="M134.985 77.8516C134.985 77.8516 134.886 77.9599 134.688 78.0682C134.489 78.1766 134.192 78.3932 133.895 78.6099C133.499 78.8265 133.102 79.1514 132.706 79.3681C132.508 79.4764 132.211 79.6931 132.012 79.8014C131.715 79.9097 131.517 80.1264 131.319 80.343C131.121 80.5597 131.022 80.8846 130.922 81.2096C130.823 81.5346 130.823 81.8596 130.724 82.0762C130.625 82.6178 130.427 83.1595 130.328 83.5928C130.229 84.0261 130.13 84.3511 130.031 84.5677C129.932 84.7844 129.932 84.8927 129.932 84.8927C129.932 84.8927 129.932 84.7843 130.031 84.4594C130.031 84.2427 130.13 83.9178 130.229 83.4845C130.328 83.0512 130.427 82.5095 130.526 81.9679C130.625 81.6429 130.625 81.4263 130.724 81.1013C130.823 80.7763 130.922 80.4513 131.121 80.1264C131.319 79.9097 131.616 79.6931 131.913 79.5847C132.211 79.4764 132.409 79.2598 132.607 79.1515C133.102 78.8265 133.499 78.6098 133.895 78.3932C134.291 78.1765 134.489 77.9599 134.787 77.8516C134.886 77.9599 134.985 77.8516 134.985 77.8516Z" fill="#375A64"/>
<path d="M132.709 81.4267C132.609 81.6435 132.609 81.8603 132.709 81.8603C132.808 81.8603 132.907 81.7519 133.006 81.5351C133.105 81.3183 133.105 81.1016 133.006 81.1016C132.907 81.1016 132.808 81.2099 132.709 81.4267Z" fill="white"/>
<path d="M124.184 90.7416C124.977 90.3083 124.977 88.9001 125.373 88.0335C125.671 87.2752 126.067 86.5169 126.364 86.4086C126.86 86.0836 129.634 84.2421 129.634 84.2421L129.337 85.6504L132.012 83.5922C132.309 83.3755 134.192 81.4257 134.588 82.184C134.786 82.7256 133.3 84.1338 133.102 84.4588C132.606 85.217 132.805 85.2171 132.805 85.2171C132.805 85.2171 133.399 85.542 133.102 86.0836C132.805 86.6253 132.309 87.2753 132.309 87.2753C132.309 87.2753 133.003 87.6002 132.606 88.5751C132.606 88.5751 132.805 89.1167 132.705 89.875C132.606 90.3083 132.309 90.8499 131.913 91.2832C131.516 91.8249 131.021 92.1498 130.427 92.3665C128.148 93.2331 126.166 94.208 124.779 95.5079L122.698 91.3916L124.184 90.7416Z" fill="#ECBC97"/>
<path d="M130.134 85C130.134 85 129.539 85.5417 128.747 85.975C127.954 86.5166 127.359 86.8415 127.359 86.8415C127.359 86.8415 127.954 86.2999 128.747 85.8666C129.44 85.325 130.134 85 130.134 85Z" fill="#C89777"/>
<path d="M132.609 85.1094C132.609 85.1094 132.114 85.7593 131.42 86.5176C130.727 87.2759 130.132 87.8175 130.132 87.8175C130.132 87.8175 130.628 87.1675 131.321 86.4092C132.015 85.6509 132.609 85.1094 132.609 85.1094Z" fill="#C89777"/>
<path d="M132.408 87.0586C132.408 87.0586 132.21 87.4919 131.814 87.9252C131.516 88.3585 131.12 88.6835 131.12 88.6835C131.12 88.6835 131.318 88.2502 131.715 87.8169C132.012 87.3836 132.408 87.0586 132.408 87.0586Z" fill="#C89777"/>
<path d="M97.5351 121.398H68.0088C68.0088 121.398 69.0987 93.8832 72.8638 78.6094C73.3592 76.4429 75.0436 73.3014 76.5298 71.7848C77.1243 71.1349 77.8179 70.5933 78.6105 70.2683C79.1059 70.0517 79.7004 69.9434 80.2949 69.9434L85.348 70.3766C85.9425 70.3766 86.4379 70.8099 86.6361 71.3516L91.6893 83.809C91.9865 84.5673 92.3828 85.2172 92.9773 85.7588L100.408 93.0166L95.5534 99.5161L94.959 100.274" fill="#20505A"/>
<path d="M93.5692 99.841C85.4445 92.7998 85.0482 91.3916 84.4537 89.0084C84.2555 88.2502 83.9583 87.2753 83.3638 85.9754L84.0573 85.6504C84.6518 87.0586 84.9491 87.9252 85.1472 88.7918C85.7417 91.0666 86.1381 92.2582 94.0646 99.191L93.5692 99.841Z" fill="black"/>
<defs>
<clipPath id="clip0_22158_427099">
<rect width="156.121" height="148" fill="white" transform="translate(103.357 74)"/>
</clipPath>
</defs>
</svg>
