<svg width="343" height="233" viewBox="0 0 343 233" fill="none" xmlns="http://www.w3.org/2000/svg">
<path d="M252.033 105.066L260.22 118.234C262.167 121.946 262.561 128.217 262.852 130.232L263.143 134.269C263.337 135.861 263.24 137.242 263.24 138.306L263.143 165.804H268.602L267.334 124.398C267.334 123.44 267.431 120.897 267.528 119.41C268.796 106.031 272.398 106.242 275.812 105.08L276.692 104.122H272.598L266.461 110.068V101.043H262.367V110.385L253.986 103.164L250.481 103.269L252.04 105.073L252.033 105.066Z" fill="#754C24"/>
<path d="M281.167 104.211C275.709 110.263 255.144 119.077 242.087 104C241.602 103.472 240.625 103.894 239.94 103.683C235.264 102.513 232.535 99.3288 230.88 95.1862C230.297 93.6996 230 92.1074 230 90.5151C230.097 86.9079 231.365 83.8291 234.094 81.4901C232.244 78.1999 231.365 74.48 232.147 70.133C232.438 68.5408 233.027 67.0542 233.803 65.779C235.95 61.9604 237.508 58.0291 241.207 56.9653C243.057 47.2005 247.248 44.7557 255.241 46.9821C260.311 42.311 267.03 43.0508 268.983 49.7438C279.117 46.665 283.696 52.717 284.187 65.4549C293.15 68.2167 294.321 73.9516 292.568 80.6376C295.976 83.3994 297.438 86.6895 297.244 90.5081C297.05 95.8132 293.739 100.379 289.154 102.189C286.716 103.147 284.181 103.781 282.816 103.993C282.234 103.993 281.549 103.781 281.161 104.204L281.167 104.211Z" fill="#A9D661"/>
<path d="M171.5 194.019C258.64 194.019 329.28 187.512 329.28 179.484C329.28 171.457 258.64 164.949 171.5 164.949C84.3607 164.949 13.7202 171.457 13.7202 179.484C13.7202 187.512 84.3607 194.019 171.5 194.019Z" fill="#F3F3F3"/>
<path d="M131.603 177.383H60.6758V180.26H131.603V177.383Z" fill="#F2F2F2"/>
<path d="M256.174 177.383H185.247V180.26H256.174V177.383Z" fill="#F2F2F2"/>
<path d="M296.199 171.277L64.8511 171.557V163.066L296.199 162.785V171.277Z" fill="#EACE03"/>
<path d="M296.263 163.064H65.0435L83.0964 156.397L303.458 155.906L296.263 163.064Z" fill="#C6AA05"/>
<path d="M303.074 163.485L296.199 171.275V162.994L303.459 155.906L303.074 163.485Z" fill="#B79A08"/>
<path d="M42.3637 145.238H37.6738V171.485H42.3637V145.238Z" fill="#754C24"/>
<path d="M57.5897 146.995C56.8187 147.837 39.6652 151.907 29.8999 146.995C18.3357 140.889 29.8999 98.3613 29.8999 98.3613C29.8999 98.3613 42.235 58.3596 45.2545 55.0613C48.2741 51.7629 50.8439 75.4831 55.3411 88.1152C59.8382 100.747 57.5897 117.52 59.8382 126.924C62.0868 136.328 62.4723 137.942 60.6092 142.433C59.4528 145.802 57.5897 146.995 57.5897 146.995Z" fill="#A2D855"/>
<path d="M89.5848 148.82H88.043V156.47H89.5848V148.82Z" fill="#754C24"/>
<path d="M93.3117 149.663C93.1189 149.874 88.429 150.997 85.7307 149.663C82.5826 147.979 85.7307 136.329 85.7307 136.329C85.7307 136.329 89.1357 125.382 89.9066 124.469C90.6776 123.557 91.4485 130.084 92.6692 133.522C93.8899 136.961 93.3116 141.593 93.8898 144.119C94.5323 146.716 94.5965 147.137 94.0826 148.4C93.8256 149.312 93.3117 149.663 93.3117 149.663Z" fill="#8FC140"/>
<path d="M109.502 148.816H107.96V156.466H109.502V148.816Z" fill="#754C24"/>
<path d="M113.228 149.659C113.035 149.87 108.345 150.993 105.647 149.659C102.499 147.975 105.647 136.326 105.647 136.326C105.647 136.326 109.052 125.378 109.823 124.465C110.658 123.553 111.365 130.08 112.586 133.518C113.806 136.957 113.228 141.589 113.806 144.115C114.449 146.712 114.513 147.133 113.999 148.396C113.742 149.308 113.228 149.659 113.228 149.659Z" fill="#8FC140"/>
<path d="M130.383 148.68H128.841V156.329H130.383V148.68Z" fill="#754C24"/>
<path d="M134.11 149.593C133.917 149.804 129.227 150.926 126.529 149.593C123.38 147.909 126.529 136.259 126.529 136.259C126.529 136.259 129.934 125.311 130.704 124.399C131.54 123.487 132.246 130.013 133.467 133.452C134.688 136.891 134.109 141.522 134.688 144.049C135.266 146.575 135.394 147.067 134.88 148.33C134.623 149.242 134.11 149.593 134.11 149.593Z" fill="#8FC140"/>
<path d="M193.984 148.609H192.442V156.259H193.984V148.609Z" fill="#754C24"/>
<path d="M197.711 149.523C197.518 149.733 192.828 150.856 190.13 149.523C186.982 147.838 190.13 136.189 190.13 136.189C190.13 136.189 193.535 125.241 194.306 124.329C195.141 123.416 195.847 129.943 197.068 133.382C198.289 136.82 197.711 141.452 198.289 143.979C198.867 146.505 198.995 146.996 198.482 148.259C198.225 149.172 197.711 149.523 197.711 149.523Z" fill="#8FC140"/>
<path d="M216.856 148.609H215.314V156.259H216.856V148.609Z" fill="#754C24"/>
<path d="M220.581 149.452C220.388 149.663 215.699 150.786 213 149.452C209.852 147.768 213 136.119 213 136.119C213 136.119 216.405 125.171 217.176 124.258C217.947 123.346 218.718 129.873 219.939 133.311C221.159 136.75 220.581 141.382 221.159 143.908C221.802 146.505 221.866 146.926 221.352 148.189C221.095 149.102 220.581 149.452 220.581 149.452Z" fill="#8FC140"/>
<path d="M65.0449 148.121H60.355V171.069H65.0449V148.121Z" fill="#754C24"/>
<path d="M75.0025 149.522C74.3601 150.223 60.226 153.522 52.2596 149.522C42.7513 144.469 52.2596 109.52 52.2596 109.52C52.2596 109.52 62.4104 76.6066 64.8517 73.8697C67.293 71.2029 69.4774 90.6422 73.1394 101.099C76.8014 111.485 75.0025 125.31 76.8014 133.03C78.6002 140.749 78.9857 142.083 77.4438 145.802C76.5444 148.539 75.0025 149.522 75.0025 149.522Z" fill="#0B9D99"/>
<path d="M172.012 127.391L176.743 119.967C176.971 119.549 176.743 118.966 176.285 118.966C175.14 118.966 174.072 118.966 172.928 119.049C171.478 119.132 170.105 119.383 168.731 119.716C168.579 119.716 168.426 119.716 168.273 119.633C167.51 119.049 167.434 118.382 168.197 117.547C168.273 117.464 168.35 117.464 168.426 117.381C171.096 116.63 174.682 116.63 178.497 116.797H179.489C179.947 116.797 180.252 117.381 179.947 117.798L173.691 128.642C173.538 128.976 173.156 129.059 172.928 128.809L172.165 128.308C171.936 128.058 171.859 127.724 172.012 127.391Z" fill="#00DFF4"/>
<path d="M147.673 79.7617L152.251 81.9305C150.267 83.7657 148.588 85.5174 149.657 87.6863L145.308 85.6842C147.139 85.0169 147.749 82.1808 147.673 79.7617Z" fill="#EDBD98"/>
<path d="M155.15 71.7539C155.15 71.7539 156.218 74.7569 155.378 76.3418C155.226 76.592 155.15 76.7588 155.073 76.9257C154.539 77.8432 154.615 77.7598 155.378 78.594C155.836 79.0111 155.226 79.3447 154.921 79.5115C154.768 79.595 154.615 79.7618 154.539 79.9286C154.539 80.0955 154.463 80.3457 154.463 80.3457C154.463 80.4291 154.463 81.0965 153.929 80.9297C151.335 80.0955 153.471 80.7628 154.005 81.1799C154.005 81.1799 154.234 81.4301 154.081 81.5136C153.929 81.597 153.776 81.7638 153.624 81.9306C153.471 82.0975 153.318 82.7648 153.09 83.0151C152.861 83.2653 151.258 83.1819 150.419 82.6814C149.809 82.2643 148.893 81.6804 148.512 81.5136C148.359 81.4301 148.283 81.013 148.206 80.8462C148.054 80.5959 147.596 80.2623 147.291 79.8452C146.681 79.0111 147.443 78.9276 147.596 78.6774C147.749 78.3437 148.054 77.7598 147.978 77.5095C147.901 77.2593 147.52 76.1749 147.52 75.7578C147.52 75.0905 148.13 74.2563 148.435 74.0061C148.817 73.7559 149.351 73.7558 149.656 74.1729C149.885 74.5066 150.19 74.59 150.419 74.3398C150.724 74.0895 153.09 72.2544 153.471 72.171C153.776 72.0876 155.15 71.7539 155.15 71.7539Z" fill="#EDBD98"/>
<path d="M156.676 73.8391C156.524 74.0894 156.295 74.2562 156.142 74.423C155.837 74.6733 155.456 74.8401 154.998 74.9235C153.701 75.0903 152.556 75.1738 151.488 74.7567C151.03 74.5899 150.573 74.6733 150.267 75.0904C149.962 75.424 149.657 75.6742 149.275 75.841C148.665 76.1747 148.284 76.9255 148.36 77.6763C148.36 78.7607 147.902 79.1777 147.368 79.8451C147.063 80.0119 146.834 80.0119 146.529 79.7617C145.232 78.3436 144.85 76.2582 145.079 74.0059C145.079 71.9205 145.461 71.42 146.147 70.6693C146.376 70.419 146.605 70.2522 146.834 70.0854C147.826 69.5015 148.818 68.5838 149.657 68.3336C150.42 68.0833 151.107 68 151.946 68C153.167 68 154.387 68.5838 155.227 69.5848C156.142 70.6692 156.829 72.004 156.982 73.005C156.905 73.2552 156.829 73.5889 156.676 73.8391Z" fill="#42210B"/>
<path d="M151.564 76.7599C151.488 76.4263 151.412 76.176 151.183 76.0092C151.107 75.9258 151.03 75.9258 150.878 75.9258C150.191 76.0092 149.886 76.4263 150.039 77.177C150.039 77.177 150.039 77.177 150.039 77.2604C150.191 78.0112 150.42 78.2614 150.878 78.7618L151.564 76.7599Z" fill="#EDBD98"/>
<path d="M133.786 125.057L135.923 145.827L137.144 173.021L144.392 172.104L146.681 148.58C147.825 142.908 147.825 137.069 147.062 131.063L145.536 116.298L134.321 115.047C133.71 118.3 133.481 121.553 133.786 125.057Z" fill="#5E7625"/>
<path d="M139.279 172.687L139.813 176.357C140.882 177.024 141.95 176.858 142.942 176.107L143.018 172.02L139.279 172.687Z" fill="#EDBD98"/>
<path d="M139.585 176.358L143.629 175.941C145.994 177.777 148.512 178.194 149.657 178.944C150.191 179.278 150.267 180.112 149.809 180.613C149.428 180.946 148.817 181.28 147.902 181.363C144.926 181.781 142.256 181.947 140.119 181.53C139.814 181.447 139.509 181.28 139.433 180.946C138.899 179.612 139.204 178.027 139.585 176.358Z" fill="#F7931E"/>
<path d="M185.747 153.17L171.861 128.395C171.708 128.062 171.785 127.728 172.09 127.561L175.734 124.07L191.52 151.835L192.131 153.17L186.51 154.588L185.747 153.17Z" fill="#00DFF4"/>
<path d="M131.653 190.207C122.116 190.207 114.333 181.698 114.333 171.271C114.333 160.844 122.116 152.336 131.653 152.336C141.19 152.336 148.973 160.844 148.973 171.271C148.973 181.698 141.19 190.207 131.653 190.207ZM131.653 153.837C122.879 153.837 115.707 161.679 115.707 171.271C115.707 180.864 122.879 188.705 131.653 188.705C140.427 188.705 147.599 180.864 147.599 171.271C147.523 161.679 140.427 153.837 131.653 153.837Z" fill="#20505A"/>
<path d="M114.942 169.77L128.676 171.104V171.438L114.942 170.02V169.77Z" fill="#20505A"/>
<path d="M118.606 160.844L129.669 169.769L129.593 169.936L118.453 161.011L118.606 160.844Z" fill="#20505A"/>
<path d="M127.608 154.254L130.736 168.935L130.507 169.019L127.379 154.337L127.608 154.254Z" fill="#20505A"/>
<path d="M135.85 153.754L132.569 168.435L132.34 168.352L135.621 153.754H135.85Z" fill="#20505A"/>
<path d="M144.24 159.175L134.016 169.351L133.787 169.101L144.011 159.008L144.24 159.175Z" fill="#20505A"/>
<path d="M147.827 170.188L134.093 171.189L134.017 170.938L147.827 169.938V170.188Z" fill="#20505A"/>
<path d="M146.376 179.363L133.787 173.024L133.863 172.773L146.453 179.113L146.376 179.363Z" fill="#20505A"/>
<path d="M140.425 186.536L132.871 173.94L133.1 173.773L140.577 186.369L140.425 186.536Z" fill="#20505A"/>
<path d="M116.926 178.78L129.287 173.191L129.439 173.442L117.003 179.031L116.926 178.78Z" fill="#20505A"/>
<path d="M123.64 186.619L130.43 174.023L130.659 174.19L123.792 186.786L123.64 186.619Z" fill="#20505A"/>
<path d="M131.424 188.955L131.653 174.273H131.882L131.653 188.871L131.424 188.955Z" fill="#20505A"/>
<path d="M131.652 174.607C133.338 174.607 134.704 173.113 134.704 171.27C134.704 169.427 133.338 167.934 131.652 167.934C129.966 167.934 128.6 169.427 128.6 171.27C128.6 173.113 129.966 174.607 131.652 174.607Z" fill="#20505A"/>
<path d="M192.157 190.457C182.619 190.457 174.837 181.948 174.837 171.521C174.837 161.094 182.619 152.586 192.157 152.586C201.694 152.586 209.476 161.094 209.476 171.521C209.476 181.948 201.694 190.457 192.157 190.457ZM192.157 154.087C183.382 154.087 176.21 161.929 176.21 171.521C176.21 181.114 183.382 188.955 192.157 188.955C200.931 188.955 208.103 181.114 208.103 171.521C208.103 161.929 200.931 154.087 192.157 154.087Z" fill="#20505A"/>
<path d="M175.446 170.02L189.18 171.354V171.688L175.446 170.27V170.02Z" fill="#20505A"/>
<path d="M179.11 161.094L190.173 170.019L190.097 170.186L178.957 161.261L179.11 161.094Z" fill="#20505A"/>
<path d="M188.112 154.504L191.316 169.185L191.011 169.269L187.883 154.587L188.112 154.504Z" fill="#20505A"/>
<path d="M196.353 154.004L193.072 168.685L192.843 168.602L196.124 154.004H196.353Z" fill="#20505A"/>
<path d="M204.745 159.425L194.521 169.601L194.368 169.351L204.592 159.258L204.745 159.425Z" fill="#20505A"/>
<path d="M208.331 170.438L194.597 171.439L194.521 171.188L208.331 170.188V170.438Z" fill="#20505A"/>
<path d="M206.881 179.613L194.368 173.274L194.444 173.023L206.957 179.363L206.881 179.613Z" fill="#20505A"/>
<path d="M200.933 186.786L193.379 174.19L193.608 174.023L201.162 186.619L200.933 186.786Z" fill="#20505A"/>
<path d="M177.43 179.03L189.79 173.441L189.943 173.692L177.506 179.281L177.43 179.03Z" fill="#20505A"/>
<path d="M184.145 186.869L191.011 174.273L191.164 174.44L184.373 187.036L184.145 186.869Z" fill="#20505A"/>
<path d="M191.927 189.205L192.156 174.523H192.385L192.156 189.121L191.927 189.205Z" fill="#20505A"/>
<path d="M192.156 174.857C193.841 174.857 195.208 173.363 195.208 171.52C195.208 169.677 193.841 168.184 192.156 168.184C190.47 168.184 189.104 169.677 189.104 171.52C189.104 173.363 190.47 174.857 192.156 174.857Z" fill="#20505A"/>
<path d="M130.736 168.182L147.827 145.91L148.971 147.829L132.338 169.35L130.736 168.182Z" fill="#00DFF4"/>
<path d="M144.852 136.404L153.779 166.434L155.534 166.1L145.767 134.652L144.394 135.236L144.852 136.404Z" fill="#00DFF4"/>
<path d="M148.817 145.244L169.341 138.82L177.886 135.984L179.183 139.071L149.656 146.995L148.817 145.244Z" fill="#00DFF4"/>
<path d="M180.536 135.527C180.417 135.658 180.414 135.865 180.53 135.989C180.646 136.113 181.137 136.171 181.137 136.171C181.137 136.171 181.08 135.641 180.963 135.517C180.847 135.393 180.656 135.396 180.536 135.527ZM180.823 135.834C180.779 135.881 180.71 135.883 180.669 135.837C180.627 135.792 180.628 135.718 180.672 135.671C180.715 135.624 180.784 135.622 180.826 135.668C180.867 135.713 180.866 135.787 180.823 135.834Z" fill="white"/>
<path d="M181.264 139.295L180.585 138.565C180.567 138.554 180.552 138.54 180.532 138.533C180.509 138.525 180.483 138.525 180.459 138.531C180.433 138.539 180.408 138.55 180.383 138.564C180.376 138.568 180.368 138.573 180.361 138.577C180.355 138.581 180.35 138.587 180.345 138.591C180.345 138.591 180.345 138.591 180.344 138.592C180.34 138.597 180.334 138.602 180.329 138.607L179.85 139.129L180.174 139.478L180.465 139.162L180.536 139.238C180.524 139.308 180.502 139.374 180.469 139.436C180.435 139.497 180.394 139.551 180.346 139.596C180.297 139.642 180.243 139.678 180.182 139.705C180.12 139.731 180.055 139.746 179.988 139.747C179.913 139.749 179.842 139.735 179.775 139.707C179.707 139.677 179.65 139.636 179.601 139.584C179.552 139.532 179.514 139.47 179.486 139.398C179.458 139.326 179.446 139.248 179.446 139.167C179.448 139.086 179.462 139.009 179.493 138.936C179.523 138.863 179.563 138.799 179.613 138.744C179.663 138.689 179.722 138.646 179.789 138.612C179.857 138.579 179.927 138.562 180.003 138.56L180.01 138.055C179.87 138.058 179.738 138.09 179.613 138.151C179.49 138.21 179.381 138.293 179.287 138.393C179.194 138.494 179.12 138.614 179.065 138.748C179.01 138.883 178.982 139.026 178.98 139.178C178.978 139.329 179.002 139.471 179.055 139.603C179.106 139.734 179.177 139.849 179.269 139.947C179.362 140.044 179.466 140.12 179.587 140.176C179.709 140.231 179.839 140.256 179.979 140.253C180.119 140.249 180.251 140.217 180.375 140.157C180.499 140.097 180.608 140.015 180.701 139.914C180.739 139.872 180.775 139.827 180.808 139.779C180.841 139.731 180.87 139.68 180.894 139.626L180.928 139.663L181.264 139.298L181.264 139.295Z" fill="white"/>
<path d="M180.603 136.946C180.703 136.837 180.816 136.754 180.941 136.699C181.066 136.642 181.193 136.613 181.322 136.61C181.45 136.606 181.577 136.629 181.701 136.68C181.825 136.731 181.935 136.807 182.032 136.912C182.129 137.017 182.202 137.135 182.249 137.269C182.297 137.402 182.319 137.539 182.316 137.679C182.314 137.818 182.287 137.956 182.236 138.092C182.185 138.228 182.109 138.351 182.01 138.46C181.91 138.568 181.797 138.652 181.672 138.707C181.547 138.763 181.42 138.792 181.293 138.795C181.163 138.798 181.038 138.774 180.915 138.724C180.79 138.673 180.681 138.596 180.583 138.492C180.485 138.388 180.413 138.269 180.366 138.135C180.318 138.002 180.295 137.866 180.297 137.727C180.298 137.588 180.325 137.45 180.376 137.315C180.426 137.179 180.502 137.057 180.602 136.948L180.603 136.946ZM181.688 138.109C181.742 138.05 181.783 137.985 181.811 137.911C181.839 137.838 181.854 137.764 181.854 137.688C181.855 137.612 181.843 137.538 181.817 137.467C181.791 137.395 181.752 137.331 181.7 137.275C181.647 137.22 181.588 137.177 181.522 137.15C181.455 137.123 181.387 137.109 181.316 137.111C181.246 137.112 181.177 137.129 181.111 137.159C181.043 137.191 180.982 137.235 180.929 137.294C180.875 137.352 180.834 137.418 180.807 137.491C180.779 137.564 180.765 137.638 180.765 137.714C180.763 137.79 180.776 137.864 180.801 137.935C180.828 138.007 180.866 138.071 180.919 138.127C180.971 138.182 181.03 138.225 181.097 138.252C181.163 138.279 181.231 138.293 181.302 138.291C181.372 138.29 181.441 138.273 181.508 138.243C181.576 138.213 181.636 138.167 181.69 138.108L181.688 138.109Z" fill="white"/>
<path d="M181.216 140.425C181.188 140.435 181.167 140.441 181.154 140.44C181.132 140.441 181.114 140.433 181.1 140.417C181.085 140.401 181.078 140.381 181.077 140.358C181.078 140.335 181.086 140.316 181.101 140.298C181.115 140.281 181.134 140.272 181.153 140.273C181.172 140.273 181.189 140.279 181.201 140.292L181.191 140.321C181.177 140.31 181.165 140.305 181.153 140.305C181.141 140.305 181.131 140.31 181.122 140.321C181.112 140.333 181.107 140.345 181.107 140.358C181.107 140.372 181.111 140.384 181.121 140.394C181.131 140.404 181.142 140.409 181.155 140.408C181.163 140.407 181.177 140.405 181.197 140.399C181.228 140.389 181.252 140.383 181.268 140.383C181.295 140.383 181.317 140.393 181.336 140.411C181.355 140.43 181.363 140.455 181.364 140.484C181.363 140.513 181.354 140.538 181.335 140.558C181.316 140.578 181.293 140.589 181.266 140.59C181.239 140.59 181.219 140.582 181.203 140.565L181.219 140.536C181.233 140.551 181.249 140.557 181.267 140.558C181.285 140.556 181.301 140.55 181.314 140.536C181.328 140.522 181.334 140.505 181.334 140.485C181.335 140.464 181.328 140.448 181.315 140.434C181.303 140.42 181.288 140.413 181.269 140.415C181.26 140.415 181.242 140.418 181.217 140.425L181.216 140.425Z" fill="white"/>
<path d="M181.085 140.023L181.106 140L181.259 140.164C181.26 140.126 181.273 140.095 181.299 140.066C181.326 140.037 181.356 140.021 181.39 140.021C181.424 140.02 181.453 140.032 181.479 140.06L181.629 140.222L181.608 140.245L181.459 140.085C181.44 140.065 181.417 140.055 181.389 140.056C181.361 140.057 181.338 140.068 181.318 140.089C181.298 140.11 181.288 140.136 181.288 140.165C181.288 140.178 181.29 140.19 181.292 140.201L181.471 140.393L181.45 140.417L181.084 140.023L181.085 140.023Z" fill="white"/>
<path d="M181.941 139.88L181.92 139.903L181.874 139.855C181.875 139.866 181.876 139.875 181.876 139.886C181.875 139.939 181.857 139.986 181.821 140.024C181.786 140.061 181.744 140.083 181.694 140.083C181.644 140.085 181.602 140.066 181.568 140.029C181.533 139.993 181.516 139.948 181.517 139.892C181.518 139.839 181.537 139.793 181.572 139.754C181.607 139.715 181.649 139.695 181.699 139.695C181.709 139.695 181.719 139.696 181.727 139.696L181.695 139.663L181.717 139.64L181.941 139.88ZM181.821 139.797L181.78 139.753C181.756 139.736 181.729 139.727 181.698 139.728C181.657 139.729 181.622 139.746 181.593 139.777C181.563 139.808 181.548 139.848 181.548 139.892C181.548 139.937 181.562 139.974 181.59 140.004C181.619 140.034 181.654 140.05 181.695 140.048C181.737 140.047 181.771 140.03 181.8 139.998C181.829 139.966 181.845 139.927 181.845 139.883C181.846 139.849 181.838 139.82 181.821 139.794L181.821 139.797Z" fill="white"/>
<path d="M181.782 139.564L181.804 139.541L181.845 139.585C181.843 139.573 181.843 139.562 181.842 139.549C181.843 139.509 181.852 139.478 181.871 139.456L181.894 139.48C181.881 139.495 181.875 139.518 181.874 139.549C181.873 139.591 181.886 139.628 181.912 139.659L182.03 139.784L182.008 139.807L181.781 139.565L181.782 139.564Z" fill="white"/>
<path d="M181.88 139.292C181.888 139.292 181.895 139.295 181.901 139.301C181.907 139.308 181.91 139.315 181.91 139.323C181.91 139.332 181.907 139.34 181.901 139.346C181.895 139.353 181.888 139.356 181.88 139.356C181.872 139.357 181.865 139.354 181.859 139.347C181.853 139.341 181.85 139.334 181.85 139.325C181.85 139.316 181.853 139.309 181.859 139.302C181.866 139.295 181.872 139.293 181.88 139.292ZM181.95 139.377L182.177 139.62L182.156 139.643L181.929 139.4L181.95 139.377Z" fill="white"/>
<path d="M182.092 139.333L182.267 139.52L182.246 139.543L182.021 139.302L182.042 139.279L182.057 139.294C182.058 139.253 182.071 139.219 182.096 139.191C182.123 139.161 182.154 139.146 182.187 139.145C182.221 139.145 182.25 139.157 182.276 139.184L182.426 139.346L182.405 139.369L182.256 139.21C182.237 139.19 182.214 139.179 182.186 139.181C182.158 139.182 182.135 139.193 182.115 139.214C182.096 139.234 182.086 139.261 182.085 139.29C182.085 139.306 182.087 139.32 182.092 139.333Z" fill="white"/>
<path d="M182.673 138.977C182.674 138.987 182.675 138.997 182.674 139.007C182.674 139.06 182.655 139.108 182.62 139.145C182.584 139.183 182.542 139.205 182.492 139.205C182.442 139.207 182.4 139.188 182.366 139.151C182.331 139.115 182.314 139.069 182.315 139.015C182.316 138.961 182.335 138.915 182.37 138.876C182.405 138.837 182.448 138.817 182.497 138.815C182.507 138.815 182.517 138.816 182.525 138.817L182.494 138.783L182.515 138.76L182.689 138.947C182.722 138.983 182.739 139.028 182.739 139.08C182.739 139.133 182.72 139.179 182.684 139.218C182.649 139.257 182.607 139.277 182.556 139.278C182.546 139.278 182.536 139.277 182.527 139.276L182.542 139.243C182.542 139.243 182.552 139.244 182.557 139.244C182.599 139.243 182.634 139.226 182.663 139.195C182.693 139.164 182.707 139.125 182.709 139.081C182.709 139.04 182.698 139.005 182.674 138.977L182.673 138.977ZM182.578 138.874C182.555 138.857 182.528 138.849 182.497 138.85C182.455 138.851 182.42 138.868 182.391 138.899C182.362 138.93 182.346 138.97 182.346 139.014C182.346 139.06 182.36 139.097 182.389 139.127C182.417 139.157 182.453 139.173 182.494 139.171C182.535 139.17 182.57 139.153 182.6 139.122C182.629 139.091 182.645 139.051 182.644 139.007C182.645 138.975 182.637 138.945 182.622 138.919L182.579 138.872L182.578 138.874Z" fill="white"/>
<path d="M164.537 121.805C164.537 121.554 164.613 121.387 164.842 121.304C165.91 120.637 167.207 120.053 168.657 119.469C169.191 119.219 169.801 119.052 170.335 118.801C170.564 118.718 170.869 118.635 171.098 118.635L174.837 118.051L175.981 118.635L170.259 120.887C169.954 120.97 169.725 121.054 169.496 121.137C168.58 121.721 167.131 122.305 165.528 122.972C165.3 123.056 165.071 123.056 164.918 122.805C164.689 122.639 164.537 122.222 164.537 121.805Z" fill="#00BDF1"/>
<path d="M168.504 119.885C168.581 120.302 168.733 120.719 168.886 121.052C169.038 121.303 169.267 121.47 169.572 121.386C169.725 121.303 169.878 121.303 170.03 121.219C170.259 121.136 170.412 120.886 170.412 120.552C170.335 120.051 170.259 119.634 170.107 119.301C170.03 119.05 169.725 118.884 169.496 118.967C169.267 118.967 169.115 119.05 168.886 119.134C168.581 119.301 168.428 119.634 168.504 119.885Z" fill="black"/>
<path d="M151.792 132.065L144.239 132.566C144.086 132.566 143.933 132.649 143.781 132.649L140.347 133.984C139.813 134.151 139.279 134.067 138.822 133.733C137.906 133.066 136.99 131.898 136.99 131.898C136.99 131.898 136.609 131.481 136.38 130.897C136.304 130.73 136.304 130.564 136.38 130.48C136.761 129.396 138.287 129.312 139.813 129.563C143.018 129.896 145.994 129.98 148.588 129.98C148.664 129.98 148.74 129.98 148.817 129.98C150.114 129.98 151.258 130.146 152.326 130.48C152.631 130.564 152.86 130.814 152.937 131.064C152.937 131.148 152.937 131.231 152.937 131.314C152.937 131.648 152.708 131.898 152.403 131.898L151.792 132.065Z" fill="#1A1A1A"/>
<path d="M140.5 133.899L145.383 135.651L148.892 132.23H147.824L145.306 134.232C145.154 134.316 145.001 134.399 144.849 134.316L141.644 133.482L140.5 133.899Z" fill="#1A1A1A"/>
<path d="M156.981 180.695C160.858 180.695 164 177.333 164 173.187C164 169.041 160.858 165.68 156.981 165.68C153.104 165.68 149.961 169.041 149.961 173.187C149.961 177.333 153.104 180.695 156.981 180.695Z" fill="black"/>
<path d="M178.575 138.988L156.22 170.937H133.636L133.407 172.772L151.413 173.106L157.669 173.189L180.635 142.742L178.575 138.988Z" fill="#00DFF4"/>
<path d="M156.599 170.77L166.594 171.02C167.128 171.687 167.051 172.354 166.67 173.022L156.522 173.439C156.293 173.439 156.065 173.272 155.988 173.022C155.759 172.021 155.836 171.52 156.065 171.103C156.217 170.936 156.37 170.77 156.599 170.77Z" fill="#1A1A1A"/>
<path d="M161.789 175.941C161.56 175.524 161.636 175.024 161.941 174.773L167.206 171.02C167.511 170.769 167.969 170.853 168.198 171.27V171.353C168.427 171.687 168.35 172.187 167.969 172.438L162.704 176.191C162.399 176.442 161.941 176.275 161.789 175.941Z" fill="#333333"/>
<path d="M137.905 113.21L145.687 115.796C149.12 120.384 163.922 125.222 167.127 127.892C168.882 129.31 169.797 131.645 169.568 133.981C168.653 145.409 166.364 155.169 162.167 162.926H156.064C153.851 154.001 154.69 144.742 157.818 135.316C151.791 133.981 143.78 132.313 136.379 129.977C134.013 129.56 133.022 123.304 133.098 120.885C133.098 120.551 133.098 120.134 133.174 119.8C134.013 114.211 135.921 111.876 137.905 113.21Z" fill="#5E7625"/>
<path d="M157.359 162.926V166.596C158.351 167.43 159.419 167.514 160.488 166.93L161.174 162.926H157.359Z" fill="#EDBD98"/>
<path d="M157.055 166.598L161.099 166.931C163.236 169.184 165.601 169.934 166.669 170.935C167.127 171.352 167.127 172.186 166.593 172.604C166.135 172.937 165.524 173.021 164.609 173.021C161.633 172.937 158.963 172.687 156.903 171.853C156.598 171.769 156.369 171.436 156.292 171.102C155.987 169.684 156.445 168.183 157.055 166.598Z" fill="#F7931E"/>
<path d="M153.471 103.118L155.684 107.706C155.989 108.29 156.371 108.791 156.828 109.124L165.908 116.632C166.823 117.383 167.434 118.467 167.968 119.635C168.12 119.968 168.197 120.636 168.197 120.97C168.197 121.136 168.197 121.22 168.12 121.387C167.968 122.137 167.51 122.721 166.9 122.971C165.984 123.388 165.145 123.889 164.763 123.305C165.068 123.138 165.45 122.471 165.679 121.97C165.908 121.47 166.06 120.969 166.137 120.469C166.137 119.968 166.137 119.385 165.831 119.218C164.687 118.384 163.695 117.383 162.627 116.632C162.398 116.465 162.093 116.382 161.788 116.298C159.957 115.881 158.125 115.214 156.218 114.38C155.836 114.213 155.531 113.962 155.302 113.712C153.242 111.71 150.572 107.79 148.741 104.62L153.471 101.867V103.118Z" fill="#E2AF8D"/>
<path d="M156.141 107.124L152.555 111.044L147.672 105.956L151.64 100.617L156.141 107.124Z" fill="#1D4B51"/>
<path d="M172.774 118.718C172.622 118.218 172.622 117.717 172.622 117.217C172.622 116.967 172.851 116.716 173.079 116.633C173.461 116.549 173.766 116.549 174.224 116.633C174.453 116.716 174.605 116.883 174.682 117.05C174.758 117.467 174.834 117.968 174.834 118.468C174.834 118.802 174.605 119.052 174.376 119.052C174.071 119.135 173.766 119.135 173.461 119.135C173.079 119.219 172.85 118.969 172.774 118.718Z" fill="black"/>
<path d="M158.887 98.6145L161.1 103.202C161.405 103.786 161.787 104.287 162.244 104.62L171.324 112.128C172.239 112.879 172.85 113.963 173.384 115.131C173.536 115.465 173.613 116.132 173.613 116.466C173.613 116.632 173.613 116.716 173.536 116.883C173.384 117.633 172.926 118.217 172.316 118.468C171.4 118.885 170.561 119.385 170.179 118.801C170.485 118.634 170.866 117.967 171.095 117.467C171.324 116.966 171.476 116.466 171.553 115.965C171.553 115.465 171.553 114.881 171.247 114.714C170.103 113.88 169.111 112.879 168.043 112.128C167.814 111.961 167.509 111.878 167.204 111.794C165.373 111.377 163.541 110.71 161.634 109.876C161.252 109.709 160.947 109.459 160.718 109.208C158.658 107.206 155.988 103.286 154.157 100.116L158.887 97.3633V98.6145Z" fill="#EDBD98"/>
<path d="M164.535 121.804C164.535 121.554 164.688 121.387 164.84 121.304C165.909 120.553 167.206 119.969 168.655 119.469C169.189 119.302 167.663 119.969 168.274 119.719C168.045 119.719 168.503 119.635 168.274 119.719L168.503 120.553L168.732 121.137L168.808 121.304C168.503 121.387 168.96 121.387 168.732 121.554C167.816 122.138 167.129 122.388 165.527 123.055C165.298 123.139 165.069 123.139 164.917 122.889C164.688 122.638 164.535 122.305 164.535 121.804Z" fill="#00BDF1"/>
<path d="M146.757 117.968L126.92 113.714C130.506 100.451 136.686 90.5241 146.071 84.6016H150.038L162.398 98.8658L155.684 106.707L152.709 102.953L146.757 117.968Z" fill="#20505A"/>
<path d="M285.684 97.3168L294.833 111.996C297.039 116.177 297.446 123.121 297.771 125.341L298.096 129.881C298.259 131.659 298.177 133.176 298.259 134.328L298.177 171.079H304.302L302.915 118.668C302.833 117.6 302.996 114.754 303.158 113.153C304.546 98.2025 308.633 98.4741 312.389 97.2282L313.37 96.1595H308.795L301.934 102.743V92.6875H297.278V103.098L287.966 95.0022L284.047 95.1793L285.679 97.3168H285.684Z" fill="#754C24"/>
<path d="M318.107 96.4258C312.064 103.187 289.028 112.977 274.492 96.1601C273.923 95.5401 272.86 96.0715 272.042 95.8944C266.817 94.5599 263.793 91.0879 261.912 86.3759C261.256 84.6872 260.931 82.9039 261.012 81.1266C261.094 77.0346 262.562 73.6512 265.505 71.0709C263.462 67.4217 262.481 63.2412 263.381 58.3461C263.706 56.5688 264.362 54.9627 265.18 53.4511C267.549 49.182 269.262 44.8184 273.43 43.5725C275.554 32.7196 280.21 29.9561 289.11 32.3594C294.747 27.1101 302.259 27.9131 304.383 35.4712C315.738 31.9992 320.882 38.8546 321.37 53.0023C331.332 56.0256 332.644 62.4322 330.763 69.9076C334.6 72.9308 336.156 76.6685 335.988 80.855C335.744 86.7302 332.069 91.891 327.001 93.934C324.226 95.0913 321.446 95.7113 319.896 95.9829C319.327 96.1601 318.589 95.9829 318.096 96.4258H318.107Z" fill="#BC8E6F"/>
<path d="M285.684 97.3168L294.833 111.996C297.039 116.177 297.446 123.121 297.771 125.341L298.096 129.881C298.259 131.659 298.177 133.176 298.259 134.328L298.177 171.079H304.302L302.915 118.668C302.833 117.6 302.996 114.754 303.158 113.153C304.546 98.2025 308.633 98.4741 312.389 97.2282L313.37 96.1595H308.795L301.934 102.743V92.6875H297.278V103.098L287.966 95.0022L284.047 95.1793L285.679 97.3168H285.684Z" fill="#754C24"/>
<path d="M318.107 96.4258C312.064 103.187 289.028 112.977 274.492 96.1601C273.923 95.5401 272.86 96.0715 272.042 95.8944C266.817 94.5599 263.793 91.0879 261.912 86.3759C261.256 84.6872 260.931 82.9039 261.012 81.1266C261.094 77.0346 262.562 73.6512 265.505 71.0709C263.462 67.4217 262.481 63.2412 263.381 58.3461C263.706 56.5688 264.362 54.9627 265.18 53.4511C267.549 49.182 269.262 44.8184 273.43 43.5725C275.554 32.7196 280.21 29.9561 289.11 32.3594C294.747 27.1101 302.259 27.9131 304.383 35.4712C315.738 31.9992 320.882 38.8546 321.37 53.0023C331.332 56.0256 332.644 62.4322 330.763 69.9076C334.6 72.9308 336.156 76.6685 335.988 80.855C335.744 86.7302 332.069 91.891 327.001 93.934C324.226 95.0913 321.446 95.7113 319.896 95.9829C319.327 96.1601 318.589 95.9829 318.096 96.4258H318.107Z" fill="#BC8E6F"/>
</svg>
