<svg width="343" height="295" viewBox="0 0 343 295" fill="none" xmlns="http://www.w3.org/2000/svg">
<path fill-rule="evenodd" clip-rule="evenodd" d="M236.747 100.255C236.747 100.255 237.927 93.9899 230.18 86.565C222.443 79.1428 209.443 75.6084 209.961 59.491C210.479 43.3735 238.805 27.8747 248.669 46.9937C260.336 69.622 239.137 101.141 236.747 100.255Z" fill="#00DFF4"/>
<path fill-rule="evenodd" clip-rule="evenodd" d="M222.623 52.625V57.625H227.712V52.625H222.623ZM222.534 50.125C221.202 50.125 220.123 51.2043 220.123 52.5357V57.7143C220.123 59.0457 221.202 60.125 222.534 60.125H227.712C229.044 60.125 230.123 59.0457 230.123 57.7143V52.5357C230.123 51.2043 229.044 50.125 227.712 50.125H222.534Z" fill="white"/>
<path fill-rule="evenodd" clip-rule="evenodd" d="M233.828 65.0357C233.828 64.37 234.368 63.8304 235.034 63.8304H239.052C239.717 63.8304 240.257 64.37 240.257 65.0357C240.257 65.7014 239.717 66.2411 239.052 66.2411H236.239V68.6518C236.239 69.3175 235.699 69.8571 235.034 69.8571C234.368 69.8571 233.828 69.3175 233.828 68.6518V65.0357Z" fill="white"/>
<path fill-rule="evenodd" clip-rule="evenodd" d="M233.828 72.6696C233.828 72.0039 234.368 71.4643 235.034 71.4643H239.052C239.717 71.4643 240.257 72.0039 240.257 72.6696C240.257 73.3353 239.717 73.875 239.052 73.875H235.034C234.368 73.875 233.828 73.3353 233.828 72.6696Z" fill="white"/>
<path fill-rule="evenodd" clip-rule="evenodd" d="M242.668 67.4464C243.333 67.4464 243.873 67.9861 243.873 68.6518V72.6696C243.873 73.3353 243.333 73.875 242.668 73.875C242.002 73.875 241.462 73.3353 241.462 72.6696V69.8571H239.052C238.386 69.8571 237.846 69.3175 237.846 68.6518C237.846 67.9861 238.386 67.4464 239.052 67.4464H242.668Z" fill="white"/>
<path d="M243.873 65.0357C243.873 65.7014 243.333 66.2411 242.668 66.2411C242.002 66.2411 241.462 65.7014 241.462 65.0357C241.462 64.37 242.002 63.8304 242.668 63.8304C243.333 63.8304 243.873 64.37 243.873 65.0357Z" fill="white"/>
<path fill-rule="evenodd" clip-rule="evenodd" d="M236.373 52.625V57.625H241.462V52.625H236.373ZM236.284 50.125C234.952 50.125 233.873 51.2043 233.873 52.5357V57.7143C233.873 59.0457 234.952 60.125 236.284 60.125H241.462C242.794 60.125 243.873 59.0457 243.873 57.7143V52.5357C243.873 51.2043 242.794 50.125 241.462 50.125H236.284Z" fill="white"/>
<path fill-rule="evenodd" clip-rule="evenodd" d="M222.623 66.375V71.375H227.712V66.375H222.623ZM222.534 63.875C221.202 63.875 220.123 64.9543 220.123 66.2857V71.4643C220.123 72.7957 221.202 73.875 222.534 73.875H227.712C229.044 73.875 230.123 72.7957 230.123 71.4643V66.2857C230.123 64.9543 229.044 63.875 227.712 63.875H222.534Z" fill="white"/>
<path d="M78.499 62.8569L115.849 63.4232C116.654 63.4232 117.54 63.2596 118.27 62.7751C119.886 61.888 121.093 60.5981 121.979 58.8993C123.671 55.7534 123.671 51.9595 122.143 48.8073C120.124 44.6106 116.176 42.7545 109.8 43.7235C108.266 39.5268 105.606 36.8591 101.733 36.1355C101.085 35.9719 100.444 35.9719 99.7142 36.0537C96.4068 36.4564 93.9859 38.1552 92.4517 41.3011C90.9992 40.9802 89.6285 40.8166 88.3395 40.8984C85.9186 41.062 83.8248 42.5909 82.9319 44.856C82.366 46.3094 82.2088 47.7628 82.5295 49.298C79.7062 49.0589 77.4489 49.7825 75.6694 51.884C74.3804 53.4192 73.8145 55.4388 74.0535 57.4522C74.3742 59.9564 75.2607 61.7307 77.0402 62.536C77.5244 62.7751 78.0085 62.8569 78.4927 62.8569H78.499Z" fill="#E8E8E8"/>
<path d="M146.907 70.1238L169.575 70.4447C170.059 70.4447 170.543 70.3629 171.028 70.042C171.996 69.4758 172.719 68.6704 173.285 67.7015C174.335 65.7636 174.335 63.5048 173.367 61.567C172.159 58.981 169.739 57.8548 165.865 58.4965C164.897 55.9106 163.281 54.3817 160.942 53.8972C160.539 53.8154 160.137 53.8154 159.735 53.8154C157.716 54.0545 156.264 55.1053 155.295 56.9613C154.409 56.7223 153.604 56.6405 152.793 56.7223C151.34 56.804 150.051 57.773 149.485 59.1446C149.165 60.0318 149.001 60.9189 149.247 61.806C147.555 61.6425 146.103 62.1269 145.134 63.3413C144.329 64.3102 144.002 65.5182 144.166 66.7325C144.329 68.2678 144.889 69.3185 145.939 69.8785C146.342 70.042 146.587 70.1175 146.907 70.1175V70.1238Z" fill="#E8E8E8"/>
<path d="M132.391 49.9398L148.286 50.1789C148.607 50.1789 149.01 50.0971 149.337 49.9398C149.984 49.5372 150.544 48.9709 150.871 48.3228C151.594 46.9512 151.594 45.416 150.953 44.0444C150.148 42.2701 148.45 41.4585 145.708 41.8674C145.061 40.0931 143.935 38.9606 142.238 38.6397C141.999 38.5579 141.672 38.5579 141.433 38.6397C139.98 38.8033 139.012 39.5269 138.364 40.8985C137.717 40.7349 137.157 40.6594 136.591 40.7349C135.541 40.8167 134.654 41.4585 134.334 42.4274C134.095 43.0755 134.013 43.6354 134.17 44.2835C132.963 44.2017 131.995 44.5226 131.265 45.3342C130.699 45.9823 130.46 46.8694 130.618 47.6748C130.781 48.7255 131.102 49.5309 131.907 49.8517C131.988 49.8517 132.146 49.9335 132.391 49.9335V49.9398Z" fill="#E8E8E8"/>
<path d="M114.081 80.971L133.593 81.2667C133.989 81.2667 134.486 81.166 134.882 80.971C135.674 80.4739 136.366 79.7818 136.762 78.989C137.655 77.3028 137.655 75.4216 136.862 73.7354C135.869 71.5521 133.794 70.5643 130.424 71.0613C129.631 68.8781 128.242 67.4939 126.167 67.0975C125.871 66.9968 125.475 66.9968 125.173 67.0975C123.388 67.2988 122.199 68.186 121.407 69.8722C120.615 69.6708 119.923 69.5765 119.225 69.6708C117.936 69.7715 116.848 70.5643 116.452 71.7534C116.156 72.5462 116.056 73.2383 116.251 74.0311C114.767 73.9304 113.578 74.3268 112.686 75.3209C111.994 76.1137 111.692 77.2021 111.893 78.1963C112.095 79.4861 112.491 80.4739 113.478 80.8703C113.578 80.8703 113.773 80.971 114.075 80.971H114.081Z" fill="#E8E8E8"/>
<path d="M171.5 243C266.217 243 343 236.014 343 227.396C343 218.779 266.217 211.792 171.5 211.792C76.7832 211.792 0 218.779 0 227.396C0 236.014 76.7832 243 171.5 243Z" fill="#F3F3F3"/>
<g opacity="0.54">
<path d="M96.8606 194.439L43 233.763H174.26L121.599 194.439H96.8606Z" fill="#E6E6E6"/>
<path d="M77.4116 218.195H76.9095C75.8153 218.195 74.916 217.296 74.916 216.201V205.92C74.916 204.825 75.8153 203.925 76.9095 203.925H77.4116C78.5057 203.925 79.405 204.825 79.405 205.92V216.201C79.405 217.296 78.5057 218.195 77.4116 218.195Z" fill="#1A1A1A"/>
<path d="M138.154 218.195H137.652C136.558 218.195 135.658 217.296 135.658 216.201V205.92C135.658 204.825 136.558 203.925 137.652 203.925H138.154C139.248 203.925 140.147 204.825 140.147 205.92V216.201C140.147 217.296 139.248 218.195 138.154 218.195Z" fill="#1A1A1A"/>
<path d="M106.735 159.209H87.5879V118.19H106.735V159.209ZM88.9818 157.814H105.342V119.69H88.9818V157.814Z" fill="#3F3D3D"/>
<path d="M87.0864 159.209H75.418V118.19H87.0864V159.209ZM76.8119 157.814H85.6925V119.69H76.8119V157.814Z" fill="#3F3D3D"/>
<path d="M139.35 159.209H127.18V118.19H139.35V159.209ZM128.679 157.814H137.851V119.69H128.679V157.814Z" fill="#3F3D3D"/>
<path d="M75.5154 159.209L71.3262 158.609V118.985L75.418 118.19L75.5154 159.209ZM72.825 157.409L74.0241 157.612L73.9266 120.087L72.8325 120.29V157.417L72.825 157.409Z" fill="#3F3D3D"/>
<path d="M139.45 159.306L139.248 118.19L143.34 119.09V158.714L139.45 159.314V159.306ZM140.649 119.982L140.852 157.507L141.751 157.304V120.08L140.657 119.982H140.649Z" fill="#3F3D3D"/>
<path d="M126.883 159.209H107.436V118.19H126.883V159.209ZM108.829 157.814H125.384V119.69H108.829V157.814Z" fill="#3F3D3D"/>
<path d="M71.3291 158.512L75.4209 159.112L115.717 159.314H139.459L141.752 158.917L143.251 158.519L144.045 201.833C144.045 202.53 143.543 203.033 142.846 203.033L72.2284 202.83C71.6288 202.83 71.0293 202.328 71.0293 201.63L71.3291 158.512Z" fill="#EF001A"/>
<path d="M71.0266 198.533L75.1185 198.736L116.014 198.833L140.07 198.698L142.439 198.526L143.982 198.338L144.649 212.204C144.649 212.406 144.147 212.601 143.45 212.601L71.9334 212.504C71.2365 212.504 70.7344 212.301 70.7344 212.106L71.0341 198.533H71.0266Z" fill="#B2B2B2"/>
<path d="M107.23 182.763C110.591 182.763 113.315 180.037 113.315 176.674C113.315 173.311 110.591 170.585 107.23 170.585C103.869 170.585 101.145 173.311 101.145 176.674C101.145 180.037 103.869 182.763 107.23 182.763Z" fill="#1A1A1A"/>
<path d="M107.23 180.364C109.266 180.364 110.917 178.712 110.917 176.674C110.917 174.636 109.266 172.985 107.23 172.985C105.194 172.985 103.543 174.636 103.543 176.674C103.543 178.712 105.194 180.364 107.23 180.364Z" fill="#EFEFEF"/>
<path d="M71.3262 119.082L75.3131 118.19H139.246L143.24 119.082V118.288L139.351 115.49L75.2156 115.693L71.3262 118.085V119.082Z" fill="#B2B2B2"/>
<path d="M75.216 115.693V112.296H72.0234V101.617H82.5977V112.198H80.0047V115.693H75.216Z" fill="#3F3D3D"/>
<path d="M77.5085 111.801C79.9877 111.801 81.9975 109.746 81.9975 107.212C81.9975 104.677 79.9877 102.622 77.5085 102.622C75.0293 102.622 73.0195 104.677 73.0195 107.212C73.0195 109.746 75.0293 111.801 77.5085 111.801Z" fill="#6B6A68"/>
<path d="M77.5081 110.706C79.3831 110.706 80.903 109.141 80.903 107.212C80.903 105.282 79.3831 103.717 77.5081 103.717C75.6332 103.717 74.1133 105.282 74.1133 107.212C74.1133 109.141 75.6332 110.706 77.5081 110.706Z" fill="#ED6478"/>
<path d="M134.562 115.49V112.101H131.369V101.422H142.041V112.003H139.35V115.49H134.562Z" fill="#3F3D3D"/>
<path d="M136.757 111.201C139.236 111.201 141.246 109.146 141.246 106.612C141.246 104.077 139.236 102.022 136.757 102.022C134.277 102.022 132.268 104.077 132.268 106.612C132.268 109.146 134.277 111.201 136.757 111.201Z" fill="#6B6A68"/>
<path d="M136.756 110.106C138.631 110.106 140.151 108.542 140.151 106.612C140.151 104.682 138.631 103.117 136.756 103.117C134.881 103.117 133.361 104.682 133.361 106.612C133.361 108.542 134.881 110.106 136.756 110.106Z" fill="#ED6478"/>
<path d="M131.467 112.198H82.5977V101.617H101.048C100.052 97.1256 100.651 93.931 103.739 92.5362C104.833 92.0338 106.129 91.9363 107.328 92.0338C111.817 92.5362 113.316 95.7233 112.215 101.317L131.362 101.415L131.46 112.191L131.467 112.198Z" fill="#C1272D"/>
<path d="M86.9856 105.614V109.506H86.3861V105.614H84.9922V105.112H88.4845V105.614H86.9856Z" fill="#F9F9F9"/>
<path d="M90.9804 109.506L90.6806 108.606H88.987L88.6872 109.506H87.9902L89.7888 105.014H89.9912L91.6849 109.506H90.9879H90.9804ZM89.7813 106.214L89.0844 108.209H90.3809L89.7813 106.214Z" fill="#F9F9F9"/>
<path d="M94.4702 109.506L93.1737 107.512L92.5741 108.307V109.506H91.9746V105.112H92.5741V107.504L94.2678 105.112H94.9648L93.6683 107.009L95.1671 109.506H94.4702Z" fill="#F9F9F9"/>
<path d="M95.4668 109.304L95.6691 108.704C95.7666 108.801 95.9689 108.906 96.0663 108.906C96.2687 109.004 96.3661 109.004 96.5684 109.004C96.7708 109.004 96.9656 108.906 97.168 108.801C97.2654 108.704 97.3703 108.501 97.3703 108.299C97.3703 108.201 97.3703 107.999 97.2729 107.901C97.1755 107.804 96.9731 107.601 96.6734 107.504L96.2762 107.302C95.9764 107.204 95.7741 107.002 95.6766 106.799C95.5792 106.597 95.4743 106.402 95.4743 106.102C95.4743 105.802 95.5717 105.502 95.8715 105.307C96.1713 105.104 96.3736 105.007 96.7708 105.007C97.2729 105.007 97.5652 105.104 97.7675 105.209L97.5652 105.712C97.4677 105.614 97.3628 105.614 97.168 105.509C96.9731 105.404 96.8682 105.412 96.6659 105.412C96.4635 105.412 96.2687 105.509 96.1638 105.614C96.0588 105.719 95.9614 105.914 95.9614 106.117C95.9614 106.214 95.9614 106.319 96.0588 106.417C96.0588 106.514 96.1563 106.619 96.2612 106.619C96.3586 106.717 96.4635 106.822 96.7633 106.919L97.1605 107.122C97.4603 107.219 97.6626 107.421 97.76 107.624C97.8574 107.826 97.9624 108.126 97.9624 108.419C97.9624 108.711 97.8649 109.019 97.5652 109.214C97.2654 109.416 96.9656 109.514 96.471 109.514C96.0738 109.611 95.7741 109.514 95.4743 109.311L95.4668 109.304Z" fill="#F9F9F9"/>
<path d="M99.0593 104.017C99.1567 104.017 99.2616 104.017 99.3591 104.115C99.4565 104.212 99.4565 104.317 99.4565 104.415C99.4565 104.512 99.4565 104.617 99.3591 104.714C99.2616 104.812 99.1567 104.812 99.0593 104.812C98.9619 104.812 98.8569 104.812 98.7595 104.714C98.6621 104.617 98.6621 104.512 98.6621 104.415C98.6621 104.317 98.6621 104.212 98.7595 104.115C98.8569 104.017 98.9619 104.017 99.0593 104.017ZM98.7595 109.506V105.112H99.3591V109.506H98.7595Z" fill="#F9F9F9"/>
<path d="M103.643 109.506L103.141 106.612L102.144 109.506H101.942L100.945 106.612L100.443 109.506H99.8438L100.638 105.112H100.938L102.032 108.307L103.029 105.112H103.329L104.228 109.506H103.628H103.643Z" fill="#F9F9F9"/>
<path d="M106.637 108.007V107.504H107.933V108.007H106.637Z" fill="#F9F9F9"/>
<path d="M112.224 105.614V109.506H111.624V105.614H110.23V105.112H113.723V105.614H112.224Z" fill="#F9F9F9"/>
<path d="M114.221 105.112H114.82V108.104C114.82 108.404 114.918 108.606 115.12 108.801C115.322 108.996 115.517 109.101 115.817 109.101C116.117 109.101 116.319 109.004 116.514 108.801C116.716 108.599 116.814 108.404 116.814 108.104V105.112H117.413V108.209C117.413 108.606 117.316 109.004 117.016 109.304C116.716 109.604 116.319 109.701 115.922 109.701C115.42 109.701 115.023 109.604 114.828 109.304C114.528 109.101 114.431 108.704 114.431 108.209V105.112H114.228H114.221ZM115.015 104.017C115.113 104.017 115.217 104.017 115.217 104.115C115.282 104.18 115.315 104.247 115.315 104.317C115.315 104.415 115.315 104.52 115.217 104.52C115.152 104.585 115.085 104.617 115.015 104.617C114.918 104.617 114.813 104.617 114.813 104.52C114.748 104.455 114.715 104.387 114.715 104.317C114.715 104.22 114.715 104.115 114.813 104.115C114.813 104.115 114.91 104.017 115.015 104.017ZM116.409 104.017C116.506 104.017 116.611 104.017 116.611 104.115C116.676 104.18 116.709 104.247 116.709 104.317C116.709 104.415 116.709 104.52 116.611 104.52C116.546 104.585 116.479 104.617 116.409 104.617C116.312 104.617 116.207 104.617 116.207 104.52C116.207 104.422 116.109 104.422 116.109 104.317C116.109 104.212 116.109 104.115 116.207 104.115C116.207 104.115 116.304 104.017 116.409 104.017Z" fill="#F9F9F9"/>
<path d="M121.098 109.604L118.805 106.409V109.604H118.205V105.209H118.407L120.603 108.307V105.209H121.203V109.701H121.105V109.604H121.098Z" fill="#F9F9F9"/>
<path d="M122.791 105.614V106.814H124.29V107.317H122.791V108.914H124.784V109.416H122.191V105.022H124.882V105.524L122.791 105.622V105.614Z" fill="#F9F9F9"/>
<path d="M125.492 109.506V105.112H126.092V109.004H128.085V109.506H125.492Z" fill="#F9F9F9"/>
<path d="M107.327 98.4228V99.6226H106.533V98.4228H104.539V97.9204L106.93 95.1233H107.229V97.8154H107.627V98.4153H107.327V98.4228ZM106.533 96.5256L105.438 97.8229H106.533V96.5256Z" fill="#F9F9F9"/>
<path d="M128.873 197.333H85.7812V163.101C85.7812 162.006 86.6806 161.106 87.7747 161.106H126.872C127.966 161.106 128.865 162.006 128.865 163.101V197.333H128.873ZM86.7855 196.336H127.779V163.101C127.779 162.598 127.381 162.201 126.782 162.201H87.7822C87.2801 162.201 86.8829 162.598 86.8829 163.101L86.7855 196.336Z" fill="white"/>
<path d="M77.3078 198.128C75.0146 198.128 72.7214 197.828 70.623 197.333L70.9228 196.336C74.9097 197.333 79.3013 197.431 84.0901 196.434V163.198C84.0901 162.898 83.9926 162.696 83.7903 162.501C83.5879 162.306 83.3931 162.201 83.0933 162.201C80.4029 162.299 76.6109 162.299 71.7247 162.104H71.3275V161.106H71.7247C76.5135 161.309 80.3055 161.309 82.9959 161.204C83.498 161.204 84.0901 161.406 84.4947 161.706C84.8919 162.104 85.0943 162.606 85.0943 163.101V197.236L84.6971 197.333C82.1041 197.836 79.6086 198.128 77.3153 198.128H77.3078Z" fill="white"/>
<path d="M137.455 198.128C135.162 198.128 132.666 197.828 130.073 197.333L129.676 197.236V163.206C129.676 162.703 129.878 162.111 130.275 161.811C130.672 161.414 131.175 161.211 131.774 161.309C134.465 161.406 138.257 161.406 143.045 161.211H143.443V162.209H143.045C138.257 162.411 134.367 162.411 131.677 162.306C131.377 162.306 131.175 162.404 130.98 162.606C130.777 162.808 130.68 163.003 130.68 163.303V196.539C135.469 197.536 139.853 197.536 143.847 196.441L144.147 197.438C142.056 197.836 139.755 198.136 137.462 198.136L137.455 198.128Z" fill="white"/>
<path d="M71.0742 198.533V194.439C85.1333 188.95 96.989 187.652 108.058 187.75C117.531 187.75 130.87 191.244 143.932 195.736L143.977 198.331C116.864 201.623 94.8007 199.823 71.0742 198.526V198.533Z" fill="#C1272D"/>
<path d="M95.5627 171.785C97.1603 171.785 98.4554 170.489 98.4554 168.89C98.4554 167.292 97.1603 165.996 95.5627 165.996C93.965 165.996 92.6699 167.292 92.6699 168.89C92.6699 170.489 93.965 171.785 95.5627 171.785Z" fill="#1A1A1A"/>
<path d="M95.5611 170.488C96.4427 170.488 97.1574 169.772 97.1574 168.89C97.1574 168.008 96.4427 167.293 95.5611 167.293C94.6795 167.293 93.9648 168.008 93.9648 168.89C93.9648 169.772 94.6795 170.488 95.5611 170.488Z" fill="#EFEFEF"/>
<path d="M119.102 171.785C120.699 171.785 121.994 170.489 121.994 168.89C121.994 167.292 120.699 165.996 119.102 165.996C117.504 165.996 116.209 167.292 116.209 168.89C116.209 170.489 117.504 171.785 119.102 171.785Z" fill="#1A1A1A"/>
<path d="M119.1 170.488C119.982 170.488 120.696 169.772 120.696 168.89C120.696 168.008 119.982 167.293 119.1 167.293C118.219 167.293 117.504 168.008 117.504 168.89C117.504 169.772 118.219 170.488 119.1 170.488Z" fill="#EFEFEF"/>
</g>
<path fill-rule="evenodd" clip-rule="evenodd" d="M284.856 184.677C286.625 185.61 287.182 187.842 286.25 189.612L273.606 212.222C272.952 213.338 271.749 214.08 270.443 214.08H210.367C208.415 214.08 206.742 212.501 206.742 210.452C206.742 208.403 208.32 206.825 210.367 206.825H268.307L279.932 186.072C280.952 184.302 283.095 183.657 284.864 184.677H284.856Z" fill="#00DFF4"/>
<path fill-rule="evenodd" clip-rule="evenodd" d="M193.434 216.695C196.413 216.695 198.828 214.279 198.828 211.297C198.828 208.316 196.413 205.9 193.434 205.9C190.454 205.9 188.04 208.316 188.04 211.297C188.04 214.279 190.454 216.695 193.434 216.695ZM193.434 223.95C200.405 223.95 206.078 218.273 206.078 211.297C206.078 204.321 200.405 198.645 193.434 198.645C186.462 198.645 180.789 204.321 180.789 211.297C180.789 218.273 186.462 223.95 193.434 223.95Z" fill="#003E67"/>
<path fill-rule="evenodd" clip-rule="evenodd" d="M296.568 216.695C299.548 216.695 301.962 214.279 301.962 211.297C301.962 208.316 299.548 205.9 296.568 205.9C293.588 205.9 291.174 208.316 291.174 211.297C291.174 214.279 293.588 216.695 296.568 216.695ZM296.568 223.95C303.54 223.95 309.213 218.273 309.213 211.297C309.213 204.321 303.54 198.645 296.568 198.645C289.597 198.645 283.924 204.321 283.924 211.297C284.019 218.273 289.597 223.95 296.568 223.95Z" fill="#003E67"/>
<path fill-rule="evenodd" clip-rule="evenodd" d="M270.064 140.573C271.833 139.736 274.064 140.477 274.9 142.343L276.573 145.97C277.41 147.74 276.669 149.972 274.805 150.809C273.036 151.647 270.805 150.905 269.968 149.04L268.295 145.412C267.459 143.554 268.295 141.41 270.064 140.573Z" fill="#003E67"/>
<path fill-rule="evenodd" clip-rule="evenodd" d="M276.476 175.987L284.1 195.432C284.563 196.548 285.59 198.039 286.515 198.693C287.813 199.625 289.12 199.809 290.698 198.876C292.466 197.576 291.909 193.853 290.602 190.872L288.929 187.148L276.468 156.717L266.03 129.977L260.469 132.799L276.468 175.979L276.476 175.987Z" fill="#00DFF4"/>
<path fill-rule="evenodd" clip-rule="evenodd" d="M260.485 132.847L253.976 114.885C254.438 114.885 251.649 114.789 250.072 115.539C249.235 115.914 247.092 117.117 246.725 116.934C245.61 116.376 244.773 115.539 244.678 114.144C244.678 112.748 245.61 112.095 246.725 111.816L254.446 111.162L254.167 109.671L248.399 110.133L248.215 109.201L256.215 108.547L256.956 111.808C258.35 111.991 259.649 112.461 260.398 114.136L266.071 130.049L260.493 132.839L260.485 132.847Z" fill="#323232"/>
<g opacity="0.96">
<path d="M274.893 160.297C274.614 160.393 274.431 160.576 274.24 160.759L273.587 159.181L272.75 159.556L273.961 162.625C274.336 163.462 275.26 163.837 276.192 163.462C277.029 163.087 277.491 162.067 277.124 161.23C276.75 160.393 275.73 160.018 274.893 160.297ZM275.825 162.625C275.451 162.808 274.989 162.625 274.806 162.163C274.622 161.7 274.806 161.326 275.268 161.142C275.642 160.959 276.104 161.142 276.288 161.605C276.471 162.067 276.192 162.442 275.825 162.625Z" fill="white"/>
<path d="M278.717 169.697C277.881 170.071 277.419 170.996 277.785 171.833L278.439 173.412L279.275 173.037L278.622 171.459C278.439 171.084 278.622 170.622 278.996 170.526C279.371 170.343 279.833 170.526 279.928 170.901L280.582 172.479L281.418 172.105L280.765 170.526C280.486 169.689 279.554 169.314 278.717 169.689V169.697Z" fill="white"/>
<path d="M277.131 165.79C276.852 165.886 276.757 166.165 276.852 166.444L277.872 169.051L278.804 168.676L277.689 166.069C277.593 165.79 277.315 165.694 277.131 165.79Z" fill="white"/>
<path d="M276.763 165.511C277.124 165.511 277.416 165.218 277.416 164.857C277.416 164.496 277.124 164.204 276.763 164.204C276.402 164.204 276.109 164.496 276.109 164.857C276.109 165.218 276.402 165.511 276.763 165.511Z" fill="white"/>
<path d="M268.762 145.221C268.484 145.317 268.3 145.5 268.109 145.683L267.456 144.105L266.619 144.479L267.83 147.549C268.205 148.386 269.129 148.761 270.061 148.386C270.898 148.011 271.36 146.991 270.993 146.154C270.627 145.317 269.599 144.942 268.762 145.221ZM269.695 147.549C269.32 147.732 268.858 147.549 268.675 147.086C268.491 146.624 268.675 146.249 269.137 146.066C269.511 145.883 269.973 146.066 270.157 146.528C270.34 146.991 270.061 147.366 269.695 147.549Z" fill="white"/>
<path d="M272.569 154.621C271.732 154.995 271.27 155.92 271.637 156.757L272.29 158.336L273.127 157.961L272.473 156.383C272.29 156.008 272.473 155.545 272.848 155.45C273.222 155.266 273.684 155.45 273.78 155.824L274.433 157.403L275.27 157.028L274.617 155.45C274.433 154.708 273.406 154.238 272.569 154.613V154.621Z" fill="white"/>
<path d="M270.991 150.714C270.712 150.81 270.616 151.089 270.712 151.368L271.732 153.975L272.664 153.6L271.548 150.993C271.453 150.714 271.174 150.618 270.991 150.714Z" fill="white"/>
<path d="M270.618 150.435C270.979 150.435 271.272 150.142 271.272 149.781C271.272 149.42 270.979 149.127 270.618 149.127C270.257 149.127 269.965 149.42 269.965 149.781C269.965 150.142 270.257 150.435 270.618 150.435Z" fill="white"/>
</g>
<path d="M185.102 108.052C185.5 111.082 198.407 127.266 205.658 127.824C205.737 127.824 205.897 127.904 206.056 127.904C206.614 127.904 207.172 127.745 207.57 127.426C210.12 125.831 220.716 118.895 224.302 114.749L223.664 110.524C218.167 112.437 205.976 119.852 205.976 119.852C205.976 119.852 205.419 120.011 205.259 119.772C195.698 110.763 191.396 107.494 188.209 105.182L185.102 108.052Z" fill="#D8A988"/>
<path d="M167.009 216.161C167.487 217.516 166.531 222.459 166.531 224.133C167.567 225.568 170.196 224.452 170.515 222.937C170.515 222.778 170.674 222.698 170.674 222.379C170.356 221.423 170.993 217.835 171.79 215.842L167.009 216.161Z" fill="#F9AC91"/>
<path d="M183.03 218.393C183.429 219.748 182.234 223.097 182.074 224.691C183.03 226.206 185.739 225.17 186.058 223.655C186.138 223.495 186.217 223.416 186.297 223.097C185.899 222.06 186.775 219.111 187.811 217.277L183.03 218.393Z" fill="#F9AC91"/>
<path d="M182.868 140.82H192.668C197.608 155.569 199.042 172.391 196.094 188.974C195.855 190.25 195.537 191.525 195.138 192.721L191.872 218.473C189.402 219.509 182.071 218.792 179.602 218.154C182.868 208.666 184.78 200.136 185.577 190.888C185.896 189.453 185.896 186.423 185.896 186.423C186.852 172.152 183.585 144.407 182.868 140.82Z" fill="#131851"/>
<path d="M174.904 218.233C171.558 219.19 166.936 217.596 164.387 216.559L170.761 187.858C170.84 187.3 170.84 186.742 170.84 186.184L168.53 151.742C168.45 150.945 168.53 150.068 168.61 149.271C169.008 146.241 169.805 141.936 171 140.421H183.827C187.493 157.482 186.855 172.072 185.421 180.284C185.262 181.002 184.624 188.974 183.748 191.286L174.904 218.233Z" fill="#131851"/>
<path d="M192.669 140.979L170.917 141.298L170.758 140.341L192.509 140.262L192.669 140.979Z" fill="#0E0E38"/>
<path d="M176.258 83.8958L183.748 84.6133C181.597 88.0415 179.923 91.0711 182.393 93.4628L175.223 92.825C177.693 91.1508 177.374 87.0848 176.258 83.8958Z" fill="#EDBD98"/>
<path d="M183.746 69.7842C183.746 69.7842 186.614 73.2921 185.977 75.7636C185.897 76.1622 185.818 76.4811 185.738 76.7203C185.419 78.1554 185.419 78.0757 186.933 78.7932C187.73 79.1918 187.013 79.9093 186.614 80.2282C186.375 80.3877 186.216 80.7066 186.296 80.9458C186.296 81.2647 186.375 81.5836 186.375 81.5836C186.375 81.6633 186.694 82.5403 185.818 82.5403C181.675 82.62 185.101 82.5403 186.057 82.8592C186.057 82.8592 186.455 83.0984 186.375 83.2578C186.296 83.497 185.977 83.7362 185.897 84.0551C185.818 84.374 185.738 85.3307 185.579 85.7293C185.419 86.128 182.949 86.8455 181.515 86.4469C180.4 86.2077 178.886 85.809 178.249 85.7293C178.009 85.7293 177.691 85.1712 177.531 85.0118C177.213 84.7726 176.416 84.5334 175.779 84.1348C174.504 83.3376 175.619 82.9389 175.699 82.3808C175.779 81.9025 175.938 80.9458 175.779 80.6269C175.619 80.3877 174.583 79.1121 174.344 78.554C174.026 77.677 174.583 76.242 174.982 75.7636C175.38 75.2853 176.257 74.9664 176.814 75.4447C177.292 75.7636 177.77 75.7636 178.01 75.365C178.249 74.8866 181.037 71.3787 181.595 71.0598C181.914 70.8206 183.746 69.7842 183.746 69.7842Z" fill="#EDBD98"/>
<path d="M186.377 71.857C186.218 72.2557 186.058 72.5746 185.819 72.8935C185.501 73.4516 184.943 73.8502 184.385 74.0894C182.553 74.8866 180.879 75.6042 179.206 75.4447C178.489 75.365 177.852 75.7636 177.613 76.4811C177.374 77.1189 176.975 77.5176 176.577 77.9959C175.86 78.7135 175.621 79.8296 176.019 80.8661C176.497 82.2214 176.019 83.0186 175.461 84.2145C175.143 84.6132 174.744 84.6929 174.187 84.4537C171.717 83.1781 170.203 80.5472 169.645 77.4378C168.769 74.6474 169.167 73.8502 169.725 72.5746C169.884 72.1759 170.203 71.857 170.442 71.5381C171.637 70.2625 172.673 68.668 173.788 67.8708C174.744 67.233 175.7 66.7546 176.896 66.356C178.728 65.7182 180.72 65.9573 182.313 66.914C184.066 67.9505 185.66 69.3855 186.297 70.5814C186.536 70.9801 186.536 71.4584 186.377 71.857Z" fill="#42210B"/>
<path d="M176.447 78.1396C176.287 77.8207 176.048 77.5815 175.809 77.5017C175.69 77.4699 175.57 77.4778 175.49 77.5017C174.773 77.8206 174.59 78.3548 174.933 79.0963L174.973 79.176C175.451 79.9972 175.73 80.053 176.367 80.3719L176.447 78.1396Z" fill="#ECBC97"/>
<path d="M166.375 221.183C167.969 221.901 169.562 221.901 171.156 220.944C171.235 220.864 171.315 220.944 171.395 221.024C172.271 222.698 173.227 224.851 174.741 226.126C176.255 227.163 178.167 227.96 180.239 228.518C180.478 228.598 180.796 228.678 181.035 228.678C182.071 228.678 182.868 228.837 183.505 229.156C183.585 229.236 183.744 229.236 183.824 229.315C184.302 229.555 184.461 230.033 184.541 230.591C184.541 230.99 184.382 231.309 184.063 231.468C182.39 232.425 180.239 232.903 177.609 232.823L172.749 232.185L165.18 231.548L164.303 231.229C164.144 231.149 164.064 231.069 164.064 230.83C164.064 229.555 164.303 228.279 164.782 226.844C164.941 226.445 165.26 225.887 165.419 225.489C166.056 224.372 166.216 222.858 166.216 221.183C166.216 221.183 166.295 221.104 166.375 221.183Z" fill="#F7931E"/>
<path d="M164.225 229.315C164.066 229.315 163.907 230.75 164.066 231.069C164.225 231.468 165.659 231.627 165.899 231.707C167.094 231.867 168.368 231.946 169.723 232.026L174.025 232.504C175.221 232.664 176.655 232.903 178.089 232.903C179.284 232.903 180.399 232.823 181.515 232.504C182.391 232.345 183.268 231.946 184.144 231.388L184.383 231.149C184.622 230.671 184.543 229.794 183.825 229.315C182.869 229.794 181.435 230.192 179.842 230.432C178.647 230.671 177.292 230.671 175.858 230.671C173.547 230.591 171.316 230.432 169.404 230.113C167.492 229.953 165.66 229.714 164.225 229.315Z" fill="#CE751D"/>
<path d="M180.716 228.598C180.557 229.315 180.637 229.874 180.955 230.272C182.071 230.113 183.027 229.794 183.824 229.315C183.027 228.757 181.991 228.518 180.716 228.598Z" fill="#F15A24"/>
<path d="M170.996 222.937C171.216 222.937 171.394 222.759 171.394 222.539C171.394 222.319 171.216 222.14 170.996 222.14C170.776 222.14 170.598 222.319 170.598 222.539C170.598 222.759 170.776 222.937 170.996 222.937Z" fill="#D8CDC3"/>
<path d="M171.635 224.372C171.855 224.372 172.033 224.194 172.033 223.974C172.033 223.754 171.855 223.575 171.635 223.575C171.415 223.575 171.236 223.754 171.236 223.974C171.236 224.194 171.415 224.372 171.635 224.372Z" fill="#D8CDC3"/>
<path d="M172.352 225.648C172.572 225.648 172.75 225.47 172.75 225.249C172.75 225.029 172.572 224.851 172.352 224.851C172.131 224.851 171.953 225.029 171.953 225.249C171.953 225.47 172.131 225.648 172.352 225.648Z" fill="#D8CDC3"/>
<path d="M173.309 226.924C173.529 226.924 173.707 226.745 173.707 226.525C173.707 226.305 173.529 226.126 173.309 226.126C173.089 226.126 172.91 226.305 172.91 226.525C172.91 226.745 173.089 226.924 173.309 226.924Z" fill="#D8CDC3"/>
<path d="M174.586 227.721C174.806 227.721 174.984 227.542 174.984 227.322C174.984 227.102 174.806 226.924 174.586 226.924C174.366 226.924 174.188 227.102 174.188 227.322C174.188 227.542 174.366 227.721 174.586 227.721Z" fill="#D8CDC3"/>
<path d="M175.937 228.438C176.157 228.438 176.336 228.26 176.336 228.04C176.336 227.82 176.157 227.641 175.937 227.641C175.717 227.641 175.539 227.82 175.539 228.04C175.539 228.26 175.717 228.438 175.937 228.438Z" fill="#D8CDC3"/>
<path d="M177.513 228.791C177.648 228.677 177.666 228.476 177.553 228.341C177.44 228.206 177.239 228.189 177.104 228.302C176.969 228.415 176.951 228.616 177.064 228.751C177.177 228.886 177.378 228.904 177.513 228.791Z" fill="#D8CDC3"/>
<path d="M179.1 229.172C179.187 229.018 179.133 228.824 178.98 228.737C178.826 228.651 178.632 228.705 178.545 228.858C178.459 229.011 178.513 229.206 178.666 229.293C178.819 229.379 179.014 229.325 179.1 229.172Z" fill="#D8CDC3"/>
<path d="M171.795 223.575C172.114 223.495 172.512 223.416 172.751 223.655C172.831 223.814 172.99 224.053 173.07 224.213C172.751 224.053 172.193 224.053 171.954 224.133C172.114 223.894 172.034 223.655 171.795 223.575Z" fill="#686461"/>
<path d="M172.436 224.851C172.675 224.691 173.232 224.612 173.551 224.691C173.631 224.851 173.79 224.931 173.87 225.09C173.471 225.01 172.993 225.17 172.754 225.25C172.754 225.09 172.675 224.931 172.436 224.851Z" fill="#686461"/>
<path d="M173.389 226.127C173.628 225.967 174.106 225.808 174.424 225.808L174.823 226.206C174.424 226.206 173.867 226.445 173.707 226.605C173.707 226.366 173.628 226.127 173.389 226.127Z" fill="#686461"/>
<path d="M174.582 226.924C174.741 226.685 175.14 226.525 175.458 226.525L175.936 226.764C175.538 226.844 175.06 227.163 174.901 227.322C174.901 227.243 174.901 227.004 174.582 226.924Z" fill="#686461"/>
<path d="M175.861 227.641C176.1 227.402 176.339 227.243 176.578 227.163C176.738 227.243 176.817 227.322 177.056 227.402C176.738 227.561 176.499 227.88 176.339 228.04C176.26 227.801 176.18 227.641 175.861 227.641Z" fill="#686461"/>
<path d="M177.211 228.279C177.45 228.04 177.689 227.801 177.928 227.721C178.087 227.801 178.167 227.801 178.406 227.88C178.087 228.04 177.769 228.438 177.609 228.518C177.609 228.438 177.45 228.279 177.211 228.279Z" fill="#686461"/>
<path d="M178.566 228.757C178.646 228.359 178.726 228.279 178.805 228.04C178.965 228.04 179.204 228.199 179.204 228.199C179.044 228.518 179.124 228.678 179.044 228.917C178.965 228.757 178.805 228.598 178.566 228.757Z" fill="#686461"/>
<path d="M171.156 222.14C171.475 222.06 171.714 221.981 172.033 222.14C172.192 222.3 172.272 222.539 172.272 222.698C171.873 222.539 171.634 222.539 171.395 222.619C171.395 222.379 171.316 222.22 171.156 222.14Z" fill="#686461"/>
<path d="M169.564 221.582V221.263C169.644 221.024 169.724 220.865 169.963 220.785C170.282 220.546 170.6 220.386 170.999 220.147C171.158 220.386 171.238 220.625 171.238 220.944C170.919 221.104 170.6 221.263 170.361 221.343C170.122 221.423 169.883 221.502 169.564 221.582Z" fill="#F15A24"/>
<path d="M182.152 221.981C183.746 222.698 185.339 222.698 186.933 221.742C187.013 221.662 187.092 221.742 187.172 221.821C188.048 223.495 189.004 225.648 190.518 226.924C192.032 227.96 193.944 228.757 196.016 229.315C196.255 229.395 196.574 229.475 196.813 229.475C197.848 229.475 198.645 229.634 199.283 229.953C199.362 230.033 199.522 230.033 199.601 230.113C200.079 230.352 200.239 230.83 200.318 231.388C200.318 231.787 200.159 232.106 199.84 232.265C198.167 233.222 196.016 233.7 193.387 233.621L188.526 232.983L180.957 232.345L180.081 232.026C179.921 231.946 179.842 231.867 179.842 231.628C179.842 230.352 180.081 229.076 180.559 227.641C180.718 227.243 181.037 226.685 181.196 226.286C181.834 225.17 181.993 223.655 181.993 221.981C181.993 221.981 182.073 221.901 182.152 221.981Z" fill="#F7931E"/>
<path d="M180.003 230.113C179.843 230.113 179.684 231.548 179.843 231.867C180.003 232.265 181.437 232.425 181.676 232.505C182.871 232.664 184.146 232.744 185.5 232.823L189.803 233.302C190.998 233.461 192.432 233.7 193.866 233.7C195.061 233.7 196.177 233.621 197.292 233.302C198.169 233.142 199.045 232.744 199.922 232.186L200.161 231.946C200.4 231.468 200.32 230.591 199.603 230.113C198.647 230.591 197.213 230.99 195.619 231.229C194.424 231.468 193.069 231.468 191.635 231.468C189.325 231.388 187.094 231.229 185.182 230.91C183.269 230.751 181.437 230.511 180.003 230.113Z" fill="#CE751D"/>
<path d="M196.494 229.395C196.334 230.113 196.414 230.671 196.733 231.069C197.848 230.91 198.804 230.591 199.601 230.113C198.804 229.555 197.769 229.315 196.494 229.395Z" fill="#F15A24"/>
<path d="M186.773 223.735C186.993 223.735 187.172 223.556 187.172 223.336C187.172 223.116 186.993 222.937 186.773 222.937C186.553 222.937 186.375 223.116 186.375 223.336C186.375 223.556 186.553 223.735 186.773 223.735Z" fill="#D8CDC3"/>
<path d="M187.492 225.17C187.712 225.17 187.891 224.991 187.891 224.771C187.891 224.551 187.712 224.372 187.492 224.372C187.272 224.372 187.094 224.551 187.094 224.771C187.094 224.991 187.272 225.17 187.492 225.17Z" fill="#D8CDC3"/>
<path d="M188.129 226.445C188.349 226.445 188.527 226.267 188.527 226.047C188.527 225.826 188.349 225.648 188.129 225.648C187.909 225.648 187.73 225.826 187.73 226.047C187.73 226.267 187.909 226.445 188.129 226.445Z" fill="#D8CDC3"/>
<path d="M189.086 227.641C189.306 227.641 189.484 227.463 189.484 227.243C189.484 227.022 189.306 226.844 189.086 226.844C188.866 226.844 188.688 227.022 188.688 227.243C188.688 227.463 188.866 227.641 189.086 227.641Z" fill="#D8CDC3"/>
<path d="M190.363 228.518C190.583 228.518 190.762 228.34 190.762 228.12C190.762 227.899 190.583 227.721 190.363 227.721C190.143 227.721 189.965 227.899 189.965 228.12C189.965 228.34 190.143 228.518 190.363 228.518Z" fill="#D8CDC3"/>
<path d="M191.715 229.156C191.935 229.156 192.113 228.977 192.113 228.757C192.113 228.537 191.935 228.359 191.715 228.359C191.495 228.359 191.316 228.537 191.316 228.757C191.316 228.977 191.495 229.156 191.715 229.156Z" fill="#D8CDC3"/>
<path d="M193.29 229.605C193.425 229.492 193.443 229.291 193.33 229.156C193.217 229.021 193.016 229.004 192.881 229.117C192.746 229.23 192.728 229.431 192.841 229.566C192.955 229.701 193.156 229.719 193.29 229.605Z" fill="#D8CDC3"/>
<path d="M194.954 229.926C195.04 229.772 194.986 229.578 194.833 229.491C194.68 229.405 194.485 229.459 194.399 229.612C194.312 229.766 194.366 229.96 194.52 230.047C194.673 230.133 194.867 230.079 194.954 229.926Z" fill="#D8CDC3"/>
<path d="M187.572 224.372C187.891 224.293 188.289 224.213 188.528 224.452C188.608 224.612 188.767 224.851 188.847 225.01C188.528 224.851 187.971 224.851 187.732 224.931C187.891 224.612 187.811 224.452 187.572 224.372Z" fill="#686461"/>
<path d="M188.213 225.648C188.452 225.489 189.01 225.409 189.328 225.489C189.408 225.648 189.567 225.728 189.647 225.887C189.249 225.807 188.771 225.967 188.532 226.047C188.532 225.887 188.452 225.728 188.213 225.648Z" fill="#686461"/>
<path d="M189.166 226.844C189.405 226.684 189.883 226.525 190.202 226.525L190.6 226.924C190.202 226.924 189.644 227.163 189.485 227.322C189.564 227.083 189.405 226.844 189.166 226.844Z" fill="#686461"/>
<path d="M190.359 227.721C190.519 227.482 190.917 227.322 191.236 227.322L191.714 227.561C191.315 227.641 190.837 227.96 190.678 228.12C190.678 227.96 190.678 227.721 190.359 227.721Z" fill="#686461"/>
<path d="M191.639 228.359C191.878 228.12 192.117 227.96 192.356 227.88C192.515 227.96 192.595 228.04 192.834 228.12C192.515 228.279 192.276 228.598 192.117 228.757C192.037 228.598 191.957 228.359 191.639 228.359Z" fill="#686461"/>
<path d="M192.988 228.997C193.227 228.757 193.466 228.518 193.705 228.438C193.865 228.518 193.944 228.518 194.183 228.598C193.865 228.757 193.546 229.156 193.387 229.236C193.387 229.236 193.227 228.997 192.988 228.997Z" fill="#686461"/>
<path d="M194.344 229.475C194.423 229.076 194.503 228.997 194.583 228.757C194.742 228.757 194.981 228.917 194.981 228.917C194.822 229.236 194.901 229.395 194.822 229.634C194.742 229.555 194.583 229.315 194.344 229.475Z" fill="#686461"/>
<path d="M186.934 222.937C187.252 222.858 187.491 222.778 187.81 222.937C187.969 223.097 188.049 223.336 188.049 223.495C187.651 223.336 187.412 223.336 187.173 223.416C187.173 223.176 187.093 223.017 186.934 222.937Z" fill="#686461"/>
<path d="M185.342 222.3V221.981C185.421 221.741 185.501 221.582 185.74 221.502C186.059 221.263 186.378 221.104 186.776 220.865C186.935 221.104 187.015 221.343 187.015 221.662C186.696 221.821 186.378 221.981 186.139 222.06C185.9 222.22 185.66 222.3 185.342 222.3Z" fill="#F15A24"/>
<path d="M184.621 109.009C185.019 112.039 197.927 128.223 205.177 128.781C205.257 128.781 205.416 128.861 205.576 128.861C206.133 128.861 206.691 128.702 207.09 128.383C209.639 126.788 220.316 119.772 223.901 115.627L221.75 111.64C216.252 113.554 205.496 120.809 205.496 120.809C205.496 120.809 204.859 120.968 204.779 120.729C200.397 113.554 194.102 109.647 187.728 106.139L184.621 109.009Z" fill="#EDBD98"/>
<path d="M233.46 103.588L228.68 111.162C228.68 111.162 229.237 112.039 230.433 111.959C231.628 111.88 233.221 108.93 233.381 108.372C233.54 107.814 233.301 107.176 233.46 106.777C233.62 106.379 233.54 105.262 233.54 105.262C233.46 105.502 234.576 104.066 233.46 103.588Z" fill="#D8A988"/>
<path d="M227.324 111.242L229.794 101.196C229.874 100.877 230.033 100.638 230.352 100.479L234.017 98.3261C234.256 98.1667 234.495 98.2464 234.654 98.4856C234.734 98.645 234.734 98.7247 234.734 98.8842L232.105 109.488L227.324 111.242Z" fill="#1A2E35"/>
<path d="M232.025 110.444C232.025 110.444 232.104 110.285 232.104 109.966C232.104 109.647 232.104 109.249 231.945 108.691C232.025 108.531 232.104 108.292 232.025 108.132C231.945 107.973 231.786 107.734 231.626 107.654L231.547 107.574L231.626 107.495C231.865 107.176 232.025 106.857 232.264 106.458C232.344 106.378 232.423 106.299 232.423 106.219V105.98C232.343 105.82 232.184 105.661 232.025 105.502L231.945 105.422L232.025 105.342C232.184 105.103 232.423 104.943 232.583 104.704C232.901 104.306 233.3 103.987 233.539 103.588C233.698 103.429 233.778 103.189 233.857 103.03C233.937 102.95 233.937 102.871 233.937 102.711C233.937 102.631 233.937 102.552 233.857 102.552C233.778 102.552 233.618 102.552 233.539 102.631C233.459 102.711 233.3 102.711 233.22 102.791C232.981 102.871 232.822 103.03 232.583 103.189C232.184 103.429 231.865 103.668 231.626 103.827C231.387 103.987 231.228 104.146 230.989 104.306C230.83 104.385 230.75 104.465 230.75 104.465L230.909 104.306C231.069 104.226 231.228 103.987 231.467 103.827C231.706 103.588 232.025 103.349 232.423 103.11C232.583 102.95 232.822 102.871 233.061 102.711C233.14 102.631 233.3 102.552 233.379 102.552C233.539 102.472 233.618 102.472 233.857 102.472C234.017 102.472 234.096 102.631 234.096 102.791C234.096 102.95 234.017 103.03 234.017 103.11C233.937 103.349 233.778 103.508 233.618 103.748C233.3 104.146 232.981 104.545 232.662 104.864C232.423 105.103 232.264 105.262 232.104 105.502V105.342C232.264 105.502 232.503 105.661 232.583 105.9C232.662 105.98 232.662 106.139 232.583 106.299C232.503 106.458 232.503 106.538 232.423 106.618C232.184 106.937 231.945 107.335 231.786 107.654V107.574C232.025 107.734 232.184 107.893 232.264 108.132C232.344 108.372 232.264 108.611 232.184 108.77V108.691C232.343 109.249 232.344 109.647 232.264 109.966C232.264 110.126 232.184 110.205 232.184 110.285L232.025 110.444Z" fill="#C99877"/>
<path d="M234.652 98.4856C234.652 98.4856 234.572 98.5653 234.333 98.7248C234.094 98.8842 233.855 99.0437 233.457 99.2829C233.058 99.522 232.66 99.7612 232.182 100.08C231.943 100.24 231.704 100.399 231.385 100.558C231.146 100.718 230.827 100.877 230.588 101.037C230.349 101.276 230.27 101.515 230.19 101.834C230.11 102.153 230.031 102.392 229.951 102.711C229.792 103.269 229.712 103.747 229.553 104.146C229.473 104.545 229.314 104.864 229.314 105.103C229.234 105.342 229.234 105.422 229.154 105.422C229.154 105.422 229.154 105.262 229.234 105.023C229.314 104.784 229.314 104.465 229.473 104.066C229.553 103.668 229.712 103.11 229.792 102.631C229.871 102.392 229.951 102.073 230.031 101.754C230.11 101.435 230.19 101.117 230.429 100.877C230.668 100.638 230.987 100.479 231.226 100.319C231.465 100.16 231.784 100 232.023 99.9207C232.501 99.6815 232.979 99.4423 233.297 99.2031C233.696 98.964 233.935 98.8045 234.174 98.7248C234.493 98.4856 234.652 98.4856 234.652 98.4856Z" fill="#375A64"/>
<path d="M232.267 101.914C232.187 102.153 232.187 102.312 232.267 102.392C232.346 102.392 232.506 102.312 232.585 102.073C232.665 101.834 232.665 101.675 232.585 101.595C232.506 101.515 232.346 101.675 232.267 101.914Z" fill="white"/>
<path d="M223.264 110.843C224.061 110.444 224.14 109.089 224.539 108.292C224.857 107.574 225.335 106.857 225.574 106.697C226.132 106.378 229 104.624 229 104.624L228.682 105.98L231.47 103.987C231.789 103.747 233.781 101.914 234.179 102.631C234.418 103.11 232.825 104.465 232.586 104.784C232.028 105.501 232.187 105.501 232.187 105.501C232.187 105.501 232.745 105.82 232.506 106.378C232.187 106.936 231.709 107.574 231.709 107.574C231.709 107.574 232.506 107.813 232.028 108.85C232.028 108.85 232.267 109.408 232.108 110.126C232.028 110.524 231.709 111.082 231.311 111.481C230.913 111.959 230.355 112.358 229.797 112.597C227.327 113.394 225.256 114.351 223.901 115.627L221.75 111.64L223.264 110.843Z" fill="#EDBD98"/>
<path d="M229.553 105.342C229.553 105.422 228.916 105.82 228.119 106.299C227.323 106.777 226.605 107.176 226.605 107.176C226.605 107.096 227.243 106.697 228.04 106.219C228.836 105.661 229.474 105.262 229.553 105.342Z" fill="#C99877"/>
<path d="M232.188 105.422C232.188 105.422 231.63 106.059 230.913 106.777C230.196 107.494 229.559 108.053 229.559 108.053C229.559 108.053 230.116 107.415 230.833 106.697C231.55 105.98 232.108 105.422 232.188 105.422Z" fill="#C99877"/>
<path d="M231.869 107.335C231.869 107.335 231.63 107.734 231.311 108.132L230.594 108.85C230.594 108.85 230.833 108.451 231.151 108.052C231.55 107.574 231.869 107.255 231.869 107.335Z" fill="#C99877"/>
<path d="M195.38 140.262H164.387C164.387 140.262 165.502 113.793 169.486 99.2031C170.044 97.1302 171.797 94.1804 173.31 92.6656C173.948 92.1075 174.585 91.5494 175.462 91.2305C176.019 90.9913 176.657 90.9116 177.294 90.9913L182.632 91.4697C183.19 91.5494 183.748 91.8683 183.987 92.4264L189.245 104.385C189.564 105.103 190.042 105.741 190.6 106.219L198.328 113.155L193.229 119.374L192.592 120.091" fill="#EACE03"/>
<path d="M191.151 119.613C182.578 112.772 182.196 111.513 181.502 109.217C181.271 108.451 181.008 107.582 180.371 106.33L181.08 105.972C181.749 107.287 182.02 108.196 182.267 108.993C182.921 111.138 183.279 112.318 191.653 118.999L191.159 119.621L191.151 119.613Z" fill="#603813"/>
</svg>
