<svg width="343" height="233" viewBox="0 0 343 233" fill="none" xmlns="http://www.w3.org/2000/svg">
<path d="M171.5 209.001C256.114 209.001 324.707 202.08 324.707 193.543C324.707 185.006 256.114 178.086 171.5 178.086C86.8864 178.086 18.2935 185.006 18.2935 193.543C18.2935 202.08 86.8864 209.001 171.5 209.001Z" fill="#F3F3F3"/>
<path d="M278.928 102.21C278.928 102.21 254.184 113.597 247.755 100.143C241.326 86.6441 241.707 36.5042 265.647 41.3254C289.587 46.1465 307.352 77.9661 294.663 91.0061C289.883 95.4599 284.681 99.271 278.928 102.21Z" fill="#A2D855"/>
<path d="M273.705 110.018C274.001 110.798 274.255 111.625 274.424 112.497C275.82 118.834 281.361 146.567 275.482 164.152C268.799 184.172 268.799 184.172 268.799 184.172L280.938 183.758C280.938 183.758 279.627 181.876 279.711 176.32C279.796 171.086 282.672 152.674 281.911 144.271C281.15 136.282 278.485 117.778 276.539 112.451C274.805 107.63 274.171 105.289 274.847 104.232C275.101 103.819 274.086 106.161 274.086 106.161L271.464 104.278L273.705 110.018Z" fill="#725D51"/>
<path d="M274.55 105.655C274.55 105.655 276.2 98.5376 279.33 90.9156C282.46 83.2936 286.605 79.2071 286.605 79.2071H286.266C286.266 79.2071 283.179 82.9722 282.417 84.0741C281.656 85.1761 277.426 93.5328 277.003 95.0939C276.58 96.701 273.958 105.425 273.958 105.425C273.958 105.425 276.919 82.2375 275.354 80.0795C273.789 77.9214 274.761 73.8809 274.761 73.8809L274.55 74.0186C274.55 74.0186 273.535 76.5899 273.916 78.1051C274.296 79.6203 274.761 81.3192 274.888 82.1457C275.015 82.8803 274.931 86.0944 274.888 87.6556C274.846 88.8494 273.662 101.935 273.662 101.935L273.366 105.287L272.181 97.4356C272.097 96.8846 272.097 96.3795 271.97 95.7367C271.631 93.3032 270.574 85.7271 268.248 82.1916C265.329 77.7378 257.124 75.1206 257.124 75.1206C257.124 75.1206 263.595 79.7121 264.06 79.804C264.779 79.9876 268.121 83.7527 268.713 85.4975C269.263 87.0127 271.209 96.8846 271.335 97.5274C271.505 98.308 272.647 105.379 272.647 105.379C272.647 105.379 259.238 83.7068 252.513 84.2119C252.513 84.2119 256.151 85.8649 257.758 87.7474C259.365 89.6759 267.529 98.7212 267.909 99.5936C268.332 100.466 271.082 103.864 271.631 105.012C272.181 106.16 272.393 106.619 272.393 106.619C272.393 106.619 272.435 106.756 273.196 106.94C274.042 107.032 274.55 105.655 274.55 105.655Z" fill="#725D51"/>
<path d="M273.809 71.8142C273.809 71.8142 273.175 70.0694 273.725 69.0133C274.19 68.0491 275.036 67.3145 275.036 67.3145C275.036 67.3145 275.459 68.6919 275.29 69.4725C275.121 70.299 274.782 70.9418 274.359 71.4009C273.936 71.8601 273.809 71.8142 273.809 71.8142Z" fill="#725D51"/>
<path d="M257.568 73.0079C257.568 73.0079 255.834 73.0538 255.115 72.1355C254.438 71.309 254.1 70.207 254.1 70.207C254.1 70.207 255.411 70.2529 256.045 70.6662C256.68 71.0794 257.145 71.6763 257.399 72.2732C257.653 72.8701 257.568 73.0079 257.568 73.0079Z" fill="#725D51"/>
<path d="M259.978 74.1081C259.978 74.1081 258.498 73.1898 258.286 71.996C258.075 70.9399 258.329 69.7461 258.329 69.7461C258.329 69.7461 259.428 70.5267 259.809 71.2613C260.147 71.996 260.274 72.7306 260.232 73.3734C260.19 74.0162 259.978 74.1081 259.978 74.1081Z" fill="#725D51"/>
<path d="M261.418 75.1185C261.418 75.1185 260.022 76.2205 258.923 75.8991C257.95 75.6236 257.062 74.9349 257.062 74.9349C257.062 74.9349 258.161 74.1543 258.923 74.1543C259.684 74.1543 260.361 74.338 260.868 74.6594C261.418 74.9808 261.418 75.1185 261.418 75.1185Z" fill="#725D51"/>
<path d="M263.995 77.2326C263.995 77.2326 263.022 78.1509 262.176 78.0131C261.415 77.8754 260.738 77.4162 260.738 77.4162C260.738 77.4162 261.541 76.7734 262.091 76.6816C262.641 76.5897 263.149 76.7275 263.572 76.9112C263.952 77.1407 263.995 77.2326 263.995 77.2326Z" fill="#725D51"/>
<path d="M265.942 77.6907C265.942 77.6907 264.842 76.9101 264.758 76.0377C264.673 75.2113 264.885 74.3848 264.885 74.3848C264.885 74.3848 265.688 75.0276 265.9 75.5786C266.111 76.1296 266.154 76.7265 266.111 77.1856C266.027 77.6448 265.942 77.6907 265.942 77.6907Z" fill="#725D51"/>
<path d="M268.607 81.2269C268.607 81.2269 267.846 80.079 268.015 79.2066C268.184 78.3802 268.649 77.6914 268.649 77.6914C268.649 77.6914 269.199 78.5638 269.241 79.2066C269.284 79.8495 269.157 80.3545 268.945 80.8137C268.734 81.2269 268.607 81.2269 268.607 81.2269Z" fill="#725D51"/>
<path d="M268.523 83.8883C268.523 83.8883 267.254 84.1638 266.619 83.5669C266.027 83.0618 265.646 82.2812 265.646 82.2812C265.646 82.2812 266.619 82.1435 267.169 82.3731C267.677 82.6026 268.1 82.97 268.354 83.3832C268.607 83.7964 268.523 83.8883 268.523 83.8883Z" fill="#725D51"/>
<path d="M270.045 86.7825C270.045 86.7825 269.707 85.4509 270.13 84.6704C270.553 83.9816 271.229 83.4766 271.229 83.4766C271.229 83.4766 271.441 84.5326 271.314 85.1295C271.145 85.7264 270.849 86.1856 270.51 86.507C270.172 86.8284 270.045 86.7825 270.045 86.7825Z" fill="#725D51"/>
<path d="M270.975 90.7764C270.975 90.7764 270.51 89.8122 270.764 89.1235C270.975 88.5266 271.44 88.0215 271.44 88.0215C271.44 88.0215 271.737 88.8021 271.694 89.2612C271.652 89.7204 271.483 90.1336 271.271 90.455C271.06 90.7764 270.975 90.7764 270.975 90.7764Z" fill="#725D51"/>
<path d="M270.977 95.0477C270.977 95.0477 270.004 94.7722 269.708 94.1294C269.454 93.5325 269.412 92.8438 269.412 92.8438C269.412 92.8438 270.131 93.0733 270.47 93.4407C270.766 93.808 270.935 94.1753 271.019 94.5886C271.062 95.0018 270.977 95.0477 270.977 95.0477Z" fill="#725D51"/>
<path d="M269.749 90.1337C269.749 90.1337 268.438 89.996 267.973 89.2613C267.508 88.5726 267.338 87.7461 267.338 87.7461C267.338 87.7461 268.311 87.8838 268.776 88.2512C269.242 88.6185 269.496 89.1236 269.665 89.5368C269.834 89.95 269.749 90.1337 269.749 90.1337Z" fill="#725D51"/>
<path d="M252.451 81.5929C252.451 81.5929 251.182 81.9143 250.505 81.4092C249.871 80.9501 249.448 80.1695 249.448 80.1695C249.448 80.1695 250.421 79.9859 250.97 80.1695C251.52 80.3532 251.901 80.7205 252.197 81.0878C252.493 81.4552 252.451 81.5929 252.451 81.5929Z" fill="#725D51"/>
<path d="M253.889 81.8251C253.889 81.8251 253.085 81.32 253 80.7231C252.916 80.1721 253 79.5293 253 79.5293C253 79.5293 253.593 79.9425 253.762 80.3099C253.931 80.6772 254.016 81.0904 253.973 81.4578C253.931 81.7792 253.889 81.8251 253.889 81.8251Z" fill="#725D51"/>
<path d="M255.071 83.0631C255.071 83.0631 254.437 83.7978 253.845 83.7518C253.295 83.7518 252.787 83.4764 252.787 83.4764C252.787 83.4764 253.295 82.9713 253.675 82.8335C254.056 82.7417 254.437 82.7417 254.733 82.8794C255.029 83.0172 255.071 83.0631 255.071 83.0631Z" fill="#725D51"/>
<path d="M256.34 83.2919C256.34 83.2919 255.621 82.695 255.579 82.0522C255.537 81.4553 255.748 80.9043 255.748 80.9043C255.748 80.9043 256.298 81.4094 256.425 81.8226C256.552 82.2358 256.552 82.6491 256.509 82.9705C256.425 83.246 256.34 83.2919 256.34 83.2919Z" fill="#725D51"/>
<path d="M257.484 85.0844C257.484 85.0844 256.765 85.7272 256.215 85.5895C255.708 85.4976 255.2 85.1303 255.2 85.1303C255.2 85.1303 255.75 84.6711 256.173 84.6252C256.554 84.5793 256.934 84.6711 257.23 84.8089C257.484 84.9925 257.484 85.0844 257.484 85.0844Z" fill="#725D51"/>
<path d="M258.879 85.496C258.879 85.496 258.202 84.8532 258.202 84.2104C258.202 83.6135 258.456 83.0625 258.456 83.0625C258.456 83.0625 258.963 83.6135 259.048 84.0267C259.175 84.44 259.133 84.8532 259.048 85.1746C258.963 85.496 258.879 85.496 258.879 85.496Z" fill="#725D51"/>
<path d="M259.473 87.5618C259.473 87.5618 258.669 88.021 258.119 87.8373C257.611 87.6536 257.188 87.1945 257.188 87.1945C257.188 87.1945 257.823 86.873 258.204 86.873C258.584 86.919 258.965 87.0567 259.219 87.2404C259.472 87.424 259.473 87.5618 259.473 87.5618Z" fill="#725D51"/>
<path d="M261.501 88.3427C261.501 88.3427 260.867 87.6081 260.952 86.9652C260.994 86.3683 261.29 85.8633 261.29 85.8633C261.29 85.8633 261.755 86.4602 261.798 86.8734C261.882 87.2867 261.798 87.6999 261.671 88.0213C261.586 88.3427 261.501 88.3427 261.501 88.3427Z" fill="#725D51"/>
<path d="M263.448 90.7756C263.448 90.7756 262.771 89.8113 262.94 89.0308C263.067 88.342 263.49 87.6992 263.49 87.6992C263.49 87.6992 263.955 88.4798 263.998 89.0308C264.04 89.5818 263.913 90.0409 263.744 90.4082C263.532 90.7756 263.448 90.7756 263.448 90.7756Z" fill="#725D51"/>
<path d="M264.082 92.6585C264.082 92.6585 263.067 93.439 262.263 93.2095C261.544 93.0258 260.952 92.4748 260.952 92.4748C260.952 92.4748 261.756 91.9238 262.306 91.9238C262.856 91.9238 263.321 92.0616 263.701 92.2912C264.082 92.5207 264.082 92.6585 264.082 92.6585Z" fill="#725D51"/>
<path d="M266.029 94.1741C266.029 94.1741 265.267 93.1181 265.394 92.2457C265.521 91.4651 265.986 90.7305 265.986 90.7305C265.986 90.7305 266.536 91.5569 266.578 92.1538C266.621 92.7507 266.536 93.3017 266.325 93.715C266.113 94.1282 266.029 94.1741 266.029 94.1741Z" fill="#725D51"/>
<path d="M267.382 96.7922C267.382 96.7922 266.029 97.3432 265.225 96.884C264.506 96.4708 263.914 95.6902 263.914 95.6902C263.914 95.6902 264.971 95.3228 265.564 95.4606C266.156 95.5983 266.663 95.9197 267.044 96.2871C267.425 96.6544 267.382 96.7922 267.382 96.7922Z" fill="#725D51"/>
<path d="M269.158 98.3521C269.158 98.3521 268.1 97.1124 268.227 96.0564C268.354 95.0921 268.82 94.1738 268.82 94.1738C268.82 94.1738 269.581 95.184 269.665 95.9186C269.792 96.6533 269.665 97.2961 269.454 97.8471C269.285 98.3522 269.158 98.3521 269.158 98.3521Z" fill="#725D51"/>
<path d="M262.053 90.3638C262.053 90.3638 261.207 90.7771 260.699 90.5016C260.192 90.272 259.811 89.8129 259.811 89.8129C259.811 89.8129 260.445 89.5374 260.868 89.5833C261.291 89.6292 261.588 89.8129 261.841 90.0424C262.053 90.272 262.053 90.3638 262.053 90.3638Z" fill="#725D51"/>
<path d="M266.578 80.1699C266.578 80.1699 265.351 80.6291 264.632 80.1699C263.998 79.7567 263.49 79.022 263.49 79.022C263.49 79.022 264.463 78.7465 265.013 78.8843C265.563 79.022 265.986 79.3434 266.324 79.7108C266.578 80.0322 266.578 80.1699 266.578 80.1699Z" fill="#725D51"/>
<path d="M262.898 75.8552C262.898 75.8552 261.502 74.7532 261.418 73.5594C261.333 72.4574 261.672 71.3555 261.672 71.3555C261.672 71.3555 262.687 72.2738 262.941 73.0544C263.194 73.8349 263.237 74.5696 263.11 75.2124C262.983 75.8552 262.898 75.8552 262.898 75.8552Z" fill="#725D51"/>
<path d="M274.403 77.3225C274.403 77.3225 274.022 76.0368 274.445 75.3022C274.826 74.6135 275.46 74.1543 275.46 74.1543C275.46 74.1543 275.714 75.1644 275.545 75.7154C275.418 76.2664 275.122 76.7256 274.784 77.047C274.488 77.3684 274.403 77.3225 274.403 77.3225Z" fill="#725D51"/>
<path d="M273.219 73.7868C273.219 73.7868 272.5 73.4195 272.373 72.9144C272.246 72.4553 272.33 71.9043 272.33 71.9043C272.33 71.9043 272.838 72.2257 273.049 72.5471C273.219 72.8685 273.303 73.1899 273.303 73.5113C273.261 73.7868 273.219 73.7868 273.219 73.7868Z" fill="#725D51"/>
<path d="M274.995 82.3753C274.995 82.3753 274.825 80.7683 275.46 80.0336C276.052 79.3449 276.898 78.9316 276.898 78.9316C276.898 78.9316 276.983 80.1714 276.686 80.7683C276.39 81.4111 275.967 81.8702 275.544 82.1457C275.121 82.4671 274.995 82.3753 274.995 82.3753Z" fill="#725D51"/>
<path d="M285.569 76.5418C285.569 76.5418 285.485 75.5775 285.908 75.1643C286.288 74.7511 286.796 74.5215 286.796 74.5215C286.796 74.5215 286.796 75.2561 286.627 75.6235C286.458 75.9908 286.204 76.2663 285.908 76.404C285.612 76.5877 285.569 76.5418 285.569 76.5418Z" fill="#725D51"/>
<path d="M284.723 77.5067C284.723 77.5067 284.088 76.9098 284.088 76.3129C284.088 75.7619 284.3 75.2109 284.3 75.2109C284.3 75.2109 284.765 75.716 284.892 76.0833C284.977 76.4966 284.977 76.8639 284.892 77.1394C284.807 77.4149 284.723 77.5067 284.723 77.5067Z" fill="#725D51"/>
<path d="M284.004 78.5171C284.004 78.5171 283.455 78.2876 283.328 77.8743C283.201 77.507 283.243 77.0938 283.243 77.0938C283.243 77.0938 283.666 77.3233 283.793 77.5529C283.962 77.7825 284.004 78.058 284.004 78.2416C284.047 78.4712 284.004 78.5171 284.004 78.5171Z" fill="#725D51"/>
<path d="M282.861 79.8492C282.861 79.8492 282.438 79.3901 282.48 78.9768C282.522 78.6095 282.692 78.2422 282.692 78.2422C282.692 78.2422 282.988 78.6095 283.072 78.885C283.114 79.1605 283.114 79.436 283.03 79.6197C282.945 79.8033 282.861 79.8492 282.861 79.8492Z" fill="#725D51"/>
<path d="M282.184 80.9058C282.184 80.9058 281.676 80.5844 281.592 80.1712C281.507 79.8039 281.592 79.3906 281.592 79.3906C281.592 79.3906 281.972 79.6661 282.099 79.8957C282.226 80.1253 282.269 80.4008 282.226 80.6303C282.226 80.9058 282.184 80.9058 282.184 80.9058Z" fill="#725D51"/>
<path d="M281.297 82.145C281.297 82.145 280.958 81.7777 281.001 81.4563C281.043 81.1808 281.17 80.8594 281.17 80.8594C281.17 80.8594 281.424 81.1349 281.466 81.3644C281.508 81.594 281.466 81.7777 281.424 81.9613C281.339 82.145 281.297 82.145 281.297 82.145Z" fill="#725D51"/>
<path d="M280.705 83.2916C280.705 83.2916 280.155 82.9243 280.113 82.4652C280.071 82.0519 280.155 81.6387 280.155 81.6387C280.155 81.6387 280.536 81.9601 280.663 82.2356C280.79 82.5111 280.79 82.7866 280.79 83.0161C280.747 83.2457 280.705 83.2916 280.705 83.2916Z" fill="#725D51"/>
<path d="M280.197 84.5336C280.197 84.5336 279.562 84.4877 279.309 84.1663C279.055 83.8449 278.97 83.4316 278.97 83.4316C278.97 83.4316 279.478 83.4776 279.689 83.6612C279.901 83.8449 280.07 84.0745 280.155 84.304C280.239 84.4877 280.197 84.5336 280.197 84.5336Z" fill="#725D51"/>
<path d="M279.097 86.3688C279.097 86.3688 278.547 86.0474 278.462 85.5882C278.378 85.175 278.462 84.7617 278.462 84.7617C278.462 84.7617 278.885 85.0372 279.012 85.3127C279.139 85.5882 279.181 85.8637 279.181 86.0933C279.139 86.3688 279.097 86.3688 279.097 86.3688Z" fill="#725D51"/>
<path d="M278.208 88.5263C278.208 88.5263 277.362 88.0212 277.235 87.3784C277.108 86.7815 277.235 86.1387 277.235 86.1387C277.235 86.1387 277.87 86.5519 278.039 86.9652C278.25 87.3784 278.293 87.7916 278.293 88.159C278.293 88.4804 278.208 88.5263 278.208 88.5263Z" fill="#725D51"/>
<path d="M276.983 91.2841C276.983 91.2841 276.137 90.779 276.01 90.1362C275.883 89.5393 276.01 88.8965 276.01 88.8965C276.01 88.8965 276.644 89.3097 276.814 89.723C277.025 90.1362 277.067 90.5494 277.067 90.9168C277.067 91.2382 276.983 91.2841 276.983 91.2841Z" fill="#725D51"/>
<path d="M284.595 77.7844C284.595 77.7844 285.018 77.2793 285.441 77.3252C285.822 77.3252 286.16 77.5089 286.16 77.5089C286.16 77.5089 285.822 77.8762 285.526 77.9221C285.272 78.0139 285.018 77.968 284.807 77.8762C284.595 77.8762 284.595 77.7844 284.595 77.7844Z" fill="#725D51"/>
<path d="M283.412 79.343C283.412 79.343 283.835 78.8379 284.258 78.8838C284.639 78.8838 284.977 79.0675 284.977 79.0675C284.977 79.0675 284.639 79.4348 284.343 79.4807C284.089 79.5726 283.835 79.5266 283.624 79.4348C283.412 79.343 283.412 79.343 283.412 79.343Z" fill="#725D51"/>
<path d="M282.521 80.6301C282.521 80.6301 282.944 80.125 283.367 80.1709C283.748 80.1709 284.086 80.3546 284.086 80.3546C284.086 80.3546 283.748 80.7219 283.452 80.7678C283.198 80.8597 282.944 80.8137 282.733 80.7219C282.521 80.676 282.521 80.6301 282.521 80.6301Z" fill="#725D51"/>
<path d="M281.084 82.8352C281.084 82.8352 281.507 82.3301 281.93 82.376C282.311 82.376 282.649 82.5597 282.649 82.5597C282.649 82.5597 282.311 82.927 282.015 82.9729C281.718 83.0188 281.507 83.0188 281.295 82.927C281.084 82.927 281.084 82.8352 281.084 82.8352Z" fill="#725D51"/>
<path d="M279.435 86.0481C279.435 86.0481 279.858 85.543 280.281 85.5889C280.661 85.5889 281 85.7726 281 85.7726C281 85.7726 280.661 86.1399 280.365 86.1858C280.069 86.2317 279.858 86.2317 279.646 86.1399C279.435 86.1399 279.435 86.0481 279.435 86.0481Z" fill="#725D51"/>
<path d="M278.548 88.0686C278.548 88.0686 279.225 87.2881 279.902 87.334C280.494 87.3799 281.044 87.6554 281.044 87.6554C281.044 87.6554 280.494 88.2064 280.071 88.3441C279.648 88.436 279.225 88.436 278.929 88.2982C278.548 88.1605 278.548 88.0686 278.548 88.0686Z" fill="#725D51"/>
<path d="M277.405 90.7288C277.405 90.7288 278.082 89.9482 278.759 89.9941C279.351 90.0401 279.901 90.3155 279.901 90.3155C279.901 90.3155 279.351 90.8665 278.928 91.0043C278.505 91.0961 278.082 91.0961 277.786 90.9584C277.448 90.8206 277.405 90.7288 277.405 90.7288Z" fill="#725D51"/>
<path d="M276.348 93.4859C276.348 93.4859 276.686 92.4299 277.278 92.2003C277.828 91.9707 278.463 91.9707 278.463 91.9707C278.463 91.9707 278.166 92.7513 277.828 93.0268C277.49 93.3023 277.109 93.4859 276.771 93.5318C276.432 93.5777 276.348 93.4859 276.348 93.4859Z" fill="#725D51"/>
<path d="M275.459 96.1949C275.459 96.1949 275.797 95.1388 276.39 94.9093C276.939 94.6797 277.574 94.6797 277.574 94.6797C277.574 94.6797 277.278 95.4603 276.939 95.7358C276.601 96.0113 276.22 96.1949 275.882 96.2408C275.501 96.2868 275.459 96.1949 275.459 96.1949Z" fill="#725D51"/>
<path d="M274.994 98.1696C274.994 98.1696 275.417 97.389 275.925 97.2972C276.39 97.2054 276.94 97.3431 276.94 97.3431C276.94 97.3431 276.601 97.94 276.263 98.1237C275.925 98.3073 275.586 98.3532 275.333 98.3532C275.036 98.2614 274.994 98.1696 274.994 98.1696Z" fill="#725D51"/>
<path d="M275.671 95.0026C275.671 95.0026 275.079 94.5894 274.994 94.0843C274.952 93.6252 275.037 93.166 275.037 93.166C275.037 93.166 275.46 93.4874 275.629 93.8088C275.798 94.1302 275.798 94.4517 275.756 94.6812C275.756 94.9567 275.671 95.0026 275.671 95.0026Z" fill="#725D51"/>
<path d="M275.08 96.8365C275.08 96.8365 274.572 96.561 274.445 96.1936C274.361 95.8263 274.403 95.459 274.403 95.459C274.403 95.459 274.784 95.6886 274.911 95.9181C275.038 96.1477 275.08 96.3773 275.08 96.6069C275.122 96.7905 275.08 96.8365 275.08 96.8365Z" fill="#725D51"/>
<path d="M281.973 81.5462C281.973 81.5462 282.353 81.2707 282.607 81.3625C282.861 81.4543 283.072 81.638 283.072 81.638C283.072 81.638 282.776 81.8216 282.565 81.8216C282.353 81.8216 282.184 81.7757 282.057 81.6839C281.973 81.5921 281.973 81.5462 281.973 81.5462Z" fill="#725D51"/>
<path d="M280.367 84.1184C280.367 84.1184 280.748 83.8429 281.002 83.9348C281.255 84.0266 281.467 84.2102 281.467 84.2102C281.467 84.2102 281.171 84.3939 280.959 84.3939C280.748 84.3939 280.579 84.348 280.452 84.2562C280.367 84.1643 280.367 84.1184 280.367 84.1184Z" fill="#725D51"/>
<path d="M274.868 86.3693C274.868 86.3693 274.741 85.0377 275.291 84.3949C275.798 83.798 276.475 83.4766 276.475 83.4766C276.475 83.4766 276.517 84.4867 276.306 85.0377C276.094 85.5887 275.714 85.956 275.333 86.1856C274.952 86.4152 274.868 86.3693 274.868 86.3693Z" fill="#725D51"/>
<path d="M274.573 89.1247C274.573 89.1247 274.615 88.2064 275.038 87.8391C275.419 87.5177 275.926 87.334 275.926 87.334C275.926 87.334 275.884 88.0227 275.63 88.3901C275.419 88.7115 275.123 88.941 274.869 89.0788C274.615 89.2165 274.573 89.1247 274.573 89.1247Z" fill="#725D51"/>
<path d="M274.402 79.5264C274.402 79.5264 273.133 79.2509 272.71 78.4703C272.329 77.7357 272.245 76.8633 272.245 76.8633C272.245 76.8633 273.217 77.1388 273.598 77.552C274.021 77.9653 274.233 78.4703 274.359 78.9754C274.486 79.4346 274.402 79.5264 274.402 79.5264Z" fill="#725D51"/>
<path d="M274.487 84.303C274.487 84.303 272.88 83.9357 272.372 82.9715C271.907 82.0531 271.78 80.9512 271.78 80.9512C271.78 80.9512 273.007 81.2726 273.514 81.8236C274.022 82.3746 274.318 83.0174 274.487 83.6143C274.572 84.1653 274.487 84.303 274.487 84.303Z" fill="#725D51"/>
<path d="M274.19 91.5097C274.19 91.5097 273.006 91.2342 272.625 90.5455C272.287 89.9026 272.202 89.0762 272.202 89.0762C272.202 89.0762 273.09 89.3057 273.471 89.719C273.852 90.1322 274.063 90.5914 274.19 91.0046C274.317 91.4179 274.19 91.5097 274.19 91.5097Z" fill="#725D51"/>
<path d="M274.192 87.4717C274.192 87.4717 272.923 87.1962 272.5 86.4156C272.119 85.681 272.035 84.8086 272.035 84.8086C272.035 84.8086 273.007 85.0841 273.43 85.4973C273.853 85.9106 274.065 86.4616 274.192 86.9207C274.276 87.3799 274.192 87.4717 274.192 87.4717Z" fill="#725D51"/>
<path d="M289.515 142.258C289.515 142.258 302.374 149.053 306.138 142.074C309.903 135.095 310.918 108.418 298.102 110.254C285.243 112.091 275.05 128.529 281.437 135.829C283.848 138.355 286.512 140.513 289.515 142.258Z" fill="#A2D855"/>
<path d="M292.563 145.108C292.394 145.521 292.225 145.98 292.098 146.393C291.209 149.745 287.572 164.3 290.237 173.851C293.282 184.687 293.282 184.687 293.282 184.687L287.022 185.008C287.022 185.008 287.572 183.172 287.656 180.187C287.741 177.386 286.684 167.56 287.276 163.107C287.868 158.882 289.856 149.148 290.913 146.347C291.886 143.73 292.225 142.399 292.013 142.031C291.886 141.802 292.394 143.087 292.394 143.087L293.832 142.169L292.563 145.108Z" fill="#725D51"/>
<path d="M292.224 142.765C292.224 142.765 291.505 138.954 290.066 134.776C288.586 130.643 286.471 128.348 286.471 128.348H286.64C286.64 128.348 288.205 130.46 288.586 131.057C288.967 131.654 290.997 136.245 291.208 137.072C291.378 137.944 292.562 142.627 292.562 142.627C292.562 142.627 291.547 130.23 292.435 129.128C293.323 128.026 292.9 125.822 292.9 125.822L293.027 125.868C293.027 125.868 293.493 127.246 293.239 128.072C292.985 128.853 292.689 129.725 292.604 130.184C292.52 130.552 292.477 132.296 292.477 133.123C292.477 133.766 292.773 140.745 292.773 140.745L292.858 142.536L293.662 138.403C293.704 138.128 293.746 137.852 293.789 137.531C294.042 136.245 294.761 132.25 296.115 130.414C297.765 128.118 302.206 126.97 302.206 126.97C302.206 126.97 298.653 129.22 298.399 129.266C298.018 129.358 296.157 131.24 295.777 132.159C295.438 132.939 294.169 138.128 294.085 138.495C294 138.908 293.196 142.627 293.196 142.627C293.196 142.627 300.852 131.47 304.405 131.975C304.405 131.975 302.417 132.756 301.529 133.72C300.598 134.684 296.073 139.276 295.819 139.689C295.565 140.148 294.042 141.847 293.704 142.49C293.366 143.087 293.281 143.316 293.281 143.316C293.281 143.316 293.239 143.362 292.858 143.454C292.435 143.5 292.224 142.765 292.224 142.765Z" fill="#725D51"/>
<path d="M292.982 126.234C292.982 126.234 293.363 125.316 293.109 124.765C292.897 124.26 292.432 123.801 292.432 123.801C292.432 123.801 292.178 124.49 292.263 124.949C292.305 125.362 292.517 125.729 292.686 126.005C292.897 126.234 292.982 126.234 292.982 126.234Z" fill="#725D51"/>
<path d="M301.569 127.335C301.569 127.335 302.499 127.38 302.88 126.967C303.261 126.554 303.472 125.957 303.472 125.957C303.472 125.957 302.753 125.957 302.415 126.141C302.076 126.324 301.823 126.646 301.653 126.967C301.526 127.243 301.569 127.335 301.569 127.335Z" fill="#725D51"/>
<path d="M300.26 127.842C300.26 127.842 301.064 127.383 301.233 126.786C301.36 126.235 301.276 125.592 301.276 125.592C301.276 125.592 300.683 125.959 300.472 126.326C300.26 126.694 300.176 127.107 300.218 127.428C300.26 127.75 300.26 127.842 300.26 127.842Z" fill="#725D51"/>
<path d="M299.499 128.345C299.499 128.345 300.218 128.942 300.81 128.85C301.317 128.758 301.825 128.391 301.825 128.391C301.825 128.391 301.233 127.932 300.852 127.932C300.471 127.886 300.091 127.978 299.795 128.116C299.499 128.253 299.499 128.345 299.499 128.345Z" fill="#725D51"/>
<path d="M298.059 129.4C298.059 129.4 298.566 129.905 298.989 129.859C299.412 129.813 299.793 129.584 299.793 129.584C299.793 129.584 299.412 129.216 299.116 129.17C298.82 129.124 298.524 129.17 298.312 129.262C298.101 129.354 298.059 129.4 298.059 129.4Z" fill="#725D51"/>
<path d="M297.045 129.585C297.045 129.585 297.638 129.217 297.722 128.712C297.807 128.299 297.68 127.84 297.68 127.84C297.68 127.84 297.257 128.161 297.088 128.437C296.961 128.712 296.918 129.034 296.918 129.309C296.918 129.585 297.045 129.585 297.045 129.585Z" fill="#725D51"/>
<path d="M295.521 131.379C295.521 131.379 295.944 130.782 295.902 130.323C295.817 129.909 295.606 129.496 295.606 129.496C295.606 129.496 295.31 129.955 295.268 130.277C295.225 130.598 295.31 130.919 295.394 131.149C295.479 131.379 295.521 131.379 295.521 131.379Z" fill="#725D51"/>
<path d="M295.479 132.799C295.479 132.799 296.155 132.983 296.494 132.707C296.832 132.432 297.043 132.064 297.043 132.064C297.043 132.064 296.536 131.972 296.24 132.064C295.944 132.156 295.732 132.34 295.563 132.569C295.478 132.753 295.479 132.799 295.479 132.799Z" fill="#725D51"/>
<path d="M294.633 134.268C294.633 134.268 294.845 133.579 294.633 133.166C294.422 132.799 294.083 132.523 294.083 132.523C294.083 132.523 293.957 133.074 293.999 133.396C294.041 133.717 294.21 133.993 294.38 134.13C294.549 134.314 294.633 134.268 294.633 134.268Z" fill="#725D51"/>
<path d="M294.042 136.379C294.042 136.379 294.296 135.874 294.211 135.507C294.084 135.186 293.873 134.91 293.873 134.91C293.873 134.91 293.704 135.323 293.704 135.553C293.704 135.828 293.788 136.012 293.915 136.196C294 136.425 294.042 136.379 294.042 136.379Z" fill="#725D51"/>
<path d="M293.914 138.678C293.914 138.678 294.422 138.586 294.634 138.219C294.803 137.943 294.845 137.576 294.845 137.576C294.845 137.576 294.464 137.668 294.295 137.852C294.126 138.035 294.041 138.219 293.999 138.449C293.872 138.632 293.914 138.678 293.914 138.678Z" fill="#725D51"/>
<path d="M294.676 136.104C294.676 136.104 295.352 136.058 295.649 135.691C295.902 135.369 296.029 134.91 296.029 134.91C296.029 134.91 295.522 134.956 295.268 135.14C295.014 135.323 294.845 135.553 294.76 135.828C294.633 136.058 294.676 136.104 294.676 136.104Z" fill="#725D51"/>
<path d="M304.109 132.065C304.109 132.065 304.785 132.295 305.124 132.019C305.462 131.79 305.716 131.376 305.716 131.376C305.716 131.376 305.208 131.239 304.912 131.33C304.616 131.422 304.405 131.606 304.236 131.79C304.066 131.973 304.109 132.065 304.109 132.065Z" fill="#725D51"/>
<path d="M303.349 132.112C303.349 132.112 303.772 131.882 303.857 131.561C303.941 131.239 303.857 130.918 303.857 130.918C303.857 130.918 303.518 131.102 303.434 131.331C303.307 131.515 303.307 131.744 303.307 131.928C303.307 132.112 303.349 132.112 303.349 132.112Z" fill="#725D51"/>
<path d="M302.67 132.754C302.67 132.754 302.966 133.167 303.305 133.167C303.601 133.167 303.855 133.03 303.855 133.03C303.855 133.03 303.601 132.754 303.389 132.662C303.178 132.571 303.009 132.616 302.84 132.662C302.67 132.708 302.67 132.754 302.67 132.754Z" fill="#725D51"/>
<path d="M301.994 132.846C301.994 132.846 302.374 132.525 302.417 132.203C302.459 131.882 302.374 131.561 302.374 131.561C302.374 131.561 302.078 131.79 301.994 132.02C301.909 132.249 301.909 132.433 301.909 132.617C301.951 132.8 301.994 132.846 301.994 132.846Z" fill="#725D51"/>
<path d="M301.358 133.762C301.358 133.762 301.739 134.13 302.035 134.084C302.331 134.038 302.585 133.9 302.585 133.9C302.585 133.9 302.288 133.624 302.077 133.624C301.865 133.579 301.654 133.624 301.527 133.67C301.358 133.716 301.358 133.762 301.358 133.762Z" fill="#725D51"/>
<path d="M300.598 133.947C300.598 133.947 300.979 133.625 300.979 133.258C300.979 132.937 300.894 132.615 300.894 132.615C300.894 132.615 300.598 132.891 300.556 133.12C300.471 133.35 300.471 133.534 300.514 133.717C300.556 133.901 300.598 133.947 300.598 133.947Z" fill="#725D51"/>
<path d="M300.217 135.05C300.217 135.05 300.64 135.325 300.936 135.234C301.19 135.142 301.443 134.912 301.443 134.912C301.443 134.912 301.105 134.729 300.894 134.729C300.682 134.729 300.513 134.82 300.344 134.912C300.217 135.004 300.217 135.05 300.217 135.05Z" fill="#725D51"/>
<path d="M299.118 135.368C299.118 135.368 299.456 135 299.456 134.679C299.456 134.358 299.287 134.082 299.287 134.082C299.287 134.082 299.033 134.358 298.991 134.587C298.948 134.817 298.948 135.046 299.033 135.184C299.075 135.368 299.118 135.368 299.118 135.368Z" fill="#725D51"/>
<path d="M298.015 136.61C298.015 136.61 298.396 136.105 298.354 135.692C298.312 135.324 298.1 134.957 298.1 134.957C298.1 134.957 297.846 135.37 297.804 135.646C297.762 135.921 297.804 136.197 297.931 136.38C297.973 136.61 298.015 136.61 298.015 136.61Z" fill="#725D51"/>
<path d="M297.637 137.572C297.637 137.572 298.187 138.032 298.567 137.894C298.948 137.802 299.286 137.526 299.286 137.526C299.286 137.526 298.863 137.205 298.567 137.205C298.271 137.205 298.017 137.251 297.806 137.389C297.637 137.527 297.637 137.572 297.637 137.572Z" fill="#725D51"/>
<path d="M296.581 138.354C296.581 138.354 297.004 137.803 296.962 137.344C296.92 136.931 296.708 136.518 296.708 136.518C296.708 136.518 296.412 136.931 296.328 137.252C296.243 137.574 296.328 137.849 296.412 138.079C296.497 138.308 296.581 138.354 296.581 138.354Z" fill="#725D51"/>
<path d="M295.775 139.685C295.775 139.685 296.452 140.006 296.917 139.777C297.298 139.547 297.636 139.18 297.636 139.18C297.636 139.18 297.086 138.95 296.748 138.996C296.409 139.042 296.156 139.226 295.944 139.41C295.733 139.593 295.775 139.685 295.775 139.685Z" fill="#725D51"/>
<path d="M294.803 140.468C294.803 140.468 295.396 139.825 295.353 139.274C295.311 138.769 295.1 138.264 295.1 138.264C295.1 138.264 294.677 138.769 294.592 139.136C294.507 139.503 294.55 139.871 294.634 140.192C294.719 140.468 294.803 140.468 294.803 140.468Z" fill="#725D51"/>
<path d="M298.78 136.427C298.78 136.427 299.203 136.657 299.499 136.565C299.753 136.473 299.964 136.198 299.964 136.198C299.964 136.198 299.626 136.014 299.414 136.06C299.203 136.06 299.034 136.152 298.907 136.29C298.78 136.382 298.78 136.427 298.78 136.427Z" fill="#725D51"/>
<path d="M296.621 130.871C296.621 130.871 297.256 131.146 297.636 130.917C297.975 130.733 298.271 130.366 298.271 130.366C298.271 130.366 297.763 130.182 297.467 130.228C297.171 130.274 296.917 130.458 296.748 130.641C296.621 130.825 296.621 130.871 296.621 130.871Z" fill="#725D51"/>
<path d="M298.692 128.712C298.692 128.712 299.453 128.161 299.538 127.518C299.623 126.921 299.453 126.324 299.453 126.324C299.453 126.324 298.904 126.783 298.734 127.197C298.565 127.61 298.565 127.977 298.607 128.345C298.65 128.712 298.692 128.712 298.692 128.712Z" fill="#725D51"/>
<path d="M292.561 129.128C292.561 129.128 292.772 128.439 292.603 128.026C292.434 127.658 292.096 127.383 292.096 127.383C292.096 127.383 291.926 127.888 292.011 128.209C292.053 128.531 292.222 128.76 292.392 128.944C292.476 129.174 292.561 129.128 292.561 129.128Z" fill="#725D51"/>
<path d="M293.282 127.287C293.282 127.287 293.662 127.104 293.747 126.828C293.831 126.599 293.789 126.277 293.789 126.277C293.789 126.277 293.493 126.415 293.408 126.599C293.324 126.782 293.282 126.92 293.239 127.104C293.239 127.287 293.282 127.287 293.282 127.287Z" fill="#725D51"/>
<path d="M292.097 131.789C292.097 131.789 292.224 130.962 291.886 130.549C291.59 130.182 291.167 129.906 291.167 129.906C291.167 129.906 291.082 130.549 291.251 130.916C291.42 131.284 291.59 131.513 291.843 131.697C292.013 131.835 292.097 131.789 292.097 131.789Z" fill="#725D51"/>
<path d="M286.638 128.391C286.638 128.391 286.68 127.886 286.511 127.656C286.342 127.427 286.046 127.289 286.046 127.289C286.046 127.289 286.003 127.656 286.088 127.886C286.173 128.07 286.3 128.253 286.426 128.345C286.596 128.437 286.638 128.391 286.638 128.391Z" fill="#725D51"/>
<path d="M287.063 128.941C287.063 128.941 287.401 128.619 287.443 128.298C287.443 128.023 287.359 127.701 287.359 127.701C287.359 127.701 287.105 127.931 287.02 128.16C286.936 128.344 286.936 128.574 286.978 128.711C287.02 128.941 287.063 128.941 287.063 128.941Z" fill="#725D51"/>
<path d="M287.4 129.494C287.4 129.494 287.696 129.357 287.781 129.173C287.866 128.989 287.823 128.76 287.823 128.76C287.823 128.76 287.612 128.852 287.527 128.989C287.443 129.127 287.4 129.265 287.4 129.357C287.4 129.449 287.4 129.494 287.4 129.494Z" fill="#725D51"/>
<path d="M287.993 130.228C287.993 130.228 288.246 129.998 288.204 129.769C288.204 129.585 288.119 129.355 288.119 129.355C288.119 129.355 287.95 129.539 287.908 129.677C287.866 129.815 287.866 129.952 287.908 130.09C287.95 130.228 287.993 130.228 287.993 130.228Z" fill="#725D51"/>
<path d="M288.331 130.825C288.331 130.825 288.627 130.688 288.67 130.458C288.712 130.274 288.67 130.045 288.67 130.045C288.67 130.045 288.458 130.183 288.374 130.32C288.289 130.458 288.289 130.596 288.289 130.688C288.289 130.825 288.331 130.825 288.331 130.825Z" fill="#725D51"/>
<path d="M288.753 131.513C288.753 131.513 288.922 131.329 288.922 131.146C288.922 131.008 288.838 130.824 288.838 130.824C288.838 130.824 288.711 130.962 288.669 131.1C288.626 131.237 288.669 131.329 288.669 131.421C288.711 131.513 288.753 131.513 288.753 131.513Z" fill="#725D51"/>
<path d="M289.05 132.109C289.05 132.109 289.346 131.925 289.388 131.695C289.43 131.466 289.388 131.236 289.388 131.236C289.388 131.236 289.177 131.374 289.092 131.512C289.007 131.65 289.007 131.787 289.007 131.925C289.007 132.109 289.05 132.109 289.05 132.109Z" fill="#725D51"/>
<path d="M289.262 132.797C289.262 132.797 289.6 132.797 289.727 132.613C289.854 132.43 289.938 132.246 289.938 132.246C289.938 132.246 289.685 132.246 289.558 132.338C289.431 132.43 289.346 132.522 289.304 132.659C289.262 132.797 289.262 132.797 289.262 132.797Z" fill="#725D51"/>
<path d="M289.813 133.806C289.813 133.806 290.11 133.622 290.194 133.393C290.236 133.163 290.194 132.934 290.194 132.934C290.194 132.934 289.983 133.071 289.898 133.209C289.813 133.347 289.771 133.485 289.813 133.622C289.813 133.806 289.813 133.806 289.813 133.806Z" fill="#725D51"/>
<path d="M290.235 135.003C290.235 135.003 290.7 134.774 290.785 134.407C290.87 134.085 290.827 133.764 290.827 133.764C290.827 133.764 290.489 133.993 290.362 134.177C290.235 134.407 290.193 134.59 290.193 134.82C290.193 134.957 290.235 135.003 290.235 135.003Z" fill="#725D51"/>
<path d="M290.825 136.474C290.825 136.474 291.29 136.245 291.374 135.877C291.459 135.556 291.417 135.234 291.417 135.234C291.417 135.234 291.078 135.464 290.951 135.648C290.825 135.877 290.782 136.061 290.782 136.29C290.782 136.474 290.825 136.474 290.825 136.474Z" fill="#725D51"/>
<path d="M287.105 129.082C287.105 129.082 286.894 128.807 286.682 128.807C286.471 128.807 286.302 128.898 286.302 128.898C286.302 128.898 286.471 129.082 286.598 129.128C286.725 129.174 286.894 129.174 286.978 129.128C287.105 129.128 287.105 129.082 287.105 129.082Z" fill="#725D51"/>
<path d="M287.697 129.951C287.697 129.951 287.486 129.676 287.274 129.676C287.063 129.676 286.894 129.768 286.894 129.768C286.894 129.768 287.063 129.951 287.19 129.997C287.317 130.043 287.486 130.043 287.57 129.997C287.697 129.997 287.697 129.951 287.697 129.951Z" fill="#725D51"/>
<path d="M288.162 130.641C288.162 130.641 287.95 130.365 287.739 130.365C287.527 130.365 287.358 130.457 287.358 130.457C287.358 130.457 287.527 130.641 287.654 130.687C287.781 130.733 287.95 130.733 288.035 130.687C288.119 130.687 288.162 130.641 288.162 130.641Z" fill="#725D51"/>
<path d="M288.838 131.881C288.838 131.881 288.626 131.605 288.415 131.605C288.203 131.605 288.034 131.697 288.034 131.697C288.034 131.697 288.203 131.881 288.33 131.927C288.457 131.973 288.626 131.973 288.711 131.927C288.838 131.927 288.838 131.881 288.838 131.881Z" fill="#725D51"/>
<path d="M289.642 133.625C289.642 133.625 289.43 133.35 289.219 133.35C289.007 133.35 288.838 133.441 288.838 133.441C288.838 133.441 289.007 133.625 289.134 133.671C289.261 133.717 289.43 133.717 289.515 133.671C289.642 133.671 289.642 133.625 289.642 133.625Z" fill="#725D51"/>
<path d="M290.067 134.729C290.067 134.729 289.728 134.27 289.39 134.27C289.094 134.27 288.755 134.407 288.755 134.407C288.755 134.407 289.051 134.729 289.263 134.821C289.474 134.912 289.686 134.866 289.897 134.821C290.067 134.775 290.067 134.729 290.067 134.729Z" fill="#725D51"/>
<path d="M290.615 136.153C290.615 136.153 290.277 135.693 289.939 135.693C289.643 135.693 289.304 135.831 289.304 135.831C289.304 135.831 289.6 136.153 289.812 136.244C290.023 136.336 290.235 136.29 290.446 136.244C290.573 136.244 290.615 136.153 290.615 136.153Z" fill="#725D51"/>
<path d="M291.08 137.666C291.08 137.666 290.953 137.115 290.615 136.932C290.319 136.794 289.98 136.748 289.98 136.748C289.98 136.748 290.107 137.161 290.277 137.345C290.446 137.529 290.657 137.62 290.826 137.62C291.08 137.712 291.08 137.666 291.08 137.666Z" fill="#725D51"/>
<path d="M291.505 139.133C291.505 139.133 291.378 138.582 291.039 138.399C290.743 138.261 290.405 138.215 290.405 138.215C290.405 138.215 290.532 138.628 290.701 138.812C290.87 138.995 291.082 139.087 291.251 139.087C291.462 139.179 291.505 139.133 291.505 139.133Z" fill="#725D51"/>
<path d="M291.714 140.191C291.714 140.191 291.503 139.778 291.249 139.686C290.995 139.641 290.699 139.686 290.699 139.686C290.699 139.686 290.868 140.008 291.038 140.1C291.207 140.191 291.376 140.237 291.545 140.237C291.672 140.237 291.714 140.191 291.714 140.191Z" fill="#725D51"/>
<path d="M291.418 138.494C291.418 138.494 291.757 138.31 291.799 138.034C291.841 137.805 291.799 137.529 291.799 137.529C291.799 137.529 291.545 137.713 291.461 137.851C291.376 137.988 291.376 138.172 291.376 138.31C291.376 138.448 291.418 138.494 291.418 138.494Z" fill="#725D51"/>
<path d="M291.717 139.504C291.717 139.504 292.013 139.366 292.055 139.183C292.098 138.999 292.098 138.77 292.098 138.77C292.098 138.77 291.886 138.861 291.802 138.999C291.717 139.137 291.675 139.229 291.675 139.366C291.675 139.458 291.717 139.504 291.717 139.504Z" fill="#725D51"/>
<path d="M288.414 131.146C288.414 131.146 288.203 131.008 288.076 131.008C287.949 131.054 287.822 131.146 287.822 131.146C287.822 131.146 287.991 131.237 288.076 131.283C288.161 131.329 288.288 131.283 288.33 131.237C288.414 131.191 288.414 131.146 288.414 131.146Z" fill="#725D51"/>
<path d="M289.178 132.569C289.178 132.569 288.966 132.432 288.839 132.432C288.712 132.478 288.585 132.569 288.585 132.569C288.585 132.569 288.755 132.661 288.839 132.707C288.924 132.753 289.051 132.707 289.093 132.661C289.178 132.615 289.178 132.569 289.178 132.569Z" fill="#725D51"/>
<path d="M292.053 133.946C292.053 133.946 292.138 133.257 291.884 132.89C291.63 132.568 291.249 132.385 291.249 132.385C291.249 132.385 291.207 132.936 291.292 133.211C291.419 133.487 291.588 133.716 291.757 133.854C292.011 133.992 292.053 133.946 292.053 133.946Z" fill="#725D51"/>
<path d="M292.139 135.417C292.139 135.417 292.139 134.912 291.928 134.729C291.716 134.545 291.462 134.453 291.462 134.453C291.462 134.453 291.462 134.82 291.589 135.004C291.716 135.188 291.843 135.326 291.97 135.371C292.139 135.463 292.139 135.417 292.139 135.417Z" fill="#725D51"/>
<path d="M292.474 130.32C292.474 130.32 293.151 130.228 293.405 129.815C293.616 129.447 293.701 128.988 293.701 128.988C293.701 128.988 293.193 129.08 292.94 129.31C292.728 129.539 292.559 129.769 292.517 130.044C292.432 130.274 292.474 130.32 292.474 130.32Z" fill="#725D51"/>
<path d="M292.307 132.845C292.307 132.845 293.153 132.708 293.449 132.203C293.703 131.743 293.83 131.146 293.83 131.146C293.83 131.146 293.195 131.284 292.899 131.56C292.603 131.835 292.434 132.157 292.349 132.478C292.265 132.799 292.307 132.845 292.307 132.845Z" fill="#725D51"/>
<path d="M292.308 136.703C292.308 136.703 292.942 136.611 293.154 136.243C293.365 135.922 293.407 135.463 293.407 135.463C293.407 135.463 292.942 135.555 292.731 135.784C292.519 135.968 292.392 136.243 292.308 136.473C292.223 136.703 292.308 136.703 292.308 136.703Z" fill="#725D51"/>
<path d="M292.392 134.542C292.392 134.542 293.069 134.451 293.322 134.037C293.534 133.67 293.619 133.211 293.619 133.211C293.619 133.211 293.111 133.303 292.857 133.532C292.646 133.762 292.477 134.037 292.434 134.267C292.35 134.497 292.392 134.542 292.392 134.542Z" fill="#725D51"/>
<path d="M264.928 139.63C264.928 139.63 251.774 145.691 248.348 138.528C244.922 131.366 246.571 109.602 259.345 112.173C272.119 114.744 280.07 126.728 273.303 133.661C270.765 136.049 267.973 138.069 264.928 139.63Z" fill="#B3DD68"/>
<path d="M261.711 142.25C261.923 142.755 262.05 143.26 262.176 143.811C262.98 147.439 265.814 161.902 262.726 171.177C259.173 181.829 259.173 181.829 259.173 181.829L265.645 181.6C265.645 181.6 264.926 180.59 265.01 177.651C265.053 174.85 266.575 165.07 266.152 160.616C265.772 156.346 264.207 146.566 263.318 143.674C262.473 141.01 262.219 139.633 262.43 139.312C262.557 139.082 262.007 140.322 262.007 140.322L260.611 139.312L261.711 142.25Z" fill="#725D51"/>
<path d="M262.22 140C262.22 140 263.108 136.189 264.758 132.148C266.407 128.061 268.649 125.903 268.649 125.903H268.48C268.48 125.903 266.83 127.924 266.407 128.475C265.984 129.026 263.742 133.525 263.531 134.352C263.319 135.178 261.924 139.862 261.924 139.862C261.924 139.862 263.489 127.51 262.685 126.363C261.839 125.215 262.347 123.057 262.347 123.057L262.22 123.103C262.22 123.103 261.67 124.48 261.881 125.261C262.093 126.087 262.347 126.959 262.389 127.419C262.431 127.832 262.431 129.531 262.389 130.357C262.389 131 261.754 137.979 261.754 137.979L261.585 139.77L260.951 135.592C260.909 135.27 260.909 135.041 260.866 134.673C260.697 133.388 260.147 129.347 258.878 127.465C257.313 125.077 252.957 123.699 252.957 123.699C252.957 123.699 256.425 126.133 256.636 126.179C257.017 126.271 258.794 128.291 259.132 129.209C259.428 129.99 260.486 135.27 260.528 135.638C260.612 136.051 261.205 139.816 261.205 139.816C261.205 139.816 254.056 128.291 250.503 128.567C250.503 128.567 252.449 129.439 253.295 130.449C254.141 131.459 258.498 136.28 258.709 136.74C258.921 137.199 260.401 138.989 260.697 139.632C260.993 140.229 261.078 140.505 261.078 140.505C261.078 140.505 261.12 140.551 261.501 140.688C261.924 140.734 262.22 140 262.22 140Z" fill="#725D51"/>
<path d="M262.178 123.467C262.178 123.467 261.84 122.548 262.136 121.952C262.389 121.446 262.855 121.033 262.855 121.033C262.855 121.033 263.066 121.768 262.982 122.181C262.897 122.594 262.728 122.962 262.474 123.191C262.22 123.421 262.178 123.467 262.178 123.467Z" fill="#725D51"/>
<path d="M253.55 124.112C253.55 124.112 252.619 124.112 252.239 123.653C251.9 123.239 251.689 122.643 251.689 122.643C251.689 122.643 252.408 122.688 252.746 122.918C253.085 123.148 253.339 123.469 253.465 123.79C253.635 124.02 253.55 124.112 253.55 124.112Z" fill="#725D51"/>
<path d="M254.862 124.706C254.862 124.706 254.059 124.201 253.932 123.604C253.847 123.053 253.932 122.41 253.932 122.41C253.932 122.41 254.524 122.823 254.693 123.191C254.862 123.558 254.947 123.971 254.905 124.339C254.905 124.66 254.862 124.706 254.862 124.706Z" fill="#725D51"/>
<path d="M255.622 125.21C255.622 125.21 254.861 125.807 254.311 125.623C253.804 125.486 253.338 125.118 253.338 125.118C253.338 125.118 253.931 124.705 254.353 124.705C254.734 124.705 255.115 124.797 255.369 124.981C255.622 125.164 255.622 125.21 255.622 125.21Z" fill="#725D51"/>
<path d="M256.976 126.362C256.976 126.362 256.469 126.867 256.004 126.775C255.623 126.729 255.242 126.454 255.242 126.454C255.242 126.454 255.665 126.087 255.961 126.041C256.257 125.995 256.553 126.041 256.765 126.178C256.976 126.27 256.976 126.362 256.976 126.362Z" fill="#725D51"/>
<path d="M257.994 126.589C257.994 126.589 257.402 126.175 257.359 125.716C257.317 125.303 257.444 124.844 257.444 124.844C257.444 124.844 257.867 125.165 257.994 125.487C258.121 125.808 258.121 126.083 258.121 126.359C258.078 126.589 257.994 126.589 257.994 126.589Z" fill="#725D51"/>
<path d="M259.429 128.472C259.429 128.472 259.006 127.875 259.133 127.416C259.217 127.003 259.471 126.59 259.471 126.59C259.471 126.59 259.767 127.049 259.767 127.416C259.767 127.738 259.725 128.059 259.598 128.243C259.471 128.472 259.429 128.472 259.429 128.472Z" fill="#725D51"/>
<path d="M259.385 129.896C259.385 129.896 258.709 130.033 258.37 129.758C258.074 129.482 257.863 129.069 257.863 129.069C257.863 129.069 258.37 128.977 258.666 129.115C258.963 129.253 259.174 129.436 259.301 129.666C259.428 129.85 259.385 129.896 259.385 129.896Z" fill="#725D51"/>
<path d="M260.191 131.411C260.191 131.411 259.98 130.676 260.233 130.309C260.445 129.942 260.825 129.666 260.825 129.666C260.825 129.666 260.952 130.217 260.868 130.538C260.783 130.86 260.614 131.089 260.445 131.273C260.276 131.457 260.191 131.411 260.191 131.411Z" fill="#725D51"/>
<path d="M260.699 133.569C260.699 133.569 260.445 133.064 260.572 132.697C260.699 132.375 260.952 132.1 260.952 132.1C260.952 132.1 261.122 132.513 261.079 132.742C261.037 133.018 260.952 133.202 260.868 133.385C260.741 133.569 260.699 133.569 260.699 133.569Z" fill="#725D51"/>
<path d="M260.7 135.82C260.7 135.82 260.192 135.682 260.023 135.361C259.896 135.039 259.854 134.672 259.854 134.672C259.854 134.672 260.235 134.81 260.404 134.993C260.573 135.177 260.658 135.407 260.7 135.59C260.742 135.82 260.7 135.82 260.7 135.82Z" fill="#725D51"/>
<path d="M260.02 133.249C260.02 133.249 259.344 133.203 259.09 132.789C258.836 132.422 258.751 131.963 258.751 131.963C258.751 131.963 259.259 132.055 259.513 132.238C259.767 132.422 259.894 132.698 259.978 132.927C260.063 133.157 260.02 133.249 260.02 133.249Z" fill="#725D51"/>
<path d="M250.843 128.656C250.843 128.656 250.167 128.84 249.828 128.564C249.49 128.289 249.278 127.922 249.278 127.922C249.278 127.922 249.786 127.83 250.082 127.922C250.378 128.014 250.59 128.197 250.716 128.427C250.843 128.61 250.843 128.656 250.843 128.656Z" fill="#725D51"/>
<path d="M251.606 128.794C251.606 128.794 251.183 128.519 251.14 128.198C251.098 127.876 251.14 127.555 251.14 127.555C251.14 127.555 251.436 127.784 251.563 127.968C251.648 128.152 251.69 128.381 251.69 128.565C251.648 128.749 251.606 128.794 251.606 128.794Z" fill="#725D51"/>
<path d="M252.239 129.437C252.239 129.437 251.901 129.804 251.605 129.804C251.309 129.804 251.055 129.666 251.055 129.666C251.055 129.666 251.309 129.391 251.52 129.345C251.732 129.299 251.943 129.299 252.07 129.345C252.197 129.391 252.239 129.437 252.239 129.437Z" fill="#725D51"/>
<path d="M252.916 129.573C252.916 129.573 252.535 129.251 252.493 128.93C252.493 128.609 252.577 128.287 252.577 128.287C252.577 128.287 252.873 128.563 252.916 128.746C253 128.976 253 129.159 252.958 129.343C252.958 129.573 252.916 129.573 252.916 129.573Z" fill="#725D51"/>
<path d="M253.507 130.541C253.507 130.541 253.126 130.862 252.83 130.816C252.534 130.77 252.28 130.586 252.28 130.586C252.28 130.586 252.576 130.357 252.788 130.311C252.999 130.265 253.211 130.311 253.338 130.403C253.507 130.495 253.507 130.541 253.507 130.541Z" fill="#725D51"/>
<path d="M254.269 130.721C254.269 130.721 253.889 130.354 253.931 130.032C253.931 129.711 254.058 129.436 254.058 129.436C254.058 129.436 254.312 129.711 254.396 129.941C254.439 130.17 254.439 130.4 254.396 130.538C254.354 130.675 254.269 130.721 254.269 130.721Z" fill="#725D51"/>
<path d="M254.565 131.869C254.565 131.869 254.142 132.145 253.846 132.007C253.592 131.915 253.338 131.686 253.338 131.686C253.338 131.686 253.677 131.502 253.888 131.502C254.1 131.502 254.269 131.594 254.438 131.686C254.565 131.823 254.565 131.869 254.565 131.869Z" fill="#725D51"/>
<path d="M255.665 132.283C255.665 132.283 255.327 131.915 255.369 131.548C255.411 131.227 255.538 130.951 255.538 130.951C255.538 130.951 255.792 131.273 255.792 131.502C255.834 131.732 255.792 131.961 255.75 132.099C255.707 132.237 255.665 132.283 255.665 132.283Z" fill="#725D51"/>
<path d="M256.681 133.57C256.681 133.57 256.343 133.065 256.427 132.652C256.512 132.284 256.723 131.963 256.723 131.963C256.723 131.963 256.977 132.376 256.977 132.652C256.977 132.927 256.935 133.203 256.85 133.386C256.723 133.57 256.681 133.57 256.681 133.57Z" fill="#725D51"/>
<path d="M257.017 134.533C257.017 134.533 256.467 134.947 256.044 134.809C255.664 134.717 255.325 134.442 255.325 134.442C255.325 134.442 255.748 134.166 256.044 134.166C256.34 134.166 256.594 134.258 256.806 134.35C257.017 134.442 257.017 134.533 257.017 134.533Z" fill="#725D51"/>
<path d="M258.075 135.359C258.075 135.359 257.652 134.808 257.737 134.349C257.821 133.936 258.033 133.568 258.033 133.568C258.033 133.568 258.329 134.028 258.371 134.349C258.414 134.67 258.329 134.946 258.244 135.175C258.117 135.359 258.075 135.359 258.075 135.359Z" fill="#725D51"/>
<path d="M258.795 136.738C258.795 136.738 258.076 137.014 257.653 136.784C257.273 136.554 256.977 136.141 256.977 136.141C256.977 136.141 257.526 135.958 257.865 136.003C258.203 136.049 258.457 136.233 258.626 136.463C258.795 136.692 258.795 136.738 258.795 136.738Z" fill="#725D51"/>
<path d="M259.726 137.611C259.726 137.611 259.176 136.922 259.261 136.371C259.303 135.866 259.599 135.361 259.599 135.361C259.599 135.361 259.98 135.912 260.064 136.28C260.107 136.647 260.064 137.014 259.938 137.29C259.811 137.565 259.726 137.611 259.726 137.611Z" fill="#725D51"/>
<path d="M255.918 133.339C255.918 133.339 255.495 133.569 255.199 133.431C254.945 133.293 254.733 133.064 254.733 133.064C254.733 133.064 255.072 132.926 255.283 132.926C255.495 132.926 255.664 133.064 255.791 133.155C255.96 133.293 255.918 133.339 255.918 133.339Z" fill="#725D51"/>
<path d="M258.33 127.923C258.33 127.923 257.695 128.152 257.315 127.923C256.976 127.693 256.723 127.326 256.723 127.326C256.723 127.326 257.23 127.188 257.526 127.234C257.822 127.28 258.034 127.464 258.203 127.647C258.372 127.831 258.33 127.923 258.33 127.923Z" fill="#725D51"/>
<path d="M256.384 125.627C256.384 125.627 255.665 125.03 255.623 124.387C255.581 123.79 255.75 123.193 255.75 123.193C255.75 123.193 256.3 123.698 256.427 124.066C256.554 124.479 256.596 124.892 256.511 125.214C256.469 125.581 256.384 125.627 256.384 125.627Z" fill="#725D51"/>
<path d="M262.517 126.407C262.517 126.407 262.305 125.718 262.559 125.305C262.77 124.938 263.109 124.662 263.109 124.662C263.109 124.662 263.236 125.213 263.151 125.489C263.067 125.81 262.94 126.04 262.77 126.223C262.559 126.407 262.517 126.407 262.517 126.407Z" fill="#725D51"/>
<path d="M261.883 124.524C261.883 124.524 261.502 124.34 261.46 124.065C261.375 123.789 261.417 123.514 261.417 123.514C261.417 123.514 261.713 123.697 261.798 123.835C261.883 123.973 261.925 124.202 261.925 124.34C261.925 124.478 261.883 124.524 261.883 124.524Z" fill="#725D51"/>
<path d="M262.855 129.071C262.855 129.071 262.771 128.199 263.109 127.831C263.405 127.464 263.87 127.234 263.87 127.234C263.87 127.234 263.913 127.877 263.743 128.199C263.574 128.52 263.363 128.795 263.151 128.933C262.897 129.117 262.855 129.071 262.855 129.071Z" fill="#725D51"/>
<path d="M268.439 125.992C268.439 125.992 268.396 125.487 268.608 125.257C268.819 125.027 269.073 124.936 269.073 124.936C269.073 124.936 269.073 125.303 268.988 125.532C268.904 125.716 268.735 125.854 268.608 125.946C268.481 125.992 268.439 125.992 268.439 125.992Z" fill="#725D51"/>
<path d="M268.014 126.498C268.014 126.498 267.676 126.176 267.676 125.855C267.676 125.579 267.803 125.258 267.803 125.258C267.803 125.258 268.056 125.533 268.099 125.717C268.141 125.947 268.141 126.13 268.099 126.268C268.056 126.406 268.014 126.498 268.014 126.498Z" fill="#725D51"/>
<path d="M267.636 127.002C267.636 127.002 267.34 126.864 267.298 126.681C267.255 126.497 267.255 126.268 267.255 126.268C267.255 126.268 267.467 126.359 267.551 126.497C267.636 126.635 267.678 126.773 267.678 126.864C267.678 126.956 267.636 127.002 267.636 127.002Z" fill="#725D51"/>
<path d="M267 127.738C267 127.738 266.789 127.508 266.789 127.278C266.789 127.095 266.874 126.865 266.874 126.865C266.874 126.865 267.042 127.049 267.085 127.187C267.127 127.324 267.085 127.462 267.042 127.6C267 127.738 267 127.738 267 127.738Z" fill="#725D51"/>
<path d="M266.662 128.335C266.662 128.335 266.366 128.152 266.324 127.968C266.282 127.784 266.324 127.555 266.324 127.555C266.324 127.555 266.535 127.692 266.577 127.83C266.662 127.968 266.662 128.106 266.662 128.243C266.662 128.289 266.662 128.335 266.662 128.335Z" fill="#725D51"/>
<path d="M266.197 128.976C266.197 128.976 266.028 128.792 266.028 128.609C266.028 128.471 266.112 128.287 266.112 128.287C266.112 128.287 266.239 128.425 266.239 128.563C266.239 128.7 266.239 128.792 266.197 128.884C266.197 128.976 266.197 128.976 266.197 128.976Z" fill="#725D51"/>
<path d="M265.857 129.576C265.857 129.576 265.561 129.392 265.519 129.162C265.476 128.933 265.561 128.703 265.561 128.703C265.561 128.703 265.772 128.887 265.857 129.025C265.942 129.162 265.942 129.3 265.942 129.438C265.942 129.576 265.857 129.576 265.857 129.576Z" fill="#725D51"/>
<path d="M265.607 130.218C265.607 130.218 265.268 130.218 265.141 130.034C265.014 129.851 264.972 129.621 264.972 129.621C264.972 129.621 265.226 129.667 265.353 129.759C265.48 129.851 265.564 129.988 265.607 130.08C265.607 130.218 265.607 130.218 265.607 130.218Z" fill="#725D51"/>
<path d="M265.012 131.228C265.012 131.228 264.716 131.044 264.674 130.815C264.632 130.585 264.674 130.355 264.674 130.355C264.674 130.355 264.886 130.493 264.97 130.631C265.055 130.769 265.055 130.906 265.055 131.044C265.055 131.182 265.012 131.228 265.012 131.228Z" fill="#725D51"/>
<path d="M264.547 132.376C264.547 132.376 264.082 132.101 264.04 131.78C263.997 131.458 264.04 131.137 264.04 131.137C264.04 131.137 264.378 131.366 264.463 131.596C264.59 131.825 264.59 132.055 264.59 132.239C264.59 132.422 264.547 132.376 264.547 132.376Z" fill="#725D51"/>
<path d="M263.914 133.845C263.914 133.845 263.448 133.57 263.406 133.248C263.364 132.927 263.406 132.605 263.406 132.605C263.406 132.605 263.744 132.835 263.829 133.065C263.956 133.294 263.956 133.524 263.956 133.707C263.956 133.891 263.914 133.845 263.914 133.845Z" fill="#725D51"/>
<path d="M267.932 126.637C267.932 126.637 268.144 126.362 268.397 126.408C268.609 126.408 268.778 126.499 268.778 126.499C268.778 126.499 268.609 126.683 268.44 126.729C268.271 126.775 268.144 126.775 268.059 126.729C267.932 126.683 267.932 126.637 267.932 126.637Z" fill="#725D51"/>
<path d="M267.298 127.461C267.298 127.461 267.509 127.186 267.763 127.232C267.975 127.232 268.144 127.324 268.144 127.324C268.144 127.324 267.975 127.507 267.805 127.553C267.636 127.599 267.509 127.599 267.425 127.553C267.298 127.507 267.298 127.461 267.298 127.461Z" fill="#725D51"/>
<path d="M266.832 128.151C266.832 128.151 267.043 127.875 267.297 127.921C267.508 127.921 267.677 128.013 267.677 128.013C267.677 128.013 267.508 128.197 267.339 128.243C267.17 128.288 267.043 128.288 266.958 128.243C266.832 128.197 266.832 128.151 266.832 128.151Z" fill="#725D51"/>
<path d="M266.071 129.346C266.071 129.346 266.282 129.071 266.536 129.116C266.748 129.116 266.917 129.208 266.917 129.208C266.917 129.208 266.748 129.392 266.578 129.438C266.451 129.484 266.282 129.484 266.198 129.438C266.113 129.392 266.071 129.346 266.071 129.346Z" fill="#725D51"/>
<path d="M265.183 131.043C265.183 131.043 265.394 130.768 265.648 130.814C265.859 130.814 266.029 130.906 266.029 130.906C266.029 130.906 265.859 131.089 265.69 131.135C265.563 131.181 265.394 131.181 265.31 131.135C265.183 131.089 265.183 131.043 265.183 131.043Z" fill="#725D51"/>
<path d="M264.716 132.101C264.716 132.101 265.097 131.688 265.435 131.688C265.731 131.688 266.069 131.871 266.069 131.871C266.069 131.871 265.773 132.193 265.562 132.238C265.35 132.284 265.139 132.284 264.927 132.193C264.716 132.147 264.716 132.101 264.716 132.101Z" fill="#725D51"/>
<path d="M264.124 133.523C264.124 133.523 264.505 133.109 264.843 133.109C265.139 133.109 265.478 133.293 265.478 133.293C265.478 133.293 265.181 133.614 264.97 133.66C264.758 133.706 264.547 133.706 264.336 133.614C264.124 133.523 264.124 133.523 264.124 133.523Z" fill="#725D51"/>
<path d="M263.575 134.992C263.575 134.992 263.744 134.442 264.04 134.304C264.337 134.166 264.675 134.166 264.675 134.166C264.675 134.166 264.506 134.579 264.337 134.717C264.167 134.855 263.956 134.947 263.787 134.992C263.617 135.038 263.575 134.992 263.575 134.992Z" fill="#725D51"/>
<path d="M263.066 136.461C263.066 136.461 263.236 135.91 263.532 135.773C263.828 135.635 264.166 135.635 264.166 135.635C264.166 135.635 263.997 136.048 263.828 136.186C263.659 136.324 263.447 136.415 263.278 136.461C263.109 136.461 263.066 136.461 263.066 136.461Z" fill="#725D51"/>
<path d="M262.814 137.519C262.814 137.519 263.025 137.105 263.322 137.059C263.575 137.014 263.871 137.059 263.871 137.059C263.871 137.059 263.702 137.381 263.491 137.473C263.279 137.565 263.152 137.61 262.983 137.565C262.856 137.565 262.814 137.519 262.814 137.519Z" fill="#725D51"/>
<path d="M263.194 135.821C263.194 135.821 262.856 135.591 262.856 135.316C262.813 135.086 262.898 134.811 262.898 134.811C262.898 134.811 263.152 134.994 263.194 135.178C263.279 135.362 263.279 135.499 263.279 135.637C263.236 135.775 263.194 135.821 263.194 135.821Z" fill="#725D51"/>
<path d="M262.855 136.784C262.855 136.784 262.559 136.647 262.517 136.417C262.475 136.233 262.475 136.004 262.475 136.004C262.475 136.004 262.686 136.142 262.771 136.233C262.855 136.371 262.855 136.509 262.855 136.601C262.898 136.784 262.855 136.784 262.855 136.784Z" fill="#725D51"/>
<path d="M266.535 128.656C266.535 128.656 266.747 128.518 266.874 128.564C267 128.61 267.127 128.702 267.127 128.702C267.127 128.702 266.958 128.794 266.874 128.794C266.789 128.794 266.662 128.748 266.62 128.702C266.535 128.656 266.535 128.656 266.535 128.656Z" fill="#725D51"/>
<path d="M265.689 129.988C265.689 129.988 265.9 129.85 266.027 129.896C266.154 129.942 266.281 130.034 266.281 130.034C266.281 130.034 266.112 130.126 266.027 130.126C265.943 130.126 265.816 130.08 265.774 130.034C265.731 129.988 265.689 129.988 265.689 129.988Z" fill="#725D51"/>
<path d="M262.77 131.227C262.77 131.227 262.686 130.538 262.982 130.171C263.236 129.85 263.616 129.666 263.616 129.666C263.616 129.666 263.659 130.217 263.532 130.492C263.405 130.768 263.193 130.998 263.024 131.089C262.813 131.227 262.77 131.227 262.77 131.227Z" fill="#725D51"/>
<path d="M262.602 132.697C262.602 132.697 262.602 132.192 262.855 132.008C263.067 131.824 263.321 131.732 263.321 131.732C263.321 131.732 263.278 132.1 263.194 132.283C263.067 132.467 262.94 132.559 262.771 132.651C262.644 132.697 262.602 132.697 262.602 132.697Z" fill="#725D51"/>
<path d="M262.517 127.554C262.517 127.554 261.84 127.417 261.628 127.003C261.417 126.636 261.375 126.131 261.375 126.131C261.375 126.131 261.882 126.269 262.094 126.498C262.305 126.728 262.432 127.003 262.517 127.233C262.559 127.508 262.517 127.554 262.517 127.554Z" fill="#725D51"/>
<path d="M262.56 130.125C262.56 130.125 261.714 129.941 261.418 129.39C261.164 128.885 261.122 128.334 261.122 128.334C261.122 128.334 261.756 128.518 262.052 128.793C262.348 129.069 262.475 129.436 262.56 129.757C262.644 130.079 262.56 130.125 262.56 130.125Z" fill="#725D51"/>
<path d="M262.389 133.936C262.389 133.936 261.755 133.798 261.543 133.431C261.374 133.064 261.332 132.65 261.332 132.65C261.332 132.65 261.797 132.788 262.008 132.972C262.22 133.201 262.347 133.431 262.389 133.661C262.431 133.89 262.389 133.936 262.389 133.936Z" fill="#725D51"/>
<path d="M262.389 131.779C262.389 131.779 261.712 131.641 261.501 131.228C261.289 130.861 261.247 130.355 261.247 130.355C261.247 130.355 261.755 130.493 261.966 130.723C262.178 130.952 262.304 131.228 262.389 131.457C262.431 131.733 262.389 131.779 262.389 131.779Z" fill="#725D51"/>
<path d="M250.255 192.504H192.781V194.931H250.255V192.504Z" fill="#F2F2F2"/>
<path d="M158.152 192.328H100.678V194.755H158.152V192.328Z" fill="#F2F2F2"/>
<path d="M100.601 114.539C100.601 114.539 100.557 114.504 100.537 114.483C100.08 114.09 94.7695 109.519 93.499 108.753C92.165 107.952 90.742 107.807 91.2058 106.461C91.6695 105.115 94.3883 103.23 95.3412 102.878C96.1861 102.567 97.8504 101.877 98.2125 101.732C98.257 101.711 98.3014 101.69 98.3459 101.663C98.6317 101.49 99.8196 100.8 100.125 100.827C100.474 100.855 102.494 98.5281 104.819 102.153C107.144 105.777 108.002 106.047 108.002 106.64C108.002 107.207 106.134 112.813 102.678 115.201C102.31 115.457 101.84 115.436 101.478 115.174L100.614 114.539H100.601Z" stroke="black" stroke-width="1.37" stroke-miterlimit="10"/>
<path d="M108.776 116.817C108.776 116.817 102.602 118.481 103.358 114.352C104.114 110.224 104.99 105.453 109.767 105.377C114.538 105.301 115.046 107.303 120.319 109.561C125.591 111.819 126.322 112.495 135.869 112.758C145.417 113.027 148.396 113.089 150.029 112.958C151.661 112.827 153.237 120.739 152.227 122.865C151.217 124.992 143.276 123.259 142.819 123.052C142.361 122.844 116.425 118.205 113.28 117.273C110.142 116.341 108.776 116.81 108.776 116.81V116.817Z" fill="#131315"/>
<path d="M90.3738 107.014C90.3738 107.014 88.0297 107.863 86.6576 107.014C85.2791 106.165 78.2089 103.672 76.2841 103.969C74.3593 104.266 72.46 102.754 72.46 102.754C72.46 102.754 80.2226 103.962 84.2246 104.107C88.2203 104.252 90.1515 103.548 90.793 104.252C91.4346 104.956 91.3584 105.143 91.0217 105.895C90.6851 106.648 90.3801 107.007 90.3801 107.007L90.3738 107.014Z" fill="#1E1E1E"/>
<path d="M144.935 121.845C144.935 121.845 133.418 152.768 131.474 152.713C129.53 152.658 128.806 160.901 128.622 161.73C128.437 162.558 125.757 166.57 132.274 167.971C138.792 169.373 169.277 175.455 169.277 175.455C169.277 175.455 175.795 176.85 179.746 175.952C183.697 175.055 187 173.26 188.563 173.06C190.126 172.859 196.643 163.981 198.574 161.385C200.506 158.789 219.512 127.354 219.696 125.76C219.88 124.165 217.339 120.25 215.872 116.556C214.405 112.863 203.243 96.9763 203.243 96.9763L192.787 84.8113C192.787 84.8113 191.377 83.9483 190.157 84.8113C188.931 85.6743 186.397 88.3669 186.213 89.7615C186.028 91.1562 185.844 96.1478 186.028 96.9487C186.213 97.7496 190.221 106.697 190.221 106.697C190.221 106.697 181.251 105.296 181.067 106.794C180.883 108.292 181.385 114.927 181.563 118.814C181.741 122.701 181.836 123.916 181.563 125.47C181.385 126.491 175.528 152.955 175.528 152.955L153.123 144.815L155.448 120.271L154.012 120.961L145.392 120.195L144.935 121.845Z" fill="black"/>
<path d="M198.46 124.082L181.321 95.7402C181.321 95.7402 177.618 89.6439 176.912 90.9488C176.207 92.2536 176.728 98.1359 176.728 98.1359C176.728 98.1359 183.646 113.435 185.234 116.363C186.829 119.29 188.296 127.54 188.296 127.54L183.157 145.905L185.24 159.741L186.282 160.273L193.81 145.898L202.919 130.785L198.46 124.075V124.082Z" fill="#00DFF4"/>
<path d="M217.733 140.25L215.002 134.009L215.713 133.139L217.378 137.288L218.674 140.25H217.733Z" fill="#B7C4B7"/>
<path d="M178.355 101.713C178.355 101.713 174.632 94.1525 172.892 91.4116C171.145 88.6638 170.567 88.2702 167.937 86.3578C165.828 84.8182 163.274 81.3454 162.423 80.8828C160.968 80.1027 155.518 84.3625 155.156 84.1623C154.794 83.9621 156.102 81.8839 156.045 81.2833C155.982 80.6481 154.826 80.441 154.025 80.8828C153.701 81.0623 150.849 82.9472 149.591 83.7826C149.064 84.1278 148.372 83.9414 148.073 83.3614C147.952 83.1198 147.863 82.816 147.851 82.4294C147.806 80.9795 150.62 79.1844 150.62 79.1844L156.642 72.5496C156.642 72.5496 160.822 67.8962 165.472 66.8261C170.122 65.7629 172.136 65.7491 173.419 66.4187C174.702 67.0884 182.198 72.1422 183.85 73.8821C185.501 75.6219 190.272 80.9657 189.421 81.6768C188.563 82.3879 184.294 83.7411 183.399 84.2244C182.605 84.6456 180.921 85.9159 180.921 85.9159C180.489 86.558 179.467 86.8756 178.101 90.8386C177.669 92.0882 176.697 90.3277 176.551 94.1525C176.456 96.5966 178.361 101.713 178.361 101.713H178.355Z" fill="black"/>
<path d="M105.149 184.539C118.214 184.539 128.805 173.028 128.805 158.828C128.805 144.628 118.214 133.117 105.149 133.117C92.084 133.117 81.4927 144.628 81.4927 158.828C81.4927 173.028 92.084 184.539 105.149 184.539Z" fill="#393A38"/>
<path d="M102.742 174.909C110.614 174.909 116.996 167.638 116.996 158.67C116.996 149.702 110.614 142.432 102.742 142.432C94.8689 142.432 88.4868 149.702 88.4868 158.67C88.4868 167.638 94.8689 174.909 102.742 174.909Z" fill="black"/>
<path d="M143.499 127.775L132.09 153.775C131.563 154.977 130.356 155.646 129.149 155.398L122.835 154.093C122.079 153.934 121.437 153.43 121.037 152.719C120.434 151.649 119.246 150.082 117.238 149.336C114.145 148.183 86.3592 138.98 84.301 138.296C84.2184 138.269 84.1422 138.241 84.0596 138.207C82.4842 137.502 81.8935 135.41 82.84 133.871C83.634 132.58 84.517 131.199 85.1014 130.474C86.3846 128.879 92.8958 118.937 94.1028 117.998C95.386 117.004 99.2419 114.802 104.203 115.306C109.164 115.803 115.955 113.683 122.752 115.244C129.549 116.804 144.42 121.796 144.7 122.99C144.979 124.184 143.506 127.781 143.506 127.781L143.499 127.775Z" fill="#00DFF4"/>
<path d="M138.926 159.361C138.926 159.361 126.5 157.435 124.296 156.565C122.092 155.702 100.055 158.098 99.3182 157.96C98.5813 157.822 96.0149 157.428 95.7672 159.354C95.5194 161.28 95.583 163.945 96.6883 164.015C97.7936 164.084 120.561 165.678 123.197 164.746C125.827 163.814 125.827 163.656 129.136 163.338C132.44 163.02 139.167 163.945 139.808 163.669C140.45 163.393 141.187 161.522 140.774 160.528C140.361 159.534 138.932 159.361 138.932 159.361H138.926Z" fill="#1E1E1D"/>
<path d="M97.8693 157.925C97.8693 157.925 97.0434 154.521 97.5008 154.121C97.9582 153.721 98.4664 154.073 99.2477 152.975C100.029 151.877 100.709 148.77 101.274 146.485C101.833 144.2 101.916 144.145 101.916 144.145L105.905 145.477C105.905 145.477 102.278 151.428 101.636 153.624C100.995 155.819 101.274 157.663 101.274 157.663L101.3 157.925H97.8756H97.8693Z" fill="#1E1E1D"/>
<path d="M177.249 91.5075L195.163 119.897C195.163 119.897 201.045 130.198 202.919 130.792C203.98 131.13 213.439 123.888 215.865 121.948C219.696 118.889 217.669 116.659 209.907 105.813C203.237 96.4853 193.581 85.1419 190.996 82.1386C190.589 81.6691 189.973 81.4896 189.408 81.676C187.184 82.4079 181.626 84.4377 179.879 87.0543C177.675 90.3476 177.243 91.5144 177.243 91.5144L177.249 91.5075Z" fill="#3EF0FB"/>
<path d="M221.805 194.862C235.944 194.862 247.406 182.405 247.406 167.038C247.406 151.672 235.944 139.215 221.805 139.215C207.667 139.215 196.205 151.672 196.205 167.038C196.205 182.405 207.667 194.862 221.805 194.862Z" fill="#393A38"/>
<path d="M221.805 184.609C230.323 184.609 237.229 176.742 237.229 167.038C237.229 157.334 230.323 149.467 221.805 149.467C213.287 149.467 206.381 157.334 206.381 167.038C206.381 176.742 213.287 184.609 221.805 184.609Z" fill="black"/>
<path d="M220.033 168.122L224.899 164.829L228.894 147.016C228.894 147.016 229.536 144.324 230.59 142.978C231.645 141.631 232.337 141.058 232.75 142.266C232.75 142.266 232.935 141.196 231.143 140.43C229.352 139.664 219.76 135.687 212.778 136.936C205.797 138.186 220.033 168.122 220.033 168.122Z" fill="#00DFF4"/>
<path d="M204.209 138.503L207.43 145.58L208.815 144.779L205.188 136.487L202.863 130.881L201.668 132.869L204.209 138.503Z" fill="#B7C4B7"/>
<path d="M219.607 167.978L210.739 144.663C210.625 144.366 210.326 144.2 210.041 144.283C209.234 144.504 207.627 145.008 206.578 145.705C206.204 145.954 205.899 146.23 205.727 146.527C205.124 147.576 213.788 161.219 218.565 168.599C218.972 169.234 219.874 168.689 219.601 167.978H219.607Z" fill="#1E1E1D"/>
<path d="M166.202 51.5401C166.202 51.5401 167.187 51.7679 166.996 53.0866C166.805 54.4053 165.262 56.7527 164.576 57.0703C163.89 57.3879 163.204 56.9322 163.204 56.9322L166.202 51.5332V51.5401Z" fill="black"/>
<path d="M165.498 54.7634C166.362 53.2729 166.747 51.8488 166.358 51.5825C165.969 51.3163 164.954 52.3087 164.09 53.7992C163.226 55.2898 162.841 56.7139 163.229 56.9801C163.618 57.2464 164.634 56.2539 165.498 54.7634Z" fill="white"/>
<path d="M165.434 56.2333L166.933 64.3042L167.32 66.9001H167.854L165.783 55.75L165.434 56.2333Z" fill="black"/>
<path d="M150.906 64.1665C150.906 64.1665 156.579 69.1098 156.617 69.2203C156.655 69.3307 156.617 72.6171 156.617 72.6171H157.392V69.1167L154.774 66.7417L150.372 63.1309L150.118 63.5313L150.906 64.1734V64.1665Z" fill="black"/>
<path d="M148.016 64.8783C149.795 64.8783 151.237 63.2524 151.237 61.2468C151.237 59.2411 149.795 57.6152 148.016 57.6152C146.237 57.6152 144.795 59.2411 144.795 61.2468C144.795 63.2524 146.237 64.8783 148.016 64.8783Z" fill="black"/>
<path d="M158.828 64.4848C158.828 64.4848 163.274 66.7977 163.23 67.7781C163.185 68.7584 160.543 70.4776 159.387 70.9332C158.014 71.4787 157.163 71.2646 157.062 71.817C157.023 72.031 157.093 72.1276 157.1 72.2726C157.1 72.4797 157.265 72.6316 157.449 72.6178C158.097 72.5557 159.495 71.9827 159.971 71.7617C160.505 71.5132 163.427 69.801 163.884 68.3373C164.259 67.1291 163.649 66.5353 162.004 64.9198C160.359 63.3042 159.933 62.6621 159.933 62.6621L158.821 64.4917L158.828 64.4848Z" fill="black"/>
<path d="M158.256 58.4922H161.299C161.794 58.4922 162.105 59.0583 161.864 59.514L157.983 66.8807C157.818 67.1914 157.462 67.3156 157.157 67.1775L154.819 66.1005C154.47 65.9417 154.33 65.4999 154.508 65.1477L157.69 58.865C157.805 58.6441 158.021 58.4991 158.262 58.4991L158.256 58.4922Z" fill="#99DB26"/>
<path d="M158.764 58.6172H161.305C161.915 58.6172 162.296 59.3283 162.004 59.9083L158.472 66.7847C158.275 67.1714 157.83 67.3371 157.455 67.1576L155.511 66.2393C155.086 66.0391 154.908 65.4799 155.124 65.038L158.059 59.0798C158.198 58.7967 158.465 58.6241 158.764 58.6241V58.6172Z" fill="black"/>
<path d="M161.013 70.851C161.013 70.851 161.896 67.04 163.751 65.3139C165.605 63.5879 167.289 62.6421 168.153 63.9676L168.991 66.2115C168.991 66.2115 164.945 68.6762 163.922 69.3943C162.899 70.1123 161.102 71.0858 161.102 71.0858L161.013 70.851Z" fill="#1E1E1E"/>
<path d="M168.489 66.3011L167.645 64.0434C167.613 63.9537 167.524 63.8985 167.435 63.9123C167.079 63.9537 166.203 64.1263 165.809 64.8029C165.777 64.8581 165.771 64.9341 165.796 64.9962L166.679 67.3574C166.723 67.4817 166.857 67.53 166.965 67.461L168.4 66.5634C168.489 66.5082 168.521 66.3908 168.483 66.2942L168.489 66.3011Z" fill="white"/>
<path d="M170.56 65.3194C170.56 65.3194 173.298 63.331 173.699 63.3379C174.099 63.3448 175.128 63.5657 174.658 64.5945L171.952 67.2801L169.315 69.4549L168.788 67.287L168.991 66.1686L170.554 65.3125L170.56 65.3194Z" fill="black"/>
<path d="M63.6309 86.5836L86.1375 84.25L115.174 85.5134L96.8858 88.6134L63.6309 86.5836Z" fill="#383838"/>
<path d="M112.277 82.1882C112.703 75.2426 107.538 73.8135 102.399 72.8262C94.9795 71.404 89.1352 77.6591 88.4555 85.0258C87.9473 90.4938 93.6327 98.544 99.6675 96.6039C104.273 95.1196 99.4579 88.25 103.003 85.8819C105.874 83.9625 108.796 87.6562 111.547 86.9106C112.938 86.5378 112.195 83.569 112.283 82.1813L112.277 82.1882Z" fill="#181917"/>
<path d="M112.989 82.6847C113.414 75.7392 106.928 72.4873 101.789 71.5C94.3696 70.0778 88.5254 76.3329 87.8457 83.6996C87.3375 89.1676 93.0229 97.2178 99.0577 95.2778C103.663 93.7934 98.848 86.9238 102.393 84.5557C105.264 82.6363 108.186 86.33 110.937 85.5844C112.328 85.2116 112.912 84.0655 112.995 82.6778L112.989 82.6847Z" fill="#00DFF4"/>
<path d="M115.307 85.5147C115.307 85.5147 112.061 99.3574 110.835 100.462C109.609 101.567 100.379 106.883 90.8504 105.792C81.3218 104.701 72.1934 104.197 69.5635 100.573C66.9336 96.9479 64.183 92.3498 63.967 90.8033C63.751 89.2567 63.7573 86.571 63.7573 86.571L97.0123 88.6078L115.301 85.5078L115.307 85.5147Z" fill="#020202"/>
<path d="M63.7696 85.2939C63.7696 85.2939 62.0354 87.524 64.3921 89.7816L72.7265 86.5436L95.7604 77.5959L111.495 67.005L110.574 63.1387L94.6297 74.3026L63.7696 85.2939Z" fill="#232323"/>
<path d="M64.0625 85.0587C64.0625 85.0587 63.37 83.7745 63.2366 82.7113C63.1032 81.648 62.3473 77.8646 67.0798 71.7683C71.8124 65.672 75.0521 60.6941 85.883 55.5643L94.6176 51.9949C94.6176 51.9949 99.2739 50.3103 101.326 51.3252C103.378 52.3401 109.59 60.1625 109.59 60.1625C109.59 60.1625 110.569 62.3718 110.581 62.5168C110.594 62.6618 110.708 63.0415 110.664 63.0967C110.619 63.1519 109.99 63.5455 109.99 63.5455L104.565 67.3427L94.6176 74.309L64.1069 85.176L64.0497 85.0656L64.0625 85.0587Z" fill="#161616"/>
<path d="M107.348 68.8408C107.348 68.8408 110.537 66.9352 110.549 66.3484C110.562 65.7615 109.99 64.7121 109.425 64.9192C108.86 65.1264 106.204 67.0319 106.204 67.0319L105.918 67.2528C105.448 67.6118 105.315 68.3161 105.639 68.8339C105.639 68.8408 105.652 68.8477 105.652 68.8615L106.172 69.6693L107.348 68.8408Z" fill="white"/>
<path d="M99.7058 74.0467C99.7058 74.0467 102.952 72.2516 102.977 71.6717C103.003 71.0917 102.469 70.0147 101.897 70.2011C101.326 70.3875 98.6132 72.1964 98.6132 72.1964L98.321 72.4035C97.8446 72.7487 97.6858 73.446 97.997 73.9707C97.997 73.9776 98.0097 73.9845 98.0097 73.9983L98.5052 74.8268L99.6995 74.0467H99.7058Z" fill="white"/>
<path d="M67.9575 79.976C68.2914 82.8756 79.6435 98.3159 86.0541 98.8233C86.1209 98.8233 86.2545 98.8958 86.388 98.8958C86.8555 98.8958 87.3897 98.7508 87.7236 98.4609C90.2611 97.0836 94.5347 82.5856 95.9371 77.9463L94.4012 77.0039C93.0657 79.4686 88.1242 90.7045 86.1209 90.2695C86.1209 90.2695 85.6534 90.4145 85.5199 90.1971C77.106 81.5708 73.5668 79.3961 70.7622 77.2214L67.9575 79.976Z" fill="#D8A988"/>
<path d="M52.0637 183.128C52.4644 184.433 51.6631 189.145 51.6631 190.739C52.598 192.117 54.8683 191.029 55.1355 189.579C55.1355 189.434 55.269 189.362 55.269 189.072C55.0019 188.13 55.5361 184.723 56.2706 182.838L52.0637 183.128Z" fill="#F9AC91"/>
<path d="M66.1533 185.232C66.4872 186.537 65.4855 189.726 65.2852 191.249C66.1533 192.698 68.4905 191.683 68.7576 190.234C68.8244 190.089 68.8911 190.016 68.9579 189.726C68.624 188.711 69.3585 185.957 70.2934 184.145L66.1533 185.232Z" fill="#F9AC91"/>
<path d="M66.0197 111.291H74.6339C78.9744 125.354 80.2432 141.374 77.6389 157.25C77.4385 158.482 77.1715 159.714 76.7708 160.802L73.8994 185.376C71.6957 186.39 65.2852 185.666 63.0815 185.086C65.953 176.024 67.6224 167.906 68.3569 159.062C68.624 157.684 68.624 154.785 68.624 154.785C69.4921 141.157 66.6207 114.698 66.0197 111.291Z" fill="#131851"/>
<path d="M59.0087 185.087C56.0705 186.029 51.9971 184.507 49.7935 183.492L55.4027 156.091C55.4695 155.584 55.4695 155.004 55.4695 154.496L53.4662 121.658C53.3994 120.933 53.4662 120.064 53.5329 119.266C53.8668 116.367 54.6014 112.235 55.603 110.857H66.8883C70.0936 127.168 69.5594 141.013 68.2906 148.915C68.1571 149.567 67.6229 157.178 66.8216 159.426L59.0087 185.087Z" fill="#131851"/>
<path d="M74.6345 111.438L55.5364 111.728L55.4028 110.785L74.501 110.713L74.6345 111.438Z" fill="#0E0E38"/>
<path d="M60.2123 56.9258L66.8232 57.5782C64.9535 60.8402 63.4843 63.7398 65.6212 65.987L59.3442 65.4071C61.4811 63.8848 61.2139 59.9704 60.2123 56.9258Z" fill="#EDBD98"/>
<path d="M66.8215 43.5137C66.8215 43.5137 69.3591 46.8482 68.7581 49.2404C68.6913 49.6028 68.6245 49.8928 68.5577 50.1827C68.2906 51.56 68.2906 51.4875 69.6261 52.14C70.2939 52.5024 69.693 53.2273 69.3591 53.5173C69.1588 53.6622 69.0252 53.9522 69.092 54.1697C69.092 54.4596 69.1587 54.7496 69.1587 54.7496C69.1587 54.8221 69.4259 55.6919 68.6913 55.6919C65.0186 55.7644 68.0903 55.6919 68.8916 55.9819C68.8916 55.9819 69.2255 56.1994 69.1587 56.3443C69.092 56.5618 68.8249 56.7793 68.7581 57.0692C68.6913 57.3592 68.6245 58.3016 68.491 58.664C68.3574 59.0265 66.1538 59.7514 64.885 59.3164C63.8833 59.099 62.5479 58.7365 62.0136 58.664C61.8133 58.664 61.5462 58.1566 61.4126 58.0116C61.1455 57.7942 60.4109 57.5767 59.8767 57.1417C58.7415 56.4168 59.7432 55.9819 59.81 55.4745C59.8767 55.0395 60.0103 54.0972 59.8767 53.8072C59.7432 53.5897 58.8083 52.3574 58.608 51.85C58.3408 50.9801 58.8083 49.6753 59.1422 49.1679C59.4761 48.6604 60.2774 48.443 60.7449 48.8779C61.1455 49.1679 61.6129 49.1679 61.8133 48.8054C62.0136 48.3705 64.4843 45.036 64.9518 44.6735C65.1521 44.456 66.8215 43.5137 66.8215 43.5137Z" fill="#EDBD98"/>
<path d="M69.0935 45.4704C68.96 45.8329 68.8263 46.1228 68.626 46.4853C68.3589 46.9927 67.8248 47.4276 67.3573 47.6451C65.7547 48.37 64.2856 49.0949 62.8165 48.9499C62.2155 48.8775 61.6145 49.2399 61.4142 49.9648C61.2138 50.5447 60.8799 50.9797 60.4793 51.4146C59.8783 52.067 59.6112 53.1543 60.0119 54.1692C60.4125 55.474 60.0118 56.1989 59.5444 57.3588C59.2773 57.7212 58.9434 57.7937 58.4092 57.5762C56.2056 56.3439 54.9368 53.8792 54.4026 50.9072C53.6013 48.225 54.0019 47.5001 54.4693 46.2678C54.6029 45.9054 54.87 45.6154 55.0703 45.253C56.1388 44.0206 57.0069 42.4984 58.0086 41.7735C58.8767 41.1935 59.678 40.6861 60.7464 40.3237C62.349 39.7437 64.0852 39.9612 65.4875 40.8311C67.0234 41.8459 68.4257 43.2233 68.9599 44.3106C69.227 44.6731 69.2271 45.108 69.0935 45.4704Z" fill="#42210B"/>
<path d="M51.5289 187.914C52.9312 188.566 54.3336 188.566 55.7359 187.696C55.8027 187.624 55.8694 187.696 55.9362 187.769C56.7375 189.363 57.5388 191.393 58.8744 192.625C60.2099 193.64 61.8794 194.365 63.6824 194.873C63.8827 194.945 64.1498 195.017 64.3501 195.017C65.285 195.017 65.9527 195.163 66.5537 195.452C66.6205 195.525 66.7541 195.525 66.8209 195.597C67.2215 195.815 67.3551 196.25 67.4219 196.83C67.4219 197.192 67.2883 197.482 67.0212 197.7C65.5521 198.642 63.6824 199.077 61.3452 199.004L57.0714 198.425L50.3937 197.845L49.5924 197.555C49.4588 197.482 49.3921 197.41 49.3921 197.192C49.3921 195.96 49.5924 194.728 49.9931 193.423C50.1267 193.06 50.3937 192.48 50.5273 192.118C51.0615 191.031 51.195 189.581 51.195 187.986C51.3954 187.914 51.4621 187.841 51.5289 187.914Z" fill="#F7931E"/>
<path d="M49.5936 195.666C49.4601 195.666 49.3266 197.044 49.4601 197.333C49.5937 197.696 50.8624 197.841 51.0628 197.913C52.1312 198.058 53.2664 198.131 54.4016 198.203L58.2079 198.638C59.2763 198.783 60.5451 199.001 61.8138 199.001C62.8823 199.001 63.8172 198.928 64.8188 198.638C65.6201 198.493 66.3547 198.131 67.156 197.551C67.2228 197.478 67.2896 197.406 67.3564 197.333C67.5567 196.899 67.4899 196.029 66.8889 195.594C66.0208 196.029 64.8188 196.464 63.4165 196.681C62.3481 196.899 61.146 196.899 59.9441 196.899C57.9408 196.826 55.9374 196.681 54.268 196.391C52.5318 196.246 50.8624 196.029 49.5936 195.666Z" fill="#CE751D"/>
<path d="M64.1508 195.017C64.0172 195.67 64.084 196.25 64.3511 196.612C65.3528 196.467 66.154 196.177 66.8886 195.67C66.154 195.162 65.2192 194.945 64.1508 195.017Z" fill="#F15A24"/>
<path d="M55.6024 189.58C55.7868 189.58 55.9363 189.418 55.9363 189.218C55.9363 189.018 55.7868 188.855 55.6024 188.855C55.418 188.855 55.2686 189.018 55.2686 189.218C55.2686 189.418 55.418 189.58 55.6024 189.58Z" fill="#D8CDC3"/>
<path d="M56.1361 190.955C56.3205 190.955 56.47 190.793 56.47 190.593C56.47 190.393 56.3205 190.23 56.1361 190.23C55.9517 190.23 55.8022 190.393 55.8022 190.593C55.8022 190.793 55.9517 190.955 56.1361 190.955Z" fill="#D8CDC3"/>
<path d="M56.7367 192.116C56.9211 192.116 57.0706 191.953 57.0706 191.753C57.0706 191.553 56.9211 191.391 56.7367 191.391C56.5523 191.391 56.4028 191.553 56.4028 191.753C56.4028 191.953 56.5523 192.116 56.7367 192.116Z" fill="#D8CDC3"/>
<path d="M57.6063 193.352C57.7907 193.352 57.9402 193.19 57.9402 192.989C57.9402 192.789 57.7907 192.627 57.6063 192.627C57.4219 192.627 57.2725 192.789 57.2725 192.989C57.2725 193.19 57.4219 193.352 57.6063 193.352Z" fill="#D8CDC3"/>
<path d="M58.7411 194.147C58.9255 194.147 59.075 193.984 59.075 193.784C59.075 193.584 58.9255 193.422 58.7411 193.422C58.5567 193.422 58.4072 193.584 58.4072 193.784C58.4072 193.984 58.5567 194.147 58.7411 194.147Z" fill="#D8CDC3"/>
<path d="M59.9423 194.799C60.1267 194.799 60.2762 194.637 60.2762 194.437C60.2762 194.236 60.1267 194.074 59.9423 194.074C59.7579 194.074 59.6084 194.236 59.6084 194.437C59.6084 194.637 59.7579 194.799 59.9423 194.799Z" fill="#D8CDC3"/>
<path d="M61.3179 195.123C61.4308 195.021 61.4456 194.838 61.3509 194.715C61.2563 194.593 61.0879 194.576 60.975 194.679C60.8621 194.782 60.8473 194.965 60.9419 195.087C61.0366 195.21 61.2049 195.226 61.3179 195.123Z" fill="#D8CDC3"/>
<path d="M62.6964 195.534C62.7689 195.395 62.7237 195.218 62.5954 195.14C62.4671 195.061 62.3044 195.11 62.2319 195.25C62.1594 195.389 62.2045 195.566 62.3328 195.644C62.4611 195.723 62.6239 195.674 62.6964 195.534Z" fill="#D8CDC3"/>
<path d="M56.2705 190.158C56.5376 190.086 56.8715 190.013 57.1386 190.231C57.2054 190.376 57.339 190.593 57.4058 190.738C57.1387 190.593 56.6044 190.593 56.4041 190.666C56.5377 190.521 56.4708 190.303 56.2705 190.158Z" fill="#686461"/>
<path d="M56.8735 191.392C57.0739 191.247 57.5413 191.175 57.8752 191.247C57.942 191.392 58.0755 191.465 58.1423 191.61C57.8084 191.537 57.341 191.682 57.1407 191.755C57.1407 191.61 57.0739 191.465 56.8735 191.392Z" fill="#686461"/>
<path d="M57.6758 192.626C57.8761 192.481 58.2767 192.336 58.6106 192.336C58.7441 192.481 58.8109 192.553 58.9445 192.698C58.6106 192.698 58.0764 192.916 57.9428 193.061C57.9428 192.843 57.8761 192.626 57.6758 192.626Z" fill="#686461"/>
<path d="M58.7407 193.425C58.8743 193.207 59.2081 193.062 59.542 193.062C59.6756 193.135 59.8091 193.207 59.9427 193.28C59.6088 193.352 59.1414 193.642 59.0078 193.787C59.0078 193.715 59.0078 193.497 58.7407 193.425Z" fill="#686461"/>
<path d="M59.876 194.076C60.0763 193.858 60.2767 193.713 60.477 193.641C60.6105 193.713 60.6773 193.786 60.8776 193.858C60.6105 194.003 60.4102 194.293 60.2766 194.438C60.2098 194.221 60.1431 194.076 59.876 194.076Z" fill="#686461"/>
<path d="M61.0103 194.656C61.2106 194.438 61.4109 194.221 61.6112 194.148C61.7447 194.221 61.8116 194.221 62.0119 194.293C61.7448 194.438 61.4777 194.801 61.3441 194.873C61.4109 194.801 61.2774 194.656 61.0103 194.656Z" fill="#686461"/>
<path d="M62.2114 195.162C62.2781 194.8 62.3448 194.727 62.4114 194.51C62.5447 194.51 62.7446 194.655 62.7446 194.655C62.6113 194.945 62.6779 195.09 62.6113 195.307C62.6113 195.162 62.4114 195.017 62.2114 195.162Z" fill="#686461"/>
<path d="M55.7368 188.853C56.0039 188.781 56.2042 188.708 56.5381 188.853C56.6717 188.998 56.7385 189.216 56.7385 189.361C56.4046 189.216 56.2042 189.216 55.9371 189.288C55.9371 189.071 55.8704 188.926 55.7368 188.853Z" fill="#686461"/>
<path d="M54.3359 188.276C54.3359 188.203 54.3359 188.058 54.3359 187.986C54.4027 187.768 54.4695 187.623 54.6698 187.551C54.9369 187.333 55.204 187.188 55.6046 186.971C55.7382 187.188 55.805 187.406 55.805 187.696C55.5379 187.841 55.2708 187.986 55.0037 188.058C54.8034 188.131 54.603 188.203 54.3359 188.276Z" fill="#F15A24"/>
<path d="M65.4177 188.636C66.82 189.289 68.2223 189.289 69.6246 188.419C69.6913 188.346 69.7582 188.419 69.8249 188.491C70.6263 190.086 71.4276 192.116 72.7631 193.348C74.0987 194.363 75.7681 195.088 77.571 195.595C77.7714 195.668 78.0385 195.74 78.2388 195.74C79.1737 195.74 79.8415 195.885 80.4425 196.175C80.5093 196.248 80.6428 196.248 80.7096 196.32C81.1103 196.538 81.2438 196.972 81.3105 197.552C81.3105 197.915 81.177 198.205 80.9099 198.422C79.4408 199.365 77.571 199.8 75.2338 199.727L70.9601 199.147L64.2824 198.567L63.4811 198.277C63.3476 198.205 63.2808 198.132 63.2808 197.915C63.2808 196.683 63.4811 195.45 63.8818 194.145C64.0153 193.783 64.2825 193.203 64.416 192.841C64.9502 191.753 65.0838 190.303 65.0838 188.709C65.2173 188.636 65.2841 188.564 65.4177 188.636Z" fill="#F7931E"/>
<path d="M63.4823 196.389C63.3488 196.389 63.2152 197.766 63.3488 198.056C63.4823 198.419 64.751 198.564 64.9514 198.636C66.0198 198.781 67.155 198.854 68.2902 198.926L72.0965 199.361C73.165 199.506 74.4338 199.723 75.7025 199.723C76.7709 199.723 77.7058 199.651 78.7075 199.361C79.5088 199.216 80.2434 198.854 81.0447 198.274C81.1115 198.201 81.1782 198.129 81.245 198.056C81.4453 197.621 81.3785 196.751 80.7775 196.316C79.9095 196.751 78.7074 197.186 77.3051 197.404C76.2367 197.621 75.0347 197.621 73.8327 197.621C71.8294 197.549 69.8261 197.404 68.1567 197.114C66.3537 197.041 64.7511 196.824 63.4823 196.389Z" fill="#CE751D"/>
<path d="M77.9716 195.742C77.838 196.395 77.9048 196.974 78.1719 197.337C79.1736 197.192 79.9749 196.902 80.7095 196.395C80.0417 195.887 79.1068 195.67 77.9716 195.742Z" fill="#F15A24"/>
<path d="M69.4232 190.303C69.6076 190.303 69.7571 190.141 69.7571 189.941C69.7571 189.74 69.6076 189.578 69.4232 189.578C69.2388 189.578 69.0894 189.74 69.0894 189.941C69.0894 190.141 69.2388 190.303 69.4232 190.303Z" fill="#D8CDC3"/>
<path d="M70.0893 191.682C70.2737 191.682 70.4231 191.52 70.4231 191.319C70.4231 191.119 70.2737 190.957 70.0893 190.957C69.9049 190.957 69.7554 191.119 69.7554 191.319C69.7554 191.52 69.9049 191.682 70.0893 191.682Z" fill="#D8CDC3"/>
<path d="M70.6254 192.912C70.8098 192.912 70.9593 192.75 70.9593 192.55C70.9593 192.35 70.8098 192.188 70.6254 192.188C70.441 192.188 70.2915 192.35 70.2915 192.55C70.2915 192.75 70.441 192.912 70.6254 192.912Z" fill="#D8CDC3"/>
<path d="M71.4931 194.074C71.6775 194.074 71.8269 193.912 71.8269 193.712C71.8269 193.512 71.6775 193.35 71.4931 193.35C71.3087 193.35 71.1592 193.512 71.1592 193.712C71.1592 193.912 71.3087 194.074 71.4931 194.074Z" fill="#D8CDC3"/>
<path d="M72.6298 194.871C72.8142 194.871 72.9637 194.709 72.9637 194.509C72.9637 194.309 72.8142 194.146 72.6298 194.146C72.4454 194.146 72.2959 194.309 72.2959 194.509C72.2959 194.709 72.4454 194.871 72.6298 194.871Z" fill="#D8CDC3"/>
<path d="M73.7665 195.522C73.9509 195.522 74.1004 195.359 74.1004 195.159C74.1004 194.959 73.9509 194.797 73.7665 194.797C73.5821 194.797 73.4326 194.959 73.4326 195.159C73.4326 195.359 73.5821 195.522 73.7665 195.522Z" fill="#D8CDC3"/>
<path d="M75.2148 195.903C75.3277 195.8 75.3425 195.617 75.2478 195.495C75.1531 195.372 74.9849 195.356 74.872 195.458C74.759 195.561 74.7442 195.744 74.8389 195.867C74.9336 195.989 75.1019 196.005 75.2148 195.903Z" fill="#D8CDC3"/>
<path d="M76.6104 196.292C76.6829 196.153 76.6377 195.976 76.5094 195.897C76.3811 195.819 76.2184 195.868 76.1459 196.007C76.0734 196.147 76.1186 196.323 76.2469 196.402C76.3752 196.481 76.5379 196.431 76.6104 196.292Z" fill="#D8CDC3"/>
<path d="M70.1592 190.955C70.4263 190.883 70.7602 190.81 71.0273 191.028C71.0941 191.173 71.2276 191.39 71.2944 191.535C71.0272 191.39 70.493 191.39 70.2927 191.463C70.4263 191.173 70.3595 191.028 70.1592 190.955Z" fill="#686461"/>
<path d="M70.6929 192.187C70.8932 192.042 71.3606 191.97 71.6945 192.042C71.7613 192.187 71.8948 192.26 71.9616 192.405C71.6277 192.332 71.1602 192.477 70.9599 192.55C70.9599 192.405 70.8932 192.26 70.6929 192.187Z" fill="#686461"/>
<path d="M71.5605 193.276C71.7609 193.131 72.1616 192.986 72.4954 192.986C72.629 193.131 72.6958 193.204 72.8293 193.349C72.4954 193.349 71.9612 193.566 71.8277 193.711C71.8944 193.566 71.7609 193.276 71.5605 193.276Z" fill="#686461"/>
<path d="M72.6299 194.148C72.7634 193.93 73.0974 193.785 73.4313 193.785C73.5648 193.858 73.6983 193.93 73.8319 194.003C73.498 194.075 73.0306 194.365 72.897 194.51C72.897 194.365 72.897 194.148 72.6299 194.148Z" fill="#686461"/>
<path d="M73.6968 194.726C73.8971 194.509 74.0974 194.364 74.2977 194.291C74.4313 194.364 74.4981 194.436 74.6984 194.509C74.4313 194.653 74.231 194.943 74.0974 195.088C74.0974 195.016 74.0307 194.726 73.6968 194.726Z" fill="#686461"/>
<path d="M74.8989 195.378C75.0993 195.161 75.2996 194.944 75.4999 194.871C75.6335 194.944 75.7002 194.944 75.9006 195.016C75.6335 195.161 75.3664 195.523 75.2328 195.596C75.2328 195.596 75.0993 195.378 74.8989 195.378Z" fill="#686461"/>
<path d="M76.1025 195.811C76.1692 195.448 76.2358 195.376 76.3024 195.158C76.4357 195.158 76.6357 195.303 76.6357 195.303C76.5024 195.593 76.5691 195.738 76.5024 195.956C76.4358 195.883 76.3025 195.666 76.1025 195.811Z" fill="#686461"/>
<path d="M69.5586 189.578C69.8257 189.505 70.0261 189.433 70.36 189.578C70.4935 189.723 70.5602 189.94 70.5602 190.085C70.2264 189.94 70.0261 189.94 69.759 190.013C69.8257 189.795 69.7589 189.65 69.5586 189.578Z" fill="#686461"/>
<path d="M68.2246 188.998C68.2246 188.926 68.2246 188.781 68.2246 188.708C68.2914 188.491 68.3582 188.346 68.5585 188.273C68.8256 188.056 69.0927 187.911 69.4934 187.693C69.6269 187.911 69.6938 188.128 69.6938 188.418C69.4266 188.563 69.1595 188.708 68.8924 188.781C68.692 188.926 68.4917 188.998 68.2246 188.998Z" fill="#F15A24"/>
<path d="M67.5566 80.9187C67.8905 83.8183 79.2426 99.2586 85.6532 99.766C85.72 99.766 85.8535 99.8385 85.9871 99.8385C86.4545 99.8385 86.9887 99.6935 87.3226 99.4036C89.593 97.8813 99.7431 89.6175 102.882 85.6305L101.546 83.0209C96.7382 84.8331 85.9203 92.1546 85.9203 92.1546C85.9203 92.1546 85.3861 92.2996 85.3193 92.0821C81.4462 85.2681 75.9037 81.4986 70.2945 78.1641L67.5566 80.9187Z" fill="#EDBD98"/>
<path d="M107.755 75.4768C107.688 75.6943 107.688 75.8392 107.755 75.9117C107.821 75.9117 107.954 75.8392 108.021 75.6218C108.088 75.4043 108.088 75.2593 108.021 75.1868C107.954 75.1143 107.821 75.2593 107.755 75.4768Z" fill="white"/>
<path d="M102.482 82.5129C102.95 82.2229 103.017 81.788 103.284 81.2806C103.484 80.7732 104.018 80.3382 104.152 80.1932C104.352 79.9033 105.02 78.8884 105.554 78.671C105.754 78.5985 105.888 78.7434 105.888 78.8884L105.554 79.4684L107.157 78.236C107.357 78.091 108.559 76.8587 108.826 77.2937C108.96 77.5836 108.359 78.236 108.225 78.4535C107.891 78.9609 107.958 78.9609 107.958 78.9609C107.958 78.9609 108.292 79.1784 108.158 79.5408C107.958 79.9033 107.691 80.3382 107.691 80.3382C107.691 80.3382 108.158 80.4832 107.891 81.2081C107.891 81.2081 108.025 81.5705 107.958 82.078C107.891 82.3679 107.691 82.7304 107.491 82.9479C107.223 83.2378 106.89 83.5278 106.556 83.6727C105.087 84.1802 103.818 84.8326 102.95 85.7025L101.013 83.3103L102.482 82.5129Z" fill="#EDBD98"/>
<path d="M105.617 79.398C105.617 79.4704 105.35 79.7604 105.083 80.1953C104.816 80.6303 104.482 80.9202 104.482 80.9202C104.482 80.8478 104.749 80.5578 105.016 80.1229C105.35 79.6879 105.55 79.3255 105.617 79.398Z" fill="#C99877"/>
<path d="M107.817 78.9648C107.817 78.9648 107.483 79.3998 107.016 79.9072C106.549 80.4146 106.148 80.7771 106.148 80.7771C106.148 80.7771 106.482 80.3422 106.949 79.8347C107.483 79.3273 107.817 78.9648 107.817 78.9648Z" fill="#C99877"/>
<path d="M107.821 81.1348C107.821 81.1348 107.688 81.3522 107.488 81.6422C107.287 81.8597 107.087 82.0771 107.087 82.0771C107.087 82.0771 107.22 81.8597 107.421 81.5697C107.621 81.2797 107.821 81.1348 107.821 81.1348Z" fill="#C99877"/>
<path d="M77.0385 110.711H49.7935C49.7935 110.711 50.7951 85.485 54.2675 71.567C54.7349 69.6098 56.2708 66.7827 57.6063 65.3329C58.1405 64.8255 58.7416 64.2455 59.4761 63.9556C59.9436 63.7381 60.5446 63.6656 61.0788 63.7381L65.7532 64.1731C66.2206 64.2456 66.7548 64.5355 66.9551 65.1154L71.5627 76.4963C71.8298 77.1487 72.2305 77.8011 72.7647 78.2361L79.576 84.8326L75.1019 90.7768L74.5677 91.4292" fill="#F7931E"/>
<path d="M73.3648 90.9225C65.8858 84.3984 65.5519 83.2386 64.9509 81.0639C64.7505 80.339 64.4834 79.4691 63.9492 78.3093L64.3499 78.0918C64.9509 79.3241 65.1513 80.194 65.3516 80.9189C65.9526 83.0211 66.2196 84.1085 73.6319 90.56L73.3648 90.9225Z" fill="#9E4F0D"/>
<path d="M60.6118 51.3416C60.4783 51.0517 60.278 50.8342 60.0776 50.7617C59.9441 50.7617 59.8773 50.7617 59.8105 50.7617C59.2095 51.0517 59.076 51.5591 59.3431 52.2115C59.3431 52.2115 59.3431 52.2115 59.3431 52.284C59.8105 52.9364 60.0108 53.0814 60.545 53.3714L60.6118 51.3416Z" fill="#ECBC97"/>
<path d="M105.686 79.1808C105.753 79.1083 105.82 79.0358 105.82 78.9633C105.82 78.9633 105.82 78.8184 105.753 78.8184C105.687 78.8184 105.553 78.8184 105.487 78.8909C105.42 78.9633 105.287 79.1083 105.287 79.1083L105.487 79.3258C105.553 79.3983 105.553 79.3983 105.553 79.3983C105.553 79.2533 105.62 79.1808 105.686 79.1808Z" fill="#E5B28F"/>
<path d="M108.29 78.0916L108.624 77.7292C108.624 77.6567 108.691 77.2218 108.29 77.4392L107.89 77.8017C107.89 77.8017 107.956 78.0191 108.023 78.0916C108.09 78.1641 108.224 78.1641 108.224 78.1641C108.29 78.1641 108.29 78.1641 108.29 78.0916Z" fill="#E5B28F"/>
<path d="M96.2707 71.7854C96.2707 71.7854 96.4042 71.5679 96.5378 71.4954C96.6714 71.4229 96.9385 71.5679 96.8717 71.7854C96.8049 72.0028 96.2039 72.7277 96.2039 72.7277C96.2039 72.7277 96.0036 73.4526 95.9368 73.5251C95.9368 73.5976 96.0704 74.1775 96.1372 74.395C96.2039 74.6125 96.1372 76.3522 96.1372 76.4972C96.1372 76.6422 96.1371 78.092 95.87 78.092C95.6029 78.092 94.2674 77.657 94.401 77.0771C94.5345 76.4972 95.0687 73.0177 95.4026 72.5828C95.8033 72.0753 96.2707 71.7854 96.2707 71.7854Z" fill="#D8A988"/>
<path d="M96.3369 71.7818L96.5369 71.5643C96.6702 71.4918 96.8035 71.5643 96.7369 71.7818C96.6702 71.9268 96.6036 71.9992 96.4703 72.0717C96.4703 71.9268 96.4036 71.8543 96.3369 71.7818Z" fill="#EDC7AE"/>
</svg>
