<svg width="266" height="149" viewBox="0 0 266 149" fill="none" xmlns="http://www.w3.org/2000/svg">
<path d="M132.53 148.547C205.724 148.547 265.059 142.909 265.059 135.953C265.059 128.998 205.724 123.359 132.53 123.359C59.3355 123.359 0 128.998 0 135.953C0 142.909 59.3355 148.547 132.53 148.547Z" fill="#F3F3F3"/>
<path d="M123.265 132.514H68.5244V134.545H123.265V132.514Z" fill="#F1F1F1"/>
<path fill-rule="evenodd" clip-rule="evenodd" d="M128.344 38.5591C128.344 38.5591 132.015 36.8985 133.067 30.2395C134.118 23.5806 131.259 15.6233 139.793 10.0677C148.327 4.51203 166.574 13.4668 160.227 25.4418C152.722 39.6178 128.744 40.1137 128.344 38.5591Z" fill="#A2D855"/>
<path fill-rule="evenodd" clip-rule="evenodd" d="M124.691 37.7181C124.691 37.7181 124.185 33.7172 118.132 30.7583C112.085 27.7994 103.651 28.2062 100.847 18.4044C98.0432 8.60264 111.94 -6.24767 121.514 3.33677C132.841 14.6821 126.288 37.785 124.691 37.7181Z" fill="#A2D855"/>
<path fill-rule="evenodd" clip-rule="evenodd" d="M126.641 43.0727C126.641 43.0727 129.451 45.9648 136.06 44.6775C142.669 43.3903 149.161 37.9852 157.289 44.1203C165.417 50.2555 163.247 70.4942 149.84 68.6108C133.974 66.3874 125.323 43.981 126.641 43.0727Z" fill="#A2D855"/>
<path d="M119.128 9.58888L119.05 10.8371L112.864 10.447L112.641 13.9799L118.41 14.3421L118.333 15.5903L112.564 15.2281L112.319 19.073L118.555 19.4687L118.477 20.7169L110.767 20.2321L111.468 9.11523L119.134 9.60003L119.128 9.58888Z" fill="white"/>
<path d="M146.682 16.9997C148.39 17.1055 149.68 17.6293 150.548 18.5599C151.416 19.4905 151.794 20.8502 151.683 22.6333C151.622 23.5695 151.466 24.3886 151.216 25.0963C150.965 25.804 150.604 26.3891 150.136 26.8571C149.669 27.3252 149.091 27.6651 148.401 27.8825C147.711 28.0998 146.904 28.1778 145.981 28.1221L142.17 27.8825L142.871 16.7656L146.682 17.0052V16.9997ZM146.181 26.8794C146.348 26.8906 146.554 26.8906 146.804 26.8794C147.054 26.8683 147.321 26.8237 147.611 26.7401C147.894 26.6565 148.184 26.5339 148.467 26.3668C148.751 26.1996 149.018 25.96 149.252 25.6479C149.491 25.3415 149.697 24.9514 149.864 24.4778C150.031 24.0041 150.142 23.4246 150.187 22.7392C150.231 22.0761 150.203 21.4743 150.103 20.9449C150.009 20.4099 149.825 19.953 149.552 19.5629C149.28 19.1785 148.918 18.872 148.462 18.6491C148.006 18.4262 147.438 18.2924 146.754 18.2534L144.267 18.0974L143.722 26.7234L146.181 26.8794Z" fill="white"/>
<path d="M149.902 50.5907C149.434 50.2007 148.811 49.9833 148.049 49.9332C147.738 49.9109 147.432 49.9276 147.126 49.9666C146.82 50.0112 146.547 50.0948 146.308 50.2285C146.063 50.3567 145.868 50.5406 145.713 50.7746C145.557 51.0087 145.468 51.3096 145.446 51.6718C145.423 52.0117 145.507 52.3014 145.696 52.5243C145.885 52.7472 146.141 52.9423 146.469 53.0983C146.797 53.2543 147.17 53.388 147.593 53.5051C148.01 53.6221 148.439 53.7447 148.873 53.8728C149.306 54.0066 149.729 54.1515 150.146 54.3186C150.564 54.4858 150.931 54.6975 151.254 54.9594C151.576 55.2213 151.827 55.539 152.005 55.9123C152.183 56.2912 152.255 56.7537 152.222 57.2998C152.183 57.8905 152.021 58.3864 151.726 58.7932C151.437 59.1944 151.076 59.5176 150.642 59.7572C150.213 59.9969 149.735 60.1584 149.212 60.2476C148.689 60.3368 148.177 60.3646 147.671 60.3312C147.048 60.2922 146.464 60.1752 145.924 59.9857C145.379 59.7962 144.906 59.5288 144.505 59.1833C144.105 58.8378 143.799 58.4143 143.587 57.9072C143.376 57.4001 143.293 56.8095 143.332 56.1296L144.728 56.2188C144.7 56.6869 144.761 57.0937 144.923 57.4447C145.084 57.7958 145.301 58.0855 145.585 58.3251C145.868 58.5648 146.202 58.7431 146.586 58.8712C146.975 58.9994 147.376 59.0774 147.788 59.1053C148.121 59.1276 148.455 59.1164 148.795 59.0774C149.134 59.0384 149.446 58.9492 149.724 58.8155C150.002 58.6818 150.235 58.4923 150.414 58.2416C150.592 57.9908 150.697 57.6676 150.725 57.2608C150.753 56.854 150.669 56.5587 150.48 56.308C150.291 56.0572 150.035 55.8455 149.707 55.6727C149.379 55.5 149.006 55.3551 148.589 55.2325C148.172 55.1099 147.743 54.9873 147.309 54.8647C146.875 54.7366 146.447 54.5972 146.035 54.4412C145.624 54.2852 145.251 54.0902 144.923 53.8561C144.6 53.6221 144.344 53.3323 144.166 52.9813C143.982 52.6302 143.91 52.2011 143.943 51.6941C143.977 51.1312 144.122 50.6576 144.377 50.262C144.633 49.8663 144.956 49.5487 145.351 49.3091C145.746 49.0695 146.191 48.8967 146.681 48.7964C147.17 48.6961 147.671 48.6627 148.177 48.6961C148.745 48.7296 149.273 48.8354 149.751 48.997C150.23 49.1642 150.642 49.4038 150.992 49.7159C151.343 50.0279 151.61 50.4124 151.793 50.8693C151.977 51.3263 152.06 51.8557 152.044 52.4742L150.647 52.385C150.614 51.5826 150.363 50.9808 149.896 50.5963L149.902 50.5907Z" fill="white"/>
<path d="M201.748 46.207H164.594V125.875H201.748V46.207Z" fill="#E9E9E9"/>
<path d="M175.331 50.1719H169.537V55.9753H175.331V50.1719Z" fill="white"/>
<path d="M175.331 60.0801H169.537V65.8835H175.331V60.0801Z" fill="white"/>
<path d="M184.513 50.1719H178.719V55.9753H184.513V50.1719Z" fill="white"/>
<path d="M184.513 60.0801H178.719V65.8835H184.513V60.0801Z" fill="white"/>
<path d="M175.331 69.9824H169.537V75.7858H175.331V69.9824Z" fill="white"/>
<path d="M184.513 69.9824H178.719V75.7858H184.513V69.9824Z" fill="white"/>
<path d="M201.748 125.876V63.8984L164.594 125.876H201.748Z" fill="#E6E4E4"/>
<path d="M175.471 80.0293H169.677V85.8327H175.471V80.0293Z" fill="white"/>
<path d="M184.648 80.0293H178.854V85.8327H184.648V80.0293Z" fill="white"/>
<path d="M175.331 90.0781H169.537V95.8815H175.331V90.0781Z" fill="white"/>
<path d="M184.513 90.0781H178.719V95.8815H184.513V90.0781Z" fill="white"/>
<path d="M175.044 100.121H169.25V105.924H175.044V100.121Z" fill="white"/>
<path d="M184.229 100.121H178.436V105.924H184.229V100.121Z" fill="white"/>
<path d="M175.044 110.029H169.25V115.833H175.044V110.029Z" fill="white"/>
<path d="M184.229 110.029H178.436V115.833H184.229V110.029Z" fill="white"/>
<path d="M222.534 81.3027H201.661V126.062H222.534V81.3027Z" fill="#E9E9E9"/>
<path d="M207.697 83.5254H204.444V86.783H207.697V83.5254Z" fill="white"/>
<path d="M207.697 89.0957H204.444V92.3533H207.697V89.0957Z" fill="white"/>
<path d="M212.855 83.5254H209.603V86.783H212.855V83.5254Z" fill="white"/>
<path d="M212.855 89.0957H209.603V92.3533H212.855V89.0957Z" fill="white"/>
<path d="M207.697 94.6602H204.444V97.9177H207.697V94.6602Z" fill="white"/>
<path d="M212.855 94.6602H209.603V97.9177H212.855V94.6602Z" fill="white"/>
<path d="M222.539 126.062V91.2422L201.661 126.062H222.539Z" fill="#E5E4E4"/>
<path d="M207.776 100.303H204.523V103.56H207.776V100.303Z" fill="white"/>
<path d="M212.935 100.303H209.683V103.56H212.935V100.303Z" fill="white"/>
<path d="M207.697 105.951H204.444V109.209H207.697V105.951Z" fill="white"/>
<path d="M212.855 105.951H209.603V109.209H212.855V105.951Z" fill="white"/>
<path d="M207.533 111.592H204.28V114.849H207.533V111.592Z" fill="white"/>
<path d="M212.692 111.592H209.439V114.849H212.692V111.592Z" fill="white"/>
<path d="M207.533 117.156H204.28V120.414H207.533V117.156Z" fill="white"/>
<path d="M212.692 117.156H209.439V120.414H212.692V117.156Z" fill="white"/>
<path d="M205.359 70.4338L214.81 79.6663C216.195 81.0535 216.941 82.8979 216.884 84.8618L216.195 100.905L215.847 127.335H225.178L223.622 89.8806L223.275 84.9189C223.104 82.264 224.084 79.6663 226.039 77.8218L233.758 70.4338L234.795 69.3947H229.956L222.984 75.6293C222.87 75.7436 222.694 75.6293 222.694 75.515L222.751 66.0488H217.854L217.911 75.9151C217.911 76.0865 217.74 76.1437 217.621 76.0294L207.942 68.3556L203.735 68.4699L205.349 70.4338H205.359Z" fill="#AAAAAA"/>
<path d="M242.984 69.5655C237.74 70.8332 213.485 69.5655 196.545 69.3369C195.678 69.3369 194.817 69.2226 193.951 69.046C188.365 67.7783 185.138 64.3129 183.178 59.6992C182.488 58.0834 182.14 56.3533 182.197 54.5609C182.312 50.5811 183.868 47.23 187.037 44.6946C184.905 41.1149 183.811 37.0209 184.734 32.2306C185.081 30.5005 185.771 28.8847 186.638 27.4403C189.174 23.2839 192.286 20.0523 196.721 18.8418C199.833 10.1289 205.881 6.32058 213.024 4.12808C219.881 3.03183 224.835 5.16718 228.466 9.84314C240.909 8.28449 247.538 13.3034 246.615 26.9831C253.934 31.4253 256.641 37.1403 256.584 43.5464C260.677 46.5494 262.347 50.1811 262.171 54.2803C261.88 60.0525 257.964 65.0714 252.549 67.0925C249.613 68.1887 246.615 68.8226 245.002 69.0564C244.312 69.285 243.617 69.4045 242.984 69.5759V69.5655Z" fill="#3DBCC8"/>
<path d="M243.267 71.7641C238.137 72.9747 214.23 71.7641 197.58 71.5355C196.714 71.5355 195.853 71.4212 195.044 71.2446C189.571 69.9769 186.345 66.6258 184.441 62.0693C183.752 60.4535 183.404 58.7234 183.461 57.0505C183.575 53.1279 185.074 49.8391 188.186 47.3556C186.055 43.8331 185.017 39.7962 185.941 35.0631C186.288 33.3901 186.921 31.7743 187.844 30.33C190.324 26.2307 193.431 23.0562 197.757 21.9028C200.812 13.3614 206.803 9.55312 213.774 7.41776C220.517 6.32151 225.414 8.45686 228.925 13.0133C241.198 11.4547 247.707 16.4164 246.784 29.8624C253.984 34.2474 256.696 39.8481 256.634 46.1918C260.67 49.1325 262.34 52.7122 262.107 56.7543C261.816 62.4694 257.957 67.3739 252.656 69.3326C249.777 70.4289 246.836 71.0056 245.223 71.2965C244.59 71.4109 243.957 71.5875 243.262 71.7589L243.267 71.7641Z" fill="#65C8D0"/>
<path d="M75.9789 14.3359L80.2472 15.076C78.6901 17.7855 78.0306 20.4155 79.264 22.3911L73.6035 21.4064C75.0812 20.0119 76.3086 16.8864 75.985 14.3359H75.9789Z" fill="#EDBD98"/>
<path fill-rule="evenodd" clip-rule="evenodd" d="M127.335 110.332C128.813 111.152 129.307 112.962 128.483 114.443L117.98 133.262C117.486 134.247 116.423 134.822 115.355 134.822H65.3014C63.6588 134.822 62.2666 133.507 62.2666 131.782C62.2666 130.057 63.5795 128.742 65.3014 128.742H113.547L123.232 111.482C124.05 110.088 125.857 109.513 127.335 110.332Z" fill="#3DBCC8"/>
<path fill-rule="evenodd" clip-rule="evenodd" d="M51.1854 137.042C53.6463 137.042 55.698 134.987 55.698 132.523C55.698 130.058 53.6463 128.003 51.1854 128.003C48.7246 128.003 46.6729 130.058 46.6729 132.523C46.6729 134.987 48.6452 137.042 51.1854 137.042ZM51.1854 143.122C57.0108 143.122 61.6882 138.437 61.6882 132.602C61.6882 126.767 57.0108 122.082 51.1854 122.082C45.36 122.082 40.6826 126.767 40.6826 132.602C40.6826 138.357 45.36 143.122 51.1854 143.122Z" fill="#20505A"/>
<path fill-rule="evenodd" clip-rule="evenodd" d="M137.1 137.042C139.561 137.042 141.613 134.987 141.613 132.523C141.613 130.058 139.561 128.003 137.1 128.003C134.64 128.003 132.588 130.058 132.588 132.523C132.588 134.987 134.64 137.042 137.1 137.042ZM137.1 143.122C142.926 143.122 147.603 138.437 147.603 132.602C147.603 126.767 142.926 122.082 137.1 122.082C131.275 122.082 126.598 126.767 126.598 132.602C126.598 138.437 131.275 143.122 137.1 143.122Z" fill="#20505A"/>
<path fill-rule="evenodd" clip-rule="evenodd" d="M115.03 73.5982C116.508 72.8581 118.316 73.5187 119.048 75.0783L120.441 78.1181C121.18 79.5983 120.52 81.4087 118.963 82.1426C117.485 82.8827 115.678 82.2222 114.945 80.6625L113.553 77.6227C112.814 76.063 113.473 74.3382 115.03 73.5982Z" fill="#20505A"/>
<path fill-rule="evenodd" clip-rule="evenodd" d="M120.363 103.017L126.762 119.207C127.092 120.112 127.996 121.342 128.814 121.917C129.882 122.657 131.03 122.901 132.258 122.082C133.735 121.012 133.326 117.892 132.178 115.427L130.786 112.388L120.363 86.9927L111.777 64.6621L107.069 67.1025L120.363 103.017Z" fill="#65C8D0"/>
<path fill-rule="evenodd" clip-rule="evenodd" d="M107.066 67.1817L101.649 52.2212C101.979 52.2212 99.7626 52.1417 98.4498 52.7166C97.7109 53.0469 95.9034 54.0316 95.6592 53.8665C94.6761 53.4567 94.0166 52.7166 94.0166 51.4811C94.0166 50.3313 94.7555 49.7563 95.7386 49.5912L102.223 49.0958L101.979 47.8603L97.0575 48.2701L96.8927 47.4505L103.622 46.9551L104.196 49.6646C105.344 49.8297 106.412 50.2395 107.066 51.5545L111.823 64.7841L107.066 67.1694V67.1817Z" fill="#1A1A1A"/>
<path fill-rule="evenodd" clip-rule="evenodd" d="M113.378 66.0257C113.029 65.9095 112.327 66.1726 112.327 66.1726L113.891 70.1977L114.483 69.9652C114.483 69.9652 114.428 66.3867 113.371 66.0319L113.378 66.0257Z" fill="#1A1A1A"/>
<g opacity="0.96">
<path d="M118.231 89.128C117.986 89.2075 117.821 89.3727 117.657 89.5379L117.162 88.2227L116.423 88.553L117.492 91.1039C117.821 91.7584 118.64 92.0887 119.299 91.844C120.038 91.5137 120.368 90.694 120.118 89.9538C119.788 89.2136 118.884 88.8833 118.231 89.1341V89.128ZM118.97 91.0182C118.64 91.1834 118.231 91.0182 118.151 90.6879C117.986 90.3576 118.151 89.9477 118.481 89.8682C118.811 89.703 119.22 89.8682 119.299 90.1985C119.464 90.5288 119.299 90.9387 118.97 91.0182Z" fill="white"/>
<path d="M121.352 96.9375C120.613 97.2678 120.283 98.008 120.613 98.7482L121.187 100.063L121.926 99.7331L121.352 98.4179C121.187 98.0875 121.352 97.7633 121.682 97.5982C122.012 97.433 122.342 97.5982 122.5 97.9285L123.074 99.2437L123.813 98.9134L123.239 97.5982C122.91 96.9375 122.091 96.6133 121.352 96.9375Z" fill="white"/>
<path d="M120.035 93.6462C119.87 93.7257 119.705 93.9765 119.791 94.1416L120.609 96.3622L121.428 96.0319L120.524 93.897C120.444 93.7318 120.279 93.5666 120.029 93.6523L120.035 93.6462Z" fill="white"/>
<path d="M119.716 93.4031C119.99 93.4031 120.211 93.1813 120.211 92.9076C120.211 92.634 119.99 92.4121 119.716 92.4121C119.443 92.4121 119.222 92.634 119.222 92.9076C119.222 93.1813 119.443 93.4031 119.716 93.4031Z" fill="white"/>
<path d="M113.144 76.5518C112.899 76.6314 112.734 76.7965 112.57 76.9617L112.075 75.6465L111.336 75.9768L112.405 78.5277C112.734 79.1822 113.553 79.5126 114.212 79.2679C114.951 78.9375 115.281 78.1178 115.031 77.3777C114.701 76.6375 113.797 76.3071 113.144 76.5579V76.5518ZM113.883 78.5216C113.553 78.6867 113.144 78.5216 113.064 78.1912C112.899 77.8609 113.064 77.4511 113.394 77.3715C113.724 77.2064 114.133 77.3715 114.212 77.7019C114.377 77.9466 114.212 78.3625 113.883 78.5216Z" fill="white"/>
<path d="M116.257 84.3629C115.519 84.6932 115.189 85.4334 115.519 86.1735L116.093 87.4887L116.832 87.1584L116.257 85.8432C116.093 85.5129 116.257 85.1887 116.587 85.0235C116.917 84.8584 117.247 85.0235 117.406 85.3538L117.98 86.669L118.719 86.3387L118.145 85.0235C117.815 84.4485 116.996 84.1182 116.257 84.3629Z" fill="white"/>
<path d="M114.941 81.1571C114.777 81.2366 114.612 81.4874 114.697 81.6525L115.516 83.8731L116.334 83.5428L115.43 81.4079C115.351 81.1632 115.1 81.0775 114.935 81.1632L114.941 81.1571Z" fill="white"/>
<path d="M114.614 80.8269C114.887 80.8269 115.109 80.6051 115.109 80.3314C115.109 80.0578 114.887 79.8359 114.614 79.8359C114.341 79.8359 114.119 80.0578 114.119 80.3314C114.119 80.6051 114.341 80.8269 114.614 80.8269Z" fill="white"/>
</g>
<path d="M81.304 118.307V124.142L85.9814 122.087L85.4868 121.346C85.2425 121.016 85.157 120.606 85.157 120.197L85.2364 118.637L81.2979 118.307H81.304Z" fill="#FFD2C1"/>
<path d="M43.0667 101.127C41.6745 102.521 39.4579 103.427 36.9971 104.167C38.1451 105.561 39.293 106.876 40.7708 107.457C42.163 106.638 43.6407 105.402 44.8742 104.087L43.0667 101.127Z" fill="#FFD2C1"/>
<path d="M81.3888 31.5956L83.8496 35.9504C84.1794 36.6049 84.6679 37.1003 85.2419 37.5957L96.2393 45.8955C97.3079 46.7151 98.1261 47.865 98.7001 49.1861C98.865 49.5959 99.0299 50.0057 99.0299 50.4216C99.0299 51.076 98.7856 51.5715 98.3704 52.391C97.8758 53.3758 97.6315 53.4614 95.9889 53.0455C95.9095 53.2106 96.7278 52.3054 97.0575 51.5653C97.3873 50.7458 96.8927 49.2656 96.2393 48.6907C94.9264 47.5408 93.6136 46.6356 92.3007 45.816C91.971 45.6509 91.6413 45.4857 91.3176 45.4857C89.101 45.076 86.8845 44.3359 84.5885 43.3512C84.1794 43.186 83.7703 42.9414 83.4405 42.6111C81.0591 40.3909 79.0928 37.7609 76.7969 34.3113L81.3094 31.2715L81.3888 31.6018V31.5956Z" fill="#DBAD8D"/>
<path d="M81.3836 31.5973L84.0093 36.6922C84.339 37.3466 84.8275 37.842 85.4015 38.3374L96.3989 46.6373C97.4675 47.4568 98.2858 48.6067 98.9452 50.0073C99.1101 50.4171 99.1895 51.0777 99.1895 51.4875C99.1895 51.6526 99.1101 51.8178 99.1101 51.8973C98.9452 52.7169 98.3713 53.3774 97.6324 53.6221C96.5638 54.1175 95.251 54.0319 94.8418 53.3774C95.4158 53.7077 95.9104 53.0471 96.2341 52.4722C96.4783 51.9768 96.7287 51.4018 96.7287 50.7474C96.7287 50.252 96.7287 49.6771 96.3196 49.4324C94.9273 48.5272 93.6938 47.3773 92.381 46.5577C92.0513 46.3926 91.7215 46.2275 91.3979 46.2275C89.1813 45.8177 86.9647 45.0776 84.6688 44.0929C84.2596 43.9277 83.8505 43.6831 83.5208 43.3528C81.0599 41.1326 78.6785 37.9277 76.4619 34.3924L81.1393 31.1875L81.3836 31.5973Z" fill="#EDBD98"/>
<path d="M81.8814 3.40625C81.8814 3.40625 83.9331 6.36654 83.2737 8.33598C83.1943 8.66626 83.1088 8.91092 83.0294 9.07606C82.7852 10.2259 83.1943 10.1464 83.8477 10.8009C84.3423 11.2963 83.8477 11.7061 83.5179 11.8712C83.353 11.9507 83.1882 12.2015 83.1882 12.4461V12.9416C83.1882 13.0211 83.5973 13.7673 82.6936 13.6816C81.7776 13.596 80.8067 13.1801 80.7212 13.1862C80.7518 13.2168 82.4249 13.6877 82.8523 13.9263C82.8523 13.9263 83.1821 14.0914 83.0966 14.2566C83.0172 14.4217 82.7668 14.5868 82.6875 14.8315C82.6081 15.0761 82.5226 15.8162 82.2783 16.1465C82.0341 16.4768 80.0618 16.8866 78.9932 16.4768C78.1749 16.1465 76.9414 15.8223 76.4468 15.7367C76.282 15.7367 76.0377 15.2413 75.8728 15.1618C75.6286 14.9171 75.0546 14.752 74.4806 14.3422C73.4975 13.6021 74.4012 13.3575 74.4806 12.9477C74.56 12.5379 74.8104 11.7978 74.6455 11.5532C74.4806 11.3085 73.7418 10.2382 73.6624 9.74273C73.4181 9.00266 73.9921 7.93231 74.3219 7.60814C74.6516 7.28398 75.3905 7.11272 75.7996 7.443C76.1293 7.77328 76.7827 8.18308 77.033 7.93842C77.2773 7.60814 79.4145 4.48883 79.903 4.23807C80.3121 4.15855 81.8692 3.41848 81.8692 3.41848L81.8814 3.40625Z" fill="#F4D2BA"/>
<path fill-rule="evenodd" clip-rule="evenodd" d="M96.8168 47.4557L97.7268 47.3945L98.2825 48.1775L96.8962 48.2815L96.5664 47.4802L96.8168 47.4557Z" fill="#1A1A1A"/>
<path d="M40.3993 103.231C40.8939 104.173 38.3903 105.311 39.1231 106.063C39.3612 106.277 39.807 106.644 40.2894 106.589C40.9 106.436 40.8939 106.614 41.358 106.51C41.761 106.4 42.5243 106.259 42.4022 106.546C42.2312 107.427 41.0283 109.183 41.6572 111.592L42.2129 114.326C42.2434 114.455 42.3167 114.871 42.3533 115.011C43.0006 117.641 41.7732 118.498 40.2161 119.366C39.9047 119.537 39.52 119.409 39.3429 119.097L35.0197 110.198L32.6443 105.611C32.5588 105.403 32.5955 105.011 32.8092 104.828C33.8656 104.02 37.4805 102.259 38.9521 102.473C39.6604 102.522 40.2283 102.907 40.4054 103.219L40.3993 103.231Z" fill="#101011"/>
<path d="M40.5544 109.813C40.3407 109.636 40.1513 109.428 40.1208 109.201C40.0964 109.03 40.1696 108.865 40.3407 108.724C40.5849 108.516 40.8109 108.449 41.0124 108.529C41.3606 108.657 41.5193 109.195 41.5499 109.373C41.5926 109.636 41.3361 110.217 41.33 110.241L41.3178 110.278L41.2812 110.26C41.2812 110.26 40.8781 110.07 40.5605 109.813H40.5544ZM41.1163 108.675C41.0796 108.645 41.0369 108.62 40.988 108.602C40.817 108.535 40.6155 108.602 40.3895 108.785C40.2429 108.908 40.1758 109.048 40.1941 109.195C40.2552 109.648 41.0918 110.088 41.2751 110.174C41.33 110.046 41.5071 109.587 41.4766 109.385C41.4522 109.244 41.3422 108.859 41.1163 108.675Z" fill="#AAB2B2"/>
<path d="M42.1096 109.972C42.3845 109.923 42.6654 109.923 42.8547 110.045C43.0013 110.143 43.0746 110.302 43.0685 110.529C43.0624 110.847 42.9646 111.061 42.7753 111.165C42.4516 111.342 41.9386 111.11 41.786 111.012C41.5661 110.871 41.2913 110.296 41.2791 110.272L41.2607 110.235L41.2974 110.217C41.2974 110.217 41.7066 110.033 42.1096 109.966V109.972ZM42.5982 111.146C42.6471 111.14 42.6959 111.122 42.7387 111.098C42.9036 111.012 42.983 110.816 42.9891 110.529C42.9891 110.333 42.9341 110.192 42.812 110.113C42.4272 109.856 41.5539 110.204 41.3646 110.278C41.4256 110.406 41.6516 110.841 41.8226 110.951C41.9447 111.024 42.3051 111.195 42.5921 111.146H42.5982Z" fill="#AAB2B2"/>
<path d="M41.2572 110.186C41.2572 110.186 40.8724 110.534 40.4449 110.577C40.0174 110.62 39.6815 110.693 39.4494 110.877C39.2174 111.06 39.2357 111.201 39.2357 111.201C39.2357 111.201 39.2601 111.244 39.3823 111.091C39.5044 110.938 39.4617 111.011 39.6754 110.883C39.9075 110.742 40.4449 110.724 40.6892 110.638C40.9335 110.553 41.306 110.369 41.3243 110.314C41.3427 110.259 41.2572 110.186 41.2572 110.186Z" fill="#AAB2B2"/>
<path d="M41.3027 110.154C41.3027 110.154 41.205 110.662 40.8813 110.956C40.5577 111.249 40.3378 111.5 40.2584 111.788C40.179 112.075 40.2828 112.179 40.2828 112.179C40.2828 112.179 40.3317 112.197 40.3378 112.008C40.3439 111.818 40.3561 111.898 40.4477 111.665C40.5516 111.414 40.973 111.078 41.1195 110.864C41.2661 110.65 41.4554 110.283 41.4371 110.222C41.4188 110.16 41.3089 110.16 41.3089 110.16L41.3027 110.154Z" fill="#AAB2B2"/>
<path d="M41.3854 110.443C41.5136 110.443 41.6175 110.339 41.6175 110.211C41.6175 110.083 41.5136 109.979 41.3854 109.979C41.2572 109.979 41.1533 110.083 41.1533 110.211C41.1533 110.339 41.2572 110.443 41.3854 110.443Z" fill="#AAB2B2"/>
<path d="M43.0625 101.126C50.2007 94.2207 57.7481 89.1259 65.5458 84.7711C66.6144 84.031 67.3533 82.8811 67.6769 81.5661L73.2581 58.8013L74.4915 48.2812H79.3338C79.6636 60.7768 77.2027 70.881 74.6564 84.031C74.3267 86.2512 73.0138 88.2207 71.0476 89.291L44.7906 104.086L43.0686 101.126H43.0625Z" fill="#FFD2C1"/>
<path d="M81.3026 118.306C80.5943 108.404 80.3989 98.055 82.6155 85.8407C79.7455 75.8956 79.1715 62.6661 79.4158 48.2806L83.6841 47.7852C87.3051 60.3419 91.8116 72.6723 90.2483 87.4799C87.9463 98.3118 86.3892 108.599 85.2412 118.71L81.3026 118.3V118.306Z" fill="#FFD2C1"/>
<path d="M45.9976 105.902C45.9976 105.902 43.6528 103.37 42.1689 99.4858C42.1689 99.4858 43.5001 100.165 46.3456 97.7365C49.1912 95.3145 54.235 91.3266 57.7644 88.7762C61.2938 86.2257 66.9421 84.3357 68.3527 80.8861C69.7632 77.4365 74.6055 48.8306 74.6055 48.8306L76.1199 47.5156L81.5667 47.9254L79.7531 72.4823C79.7531 72.4823 78.3365 90.7089 76.0222 89.3511C72.1752 87.0942 49.2339 101.853 46.0098 105.896L45.9976 105.902Z" fill="#B2AAA8"/>
<path d="M77.4678 47.6998L81.559 83.8715C81.559 86.9541 79.9164 116.581 80.0324 117.707C80.0935 118.3 86.1387 117.707 86.1387 117.707C87.8485 106.282 88.1477 93.6392 89.3933 88.5627C88.7949 84.7767 89.7597 72.6726 89.7353 70.9906C89.7231 70.275 82.3101 45.6875 82.3101 45.6875L77.4678 47.6936V47.6998Z" fill="#B2AAA8"/>
<path d="M91.7913 98.9979C91.2601 99.5667 90.3747 99.6523 89.7457 99.1936C88.6222 98.3801 86.4361 97.163 83.1143 96.8388C78.0033 96.3434 76.2569 99.0957 72.7641 96.1049C69.2713 93.114 68.3127 91.958 62.3407 90.1048C56.3627 88.2577 50.6411 85.6032 50.1281 84.2759C48.8214 80.8692 43.1426 80.3309 42.6296 77.9456C42.1533 75.7559 53.6332 78.1168 56.5886 71.3278C59.544 64.5387 72.6726 59.1747 71.9581 51.8902C71.9581 51.8902 71.7139 45.358 70.3888 41.5903C69.0637 37.8288 69.6988 28.4709 70.23 26.3118C70.6636 24.5626 73.9854 21.0273 73.9854 21.0273L78.8277 21.5228L83.6333 32.2446C83.8654 32.7706 84.018 33.3272 84.0669 33.9021L84.3233 36.7279L84.3661 37.2111C84.3661 37.2111 84.9828 37.9328 85.2271 38.153C85.4713 38.3732 90.1915 41.9328 90.1915 41.9328L92.579 43.7371L92.0173 46.3916L88.4023 45.5109C86.7781 44.9604 85.1599 44.4099 84.3844 43.9573L84.3355 46.2326C84.3355 46.4161 84.36 46.6057 84.4149 46.7831C85.2332 49.4375 89.6053 70.0005 89.7335 70.9975C89.8801 72.1718 93.0859 96.9 92.5851 98.0315C92.3897 98.4719 92.0356 98.741 91.7913 99.004V98.9979Z" fill="#112E44"/>
<path d="M81.8978 3.43038C81.8978 3.43038 79.6018 4.36006 78.2646 6.47629C76.9273 8.59253 76.4449 10.6537 76.3228 11.3571C76.2007 12.0605 76.2617 14.2562 76.8174 14.7394C77.1593 15.0391 77.7639 15.6446 78.3134 15.981C78.6248 16.1706 79.2233 16.3969 79.5835 16.4459C79.8217 16.4764 81.1162 16.5437 81.2505 16.5376C81.4826 16.5192 79.2416 17.8648 78.9241 18.4826C78.5332 19.241 79.8522 23.6325 80.0904 24.1401C80.3102 24.605 73.4406 22.2257 72.427 23.1004C71.7003 23.7242 72.427 18.3236 72.7995 17.663C73.1719 17.0024 73.7704 16.3174 73.5383 15.351C73.3307 14.4825 73.4223 14.1706 72.7323 13.5345C72.0423 12.8984 70.7538 12.1033 70.1799 10.8923C69.6242 9.71793 69.2395 4.65975 72.9155 1.29579C72.9155 1.29579 74.6924 -0.361724 77.3364 0.0725331C79.9804 0.50679 81.5864 2.97166 81.5864 2.97166C81.6963 3.1735 81.8978 3.3264 81.8978 3.43649V3.43038Z" fill="#B2AAA8"/>
<path d="M84.3738 37.2115L84.3311 36.6855L85.2409 37.5969L92.6661 43.1994L92.8982 43.3768L92.6539 43.811L88.5016 40.6489C87.1888 39.6642 85.8637 38.6672 85.2287 38.1535C84.9539 37.9516 84.6608 37.603 84.3677 37.2115H84.3738Z" fill="#0A2333"/>
<path d="M79.5175 24.5374C79.5175 24.5374 76.7269 24.1032 75.1271 23.9747C73.5273 23.8463 71.5855 24.25 70.9015 25.8463C70.2787 27.3081 66.3585 30.7088 64.0381 28.6843C62.0291 26.9289 56.9365 31.7913 55.532 30.7638C54.1276 29.7363 51.0683 30.0604 48.7113 30.7699C46.7817 31.351 44.4125 29.4121 46.2383 27.4365C48.8212 24.6414 44.6995 19.675 47.3557 18.8737C54.7687 16.6352 52.9979 12.2865 58.347 14.9838C64.2884 17.9808 68.2758 15.4119 69.2406 16.6474C70.4192 18.1581 74.9195 19.3753 77.3009 19.149C79.5481 18.9349 79.8289 23.1735 80.2869 23.8035C81.3494 25.2653 80.1404 24.6231 79.5175 24.5374Z" fill="#B2AAA8"/>
<path d="M81.5121 120.827C82.5746 120.79 82.5075 123.542 83.5028 123.212C83.802 123.09 84.321 122.851 84.4859 122.386C84.6141 121.775 84.7668 121.854 84.8828 121.389C84.9622 120.979 85.1637 120.227 85.3652 120.466C86.0858 121.004 87.1421 122.851 89.5724 123.334L92.2714 124.025C92.3997 124.05 92.8088 124.166 92.9492 124.197C95.5932 124.759 95.8314 126.239 95.9352 128.019C95.9535 128.374 95.6726 128.668 95.3123 128.686L85.4324 128.717L80.2726 128.863C80.0527 128.851 79.7108 128.649 79.6375 128.374C79.3688 127.065 79.3566 123.041 80.1932 121.811C80.5474 121.193 81.1397 120.851 81.4938 120.827H81.5121Z" fill="#101011"/>
<path d="M87.493 123.548C87.2427 123.664 86.9678 123.743 86.7541 123.676C86.5892 123.621 86.4793 123.487 86.4243 123.272C86.3449 122.96 86.3815 122.728 86.5403 122.581C86.809 122.324 87.3587 122.416 87.5297 122.465C87.7801 122.538 88.1954 123.022 88.2137 123.04L88.2381 123.071L88.2076 123.095C88.2076 123.095 87.8595 123.376 87.493 123.554V123.548ZM86.7113 122.544C86.6686 122.569 86.6258 122.593 86.5892 122.63C86.4548 122.759 86.4243 122.967 86.4976 123.248C86.5464 123.438 86.638 123.554 86.7785 123.603C87.2121 123.743 87.9694 123.181 88.1282 123.058C88.0366 122.954 87.7068 122.593 87.5053 122.532C87.3709 122.489 86.9739 122.422 86.7113 122.551V122.544Z" fill="#AAB2B2"/>
<path d="M88.3138 122.215C88.3871 121.945 88.5092 121.689 88.7047 121.572C88.8573 121.481 89.0283 121.487 89.2299 121.591C89.5169 121.737 89.6635 121.921 89.6757 122.129C89.694 122.502 89.2604 122.857 89.1077 122.955C88.8818 123.096 88.2527 123.089 88.2222 123.089H88.1855V123.053C88.1855 123.053 88.2039 122.606 88.3138 122.215ZM89.578 122.282C89.5902 122.233 89.5963 122.184 89.5963 122.135C89.5902 121.952 89.4497 121.793 89.1932 121.658C89.0222 121.572 88.8696 121.56 88.7413 121.64C88.3443 121.872 88.2711 122.814 88.2649 123.016C88.4054 123.016 88.894 123.004 89.0711 122.894C89.1932 122.82 89.5047 122.563 89.5841 122.282H89.578Z" fill="#AAB2B2"/>
<path d="M88.1366 123.078C88.1366 123.078 88.2893 123.574 88.1366 123.983C87.9839 124.393 87.9106 124.718 87.9717 125.011C88.0328 125.305 88.1732 125.348 88.1732 125.348C88.1732 125.348 88.2221 125.348 88.1366 125.17C88.0511 124.993 88.1 125.066 88.0755 124.815C88.0511 124.54 88.271 124.051 88.2954 123.794C88.3198 123.537 88.3259 123.121 88.2771 123.078C88.2282 123.035 88.1305 123.084 88.1305 123.084L88.1366 123.078Z" fill="#AAB2B2"/>
<path d="M88.1221 123.017C88.1221 123.017 88.5374 123.329 88.6595 123.745C88.7816 124.161 88.916 124.473 89.1359 124.668C89.3557 124.864 89.4962 124.815 89.4962 124.815C89.4962 124.815 89.5328 124.779 89.3618 124.693C89.1908 124.607 89.2702 124.632 89.0992 124.442C88.916 124.234 88.8 123.708 88.6717 123.488C88.5435 123.268 88.2931 122.931 88.232 122.919C88.1709 122.907 88.1221 123.011 88.1221 123.011V123.017Z" fill="#AAB2B2"/>
<path d="M88.2067 123.205C88.3349 123.205 88.4388 123.101 88.4388 122.973C88.4388 122.844 88.3349 122.74 88.2067 122.74C88.0785 122.74 87.9746 122.844 87.9746 122.973C87.9746 123.101 88.0785 123.205 88.2067 123.205Z" fill="#AAB2B2"/>
<path d="M76.8857 9.29609L82.4302 8.61107L82.7417 8.38477L76.9651 9.09426L76.8857 9.29609Z" fill="#303030"/>
<path d="M82.9888 10.4884C82.6895 10.5251 82.4513 9.98674 82.3842 9.45454C82.317 8.92235 82.4086 8.34121 82.7078 8.30451C83.0071 8.26781 83.2453 8.80612 83.3125 9.33832C83.3796 9.87052 83.288 10.4516 82.9888 10.4884ZM82.7262 8.47579C82.604 8.49415 82.4758 8.87341 82.5491 9.43619C82.6223 9.99898 82.8422 10.3354 82.9643 10.3171C83.0865 10.2987 83.2147 9.91945 83.1415 9.35667C83.0682 8.79389 82.8483 8.45744 82.7262 8.47579Z" fill="#303030"/>
<path d="M82.8997 8.43945L83.205 8.53121L83.1745 8.68414L82.8936 8.57403L82.8997 8.43945Z" fill="#303030"/>
</svg>
