<svg width="343" height="233" viewBox="0 0 343 233" fill="none" xmlns="http://www.w3.org/2000/svg">
<path d="M171.408 215.395C258.501 215.395 329.103 207.94 329.103 198.743C329.103 189.547 258.501 182.092 171.408 182.092C84.3153 182.092 13.7126 189.547 13.7126 198.743C13.7126 207.94 84.3153 215.395 171.408 215.395Z" fill="#F3F3F3"/>
<path d="M158.553 194.211H94.2405V196.871H158.553V194.211Z" fill="#F1F1F1"/>
<path d="M280.151 194.211H215.838V196.871H280.151V194.211Z" fill="#F1F1F1"/>
<path d="M56.4272 188.997L57.9585 106.922H59.6699V187.125V188.997H56.4272Z" fill="#686867"/>
<path d="M71.6474 161.21C71.6474 161.21 60.5684 173.822 45.256 160.422C29.9435 147.022 41.2027 128.499 43.5446 122.094C45.8865 115.69 51.0207 112.438 49.4894 101.699C47.9582 90.959 48.1383 87.3134 50.8405 79.234C53.5427 71.1546 57.6861 55.8825 60.1181 57.0649C62.55 58.2472 67.7743 58.7399 68.1346 68.5928C68.4949 78.4458 67.7743 81.4016 71.7375 90.2693C75.7007 99.0384 76.8717 106.724 75.7007 114.212C74.4397 121.7 74.8 123.769 77.6823 130.272C80.5647 136.775 84.2577 140.421 80.5647 149.781C76.6015 159.141 71.6474 161.21 71.6474 161.21Z" fill="#E9CD03"/>
<path d="M70.1169 190.573C69.9367 190.77 65.7934 191.755 63.4515 190.573C60.6592 189.095 63.4515 178.848 63.4515 178.848C63.4515 178.848 66.4239 169.192 67.1445 168.404C67.8651 167.616 68.4956 173.33 69.5764 176.385C70.6573 179.439 70.1169 183.479 70.6573 185.745C71.1978 188.011 71.2878 188.405 70.8375 189.489C70.4772 190.277 70.1169 190.573 70.1169 190.573Z" fill="#0B9D99"/>
<path d="M53.4548 191.852C53.2746 192.049 49.1313 193.035 46.7893 191.852C43.9971 190.374 46.7893 180.127 46.7893 180.127C46.7893 180.127 49.7618 170.471 50.4823 169.683C51.2029 168.895 51.8334 174.61 52.9143 177.664C53.9952 180.719 53.4548 184.758 53.9952 187.024C54.5356 189.291 54.6257 189.685 54.1754 190.769C53.9051 191.655 53.4548 191.852 53.4548 191.852Z" fill="#0B9D99"/>
<path d="M72.4594 190.573C72.6395 190.77 76.7829 191.755 79.1248 190.573C81.9171 189.095 79.1248 178.848 79.1248 178.848C79.1248 178.848 76.1524 169.192 75.4318 168.404C74.7112 167.616 74.0807 173.33 72.9998 176.385C71.9189 179.439 72.4594 183.479 71.9189 185.745C71.3785 188.011 71.2884 188.405 71.7388 189.489C72.009 190.277 72.4594 190.573 72.4594 190.573Z" fill="#0B9D99"/>
<path d="M87.6811 190.079C87.591 190.276 84.1682 191.065 82.1866 190.079C79.8447 188.897 82.1866 180.423 82.1866 180.423C82.1866 180.423 84.6186 172.344 85.2491 171.753C85.7895 171.162 86.4201 175.792 87.2307 178.354C88.1314 180.916 87.6811 184.266 88.1314 186.138C88.5818 188.01 88.5818 188.404 88.3116 189.192C88.0414 189.784 87.6811 190.079 87.6811 190.079Z" fill="#0B9D99"/>
<path d="M42.6454 192.247C42.5554 192.444 39.1326 193.233 37.151 192.247C34.809 191.065 37.151 182.591 37.151 182.591C37.151 182.591 39.5829 174.512 40.2134 173.921C40.7539 173.33 41.3844 177.96 42.1951 180.522C43.0958 183.084 42.6454 186.434 43.0958 188.306C43.5462 190.178 43.5462 190.572 43.2759 191.36C43.0057 192.05 42.6454 192.247 42.6454 192.247Z" fill="#0B9D99"/>
<path d="M32.8264 195.794C32.7363 195.893 29.4036 196.779 27.512 195.794C25.2602 194.612 27.512 186.532 27.512 186.532C27.512 186.532 29.8539 178.847 30.3944 178.256C30.9348 177.665 31.4753 182.197 32.376 184.66C33.1867 187.123 32.8264 190.276 33.1867 192.148C33.637 193.922 33.637 194.316 33.3668 195.104C33.0966 195.597 32.8264 195.794 32.8264 195.794Z" fill="#0B9D99"/>
<path d="M275.333 91.68C275.673 94.3756 286.209 108.876 292.158 109.341C292.243 109.341 292.327 109.341 292.497 109.341C292.922 109.341 293.347 109.155 293.772 108.969C295.896 107.482 304.479 101.347 307.453 97.6288L306.943 93.8178C302.439 95.491 292.497 102.183 292.497 102.183C292.497 102.183 292.073 102.369 291.903 102.09C284.085 94.0967 280.516 91.1222 277.967 88.9844L275.333 91.68Z" fill="#D7A887"/>
<path d="M260.463 188.35C260.888 189.558 260.123 194.02 260.038 195.414C260.888 196.715 263.012 195.693 263.267 194.298C263.267 194.112 263.437 194.112 263.437 193.741C263.182 192.904 263.692 189.651 264.287 187.885L260.463 188.35Z" fill="#F8AB90"/>
<path d="M273.633 190.302C273.973 191.51 272.953 194.485 272.868 195.972C273.633 197.366 275.842 196.436 276.182 195.042C276.182 194.856 276.352 194.856 276.352 194.485C276.012 193.555 276.777 190.952 277.542 189.279L273.633 190.302Z" fill="#F8AB90"/>
<path d="M273.464 120.959H281.451C285.445 134.158 286.634 149.123 284.255 163.995C284.085 165.111 283.83 166.226 283.49 167.342L280.771 190.393C278.732 191.323 272.784 190.672 270.744 190.115C273.464 181.563 274.993 174.034 275.588 165.761C275.843 164.46 275.843 161.764 275.843 161.764C276.778 148.937 274.058 124.212 273.464 120.959Z" fill="#8BA943"/>
<path d="M267.005 190.209C264.286 191.046 260.547 189.651 258.423 188.722L263.606 163.067C263.691 162.603 263.691 162.045 263.691 161.58L261.822 130.813C261.822 130.07 261.822 129.326 261.907 128.582C262.247 125.887 262.841 121.983 263.861 120.682H274.313C277.287 135.926 276.777 148.939 275.588 156.282C275.503 156.933 274.908 164.09 274.228 166.135L267.005 190.209Z" fill="#8BA943"/>
<path d="M281.45 121.147L263.691 121.426L263.606 120.589L281.365 120.496L281.45 121.147Z" fill="#778E30"/>
<path d="M268.111 70.1152L274.229 70.7659C272.444 73.8333 271.085 76.5289 273.124 78.6667L267.261 78.109C269.3 76.6218 268.96 72.9967 268.111 70.1152Z" fill="#ECBC97"/>
<path d="M274.23 57.4746C274.23 57.4746 276.524 60.542 276.014 62.7728C275.93 63.1446 275.93 63.4235 275.845 63.6094C275.59 64.9107 275.59 64.8178 276.864 65.4684C277.544 65.8402 276.949 66.4909 276.609 66.7697C276.439 66.9556 276.354 67.1415 276.354 67.4204C276.354 67.6992 276.439 67.9781 276.439 67.9781C276.439 68.0711 276.694 68.8146 276.014 68.8146C272.616 68.9076 275.42 68.8146 276.184 69.0935C276.184 69.0935 276.524 69.2794 276.439 69.4653C276.354 69.6512 276.099 69.9301 276.014 70.2089C275.93 70.4878 275.929 71.3244 275.76 71.6962C275.59 72.068 273.635 72.7186 272.446 72.3468C271.511 72.0679 270.321 71.7891 269.811 71.6962C269.641 71.6962 269.302 71.2314 269.217 71.0455C268.962 70.8596 268.282 70.6737 267.772 70.3019C266.752 69.5583 267.602 69.1865 267.687 68.7217C267.772 68.257 267.942 67.4204 267.772 67.1415C267.602 66.8627 266.752 65.7473 266.582 65.2825C266.327 64.5389 266.752 63.2376 267.092 62.7728C267.432 62.3081 268.112 62.1222 268.537 62.494C268.877 62.7728 269.302 62.7729 269.472 62.4011C269.726 61.9363 271.936 58.776 272.361 58.4971C272.785 58.2183 274.23 57.4746 274.23 57.4746Z" fill="#ECBC97"/>
<path d="M276.353 59.426C276.268 59.7978 276.098 60.0767 275.928 60.3555C275.673 60.8203 275.248 61.1921 274.738 61.378C273.209 62.0286 271.934 62.6793 270.49 62.5863C269.895 62.4934 269.385 62.8652 269.13 63.5158C268.96 64.0735 268.62 64.4454 268.28 64.8172C267.685 65.4678 267.516 66.4903 267.77 67.3269C268.195 68.5352 269.895 72.9039 269.47 73.9264C270.405 82.5708 262.247 92.5166 255.109 85.8241C251.71 81.8272 258.338 75.0418 258.508 70.859C258.253 65.5608 262.162 61.0062 262.587 59.8908C262.757 59.519 262.927 59.2401 263.182 58.9613C264.202 57.8459 265.051 56.3586 265.901 55.708C266.666 55.0573 267.516 54.6855 268.45 54.3137C269.895 53.756 271.509 53.9419 272.869 54.8714C274.313 55.8009 275.588 57.1023 276.098 58.2177C276.438 58.5895 276.523 59.0542 276.353 59.426Z" fill="#BC9D02"/>
<path d="M268.621 64.5388C268.451 64.167 268.196 63.8882 267.941 63.7952C267.857 63.7023 267.687 63.7952 267.602 63.7952C266.837 64.167 266.667 64.8177 267.007 65.6542C267.007 65.6542 267.007 65.6542 267.007 65.7472C267.517 66.5837 267.857 66.7696 268.536 67.1414L268.621 64.5388Z" fill="#ECBC97"/>
<path d="M260.039 192.811C261.313 193.462 262.588 193.462 263.948 192.625C264.033 192.625 264.118 192.625 264.118 192.718C264.882 194.205 265.647 196.157 266.837 197.273C268.111 198.202 269.641 198.853 271.34 199.41C271.51 199.503 271.765 199.596 272.02 199.503C272.87 199.503 273.465 199.596 274.06 199.968C274.144 199.968 274.229 200.061 274.314 200.061C274.654 200.247 274.824 200.712 274.909 201.269C274.909 201.641 274.739 201.92 274.484 202.106C273.125 202.943 271.34 203.314 269.216 203.314L265.307 202.757L259.104 202.199L258.424 201.92C258.339 201.827 258.254 201.734 258.254 201.641C258.254 200.526 258.424 199.318 258.849 198.109C258.934 197.737 259.189 197.273 259.359 196.901C259.869 195.878 260.039 194.577 259.954 193.09C259.869 192.811 259.954 192.718 260.039 192.811Z" fill="#F6921E"/>
<path d="M258.256 200.061C258.086 200.061 258.001 201.362 258.086 201.641C258.171 202.013 259.36 202.198 259.615 202.198C260.55 202.384 261.654 202.384 262.674 202.477L266.158 202.849C267.178 203.035 268.282 203.221 269.472 203.221C270.407 203.221 271.341 203.128 272.276 202.849C273.041 202.663 273.721 202.384 274.401 201.92C274.485 201.827 274.57 201.827 274.57 201.641C274.74 201.176 274.74 200.432 274.061 200.061C273.296 200.525 272.106 200.804 270.832 201.083C269.897 201.269 268.792 201.362 267.603 201.269C265.733 201.176 263.949 201.083 262.334 200.711C260.89 200.618 259.445 200.432 258.256 200.061Z" fill="#CD751D"/>
<path d="M271.765 199.41C271.68 200.061 271.68 200.526 271.935 200.898C272.87 200.712 273.635 200.433 274.315 200.061C273.635 199.596 272.785 199.317 271.765 199.41Z" fill="#F05A24"/>
<path d="M263.779 194.39C263.967 194.39 264.119 194.224 264.119 194.018C264.119 193.813 263.967 193.646 263.779 193.646C263.591 193.646 263.439 193.813 263.439 194.018C263.439 194.224 263.591 194.39 263.779 194.39Z" fill="#D7CCC2"/>
<path d="M264.374 195.693C264.561 195.693 264.713 195.526 264.713 195.321C264.713 195.116 264.561 194.949 264.374 194.949C264.186 194.949 264.034 195.116 264.034 195.321C264.034 195.526 264.186 195.693 264.374 195.693Z" fill="#D7CCC2"/>
<path d="M264.886 196.808C265.073 196.808 265.225 196.642 265.225 196.436C265.225 196.231 265.073 196.064 264.886 196.064C264.698 196.064 264.546 196.231 264.546 196.436C264.546 196.642 264.698 196.808 264.886 196.808Z" fill="#D7CCC2"/>
<path d="M265.734 197.923C265.922 197.923 266.074 197.757 266.074 197.551C266.074 197.346 265.922 197.18 265.734 197.18C265.547 197.18 265.395 197.346 265.395 197.551C265.395 197.757 265.547 197.923 265.734 197.923Z" fill="#D7CCC2"/>
<path d="M266.666 198.665C266.854 198.665 267.006 198.499 267.006 198.294C267.006 198.088 266.854 197.922 266.666 197.922C266.478 197.922 266.326 198.088 266.326 198.294C266.326 198.499 266.478 198.665 266.666 198.665Z" fill="#D7CCC2"/>
<path d="M267.997 199.231C268.141 199.1 268.16 198.865 268.039 198.708C267.919 198.55 267.704 198.53 267.56 198.662C267.416 198.793 267.398 199.028 267.518 199.185C267.639 199.343 267.853 199.363 267.997 199.231Z" fill="#D7CCC2"/>
<path d="M269.017 199.635C269.125 199.536 269.139 199.36 269.049 199.242C268.958 199.124 268.797 199.109 268.69 199.208C268.582 199.307 268.567 199.482 268.658 199.6C268.748 199.718 268.909 199.734 269.017 199.635Z" fill="#D7CCC2"/>
<path d="M270.365 199.926C270.434 199.792 270.391 199.622 270.269 199.546C270.146 199.47 269.99 199.518 269.921 199.652C269.852 199.786 269.895 199.956 270.018 200.032C270.14 200.107 270.296 200.06 270.365 199.926Z" fill="#D7CCC2"/>
<path d="M264.458 194.948C264.713 194.855 265.053 194.855 265.223 195.041C265.308 195.227 265.393 195.413 265.478 195.505C265.223 195.32 264.798 195.413 264.628 195.413C264.713 195.227 264.628 195.041 264.458 194.948Z" fill="#686461"/>
<path d="M264.969 196.065C265.223 195.972 265.563 195.786 265.818 195.879C265.903 195.972 265.988 196.065 266.073 196.251C265.733 196.158 265.308 196.344 265.223 196.437C265.223 196.251 265.138 196.158 264.969 196.065Z" fill="#686461"/>
<path d="M265.733 197.179C265.903 196.993 266.328 196.9 266.583 196.9C266.668 196.993 266.753 197.086 266.923 197.179C266.583 197.179 266.158 197.365 265.988 197.551C265.988 197.365 265.903 197.179 265.733 197.179Z" fill="#686461"/>
<path d="M266.752 197.923C266.922 197.737 267.177 197.644 267.517 197.551C267.602 197.644 267.772 197.644 267.942 197.83C267.602 197.923 267.262 198.201 267.092 198.294C267.007 198.201 266.922 198.016 266.752 197.923Z" fill="#686461"/>
<path d="M267.773 198.573C267.943 198.294 268.113 198.201 268.368 198.201C268.538 198.294 268.538 198.294 268.708 198.387C268.453 198.573 268.198 198.852 268.113 198.945C268.113 198.759 268.028 198.573 267.773 198.573Z" fill="#686461"/>
<path d="M268.876 199.131C269.046 198.852 269.301 198.759 269.471 198.666C269.641 198.759 269.726 198.759 269.896 198.852C269.641 199.038 269.386 199.317 269.216 199.41C269.131 199.317 269.046 199.131 268.876 199.131Z" fill="#686461"/>
<path d="M269.983 199.596C270.068 199.224 270.068 199.131 270.238 198.945C270.408 198.945 270.578 199.038 270.578 199.038C270.493 199.317 270.493 199.503 270.408 199.689C270.323 199.596 270.153 199.41 269.983 199.596Z" fill="#686461"/>
<path d="M263.865 193.648C264.12 193.555 264.375 193.555 264.545 193.648C264.63 193.834 264.715 194.02 264.8 194.113C264.46 194.02 264.29 193.927 264.12 194.02C264.12 193.927 264.035 193.741 263.865 193.648Z" fill="#686461"/>
<path d="M262.59 193.182C262.59 193.089 262.59 192.996 262.59 192.903C262.59 192.717 262.76 192.531 262.93 192.439C263.185 192.253 263.44 192.067 263.78 191.881C263.865 192.067 263.95 192.346 264.035 192.624C263.78 192.81 263.44 192.903 263.27 192.996C263.1 192.996 262.845 193.089 262.59 193.182Z" fill="#F05A24"/>
<path d="M272.871 193.461C274.145 194.112 275.42 194.112 276.78 193.275C276.865 193.275 276.95 193.275 276.95 193.368C277.714 194.856 278.479 196.808 279.669 197.923C280.943 198.852 282.473 199.503 284.172 200.061C284.342 200.154 284.597 200.247 284.852 200.154C285.702 200.154 286.297 200.247 286.892 200.618C286.977 200.618 287.061 200.711 287.146 200.711C287.486 200.897 287.656 201.362 287.741 201.92C287.741 202.292 287.571 202.571 287.316 202.756C285.957 203.593 284.172 203.965 282.048 203.965L278.139 203.407L271.936 202.849L271.256 202.571C271.171 202.478 271.086 202.385 271.086 202.292C271.086 201.176 271.256 199.968 271.681 198.759C271.766 198.388 272.021 197.923 272.191 197.551C272.701 196.529 272.871 195.227 272.786 193.74C272.786 193.461 272.871 193.461 272.871 193.461Z" fill="#F6921E"/>
<path d="M271.168 200.805C270.998 200.805 270.913 202.106 270.998 202.385C271.083 202.757 272.273 202.943 272.528 202.943C273.463 203.128 274.567 203.128 275.587 203.221L279.071 203.593C280.091 203.779 281.195 203.965 282.385 203.965C283.32 203.965 284.254 203.872 285.189 203.593C285.954 203.407 286.634 203.128 287.313 202.664C287.398 202.571 287.483 202.571 287.483 202.385C287.653 201.92 287.653 201.176 286.973 200.805C286.209 201.269 285.019 201.548 283.744 201.827C282.81 202.013 281.705 202.106 280.515 202.013C278.646 201.92 276.862 201.827 275.247 201.455C273.803 201.362 272.358 201.176 271.168 200.805Z" fill="#CD751D"/>
<path d="M284.594 200.154C284.509 200.804 284.509 201.269 284.764 201.641C285.699 201.455 286.463 201.176 287.143 200.804C286.463 200.247 285.699 200.061 284.594 200.154Z" fill="#F05A24"/>
<path d="M276.693 195.04C276.881 195.04 277.033 194.874 277.033 194.669C277.033 194.463 276.881 194.297 276.693 194.297C276.506 194.297 276.354 194.463 276.354 194.669C276.354 194.874 276.506 195.04 276.693 195.04Z" fill="#D7CCC2"/>
<path d="M277.202 196.343C277.39 196.343 277.542 196.177 277.542 195.971C277.542 195.766 277.39 195.6 277.202 195.6C277.014 195.6 276.862 195.766 276.862 195.971C276.862 196.177 277.014 196.343 277.202 196.343Z" fill="#D7CCC2"/>
<path d="M277.798 197.55C277.986 197.55 278.138 197.384 278.138 197.178C278.138 196.973 277.986 196.807 277.798 196.807C277.611 196.807 277.458 196.973 277.458 197.178C277.458 197.384 277.611 197.55 277.798 197.55Z" fill="#D7CCC2"/>
<path d="M278.562 198.574C278.749 198.574 278.901 198.407 278.901 198.202C278.901 197.997 278.749 197.83 278.562 197.83C278.374 197.83 278.222 197.997 278.222 198.202C278.222 198.407 278.374 198.574 278.562 198.574Z" fill="#D7CCC2"/>
<path d="M279.581 199.316C279.768 199.316 279.921 199.149 279.921 198.944C279.921 198.739 279.768 198.572 279.581 198.572C279.393 198.572 279.241 198.739 279.241 198.944C279.241 199.149 279.393 199.316 279.581 199.316Z" fill="#D7CCC2"/>
<path d="M280.888 199.88C281.031 199.748 281.05 199.514 280.93 199.356C280.809 199.199 280.595 199.178 280.451 199.31C280.307 199.442 280.288 199.676 280.409 199.834C280.529 199.991 280.744 200.012 280.888 199.88Z" fill="#D7CCC2"/>
<path d="M281.904 200.282C282.012 200.183 282.026 200.007 281.936 199.889C281.845 199.771 281.685 199.755 281.577 199.854C281.469 199.953 281.455 200.129 281.545 200.247C281.636 200.365 281.796 200.38 281.904 200.282Z" fill="#D7CCC2"/>
<path d="M283.318 200.625C283.388 200.491 283.344 200.321 283.222 200.245C283.099 200.169 282.944 200.217 282.874 200.351C282.805 200.485 282.848 200.655 282.971 200.731C283.094 200.807 283.249 200.759 283.318 200.625Z" fill="#D7CCC2"/>
<path d="M277.371 195.598C277.626 195.505 277.966 195.505 278.136 195.691C278.221 195.877 278.306 196.063 278.391 196.156C278.136 195.97 277.711 196.063 277.541 196.063C277.541 195.877 277.541 195.691 277.371 195.598Z" fill="#686461"/>
<path d="M277.883 196.807C278.138 196.714 278.478 196.528 278.733 196.621C278.818 196.714 278.903 196.807 278.988 196.993C278.648 196.9 278.223 197.086 278.138 197.179C278.138 196.993 278.053 196.807 277.883 196.807Z" fill="#686461"/>
<path d="M278.648 197.83C278.818 197.644 279.243 197.551 279.497 197.551C279.582 197.644 279.667 197.737 279.837 197.83C279.497 197.83 279.073 198.016 278.903 198.201C278.903 198.108 278.818 197.923 278.648 197.83Z" fill="#686461"/>
<path d="M279.583 198.667C279.752 198.481 280.007 198.388 280.347 198.295C280.432 198.388 280.602 198.388 280.772 198.574C280.432 198.667 280.092 198.946 279.922 199.039C279.922 198.853 279.837 198.667 279.583 198.667Z" fill="#686461"/>
<path d="M280.688 199.223C280.857 198.944 281.027 198.852 281.282 198.852C281.452 198.945 281.452 198.945 281.622 199.037C281.367 199.223 281.112 199.502 281.027 199.595C280.942 199.409 280.857 199.223 280.688 199.223Z" fill="#686461"/>
<path d="M281.789 199.781C281.959 199.502 282.214 199.409 282.384 199.316C282.554 199.409 282.639 199.409 282.809 199.502C282.554 199.688 282.299 199.967 282.129 200.06C282.044 199.967 281.959 199.781 281.789 199.781Z" fill="#686461"/>
<path d="M282.896 200.246C282.981 199.875 282.981 199.782 283.151 199.596C283.321 199.596 283.491 199.689 283.491 199.689C283.406 199.967 283.406 200.153 283.321 200.339C283.236 200.246 283.066 200.06 282.896 200.246Z" fill="#686461"/>
<path d="M276.778 194.298C277.033 194.205 277.288 194.205 277.458 194.298C277.543 194.484 277.628 194.67 277.713 194.763C277.373 194.67 277.203 194.577 277.033 194.67C277.033 194.577 276.948 194.391 276.778 194.298Z" fill="#686461"/>
<path d="M275.505 193.833C275.505 193.74 275.505 193.647 275.505 193.554C275.505 193.368 275.675 193.182 275.845 193.089C276.099 192.903 276.354 192.717 276.694 192.531C276.779 192.717 276.864 192.996 276.949 193.275C276.694 193.461 276.354 193.554 276.184 193.647C276.014 193.74 275.76 193.833 275.505 193.833Z" fill="#F05A24"/>
<path d="M274.908 92.5167C275.248 95.2123 285.785 109.713 291.733 110.177C291.818 110.177 291.903 110.177 292.073 110.177C292.498 110.177 292.923 109.992 293.347 109.806C295.472 108.318 304.054 102.184 307.028 98.4656L305.244 94.9334C300.74 96.6066 291.988 103.113 291.988 103.113C291.988 103.113 291.478 103.299 291.393 103.02C287.824 96.6065 282.641 93.1673 277.457 89.9141L274.908 92.5167Z" fill="#ECBC97"/>
<path d="M314.849 87.7754L310.94 94.5608C310.94 94.5608 311.365 95.3973 312.384 95.3044C313.319 95.2114 314.679 92.6089 314.764 92.1441C314.933 91.5864 314.679 91.1216 314.849 90.7498C315.018 90.378 314.933 89.4485 314.933 89.4485C314.849 89.4485 315.698 88.1472 314.849 87.7754Z" fill="#D7A887"/>
<path d="M309.833 94.5616L311.872 85.5453C311.957 85.2665 312.127 85.0806 312.297 84.8947L315.271 83.0357C315.441 82.9427 315.696 82.9427 315.781 83.1286C315.866 83.2216 315.866 83.4075 315.866 83.5004L313.742 92.9814L309.833 94.5616Z" fill="#1A2E35"/>
<path d="M313.655 93.8189C313.655 93.8189 313.74 93.7259 313.74 93.4471C313.74 93.1682 313.74 92.7964 313.655 92.3316C313.74 92.1457 313.74 92.0528 313.74 91.8669C313.655 91.681 313.57 91.4951 313.4 91.4021H313.315V91.3092C313.485 91.0304 313.655 90.7515 313.825 90.3797C313.91 90.2867 313.91 90.1938 313.91 90.1938C313.91 90.1008 313.91 90.0079 313.91 89.9149C313.825 89.729 313.74 89.6361 313.57 89.5431V89.4502L313.655 89.3573C313.825 89.1714 313.995 88.9854 314.165 88.7995C314.419 88.4277 314.759 88.1489 314.929 87.7771C315.014 87.5912 315.184 87.4052 315.184 87.2193C315.184 87.1264 315.269 87.0334 315.269 86.9405C315.269 86.8475 315.269 86.8476 315.184 86.8476C315.099 86.8476 315.014 86.8475 314.929 86.9405C314.844 86.9405 314.759 87.0335 314.674 87.0335C314.504 87.1264 314.334 87.2194 314.165 87.3123C313.825 87.4982 313.57 87.7771 313.4 87.87C313.23 88.0559 313.06 88.1489 312.89 88.2418C312.805 88.3348 312.72 88.4277 312.72 88.3348C312.72 88.3348 312.805 88.2418 312.89 88.1488C312.975 88.0559 313.145 87.87 313.315 87.6841C313.485 87.4982 313.74 87.3123 314.08 87.0335C314.249 86.9405 314.419 86.8476 314.589 86.6617C314.674 86.5687 314.759 86.5687 314.844 86.4757C314.929 86.4757 315.099 86.3828 315.184 86.3828C315.354 86.3828 315.439 86.5687 315.354 86.6617C315.354 86.7546 315.354 86.8475 315.269 86.9405C315.184 87.1264 315.099 87.3123 314.929 87.4982C314.674 87.87 314.419 88.1489 314.165 88.5207C313.995 88.7066 313.825 88.8925 313.655 89.0784V88.9854C313.825 89.0784 313.995 89.2643 314.08 89.4502C314.08 89.5431 314.165 89.6361 314.08 89.822C314.08 89.915 313.995 90.0079 313.91 90.1009C313.74 90.3797 313.57 90.7515 313.315 91.0304V90.9374C313.485 91.1233 313.655 91.2163 313.655 91.4951C313.74 91.681 313.655 91.9599 313.57 92.0528C313.655 92.5176 313.655 92.9823 313.655 93.1682C313.74 93.633 313.74 93.7259 313.655 93.8189Z" fill="#C89777"/>
<path d="M315.78 83.1289C315.78 83.1289 315.695 83.2219 315.525 83.3148C315.355 83.4078 315.1 83.5937 314.845 83.7796C314.506 83.9655 314.166 84.2443 313.826 84.4302C313.656 84.5231 313.401 84.7091 313.231 84.802C312.976 84.895 312.806 85.0809 312.636 85.2668C312.466 85.4527 312.381 85.7315 312.296 86.0104C312.211 86.2892 312.211 86.5681 312.126 86.754C312.041 87.2187 311.871 87.6835 311.786 88.0553C311.701 88.4271 311.616 88.706 311.532 88.8919C311.447 89.0778 311.447 89.1707 311.447 89.1707C311.447 89.1707 311.447 89.0777 311.532 88.7989C311.532 88.613 311.616 88.3342 311.701 87.9624C311.786 87.5906 311.871 87.1258 311.956 86.661C312.041 86.3822 312.041 86.1963 312.126 85.9174C312.211 85.6386 312.296 85.3597 312.466 85.0809C312.636 84.895 312.891 84.7091 313.146 84.6161C313.401 84.5231 313.571 84.3373 313.741 84.2443C314.166 83.9655 314.506 83.7796 314.845 83.5937C315.185 83.4078 315.355 83.2219 315.61 83.1289C315.695 83.2219 315.78 83.1289 315.78 83.1289Z" fill="#375A64"/>
<path d="M313.828 86.1968C313.743 86.3827 313.743 86.5686 313.828 86.5686C313.913 86.5686 313.998 86.4756 314.083 86.2897C314.168 86.1038 314.168 85.918 314.083 85.918C313.998 85.918 313.913 86.0109 313.828 86.1968Z" fill="white"/>
<path d="M306.518 94.1898C307.197 93.818 307.197 92.6097 307.537 91.8661C307.792 91.2154 308.132 90.5647 308.387 90.4718C308.812 90.1929 311.191 88.6128 311.191 88.6128L310.936 89.8212L313.23 88.0551C313.485 87.8692 315.1 86.1961 315.44 86.8467C315.61 87.3115 314.335 88.5198 314.165 88.7987C313.74 89.4493 313.91 89.4494 313.91 89.4494C313.91 89.4494 314.42 89.7282 314.165 90.1929C313.91 90.6577 313.485 91.2154 313.485 91.2154C313.485 91.2154 314.08 91.4943 313.74 92.3308C313.74 92.3308 313.91 92.7956 313.825 93.4462C313.74 93.818 313.485 94.2828 313.145 94.6546C312.806 95.1193 312.381 95.3982 311.871 95.5841C309.916 96.3277 308.217 97.1643 307.027 98.2797L305.243 94.7476L306.518 94.1898Z" fill="#ECBC97"/>
<path d="M311.619 89.2637C311.619 89.2637 311.109 89.7284 310.43 90.1003C309.75 90.565 309.24 90.8438 309.24 90.8438C309.24 90.8438 309.75 90.3791 310.43 90.0073C311.024 89.5425 311.619 89.2637 311.619 89.2637Z" fill="#C89777"/>
<path d="M313.743 89.3555C313.743 89.3555 313.318 89.9132 312.723 90.5638C312.128 91.2145 311.618 91.6792 311.618 91.6792C311.618 91.6792 312.043 91.1215 312.638 90.4708C313.233 89.8202 313.743 89.3555 313.743 89.3555Z" fill="#C89777"/>
<path d="M313.57 91.0293C313.57 91.0293 313.4 91.4011 313.06 91.7729C312.805 92.1447 312.466 92.4236 312.466 92.4236C312.466 92.4236 312.636 92.0518 312.975 91.68C313.23 91.3082 313.57 91.0293 313.57 91.0293Z" fill="#C89777"/>
<path d="M283.662 120.495H258.34C258.34 120.495 259.275 96.8859 262.504 83.7798C262.929 81.9208 264.373 79.2252 265.648 77.9239C266.158 77.3662 266.753 76.9014 267.433 76.6226C267.857 76.4367 268.367 76.3438 268.877 76.3438L273.211 76.7155C273.721 76.7155 274.145 77.0873 274.315 77.5521L278.649 88.2415C278.904 88.8921 279.244 89.4498 279.754 89.9146L286.127 96.1423L281.963 101.719L281.453 102.37" fill="#131851"/>
<path d="M280.261 101.999C273.293 95.957 272.954 94.7486 272.444 92.7037C272.274 92.0531 272.019 91.2165 271.509 90.1011L272.104 89.8223C272.614 91.0306 272.869 91.7742 273.039 92.5178C273.548 94.4698 273.888 95.4923 280.686 101.441L280.261 101.999Z" fill="black"/>
<g clip-path="url(#clip0_16546_58559)">
<path d="M197.601 184H133.47V186.606H197.601V184Z" fill="white"/>
<path d="M121.245 131.477C121.227 131.463 121.209 131.449 121.194 131.435C120.833 131.122 116.656 127.51 115.656 126.907C114.609 126.275 113.488 126.157 113.849 125.092C114.21 124.027 116.352 122.538 117.102 122.261C117.767 122.015 119.077 121.473 119.359 121.355C119.395 121.341 119.428 121.324 119.461 121.302C119.687 121.168 120.618 120.62 120.859 120.64C121.133 120.659 122.722 118.82 124.552 121.685C126.382 124.553 127.057 124.763 127.057 125.238C127.057 125.685 125.586 130.118 122.868 132.008C122.579 132.209 122.207 132.193 121.926 131.983L121.245 131.48V131.477Z" stroke="black" stroke-width="4" stroke-miterlimit="10"/>
<path d="M127.677 133.277C127.677 133.277 122.819 134.593 123.413 131.331C124.007 128.069 124.698 124.29 128.455 124.234C132.212 124.175 132.606 125.755 136.76 127.544C140.913 129.333 141.484 129.864 148.998 130.073C156.512 130.283 158.854 130.336 160.141 130.23C161.429 130.124 162.665 136.382 161.874 138.065C161.083 139.748 154.831 138.378 154.47 138.216C154.109 138.054 133.696 134.384 131.226 133.646C128.754 132.908 127.679 133.277 127.679 133.277H127.677Z" fill="#131315"/>
<path d="M113.196 125.522C113.196 125.522 111.353 126.193 110.268 125.522C109.183 124.851 103.619 122.877 102.102 123.115C100.584 123.353 99.0945 122.156 99.0945 122.156C99.0945 122.156 105.206 123.112 108.351 123.227C111.497 123.341 113.014 122.782 113.521 123.344C114.028 123.906 113.967 124.049 113.703 124.641C113.439 125.234 113.196 125.522 113.196 125.522Z" fill="#1E1E1E"/>
<path d="M156.133 137.255C156.133 137.255 147.068 161.708 145.54 161.666C144.013 161.624 143.439 168.143 143.296 168.8C143.153 169.457 141.041 172.629 146.17 173.734C151.301 174.838 175.292 179.654 175.292 179.654C175.292 179.654 180.424 180.758 183.531 180.048C186.638 179.338 189.24 177.918 190.469 177.759C191.697 177.599 196.829 170.578 198.346 168.523C199.864 166.471 214.823 141.61 214.966 140.346C215.11 139.083 213.113 135.988 211.957 133.067C210.8 130.146 202.019 117.584 202.019 117.584L193.791 107.963C193.791 107.963 192.683 107.278 191.72 107.963C190.758 108.647 188.759 110.775 188.616 111.879C188.473 112.983 188.327 116.93 188.473 117.562C188.618 118.193 191.772 125.271 191.772 125.271C191.772 125.271 184.71 124.164 184.567 125.349C184.424 126.535 184.818 131.784 184.956 134.856C185.094 137.928 185.169 138.893 184.956 140.117C184.815 140.928 180.206 161.856 180.206 161.856L162.578 155.419L164.408 136.008L163.276 136.553L156.494 135.944L156.136 137.252L156.133 137.255Z" fill="black"/>
<path d="M198.254 139.017L184.764 116.602C184.764 116.602 181.852 111.777 181.296 112.814C180.741 113.848 181.153 118.497 181.153 118.497C181.153 118.497 186.597 130.598 187.848 132.915C189.1 135.23 190.256 141.754 190.256 141.754L186.21 156.276L187.848 167.219L188.667 167.641L194.592 156.276L201.763 144.323L198.254 139.017Z" fill="#81BB27"/>
<path d="M213.423 151.809L211.271 146.872L211.831 146.182L213.139 149.466L214.163 151.809H213.423Z" fill="#B7C4B7"/>
<path d="M182.433 121.329C182.433 121.329 179.505 115.352 178.133 113.18C176.761 111.011 176.301 110.692 174.233 109.18C172.572 107.964 170.563 105.214 169.895 104.853C168.751 104.232 164.464 107.604 164.175 107.444C163.885 107.285 164.919 105.641 164.873 105.169C164.825 104.666 163.916 104.504 163.284 104.853C163.028 104.993 160.784 106.488 159.793 107.148C159.381 107.422 158.836 107.276 158.6 106.812C158.503 106.622 158.434 106.382 158.426 106.074C158.391 104.931 160.607 103.506 160.607 103.506L165.347 98.2588C165.347 98.2588 168.635 94.5773 172.295 93.7332C175.958 92.8918 177.539 92.8834 178.553 93.4089C179.566 93.9344 185.46 97.9373 186.76 99.3098C188.061 100.682 191.818 104.914 191.142 105.473C190.466 106.033 187.108 107.109 186.4 107.486C185.775 107.819 184.447 108.825 184.447 108.825C184.106 109.334 183.303 109.583 182.23 112.719C181.893 113.708 181.125 112.314 181.01 115.341C180.935 117.273 182.435 121.317 182.435 121.317L182.433 121.329Z" fill="black"/>
<path d="M121.944 121.274C121.944 121.274 116.308 124.679 111.489 124.782C106.672 124.889 94.242 123.362 91.8337 121.783C89.4254 120.204 85.9089 113.786 85.8603 111.89C85.8117 109.995 85.8603 109.416 85.8603 109.416C85.8603 109.416 84.8494 109.154 85.0413 107.627C85.2333 106.101 85.1386 105.785 85.6684 105.629C86.1981 105.472 86.8738 105.366 86.8738 105.366C86.8738 105.366 87.3063 103.052 88.1253 102.104C88.9443 101.156 92.6527 98.4197 95.0149 96.9997C97.3771 95.5797 104.553 92.6334 111.635 92.9493C118.717 93.2652 123.533 92.6334 125.366 98.1598C125.366 98.1598 126.522 102.685 126.763 103.421C127.004 104.156 127.293 105.998 126.425 108.578C125.557 111.155 123.825 119.018 123.185 120.008C122.545 120.997 121.944 121.274 121.944 121.274Z" fill="#1E1E1E"/>
<path d="M85.6685 105.628C85.6685 105.628 105.541 106.522 108.648 106.05C111.755 105.578 126.418 102.195 126.418 102.195L126.935 104.191C126.935 104.191 113.055 107.864 110.742 107.864C108.428 107.864 85.3076 106.629 85.3076 106.629L85.1541 106.62L85.2104 106.204C85.2104 106.204 85.2385 106.056 85.259 106C85.2795 105.944 85.3178 105.866 85.3204 105.863C85.323 105.86 85.3716 105.784 85.4151 105.751C85.4586 105.717 85.5712 105.662 85.5891 105.653C85.607 105.645 85.6659 105.628 85.6659 105.628H85.6685Z" fill="#070707"/>
<path d="M85.1565 106.62C85.1565 106.62 84.8622 108.725 85.3613 109.072C85.8603 109.418 95.9311 110.45 95.9311 110.45C95.9311 110.45 110.023 111.101 110.962 111.023C111.901 110.945 126.425 108.577 126.425 108.577C126.425 108.577 127.044 105.197 126.991 104.694C126.937 104.191 126.881 104.205 126.881 104.205C126.881 104.205 115.587 107.095 113.69 107.431C111.794 107.766 89.8989 106.721 89.8989 106.721L85.1591 106.62H85.1565Z" fill="#3D3D3D"/>
<path d="M124.969 106.838C124.969 106.838 127.787 106.285 127.932 105.852C128.078 105.418 127.897 104.471 127.426 104.471C126.955 104.471 124.536 105.167 124.536 105.167L124.273 105.253C123.84 105.396 123.577 105.888 123.699 106.36C123.699 106.369 123.705 106.374 123.705 106.383L123.904 107.132L124.969 106.836V106.838Z" fill="white"/>
<path d="M113.26 110.128C113.26 110.128 116.116 109.908 116.303 109.491C116.49 109.075 116.403 108.113 115.935 108.06C115.469 108.004 112.991 108.418 112.991 108.418L112.72 108.474C112.275 108.563 111.968 109.021 112.042 109.508C112.042 109.516 112.042 109.522 112.044 109.53L112.17 110.299L113.257 110.128H113.26Z" fill="white"/>
<path d="M124.826 186.838C135.107 186.838 143.442 177.735 143.442 166.505C143.442 155.275 135.107 146.172 124.826 146.172C114.544 146.172 106.209 155.275 106.209 166.505C106.209 177.735 114.544 186.838 124.826 186.838Z" fill="#393A38"/>
<path d="M122.929 179.219C129.124 179.219 134.146 173.469 134.146 166.377C134.146 159.285 129.124 153.535 122.929 153.535C116.734 153.535 111.712 159.285 111.712 166.377C111.712 173.469 116.734 179.219 122.929 179.219Z" fill="black"/>
<path d="M155.002 141.94L146.024 162.502C145.61 163.455 144.658 163.981 143.708 163.782L138.741 162.748C138.147 162.625 137.64 162.225 137.323 161.664C136.847 160.817 135.915 159.578 134.333 158.986C131.897 158.074 110.033 150.795 108.413 150.256C108.349 150.234 108.287 150.211 108.226 150.183C106.987 149.627 106.522 147.969 107.264 146.753C107.888 145.733 108.582 144.643 109.042 144.07C110.053 142.806 115.175 134.946 116.124 134.205C117.132 133.417 120.17 131.678 124.073 132.075C127.976 132.469 133.322 130.792 138.671 132.025C144.018 133.258 155.727 137.205 155.942 138.152C156.156 139.1 155.002 141.94 155.002 141.94Z" fill="#81BB27"/>
<path d="M138.532 134.057C137.733 134.057 137.082 134.768 137.082 135.643C137.082 136.519 138.532 138.576 138.532 138.576C138.532 138.576 139.982 136.519 139.982 135.643C139.982 134.768 139.334 134.057 138.532 134.057ZM138.532 136.213C138.243 136.213 138.011 135.956 138.011 135.64C138.011 135.324 138.246 135.067 138.532 135.067C138.818 135.067 139.053 135.324 139.053 135.64C139.053 135.956 138.818 136.213 138.532 136.213Z" fill="white"/>
<path d="M129.068 149.739V144.607C129.044 144.501 129.038 144.389 128.993 144.291C128.939 144.175 128.857 144.08 128.755 144.011C128.643 143.935 128.523 143.876 128.399 143.833C128.363 143.82 128.324 143.81 128.288 143.8C128.254 143.797 128.221 143.794 128.188 143.787C128.188 143.787 128.182 143.787 128.179 143.787C128.146 143.787 128.113 143.787 128.08 143.78H124.867V146.23H126.814V146.766C126.558 146.97 126.28 147.115 125.979 147.201C125.678 147.286 125.376 147.319 125.072 147.296C124.767 147.273 124.472 147.191 124.183 147.049C123.896 146.908 123.637 146.714 123.408 146.463C123.152 146.184 122.959 145.864 122.826 145.505C122.694 145.147 122.627 144.784 122.627 144.419C122.627 144.054 122.694 143.688 122.826 143.333C122.959 142.974 123.152 142.655 123.408 142.375C123.664 142.095 123.957 141.884 124.282 141.743C124.608 141.601 124.939 141.532 125.277 141.532C125.614 141.532 125.943 141.601 126.271 141.743C126.597 141.884 126.889 142.092 127.145 142.375L128.737 140.633C128.26 140.11 127.721 139.721 127.121 139.458C126.521 139.198 125.907 139.066 125.28 139.066C124.653 139.066 124.038 139.198 123.438 139.458C122.838 139.718 122.299 140.11 121.823 140.633C121.346 141.157 120.991 141.746 120.756 142.401C120.521 143.06 120.403 143.731 120.403 144.416C120.403 145.101 120.521 145.772 120.756 146.424C120.991 147.076 121.346 147.665 121.823 148.185C122.299 148.708 122.838 149.1 123.438 149.36C124.038 149.62 124.653 149.752 125.28 149.752C125.536 149.752 125.795 149.729 126.054 149.686C126.313 149.643 126.57 149.574 126.817 149.475V149.736H129.071L129.068 149.739Z" fill="white"/>
<path d="M134.322 139.08C134.991 139.08 135.624 139.222 136.214 139.501C136.805 139.781 137.321 140.16 137.764 140.64C138.204 141.118 138.553 141.681 138.809 142.329C139.066 142.978 139.192 143.669 139.192 144.403C139.192 145.137 139.066 145.829 138.809 146.477C138.553 147.126 138.204 147.688 137.764 148.166C137.324 148.643 136.805 149.025 136.214 149.305C135.624 149.585 134.994 149.726 134.322 149.726C133.65 149.726 133.02 149.585 132.429 149.305C131.838 149.025 131.323 148.646 130.886 148.166C130.449 147.688 130.102 147.126 129.846 146.477C129.59 145.829 129.463 145.137 129.463 144.403C129.463 143.669 129.59 142.978 129.846 142.329C130.102 141.681 130.449 141.118 130.886 140.64C131.323 140.163 131.835 139.781 132.429 139.501C133.02 139.222 133.65 139.08 134.322 139.08ZM134.328 147.274C134.689 147.274 135.03 147.198 135.349 147.05C135.669 146.902 135.946 146.694 136.184 146.434C136.422 146.174 136.609 145.868 136.748 145.519C136.884 145.17 136.953 144.798 136.953 144.403C136.953 144.008 136.884 143.636 136.748 143.287C136.612 142.938 136.422 142.635 136.184 142.375C135.946 142.115 135.666 141.908 135.349 141.76C135.03 141.608 134.692 141.536 134.328 141.536C133.963 141.536 133.625 141.612 133.306 141.76C132.986 141.911 132.709 142.115 132.471 142.375C132.233 142.635 132.046 142.942 131.907 143.287C131.772 143.636 131.703 144.008 131.703 144.403C131.703 144.798 131.772 145.17 131.907 145.519C132.043 145.868 132.233 146.171 132.471 146.434C132.709 146.694 132.989 146.902 133.306 147.05C133.625 147.201 133.963 147.274 134.328 147.274Z" fill="white"/>
<path d="M125.452 153.328C125.331 153.256 125.247 153.196 125.201 153.144C125.129 153.065 125.093 152.969 125.093 152.857C125.093 152.745 125.129 152.647 125.201 152.568C125.274 152.489 125.361 152.449 125.464 152.449C125.566 152.449 125.65 152.485 125.72 152.561C125.786 152.634 125.816 152.716 125.816 152.808V152.818L125.693 152.871C125.684 152.782 125.657 152.719 125.617 152.673C125.578 152.63 125.527 152.607 125.461 152.607C125.394 152.607 125.343 152.63 125.298 152.68C125.253 152.729 125.229 152.788 125.229 152.857C125.229 152.927 125.25 152.986 125.298 153.035C125.325 153.065 125.379 153.108 125.464 153.167C125.599 153.246 125.693 153.318 125.75 153.381C125.84 153.48 125.883 153.598 125.883 153.733C125.883 153.868 125.837 153.993 125.75 154.092C125.66 154.191 125.551 154.24 125.424 154.24C125.298 154.24 125.189 154.191 125.099 154.092C125.009 153.993 124.966 153.884 124.966 153.769L125.108 153.73C125.108 153.832 125.138 153.914 125.201 153.983C125.265 154.052 125.34 154.085 125.427 154.085C125.515 154.085 125.59 154.052 125.653 153.983C125.717 153.914 125.747 153.832 125.747 153.736C125.747 153.641 125.717 153.559 125.653 153.493C125.62 153.457 125.551 153.401 125.449 153.331L125.452 153.328Z" fill="white"/>
<path d="M126.289 151.438H126.431V152.593C126.552 152.468 126.696 152.402 126.862 152.402C127.046 152.402 127.193 152.465 127.308 152.59C127.423 152.715 127.483 152.873 127.486 153.064V154.196H127.344V153.077C127.344 152.932 127.296 152.81 127.203 152.708C127.106 152.606 126.995 152.557 126.865 152.557C126.735 152.557 126.621 152.606 126.527 152.708C126.485 152.754 126.455 152.8 126.434 152.853V154.199H126.292V151.438H126.289Z" fill="white"/>
<path d="M129.632 154.2H129.49V153.855C129.463 153.894 129.433 153.934 129.4 153.97C129.231 154.154 129.026 154.246 128.785 154.246C128.544 154.246 128.342 154.154 128.173 153.97C128.004 153.785 127.92 153.562 127.92 153.302C127.92 153.042 128.004 152.814 128.173 152.63C128.342 152.446 128.547 152.354 128.785 152.354C129.023 152.354 129.228 152.446 129.4 152.63C129.433 152.666 129.463 152.706 129.49 152.745V152.505H129.632V154.2ZM129.49 153.453V153.147C129.463 152.995 129.397 152.86 129.294 152.745C129.156 152.591 128.987 152.515 128.788 152.515C128.589 152.515 128.42 152.591 128.282 152.745C128.143 152.897 128.071 153.084 128.071 153.298C128.071 153.512 128.14 153.7 128.282 153.851C128.42 154.003 128.589 154.078 128.788 154.078C128.987 154.078 129.156 154.003 129.294 153.848C129.4 153.733 129.466 153.601 129.49 153.45V153.453Z" fill="white"/>
<path d="M130.105 152.504H130.247V152.814C130.277 152.768 130.31 152.725 130.349 152.682C130.476 152.544 130.602 152.475 130.735 152.465V152.633C130.644 152.636 130.554 152.692 130.458 152.797C130.322 152.942 130.253 153.12 130.247 153.324V154.2H130.105V152.504Z" fill="white"/>
<path d="M131.284 151.948C131.311 151.978 131.326 152.014 131.326 152.057C131.326 152.1 131.311 152.136 131.284 152.169C131.256 152.199 131.223 152.215 131.184 152.215C131.145 152.215 131.112 152.199 131.085 152.169C131.058 152.139 131.042 152.103 131.042 152.057C131.042 152.011 131.058 151.978 131.085 151.948C131.112 151.919 131.145 151.902 131.184 151.902C131.223 151.902 131.256 151.919 131.284 151.948ZM131.253 152.505V154.2H131.112V152.505H131.253Z" fill="white"/>
<path d="M131.901 152.883V154.2H131.76V152.504H131.901V152.613C132.031 152.471 132.182 152.402 132.354 152.402C132.537 152.402 132.685 152.465 132.8 152.59C132.914 152.715 132.974 152.873 132.977 153.064V154.196H132.836V153.077C132.836 152.932 132.788 152.811 132.694 152.708C132.598 152.606 132.486 152.557 132.357 152.557C132.227 152.557 132.112 152.606 132.019 152.708C131.968 152.764 131.929 152.824 131.904 152.883H131.901Z" fill="white"/>
<path d="M134.972 153.865C134.945 153.901 134.918 153.937 134.888 153.97C134.719 154.154 134.514 154.246 134.273 154.246C134.032 154.246 133.83 154.154 133.661 153.97C133.493 153.785 133.408 153.562 133.408 153.302C133.408 153.042 133.493 152.814 133.661 152.63C133.83 152.446 134.035 152.354 134.273 152.354C134.511 152.354 134.716 152.446 134.888 152.63C134.921 152.666 134.951 152.706 134.978 152.745V152.505H135.12V153.822C135.12 154.075 135.039 154.292 134.873 154.474C134.704 154.658 134.499 154.75 134.261 154.75C134.023 154.75 133.818 154.658 133.646 154.474C133.61 154.434 133.58 154.395 133.553 154.355L133.704 154.296C133.719 154.316 133.737 154.335 133.755 154.355C133.893 154.506 134.062 154.585 134.261 154.585C134.46 154.585 134.626 154.51 134.768 154.355C134.894 154.217 134.963 154.052 134.975 153.861L134.972 153.865ZM134.975 153.14C134.948 152.992 134.882 152.86 134.78 152.749C134.641 152.594 134.472 152.518 134.273 152.518C134.074 152.518 133.906 152.594 133.767 152.749C133.628 152.9 133.556 153.088 133.556 153.302C133.556 153.516 133.625 153.703 133.767 153.855C133.906 154.006 134.074 154.085 134.273 154.085C134.472 154.085 134.641 154.009 134.78 153.855C134.882 153.743 134.945 153.614 134.975 153.466V153.137V153.14Z" fill="white"/>
<path d="M151.406 166.921C151.406 166.921 141.627 165.395 139.892 164.71C138.157 164.025 120.815 165.92 120.237 165.814C119.658 165.708 117.637 165.392 117.442 166.918C117.248 168.445 117.299 170.55 118.164 170.603C119.031 170.656 136.952 171.919 139.025 171.181C141.095 170.443 141.095 170.318 143.698 170.066C146.298 169.814 151.593 170.544 152.097 170.329C152.602 170.113 153.183 168.632 152.855 167.844C152.53 167.055 151.404 166.924 151.404 166.924L151.406 166.921Z" fill="#1E1E1D"/>
<path d="M119.095 165.787C119.095 165.787 118.443 163.095 118.804 162.779C119.164 162.463 119.561 162.74 120.175 161.871C120.79 161.001 121.327 158.547 121.77 156.741C122.213 154.935 122.277 154.891 122.277 154.891L125.414 155.944C125.414 155.944 122.558 160.649 122.054 162.385C121.55 164.121 121.77 165.583 121.77 165.583L121.788 165.792H119.095V165.787Z" fill="#1E1E1D"/>
<path d="M166.947 152.625C166.947 152.625 165.874 155.588 168.247 155.485C170.619 155.381 170.614 153.805 171.571 152.913C172.531 152.024 173.393 154.537 176.15 156.474C178.906 158.411 179.625 159.065 179.746 159.616C179.866 160.167 178.548 161.469 177.516 161.799C176.485 162.129 174.929 161.897 172.004 161.24C169.078 160.586 164.692 161.316 164.142 160.242C163.591 159.169 163.445 158.587 163.663 158.146C163.842 157.777 164.971 157.081 165.467 156.418C165.567 156.287 165.641 156.155 165.677 156.03C165.892 155.269 165.989 153.648 166.325 153.151C166.66 152.653 166.949 152.628 166.949 152.628L166.947 152.625Z" fill="#81BB27"/>
<path d="M168.817 158.255C170.256 159.015 172.82 159.669 173.946 159.851C175.072 160.032 177.734 160.854 178.499 160.418C179.267 159.982 179.745 159.616 179.745 159.616C179.745 159.616 179.305 162.942 175.072 162.492C170.839 162.042 167.261 161.489 166.337 161.246C165.413 161.002 164.269 160.927 163.921 159.792C163.573 158.657 163.279 158.568 163.663 158.148C164.049 157.729 164.971 156.287 165.467 156.421C165.964 156.555 168.817 158.257 168.817 158.257V158.255Z" fill="white"/>
<path d="M167.865 150.531L166.857 156.116C166.857 156.116 168.357 156.29 169.565 155.907C170.773 155.524 171.323 153.276 171.397 153.095C171.471 152.913 170.55 151.596 170.55 151.596L167.865 150.531Z" fill="#E8DBD1"/>
<path d="M172.062 151.528L171.039 151.631L169.534 151.617L168.607 151.525L170.143 137.171C170.143 137.171 170.14 128.696 169.667 126.865C169.193 125.036 169.094 125.148 168.039 124.396C166.603 123.368 158.936 121.526 158.759 121.475C158.583 121.425 155.678 121.053 153.014 121.095C150.349 121.137 145.75 117.819 144.716 117.123C143.68 116.427 143.201 113.182 143.027 112.446C142.853 111.708 141.607 110.017 143.368 111.029C145.026 111.982 148.182 116.564 151.11 117.444C153.996 118.314 162.163 120.066 165.992 121.33C168.784 122.25 171.054 123.398 171.438 125.126C171.87 127.071 172.605 133.649 172.354 136.964C172.101 140.279 173.04 144.316 172.787 146.409C172.597 147.98 173.363 149.56 173.117 150.533C173.043 150.829 172.526 151.472 172.065 151.528H172.062Z" fill="#E0C448"/>
<path d="M160.251 153.322L158.306 163.316C158.306 163.316 159.281 163.064 161.142 162.659C162.89 162.278 165.365 158.513 165.477 158.242C165.59 157.971 164.3 154.93 164.3 154.93L160.254 153.325L160.251 153.322Z" fill="#E8DBD1"/>
<path d="M159.158 158.639C159.417 158.678 159.599 158.94 159.553 159.223C159.435 159.952 159.783 161.764 162.104 161.084C165.237 160.168 164.177 158.066 165.623 156.724C167.069 155.382 168.369 159.17 172.523 162.091C176.679 165.012 177.762 165.999 177.944 166.826C178.125 167.653 176.137 169.619 174.583 170.116C173.03 170.614 170.163 170.991 165.756 170.004C161.349 169.018 155.256 169.392 154.424 167.774C153.592 166.155 153.377 165.277 153.702 164.612C153.973 164.056 155.675 163.005 156.423 162.007C156.571 161.808 157.3 160.852 157.357 160.66C157.682 159.516 157.242 159.105 158.038 158.77C158.457 158.594 158.869 158.599 159.161 158.641L159.158 158.639Z" fill="#81BB27"/>
<path d="M161.139 167.103C163.307 168.247 167.22 168.191 168.935 168.347C170.65 168.504 174.97 169.192 176.124 168.532C177.278 167.872 177.946 166.827 177.946 166.827C177.946 166.827 177.281 171.842 170.901 171.162C164.52 170.483 159.125 169.647 157.733 169.281C156.341 168.915 154.618 168.803 154.089 167.089C153.561 165.376 153.119 165.245 153.7 164.613C154.281 163.981 157.116 161.205 156.42 162.008C155.537 163.025 159.287 166.276 161.137 167.103H161.139Z" fill="white"/>
<path d="M127.997 113.162C127.997 113.162 125.391 120.961 127.646 123.128C129.901 125.294 142.549 131.332 148.427 131.122C154.306 130.913 161.057 129.945 160.866 132.157C160.674 134.368 156.277 155.78 156.277 155.78C156.277 155.78 155.957 156.537 158.181 156.909C160.574 157.309 162.511 156.045 162.511 156.045C162.511 156.045 163.453 155.584 164.513 155.654C164.986 155.685 165.943 155.897 166.859 156.121C168.049 156.412 168.938 156.546 169.101 155.226C169.792 149.661 170.151 138.158 170.151 136.537C170.151 133.381 170.583 125.859 168.369 124.598C166.153 123.335 158.59 120.768 154.158 121.126C150.782 121.397 147.345 118.434 145.968 117.506C145.535 117.216 145.175 116.816 144.913 116.338C144.33 115.27 143.283 113.277 143.314 112.746C143.357 112.008 137.66 111.941 136.895 111.765C136.13 111.589 132.184 111.035 132.184 111.035H129.097L127.999 113.168L127.997 113.162Z" fill="#F6D751"/>
<path d="M181.565 113.26L195.662 135.712C195.662 135.712 200.294 143.857 201.766 144.327C202.603 144.592 210.045 138.868 211.957 137.333C214.974 134.912 213.377 133.151 207.271 124.572C202.022 117.195 194.421 108.225 192.391 105.849C192.071 105.475 191.587 105.335 191.14 105.48C189.389 106.059 185.015 107.666 183.641 109.732C181.906 112.337 181.568 113.257 181.568 113.257L181.565 113.26Z" fill="#99DB26"/>
<path d="M216.627 195C227.754 195 236.774 185.148 236.774 172.995C236.774 160.842 227.754 150.99 216.627 150.99C205.501 150.99 196.481 160.842 196.481 172.995C196.481 185.148 205.501 195 216.627 195Z" fill="#393A38"/>
<path d="M216.627 186.891C223.332 186.891 228.766 180.669 228.766 172.995C228.766 165.321 223.332 159.1 216.627 159.1C209.923 159.1 204.489 165.321 204.489 172.995C204.489 180.669 209.923 186.891 216.627 186.891Z" fill="black"/>
<path d="M215.233 173.85L219.061 171.245L222.204 157.156C222.204 157.156 222.711 155.026 223.54 153.958C224.369 152.891 224.912 152.441 225.239 153.397C225.239 153.397 225.383 152.55 223.975 151.946C222.58 151.348 215.015 148.197 209.523 149.184C204.031 150.171 215.233 173.85 215.233 173.85Z" fill="#81BB27"/>
<path d="M202.782 150.429L205.315 156.022L206.405 155.388L203.549 148.83L201.719 144.402L200.778 145.971L202.782 150.429Z" fill="#B7C4B7"/>
<path d="M214.9 173.738L207.921 155.298C207.831 155.063 207.598 154.934 207.37 154.996C206.733 155.172 205.471 155.566 204.647 156.119C204.353 156.318 204.112 156.536 203.979 156.771C203.506 157.601 210.321 168.391 214.083 174.23C214.406 174.731 215.112 174.303 214.9 173.738Z" fill="#1E1E1D"/>
<path d="M167.778 159.197C168.211 159.04 168.587 158.73 169.019 158.887C169.037 158.901 169.449 159.312 169.634 159.555C169.055 159.398 168.356 159.669 168.211 159.829C168.211 159.513 168.067 159.197 167.778 159.197Z" fill="#282625"/>
<path d="M169.078 160.933C169.368 160.617 170.079 160.436 170.514 160.436C170.808 160.628 170.908 160.807 171.062 160.936C170.483 160.936 169.803 161.252 169.513 161.568C169.513 161.411 169.37 161.095 169.081 160.936L169.078 160.933Z" fill="#282625"/>
<path d="M170.668 162.352C170.957 162.036 171.407 161.849 171.986 161.689C172.065 161.737 172.321 161.938 172.69 162.193C172.111 162.349 171.533 162.824 171.246 162.981C171.246 162.665 171.103 162.349 170.668 162.349V162.352Z" fill="#282625"/>
<path d="M172.546 163.457C172.835 162.985 173.122 162.814 173.555 162.814C173.844 162.999 173.928 163.086 174.066 163.181C173.634 163.497 173.268 163.93 173.122 164.086C172.979 163.77 172.833 163.455 172.544 163.455L172.546 163.457Z" fill="#282625"/>
<path d="M172.981 164.562C173.226 164.338 173.258 163.94 173.053 163.673C172.847 163.405 172.483 163.37 172.238 163.594C171.993 163.818 171.961 164.217 172.166 164.484C172.371 164.752 172.736 164.787 172.981 164.562Z" fill="black"/>
<path d="M167.671 160.39C167.99 160.39 168.249 160.108 168.249 159.759C168.249 159.41 167.99 159.127 167.671 159.127C167.351 159.127 167.092 159.41 167.092 159.759C167.092 160.108 167.351 160.39 167.671 160.39Z" fill="black"/>
<path d="M168.989 162.16C169.308 162.16 169.567 161.877 169.567 161.528C169.567 161.179 169.308 160.896 168.989 160.896C168.669 160.896 168.41 161.179 168.41 161.528C168.41 161.877 168.669 162.16 168.989 162.16Z" fill="black"/>
<path d="M170.622 162.286C171.052 162.174 171.43 162.585 171.325 163.055C171.277 163.276 171.11 163.457 170.908 163.51C170.478 163.622 170.1 163.211 170.204 162.742C170.253 162.521 170.419 162.339 170.622 162.286Z" fill="black"/>
<path d="M173.554 155.075C173.821 154.966 174.046 154.765 174.317 154.851C174.327 154.86 174.594 155.103 174.714 155.251C174.353 155.167 173.923 155.354 173.836 155.455C173.828 155.259 173.734 155.066 173.554 155.075Z" fill="#282625"/>
<path d="M174.399 156.12C174.571 155.916 175.011 155.785 175.28 155.773C175.466 155.885 175.53 155.994 175.63 156.07C175.272 156.084 174.855 156.296 174.683 156.5C174.681 156.402 174.583 156.21 174.402 156.12H174.399Z" fill="#282625"/>
<path d="M175.413 156.962C175.584 156.758 175.86 156.632 176.216 156.518C176.267 156.546 176.429 156.663 176.664 156.811C176.308 156.923 175.96 157.23 175.784 157.337C175.776 157.141 175.681 156.948 175.413 156.959V156.962Z" fill="#282625"/>
<path d="M176.603 157.6C176.771 157.298 176.945 157.186 177.214 157.178C177.398 157.287 177.452 157.337 177.539 157.393C177.278 157.6 177.058 157.877 176.974 157.98C176.876 157.787 176.782 157.597 176.603 157.603V157.6Z" fill="#282625"/>
<path d="M176.893 158.274C177.04 158.129 177.051 157.881 176.919 157.721C176.786 157.56 176.559 157.548 176.413 157.693C176.266 157.838 176.254 158.085 176.387 158.245C176.52 158.406 176.746 158.418 176.893 158.274Z" fill="black"/>
<path d="M173.509 155.822C173.707 155.814 173.861 155.633 173.854 155.417C173.847 155.201 173.68 155.032 173.483 155.04C173.285 155.048 173.13 155.23 173.138 155.446C173.145 155.662 173.311 155.83 173.509 155.822Z" fill="black"/>
<path d="M174.364 156.889C174.561 156.881 174.716 156.699 174.708 156.483C174.701 156.267 174.535 156.099 174.337 156.107C174.139 156.115 173.985 156.296 173.992 156.512C174 156.728 174.166 156.897 174.364 156.889Z" fill="black"/>
<path d="M175.384 156.92C175.648 156.839 175.891 157.085 175.837 157.378C175.812 157.515 175.712 157.633 175.589 157.672C175.326 157.753 175.082 157.507 175.136 157.213C175.162 157.076 175.262 156.959 175.384 156.92Z" fill="black"/>
<path d="M142.815 77.418C142.815 77.418 152.484 93.6028 165.613 94.2905C165.613 94.2905 171.95 94.4638 171.046 94.953C170.015 95.5093 167.924 97.4688 167.924 97.4688C167.924 97.4688 158.452 97.7595 156.814 96.373C155.176 94.9893 145.97 90.6678 145.745 89.7118C145.52 88.7558 142.51 85.4461 141.96 83.0477C141.412 80.6494 140.898 78.1895 140.898 78.1895L142.812 77.4208L142.815 77.418Z" fill="#F15A24"/>
<path d="M137.911 69.2441C137.911 69.2441 137.43 74.2561 136.404 75.6818C135.378 77.1074 140.517 76.8502 140.517 76.8502L141.615 76.867C141.615 76.867 140.952 75.2932 141.615 71.978C142.242 68.85 141.906 70.1945 141.894 69.9234L137.911 69.2441Z" fill="#F7E7E7"/>
<path d="M134.794 77.7205C135.145 76.4207 136.475 75.7666 137.599 76.3396C141.458 78.3075 141.637 77.7597 142.137 77.2593C142.715 76.6807 144.45 86.2295 146.183 89.0723C147.918 91.9124 145.881 94.5651 145.653 97.7015C145.589 98.5624 145.63 99.0712 145.707 99.3731C145.83 99.865 145.817 100.382 145.63 100.849C145.126 102.101 144.245 104.315 143.391 106.571C142.09 110.009 145.43 110.599 143.741 112.43C140.657 115.773 136.846 115.46 134.761 114.719C132.721 113.995 134.878 112.961 132.593 113.076C131.477 113.132 129.445 112.503 128.36 112.335C127.275 112.167 127.165 111.524 127.318 110.317L131.236 92.1332C131.249 92.0242 131.272 91.9151 131.3 91.8117L134.796 77.7233L134.794 77.7205Z" fill="#F15A24"/>
<path d="M166.378 105.159C166.289 105.137 166.232 105.098 166.161 105.042C165.702 104.679 164.1 103.382 163.205 103.396C162.23 103.412 161.864 103.354 160.231 103.555H159.028C158.943 103.577 157.93 103.558 157.866 103.493C157.73 103.351 157.787 102.982 157.95 102.4C158.191 101.542 158.304 101.12 158.593 100.888C159.046 100.519 162.178 100.122 164.535 100.863C164.535 100.863 164.812 100.846 166.258 102.247C167.786 103.725 168.556 105.313 168.605 105.554C168.694 105.984 168.42 105.833 168.42 105.833C168.42 105.833 168.093 105.699 167.919 105.461C167.622 105.053 167.305 104.614 167.271 104.556C167.22 104.463 166.207 103.097 166.207 103.097L168.152 105.805C168.167 105.828 168.185 105.844 168.198 105.869C168.275 106.012 168.395 106.535 167.845 106.124C167.379 105.777 166.795 104.975 166.204 104.304C165.979 104.05 165.948 104.019 165.751 103.854C164.945 103.183 165.26 103.415 165.26 103.415L166.268 104.449C166.268 104.449 166.719 104.799 166.624 105.073C166.593 105.162 166.534 105.204 166.378 105.165V105.159Z" fill="#D5C4BB"/>
<path d="M164.333 104.695C164.264 104.776 164.118 104.695 164.116 105.028C164.113 105.361 164.006 105.615 163.793 105.442C163.581 105.268 163.399 104.832 163.478 104.718C163.548 104.617 164.328 104.687 164.333 104.698V104.695Z" fill="#D5C4BB"/>
<path d="M154.662 103.048C154.662 103.048 152.136 102.509 149.978 101.818C146.014 100.547 144.537 100.463 143.67 99.1992C142.802 97.9357 140.634 96.0433 138.899 93.3597C137.164 90.6762 134.853 87.361 134.996 84.8368C135.14 82.3099 133.491 80.0345 134.791 78.2958C136.092 76.5599 136.534 73.9854 140.146 75.2489C143.759 76.5124 143.314 79.495 143.401 81.966C143.498 84.7753 145.039 88.9655 147.063 91.9621C149.088 94.9615 154.626 96.1718 157.661 98.0671C160.697 99.9623 160.976 100.259 160.976 100.259C160.976 100.259 160.553 100.376 160.32 102.386C160.131 104.038 157.915 103.551 157.523 103.73C157.426 103.775 157.313 103.77 157.211 103.742L154.662 103.051V103.048Z" fill="#F15A24"/>
<path d="M166.107 104.859C166.084 104.842 166.081 104.809 166.097 104.786C166.138 104.731 166.202 104.613 166.237 104.608C166.299 104.602 166.573 104.876 166.583 104.918C166.583 104.918 166.598 105.055 166.404 105.097L166.107 104.859Z" fill="#B7C4B7"/>
<path d="M167.686 105.771C167.686 105.771 167.822 105.483 167.898 105.578C167.975 105.673 168.177 105.913 168.165 106.003C168.152 106.092 168.144 106.173 168.067 106.162C167.991 106.151 167.689 105.774 167.689 105.774L167.686 105.771Z" fill="#B7C4B7"/>
<path d="M168.001 105.311C168.001 105.311 168.141 105.01 168.221 105.107C168.3 105.205 168.561 105.507 168.548 105.599C168.536 105.692 168.479 105.731 168.397 105.72C168.316 105.708 168.001 105.311 168.001 105.311Z" fill="#B7C4B7"/>
<path d="M137.72 64.0586C137.72 64.0586 136.643 66.1187 138.495 68.3494C138.495 68.3494 139.711 70.0909 140.174 71.5249C140.174 71.5249 140.551 72.7464 140.919 75.1029C141.096 76.2294 141.585 78.242 142.409 80.0674L143.514 81.8312C143.514 81.8312 141.546 80.537 140.448 78.0743C140.448 78.0743 139.018 75.5977 138.559 73.2636C138.559 73.2636 138.672 75.6256 137.382 76.7801C136.092 77.9345 134.792 78.2253 135.092 80.5006C135.092 80.5006 135.34 82.5832 135.918 84.7216L136.584 87.3296C136.584 87.3296 135.033 87.4386 133.436 86.7929C131.839 86.1472 129.471 85.1493 129.233 81.834C128.998 78.5216 131.445 75.525 132.266 73.504C133.088 71.483 131.977 68.8498 133.426 65.5457C133.426 65.5457 135.383 65.8923 137.723 64.0642L137.72 64.0586Z" fill="#563324"/>
<path d="M129.23 81.8291C129.097 79.9814 129.801 78.2315 130.592 76.6969C128.992 82.0611 130.576 83.1988 130.576 83.1988C130.497 78.539 132.67 76.8674 132.67 76.8674C130.976 79.4083 131.408 81.9576 132.056 83.7522C132.805 85.8292 134.456 85.4714 134.456 85.4714L133.97 84.0262C132.931 81.3539 133.494 78.1197 134.175 77.7675C134.853 77.4153 136.493 75.534 136.967 73.8093C137.44 72.0846 136.409 66.2871 136.409 66.2871C137.225 66.603 139.14 74.497 139.14 74.497C139.14 74.497 139.14 74.7737 139.14 75.2517C138.904 74.6172 138.689 73.9323 138.559 73.2586C138.559 73.2586 138.671 75.6207 137.381 76.7751C136.092 77.9296 134.791 78.2203 135.091 80.4957C135.091 80.4957 135.339 82.5782 135.918 84.7166L136.583 87.3247C136.583 87.3247 135.032 87.4337 133.435 86.788C131.838 86.1422 129.471 85.1443 129.233 81.8291H129.23Z" fill="#422720"/>
<path d="M145.443 59.1964C145.443 59.1964 145.64 61.6479 145.63 62.5564C145.62 63.4648 145.223 64.4628 145.185 65.3237C145.146 66.1847 145.523 67.2413 145.484 67.5488C145.454 67.7948 144.555 68.2337 144.87 68.4992C145.185 68.7648 144.379 68.8906 144.704 68.8794C144.926 68.8738 144.96 69.1282 144.745 69.1561C144.53 69.1841 144.317 69.7739 144.353 69.8913C144.389 70.0087 144.589 72.5944 142.564 71.8061C140.54 71.0178 138.464 70.0003 138.336 69.6397C138.208 69.2791 136.985 65.8856 136.985 65.8856C136.985 65.8856 137 60.144 137.09 59.9847C137.179 59.8253 138.247 58.151 138.247 58.151L139.368 57.5388L142.257 57.0859H144.01L145.057 58.2292L145.441 59.1936L145.443 59.1964Z" fill="#F7E7E7"/>
<path d="M140 71.9173C140.691 72.1326 141.062 71.0424 140.427 70.6762C139.861 70.3519 139.329 69.9774 139.368 69.7398C139.444 69.2394 141.011 68.194 140.744 67.6097C140.478 67.0255 140.821 64.8536 139.675 64.5628C138.528 64.2721 138.528 64.479 138.413 63.8528C138.298 63.2267 137.801 61.6389 139.178 60.8059C140.555 59.9701 140.783 59.0533 142.925 59.0533C145.067 59.0533 145.533 60.272 145.533 60.3978C145.533 60.5236 146.326 60.0568 146.518 59.0533C146.71 58.0498 146.06 54.1671 142.045 52.5821C138.277 51.0922 133.937 52.9064 132.974 53.2977C132.933 53.3145 132.388 53.7002 132.35 53.7282C131.879 54.0944 128.741 56.7248 129.276 61.2252C129.85 66.0695 131.418 66.6537 131.876 66.9864C132.335 67.319 134.553 69.2003 135.278 69.5329C136.002 69.8656 139.255 71.6629 139.979 71.9117C139.987 71.9117 139.995 71.9173 140.002 71.9201L140 71.9173Z" fill="black"/>
<path d="M144.885 68.7561C145.003 68.6722 144.939 68.4766 144.855 68.4766C144.512 68.4766 143.759 68.6862 143.567 68.6778C143.37 68.6666 144.34 69.0692 144.665 69.1418C144.706 69.1502 144.714 69.153 144.786 69.1614C144.957 69.181 145.044 68.8987 144.821 68.8595C144.719 68.8427 144.824 68.8036 144.885 68.7589V68.7561Z" fill="#F7CDCD"/>
<path d="M172.869 81.6523C172.869 81.6523 173.642 81.834 173.496 82.8739C173.35 83.9138 172.129 85.7726 171.589 86.027C171.049 86.2814 170.509 85.9208 170.509 85.9208L172.871 81.6523H172.869Z" fill="black"/>
<path d="M172.318 84.2067C172.998 83.0285 173.3 81.9019 172.992 81.6905C172.685 81.479 171.885 82.2627 171.205 83.4409C170.526 84.6191 170.224 85.7457 170.531 85.9571C170.839 86.1686 171.639 85.3849 172.318 84.2067Z" fill="white"/>
<path d="M172.265 85.3615L173.444 91.746L173.749 93.7977H174.171L172.538 84.9785L172.265 85.3615Z" fill="black"/>
<path d="M160.83 91.6382C160.83 91.6382 165.296 95.5489 165.321 95.6355C165.347 95.7222 165.321 98.319 165.321 98.319H165.928V95.5489L163.868 93.6732L160.405 90.8164L160.208 91.1351L160.83 91.641V91.6382Z" fill="black"/>
<path d="M158.557 92.1986C159.958 92.1986 161.093 90.9133 161.093 89.3278C161.093 87.7423 159.958 86.457 158.557 86.457C157.156 86.457 156.021 87.7423 156.021 89.3278C156.021 90.9133 157.156 92.1986 158.557 92.1986Z" fill="black"/>
<path d="M197.092 115.09C196.732 115.381 196.652 115.94 196.921 116.334C197.19 116.728 198.472 117.133 198.472 117.133C198.472 117.133 198.5 115.674 198.231 115.277C197.963 114.88 197.453 114.796 197.092 115.087V115.09ZM197.75 116.065C197.62 116.172 197.435 116.141 197.338 115.996C197.241 115.85 197.269 115.652 197.399 115.545C197.53 115.439 197.714 115.47 197.812 115.615C197.909 115.761 197.881 115.959 197.75 116.065Z" fill="white"/>
<path d="M197.594 125.632L196.028 123.309C195.984 123.27 195.948 123.222 195.897 123.194C195.838 123.161 195.772 123.147 195.705 123.152C195.631 123.158 195.559 123.175 195.49 123.2C195.47 123.208 195.449 123.217 195.429 123.225C195.414 123.236 195.396 123.245 195.38 123.256C195.38 123.256 195.38 123.256 195.378 123.258C195.362 123.27 195.347 123.281 195.332 123.292L193.878 124.463L194.625 125.573L195.506 124.863L195.669 125.106C195.616 125.291 195.534 125.458 195.424 125.607C195.314 125.755 195.188 125.88 195.042 125.978C194.897 126.079 194.738 126.149 194.566 126.191C194.395 126.233 194.216 126.238 194.037 126.208C193.834 126.174 193.65 126.101 193.481 125.987C193.312 125.872 193.172 125.732 193.059 125.567C192.946 125.402 192.867 125.212 192.816 125.003C192.767 124.793 192.757 124.578 192.788 124.357C192.818 124.136 192.885 123.935 192.99 123.753C193.095 123.572 193.223 123.418 193.376 123.298C193.53 123.177 193.699 123.088 193.891 123.032C194.083 122.976 194.277 122.965 194.479 122.999L194.669 121.632C194.293 121.57 193.929 121.587 193.578 121.688C193.228 121.788 192.908 121.953 192.626 122.179C192.345 122.406 192.104 122.691 191.912 123.026C191.72 123.365 191.595 123.736 191.539 124.147C191.482 124.558 191.5 124.952 191.595 125.335C191.69 125.718 191.841 126.065 192.051 126.375C192.26 126.686 192.516 126.945 192.824 127.155C193.128 127.365 193.468 127.502 193.845 127.563C194.221 127.625 194.584 127.608 194.935 127.507C195.286 127.407 195.603 127.242 195.887 127.015C196.002 126.923 196.112 126.817 196.217 126.702C196.322 126.588 196.414 126.465 196.499 126.331L196.578 126.448L197.597 125.629L197.594 125.632Z" fill="white"/>
<path d="M196.721 118.895C197.026 118.651 197.354 118.484 197.707 118.397C198.06 118.308 198.408 118.294 198.756 118.35C199.102 118.406 199.432 118.534 199.744 118.733C200.056 118.934 200.327 119.199 200.55 119.532C200.773 119.865 200.926 120.225 201.008 120.611C201.09 120.997 201.103 121.38 201.052 121.757C200.998 122.134 200.88 122.495 200.699 122.836C200.517 123.177 200.274 123.471 199.972 123.717C199.67 123.963 199.34 124.128 198.986 124.214C198.633 124.304 198.285 124.318 197.942 124.262C197.599 124.203 197.269 124.074 196.957 123.876C196.645 123.675 196.376 123.409 196.151 123.076C195.925 122.744 195.774 122.386 195.693 121.997C195.611 121.612 195.595 121.232 195.646 120.854C195.698 120.48 195.815 120.119 195.997 119.778C196.179 119.437 196.422 119.143 196.726 118.897L196.721 118.895ZM199.224 122.601C199.388 122.47 199.519 122.311 199.618 122.129C199.716 121.944 199.78 121.752 199.808 121.547C199.836 121.343 199.828 121.137 199.785 120.93C199.741 120.723 199.657 120.53 199.537 120.348C199.416 120.167 199.27 120.027 199.104 119.918C198.935 119.812 198.759 119.742 198.572 119.708C198.385 119.677 198.196 119.686 198.006 119.733C197.817 119.781 197.64 119.87 197.476 120.004C197.313 120.139 197.182 120.295 197.082 120.477C196.985 120.661 196.921 120.854 196.893 121.061C196.865 121.265 196.872 121.472 196.916 121.679C196.959 121.886 197.044 122.079 197.164 122.26C197.284 122.442 197.43 122.585 197.597 122.691C197.766 122.8 197.942 122.867 198.129 122.9C198.316 122.931 198.505 122.923 198.695 122.875C198.884 122.828 199.061 122.738 199.224 122.607V122.601Z" fill="white"/>
<path d="M197.054 128.571C196.977 128.582 196.921 128.585 196.885 128.58C196.829 128.571 196.783 128.54 196.75 128.49C196.716 128.44 196.701 128.381 196.711 128.32C196.719 128.258 196.747 128.208 196.793 128.169C196.839 128.13 196.89 128.116 196.941 128.127C196.993 128.135 197.034 128.16 197.062 128.202H197.064L197.026 128.275C196.995 128.239 196.962 128.219 196.931 128.213C196.901 128.208 196.87 128.216 196.842 128.241C196.814 128.267 196.796 128.294 196.79 128.334C196.785 128.373 196.79 128.406 196.814 128.44C196.837 128.473 196.862 128.49 196.898 128.496C196.918 128.499 196.957 128.499 197.013 128.496C197.098 128.485 197.164 128.482 197.208 128.487C197.279 128.499 197.336 128.538 197.377 128.599C197.417 128.661 197.435 128.733 197.425 128.809C197.415 128.887 197.382 128.949 197.323 128.993C197.264 129.038 197.2 129.058 197.131 129.044C197.059 129.032 197.008 128.999 196.972 128.946L197.023 128.876C197.054 128.921 197.095 128.949 197.144 128.957C197.192 128.965 197.236 128.954 197.277 128.921C197.318 128.887 197.341 128.845 197.348 128.792C197.356 128.739 197.346 128.689 197.315 128.647C197.284 128.605 197.246 128.577 197.197 128.568C197.172 128.563 197.123 128.566 197.057 128.568L197.054 128.571Z" fill="white"/>
<path d="M196.857 127.412L196.921 127.361L197.274 127.884C197.289 127.783 197.336 127.702 197.412 127.641C197.494 127.574 197.581 127.549 197.671 127.563C197.76 127.577 197.837 127.627 197.896 127.714L198.242 128.228L198.178 128.278L197.835 127.772C197.791 127.708 197.732 127.669 197.658 127.658C197.584 127.646 197.517 127.663 197.458 127.711C197.4 127.758 197.364 127.823 197.351 127.901C197.346 127.937 197.346 127.971 197.351 128.001L197.763 128.611L197.699 128.661L196.857 127.412Z" fill="white"/>
<path d="M199.212 127.444L199.148 127.495L199.043 127.338C199.043 127.366 199.043 127.394 199.038 127.422C199.017 127.567 198.953 127.685 198.846 127.772C198.738 127.858 198.618 127.892 198.485 127.869C198.352 127.847 198.244 127.777 198.165 127.66C198.085 127.542 198.055 127.408 198.075 127.263C198.096 127.117 198.16 127 198.267 126.913C198.375 126.827 198.498 126.793 198.631 126.816C198.656 126.821 198.682 126.827 198.707 126.835L198.633 126.726L198.697 126.676L199.214 127.442L199.212 127.444ZM198.92 127.159L198.825 127.02C198.766 126.961 198.697 126.925 198.613 126.911C198.503 126.891 198.403 126.919 198.313 126.992C198.224 127.064 198.17 127.159 198.155 127.28C198.137 127.4 198.162 127.509 198.229 127.607C198.295 127.704 198.382 127.763 198.492 127.78C198.602 127.797 198.702 127.772 198.792 127.699C198.881 127.626 198.935 127.531 198.951 127.411C198.963 127.322 198.951 127.238 198.917 127.159H198.92Z" fill="white"/>
<path d="M198.91 126.506L198.974 126.455L199.068 126.595C199.068 126.564 199.068 126.531 199.073 126.497C199.089 126.391 199.125 126.31 199.181 126.26L199.232 126.335C199.194 126.369 199.168 126.427 199.155 126.511C199.14 126.626 199.16 126.732 199.222 126.827L199.488 127.224L199.424 127.274L198.907 126.509L198.91 126.506Z" fill="white"/>
<path d="M199.27 125.823C199.291 125.826 199.309 125.837 199.321 125.857C199.334 125.876 199.339 125.898 199.337 125.921C199.334 125.943 199.321 125.963 199.306 125.977C199.291 125.991 199.268 125.996 199.247 125.993C199.224 125.991 199.209 125.979 199.193 125.96C199.178 125.94 199.176 125.918 199.178 125.896C199.181 125.873 199.193 125.854 199.209 125.84C199.224 125.826 199.247 125.82 199.268 125.823H199.27ZM199.426 126.086L199.943 126.852L199.879 126.902L199.362 126.136L199.426 126.086Z" fill="white"/>
<path d="M199.836 126.023L200.238 126.618L200.174 126.668L199.657 125.903L199.721 125.852L199.754 125.903C199.769 125.791 199.815 125.704 199.895 125.643C199.977 125.575 200.064 125.55 200.153 125.564C200.243 125.578 200.317 125.629 200.378 125.715L200.724 126.23L200.66 126.28L200.317 125.774C200.274 125.71 200.215 125.67 200.14 125.659C200.066 125.648 200 125.665 199.941 125.712C199.882 125.76 199.846 125.824 199.833 125.903C199.828 125.947 199.828 125.986 199.833 126.023H199.836Z" fill="white"/>
<path d="M201.525 125.348C201.525 125.373 201.523 125.401 201.52 125.426C201.499 125.571 201.436 125.689 201.328 125.775C201.221 125.862 201.1 125.896 200.967 125.873C200.834 125.851 200.727 125.781 200.647 125.664C200.568 125.546 200.537 125.412 200.558 125.267C200.578 125.121 200.642 125.007 200.75 124.917C200.857 124.828 200.98 124.797 201.11 124.819C201.136 124.825 201.162 124.831 201.187 124.839L201.113 124.73L201.177 124.68L201.579 125.275C201.656 125.39 201.686 125.518 201.666 125.661C201.645 125.806 201.581 125.924 201.474 126.01C201.366 126.097 201.244 126.13 201.11 126.108C201.082 126.103 201.057 126.097 201.031 126.089L201.08 126.007C201.093 126.01 201.108 126.013 201.121 126.016C201.231 126.035 201.331 126.007 201.42 125.935C201.51 125.862 201.561 125.767 201.579 125.647C201.594 125.538 201.576 125.437 201.523 125.348H201.525ZM201.305 125.018C201.246 124.962 201.177 124.926 201.098 124.912C200.988 124.892 200.888 124.92 200.798 124.993C200.709 125.065 200.655 125.16 200.64 125.281C200.622 125.401 200.647 125.51 200.714 125.608C200.78 125.706 200.867 125.764 200.977 125.781C201.087 125.801 201.187 125.773 201.277 125.7C201.366 125.627 201.42 125.532 201.436 125.412C201.448 125.325 201.436 125.242 201.405 125.166L201.305 125.018Z" fill="white"/>
<path d="M167.064 91.8885C167.064 91.8885 170.565 93.7195 170.529 94.491C170.494 95.2625 168.415 96.6238 167.507 96.99C166.429 97.4233 165.759 97.2528 165.68 97.686C165.649 97.8537 165.705 97.9292 165.708 98.0466C165.713 98.2087 165.838 98.3317 165.984 98.3178C166.493 98.2674 167.594 97.8146 167.97 97.6385C168.39 97.4428 170.693 96.0871 171.052 94.927C171.348 93.9711 170.867 93.4986 169.57 92.2268C168.272 90.9549 167.939 90.4434 167.939 90.4434L167.067 91.8885H167.064Z" fill="black"/>
<path d="M166.614 87.1454H169.007C169.396 87.1454 169.644 87.5898 169.452 87.9532L166.396 93.7759C166.268 94.0191 165.987 94.1197 165.746 94.0079L163.906 93.1553C163.632 93.0295 163.519 92.6801 163.66 92.4006L166.163 87.4305C166.253 87.2544 166.424 87.1426 166.614 87.1426V87.1454Z" fill="#99DB26"/>
<path d="M167.018 87.248H169.017C169.495 87.248 169.797 87.8099 169.565 88.2655L166.788 93.7052C166.632 94.0127 166.286 94.1413 165.989 93.9987L164.459 93.272C164.123 93.1126 163.983 92.6738 164.157 92.3215L166.465 87.6114C166.575 87.3878 166.788 87.2508 167.018 87.2508V87.248Z" fill="black"/>
<path d="M168.787 96.9208C168.787 96.9208 169.483 93.9046 170.942 92.5405C172.4 91.1764 173.723 90.4273 174.407 91.4755L175.07 93.2505C175.07 93.2505 171.886 95.1989 171.077 95.7691C170.268 96.3394 168.856 97.1081 168.856 97.1081L168.787 96.9208Z" fill="#1E1E1E"/>
<path d="M174.668 93.3262L174.002 91.5428C173.977 91.4702 173.91 91.4282 173.839 91.4366C173.56 91.4702 172.871 91.6043 172.559 92.1382C172.533 92.183 172.531 92.2445 172.549 92.2948L173.245 94.162C173.281 94.2571 173.386 94.299 173.467 94.2459L174.596 93.5387C174.665 93.4968 174.693 93.4045 174.663 93.3262H174.668Z" fill="white"/>
<path d="M176.298 92.5498C176.298 92.5498 178.456 90.9788 178.77 90.9844C179.085 90.99 179.896 91.1661 179.523 91.9795L177.393 94.1012L175.32 95.8203L174.906 94.1096L175.067 93.2234L176.298 92.547V92.5498Z" fill="black"/>
<ellipse opacity="0.7" cx="122.957" cy="187.63" rx="17.51" ry="1.39415" fill="url(#paint0_radial_16546_58559)"/>
<ellipse opacity="0.7" cx="207.405" cy="194.662" rx="17.51" ry="1.39415" fill="url(#paint1_radial_16546_58559)"/>
</g>
<defs>
<radialGradient id="paint0_radial_16546_58559" cx="0" cy="0" r="1" gradientUnits="userSpaceOnUse" gradientTransform="translate(122.957 187.63) rotate(90) scale(1.39415 17.51)">
<stop/>
<stop offset="1" stop-color="#D9D9D9" stop-opacity="0"/>
</radialGradient>
<radialGradient id="paint1_radial_16546_58559" cx="0" cy="0" r="1" gradientUnits="userSpaceOnUse" gradientTransform="translate(207.405 194.662) rotate(90) scale(1.39415 17.51)">
<stop/>
<stop offset="1" stop-color="#D9D9D9" stop-opacity="0"/>
</radialGradient>
<clipPath id="clip0_16546_58559">
<rect width="151.753" height="143" fill="white" transform="translate(85.0183 52)"/>
</clipPath>
</defs>
</svg>
