<svg width="343" height="233" viewBox="0 0 343 233" fill="none" xmlns="http://www.w3.org/2000/svg">
<path d="M198.05 126.232L206.237 139.4C208.184 143.112 208.578 149.383 208.869 151.398L209.16 155.435C209.354 157.027 209.257 158.408 209.257 159.472L209.16 186.97H214.619L213.351 145.564C213.351 144.606 213.448 142.063 213.545 140.576C214.813 127.197 218.415 127.408 221.829 126.246L222.709 125.288H218.615L212.478 131.234V122.209H208.384V131.551L200.003 124.33L196.498 124.435L198.057 126.239L198.05 126.232Z" fill="#754C24"/>
<path d="M227.184 125.379C221.726 131.431 201.161 140.245 188.104 125.168C187.619 124.639 186.643 125.062 185.957 124.851C181.281 123.681 178.552 120.497 176.897 116.354C176.315 114.868 176.017 113.275 176.017 111.683C176.114 108.076 177.382 104.997 180.111 102.658C178.261 99.3679 177.382 95.6479 178.164 91.301C178.455 89.7087 179.044 88.2222 179.82 86.947C181.967 83.1284 183.526 79.1971 187.225 78.1333C189.074 68.3684 193.265 65.9237 201.258 68.15C206.328 63.479 213.047 64.2187 215 70.9118C225.134 67.833 229.713 73.8849 230.204 86.6229C239.168 89.3846 240.338 95.1195 238.586 101.806C241.994 104.567 243.455 107.857 243.261 111.676C243.067 116.981 239.756 121.547 235.171 123.357C232.733 124.315 230.198 124.949 228.833 125.161C228.251 125.161 227.566 124.949 227.178 125.372L227.184 125.379Z" fill="#A9D661"/>
<path d="M160.527 135.891L167.253 146.719C168.908 149.798 169.199 154.892 169.4 156.484L169.691 159.774C169.788 161.049 169.788 162.219 169.788 163.064L169.691 185.574H174.172L173.099 151.707C173.099 150.968 173.196 148.84 173.293 147.67C174.366 136.736 177.289 136.947 180.018 135.989L180.697 135.249H177.386L172.413 140.132V132.805H169.005V140.449L162.182 134.503L159.259 134.608L160.527 135.883V135.891Z" fill="#754C24"/>
<path d="M184.306 135.257C179.824 140.245 163.062 147.361 152.339 135.046C151.951 134.623 151.169 134.94 150.587 134.834C146.784 133.876 144.547 131.333 143.182 127.824C142.697 126.655 142.503 125.274 142.503 124.006C142.6 121.032 143.674 118.482 145.814 116.678C144.353 114.022 143.57 110.944 144.256 107.336C144.45 106.061 144.935 104.892 145.62 103.729C147.373 100.65 148.64 97.3601 151.66 96.5076C153.219 88.5464 156.634 86.5244 163.159 88.3351C167.252 84.5165 172.808 85.0449 174.366 90.5614C182.65 88.011 186.453 93.0061 186.841 103.405C194.149 105.631 195.125 110.309 193.761 115.826C196.587 118.052 197.757 120.814 197.563 123.893C197.369 128.247 194.64 131.96 190.935 133.446C188.891 134.299 186.841 134.722 185.767 134.933C185.282 134.933 184.694 134.827 184.306 135.25V135.257Z" fill="#EACE03"/>
<path d="M226.406 99.797L237.322 117.312C239.954 122.3 240.439 130.585 240.827 133.234L241.215 138.652C241.409 140.773 241.312 142.583 241.409 143.957L241.312 187.807H248.62L246.964 125.273C246.867 123.998 247.061 120.602 247.255 118.693C248.911 100.854 253.787 101.178 258.269 99.6913L259.439 98.4161H253.981L245.794 106.272V94.2734H240.239V106.694L229.128 97.0352L224.453 97.2466L226.399 99.797H226.406Z" fill="#754C24"/>
<path d="M265.091 98.7333C257.881 106.8 230.396 118.481 213.051 98.4163C212.372 97.6765 211.105 98.3106 210.128 98.0992C203.894 96.507 200.285 92.3643 198.041 86.7422C197.259 84.7272 196.871 82.5995 196.968 80.4789C197.065 75.5964 198.817 71.5595 202.329 68.4807C199.891 64.1266 198.72 59.1386 199.794 53.298C200.182 51.1773 200.964 49.261 201.941 47.4574C204.767 42.3636 206.811 37.1571 211.784 35.6706C214.319 22.7213 219.874 19.424 230.493 22.2915C237.218 16.0282 246.182 16.9864 248.717 26.0044C262.265 21.8617 268.402 30.0414 268.984 46.922C280.871 50.5292 282.436 58.1733 280.192 67.0927C284.77 70.6999 286.626 75.1596 286.426 80.1548C286.135 87.1649 281.75 93.3225 275.704 95.7602C272.392 97.1411 269.075 97.8808 267.225 98.2049C266.546 98.4163 265.667 98.2049 265.078 98.7333H265.091Z" fill="#BC8E6F"/>
<path d="M168.756 212.03C255.895 212.03 326.536 204.756 326.536 195.784C326.536 186.811 255.895 179.537 168.756 179.537C81.6163 179.537 10.9758 186.811 10.9758 195.784C10.9758 204.756 81.6163 212.03 168.756 212.03Z" fill="#F3F3F3"/>
<path d="M67.1493 144.004C67.1493 144.004 67.1102 143.979 67.0945 143.962C66.7194 143.637 62.3508 139.852 61.3036 139.22C60.2564 138.588 59.0373 138.434 59.4124 137.323C59.7875 136.212 62.0304 134.649 62.8119 134.358C63.5075 134.102 64.8751 133.529 65.1721 133.41C65.2111 133.393 65.2424 133.376 65.2815 133.359C65.5159 133.222 66.4928 132.649 66.7429 132.666C67.032 132.692 68.6888 130.761 70.6035 133.76C72.5181 136.759 73.2215 136.981 73.2215 137.477C73.2215 137.947 71.6819 142.586 68.8373 144.56C68.5325 144.773 68.1496 144.756 67.8526 144.534L67.1414 144.004H67.1493Z" stroke="black" stroke-width="0.91" stroke-miterlimit="10"/>
<path d="M73.8775 145.884C73.8775 145.884 68.7977 147.259 69.4229 143.85C70.0481 140.441 70.7671 136.485 74.6981 136.425C78.629 136.366 79.0354 138.015 83.3805 139.886C87.7256 141.757 88.3196 142.312 96.1737 142.534C104.028 142.757 106.482 142.808 107.826 142.697C109.17 142.586 110.459 149.139 109.639 150.899C108.818 152.659 102.277 151.224 101.902 151.053C101.527 150.882 80.1842 147.037 77.5974 146.268C75.0107 145.499 73.8931 145.884 73.8931 145.884H73.8775Z" fill="#131315"/>
<path d="M58.7403 137.768C58.7403 137.768 56.81 138.469 55.6768 137.768C54.5436 137.068 48.7293 135 47.1428 135.248C45.5564 135.495 44.0012 134.248 44.0012 134.248C44.0012 134.248 50.3939 135.248 53.6762 135.367C56.9663 135.487 58.5527 134.906 59.0763 135.487C59.5999 136.068 59.5452 136.222 59.2639 136.845C58.9826 137.469 58.7325 137.768 58.7325 137.768H58.7403Z" fill="#1E1E1E"/>
<path d="M103.629 150.046C103.629 150.046 94.1497 175.635 92.5554 175.593C90.9612 175.55 90.3594 182.368 90.2109 183.06C90.0625 183.752 87.8508 187.067 93.2197 188.221C98.5886 189.374 123.667 194.415 123.667 194.415C123.667 194.415 129.028 195.569 132.279 194.826C135.53 194.082 138.25 192.595 139.531 192.433C140.813 192.271 146.182 184.914 147.768 182.77C149.355 180.625 164.993 154.6 165.141 153.284C165.29 151.968 163.203 148.722 161.992 145.671C160.78 142.621 151.605 129.472 151.605 129.472L143.001 119.407C143.001 119.407 141.845 118.689 140.836 119.407C139.828 120.125 137.742 122.346 137.593 123.508C137.445 124.67 137.288 128.797 137.445 129.455C137.601 130.113 140.891 137.52 140.891 137.52C140.891 137.52 133.514 136.367 133.358 137.606C133.201 138.845 133.623 144.339 133.764 147.56C133.905 150.781 133.983 151.78 133.764 153.062C133.615 153.908 128.801 175.815 128.801 175.815L110.366 169.082L112.28 148.764L111.1 149.337L104.012 148.696L103.637 150.063L103.629 150.046Z" fill="black"/>
<path d="M147.666 151.89L133.56 128.428C133.56 128.428 130.512 123.378 129.934 124.463C129.356 125.548 129.785 130.41 129.785 130.41C129.785 130.41 135.475 143.072 136.788 145.499C138.101 147.925 139.304 154.752 139.304 154.752L135.076 169.952L136.788 181.41L137.647 181.854L143.845 169.961L151.339 157.452L147.666 151.898V151.89Z" fill="#81BB27"/>
<path d="M163.523 165.279L161.273 160.11L161.859 159.393L163.226 162.827L164.297 165.279H163.523Z" fill="#B7C4B7"/>
<path d="M131.122 133.384C131.122 133.384 128.058 127.13 126.628 124.857C125.198 122.584 124.713 122.251 122.549 120.671C120.814 119.397 118.712 116.518 118.016 116.142C116.82 115.493 112.335 119.022 112.038 118.851C111.741 118.68 112.819 116.962 112.764 116.467C112.717 115.937 111.764 115.775 111.1 116.134C110.834 116.279 108.482 117.842 107.45 118.534C107.02 118.825 106.45 118.671 106.2 118.184C106.098 117.988 106.028 117.731 106.02 117.415C105.981 116.219 108.302 114.732 108.302 114.732L113.257 109.239C113.257 109.239 116.695 105.385 120.525 104.505C124.354 103.625 126.011 103.617 127.066 104.163C128.121 104.71 134.287 108.905 135.647 110.341C137.006 111.776 140.93 116.202 140.226 116.791C139.523 117.381 136.006 118.5 135.272 118.902C134.623 119.252 133.232 120.303 133.232 120.303C132.872 120.833 132.036 121.098 130.911 124.379C130.559 125.412 129.754 123.951 129.637 127.121C129.559 129.146 131.13 133.376 131.13 133.376L131.122 133.384Z" fill="black"/>
<path d="M67.8836 133.325C67.8836 133.325 61.9911 136.887 56.9504 136.999C51.9176 137.11 38.9212 135.512 36.397 133.863C33.8806 132.214 30.1997 125.49 30.1528 123.507C30.1059 121.525 30.1528 120.919 30.1528 120.919C30.1528 120.919 29.0978 120.645 29.2932 119.047C29.4886 117.45 29.3948 117.116 29.9496 116.954C30.5045 116.792 31.2078 116.681 31.2078 116.681C31.2078 116.681 31.6611 114.254 32.5208 113.263C33.3804 112.272 37.2566 109.41 39.7262 107.923C42.1957 106.436 49.6981 103.352 57.0989 103.685C64.4997 104.018 69.5404 103.352 71.455 109.136C71.455 109.136 72.6664 113.87 72.9164 114.639C73.1665 115.408 73.4713 117.339 72.5648 120.039C71.6582 122.738 69.8452 130.966 69.1809 132C68.5166 133.034 67.8836 133.325 67.8836 133.325Z" fill="#1E1E1E"/>
<path d="M29.9574 116.954C29.9574 116.954 50.7375 117.894 53.9807 117.398C57.2318 116.902 72.5569 113.365 72.5569 113.365L73.0962 115.459C73.0962 115.459 58.5837 119.303 56.1689 119.303C53.7541 119.303 29.5745 118.013 29.5745 118.013H29.4182L29.4729 117.569C29.4729 117.569 29.5042 117.415 29.5276 117.355C29.5511 117.296 29.5901 117.219 29.5901 117.21C29.5901 117.202 29.6449 117.125 29.6917 117.09C29.7386 117.056 29.8559 116.996 29.8715 116.988C29.8871 116.979 29.9496 116.962 29.9496 116.962L29.9574 116.954Z" fill="#070707"/>
<path d="M29.418 117.988C29.418 117.988 29.1132 120.192 29.6369 120.551C30.1605 120.91 40.6872 121.995 40.6872 121.995C40.6872 121.995 55.4185 122.679 56.4032 122.593C57.3879 122.508 72.5724 120.03 72.5724 120.03C72.5724 120.03 73.221 116.493 73.1663 115.972C73.1116 115.45 73.0491 115.459 73.0491 115.459C73.0491 115.459 61.2407 118.484 59.2556 118.834C57.2706 119.184 34.3805 118.091 34.3805 118.091L29.4258 117.988H29.418Z" fill="#3D3D3D"/>
<path d="M71.0488 118.218C71.0488 118.218 73.9951 117.637 74.1436 117.184C74.292 116.731 74.1045 115.74 73.6121 115.74C73.1198 115.74 70.5877 116.466 70.5877 116.466L70.3142 116.56C69.8609 116.706 69.5874 117.227 69.7125 117.722C69.7125 117.722 69.7125 117.74 69.7125 117.748L69.9235 118.534L71.041 118.227L71.0488 118.218Z" fill="white"/>
<path d="M58.803 121.662C58.803 121.662 61.7883 121.431 61.9837 120.996C62.179 120.56 62.0852 119.552 61.6007 119.5C61.1162 119.449 58.5216 119.876 58.5216 119.876L58.2403 119.936C57.7792 120.03 57.451 120.509 57.5291 121.021C57.5291 121.021 57.5291 121.038 57.5291 121.047L57.662 121.85L58.803 121.671V121.662Z" fill="white"/>
<path d="M70.8922 201.934C81.6393 201.934 90.3515 192.409 90.3515 180.66C90.3515 168.91 81.6393 159.385 70.8922 159.385C60.1451 159.385 51.4329 168.91 51.4329 180.66C51.4329 192.409 60.1451 201.934 70.8922 201.934Z" fill="#393A38"/>
<path d="M68.9156 193.962C75.3941 193.962 80.6459 187.944 80.6459 180.522C80.6459 173.099 75.3941 167.082 68.9156 167.082C62.4371 167.082 57.1853 173.099 57.1853 180.522C57.1853 187.944 62.4371 193.962 68.9156 193.962Z" fill="black"/>
<path d="M102.449 154.949L93.0633 176.471C92.6257 177.471 91.6332 178.018 90.6407 177.813L85.4437 176.728C84.8263 176.6 84.2949 176.181 83.9588 175.591C83.4587 174.703 82.4896 173.413 80.8328 172.789C78.2852 171.832 55.4263 164.219 53.7305 163.655C53.6601 163.63 53.5976 163.604 53.5351 163.578C52.2378 162.997 51.7533 161.263 52.5269 159.99C53.1756 158.922 53.9024 157.777 54.3869 157.179C55.4419 155.855 60.7952 147.627 61.7877 146.858C62.8427 146.029 66.0156 144.217 70.095 144.628C74.1745 145.038 79.7622 143.286 85.3577 144.576C90.9454 145.866 103.184 150.002 103.41 150.993C103.637 151.984 102.426 154.957 102.426 154.957L102.449 154.949Z" fill="#81BB27"/>
<path d="M83.8029 147.883C83.0917 147.883 82.5134 148.515 82.5134 149.293C82.5134 150.07 83.8029 151.899 83.8029 151.899C83.8029 151.899 85.0924 150.07 85.0924 149.293C85.0924 148.515 84.5141 147.883 83.8029 147.883ZM83.8029 149.797C83.545 149.797 83.3418 149.566 83.3418 149.293C83.3418 149.019 83.5528 148.788 83.8029 148.788C84.053 148.788 84.264 149.019 84.264 149.293C84.264 149.566 84.053 149.797 83.8029 149.797Z" fill="white"/>
<path d="M75.3936 161.819V157.256C75.3701 157.162 75.3701 157.06 75.3232 156.974C75.2763 156.872 75.206 156.786 75.1122 156.726C75.0106 156.658 74.909 156.607 74.7996 156.564C74.7684 156.555 74.7371 156.538 74.698 156.53C74.6668 156.53 74.6355 156.53 74.6121 156.521C74.5808 156.521 74.5574 156.521 74.5261 156.521H71.6736V158.7H73.4007V159.179C73.1741 159.358 72.924 159.486 72.6583 159.563C72.3926 159.64 72.1191 159.666 71.8534 159.648C71.5798 159.631 71.3219 159.554 71.0641 159.426C70.8062 159.298 70.5795 159.127 70.3763 158.905C70.1497 158.657 69.9778 158.375 69.8605 158.051C69.7433 157.735 69.6808 157.41 69.6808 157.085C69.6808 156.761 69.7433 156.436 69.8605 156.12C69.9778 155.804 70.1497 155.522 70.3763 155.265C70.603 155.018 70.8609 154.83 71.15 154.701C71.4392 154.573 71.7361 154.513 72.0331 154.513C72.3301 154.513 72.6271 154.573 72.9162 154.701C73.2054 154.83 73.4633 155.009 73.6899 155.265L75.1044 153.719C74.6824 153.257 74.2057 152.907 73.6664 152.676C73.135 152.446 72.588 152.326 72.0331 152.326C71.4783 152.326 70.9312 152.446 70.3998 152.676C69.8684 152.907 69.3917 153.257 68.9618 153.719C68.5398 154.18 68.2194 154.71 68.0162 155.291C67.8052 155.872 67.7036 156.47 67.7036 157.085C67.7036 157.7 67.8052 158.29 68.0162 158.871C68.2272 159.452 68.5398 159.973 68.9618 160.435C69.3838 160.896 69.8605 161.246 70.3998 161.477C70.9312 161.708 71.4783 161.827 72.0331 161.827C72.2598 161.827 72.4864 161.81 72.7208 161.767C72.9553 161.725 73.1741 161.665 73.4007 161.579V161.81H75.4014L75.3936 161.819Z" fill="white"/>
<path d="M80.0587 152.344C80.6527 152.344 81.2154 152.472 81.739 152.72C82.2626 152.967 82.7236 153.309 83.1144 153.728C83.5051 154.155 83.8177 154.651 84.0444 155.232C84.271 155.804 84.3882 156.419 84.3882 157.077C84.3882 157.735 84.271 158.342 84.0444 158.923C83.8177 159.495 83.5051 159.999 83.1144 160.426C82.7236 160.854 82.2626 161.187 81.739 161.435C81.2154 161.682 80.6527 161.811 80.0587 161.811C79.4648 161.811 78.9021 161.682 78.3785 161.435C77.8549 161.187 77.3938 160.845 77.0109 160.426C76.6201 159.999 76.3154 159.504 76.0887 158.923C75.8621 158.35 75.7449 157.735 75.7449 157.077C75.7449 156.419 75.8621 155.813 76.0887 155.232C76.3154 154.659 76.6201 154.155 77.0109 153.728C77.4016 153.301 77.8549 152.967 78.3785 152.72C78.9021 152.472 79.4648 152.344 80.0587 152.344ZM80.0666 159.632C80.387 159.632 80.6918 159.564 80.9731 159.435C81.2544 159.299 81.5045 159.119 81.7155 158.889C81.9265 158.658 82.0906 158.384 82.2157 158.077C82.3407 157.769 82.3954 157.436 82.3954 157.086C82.3954 156.735 82.3329 156.402 82.2157 156.095C82.0906 155.787 81.9265 155.514 81.7155 155.283C81.5045 155.052 81.2544 154.864 80.9731 154.736C80.6918 154.599 80.387 154.54 80.0666 154.54C79.7461 154.54 79.4414 154.608 79.16 154.736C78.8787 154.873 78.6286 155.052 78.4176 155.283C78.2066 155.514 78.0425 155.787 77.9174 156.095C77.7924 156.402 77.7377 156.735 77.7377 157.086C77.7377 157.436 77.8002 157.769 77.9174 158.077C78.0425 158.384 78.2066 158.658 78.4176 158.889C78.6286 159.119 78.8787 159.307 79.16 159.435C79.4414 159.572 79.7461 159.632 80.0666 159.632Z" fill="white"/>
<path d="M72.1896 165.006C72.0802 164.946 72.0098 164.886 71.9708 164.844C71.9082 164.775 71.877 164.69 71.877 164.587C71.877 164.485 71.9082 164.399 71.9708 164.331C72.0333 164.263 72.1114 164.229 72.2052 164.229C72.299 164.229 72.3693 164.263 72.4319 164.331C72.4866 164.399 72.5178 164.468 72.5178 164.553L72.4084 164.604C72.4006 164.528 72.3771 164.468 72.3381 164.434C72.3068 164.391 72.2599 164.374 72.1974 164.374C72.1349 164.374 72.0958 164.399 72.0567 164.442C72.0177 164.485 71.9942 164.536 71.9942 164.604C71.9942 164.673 72.0177 164.716 72.0567 164.758C72.0802 164.784 72.1271 164.827 72.2052 164.878C72.3224 164.946 72.4084 165.015 72.4631 165.066C72.5413 165.151 72.5803 165.262 72.5803 165.382C72.5803 165.502 72.5413 165.613 72.4631 165.698C72.385 165.784 72.2912 165.826 72.174 165.826C72.0567 165.826 71.963 165.784 71.8848 165.698C71.8067 165.613 71.7676 165.519 71.7676 165.408L71.8926 165.373C71.8926 165.467 71.9239 165.536 71.9786 165.596C72.0333 165.655 72.1036 165.69 72.1818 165.69C72.2599 165.69 72.3224 165.655 72.385 165.596C72.4397 165.536 72.4709 165.459 72.4709 165.373C72.4709 165.288 72.4397 165.22 72.385 165.16C72.3537 165.126 72.2912 165.083 72.2052 165.015L72.1896 165.006Z" fill="white"/>
<path d="M72.9319 163.33H73.0569V164.355C73.1663 164.244 73.2914 164.184 73.4399 164.184C73.604 164.184 73.7368 164.244 73.8384 164.355C73.94 164.466 73.9947 164.612 73.9947 164.774V165.782H73.8697V164.791C73.8697 164.663 73.8306 164.552 73.7446 164.466C73.6587 164.372 73.5571 164.33 73.4477 164.33C73.3383 164.33 73.2289 164.372 73.1507 164.466C73.1116 164.509 73.0882 164.552 73.0647 164.595V165.791H72.9397V163.339L72.9319 163.33Z" fill="white"/>
<path d="M75.9016 165.784H75.7766V165.476C75.7766 165.476 75.7219 165.545 75.6984 165.579C75.5499 165.741 75.3702 165.826 75.1514 165.826C74.9325 165.826 74.7606 165.741 74.6043 165.579C74.4558 165.416 74.3777 165.22 74.3777 164.981C74.3777 164.741 74.4558 164.545 74.6043 164.383C74.7528 164.22 74.9325 164.135 75.1514 164.135C75.3702 164.135 75.5421 164.22 75.6984 164.383C75.7297 164.417 75.7531 164.451 75.7766 164.485V164.271H75.9016V165.775V165.784ZM75.7688 165.117V164.844C75.7453 164.707 75.6906 164.588 75.5968 164.485C75.4718 164.348 75.3233 164.28 75.1435 164.28C74.9638 164.28 74.8153 164.348 74.6903 164.485C74.5652 164.622 74.5027 164.784 74.5027 164.981C74.5027 165.177 74.5652 165.339 74.6903 165.476C74.8153 165.613 74.9638 165.681 75.1435 165.681C75.3233 165.681 75.4718 165.613 75.5968 165.476C75.6906 165.374 75.7453 165.254 75.7688 165.126V165.117Z" fill="white"/>
<path d="M76.3154 164.278H76.4405V164.552C76.4405 164.552 76.4952 164.475 76.5342 164.432C76.6437 164.312 76.7609 164.244 76.8781 164.244V164.398C76.8 164.398 76.714 164.449 76.628 164.543C76.5108 164.671 76.4483 164.825 76.4405 165.013V165.791H76.3154V164.287V164.278Z" fill="white"/>
<path d="M77.3629 163.783C77.3629 163.783 77.4019 163.843 77.4019 163.877C77.4019 163.911 77.3863 163.945 77.3629 163.971C77.3394 163.997 77.3082 164.014 77.2769 164.014C77.2456 164.014 77.2144 163.997 77.1909 163.971C77.1675 163.945 77.1519 163.911 77.1519 163.877C77.1519 163.843 77.1675 163.809 77.1909 163.783C77.2144 163.757 77.2456 163.74 77.2769 163.74C77.3082 163.74 77.3394 163.757 77.3629 163.783ZM77.3394 164.279V165.782H77.2144V164.279H77.3394Z" fill="white"/>
<path d="M77.91 164.613V165.783H77.7849V164.28H77.91V164.374C78.0272 164.245 78.16 164.186 78.3085 164.186C78.4726 164.186 78.6055 164.245 78.7071 164.356C78.8087 164.468 78.8634 164.604 78.8634 164.775V165.783H78.7383V164.792C78.7383 164.664 78.6993 164.553 78.6133 164.468C78.5273 164.374 78.4257 164.331 78.3163 164.331C78.2069 164.331 78.0975 164.374 78.0194 164.468C77.9725 164.519 77.9412 164.57 77.9178 164.621L77.91 164.613Z" fill="white"/>
<path d="M80.6376 165.485C80.6376 165.485 80.5908 165.553 80.5595 165.579C80.411 165.741 80.2313 165.826 80.0124 165.826C79.7936 165.826 79.6217 165.741 79.4654 165.579C79.3169 165.416 79.2388 165.22 79.2388 164.981C79.2388 164.741 79.3169 164.545 79.4654 164.383C79.6139 164.22 79.7936 164.135 80.0124 164.135C80.2313 164.135 80.4032 164.22 80.5595 164.383C80.5908 164.417 80.6142 164.451 80.6376 164.485V164.271H80.7627V165.442C80.7627 165.664 80.6924 165.861 80.5439 166.023C80.3954 166.185 80.2156 166.271 79.9968 166.271C79.778 166.271 79.6061 166.185 79.4498 166.023C79.4185 165.989 79.3951 165.955 79.3638 165.92L79.4967 165.869C79.4967 165.869 79.5279 165.903 79.5436 165.92C79.6686 166.057 79.8171 166.126 79.9968 166.126C80.1766 166.126 80.3172 166.057 80.4423 165.92C80.5517 165.801 80.6142 165.647 80.6298 165.485H80.6376ZM80.6455 164.844C80.622 164.716 80.5595 164.596 80.4735 164.494C80.3485 164.357 80.2 164.289 80.0203 164.289C79.8405 164.289 79.692 164.357 79.567 164.494C79.442 164.63 79.3794 164.793 79.3794 164.989C79.3794 165.186 79.442 165.348 79.567 165.485C79.692 165.621 79.8405 165.69 80.0203 165.69C80.2 165.69 80.3485 165.621 80.4735 165.485C80.5673 165.382 80.622 165.271 80.6455 165.143V164.852V164.844Z" fill="white"/>
<path d="M98.6901 181.094C98.6901 181.094 88.4681 179.496 86.655 178.778C84.8419 178.06 66.7112 180.043 66.1016 179.932C65.492 179.82 63.382 179.487 63.1788 181.085C62.9756 182.683 63.0303 184.887 63.9368 184.938C64.8434 184.99 83.5837 186.314 85.7485 185.545C87.9132 184.776 87.9132 184.639 90.6329 184.374C93.3525 184.11 98.8855 184.879 99.4169 184.648C99.9483 184.417 100.55 182.871 100.214 182.042C99.878 181.213 98.6979 181.076 98.6979 181.076L98.6901 181.094Z" fill="#1E1E1D"/>
<path d="M64.9064 179.908C64.9064 179.908 64.2265 177.088 64.6017 176.763C64.9768 176.439 65.3988 176.721 66.0396 175.815C66.6804 174.909 67.2431 172.338 67.7042 170.449C68.1653 168.561 68.2356 168.51 68.2356 168.51L71.5179 169.612C71.5179 169.612 68.5326 174.533 68.009 176.353C67.4854 178.173 67.712 179.702 67.712 179.702L67.7277 179.925H64.9143L64.9064 179.908Z" fill="#1E1E1D"/>
<path d="M114.938 166.135C114.938 166.135 113.82 169.237 116.298 169.126C118.775 169.015 118.775 167.366 119.775 166.435C120.776 165.503 121.682 168.135 124.558 170.16C127.442 172.185 128.192 172.868 128.317 173.449C128.442 174.03 127.067 175.389 125.988 175.731C124.91 176.072 123.284 175.833 120.221 175.149C117.165 174.466 112.578 175.226 112 174.107C111.421 172.988 111.273 172.373 111.499 171.911C111.687 171.527 112.867 170.792 113.383 170.1C113.484 169.963 113.563 169.827 113.602 169.69C113.828 168.895 113.93 167.195 114.282 166.674C114.633 166.153 114.93 166.127 114.93 166.127L114.938 166.135Z" fill="#81BB27"/>
<path d="M116.892 172.03C118.392 172.825 121.081 173.508 122.253 173.705C123.425 173.901 126.215 174.756 127.012 174.303C127.809 173.85 128.317 173.465 128.317 173.465C128.317 173.465 127.856 176.943 123.433 176.473C119.01 176.003 115.266 175.422 114.297 175.166C113.328 174.909 112.132 174.832 111.773 173.645C111.414 172.457 111.101 172.363 111.507 171.927C111.914 171.492 112.875 169.979 113.391 170.116C113.906 170.253 116.892 172.039 116.892 172.039V172.03Z" fill="white"/>
<path d="M115.899 163.947L114.844 169.791C114.844 169.791 116.415 169.971 117.673 169.569C118.931 169.168 119.51 166.818 119.588 166.63C119.666 166.442 118.705 165.058 118.705 165.058L115.899 163.947Z" fill="#FED5B5"/>
<path d="M120.283 164.989L119.212 165.1L117.642 165.083L116.672 164.989L118.275 149.968C118.275 149.968 118.275 141.1 117.774 139.186C117.274 137.272 117.173 137.391 116.071 136.605C114.57 135.529 106.552 133.598 106.365 133.547C106.177 133.495 103.145 133.102 100.355 133.145C97.5648 133.188 92.7586 129.719 91.6801 128.984C90.6017 128.249 90.0937 124.857 89.9139 124.088C89.7342 123.319 88.4291 121.542 90.2734 122.61C92.0084 123.61 95.3063 128.403 98.3698 129.326C101.433 130.249 109.928 132.068 113.929 133.393C116.844 134.358 119.22 135.554 119.627 137.366C120.08 139.399 120.846 146.286 120.58 149.755C120.314 153.224 121.299 157.453 121.033 159.64C120.838 161.281 121.635 162.938 121.377 163.955C121.299 164.263 120.76 164.938 120.275 164.997L120.283 164.989Z" fill="#091B4C"/>
<path d="M107.935 166.86L105.903 177.318C105.903 177.318 106.927 177.053 108.865 176.626C110.694 176.224 113.281 172.286 113.398 172.004C113.515 171.722 112.163 168.535 112.163 168.535L107.935 166.852V166.86Z" fill="#FED5B5"/>
<path d="M106.794 172.431C107.068 172.474 107.255 172.747 107.208 173.038C107.083 173.798 107.451 175.695 109.873 174.986C113.148 174.029 112.038 171.824 113.554 170.423C115.07 169.022 116.422 172.986 120.767 176.037C125.112 179.087 126.246 180.129 126.433 180.992C126.621 181.855 124.542 183.914 122.916 184.435C121.291 184.957 118.298 185.35 113.687 184.316C109.076 183.282 102.707 183.675 101.839 181.983C100.972 180.292 100.745 179.369 101.081 178.677C101.363 178.096 103.145 176.994 103.926 175.951C104.082 175.746 104.848 174.738 104.903 174.541C105.247 173.345 104.786 172.909 105.614 172.559C106.052 172.371 106.482 172.38 106.786 172.422L106.794 172.431Z" fill="#81BB27"/>
<path d="M108.857 181.283C111.124 182.479 115.219 182.419 117.009 182.581C118.798 182.744 123.315 183.461 124.527 182.778C125.738 182.094 126.433 180.992 126.433 180.992C126.433 180.992 125.738 186.238 119.064 185.529C112.39 184.82 106.755 183.948 105.294 183.564C103.832 183.179 102.035 183.06 101.488 181.265C100.941 179.471 100.472 179.335 101.082 178.677C101.691 178.019 104.653 175.114 103.926 175.951C103.004 177.019 106.919 180.42 108.857 181.283Z" fill="white"/>
<path d="M74.2133 124.832C74.2133 124.832 71.4859 132.992 73.846 135.264C76.2062 137.537 89.4291 143.851 95.5717 143.629C101.714 143.407 108.779 142.399 108.576 144.714C108.373 147.03 103.777 169.441 103.777 169.441C103.777 169.441 103.441 170.235 105.77 170.62C108.271 171.038 110.295 169.714 110.295 169.714C110.295 169.714 111.28 169.227 112.39 169.304C112.882 169.338 113.89 169.56 114.843 169.791C116.086 170.099 117.016 170.235 117.188 168.86C117.907 163.033 118.282 150.994 118.282 149.302C118.282 145.996 118.735 138.127 116.422 136.811C114.109 135.487 106.2 132.804 101.566 133.18C98.0334 133.462 94.4385 130.36 93.0006 129.395C92.5473 129.087 92.1722 128.668 91.8987 128.173C91.2891 127.054 90.195 124.969 90.2262 124.413C90.2731 123.644 84.3181 123.576 83.5132 123.388C82.7082 123.2 78.5897 122.619 78.5897 122.619H75.3621L74.2133 124.849V124.832Z" fill="#0F256D"/>
<path d="M130.215 124.933L144.954 148.429C144.954 148.429 149.8 156.956 151.331 157.443C152.207 157.725 159.99 151.727 161.983 150.121C165.141 147.592 163.468 145.747 157.083 136.767C151.597 129.051 143.649 119.662 141.524 117.175C141.188 116.782 140.687 116.637 140.219 116.791C138.39 117.397 133.818 119.081 132.38 121.242C130.567 123.968 130.215 124.933 130.215 124.933Z" fill="#99DB26"/>
<path d="M166.876 210.476C178.507 210.476 187.937 200.167 187.937 187.45C187.937 174.733 178.507 164.424 166.876 164.424C155.244 164.424 145.814 174.733 145.814 187.45C145.814 200.167 155.244 210.476 166.876 210.476Z" fill="#393A38"/>
<path d="M166.876 201.992C173.885 201.992 179.568 195.482 179.568 187.45C179.568 179.419 173.885 172.908 166.876 172.908C159.867 172.908 154.185 179.419 154.185 187.45C154.185 195.482 159.867 201.992 166.876 201.992Z" fill="black"/>
<path d="M165.415 188.348L169.416 185.622L172.706 170.875C172.706 170.875 173.237 168.645 174.105 167.526C174.972 166.407 175.543 165.937 175.879 166.936C175.879 166.936 176.027 166.048 174.558 165.416C173.089 164.783 165.188 161.494 159.452 162.528C153.708 163.561 165.422 188.339 165.422 188.339L165.415 188.348Z" fill="#81BB27"/>
<path d="M152.403 163.835L155.052 169.688L156.185 169.021L153.2 162.16L151.293 157.529L150.308 159.17L152.403 163.835Z" fill="#B7C4B7"/>
<path d="M165.071 188.229L157.772 168.928C157.678 168.681 157.436 168.552 157.193 168.612C156.529 168.8 155.208 169.21 154.349 169.791C154.036 169.996 153.786 170.227 153.653 170.475C153.161 171.346 160.28 182.633 164.219 188.742C164.555 189.263 165.297 188.819 165.071 188.229Z" fill="#1E1E1D"/>
<path d="M115.807 173.011C116.261 172.849 116.651 172.524 117.105 172.687C117.12 172.704 117.55 173.131 117.745 173.387C117.144 173.225 116.409 173.507 116.261 173.669C116.261 173.336 116.112 173.011 115.807 173.011Z" fill="#282625"/>
<path d="M117.167 174.832C117.472 174.499 118.215 174.311 118.668 174.311C118.973 174.516 119.082 174.704 119.238 174.832C118.637 174.832 117.918 175.165 117.621 175.49C117.621 175.327 117.472 174.994 117.167 174.832Z" fill="#282625"/>
<path d="M118.824 176.319C119.129 175.986 119.598 175.789 120.2 175.627C120.286 175.678 120.552 175.883 120.935 176.157C120.333 176.319 119.723 176.815 119.426 176.985C119.426 176.652 119.278 176.328 118.824 176.328V176.319Z" fill="#282625"/>
<path d="M120.794 177.472C121.098 176.976 121.395 176.797 121.849 176.797C122.154 176.993 122.239 177.079 122.388 177.181C121.935 177.515 121.552 177.967 121.403 178.13C121.255 177.797 121.098 177.472 120.802 177.472H120.794Z" fill="#282625"/>
<path d="M121.238 178.617C121.493 178.384 121.526 177.969 121.313 177.69C121.099 177.412 120.72 177.375 120.465 177.609C120.21 177.842 120.177 178.257 120.39 178.535C120.604 178.814 120.983 178.85 121.238 178.617Z" fill="black"/>
<path d="M115.69 174.259C116.022 174.259 116.292 173.965 116.292 173.601C116.292 173.238 116.022 172.943 115.69 172.943C115.358 172.943 115.088 173.238 115.088 173.601C115.088 173.965 115.358 174.259 115.69 174.259Z" fill="black"/>
<path d="M117.074 176.113C117.406 176.113 117.675 175.818 117.675 175.455C117.675 175.091 117.406 174.797 117.074 174.797C116.741 174.797 116.472 175.091 116.472 175.455C116.472 175.818 116.741 176.113 117.074 176.113Z" fill="black"/>
<path d="M118.777 176.25C119.231 176.131 119.622 176.567 119.512 177.054C119.457 177.284 119.285 177.472 119.074 177.532C118.621 177.652 118.23 177.216 118.34 176.729C118.395 176.498 118.566 176.31 118.777 176.25Z" fill="black"/>
<path d="M121.845 168.697C122.127 168.586 122.361 168.373 122.643 168.467C122.658 168.475 122.932 168.732 123.057 168.885C122.682 168.8 122.228 168.996 122.142 169.099C122.142 168.894 122.033 168.689 121.845 168.697Z" fill="#282625"/>
<path d="M122.721 169.792C122.901 169.579 123.362 169.442 123.643 169.434C123.839 169.553 123.909 169.664 124.011 169.741C123.636 169.758 123.198 169.98 123.018 170.194C123.018 170.091 122.917 169.886 122.721 169.792Z" fill="#282625"/>
<path d="M123.784 170.672C123.964 170.459 124.253 170.322 124.628 170.211C124.683 170.237 124.847 170.365 125.097 170.519C124.722 170.638 124.362 170.963 124.175 171.065C124.175 170.86 124.066 170.655 123.784 170.672Z" fill="#282625"/>
<path d="M125.027 171.337C125.206 171.021 125.386 170.901 125.667 170.893C125.863 171.004 125.918 171.063 126.011 171.115C125.738 171.328 125.511 171.619 125.417 171.73C125.316 171.525 125.214 171.328 125.027 171.337Z" fill="#282625"/>
<path d="M125.332 172.051C125.486 171.899 125.498 171.639 125.359 171.471C125.22 171.303 124.983 171.29 124.829 171.442C124.676 171.594 124.664 171.853 124.802 172.021C124.941 172.189 125.179 172.202 125.332 172.051Z" fill="black"/>
<path d="M121.794 169.482C122.001 169.474 122.163 169.284 122.155 169.057C122.148 168.831 121.974 168.654 121.767 168.663C121.56 168.671 121.398 168.861 121.406 169.088C121.413 169.314 121.587 169.491 121.794 169.482Z" fill="black"/>
<path d="M122.691 170.599C122.898 170.591 123.06 170.401 123.052 170.174C123.044 169.948 122.87 169.771 122.663 169.78C122.456 169.788 122.295 169.978 122.302 170.205C122.31 170.431 122.484 170.608 122.691 170.599Z" fill="black"/>
<path d="M123.753 170.628C124.027 170.543 124.285 170.799 124.23 171.106C124.206 171.252 124.097 171.371 123.972 171.414C123.698 171.499 123.44 171.243 123.495 170.936C123.519 170.79 123.628 170.671 123.753 170.628Z" fill="black"/>
<path d="M89.7033 87.4258C89.7033 87.4258 99.8081 104.36 113.539 105.078C113.539 105.078 120.166 105.257 119.22 105.77C118.142 106.351 115.954 108.402 115.954 108.402C115.954 108.402 106.052 108.701 104.341 107.257C102.629 105.813 93.0012 101.284 92.7667 100.285C92.5323 99.285 89.3829 95.8161 88.8124 93.3127C88.2419 90.8092 87.7026 88.2289 87.7026 88.2289L89.7033 87.4258Z" fill="#B5C5C6"/>
<path d="M84.5761 78.873C84.5761 78.873 84.0759 84.1191 82.9975 85.6143C81.919 87.1095 87.2957 86.8361 87.2957 86.8361L88.4445 86.8532C88.4445 86.8532 87.749 85.2042 88.4445 81.7353C89.101 78.4629 88.7493 79.8642 88.7337 79.5822L84.5683 78.873H84.5761Z" fill="#FED5B5"/>
<path d="M81.3175 87.7418C81.6848 86.3833 83.0759 85.6997 84.2482 86.2978C88.2807 88.357 88.4683 87.7845 88.9919 87.2633C89.5936 86.6567 91.4067 96.6533 93.2198 99.6266C95.0328 102.6 92.9072 105.377 92.6649 108.658C92.6024 109.555 92.6415 110.093 92.7196 110.409C92.8446 110.922 92.8368 111.469 92.6415 111.956C92.1178 113.263 91.1957 115.578 90.297 117.945C88.9372 121.542 92.4305 122.157 90.6643 124.071C87.4445 127.574 83.4588 127.241 81.2785 126.464C79.0981 125.686 81.4035 124.627 79.0121 124.746C77.8477 124.806 75.722 124.148 74.5888 123.969C73.4557 123.789 73.3384 123.123 73.5026 121.858L77.5976 102.831C77.6132 102.72 77.6367 102.6 77.6601 102.497L81.3175 87.7503V87.7418Z" fill="#BAD4D8"/>
<path d="M114.344 116.458C114.25 116.433 114.195 116.398 114.117 116.339C113.64 115.954 111.96 114.604 111.03 114.613C110.014 114.63 109.631 114.57 107.92 114.775H106.662C106.576 114.801 105.513 114.775 105.45 114.707C105.31 114.561 105.364 114.168 105.536 113.562C105.786 112.665 105.903 112.22 106.208 111.981C106.685 111.597 109.959 111.178 112.421 111.955C112.421 111.955 112.71 111.938 114.226 113.408C115.828 114.954 116.626 116.612 116.68 116.868C116.774 117.321 116.485 117.159 116.485 117.159C116.485 117.159 116.141 117.022 115.961 116.766C115.649 116.339 115.321 115.877 115.289 115.817C115.235 115.723 114.18 114.288 114.18 114.288L116.211 117.125C116.211 117.125 116.243 117.167 116.258 117.193C116.336 117.347 116.462 117.885 115.891 117.458C115.406 117.09 114.797 116.253 114.18 115.553C113.945 115.288 113.914 115.254 113.703 115.083C112.859 114.382 113.187 114.621 113.187 114.621L114.242 115.706C114.242 115.706 114.711 116.074 114.609 116.356C114.578 116.45 114.516 116.492 114.351 116.45L114.344 116.458Z" fill="#FED5B5"/>
<path d="M112.202 115.972C112.132 116.057 111.976 115.972 111.976 116.322C111.976 116.672 111.859 116.937 111.64 116.758C111.421 116.578 111.226 116.117 111.312 115.997C111.382 115.895 112.202 115.963 112.202 115.972Z" fill="#FED5B5"/>
<path d="M102.09 114.255C102.09 114.255 99.4482 113.691 97.1975 112.965C93.0555 111.632 91.5081 111.546 90.6016 110.222C89.6951 108.898 87.4287 106.915 85.6156 104.113C83.8026 101.311 81.3877 97.8331 81.5362 95.193C81.6847 92.5529 79.9654 90.1691 81.3252 88.3492C82.685 86.5293 83.1461 83.8379 86.9207 85.1622C90.6954 86.4866 90.2343 89.6052 90.3203 92.194C90.4219 95.1332 92.0317 99.5163 94.1496 102.661C96.2675 105.796 102.058 107.069 105.231 109.051C108.404 111.034 108.693 111.341 108.693 111.341C108.693 111.341 108.248 111.461 108.006 113.571C107.81 115.297 105.489 114.793 105.083 114.981C104.981 115.024 104.864 115.024 104.755 114.99L102.09 114.263V114.255Z" fill="#B7CCCE"/>
<path d="M114.055 116.152C114.055 116.152 114.024 116.1 114.047 116.075C114.086 116.015 114.156 115.895 114.196 115.887C114.258 115.887 114.547 116.169 114.555 116.211C114.555 116.211 114.571 116.357 114.367 116.399L114.055 116.152Z" fill="#B7C4B7"/>
<path d="M115.703 117.098C115.703 117.098 115.844 116.799 115.922 116.893C116 116.987 116.211 117.244 116.203 117.338C116.195 117.432 116.18 117.517 116.102 117.5C116.024 117.483 115.703 117.09 115.703 117.09V117.098Z" fill="#B7C4B7"/>
<path d="M116.04 116.621C116.04 116.621 116.188 116.305 116.274 116.407C116.36 116.51 116.626 116.826 116.618 116.92C116.61 117.014 116.548 117.057 116.462 117.048C116.376 117.039 116.048 116.621 116.048 116.621H116.04Z" fill="#B7C4B7"/>
<path d="M84.3739 73.4473C84.3739 73.4473 83.2486 75.6004 85.1867 77.9415C85.1867 77.9415 86.4605 79.7613 86.9372 81.2651C86.9372 81.2651 87.328 82.5467 87.7187 85.0074C87.9063 86.1865 88.4143 88.2883 89.2739 90.2022L90.4305 92.0477C90.4305 92.0477 88.3752 90.6978 87.2264 88.1175C87.2264 88.1175 85.7337 85.5286 85.2492 83.085C85.2492 83.085 85.3664 85.5542 84.0222 86.7675C82.6781 87.9722 81.3183 88.2798 81.623 90.6636C81.623 90.6636 81.8809 92.8423 82.4905 95.0809L83.186 97.8065C83.186 97.8065 81.5605 97.9175 79.8959 97.2425C78.2313 96.5676 75.754 95.5252 75.5039 92.0563C75.2538 88.5874 77.8171 85.4517 78.6768 83.3413C79.5364 81.2309 78.372 78.4712 79.8881 75.0108C79.8881 75.0108 81.9356 75.3782 84.3817 73.4558L84.3739 73.4473Z" fill="#563324"/>
<path d="M75.5035 92.0472C75.3628 90.1163 76.0974 88.2793 76.9258 86.673C75.2534 92.2865 76.9102 93.4741 76.9102 93.4741C76.8242 88.5954 79.0984 86.8524 79.0984 86.8524C77.3244 89.5096 77.7776 92.1754 78.4575 94.0551C79.239 96.2338 80.9661 95.8579 80.9661 95.8579L80.4582 94.3456C79.3719 91.5517 79.958 88.1682 80.6692 87.7923C81.3803 87.4249 83.0918 85.4512 83.592 83.6484C84.0843 81.8456 83.0059 75.7793 83.0059 75.7793C83.8577 76.1125 85.8583 84.3746 85.8583 84.3746C85.8583 84.3746 85.8583 84.6651 85.8583 85.1607C85.6083 84.4943 85.3894 83.7766 85.2488 83.0759C85.2488 83.0759 85.366 85.5452 84.0218 86.7584C82.6776 87.9632 81.3178 88.2707 81.6226 90.6545C81.6226 90.6545 81.8805 92.8333 82.4901 95.0718L83.1856 97.7974C83.1856 97.7974 81.5601 97.9085 79.8955 97.2335C78.2309 96.5585 75.7535 95.5161 75.5035 92.0472Z" fill="#422720"/>
<path d="M92.4537 68.3555C92.4537 68.3555 92.6647 70.9187 92.6491 71.8671C92.6335 72.8155 92.2193 73.8579 92.188 74.7636C92.1568 75.6692 92.5397 76.7714 92.5006 77.0961C92.4694 77.3524 91.5316 77.8138 91.8598 78.0958C92.188 78.3777 91.344 78.5059 91.6879 78.4973C91.9223 78.4973 91.9536 78.7536 91.727 78.7878C91.5003 78.822 91.2815 79.4372 91.3206 79.5568C91.3596 79.6764 91.5628 82.3849 89.4528 81.5561C87.3427 80.7273 85.1624 79.6679 85.0295 79.2919C84.8966 78.916 83.615 75.3616 83.615 75.3616C83.615 75.3616 83.6306 69.3552 83.7244 69.1843C83.8182 69.0134 84.9357 67.2619 84.9357 67.2619L86.108 66.621L89.1324 66.1426H90.9611L92.0552 67.3387L92.4537 68.347V68.3555Z" fill="#FED5B5"/>
<path d="M93.6331 67.8595C92.498 63.1974 87.5138 62.605 83.8898 63.1833C78.6606 64.0179 76.047 69.5146 77.099 74.5128C77.8798 78.225 83.3081 82.1583 86.9298 79.4476C89.6921 77.3787 85.0818 74.0144 86.9582 71.614C88.4782 69.6674 91.1793 71.4001 92.8567 70.2575C93.7075 69.6792 93.8606 68.7905 93.6331 67.8571V67.8595Z" fill="#71AB18"/>
<path d="M85.5009 65.168C85.2511 65.168 85.0479 65.3901 85.0479 65.6633C85.0479 65.9365 85.5009 66.579 85.5009 66.579C85.5009 66.579 85.954 65.9365 85.954 65.6633C85.954 65.3901 85.7508 65.168 85.5009 65.168ZM85.5009 65.8405C85.4103 65.8405 85.3389 65.7594 85.3389 65.6633C85.3389 65.5673 85.4131 65.4862 85.5009 65.4862C85.5888 65.4862 85.663 65.5673 85.663 65.6633C85.663 65.7594 85.5888 65.8405 85.5009 65.8405Z" fill="white"/>
<path d="M82.5468 70.064V68.4608C82.5386 68.4278 82.5386 68.3917 82.5221 68.3617C82.5056 68.3257 82.4809 68.2957 82.4479 68.2746C82.4122 68.2506 82.3765 68.2326 82.3381 68.2176C82.3271 68.2146 82.3161 68.2086 82.3024 68.2056C82.2914 68.2056 82.2804 68.2056 82.2722 68.2026C82.2612 68.2026 82.253 68.2026 82.242 68.2026H81.2397V68.9682H81.8466V69.1363C81.7669 69.1993 81.6791 69.2444 81.5857 69.2714C81.4923 69.2984 81.3962 69.3074 81.3029 69.3014C81.2067 69.2954 81.1161 69.2684 81.0255 69.2233C80.9349 69.1783 80.8553 69.1183 80.7839 69.0402C80.7042 68.9531 80.6438 68.8541 80.6026 68.74C80.5614 68.6289 80.5395 68.5148 80.5395 68.4007C80.5395 68.2867 80.5614 68.1726 80.6026 68.0615C80.6438 67.9504 80.7042 67.8513 80.7839 67.7613C80.8635 67.6742 80.9541 67.6082 81.0557 67.5631C81.1573 67.5181 81.2617 67.4971 81.366 67.4971C81.4704 67.4971 81.5747 67.5181 81.6763 67.5631C81.7779 67.6082 81.8685 67.6712 81.9482 67.7613L82.4452 67.2179C82.2969 67.0558 82.1294 66.9327 81.9399 66.8516C81.7532 66.7705 81.561 66.7285 81.366 66.7285C81.171 66.7285 80.9788 66.7705 80.7921 66.8516C80.6054 66.9327 80.4379 67.0558 80.2868 67.2179C80.1385 67.38 80.026 67.5661 79.9546 67.7703C79.8804 67.9744 79.8447 68.1846 79.8447 68.4007C79.8447 68.6169 79.8804 68.824 79.9546 69.0282C80.0287 69.2323 80.1385 69.4155 80.2868 69.5776C80.4351 69.7397 80.6026 69.8628 80.7921 69.9439C80.9788 70.0249 81.171 70.067 81.366 70.067C81.4457 70.067 81.5253 70.061 81.6077 70.0459C81.69 70.0309 81.7669 70.0099 81.8466 69.9799V70.061H82.5495L82.5468 70.064Z" fill="white"/>
<path d="M84.186 66.7344C84.3947 66.7344 84.5924 66.7794 84.7764 66.8665C84.9603 66.9535 85.1224 67.0736 85.2597 67.2207C85.397 67.3708 85.5068 67.545 85.5864 67.7491C85.6661 67.9503 85.7073 68.1664 85.7073 68.3976C85.7073 68.6288 85.6661 68.8419 85.5864 69.0461C85.5068 69.2472 85.397 69.4243 85.2597 69.5745C85.1224 69.7246 84.9603 69.8417 84.7764 69.9287C84.5924 70.0158 84.3947 70.0608 84.186 70.0608C83.9773 70.0608 83.7796 70.0158 83.5956 69.9287C83.4116 69.8417 83.2496 69.7216 83.115 69.5745C82.9777 69.4243 82.8706 69.2502 82.791 69.0461C82.7114 68.8449 82.6702 68.6288 82.6702 68.3976C82.6702 68.1664 82.7114 67.9533 82.791 67.7491C82.8706 67.548 82.9777 67.3708 83.115 67.2207C83.2523 67.0706 83.4116 66.9535 83.5956 66.8665C83.7796 66.7794 83.9773 66.7344 84.186 66.7344ZM84.1887 69.2953C84.3013 69.2953 84.4084 69.2712 84.5072 69.2262C84.6061 69.1782 84.694 69.1151 84.7681 69.0341C84.8423 68.953 84.8999 68.8569 84.9439 68.7489C84.9878 68.6408 85.007 68.5237 85.007 68.4006C85.007 68.2775 84.9851 68.1604 84.9439 68.0523C84.8999 67.9443 84.8423 67.8482 84.7681 67.7671C84.694 67.6861 84.6061 67.62 84.5072 67.575C84.4084 67.527 84.3013 67.5059 84.1887 67.5059C84.0761 67.5059 83.969 67.53 83.8702 67.575C83.7713 67.623 83.6834 67.6861 83.6093 67.7671C83.5352 67.8482 83.4775 67.9443 83.4336 68.0523C83.3896 68.1604 83.3704 68.2775 83.3704 68.4006C83.3704 68.5237 83.3924 68.6408 83.4336 68.7489C83.4775 68.8569 83.5352 68.953 83.6093 69.0341C83.6834 69.1151 83.7713 69.1812 83.8702 69.2262C83.969 69.2742 84.0761 69.2953 84.1887 69.2953Z" fill="white"/>
<path d="M81.4205 71.1853C81.3821 71.1643 81.3573 71.1433 81.3436 71.1283C81.3216 71.1043 81.3107 71.0742 81.3107 71.0382C81.3107 71.0022 81.3216 70.9722 81.3436 70.9481C81.3656 70.9241 81.393 70.9121 81.426 70.9121C81.4589 70.9121 81.4837 70.9241 81.5056 70.9481C81.5248 70.9722 81.5358 70.9962 81.5358 71.0262L81.4974 71.0442C81.4946 71.0172 81.4864 70.9962 81.4727 70.9842C81.4617 70.9692 81.4452 70.9631 81.4232 70.9631C81.4013 70.9631 81.3875 70.9722 81.3738 70.9872C81.3601 71.0022 81.3519 71.0202 81.3519 71.0442C81.3519 71.0682 81.3601 71.0832 81.3738 71.0982C81.3821 71.1073 81.3985 71.1223 81.426 71.1403C81.4672 71.1643 81.4974 71.1883 81.5166 71.2063C81.5441 71.2363 81.5578 71.2754 81.5578 71.3174C81.5578 71.3594 81.5441 71.3985 81.5166 71.4285C81.4892 71.4585 81.4562 71.4735 81.415 71.4735C81.3738 71.4735 81.3409 71.4585 81.3134 71.4285C81.2859 71.3985 81.2722 71.3654 81.2722 71.3264L81.3162 71.3144C81.3162 71.3474 81.3271 71.3714 81.3464 71.3925C81.3656 71.4135 81.3903 71.4255 81.4178 71.4255C81.4452 71.4255 81.4672 71.4135 81.4892 71.3925C81.5084 71.3714 81.5194 71.3444 81.5194 71.3144C81.5194 71.2844 81.5084 71.2604 81.4892 71.2393C81.4782 71.2273 81.4562 71.2123 81.426 71.1883L81.4205 71.1853Z" fill="white"/>
<path d="M81.6816 70.5957H81.7256V70.956C81.764 70.9169 81.808 70.8959 81.8601 70.8959C81.9178 70.8959 81.9645 70.9169 82.0002 70.956C82.0359 70.995 82.0551 71.046 82.0551 71.1031V71.4573H82.0112V71.1091C82.0112 71.064 81.9974 71.025 81.9672 70.995C81.937 70.962 81.9013 70.947 81.8629 70.947C81.8244 70.947 81.786 70.962 81.7585 70.995C81.7448 71.01 81.7366 71.025 81.7283 71.04V71.4603H81.6844V70.5987L81.6816 70.5957Z" fill="white"/>
<path d="M82.7257 71.4583H82.6817V71.3503C82.6817 71.3503 82.6625 71.3743 82.6543 71.3863C82.6021 71.4433 82.5389 71.4733 82.462 71.4733C82.3852 71.4733 82.3247 71.4433 82.2698 71.3863C82.2176 71.3292 82.1902 71.2602 82.1902 71.1761C82.1902 71.0921 82.2176 71.023 82.2698 70.966C82.322 70.9089 82.3852 70.8789 82.462 70.8789C82.5389 70.8789 82.5993 70.9089 82.6543 70.966C82.6652 70.978 82.6735 70.99 82.6817 71.002V70.9269H82.7257V71.4553V71.4583ZM82.679 71.2242V71.1281C82.6707 71.0801 82.6515 71.038 82.6186 71.002C82.5746 70.954 82.5225 70.9299 82.4593 70.9299C82.3961 70.9299 82.344 70.954 82.3 71.002C82.2561 71.05 82.2341 71.1071 82.2341 71.1761C82.2341 71.2452 82.2561 71.3022 82.3 71.3503C82.344 71.3983 82.3961 71.4223 82.4593 71.4223C82.5225 71.4223 82.5746 71.3983 82.6186 71.3503C82.6515 71.3142 82.6707 71.2722 82.679 71.2272V71.2242Z" fill="white"/>
<path d="M82.8711 70.93H82.915V71.026C82.915 71.026 82.9343 70.999 82.948 70.984C82.9864 70.942 83.0276 70.918 83.0688 70.918V70.972C83.0413 70.972 83.0111 70.99 82.9809 71.023C82.9397 71.0681 82.9178 71.1221 82.915 71.1882V71.4614H82.8711V70.933V70.93Z" fill="white"/>
<path d="M83.2385 70.7552C83.2385 70.7552 83.2522 70.7763 83.2522 70.7883C83.2522 70.8003 83.2467 70.8123 83.2385 70.8213C83.2302 70.8303 83.2192 70.8363 83.2082 70.8363C83.1973 70.8363 83.1863 70.8303 83.178 70.8213C83.1698 70.8123 83.1643 70.8003 83.1643 70.7883C83.1643 70.7763 83.1698 70.7643 83.178 70.7552C83.1863 70.7462 83.1973 70.7402 83.2082 70.7402C83.2192 70.7402 83.2302 70.7462 83.2385 70.7552ZM83.2302 70.9294V71.4578H83.1863V70.9294H83.2302Z" fill="white"/>
<path d="M83.4309 71.0466V71.4579H83.387V70.9295H83.4309V70.9625C83.4721 70.9175 83.5188 70.8965 83.5709 70.8965C83.6286 70.8965 83.6753 70.9175 83.711 70.9565C83.7467 70.9956 83.7659 71.0436 83.7659 71.1036V71.4579H83.722V71.1096C83.722 71.0646 83.7083 71.0256 83.678 70.9956C83.6478 70.9625 83.6121 70.9475 83.5737 70.9475C83.5352 70.9475 83.4968 70.9625 83.4693 70.9956C83.4529 71.0136 83.4419 71.0316 83.4336 71.0496L83.4309 71.0466Z" fill="white"/>
<path d="M84.389 71.3533C84.389 71.3533 84.3725 71.3773 84.3615 71.3863C84.3094 71.4433 84.2462 71.4733 84.1693 71.4733C84.0924 71.4733 84.032 71.4433 83.9771 71.3863C83.9249 71.3292 83.8975 71.2602 83.8975 71.1761C83.8975 71.0921 83.9249 71.023 83.9771 70.966C84.0293 70.9089 84.0924 70.8789 84.1693 70.8789C84.2462 70.8789 84.3066 70.9089 84.3615 70.966C84.3725 70.978 84.3808 70.99 84.389 71.002V70.9269H84.4329V71.3382C84.4329 71.4163 84.4082 71.4853 84.356 71.5424C84.3039 71.5994 84.2407 71.6295 84.1638 71.6295C84.0869 71.6295 84.0265 71.5994 83.9716 71.5424C83.9606 71.5304 83.9524 71.5184 83.9414 71.5064L83.9881 71.4884C83.9881 71.4884 83.9991 71.5004 84.0046 71.5064C84.0485 71.5544 84.1007 71.5784 84.1638 71.5784C84.227 71.5784 84.2764 71.5544 84.3203 71.5064C84.3588 71.4643 84.3808 71.4103 84.3862 71.3533H84.389ZM84.3917 71.1281C84.3835 71.0831 84.3615 71.041 84.3313 71.005C84.2874 70.957 84.2352 70.9329 84.1721 70.9329C84.1089 70.9329 84.0567 70.957 84.0128 71.005C83.9689 71.053 83.9469 71.1101 83.9469 71.1791C83.9469 71.2482 83.9689 71.3052 84.0128 71.3533C84.0567 71.4013 84.1089 71.4253 84.1721 71.4253C84.2352 71.4253 84.2874 71.4013 84.3313 71.3533C84.3643 71.3172 84.3835 71.2782 84.3917 71.2332V71.1311V71.1281Z" fill="white"/>
<path d="M91.8678 78.3608C91.9928 78.2754 91.9225 78.0703 91.8365 78.0703C91.4771 78.0703 90.6956 78.2925 90.4924 78.2839C90.2892 78.2754 91.2973 78.694 91.6412 78.7709C91.6802 78.7795 91.6959 78.7795 91.7662 78.788C91.946 78.8137 92.0397 78.5146 91.8053 78.4719C91.6959 78.4548 91.8053 78.4121 91.8756 78.3694L91.8678 78.3608Z" fill="#FB3939"/>
<path d="M121.127 91.8594C121.127 91.8594 121.94 92.0473 121.784 93.141C121.627 94.2346 120.354 96.1741 119.791 96.439C119.228 96.7039 118.658 96.3279 118.658 96.3279L121.127 91.8594Z" fill="black"/>
<path d="M120.549 94.5287C121.26 93.295 121.575 92.1154 121.254 91.8941C120.933 91.6728 120.096 92.4934 119.385 93.7271C118.674 94.9608 118.358 96.1404 118.68 96.3617C119.001 96.583 119.838 95.7624 120.549 94.5287Z" fill="white"/>
<path d="M120.494 95.7375L121.729 102.419L122.049 104.572H122.487L120.783 95.3359L120.494 95.7375Z" fill="black"/>
<path d="M108.537 102.308C108.537 102.308 113.203 106.4 113.234 106.494C113.265 106.588 113.234 109.305 113.234 109.305H113.867V106.409L111.71 104.444L108.092 101.453L107.881 101.786L108.529 102.316L108.537 102.308Z" fill="black"/>
<path d="M106.161 102.898C107.624 102.898 108.811 101.551 108.811 99.8903C108.811 98.2293 107.624 96.8828 106.161 96.8828C104.698 96.8828 103.512 98.2293 103.512 99.8903C103.512 101.551 104.698 102.898 106.161 102.898Z" fill="black"/>
<path d="M146.455 126.856C146.08 127.163 145.994 127.744 146.275 128.154C146.557 128.564 147.893 128.992 147.893 128.992C147.893 128.992 147.924 127.462 147.643 127.052C147.361 126.642 146.83 126.548 146.455 126.856ZM147.143 127.872C147.01 127.983 146.814 127.949 146.713 127.804C146.611 127.659 146.642 127.445 146.775 127.334C146.908 127.223 147.104 127.257 147.205 127.402C147.307 127.548 147.276 127.761 147.143 127.872Z" fill="white"/>
<path d="M146.979 137.886L145.338 135.46C145.291 135.417 145.252 135.366 145.205 135.34C145.142 135.306 145.072 135.289 145.002 135.297C144.924 135.297 144.853 135.323 144.775 135.349C144.752 135.349 144.728 135.366 144.713 135.374C144.697 135.383 144.681 135.4 144.658 135.408C144.642 135.417 144.627 135.434 144.611 135.443L143.087 136.664L143.869 137.826L144.791 137.083L144.963 137.339C144.908 137.536 144.822 137.707 144.705 137.86C144.588 138.014 144.455 138.142 144.306 138.254C144.158 138.356 143.986 138.433 143.806 138.476C143.626 138.518 143.439 138.527 143.251 138.493C143.04 138.459 142.845 138.382 142.673 138.262C142.493 138.142 142.352 137.997 142.235 137.826C142.118 137.655 142.032 137.459 141.985 137.237C141.93 137.015 141.923 136.792 141.954 136.562C141.985 136.331 142.055 136.118 142.165 135.93C142.274 135.742 142.407 135.579 142.571 135.451C142.735 135.323 142.907 135.229 143.11 135.169C143.314 135.109 143.517 135.101 143.728 135.135L143.923 133.708C143.532 133.64 143.15 133.665 142.782 133.768C142.415 133.87 142.079 134.041 141.782 134.281C141.485 134.52 141.235 134.819 141.032 135.169C140.828 135.519 140.703 135.912 140.641 136.34C140.578 136.767 140.602 137.186 140.703 137.587C140.805 137.989 140.961 138.348 141.18 138.672C141.399 138.997 141.665 139.27 141.985 139.492C142.306 139.715 142.657 139.851 143.048 139.92C143.439 139.988 143.822 139.962 144.189 139.86C144.556 139.757 144.892 139.586 145.189 139.347C145.314 139.253 145.424 139.142 145.533 139.022C145.643 138.903 145.744 138.775 145.83 138.629L145.916 138.749L146.979 137.895V137.886Z" fill="white"/>
<path d="M146.065 130.838C146.385 130.581 146.729 130.411 147.096 130.317C147.463 130.223 147.831 130.206 148.19 130.265C148.55 130.325 148.894 130.462 149.222 130.667C149.55 130.872 149.831 131.154 150.066 131.504C150.3 131.855 150.457 132.23 150.542 132.632C150.628 133.034 150.644 133.435 150.589 133.828C150.535 134.221 150.41 134.597 150.222 134.956C150.035 135.315 149.777 135.622 149.464 135.879C149.151 136.135 148.8 136.306 148.432 136.4C148.065 136.494 147.698 136.511 147.338 136.451C146.979 136.391 146.635 136.255 146.307 136.05C145.979 135.845 145.697 135.563 145.463 135.212C145.228 134.862 145.072 134.486 144.986 134.085C144.9 133.683 144.884 133.281 144.939 132.888C144.994 132.495 145.119 132.119 145.306 131.761C145.494 131.402 145.752 131.094 146.065 130.838ZM148.683 134.708C148.854 134.572 148.987 134.409 149.097 134.213C149.198 134.025 149.269 133.82 149.292 133.606C149.323 133.392 149.316 133.179 149.269 132.957C149.222 132.743 149.136 132.538 149.011 132.35C148.886 132.162 148.729 132.008 148.557 131.897C148.378 131.786 148.198 131.709 148.003 131.675C147.807 131.641 147.612 131.649 147.409 131.701C147.213 131.752 147.026 131.846 146.854 131.983C146.682 132.119 146.549 132.282 146.44 132.478C146.338 132.666 146.268 132.871 146.244 133.085C146.213 133.299 146.221 133.512 146.268 133.734C146.315 133.948 146.401 134.153 146.526 134.341C146.651 134.529 146.807 134.683 146.979 134.794C147.151 134.905 147.338 134.982 147.534 135.016C147.729 135.05 147.924 135.041 148.128 134.99C148.323 134.939 148.511 134.845 148.683 134.708Z" fill="white"/>
<path d="M146.408 140.962C146.33 140.97 146.268 140.979 146.229 140.97C146.166 140.962 146.119 140.927 146.088 140.876C146.057 140.825 146.041 140.765 146.049 140.697C146.057 140.628 146.088 140.577 146.135 140.543C146.182 140.509 146.236 140.492 146.291 140.5C146.346 140.509 146.385 140.534 146.416 140.577L146.377 140.654C146.346 140.62 146.315 140.594 146.276 140.586C146.244 140.586 146.213 140.586 146.182 140.611C146.15 140.637 146.135 140.671 146.127 140.705C146.127 140.748 146.127 140.782 146.15 140.816C146.174 140.851 146.205 140.868 146.236 140.876C146.26 140.876 146.299 140.876 146.354 140.876C146.44 140.859 146.51 140.859 146.557 140.876C146.627 140.885 146.69 140.927 146.737 140.996C146.783 141.064 146.799 141.132 146.791 141.218C146.783 141.295 146.744 141.363 146.682 141.414C146.619 141.466 146.557 141.483 146.479 141.466C146.408 141.457 146.346 141.423 146.315 141.363L146.369 141.295C146.401 141.346 146.44 141.372 146.494 141.38C146.549 141.38 146.588 141.38 146.635 141.346C146.682 141.312 146.698 141.269 146.705 141.209C146.713 141.15 146.705 141.098 146.674 141.056C146.643 141.013 146.604 140.987 146.549 140.979C146.518 140.979 146.471 140.979 146.401 140.979L146.408 140.962Z" fill="white"/>
<path d="M146.205 139.749L146.275 139.697L146.642 140.244C146.658 140.142 146.705 140.056 146.783 139.988C146.869 139.919 146.963 139.894 147.057 139.911C147.15 139.928 147.229 139.979 147.291 140.065L147.651 140.603L147.58 140.654L147.221 140.124C147.174 140.056 147.111 140.013 147.033 140.005C146.955 139.996 146.885 140.005 146.822 140.065C146.76 140.124 146.721 140.184 146.713 140.261C146.713 140.295 146.713 140.33 146.713 140.364L147.143 141.005L147.072 141.056L146.189 139.749H146.205Z" fill="white"/>
<path d="M148.667 139.782L148.597 139.834L148.487 139.671C148.487 139.671 148.487 139.731 148.487 139.757C148.464 139.911 148.401 140.03 148.284 140.124C148.167 140.218 148.042 140.252 147.909 140.227C147.768 140.201 147.659 140.133 147.573 140.005C147.487 139.876 147.456 139.74 147.479 139.586C147.502 139.432 147.565 139.312 147.682 139.218C147.799 139.124 147.924 139.09 148.057 139.116C148.081 139.116 148.112 139.124 148.135 139.133L148.057 139.022L148.128 138.971L148.667 139.774V139.782ZM148.362 139.483L148.26 139.338C148.198 139.278 148.128 139.236 148.042 139.227C147.924 139.21 147.823 139.236 147.729 139.312C147.635 139.389 147.581 139.492 147.565 139.612C147.549 139.74 147.573 139.851 147.643 139.953C147.713 140.056 147.807 140.116 147.917 140.133C148.034 140.15 148.135 140.124 148.229 140.047C148.323 139.97 148.378 139.868 148.393 139.748C148.409 139.654 148.393 139.569 148.362 139.483Z" fill="white"/>
<path d="M148.346 138.799L148.417 138.748L148.518 138.893C148.518 138.893 148.518 138.825 148.518 138.791C148.534 138.68 148.573 138.594 148.628 138.543L148.682 138.62C148.643 138.654 148.612 138.714 148.604 138.799C148.589 138.919 148.604 139.03 148.675 139.133L148.956 139.551L148.886 139.602L148.346 138.799Z" fill="white"/>
<path d="M148.729 138.082C148.729 138.082 148.768 138.099 148.784 138.116C148.799 138.133 148.799 138.159 148.799 138.185C148.799 138.21 148.784 138.227 148.768 138.244C148.752 138.261 148.729 138.261 148.706 138.261C148.682 138.261 148.667 138.244 148.651 138.227C148.635 138.21 148.635 138.185 148.635 138.159C148.635 138.133 148.651 138.116 148.667 138.099C148.682 138.082 148.706 138.082 148.729 138.082ZM148.893 138.364L149.432 139.167L149.362 139.218L148.823 138.415L148.893 138.364Z" fill="white"/>
<path d="M149.315 138.296L149.737 138.92L149.667 138.971L149.128 138.168L149.198 138.117L149.229 138.168C149.245 138.048 149.292 137.963 149.378 137.895C149.464 137.826 149.558 137.801 149.651 137.818C149.745 137.835 149.823 137.886 149.886 137.971L150.245 138.51L150.175 138.561L149.815 138.031C149.769 137.963 149.706 137.92 149.628 137.912C149.55 137.903 149.479 137.912 149.417 137.971C149.354 138.031 149.315 138.091 149.307 138.168C149.307 138.211 149.307 138.253 149.307 138.296H149.315Z" fill="white"/>
<path d="M151.089 137.587C151.089 137.587 151.089 137.638 151.089 137.672C151.066 137.826 151.003 137.945 150.886 138.039C150.769 138.133 150.644 138.168 150.511 138.142C150.37 138.116 150.261 138.048 150.175 137.92C150.089 137.792 150.058 137.655 150.081 137.51C150.104 137.356 150.167 137.236 150.284 137.142C150.401 137.048 150.526 137.014 150.659 137.04C150.683 137.04 150.714 137.048 150.737 137.057L150.659 136.946L150.73 136.895L151.152 137.518C151.23 137.638 151.261 137.775 151.245 137.92C151.222 138.074 151.159 138.193 151.042 138.287C150.925 138.381 150.8 138.415 150.667 138.39C150.636 138.39 150.612 138.381 150.589 138.373L150.644 138.287C150.644 138.287 150.675 138.287 150.691 138.296C150.808 138.313 150.909 138.287 151.003 138.21C151.097 138.133 151.152 138.031 151.167 137.911C151.183 137.8 151.167 137.689 151.105 137.595L151.089 137.587ZM150.855 137.245C150.792 137.185 150.722 137.151 150.636 137.134C150.519 137.117 150.417 137.142 150.323 137.219C150.23 137.296 150.175 137.399 150.159 137.518C150.144 137.646 150.167 137.757 150.237 137.86C150.308 137.963 150.401 138.022 150.511 138.039C150.628 138.057 150.73 138.031 150.823 137.954C150.917 137.877 150.972 137.775 150.988 137.655C151.003 137.561 150.988 137.476 150.956 137.399L150.855 137.245Z" fill="white"/>
<path d="M115.055 102.573C115.055 102.573 118.712 104.487 118.681 105.298C118.65 106.11 116.469 107.528 115.524 107.913C114.398 108.366 113.695 108.186 113.609 108.639C113.578 108.819 113.632 108.895 113.64 109.015C113.64 109.186 113.773 109.314 113.929 109.297C114.461 109.246 115.61 108.767 116.008 108.588C116.446 108.383 118.853 106.965 119.228 105.751C119.541 104.752 119.033 104.256 117.681 102.923C116.329 101.59 115.977 101.061 115.977 101.061L115.063 102.573H115.055Z" fill="black"/>
<path d="M114.586 97.6094H117.087C117.493 97.6094 117.751 98.0793 117.556 98.4552L114.36 104.547C114.227 104.803 113.93 104.906 113.68 104.795L111.757 103.906C111.468 103.77 111.351 103.411 111.499 103.12L114.117 97.917C114.211 97.729 114.391 97.6179 114.586 97.6179V97.6094Z" fill="#99DB26"/>
<path d="M115.008 97.7109H117.095C117.595 97.7109 117.907 98.3005 117.665 98.7789L114.758 104.469C114.594 104.794 114.234 104.922 113.922 104.777L112.32 104.016C111.968 103.846 111.819 103.393 112.007 103.017L114.422 98.0869C114.539 97.8562 114.758 97.7109 115 97.7109H115.008Z" fill="black"/>
<path d="M116.86 107.837C116.86 107.837 117.587 104.684 119.111 103.249C120.635 101.814 122.018 101.036 122.737 102.138L123.433 103.992C123.433 103.992 120.103 106.034 119.259 106.632C118.415 107.23 116.938 108.034 116.938 108.034L116.868 107.837H116.86Z" fill="#1E1E1E"/>
<path d="M123.003 104.078L122.307 102.216C122.276 102.139 122.213 102.096 122.135 102.105C121.846 102.139 121.127 102.275 120.799 102.839C120.767 102.891 120.767 102.95 120.791 103.002L121.518 104.958C121.557 105.061 121.666 105.104 121.752 105.044L122.932 104.3C123.003 104.258 123.034 104.164 123.003 104.078Z" fill="white"/>
<path d="M124.714 103.258C124.714 103.258 126.973 101.609 127.301 101.617C127.629 101.626 128.481 101.805 128.09 102.66L125.863 104.881L123.698 106.684L123.26 104.89L123.432 103.967L124.722 103.258H124.714Z" fill="black"/>
<path d="M321.848 94.6509L264.156 88.916L256.356 182.555L325.65 189.354L332.079 113.229L321.848 94.6509Z" fill="#65C8D0"/>
<path d="M332.079 113.229L321.848 94.6504C321.848 94.6504 315.316 109.305 319.998 111.425C324.674 113.652 332.085 113.229 332.085 113.229H332.079Z" fill="#EFEFEF"/>
<path d="M322.042 116.836L317.269 121.19L315.517 118.851C315.323 118.534 314.838 118.534 314.637 118.746C314.346 118.957 314.346 119.485 314.54 119.704L316.784 122.571C316.881 122.677 317.075 122.783 317.269 122.783C317.463 122.783 317.56 122.783 317.754 122.571L323.115 117.689C323.407 117.477 323.407 116.949 323.213 116.731C322.727 116.625 322.236 116.519 322.042 116.836Z" fill="white"/>
<path d="M320.483 135.422L315.711 139.776L313.958 137.437C313.764 137.12 313.279 137.12 313.079 137.332C312.788 137.543 312.788 138.071 312.982 138.29L315.226 141.157C315.323 141.263 315.517 141.369 315.711 141.369C315.905 141.369 316.002 141.369 316.196 141.157L321.557 136.275C321.848 136.063 321.848 135.535 321.654 135.317C321.169 135.211 320.677 135.105 320.483 135.422Z" fill="white"/>
<path d="M318.925 154L314.152 158.354L312.4 156.015C312.206 155.698 311.721 155.698 311.52 155.91C311.229 156.121 311.229 156.649 311.423 156.868L313.667 159.735C313.764 159.841 313.958 159.947 314.152 159.947C314.346 159.947 314.443 159.947 314.637 159.735L319.998 154.853C320.289 154.642 320.289 154.113 320.095 153.895C319.61 153.789 319.216 153.683 318.925 154Z" fill="white"/>
<path d="M317.366 172.579L312.594 176.933L310.841 174.594C310.647 174.276 310.162 174.276 309.962 174.488C309.671 174.699 309.671 175.228 309.865 175.446L312.109 178.313C312.206 178.419 312.4 178.525 312.594 178.525C312.788 178.525 312.885 178.525 313.079 178.313L318.44 173.431C318.731 173.22 318.731 172.691 318.537 172.473C318.052 172.367 317.657 172.262 317.366 172.579Z" fill="white"/>
<path d="M304.6 118.435L271.172 115.145C270.784 115.145 270.59 114.723 270.59 114.406C270.59 113.983 270.978 113.771 271.269 113.771L304.697 117.062C305.085 117.062 305.279 117.484 305.279 117.801C305.279 118.224 304.988 118.435 304.6 118.435Z" fill="white"/>
<path d="M303.139 136.268L269.711 132.977C269.323 132.977 269.129 132.555 269.129 132.238C269.129 131.815 269.517 131.604 269.808 131.604L303.236 134.894C303.624 134.894 303.818 135.316 303.818 135.633C303.818 136.056 303.527 136.373 303.139 136.268Z" fill="white"/>
<path d="M301.574 154.951L268.146 151.661C267.758 151.661 267.564 151.238 267.564 150.921C267.564 150.498 267.952 150.287 268.243 150.287L301.671 153.577C302.059 153.577 302.253 154 302.253 154.317C302.253 154.634 301.962 154.951 301.574 154.951Z" fill="white"/>
<path d="M300.015 173.537L266.587 170.247C266.199 170.247 266.005 169.824 266.005 169.507C266.005 169.084 266.393 168.873 266.684 168.873L300.112 172.163C300.5 172.163 300.694 172.586 300.694 172.903C300.694 173.22 300.403 173.537 300.015 173.537Z" fill="white"/>
<path opacity="0.51" d="M121.735 103.508L257.329 65.6016L258.611 136.026L121.735 103.508Z" fill="#E5E5E5"/>
</svg>
