<svg width="356" height="233" viewBox="0 0 356 233" fill="none" xmlns="http://www.w3.org/2000/svg">
<path d="M187.815 214.594C280.497 214.594 355.63 206.947 355.63 197.513C355.63 188.079 280.497 180.432 187.815 180.432C95.1333 180.432 20 188.079 20 197.513C20 206.947 95.1333 214.594 187.815 214.594Z" fill="#F3F3F3"/>
<circle cx="109.5" cy="126.5" r="57" fill="#F3F3F3" stroke="#CCCDD0"/>
<path d="M86.1409 119.212C86.1409 119.212 87.8289 125.312 101.992 125.334C116.206 125.367 114.855 119.235 114.855 119.235L103.537 118.093C102.484 117.982 101.407 117.969 100.355 118.061L86.1528 119.212H86.1439H86.1409Z" fill="#5A5D68"/>
<path d="M116.379 171.323C133.653 170.663 132.505 150.806 132.505 150.806H132.391C133.035 148.3 133.384 145.68 133.384 142.981C133.384 141.862 133.334 140.798 133.179 137.965C133.015 134.787 131.992 131.71 130.16 129.223C126.978 124.903 122.344 121.636 116.952 119.352C116.543 119.172 116.081 119.172 115.663 119.319L115.541 119.365C115.132 119.512 114.703 119.567 114.274 119.521L103.898 118.471C101.751 118.246 99.5916 118.246 97.4413 118.448L86.1561 119.499C85.5537 119.554 84.9274 119.499 84.3966 119.208C83.9373 118.963 83.3945 118.918 82.9024 119.107C76.1027 121.874 70.6808 127.794 68.787 135.44C68.1846 137.858 67.8655 140.387 67.8655 142.994C67.8655 146.084 68.3158 149.07 69.1538 151.903C69.2552 152.239 69.3059 152.585 69.3268 152.934C69.6131 157.982 71.7008 170.415 85.4225 171.336H85.4434" fill="#0E0E10"/>
<path d="M118.496 129.652L115.242 127.055C115.028 126.888 114.771 126.797 114.506 126.797H88.5951C88.3297 126.797 88.0732 126.885 87.8585 127.055L84.6047 129.652C84.053 130.099 83.9307 130.938 84.3274 131.555L92.2485 143.619C92.4841 143.978 92.8628 144.19 93.2625 144.19H109.838C110.238 144.19 110.617 143.978 110.852 143.619L118.773 131.555C119.173 130.951 119.051 130.099 118.496 129.652Z" fill="#26282C"/>
<path d="M101.956 129.211H96.1019C95.4547 129.211 95.0163 129.932 95.2668 130.585L95.92 132.295C96.0601 132.663 96.3912 132.905 96.755 132.905H107.142C107.506 132.905 107.837 132.663 107.978 132.295L108.631 130.585C108.881 129.932 108.443 129.211 107.796 129.211H101.953H101.956Z" fill="#FFE573"/>
<path d="M132.916 144.797H68.3273C67.4684 144.797 66.7705 145.557 66.7705 146.497V151.121C66.7705 152.061 67.4654 152.821 68.3273 152.821H132.916C133.775 152.821 134.469 152.061 134.469 151.121V146.497C134.469 145.557 133.772 144.797 132.916 144.797Z" fill="#1A1B1E"/>
<path d="M101.929 152.824H85.5884V154.022C85.5884 154.547 85.651 155.063 85.7822 155.565L89.7935 171.337H91.0013C92.066 171.337 92.9339 170.407 92.9667 169.245L93.3246 155.748H110.485L110.843 169.245C110.873 170.41 111.743 171.337 112.808 171.337H114.016L118.027 155.565C118.15 155.063 118.221 154.547 118.221 154.022V152.824H101.92H101.929Z" fill="#1F2124"/>
<path d="M101.908 161.452C103.039 161.452 103.954 160.45 103.954 159.213C103.954 157.976 103.039 156.975 101.908 156.975C100.778 156.975 99.8625 157.976 99.8625 159.213C99.8625 160.45 100.778 161.452 101.908 161.452Z" fill="#F6D751"/>
<path d="M101.905 160.879C102.743 160.879 103.423 160.135 103.423 159.218C103.423 158.301 102.743 157.557 101.905 157.557C101.067 157.557 100.387 158.301 100.387 159.218C100.387 160.135 101.067 160.879 101.905 160.879Z" fill="#FFE573"/>
<path d="M102.024 167.808C101.128 167.208 100.744 165.043 100.258 163.944C99.773 162.845 100.27 162.16 100.886 162.96C101.483 163.76 101.539 163.835 101.539 163.835V160.411C101.539 159.987 101.8 159.637 102.118 159.637C102.435 159.637 102.696 159.987 102.696 160.411V162.285C102.696 161.861 102.958 161.511 103.275 161.511C103.592 161.511 103.854 161.861 103.854 162.285V162.61C103.854 162.185 104.115 161.836 104.432 161.836C104.75 161.836 105.011 162.185 105.011 162.61V163.71C105.011 163.285 105.272 162.935 105.59 162.935C105.907 162.935 106.168 163.285 106.168 163.71V165.634C106.168 165.884 106.131 166.133 106.019 166.358C105.832 166.733 105.44 167.358 104.862 167.783C103.966 168.432 102.976 168.382 102.062 167.783L102.024 167.808Z" fill="white" stroke="#605D61" stroke-width="0.2" stroke-linecap="round" stroke-linejoin="round"/>
<path d="M230.537 69.2539H190.128V182.732H230.537V69.2539Z" fill="#EAEAEA"/>
<path d="M206.085 76.959H195.419V82.66H206.085V76.959Z" fill="white"/>
<path d="M224.019 76.959H213.353V82.66H224.019V76.959Z" fill="white"/>
<path d="M206.006 91.2988H195.34V96.9998H206.006V91.2988Z" fill="white"/>
<path d="M224.021 91.2988H213.355V96.9998H224.021V91.2988Z" fill="white"/>
<path d="M206.006 105.723H195.34V111.424H206.006V105.723Z" fill="white"/>
<path d="M224.021 105.723H213.355V111.424H224.021V105.723Z" fill="white"/>
<path d="M206.006 120.148H195.34V125.849H206.006V120.148Z" fill="white"/>
<path d="M224.021 120.148H213.355V125.849H224.021V120.148Z" fill="white"/>
<path d="M206.006 134.66H195.34V140.361H206.006V134.66Z" fill="white"/>
<path d="M224.021 134.66H213.355V140.361H224.021V134.66Z" fill="white"/>
<path d="M236.898 69.0996H230.024V183.599H236.898V69.0996Z" fill="#D8D8D8"/>
<path d="M209.641 45L196.289 69.0996H236.898L209.641 45Z" fill="#D8D8D8"/>
<path d="M209.641 45L189.336 69.0996H229.946L209.641 45Z" fill="#F4F4F4"/>
<path d="M184.99 106.912H153.121V181.409H184.99V106.912Z" fill="#EAEAEA"/>
<path d="M165.893 113.08H157.523V117.554H165.893V113.08Z" fill="white"/>
<path d="M179.967 113.08H171.597V117.554H179.967V113.08Z" fill="white"/>
<path d="M165.831 124.332H157.461V128.806H165.831V124.332Z" fill="white"/>
<path d="M179.969 124.332H171.598V128.806H179.969V124.332Z" fill="white"/>
<path d="M165.831 135.652H157.461V140.126H165.831V135.652Z" fill="white"/>
<path d="M179.969 135.652H171.598V140.126H179.969V135.652Z" fill="white"/>
<path d="M165.831 146.973H157.461V151.447H165.831V146.973Z" fill="white"/>
<path d="M179.969 146.973H171.598V151.447H179.969V146.973Z" fill="white"/>
<path d="M165.831 158.361H157.461V162.835H165.831V158.361Z" fill="white"/>
<path d="M179.969 158.361H171.598V162.835H179.969V158.361Z" fill="white"/>
<path d="M190.074 106.912H184.68V181.409H190.074V106.912Z" fill="#D8D8D8"/>
<path d="M168.684 88L158.206 106.912H190.074L168.684 88Z" fill="#D8D8D8"/>
<path d="M168.684 88L152.749 106.912H184.618L168.684 88Z" fill="#F4F4F4"/>
<path d="M261.431 161.647L265.971 166.423L265.597 174.519L265.49 185.759H269.122L268.535 169.859L268.268 166.015L272.434 161.647L272.861 161.181H270.992L268.108 163.918L268.161 159.783H266.238V164.093L262.393 160.773L260.737 160.832L261.431 161.647Z" fill="#754C24"/>
<path d="M276.066 161.24C274.036 161.764 264.583 161.24 258.013 161.124C257.693 161.124 257.319 161.065 256.998 161.007C254.808 160.483 253.58 159.027 252.832 157.047C252.565 156.348 252.405 155.591 252.458 154.892C252.512 153.203 253.099 151.805 254.328 150.698C253.473 149.184 253.046 147.437 253.42 145.398C253.526 144.699 253.794 144 254.167 143.36C255.129 141.612 256.357 140.215 258.066 139.69C259.295 136.021 261.645 134.39 264.422 133.458C267.093 132.992 269.016 133.866 270.404 135.905C275.265 135.206 277.829 137.361 277.455 143.185C280.286 145.049 281.354 147.495 281.354 150.232C282.956 151.514 283.597 153.028 283.544 154.775C283.437 157.221 281.888 159.318 279.805 160.192C278.683 160.658 277.508 160.891 276.867 161.007C276.6 161.124 276.333 161.182 276.066 161.24Z" fill="#F7931E"/>
<path d="M268.67 185.415L269.775 135.562H270.839V184.269V185.415H268.67Z" fill="#686867"/>
<path d="M277.796 159.574C277.796 159.574 270.389 167.385 260.24 159.083C250.092 150.782 257.54 139.331 259.054 135.323C260.609 131.315 264.046 129.352 262.982 122.686C262 116.02 262.123 113.771 263.923 108.781C265.724 103.792 268.466 94.3043 270.143 95.0405C271.821 95.7766 275.177 96.1038 275.422 102.197C275.668 108.25 275.177 110.131 277.837 115.611C280.415 121.091 281.274 125.835 280.415 130.456C279.596 135.078 279.801 136.386 281.724 140.435C283.647 144.443 286.103 146.733 283.647 152.499C281.11 158.266 277.796 159.574 277.796 159.574Z" fill="#8AC43F"/>
<g clip-path="url(#clip0_16546_58381)">
<path d="M167.102 163.134C167.09 163.124 167.077 163.115 167.066 163.105C166.814 162.884 163.894 160.333 163.194 159.906C162.462 159.46 161.679 159.377 161.931 158.625C162.183 157.873 163.681 156.82 164.205 156.625C164.67 156.451 165.587 156.068 165.783 155.985C165.808 155.975 165.832 155.964 165.855 155.948C166.012 155.853 166.664 155.466 166.832 155.48C167.023 155.494 168.135 154.195 169.414 156.218C170.693 158.244 171.166 158.392 171.166 158.728C171.166 159.044 170.137 162.175 168.237 163.509C168.034 163.652 167.775 163.64 167.578 163.492L167.102 163.136V163.134Z" stroke="black" stroke-width="4" stroke-miterlimit="10"/>
<path d="M171.599 164.406C171.599 164.406 168.203 165.336 168.618 163.031C169.033 160.727 169.516 158.058 172.143 158.019C174.77 157.977 175.045 159.093 177.949 160.356C180.853 161.62 181.253 161.995 186.506 162.143C191.76 162.291 193.397 162.329 194.297 162.254C195.197 162.179 196.061 166.599 195.509 167.788C194.956 168.976 190.584 168.009 190.332 167.894C190.08 167.78 175.807 165.187 174.081 164.666C172.352 164.145 171.601 164.406 171.601 164.406H171.599Z" fill="#131315"/>
<path d="M161.474 158.928C161.474 158.928 160.186 159.402 159.427 158.928C158.669 158.454 154.779 157.06 153.718 157.228C152.656 157.396 151.615 156.551 151.615 156.551C151.615 156.551 155.888 157.226 158.087 157.307C160.286 157.388 161.347 156.993 161.702 157.39C162.056 157.787 162.013 157.887 161.829 158.306C161.644 158.725 161.474 158.928 161.474 158.928Z" fill="#1E1E1E"/>
<path d="M191.495 167.214C191.495 167.214 185.157 184.486 184.089 184.456C183.02 184.426 182.62 189.031 182.519 189.495C182.419 189.958 180.943 192.199 184.529 192.979C188.117 193.759 204.89 197.161 204.89 197.161C204.89 197.161 208.478 197.941 210.65 197.439C212.823 196.938 214.642 195.935 215.501 195.822C216.36 195.71 219.948 190.75 221.009 189.299C222.07 187.85 232.529 170.29 232.629 169.398C232.729 168.506 231.334 166.32 230.525 164.257C229.716 162.194 223.577 153.321 223.577 153.321L217.824 146.526C217.824 146.526 217.049 146.042 216.376 146.526C215.703 147.009 214.306 148.512 214.206 149.292C214.106 150.071 214.004 152.859 214.106 153.305C214.208 153.752 216.412 158.75 216.412 158.75C216.412 158.75 211.475 157.969 211.375 158.806C211.275 159.643 211.55 163.351 211.647 165.52C211.744 167.69 211.795 168.371 211.647 169.236C211.549 169.809 208.326 184.59 208.326 184.59L196.001 180.043L197.28 166.334L196.489 166.719L191.747 166.288L191.497 167.212L191.495 167.214Z" fill="black"/>
<path d="M220.945 168.46L211.513 152.628C211.513 152.628 209.477 149.22 209.088 149.953C208.7 150.683 208.988 153.967 208.988 153.967C208.988 153.967 212.794 162.513 213.669 164.15C214.544 165.785 215.353 170.393 215.353 170.393L212.524 180.649L213.669 188.379L214.242 188.677L218.384 180.649L223.398 172.207L220.945 168.46Z" fill="#81BB27"/>
<path d="M231.55 177.496L230.045 174.009L230.437 173.521L231.352 175.841L232.067 177.496H231.55Z" fill="#B7C4B7"/>
<path d="M209.883 155.967C209.883 155.967 207.836 151.745 206.876 150.211C205.917 148.679 205.595 148.454 204.149 147.386C202.988 146.527 201.583 144.585 201.116 144.33C200.317 143.892 197.319 146.273 197.117 146.16C196.915 146.048 197.638 144.887 197.606 144.553C197.572 144.198 196.936 144.083 196.494 144.33C196.316 144.429 194.746 145.485 194.054 145.951C193.766 146.144 193.385 146.042 193.22 145.714C193.152 145.58 193.104 145.41 193.098 145.193C193.073 144.385 194.623 143.378 194.623 143.378L197.937 139.673C197.937 139.673 200.236 137.072 202.795 136.476C205.355 135.882 206.461 135.876 207.17 136.247C207.878 136.618 211.999 139.445 212.908 140.415C213.817 141.384 216.444 144.373 215.972 144.768C215.499 145.163 213.152 145.923 212.656 146.19C212.22 146.425 211.291 147.135 211.291 147.135C211.053 147.495 210.491 147.67 209.741 149.886C209.505 150.585 208.968 149.599 208.888 151.738C208.836 153.102 209.884 155.959 209.884 155.959L209.883 155.967Z" fill="black"/>
<path d="M167.59 155.927C167.59 155.927 163.65 158.331 160.281 158.404C156.913 158.479 148.222 157.401 146.538 156.286C144.855 155.17 142.396 150.637 142.362 149.299C142.328 147.96 142.362 147.552 142.362 147.552C142.362 147.552 141.655 147.366 141.789 146.288C141.924 145.21 141.857 144.987 142.228 144.876C142.598 144.766 143.071 144.691 143.071 144.691C143.071 144.691 143.373 143.056 143.946 142.387C144.518 141.717 147.111 139.785 148.763 138.782C150.414 137.779 155.432 135.698 160.383 135.921C165.334 136.144 168.702 135.698 169.983 139.601C169.983 139.601 170.792 142.797 170.96 143.317C171.128 143.836 171.33 145.137 170.724 146.959C170.117 148.78 168.906 154.333 168.458 155.032C168.011 155.731 167.59 155.927 167.59 155.927Z" fill="#1E1E1E"/>
<path d="M142.228 144.878C142.228 144.878 156.122 145.509 158.295 145.176C160.467 144.842 170.718 142.453 170.718 142.453L171.08 143.863C171.08 143.863 161.376 146.457 159.758 146.457C158.141 146.457 141.976 145.584 141.976 145.584L141.868 145.578L141.908 145.284C141.908 145.284 141.927 145.18 141.942 145.14C141.956 145.101 141.983 145.045 141.984 145.043C141.986 145.041 142.02 144.988 142.051 144.964C142.081 144.941 142.16 144.901 142.172 144.895C142.185 144.889 142.226 144.878 142.226 144.878H142.228Z" fill="#070707"/>
<path d="M141.87 145.579C141.87 145.579 141.664 147.066 142.013 147.31C142.362 147.555 149.403 148.284 149.403 148.284C149.403 148.284 159.256 148.744 159.912 148.688C160.569 148.633 170.724 146.961 170.724 146.961C170.724 146.961 171.157 144.574 171.119 144.219C171.082 143.863 171.042 143.873 171.042 143.873C171.042 143.873 163.146 145.915 161.82 146.151C160.494 146.388 145.186 145.65 145.186 145.65L141.872 145.579H141.87Z" fill="#3D3D3D"/>
<path d="M169.706 145.733C169.706 145.733 171.676 145.342 171.778 145.036C171.88 144.73 171.753 144.061 171.424 144.061C171.094 144.061 169.403 144.552 169.403 144.552L169.219 144.613C168.917 144.714 168.732 145.062 168.818 145.395C168.818 145.401 168.822 145.405 168.822 145.411L168.961 145.94L169.706 145.731V145.733Z" fill="white"/>
<path d="M161.519 148.056C161.519 148.056 163.516 147.9 163.647 147.606C163.777 147.312 163.717 146.633 163.389 146.595C163.063 146.556 161.331 146.848 161.331 146.848L161.142 146.888C160.83 146.951 160.616 147.275 160.667 147.618C160.667 147.624 160.667 147.628 160.669 147.634L160.757 148.177L161.517 148.056H161.519Z" fill="white"/>
<path d="M169.606 202.234C176.794 202.234 182.622 195.804 182.622 187.873C182.622 179.941 176.794 173.512 169.606 173.512C162.417 173.512 156.59 179.941 156.59 187.873C156.59 195.804 162.417 202.234 169.606 202.234Z" fill="#393A38"/>
<path d="M168.28 196.853C172.611 196.853 176.122 192.792 176.122 187.783C176.122 182.774 172.611 178.713 168.28 178.713C163.948 178.713 160.437 182.774 160.437 187.783C160.437 192.792 163.948 196.853 168.28 196.853Z" fill="black"/>
<path d="M190.704 170.523L184.427 185.046C184.137 185.72 183.471 186.091 182.807 185.951L179.334 185.22C178.919 185.133 178.565 184.851 178.343 184.454C178.01 183.856 177.359 182.981 176.253 182.563C174.549 181.919 159.263 176.778 158.13 176.397C158.085 176.381 158.042 176.365 157.999 176.346C157.133 175.953 156.808 174.782 157.327 173.923C157.763 173.203 158.248 172.433 158.57 172.028C159.277 171.135 162.858 165.584 163.521 165.06C164.226 164.504 166.35 163.276 169.079 163.556C171.808 163.834 175.546 162.65 179.286 163.521C183.024 164.391 191.21 167.179 191.361 167.848C191.511 168.518 190.704 170.523 190.704 170.523Z" fill="#81BB27"/>
<path d="M179.189 164.955C178.63 164.955 178.175 165.457 178.175 166.076C178.175 166.694 179.189 168.147 179.189 168.147C179.189 168.147 180.202 166.694 180.202 166.076C180.202 165.457 179.749 164.955 179.189 164.955ZM179.189 166.478C178.986 166.478 178.824 166.297 178.824 166.073C178.824 165.85 178.988 165.669 179.189 165.669C179.389 165.669 179.553 165.85 179.553 166.073C179.553 166.297 179.389 166.478 179.189 166.478Z" fill="white"/>
<path d="M172.572 176.032V172.407C172.555 172.333 172.551 172.254 172.519 172.184C172.481 172.103 172.424 172.035 172.353 171.986C172.275 171.933 172.19 171.891 172.104 171.861C172.079 171.852 172.051 171.845 172.026 171.838C172.003 171.835 171.98 171.833 171.957 171.828C171.957 171.828 171.952 171.828 171.95 171.828C171.927 171.828 171.904 171.828 171.881 171.824H169.634V173.553H170.996V173.932C170.816 174.077 170.623 174.179 170.412 174.239C170.201 174.3 169.99 174.323 169.778 174.307C169.565 174.291 169.358 174.232 169.156 174.132C168.956 174.032 168.775 173.895 168.614 173.719C168.435 173.521 168.3 173.295 168.208 173.042C168.115 172.789 168.069 172.533 168.069 172.275C168.069 172.017 168.115 171.759 168.208 171.507C168.3 171.254 168.435 171.028 168.614 170.831C168.794 170.633 168.998 170.484 169.225 170.384C169.453 170.284 169.685 170.236 169.921 170.236C170.157 170.236 170.387 170.284 170.616 170.384C170.844 170.484 171.048 170.631 171.227 170.831L172.34 169.601C172.007 169.231 171.63 168.957 171.211 168.771C170.791 168.587 170.361 168.494 169.923 168.494C169.485 168.494 169.055 168.587 168.635 168.771C168.216 168.955 167.839 169.231 167.506 169.601C167.173 169.971 166.924 170.387 166.76 170.849C166.596 171.314 166.513 171.789 166.513 172.272C166.513 172.756 166.596 173.23 166.76 173.691C166.924 174.151 167.173 174.567 167.506 174.935C167.839 175.304 168.216 175.581 168.635 175.765C169.055 175.948 169.485 176.041 169.923 176.041C170.102 176.041 170.283 176.025 170.465 175.995C170.646 175.965 170.825 175.916 170.998 175.846V176.03H172.574L172.572 176.032Z" fill="white"/>
<path d="M176.245 168.504C176.713 168.504 177.155 168.604 177.568 168.802C177.981 168.999 178.342 169.267 178.651 169.606C178.959 169.943 179.203 170.341 179.383 170.799C179.562 171.257 179.65 171.745 179.65 172.264C179.65 172.782 179.562 173.27 179.383 173.728C179.203 174.186 178.959 174.584 178.651 174.921C178.344 175.258 177.981 175.528 177.568 175.726C177.155 175.923 176.715 176.023 176.245 176.023C175.775 176.023 175.334 175.923 174.921 175.726C174.508 175.528 174.148 175.261 173.843 174.921C173.537 174.584 173.295 174.186 173.116 173.728C172.936 173.27 172.848 172.782 172.848 172.264C172.848 171.745 172.936 171.257 173.116 170.799C173.295 170.341 173.537 169.943 173.843 169.606C174.148 169.269 174.506 168.999 174.921 168.802C175.334 168.604 175.775 168.504 176.245 168.504ZM176.249 174.291C176.502 174.291 176.74 174.238 176.963 174.133C177.187 174.028 177.381 173.882 177.547 173.698C177.714 173.514 177.844 173.298 177.941 173.052C178.036 172.805 178.084 172.543 178.084 172.264C178.084 171.985 178.036 171.722 177.941 171.475C177.846 171.229 177.714 171.015 177.547 170.831C177.381 170.648 177.185 170.501 176.963 170.397C176.74 170.29 176.504 170.238 176.249 170.238C175.994 170.238 175.758 170.292 175.535 170.397C175.311 170.503 175.117 170.648 174.951 170.831C174.784 171.015 174.654 171.231 174.557 171.475C174.462 171.722 174.414 171.985 174.414 172.264C174.414 172.543 174.462 172.805 174.557 173.052C174.652 173.298 174.784 173.512 174.951 173.698C175.117 173.882 175.313 174.028 175.535 174.133C175.758 174.24 175.994 174.291 176.249 174.291Z" fill="white"/>
<path d="M170.043 178.566C169.959 178.515 169.9 178.473 169.868 178.436C169.818 178.38 169.792 178.313 169.792 178.234C169.792 178.155 169.818 178.085 169.868 178.029C169.919 177.973 169.98 177.945 170.052 177.945C170.123 177.945 170.182 177.971 170.231 178.024C170.277 178.076 170.298 178.134 170.298 178.199V178.206L170.212 178.243C170.205 178.18 170.186 178.136 170.159 178.103C170.132 178.073 170.096 178.057 170.049 178.057C170.003 178.057 169.967 178.073 169.936 178.108C169.904 178.143 169.887 178.185 169.887 178.234C169.887 178.282 169.902 178.324 169.936 178.359C169.955 178.38 169.993 178.41 170.052 178.452C170.146 178.508 170.212 178.559 170.252 178.603C170.315 178.673 170.344 178.757 170.344 178.852C170.344 178.947 170.313 179.036 170.252 179.106C170.189 179.175 170.113 179.21 170.024 179.21C169.936 179.21 169.86 179.175 169.797 179.106C169.733 179.036 169.704 178.959 169.704 178.878L169.803 178.85C169.803 178.922 169.824 178.98 169.868 179.029C169.912 179.078 169.965 179.101 170.026 179.101C170.087 179.101 170.14 179.078 170.184 179.029C170.229 178.98 170.25 178.922 170.25 178.854C170.25 178.787 170.229 178.729 170.184 178.682C170.161 178.657 170.113 178.617 170.041 178.568L170.043 178.566Z" fill="white"/>
<path d="M170.629 177.232H170.728V178.049C170.812 177.96 170.913 177.914 171.029 177.914C171.158 177.914 171.261 177.958 171.341 178.046C171.421 178.135 171.463 178.246 171.465 178.381V179.181H171.366V178.39C171.366 178.288 171.333 178.202 171.267 178.13C171.2 178.058 171.122 178.023 171.031 178.023C170.941 178.023 170.861 178.058 170.795 178.13C170.766 178.162 170.745 178.195 170.73 178.232V179.183H170.631V177.232H170.629Z" fill="white"/>
<path d="M172.966 179.181H172.867V178.937C172.848 178.965 172.827 178.993 172.804 179.019C172.686 179.149 172.542 179.214 172.374 179.214C172.205 179.214 172.064 179.149 171.946 179.019C171.828 178.888 171.769 178.73 171.769 178.547C171.769 178.363 171.828 178.202 171.946 178.072C172.064 177.942 172.207 177.877 172.374 177.877C172.54 177.877 172.684 177.942 172.804 178.072C172.827 178.098 172.848 178.126 172.867 178.154V177.984H172.966V179.181ZM172.867 178.654V178.437C172.848 178.33 172.802 178.235 172.73 178.154C172.633 178.044 172.515 177.991 172.376 177.991C172.237 177.991 172.119 178.044 172.022 178.154C171.925 178.261 171.874 178.393 171.874 178.544C171.874 178.695 171.923 178.828 172.022 178.935C172.119 179.042 172.237 179.095 172.376 179.095C172.515 179.095 172.633 179.042 172.73 178.933C172.804 178.851 172.85 178.758 172.867 178.651V178.654Z" fill="white"/>
<path d="M173.297 177.985H173.396V178.203C173.417 178.171 173.44 178.141 173.467 178.11C173.556 178.013 173.644 177.964 173.737 177.957V178.076C173.674 178.078 173.611 178.117 173.543 178.192C173.448 178.294 173.4 178.42 173.396 178.564V179.182H173.297V177.985Z" fill="white"/>
<path d="M174.121 177.591C174.14 177.612 174.15 177.638 174.15 177.668C174.15 177.698 174.14 177.724 174.121 177.747C174.102 177.768 174.079 177.779 174.051 177.779C174.024 177.779 174.001 177.768 173.982 177.747C173.963 177.726 173.952 177.7 173.952 177.668C173.952 177.635 173.963 177.612 173.982 177.591C174.001 177.57 174.024 177.559 174.051 177.559C174.079 177.559 174.102 177.57 174.121 177.591ZM174.1 177.984V179.181H174.001V177.984H174.1Z" fill="white"/>
<path d="M174.553 178.252V179.182H174.454V177.984H174.553V178.061C174.643 177.961 174.749 177.912 174.869 177.912C174.997 177.912 175.101 177.956 175.181 178.045C175.261 178.133 175.303 178.245 175.305 178.379V179.179H175.206V178.389C175.206 178.286 175.172 178.2 175.107 178.128C175.039 178.056 174.961 178.021 174.871 178.021C174.78 178.021 174.7 178.056 174.635 178.128C174.599 178.168 174.572 178.21 174.555 178.252H174.553Z" fill="white"/>
<path d="M176.7 178.944C176.681 178.97 176.662 178.995 176.641 179.019C176.523 179.149 176.38 179.214 176.211 179.214C176.042 179.214 175.901 179.149 175.783 179.019C175.665 178.888 175.606 178.73 175.606 178.547C175.606 178.363 175.665 178.202 175.783 178.072C175.901 177.942 176.045 177.877 176.211 177.877C176.377 177.877 176.521 177.942 176.641 178.072C176.664 178.098 176.685 178.126 176.704 178.154V177.984H176.803V178.914C176.803 179.093 176.746 179.246 176.63 179.374C176.512 179.504 176.369 179.57 176.203 179.57C176.036 179.57 175.893 179.504 175.773 179.374C175.747 179.346 175.726 179.318 175.707 179.291L175.813 179.249C175.823 179.263 175.836 179.277 175.849 179.291C175.945 179.398 176.063 179.453 176.203 179.453C176.342 179.453 176.458 179.4 176.557 179.291C176.645 179.193 176.694 179.077 176.702 178.942L176.7 178.944ZM176.702 178.433C176.683 178.328 176.637 178.235 176.565 178.156C176.468 178.047 176.35 177.993 176.211 177.993C176.072 177.993 175.954 178.047 175.857 178.156C175.76 178.263 175.709 178.395 175.709 178.547C175.709 178.698 175.758 178.83 175.857 178.937C175.954 179.044 176.072 179.1 176.211 179.1C176.35 179.1 176.468 179.046 176.565 178.937C176.637 178.858 176.681 178.767 176.702 178.663V178.43V178.433Z" fill="white"/>
<path d="M188.19 188.167C188.19 188.167 181.353 187.089 180.139 186.606C178.926 186.122 166.801 187.461 166.397 187.385C165.993 187.31 164.579 187.087 164.443 188.165C164.307 189.243 164.343 190.73 164.948 190.767C165.554 190.805 178.083 191.697 179.533 191.176C180.98 190.655 180.98 190.566 182.8 190.388C184.618 190.211 188.32 190.726 188.673 190.574C189.026 190.422 189.432 189.376 189.203 188.819C188.975 188.262 188.188 188.169 188.188 188.169L188.19 188.167Z" fill="#1E1E1D"/>
<path d="M165.599 187.366C165.599 187.366 165.143 185.465 165.395 185.241C165.647 185.018 165.925 185.214 166.354 184.6C166.784 183.986 167.159 182.252 167.469 180.977C167.779 179.702 167.823 179.67 167.823 179.67L170.017 180.414C170.017 180.414 168.02 183.737 167.668 184.963C167.315 186.189 167.469 187.222 167.469 187.222L167.482 187.37H165.599V187.366Z" fill="#1E1E1D"/>
<path d="M209.276 150.267L219.132 166.124C219.132 166.124 222.371 171.878 223.4 172.209C223.985 172.397 229.188 168.353 230.525 167.27C232.635 165.56 231.518 164.316 227.249 158.257C223.579 153.047 218.264 146.711 216.845 145.033C216.622 144.768 216.283 144.67 215.97 144.772C214.746 145.181 211.688 146.316 210.727 147.775C209.514 149.615 209.278 150.265 209.278 150.265L209.276 150.267Z" fill="#99DB26"/>
<path d="M233.791 208C241.57 208 247.877 201.041 247.877 192.458C247.877 183.874 241.57 176.916 233.791 176.916C226.011 176.916 219.705 183.874 219.705 192.458C219.705 201.041 226.011 208 233.791 208Z" fill="#393A38"/>
<path d="M233.79 202.273C238.478 202.273 242.278 197.879 242.278 192.459C242.278 187.039 238.478 182.645 233.79 182.645C229.103 182.645 225.303 187.039 225.303 192.459C225.303 197.879 229.103 202.273 233.79 202.273Z" fill="black"/>
<path d="M232.815 193.063L235.492 191.223L237.69 181.273C237.69 181.273 238.044 179.768 238.624 179.014C239.203 178.26 239.583 177.942 239.812 178.617C239.812 178.617 239.912 178.019 238.928 177.593C237.953 177.17 232.663 174.945 228.823 175.642C224.983 176.339 232.815 193.063 232.815 193.063Z" fill="#81BB27"/>
<path d="M224.11 176.52L225.882 180.471L226.644 180.023L224.647 175.391L223.367 172.264L222.709 173.371L224.11 176.52Z" fill="#B7C4B7"/>
<path d="M232.583 192.983L227.703 179.958C227.641 179.793 227.478 179.702 227.318 179.745C226.873 179.87 225.991 180.148 225.415 180.539C225.209 180.679 225.041 180.833 224.948 180.999C224.617 181.585 229.382 189.206 232.012 193.33C232.237 193.684 232.731 193.382 232.583 192.983Z" fill="#1E1E1D"/>
<path d="M197.228 144.217C197.18 144.275 197.078 144.217 197.076 144.452C197.074 144.687 196.999 144.867 196.851 144.745C196.702 144.622 196.575 144.314 196.63 144.233C196.679 144.162 197.225 144.211 197.228 144.219V144.217Z" fill="#D5C4BB"/>
<path d="M198.468 144.334C198.452 144.322 198.45 144.298 198.461 144.283C198.49 144.243 198.534 144.16 198.56 144.156C198.602 144.152 198.794 144.346 198.801 144.375C198.801 144.375 198.812 144.472 198.676 144.502L198.468 144.334Z" fill="#B7C4B7"/>
<path d="M199.572 144.978C199.572 144.978 199.667 144.775 199.721 144.842C199.774 144.909 199.916 145.079 199.907 145.142C199.898 145.205 199.893 145.262 199.839 145.254C199.785 145.246 199.574 144.98 199.574 144.98L199.572 144.978Z" fill="#B7C4B7"/>
<path d="M199.792 144.654C199.792 144.654 199.891 144.441 199.946 144.51C200.002 144.579 200.184 144.792 200.175 144.857C200.166 144.923 200.127 144.95 200.07 144.942C200.012 144.934 199.792 144.654 199.792 144.654Z" fill="#B7C4B7"/>
<path d="M203.196 127.943C203.196 127.943 203.736 128.072 203.634 128.806C203.532 129.541 202.679 130.853 202.301 131.033C201.924 131.213 201.546 130.958 201.546 130.958L203.198 127.943H203.196Z" fill="black"/>
<path d="M202.811 129.747C203.286 128.915 203.497 128.119 203.282 127.97C203.067 127.82 202.508 128.374 202.033 129.206C201.558 130.038 201.347 130.834 201.562 130.983C201.777 131.133 202.336 130.579 202.811 129.747Z" fill="white"/>
<path d="M202.773 130.563L203.598 135.073L203.811 136.522H204.107L202.965 130.293L202.773 130.563Z" fill="black"/>
<path d="M194.779 134.996C194.779 134.996 197.901 137.759 197.919 137.82C197.937 137.881 197.919 139.715 197.919 139.715H198.343V137.759L196.903 136.434L194.482 134.416L194.344 134.641L194.779 134.998V134.996Z" fill="black"/>
<path d="M193.19 135.393C194.169 135.393 194.963 134.485 194.963 133.366C194.963 132.246 194.169 131.338 193.19 131.338C192.21 131.338 191.416 132.246 191.416 133.366C191.416 134.485 192.21 135.393 193.19 135.393Z" fill="black"/>
<path d="M220.132 151.56C219.88 151.765 219.825 152.16 220.013 152.438C220.2 152.717 221.097 153.003 221.097 153.003C221.097 153.003 221.117 151.972 220.929 151.692C220.741 151.412 220.385 151.352 220.132 151.558V151.56ZM220.592 152.249C220.501 152.324 220.372 152.302 220.304 152.199C220.236 152.097 220.256 151.957 220.347 151.882C220.438 151.806 220.567 151.828 220.635 151.931C220.703 152.034 220.684 152.174 220.592 152.249Z" fill="white"/>
<path d="M220.483 159.005L219.388 157.364C219.358 157.337 219.332 157.303 219.297 157.283C219.256 157.26 219.209 157.25 219.162 157.254C219.111 157.258 219.06 157.269 219.012 157.287C218.998 157.293 218.984 157.299 218.969 157.305C218.958 157.313 218.946 157.319 218.935 157.327C218.935 157.327 218.935 157.327 218.933 157.329C218.923 157.337 218.912 157.345 218.901 157.352L217.885 158.18L218.407 158.963L219.023 158.462L219.137 158.634C219.1 158.764 219.043 158.882 218.966 158.987C218.889 159.092 218.801 159.181 218.699 159.25C218.597 159.321 218.486 159.37 218.366 159.4C218.246 159.429 218.121 159.433 217.996 159.412C217.854 159.388 217.726 159.337 217.607 159.256C217.489 159.175 217.391 159.076 217.312 158.959C217.234 158.843 217.178 158.709 217.142 158.561C217.108 158.413 217.101 158.261 217.123 158.105C217.144 157.949 217.191 157.806 217.264 157.678C217.337 157.55 217.427 157.441 217.534 157.356C217.641 157.271 217.76 157.208 217.894 157.169C218.028 157.129 218.164 157.121 218.305 157.145L218.438 156.18C218.175 156.136 217.921 156.148 217.675 156.219C217.43 156.29 217.207 156.407 217.01 156.567C216.813 156.727 216.645 156.928 216.511 157.165C216.376 157.404 216.289 157.666 216.249 157.957C216.21 158.247 216.223 158.525 216.289 158.796C216.355 159.066 216.46 159.311 216.607 159.53C216.754 159.749 216.933 159.933 217.148 160.081C217.361 160.229 217.599 160.326 217.862 160.369C218.125 160.413 218.379 160.401 218.624 160.33C218.869 160.259 219.091 160.142 219.29 159.982C219.37 159.917 219.447 159.842 219.52 159.761C219.594 159.68 219.658 159.593 219.717 159.498L219.773 159.581L220.485 159.003L220.483 159.005Z" fill="white"/>
<path d="M219.873 154.246C220.086 154.075 220.315 153.956 220.562 153.895C220.809 153.832 221.052 153.822 221.295 153.861C221.537 153.901 221.768 153.992 221.986 154.132C222.204 154.274 222.394 154.462 222.55 154.696C222.705 154.931 222.813 155.186 222.87 155.459C222.927 155.731 222.936 156.001 222.9 156.268C222.863 156.535 222.781 156.789 222.653 157.03C222.526 157.271 222.356 157.478 222.145 157.652C221.934 157.826 221.703 157.942 221.456 158.003C221.209 158.067 220.966 158.076 220.726 158.037C220.487 157.996 220.256 157.905 220.037 157.765C219.819 157.622 219.631 157.435 219.474 157.2C219.316 156.965 219.211 156.712 219.153 156.438C219.096 156.165 219.085 155.897 219.121 155.63C219.157 155.366 219.239 155.111 219.366 154.87C219.493 154.629 219.663 154.422 219.876 154.248L219.873 154.246ZM221.623 156.864C221.737 156.771 221.829 156.659 221.898 156.531C221.966 156.4 222.011 156.264 222.031 156.12C222.05 155.976 222.045 155.83 222.015 155.684C221.984 155.538 221.925 155.401 221.841 155.273C221.757 155.145 221.655 155.046 221.539 154.969C221.421 154.894 221.297 154.845 221.166 154.821C221.036 154.799 220.903 154.805 220.771 154.839C220.639 154.872 220.515 154.935 220.401 155.03C220.286 155.125 220.195 155.235 220.125 155.364C220.057 155.494 220.012 155.63 219.993 155.776C219.973 155.921 219.978 156.067 220.009 156.213C220.039 156.359 220.098 156.495 220.182 156.623C220.266 156.752 220.368 156.852 220.485 156.927C220.603 157.004 220.726 157.052 220.857 157.076C220.988 157.097 221.12 157.091 221.252 157.058C221.385 157.024 221.508 156.961 221.623 156.868V156.864Z" fill="white"/>
<path d="M220.105 161.082C220.052 161.09 220.012 161.092 219.987 161.088C219.948 161.082 219.916 161.06 219.893 161.025C219.869 160.989 219.859 160.948 219.866 160.904C219.871 160.861 219.891 160.826 219.923 160.798C219.955 160.77 219.991 160.76 220.027 160.768C220.063 160.774 220.091 160.792 220.111 160.822H220.113L220.086 160.873C220.064 160.847 220.041 160.833 220.02 160.829C219.998 160.826 219.977 160.831 219.957 160.849C219.937 160.867 219.925 160.887 219.921 160.914C219.918 160.942 219.921 160.966 219.937 160.989C219.953 161.013 219.971 161.025 219.996 161.029C220.011 161.031 220.037 161.031 220.077 161.029C220.136 161.021 220.182 161.019 220.213 161.023C220.263 161.031 220.302 161.058 220.331 161.102C220.36 161.145 220.372 161.197 220.365 161.25C220.358 161.305 220.335 161.349 220.293 161.38C220.252 161.412 220.207 161.426 220.159 161.416C220.109 161.408 220.073 161.384 220.048 161.347L220.084 161.297C220.105 161.329 220.134 161.349 220.168 161.355C220.202 161.361 220.233 161.353 220.261 161.329C220.29 161.305 220.306 161.276 220.311 161.238C220.317 161.201 220.309 161.165 220.288 161.135C220.267 161.106 220.24 161.086 220.206 161.08C220.188 161.076 220.154 161.078 220.107 161.08L220.105 161.082Z" fill="white"/>
<path d="M219.968 160.262L220.013 160.227L220.259 160.596C220.27 160.525 220.302 160.467 220.356 160.424C220.413 160.377 220.474 160.359 220.537 160.369C220.599 160.379 220.653 160.414 220.694 160.475L220.936 160.839L220.891 160.874L220.651 160.517C220.621 160.471 220.58 160.444 220.528 160.436C220.476 160.428 220.429 160.44 220.388 160.473C220.347 160.507 220.322 160.552 220.313 160.608C220.31 160.633 220.31 160.657 220.313 160.679L220.601 161.109L220.556 161.145L219.968 160.262Z" fill="white"/>
<path d="M221.614 160.287L221.569 160.323L221.496 160.212C221.496 160.232 221.496 160.252 221.492 160.271C221.478 160.374 221.433 160.457 221.358 160.518C221.283 160.579 221.199 160.603 221.106 160.587C221.013 160.571 220.938 160.522 220.882 160.439C220.827 160.356 220.805 160.261 220.819 160.159C220.834 160.056 220.879 159.973 220.954 159.912C221.029 159.851 221.115 159.827 221.208 159.843C221.226 159.847 221.244 159.851 221.261 159.857L221.21 159.78L221.254 159.744L221.616 160.285L221.614 160.287ZM221.41 160.086L221.344 159.987C221.303 159.946 221.254 159.92 221.195 159.91C221.118 159.896 221.049 159.916 220.986 159.967C220.923 160.019 220.886 160.086 220.875 160.171C220.862 160.255 220.88 160.332 220.927 160.402C220.973 160.471 221.034 160.512 221.111 160.524C221.188 160.536 221.258 160.518 221.321 160.467C221.383 160.415 221.421 160.348 221.431 160.263C221.44 160.2 221.431 160.141 221.408 160.086H221.41Z" fill="white"/>
<path d="M221.403 159.623L221.447 159.587L221.514 159.686C221.514 159.664 221.514 159.641 221.517 159.617C221.528 159.542 221.553 159.485 221.592 159.449L221.628 159.503C221.601 159.526 221.583 159.568 221.574 159.627C221.564 159.708 221.578 159.783 221.621 159.85L221.807 160.13L221.762 160.166L221.401 159.625L221.403 159.623Z" fill="white"/>
<path d="M221.655 159.141C221.669 159.143 221.682 159.151 221.691 159.165C221.7 159.179 221.703 159.194 221.702 159.21C221.7 159.226 221.691 159.24 221.68 159.25C221.669 159.26 221.653 159.264 221.639 159.262C221.623 159.26 221.612 159.252 221.601 159.238C221.591 159.224 221.589 159.208 221.591 159.192C221.592 159.177 221.601 159.163 221.612 159.153C221.623 159.143 221.639 159.139 221.653 159.141H221.655ZM221.764 159.327L222.126 159.868L222.081 159.903L221.72 159.362L221.764 159.327Z" fill="white"/>
<path d="M222.051 159.281L222.331 159.702L222.287 159.738L221.925 159.197L221.97 159.161L221.993 159.197C222.004 159.118 222.036 159.056 222.092 159.013C222.149 158.966 222.21 158.948 222.272 158.958C222.335 158.968 222.387 159.003 222.43 159.064L222.671 159.428L222.627 159.463L222.387 159.106C222.357 159.06 222.315 159.033 222.263 159.025C222.212 159.017 222.165 159.029 222.124 159.062C222.083 159.096 222.058 159.141 222.049 159.197C222.045 159.228 222.045 159.256 222.049 159.281H222.051Z" fill="white"/>
<path d="M223.231 158.806C223.231 158.824 223.23 158.843 223.228 158.861C223.214 158.964 223.169 159.047 223.094 159.108C223.019 159.169 222.934 159.193 222.841 159.177C222.748 159.161 222.673 159.112 222.618 159.029C222.562 158.946 222.541 158.851 222.555 158.749C222.569 158.646 222.614 158.565 222.689 158.502C222.764 158.439 222.85 158.417 222.942 158.433C222.959 158.437 222.977 158.441 222.995 158.447L222.943 158.37L222.988 158.334L223.269 158.755C223.323 158.835 223.344 158.926 223.33 159.027C223.316 159.13 223.271 159.213 223.196 159.274C223.121 159.335 223.035 159.359 222.942 159.343C222.922 159.339 222.904 159.335 222.886 159.329L222.92 159.272C222.929 159.274 222.94 159.276 222.949 159.278C223.026 159.292 223.095 159.272 223.158 159.22C223.221 159.169 223.257 159.102 223.269 159.017C223.28 158.94 223.267 158.869 223.23 158.806H223.231ZM223.078 158.573C223.036 158.533 222.988 158.508 222.933 158.498C222.856 158.484 222.786 158.504 222.723 158.555C222.661 158.606 222.623 158.674 222.612 158.758C222.6 158.843 222.618 158.92 222.664 158.989C222.711 159.059 222.772 159.1 222.849 159.112C222.925 159.126 222.995 159.106 223.058 159.055C223.121 159.003 223.158 158.936 223.169 158.851C223.178 158.79 223.169 158.731 223.147 158.678L223.078 158.573Z" fill="white"/>
<path d="M199.138 135.173C199.138 135.173 201.585 136.466 201.56 137.011C201.535 137.556 200.082 138.518 199.447 138.776C198.694 139.082 198.225 138.962 198.169 139.268C198.148 139.386 198.187 139.44 198.189 139.522C198.193 139.637 198.28 139.724 198.382 139.714C198.738 139.678 199.508 139.359 199.771 139.234C200.064 139.096 201.675 138.138 201.925 137.319C202.133 136.644 201.797 136.31 200.889 135.412C199.982 134.514 199.749 134.152 199.749 134.152L199.139 135.173H199.138Z" fill="black"/>
<path d="M198.823 131.822H200.496C200.768 131.822 200.941 132.136 200.807 132.393L198.67 136.505C198.581 136.677 198.384 136.748 198.216 136.669L196.929 136.067C196.738 135.978 196.659 135.731 196.758 135.534L198.508 132.024C198.57 131.899 198.69 131.82 198.823 131.82V131.822Z" fill="#99DB26"/>
<path d="M199.105 131.895H200.503C200.837 131.895 201.048 132.291 200.886 132.613L198.944 136.455C198.835 136.672 198.593 136.763 198.386 136.663L197.316 136.149C197.081 136.037 196.983 135.727 197.105 135.478L198.719 132.151C198.796 131.993 198.944 131.897 199.105 131.897V131.895Z" fill="black"/>
<path d="M200.342 138.727C200.342 138.727 200.828 136.597 201.848 135.634C202.868 134.67 203.793 134.141 204.271 134.881L204.734 136.135C204.734 136.135 202.508 137.511 201.943 137.914C201.378 138.317 200.39 138.86 200.39 138.86L200.342 138.727Z" fill="#1E1E1E"/>
<path d="M204.454 136.189L203.988 134.929C203.97 134.878 203.924 134.848 203.874 134.854C203.679 134.878 203.197 134.973 202.979 135.35C202.961 135.381 202.959 135.425 202.972 135.46L203.459 136.779C203.484 136.846 203.557 136.876 203.614 136.838L204.403 136.339C204.452 136.309 204.471 136.244 204.45 136.189H204.454Z" fill="white"/>
<path d="M205.594 135.639C205.594 135.639 207.102 134.529 207.322 134.533C207.542 134.537 208.109 134.662 207.848 135.236L206.359 136.735L204.91 137.949L204.62 136.74L204.733 136.115L205.594 135.637V135.639Z" fill="black"/>
<ellipse opacity="0.7" cx="168.299" cy="202.795" rx="12.2425" ry="0.98468" fill="url(#paint0_radial_16546_58381)"/>
<ellipse opacity="0.7" cx="235.054" cy="208.067" rx="12.2425" ry="0.98468" fill="url(#paint1_radial_16546_58381)"/>
</g>
<rect x="93.5" y="79.5" width="33" height="33" rx="7.5" fill="white"/>
<rect x="93.5" y="79.5" width="33" height="33" rx="7.5" stroke="#3DBCC8"/>
<path d="M118.55 92.2204C119.05 93.5001 119.1 94.889 118.87 96.2382L117.8 100.738C117.618 101.506 117.001 102.094 116.225 102.241L104.262 104.498C103.218 104.695 102.202 104.041 101.949 103.009L101.04 99.3037C100.99 99.0954 100.99 98.8771 101.04 98.6589L102.38 92.7958C102.45 92.4585 102.55 92.1311 102.69 91.8235C104 88.9763 106.87 86.9922 110.54 86.9922C114.21 86.9922 117.34 89.1648 118.55 92.2204Z" stroke="#3DBCC8" stroke-width="1.5"/>
<path d="M101.7 100.564L113.08 98.1929C114.14 98.0044 114.92 97.1017 114.94 96.0302C114.96 94.9092 114.14 93.937 113.02 93.7683L103.5 92.3398L102.4 92.2207" stroke="#3DBCC8" stroke-width="1.5"/>
<path d="M109.19 98.6982L110.04 93.2617" stroke="#3DBCC8" stroke-width="1.5"/>
<defs>
<radialGradient id="paint0_radial_16546_58381" cx="0" cy="0" r="1" gradientUnits="userSpaceOnUse" gradientTransform="translate(168.299 202.795) rotate(90) scale(0.98468 12.2425)">
<stop/>
<stop offset="1" stop-color="#D9D9D9" stop-opacity="0"/>
</radialGradient>
<radialGradient id="paint1_radial_16546_58381" cx="0" cy="0" r="1" gradientUnits="userSpaceOnUse" gradientTransform="translate(235.054 208.067) rotate(90) scale(0.98468 12.2425)">
<stop/>
<stop offset="1" stop-color="#D9D9D9" stop-opacity="0"/>
</radialGradient>
<clipPath id="clip0_16546_58381">
<rect width="106.101" height="101" fill="white" transform="translate(141.773 107)"/>
</clipPath>
</defs>
</svg>
