<svg width="24" height="24" viewBox="0 0 24 24" fill="none" xmlns="http://www.w3.org/2000/svg">
<path d="M14.7545 4.75977L11.707 4.75977" stroke="#15B1FF" stroke-width="1.52379" stroke-linecap="round" stroke-linejoin="round"/>
<path d="M5.99286 15.0466H1.7393C1.63411 15.0466 1.54883 14.9613 1.54883 14.8561V12.3801H6.37378L9.04028 16.5703C8.32088 15.6111 7.19185 15.0466 5.99286 15.0466Z" fill="#15B1FF"/>
<path d="M9.04028 16.5703V16.5703C8.32088 15.6111 7.19185 15.0466 5.99285 15.0466H1.7393C1.63411 15.0466 1.54883 14.9613 1.54883 14.8561V12.3801H6.37378L9.04028 16.5703ZM9.04028 16.5703H13.6114C15.643 15.1736 18.8682 11.0088 15.5161 5.52344M15.1351 17.3322C15.3725 15.433 16.8306 11.9581 20.754 12.2601C21.0275 12.2811 21.313 12.3205 21.6109 12.3801" stroke="#15B1FF" stroke-width="1.52379" stroke-linecap="round" stroke-linejoin="round"/>
<path d="M22.374 16.9517C22.374 18.214 21.3507 19.2372 20.0884 19.2372C18.8262 19.2372 17.8029 18.214 17.8029 16.9517C17.8029 15.6895 18.8262 14.6662 20.0884 14.6662C21.3507 14.6662 22.374 15.6895 22.374 16.9517Z" stroke="#003E67" stroke-width="1.52379"/>
<path d="M6.37399 16.9498C6.37399 17.2499 6.31487 17.5471 6.20001 17.8244C6.08515 18.1017 5.9168 18.3536 5.70457 18.5659C5.49234 18.7781 5.24038 18.9464 4.96309 19.0613C4.68579 19.1762 4.38859 19.2353 4.08845 19.2353C3.78831 19.2353 3.4911 19.1762 3.21381 19.0613C2.93651 18.9464 2.68456 18.7781 2.47233 18.5659C2.2601 18.3536 2.09174 18.1017 1.97689 17.8244C1.86203 17.5471 1.80291 17.2499 1.80291 16.9498" stroke="#003E67" stroke-width="1.52379" stroke-linecap="round" stroke-linejoin="round"/>
<path d="M16.2778 5.52371H14.754C14.3333 5.52371 13.9922 5.18261 13.9922 4.76185C13.9922 4.34109 14.3333 4 14.754 4H16.2778V5.52371Z" stroke="#003E67" stroke-width="1.52379" stroke-linecap="round" stroke-linejoin="round"/>
<path d="M0.851388 11.6178L7.13672 11.6183C7.13672 11.2326 6.82405 10.9199 6.43835 10.9199L1.54926 10.92C1.16383 10.92 0.851388 11.2324 0.851388 11.6178Z" fill="#003E67" stroke="#003E67" stroke-width="1.52379" stroke-linecap="round" stroke-linejoin="round"/>
</svg>
