<svg width="343" height="233" viewBox="0 0 343 233" fill="none" xmlns="http://www.w3.org/2000/svg">
<path d="M171.043 204.3C259.445 204.3 331.109 197.793 331.109 189.765C331.109 181.738 259.445 175.23 171.043 175.23C82.6404 175.23 10.9761 181.738 10.9761 189.765C10.9761 197.793 82.6404 204.3 171.043 204.3Z" fill="#F3F3F3"/>
<path d="M130.779 187.758H78.259V189.892H130.779V187.758Z" fill="#F2F2F2"/>
<path d="M223.043 187.758H170.523V189.892H223.043V187.758Z" fill="#F2F2F2"/>
<path d="M259.794 120.664L258.149 110.328C257.944 108.811 257.224 107.463 256.197 106.396C256.042 106.227 255.837 106.059 255.683 105.89C253.987 104.542 251.777 104.149 249.773 104.935C249.156 105.16 248.591 105.609 248.077 106.115C247.049 107.238 246.69 108.643 247.306 110.552C245.148 108.867 242.99 108.362 240.78 108.755C240.471 108.755 240.215 108.867 239.906 109.092C238.776 109.766 238.108 111.17 238.005 112.519C237.953 114.035 238.364 114.822 239.187 115.889C240.677 117.462 242.219 118.585 243.915 118.248C242.99 118.979 242.527 119.99 242.373 121.169C242.27 122.124 242.527 123.079 243.144 123.753C243.709 124.315 244.377 124.708 245.097 124.821C250.544 125.888 255.374 124.146 259.897 120.945L259.794 120.664Z" fill="#AFC681"/>
<path d="M258.937 98.1944L258.783 92.6333C258.783 91.8468 258.475 91.0604 258.064 90.4425C258.012 90.3301 257.909 90.274 257.858 90.1054C257.087 89.2628 255.905 88.8696 254.826 89.1505C254.466 89.2066 254.158 89.3752 253.85 89.5999C253.233 90.1054 252.925 90.8357 253.182 91.8468C252.154 90.7795 251.075 90.3301 249.893 90.3301C249.739 90.3301 249.584 90.3301 249.43 90.3863C248.814 90.611 248.351 91.3412 248.248 92.0153C248.145 92.7455 248.248 93.2511 248.659 93.869C249.327 94.824 250.047 95.4981 250.92 95.4981C250.407 95.8351 250.047 96.2845 249.893 96.9024C249.79 97.408 249.841 97.9135 250.201 98.3068C250.407 98.6438 250.766 98.8685 251.177 99.037C253.952 100.048 256.573 99.5426 259.143 98.2506L258.937 98.1944Z" fill="#AFC681"/>
<path d="M263.171 72.6922C263.171 72.7483 263.171 72.8045 263.171 72.8607C262.503 76.0064 259.265 132.461 265.791 163.075C265.791 163.131 265.791 163.188 265.791 163.244L267.847 176.388H261.115C261.68 176.613 260.139 133.753 259.111 105.891C258.134 80.6688 259.625 74.3774 260.19 67.6927C260.601 63.0865 263.428 51.4586 262.246 52.245L263.839 56.2333L263.171 72.6922Z" fill="#937F6F"/>
<path d="M263.027 76.9053L271.918 81.5676C273.202 82.2417 274.641 82.4103 276.08 82.1294C276.286 82.0732 276.543 82.0171 276.748 81.9609C278.804 81.2868 280.448 79.433 280.962 77.1299C281.116 76.3997 281.168 75.6133 281.065 74.883C280.859 73.254 279.934 72.0744 278.187 71.5126C280.757 70.5577 282.401 68.8163 283.48 66.6255C283.634 66.4008 283.686 66.0076 283.789 65.6706C283.943 64.2662 283.326 62.8057 282.247 61.9631C281.168 61.0082 280.243 60.8958 278.958 61.0082C276.902 61.4576 275.155 62.1878 274.333 63.9292C274.333 62.6934 273.87 61.6261 273.048 60.7835C272.432 60.1094 271.455 59.7724 270.582 59.9971H270.53C269.811 60.1656 269.04 60.5588 268.526 61.1205C264.466 65.4459 262.873 70.8947 262.616 76.9053H263.027Z" fill="#AFC681"/>
<path d="M267.706 56.4571C275.653 56.4571 282.095 49.4152 282.095 40.7286C282.095 32.0419 275.653 25 267.706 25C259.759 25 253.317 32.0419 253.317 40.7286C253.317 49.4152 259.759 56.4571 267.706 56.4571Z" fill="#A9D661"/>
<path d="M260.793 53.7057L269.17 52.7508C270.352 52.6384 271.534 52.0767 272.407 51.1218C272.561 51.0094 272.716 50.7847 272.818 50.6162C274.052 49.0995 274.463 46.9649 273.949 44.9988C273.795 44.3809 273.486 43.8192 273.178 43.3136C272.407 42.2463 271.174 41.7969 269.684 42.2463C271.174 40.3364 271.688 38.258 271.585 36.0673C271.585 35.8426 271.534 35.5055 271.431 35.2808C270.968 34.1574 269.94 33.4271 268.81 33.3148C267.628 33.2024 266.908 33.4833 266.086 34.2697C264.802 35.5617 263.774 36.966 263.928 38.5951C263.414 37.7525 262.643 37.1907 261.718 36.9099C260.999 36.7413 260.176 36.966 259.611 37.5278C259.097 38.0333 258.738 38.6513 258.635 39.3253C257.453 44.4933 258.532 49.1557 260.742 53.7057H260.793Z" fill="#DEF2AF"/>
<path d="M261.183 93.7005C261.183 93.7005 256.712 74.6577 252.087 71.512C247.462 68.4224 250.648 71.3435 250.648 71.3435C250.648 71.3435 256.61 79.3201 257.997 87.0159C259.436 94.5993 261.183 93.7005 261.183 93.7005Z" fill="#937F6F"/>
<path d="M260.61 132.966C260.61 132.966 262.615 120.271 270.272 114.71C277.929 109.093 272.892 113.362 272.892 113.362C272.892 113.362 264.31 122.35 264.362 127.124C264.413 131.787 260.61 132.966 260.61 132.966Z" fill="#937F6F"/>
<path d="M245.639 81.6804C252.678 81.6804 258.384 75.4433 258.384 67.7494C258.384 60.0555 252.678 53.8184 245.639 53.8184C238.601 53.8184 232.895 60.0555 232.895 67.7494C232.895 75.4433 238.601 81.6804 245.639 81.6804Z" fill="#A9D661"/>
<path d="M253.165 78.142L255.169 70.3339C255.478 69.2104 255.375 67.9746 255.015 66.9073C254.964 66.7388 254.913 66.5141 254.81 66.4017C254.09 64.7727 252.6 63.7054 251.007 63.593C250.493 63.5369 249.979 63.5931 249.465 63.7616C248.386 64.1548 247.718 65.0536 247.512 66.5703C246.536 64.6604 245.2 63.4807 243.555 62.919C243.35 62.8628 243.093 62.8066 242.887 62.8066C241.86 62.8628 240.986 63.5369 240.575 64.548C240.061 65.5591 240.112 66.2894 240.421 67.3005C240.986 68.9295 241.705 70.2215 242.99 70.6709C242.117 70.8394 241.5 71.345 240.986 72.1876C240.575 72.8055 240.523 73.5919 240.78 74.3222C240.986 74.8839 241.346 75.4457 241.808 75.8389C245.303 78.5914 249.157 79.1531 253.319 78.5914V78.142H253.165Z" fill="#DEF2AF"/>
<path d="M277.952 118.135C286.069 118.135 292.649 110.942 292.649 102.07C292.649 93.1967 286.069 86.0039 277.952 86.0039C269.834 86.0039 263.254 93.1967 263.254 102.07C263.254 110.942 269.834 118.135 277.952 118.135Z" fill="#A9D661"/>
<path d="M268.359 113.248L276.889 114.428C278.123 114.596 279.408 114.371 280.487 113.641C280.641 113.529 280.846 113.416 281.001 113.248C282.542 112.068 283.467 110.102 283.262 107.968C283.21 107.294 283.108 106.676 282.799 106.114C282.234 104.822 281.155 104.148 279.562 104.204C281.463 102.631 282.388 100.721 282.748 98.5867C282.799 98.362 282.799 98.025 282.748 97.7441C282.542 96.5083 281.669 95.4972 280.538 95.1601C279.408 94.7107 278.637 94.823 277.66 95.3848C276.067 96.3397 274.834 97.5194 274.577 99.2046C274.217 98.1935 273.601 97.4632 272.676 96.9576C272.007 96.5644 271.134 96.6206 270.466 97.0138C269.901 97.407 269.387 97.8564 269.078 98.5867C266.817 103.361 266.869 108.361 268.153 113.36L268.359 113.248Z" fill="#DEF2AF"/>
<path d="M269.203 161.781H233.898V191.722H269.203V161.781Z" fill="#65C7CF"/>
<path d="M245.718 156.164L276.038 156.333L269.152 161.781H233.898L245.718 156.164Z" fill="#4FBCBF"/>
<path d="M276.067 156.332V186.553L269.181 191.721V161.781L276.067 156.332Z" fill="#47B2B2"/>
<path d="M215.771 154.311L211.351 179.926C210.94 182.285 212.584 184.476 214.794 184.532L230.93 184.7C233.192 184.7 234.887 182.453 234.425 180.038L229.646 154.367H215.771V154.311Z" fill="#6B5353"/>
<path d="M217.761 162.176C217.761 162.176 218.737 147.571 218.891 146.447C219.045 145.324 222.591 141.335 222.9 141.448C224.082 141.897 224.493 142.459 225.264 143.301C226.291 144.425 226.959 145.829 227.011 147.346L227.473 162.4L225.983 162.288C225.932 156.165 225.88 150.042 225.469 146.672C224.904 145.211 224.493 143.47 222.951 143.133C221.718 144.256 220.125 146.222 219.816 147.908C219.457 151.39 219.148 156.952 218.891 162.344L217.761 162.176Z" fill="#6B5353"/>
<path d="M227.79 159.087L222.754 188.466C222.292 191.219 224.193 193.746 226.711 193.746L245.211 193.915C247.781 193.915 249.785 191.331 249.22 188.578L243.721 159.031H227.79V159.087Z" fill="#896A6A"/>
<path d="M230.069 168.188C230.069 168.188 231.2 151.448 231.405 150.156C231.611 148.864 235.671 144.258 236.031 144.426C237.367 144.988 237.881 145.606 238.754 146.561C239.936 147.853 240.707 149.426 240.758 151.167L241.272 168.469L239.576 168.356C239.525 161.335 239.474 154.313 238.96 150.437C238.343 148.808 237.829 146.729 236.082 146.392C234.694 147.684 232.844 149.931 232.485 151.897C232.074 155.886 231.714 162.29 231.405 168.525L230.069 168.188Z" fill="#755959"/>
<path d="M275.338 189.363L284.485 192.453C285.822 192.902 287.209 192.846 288.545 192.341C288.751 192.284 288.956 192.172 289.162 192.06C291.063 191.049 292.348 189.026 292.605 186.723C292.708 185.993 292.605 185.263 292.399 184.533C291.937 183.016 290.961 182.061 289.162 181.724C291.526 180.376 292.913 178.522 293.633 176.163C293.787 175.882 293.787 175.545 293.787 175.208C293.736 173.803 292.965 172.511 291.834 171.837C290.652 171.107 289.83 171.107 288.545 171.444C286.592 172.174 284.999 173.185 284.485 174.983C284.28 173.747 283.715 172.848 282.79 172.174C282.07 171.613 281.145 171.444 280.323 171.781C279.603 172.062 278.987 172.568 278.576 173.185C275.235 178.016 274.465 183.521 274.978 189.307L275.338 189.363Z" fill="#AFC681"/>
<path d="M246.58 194.739L249.201 190.358C249.561 189.74 249.767 189.01 249.715 188.223C249.715 188.111 249.664 187.999 249.664 187.83C249.458 186.707 248.79 185.752 247.814 185.302C247.505 185.134 247.146 185.134 246.837 185.078C246.118 185.078 245.553 185.471 245.193 186.37C244.936 184.965 244.319 183.954 243.394 183.28C243.291 183.168 243.137 183.112 242.983 183.055C242.366 182.887 241.698 183.112 241.236 183.617C240.773 184.123 240.671 184.572 240.619 185.302C240.671 186.426 240.876 187.381 241.596 187.886C241.03 187.83 240.568 187.999 240.157 188.392C239.848 188.673 239.643 189.178 239.643 189.628C239.694 190.021 239.797 190.414 240.003 190.751C241.647 193.167 243.96 194.346 246.58 194.852V194.739Z" fill="#DEF2AF"/>
<path d="M253.779 160.546V158.523C253.779 158.243 253.676 157.962 253.522 157.681C253.47 157.625 253.47 157.625 253.419 157.569C253.162 157.231 252.751 157.063 252.34 157.175C252.237 157.175 252.083 157.288 251.98 157.344C251.774 157.512 251.62 157.793 251.672 158.13C251.312 157.737 250.901 157.569 250.49 157.569C250.438 157.569 250.387 157.569 250.335 157.569C250.079 157.681 249.924 157.906 249.873 158.13C249.822 158.411 249.873 158.58 249.976 158.804C250.181 159.141 250.438 159.422 250.798 159.422C250.592 159.535 250.49 159.703 250.438 159.928C250.387 160.096 250.387 160.321 250.49 160.433C250.592 160.546 250.695 160.658 250.798 160.714C251.774 161.107 252.751 160.995 253.727 160.546H253.779Z" fill="#DEF2AF"/>
<path d="M88.1272 67.9531L94.2283 68.5915C92.4759 71.6455 91.1132 74.3467 93.1235 76.48L87.2803 75.9122C89.2935 74.4205 89.0327 70.7954 88.1242 67.9531H88.1272Z" fill="#EDBD98"/>
<path d="M94.2286 55.375C94.2286 55.375 96.5641 58.5028 96.0454 60.7035C95.981 61.0596 95.9165 61.3419 95.852 61.5568C95.5912 62.8368 95.5912 62.7663 96.8249 63.4046C97.4755 63.7607 96.8894 64.3991 96.5641 64.6846C96.3707 64.8258 96.2388 65.1113 96.3033 65.323C96.3033 65.6085 96.3678 65.8908 96.3678 65.8908C96.3678 65.9614 96.6286 66.7442 95.9136 66.7442C92.5377 66.8148 95.3304 66.7442 96.107 67.0297C96.107 67.0297 96.4322 67.2414 96.3678 67.3858C96.3033 67.5975 96.0425 67.8124 95.978 68.098C95.9136 68.3835 95.8491 69.2336 95.7172 69.5897C95.5854 69.9458 93.5751 70.5842 92.4059 70.2281C91.4974 70.0163 90.2637 69.6603 89.7451 69.5897C89.5517 69.5897 89.2908 69.0924 89.1619 68.9513C88.9011 68.7396 88.2535 68.5246 87.7348 68.1685C86.6974 67.4564 87.6059 67.1035 87.6703 66.6062C87.7348 66.1796 87.8637 65.3262 87.7348 65.0439C87.6059 64.8322 86.7619 63.6934 86.5656 63.1961C86.3048 62.4134 86.759 61.1366 87.0843 60.7099C87.4095 60.2833 88.1216 59.9977 88.5758 60.4244C88.9656 60.7099 89.3553 60.7099 89.5487 60.3538C89.7421 59.9272 92.0161 56.7994 92.4703 56.5171C92.7311 56.3053 94.2227 55.3814 94.2227 55.3814L94.2286 55.375Z" fill="#EDBD98"/>
<path d="M96.3702 57.2222C96.2413 57.5783 96.1094 57.8606 95.916 58.1462C95.6552 58.6434 95.201 58.9995 94.7468 59.2112C93.2552 59.9234 91.8896 60.5618 90.527 60.4206C89.9439 60.3501 89.4222 60.7061 89.2288 61.3445C89.0354 61.9124 88.7102 62.2684 88.3849 62.6951C87.8017 63.3335 87.6054 64.328 87.9307 65.2519C88.3204 66.4613 88.2623 66.9349 87.8081 68C87.5473 68.3561 86.8903 67.7149 86.4361 67.5C84.4229 66.3644 83.1922 64.9664 82.738 62.1947C82.023 59.7085 82.3482 58.9963 82.8025 57.8606C82.9314 57.5046 83.1922 57.2222 83.3856 56.9367C84.3585 55.8011 85.2025 54.38 86.1109 53.6678C86.8904 53.1 87.6699 52.6733 88.6428 52.3172C90.1343 51.7494 91.7578 51.9611 93.0559 52.8144C94.4831 53.7384 95.7812 55.0183 96.3028 56.0834C96.4962 56.4395 96.4962 56.8662 96.3673 57.219L96.3702 57.2222Z" fill="#42210B"/>
<path d="M96.3399 55.8595C95.2048 51.1974 90.2205 50.605 86.5966 51.1833C81.3674 52.0179 78.7538 57.5146 79.8058 62.5128C80.5866 66.225 86.0148 70.1583 89.6366 67.4476C92.3989 65.3787 87.7885 62.0144 89.665 59.614C91.185 57.6674 93.886 59.4001 95.5635 58.2575C96.4143 57.6792 96.5674 56.7905 96.3399 55.8571V55.8595Z" fill="#00DFF4"/>
<path d="M71.723 133.004C71.723 133.004 71.6839 132.979 71.6683 132.962C71.2932 132.637 66.9246 128.852 65.8774 128.22C64.8302 127.588 63.611 127.434 63.9861 126.323C64.3613 125.212 66.6042 123.649 67.3857 123.358C68.0812 123.102 69.4488 122.529 69.7458 122.41C69.7849 122.393 69.8161 122.376 69.8552 122.359C70.0896 122.222 71.0665 121.649 71.3166 121.666C71.6058 121.692 73.2625 119.761 75.1772 122.76C77.0919 125.759 77.7952 125.981 77.7952 126.477C77.7952 126.947 76.2557 131.586 73.411 133.56C73.1062 133.773 72.7233 133.756 72.4263 133.534L71.7152 133.004H71.723Z" stroke="black" stroke-width="0.91" stroke-miterlimit="10"/>
<path d="M78.4512 134.886C78.4512 134.886 73.3715 136.261 73.9967 132.852C74.6219 129.443 75.3409 125.487 79.2718 125.427C83.2027 125.368 83.6091 127.017 87.9542 128.888C92.2994 130.759 92.8933 131.314 100.747 131.536C108.601 131.759 111.055 131.81 112.4 131.699C113.744 131.588 115.033 138.141 114.213 139.901C113.392 141.661 106.851 140.226 106.476 140.055C106.101 139.884 84.7579 136.039 82.1712 135.27C79.5844 134.501 78.4668 134.886 78.4668 134.886H78.4512Z" fill="#131315"/>
<path d="M63.314 126.768C63.314 126.768 61.3837 127.469 60.2505 126.768C59.1174 126.068 53.303 124 51.7166 124.248C50.1301 124.495 48.575 123.248 48.575 123.248C48.575 123.248 54.9676 124.248 58.2499 124.367C61.54 124.487 63.1265 123.906 63.6501 124.487C64.1737 125.068 64.119 125.222 63.8376 125.845C63.5563 126.469 63.3062 126.768 63.3062 126.768H63.314Z" fill="#1E1E1E"/>
<path d="M108.203 139.046C108.203 139.046 98.7234 164.635 97.1292 164.593C95.5349 164.55 94.9332 171.368 94.7847 172.06C94.6362 172.752 92.4246 176.067 97.7934 177.221C103.162 178.374 128.241 183.415 128.241 183.415C128.241 183.415 133.602 184.569 136.853 183.826C140.104 183.082 142.823 181.595 144.105 181.433C145.387 181.271 150.756 173.914 152.342 171.77C153.929 169.625 169.566 143.6 169.715 142.284C169.863 140.968 167.777 137.722 166.565 134.671C165.354 131.621 156.179 118.472 156.179 118.472L147.575 108.407C147.575 108.407 146.418 107.689 145.41 108.407C144.402 109.125 142.315 111.346 142.167 112.508C142.018 113.67 141.862 117.797 142.018 118.455C142.175 119.113 145.465 126.52 145.465 126.52C145.465 126.52 138.088 125.367 137.931 126.606C137.775 127.845 138.197 133.339 138.338 136.56C138.478 139.781 138.556 140.78 138.338 142.062C138.189 142.908 133.375 164.815 133.375 164.815L114.94 158.082L116.854 137.764L115.674 138.337L108.586 137.696L108.211 139.063L108.203 139.046Z" fill="black"/>
<path d="M152.24 140.892L138.134 117.43C138.134 117.43 135.086 112.38 134.508 113.465C133.929 114.55 134.359 119.412 134.359 119.412C134.359 119.412 140.048 132.074 141.361 134.501C142.674 136.927 143.878 143.754 143.878 143.754L139.65 158.954L141.361 170.412L142.221 170.856L148.418 158.963L155.913 146.454L152.24 140.9V140.892Z" fill="#00DFF4"/>
<path d="M168.097 154.279L165.846 149.11L166.433 148.393L167.8 151.827L168.871 154.279H168.097Z" fill="#B7C4B7"/>
<path d="M135.696 122.384C135.696 122.384 132.632 116.13 131.202 113.857C129.772 111.584 129.287 111.251 127.122 109.671C125.388 108.397 123.285 105.518 122.59 105.142C121.394 104.493 116.908 108.022 116.611 107.851C116.314 107.68 117.393 105.962 117.338 105.467C117.291 104.937 116.338 104.775 115.673 105.134C115.408 105.279 113.055 106.842 112.024 107.534C111.594 107.825 111.024 107.671 110.774 107.184C110.672 106.988 110.602 106.731 110.594 106.415C110.555 105.219 112.876 103.732 112.876 103.732L117.83 98.2385C117.83 98.2385 121.269 94.3851 125.098 93.5051C128.928 92.6251 130.585 92.6165 131.64 93.1633C132.695 93.7102 138.861 97.9053 140.22 99.3407C141.58 100.776 145.503 105.202 144.8 105.791C144.097 106.381 140.58 107.5 139.845 107.902C139.197 108.252 137.806 109.303 137.806 109.303C137.446 109.833 136.61 110.098 135.484 113.379C135.133 114.412 134.328 112.951 134.211 116.121C134.133 118.146 135.703 122.376 135.703 122.376L135.696 122.384Z" fill="black"/>
<path d="M72.4573 122.325C72.4573 122.325 66.5648 125.887 61.5242 125.999C56.4913 126.11 43.495 124.512 40.9707 122.863C38.4543 121.214 34.7734 114.49 34.7266 112.507C34.6797 110.525 34.7266 109.919 34.7266 109.919C34.7266 109.919 33.6715 109.645 33.8669 108.047C34.0623 106.45 33.9685 106.116 34.5234 105.954C35.0782 105.792 35.7816 105.681 35.7816 105.681C35.7816 105.681 36.2348 103.254 37.0945 102.263C37.9541 101.272 41.8304 98.4097 44.2999 96.923C46.7695 95.4363 54.2718 92.3519 61.6726 92.6851C69.0734 93.0184 74.1141 92.3519 76.0288 98.1363C76.0288 98.1363 77.2401 102.87 77.4902 103.639C77.7403 104.408 78.045 106.339 77.1385 109.039C76.232 111.738 74.4189 119.966 73.7546 121C73.0903 122.034 72.4573 122.325 72.4573 122.325Z" fill="#1E1E1E"/>
<path d="M34.5312 105.954C34.5312 105.954 55.3112 106.894 58.5545 106.398C61.8055 105.902 77.1307 102.365 77.1307 102.365L77.6699 104.459C77.6699 104.459 63.1575 108.303 60.7426 108.303C58.3278 108.303 34.1482 107.013 34.1482 107.013H33.9919L34.0466 106.569C34.0466 106.569 34.0779 106.415 34.1014 106.355C34.1248 106.296 34.1639 106.219 34.1639 106.21C34.1639 106.202 34.2186 106.125 34.2655 106.09C34.3124 106.056 34.4296 105.996 34.4452 105.988C34.4608 105.979 34.5234 105.962 34.5234 105.962L34.5312 105.954Z" fill="#070707"/>
<path d="M33.9918 106.988C33.9918 106.988 33.687 109.192 34.2106 109.551C34.7342 109.91 45.261 110.995 45.261 110.995C45.261 110.995 59.9922 111.679 60.9769 111.593C61.9616 111.508 77.1461 109.03 77.1461 109.03C77.1461 109.03 77.7948 105.493 77.7401 104.972C77.6853 104.45 77.6228 104.459 77.6228 104.459C77.6228 104.459 65.8144 107.484 63.8294 107.834C61.8444 108.184 38.9543 107.091 38.9543 107.091L33.9996 106.988H33.9918Z" fill="#3D3D3D"/>
<path d="M75.6225 107.22C75.6225 107.22 78.5688 106.639 78.7173 106.186C78.8658 105.733 78.6782 104.742 78.1859 104.742C77.6935 104.742 75.1615 105.468 75.1615 105.468L74.8879 105.562C74.4347 105.708 74.1611 106.229 74.2862 106.724C74.2862 106.724 74.2862 106.741 74.2862 106.75L74.4972 107.536L75.6147 107.229L75.6225 107.22Z" fill="white"/>
<path d="M63.3767 110.662C63.3767 110.662 66.362 110.431 66.5574 109.996C66.7528 109.56 66.659 108.552 66.1744 108.5C65.6899 108.449 63.0953 108.876 63.0953 108.876L62.814 108.936C62.3529 109.03 62.0247 109.509 62.1028 110.021C62.1028 110.021 62.1028 110.038 62.1028 110.047L62.2357 110.85L63.3767 110.671V110.662Z" fill="white"/>
<path d="M75.4659 190.934C86.213 190.934 94.9252 181.409 94.9252 169.66C94.9252 157.91 86.213 148.385 75.4659 148.385C64.7188 148.385 56.0066 157.91 56.0066 169.66C56.0066 181.409 64.7188 190.934 75.4659 190.934Z" fill="#393A38"/>
<path d="M73.4893 182.962C79.9678 182.962 85.2196 176.944 85.2196 169.522C85.2196 162.099 79.9678 156.082 73.4893 156.082C67.0109 156.082 61.759 162.099 61.759 169.522C61.759 176.944 67.0109 182.962 73.4893 182.962Z" fill="black"/>
<path d="M107.023 143.951L97.637 165.473C97.1994 166.473 96.2069 167.02 95.2144 166.815L90.0174 165.73C89.4 165.601 88.8686 165.183 88.5326 164.593C88.0324 163.705 87.0633 162.415 85.4066 161.791C82.8589 160.834 60 153.221 58.3042 152.657C58.2339 152.632 58.1713 152.606 58.1088 152.58C56.8115 151.999 56.327 150.265 57.1007 148.992C57.7493 147.924 58.4761 146.779 58.9606 146.181C60.0157 144.856 65.3689 136.629 66.3614 135.86C67.4165 135.031 70.5894 133.219 74.6688 133.63C78.7482 134.04 84.3359 132.288 89.9315 133.578C95.5192 134.868 107.757 139.004 107.984 139.995C108.211 140.986 106.999 143.959 106.999 143.959L107.023 143.951Z" fill="#00DFF4"/>
<path d="M103.264 170.095C103.264 170.095 93.0418 168.498 91.2287 167.78C89.4157 167.062 71.2849 169.045 70.6753 168.933C70.0658 168.822 67.9557 168.489 67.7525 170.087C67.5493 171.685 67.604 173.889 68.5106 173.94C69.4171 173.992 88.1575 175.316 90.3222 174.547C92.487 173.778 92.487 173.641 95.2066 173.376C97.9262 173.112 103.459 173.881 103.991 173.65C104.522 173.419 105.124 171.873 104.788 171.044C104.452 170.215 103.272 170.078 103.272 170.078L103.264 170.095Z" fill="#1E1E1D"/>
<path d="M69.4802 168.908C69.4802 168.908 68.8003 166.088 69.1754 165.763C69.5505 165.439 69.9725 165.721 70.6133 164.815C71.2542 163.909 71.8169 161.338 72.2779 159.449C72.739 157.561 72.8094 157.51 72.8094 157.51L76.0917 158.612C76.0917 158.612 73.1063 163.533 72.5827 165.353C72.0591 167.173 72.2858 168.703 72.2858 168.703L72.3014 168.925H69.488L69.4802 168.908Z" fill="#1E1E1D"/>
<path d="M119.512 155.135C119.512 155.135 118.394 158.237 120.872 158.126C123.349 158.015 123.349 156.366 124.349 155.435C125.35 154.503 126.256 157.135 129.132 159.16C132.016 161.185 132.766 161.868 132.891 162.449C133.016 163.03 131.641 164.389 130.562 164.731C129.484 165.072 127.858 164.833 124.795 164.149C121.739 163.466 117.152 164.226 116.573 163.107C115.995 161.988 115.847 161.373 116.073 160.911C116.261 160.527 117.441 159.792 117.957 159.1C118.058 158.963 118.136 158.827 118.175 158.69C118.402 157.895 118.504 156.195 118.855 155.674C119.207 155.153 119.504 155.127 119.504 155.127L119.512 155.135Z" fill="#072D63"/>
<path d="M121.466 161.03C122.966 161.825 125.654 162.508 126.827 162.705C127.999 162.901 130.789 163.756 131.586 163.303C132.383 162.85 132.891 162.465 132.891 162.465C132.891 162.465 132.43 165.943 128.007 165.473C123.583 165.003 119.84 164.422 118.871 164.166C117.902 163.909 116.706 163.832 116.347 162.645C115.987 161.457 115.675 161.363 116.081 160.927C116.487 160.492 117.449 158.979 117.964 159.116C118.48 159.253 121.466 161.039 121.466 161.039V161.03Z" fill="white"/>
<path d="M120.473 152.947L119.418 158.791C119.418 158.791 120.989 158.971 122.247 158.569C123.505 158.168 124.083 155.818 124.161 155.63C124.24 155.442 123.278 154.058 123.278 154.058L120.473 152.947Z" fill="#FED5B5"/>
<path d="M124.857 153.989L123.786 154.1L122.215 154.083L121.246 153.989L122.848 138.968C122.848 138.968 122.848 130.1 122.348 128.186C121.848 126.272 121.746 126.391 120.644 125.605C119.144 124.529 111.126 122.598 110.938 122.547C110.751 122.495 107.718 122.102 104.929 122.145C102.139 122.188 97.3323 118.719 96.2539 117.984C95.1754 117.249 94.6674 113.857 94.4877 113.088C94.3079 112.319 93.0028 110.542 94.8472 111.61C96.5821 112.61 99.88 117.403 102.944 118.326C106.007 119.249 114.502 121.068 118.503 122.393C121.418 123.358 123.794 124.554 124.2 126.366C124.654 128.399 125.419 135.286 125.154 138.755C124.888 142.224 125.873 146.453 125.607 148.64C125.412 150.281 126.209 151.938 125.951 152.955C125.873 153.263 125.333 153.938 124.849 153.997L124.857 153.989Z" fill="#091B4C"/>
<path d="M112.509 155.86L110.477 166.318C110.477 166.318 111.501 166.053 113.439 165.626C115.268 165.224 117.854 161.286 117.972 161.004C118.089 160.722 116.737 157.535 116.737 157.535L112.509 155.852V155.86Z" fill="#FED5B5"/>
<path d="M111.368 161.431C111.641 161.474 111.829 161.747 111.782 162.038C111.657 162.798 112.024 164.695 114.447 163.986C117.721 163.029 116.612 160.824 118.128 159.423C119.644 158.022 120.996 161.986 125.341 165.037C129.686 168.087 130.819 169.129 131.007 169.992C131.194 170.855 129.116 172.914 127.49 173.435C125.865 173.957 123.023 173.5 118.261 173.316C113.65 172.282 108.341 172.192 107.473 170.5C106.606 168.809 106.223 167.192 106.559 166.5C106.84 165.919 107.718 165.994 108.5 164.951C108.656 164.746 109.422 163.738 109.477 163.541C109.82 162.345 109.359 161.909 110.188 161.559C110.625 161.371 111.055 161.38 111.36 161.422L111.368 161.431Z" fill="#072D63"/>
<path d="M113.431 170.282C115.698 171.479 119.793 171.419 121.582 171.581C123.372 171.744 127.889 172.461 129.1 171.778C130.312 171.094 131.007 169.992 131.007 169.992C131.007 169.992 130.611 174.709 123.937 174C117.263 173.291 111.679 172.384 110.217 172C108.756 171.615 107.563 172.077 107.016 170.282C106.469 168.488 105.949 167.158 106.559 166.5C107.168 165.842 109.227 164.114 108.5 164.951C107.578 166.019 111.493 169.42 113.431 170.282Z" fill="white"/>
<path d="M78.7871 113.832C78.7871 113.832 76.0596 121.992 78.4198 124.264C80.7799 126.537 92.1842 133.722 98.3268 133.5C104.469 133.278 111.335 135.185 111.132 137.5C110.929 139.816 108.351 158.441 108.351 158.441C108.351 158.441 108.015 159.235 110.344 159.62C112.845 160.038 114.869 158.714 114.869 158.714C114.869 158.714 115.854 158.227 116.963 158.304C117.456 158.338 118.464 158.56 119.417 158.791C120.66 159.099 121.59 159.235 121.762 157.86C122.481 152.033 122.856 139.994 122.856 138.302C122.856 134.996 123.964 126.816 121.651 125.5C119.338 124.176 112.565 121.124 107.931 121.5C104.398 121.782 99.0123 119.36 97.5743 118.395C97.121 118.087 96.7459 117.668 96.4724 117.173C95.8628 116.054 94.7687 113.969 94.8 113.413C94.8469 112.644 88.8919 112.576 88.0869 112.388C87.282 112.2 83.1635 111.619 83.1635 111.619H79.9359L78.7871 113.849V113.832Z" fill="#0F256D"/>
<path d="M134.789 113.935L149.528 137.431C149.528 137.431 154.373 145.958 155.905 146.445C156.78 146.727 164.564 140.729 166.557 139.123C169.714 136.594 168.042 134.749 161.657 125.769C156.171 118.053 148.223 108.663 146.097 106.177C145.761 105.784 145.261 105.639 144.792 105.793C142.964 106.399 138.392 108.082 136.954 110.244C135.141 112.97 134.789 113.935 134.789 113.935Z" fill="#3EF0FB"/>
<path d="M171.449 199.478C183.081 199.478 192.511 189.169 192.511 176.452C192.511 163.735 183.081 153.426 171.449 153.426C159.817 153.426 150.388 163.735 150.388 176.452C150.388 189.169 159.817 199.478 171.449 199.478Z" fill="#393A38"/>
<path d="M171.45 190.994C178.459 190.994 184.141 184.484 184.141 176.452C184.141 168.421 178.459 161.91 171.45 161.91C164.441 161.91 158.758 168.421 158.758 176.452C158.758 184.484 164.441 190.994 171.45 190.994Z" fill="black"/>
<path d="M169.988 177.35L173.99 174.624L177.28 159.877C177.28 159.877 177.811 157.647 178.679 156.528C179.546 155.409 180.117 154.939 180.453 155.938C180.453 155.938 180.601 155.05 179.132 154.417C177.663 153.785 169.762 150.496 164.026 151.53C158.282 152.563 169.996 177.341 169.996 177.341L169.988 177.35Z" fill="#00DFF4"/>
<path d="M156.976 152.837L159.626 158.689L160.759 158.023L157.774 151.162L155.867 146.531L154.882 148.172L156.976 152.837Z" fill="#B7C4B7"/>
<path d="M169.645 177.229L162.345 157.928C162.252 157.681 162.009 157.552 161.767 157.612C161.103 157.8 159.782 158.21 158.922 158.791C158.61 158.996 158.36 159.227 158.227 159.475C157.735 160.346 164.854 171.633 168.793 177.742C169.129 178.263 169.871 177.819 169.645 177.229Z" fill="#1E1E1D"/>
<path d="M94.277 76.4258C94.277 76.4258 104.382 93.3602 118.113 94.0779C118.113 94.0779 124.74 94.2573 123.794 94.7699C122.716 95.3509 120.528 97.4015 120.528 97.4015C120.528 97.4015 110.626 97.7006 108.914 96.2566C107.203 94.8127 97.5749 90.2843 97.3405 89.2846C97.106 88.285 93.9566 84.8161 93.3861 82.3127C92.8156 79.8092 92.2764 77.2289 92.2764 77.2289L94.277 76.4258Z" fill="#B5C5C6"/>
<path d="M85.8913 76.7418C86.2586 75.3833 87.6496 74.6997 88.8219 75.2978C92.8544 77.357 93.042 76.7845 93.5656 76.2633C94.1673 75.6567 93.0576 86.0264 94.8707 88.9998C96.6838 91.9731 97.4809 94.3768 97.2386 97.6577C97.1761 98.5548 97.2152 99.0931 97.2933 99.4092C97.4184 99.9219 98.9796 100.513 98.7842 101C98.2606 102.307 98.3034 104.784 98.3268 108C98.0431 110.5 97.0042 111.157 95.238 113.071C92.0182 116.574 88.0326 116.241 85.8522 115.464C83.6718 114.686 82.7775 114.5 81.4055 114C80.4908 113.5 80.2957 113.148 79.1626 112.969C78.0294 112.789 77.9122 112.123 78.0763 110.858L82.1713 91.8306C82.187 91.7196 82.2104 91.6 82.2339 91.4974L85.8913 76.7503V76.7418Z" fill="#BAD4D8"/>
<path d="M118.917 105.458C118.824 105.433 118.769 105.398 118.691 105.339C118.214 104.954 116.635 104.074 115.705 104.083C114.689 104.1 114.205 103.57 112.493 103.775H111.235C111.149 103.801 110.086 103.775 110.024 103.707C109.883 103.561 109.938 103.168 110.11 102.562C110.36 101.665 110.477 101.22 110.782 100.981C111.259 100.597 114.533 100.178 116.995 100.955C116.995 100.955 117.284 100.938 118.8 102.408C120.402 103.954 121.199 105.612 121.254 105.868C121.254 106.055 121.059 106.159 121.059 106.159C121.059 106.159 120.715 106.022 120.535 105.766C120.222 105.339 119.894 104.877 119.863 104.817C119.808 104.723 118.753 103.288 118.753 103.288L120.785 106.125C120.785 106.125 120.816 106.167 120.832 106.193C120.91 106.347 120.672 106.615 120.465 106.458C119.98 106.09 119.371 105.253 118.753 104.553C118.519 104.288 118.488 104.254 118.277 104.083C117.433 103.382 117.761 103.621 117.761 103.621L118.816 104.706C118.816 104.706 119.285 105.074 119.183 105.356C119.152 105.45 119.089 105.492 118.925 105.45L118.917 105.458Z" fill="#EDBD98"/>
<path d="M116.776 104.972C116.706 105.057 116.55 104.972 116.55 105.322C116.55 105.672 116.432 105.937 116.213 105.758C115.995 105.578 115.799 105.117 115.885 104.997C115.956 104.895 116.776 104.963 116.776 104.972Z" fill="#EDBD98"/>
<path d="M106.663 103.255C106.663 103.255 104.022 102.691 101.771 101.965C97.6292 100.632 96.0819 100.546 95.1753 99.222C94.2688 97.8977 92.0024 95.9155 90.1894 93.113C88.3763 90.3106 85.9615 86.8331 86.1099 84.193C86.2584 81.5529 84.5391 79.1691 85.8989 77.3492C87.2587 75.5293 87.7198 72.8379 91.4945 74.1622C95.2691 75.4866 94.808 78.6052 94.894 81.194C94.9956 84.1332 96.6055 88.5163 98.7233 91.6605C100.841 94.7962 106.632 96.0693 109.805 98.0515C112.978 100.034 113.267 100.341 113.267 100.341C113.267 100.341 112.822 100.461 112.579 102.571C112.384 104.297 110.063 103.793 109.657 103.981C109.555 104.024 109.438 104.024 109.328 103.99L106.663 103.263V103.255Z" fill="#B7CCCE"/>
<path d="M125.701 80.8613C125.701 80.8613 126.514 81.0493 126.357 82.1429C126.201 83.2366 124.927 85.1761 124.365 85.441C123.802 85.7058 123.231 85.3299 123.231 85.3299L125.701 80.8613Z" fill="black"/>
<path d="M125.123 83.5306C125.833 82.2969 126.149 81.1174 125.828 80.8961C125.506 80.6747 124.67 81.4954 123.959 82.7291C123.248 83.9628 122.932 85.1423 123.254 85.3637C123.575 85.585 124.412 84.7643 125.123 83.5306Z" fill="white"/>
<path d="M125.068 84.7395L126.303 91.4209L126.623 93.574H127.061L125.357 84.3379L125.068 84.7395Z" fill="black"/>
<path d="M113.111 91.3095C113.111 91.3095 117.776 95.4021 117.808 95.4961C117.839 95.5901 117.808 98.3071 117.808 98.3071H118.441V95.4106L116.284 93.4455L112.665 90.4551L112.454 90.7883L113.103 91.318L113.111 91.3095Z" fill="black"/>
<path d="M110.735 91.8998C112.198 91.8998 113.384 90.5533 113.384 88.8923C113.384 87.2313 112.198 85.8848 110.735 85.8848C109.272 85.8848 108.086 87.2313 108.086 88.8923C108.086 90.5533 109.272 91.8998 110.735 91.8998Z" fill="black"/>
<path d="M119.628 91.5748C119.628 91.5748 123.286 93.4887 123.255 94.3004C123.223 95.1121 121.043 96.5304 120.097 96.9149C118.972 97.3677 118.269 97.1883 118.183 97.6411C118.151 97.8205 118.206 97.8974 118.214 98.017C118.214 98.1879 118.347 98.3161 118.503 98.299C119.034 98.2477 120.183 97.7693 120.582 97.5898C121.019 97.3848 123.427 95.9665 123.802 94.7532C124.114 93.7535 123.606 93.258 122.254 91.9251C120.902 90.5922 120.551 90.0625 120.551 90.0625L119.636 91.5748H119.628Z" fill="black"/>
<path d="M119.16 86.6113H121.661C122.067 86.6113 122.325 87.0813 122.13 87.4572L118.933 93.5491C118.8 93.8054 118.503 93.908 118.253 93.7969L116.331 92.9083C116.042 92.7716 115.925 92.4128 116.073 92.1223L118.691 86.9189C118.785 86.7309 118.965 86.6199 119.16 86.6199V86.6113Z" fill="#99DB26"/>
<path d="M119.582 86.7129H121.668C122.168 86.7129 122.481 87.3024 122.239 87.7809L119.332 93.4713C119.167 93.7959 118.808 93.9241 118.495 93.7788L116.893 93.0184C116.542 92.8475 116.393 92.3947 116.581 92.0188L118.996 87.0888C119.113 86.8581 119.332 86.7129 119.574 86.7129H119.582Z" fill="black"/>
<path d="M121.434 96.839C121.434 96.839 122.161 93.6863 123.685 92.2509C125.208 90.8155 126.592 90.0379 127.311 91.1401L128.006 92.9942C128.006 92.9942 124.677 95.0362 123.833 95.6343C122.989 96.2324 121.512 97.0356 121.512 97.0356L121.442 96.839H121.434Z" fill="#1E1E1E"/>
<path d="M127.576 93.0802L126.881 91.2176C126.849 91.1407 126.787 91.098 126.709 91.1065C126.42 91.1407 125.701 91.2774 125.372 91.8413C125.341 91.8926 125.341 91.9524 125.365 92.0037L126.091 93.9603C126.13 94.0628 126.24 94.1055 126.326 94.0457L127.506 93.3024C127.576 93.2597 127.608 93.1657 127.576 93.0802Z" fill="white"/>
<path d="M129.288 92.2596C129.288 92.2596 131.546 90.6106 131.875 90.6192C132.203 90.6277 133.055 90.8071 132.664 91.6616L130.437 93.883L128.272 95.6858L127.834 93.8916L128.006 92.9688L129.296 92.2596H129.288Z" fill="black"/>
</svg>
