<svg width="356" height="233" viewBox="0 0 356 233" fill="none" xmlns="http://www.w3.org/2000/svg">
<path opacity="0.6" d="M150 135.5L101.5 79C100.667 82 98.2 89.9 95 97.5C91.8 105.1 82.3333 115 78 119L79.5 119.5L150 135.5Z" fill="#81BB27"/>
<path d="M187.815 214.594C280.497 214.594 355.63 206.947 355.63 197.513C355.63 188.079 280.497 180.432 187.815 180.432C95.1333 180.432 20 188.079 20 197.513C20 206.947 95.1333 214.594 187.815 214.594Z" fill="#F3F3F3"/>
<circle cx="74.5" cy="69.5" r="57" fill="#F3F3F3" stroke="#CCCDD0"/>
<path d="M67.9051 41.3965H67.5269C67.0759 41.3965 66.7102 41.7954 66.7102 42.2876V49.2844C66.7102 49.7765 67.0759 50.1755 67.5269 50.1755H67.9051C68.3561 50.1755 68.7218 49.7765 68.7218 49.2844V42.2876C68.7218 41.7954 68.3561 41.3965 67.9051 41.3965Z" fill="#231F20"/>
<path d="M104.43 40H68.1458V40.9218C68.8216 40.9218 69.3728 41.5232 69.3728 42.265V49.2355C69.3728 49.9773 68.8257 50.5743 68.1458 50.5787V51.5005H74.2448C76.4012 51.5005 78.4731 52.431 80.0099 54.0859L83.2405 57.5755C85.8354 60.376 89.3355 61.9474 92.9845 61.9474H104.426C106.394 61.9474 107.987 60.2092 107.987 58.0627V43.8891C107.995 41.7426 106.398 40 104.43 40Z" fill="#231F20"/>
<path d="M77.3429 63.2188H57.5732C56.3667 63.2188 55.3887 64.2859 55.3887 65.6022V74.0037C55.3887 75.3201 56.3667 76.3872 57.5732 76.3872H77.3429C78.5494 76.3872 79.5274 75.3201 79.5274 74.0037V65.6022C79.5274 64.2859 78.5494 63.2188 77.3429 63.2188Z" fill="#2B2D33"/>
<path d="M73.4927 63.2188H61.4233V76.3872H73.4927V63.2188Z" fill="#231F20"/>
<path d="M104.43 40H68.1458V40.9218C68.8015 40.9218 69.3285 41.488 69.3648 42.1947H102.057C104.024 42.1947 105.617 43.5862 105.617 45.3069V56.6318C105.617 58.3481 104.024 59.7395 102.061 59.7439L91.0373 59.7571C88.3137 59.7571 85.6745 59.0635 83.4296 57.7774C86.0044 60.4506 89.42 61.9518 92.9805 61.9518H104.422C106.39 61.9518 107.983 60.2136 107.983 58.0671V43.8891C107.987 41.7426 106.394 40 104.422 40H104.43Z" fill="#2B2D33"/>
<path d="M31.0004 40H67.285V40.9218C66.6091 40.9218 66.0579 41.5232 66.0579 42.265V49.2355C66.0579 49.9773 66.605 50.5743 67.285 50.5787V51.5005H61.1859C59.0295 51.5005 56.9576 52.431 55.4208 54.0859L52.1902 57.5755C49.5953 60.376 46.0952 61.9474 42.4462 61.9474H31.0044C29.0371 61.9474 27.444 60.2092 27.4399 58.0627V43.8891C27.4399 41.7426 29.0331 40 31.0004 40Z" fill="#231F20"/>
<path d="M31.0004 40H67.285V40.9218C66.6292 40.9218 66.1022 41.488 66.066 42.1947H33.374C31.4067 42.1947 29.8136 43.5862 29.8136 45.3069V56.6318C29.8136 58.3481 31.4067 59.7395 33.37 59.7439L44.3934 59.7571C47.117 59.7571 49.7562 59.0635 52.0011 57.7774C49.4263 60.4506 46.0107 61.9518 42.4502 61.9518H31.0044C29.0371 61.9474 27.444 60.2092 27.4399 58.0627V43.8891C27.4399 41.7426 29.0331 40 31.0004 40Z" fill="#2B2D33"/>
<path d="M67.9051 89.2891H67.5269C67.0759 89.2891 66.7102 89.688 66.7102 90.1801V97.177C66.7102 97.6691 67.0759 98.068 67.5269 98.068H67.9051C68.3561 98.068 68.7218 97.6691 68.7218 97.177V90.1801C68.7218 89.688 68.3561 89.2891 67.9051 89.2891Z" fill="#231F20"/>
<path d="M104.43 99.465H68.1458V98.5432C68.8216 98.5432 69.3728 97.9419 69.3728 97.2V90.2295C69.3728 89.4877 68.8257 88.8907 68.1458 88.8863V87.9646H74.2448C76.4012 87.9646 78.4731 87.034 80.0099 85.3791L83.2405 81.8895C85.8354 79.089 89.3355 77.5176 92.9845 77.5176H104.426C106.394 77.5176 107.987 79.2558 107.987 81.4023V95.5759C107.991 97.7224 106.398 99.465 104.426 99.465H104.43Z" fill="#231F20"/>
<path d="M104.43 99.4635H68.1458V98.5417C68.8015 98.5417 69.3285 97.9755 69.3648 97.2688H102.057C104.024 97.2688 105.617 95.8773 105.617 94.1566V82.8318C105.617 81.1155 104.024 79.724 102.061 79.7196L91.0373 79.7065C88.3137 79.7065 85.6745 80.4 83.4296 81.6861C86.0044 79.0129 89.42 77.5117 92.9805 77.5117H104.422C106.39 77.5117 107.983 79.25 107.983 81.3964V95.5701C107.987 97.7165 106.394 99.4592 104.422 99.4592L104.43 99.4635Z" fill="#2B2D33"/>
<path d="M31.0004 99.465H67.285V98.5432C66.6091 98.5432 66.0579 97.9419 66.0579 97.2V90.2295C66.0579 89.4877 66.6051 88.8907 67.285 88.8863V87.9646H61.1859C59.0295 87.9646 56.9576 87.034 55.4208 85.3791L52.1902 81.8895C49.5953 79.089 46.0952 77.5176 42.4462 77.5176H31.0044C29.0371 77.5176 27.444 79.2558 27.4399 81.4023V95.5759C27.4359 97.7224 29.0291 99.465 31.0004 99.465Z" fill="#231F20"/>
<path fill-rule="evenodd" clip-rule="evenodd" d="M35.9099 86.0898H37.0278L37.1457 86.2186C37.948 87.095 39.0418 87.5885 40.1813 87.5885H42.8776V89.6654H40.1813C39.0425 89.6654 37.9535 90.1585 37.1448 91.0363L37.0271 91.1641H35.9099V86.0898ZM36.7145 86.9843V90.2704C37.6573 89.3197 38.892 88.7875 40.1813 88.7875H42.073V88.4664H40.1813C38.8934 88.4664 37.6537 87.9352 36.7145 86.9843Z" fill="#FDFDFD"/>
<path fill-rule="evenodd" clip-rule="evenodd" d="M43.2708 88.1982C43.054 88.1982 42.8774 88.3904 42.8774 88.6285C42.8774 88.8666 43.054 89.0588 43.2708 89.0588C43.4877 89.0588 43.6643 88.8666 43.6643 88.6285C43.6643 88.3904 43.4877 88.1982 43.2708 88.1982ZM42.0728 88.6285C42.0728 87.9065 42.6087 87.3203 43.2708 87.3203C43.933 87.3203 44.4689 87.9065 44.4689 88.6285C44.4689 89.3505 43.933 89.9367 43.2708 89.9367C42.6087 89.9367 42.0728 89.3505 42.0728 88.6285Z" fill="#FDFDFD"/>
<path fill-rule="evenodd" clip-rule="evenodd" d="M41.3929 90.5741C41.0148 90.8362 40.5071 91.0059 39.9576 91.0491C39.4073 91.0922 38.8825 91.0018 38.4742 90.7997C38.0823 90.6057 37.7018 90.2527 37.667 89.7256L38.4695 89.6625C38.4731 89.7169 38.5262 89.8614 38.8066 90.0002C39.0705 90.1308 39.4568 90.2082 39.8999 90.1734C40.3437 90.1386 40.7168 90.0027 40.9616 89.8331C41.2216 89.6528 41.2542 89.5028 41.2507 89.4498L42.0532 89.3867C42.0881 89.9152 41.7557 90.3227 41.3929 90.5741Z" fill="#FDFDFD"/>
<path fill-rule="evenodd" clip-rule="evenodd" d="M34.6602 87.8249C34.8062 87.5574 35.065 87.2891 35.4285 87.2891V88.167C35.4341 88.167 35.4377 88.1664 35.4395 88.1659C35.4323 88.1689 35.3987 88.1877 35.3516 88.2741C35.2861 88.394 35.2326 88.5879 35.2326 88.8251C35.2326 89.0622 35.2861 89.2561 35.3516 89.376C35.3987 89.4624 35.4323 89.4812 35.4395 89.4842C35.4377 89.4838 35.4341 89.4832 35.4285 89.4832V90.3611C35.065 90.3611 34.8062 90.0927 34.6602 89.8252C34.5089 89.548 34.428 89.1934 34.428 88.8251C34.428 88.4567 34.5089 88.1021 34.6602 87.8249ZM35.4409 89.4847C35.4409 89.4847 35.4404 89.4846 35.4395 89.4842C35.4404 89.4844 35.4409 89.4846 35.4409 89.4847ZM35.4409 88.1655C35.4409 88.1655 35.4404 88.1657 35.4395 88.1659C35.4404 88.1655 35.4409 88.1654 35.4409 88.1655Z" fill="#FDFDFD"/>
<path fill-rule="evenodd" clip-rule="evenodd" d="M33.4054 87.3875C33.6135 87.0081 33.9573 86.6719 34.4133 86.6719V87.5498C34.3534 87.5498 34.228 87.5972 34.0958 87.8383C33.9689 88.0697 33.8771 88.4177 33.8771 88.8253C33.8771 89.2329 33.9689 89.5809 34.0958 89.8124C34.228 90.0534 34.3534 90.1009 34.4133 90.1009V90.9788C33.9573 90.9788 33.6135 90.6426 33.4054 90.2632C33.192 89.8742 33.0725 89.3649 33.0725 88.8253C33.0725 88.2858 33.192 87.7765 33.4054 87.3875Z" fill="#FDFDFD"/>
<path d="M31.0004 99.4635H67.285V98.5417C66.6292 98.5417 66.1022 97.9755 66.066 97.2688H33.3741C31.4067 97.2688 29.8136 95.8773 29.8136 94.1566V82.8318C29.8136 81.1155 31.4067 79.724 33.37 79.7196L44.3934 79.7065C47.117 79.7065 49.7562 80.4 52.0011 81.6861C49.4263 79.0129 46.0107 77.5117 42.4502 77.5117H31.0044C29.0371 77.5161 27.444 79.2543 27.4399 81.4008V95.5745C27.4359 97.7209 29.0291 99.4635 31.0004 99.4635Z" fill="#2B2D33"/>
<g clip-path="url(#clip0_16546_58529)">
<path fill-rule="evenodd" clip-rule="evenodd" d="M47.108 47.1699H49.4279C50.8216 47.1699 52.0714 48.3781 52.0456 49.9516C52.0203 51.6334 50.7071 53.0167 49.1865 53.0167H46.663L46.5502 52.781C45.7143 51.0348 45.788 49.6635 46.1118 48.7097C46.2709 48.2407 46.4857 47.8865 46.6624 47.6477C46.751 47.5282 46.8305 47.4368 46.8898 47.3736C46.9195 47.342 46.9442 47.3173 46.9626 47.2996C46.9718 47.2908 46.9794 47.2836 46.9853 47.2782L46.9927 47.2714L46.9955 47.269L46.9966 47.268L46.997 47.2676C46.9973 47.2674 46.9975 47.2672 47.2501 47.6089L46.9975 47.2672L47.108 47.1699ZM47.4102 48.0478C47.3758 48.087 47.3342 48.1375 47.2884 48.1994C47.1552 48.3793 46.9895 48.6516 46.8663 49.0145C46.6379 49.6874 46.5381 50.723 47.1555 52.1388H49.1865C50.2728 52.1388 51.2232 51.1345 51.2411 49.9369L51.2411 49.9362C51.258 48.9112 50.4265 48.0478 49.4279 48.0478H47.4102Z" fill="white"/>
<path fill-rule="evenodd" clip-rule="evenodd" d="M41.1833 47.1699H45.8019V48.0478H41.1833V47.1699Z" fill="white"/>
<path fill-rule="evenodd" clip-rule="evenodd" d="M41.1833 49.6562H45.5498V50.5341H41.1833V49.6562Z" fill="white"/>
<path fill-rule="evenodd" clip-rule="evenodd" d="M41.1833 52.1445H45.8019V53.0224H41.1833V52.1445Z" fill="white"/>
</g>
<g clip-path="url(#clip1_16546_58529)">
<path d="M39.195 75.9947L34.2793 70.2884L39.195 64.582V68.1389H42.7279V72.4378H39.195V75.9947ZM35.883 70.2884L38.0329 72.7833V71.1584H41.5657V69.4183H38.0329V67.7934L35.883 70.2884Z" fill="#81BB27"/>
</g>
<path d="M96.1475 64.144L101.063 69.8503L96.1475 75.5566V71.9998H92.6147V67.7008H96.1475V64.144ZM99.4595 69.8503L97.3096 67.3554V68.9803H93.7768V70.7203H97.3096V72.3452L99.4595 69.8503Z" fill="#81BB27"/>
<path d="M70.3098 59.3135V54.7344H72.9554V55.6052H71.2561V56.6657H72.7108V57.5366H71.2561V59.3135H70.3098Z" fill="black"/>
<path d="M66.9343 59.3135V54.7344H69.5799V55.6052H67.8806V56.6657H69.3353V57.5366H67.8806V59.3135H66.9343Z" fill="black"/>
<path d="M64.2401 59.3961C63.8624 59.3961 63.5299 59.3001 63.2423 59.1082C62.9591 58.9162 62.736 58.6423 62.5729 58.2864C62.4141 57.9259 62.3347 57.4975 62.3347 57.0012C62.3347 56.5002 62.4141 56.0765 62.5729 55.73C62.736 55.3788 62.9591 55.112 63.2423 54.9294C63.5299 54.7421 63.8624 54.6484 64.2401 54.6484C64.6177 54.6484 64.9481 54.7421 65.2314 54.9294C65.5189 55.112 65.742 55.3788 65.9008 55.73C66.0639 56.0812 66.1454 56.5049 66.1454 57.0012C66.1454 57.4975 66.0639 57.9259 65.9008 58.2864C65.742 58.6423 65.5189 58.9162 65.2314 59.1082C64.9481 59.3001 64.6177 59.3961 64.2401 59.3961ZM64.2401 58.5042C64.5276 58.5042 64.755 58.3684 64.9224 58.0968C65.0898 57.8253 65.1734 57.4601 65.1734 57.0012C65.1734 56.5424 65.0898 56.1842 64.9224 55.9267C64.755 55.6691 64.5276 55.5404 64.2401 55.5404C63.9525 55.5404 63.7251 55.6691 63.5577 55.9267C63.3904 56.1842 63.3067 56.5424 63.3067 57.0012C63.3067 57.4601 63.3904 57.8253 63.5577 58.0968C63.7251 58.3684 63.9525 58.5042 64.2401 58.5042Z" fill="black"/>
<g clip-path="url(#clip2_16546_58529)">
<path d="M36.2909 53.7959V52.6621C36.2909 52.5083 36.1783 52.3809 36.0335 52.3809H33.3299C33.1891 52.3809 33.0724 52.5039 33.0724 52.6621V53.8003C33.0724 54.0069 32.9155 54.1739 32.7184 54.1739H32.3925C32.3241 54.1739 32.2678 54.231 32.2678 54.3057V54.8946C32.2678 54.9649 32.3201 55.0264 32.3885 55.0264H36.9749C37.0433 55.0264 37.0996 54.9649 37.0996 54.8902V54.3057C37.0996 54.2354 37.0433 54.1739 36.9749 54.1739H36.645C36.4519 54.1739 36.2909 54.0069 36.2909 53.8003V53.7959Z" fill="#F9F9F9"/>
</g>
<g clip-path="url(#clip3_16546_58529)">
<path d="M36.2909 47.7341V45.8277C36.2909 45.7605 36.2346 45.7051 36.1662 45.7051H33.1972C33.1288 45.7051 33.0724 45.7605 33.0724 45.8277V47.7341C33.0724 47.9239 32.9155 48.0821 32.7184 48.0821H32.3925C32.3241 48.0821 32.2678 48.1375 32.2678 48.2047V48.7545C32.2678 48.8217 32.3241 48.8771 32.3925 48.8771H36.9749C37.0433 48.8771 37.0996 48.8217 37.0996 48.7545V48.2047C37.0996 48.1375 37.0433 48.0821 36.9749 48.0821H36.645C36.4519 48.0821 36.2909 47.9279 36.2909 47.7341Z" fill="#F9F9F9"/>
</g>
<g clip-path="url(#clip4_16546_58529)">
<path d="M96.6727 164.134C96.6602 164.124 96.6476 164.115 96.6369 164.105C96.3846 163.884 93.4643 161.333 92.7647 160.906C92.0328 160.46 91.2491 160.377 91.5014 159.625C91.7537 158.873 93.2514 157.82 93.7757 157.625C94.2409 157.451 95.1571 157.068 95.3539 156.985C95.379 156.975 95.4022 156.964 95.4255 156.948C95.583 156.853 96.2343 156.466 96.4025 156.48C96.594 156.494 97.7052 155.195 98.9846 157.218C100.264 159.244 100.736 159.392 100.736 159.728C100.736 160.044 99.7075 163.175 97.8072 164.509C97.605 164.652 97.3455 164.64 97.1487 164.492L96.6727 164.136V164.134Z" stroke="black" stroke-width="4" stroke-miterlimit="10"/>
<path d="M101.169 165.406C101.169 165.406 97.7731 166.336 98.1883 164.031C98.6034 161.727 99.0865 159.058 101.713 159.019C104.34 158.977 104.616 160.093 107.52 161.356C110.424 162.62 110.823 162.995 116.077 163.143C121.33 163.291 122.968 163.329 123.868 163.254C124.768 163.179 125.632 167.599 125.079 168.788C124.526 169.976 120.155 169.009 119.902 168.894C119.65 168.78 105.378 166.187 103.651 165.666C101.923 165.145 101.171 165.406 101.171 165.406H101.169Z" fill="#131315"/>
<path d="M91.045 159.928C91.045 159.928 89.7567 160.402 88.998 159.928C88.2393 159.454 84.3492 158.06 83.2881 158.228C82.227 158.396 81.1855 157.551 81.1855 157.551C81.1855 157.551 85.4586 158.226 87.6577 158.307C89.8569 158.388 90.918 157.993 91.2723 158.39C91.6266 158.787 91.5836 158.887 91.3993 159.306C91.215 159.725 91.045 159.928 91.045 159.928Z" fill="#1E1E1E"/>
<path d="M121.065 168.214C121.065 168.214 114.728 185.486 113.659 185.456C112.591 185.426 112.19 190.031 112.09 190.495C111.99 190.958 110.514 193.199 114.099 193.979C117.687 194.759 134.461 198.161 134.461 198.161C134.461 198.161 138.049 198.941 140.221 198.439C142.393 197.938 144.213 196.935 145.072 196.822C145.931 196.71 149.518 191.75 150.58 190.299C151.641 188.85 162.1 171.29 162.2 170.398C162.3 169.506 160.904 167.32 160.095 165.257C159.287 163.194 153.147 154.321 153.147 154.321L147.394 147.526C147.394 147.526 146.62 147.042 145.947 147.526C145.274 148.009 143.877 149.512 143.776 150.292C143.676 151.071 143.574 153.859 143.676 154.305C143.778 154.752 145.983 159.75 145.983 159.75C145.983 159.75 141.046 158.969 140.946 159.806C140.845 160.643 141.121 164.351 141.217 166.52C141.314 168.69 141.366 169.371 141.217 170.236C141.119 170.809 137.896 185.59 137.896 185.59L125.571 181.043L126.851 167.334L126.06 167.719L121.318 167.288L121.067 168.212L121.065 168.214Z" fill="black"/>
<path d="M150.515 169.46L141.083 153.628C141.083 153.628 139.047 150.22 138.659 150.953C138.27 151.683 138.558 154.967 138.558 154.967C138.558 154.967 142.364 163.513 143.239 165.15C144.114 166.785 144.923 171.393 144.923 171.393L142.094 181.649L143.239 189.379L143.812 189.677L147.954 181.649L152.968 173.207L150.515 169.46Z" fill="#81BB27"/>
<path d="M161.121 178.496L159.616 175.009L160.008 174.521L160.922 176.841L161.638 178.496H161.121Z" fill="#B7C4B7"/>
<path d="M139.453 156.967C139.453 156.967 137.406 152.745 136.447 151.211C135.488 149.679 135.166 149.454 133.72 148.386C132.559 147.527 131.154 145.585 130.687 145.33C129.887 144.892 126.89 147.273 126.688 147.16C126.486 147.048 127.208 145.887 127.176 145.553C127.142 145.198 126.507 145.083 126.065 145.33C125.886 145.429 124.317 146.485 123.624 146.951C123.336 147.144 122.955 147.042 122.79 146.714C122.722 146.58 122.674 146.41 122.669 146.193C122.644 145.385 124.193 144.378 124.193 144.378L127.507 140.673C127.507 140.673 129.807 138.072 132.365 137.476C134.926 136.882 136.032 136.876 136.74 137.247C137.449 137.618 141.57 140.445 142.479 141.415C143.388 142.384 146.015 145.373 145.542 145.768C145.07 146.163 142.722 146.923 142.227 147.19C141.79 147.425 140.861 148.135 140.861 148.135C140.623 148.495 140.062 148.67 139.312 150.886C139.076 151.585 138.539 150.599 138.458 152.738C138.406 154.102 139.455 156.959 139.455 156.959L139.453 156.967Z" fill="black"/>
<path d="M97.161 156.927C97.161 156.927 93.2208 159.331 89.8514 159.404C86.4838 159.479 77.7928 158.401 76.109 157.286C74.4252 156.17 71.9666 151.637 71.9326 150.299C71.8986 148.96 71.9326 148.552 71.9326 148.552C71.9326 148.552 71.2258 148.366 71.36 147.288C71.4942 146.21 71.428 145.987 71.7984 145.876C72.1688 145.766 72.6412 145.691 72.6412 145.691C72.6412 145.691 72.9436 144.056 73.5162 143.387C74.0888 142.717 76.6816 140.785 78.3332 139.782C79.9848 138.779 85.0022 136.698 89.9534 136.921C94.9046 137.144 98.2722 136.698 99.5534 140.601C99.5534 140.601 100.362 143.797 100.53 144.317C100.699 144.836 100.901 146.137 100.294 147.959C99.6876 149.78 98.4762 155.333 98.0289 156.032C97.5816 156.731 97.161 156.927 97.161 156.927Z" fill="#1E1E1E"/>
<path d="M71.7984 145.878C71.7984 145.878 85.6929 146.509 87.8652 146.176C90.0375 145.842 100.289 143.453 100.289 143.453L100.65 144.863C100.65 144.863 90.9465 147.457 89.3289 147.457C87.7113 147.457 71.5461 146.584 71.5461 146.584L71.4387 146.578L71.4781 146.284C71.4781 146.284 71.4978 146.18 71.5121 146.14C71.5264 146.101 71.5532 146.045 71.555 146.043C71.5568 146.041 71.5908 145.988 71.6212 145.964C71.6517 145.941 71.7304 145.901 71.7429 145.895C71.7554 145.889 71.7966 145.878 71.7966 145.878H71.7984Z" fill="#070707"/>
<path d="M71.4406 146.579C71.4406 146.579 71.2349 148.066 71.5838 148.31C71.9327 148.555 78.9739 149.284 78.9739 149.284C78.9739 149.284 88.8263 149.744 89.483 149.688C90.1397 149.633 100.294 147.961 100.294 147.961C100.294 147.961 100.727 145.574 100.69 145.219C100.652 144.863 100.613 144.873 100.613 144.873C100.613 144.873 92.7164 146.915 91.3904 147.151C90.0645 147.388 74.7564 146.65 74.7564 146.65L71.4424 146.579H71.4406Z" fill="#3D3D3D"/>
<path d="M99.2763 146.733C99.2763 146.733 101.246 146.342 101.348 146.036C101.45 145.73 101.323 145.061 100.994 145.061C100.665 145.061 98.9739 145.552 98.9739 145.552L98.7896 145.613C98.4872 145.714 98.3029 146.062 98.3888 146.395C98.3888 146.401 98.3924 146.405 98.3924 146.411L98.532 146.94L99.2763 146.731V146.733Z" fill="white"/>
<path d="M91.0897 149.056C91.0897 149.056 93.0867 148.9 93.2173 148.606C93.3479 148.312 93.2871 147.633 92.9596 147.595C92.6339 147.556 90.9018 147.848 90.9018 147.848L90.7121 147.888C90.4008 147.951 90.1861 148.275 90.238 148.618C90.238 148.624 90.238 148.628 90.2398 148.634L90.3274 149.177L91.0879 149.056H91.0897Z" fill="white"/>
<path d="M99.1761 203.234C106.365 203.234 112.192 196.804 112.192 188.873C112.192 180.941 106.365 174.512 99.1761 174.512C91.9876 174.512 86.1602 180.941 86.1602 188.873C86.1602 196.804 91.9876 203.234 99.1761 203.234Z" fill="#393A38"/>
<path d="M97.8502 197.853C102.182 197.853 105.693 193.792 105.693 188.783C105.693 183.774 102.182 179.713 97.8502 179.713C93.5187 179.713 90.0073 183.774 90.0073 188.783C90.0073 193.792 93.5187 197.853 97.8502 197.853Z" fill="black"/>
<path d="M120.275 171.523L113.997 186.046C113.707 186.72 113.042 187.091 112.378 186.951L108.905 186.22C108.49 186.133 108.135 185.851 107.913 185.454C107.581 184.856 106.929 183.981 105.823 183.563C104.12 182.919 88.8333 177.778 87.7006 177.397C87.6559 177.381 87.613 177.365 87.57 177.346C86.704 176.953 86.3783 175.782 86.8972 174.923C87.3338 174.203 87.8187 173.433 88.1408 173.028C88.8476 172.135 92.4282 166.584 93.092 166.06C93.7971 165.504 95.9211 164.276 98.6499 164.556C101.379 164.834 105.117 163.65 108.856 164.521C112.594 165.391 120.781 168.179 120.931 168.848C121.082 169.518 120.275 171.523 120.275 171.523Z" fill="#81BB27"/>
<path d="M108.759 165.955C108.201 165.955 107.746 166.457 107.746 167.076C107.746 167.694 108.759 169.147 108.759 169.147C108.759 169.147 109.773 167.694 109.773 167.076C109.773 166.457 109.32 165.955 108.759 165.955ZM108.759 167.478C108.557 167.478 108.395 167.297 108.395 167.073C108.395 166.85 108.559 166.669 108.759 166.669C108.959 166.669 109.124 166.85 109.124 167.073C109.124 167.297 108.959 167.478 108.759 167.478Z" fill="white"/>
<path d="M102.142 177.032V173.407C102.126 173.333 102.121 173.254 102.09 173.184C102.052 173.103 101.995 173.035 101.923 172.986C101.845 172.933 101.761 172.891 101.675 172.861C101.649 172.852 101.622 172.845 101.597 172.838C101.573 172.835 101.55 172.833 101.527 172.828C101.527 172.828 101.523 172.828 101.521 172.828C101.498 172.828 101.474 172.828 101.451 172.824H99.2049V174.553H100.566V174.932C100.387 175.077 100.193 175.179 99.9824 175.239C99.7717 175.3 99.561 175.323 99.3482 175.307C99.1353 175.291 98.9288 175.232 98.7265 175.132C98.5263 175.032 98.3451 174.895 98.1849 174.719C98.0058 174.521 97.871 174.295 97.7782 174.042C97.6855 173.789 97.6392 173.533 97.6392 173.275C97.6392 173.017 97.6855 172.759 97.7782 172.507C97.871 172.254 98.0058 172.028 98.1849 171.831C98.3641 171.633 98.5685 171.484 98.796 171.384C99.0236 171.284 99.2554 171.236 99.4914 171.236C99.7275 171.236 99.9572 171.284 100.187 171.384C100.414 171.484 100.619 171.631 100.798 171.831L101.911 170.601C101.578 170.231 101.2 169.957 100.781 169.771C100.362 169.587 99.9319 169.494 99.4936 169.494C99.0552 169.494 98.6254 169.587 98.206 169.771C97.7867 169.955 97.4095 170.231 97.0765 170.601C96.7436 170.971 96.4949 171.387 96.3305 171.849C96.1662 172.314 96.084 172.789 96.084 173.272C96.084 173.756 96.1662 174.23 96.3305 174.691C96.4949 175.151 96.7436 175.567 97.0765 175.935C97.4095 176.304 97.7867 176.581 98.206 176.765C98.6254 176.948 99.0552 177.041 99.4936 177.041C99.6727 177.041 99.8539 177.025 100.035 176.995C100.216 176.965 100.395 176.916 100.568 176.846V177.03H102.145L102.142 177.032Z" fill="white"/>
<path d="M105.815 169.504C106.283 169.504 106.726 169.604 107.139 169.802C107.552 169.999 107.912 170.267 108.222 170.606C108.53 170.943 108.774 171.341 108.953 171.799C109.132 172.257 109.221 172.745 109.221 173.264C109.221 173.782 109.132 174.27 108.953 174.728C108.774 175.186 108.53 175.584 108.222 175.921C107.914 176.258 107.552 176.528 107.139 176.726C106.726 176.923 106.285 177.023 105.815 177.023C105.345 177.023 104.905 176.923 104.492 176.726C104.079 176.528 103.719 176.261 103.413 175.921C103.108 175.584 102.865 175.186 102.686 174.728C102.507 174.27 102.418 173.782 102.418 173.264C102.418 172.745 102.507 172.257 102.686 171.799C102.865 171.341 103.108 170.943 103.413 170.606C103.719 170.269 104.077 169.999 104.492 169.802C104.905 169.604 105.345 169.504 105.815 169.504ZM105.82 175.291C106.072 175.291 106.311 175.238 106.534 175.133C106.757 175.028 106.951 174.882 107.118 174.698C107.284 174.514 107.415 174.298 107.512 174.052C107.607 173.805 107.655 173.543 107.655 173.264C107.655 172.985 107.607 172.722 107.512 172.475C107.417 172.229 107.284 172.015 107.118 171.831C106.951 171.648 106.755 171.501 106.534 171.397C106.311 171.29 106.075 171.238 105.82 171.238C105.565 171.238 105.329 171.292 105.105 171.397C104.882 171.503 104.688 171.648 104.522 171.831C104.355 172.015 104.224 172.231 104.127 172.475C104.033 172.722 103.984 172.985 103.984 173.264C103.984 173.543 104.033 173.805 104.127 174.052C104.222 174.298 104.355 174.512 104.522 174.698C104.688 174.882 104.884 175.028 105.105 175.133C105.329 175.24 105.565 175.291 105.82 175.291Z" fill="white"/>
<path d="M99.6137 179.566C99.5294 179.515 99.4704 179.473 99.4388 179.436C99.3882 179.38 99.3629 179.313 99.3629 179.234C99.3629 179.155 99.3882 179.085 99.4388 179.029C99.4894 178.973 99.5505 178.945 99.6221 178.945C99.6938 178.945 99.7528 178.971 99.8012 179.024C99.8476 179.076 99.8687 179.134 99.8687 179.199V179.206L99.7823 179.243C99.7759 179.18 99.757 179.136 99.7296 179.103C99.7022 179.073 99.6664 179.057 99.62 179.057C99.5736 179.057 99.5378 179.073 99.5062 179.108C99.4746 179.143 99.4577 179.185 99.4577 179.234C99.4577 179.282 99.4725 179.324 99.5062 179.359C99.5252 179.38 99.5631 179.41 99.6221 179.452C99.7169 179.508 99.7823 179.559 99.8223 179.603C99.8855 179.673 99.915 179.757 99.915 179.852C99.915 179.947 99.8834 180.036 99.8223 180.106C99.7591 180.175 99.6832 180.21 99.5947 180.21C99.5062 180.21 99.4304 180.175 99.3671 180.106C99.3039 180.036 99.2744 179.959 99.2744 179.878L99.3735 179.85C99.3735 179.922 99.3945 179.98 99.4388 180.029C99.483 180.078 99.5357 180.101 99.5968 180.101C99.6579 180.101 99.7106 180.078 99.7549 180.029C99.7991 179.98 99.8202 179.922 99.8202 179.854C99.8202 179.787 99.7991 179.729 99.7549 179.682C99.7317 179.657 99.6832 179.617 99.6116 179.568L99.6137 179.566Z" fill="white"/>
<path d="M100.199 178.232H100.299V179.049C100.383 178.96 100.484 178.914 100.6 178.914C100.728 178.914 100.832 178.958 100.912 179.046C100.992 179.135 101.034 179.246 101.036 179.381V180.181H100.937V179.39C100.937 179.288 100.903 179.202 100.838 179.13C100.771 179.058 100.693 179.023 100.602 179.023C100.511 179.023 100.431 179.058 100.366 179.13C100.336 179.162 100.315 179.195 100.301 179.232V180.183H100.202V178.232H100.199Z" fill="white"/>
<path d="M102.537 180.181H102.437V179.937C102.419 179.965 102.397 179.993 102.374 180.019C102.256 180.149 102.113 180.214 101.944 180.214C101.776 180.214 101.635 180.149 101.517 180.019C101.399 179.888 101.34 179.73 101.34 179.547C101.34 179.363 101.399 179.202 101.517 179.072C101.635 178.942 101.778 178.877 101.944 178.877C102.111 178.877 102.254 178.942 102.374 179.072C102.397 179.098 102.419 179.126 102.437 179.154V178.984H102.537V180.181ZM102.437 179.654V179.437C102.419 179.33 102.372 179.235 102.301 179.154C102.204 179.044 102.086 178.991 101.946 178.991C101.807 178.991 101.689 179.044 101.592 179.154C101.496 179.261 101.445 179.393 101.445 179.544C101.445 179.695 101.493 179.828 101.592 179.935C101.689 180.042 101.807 180.095 101.946 180.095C102.086 180.095 102.204 180.042 102.301 179.933C102.374 179.851 102.421 179.758 102.437 179.651V179.654Z" fill="white"/>
<path d="M102.867 178.985H102.966V179.203C102.987 179.171 103.01 179.141 103.038 179.11C103.126 179.013 103.215 178.964 103.308 178.957V179.076C103.244 179.078 103.181 179.117 103.114 179.192C103.019 179.294 102.97 179.42 102.966 179.564V180.182H102.867V178.985Z" fill="white"/>
<path d="M103.691 178.591C103.71 178.612 103.721 178.638 103.721 178.668C103.721 178.698 103.71 178.724 103.691 178.747C103.672 178.768 103.649 178.779 103.622 178.779C103.594 178.779 103.571 178.768 103.552 178.747C103.533 178.726 103.523 178.7 103.523 178.668C103.523 178.635 103.533 178.612 103.552 178.591C103.571 178.57 103.594 178.559 103.622 178.559C103.649 178.559 103.672 178.57 103.691 178.591ZM103.67 178.984V180.181H103.571V178.984H103.67Z" fill="white"/>
<path d="M104.123 179.252V180.182H104.024V178.984H104.123V179.061C104.214 178.961 104.319 178.912 104.439 178.912C104.568 178.912 104.671 178.956 104.751 179.045C104.831 179.133 104.873 179.245 104.876 179.379V180.179H104.776V179.389C104.776 179.286 104.743 179.2 104.677 179.128C104.61 179.056 104.532 179.021 104.441 179.021C104.351 179.021 104.271 179.056 104.205 179.128C104.17 179.168 104.142 179.21 104.125 179.252H104.123Z" fill="white"/>
<path d="M106.27 179.944C106.251 179.97 106.233 179.995 106.211 180.019C106.093 180.149 105.95 180.214 105.782 180.214C105.613 180.214 105.472 180.149 105.354 180.019C105.236 179.888 105.177 179.73 105.177 179.547C105.177 179.363 105.236 179.202 105.354 179.072C105.472 178.942 105.615 178.877 105.782 178.877C105.948 178.877 106.091 178.942 106.211 179.072C106.235 179.098 106.256 179.126 106.275 179.154V178.984H106.374V179.914C106.374 180.093 106.317 180.246 106.201 180.374C106.083 180.504 105.94 180.57 105.773 180.57C105.607 180.57 105.463 180.504 105.343 180.374C105.318 180.346 105.297 180.318 105.278 180.291L105.383 180.249C105.394 180.263 105.406 180.277 105.419 180.291C105.516 180.398 105.634 180.453 105.773 180.453C105.912 180.453 106.028 180.4 106.127 180.291C106.216 180.193 106.264 180.077 106.273 179.942L106.27 179.944ZM106.273 179.433C106.254 179.328 106.207 179.235 106.136 179.156C106.039 179.047 105.921 178.993 105.782 178.993C105.642 178.993 105.524 179.047 105.428 179.156C105.331 179.263 105.28 179.395 105.28 179.547C105.28 179.698 105.328 179.83 105.428 179.937C105.524 180.044 105.642 180.1 105.782 180.1C105.921 180.1 106.039 180.046 106.136 179.937C106.207 179.858 106.251 179.767 106.273 179.663V179.43V179.433Z" fill="white"/>
<path d="M117.76 189.167C117.76 189.167 110.923 188.089 109.71 187.606C108.497 187.122 96.372 188.461 95.9676 188.385C95.5632 188.31 94.1495 188.087 94.0136 189.165C93.8776 190.243 93.9133 191.73 94.5182 191.767C95.1248 191.805 107.654 192.697 109.103 192.176C110.551 191.655 110.551 191.566 112.371 191.388C114.189 191.211 117.891 191.726 118.244 191.574C118.596 191.422 119.002 190.376 118.773 189.819C118.546 189.262 117.759 189.169 117.759 189.169L117.76 189.167Z" fill="#1E1E1D"/>
<path d="M95.1697 188.366C95.1697 188.366 94.7134 186.465 94.9657 186.241C95.218 186.018 95.4954 186.214 95.9248 185.6C96.3543 184.986 96.73 183.252 97.0396 181.977C97.3492 180.702 97.3939 180.67 97.3939 180.67L99.5877 181.414C99.5877 181.414 97.5907 184.737 97.2382 185.963C96.8857 187.189 97.0396 188.222 97.0396 188.222L97.0521 188.37H95.1697V188.366Z" fill="#1E1E1D"/>
<path d="M138.847 151.267L148.703 167.124C148.703 167.124 151.941 172.878 152.97 173.209C153.555 173.397 158.759 169.353 160.096 168.27C162.205 166.56 161.089 165.316 156.819 159.257C153.149 154.047 147.835 147.711 146.416 146.033C146.192 145.768 145.854 145.67 145.541 145.772C144.317 146.181 141.259 147.316 140.298 148.775C139.085 150.615 138.848 151.265 138.848 151.265L138.847 151.267Z" fill="#99DB26"/>
<path d="M163.361 209C171.141 209 177.447 202.041 177.447 193.458C177.447 184.874 171.141 177.916 163.361 177.916C155.582 177.916 149.275 184.874 149.275 193.458C149.275 202.041 155.582 209 163.361 209Z" fill="#393A38"/>
<path d="M163.361 203.273C168.048 203.273 171.848 198.879 171.848 193.459C171.848 188.039 168.048 183.645 163.361 183.645C158.674 183.645 154.874 188.039 154.874 193.459C154.874 198.879 158.674 203.273 163.361 203.273Z" fill="black"/>
<path d="M162.386 194.063L165.063 192.223L167.26 182.273C167.26 182.273 167.615 180.768 168.194 180.014C168.774 179.26 169.153 178.942 169.382 179.617C169.382 179.617 169.483 179.019 168.498 178.593C167.523 178.17 162.234 175.945 158.394 176.642C154.554 177.339 162.386 194.063 162.386 194.063Z" fill="#81BB27"/>
<path d="M153.681 177.52L155.452 181.471L156.214 181.023L154.217 176.391L152.938 173.264L152.28 174.371L153.681 177.52Z" fill="#B7C4B7"/>
<path d="M162.153 193.983L157.274 180.958C157.211 180.793 157.048 180.702 156.889 180.745C156.443 180.87 155.561 181.148 154.985 181.539C154.779 181.679 154.611 181.833 154.518 181.999C154.187 182.585 158.952 190.206 161.583 194.33C161.808 194.684 162.302 194.382 162.153 193.983Z" fill="#1E1E1D"/>
<path d="M126.799 145.217C126.75 145.275 126.648 145.217 126.647 145.452C126.645 145.687 126.57 145.867 126.421 145.745C126.273 145.622 126.146 145.314 126.201 145.233C126.249 145.162 126.795 145.211 126.799 145.219V145.217Z" fill="#D5C4BB"/>
<path d="M128.039 145.334C128.023 145.322 128.021 145.298 128.032 145.283C128.06 145.243 128.105 145.16 128.13 145.156C128.173 145.152 128.364 145.346 128.372 145.375C128.372 145.375 128.382 145.472 128.246 145.502L128.039 145.334Z" fill="#B7C4B7"/>
<path d="M129.143 145.978C129.143 145.978 129.238 145.775 129.291 145.842C129.345 145.909 129.486 146.079 129.477 146.142C129.468 146.205 129.463 146.262 129.409 146.254C129.356 146.246 129.145 145.98 129.145 145.98L129.143 145.978Z" fill="#B7C4B7"/>
<path d="M129.363 145.654C129.363 145.654 129.461 145.441 129.517 145.51C129.572 145.579 129.755 145.792 129.746 145.857C129.737 145.923 129.697 145.95 129.64 145.942C129.583 145.934 129.363 145.654 129.363 145.654Z" fill="#B7C4B7"/>
<path d="M132.767 128.943C132.767 128.943 133.307 129.072 133.205 129.806C133.103 130.541 132.249 131.853 131.872 132.033C131.494 132.213 131.117 131.958 131.117 131.958L132.768 128.943H132.767Z" fill="black"/>
<path d="M132.382 130.747C132.857 129.915 133.068 129.119 132.853 128.97C132.638 128.82 132.079 129.374 131.603 130.206C131.128 131.038 130.917 131.834 131.132 131.983C131.347 132.133 131.907 131.579 132.382 130.747Z" fill="white"/>
<path d="M132.344 131.563L133.169 136.073L133.382 137.522H133.677L132.535 131.293L132.344 131.563Z" fill="black"/>
<path d="M124.349 135.996C124.349 135.996 127.472 138.759 127.489 138.82C127.507 138.881 127.489 140.715 127.489 140.715H127.914V138.759L126.473 137.434L124.052 135.416L123.914 135.641L124.349 135.998V135.996Z" fill="black"/>
<path d="M122.76 136.393C123.739 136.393 124.533 135.485 124.533 134.366C124.533 133.246 123.739 132.338 122.76 132.338C121.781 132.338 120.987 133.246 120.987 134.366C120.987 135.485 121.781 136.393 122.76 136.393Z" fill="black"/>
<path d="M149.703 152.56C149.451 152.765 149.395 153.16 149.583 153.438C149.771 153.717 150.667 154.003 150.667 154.003C150.667 154.003 150.687 152.972 150.499 152.692C150.311 152.412 149.955 152.352 149.703 152.558V152.56ZM150.163 153.249C150.072 153.324 149.943 153.302 149.875 153.199C149.807 153.097 149.826 152.957 149.918 152.882C150.009 152.806 150.138 152.828 150.206 152.931C150.274 153.034 150.254 153.174 150.163 153.249Z" fill="white"/>
<path d="M150.054 160.005L148.958 158.364C148.928 158.337 148.903 158.303 148.867 158.283C148.826 158.26 148.78 158.25 148.733 158.254C148.681 158.258 148.631 158.269 148.583 158.287C148.568 158.293 148.554 158.299 148.54 158.305C148.529 158.313 148.517 158.319 148.506 158.327C148.506 158.327 148.506 158.327 148.504 158.329C148.493 158.337 148.483 158.345 148.472 158.352L147.455 159.18L147.978 159.963L148.593 159.462L148.708 159.634C148.67 159.764 148.613 159.882 148.536 159.987C148.459 160.092 148.372 160.181 148.27 160.25C148.168 160.321 148.057 160.37 147.937 160.4C147.817 160.429 147.692 160.433 147.566 160.412C147.425 160.388 147.296 160.337 147.178 160.256C147.06 160.175 146.962 160.076 146.883 159.959C146.804 159.843 146.749 159.709 146.713 159.561C146.679 159.413 146.672 159.261 146.693 159.105C146.715 158.949 146.761 158.806 146.834 158.678C146.908 158.55 146.997 158.441 147.105 158.356C147.212 158.271 147.33 158.208 147.464 158.169C147.599 158.129 147.735 158.121 147.876 158.145L148.008 157.18C147.745 157.136 147.491 157.148 147.246 157.219C147.001 157.29 146.777 157.407 146.58 157.567C146.384 157.727 146.215 157.928 146.081 158.165C145.947 158.404 145.859 158.666 145.82 158.957C145.781 159.247 145.793 159.525 145.859 159.796C145.925 160.066 146.031 160.311 146.178 160.53C146.325 160.749 146.503 160.933 146.718 161.081C146.931 161.229 147.169 161.326 147.432 161.369C147.695 161.413 147.949 161.401 148.194 161.33C148.44 161.259 148.661 161.142 148.86 160.982C148.941 160.917 149.018 160.842 149.091 160.761C149.164 160.68 149.229 160.593 149.288 160.498L149.343 160.581L150.055 160.003L150.054 160.005Z" fill="white"/>
<path d="M149.443 155.246C149.656 155.075 149.885 154.956 150.132 154.895C150.379 154.832 150.623 154.822 150.866 154.861C151.107 154.901 151.338 154.992 151.557 155.132C151.775 155.274 151.965 155.462 152.12 155.696C152.276 155.931 152.383 156.186 152.441 156.459C152.498 156.731 152.507 157.001 152.471 157.268C152.433 157.535 152.351 157.789 152.224 158.03C152.097 158.271 151.927 158.478 151.716 158.652C151.505 158.826 151.274 158.942 151.027 159.003C150.78 159.067 150.537 159.076 150.297 159.037C150.057 158.996 149.826 158.905 149.608 158.765C149.39 158.622 149.202 158.435 149.044 158.2C148.887 157.965 148.781 157.712 148.724 157.438C148.667 157.165 148.656 156.897 148.692 156.63C148.728 156.366 148.81 156.111 148.937 155.87C149.064 155.629 149.234 155.422 149.447 155.248L149.443 155.246ZM151.193 157.864C151.308 157.771 151.399 157.659 151.469 157.531C151.537 157.4 151.582 157.264 151.601 157.12C151.621 156.976 151.616 156.83 151.585 156.684C151.555 156.538 151.496 156.401 151.412 156.273C151.328 156.145 151.226 156.046 151.109 155.969C150.991 155.894 150.868 155.845 150.737 155.821C150.606 155.799 150.474 155.805 150.342 155.839C150.209 155.872 150.086 155.935 149.971 156.03C149.857 156.125 149.765 156.235 149.696 156.364C149.628 156.494 149.583 156.63 149.563 156.776C149.544 156.921 149.549 157.067 149.579 157.213C149.61 157.359 149.669 157.495 149.753 157.623C149.837 157.752 149.939 157.852 150.055 157.927C150.173 158.004 150.297 158.052 150.427 158.076C150.558 158.097 150.691 158.091 150.823 158.058C150.955 158.024 151.079 157.961 151.193 157.868V157.864Z" fill="white"/>
<path d="M149.676 162.082C149.622 162.09 149.583 162.092 149.558 162.088C149.519 162.082 149.486 162.06 149.463 162.025C149.44 161.989 149.429 161.948 149.436 161.904C149.442 161.861 149.461 161.826 149.494 161.798C149.526 161.77 149.562 161.76 149.597 161.768C149.633 161.774 149.662 161.792 149.681 161.822H149.683L149.656 161.873C149.635 161.847 149.612 161.833 149.59 161.829C149.569 161.826 149.547 161.831 149.528 161.849C149.508 161.867 149.495 161.887 149.492 161.914C149.488 161.942 149.492 161.966 149.508 161.989C149.524 162.013 149.542 162.025 149.567 162.029C149.581 162.031 149.608 162.031 149.647 162.029C149.706 162.021 149.753 162.019 149.783 162.023C149.834 162.031 149.873 162.058 149.902 162.102C149.93 162.145 149.943 162.197 149.936 162.25C149.928 162.305 149.905 162.349 149.864 162.38C149.823 162.412 149.778 162.426 149.73 162.416C149.68 162.408 149.644 162.384 149.619 162.347L149.655 162.297C149.676 162.329 149.705 162.349 149.739 162.355C149.773 162.361 149.803 162.353 149.832 162.329C149.86 162.305 149.876 162.276 149.882 162.238C149.887 162.201 149.88 162.165 149.859 162.135C149.837 162.106 149.81 162.086 149.776 162.08C149.758 162.076 149.724 162.078 149.678 162.08L149.676 162.082Z" fill="white"/>
<path d="M149.538 161.262L149.583 161.227L149.83 161.596C149.841 161.525 149.873 161.467 149.927 161.424C149.984 161.377 150.045 161.359 150.107 161.369C150.17 161.379 150.224 161.414 150.265 161.475L150.506 161.839L150.462 161.874L150.222 161.517C150.191 161.471 150.15 161.444 150.098 161.436C150.047 161.428 150 161.44 149.959 161.473C149.918 161.507 149.893 161.552 149.884 161.608C149.88 161.633 149.88 161.657 149.884 161.679L150.172 162.109L150.127 162.145L149.538 161.262Z" fill="white"/>
<path d="M151.185 161.287L151.14 161.323L151.066 161.212C151.066 161.232 151.066 161.252 151.063 161.271C151.049 161.374 151.004 161.457 150.929 161.518C150.854 161.579 150.769 161.603 150.676 161.587C150.583 161.571 150.508 161.522 150.453 161.439C150.397 161.356 150.376 161.261 150.39 161.159C150.404 161.056 150.449 160.973 150.524 160.912C150.599 160.851 150.685 160.827 150.778 160.843C150.796 160.847 150.814 160.851 150.832 160.857L150.78 160.78L150.825 160.744L151.186 161.285L151.185 161.287ZM150.981 161.086L150.914 160.987C150.873 160.946 150.825 160.92 150.766 160.91C150.689 160.896 150.619 160.916 150.556 160.967C150.494 161.019 150.456 161.086 150.446 161.171C150.433 161.255 150.451 161.332 150.497 161.402C150.544 161.471 150.605 161.512 150.682 161.524C150.759 161.536 150.828 161.518 150.891 161.467C150.954 161.415 150.991 161.348 151.002 161.263C151.011 161.2 151.002 161.141 150.979 161.086H150.981Z" fill="white"/>
<path d="M150.973 160.623L151.018 160.587L151.084 160.686C151.084 160.664 151.084 160.641 151.088 160.617C151.098 160.542 151.124 160.485 151.163 160.449L151.199 160.503C151.172 160.526 151.154 160.568 151.145 160.627C151.134 160.708 151.149 160.783 151.192 160.85L151.378 161.13L151.333 161.166L150.971 160.625L150.973 160.623Z" fill="white"/>
<path d="M151.226 160.141C151.24 160.143 151.253 160.151 151.261 160.165C151.27 160.179 151.274 160.194 151.272 160.21C151.27 160.226 151.261 160.24 151.251 160.25C151.24 160.26 151.224 160.264 151.21 160.262C151.193 160.26 151.183 160.252 151.172 160.238C151.161 160.224 151.159 160.208 151.161 160.192C151.163 160.177 151.172 160.163 151.183 160.153C151.193 160.143 151.21 160.139 151.224 160.141H151.226ZM151.335 160.327L151.696 160.868L151.652 160.903L151.29 160.362L151.335 160.327Z" fill="white"/>
<path d="M151.621 160.281L151.902 160.702L151.857 160.738L151.496 160.197L151.541 160.161L151.564 160.197C151.575 160.118 151.607 160.056 151.662 160.013C151.72 159.966 151.78 159.948 151.843 159.958C151.906 159.968 151.958 160.003 152 160.064L152.242 160.428L152.197 160.463L151.958 160.106C151.927 160.06 151.886 160.033 151.834 160.025C151.782 160.017 151.736 160.029 151.694 160.062C151.653 160.096 151.628 160.141 151.619 160.197C151.616 160.228 151.616 160.256 151.619 160.281H151.621Z" fill="white"/>
<path d="M152.802 159.806C152.802 159.824 152.8 159.843 152.798 159.861C152.784 159.964 152.739 160.047 152.664 160.108C152.589 160.169 152.505 160.193 152.412 160.177C152.319 160.161 152.244 160.112 152.188 160.029C152.133 159.946 152.111 159.851 152.126 159.749C152.14 159.646 152.185 159.565 152.26 159.502C152.335 159.439 152.421 159.417 152.512 159.433C152.53 159.437 152.548 159.441 152.566 159.447L152.514 159.37L152.559 159.334L152.84 159.755C152.893 159.835 152.915 159.926 152.9 160.027C152.886 160.13 152.841 160.213 152.766 160.274C152.691 160.335 152.605 160.359 152.512 160.343C152.492 160.339 152.475 160.335 152.457 160.329L152.491 160.272C152.5 160.274 152.51 160.276 152.519 160.278C152.596 160.292 152.666 160.272 152.729 160.22C152.791 160.169 152.827 160.102 152.84 160.017C152.85 159.94 152.838 159.869 152.8 159.806H152.802ZM152.648 159.573C152.607 159.533 152.559 159.508 152.503 159.498C152.426 159.484 152.356 159.504 152.294 159.555C152.231 159.606 152.194 159.674 152.183 159.758C152.17 159.843 152.188 159.92 152.235 159.989C152.281 160.059 152.342 160.1 152.419 160.112C152.496 160.126 152.566 160.106 152.628 160.055C152.691 160.003 152.729 159.936 152.739 159.851C152.748 159.79 152.739 159.731 152.718 159.678L152.648 159.573Z" fill="white"/>
<path d="M128.708 136.173C128.708 136.173 131.156 137.466 131.131 138.011C131.106 138.556 129.653 139.518 129.018 139.776C128.264 140.082 127.796 139.962 127.74 140.268C127.719 140.386 127.758 140.44 127.76 140.522C127.763 140.637 127.851 140.724 127.953 140.714C128.309 140.678 129.078 140.359 129.342 140.234C129.635 140.096 131.245 139.138 131.496 138.319C131.704 137.644 131.367 137.31 130.46 136.412C129.553 135.514 129.32 135.152 129.32 135.152L128.71 136.173H128.708Z" fill="black"/>
<path d="M128.393 132.822H130.066C130.338 132.822 130.512 133.136 130.378 133.393L128.241 137.505C128.152 137.677 127.955 137.748 127.786 137.669L126.5 137.067C126.308 136.978 126.23 136.731 126.328 136.534L128.078 133.024C128.141 132.899 128.261 132.82 128.393 132.82V132.822Z" fill="#99DB26"/>
<path d="M128.676 132.895H130.073C130.408 132.895 130.619 133.291 130.456 133.613L128.515 137.455C128.406 137.672 128.164 137.763 127.956 137.663L126.886 137.149C126.652 137.037 126.554 136.727 126.675 136.478L128.289 133.151C128.366 132.993 128.515 132.897 128.676 132.897V132.895Z" fill="black"/>
<path d="M129.912 139.727C129.912 139.727 130.399 137.597 131.419 136.634C132.439 135.67 133.364 135.141 133.842 135.881L134.305 137.135C134.305 137.135 132.079 138.511 131.514 138.914C130.948 139.317 129.96 139.86 129.96 139.86L129.912 139.727Z" fill="#1E1E1E"/>
<path d="M134.024 137.189L133.559 135.929C133.541 135.878 133.494 135.848 133.444 135.854C133.249 135.878 132.768 135.973 132.55 136.35C132.532 136.381 132.53 136.425 132.543 136.46L133.029 137.779C133.054 137.846 133.128 137.876 133.185 137.838L133.974 137.339C134.022 137.309 134.042 137.244 134.021 137.189H134.024Z" fill="white"/>
<path d="M135.164 136.639C135.164 136.639 136.673 135.529 136.893 135.533C137.113 135.537 137.68 135.662 137.419 136.236L135.93 137.735L134.481 138.949L134.191 137.74L134.303 137.115L135.164 136.637V136.639Z" fill="black"/>
<ellipse opacity="0.7" cx="97.8694" cy="203.795" rx="12.2425" ry="0.98468" fill="url(#paint0_radial_16546_58529)"/>
<ellipse opacity="0.7" cx="164.625" cy="209.067" rx="12.2425" ry="0.98468" fill="url(#paint1_radial_16546_58529)"/>
</g>
<path opacity="0.6" d="M123.48 146.195L215.861 149.933C215.27 146.887 219.678 136.152 219.063 127.934C218.447 119.715 217.237 112.483 219.063 106.934L187.964 119.433L123.48 146.195Z" fill="#81BB27"/>
<path d="M300.425 115.5C300.425 147.023 277.061 172.5 248.332 172.5C219.603 172.5 196.239 147.023 196.239 115.5C196.239 83.9769 219.603 58.5 248.332 58.5C277.061 58.5 300.425 83.9769 300.425 115.5Z" fill="#F3F3F3" stroke="#CCCDD0"/>
<path d="M239.214 84.4277H238.791C238.287 84.4277 237.878 84.836 237.878 85.3397V92.5007C237.878 93.0044 238.287 93.4127 238.791 93.4127H239.214C239.718 93.4127 240.126 93.0044 240.126 92.5007V85.3397C240.126 84.836 239.718 84.4277 239.214 84.4277Z" fill="#231F20"/>
<path d="M280.026 83H239.483V83.9434C240.238 83.9434 240.854 84.5589 240.854 85.3181V92.4521C240.854 93.2114 240.243 93.8223 239.483 93.8268V94.7702H246.298C248.707 94.7702 251.022 95.7226 252.74 97.4163L256.349 100.988C259.249 103.854 263.16 105.462 267.237 105.462H280.022C282.22 105.462 284 103.683 284 101.486V86.9803C284.009 84.7835 282.224 83 280.026 83Z" fill="#231F20"/>
<path d="M249.76 106.766H227.67C226.322 106.766 225.229 107.858 225.229 109.205V117.804C225.229 119.151 226.322 120.243 227.67 120.243H249.76C251.108 120.243 252.201 119.151 252.201 117.804V109.205C252.201 107.858 251.108 106.766 249.76 106.766Z" fill="#2B2D33"/>
<path d="M245.457 106.766H231.971V120.243H245.457V106.766Z" fill="#231F20"/>
<path d="M280.026 83H239.483V83.9434C240.216 83.9434 240.805 84.5229 240.845 85.2462H277.374C279.572 85.2462 281.352 86.6703 281.352 88.4314V100.022C281.352 101.778 279.572 103.203 277.378 103.207L265.061 103.221C262.018 103.221 259.069 102.511 256.561 101.194C259.438 103.93 263.254 105.467 267.232 105.467H280.017C282.215 105.467 283.995 103.688 283.995 101.491V86.9803C284 84.7835 282.22 83 280.017 83H280.026Z" fill="#2B2D33"/>
<path d="M197.978 83H238.521V83.9434C237.766 83.9434 237.15 84.5589 237.15 85.3181V92.4521C237.15 93.2114 237.762 93.8223 238.521 93.8268V94.7702H231.707C229.297 94.7702 226.982 95.7226 225.265 97.4163L221.655 100.988C218.756 103.854 214.845 105.462 210.767 105.462H197.983C195.785 105.462 194.004 103.683 194 101.486V86.9803C194 84.7835 195.78 83 197.978 83Z" fill="#231F20"/>
<path d="M197.978 83H238.521V83.9434C237.789 83.9434 237.2 84.5229 237.159 85.2462H200.631C198.432 85.2462 196.652 86.6703 196.652 88.4314V100.022C196.652 101.778 198.432 103.203 200.626 103.207L212.943 103.221C215.987 103.221 218.935 102.511 221.444 101.194C218.567 103.93 214.75 105.467 210.772 105.467H197.983C195.785 105.462 194.004 103.683 194 101.486V86.9803C194 84.7835 195.78 83 197.978 83Z" fill="#2B2D33"/>
<path d="M239.214 133.445H238.791C238.287 133.445 237.878 133.854 237.878 134.357V141.518C237.878 142.022 238.287 142.43 238.791 142.43H239.214C239.718 142.43 240.126 142.022 240.126 141.518V134.357C240.126 133.854 239.718 133.445 239.214 133.445Z" fill="#231F20"/>
<path d="M280.026 143.857H239.483V142.913C240.238 142.913 240.854 142.298 240.854 141.539V134.405C240.854 133.645 240.243 133.034 239.483 133.03V132.087H246.298C248.707 132.087 251.022 131.134 252.74 129.441L256.349 125.869C259.249 123.003 263.16 121.395 267.237 121.395H280.022C282.22 121.395 284 123.174 284 125.37V139.877C284.004 142.073 282.224 143.857 280.022 143.857H280.026Z" fill="#231F20"/>
<path fill-rule="evenodd" clip-rule="evenodd" d="M274.008 125.407C274.158 125.604 274.12 125.886 273.923 126.036L255.043 140.412C254.845 140.562 254.563 140.524 254.413 140.327C254.262 140.13 254.3 139.848 254.498 139.697L273.378 125.321C273.575 125.171 273.857 125.209 274.008 125.407Z" fill="white"/>
<path d="M280.026 143.859H239.483V142.916C240.216 142.916 240.805 142.336 240.845 141.613H277.374C279.572 141.613 281.352 140.189 281.352 138.428V126.837C281.352 125.081 279.572 123.657 277.378 123.652L265.061 123.639C262.018 123.639 259.069 124.349 256.561 125.665C259.438 122.929 263.254 121.393 267.232 121.393H280.017C282.215 121.393 283.995 123.172 283.995 125.368V139.875C284 142.071 282.22 143.855 280.017 143.855L280.026 143.859Z" fill="#2B2D33"/>
<path d="M197.978 143.857H238.521V142.913C237.766 142.913 237.15 142.298 237.15 141.539V134.405C237.15 133.645 237.762 133.034 238.521 133.03V132.087H231.707C229.297 132.087 226.982 131.134 225.265 129.441L221.655 125.869C218.756 123.003 214.845 121.395 210.767 121.395H197.983C195.785 121.395 194.005 123.174 194 125.37V139.877C193.996 142.073 195.776 143.857 197.978 143.857Z" fill="#231F20"/>
<g clip-path="url(#clip5_16546_58529)">
<path fill-rule="evenodd" clip-rule="evenodd" d="M207.289 125.703C206.92 124.966 205.869 124.966 205.5 125.703L198.736 139.231C198.404 139.896 198.887 140.678 199.631 140.678H213.158C213.902 140.678 214.385 139.896 214.053 139.231L207.289 125.703ZM203.711 124.809C204.817 122.598 207.972 122.598 209.078 124.809L215.842 138.337C216.839 140.331 215.389 142.678 213.158 142.678H199.631C197.4 142.678 195.95 140.331 196.947 138.337L203.711 124.809Z" fill="white"/>
<path fill-rule="evenodd" clip-rule="evenodd" d="M206.395 129.678C206.947 129.678 207.395 130.125 207.395 130.678V134.678C207.395 135.23 206.947 135.678 206.395 135.678C205.842 135.678 205.395 135.23 205.395 134.678V130.678C205.395 130.125 205.842 129.678 206.395 129.678Z" fill="white"/>
<path d="M207.395 137.678C207.395 138.23 206.947 138.678 206.395 138.678C205.842 138.678 205.395 138.23 205.395 137.678C205.395 137.125 205.842 136.678 206.395 136.678C206.947 136.678 207.395 137.125 207.395 137.678Z" fill="white"/>
<path fill-rule="evenodd" clip-rule="evenodd" d="M206.395 138.678C206.947 138.678 207.395 138.23 207.395 137.678C207.395 137.125 206.947 136.678 206.395 136.678C205.842 136.678 205.395 137.125 205.395 137.678C205.395 138.23 205.842 138.678 206.395 138.678Z" fill="white"/>
</g>
<path d="M197.978 143.859H238.521V142.916C237.789 142.916 237.2 142.336 237.159 141.613H200.631C198.432 141.613 196.652 140.189 196.652 138.428V126.837C196.652 125.081 198.432 123.657 200.626 123.652L212.943 123.639C215.987 123.639 218.935 124.349 221.444 125.665C218.567 122.929 214.75 121.393 210.772 121.393H197.983C195.785 121.397 194.005 123.176 194 125.373V139.879C193.996 142.076 195.776 143.859 197.978 143.859Z" fill="#2B2D33"/>
<path d="M211.244 95.8604V92.0651H209.957V91.1738H213.596V92.0651H212.309V95.8604H211.244Z" fill="white"/>
<path d="M206.391 95.8604V91.1738H209.325V92.0651H207.448V93.0068H209.045V93.8909H207.448V94.9691H209.397V95.8604H206.391Z" fill="white"/>
<path d="M203.825 95.945C203.518 95.945 203.211 95.8875 202.904 95.7725C202.602 95.6575 202.331 95.4897 202.092 95.2693L202.696 94.5433C202.864 94.6871 203.051 94.8045 203.257 94.8955C203.463 94.9866 203.662 95.0321 203.854 95.0321C204.074 95.0321 204.237 94.9914 204.343 94.9099C204.453 94.8285 204.508 94.7182 204.508 94.5793C204.508 94.4307 204.446 94.3229 204.321 94.2558C204.201 94.1839 204.038 94.1049 203.832 94.0186L203.221 93.7598C203.063 93.6928 202.911 93.6041 202.768 93.4939C202.624 93.3789 202.506 93.2375 202.415 93.0698C202.324 92.9021 202.279 92.7056 202.279 92.4804C202.279 92.2216 202.348 91.9868 202.487 91.776C202.631 91.5651 202.828 91.3974 203.077 91.2728C203.331 91.1482 203.621 91.0859 203.947 91.0859C204.216 91.0859 204.484 91.1386 204.753 91.2441C205.021 91.3495 205.256 91.5028 205.458 91.7041L204.918 92.3726C204.765 92.2528 204.611 92.1617 204.458 92.0994C204.304 92.0323 204.134 91.9988 203.947 91.9988C203.765 91.9988 203.619 92.0371 203.508 92.1138C203.403 92.1857 203.35 92.2887 203.35 92.4229C203.35 92.5667 203.417 92.6745 203.552 92.7464C203.691 92.8182 203.861 92.8949 204.062 92.9764L204.666 93.2208C204.949 93.3358 205.175 93.4939 205.343 93.6952C205.51 93.8964 205.594 94.1624 205.594 94.493C205.594 94.7518 205.525 94.9914 205.386 95.2118C205.247 95.4322 205.045 95.6095 204.782 95.7437C204.518 95.8779 204.199 95.945 203.825 95.945Z" fill="white"/>
<path fill-rule="evenodd" clip-rule="evenodd" d="M272.235 134.023C270.822 134.023 269.673 135.174 269.673 136.598C269.673 137.308 269.96 137.951 270.426 138.418C270.601 138.594 270.6 138.879 270.424 139.054C270.248 139.229 269.964 139.228 269.788 139.052C269.163 138.424 268.774 137.555 268.774 136.598C268.774 134.682 270.322 133.125 272.235 133.125C274.149 133.125 275.697 134.682 275.697 136.598C275.697 137.558 275.309 138.427 274.682 139.053C274.535 139.201 274.288 139.429 274.085 139.615C273.981 139.709 273.887 139.795 273.819 139.856C273.784 139.887 273.756 139.912 273.737 139.93L273.707 139.957C273.522 140.122 273.238 140.107 273.072 139.922C272.906 139.737 272.922 139.453 273.107 139.288L273.136 139.261C273.155 139.244 273.182 139.22 273.216 139.189C273.284 139.128 273.377 139.044 273.478 138.952C273.683 138.764 273.915 138.549 274.045 138.418L274.046 138.417C274.51 137.954 274.798 137.312 274.798 136.598C274.798 135.174 273.649 134.023 272.235 134.023Z" fill="white"/>
<path fill-rule="evenodd" clip-rule="evenodd" d="M273.407 137.83C273.656 137.83 273.857 138.031 273.857 138.279V139.174H274.746C274.994 139.174 275.196 139.375 275.196 139.623C275.196 139.871 274.994 140.073 274.746 140.073H273.407C273.159 140.073 272.958 139.871 272.958 139.623V138.279C272.958 138.031 273.159 137.83 273.407 137.83Z" fill="white"/>
<path fill-rule="evenodd" clip-rule="evenodd" d="M265.795 133.755C265.889 133.525 266.151 133.414 266.381 133.508L279.58 138.857C279.81 138.95 279.921 139.212 279.828 139.442C279.735 139.672 279.472 139.783 279.242 139.689L266.043 134.34C265.813 134.247 265.702 133.985 265.795 133.755Z" fill="white"/>
<path fill-rule="evenodd" clip-rule="evenodd" d="M279.828 133.406C279.921 133.636 279.81 133.898 279.58 133.991L266.381 139.336C266.151 139.43 265.888 139.319 265.795 139.089C265.702 138.859 265.813 138.597 266.043 138.504L279.242 133.158C279.473 133.065 279.735 133.176 279.828 133.406Z" fill="white"/>
<path fill-rule="evenodd" clip-rule="evenodd" d="M259.96 126.576C258.537 126.576 257.384 127.729 257.384 129.151C257.384 129.86 257.672 130.503 258.14 130.97C258.315 131.146 258.315 131.43 258.14 131.606C257.964 131.781 257.679 131.781 257.504 131.606C256.875 130.977 256.485 130.109 256.485 129.151C256.485 127.233 258.041 125.678 259.96 125.678C261.879 125.678 263.435 127.233 263.435 129.151C263.435 130.111 263.045 130.981 262.416 131.606C262.268 131.754 262.02 131.982 261.815 132.168C261.712 132.263 261.617 132.348 261.548 132.41C261.514 132.441 261.486 132.466 261.466 132.483L261.436 132.51C261.251 132.675 260.966 132.659 260.801 132.474C260.636 132.289 260.652 132.005 260.838 131.84L260.867 131.813C260.886 131.797 260.913 131.772 260.947 131.741C261.015 131.68 261.109 131.596 261.21 131.504C261.417 131.316 261.65 131.101 261.78 130.97L261.781 130.969C262.248 130.506 262.536 129.864 262.536 129.151C262.536 127.729 261.383 126.576 259.96 126.576Z" fill="white"/>
<path fill-rule="evenodd" clip-rule="evenodd" d="M261.137 130.383C261.385 130.383 261.586 130.584 261.586 130.832V131.727H262.482C262.73 131.727 262.931 131.928 262.931 132.176C262.931 132.424 262.73 132.625 262.482 132.625H261.137C260.889 132.625 260.687 132.424 260.687 132.176V130.832C260.687 130.584 260.889 130.383 261.137 130.383Z" fill="white"/>
<defs>
<radialGradient id="paint0_radial_16546_58529" cx="0" cy="0" r="1" gradientUnits="userSpaceOnUse" gradientTransform="translate(97.8694 203.795) rotate(90) scale(0.98468 12.2425)">
<stop/>
<stop offset="1" stop-color="#D9D9D9" stop-opacity="0"/>
</radialGradient>
<radialGradient id="paint1_radial_16546_58529" cx="0" cy="0" r="1" gradientUnits="userSpaceOnUse" gradientTransform="translate(164.625 209.067) rotate(90) scale(0.98468 12.2425)">
<stop/>
<stop offset="1" stop-color="#D9D9D9" stop-opacity="0"/>
</radialGradient>
<clipPath id="clip0_16546_58529">
<rect width="12.874" height="14.0464" fill="white" transform="translate(39.9121 43.0723)"/>
</clipPath>
<clipPath id="clip1_16546_58529">
<rect width="8.44856" height="11.4127" fill="white" transform="translate(34.2793 64.582)"/>
</clipPath>
<clipPath id="clip2_16546_58529">
<rect width="4.82775" height="2.63676" fill="white" transform="translate(32.2678 52.3809)"/>
</clipPath>
<clipPath id="clip3_16546_58529">
<rect width="4.82775" height="3.16411" fill="white" transform="translate(32.2678 45.7051)"/>
</clipPath>
<clipPath id="clip4_16546_58529">
<rect width="106.101" height="101" fill="white" transform="translate(71.344 108)"/>
</clipPath>
<clipPath id="clip5_16546_58529">
<rect width="14.385" height="14.3759" fill="white" transform="translate(199.395 125.678)"/>
</clipPath>
</defs>
</svg>
