<svg width="343" height="233" viewBox="0 0 343 233" fill="none" xmlns="http://www.w3.org/2000/svg">
<path d="M171.5 225.915C256.114 225.915 324.707 218.994 324.707 210.457C324.707 201.921 256.114 195 171.5 195C86.8862 195 18.2932 201.921 18.2932 210.457C18.2932 218.994 86.8862 225.915 171.5 225.915Z" fill="#F3F3F3"/>
<path d="M250.255 209.418H192.781V211.845H250.255V209.418Z" fill="#F2F2F2"/>
<path d="M158.152 209.244H100.678V211.671H158.152V209.244Z" fill="#F2F2F2"/>
<path d="M210.677 43.5469H160.067V165.236H210.677V43.5469Z" fill="#E9E9E9"/>
<path d="M180.915 63.952H169.147C168.645 63.952 168.143 63.4033 168.143 62.8547V52.9273C168.143 52.3787 168.645 51.8301 169.147 51.8301H180.915C181.417 51.8301 181.919 52.3787 181.919 52.9273V62.8547C181.919 63.4033 181.417 63.952 180.915 63.952Z" fill="white"/>
<path d="M200.079 63.952H188.311C187.809 63.952 187.307 63.4033 187.307 62.8547V52.9273C187.307 52.3787 187.809 51.8301 188.311 51.8301H200.079C200.581 51.8301 201.083 52.3787 201.083 52.9273V62.8547C201.083 63.4033 200.581 63.952 200.079 63.952Z" fill="white"/>
<path d="M180.915 81.0359H169.147C168.645 81.0359 168.143 80.4873 168.143 79.9387V70.0113C168.143 69.4627 168.645 68.9141 169.147 68.9141H180.915C181.417 68.9141 181.919 69.4627 181.919 70.0113V79.9387C181.919 80.4873 181.417 81.0359 180.915 81.0359Z" fill="white"/>
<path d="M200.079 81.0359H188.311C187.809 81.0359 187.307 80.4873 187.307 79.9387V70.0113C187.307 69.4627 187.809 68.9141 188.311 68.9141H200.079C200.581 68.9141 201.083 69.4627 201.083 70.0113V79.9387C201.083 80.4873 200.581 81.0359 200.079 81.0359Z" fill="white"/>
<path d="M181.25 98.3172H169.481C168.98 98.3172 168.478 97.7686 168.478 97.22V87.2925C168.478 86.7439 168.98 86.1953 169.481 86.1953H181.25C181.752 86.1953 182.253 86.7439 182.253 87.2925V97.22C182.253 97.9514 181.919 98.3172 181.25 98.3172Z" fill="white"/>
<path d="M200.414 98.3172H188.646C188.144 98.3172 187.642 97.7686 187.642 97.22V87.2925C187.642 86.7439 188.144 86.1953 188.646 86.1953H200.414C200.916 86.1953 201.418 86.7439 201.418 87.2925V97.22C201.418 97.9514 201.083 98.3172 200.414 98.3172Z" fill="white"/>
<path d="M181.752 116.71H169.983C169.481 116.71 168.979 116.161 168.979 115.613V105.685C168.979 105.137 169.481 104.588 169.983 104.588H181.752C182.253 104.588 182.755 105.137 182.755 105.685V115.613C182.755 116.161 182.253 116.71 181.752 116.71Z" fill="white"/>
<path d="M200.916 116.71H189.147C188.646 116.71 188.144 116.161 188.144 115.613V105.685C188.144 105.137 188.646 104.588 189.147 104.588H200.916C201.418 104.588 201.919 105.137 201.919 105.685V115.613C201.919 116.161 201.418 116.71 200.916 116.71Z" fill="white"/>
<path d="M181.752 133.612H169.983C169.481 133.612 168.979 133.063 168.979 132.515V122.587C168.979 122.039 169.481 121.49 169.983 121.49H181.752C182.253 121.49 182.755 122.039 182.755 122.587V132.515C182.755 133.063 182.253 133.612 181.752 133.612Z" fill="white"/>
<path d="M200.916 133.612H189.147C188.646 133.612 188.144 133.063 188.144 132.515V122.587C188.144 122.039 188.646 121.49 189.147 121.49H200.916C201.418 121.49 201.919 122.039 201.919 122.587V132.515C201.919 133.063 201.418 133.612 200.916 133.612Z" fill="white"/>
<path d="M193.52 140.234H175.359V165.419H193.52V140.234Z" fill="white"/>
<path d="M160.067 43.5476L183.604 25.9004L210.677 43.5476H160.067Z" fill="#BBBCBC"/>
<path d="M280.727 28.709H212.637V192.681H280.727V28.709Z" fill="#E9E9E9"/>
<path d="M241.216 56.2838H224.572C224.071 56.2838 223.569 55.7351 223.569 55.1865V41.0269C223.569 40.4783 224.071 39.9297 224.572 39.9297H241.216C241.717 39.9297 242.219 40.4783 242.219 41.0269V55.1865C242.219 55.7351 241.717 56.2838 241.216 56.2838Z" fill="white"/>
<path d="M266.951 56.2838H250.308C249.806 56.2838 249.304 55.7351 249.304 55.1865V41.0269C249.304 40.4783 249.806 39.9297 250.308 39.9297H266.951C267.453 39.9297 267.955 40.4783 267.955 41.0269V55.1865C267.955 55.7351 267.453 56.2838 266.951 56.2838Z" fill="white"/>
<path d="M241.216 79.2603H224.572C224.071 79.2603 223.569 78.7117 223.569 78.1631V64.0035C223.569 63.4549 224.071 62.9062 224.572 62.9062H241.216C241.717 62.9062 242.219 63.4549 242.219 64.0035V78.1631C242.219 78.7117 241.717 79.2603 241.216 79.2603Z" fill="white"/>
<path d="M266.951 79.2603H250.308C249.806 79.2603 249.304 78.7117 249.304 78.1631V64.0035C249.304 63.4549 249.806 62.9062 250.308 62.9062H266.951C267.453 62.9062 267.955 63.4549 267.955 64.0035V78.1631C267.955 78.7117 267.453 79.2603 266.951 79.2603Z" fill="white"/>
<path d="M241.73 102.616H225.086C224.585 102.616 224.083 102.067 224.083 101.519V87.359C224.083 86.8103 224.585 86.2617 225.086 86.2617H241.73C242.231 86.2617 242.733 86.8103 242.733 87.359V101.519C242.733 102.25 242.231 102.616 241.73 102.616Z" fill="white"/>
<path d="M267.453 102.616H250.81C250.308 102.616 249.806 102.067 249.806 101.519V87.359C249.806 86.8103 250.308 86.2617 250.81 86.2617H267.453C267.954 86.2617 268.456 86.8103 268.456 87.359V101.519C268.456 102.25 268.122 102.616 267.453 102.616Z" fill="white"/>
<path d="M242.231 127.237H225.588C225.086 127.237 224.584 126.688 224.584 126.14V111.98C224.584 111.431 225.086 110.883 225.588 110.883H242.231C242.733 110.883 243.235 111.431 243.235 111.98V126.14C243.235 126.688 242.9 127.237 242.231 127.237Z" fill="white"/>
<path d="M268.122 127.237H251.479C250.977 127.237 250.475 126.688 250.475 126.14V111.98C250.475 111.431 250.977 110.883 251.479 110.883H268.122C268.624 110.883 269.125 111.431 269.125 111.98V126.14C269.125 126.688 268.624 127.237 268.122 127.237Z" fill="white"/>
<path d="M242.231 150.032H225.588C225.086 150.032 224.584 149.483 224.584 148.935V134.775C224.584 134.226 225.086 133.678 225.588 133.678H242.231C242.733 133.678 243.235 134.226 243.235 134.775V148.935C243.235 149.666 242.9 150.032 242.231 150.032Z" fill="white"/>
<path d="M268.122 150.032H251.479C250.977 150.032 250.475 149.483 250.475 148.935V134.775C250.475 134.226 250.977 133.678 251.479 133.678H268.122C268.624 133.678 269.125 134.226 269.125 134.775V148.935C269.125 149.666 268.624 150.032 268.122 150.032Z" fill="white"/>
<path d="M212.637 28.7082L244.585 5L280.906 28.7082H212.637Z" fill="#BBBCBC"/>
<path d="M296.033 201.808C294.554 189.407 286.48 191.68 278.996 171.241C277.365 166.796 271.591 170.387 267.813 171.336C247.74 176.353 239.892 186.192 237.819 199.542C237.672 200.49 237.672 201.532 238.34 201.627C248.34 203.234 273.37 202.386 296.038 201.815L296.033 201.808Z" fill="#C4EDEE"/>
<path d="M285.113 178.606C285.113 178.606 285.722 177.846 285.113 171.884C284.503 165.821 287.193 160.424 287.193 160.424C287.193 160.424 286.067 173.115 286.153 174.629C286.153 176.143 285.113 178.606 285.113 178.606Z" fill="#0B9D99"/>
<path d="M286.67 184.858C286.67 184.858 286.584 184.098 283.205 181.164C279.826 178.23 278.527 173.775 278.527 173.775C278.527 173.775 284.417 181.353 285.199 182.106C285.981 182.867 286.67 184.852 286.67 184.852V184.858Z" fill="#0B9D99"/>
<path d="M287.021 192.341C287.021 192.341 287.538 191.87 287.366 187.132C287.28 182.395 289.618 178.418 289.618 178.418C289.618 178.418 288.061 188.169 287.975 189.306C287.889 190.443 287.021 192.334 287.021 192.334V192.341Z" fill="#0B9D99"/>
<path d="M286.412 197.642C286.412 197.642 285.802 197.266 285.113 192.622C284.417 187.979 281.475 184.574 281.475 184.574C281.475 184.574 284.682 193.854 284.941 194.991C285.113 196.034 286.412 197.642 286.412 197.642Z" fill="#0B9D99"/>
<path d="M284.596 202.091C284.596 202.091 289.969 185.14 282.085 171.978C274.2 158.815 280.7 164.495 282.085 166.958C283.642 169.797 289.101 186.371 287.193 197.831C287.193 197.831 286.584 201.62 286.326 202.091C286.067 202.468 284.596 202.091 284.596 202.091Z" fill="#0B9D99"/>
<path d="M295.198 164.406C295.198 164.406 294.502 163.552 295.198 156.076C295.893 148.593 292.687 142.059 292.687 142.059C292.687 142.059 294.071 157.684 293.985 159.575C293.899 161.466 295.198 164.406 295.198 164.406Z" fill="#0B9D99"/>
<path d="M293.29 172.079C293.29 172.079 293.376 171.13 297.537 167.631C301.692 164.031 303.341 158.445 303.341 158.445C303.341 158.445 296.152 167.725 295.198 168.674C294.158 169.623 293.29 172.085 293.29 172.085V172.079Z" fill="#0B9D99"/>
<path d="M292.859 181.262C292.859 181.262 292.25 180.596 292.428 174.823C292.601 169.049 289.659 164.123 289.659 164.123C289.659 164.123 291.653 176.148 291.653 177.568C291.653 178.988 292.865 181.262 292.865 181.262H292.859Z" fill="#0B9D99"/>
<path d="M293.376 191.304C293.376 191.304 293.985 190.739 294.244 184.958C294.502 179.185 297.623 174.447 297.623 174.447C297.623 174.447 295.026 186.284 294.853 187.704C294.595 189.03 293.382 191.304 293.382 191.304H293.376Z" fill="#0B9D99"/>
<path d="M295.629 202.568C295.629 202.568 289.135 172.361 298.922 156.164C308.622 139.973 300.565 146.884 298.922 150.006C297.014 153.512 290.348 173.962 292.687 187.979C292.687 187.979 293.296 201.996 293.555 202.562C293.813 203.127 295.635 202.562 295.635 202.562L295.629 202.568Z" fill="#0B9D99"/>
<g clip-path="url(#clip0_16546_58376)">
<path d="M140.627 156.254C140.608 156.24 140.59 156.226 140.574 156.211C140.203 155.887 135.906 152.149 134.876 151.524C133.799 150.871 132.646 150.749 133.017 149.647C133.389 148.544 135.592 147.002 136.364 146.716C137.048 146.461 138.396 145.9 138.686 145.779C138.723 145.764 138.757 145.747 138.791 145.724C139.023 145.585 139.981 145.018 140.229 145.038C140.511 145.058 142.146 143.155 144.028 146.12C145.911 149.088 146.606 149.305 146.606 149.797C146.606 150.26 145.092 154.848 142.296 156.804C141.998 157.012 141.617 156.995 141.327 156.778L140.627 156.257V156.254Z" stroke="black" stroke-width="4" stroke-miterlimit="10"/>
<path d="M147.243 158.118C147.243 158.118 142.246 159.481 142.857 156.105C143.468 152.729 144.178 148.817 148.044 148.759C151.909 148.699 152.314 150.333 156.588 152.185C160.861 154.036 161.448 154.586 169.178 154.803C176.909 155.02 179.318 155.075 180.642 154.965C181.967 154.855 183.238 161.333 182.425 163.074C181.611 164.816 175.179 163.398 174.808 163.231C174.436 163.063 153.436 159.264 150.895 158.5C148.352 157.737 147.246 158.118 147.246 158.118H147.243Z" fill="#131315"/>
<path d="M132.346 150.093C132.346 150.093 130.45 150.787 129.334 150.093C128.217 149.398 122.493 147.356 120.932 147.602C119.371 147.848 117.838 146.609 117.838 146.609C117.838 146.609 124.126 147.599 127.362 147.717C130.598 147.836 132.159 147.257 132.68 147.839C133.202 148.42 133.138 148.568 132.867 149.181C132.596 149.795 132.346 150.093 132.346 150.093Z" fill="#1E1E1E"/>
<path d="M176.519 162.235C176.519 162.235 167.193 187.543 165.621 187.5C164.049 187.457 163.459 194.203 163.312 194.883C163.165 195.563 160.992 198.846 166.269 199.989C171.548 201.132 196.229 206.117 196.229 206.117C196.229 206.117 201.508 207.259 204.705 206.525C207.901 205.79 210.579 204.32 211.843 204.155C213.106 203.99 218.386 196.723 219.947 194.597C221.508 192.473 236.898 166.742 237.045 165.435C237.193 164.127 235.139 160.924 233.949 157.901C232.759 154.878 223.725 141.876 223.725 141.876L215.26 131.919C215.26 131.919 214.12 131.21 213.13 131.919C212.14 132.627 210.084 134.829 209.936 135.972C209.789 137.114 209.639 141.199 209.789 141.853C209.939 142.507 213.183 149.832 213.183 149.832C213.183 149.832 205.918 148.687 205.771 149.913C205.624 151.14 206.029 156.573 206.171 159.753C206.313 162.932 206.39 163.93 206.171 165.197C206.026 166.036 201.284 187.697 201.284 187.697L183.149 181.034L185.031 160.945L183.868 161.509L176.89 160.878L176.522 162.232L176.519 162.235Z" fill="black"/>
<path d="M219.852 164.062L205.974 140.862C205.974 140.862 202.978 135.869 202.406 136.942C201.835 138.013 202.259 142.824 202.259 142.824C202.259 142.824 207.859 155.348 209.147 157.746C210.434 160.142 211.624 166.894 211.624 166.894L207.461 181.923L209.147 193.25L209.989 193.687L216.084 181.923L223.462 169.553L219.852 164.062Z" fill="#81BB27"/>
<path d="M235.458 177.3L233.243 172.191L233.82 171.477L235.165 174.876L236.219 177.3H235.458Z" fill="#B7C4B7"/>
<path d="M203.575 145.753C203.575 145.753 200.563 139.567 199.152 137.32C197.741 135.075 197.267 134.745 195.139 133.18C193.43 131.921 191.364 129.074 190.676 128.701C189.499 128.059 185.089 131.548 184.792 131.383C184.494 131.218 185.558 129.517 185.511 129.028C185.461 128.507 184.526 128.34 183.875 128.701C183.612 128.846 181.303 130.394 180.284 131.076C179.86 131.36 179.299 131.209 179.057 130.729C178.957 130.532 178.886 130.284 178.878 129.965C178.841 128.782 181.121 127.307 181.121 127.307L185.998 121.876C185.998 121.876 189.381 118.066 193.146 117.193C196.914 116.322 198.541 116.313 199.584 116.857C200.626 117.401 206.69 121.544 208.028 122.964C209.365 124.385 213.23 128.765 212.535 129.343C211.84 129.922 208.386 131.036 207.656 131.426C207.014 131.771 205.647 132.812 205.647 132.812C205.297 133.339 204.47 133.596 203.367 136.842C203.02 137.866 202.23 136.423 202.111 139.556C202.035 141.555 203.578 145.741 203.578 145.741L203.575 145.753Z" fill="black"/>
<path d="M141.345 145.695C141.345 145.695 135.547 149.219 130.59 149.326C125.634 149.436 112.846 147.856 110.369 146.222C107.891 144.587 104.273 137.945 104.223 135.983C104.173 134.022 104.223 133.423 104.223 133.423C104.223 133.423 103.183 133.151 103.381 131.571C103.578 129.992 103.481 129.665 104.026 129.503C104.571 129.341 105.266 129.231 105.266 129.231C105.266 129.231 105.711 126.835 106.553 125.855C107.396 124.874 111.211 122.042 113.641 120.572C116.071 119.102 123.454 116.053 130.74 116.38C138.025 116.707 142.98 116.053 144.865 121.772C144.865 121.772 146.056 126.456 146.303 127.217C146.551 127.978 146.848 129.885 145.955 132.555C145.063 135.222 143.28 143.36 142.622 144.385C141.964 145.409 141.345 145.695 141.345 145.695Z" fill="#1E1E1E"/>
<path d="M104.026 129.504C104.026 129.504 124.471 130.43 127.667 129.941C130.864 129.452 145.948 125.951 145.948 125.951L146.48 128.017C146.48 128.017 132.201 131.818 129.821 131.818C127.441 131.818 103.655 130.54 103.655 130.54L103.497 130.531L103.555 130.1C103.555 130.1 103.584 129.946 103.605 129.889C103.626 129.831 103.665 129.75 103.668 129.747C103.671 129.744 103.721 129.666 103.765 129.631C103.81 129.596 103.926 129.539 103.944 129.53C103.963 129.521 104.023 129.504 104.023 129.504H104.026Z" fill="#070707"/>
<path d="M103.499 130.531C103.499 130.531 103.197 132.709 103.71 133.068C104.223 133.427 114.584 134.494 114.584 134.494C114.584 134.494 129.081 135.168 130.047 135.087C131.014 135.006 145.956 132.556 145.956 132.556C145.956 132.556 146.593 129.058 146.538 128.538C146.482 128.017 146.424 128.031 146.424 128.031C146.424 128.031 134.805 131.023 132.854 131.37C130.903 131.717 108.378 130.635 108.378 130.635L103.502 130.531H103.499Z" fill="#3D3D3D"/>
<path d="M144.458 130.755C144.458 130.755 147.357 130.182 147.507 129.734C147.657 129.285 147.47 128.305 146.985 128.305C146.501 128.305 144.013 129.025 144.013 129.025L143.741 129.115C143.297 129.262 143.025 129.771 143.152 130.26C143.152 130.269 143.157 130.275 143.157 130.284L143.362 131.059L144.458 130.752V130.755Z" fill="white"/>
<path d="M132.412 134.162C132.412 134.162 135.35 133.933 135.542 133.502C135.735 133.071 135.645 132.076 135.163 132.021C134.684 131.963 132.135 132.391 132.135 132.391L131.856 132.449C131.398 132.542 131.082 133.016 131.159 133.52C131.159 133.528 131.159 133.534 131.161 133.543L131.29 134.338L132.409 134.162H132.412Z" fill="white"/>
<path d="M144.31 213.553C154.887 213.553 163.462 204.131 163.462 192.509C163.462 180.887 154.887 171.465 144.31 171.465C133.733 171.465 125.158 180.887 125.158 192.509C125.158 204.131 133.733 213.553 144.31 213.553Z" fill="#393A38"/>
<path d="M142.359 205.665C148.733 205.665 153.899 199.715 153.899 192.375C153.899 185.034 148.733 179.084 142.359 179.084C135.986 179.084 130.819 185.034 130.819 192.375C130.819 199.715 135.986 205.665 142.359 205.665Z" fill="black"/>
<path d="M175.355 167.084L166.119 188.365C165.692 189.352 164.713 189.896 163.736 189.69L158.625 188.62C158.015 188.493 157.493 188.079 157.167 187.497C156.677 186.621 155.719 185.339 154.091 184.726C151.585 183.783 129.092 176.249 127.425 175.691C127.359 175.668 127.296 175.644 127.233 175.616C125.958 175.04 125.479 173.324 126.243 172.066C126.885 171.01 127.599 169.882 128.073 169.288C129.113 167.981 134.381 159.845 135.358 159.079C136.395 158.263 139.521 156.464 143.536 156.874C147.551 157.282 153.051 155.546 158.554 156.822C164.055 158.098 176.1 162.183 176.322 163.164C176.543 164.145 175.355 167.084 175.355 167.084Z" fill="#81BB27"/>
<path d="M158.411 158.924C157.589 158.924 156.92 159.66 156.92 160.566C156.92 161.472 158.411 163.602 158.411 163.602C158.411 163.602 159.903 161.472 159.903 160.566C159.903 159.66 159.236 158.924 158.411 158.924ZM158.411 161.155C158.113 161.155 157.875 160.89 157.875 160.563C157.875 160.236 158.117 159.97 158.411 159.97C158.706 159.97 158.948 160.236 158.948 160.563C158.948 160.89 158.706 161.155 158.411 161.155Z" fill="white"/>
<path d="M148.675 175.155V169.843C148.65 169.734 148.644 169.619 148.597 169.516C148.541 169.397 148.458 169.298 148.352 169.227C148.238 169.148 148.114 169.087 147.986 169.043C147.949 169.029 147.909 169.019 147.872 169.009C147.838 169.005 147.804 169.002 147.769 168.995C147.769 168.995 147.763 168.995 147.76 168.995C147.726 168.995 147.692 168.995 147.658 168.988H144.352V171.523H146.355V172.078C146.092 172.29 145.807 172.44 145.497 172.528C145.187 172.617 144.876 172.651 144.563 172.627C144.25 172.603 143.946 172.518 143.649 172.371C143.354 172.225 143.087 172.024 142.852 171.765C142.588 171.475 142.39 171.145 142.253 170.774C142.117 170.402 142.049 170.027 142.049 169.649C142.049 169.271 142.117 168.893 142.253 168.525C142.39 168.154 142.588 167.823 142.852 167.533C143.115 167.244 143.416 167.026 143.751 166.879C144.086 166.733 144.427 166.661 144.774 166.661C145.121 166.661 145.459 166.733 145.797 166.879C146.132 167.026 146.433 167.24 146.697 167.533L148.334 165.731C147.844 165.189 147.289 164.787 146.672 164.515C146.055 164.246 145.422 164.109 144.777 164.109C144.132 164.109 143.5 164.246 142.883 164.515C142.266 164.784 141.711 165.189 141.221 165.731C140.731 166.273 140.365 166.883 140.123 167.561C139.881 168.242 139.76 168.937 139.76 169.646C139.76 170.354 139.881 171.049 140.123 171.724C140.365 172.399 140.731 173.009 141.221 173.547C141.711 174.089 142.266 174.494 142.883 174.763C143.5 175.032 144.132 175.169 144.777 175.169C145.041 175.169 145.307 175.145 145.574 175.1C145.841 175.056 146.104 174.985 146.359 174.882V175.152H148.678L148.675 175.155Z" fill="white"/>
<path d="M154.079 164.123C154.768 164.123 155.419 164.27 156.027 164.559C156.634 164.849 157.165 165.241 157.62 165.738C158.073 166.232 158.433 166.815 158.696 167.486C158.96 168.157 159.09 168.872 159.09 169.632C159.09 170.392 158.96 171.107 158.696 171.779C158.433 172.45 158.073 173.032 157.62 173.526C157.168 174.02 156.634 174.416 156.027 174.705C155.419 174.995 154.771 175.141 154.079 175.141C153.388 175.141 152.74 174.995 152.132 174.705C151.524 174.416 150.994 174.024 150.545 173.526C150.095 173.032 149.738 172.45 149.475 171.779C149.211 171.107 149.081 170.392 149.081 169.632C149.081 168.872 149.211 168.157 149.475 167.486C149.738 166.815 150.095 166.232 150.545 165.738C150.994 165.244 151.521 164.849 152.132 164.559C152.74 164.27 153.388 164.123 154.079 164.123ZM154.086 172.603C154.458 172.603 154.808 172.525 155.137 172.371C155.465 172.218 155.751 172.003 155.996 171.734C156.241 171.465 156.433 171.148 156.575 170.787C156.715 170.426 156.786 170.041 156.786 169.632C156.786 169.223 156.715 168.838 156.575 168.477C156.436 168.116 156.241 167.803 155.996 167.533C155.751 167.264 155.462 167.05 155.137 166.896C154.808 166.74 154.461 166.665 154.086 166.665C153.71 166.665 153.363 166.743 153.034 166.896C152.706 167.053 152.421 167.264 152.176 167.533C151.931 167.803 151.738 168.119 151.596 168.477C151.456 168.838 151.385 169.223 151.385 169.632C151.385 170.041 151.456 170.426 151.596 170.787C151.735 171.148 151.931 171.462 152.176 171.734C152.421 172.003 152.709 172.218 153.034 172.371C153.363 172.528 153.71 172.603 154.086 172.603Z" fill="white"/>
<path d="M144.954 178.869C144.83 178.794 144.743 178.732 144.696 178.678C144.622 178.596 144.585 178.497 144.585 178.381C144.585 178.266 144.622 178.163 144.696 178.082C144.771 178 144.861 177.959 144.966 177.959C145.072 177.959 145.158 177.996 145.23 178.075C145.298 178.15 145.329 178.235 145.329 178.33V178.341L145.202 178.395C145.193 178.303 145.165 178.238 145.124 178.191C145.084 178.146 145.031 178.123 144.963 178.123C144.895 178.123 144.842 178.146 144.796 178.197C144.749 178.249 144.724 178.31 144.724 178.381C144.724 178.453 144.746 178.514 144.796 178.565C144.824 178.596 144.879 178.64 144.966 178.702C145.106 178.783 145.202 178.858 145.261 178.923C145.354 179.025 145.397 179.148 145.397 179.288C145.397 179.427 145.351 179.557 145.261 179.659C145.168 179.761 145.056 179.812 144.926 179.812C144.796 179.812 144.684 179.761 144.591 179.659C144.498 179.557 144.455 179.444 144.455 179.325L144.6 179.284C144.6 179.39 144.631 179.475 144.696 179.547C144.762 179.618 144.839 179.652 144.929 179.652C145.019 179.652 145.096 179.618 145.162 179.547C145.227 179.475 145.258 179.39 145.258 179.291C145.258 179.192 145.227 179.107 145.162 179.039C145.127 179.002 145.056 178.944 144.951 178.872L144.954 178.869Z" fill="white"/>
<path d="M145.816 176.912H145.962V178.108C146.086 177.979 146.235 177.91 146.405 177.91C146.594 177.91 146.746 177.975 146.864 178.105C146.982 178.234 147.044 178.398 147.047 178.595V179.767H146.901V178.609C146.901 178.459 146.852 178.333 146.755 178.227C146.656 178.122 146.541 178.07 146.408 178.07C146.275 178.07 146.157 178.122 146.061 178.227C146.017 178.275 145.986 178.323 145.965 178.377V179.771H145.819V176.912H145.816Z" fill="white"/>
<path d="M149.255 179.771H149.109V179.413C149.081 179.454 149.05 179.495 149.016 179.532C148.842 179.723 148.631 179.818 148.383 179.818C148.135 179.818 147.928 179.723 147.754 179.532C147.58 179.341 147.493 179.11 147.493 178.841C147.493 178.571 147.58 178.336 147.754 178.146C147.928 177.955 148.138 177.859 148.383 177.859C148.628 177.859 148.839 177.955 149.016 178.146C149.05 178.183 149.081 178.224 149.109 178.265V178.016H149.255V179.771ZM149.109 178.997V178.68C149.081 178.524 149.013 178.384 148.907 178.265C148.765 178.105 148.591 178.026 148.386 178.026C148.182 178.026 148.008 178.105 147.865 178.265C147.723 178.422 147.648 178.616 147.648 178.837C147.648 179.059 147.72 179.253 147.865 179.41C148.008 179.566 148.182 179.645 148.386 179.645C148.591 179.645 148.765 179.566 148.907 179.406C149.016 179.287 149.084 179.151 149.109 178.994V178.997Z" fill="white"/>
<path d="M149.741 178.017H149.887V178.338C149.918 178.29 149.952 178.246 149.993 178.201C150.123 178.058 150.253 177.987 150.39 177.977V178.15C150.296 178.154 150.203 178.212 150.104 178.321C149.965 178.471 149.893 178.655 149.887 178.866V179.772H149.741V178.017Z" fill="white"/>
<path d="M150.954 177.44C150.982 177.471 150.997 177.508 150.997 177.553C150.997 177.597 150.982 177.634 150.954 177.669C150.926 177.699 150.892 177.716 150.852 177.716C150.811 177.716 150.777 177.699 150.749 177.669C150.721 177.638 150.706 177.6 150.706 177.553C150.706 177.505 150.721 177.471 150.749 177.44C150.777 177.41 150.811 177.393 150.852 177.393C150.892 177.393 150.926 177.41 150.954 177.44ZM150.923 178.016V179.771H150.777V178.016H150.923Z" fill="white"/>
<path d="M151.589 178.41V179.772H151.444V178.018H151.589V178.13C151.723 177.984 151.878 177.912 152.054 177.912C152.244 177.912 152.396 177.977 152.513 178.106C152.631 178.236 152.693 178.399 152.696 178.597V179.769H152.551V178.611C152.551 178.461 152.501 178.335 152.405 178.229C152.306 178.123 152.191 178.072 152.058 178.072C151.924 178.072 151.806 178.123 151.71 178.229C151.658 178.287 151.617 178.348 151.592 178.41H151.589Z" fill="white"/>
<path d="M154.749 179.423C154.721 179.461 154.693 179.498 154.662 179.532C154.489 179.723 154.278 179.818 154.03 179.818C153.782 179.818 153.574 179.723 153.4 179.532C153.227 179.341 153.14 179.11 153.14 178.841C153.14 178.571 153.227 178.336 153.4 178.146C153.574 177.955 153.785 177.859 154.03 177.859C154.275 177.859 154.486 177.955 154.662 178.146C154.696 178.183 154.727 178.224 154.755 178.265V178.016H154.901V179.379C154.901 179.641 154.817 179.866 154.647 180.053C154.473 180.244 154.262 180.34 154.017 180.34C153.772 180.34 153.562 180.244 153.385 180.053C153.348 180.013 153.317 179.972 153.289 179.931L153.444 179.87C153.459 179.89 153.478 179.91 153.496 179.931C153.639 180.088 153.813 180.169 154.017 180.169C154.222 180.169 154.393 180.091 154.538 179.931C154.669 179.788 154.74 179.617 154.752 179.42L154.749 179.423ZM154.752 178.674C154.724 178.52 154.656 178.384 154.551 178.268C154.408 178.108 154.234 178.03 154.03 178.03C153.825 178.03 153.652 178.108 153.509 178.268C153.366 178.425 153.292 178.619 153.292 178.841C153.292 179.062 153.363 179.256 153.509 179.413C153.652 179.57 153.825 179.651 154.03 179.651C154.234 179.651 154.408 179.573 154.551 179.413C154.656 179.297 154.721 179.164 154.752 179.011V178.67V178.674Z" fill="white"/>
<path d="M171.656 192.939C171.656 192.939 161.595 191.36 159.81 190.651C158.025 189.942 140.184 191.904 139.589 191.794C138.994 191.684 136.914 191.357 136.714 192.936C136.514 194.516 136.567 196.694 137.457 196.749C138.349 196.804 156.785 198.112 158.918 197.348C161.048 196.585 161.048 196.454 163.725 196.194C166.401 195.934 171.848 196.689 172.367 196.466C172.886 196.243 173.483 194.71 173.146 193.894C172.812 193.078 171.653 192.942 171.653 192.942L171.656 192.939Z" fill="#1E1E1D"/>
<path d="M138.415 191.765C138.415 191.765 137.744 188.979 138.115 188.652C138.486 188.326 138.894 188.612 139.526 187.712C140.158 186.812 140.711 184.272 141.166 182.403C141.622 180.535 141.688 180.488 141.688 180.488L144.916 181.579C144.916 181.579 141.977 186.448 141.459 188.245C140.94 190.041 141.166 191.554 141.166 191.554L141.185 191.771H138.415V191.765Z" fill="#1E1E1D"/>
<path d="M202.683 137.401L217.185 160.638C217.185 160.638 221.951 169.068 223.465 169.554C224.325 169.829 231.982 163.904 233.949 162.316C237.053 159.81 235.41 157.988 229.128 149.109C223.728 141.474 215.908 132.19 213.82 129.731C213.491 129.344 212.993 129.199 212.532 129.349C210.732 129.948 206.232 131.612 204.818 133.75C203.033 136.446 202.685 137.398 202.685 137.398L202.683 137.401Z" fill="#99DB26"/>
<path d="M238.754 221.999C250.201 221.999 259.481 211.803 259.481 199.225C259.481 186.647 250.201 176.451 238.754 176.451C227.307 176.451 218.028 186.647 218.028 199.225C218.028 211.803 227.307 221.999 238.754 221.999Z" fill="#393A38"/>
<path d="M238.754 213.606C245.651 213.606 251.242 207.168 251.242 199.225C251.242 191.283 245.651 184.844 238.754 184.844C231.857 184.844 226.266 191.283 226.266 199.225C226.266 207.168 231.857 213.606 238.754 213.606Z" fill="black"/>
<path d="M237.319 200.112L241.258 197.415L244.491 182.834C244.491 182.834 245.013 180.63 245.866 179.525C246.719 178.419 247.277 177.954 247.614 178.943C247.614 178.943 247.762 178.067 246.313 177.442C244.878 176.822 237.095 173.562 231.445 174.583C225.795 175.605 237.319 200.112 237.319 200.112Z" fill="#81BB27"/>
<path d="M224.51 175.87L227.116 181.659L228.238 181.003L225.3 174.215L223.417 169.633L222.448 171.256L224.51 175.87Z" fill="#B7C4B7"/>
<path d="M236.977 199.996L229.797 180.91C229.705 180.667 229.465 180.534 229.231 180.598C228.575 180.78 227.277 181.188 226.429 181.761C226.127 181.966 225.879 182.192 225.742 182.435C225.255 183.294 232.267 194.461 236.137 200.505C236.469 201.023 237.195 200.58 236.977 199.996Z" fill="#1E1E1D"/>
<path d="M184.955 128.536C184.884 128.62 184.734 128.536 184.731 128.88C184.729 129.225 184.618 129.488 184.4 129.309C184.181 129.129 183.994 128.678 184.076 128.559C184.147 128.455 184.95 128.528 184.955 128.539V128.536Z" fill="#D5C4BB"/>
<path d="M186.78 128.708C186.756 128.69 186.753 128.656 186.769 128.633C186.811 128.575 186.877 128.453 186.914 128.447C186.977 128.442 187.259 128.725 187.269 128.768C187.269 128.768 187.285 128.91 187.085 128.954L186.78 128.708Z" fill="#B7C4B7"/>
<path d="M188.404 129.651C188.404 129.651 188.544 129.353 188.623 129.452C188.702 129.55 188.91 129.799 188.897 129.891C188.883 129.984 188.876 130.068 188.797 130.056C188.718 130.045 188.407 129.654 188.407 129.654L188.404 129.651Z" fill="#B7C4B7"/>
<path d="M188.728 129.177C188.728 129.177 188.873 128.864 188.954 128.966C189.036 129.067 189.305 129.379 189.291 129.475C189.278 129.57 189.22 129.611 189.136 129.599C189.052 129.588 188.728 129.177 188.728 129.177Z" fill="#B7C4B7"/>
<path d="M193.736 104.689C193.736 104.689 194.531 104.878 194.381 105.954C194.231 107.03 192.975 108.954 192.419 109.217C191.864 109.48 191.308 109.107 191.308 109.107L193.739 104.689H193.736Z" fill="black"/>
<path d="M193.17 107.333C193.869 106.113 194.179 104.947 193.863 104.728C193.547 104.51 192.724 105.321 192.025 106.54C191.326 107.76 191.015 108.925 191.331 109.144C191.648 109.363 192.471 108.552 193.17 107.333Z" fill="white"/>
<path d="M193.115 108.529L194.328 115.137L194.642 117.26H195.076L193.396 108.133L193.115 108.529Z" fill="black"/>
<path d="M181.35 115.024C181.35 115.024 185.945 119.072 185.971 119.161C185.998 119.251 185.971 121.939 185.971 121.939H186.595V119.072L184.476 117.131L180.913 114.174L180.711 114.504L181.35 115.027V115.024Z" fill="black"/>
<path d="M179.012 115.606C180.453 115.606 181.622 114.276 181.622 112.635C181.622 110.994 180.453 109.664 179.012 109.664C177.571 109.664 176.403 110.994 176.403 112.635C176.403 114.276 177.571 115.606 179.012 115.606Z" fill="black"/>
<path d="M218.657 139.297C218.285 139.598 218.204 140.177 218.48 140.585C218.757 140.993 220.076 141.412 220.076 141.412C220.076 141.412 220.105 139.902 219.828 139.491C219.552 139.08 219.028 138.993 218.657 139.294V139.297ZM219.333 140.307C219.199 140.417 219.009 140.385 218.909 140.235C218.809 140.084 218.838 139.879 218.973 139.769C219.107 139.659 219.296 139.691 219.396 139.841C219.496 139.992 219.468 140.197 219.333 140.307Z" fill="white"/>
<path d="M219.173 150.206L217.561 147.802C217.517 147.762 217.48 147.713 217.427 147.684C217.367 147.649 217.298 147.634 217.23 147.64C217.153 147.646 217.08 147.663 217.008 147.689C216.987 147.698 216.966 147.707 216.945 147.716C216.93 147.727 216.911 147.736 216.895 147.747C216.895 147.747 216.895 147.747 216.893 147.75C216.877 147.762 216.861 147.773 216.845 147.785L215.35 148.997L216.119 150.146L217.024 149.411L217.193 149.663C217.138 149.853 217.053 150.027 216.94 150.18C216.827 150.334 216.698 150.464 216.548 150.565C216.398 150.669 216.234 150.742 216.058 150.785C215.882 150.828 215.697 150.834 215.513 150.802C215.305 150.768 215.115 150.692 214.942 150.574C214.768 150.455 214.623 150.311 214.507 150.14C214.391 149.969 214.31 149.772 214.257 149.555C214.207 149.339 214.197 149.116 214.228 148.887C214.26 148.659 214.328 148.45 214.436 148.262C214.544 148.074 214.676 147.915 214.834 147.791C214.992 147.666 215.165 147.574 215.363 147.516C215.56 147.458 215.76 147.446 215.968 147.481L216.163 146.066C215.776 146.003 215.402 146.02 215.042 146.124C214.681 146.228 214.352 146.399 214.062 146.633C213.773 146.868 213.525 147.163 213.328 147.51C213.13 147.86 213.001 148.245 212.943 148.67C212.885 149.095 212.904 149.503 213.001 149.9C213.099 150.296 213.254 150.655 213.47 150.976C213.686 151.297 213.949 151.566 214.265 151.783C214.578 152 214.928 152.142 215.316 152.206C215.703 152.269 216.076 152.252 216.437 152.148C216.798 152.044 217.124 151.873 217.417 151.638C217.535 151.543 217.648 151.433 217.756 151.314C217.864 151.196 217.959 151.069 218.046 150.93L218.127 151.051L219.175 150.204L219.173 150.206Z" fill="white"/>
<path d="M218.275 143.235C218.588 142.984 218.925 142.81 219.289 142.72C219.652 142.628 220.01 142.613 220.368 142.671C220.724 142.729 221.063 142.862 221.384 143.067C221.706 143.276 221.985 143.551 222.214 143.895C222.443 144.239 222.601 144.612 222.685 145.012C222.769 145.411 222.783 145.807 222.73 146.198C222.675 146.588 222.553 146.961 222.367 147.314C222.18 147.667 221.929 147.971 221.619 148.226C221.308 148.48 220.968 148.651 220.605 148.741C220.242 148.833 219.884 148.848 219.531 148.79C219.178 148.729 218.838 148.596 218.517 148.391C218.196 148.182 217.919 147.908 217.688 147.563C217.456 147.219 217.301 146.849 217.216 146.447C217.132 146.047 217.116 145.654 217.169 145.263C217.222 144.876 217.343 144.502 217.53 144.149C217.717 143.796 217.967 143.493 218.28 143.238L218.275 143.235ZM220.85 147.071C221.018 146.935 221.153 146.771 221.255 146.582C221.355 146.392 221.421 146.192 221.45 145.981C221.479 145.77 221.471 145.555 221.427 145.341C221.382 145.127 221.295 144.928 221.171 144.74C221.047 144.552 220.897 144.407 220.726 144.294C220.552 144.184 220.371 144.112 220.179 144.077C219.986 144.045 219.791 144.054 219.597 144.103C219.402 144.152 219.22 144.245 219.052 144.384C218.883 144.523 218.749 144.685 218.646 144.873C218.546 145.064 218.48 145.263 218.451 145.477C218.422 145.689 218.43 145.903 218.475 146.117C218.52 146.331 218.607 146.53 218.73 146.718C218.854 146.907 219.004 147.054 219.175 147.164C219.349 147.277 219.531 147.346 219.723 147.381C219.915 147.413 220.11 147.404 220.305 147.355C220.5 147.306 220.681 147.213 220.85 147.077V147.071Z" fill="white"/>
<path d="M218.617 153.251C218.538 153.263 218.48 153.265 218.443 153.26C218.386 153.251 218.338 153.219 218.304 153.167C218.27 153.115 218.254 153.054 218.264 152.991C218.272 152.927 218.301 152.875 218.349 152.834C218.396 152.794 218.449 152.779 218.501 152.791C218.554 152.8 218.596 152.826 218.625 152.869H218.628L218.588 152.944C218.557 152.907 218.522 152.886 218.491 152.881C218.459 152.875 218.428 152.884 218.399 152.91C218.37 152.936 218.351 152.965 218.346 153.005C218.341 153.046 218.346 153.08 218.37 153.115C218.393 153.15 218.42 153.167 218.457 153.173C218.478 153.176 218.517 153.176 218.575 153.173C218.662 153.161 218.73 153.158 218.775 153.164C218.849 153.176 218.907 153.216 218.949 153.28C218.991 153.344 219.01 153.419 218.999 153.497C218.989 153.578 218.954 153.642 218.894 153.688C218.833 153.734 218.767 153.754 218.696 153.74C218.623 153.728 218.57 153.694 218.533 153.639L218.586 153.566C218.617 153.613 218.659 153.642 218.709 153.65C218.759 153.659 218.804 153.647 218.846 153.613C218.888 153.578 218.912 153.534 218.92 153.48C218.928 153.425 218.917 153.372 218.886 153.329C218.854 153.286 218.815 153.257 218.765 153.248C218.738 153.242 218.688 153.245 218.62 153.248L218.617 153.251Z" fill="white"/>
<path d="M218.415 152.05L218.48 151.998L218.844 152.539C218.86 152.435 218.907 152.351 218.986 152.287C219.07 152.218 219.16 152.192 219.252 152.206C219.344 152.221 219.423 152.273 219.484 152.363L219.839 152.895L219.773 152.947L219.42 152.423C219.376 152.357 219.315 152.316 219.239 152.305C219.162 152.293 219.094 152.31 219.033 152.36C218.973 152.409 218.936 152.475 218.923 152.556C218.917 152.594 218.917 152.629 218.923 152.661L219.347 153.291L219.281 153.343L218.415 152.05Z" fill="white"/>
<path d="M220.837 152.085L220.771 152.137L220.663 151.975C220.663 152.004 220.663 152.033 220.658 152.062C220.637 152.212 220.571 152.333 220.46 152.423C220.35 152.513 220.226 152.548 220.089 152.524C219.952 152.501 219.841 152.429 219.76 152.307C219.678 152.186 219.647 152.047 219.668 151.897C219.689 151.746 219.755 151.625 219.865 151.535C219.976 151.445 220.102 151.411 220.239 151.434C220.265 151.44 220.292 151.445 220.318 151.454L220.242 151.341L220.308 151.289L220.839 152.082L220.837 152.085ZM220.537 151.79L220.439 151.645C220.379 151.584 220.308 151.547 220.221 151.532C220.107 151.512 220.005 151.541 219.913 151.616C219.82 151.691 219.765 151.79 219.749 151.914C219.731 152.038 219.757 152.151 219.826 152.252C219.894 152.354 219.984 152.414 220.097 152.432C220.21 152.449 220.313 152.423 220.405 152.348C220.497 152.273 220.552 152.174 220.568 152.05C220.581 151.957 220.568 151.871 220.534 151.79H220.537Z" fill="white"/>
<path d="M220.526 151.112L220.592 151.06L220.689 151.205C220.689 151.173 220.689 151.138 220.695 151.103C220.71 150.993 220.747 150.909 220.805 150.857L220.858 150.936C220.818 150.97 220.792 151.031 220.779 151.118C220.763 151.236 220.784 151.346 220.847 151.445L221.121 151.856L221.055 151.908L220.523 151.115L220.526 151.112Z" fill="white"/>
<path d="M220.897 150.407C220.919 150.41 220.937 150.421 220.95 150.442C220.963 150.462 220.969 150.485 220.966 150.508C220.963 150.531 220.95 150.552 220.934 150.566C220.918 150.581 220.895 150.586 220.874 150.583C220.85 150.581 220.834 150.569 220.818 150.549C220.803 150.528 220.8 150.505 220.803 150.482C220.805 150.459 220.818 150.439 220.834 150.424C220.85 150.41 220.874 150.404 220.895 150.407H220.897ZM221.058 150.679L221.59 151.472L221.524 151.524L220.992 150.731L221.058 150.679Z" fill="white"/>
<path d="M221.479 150.611L221.893 151.227L221.827 151.279L221.295 150.487L221.361 150.435L221.395 150.487C221.411 150.371 221.458 150.281 221.54 150.218C221.624 150.148 221.714 150.122 221.806 150.137C221.898 150.151 221.974 150.203 222.037 150.293L222.393 150.825L222.327 150.877L221.974 150.354C221.929 150.287 221.869 150.247 221.793 150.235C221.716 150.223 221.648 150.241 221.587 150.29C221.527 150.339 221.49 150.406 221.477 150.487C221.471 150.533 221.471 150.574 221.477 150.611H221.479Z" fill="white"/>
<path d="M223.217 149.914C223.217 149.94 223.214 149.969 223.212 149.995C223.191 150.146 223.125 150.267 223.014 150.357C222.904 150.446 222.78 150.481 222.643 150.458C222.506 150.435 222.395 150.363 222.314 150.241C222.232 150.119 222.201 149.981 222.222 149.83C222.243 149.68 222.309 149.561 222.419 149.469C222.53 149.376 222.656 149.344 222.79 149.367C222.817 149.373 222.843 149.379 222.869 149.388L222.793 149.275L222.859 149.223L223.272 149.839C223.351 149.957 223.383 150.091 223.362 150.238C223.341 150.389 223.275 150.51 223.164 150.6C223.054 150.689 222.927 150.724 222.79 150.701C222.761 150.695 222.735 150.689 222.709 150.681L222.759 150.597C222.772 150.6 222.788 150.603 222.801 150.606C222.914 150.626 223.017 150.597 223.109 150.522C223.201 150.446 223.254 150.348 223.272 150.224C223.288 150.111 223.27 150.007 223.214 149.914H223.217ZM222.99 149.573C222.93 149.515 222.859 149.477 222.777 149.463C222.664 149.443 222.561 149.471 222.469 149.547C222.377 149.622 222.322 149.72 222.306 149.845C222.287 149.969 222.314 150.082 222.382 150.183C222.451 150.284 222.54 150.345 222.653 150.363C222.767 150.383 222.869 150.354 222.962 150.279C223.054 150.203 223.109 150.105 223.125 149.981C223.138 149.891 223.125 149.804 223.093 149.726L222.99 149.573Z" fill="white"/>
<path d="M187.764 115.283C187.764 115.283 191.366 117.178 191.329 117.976C191.293 118.775 189.155 120.184 188.22 120.563C187.111 121.011 186.422 120.835 186.34 121.283C186.308 121.457 186.366 121.535 186.369 121.656C186.374 121.824 186.503 121.951 186.653 121.937C187.177 121.885 188.309 121.416 188.696 121.234C189.128 121.031 191.498 119.628 191.867 118.428C192.172 117.438 191.677 116.949 190.342 115.633C189.007 114.317 188.665 113.787 188.665 113.787L187.767 115.283H187.764Z" fill="black"/>
<path d="M187.301 110.374H189.763C190.163 110.374 190.418 110.834 190.221 111.21L187.077 117.236C186.945 117.488 186.656 117.592 186.408 117.476L184.515 116.594C184.234 116.464 184.118 116.102 184.262 115.813L186.838 110.669C186.93 110.487 187.106 110.371 187.301 110.371V110.374Z" fill="#99DB26"/>
<path d="M187.717 110.48H189.773C190.266 110.48 190.576 111.062 190.337 111.534L187.48 117.163C187.319 117.482 186.964 117.615 186.659 117.467L185.084 116.715C184.739 116.55 184.594 116.096 184.773 115.731L187.148 110.857C187.262 110.625 187.48 110.483 187.717 110.483V110.48Z" fill="black"/>
<path d="M189.536 120.492C189.536 120.492 190.253 117.37 191.753 115.958C193.254 114.546 194.615 113.771 195.318 114.856L196 116.693C196 116.693 192.725 118.71 191.893 119.3C191.061 119.89 189.607 120.686 189.607 120.686L189.536 120.492Z" fill="#1E1E1E"/>
<path d="M195.587 116.771L194.902 114.925C194.876 114.85 194.808 114.807 194.734 114.816C194.447 114.85 193.739 114.989 193.417 115.542C193.391 115.588 193.388 115.652 193.407 115.704L194.123 117.636C194.16 117.735 194.268 117.778 194.352 117.723L195.513 116.991C195.584 116.948 195.613 116.852 195.582 116.771H195.587Z" fill="white"/>
<path d="M197.264 115.966C197.264 115.966 199.484 114.34 199.808 114.346C200.131 114.352 200.966 114.534 200.582 115.376L198.391 117.571L196.258 119.351L195.832 117.58L195.998 116.663L197.264 115.963V115.966Z" fill="black"/>
</g>
<path fill-rule="evenodd" clip-rule="evenodd" d="M131.384 74.817C131.384 74.817 132.488 68.4085 125.24 60.8137C118.001 53.2216 105.839 49.6063 106.323 33.1201C106.808 16.6338 133.309 0.780313 142.539 20.3368C153.454 43.483 133.621 75.7227 131.384 74.817Z" fill="#3DBCC8"/>
<path fill-rule="evenodd" clip-rule="evenodd" d="M118.756 26.7369V31.8513H123.518V26.7369H118.756ZM118.673 24.1797C117.427 24.1797 116.417 25.2837 116.417 26.6456V31.9426C116.417 33.3045 117.427 34.4085 118.673 34.4085H123.518C124.764 34.4085 125.773 33.3045 125.773 31.9426V26.6456C125.773 25.2837 124.764 24.1797 123.518 24.1797L118.673 24.1797Z" fill="white"/>
<path fill-rule="evenodd" clip-rule="evenodd" d="M128.071 38.153C128.071 37.4721 128.576 36.9201 129.198 36.9201H132.958C133.58 36.9201 134.085 37.4721 134.085 38.153C134.085 38.834 133.58 39.386 132.958 39.386H130.326V41.8518C130.326 42.5328 129.821 43.0848 129.198 43.0848C128.576 43.0848 128.071 42.5328 128.071 41.8518V38.153Z" fill="white"/>
<path fill-rule="evenodd" clip-rule="evenodd" d="M128.071 45.9616C128.071 45.2807 128.576 44.7287 129.198 44.7287H132.958C133.58 44.7287 134.085 45.2807 134.085 45.9616C134.085 46.6426 133.58 47.1946 132.958 47.1946H129.198C128.576 47.1946 128.071 46.6426 128.071 45.9616Z" fill="white"/>
<path fill-rule="evenodd" clip-rule="evenodd" d="M136.341 40.6189C136.964 40.6189 137.468 41.1709 137.468 41.8518V45.9616C137.468 46.6426 136.964 47.1946 136.341 47.1946C135.718 47.1946 135.213 46.6426 135.213 45.9616V43.0848H132.958C132.335 43.0848 131.83 42.5328 131.83 41.8518C131.83 41.1709 132.335 40.6189 132.958 40.6189H136.341Z" fill="white"/>
<path d="M122.223 29.2484C122.223 29.9294 121.718 30.4814 121.095 30.4814C120.473 30.4814 119.968 29.9294 119.968 29.2484C119.968 28.5675 120.473 28.0155 121.095 28.0155C121.718 28.0155 122.223 28.5675 122.223 29.2484Z" fill="white"/>
<path d="M137.468 38.153C137.468 38.834 136.964 39.386 136.341 39.386C135.718 39.386 135.213 38.834 135.213 38.153C135.213 37.4721 135.718 36.9201 136.341 36.9201C136.964 36.9201 137.468 37.4721 137.468 38.153Z" fill="white"/>
<path fill-rule="evenodd" clip-rule="evenodd" d="M130.451 26.7369V31.8513H135.213V26.7369H130.451ZM130.368 24.1797C129.122 24.1797 128.112 25.2837 128.112 26.6456V31.9426C128.112 33.3045 129.122 34.4085 130.368 34.4085H135.213C136.459 34.4085 137.468 33.3045 137.468 31.9426V26.6456C137.468 25.2837 136.459 24.1797 135.213 24.1797L130.368 24.1797Z" fill="white"/>
<path d="M133.918 29.2484C133.918 29.9294 133.413 30.4814 132.79 30.4814C132.168 30.4814 131.663 29.9294 131.663 29.2484C131.663 28.5675 132.168 28.0155 132.79 28.0155C133.413 28.0155 133.918 28.5675 133.918 29.2484Z" fill="white"/>
<path fill-rule="evenodd" clip-rule="evenodd" d="M118.756 39.523V44.6374H123.518V39.523H118.756ZM118.673 36.9657C117.427 36.9657 116.417 38.0698 116.417 39.4316V44.7287C116.417 46.0906 117.427 47.1946 118.673 47.1946H123.518C124.764 47.1946 125.773 46.0906 125.773 44.7287V39.4316C125.773 38.0698 124.764 36.9657 123.518 36.9657H118.673Z" fill="white"/>
<path d="M122.223 42.0345C122.223 42.7154 121.718 43.2674 121.095 43.2674C120.473 43.2674 119.968 42.7154 119.968 42.0345C119.968 41.3536 120.473 40.8016 121.095 40.8016C121.718 40.8016 122.223 41.3536 122.223 42.0345Z" fill="white"/>
<path d="M87.8218 87.8172C88.2181 90.9587 100.504 107.857 107.44 108.399C107.539 108.399 107.638 108.399 107.836 108.399C108.332 108.399 108.827 108.182 109.322 107.966C111.799 106.233 121.807 99.083 125.275 94.75L124.68 90.3087C119.429 92.2586 107.836 100.058 107.836 100.058C107.836 100.058 107.341 100.275 107.143 99.9496C98.0272 90.6336 93.8658 87.1673 90.8933 84.6758L87.8218 87.8172Z" fill="#D7A887"/>
<path d="M70.4834 200.475C70.9789 201.883 70.0871 207.083 69.988 208.708C70.9789 210.224 73.4559 209.033 73.7531 207.408C73.7531 207.191 73.9513 207.191 73.9513 206.758C73.6541 205.783 74.2485 201.992 74.9421 199.934L70.4834 200.475Z" fill="#F8AB90"/>
<path d="M85.8402 202.75C86.2365 204.158 85.0476 207.625 84.9485 209.358C85.8402 210.983 88.4163 209.9 88.8127 208.275C88.8127 208.058 89.0108 208.058 89.0108 207.625C88.6145 206.542 89.5062 203.508 90.398 201.559L85.8402 202.75Z" fill="#F8AB90"/>
<path d="M85.6423 121.939H94.9559C99.6128 137.322 101 154.762 98.2256 172.094C98.0275 173.394 97.7302 174.694 97.3339 175.994L94.1633 202.858C91.7853 203.942 84.8496 203.183 82.4717 202.533C85.6423 192.567 87.4258 183.793 88.1193 174.152C88.4166 172.636 88.4166 169.494 88.4166 169.494C89.5065 154.545 86.3359 125.731 85.6423 121.939Z" fill="#74B79C"/>
<path d="M78.112 202.641C74.9414 203.616 70.5818 201.991 68.1047 200.907L74.1487 171.01C74.2478 170.468 74.2478 169.818 74.2478 169.276L72.068 133.421C72.068 132.554 72.068 131.688 72.1671 130.821C72.5634 127.679 73.257 123.13 74.4459 121.613H86.633C90.1008 139.379 89.5063 154.544 88.1192 163.102C88.0201 163.86 87.3265 172.201 86.5339 174.584L78.112 202.641Z" fill="#74B79C"/>
<path d="M94.9553 122.157L74.2473 122.482L74.1482 121.507L94.8562 121.398L94.9553 122.157Z" fill="#20505A"/>
<path d="M79.401 62.6855L86.5348 63.4438C84.4541 67.0186 82.8688 70.16 85.2468 72.6515L78.4102 72.0015C80.7881 70.2683 80.3918 66.0436 79.401 62.6855Z" fill="#ECBC97"/>
<path d="M86.5361 47.9531C86.5361 47.9531 89.2113 51.5279 88.6168 54.1277C88.5177 54.561 88.5177 54.886 88.4186 55.1026C88.1214 56.6192 88.1214 56.5109 89.6076 57.2691C90.4003 57.7024 89.7067 58.4607 89.3104 58.7857C89.1122 59.0023 89.0131 59.219 89.0131 59.5439C89.0131 59.8689 89.1122 60.1939 89.1122 60.1939C89.1122 60.3023 89.4094 61.1688 88.6168 61.1688C84.6535 61.2771 87.9232 61.1688 88.815 61.4938C88.815 61.4938 89.2113 61.7105 89.1122 61.9271C89.0131 62.1438 88.7159 62.4687 88.6168 62.7937C88.5177 63.1187 88.5177 64.0936 88.3195 64.5269C88.1214 64.9602 85.8425 65.7185 84.4554 65.2852C83.3655 64.9602 81.9783 64.6353 81.3838 64.5269C81.1857 64.5269 80.7894 63.9853 80.6903 63.7687C80.393 63.552 79.6004 63.3354 79.0059 62.9021C77.8169 62.0355 78.8077 61.6021 78.9068 61.0605C79.0059 60.5189 79.2041 59.544 79.0059 59.219C78.8077 58.894 77.8169 57.5941 77.6187 57.0525C77.3215 56.1859 77.8169 54.6693 78.2132 54.1277C78.6096 53.5861 79.4022 53.3694 79.8976 53.8027C80.2939 54.1277 80.7894 54.1277 80.9875 53.6944C81.2848 53.1528 83.8609 49.4697 84.3563 49.1447C84.8517 48.8198 86.5361 47.9531 86.5361 47.9531Z" fill="#ECBC97"/>
<path d="M89.0112 50.2278C88.9121 50.6611 88.714 50.9861 88.5158 51.311C88.2186 51.8527 87.7232 52.2859 87.1287 52.5026C85.3452 53.2609 83.859 54.0191 82.1746 53.9108C81.481 53.8025 80.8865 54.2358 80.5893 54.9941C80.3911 55.644 79.9948 56.0773 79.5985 56.5106C78.9049 57.2689 78.7068 58.4605 79.004 59.4354C79.4994 60.8437 81.481 65.9349 80.9856 67.1265C82.0755 77.2008 72.5637 88.7915 64.2408 80.9921C60.2776 76.3341 68.0059 68.4264 68.2041 63.5518C67.9069 57.3772 72.4646 52.0693 72.96 50.7694C73.1582 50.3361 73.3563 50.0111 73.6536 49.6862C74.8426 48.3863 75.8334 46.6531 76.8242 45.8948C77.7159 45.1365 78.7067 44.7032 79.7966 44.2699C81.481 43.62 83.3636 43.8366 84.9489 44.9198C86.6333 46.0031 88.1195 47.5197 88.714 48.8196C89.1103 49.2529 89.2094 49.7945 89.0112 50.2278Z" fill="#BC9D02"/>
<path d="M79.9961 56.1862C79.798 55.7529 79.5007 55.428 79.2035 55.3196C79.1044 55.2113 78.9062 55.3196 78.8072 55.3196C77.9154 55.7529 77.7173 56.5112 78.1136 57.4861C78.1136 57.4861 78.1136 57.4861 78.1136 57.5944C78.7081 58.5694 79.1044 58.786 79.8971 59.2193L79.9961 56.1862Z" fill="#ECBC97"/>
<path d="M69.9887 205.674C71.4749 206.432 72.9611 206.432 74.5464 205.457C74.6455 205.457 74.7446 205.457 74.7446 205.565C75.6363 207.299 76.5281 209.573 77.9152 210.873C79.4014 211.957 81.1849 212.715 83.1665 213.365C83.3647 213.473 83.6619 213.581 83.9592 213.473C84.95 213.473 85.6435 213.581 86.3371 214.015C86.4362 214.015 86.5353 214.123 86.6344 214.123C87.0307 214.34 87.2289 214.881 87.3279 215.531C87.3279 215.965 87.1298 216.29 86.8325 216.506C85.2472 217.481 83.1665 217.914 80.6895 217.914L76.1317 217.265L68.8988 216.615L68.1061 216.29C68.0071 216.181 67.908 216.073 67.908 215.965C67.908 214.665 68.1061 213.256 68.6015 211.848C68.7006 211.415 68.9979 210.873 69.196 210.44C69.7905 209.248 69.9887 207.732 69.8896 205.999C69.7905 205.674 69.8896 205.565 69.9887 205.674Z" fill="#BFBAB8"/>
<path d="M67.9091 214.123C67.711 214.123 67.6119 215.64 67.711 215.965C67.8101 216.398 69.1972 216.615 69.4945 216.615C70.5844 216.831 71.8724 216.831 73.0614 216.939L77.1237 217.373C78.3127 217.589 79.6008 217.806 80.9879 217.806C82.0778 217.806 83.1677 217.698 84.2576 217.373C85.1493 217.156 85.942 216.831 86.7346 216.29C86.8337 216.181 86.9328 216.181 86.9328 215.965C87.131 215.423 87.131 214.556 86.3383 214.123C85.4466 214.665 84.0594 214.99 82.5732 215.315C81.4833 215.531 80.1953 215.64 78.8081 215.531C76.6283 215.423 74.5476 215.315 72.6651 214.881C70.9807 214.773 69.2963 214.556 67.9091 214.123Z" fill="#20505A"/>
<path d="M83.6618 213.365C83.5627 214.123 83.5627 214.664 83.86 215.098C84.9499 214.881 85.8416 214.556 86.6342 214.123C85.8416 213.581 84.8508 213.256 83.6618 213.365Z" fill="#F05A24"/>
<path d="M74.3499 207.516C74.569 207.516 74.7465 207.321 74.7465 207.082C74.7465 206.843 74.569 206.648 74.3499 206.648C74.1309 206.648 73.9534 206.843 73.9534 207.082C73.9534 207.321 74.1309 207.516 74.3499 207.516Z" fill="#D7CCC2"/>
<path d="M75.0433 209.031C75.2623 209.031 75.4399 208.837 75.4399 208.598C75.4399 208.358 75.2623 208.164 75.0433 208.164C74.8243 208.164 74.6467 208.358 74.6467 208.598C74.6467 208.837 74.8243 209.031 75.0433 209.031Z" fill="#D7CCC2"/>
<path d="M75.64 210.332C75.859 210.332 76.0366 210.138 76.0366 209.898C76.0366 209.659 75.859 209.465 75.64 209.465C75.421 209.465 75.2434 209.659 75.2434 209.898C75.2434 210.138 75.421 210.332 75.64 210.332Z" fill="#D7CCC2"/>
<path d="M76.63 211.633C76.849 211.633 77.0265 211.439 77.0265 211.199C77.0265 210.96 76.849 210.766 76.63 210.766C76.4109 210.766 76.2334 210.96 76.2334 211.199C76.2334 211.439 76.4109 211.633 76.63 211.633Z" fill="#D7CCC2"/>
<path d="M77.7162 212.498C77.9352 212.498 78.1127 212.304 78.1127 212.064C78.1127 211.825 77.9352 211.631 77.7162 211.631C77.4971 211.631 77.3196 211.825 77.3196 212.064C77.3196 212.304 77.4971 212.498 77.7162 212.498Z" fill="#D7CCC2"/>
<path d="M79.268 213.156C79.4358 213.002 79.4578 212.728 79.3171 212.545C79.1765 212.361 78.9264 212.337 78.7585 212.491C78.5907 212.645 78.5686 212.918 78.7093 213.102C78.85 213.285 79.1001 213.309 79.268 213.156Z" fill="#D7CCC2"/>
<path d="M80.4572 213.627C80.5831 213.512 80.5996 213.307 80.4941 213.169C80.3886 213.032 80.201 213.014 80.0751 213.129C79.9492 213.244 79.9327 213.449 80.0382 213.587C80.1437 213.725 80.3313 213.743 80.4572 213.627Z" fill="#D7CCC2"/>
<path d="M82.0295 213.966C82.1102 213.81 82.0597 213.612 81.9167 213.523C81.7737 213.435 81.5922 213.49 81.5115 213.647C81.4307 213.803 81.4812 214.001 81.6242 214.09C81.7673 214.178 81.9487 214.123 82.0295 213.966Z" fill="#D7CCC2"/>
<path d="M75.1416 208.165C75.439 208.057 75.8356 208.057 76.0339 208.273C76.133 208.49 76.2322 208.707 76.3313 208.815C76.0339 208.599 75.5382 208.707 75.3399 208.707C75.439 208.49 75.3399 208.273 75.1416 208.165Z" fill="#686461"/>
<path d="M75.7368 209.465C76.0342 209.357 76.4308 209.14 76.7282 209.248C76.8274 209.357 76.9265 209.465 77.0257 209.682C76.6291 209.573 76.1334 209.79 76.0342 209.899C76.0342 209.682 75.9351 209.573 75.7368 209.465Z" fill="#686461"/>
<path d="M76.6284 210.764C76.8266 210.548 77.322 210.439 77.6192 210.439C77.7183 210.548 77.8174 210.656 78.0156 210.764C77.6192 210.764 77.1238 210.981 76.9257 211.198C76.9257 210.981 76.8266 210.764 76.6284 210.764Z" fill="#686461"/>
<path d="M77.8164 211.631C78.0146 211.414 78.3118 211.306 78.7081 211.197C78.8072 211.306 79.0054 211.306 79.2036 211.522C78.8072 211.631 78.4109 211.956 78.2127 212.064C78.1137 211.956 78.0146 211.739 77.8164 211.631Z" fill="#686461"/>
<path d="M79.0068 212.391C79.2051 212.065 79.4034 211.957 79.7008 211.957C79.8991 212.065 79.8991 212.065 80.0974 212.174C79.8 212.391 79.5025 212.716 79.4034 212.824C79.4034 212.607 79.3043 212.391 79.0068 212.391Z" fill="#686461"/>
<path d="M80.2935 213.04C80.4917 212.715 80.7892 212.606 80.9875 212.498C81.1858 212.606 81.2849 212.606 81.4832 212.715C81.1858 212.932 80.8883 213.257 80.69 213.365C80.5909 213.257 80.4917 213.04 80.2935 213.04Z" fill="#686461"/>
<path d="M81.5837 213.581C81.6829 213.147 81.6829 213.039 81.8812 212.822C82.0795 212.822 82.2777 212.931 82.2777 212.931C82.1786 213.256 82.1786 213.473 82.0795 213.689C81.9803 213.581 81.782 213.364 81.5837 213.581Z" fill="#686461"/>
<path d="M74.4502 206.648C74.7476 206.539 75.0451 206.539 75.2433 206.648C75.3425 206.864 75.4416 207.081 75.5408 207.19C75.1442 207.081 74.9459 206.973 74.7476 207.081C74.7476 206.973 74.6485 206.756 74.4502 206.648Z" fill="#686461"/>
<path d="M72.9634 206.106C72.9634 205.998 72.9634 205.89 72.9634 205.781C72.9634 205.565 73.1615 205.348 73.3597 205.24C73.6569 205.023 73.9542 204.806 74.3505 204.59C74.4496 204.806 74.5487 205.131 74.6478 205.456C74.3505 205.673 73.9542 205.781 73.756 205.89C73.5579 205.89 73.2606 205.998 72.9634 206.106Z" fill="#20505A"/>
<path d="M84.9508 206.433C86.4371 207.192 87.9233 207.192 89.5086 206.217C89.6077 206.217 89.7067 206.217 89.7067 206.325C90.5985 208.058 91.4902 210.333 92.8774 211.633C94.3636 212.716 96.147 213.475 98.1287 214.125C98.3268 214.233 98.6241 214.341 98.9213 214.233C99.9121 214.233 100.606 214.341 101.299 214.774C101.398 214.774 101.497 214.883 101.597 214.883C101.993 215.099 102.191 215.641 102.29 216.291C102.29 216.724 102.092 217.049 101.795 217.266C100.209 218.241 98.1287 218.674 95.6516 218.674L91.0939 218.024L83.8609 217.374L83.0683 217.049C82.9692 216.941 82.8701 216.833 82.8701 216.724C82.8701 215.424 83.0683 214.016 83.5637 212.608C83.6628 212.175 83.96 211.633 84.1582 211.2C84.7527 210.008 84.9508 208.492 84.8517 206.758C84.8517 206.433 84.9508 206.433 84.9508 206.433Z" fill="#BFBAB8"/>
<path d="M82.9663 214.99C82.7681 214.99 82.669 216.507 82.7681 216.832C82.8672 217.265 84.2543 217.482 84.5516 217.482C85.6415 217.698 86.9295 217.698 88.1185 217.807L92.1809 218.24C93.3698 218.457 94.6579 218.673 96.045 218.673C97.1349 218.673 98.2248 218.565 99.3147 218.24C100.206 218.023 100.999 217.698 101.792 217.157C101.891 217.048 101.99 217.048 101.99 216.832C102.188 216.29 102.188 215.424 101.395 214.99C100.504 215.532 99.1166 215.857 97.6303 216.182C96.5404 216.399 95.2524 216.507 93.8653 216.398C91.6855 216.29 89.6047 216.182 87.7222 215.749C86.0378 215.64 84.3534 215.424 82.9663 214.99Z" fill="#20505A"/>
<path d="M98.6208 214.232C98.5217 214.99 98.5217 215.532 98.819 215.965C99.9088 215.748 100.801 215.423 101.593 214.99C100.801 214.34 99.9088 214.123 98.6208 214.232Z" fill="#20505A"/>
<path d="M89.4085 208.275C89.6276 208.275 89.8051 208.081 89.8051 207.842C89.8051 207.602 89.6276 207.408 89.4085 207.408C89.1895 207.408 89.012 207.602 89.012 207.842C89.012 208.081 89.1895 208.275 89.4085 208.275Z" fill="#D7CCC2"/>
<path d="M90.0018 209.791C90.2208 209.791 90.3984 209.597 90.3984 209.357C90.3984 209.118 90.2208 208.924 90.0018 208.924C89.7828 208.924 89.6052 209.118 89.6052 209.357C89.6052 209.597 89.7828 209.791 90.0018 209.791Z" fill="#D7CCC2"/>
<path d="M90.6969 211.199C90.9159 211.199 91.0934 211.005 91.0934 210.766C91.0934 210.526 90.9159 210.332 90.6969 210.332C90.4778 210.332 90.3003 210.526 90.3003 210.766C90.3003 211.005 90.4778 211.199 90.6969 211.199Z" fill="#D7CCC2"/>
<path d="M91.5868 212.391C91.8058 212.391 91.9833 212.196 91.9833 211.957C91.9833 211.718 91.8058 211.523 91.5868 211.523C91.3677 211.523 91.1902 211.718 91.1902 211.957C91.1902 212.196 91.3677 212.391 91.5868 212.391Z" fill="#D7CCC2"/>
<path d="M92.7752 213.258C92.9942 213.258 93.1718 213.064 93.1718 212.824C93.1718 212.585 92.9942 212.391 92.7752 212.391C92.5562 212.391 92.3787 212.585 92.3787 212.824C92.3787 213.064 92.5562 213.258 92.7752 213.258Z" fill="#D7CCC2"/>
<path d="M94.2997 213.912C94.4676 213.758 94.4896 213.484 94.3489 213.301C94.2082 213.117 93.9581 213.093 93.7903 213.247C93.6224 213.401 93.6004 213.674 93.7411 213.858C93.8817 214.041 94.1319 214.065 94.2997 213.912Z" fill="#D7CCC2"/>
<path d="M95.4848 214.383C95.6107 214.268 95.6272 214.063 95.5217 213.925C95.4162 213.788 95.2286 213.77 95.1027 213.885C94.9768 214 94.9603 214.205 95.0658 214.343C95.1713 214.481 95.3589 214.499 95.4848 214.383Z" fill="#D7CCC2"/>
<path d="M97.1337 214.781C97.2145 214.624 97.164 214.426 97.021 214.338C96.8779 214.249 96.6965 214.305 96.6157 214.461C96.535 214.617 96.5854 214.816 96.7285 214.904C96.8715 214.992 97.0529 214.937 97.1337 214.781Z" fill="#D7CCC2"/>
<path d="M90.1985 208.925C90.4959 208.816 90.8925 208.816 91.0908 209.033C91.1899 209.25 91.2891 209.467 91.3882 209.575C91.0908 209.358 90.5951 209.467 90.3968 209.467C90.3968 209.25 90.3968 209.033 90.1985 208.925Z" fill="#686461"/>
<path d="M90.7954 210.332C91.0928 210.224 91.4894 210.007 91.7868 210.115C91.886 210.224 91.9851 210.332 92.0843 210.549C91.6877 210.441 91.192 210.657 91.0928 210.766C91.0928 210.549 90.9937 210.332 90.7954 210.332Z" fill="#686461"/>
<path d="M91.687 211.524C91.8852 211.308 92.3806 211.199 92.6778 211.199C92.7769 211.308 92.876 211.416 93.0742 211.524C92.6778 211.524 92.1824 211.741 91.9843 211.958C91.9843 211.849 91.8852 211.633 91.687 211.524Z" fill="#686461"/>
<path d="M92.7776 212.5C92.9758 212.283 93.273 212.175 93.6693 212.066C93.7684 212.175 93.9666 212.175 94.1647 212.391C93.7684 212.5 93.3721 212.825 93.1739 212.933C93.1739 212.716 93.0748 212.5 92.7776 212.5Z" fill="#686461"/>
<path d="M94.0659 213.15C94.2642 212.825 94.4625 212.717 94.7599 212.717C94.9582 212.825 94.9582 212.825 95.1565 212.934C94.859 213.15 94.5616 213.476 94.4625 213.584C94.3633 213.367 94.2642 213.15 94.0659 213.15Z" fill="#686461"/>
<path d="M95.3503 213.8C95.5486 213.475 95.8461 213.366 96.0443 213.258C96.2426 213.366 96.3418 213.366 96.54 213.475C96.2426 213.691 95.9452 214.017 95.7469 214.125C95.6478 214.017 95.5486 213.8 95.3503 213.8Z" fill="#686461"/>
<path d="M96.6406 214.341C96.7398 213.907 96.7398 213.799 96.9381 213.582C97.1363 213.582 97.3346 213.69 97.3346 213.69C97.2355 214.016 97.2355 214.232 97.1363 214.449C97.0372 214.341 96.8389 214.124 96.6406 214.341Z" fill="#686461"/>
<path d="M89.5073 207.407C89.8048 207.299 90.1022 207.299 90.3005 207.407C90.3996 207.624 90.4988 207.841 90.5979 207.949C90.2013 207.841 90.003 207.733 89.8048 207.841C89.8048 207.733 89.7056 207.516 89.5073 207.407Z" fill="#686461"/>
<path d="M88.0225 206.866C88.0225 206.758 88.0225 206.649 88.0225 206.541C88.0225 206.325 88.2206 206.108 88.4188 206C88.716 205.783 89.0133 205.566 89.4096 205.35C89.5087 205.566 89.6078 205.891 89.7068 206.216C89.4096 206.433 89.0133 206.541 88.8151 206.649C88.617 206.758 88.3197 206.866 88.0225 206.866Z" fill="#20505A"/>
<path d="M87.3269 88.7909C87.7232 91.9323 100.009 108.831 106.945 109.373C107.044 109.373 107.143 109.373 107.341 109.373C107.837 109.373 108.332 109.156 108.828 108.939C111.305 107.206 121.312 100.057 124.78 95.7237L122.699 91.6074C117.448 93.5573 107.242 101.14 107.242 101.14C107.242 101.14 106.648 101.357 106.549 101.032C102.387 93.5572 96.3433 89.5492 90.2993 85.7578L87.3269 88.7909Z" fill="#ECBC97"/>
<path d="M133.898 83.2676L129.34 91.1753C129.34 91.1753 129.836 92.1502 131.025 92.0419C132.115 91.9336 133.7 88.9005 133.799 88.3589C133.997 87.7089 133.7 87.1673 133.898 86.734C134.096 86.3007 133.997 85.2174 133.997 85.2174C133.898 85.2174 134.889 83.7009 133.898 83.2676Z" fill="#D7A887"/>
<path d="M128.05 91.1754L130.428 80.6678C130.527 80.3428 130.725 80.1262 130.923 79.9095L134.391 77.743C134.589 77.6347 134.887 77.6347 134.986 77.8514C135.085 77.9597 135.085 78.1763 135.085 78.2846L132.608 89.3338L128.05 91.1754Z" fill="#1A2E35"/>
<path d="M132.506 90.3086C132.506 90.3086 132.605 90.2002 132.605 89.8753C132.605 89.5503 132.605 89.117 132.506 88.5754C132.605 88.3587 132.605 88.2504 132.605 88.0337C132.506 87.8171 132.407 87.6004 132.209 87.4921H132.11V87.3838C132.308 87.0588 132.506 86.7339 132.704 86.3006C132.803 86.1922 132.803 86.0839 132.803 86.0839C132.803 85.9756 132.803 85.8673 132.803 85.7589C132.704 85.5423 132.605 85.4339 132.407 85.3256V85.2173L132.506 85.109C132.704 84.8923 132.902 84.6757 133.101 84.459C133.398 84.0257 133.794 83.7008 133.992 83.2675C134.091 83.0508 134.29 82.8341 134.29 82.6175C134.29 82.5091 134.389 82.4008 134.389 82.2925C134.389 82.1842 134.389 82.1842 134.29 82.1842C134.191 82.1842 134.091 82.1842 133.992 82.2925C133.893 82.2925 133.794 82.4009 133.695 82.4009C133.497 82.5092 133.299 82.6175 133.101 82.7258C132.704 82.9425 132.407 83.2674 132.209 83.3758C132.011 83.5924 131.813 83.7008 131.614 83.8091C131.515 83.9174 131.416 84.0257 131.416 83.9174C131.416 83.9174 131.515 83.809 131.614 83.7007C131.714 83.5924 131.912 83.3757 132.11 83.1591C132.308 82.9424 132.605 82.7258 133.002 82.4009C133.2 82.2925 133.398 82.1842 133.596 81.9675C133.695 81.8592 133.794 81.8592 133.893 81.7509C133.992 81.7509 134.191 81.6426 134.29 81.6426C134.488 81.6426 134.587 81.8592 134.488 81.9675C134.488 82.0759 134.488 82.1842 134.389 82.2925C134.29 82.5092 134.191 82.7258 133.992 82.9425C133.695 83.3758 133.398 83.7007 133.101 84.134C132.902 84.3507 132.704 84.5673 132.506 84.784V84.6757C132.704 84.784 132.902 85.0006 133.002 85.2173C133.002 85.3256 133.101 85.434 133.002 85.6506C133.002 85.759 132.902 85.8673 132.803 85.9756C132.605 86.3006 132.407 86.7339 132.11 87.0588V86.9505C132.308 87.1671 132.506 87.2755 132.506 87.6005C132.605 87.8171 132.506 88.1421 132.407 88.2504C132.506 88.792 132.506 89.3337 132.506 89.5503C132.605 90.0919 132.605 90.2003 132.506 90.3086Z" fill="#C89777"/>
<path d="M134.985 77.8516C134.985 77.8516 134.885 77.9599 134.687 78.0682C134.489 78.1766 134.192 78.3932 133.895 78.6099C133.498 78.8265 133.102 79.1514 132.706 79.3681C132.508 79.4764 132.21 79.6931 132.012 79.8014C131.715 79.9097 131.517 80.1264 131.319 80.343C131.12 80.5597 131.021 80.8846 130.922 81.2096C130.823 81.5346 130.823 81.8596 130.724 82.0762C130.625 82.6178 130.427 83.1595 130.328 83.5928C130.229 84.0261 130.13 84.3511 130.03 84.5677C129.931 84.7844 129.931 84.8927 129.931 84.8927C129.931 84.8927 129.931 84.7843 130.03 84.4594C130.03 84.2427 130.13 83.9178 130.229 83.4845C130.328 83.0512 130.427 82.5095 130.526 81.9679C130.625 81.6429 130.625 81.4263 130.724 81.1013C130.823 80.7763 130.922 80.4513 131.12 80.1264C131.319 79.9097 131.616 79.6931 131.913 79.5847C132.21 79.4764 132.408 79.2598 132.607 79.1515C133.102 78.8265 133.498 78.6098 133.895 78.3932C134.291 78.1765 134.489 77.9599 134.786 77.8516C134.885 77.9599 134.985 77.8516 134.985 77.8516Z" fill="#375A64"/>
<path d="M132.709 81.4267C132.609 81.6435 132.609 81.8603 132.709 81.8603C132.808 81.8603 132.907 81.7519 133.006 81.5351C133.105 81.3183 133.105 81.1016 133.006 81.1016C132.907 81.1016 132.808 81.2099 132.709 81.4267Z" fill="white"/>
<path d="M124.184 90.7416C124.977 90.3083 124.977 88.9001 125.373 88.0335C125.67 87.2752 126.067 86.5169 126.364 86.4086C126.859 86.0836 129.634 84.2421 129.634 84.2421L129.336 85.6504L132.012 83.5922C132.309 83.3755 134.191 81.4257 134.588 82.184C134.786 82.7256 133.3 84.1338 133.102 84.4588C132.606 85.217 132.804 85.2171 132.804 85.2171C132.804 85.2171 133.399 85.542 133.102 86.0836C132.804 86.6253 132.309 87.2753 132.309 87.2753C132.309 87.2753 133.002 87.6002 132.606 88.5751C132.606 88.5751 132.804 89.1167 132.705 89.875C132.606 90.3083 132.309 90.8499 131.913 91.2832C131.516 91.8249 131.021 92.1498 130.426 92.3665C128.147 93.2331 126.166 94.208 124.779 95.5079L122.698 91.3916L124.184 90.7416Z" fill="#ECBC97"/>
<path d="M130.133 85C130.133 85 129.538 85.5417 128.746 85.975C127.953 86.5166 127.359 86.8415 127.359 86.8415C127.359 86.8415 127.953 86.2999 128.746 85.8666C129.439 85.325 130.133 85 130.133 85Z" fill="#C89777"/>
<path d="M132.609 85.1094C132.609 85.1094 132.113 85.7593 131.42 86.5176C130.726 87.2759 130.132 87.8175 130.132 87.8175C130.132 87.8175 130.627 87.1675 131.321 86.4092C132.014 85.6509 132.609 85.1094 132.609 85.1094Z" fill="#C89777"/>
<path d="M132.408 87.0586C132.408 87.0586 132.21 87.4919 131.813 87.9252C131.516 88.3585 131.12 88.6835 131.12 88.6835C131.12 88.6835 131.318 88.2502 131.714 87.8169C132.011 87.3836 132.408 87.0586 132.408 87.0586Z" fill="#C89777"/>
<path d="M97.5346 121.398H68.0083C68.0083 121.398 69.0982 93.8832 72.8633 78.6094C73.3587 76.4429 75.0431 73.3014 76.5293 71.7848C77.1238 71.1349 77.8174 70.5933 78.61 70.2683C79.1054 70.0517 79.6999 69.9434 80.2944 69.9434L85.3476 70.3766C85.942 70.3766 86.4375 70.8099 86.6356 71.3516L91.6888 83.809C91.986 84.5673 92.3823 85.2172 92.9768 85.7588L100.408 93.0166L95.553 99.5161L94.9585 100.274" fill="#20505A"/>
<path d="M93.5687 99.841C85.444 92.7998 85.0477 91.3916 84.4532 89.0084C84.255 88.2502 83.9578 87.2753 83.3633 85.9754L84.0568 85.6504C84.6513 87.0586 84.9486 87.9252 85.1468 88.7918C85.7412 91.0666 86.1376 92.2582 94.0641 99.191L93.5687 99.841Z" fill="black"/>
<defs>
<clipPath id="clip0_16546_58376">
<rect width="156.121" height="148" fill="white" transform="translate(103.357 74)"/>
</clipPath>
</defs>
</svg>
