<svg width="343" height="233" viewBox="0 0 343 233" fill="none" xmlns="http://www.w3.org/2000/svg">
<path d="M198.05 126.232L206.237 139.4C208.184 143.112 208.578 149.383 208.869 151.398L209.16 155.435C209.354 157.027 209.257 158.408 209.257 159.472L209.16 186.97H214.619L213.351 145.564C213.351 144.606 213.448 142.063 213.545 140.576C214.813 127.197 218.415 127.408 221.829 126.246L222.709 125.288H218.615L212.478 131.234V122.209H208.384V131.551L200.003 124.33L196.498 124.435L198.057 126.239L198.05 126.232Z" fill="#754C24"/>
<path d="M227.184 125.379C221.726 131.431 201.161 140.245 188.104 125.168C187.619 124.639 186.643 125.062 185.957 124.851C181.281 123.681 178.552 120.497 176.897 116.354C176.315 114.868 176.017 113.275 176.017 111.683C176.114 108.076 177.382 104.997 180.111 102.658C178.261 99.3679 177.382 95.6479 178.164 91.301C178.455 89.7087 179.044 88.2222 179.82 86.947C181.967 83.1284 183.526 79.1971 187.225 78.1333C189.074 68.3684 193.265 65.9237 201.258 68.15C206.328 63.479 213.047 64.2187 215 70.9118C225.134 67.833 229.713 73.8849 230.204 86.6229C239.168 89.3846 240.338 95.1195 238.586 101.806C241.994 104.567 243.455 107.857 243.261 111.676C243.067 116.981 239.756 121.547 235.171 123.357C232.733 124.315 230.198 124.949 228.833 125.161C228.251 125.161 227.566 124.949 227.178 125.372L227.184 125.379Z" fill="#A9D661"/>
<path d="M160.527 135.891L167.253 146.719C168.908 149.798 169.199 154.892 169.4 156.484L169.691 159.774C169.788 161.049 169.788 162.219 169.788 163.064L169.691 185.574H174.172L173.099 151.707C173.099 150.968 173.196 148.84 173.293 147.67C174.366 136.736 177.289 136.947 180.018 135.989L180.697 135.249H177.386L172.413 140.132V132.805H169.005V140.449L162.182 134.503L159.259 134.608L160.527 135.883V135.891Z" fill="#754C24"/>
<path d="M184.306 135.257C179.824 140.245 163.062 147.361 152.339 135.046C151.951 134.623 151.169 134.94 150.587 134.834C146.784 133.876 144.547 131.333 143.182 127.824C142.697 126.655 142.503 125.274 142.503 124.006C142.6 121.032 143.674 118.482 145.814 116.678C144.353 114.022 143.57 110.944 144.256 107.336C144.45 106.061 144.935 104.892 145.62 103.729C147.373 100.65 148.64 97.3601 151.66 96.5076C153.219 88.5464 156.634 86.5244 163.159 88.3351C167.252 84.5165 172.808 85.0449 174.366 90.5614C182.65 88.011 186.453 93.0061 186.841 103.405C194.149 105.631 195.125 110.309 193.761 115.826C196.587 118.052 197.757 120.814 197.563 123.893C197.369 128.247 194.64 131.96 190.935 133.446C188.891 134.299 186.841 134.722 185.767 134.933C185.282 134.933 184.694 134.827 184.306 135.25V135.257Z" fill="#EACE03"/>
<path d="M226.406 99.797L237.322 117.312C239.954 122.3 240.439 130.585 240.827 133.234L241.215 138.652C241.409 140.773 241.312 142.583 241.409 143.957L241.312 187.807H248.62L246.964 125.273C246.867 123.998 247.061 120.602 247.255 118.693C248.911 100.854 253.787 101.178 258.269 99.6913L259.439 98.4161H253.981L245.794 106.272V94.2734H240.239V106.694L229.128 97.0352L224.453 97.2466L226.399 99.797H226.406Z" fill="#754C24"/>
<path d="M265.091 98.7333C257.881 106.8 230.396 118.481 213.051 98.4163C212.372 97.6765 211.105 98.3106 210.128 98.0992C203.894 96.507 200.285 92.3643 198.041 86.7422C197.259 84.7272 196.871 82.5995 196.968 80.4789C197.065 75.5964 198.817 71.5595 202.329 68.4807C199.891 64.1266 198.72 59.1386 199.794 53.298C200.182 51.1773 200.964 49.261 201.941 47.4574C204.767 42.3636 206.811 37.1571 211.784 35.6706C214.319 22.7213 219.874 19.424 230.493 22.2915C237.218 16.0282 246.182 16.9864 248.717 26.0044C262.265 21.8617 268.402 30.0414 268.984 46.922C280.871 50.5292 282.436 58.1733 280.192 67.0927C284.77 70.6999 286.626 75.1596 286.426 80.1548C286.135 87.1649 281.75 93.3225 275.704 95.7602C272.392 97.1411 269.075 97.8808 267.225 98.2049C266.546 98.4163 265.667 98.2049 265.078 98.7333H265.091Z" fill="#BC8E6F"/>
<path d="M168.756 212.03C255.895 212.03 326.536 204.756 326.536 195.784C326.536 186.811 255.895 179.537 168.756 179.537C81.6163 179.537 10.9758 186.811 10.9758 195.784C10.9758 204.756 81.6163 212.03 168.756 212.03Z" fill="#F3F3F3"/>
<path d="M67.1493 144.004C67.1493 144.004 67.1102 143.979 67.0945 143.962C66.7194 143.637 62.3508 139.852 61.3036 139.22C60.2564 138.588 59.0373 138.434 59.4124 137.323C59.7875 136.212 62.0304 134.649 62.8119 134.358C63.5075 134.102 64.8751 133.529 65.1721 133.41C65.2111 133.393 65.2424 133.376 65.2815 133.359C65.5159 133.222 66.4928 132.649 66.7429 132.666C67.032 132.692 68.6888 130.761 70.6035 133.76C72.5181 136.759 73.2215 136.981 73.2215 137.477C73.2215 137.947 71.6819 142.586 68.8373 144.56C68.5325 144.773 68.1496 144.756 67.8526 144.534L67.1414 144.004H67.1493Z" stroke="black" stroke-width="0.91" stroke-miterlimit="10"/>
<path d="M73.8775 145.884C73.8775 145.884 68.7977 147.259 69.4229 143.85C70.0481 140.441 70.7671 136.485 74.6981 136.425C78.629 136.366 79.0354 138.015 83.3805 139.886C87.7256 141.757 88.3196 142.312 96.1737 142.534C104.028 142.757 106.482 142.808 107.826 142.697C109.17 142.586 110.459 149.139 109.639 150.899C108.818 152.659 102.277 151.224 101.902 151.053C101.527 150.882 80.1842 147.037 77.5974 146.268C75.0107 145.499 73.8931 145.884 73.8931 145.884H73.8775Z" fill="#131315"/>
<path d="M58.7403 137.768C58.7403 137.768 56.81 138.469 55.6768 137.768C54.5436 137.068 48.7293 135 47.1428 135.248C45.5564 135.495 44.0012 134.248 44.0012 134.248C44.0012 134.248 50.3939 135.248 53.6762 135.367C56.9663 135.487 58.5527 134.906 59.0763 135.487C59.5999 136.068 59.5452 136.222 59.2639 136.845C58.9826 137.469 58.7325 137.768 58.7325 137.768H58.7403Z" fill="#1E1E1E"/>
<path d="M103.629 150.046C103.629 150.046 94.1497 175.635 92.5554 175.593C90.9612 175.55 90.3594 182.368 90.2109 183.06C90.0625 183.752 87.8508 187.067 93.2197 188.221C98.5886 189.374 123.667 194.415 123.667 194.415C123.667 194.415 129.028 195.569 132.279 194.826C135.53 194.082 138.25 192.595 139.531 192.433C140.813 192.271 146.182 184.914 147.768 182.77C149.355 180.625 164.993 154.6 165.141 153.284C165.29 151.968 163.203 148.722 161.992 145.671C160.78 142.621 151.605 129.472 151.605 129.472L143.001 119.407C143.001 119.407 141.845 118.689 140.836 119.407C139.828 120.125 137.742 122.346 137.593 123.508C137.445 124.67 137.288 128.797 137.445 129.455C137.601 130.113 140.891 137.52 140.891 137.52C140.891 137.52 133.514 136.367 133.358 137.606C133.201 138.845 133.623 144.339 133.764 147.56C133.905 150.781 133.983 151.78 133.764 153.062C133.615 153.908 128.801 175.815 128.801 175.815L110.366 169.082L112.28 148.764L111.1 149.337L104.012 148.696L103.637 150.063L103.629 150.046Z" fill="black"/>
<path d="M147.666 151.89L133.56 128.428C133.56 128.428 130.512 123.378 129.934 124.463C129.356 125.548 129.785 130.41 129.785 130.41C129.785 130.41 135.475 143.072 136.788 145.499C138.101 147.925 139.304 154.752 139.304 154.752L135.076 169.952L136.788 181.41L137.647 181.854L143.845 169.961L151.339 157.452L147.666 151.898V151.89Z" fill="#00DFF4"/>
<path d="M163.523 165.279L161.273 160.11L161.859 159.393L163.226 162.827L164.297 165.279H163.523Z" fill="#B7C4B7"/>
<path d="M131.122 133.384C131.122 133.384 128.058 127.13 126.628 124.857C125.198 122.584 124.713 122.251 122.549 120.671C120.814 119.397 118.712 116.518 118.016 116.142C116.82 115.493 112.335 119.022 112.038 118.851C111.741 118.68 112.819 116.962 112.764 116.467C112.717 115.937 111.764 115.775 111.1 116.134C110.834 116.279 108.482 117.842 107.45 118.534C107.02 118.825 106.45 118.671 106.2 118.184C106.098 117.988 106.028 117.731 106.02 117.415C105.981 116.219 108.302 114.732 108.302 114.732L113.257 109.239C113.257 109.239 116.695 105.385 120.525 104.505C124.354 103.625 126.011 103.617 127.066 104.163C128.121 104.71 134.287 108.905 135.647 110.341C137.006 111.776 140.93 116.202 140.226 116.791C139.523 117.381 136.006 118.5 135.272 118.902C134.623 119.252 133.232 120.303 133.232 120.303C132.872 120.833 132.036 121.098 130.911 124.379C130.559 125.412 129.754 123.951 129.637 127.121C129.559 129.146 131.13 133.376 131.13 133.376L131.122 133.384Z" fill="black"/>
<path d="M67.8836 133.325C67.8836 133.325 61.9911 136.887 56.9504 136.999C51.9176 137.11 38.9212 135.512 36.397 133.863C33.8806 132.214 30.1997 125.49 30.1528 123.507C30.1059 121.525 30.1528 120.919 30.1528 120.919C30.1528 120.919 29.0978 120.645 29.2932 119.047C29.4886 117.45 29.3948 117.116 29.9496 116.954C30.5045 116.792 31.2078 116.681 31.2078 116.681C31.2078 116.681 31.6611 114.254 32.5208 113.263C33.3804 112.272 37.2566 109.41 39.7262 107.923C42.1957 106.436 49.6981 103.352 57.0989 103.685C64.4997 104.018 69.5404 103.352 71.455 109.136C71.455 109.136 72.6664 113.87 72.9164 114.639C73.1665 115.408 73.4713 117.339 72.5648 120.039C71.6582 122.738 69.8452 130.966 69.1809 132C68.5166 133.034 67.8836 133.325 67.8836 133.325Z" fill="#1E1E1E"/>
<path d="M29.9574 116.954C29.9574 116.954 50.7375 117.894 53.9807 117.398C57.2318 116.902 72.5569 113.365 72.5569 113.365L73.0962 115.459C73.0962 115.459 58.5837 119.303 56.1689 119.303C53.7541 119.303 29.5745 118.013 29.5745 118.013H29.4182L29.4729 117.569C29.4729 117.569 29.5042 117.415 29.5276 117.355C29.5511 117.296 29.5901 117.219 29.5901 117.21C29.5901 117.202 29.6449 117.125 29.6917 117.09C29.7386 117.056 29.8559 116.996 29.8715 116.988C29.8871 116.979 29.9496 116.962 29.9496 116.962L29.9574 116.954Z" fill="#070707"/>
<path d="M29.418 117.988C29.418 117.988 29.1132 120.192 29.6369 120.551C30.1605 120.91 40.6872 121.995 40.6872 121.995C40.6872 121.995 55.4185 122.679 56.4032 122.593C57.3879 122.508 72.5724 120.03 72.5724 120.03C72.5724 120.03 73.221 116.493 73.1663 115.972C73.1116 115.45 73.0491 115.459 73.0491 115.459C73.0491 115.459 61.2407 118.484 59.2556 118.834C57.2706 119.184 34.3805 118.091 34.3805 118.091L29.4258 117.988H29.418Z" fill="#3D3D3D"/>
<path d="M71.0488 118.218C71.0488 118.218 73.9951 117.637 74.1436 117.184C74.292 116.731 74.1045 115.74 73.6121 115.74C73.1198 115.74 70.5877 116.466 70.5877 116.466L70.3142 116.56C69.8609 116.706 69.5874 117.227 69.7125 117.722C69.7125 117.722 69.7125 117.74 69.7125 117.748L69.9235 118.534L71.041 118.227L71.0488 118.218Z" fill="white"/>
<path d="M58.803 121.662C58.803 121.662 61.7883 121.431 61.9837 120.996C62.179 120.56 62.0852 119.552 61.6007 119.5C61.1162 119.449 58.5216 119.876 58.5216 119.876L58.2403 119.936C57.7792 120.03 57.451 120.509 57.5291 121.021C57.5291 121.021 57.5291 121.038 57.5291 121.047L57.662 121.85L58.803 121.671V121.662Z" fill="white"/>
<path d="M70.8922 201.934C81.6393 201.934 90.3515 192.409 90.3515 180.66C90.3515 168.91 81.6393 159.385 70.8922 159.385C60.1451 159.385 51.4329 168.91 51.4329 180.66C51.4329 192.409 60.1451 201.934 70.8922 201.934Z" fill="#393A38"/>
<path d="M68.9156 193.962C75.3941 193.962 80.6459 187.944 80.6459 180.522C80.6459 173.099 75.3941 167.082 68.9156 167.082C62.4371 167.082 57.1853 173.099 57.1853 180.522C57.1853 187.944 62.4371 193.962 68.9156 193.962Z" fill="black"/>
<path d="M102.449 154.949L93.0633 176.471C92.6257 177.471 91.6332 178.018 90.6407 177.813L85.4437 176.728C84.8263 176.6 84.2949 176.181 83.9588 175.591C83.4587 174.703 82.4896 173.413 80.8328 172.789C78.2852 171.832 55.4263 164.219 53.7305 163.655C53.6601 163.63 53.5976 163.604 53.5351 163.578C52.2378 162.997 51.7533 161.263 52.5269 159.99C53.1756 158.922 53.9024 157.777 54.3869 157.179C55.4419 155.855 60.7952 147.627 61.7877 146.858C62.8427 146.029 66.0156 144.217 70.095 144.628C74.1745 145.038 79.7622 143.286 85.3577 144.576C90.9454 145.866 103.184 150.002 103.41 150.993C103.637 151.984 102.426 154.957 102.426 154.957L102.449 154.949Z" fill="#00DFF4"/>
<path d="M98.6901 181.094C98.6901 181.094 88.4681 179.496 86.655 178.778C84.8419 178.06 66.7112 180.043 66.1016 179.932C65.492 179.82 63.382 179.487 63.1788 181.085C62.9756 182.683 63.0303 184.887 63.9368 184.938C64.8434 184.99 83.5837 186.314 85.7485 185.545C87.9132 184.776 87.9132 184.639 90.6329 184.374C93.3525 184.11 98.8855 184.879 99.4169 184.648C99.9483 184.417 100.55 182.871 100.214 182.042C99.878 181.213 98.6979 181.076 98.6979 181.076L98.6901 181.094Z" fill="#1E1E1D"/>
<path d="M64.9064 179.908C64.9064 179.908 64.2265 177.088 64.6017 176.763C64.9768 176.439 65.3988 176.721 66.0396 175.815C66.6804 174.909 67.2431 172.338 67.7042 170.449C68.1653 168.561 68.2356 168.51 68.2356 168.51L71.5179 169.612C71.5179 169.612 68.5326 174.533 68.009 176.353C67.4854 178.173 67.712 179.702 67.712 179.702L67.7277 179.925H64.9143L64.9064 179.908Z" fill="#1E1E1D"/>
<path d="M114.938 166.135C114.938 166.135 113.82 169.237 116.298 169.126C118.775 169.015 118.775 167.366 119.775 166.435C120.776 165.503 121.682 168.135 124.558 170.16C127.442 172.185 128.192 172.868 128.317 173.449C128.442 174.03 127.067 175.389 125.988 175.731C124.91 176.072 123.284 175.833 120.221 175.149C117.165 174.466 112.578 175.226 112 174.107C111.421 172.988 111.273 172.373 111.499 171.911C111.687 171.527 112.867 170.792 113.383 170.1C113.484 169.963 113.563 169.827 113.602 169.69C113.828 168.895 113.93 167.195 114.282 166.674C114.633 166.153 114.93 166.127 114.93 166.127L114.938 166.135Z" fill="#5182EC"/>
<path d="M116.892 172.03C118.392 172.825 121.081 173.508 122.253 173.705C123.425 173.901 126.215 174.756 127.012 174.303C127.809 173.85 128.317 173.465 128.317 173.465C128.317 173.465 127.856 176.943 123.433 176.473C119.01 176.003 115.266 175.422 114.297 175.166C113.328 174.909 112.132 174.832 111.773 173.645C111.414 172.457 111.101 172.363 111.507 171.927C111.914 171.492 112.875 169.979 113.391 170.116C113.906 170.253 116.892 172.039 116.892 172.039V172.03Z" fill="white"/>
<path d="M115.899 163.947L114.844 169.791C114.844 169.791 116.415 169.971 117.673 169.569C118.931 169.168 119.51 166.818 119.588 166.63C119.666 166.442 118.705 165.058 118.705 165.058L115.899 163.947Z" fill="#FED5B5"/>
<path d="M120.283 164.989L119.212 165.1L117.642 165.083L116.672 164.989L118.275 149.968C118.275 149.968 118.275 141.1 117.774 139.186C117.274 137.272 117.173 137.391 116.071 136.605C114.57 135.529 106.552 133.598 106.365 133.547C106.177 133.495 103.145 133.102 100.355 133.145C97.5648 133.188 92.7586 129.719 91.6801 128.984C90.6017 128.249 90.0937 124.857 89.9139 124.088C89.7342 123.319 88.4291 121.542 90.2734 122.61C92.0084 123.61 95.3063 128.403 98.3698 129.326C101.433 130.249 109.928 132.068 113.929 133.393C116.844 134.358 119.22 135.554 119.627 137.366C120.08 139.399 120.846 146.286 120.58 149.755C120.314 153.224 121.299 157.453 121.033 159.64C120.838 161.281 121.635 162.938 121.377 163.955C121.299 164.263 120.76 164.938 120.275 164.997L120.283 164.989Z" fill="#091B4C"/>
<path d="M107.935 166.86L105.903 177.318C105.903 177.318 106.927 177.053 108.865 176.626C110.694 176.224 113.281 172.286 113.398 172.004C113.515 171.722 112.163 168.535 112.163 168.535L107.935 166.852V166.86Z" fill="#FED5B5"/>
<path d="M106.794 172.431C107.068 172.474 107.255 172.747 107.208 173.038C107.083 173.798 107.451 175.695 109.873 174.986C113.148 174.029 112.038 171.824 113.554 170.423C115.07 169.022 116.422 172.986 120.767 176.037C125.112 179.087 126.246 180.129 126.433 180.992C126.621 181.855 124.542 183.914 122.916 184.435C121.291 184.957 118.298 185.35 113.687 184.316C109.076 183.282 102.707 183.675 101.839 181.983C100.972 180.292 100.745 179.369 101.081 178.677C101.363 178.096 103.145 176.994 103.926 175.951C104.082 175.746 104.848 174.738 104.903 174.541C105.247 173.345 104.786 172.909 105.614 172.559C106.052 172.371 106.482 172.38 106.786 172.422L106.794 172.431Z" fill="#15B1FF"/>
<path d="M108.857 181.283C111.124 182.479 115.219 182.419 117.009 182.581C118.798 182.744 123.315 183.461 124.527 182.778C125.738 182.094 126.433 180.992 126.433 180.992C126.433 180.992 125.738 186.238 119.064 185.529C112.39 184.82 106.755 183.948 105.294 183.564C103.832 183.179 102.035 183.06 101.488 181.265C100.941 179.471 100.472 179.335 101.082 178.677C101.691 178.019 104.653 175.114 103.926 175.951C103.004 177.019 106.919 180.42 108.857 181.283Z" fill="white"/>
<path d="M74.2133 124.832C74.2133 124.832 71.4859 132.992 73.846 135.264C76.2062 137.537 89.4291 143.851 95.5717 143.629C101.714 143.407 108.779 142.399 108.576 144.714C108.373 147.03 103.777 169.441 103.777 169.441C103.777 169.441 103.441 170.235 105.77 170.62C108.271 171.038 110.295 169.714 110.295 169.714C110.295 169.714 111.28 169.227 112.39 169.304C112.882 169.338 113.89 169.56 114.843 169.791C116.086 170.099 117.016 170.235 117.188 168.86C117.907 163.033 118.282 150.994 118.282 149.302C118.282 145.996 118.735 138.127 116.422 136.811C114.109 135.487 106.2 132.804 101.566 133.18C98.0334 133.462 94.4385 130.36 93.0006 129.395C92.5473 129.087 92.1722 128.668 91.8987 128.173C91.2891 127.054 90.195 124.969 90.2262 124.413C90.2731 123.644 84.3181 123.576 83.5132 123.388C82.7082 123.2 78.5897 122.619 78.5897 122.619H75.3621L74.2133 124.849V124.832Z" fill="#0F256D"/>
<path d="M130.215 124.933L144.954 148.429C144.954 148.429 149.8 156.956 151.331 157.443C152.207 157.725 159.99 151.727 161.983 150.121C165.141 147.592 163.468 145.747 157.083 136.767C151.597 129.051 143.649 119.662 141.524 117.175C141.188 116.782 140.687 116.637 140.219 116.791C138.39 117.397 133.818 119.081 132.38 121.242C130.567 123.968 130.215 124.933 130.215 124.933Z" fill="#3EF0FB"/>
<path d="M166.876 210.476C178.507 210.476 187.937 200.167 187.937 187.45C187.937 174.733 178.507 164.424 166.876 164.424C155.244 164.424 145.814 174.733 145.814 187.45C145.814 200.167 155.244 210.476 166.876 210.476Z" fill="#393A38"/>
<path d="M166.876 201.992C173.885 201.992 179.568 195.482 179.568 187.45C179.568 179.419 173.885 172.908 166.876 172.908C159.867 172.908 154.185 179.419 154.185 187.45C154.185 195.482 159.867 201.992 166.876 201.992Z" fill="black"/>
<path d="M165.415 188.348L169.416 185.622L172.706 170.875C172.706 170.875 173.237 168.645 174.105 167.526C174.972 166.407 175.543 165.937 175.879 166.936C175.879 166.936 176.027 166.048 174.558 165.416C173.089 164.783 165.188 161.494 159.452 162.528C153.708 163.561 165.422 188.339 165.422 188.339L165.415 188.348Z" fill="#00DFF4"/>
<path d="M152.403 163.835L155.052 169.688L156.185 169.021L153.2 162.16L151.293 157.529L150.308 159.17L152.403 163.835Z" fill="#B7C4B7"/>
<path d="M165.071 188.229L157.772 168.928C157.678 168.681 157.436 168.552 157.193 168.612C156.529 168.8 155.208 169.21 154.349 169.791C154.036 169.996 153.786 170.227 153.653 170.475C153.161 171.346 160.28 182.633 164.219 188.742C164.555 189.263 165.297 188.819 165.071 188.229Z" fill="#1E1E1D"/>
<path d="M115.807 173.011C116.261 172.849 116.651 172.524 117.105 172.687C117.12 172.704 117.55 173.131 117.745 173.387C117.144 173.225 116.409 173.507 116.261 173.669C116.261 173.336 116.112 173.011 115.807 173.011Z" fill="#282625"/>
<path d="M117.167 174.832C117.472 174.499 118.215 174.311 118.668 174.311C118.973 174.516 119.082 174.704 119.238 174.832C118.637 174.832 117.918 175.165 117.621 175.49C117.621 175.327 117.472 174.994 117.167 174.832Z" fill="#282625"/>
<path d="M118.824 176.319C119.129 175.986 119.598 175.789 120.2 175.627C120.286 175.678 120.552 175.883 120.935 176.157C120.333 176.319 119.723 176.815 119.426 176.985C119.426 176.652 119.278 176.328 118.824 176.328V176.319Z" fill="#282625"/>
<path d="M120.794 177.472C121.098 176.976 121.395 176.797 121.849 176.797C122.154 176.993 122.239 177.079 122.388 177.181C121.935 177.515 121.552 177.967 121.403 178.13C121.255 177.797 121.098 177.472 120.802 177.472H120.794Z" fill="#282625"/>
<path d="M121.238 178.617C121.493 178.384 121.526 177.969 121.313 177.69C121.099 177.412 120.72 177.375 120.465 177.609C120.21 177.842 120.177 178.257 120.39 178.535C120.604 178.814 120.983 178.85 121.238 178.617Z" fill="black"/>
<path d="M115.69 174.259C116.022 174.259 116.292 173.965 116.292 173.601C116.292 173.238 116.022 172.943 115.69 172.943C115.358 172.943 115.088 173.238 115.088 173.601C115.088 173.965 115.358 174.259 115.69 174.259Z" fill="black"/>
<path d="M117.074 176.113C117.406 176.113 117.675 175.818 117.675 175.455C117.675 175.091 117.406 174.797 117.074 174.797C116.741 174.797 116.472 175.091 116.472 175.455C116.472 175.818 116.741 176.113 117.074 176.113Z" fill="black"/>
<path d="M118.777 176.25C119.231 176.131 119.622 176.567 119.512 177.054C119.457 177.284 119.285 177.472 119.074 177.532C118.621 177.652 118.23 177.216 118.34 176.729C118.395 176.498 118.566 176.31 118.777 176.25Z" fill="black"/>
<path d="M121.845 168.697C122.127 168.586 122.361 168.373 122.643 168.467C122.658 168.475 122.932 168.732 123.057 168.885C122.682 168.8 122.228 168.996 122.142 169.099C122.142 168.894 122.033 168.689 121.845 168.697Z" fill="#282625"/>
<path d="M122.721 169.792C122.901 169.579 123.362 169.442 123.643 169.434C123.839 169.553 123.909 169.664 124.011 169.741C123.636 169.758 123.198 169.98 123.018 170.194C123.018 170.091 122.917 169.886 122.721 169.792Z" fill="#282625"/>
<path d="M123.784 170.672C123.964 170.459 124.253 170.322 124.628 170.211C124.683 170.237 124.847 170.365 125.097 170.519C124.722 170.638 124.362 170.963 124.175 171.065C124.175 170.86 124.066 170.655 123.784 170.672Z" fill="#282625"/>
<path d="M125.027 171.337C125.206 171.021 125.386 170.901 125.667 170.893C125.863 171.004 125.918 171.063 126.011 171.115C125.738 171.328 125.511 171.619 125.417 171.73C125.316 171.525 125.214 171.328 125.027 171.337Z" fill="#282625"/>
<path d="M125.332 172.051C125.486 171.899 125.498 171.639 125.359 171.471C125.22 171.303 124.983 171.29 124.829 171.442C124.676 171.594 124.664 171.853 124.802 172.021C124.941 172.189 125.179 172.202 125.332 172.051Z" fill="black"/>
<path d="M121.794 169.482C122.001 169.474 122.163 169.284 122.155 169.057C122.148 168.831 121.974 168.654 121.767 168.663C121.56 168.671 121.398 168.861 121.406 169.088C121.413 169.314 121.587 169.491 121.794 169.482Z" fill="black"/>
<path d="M122.691 170.599C122.898 170.591 123.06 170.401 123.052 170.174C123.044 169.948 122.87 169.771 122.663 169.78C122.456 169.788 122.295 169.978 122.302 170.205C122.31 170.431 122.484 170.608 122.691 170.599Z" fill="black"/>
<path d="M123.753 170.628C124.027 170.543 124.285 170.799 124.23 171.106C124.206 171.252 124.097 171.371 123.972 171.414C123.698 171.499 123.44 171.243 123.495 170.936C123.519 170.79 123.628 170.671 123.753 170.628Z" fill="black"/>
<path d="M89.7033 87.4258C89.7033 87.4258 99.8081 104.36 113.539 105.078C113.539 105.078 120.166 105.257 119.22 105.77C118.142 106.351 115.954 108.402 115.954 108.402C115.954 108.402 106.052 108.701 104.341 107.257C102.629 105.813 93.0012 101.284 92.7667 100.285C92.5323 99.285 89.3829 95.8161 88.8124 93.3127C88.2419 90.8092 87.7026 88.2289 87.7026 88.2289L89.7033 87.4258Z" fill="#B5C5C6"/>
<path d="M84.5761 78.873C84.5761 78.873 84.0759 84.1191 82.9975 85.6143C81.919 87.1095 87.2957 86.8361 87.2957 86.8361L88.4445 86.8532C88.4445 86.8532 87.749 85.2042 88.4445 81.7353C89.101 78.4629 88.7493 79.8642 88.7337 79.5822L84.5683 78.873H84.5761Z" fill="#FED5B5"/>
<path d="M81.3175 87.7418C81.6848 86.3833 83.0759 85.6997 84.2482 86.2978C88.2807 88.357 88.4683 87.7845 88.9919 87.2633C89.5936 86.6567 91.4067 96.6533 93.2198 99.6266C95.0328 102.6 92.9072 105.377 92.6649 108.658C92.6024 109.555 92.6415 110.093 92.7196 110.409C92.8446 110.922 92.8368 111.469 92.6415 111.956C92.1178 113.263 91.1957 115.578 90.297 117.945C88.9372 121.542 92.4305 122.157 90.6643 124.071C87.4445 127.574 83.4588 127.241 81.2785 126.464C79.0981 125.686 81.4035 124.627 79.0121 124.746C77.8477 124.806 75.722 124.148 74.5888 123.969C73.4557 123.789 73.3384 123.123 73.5026 121.858L77.5976 102.831C77.6132 102.72 77.6367 102.6 77.6601 102.497L81.3175 87.7503V87.7418Z" fill="#BAD4D8"/>
<path d="M114.344 116.458C114.25 116.433 114.195 116.398 114.117 116.339C113.64 115.954 111.96 114.604 111.03 114.613C110.014 114.63 109.631 114.57 107.92 114.775H106.662C106.576 114.801 105.513 114.775 105.45 114.707C105.31 114.561 105.364 114.168 105.536 113.562C105.786 112.665 105.903 112.22 106.208 111.981C106.685 111.597 109.959 111.178 112.421 111.955C112.421 111.955 112.71 111.938 114.226 113.408C115.828 114.954 116.626 116.612 116.68 116.868C116.774 117.321 116.485 117.159 116.485 117.159C116.485 117.159 116.141 117.022 115.961 116.766C115.649 116.339 115.321 115.877 115.289 115.817C115.235 115.723 114.18 114.288 114.18 114.288L116.211 117.125C116.211 117.125 116.243 117.167 116.258 117.193C116.336 117.347 116.462 117.885 115.891 117.458C115.406 117.09 114.797 116.253 114.18 115.553C113.945 115.288 113.914 115.254 113.703 115.083C112.859 114.382 113.187 114.621 113.187 114.621L114.242 115.706C114.242 115.706 114.711 116.074 114.609 116.356C114.578 116.45 114.516 116.492 114.351 116.45L114.344 116.458Z" fill="#FED5B5"/>
<path d="M112.202 115.972C112.132 116.057 111.976 115.972 111.976 116.322C111.976 116.672 111.859 116.937 111.64 116.758C111.421 116.578 111.226 116.117 111.312 115.997C111.382 115.895 112.202 115.963 112.202 115.972Z" fill="#FED5B5"/>
<path d="M102.09 114.255C102.09 114.255 99.4482 113.691 97.1975 112.965C93.0555 111.632 91.5081 111.546 90.6016 110.222C89.6951 108.898 87.4287 106.915 85.6156 104.113C83.8026 101.311 81.3877 97.8331 81.5362 95.193C81.6847 92.5529 79.9654 90.1691 81.3252 88.3492C82.685 86.5293 83.1461 83.8379 86.9207 85.1622C90.6954 86.4866 90.2343 89.6052 90.3203 92.194C90.4219 95.1332 92.0317 99.5163 94.1496 102.661C96.2675 105.796 102.058 107.069 105.231 109.051C108.404 111.034 108.693 111.341 108.693 111.341C108.693 111.341 108.248 111.461 108.006 113.571C107.81 115.297 105.489 114.793 105.083 114.981C104.981 115.024 104.864 115.024 104.755 114.99L102.09 114.263V114.255Z" fill="#B7CCCE"/>
<path d="M114.055 116.152C114.055 116.152 114.024 116.1 114.047 116.075C114.086 116.015 114.156 115.895 114.196 115.887C114.258 115.887 114.547 116.169 114.555 116.211C114.555 116.211 114.571 116.357 114.367 116.399L114.055 116.152Z" fill="#B7C4B7"/>
<path d="M115.703 117.098C115.703 117.098 115.844 116.799 115.922 116.893C116 116.987 116.211 117.244 116.203 117.338C116.195 117.432 116.18 117.517 116.102 117.5C116.024 117.483 115.703 117.09 115.703 117.09V117.098Z" fill="#B7C4B7"/>
<path d="M116.04 116.621C116.04 116.621 116.188 116.305 116.274 116.407C116.36 116.51 116.626 116.826 116.618 116.92C116.61 117.014 116.548 117.057 116.462 117.048C116.376 117.039 116.048 116.621 116.048 116.621H116.04Z" fill="#B7C4B7"/>
<path d="M84.3739 73.4473C84.3739 73.4473 83.2486 75.6004 85.1867 77.9415C85.1867 77.9415 86.4605 79.7613 86.9372 81.2651C86.9372 81.2651 87.328 82.5467 87.7187 85.0074C87.9063 86.1865 88.4143 88.2883 89.2739 90.2022L90.4305 92.0477C90.4305 92.0477 88.3752 90.6978 87.2264 88.1175C87.2264 88.1175 85.7337 85.5286 85.2492 83.085C85.2492 83.085 85.3664 85.5542 84.0222 86.7675C82.6781 87.9722 81.3183 88.2798 81.623 90.6636C81.623 90.6636 81.8809 92.8423 82.4905 95.0809L83.186 97.8065C83.186 97.8065 81.5605 97.9175 79.8959 97.2425C78.2313 96.5676 75.754 95.5252 75.5039 92.0563C75.2538 88.5874 77.8171 85.4517 78.6768 83.3413C79.5364 81.2309 78.372 78.4712 79.8881 75.0108C79.8881 75.0108 81.9356 75.3782 84.3817 73.4558L84.3739 73.4473Z" fill="#563324"/>
<path d="M75.5035 92.0472C75.3628 90.1163 76.0974 88.2793 76.9258 86.673C75.2534 92.2865 76.9102 93.4741 76.9102 93.4741C76.8242 88.5954 79.0984 86.8524 79.0984 86.8524C77.3244 89.5096 77.7776 92.1754 78.4575 94.0551C79.239 96.2338 80.9661 95.8579 80.9661 95.8579L80.4582 94.3456C79.3719 91.5517 79.958 88.1682 80.6692 87.7923C81.3803 87.4249 83.0918 85.4512 83.592 83.6484C84.0843 81.8456 83.0059 75.7793 83.0059 75.7793C83.8577 76.1125 85.8583 84.3746 85.8583 84.3746C85.8583 84.3746 85.8583 84.6651 85.8583 85.1607C85.6083 84.4943 85.3894 83.7766 85.2488 83.0759C85.2488 83.0759 85.366 85.5452 84.0218 86.7584C82.6776 87.9632 81.3178 88.2707 81.6226 90.6545C81.6226 90.6545 81.8805 92.8333 82.4901 95.0718L83.1856 97.7974C83.1856 97.7974 81.5601 97.9085 79.8955 97.2335C78.2309 96.5585 75.7535 95.5161 75.5035 92.0472Z" fill="#422720"/>
<path d="M92.4537 68.3555C92.4537 68.3555 92.6647 70.9187 92.6491 71.8671C92.6335 72.8155 92.2193 73.8579 92.188 74.7636C92.1568 75.6692 92.5397 76.7714 92.5006 77.0961C92.4694 77.3524 91.5316 77.8138 91.8598 78.0958C92.188 78.3777 91.344 78.5059 91.6879 78.4973C91.9223 78.4973 91.9536 78.7536 91.727 78.7878C91.5003 78.822 91.2815 79.4372 91.3206 79.5568C91.3596 79.6764 91.5628 82.3849 89.4528 81.5561C87.3427 80.7273 85.1624 79.6679 85.0295 79.2919C84.8966 78.916 83.615 75.3616 83.615 75.3616C83.615 75.3616 83.6306 69.3552 83.7244 69.1843C83.8182 69.0134 84.9357 67.2619 84.9357 67.2619L86.108 66.621L89.1324 66.1426H90.9611L92.0552 67.3387L92.4537 68.347V68.3555Z" fill="#FED5B5"/>
<path d="M93.6331 67.8595C92.498 63.1974 87.5138 62.605 83.8898 63.1833C78.6606 64.0179 76.047 69.5146 77.099 74.5128C77.8798 78.225 83.3081 82.1583 86.9298 79.4476C89.6921 77.3787 85.0818 74.0144 86.9582 71.614C88.4782 69.6674 91.1793 71.4001 92.8567 70.2575C93.7075 69.6792 93.8606 68.7905 93.6331 67.8571V67.8595Z" fill="#00DFF4"/>
<path d="M91.8678 78.3608C91.9928 78.2754 91.9225 78.0703 91.8365 78.0703C91.4771 78.0703 90.6956 78.2925 90.4924 78.2839C90.2892 78.2754 91.2973 78.694 91.6412 78.7709C91.6802 78.7795 91.6959 78.7795 91.7662 78.788C91.946 78.8137 92.0397 78.5146 91.8053 78.4719C91.6959 78.4548 91.8053 78.4121 91.8756 78.3694L91.8678 78.3608Z" fill="#FB3939"/>
<path d="M121.127 91.8594C121.127 91.8594 121.94 92.0473 121.784 93.141C121.627 94.2346 120.354 96.1741 119.791 96.439C119.228 96.7039 118.658 96.3279 118.658 96.3279L121.127 91.8594Z" fill="black"/>
<path d="M120.549 94.5287C121.26 93.295 121.575 92.1154 121.254 91.8941C120.933 91.6728 120.096 92.4934 119.385 93.7271C118.674 94.9608 118.358 96.1404 118.68 96.3617C119.001 96.583 119.838 95.7624 120.549 94.5287Z" fill="white"/>
<path d="M120.494 95.7375L121.729 102.419L122.049 104.572H122.487L120.783 95.3359L120.494 95.7375Z" fill="black"/>
<path d="M108.537 102.308C108.537 102.308 113.203 106.4 113.234 106.494C113.265 106.588 113.234 109.305 113.234 109.305H113.867V106.409L111.71 104.444L108.092 101.453L107.881 101.786L108.529 102.316L108.537 102.308Z" fill="black"/>
<path d="M106.161 102.898C107.624 102.898 108.811 101.551 108.811 99.8903C108.811 98.2293 107.624 96.8828 106.161 96.8828C104.698 96.8828 103.512 98.2293 103.512 99.8903C103.512 101.551 104.698 102.898 106.161 102.898Z" fill="black"/>
<path d="M115.055 102.573C115.055 102.573 118.712 104.487 118.681 105.298C118.65 106.11 116.469 107.528 115.524 107.913C114.398 108.366 113.695 108.186 113.609 108.639C113.578 108.819 113.632 108.895 113.64 109.015C113.64 109.186 113.773 109.314 113.929 109.297C114.461 109.246 115.61 108.767 116.008 108.588C116.446 108.383 118.853 106.965 119.228 105.751C119.541 104.752 119.033 104.256 117.681 102.923C116.329 101.59 115.977 101.061 115.977 101.061L115.063 102.573H115.055Z" fill="black"/>
<path d="M114.586 97.6094H117.087C117.493 97.6094 117.751 98.0793 117.556 98.4552L114.36 104.547C114.227 104.803 113.93 104.906 113.68 104.795L111.757 103.906C111.468 103.77 111.351 103.411 111.499 103.12L114.117 97.917C114.211 97.729 114.391 97.6179 114.586 97.6179V97.6094Z" fill="#99DB26"/>
<path d="M115.008 97.7109H117.095C117.595 97.7109 117.907 98.3005 117.665 98.7789L114.758 104.469C114.594 104.794 114.234 104.922 113.922 104.777L112.32 104.016C111.968 103.846 111.819 103.393 112.007 103.017L114.422 98.0869C114.539 97.8562 114.758 97.7109 115 97.7109H115.008Z" fill="black"/>
<path d="M116.86 107.837C116.86 107.837 117.587 104.684 119.111 103.249C120.635 101.814 122.018 101.036 122.737 102.138L123.433 103.992C123.433 103.992 120.103 106.034 119.259 106.632C118.415 107.23 116.938 108.034 116.938 108.034L116.868 107.837H116.86Z" fill="#1E1E1E"/>
<path d="M123.003 104.078L122.307 102.216C122.276 102.139 122.213 102.096 122.135 102.105C121.846 102.139 121.127 102.275 120.799 102.839C120.767 102.891 120.767 102.95 120.791 103.002L121.518 104.958C121.557 105.061 121.666 105.104 121.752 105.044L122.932 104.3C123.003 104.258 123.034 104.164 123.003 104.078Z" fill="white"/>
<path d="M124.714 103.258C124.714 103.258 126.973 101.609 127.301 101.617C127.629 101.626 128.481 101.805 128.09 102.66L125.863 104.881L123.698 106.684L123.26 104.89L123.432 103.967L124.722 103.258H124.714Z" fill="black"/>
<path d="M321.848 94.6509L264.156 88.916L256.356 182.555L325.65 189.354L332.079 113.229L321.848 94.6509Z" fill="#15B1FF"/>
<path d="M332.079 113.229L321.848 94.6504C321.848 94.6504 315.316 109.305 319.998 111.425C324.674 113.652 332.085 113.229 332.085 113.229H332.079Z" fill="#EFEFEF"/>
<path d="M322.042 116.836L317.269 121.19L315.517 118.851C315.323 118.534 314.838 118.534 314.637 118.746C314.346 118.957 314.346 119.485 314.54 119.704L316.784 122.571C316.881 122.677 317.075 122.783 317.269 122.783C317.463 122.783 317.56 122.783 317.754 122.571L323.115 117.689C323.407 117.477 323.407 116.949 323.213 116.731C322.727 116.625 322.236 116.519 322.042 116.836Z" fill="white"/>
<path d="M320.483 135.422L315.711 139.776L313.958 137.437C313.764 137.12 313.279 137.12 313.079 137.332C312.788 137.543 312.788 138.071 312.982 138.29L315.226 141.157C315.323 141.263 315.517 141.369 315.711 141.369C315.905 141.369 316.002 141.369 316.196 141.157L321.557 136.275C321.848 136.063 321.848 135.535 321.654 135.317C321.169 135.211 320.677 135.105 320.483 135.422Z" fill="white"/>
<path d="M318.925 154L314.152 158.354L312.4 156.015C312.206 155.698 311.721 155.698 311.52 155.91C311.229 156.121 311.229 156.649 311.423 156.868L313.667 159.735C313.764 159.841 313.958 159.947 314.152 159.947C314.346 159.947 314.443 159.947 314.637 159.735L319.998 154.853C320.289 154.642 320.289 154.113 320.095 153.895C319.61 153.789 319.216 153.683 318.925 154Z" fill="white"/>
<path d="M317.366 172.579L312.594 176.933L310.841 174.594C310.647 174.276 310.162 174.276 309.962 174.488C309.671 174.699 309.671 175.228 309.865 175.446L312.109 178.313C312.206 178.419 312.4 178.525 312.594 178.525C312.788 178.525 312.885 178.525 313.079 178.313L318.44 173.431C318.731 173.22 318.731 172.691 318.537 172.473C318.052 172.367 317.657 172.262 317.366 172.579Z" fill="white"/>
<path d="M304.6 118.435L271.172 115.145C270.784 115.145 270.59 114.723 270.59 114.406C270.59 113.983 270.978 113.771 271.269 113.771L304.697 117.062C305.085 117.062 305.279 117.484 305.279 117.801C305.279 118.224 304.988 118.435 304.6 118.435Z" fill="white"/>
<path d="M303.139 136.268L269.711 132.977C269.323 132.977 269.129 132.555 269.129 132.238C269.129 131.815 269.517 131.604 269.808 131.604L303.236 134.894C303.624 134.894 303.818 135.316 303.818 135.633C303.818 136.056 303.527 136.373 303.139 136.268Z" fill="white"/>
<path d="M301.574 154.951L268.146 151.661C267.758 151.661 267.564 151.238 267.564 150.921C267.564 150.498 267.952 150.287 268.243 150.287L301.671 153.577C302.059 153.577 302.253 154 302.253 154.317C302.253 154.634 301.962 154.951 301.574 154.951Z" fill="white"/>
<path d="M300.015 173.537L266.587 170.247C266.199 170.247 266.005 169.824 266.005 169.507C266.005 169.084 266.393 168.873 266.684 168.873L300.112 172.163C300.5 172.163 300.694 172.586 300.694 172.903C300.694 173.22 300.403 173.537 300.015 173.537Z" fill="white"/>
<path opacity="0.51" d="M121.735 103.508L257.329 65.6016L258.611 136.026L121.735 103.508Z" fill="#E5E5E5"/>
</svg>
