<svg width="343" height="233" viewBox="0 0 343 233" fill="none" xmlns="http://www.w3.org/2000/svg">
<path d="M171.5 225.915C256.114 225.915 324.707 218.994 324.707 210.457C324.707 201.921 256.114 195 171.5 195C86.8862 195 18.2932 201.921 18.2932 210.457C18.2932 218.994 86.8862 225.915 171.5 225.915Z" fill="#F3F3F3"/>
<path d="M250.255 209.418H192.781V211.845H250.255V209.418Z" fill="#F2F2F2"/>
<path d="M158.152 209.244H100.678V211.671H158.152V209.244Z" fill="#F2F2F2"/>
<path d="M210.677 43.5469H160.067V165.236H210.677V43.5469Z" fill="#E9E9E9"/>
<path d="M180.915 63.952H169.147C168.645 63.952 168.143 63.4033 168.143 62.8547V52.9273C168.143 52.3787 168.645 51.8301 169.147 51.8301H180.915C181.417 51.8301 181.919 52.3787 181.919 52.9273V62.8547C181.919 63.4033 181.417 63.952 180.915 63.952Z" fill="white"/>
<path d="M200.079 63.952H188.311C187.809 63.952 187.307 63.4033 187.307 62.8547V52.9273C187.307 52.3787 187.809 51.8301 188.311 51.8301H200.079C200.581 51.8301 201.083 52.3787 201.083 52.9273V62.8547C201.083 63.4033 200.581 63.952 200.079 63.952Z" fill="white"/>
<path d="M180.915 81.0359H169.147C168.645 81.0359 168.143 80.4873 168.143 79.9387V70.0113C168.143 69.4627 168.645 68.9141 169.147 68.9141H180.915C181.417 68.9141 181.919 69.4627 181.919 70.0113V79.9387C181.919 80.4873 181.417 81.0359 180.915 81.0359Z" fill="white"/>
<path d="M200.079 81.0359H188.311C187.809 81.0359 187.307 80.4873 187.307 79.9387V70.0113C187.307 69.4627 187.809 68.9141 188.311 68.9141H200.079C200.581 68.9141 201.083 69.4627 201.083 70.0113V79.9387C201.083 80.4873 200.581 81.0359 200.079 81.0359Z" fill="white"/>
<path d="M181.25 98.3172H169.481C168.98 98.3172 168.478 97.7686 168.478 97.2199V87.2925C168.478 86.7439 168.98 86.1953 169.481 86.1953H181.25C181.752 86.1953 182.253 86.7439 182.253 87.2925V97.2199C182.253 97.9514 181.919 98.3172 181.25 98.3172Z" fill="white"/>
<path d="M200.414 98.3172H188.646C188.144 98.3172 187.642 97.7686 187.642 97.2199V87.2925C187.642 86.7439 188.144 86.1953 188.646 86.1953H200.414C200.916 86.1953 201.418 86.7439 201.418 87.2925V97.2199C201.418 97.9514 201.083 98.3172 200.414 98.3172Z" fill="white"/>
<path d="M181.752 116.71H169.983C169.481 116.71 168.979 116.161 168.979 115.613V105.685C168.979 105.137 169.481 104.588 169.983 104.588H181.752C182.253 104.588 182.755 105.137 182.755 105.685V115.613C182.755 116.161 182.253 116.71 181.752 116.71Z" fill="white"/>
<path d="M200.916 116.71H189.147C188.646 116.71 188.144 116.161 188.144 115.613V105.685C188.144 105.137 188.646 104.588 189.147 104.588H200.916C201.418 104.588 201.92 105.137 201.92 105.685V115.613C201.92 116.161 201.418 116.71 200.916 116.71Z" fill="white"/>
<path d="M181.752 133.612H169.983C169.481 133.612 168.979 133.063 168.979 132.515V122.587C168.979 122.039 169.481 121.49 169.983 121.49H181.752C182.253 121.49 182.755 122.039 182.755 122.587V132.515C182.755 133.063 182.253 133.612 181.752 133.612Z" fill="white"/>
<path d="M200.916 133.612H189.147C188.646 133.612 188.144 133.063 188.144 132.515V122.587C188.144 122.039 188.646 121.49 189.147 121.49H200.916C201.418 121.49 201.92 122.039 201.92 122.587V132.515C201.92 133.063 201.418 133.612 200.916 133.612Z" fill="white"/>
<path d="M193.52 140.234H175.359V165.419H193.52V140.234Z" fill="white"/>
<path d="M160.067 43.5476L183.604 25.9004L210.677 43.5476H160.067Z" fill="#BBBCBC"/>
<path d="M280.727 28.709H212.637V192.681H280.727V28.709Z" fill="#E9E9E9"/>
<path d="M241.216 56.2838H224.572C224.071 56.2838 223.569 55.7351 223.569 55.1865V41.0269C223.569 40.4783 224.071 39.9297 224.572 39.9297H241.216C241.717 39.9297 242.219 40.4783 242.219 41.0269V55.1865C242.219 55.7351 241.717 56.2838 241.216 56.2838Z" fill="white"/>
<path d="M266.951 56.2838H250.308C249.806 56.2838 249.304 55.7351 249.304 55.1865V41.0269C249.304 40.4783 249.806 39.9297 250.308 39.9297H266.951C267.453 39.9297 267.955 40.4783 267.955 41.0269V55.1865C267.955 55.7351 267.453 56.2838 266.951 56.2838Z" fill="white"/>
<path d="M241.216 79.2603H224.572C224.071 79.2603 223.569 78.7117 223.569 78.1631V64.0035C223.569 63.4549 224.071 62.9062 224.572 62.9062H241.216C241.717 62.9062 242.219 63.4549 242.219 64.0035V78.1631C242.219 78.7117 241.717 79.2603 241.216 79.2603Z" fill="white"/>
<path d="M266.951 79.2603H250.308C249.806 79.2603 249.304 78.7117 249.304 78.1631V64.0035C249.304 63.4549 249.806 62.9062 250.308 62.9062H266.951C267.453 62.9062 267.955 63.4549 267.955 64.0035V78.1631C267.955 78.7117 267.453 79.2603 266.951 79.2603Z" fill="white"/>
<path d="M241.73 102.616H225.086C224.585 102.616 224.083 102.067 224.083 101.519V87.359C224.083 86.8103 224.585 86.2617 225.086 86.2617H241.73C242.231 86.2617 242.733 86.8103 242.733 87.359V101.519C242.733 102.25 242.231 102.616 241.73 102.616Z" fill="white"/>
<path d="M267.453 102.616H250.81C250.308 102.616 249.806 102.067 249.806 101.519V87.359C249.806 86.8103 250.308 86.2617 250.81 86.2617H267.453C267.954 86.2617 268.456 86.8103 268.456 87.359V101.519C268.456 102.25 268.122 102.616 267.453 102.616Z" fill="white"/>
<path d="M242.231 127.237H225.588C225.086 127.237 224.584 126.688 224.584 126.14V111.98C224.584 111.431 225.086 110.883 225.588 110.883H242.231C242.733 110.883 243.235 111.431 243.235 111.98V126.14C243.235 126.688 242.9 127.237 242.231 127.237Z" fill="white"/>
<path d="M268.122 127.237H251.479C250.977 127.237 250.475 126.688 250.475 126.14V111.98C250.475 111.431 250.977 110.883 251.479 110.883H268.122C268.624 110.883 269.125 111.431 269.125 111.98V126.14C269.125 126.688 268.624 127.237 268.122 127.237Z" fill="white"/>
<path d="M242.231 150.032H225.588C225.086 150.032 224.584 149.483 224.584 148.935V134.775C224.584 134.226 225.086 133.678 225.588 133.678H242.231C242.733 133.678 243.235 134.226 243.235 134.775V148.935C243.235 149.666 242.9 150.032 242.231 150.032Z" fill="white"/>
<path d="M268.122 150.032H251.479C250.977 150.032 250.475 149.483 250.475 148.935V134.775C250.475 134.226 250.977 133.678 251.479 133.678H268.122C268.624 133.678 269.125 134.226 269.125 134.775V148.935C269.125 149.666 268.624 150.032 268.122 150.032Z" fill="white"/>
<path d="M212.637 28.7082L244.585 5L280.906 28.7082H212.637Z" fill="#BBBCBC"/>
<path d="M308.911 203.75C307.433 191.348 299.359 193.621 291.875 173.183C290.244 168.737 284.47 172.329 280.691 173.277C260.618 178.294 252.771 188.133 250.698 201.483C250.55 202.431 250.55 203.474 251.219 203.568C261.218 205.175 286.249 204.328 308.917 203.756L308.911 203.75Z" fill="#C4EDEE"/>
<path d="M297.991 180.548C297.991 180.548 298.601 179.787 297.991 173.825C297.382 167.762 300.072 162.365 300.072 162.365C300.072 162.365 298.945 175.057 299.032 176.571C299.032 178.085 297.991 180.548 297.991 180.548Z" fill="#0B9D99"/>
<path d="M299.549 186.8C299.549 186.8 299.463 186.039 296.084 183.106C292.704 180.172 291.406 175.717 291.406 175.717C291.406 175.717 297.296 183.294 298.078 184.048C298.859 184.808 299.549 186.793 299.549 186.793V186.8Z" fill="#0B9D99"/>
<path d="M299.9 194.282C299.9 194.282 300.417 193.811 300.244 189.074C300.158 184.336 302.497 180.359 302.497 180.359C302.497 180.359 300.94 190.11 300.854 191.247C300.768 192.385 299.9 194.275 299.9 194.275V194.282Z" fill="#0B9D99"/>
<path d="M299.29 199.584C299.29 199.584 298.681 199.207 297.992 194.564C297.296 189.921 294.354 186.516 294.354 186.516C294.354 186.516 297.561 195.795 297.819 196.933C297.992 197.976 299.29 199.584 299.29 199.584Z" fill="#0B9D99"/>
<path d="M297.475 204.032C297.475 204.032 302.848 187.081 294.963 173.919C287.079 160.757 293.579 166.436 294.963 168.899C296.521 171.739 301.98 188.313 300.072 199.773C300.072 199.773 299.463 203.561 299.204 204.032C298.946 204.409 297.475 204.032 297.475 204.032Z" fill="#0B9D99"/>
<path d="M308.077 166.348C308.077 166.348 307.381 165.493 308.077 158.017C308.772 150.534 305.565 144 305.565 144C305.565 144 306.95 159.625 306.864 161.516C306.778 163.407 308.077 166.348 308.077 166.348Z" fill="#0B9D99"/>
<path d="M306.169 174.02C306.169 174.02 306.255 173.071 310.416 169.572C314.571 165.972 316.22 160.387 316.22 160.387C316.22 160.387 309.031 169.666 308.077 170.615C307.037 171.564 306.169 174.027 306.169 174.027V174.02Z" fill="#0B9D99"/>
<path d="M305.738 183.204C305.738 183.204 305.129 182.538 305.307 176.764C305.48 170.99 302.538 166.064 302.538 166.064C302.538 166.064 304.532 178.09 304.532 179.509C304.532 180.929 305.744 183.204 305.744 183.204H305.738Z" fill="#0B9D99"/>
<path d="M306.255 193.245C306.255 193.245 306.864 192.68 307.123 186.9C307.381 181.126 310.502 176.389 310.502 176.389C310.502 176.389 307.904 188.225 307.732 189.645C307.474 190.971 306.261 193.245 306.261 193.245H306.255Z" fill="#0B9D99"/>
<path d="M308.508 204.51C308.508 204.51 302.014 174.302 311.801 158.105C321.501 141.914 313.444 148.825 311.801 151.948C309.893 155.454 303.227 175.904 305.566 189.921C305.566 189.921 306.175 203.938 306.434 204.503C306.692 205.068 308.514 204.503 308.514 204.503L308.508 204.51Z" fill="#0B9D99"/>
<g clip-path="url(#clip0_16546_58589)">
<path d="M166.237 158.254C166.219 158.24 166.2 158.226 166.184 158.211C165.813 157.887 161.516 154.149 160.487 153.524C159.41 152.871 158.257 152.749 158.628 151.647C158.999 150.544 161.203 149.002 161.974 148.716C162.659 148.461 164.007 147.9 164.297 147.779C164.334 147.764 164.368 147.747 164.402 147.724C164.634 147.585 165.592 147.018 165.84 147.038C166.121 147.058 167.756 145.155 169.639 148.12C171.521 151.088 172.217 151.305 172.217 151.797C172.217 152.26 170.703 156.848 167.906 158.804C167.609 159.012 167.227 158.995 166.937 158.778L166.237 158.257V158.254Z" stroke="black" stroke-width="4" stroke-miterlimit="10"/>
<path d="M172.854 160.118C172.854 160.118 167.856 161.481 168.467 158.105C169.078 154.729 169.789 150.817 173.654 150.759C177.519 150.699 177.925 152.333 182.198 154.185C186.471 156.036 187.059 156.586 194.789 156.803C202.519 157.02 204.928 157.075 206.253 156.965C207.577 156.855 208.849 163.333 208.035 165.074C207.222 166.816 200.789 165.398 200.418 165.231C200.047 165.063 179.046 161.264 176.506 160.5C173.962 159.737 172.856 160.118 172.856 160.118H172.854Z" fill="#131315"/>
<path d="M157.957 152.093C157.957 152.093 156.061 152.787 154.944 152.093C153.828 151.398 148.104 149.356 146.543 149.602C144.981 149.848 143.449 148.609 143.449 148.609C143.449 148.609 149.736 149.599 152.972 149.717C156.208 149.836 157.77 149.257 158.291 149.839C158.812 150.42 158.749 150.568 158.478 151.181C158.207 151.795 157.957 152.093 157.957 152.093Z" fill="#1E1E1E"/>
<path d="M202.13 164.235C202.13 164.235 192.804 189.543 191.232 189.5C189.66 189.457 189.07 196.203 188.923 196.883C188.775 197.563 186.603 200.846 191.879 201.989C197.159 203.132 221.84 208.117 221.84 208.117C221.84 208.117 227.119 209.259 230.315 208.525C233.512 207.79 236.189 206.32 237.453 206.155C238.717 205.99 243.996 198.723 245.557 196.597C247.119 194.473 262.508 168.742 262.656 167.435C262.803 166.127 260.75 162.924 259.559 159.901C258.369 156.878 249.336 143.876 249.336 143.876L240.871 133.919C240.871 133.919 239.731 133.21 238.741 133.919C237.751 134.627 235.694 136.829 235.547 137.972C235.4 139.114 235.249 143.199 235.4 143.853C235.55 144.507 238.793 151.832 238.793 151.832C238.793 151.832 231.529 150.687 231.382 151.913C231.234 153.14 231.64 158.573 231.782 161.753C231.924 164.932 232 165.93 231.782 167.197C231.637 168.036 226.895 189.697 226.895 189.697L208.759 183.034L210.642 162.945L209.478 163.509L202.501 162.878L202.132 164.232L202.13 164.235Z" fill="black"/>
<path d="M245.463 166.062L231.584 142.862C231.584 142.862 228.588 137.869 228.017 138.942C227.445 140.013 227.869 144.824 227.869 144.824C227.869 144.824 233.47 157.348 234.757 159.746C236.045 162.142 237.235 168.894 237.235 168.894L233.072 183.923L234.757 195.25L235.6 195.687L241.695 183.923L249.072 171.553L245.463 166.062Z" fill="#00DFF4"/>
<path d="M261.068 179.3L258.854 174.191L259.431 173.477L260.776 176.876L261.829 179.3H261.068Z" fill="#B7C4B7"/>
<path d="M229.186 147.753C229.186 147.753 226.174 141.567 224.762 139.32C223.351 137.075 222.877 136.745 220.75 135.18C219.041 133.921 216.974 131.074 216.287 130.701C215.11 130.059 210.7 133.548 210.402 133.383C210.105 133.218 211.169 131.517 211.121 131.028C211.071 130.507 210.136 130.34 209.486 130.701C209.223 130.846 206.914 132.394 205.895 133.076C205.471 133.36 204.91 133.209 204.668 132.729C204.568 132.532 204.497 132.284 204.489 131.965C204.452 130.782 206.732 129.307 206.732 129.307L211.608 123.876C211.608 123.876 214.992 120.066 218.757 119.193C222.524 118.322 224.152 118.313 225.194 118.857C226.237 119.401 232.301 123.544 233.638 124.964C234.976 126.385 238.841 130.765 238.146 131.343C237.451 131.922 233.996 133.036 233.267 133.426C232.624 133.771 231.258 134.812 231.258 134.812C230.908 135.339 230.081 135.596 228.978 138.842C228.63 139.866 227.84 138.423 227.722 141.556C227.646 143.555 229.188 147.741 229.188 147.741L229.186 147.753Z" fill="black"/>
<path d="M166.956 147.695C166.956 147.695 161.158 151.219 156.2 151.326C151.245 151.436 138.457 149.856 135.979 148.222C133.501 146.587 129.884 139.945 129.834 137.983C129.784 136.022 129.834 135.423 129.834 135.423C129.834 135.423 128.794 135.151 128.991 133.571C129.189 131.992 129.091 131.665 129.636 131.503C130.181 131.341 130.876 131.231 130.876 131.231C130.876 131.231 131.321 128.835 132.164 127.855C133.007 126.874 136.822 124.042 139.252 122.572C141.682 121.102 149.065 118.053 156.35 118.38C163.636 118.707 168.591 118.053 170.476 123.772C170.476 123.772 171.666 128.456 171.914 129.217C172.161 129.978 172.459 131.885 171.566 134.555C170.674 137.222 168.891 145.36 168.233 146.385C167.575 147.409 166.956 147.695 166.956 147.695Z" fill="#1E1E1E"/>
<path d="M129.637 131.504C129.637 131.504 150.082 132.43 153.278 131.941C156.474 131.452 171.558 127.951 171.558 127.951L172.09 130.017C172.09 130.017 157.812 133.818 155.432 133.818C153.051 133.818 129.265 132.54 129.265 132.54L129.107 132.531L129.165 132.1C129.165 132.1 129.194 131.946 129.215 131.889C129.236 131.831 129.276 131.75 129.279 131.747C129.281 131.744 129.331 131.666 129.376 131.631C129.421 131.596 129.537 131.539 129.555 131.53C129.573 131.521 129.634 131.504 129.634 131.504H129.637Z" fill="#070707"/>
<path d="M129.11 132.531C129.11 132.531 128.807 134.709 129.321 135.068C129.834 135.427 140.195 136.494 140.195 136.494C140.195 136.494 154.692 137.168 155.658 137.087C156.624 137.006 171.566 134.556 171.566 134.556C171.566 134.556 172.203 131.058 172.148 130.538C172.093 130.017 172.035 130.031 172.035 130.031C172.035 130.031 160.416 133.023 158.465 133.37C156.514 133.717 133.989 132.635 133.989 132.635L129.113 132.531H129.11Z" fill="#3D3D3D"/>
<path d="M170.068 132.755C170.068 132.755 172.967 132.182 173.117 131.734C173.267 131.285 173.08 130.305 172.596 130.305C172.111 130.305 169.623 131.025 169.623 131.025L169.352 131.115C168.907 131.262 168.636 131.771 168.762 132.26C168.762 132.269 168.768 132.275 168.768 132.284L168.973 133.059L170.068 132.752V132.755Z" fill="white"/>
<path d="M158.022 136.162C158.022 136.162 160.961 135.933 161.153 135.502C161.345 135.071 161.256 134.076 160.774 134.021C160.295 133.963 157.746 134.391 157.746 134.391L157.467 134.449C157.009 134.542 156.693 135.016 156.769 135.52C156.769 135.528 156.769 135.534 156.772 135.543L156.901 136.338L158.02 136.162H158.022Z" fill="white"/>
<path d="M169.921 215.553C180.498 215.553 189.073 206.131 189.073 194.509C189.073 182.887 180.498 173.465 169.921 173.465C159.343 173.465 150.769 182.887 150.769 194.509C150.769 206.131 159.343 215.553 169.921 215.553Z" fill="#393A38"/>
<path d="M167.97 207.665C174.343 207.665 179.51 201.715 179.51 194.375C179.51 187.034 174.343 181.084 167.97 181.084C161.596 181.084 156.429 187.034 156.429 194.375C156.429 201.715 161.596 207.665 167.97 207.665Z" fill="black"/>
<path d="M200.966 169.084L191.729 190.365C191.303 191.352 190.323 191.896 189.347 191.69L184.236 190.62C183.625 190.493 183.104 190.079 182.777 189.497C182.288 188.621 181.329 187.339 179.702 186.726C177.196 185.783 154.702 178.249 153.036 177.691C152.97 177.668 152.907 177.644 152.843 177.616C151.569 177.04 151.09 175.324 151.853 174.066C152.496 173.01 153.209 171.882 153.683 171.288C154.723 169.981 159.992 161.845 160.969 161.079C162.006 160.263 165.131 158.464 169.147 158.874C173.162 159.282 178.662 157.546 184.165 158.822C189.665 160.098 201.711 164.183 201.932 165.164C202.153 166.145 200.966 169.084 200.966 169.084Z" fill="#00DFF4"/>
<path d="M197.267 194.939C197.267 194.939 187.206 193.36 185.421 192.651C183.636 191.942 165.795 193.904 165.2 193.794C164.605 193.684 162.525 193.357 162.325 194.936C162.125 196.516 162.177 198.694 163.067 198.749C163.96 198.804 182.396 200.112 184.528 199.348C186.658 198.585 186.658 198.454 189.336 198.194C192.011 197.934 197.459 198.689 197.977 198.466C198.496 198.243 199.094 196.71 198.757 195.894C198.422 195.078 197.264 194.942 197.264 194.942L197.267 194.939Z" fill="#1E1E1D"/>
<path d="M164.026 193.765C164.026 193.765 163.354 190.979 163.725 190.652C164.097 190.326 164.505 190.612 165.137 189.712C165.769 188.812 166.322 186.272 166.777 184.403C167.233 182.535 167.298 182.488 167.298 182.488L170.526 183.579C170.526 183.579 167.588 188.448 167.069 190.245C166.551 192.041 166.777 193.554 166.777 193.554L166.795 193.771H164.026V193.765Z" fill="#1E1E1D"/>
<path d="M228.293 139.401L242.796 162.638C242.796 162.638 247.561 171.068 249.075 171.554C249.936 171.829 257.593 165.904 259.56 164.316C262.664 161.81 261.021 159.988 254.739 151.109C249.338 143.474 241.519 134.19 239.431 131.731C239.101 131.344 238.604 131.199 238.143 131.349C236.342 131.948 231.842 133.612 230.429 135.75C228.643 138.446 228.296 139.398 228.296 139.398L228.293 139.401Z" fill="#3EF0FB"/>
<path d="M264.365 223.999C275.812 223.999 285.091 213.803 285.091 201.225C285.091 188.647 275.812 178.451 264.365 178.451C252.918 178.451 243.638 188.647 243.638 201.225C243.638 213.803 252.918 223.999 264.365 223.999Z" fill="#393A38"/>
<path d="M264.365 215.606C271.262 215.606 276.853 209.168 276.853 201.225C276.853 193.283 271.262 186.844 264.365 186.844C257.468 186.844 251.877 193.283 251.877 201.225C251.877 209.168 257.468 215.606 264.365 215.606Z" fill="black"/>
<path d="M262.93 202.112L266.869 199.415L270.102 184.834C270.102 184.834 270.623 182.63 271.476 181.525C272.329 180.419 272.888 179.954 273.225 180.943C273.225 180.943 273.372 180.067 271.924 179.442C270.489 178.822 262.706 175.562 257.056 176.583C251.405 177.605 262.93 202.112 262.93 202.112Z" fill="#00DFF4"/>
<path d="M250.12 177.87L252.727 183.659L253.849 183.003L250.91 176.215L249.028 171.633L248.059 173.256L250.12 177.87Z" fill="#B7C4B7"/>
<path d="M262.588 201.996L255.407 182.91C255.315 182.667 255.076 182.534 254.841 182.598C254.186 182.78 252.888 183.188 252.04 183.761C251.737 183.966 251.49 184.192 251.353 184.435C250.866 185.294 257.877 196.461 261.748 202.505C262.079 203.023 262.806 202.58 262.588 201.996Z" fill="#1E1E1D"/>
<path d="M210.566 130.536C210.495 130.62 210.345 130.536 210.342 130.88C210.339 131.225 210.229 131.488 210.01 131.309C209.792 131.129 209.605 130.678 209.686 130.559C209.757 130.455 210.56 130.528 210.566 130.539V130.536Z" fill="#D5C4BB"/>
<path d="M212.39 130.708C212.366 130.69 212.364 130.656 212.38 130.633C212.422 130.575 212.488 130.453 212.524 130.447C212.588 130.442 212.869 130.725 212.88 130.768C212.88 130.768 212.896 130.91 212.696 130.954L212.39 130.708Z" fill="#B7C4B7"/>
<path d="M214.015 131.651C214.015 131.651 214.154 131.353 214.233 131.452C214.312 131.55 214.52 131.799 214.507 131.891C214.494 131.984 214.486 132.068 214.407 132.056C214.328 132.045 214.018 131.654 214.018 131.654L214.015 131.651Z" fill="#B7C4B7"/>
<path d="M214.339 131.177C214.339 131.177 214.483 130.864 214.565 130.966C214.647 131.067 214.915 131.379 214.902 131.475C214.889 131.57 214.831 131.611 214.747 131.599C214.662 131.588 214.339 131.177 214.339 131.177Z" fill="#B7C4B7"/>
<path d="M219.347 106.689C219.347 106.689 220.142 106.878 219.992 107.954C219.842 109.03 218.586 110.954 218.03 111.217C217.474 111.48 216.919 111.107 216.919 111.107L219.349 106.689H219.347Z" fill="black"/>
<path d="M218.78 109.333C219.479 108.113 219.79 106.947 219.474 106.728C219.157 106.51 218.334 107.321 217.635 108.54C216.936 109.76 216.626 110.925 216.942 111.144C217.258 111.363 218.081 110.552 218.78 109.333Z" fill="white"/>
<path d="M218.725 110.529L219.939 117.137L220.252 119.26H220.687L219.007 110.133L218.725 110.529Z" fill="black"/>
<path d="M206.961 117.024C206.961 117.024 211.556 121.072 211.582 121.161C211.608 121.251 211.582 123.939 211.582 123.939H212.206V121.072L210.086 119.131L206.524 116.174L206.321 116.504L206.961 117.027V117.024Z" fill="black"/>
<path d="M204.623 117.606C206.064 117.606 207.232 116.276 207.232 114.635C207.232 112.994 206.064 111.664 204.623 111.664C203.182 111.664 202.014 112.994 202.014 114.635C202.014 116.276 203.182 117.606 204.623 117.606Z" fill="black"/>
<path d="M213.375 117.283C213.375 117.283 216.977 119.178 216.94 119.976C216.903 120.775 214.765 122.184 213.83 122.563C212.722 123.011 212.032 122.835 211.951 123.283C211.919 123.457 211.977 123.535 211.98 123.656C211.985 123.824 212.114 123.951 212.264 123.937C212.788 123.885 213.92 123.416 214.307 123.234C214.739 123.031 217.109 121.628 217.477 120.428C217.783 119.438 217.288 118.949 215.953 117.633C214.618 116.317 214.275 115.787 214.275 115.787L213.378 117.283H213.375Z" fill="black"/>
<path d="M212.912 112.374H215.373C215.774 112.374 216.029 112.834 215.831 113.21L212.688 119.236C212.556 119.488 212.266 119.592 212.019 119.476L210.126 118.594C209.844 118.464 209.728 118.102 209.873 117.813L212.448 112.669C212.54 112.487 212.717 112.371 212.912 112.371V112.374Z" fill="#99DB26"/>
<path d="M213.328 112.48H215.384C215.876 112.48 216.187 113.062 215.947 113.534L213.091 119.163C212.93 119.482 212.575 119.615 212.269 119.467L210.695 118.715C210.35 118.55 210.205 118.096 210.384 117.731L212.759 112.857C212.872 112.625 213.091 112.483 213.328 112.483V112.48Z" fill="black"/>
<path d="M215.147 122.492C215.147 122.492 215.863 119.37 217.364 117.958C218.865 116.546 220.226 115.771 220.929 116.856L221.611 118.693C221.611 118.693 218.335 120.71 217.503 121.3C216.671 121.89 215.218 122.686 215.218 122.686L215.147 122.492Z" fill="#1E1E1E"/>
<path d="M221.198 118.771L220.513 116.925C220.487 116.85 220.418 116.807 220.345 116.816C220.058 116.85 219.349 116.989 219.028 117.542C219.002 117.588 218.999 117.652 219.018 117.704L219.734 119.636C219.771 119.735 219.878 119.778 219.963 119.723L221.124 118.991C221.195 118.948 221.224 118.852 221.192 118.771H221.198Z" fill="white"/>
<path d="M222.875 117.966C222.875 117.966 225.094 116.34 225.418 116.346C225.742 116.352 226.577 116.534 226.192 117.376L224.002 119.571L221.869 121.351L221.442 119.58L221.608 118.663L222.875 117.963V117.966Z" fill="black"/>
</g>
<path fill-rule="evenodd" clip-rule="evenodd" d="M105.037 24.3931V29.5076H109.798V24.3931H105.037ZM104.953 21.8359C103.707 21.8359 102.698 22.94 102.698 24.3018V29.5989C102.698 30.9608 103.707 32.0648 104.953 32.0648H109.798C111.044 32.0648 112.053 30.9608 112.053 29.5989V24.3018C112.053 22.94 111.044 21.8359 109.798 21.8359L104.953 21.8359Z" fill="white"/>
<path fill-rule="evenodd" clip-rule="evenodd" d="M114.351 35.8093C114.351 35.1283 114.856 34.5763 115.478 34.5763H119.238C119.86 34.5763 120.365 35.1283 120.365 35.8093C120.365 36.4902 119.86 37.0422 119.238 37.0422H116.606V39.5081C116.606 40.189 116.101 40.741 115.478 40.741C114.856 40.741 114.351 40.189 114.351 39.5081V35.8093Z" fill="white"/>
<path fill-rule="evenodd" clip-rule="evenodd" d="M114.351 43.6179C114.351 42.937 114.856 42.385 115.478 42.385H119.238C119.86 42.385 120.365 42.937 120.365 43.6179C120.365 44.2988 119.86 44.8508 119.238 44.8508H115.478C114.856 44.8508 114.351 44.2988 114.351 43.6179Z" fill="white"/>
<path fill-rule="evenodd" clip-rule="evenodd" d="M122.621 38.2752C123.244 38.2752 123.748 38.8272 123.748 39.5081V43.6179C123.748 44.2988 123.244 44.8508 122.621 44.8508C121.998 44.8508 121.493 44.2988 121.493 43.6179V40.741H119.238C118.615 40.741 118.11 40.189 118.11 39.5081C118.11 38.8272 118.615 38.2752 119.238 38.2752H122.621Z" fill="white"/>
<path d="M108.503 26.9047C108.503 27.5856 107.998 28.1376 107.376 28.1376C106.753 28.1376 106.248 27.5856 106.248 26.9047C106.248 26.2238 106.753 25.6718 107.376 25.6718C107.998 25.6718 108.503 26.2238 108.503 26.9047Z" fill="white"/>
<path d="M123.748 35.8093C123.748 36.4902 123.244 37.0422 122.621 37.0422C121.998 37.0422 121.493 36.4902 121.493 35.8093C121.493 35.1283 121.998 34.5763 122.621 34.5763C123.244 34.5763 123.748 35.1283 123.748 35.8093Z" fill="white"/>
<path fill-rule="evenodd" clip-rule="evenodd" d="M116.731 24.3931V29.5076H121.493V24.3931H116.731ZM116.648 21.8359C115.402 21.8359 114.392 22.94 114.392 24.3018V29.5989C114.392 30.9608 115.402 32.0648 116.648 32.0648H121.493C122.739 32.0648 123.748 30.9608 123.748 29.5989V24.3018C123.748 22.94 122.739 21.8359 121.493 21.8359L116.648 21.8359Z" fill="white"/>
<path d="M120.198 26.9047C120.198 27.5856 119.693 28.1376 119.07 28.1376C118.448 28.1376 117.943 27.5856 117.943 26.9047C117.943 26.2238 118.448 25.6718 119.07 25.6718C119.693 25.6718 120.198 26.2238 120.198 26.9047Z" fill="white"/>
<path fill-rule="evenodd" clip-rule="evenodd" d="M105.037 37.1792V42.2936H109.798V37.1792H105.037ZM104.953 34.622C103.707 34.622 102.698 35.726 102.698 37.0879V42.385C102.698 43.7468 103.707 44.8508 104.953 44.8508H109.798C111.044 44.8508 112.053 43.7468 112.053 42.385V37.0879C112.053 35.726 111.044 34.622 109.798 34.622H104.953Z" fill="white"/>
<path d="M108.503 39.6908C108.503 40.3717 107.998 40.9237 107.376 40.9237C106.753 40.9237 106.248 40.3717 106.248 39.6908C106.248 39.0098 106.753 38.4578 107.376 38.4578C107.998 38.4578 108.503 39.0098 108.503 39.6908Z" fill="white"/>
<path d="M74.1018 85.4735C74.4981 88.6149 86.7842 105.514 93.7199 106.055C93.819 106.055 93.9181 106.055 94.1163 106.055C94.6117 106.055 95.1071 105.839 95.6025 105.622C98.0795 103.889 108.087 96.7393 111.555 92.4063L110.96 87.965C105.709 89.9148 94.1163 97.7142 94.1163 97.7142C94.1163 97.7142 93.6209 97.9308 93.4227 97.6059C84.3072 88.2899 80.1458 84.8235 77.1733 82.332L74.1018 85.4735Z" fill="#D7A887"/>
<path d="M56.7635 198.131C57.2589 199.54 56.3671 204.739 56.2681 206.364C57.2589 207.881 59.7359 206.689 60.0332 205.064C60.0332 204.848 60.2313 204.848 60.2313 204.414C59.9341 203.439 60.5286 199.648 61.2221 197.59L56.7635 198.131Z" fill="#F8AB90"/>
<path d="M72.1202 200.406C72.5166 201.815 71.3276 205.281 71.2285 207.014C72.1202 208.639 74.6964 207.556 75.0927 205.931C75.0927 205.714 75.2908 205.714 75.2908 205.281C74.8945 204.198 75.7863 201.165 76.678 199.215L72.1202 200.406Z" fill="#F8AB90"/>
<path d="M71.9223 119.596H81.236C85.8928 134.978 87.2799 152.418 84.5057 169.75C84.3075 171.05 84.0103 172.35 83.6139 173.65L80.4433 200.515C78.0654 201.598 71.1297 200.84 68.7517 200.19C71.9223 190.224 73.7058 181.449 74.3994 171.808C74.6966 170.292 74.6966 167.15 74.6966 167.15C75.7865 152.202 72.6159 123.387 71.9223 119.596Z" fill="#74B79C"/>
<path d="M64.392 200.297C61.2214 201.272 56.8618 199.647 54.3848 198.564L60.4287 168.666C60.5278 168.124 60.5278 167.474 60.5278 166.933L58.348 131.077C58.348 130.21 58.348 129.344 58.4471 128.477C58.8434 125.336 59.537 120.786 60.726 119.27H72.913C76.3809 137.035 75.7864 152.2 74.3992 160.758C74.3001 161.516 73.6066 169.857 72.8139 172.241L64.392 200.297Z" fill="#74B79C"/>
<path d="M81.2353 119.813L60.5273 120.138L60.4282 119.163L81.1363 119.055L81.2353 119.813Z" fill="#20505A"/>
<path d="M65.681 60.3418L72.8149 61.1001C70.7342 64.6748 69.1488 67.8163 71.5268 70.3077L64.6902 69.6577C67.0681 67.9245 66.6718 63.6999 65.681 60.3418Z" fill="#ECBC97"/>
<path d="M72.8161 45.6094C72.8161 45.6094 75.4913 49.1841 74.8968 51.7839C74.7977 52.2172 74.7977 52.5422 74.6987 52.7589C74.4014 54.2754 74.4014 54.1671 75.8876 54.9254C76.6803 55.3587 75.9867 56.1169 75.5904 56.4419C75.3922 56.6586 75.2931 56.8752 75.2931 57.2002C75.2931 57.5252 75.3922 57.8502 75.3922 57.8502C75.3922 57.9585 75.6895 58.8251 74.8968 58.8251C70.9336 58.9334 74.2033 58.8251 75.095 59.15C75.095 59.15 75.4913 59.3667 75.3922 59.5834C75.2932 59.8 74.9959 60.125 74.8968 60.4499C74.7977 60.7749 74.7977 61.7499 74.5996 62.1832C74.4014 62.6165 72.1225 63.3747 70.7354 62.9414C69.6455 62.6164 68.2584 62.2915 67.6639 62.1832C67.4657 62.1832 67.0694 61.6416 66.9703 61.4249C66.6731 61.2083 65.8804 60.9916 65.2859 60.5583C64.0969 59.6917 65.0878 59.2584 65.1868 58.7168C65.2859 58.1751 65.4841 57.2002 65.2859 56.8752C65.0878 56.5503 64.0969 55.2503 63.8988 54.7087C63.6015 53.8421 64.0969 52.3256 64.4933 51.7839C64.8896 51.2423 65.6822 51.0257 66.1777 51.459C66.574 51.7839 67.0694 51.784 67.2676 51.3507C67.5648 50.809 70.1409 47.126 70.6363 46.801C71.1317 46.476 72.8161 45.6094 72.8161 45.6094Z" fill="#ECBC97"/>
<path d="M75.2912 47.884C75.1922 48.3173 74.994 48.6423 74.7958 48.9673C74.4986 49.5089 74.0032 49.9422 73.4087 50.1588C71.6252 50.9171 70.139 51.6754 68.4546 51.5671C67.7611 51.4587 67.1666 51.892 66.8693 52.6503C66.6712 53.3003 66.2748 53.7336 65.8785 54.1669C65.1849 54.9252 64.9868 56.1168 65.284 57.0917C65.7794 58.4999 67.7611 63.5912 67.2657 64.7828C68.3556 74.857 58.8437 86.4478 50.5209 78.6484C46.5576 73.9904 54.286 66.0827 54.4841 61.208C54.1869 55.0335 58.7446 49.7256 59.2401 48.4257C59.4382 47.9924 59.6364 47.6674 59.9336 47.3424C61.1226 46.0425 62.1134 44.3093 63.1042 43.551C63.996 42.7928 64.9868 42.3595 66.0767 41.9262C67.7611 41.2762 69.6436 41.4928 71.2289 42.5761C72.9133 43.6593 74.3995 45.1759 74.994 46.4758C75.3903 46.9091 75.4894 47.4507 75.2912 47.884Z" fill="#BC9D02"/>
<path d="M66.2762 53.8425C66.078 53.4092 65.7808 53.0842 65.4835 52.9759C65.3844 52.8676 65.1863 52.9759 65.0872 52.9759C64.1954 53.4092 63.9973 54.1675 64.3936 55.1424C64.3936 55.1424 64.3936 55.1424 64.3936 55.2507C64.9881 56.2256 65.3844 56.4423 66.1771 56.8756L66.2762 53.8425Z" fill="#ECBC97"/>
<path d="M56.2687 203.33C57.7549 204.088 59.2412 204.088 60.8265 203.113C60.9255 203.113 61.0246 203.113 61.0246 203.222C61.9164 204.955 62.8081 207.23 64.1952 208.53C65.6814 209.613 67.4649 210.371 69.4465 211.021C69.6447 211.129 69.942 211.238 70.2392 211.129C71.23 211.129 71.9236 211.238 72.6172 211.671C72.7162 211.671 72.8153 211.779 72.9144 211.779C73.3107 211.996 73.5089 212.538 73.608 213.188C73.608 213.621 73.4098 213.946 73.1126 214.162C71.5273 215.137 69.4465 215.571 66.9695 215.571L62.4118 214.921L55.1788 214.271L54.3862 213.946C54.2871 213.837 54.188 213.729 54.188 213.621C54.188 212.321 54.3862 210.913 54.8816 209.504C54.9807 209.071 55.2779 208.53 55.4761 208.096C56.0705 206.905 56.2687 205.388 56.1696 203.655C56.0705 203.33 56.1696 203.222 56.2687 203.33Z" fill="#BFBAB8"/>
<path d="M54.1892 211.779C53.991 211.779 53.8919 213.296 53.991 213.621C54.0901 214.054 55.4772 214.271 55.7745 214.271C56.8644 214.487 58.1525 214.487 59.3414 214.596L63.4038 215.029C64.5927 215.246 65.8808 215.462 67.268 215.462C68.3578 215.462 69.4477 215.354 70.5376 215.029C71.4294 214.812 72.222 214.487 73.0147 213.946C73.1137 213.837 73.2128 213.837 73.2128 213.621C73.411 213.079 73.411 212.213 72.6183 211.779C71.7266 212.321 70.3395 212.646 68.8532 212.971C67.7633 213.187 66.4753 213.296 65.0881 213.188C62.9084 213.079 60.8276 212.971 58.9451 212.538C57.2607 212.429 55.5763 212.213 54.1892 211.779Z" fill="#20505A"/>
<path d="M69.9418 211.021C69.8427 211.779 69.8427 212.321 70.14 212.754C71.2299 212.537 72.1216 212.212 72.9143 211.779C72.1216 211.237 71.1308 210.912 69.9418 211.021Z" fill="#F05A24"/>
<path d="M60.63 205.172C60.849 205.172 61.0265 204.978 61.0265 204.738C61.0265 204.499 60.849 204.305 60.63 204.305C60.4109 204.305 60.2334 204.499 60.2334 204.738C60.2334 204.978 60.4109 205.172 60.63 205.172Z" fill="#D7CCC2"/>
<path d="M61.3233 206.687C61.5424 206.687 61.7199 206.493 61.7199 206.254C61.7199 206.014 61.5424 205.82 61.3233 205.82C61.1043 205.82 60.9268 206.014 60.9268 206.254C60.9268 206.493 61.1043 206.687 61.3233 206.687Z" fill="#D7CCC2"/>
<path d="M61.92 207.988C62.139 207.988 62.3166 207.794 62.3166 207.555C62.3166 207.315 62.139 207.121 61.92 207.121C61.701 207.121 61.5234 207.315 61.5234 207.555C61.5234 207.794 61.701 207.988 61.92 207.988Z" fill="#D7CCC2"/>
<path d="M62.91 209.289C63.129 209.289 63.3066 209.095 63.3066 208.855C63.3066 208.616 63.129 208.422 62.91 208.422C62.691 208.422 62.5134 208.616 62.5134 208.855C62.5134 209.095 62.691 209.289 62.91 209.289Z" fill="#D7CCC2"/>
<path d="M63.9962 210.154C64.2152 210.154 64.3928 209.96 64.3928 209.721C64.3928 209.481 64.2152 209.287 63.9962 209.287C63.7772 209.287 63.5996 209.481 63.5996 209.721C63.5996 209.96 63.7772 210.154 63.9962 210.154Z" fill="#D7CCC2"/>
<path d="M65.548 210.812C65.7158 210.658 65.7379 210.385 65.5972 210.201C65.4565 210.018 65.2064 209.993 65.0386 210.147C64.8707 210.301 64.8486 210.575 64.9893 210.758C65.13 210.942 65.3801 210.966 65.548 210.812Z" fill="#D7CCC2"/>
<path d="M66.7372 211.284C66.8631 211.168 66.8796 210.963 66.7741 210.826C66.6686 210.688 66.481 210.67 66.3551 210.785C66.2292 210.901 66.2127 211.106 66.3182 211.243C66.4237 211.381 66.6113 211.399 66.7372 211.284Z" fill="#D7CCC2"/>
<path d="M68.3095 211.623C68.3902 211.466 68.3398 211.268 68.1967 211.18C68.0537 211.091 67.8723 211.146 67.7915 211.303C67.7107 211.459 67.7612 211.658 67.9043 211.746C68.0473 211.834 68.2287 211.779 68.3095 211.623Z" fill="#D7CCC2"/>
<path d="M61.4216 205.821C61.7191 205.713 62.1156 205.713 62.3139 205.93C62.4131 206.146 62.5122 206.363 62.6113 206.472C62.3139 206.255 61.8182 206.363 61.6199 206.363C61.7191 206.146 61.6199 205.93 61.4216 205.821Z" fill="#686461"/>
<path d="M62.0168 207.121C62.3143 207.013 62.7108 206.796 63.0083 206.905C63.1074 207.013 63.2066 207.121 63.3057 207.338C62.9091 207.23 62.4134 207.446 62.3143 207.555C62.3143 207.338 62.2151 207.23 62.0168 207.121Z" fill="#686461"/>
<path d="M62.9084 208.421C63.1066 208.204 63.602 208.096 63.8993 208.096C63.9983 208.204 64.0974 208.312 64.2956 208.421C63.8993 208.421 63.4039 208.637 63.2057 208.854C63.2057 208.637 63.1066 208.421 62.9084 208.421Z" fill="#686461"/>
<path d="M64.0964 209.287C64.2946 209.07 64.5919 208.962 64.9882 208.854C65.0873 208.962 65.2854 208.962 65.4836 209.178C65.0873 209.287 64.6909 209.612 64.4928 209.72C64.3937 209.612 64.2946 209.395 64.0964 209.287Z" fill="#686461"/>
<path d="M65.2869 210.047C65.4851 209.722 65.6834 209.613 65.9809 209.613C66.1791 209.722 66.1791 209.722 66.3774 209.83C66.08 210.047 65.7826 210.372 65.6834 210.48C65.6834 210.264 65.5843 210.047 65.2869 210.047Z" fill="#686461"/>
<path d="M66.5735 210.696C66.7718 210.371 67.0692 210.263 67.2675 210.154C67.4658 210.263 67.5649 210.263 67.7632 210.371C67.4658 210.588 67.1683 210.913 66.9701 211.021C66.8709 210.913 66.7718 210.696 66.5735 210.696Z" fill="#686461"/>
<path d="M67.8638 211.237C67.9629 210.804 67.9629 210.695 68.1612 210.479C68.3595 210.479 68.5578 210.587 68.5578 210.587C68.4586 210.912 68.4586 211.129 68.3595 211.346C68.2603 211.237 68.0621 211.02 67.8638 211.237Z" fill="#686461"/>
<path d="M60.7302 204.304C61.0277 204.196 61.3251 204.196 61.5234 204.304C61.6225 204.521 61.7217 204.738 61.8208 204.846C61.4242 204.738 61.2259 204.629 61.0277 204.738C61.0277 204.629 60.9285 204.412 60.7302 204.304Z" fill="#686461"/>
<path d="M59.2434 203.763C59.2434 203.654 59.2434 203.546 59.2434 203.438C59.2434 203.221 59.4416 203.004 59.6397 202.896C59.937 202.679 60.2342 202.463 60.6305 202.246C60.7296 202.463 60.8287 202.788 60.9278 203.113C60.6305 203.329 60.2342 203.438 60.0361 203.546C59.8379 203.546 59.5407 203.654 59.2434 203.763Z" fill="#20505A"/>
<path d="M71.2309 204.09C72.7171 204.848 74.2033 204.848 75.7886 203.873C75.8877 203.873 75.9868 203.873 75.9868 203.981C76.8785 205.715 77.7702 207.989 79.1574 209.289C80.6436 210.373 82.4271 211.131 84.4087 211.781C84.6069 211.889 84.9041 211.997 85.2013 211.889C86.1922 211.889 86.8857 211.997 87.5793 212.431C87.6784 212.431 87.7775 212.539 87.8765 212.539C88.2729 212.756 88.471 213.297 88.5701 213.947C88.5701 214.381 88.372 214.706 88.0747 214.922C86.4894 215.897 84.4087 216.33 81.9317 216.33L77.3739 215.68L70.141 215.031L69.3483 214.706C69.2492 214.597 69.1501 214.489 69.1501 214.381C69.1501 213.081 69.3483 211.672 69.8437 210.264C69.9428 209.831 70.24 209.289 70.4382 208.856C71.0327 207.664 71.2309 206.148 71.1318 204.415C71.1318 204.09 71.2309 204.09 71.2309 204.09Z" fill="#BFBAB8"/>
<path d="M69.2463 212.646C69.0482 212.646 68.9491 214.163 69.0481 214.488C69.1472 214.921 70.5344 215.138 70.8316 215.138C71.9215 215.355 73.2096 215.355 74.3986 215.463L78.4609 215.896C79.6499 216.113 80.9379 216.33 82.3251 216.33C83.415 216.33 84.5049 216.221 85.5948 215.896C86.4865 215.68 87.2792 215.355 88.0718 214.813C88.1709 214.705 88.27 214.705 88.27 214.488C88.4681 213.946 88.4681 213.08 87.6755 212.646C86.7837 213.188 85.3966 213.513 83.9104 213.838C82.8205 214.055 81.5324 214.163 80.1453 214.055C77.9655 213.946 75.8848 213.838 74.0022 213.405C72.3178 213.296 70.6335 213.08 69.2463 212.646Z" fill="#20505A"/>
<path d="M84.9008 211.888C84.8017 212.646 84.8017 213.188 85.099 213.621C86.1889 213.405 87.0806 213.08 87.8733 212.646C87.0806 211.996 86.1889 211.78 84.9008 211.888Z" fill="#20505A"/>
<path d="M75.6886 205.932C75.9076 205.932 76.0851 205.737 76.0851 205.498C76.0851 205.259 75.9076 205.064 75.6886 205.064C75.4696 205.064 75.292 205.259 75.292 205.498C75.292 205.737 75.4696 205.932 75.6886 205.932Z" fill="#D7CCC2"/>
<path d="M76.2818 207.447C76.5008 207.447 76.6784 207.253 76.6784 207.014C76.6784 206.774 76.5008 206.58 76.2818 206.58C76.0628 206.58 75.8853 206.774 75.8853 207.014C75.8853 207.253 76.0628 207.447 76.2818 207.447Z" fill="#D7CCC2"/>
<path d="M76.9769 208.855C77.1959 208.855 77.3735 208.661 77.3735 208.422C77.3735 208.182 77.1959 207.988 76.9769 207.988C76.7579 207.988 76.5803 208.182 76.5803 208.422C76.5803 208.661 76.7579 208.855 76.9769 208.855Z" fill="#D7CCC2"/>
<path d="M77.8668 210.047C78.0858 210.047 78.2634 209.853 78.2634 209.613C78.2634 209.374 78.0858 209.18 77.8668 209.18C77.6478 209.18 77.4702 209.374 77.4702 209.613C77.4702 209.853 77.6478 210.047 77.8668 210.047Z" fill="#D7CCC2"/>
<path d="M79.0553 210.914C79.2743 210.914 79.4518 210.72 79.4518 210.48C79.4518 210.241 79.2743 210.047 79.0553 210.047C78.8362 210.047 78.6587 210.241 78.6587 210.48C78.6587 210.72 78.8362 210.914 79.0553 210.914Z" fill="#D7CCC2"/>
<path d="M80.5795 211.568C80.7474 211.414 80.7694 211.141 80.6287 210.957C80.488 210.773 80.2379 210.749 80.0701 210.903C79.9022 211.057 79.8802 211.33 80.0208 211.514C80.1615 211.697 80.4117 211.722 80.5795 211.568Z" fill="#D7CCC2"/>
<path d="M81.7648 212.04C81.8907 211.924 81.9072 211.719 81.8017 211.581C81.6962 211.444 81.5086 211.426 81.3827 211.541C81.2568 211.656 81.2403 211.862 81.3458 211.999C81.4513 212.137 81.6389 212.155 81.7648 212.04Z" fill="#D7CCC2"/>
<path d="M83.4137 212.437C83.4945 212.281 83.444 212.082 83.301 211.994C83.1579 211.906 82.9765 211.961 82.8958 212.117C82.815 212.274 82.8655 212.472 83.0085 212.56C83.1515 212.649 83.333 212.593 83.4137 212.437Z" fill="#D7CCC2"/>
<path d="M76.4785 206.581C76.7759 206.473 77.1725 206.473 77.3708 206.689C77.4699 206.906 77.5691 207.123 77.6682 207.231C77.3708 207.015 76.8751 207.123 76.6768 207.123C76.6768 206.906 76.6768 206.689 76.4785 206.581Z" fill="#686461"/>
<path d="M77.0754 207.989C77.3729 207.88 77.7694 207.663 78.0669 207.772C78.166 207.88 78.2652 207.989 78.3643 208.205C77.9677 208.097 77.472 208.314 77.3729 208.422C77.3729 208.205 77.2737 207.989 77.0754 207.989Z" fill="#686461"/>
<path d="M77.967 209.18C78.1652 208.964 78.6606 208.855 78.9579 208.855C79.0569 208.964 79.156 209.072 79.3542 209.18C78.9579 209.18 78.4625 209.397 78.2643 209.614C78.2643 209.505 78.1652 209.289 77.967 209.18Z" fill="#686461"/>
<path d="M79.0576 210.156C79.2558 209.939 79.553 209.831 79.9493 209.723C80.0484 209.831 80.2466 209.831 80.4448 210.048C80.0484 210.156 79.6521 210.481 79.4539 210.589C79.4539 210.373 79.3549 210.156 79.0576 210.156Z" fill="#686461"/>
<path d="M80.3457 210.807C80.544 210.481 80.7423 210.373 81.0397 210.373C81.238 210.481 81.238 210.481 81.4363 210.59C81.1388 210.807 80.8414 211.132 80.7423 211.24C80.6431 211.023 80.544 210.807 80.3457 210.807Z" fill="#686461"/>
<path d="M81.6304 211.456C81.8287 211.131 82.1261 211.022 82.3244 210.914C82.5226 211.022 82.6218 211.022 82.8201 211.131C82.5226 211.348 82.2252 211.673 82.0269 211.781C81.9278 211.673 81.8287 211.456 81.6304 211.456Z" fill="#686461"/>
<path d="M82.9207 211.997C83.0198 211.563 83.0198 211.455 83.2181 211.238C83.4164 211.238 83.6147 211.347 83.6147 211.347C83.5155 211.672 83.5155 211.889 83.4164 212.105C83.3172 211.997 83.1189 211.78 82.9207 211.997Z" fill="#686461"/>
<path d="M75.7874 205.064C76.0848 204.955 76.3822 204.955 76.5805 205.064C76.6796 205.28 76.7788 205.497 76.8779 205.606C76.4814 205.497 76.2831 205.389 76.0848 205.497C76.0848 205.389 75.9856 205.172 75.7874 205.064Z" fill="#686461"/>
<path d="M74.3025 204.522C74.3025 204.414 74.3025 204.306 74.3025 204.197C74.3025 203.981 74.5007 203.764 74.6988 203.656C74.9961 203.439 75.2933 203.223 75.6896 203.006C75.7887 203.223 75.8878 203.547 75.9869 203.872C75.6896 204.089 75.2933 204.197 75.0951 204.306C74.897 204.414 74.5997 204.522 74.3025 204.522Z" fill="#20505A"/>
<path d="M73.6069 86.4472C74.0033 89.5886 86.2894 106.487 93.2251 107.029C93.3242 107.029 93.4232 107.029 93.6214 107.029C94.1168 107.029 94.6122 106.812 95.1076 106.596C97.5847 104.862 107.592 97.713 111.06 93.38L108.979 89.2637C103.728 91.2135 93.5223 98.7963 93.5223 98.7963C93.5223 98.7963 92.9278 99.0129 92.8287 98.6879C88.6673 91.2135 82.6234 87.2054 76.5794 83.4141L73.6069 86.4472Z" fill="#ECBC97"/>
<path d="M120.178 80.9238L115.62 88.8316C115.62 88.8316 116.116 89.8065 117.305 89.6981C118.395 89.5898 119.98 86.5568 120.079 86.0151C120.277 85.3652 119.98 84.8235 120.178 84.3902C120.376 83.9569 120.277 82.8737 120.277 82.8737C120.178 82.8737 121.169 81.3571 120.178 80.9238Z" fill="#D7A887"/>
<path d="M114.33 88.8316L116.708 78.3241C116.807 77.9991 117.005 77.7824 117.203 77.5658L120.671 75.3993C120.869 75.2909 121.167 75.291 121.266 75.5076C121.365 75.616 121.365 75.8326 121.365 75.9409L118.888 86.9901L114.33 88.8316Z" fill="#1A2E35"/>
<path d="M118.786 87.9648C118.786 87.9648 118.885 87.8565 118.885 87.5315C118.885 87.2065 118.885 86.7732 118.786 86.2316C118.885 86.015 118.885 85.9066 118.885 85.69C118.786 85.4733 118.687 85.2567 118.489 85.1484H118.39V85.0401C118.588 84.7151 118.786 84.3901 118.984 83.9568C119.083 83.8485 119.083 83.7401 119.083 83.7401C119.083 83.6318 119.083 83.5235 119.083 83.4152C118.984 83.1985 118.885 83.0902 118.687 82.9818V82.8735L118.786 82.7652C118.984 82.5486 119.183 82.3319 119.381 82.1153C119.678 81.682 120.074 81.357 120.272 80.9237C120.371 80.7071 120.57 80.4904 120.57 80.2737C120.57 80.1654 120.669 80.0571 120.669 79.9488C120.669 79.8404 120.669 79.8405 120.57 79.8405C120.471 79.8405 120.371 79.8404 120.272 79.9488C120.173 79.9488 120.074 80.0571 119.975 80.0571C119.777 80.1654 119.579 80.2738 119.381 80.3821C118.984 80.5987 118.687 80.9237 118.489 81.032C118.291 81.2487 118.093 81.357 117.894 81.4653C117.795 81.5737 117.696 81.682 117.696 81.5736C117.696 81.5736 117.795 81.4653 117.894 81.357C117.994 81.2486 118.192 81.032 118.39 80.8153C118.588 80.5987 118.885 80.3821 119.282 80.0571C119.48 79.9488 119.678 79.8404 119.876 79.6238C119.975 79.5155 120.074 79.5155 120.173 79.4071C120.272 79.4071 120.471 79.2988 120.57 79.2988C120.768 79.2988 120.867 79.5155 120.768 79.6238C120.768 79.7321 120.768 79.8404 120.669 79.9488C120.57 80.1654 120.471 80.3821 120.272 80.5987C119.975 81.032 119.678 81.357 119.381 81.7903C119.183 82.0069 118.984 82.2236 118.786 82.4402V82.3319C118.984 82.4402 119.183 82.6569 119.282 82.8735C119.282 82.9819 119.381 83.0902 119.282 83.3069C119.282 83.4152 119.183 83.5235 119.083 83.6318C118.885 83.9568 118.687 84.3901 118.39 84.7151V84.6067C118.588 84.8234 118.786 84.9317 118.786 85.2567C118.885 85.4734 118.786 85.7983 118.687 85.9066C118.786 86.4483 118.786 86.9899 118.786 87.2066C118.885 87.7482 118.885 87.8565 118.786 87.9648Z" fill="#C89777"/>
<path d="M121.265 75.5078C121.265 75.5078 121.165 75.6162 120.967 75.7245C120.769 75.8328 120.472 76.0495 120.175 76.2661C119.778 76.4828 119.382 76.8077 118.986 77.0243C118.788 77.1327 118.49 77.3493 118.292 77.4577C117.995 77.566 117.797 77.7826 117.599 77.9993C117.4 78.2159 117.301 78.5409 117.202 78.8659C117.103 79.1908 117.103 79.5158 117.004 79.7325C116.905 80.2741 116.707 80.8157 116.608 81.249C116.509 81.6823 116.41 82.0073 116.311 82.224C116.211 82.4406 116.211 82.549 116.211 82.549C116.211 82.549 116.211 82.4406 116.311 82.1156C116.311 81.899 116.41 81.574 116.509 81.1407C116.608 80.7074 116.707 80.1658 116.806 79.6242C116.905 79.2992 116.905 79.0825 117.004 78.7576C117.103 78.4326 117.202 78.1076 117.4 77.7826C117.599 77.566 117.896 77.3493 118.193 77.241C118.49 77.1327 118.688 76.9161 118.887 76.8077C119.382 76.4828 119.778 76.2661 120.175 76.0494C120.571 75.8328 120.769 75.6161 121.066 75.5078C121.165 75.6161 121.265 75.5078 121.265 75.5078Z" fill="#375A64"/>
<path d="M118.989 79.083C118.89 79.2998 118.89 79.5166 118.989 79.5166C119.088 79.5166 119.187 79.4081 119.286 79.1913C119.385 78.9746 119.385 78.7578 119.286 78.7578C119.187 78.7578 119.088 78.8662 118.989 79.083Z" fill="white"/>
<path d="M110.464 88.3979C111.257 87.9646 111.257 86.5563 111.653 85.6897C111.95 84.9315 112.347 84.1732 112.644 84.0649C113.139 83.7399 115.914 81.8983 115.914 81.8983L115.616 83.3066L118.292 81.2484C118.589 81.0318 120.471 79.0819 120.868 79.8402C121.066 80.3818 119.58 81.79 119.382 82.115C118.886 82.8733 119.084 82.8733 119.084 82.8733C119.084 82.8733 119.679 83.1983 119.382 83.7399C119.084 84.2815 118.589 84.9315 118.589 84.9315C118.589 84.9315 119.283 85.2564 118.886 86.2314C118.886 86.2314 119.084 86.773 118.985 87.5313C118.886 87.9646 118.589 88.5062 118.193 88.9395C117.796 89.4811 117.301 89.8061 116.706 90.0227C114.428 90.8893 112.446 91.8643 111.059 93.1642L108.978 89.0479L110.464 88.3979Z" fill="#ECBC97"/>
<path d="M116.413 82.6562C116.413 82.6562 115.818 83.1979 115.026 83.6312C114.233 84.1728 113.639 84.4978 113.639 84.4978C113.639 84.4978 114.233 83.9561 115.026 83.5228C115.719 82.9812 116.413 82.6562 116.413 82.6562Z" fill="#C89777"/>
<path d="M118.889 82.7656C118.889 82.7656 118.393 83.4156 117.7 84.1738C117.006 84.9321 116.412 85.4738 116.412 85.4738C116.412 85.4738 116.907 84.8238 117.601 84.0655C118.294 83.3072 118.889 82.7656 118.889 82.7656Z" fill="#C89777"/>
<path d="M118.688 84.7148C118.688 84.7148 118.49 85.1481 118.093 85.5814C117.796 86.0147 117.4 86.3397 117.4 86.3397C117.4 86.3397 117.598 85.9064 117.994 85.4731C118.291 85.0398 118.688 84.7148 118.688 84.7148Z" fill="#C89777"/>
<path d="M83.8146 119.054H54.2883C54.2883 119.054 55.3782 91.5395 59.1433 76.2656C59.6387 74.0991 61.3231 70.9576 62.8093 69.4411C63.4038 68.7911 64.0974 68.2495 64.89 67.9246C65.3855 67.7079 65.9799 67.5996 66.5744 67.5996L71.6276 68.0329C72.2221 68.0329 72.7175 68.4662 72.9157 69.0078L77.9688 81.4652C78.266 82.2235 78.6624 82.8734 79.2569 83.4151L86.688 90.6729L81.833 97.1724L81.2385 97.9307" fill="#20505A"/>
<path d="M79.8487 97.4972C71.724 90.4561 71.3277 89.0479 70.7332 86.6647C70.5351 85.9064 70.2378 84.9315 69.6433 83.6316L70.3369 83.3066C70.9314 84.7149 71.2286 85.5814 71.4268 86.448C72.0213 88.7229 72.4176 89.9145 80.3441 96.8473L79.8487 97.4972Z" fill="black"/>
<defs>
<clipPath id="clip0_16546_58589">
<rect width="156.121" height="148" fill="white" transform="translate(128.968 76)"/>
</clipPath>
</defs>
</svg>
