<svg width="343" height="233" viewBox="0 0 343 233" fill="none" xmlns="http://www.w3.org/2000/svg">
<path d="M171.5 208.001C256.114 208.001 324.707 201.08 324.707 192.543C324.707 184.006 256.114 177.086 171.5 177.086C86.8862 177.086 18.2932 184.006 18.2932 192.543C18.2932 201.08 86.8862 208.001 171.5 208.001Z" fill="#F3F3F3"/>
<path d="M250.255 191.504H192.781V193.931H250.255V191.504Z" fill="#F2F2F2"/>
<path d="M158.152 191.33H100.678V193.757H158.152V191.33Z" fill="#F2F2F2"/>
<path d="M299.812 142.753L292.154 150.809L292.785 164.464L292.965 183.424H286.839L287.83 156.605L288.28 150.121L281.253 142.753L280.533 141.967H283.686L288.551 146.584L288.46 139.609H291.704V146.879L298.19 141.279L300.983 141.378L299.812 142.753Z" fill="#754C24"/>
<path d="M275.127 142.066C278.55 142.95 294.496 142.066 305.577 141.87C306.118 141.87 306.748 141.771 307.289 141.673C310.982 140.789 313.054 138.333 314.316 134.993C314.766 133.814 315.036 132.537 314.946 131.358C314.856 128.509 313.865 126.152 311.793 124.285C313.235 121.731 313.955 118.784 313.325 115.345C313.145 114.167 312.694 112.988 312.063 111.907C310.442 108.96 308.37 106.602 305.487 105.718C303.415 99.5291 299.451 96.7784 294.766 95.2066C290.262 94.4207 287.019 95.8942 284.676 99.3326C276.478 98.1537 272.154 101.789 272.785 111.612C268.01 114.756 266.208 118.882 266.208 123.499C263.505 125.66 262.424 128.215 262.514 131.162C262.695 135.288 265.307 138.824 268.821 140.298C270.712 141.084 272.694 141.477 273.776 141.673C274.226 141.87 274.676 141.968 275.127 142.066Z" fill="#F7931E"/>
<path d="M260.717 180.782L259.199 105.916H257.738V179.063V180.782H260.717Z" fill="#686867"/>
<path d="M248.182 141.976C248.182 141.976 258.356 153.706 272.296 141.239C286.236 128.771 276.006 111.575 273.926 105.556C271.79 99.537 267.068 96.589 268.53 86.5781C269.879 76.5673 269.71 73.1894 267.237 65.6966C264.764 58.2038 260.998 43.9553 258.693 45.0608C256.388 46.1663 251.779 46.6576 251.442 55.8086C251.105 64.8982 251.779 67.7234 248.126 75.9531C244.584 84.1829 243.404 91.3072 244.584 98.2472C245.708 105.187 245.427 107.153 242.786 113.233C240.144 119.252 236.771 122.691 240.144 131.351C243.629 140.01 248.182 141.976 248.182 141.976Z" fill="#8AC43F"/>
<g clip-path="url(#clip0_16546_58371)">
<path d="M110.161 128.007C110.139 127.991 110.119 127.978 110.097 127.959C109.655 127.61 104.567 123.571 103.343 122.897C102.065 122.191 100.7 122.06 101.142 120.87C101.581 119.679 104.196 118.014 105.109 117.703C105.919 117.427 107.515 116.821 107.861 116.69C107.906 116.673 107.944 116.654 107.986 116.632C108.258 116.481 109.399 115.871 109.69 115.891C110.023 115.913 111.962 113.857 114.195 117.062C116.428 120.266 117.248 120.501 117.248 121.03C117.248 121.53 115.454 126.487 112.141 128.598C111.789 128.822 111.337 128.803 110.991 128.572L110.161 128.007Z" stroke="black" stroke-width="2.6" stroke-miterlimit="10"/>
<path d="M118.004 130.018C118.004 130.018 112.083 131.488 112.807 127.843C113.532 124.196 114.374 119.974 118.956 119.91C123.537 119.846 124.018 121.61 129.08 123.609C134.142 125.607 134.837 126.201 144 126.435C153.159 126.669 156.017 126.73 157.584 126.611C159.15 126.493 160.659 133.486 159.695 135.369C158.731 137.252 151.109 135.719 150.67 135.536C150.231 135.353 125.347 131.253 122.332 130.429C119.321 129.605 118.007 130.018 118.007 130.018H118.004Z" fill="#131315"/>
<path d="M100.351 121.353C100.351 121.353 98.1051 122.104 96.782 121.353C95.462 120.602 88.6764 118.398 86.8278 118.661C84.9792 118.924 83.1594 117.59 83.1594 117.59C83.1594 117.59 90.6082 118.658 94.4432 118.786C98.2781 118.915 100.127 118.289 100.745 118.918C101.36 119.544 101.29 119.707 100.966 120.368C100.643 121.029 100.351 121.353 100.351 121.353Z" fill="#1E1E1E"/>
<path d="M152.695 134.464C152.695 134.464 141.642 161.793 139.78 161.749C137.919 161.704 137.22 168.989 137.044 169.72C136.868 170.455 134.295 174 140.549 175.235C146.803 176.47 176.05 181.85 176.05 181.85C176.05 181.85 182.304 183.085 186.094 182.289C189.881 181.497 193.053 179.909 194.552 179.733C196.052 179.556 202.305 171.706 204.154 169.413C206.003 167.119 224.239 139.334 224.415 137.923C224.591 136.511 222.156 133.053 220.746 129.787C219.337 126.525 208.633 112.483 208.633 112.483L198.602 101.73C198.602 101.73 197.25 100.966 196.077 101.73C194.905 102.493 192.47 104.871 192.294 106.106C192.117 107.341 191.941 111.752 192.117 112.458C192.294 113.163 196.141 121.074 196.141 121.074C196.141 121.074 187.536 119.839 187.36 121.161C187.184 122.483 187.667 128.35 187.834 131.789C188 135.228 188.093 136.299 187.834 137.669C187.661 138.574 182.045 161.967 182.045 161.967L160.554 154.771L162.783 133.075L161.406 133.685L153.137 133.005L152.701 134.464H152.695Z" fill="black"/>
<path d="M204.045 136.437L187.6 111.386C187.6 111.386 184.05 105.993 183.371 107.151C182.692 108.309 183.195 113.503 183.195 113.503C183.195 113.503 189.83 127.028 191.358 129.617C192.886 132.206 194.296 139.498 194.296 139.498L189.362 155.727L191.358 167.959L192.358 168.431L199.582 155.727L208.325 142.369L204.045 136.437Z" fill="#00DFF4"/>
<path d="M222.537 150.732L219.914 145.215L220.596 144.441L222.191 148.115L223.441 150.732H222.537Z" fill="#B7C4B7"/>
<path d="M184.758 116.667C184.758 116.667 181.189 109.985 179.517 107.56C177.844 105.135 177.284 104.782 174.762 103.091C172.738 101.734 170.29 98.6577 169.473 98.2535C168.079 97.5605 162.851 101.327 162.498 101.15C162.146 100.974 163.405 99.1357 163.35 98.6064C163.293 98.0418 162.184 97.8621 161.412 98.2535C161.101 98.4107 158.362 100.079 157.158 100.817C156.655 101.125 155.988 100.961 155.703 100.445C155.584 100.233 155.501 99.9633 155.488 99.6201C155.443 98.3401 158.147 96.7489 158.147 96.7489L163.927 90.8847C163.927 90.8847 167.935 86.7688 172.398 85.8289C176.861 84.8889 178.793 84.8793 180.026 85.4664C181.234 86.0438 188.446 90.5254 190.032 92.062C191.582 93.5666 196.196 98.3273 195.372 98.9528C194.549 99.5784 190.455 100.781 189.593 101.205C188.833 101.577 187.212 102.703 187.212 102.703C186.796 103.274 185.815 103.547 184.508 107.056C184.095 108.163 183.163 106.604 183.022 109.988C182.932 112.147 184.761 116.667 184.761 116.667H184.758Z" fill="black"/>
<path d="M111.016 116.603C111.016 116.603 104.144 120.408 98.2718 120.523C92.3992 120.642 77.2453 118.935 74.3106 117.171C71.3727 115.406 67.086 108.233 67.0284 106.116C66.9707 103.999 67.0284 103.351 67.0284 103.351C67.0284 103.351 65.7949 103.055 66.0288 101.352C66.2626 99.6454 66.1473 99.2925 66.7913 99.1161C67.4384 98.9396 68.2586 98.8209 68.2586 98.8209C68.2586 98.8209 68.7872 96.2321 69.7868 95.1734C70.7864 94.1148 75.307 91.0575 78.184 89.4696C81.061 87.8816 89.8137 84.5902 98.4448 84.9399C107.079 85.2928 112.952 84.587 115.181 90.7624C115.181 90.7624 116.591 95.8182 116.886 96.6427C117.181 97.4671 117.533 99.5235 116.476 102.404C115.418 105.285 113.307 114.072 112.525 115.179C111.744 116.285 111.013 116.593 111.013 116.593L111.016 116.603Z" fill="#1E1E1E"/>
<path d="M66.7944 99.118C66.7944 99.118 91.0216 100.119 94.8084 99.5896C98.5953 99.0603 116.469 95.2812 116.469 95.2812L117.1 97.514C117.1 97.514 100.181 101.62 97.3619 101.62C94.5425 101.62 66.3523 100.234 66.3523 100.234L66.1665 100.225L66.2338 99.7596C66.2338 99.7596 66.269 99.5928 66.2947 99.5319C66.3203 99.4709 66.3683 99.3811 66.3715 99.3779C66.3748 99.3747 66.4324 99.2913 66.4869 99.2528C66.5413 99.2143 66.6791 99.1501 66.6983 99.1437C66.7176 99.1373 66.7912 99.1148 66.7912 99.1148L66.7944 99.118Z" fill="#070707"/>
<path d="M66.1666 100.229C66.1666 100.229 65.8077 102.581 66.4165 102.969C67.0252 103.357 79.3021 104.509 79.3021 104.509C79.3021 104.509 96.4809 105.237 97.6246 105.147C98.7684 105.06 116.476 102.414 116.476 102.414C116.476 102.414 117.232 98.6381 117.165 98.0767C117.097 97.5153 117.03 97.5313 117.03 97.5313C117.03 97.5313 103.263 100.762 100.95 101.137C98.637 101.512 71.9462 100.345 71.9462 100.345L66.1666 100.232V100.229Z" fill="#3D3D3D"/>
<path d="M114.701 100.473C114.701 100.473 118.135 99.8568 118.312 99.3692C118.488 98.8816 118.267 97.8262 117.696 97.8262C117.126 97.8262 114.172 98.6057 114.172 98.6057L113.852 98.702C113.323 98.8591 113.003 99.4109 113.153 99.9402C113.153 99.9499 113.157 99.9563 113.16 99.9659L113.403 100.803L114.704 100.473H114.701Z" fill="white"/>
<path d="M100.431 104.145C100.431 104.145 103.914 103.898 104.141 103.433C104.369 102.967 104.263 101.893 103.693 101.832C103.122 101.771 100.108 102.23 100.108 102.23L99.7776 102.29C99.2362 102.39 98.8582 102.903 98.9511 103.449C98.9511 103.458 98.9511 103.465 98.9543 103.474L99.1049 104.334L100.431 104.145Z" fill="white"/>
<path d="M114.528 189.876C127.061 189.876 137.22 179.703 137.22 167.154C137.22 154.605 127.061 144.432 114.528 144.432C101.995 144.432 91.8354 154.605 91.8354 167.154C91.8354 179.703 101.995 189.876 114.528 189.876Z" fill="#393A38"/>
<path d="M112.218 181.363C119.77 181.363 125.892 174.938 125.892 167.013C125.892 159.089 119.77 152.664 112.218 152.664C104.666 152.664 98.5442 159.089 98.5442 167.013C98.5442 174.938 104.666 181.363 112.218 181.363Z" fill="black"/>
<path d="M151.317 139.7L140.373 162.682C139.867 163.747 138.707 164.334 137.55 164.113L131.495 162.958C130.771 162.82 130.153 162.374 129.768 161.745C129.188 160.799 128.051 159.413 126.126 158.752C123.156 157.732 96.5 149.6 94.5265 148.997C94.4496 148.974 94.3727 148.945 94.2958 148.913C92.7868 148.291 92.2165 146.44 93.1232 145.08C93.8825 143.938 94.7315 142.719 95.289 142.08C96.5224 140.669 102.763 131.882 103.923 131.054C105.153 130.172 108.857 128.231 113.615 128.674C118.372 129.113 124.892 127.24 131.409 128.619C137.928 129.999 152.198 134.41 152.464 135.468C152.727 136.527 151.32 139.703 151.32 139.703L151.317 139.7Z" fill="#00DFF4"/>
<path d="M116.03 150.443C115.905 150.375 115.819 150.318 115.771 150.27C115.697 150.196 115.659 150.103 115.659 149.997C115.659 149.891 115.697 149.798 115.771 149.721C115.844 149.644 115.937 149.605 116.043 149.605C116.149 149.605 116.238 149.641 116.309 149.711C116.376 149.779 116.412 149.859 116.412 149.946V149.955L116.283 150.006C116.274 149.923 116.248 149.862 116.206 149.82C116.165 149.779 116.114 149.759 116.046 149.759C115.979 149.759 115.925 149.782 115.876 149.83C115.828 149.875 115.806 149.933 115.806 150C115.806 150.067 115.828 150.122 115.876 150.17C115.902 150.196 115.963 150.237 116.049 150.295C116.187 150.372 116.287 150.44 116.347 150.497C116.44 150.59 116.485 150.703 116.485 150.834C116.485 150.966 116.44 151.081 116.347 151.174C116.255 151.267 116.142 151.315 116.011 151.315C115.88 151.315 115.768 151.267 115.675 151.174C115.582 151.081 115.537 150.979 115.537 150.866L115.681 150.828C115.681 150.924 115.713 151.004 115.777 151.068C115.841 151.132 115.918 151.165 116.011 151.165C116.104 151.165 116.178 151.132 116.245 151.068C116.309 151.004 116.341 150.924 116.341 150.831C116.341 150.738 116.309 150.664 116.245 150.6C116.21 150.565 116.139 150.513 116.033 150.446L116.03 150.443Z" fill="white"/>
<path d="M146.931 167.619C146.931 167.619 135.01 165.912 132.895 165.149C130.781 164.385 109.639 166.503 108.934 166.384C108.229 166.265 105.762 165.912 105.528 167.619C105.295 169.326 105.352 171.677 106.41 171.735C107.467 171.793 129.313 173.204 131.838 172.383C134.363 171.558 134.363 171.417 137.534 171.135C140.706 170.853 147.159 171.671 147.774 171.427C148.389 171.183 149.094 169.531 148.7 168.649C148.302 167.767 146.931 167.619 146.931 167.619Z" fill="#1E1E1D"/>
<path d="M107.543 166.351C107.543 166.351 106.749 163.342 107.188 162.989C107.627 162.637 108.114 162.945 108.86 161.976C109.61 161.007 110.264 158.261 110.802 156.243C111.34 154.222 111.42 154.174 111.42 154.174L115.245 155.351C115.245 155.351 111.766 160.609 111.151 162.55C110.536 164.491 110.805 166.124 110.805 166.124L110.827 166.358H107.543V166.351Z" fill="#1E1E1D"/>
<path d="M183.698 107.645L200.883 132.738C200.883 132.738 206.528 141.843 208.322 142.366C209.341 142.664 218.414 136.264 220.743 134.551C224.421 131.847 222.473 129.877 215.031 120.288C208.633 112.044 199.368 102.015 196.891 99.3623C196.503 98.9453 195.911 98.7849 195.366 98.9517C193.229 99.5965 187.901 101.396 186.226 103.703C184.111 106.612 183.698 107.642 183.698 107.642V107.645Z" fill="#3EF0FB"/>
<path d="M226.443 199.004C240.007 199.004 251.003 187.993 251.003 174.411C251.003 160.829 240.007 149.818 226.443 149.818C212.879 149.818 201.883 160.829 201.883 174.411C201.883 187.993 212.879 199.004 226.443 199.004Z" fill="#393A38"/>
<path d="M226.443 189.941C234.616 189.941 241.241 182.988 241.241 174.411C241.241 165.834 234.616 158.881 226.443 158.881C218.27 158.881 211.645 165.834 211.645 174.411C211.645 182.988 218.27 189.941 226.443 189.941Z" fill="black"/>
<path d="M224.742 175.363L229.41 172.453L233.241 156.708C233.241 156.708 233.856 154.328 234.872 153.135C235.884 151.945 236.544 151.438 236.942 152.506C236.942 152.506 237.118 151.56 235.401 150.883C233.699 150.212 224.476 146.693 217.783 147.797C211.087 148.9 224.742 175.363 224.742 175.363Z" fill="#00DFF4"/>
<path d="M209.562 149.19L212.654 155.439L213.98 154.73L210.501 147.403L208.271 142.453L207.121 144.208L209.562 149.19Z" fill="#B7C4B7"/>
<path d="M224.338 175.238L215.832 154.63C215.723 154.367 215.438 154.223 215.162 154.293C214.387 154.489 212.846 154.932 211.843 155.548C211.484 155.769 211.19 156.013 211.029 156.276C210.453 157.206 218.76 169.262 223.348 175.787C223.742 176.345 224.604 175.867 224.341 175.238H224.338Z" fill="#1E1E1D"/>
<path d="M173.096 72.3223C173.096 72.3223 174.041 72.5244 173.859 73.6889C173.676 74.8534 172.193 76.929 171.536 77.2113C170.879 77.4936 170.219 77.0926 170.219 77.0926L173.096 72.3223Z" fill="black"/>
<path d="M172.427 75.1781C173.256 73.8604 173.625 72.6008 173.25 72.3647C172.876 72.1286 171.901 73.0054 171.072 74.3231C170.243 75.6408 169.874 76.9004 170.248 77.1365C170.623 77.3726 171.598 76.4958 172.427 75.1781Z" fill="white"/>
<path d="M172.359 76.4709L173.798 83.6055L174.17 85.896H174.685L172.693 76.041L172.359 76.4709Z" fill="black"/>
<path d="M158.423 83.4793C158.423 83.4793 163.866 87.8518 163.898 87.948C163.93 88.0443 163.898 90.9475 163.898 90.9475H164.638V87.8518L162.127 85.7538L157.907 82.5586L157.667 82.9147L158.423 83.4793Z" fill="black"/>
<path d="M155.652 84.1119C157.359 84.1119 158.743 82.6742 158.743 80.9007C158.743 79.1272 157.359 77.6895 155.652 77.6895C153.944 77.6895 152.56 79.1272 152.56 80.9007C152.56 82.6742 153.944 84.1119 155.652 84.1119Z" fill="black"/>
<path d="M202.581 124.76C202.488 124.773 202.418 124.776 202.376 124.77C202.306 124.76 202.251 124.725 202.209 124.671C202.168 124.616 202.152 124.549 202.161 124.481C202.171 124.411 202.206 124.356 202.261 124.315C202.315 124.273 202.379 124.257 202.443 124.266C202.507 124.276 202.555 124.305 202.587 124.35H202.591L202.543 124.43C202.504 124.391 202.466 124.366 202.427 124.359C202.389 124.353 202.354 124.363 202.318 124.388C202.283 124.414 202.264 124.449 202.258 124.491C202.251 124.533 202.258 124.574 202.286 124.61C202.315 124.645 202.347 124.664 202.389 124.671C202.414 124.674 202.463 124.674 202.53 124.671C202.636 124.658 202.712 124.655 202.767 124.661C202.853 124.674 202.921 124.716 202.972 124.786C203.023 124.857 203.042 124.937 203.03 125.02C203.017 125.107 202.975 125.174 202.905 125.226C202.834 125.277 202.757 125.296 202.671 125.283C202.584 125.27 202.52 125.232 202.475 125.174L202.539 125.097C202.578 125.149 202.626 125.177 202.687 125.187C202.748 125.197 202.799 125.184 202.85 125.149C202.901 125.113 202.927 125.065 202.937 125.004C202.946 124.943 202.934 124.889 202.895 124.841C202.857 124.792 202.812 124.764 202.754 124.754C202.722 124.748 202.664 124.751 202.581 124.754V124.76Z" fill="white"/>
<path d="M166.023 83.7653C166.023 83.7653 170.29 85.812 170.245 86.6749C170.204 87.5379 167.666 89.0585 166.561 89.4659C165.247 89.9503 164.43 89.761 164.331 90.2454C164.293 90.4315 164.363 90.5181 164.366 90.6465C164.373 90.8261 164.526 90.964 164.703 90.948C165.324 90.8935 166.667 90.3834 167.125 90.1877C167.637 89.9664 170.444 88.4554 170.883 87.1593C171.245 86.0911 170.659 85.565 169.076 84.1406C167.493 82.7195 167.089 82.1484 167.089 82.1484L166.023 83.7653Z" fill="black"/>
<path d="M165.475 78.4622H168.39C168.864 78.4622 169.165 78.9594 168.935 79.3636L165.209 85.8727C165.052 86.1454 164.709 86.2576 164.417 86.1325L162.175 85.1798C161.842 85.0386 161.704 84.6504 161.874 84.3361L164.927 78.7798C165.036 78.5841 165.247 78.459 165.475 78.459V78.4622Z" fill="#99DB26"/>
<path d="M165.965 78.5742H168.403C168.986 78.5742 169.355 79.203 169.069 79.7131L165.683 85.7922C165.491 86.1355 165.071 86.2799 164.709 86.1227L162.844 85.3078C162.434 85.1282 162.265 84.6374 162.476 84.246L165.292 78.9816C165.427 78.7314 165.683 78.5774 165.965 78.5774V78.5742Z" fill="black"/>
<path d="M168.121 89.3889C168.121 89.3889 168.97 86.0173 170.748 84.4935C172.526 82.9665 174.141 82.1324 174.974 83.3033L175.781 85.2859C175.781 85.2859 171.898 87.4609 170.915 88.1025C169.931 88.7409 168.207 89.6006 168.207 89.6006L168.121 89.3921V89.3889Z" fill="#1E1E1E"/>
<path d="M175.291 85.3699L174.48 83.3777C174.448 83.2975 174.368 83.2494 174.282 83.259C173.942 83.2943 173.103 83.4451 172.722 84.045C172.69 84.0963 172.686 84.1637 172.709 84.2182L173.558 86.3066C173.603 86.4125 173.731 86.4574 173.83 86.3997L175.208 85.6105C175.291 85.5624 175.326 85.4597 175.291 85.3731V85.3699Z" fill="white"/>
<path d="M177.277 84.4996C177.277 84.4996 179.908 82.7416 180.292 82.7481C180.677 82.7545 181.663 82.9502 181.208 83.8612L178.613 86.2352L176.086 88.1568L175.579 86.2448L175.775 85.2567L177.277 84.4996Z" fill="black"/>
<path d="M105.929 86.4806C106.285 89.1818 117.78 103.605 124.239 104.102C124.309 104.102 124.45 104.173 124.594 104.173C125.091 104.173 125.587 104.032 125.943 103.746C128.215 102.325 137.653 96.1431 140.847 92.4475L140.28 88.6813C135.385 90.388 124.527 96.9965 124.527 96.9965C124.527 96.9965 124.03 97.1376 123.889 96.9259C115.374 88.8962 111.542 85.9834 108.703 83.9238L105.935 86.4806H105.929Z" fill="#D8A988"/>
<path d="M89.8201 182.835C90.2463 184.044 89.394 188.449 89.394 189.941C90.3167 191.221 92.6587 190.226 92.9438 188.876C92.9438 188.735 93.0848 188.664 93.0848 188.378C92.7997 187.525 93.37 184.327 94.078 182.553L89.8201 182.838V182.835Z" fill="#F9AC91"/>
<path d="M104.083 184.825C104.439 186.034 103.372 189.017 103.231 190.439C104.083 191.789 106.496 190.865 106.781 189.515C106.851 189.374 106.922 189.303 106.992 189.017C106.637 188.094 107.419 185.463 108.341 183.83L104.083 184.825Z" fill="#F9AC91"/>
<path d="M103.943 115.686H112.67C117.068 128.832 118.347 143.823 115.72 158.605C115.508 159.741 115.223 160.88 114.867 161.945L111.958 184.895C109.757 185.819 103.231 185.181 101.03 184.61C103.939 176.153 105.644 168.55 106.352 160.309C106.637 159.029 106.637 156.331 106.637 156.331C107.489 143.611 104.58 118.884 103.939 115.686H103.943Z" fill="#1B2677"/>
<path d="M96.8462 184.684C93.8666 185.537 89.7498 184.116 87.4783 183.192L93.1554 157.612C93.2259 157.114 93.2259 156.617 93.2259 156.12L91.169 125.422C91.0986 124.71 91.169 123.931 91.2395 123.219C91.5951 120.517 92.3032 116.681 93.3701 115.33H104.795C108.059 130.536 106.624 132.246 105.916 141.761C105.775 142.399 103.821 158.651 103.039 160.714L96.8494 184.684H96.8462Z" fill="#1B2677"/>
<path d="M112.67 115.826L93.2962 116.111L93.1553 115.258L112.529 115.188L112.67 115.826Z" fill="#0E0E38"/>
<path d="M98.0507 64.9512L104.721 65.5896C102.805 68.6436 101.315 71.3447 103.513 73.4781L97.1248 72.9102C99.3258 71.4185 99.0406 67.7935 98.0474 64.9512H98.0507Z" fill="#EDBD98"/>
<path d="M104.721 52.373C104.721 52.373 107.274 55.5009 106.707 57.7015C106.637 58.0576 106.566 58.3399 106.496 58.5549C106.211 59.8349 106.211 59.7643 107.56 60.4027C108.271 60.7588 107.63 61.3972 107.274 61.6827C107.063 61.8238 106.919 62.1093 106.989 62.3211C106.989 62.6066 107.06 62.8889 107.06 62.8889C107.06 62.9595 107.345 63.7422 106.563 63.7422C102.872 63.8128 105.926 63.7422 106.775 64.0277C106.775 64.0277 107.13 64.2395 107.06 64.3838C106.989 64.5956 106.704 64.8105 106.634 65.096C106.563 65.3815 106.493 66.2316 106.349 66.5877C106.204 66.9438 104.007 67.5822 102.728 67.2261C101.735 67.0144 100.386 66.6583 99.8192 66.5877C99.6077 66.5877 99.3226 66.0905 99.1816 65.9493C98.8965 65.7376 98.1885 65.5227 97.6214 65.1666C96.4872 64.4544 97.4804 64.1015 97.5509 63.6043C97.6214 63.1776 97.7623 62.3243 97.6214 62.042C97.4804 61.8303 96.5577 60.6914 96.3431 60.1942C96.0579 59.4114 96.5545 58.1346 96.9101 57.708C97.2658 57.2813 98.0443 56.9958 98.5409 57.4225C98.967 57.708 99.3931 57.708 99.6045 57.3519C99.816 56.9252 102.302 53.7974 102.799 53.5151C103.084 53.3034 104.715 52.3795 104.715 52.3795L104.721 52.373Z" fill="#EDBD98"/>
<path d="M107.063 54.2203C106.922 54.5764 106.778 54.8587 106.567 55.1442C106.281 55.6414 105.785 55.9975 105.288 56.2093C103.657 56.9214 102.165 57.5598 100.675 57.4187C100.037 57.3481 99.4669 57.7042 99.2555 58.3426C99.044 58.9104 98.6884 59.2665 98.3328 59.6932C97.6952 60.3315 97.4806 61.326 97.8362 62.2499C98.2623 63.4594 97.8362 64.1683 97.3396 65.2334C97.0545 65.5895 96.702 65.66 96.2055 65.4451C94.0044 64.3095 92.6557 61.9644 92.1591 59.1927C91.3773 56.7065 91.733 55.9943 92.2295 54.8587C92.3705 54.5026 92.6557 54.2203 92.8671 53.9348C93.9308 52.7991 94.8535 51.378 95.8466 50.6658C96.6988 50.098 97.5511 49.6713 98.6147 49.3153C100.245 48.7474 102.02 48.9592 103.44 49.8125C105 50.7364 106.419 52.0164 106.989 53.0815C107.201 53.4375 107.201 53.8642 107.06 54.2171L107.063 54.2203Z" fill="#42210B"/>
<path d="M98.2205 59.8224C98.0795 59.5369 97.8649 59.3251 97.6534 59.2546C97.5445 59.2257 97.442 59.2353 97.3683 59.2546C96.7307 59.5401 96.5673 60.0181 96.8717 60.6757L96.9037 60.7431C97.3266 61.4777 97.5797 61.529 98.15 61.8113L98.2205 59.8224Z" fill="#ECBC97"/>
<path d="M89.2531 187.313C90.6724 187.952 92.0917 187.952 93.511 187.101C93.5815 187.031 93.6519 187.101 93.7224 187.172C94.5041 188.664 95.3532 190.582 96.702 191.721C98.0507 192.645 99.752 193.354 101.597 193.854C101.809 193.925 102.094 193.996 102.309 193.996C103.231 193.996 103.939 194.137 104.51 194.422C104.58 194.493 104.721 194.493 104.795 194.563C105.221 194.775 105.362 195.202 105.432 195.699C105.432 196.055 105.291 196.337 105.006 196.482C103.516 197.335 101.601 197.762 99.2586 197.691L94.9303 197.123L88.1895 196.555L87.4077 196.27C87.2668 196.199 87.1963 196.129 87.1963 195.914C87.1963 194.778 87.4077 193.639 87.8338 192.359C87.9748 192.003 88.2599 191.506 88.4009 191.15C88.968 190.156 89.1122 188.805 89.1122 187.313C89.1122 187.313 89.1826 187.243 89.2531 187.313Z" fill="#F7931E"/>
<path d="M87.3372 194.561C87.1963 194.561 87.0521 195.841 87.1963 196.123C87.3372 196.479 88.6156 196.62 88.827 196.691C89.8907 196.832 91.028 196.902 92.2326 196.976L96.0644 197.403C97.128 197.544 98.4064 197.759 99.6847 197.759C100.748 197.759 101.742 197.688 102.735 197.403C103.516 197.262 104.295 196.906 105.077 196.408C105.147 196.338 105.218 196.267 105.288 196.197C105.5 195.77 105.429 194.987 104.792 194.564C103.939 194.99 102.661 195.347 101.242 195.558C100.178 195.77 98.9702 195.77 97.6919 195.77C95.6351 195.699 93.6455 195.558 91.9443 195.273C90.2399 195.132 88.6091 194.917 87.3308 194.561H87.3372Z" fill="#CE751D"/>
<path d="M102.027 193.918C101.886 194.557 101.956 195.054 102.238 195.41C103.231 195.269 104.083 194.984 104.791 194.557C104.083 194.06 103.161 193.845 102.023 193.918H102.027Z" fill="#F15A24"/>
<path d="M93.3669 188.876C93.5633 188.876 93.7225 188.717 93.7225 188.52C93.7225 188.323 93.5633 188.164 93.3669 188.164C93.1704 188.164 93.0112 188.323 93.0112 188.52C93.0112 188.717 93.1704 188.876 93.3669 188.876Z" fill="#D8CDC3"/>
<path d="M93.9372 190.156C94.1336 190.156 94.2928 189.996 94.2928 189.799C94.2928 189.603 94.1336 189.443 93.9372 189.443C93.7408 189.443 93.5815 189.603 93.5815 189.799C93.5815 189.996 93.7408 190.156 93.9372 190.156Z" fill="#D8CDC3"/>
<path d="M94.5746 191.292C94.771 191.292 94.9302 191.133 94.9302 190.936C94.9302 190.74 94.771 190.58 94.5746 190.58C94.3782 190.58 94.219 190.74 94.219 190.936C94.219 191.133 94.3782 191.292 94.5746 191.292Z" fill="#D8CDC3"/>
<path d="M95.4269 192.431C95.6233 192.431 95.7825 192.271 95.7825 192.075C95.7825 191.878 95.6233 191.719 95.4269 191.719C95.2305 191.719 95.0713 191.878 95.0713 192.075C95.0713 192.271 95.2305 192.431 95.4269 192.431Z" fill="#D8CDC3"/>
<path d="M96.5609 193.14C96.7573 193.14 96.9166 192.98 96.9166 192.784C96.9166 192.587 96.7573 192.428 96.5609 192.428C96.3645 192.428 96.2053 192.587 96.2053 192.784C96.2053 192.98 96.3645 193.14 96.5609 193.14Z" fill="#D8CDC3"/>
<path d="M97.7687 193.779C97.9651 193.779 98.1243 193.619 98.1243 193.423C98.1243 193.226 97.9651 193.066 97.7687 193.066C97.5723 193.066 97.4131 193.226 97.4131 193.423C97.4131 193.619 97.5723 193.779 97.7687 193.779Z" fill="#D8CDC3"/>
<path d="M99.1769 194.106C99.2976 194.004 99.3134 193.824 99.2123 193.704C99.1111 193.583 98.9313 193.567 98.8106 193.668C98.6899 193.769 98.6741 193.95 98.7752 194.07C98.8764 194.191 99.0562 194.207 99.1769 194.106Z" fill="#D8CDC3"/>
<path d="M100.592 194.433C100.67 194.295 100.621 194.121 100.484 194.044C100.347 193.966 100.173 194.014 100.096 194.152C100.018 194.289 100.066 194.463 100.204 194.541C100.341 194.618 100.515 194.57 100.592 194.433Z" fill="#D8CDC3"/>
<path d="M94.0781 189.444C94.3633 189.373 94.7157 189.302 94.9303 189.514C95.0008 189.655 95.1418 189.87 95.2155 190.011C94.9303 189.87 94.4337 189.87 94.2223 189.941C94.3633 189.729 94.2928 189.514 94.0813 189.444H94.0781Z" fill="#686461"/>
<path d="M94.645 190.579C94.8565 190.438 95.3563 190.367 95.6382 190.438C95.7087 190.579 95.8496 190.65 95.9233 190.794C95.5677 190.723 95.1416 190.865 94.9302 190.935C94.9302 190.794 94.8597 190.65 94.645 190.579Z" fill="#686461"/>
<path d="M95.4973 191.719C95.7088 191.578 96.1349 191.434 96.42 191.434C96.561 191.575 96.6315 191.645 96.7756 191.79C96.42 191.79 95.9234 192.001 95.7825 192.146C95.7825 191.934 95.712 191.719 95.4973 191.719Z" fill="#686461"/>
<path d="M96.561 192.428C96.702 192.217 97.0576 192.072 97.3428 192.072C97.4837 192.143 97.6279 192.213 97.7689 192.284C97.4132 192.355 96.9871 192.64 96.8462 192.781C96.8462 192.711 96.8462 192.496 96.561 192.425V192.428Z" fill="#686461"/>
<path d="M97.6982 193.069C97.9097 192.858 98.1243 192.713 98.3358 192.643C98.4768 192.713 98.5472 192.784 98.7619 192.854C98.4768 192.995 98.2653 193.281 98.1243 193.422C98.0539 193.21 97.9834 193.066 97.6982 193.066V193.069Z" fill="#686461"/>
<path d="M98.9029 193.636C99.1143 193.424 99.329 193.209 99.5404 193.139C99.6814 193.209 99.7519 193.209 99.9665 193.28C99.6814 193.421 99.3995 193.777 99.2553 193.848C99.2553 193.777 99.1143 193.636 98.8997 193.636H98.9029Z" fill="#686461"/>
<path d="M100.111 194.064C100.181 193.708 100.252 193.638 100.322 193.426C100.463 193.426 100.678 193.567 100.678 193.567C100.537 193.852 100.607 193.994 100.537 194.205C100.466 194.064 100.325 193.92 100.111 194.064Z" fill="#686461"/>
<path d="M93.511 188.164C93.7961 188.093 94.0076 188.022 94.2927 188.164C94.4337 188.305 94.5042 188.52 94.5042 188.661C94.1485 188.52 93.9371 188.52 93.7224 188.59C93.7224 188.378 93.652 188.234 93.511 188.164Z" fill="#686461"/>
<path d="M92.0916 187.667V187.381C92.1621 187.169 92.2326 187.025 92.4472 186.955C92.7323 186.743 93.0143 186.598 93.3699 186.387C93.5109 186.598 93.5813 186.813 93.5813 187.099C93.2962 187.24 93.0143 187.384 92.7996 187.455C92.5882 187.526 92.3735 187.596 92.0884 187.667H92.0916Z" fill="#F15A24"/>
<path d="M103.302 188.024C104.721 188.663 106.14 188.663 107.56 187.812C107.63 187.742 107.701 187.812 107.771 187.883C108.553 189.375 109.402 191.293 110.751 192.432C112.099 193.356 113.801 194.065 115.646 194.565C115.857 194.636 116.143 194.706 116.357 194.706C117.28 194.706 117.988 194.848 118.558 195.133C118.629 195.204 118.77 195.204 118.843 195.274C119.269 195.486 119.41 195.913 119.481 196.41C119.481 196.766 119.34 197.048 119.055 197.193C117.565 198.046 115.649 198.473 113.307 198.402L108.979 197.834L102.238 197.266L101.456 196.981C101.315 196.91 101.245 196.84 101.245 196.625C101.245 195.489 101.456 194.35 101.882 193.07C102.023 192.714 102.309 192.217 102.449 191.861C103.017 190.866 103.161 189.516 103.161 188.024C103.161 188.024 103.231 187.954 103.302 188.024Z" fill="#F7931E"/>
<path d="M101.386 195.271C101.245 195.271 101.101 196.551 101.245 196.834C101.386 197.19 102.664 197.331 102.876 197.402C103.939 197.543 105.077 197.613 106.281 197.687L110.113 198.114C111.177 198.255 112.455 198.47 113.733 198.47C114.797 198.47 115.79 198.399 116.783 198.114C117.565 197.973 118.344 197.617 119.125 197.119C119.196 197.049 119.266 196.978 119.337 196.908C119.548 196.481 119.478 195.698 118.84 195.275C117.988 195.701 116.71 196.057 115.29 196.269C114.227 196.481 113.019 196.481 111.74 196.481C109.684 196.41 107.694 196.269 105.993 195.984C104.288 195.843 102.658 195.628 101.379 195.271H101.386Z" fill="#CE751D"/>
<path d="M116.079 194.631C115.938 195.27 116.008 195.767 116.29 196.123C117.283 195.982 118.135 195.696 118.843 195.27C118.132 194.773 117.213 194.558 116.075 194.631H116.079Z" fill="#F15A24"/>
<path d="M107.419 189.589C107.615 189.589 107.774 189.43 107.774 189.233C107.774 189.036 107.615 188.877 107.419 188.877C107.222 188.877 107.063 189.036 107.063 189.233C107.063 189.43 107.222 189.589 107.419 189.589Z" fill="#D8CDC3"/>
<path d="M108.059 190.866C108.256 190.866 108.415 190.707 108.415 190.51C108.415 190.314 108.256 190.154 108.059 190.154C107.863 190.154 107.704 190.314 107.704 190.51C107.704 190.707 107.863 190.866 108.059 190.866Z" fill="#D8CDC3"/>
<path d="M108.626 192.005C108.823 192.005 108.982 191.846 108.982 191.649C108.982 191.452 108.823 191.293 108.626 191.293C108.43 191.293 108.271 191.452 108.271 191.649C108.271 191.846 108.43 192.005 108.626 192.005Z" fill="#D8CDC3"/>
<path d="M109.479 193.07C109.675 193.07 109.834 192.91 109.834 192.714C109.834 192.517 109.675 192.357 109.479 192.357C109.282 192.357 109.123 192.517 109.123 192.714C109.123 192.91 109.282 193.07 109.479 193.07Z" fill="#D8CDC3"/>
<path d="M110.613 193.853C110.809 193.853 110.968 193.693 110.968 193.497C110.968 193.3 110.809 193.141 110.613 193.141C110.416 193.141 110.257 193.3 110.257 193.497C110.257 193.693 110.416 193.853 110.613 193.853Z" fill="#D8CDC3"/>
<path d="M111.817 194.421C112.014 194.421 112.173 194.262 112.173 194.065C112.173 193.868 112.014 193.709 111.817 193.709C111.621 193.709 111.462 193.868 111.462 194.065C111.462 194.262 111.621 194.421 111.817 194.421Z" fill="#D8CDC3"/>
<path d="M113.233 194.828C113.354 194.727 113.37 194.547 113.269 194.426C113.167 194.305 112.988 194.29 112.867 194.391C112.746 194.492 112.73 194.672 112.832 194.793C112.933 194.914 113.113 194.93 113.233 194.828Z" fill="#D8CDC3"/>
<path d="M114.698 195.104C114.775 194.967 114.727 194.793 114.59 194.715C114.453 194.638 114.279 194.686 114.201 194.824C114.124 194.961 114.172 195.135 114.31 195.213C114.447 195.29 114.621 195.242 114.698 195.104Z" fill="#D8CDC3"/>
<path d="M108.13 190.157C108.415 190.086 108.767 190.015 108.982 190.227C109.053 190.368 109.194 190.583 109.267 190.724C108.982 190.583 108.486 190.583 108.274 190.654C108.415 190.368 108.345 190.227 108.133 190.157H108.13Z" fill="#686461"/>
<path d="M108.697 191.292C108.908 191.151 109.408 191.08 109.69 191.151C109.76 191.292 109.901 191.362 109.975 191.507C109.619 191.436 109.193 191.577 108.982 191.648C108.982 191.507 108.911 191.362 108.697 191.292Z" fill="#686461"/>
<path d="M109.549 192.358C109.761 192.217 110.187 192.072 110.472 192.072C110.613 192.213 110.683 192.284 110.827 192.428C110.472 192.428 109.975 192.64 109.834 192.784C109.905 192.573 109.764 192.358 109.549 192.358Z" fill="#686461"/>
<path d="M110.613 193.141C110.754 192.93 111.109 192.785 111.395 192.785C111.535 192.856 111.68 192.926 111.821 192.997C111.465 193.067 111.039 193.353 110.898 193.494C110.898 193.353 110.898 193.138 110.613 193.138V193.141Z" fill="#686461"/>
<path d="M111.747 193.708C111.958 193.496 112.173 193.352 112.384 193.281C112.525 193.352 112.596 193.422 112.81 193.493C112.525 193.634 112.314 193.92 112.173 194.061C112.102 193.92 112.032 193.705 111.747 193.705V193.708Z" fill="#686461"/>
<path d="M112.955 194.277C113.166 194.065 113.381 193.85 113.592 193.779C113.733 193.85 113.804 193.85 114.018 193.92C113.733 194.062 113.451 194.418 113.307 194.488C113.307 194.488 113.166 194.277 112.951 194.277H112.955Z" fill="#686461"/>
<path d="M114.159 194.703C114.23 194.347 114.3 194.276 114.371 194.064C114.512 194.064 114.726 194.206 114.726 194.206C114.586 194.491 114.656 194.632 114.586 194.844C114.515 194.773 114.374 194.558 114.159 194.703Z" fill="#686461"/>
<path d="M107.56 188.876C107.845 188.806 108.056 188.735 108.341 188.876C108.482 189.018 108.553 189.233 108.553 189.374C108.197 189.233 107.986 189.233 107.771 189.303C107.771 189.091 107.701 188.947 107.56 188.876Z" fill="#686461"/>
<path d="M106.14 188.309V188.024C106.211 187.812 106.281 187.668 106.496 187.597C106.781 187.385 107.063 187.241 107.418 187.029C107.559 187.241 107.63 187.456 107.63 187.741C107.345 187.883 107.063 188.027 106.848 188.098C106.637 188.239 106.422 188.309 106.137 188.309H106.14Z" fill="#F15A24"/>
<path d="M105.503 87.3334C105.858 90.0346 117.354 104.458 123.812 104.955C123.883 104.955 124.024 105.026 124.168 105.026C124.665 105.026 125.161 104.884 125.517 104.599C127.788 103.178 137.297 96.9254 140.491 93.2297L138.575 89.6753C133.68 91.3819 124.098 97.8461 124.098 97.8461C124.098 97.8461 123.53 97.9872 123.46 97.7755C119.558 91.3787 113.951 87.898 108.274 84.7734L105.506 87.3302L105.503 87.3334Z" fill="#EDBD98"/>
<path d="M139.921 88.9695C140.632 88.6134 140.703 87.4072 141.055 86.6951C141.34 86.0567 141.766 85.4151 141.978 85.2739C142.475 84.9884 146.012 83.7309 146.012 83.7309L144.746 84.6355L147.229 82.8583C147.514 82.6466 149.286 81.0105 149.641 81.6489C149.853 82.0755 148.434 83.2817 148.222 83.5673C147.726 84.2056 147.867 84.2056 147.867 84.2056C147.867 84.2056 148.363 84.4912 148.152 84.9884C147.867 85.4856 147.44 86.0535 147.44 86.0535C147.44 86.0535 148.152 86.2652 147.726 87.1891C147.726 87.1891 147.937 87.6863 147.796 88.3247C147.726 88.6808 147.44 89.1781 147.085 89.5341C146.729 89.9608 146.233 90.3169 145.736 90.5286C143.535 91.2408 141.69 92.0909 140.485 93.2298L138.569 89.6753L139.918 88.9631L139.921 88.9695Z" fill="#EDBD98"/>
<path d="M145.528 84.0636C145.528 84.1342 144.961 84.4903 144.249 84.9169C143.538 85.3436 142.901 85.6997 142.901 85.6997C142.901 85.6291 143.468 85.273 144.179 84.8464C144.89 84.3491 145.457 83.993 145.528 84.0636Z" fill="#C99877"/>
<path d="M147.87 84.1348C147.87 84.1348 147.373 84.7026 146.736 85.3442C146.098 85.9826 145.528 86.4798 145.528 86.4798C145.528 86.4798 146.024 85.912 146.662 85.2704C147.3 84.632 147.796 84.1348 147.87 84.1348Z" fill="#C99877"/>
<path d="M147.585 85.8417C147.585 85.8417 147.373 86.1978 147.088 86.5539C146.732 86.91 146.45 87.1923 146.45 87.1923C146.45 87.1923 146.662 86.8362 146.947 86.4801C147.303 86.0534 147.585 85.7679 147.585 85.8417Z" fill="#C99877"/>
<path d="M115.082 115.189H87.4783C87.4783 115.189 88.4714 91.5973 92.0213 78.5953C92.5178 76.7475 94.0781 74.1201 95.4269 72.7695C95.994 72.2723 96.561 71.7751 97.3428 71.4895C97.8393 71.2778 98.4064 71.204 98.9735 71.2778L103.728 71.7045C104.225 71.7751 104.721 72.0606 104.936 72.5578L109.62 83.218C109.905 83.8564 110.331 84.4274 110.828 84.8509L117.712 91.0327L113.17 96.5762L112.602 97.2146" fill="#EACE03"/>
<path d="M111.314 96.778C103.683 90.686 103.34 89.5568 102.719 87.5101C102.51 86.8268 102.277 86.0569 101.709 84.9341L102.341 84.6133C102.937 85.7874 103.18 86.5926 103.395 87.3048C103.975 89.2136 104.292 90.2658 111.753 96.2231L111.311 96.778H111.314Z" fill="#603813"/>
<path d="M107.524 152.064C107.524 152.064 107.806 152.076 107.906 151.926C108.005 151.775 108.287 150.662 109.293 150.524C110.299 150.386 112.615 149.966 113.128 149.959C113.64 149.953 115.726 150.216 115.771 150.546C115.816 150.877 116.268 151.573 116.159 152.474C116.05 153.376 116.2 154.547 116.405 155.166C116.61 155.785 117.242 159.641 114.835 162.243C112.429 164.844 112.513 165.826 111.497 165.784C110.482 165.743 108.261 165.592 107.579 164.594C106.896 163.596 106.003 163.975 106.031 163.465C106.06 162.955 106.358 160.911 106.393 159.359C106.393 159.359 106.256 159.06 107.778 159.59C109.299 160.119 108.54 159.548 109.136 158.582C109.732 157.617 110.164 155.628 108.671 155.599C107.178 155.57 106.675 155.676 106.675 155.676C106.675 155.676 106.547 153.979 106.576 153.793C106.605 153.607 106.531 152.481 106.925 152.157C107.319 151.833 107.521 152.064 107.521 152.064H107.524Z" fill="black"/>
<path d="M95.225 151.223C95.225 151.223 95.5101 151.236 95.6094 151.085C95.7088 150.935 95.9939 149.805 97.0127 149.664C98.0315 149.523 100.377 149.096 100.896 149.09C101.415 149.084 103.526 149.35 103.574 149.687C103.622 150.023 104.077 150.726 103.965 151.64C103.853 152.555 104.007 153.738 104.215 154.367C104.423 154.996 105.064 158.897 102.626 161.534C100.188 164.171 100.274 165.162 99.2425 165.12C98.2109 165.079 95.9683 164.925 95.2762 163.914C94.5842 162.904 92.223 161.797 92.3352 161.29C92.4473 160.783 92.5562 160.045 93.0144 158.233C93.0144 158.233 93.9371 158.307 95.4781 158.842C97.0191 159.378 96.2502 158.801 96.8557 157.822C97.458 156.844 97.897 154.832 96.3848 154.803C94.8726 154.775 93.1009 154.293 93.1009 154.293C93.1009 154.293 92.899 152.709 92.9279 152.523C92.9567 152.336 92.8446 151.948 92.8574 151.098C92.8638 150.582 95.2218 151.223 95.2218 151.223H95.225Z" fill="black"/>
<path d="M129.172 94.2649L126.523 95.8015L124.283 96.9243C124.283 96.9243 124.018 97.12 122.714 95.8271L120.689 93.9023C120.689 93.9023 114.294 97.2996 114.957 99.5805L117.709 102.182C117.709 102.182 121.038 104.184 121.849 104.463C122.659 104.742 123.598 105.846 125.517 104.604C127.436 103.363 131.524 100.581 131.524 100.581L129.409 94.9514L129.172 94.2713V94.2649Z" fill="#2B2725"/>
<path d="M125.971 103.183C126.346 102.166 125.179 100.798 123.365 100.127C121.55 99.4571 119.775 99.7384 119.401 100.756C119.026 101.773 120.193 103.141 122.007 103.811C123.822 104.482 125.596 104.2 125.971 103.183Z" fill="#383838"/>
</g>
<defs>
<clipPath id="clip0_16546_58371">
<rect width="185" height="150" fill="white" transform="translate(66 49)"/>
</clipPath>
</defs>
</svg>
