<svg width="40" height="40" viewBox="0 0 40 40" fill="none" xmlns="http://www.w3.org/2000/svg">
<path d="M14.4373 20.3557C14.4373 20.4052 14.4373 20.4546 14.4373 20.504C14.4373 21.4435 14.3878 22.4323 14.3878 23.3718C14.3878 23.7673 14.289 23.8662 13.9428 23.9157C13.844 23.9157 13.7451 23.9651 13.6462 23.9651C13.0034 23.9651 12.4101 23.9651 11.7673 23.9651C11.6684 23.9651 11.5201 23.9651 11.4212 23.9157C11.0751 23.8168 10.9762 23.7179 10.9762 23.3718C10.9762 21.7896 10.9268 20.2568 10.9268 18.6746C10.9268 18.1802 11.0256 17.6857 11.1245 17.1913L11.7179 15.3124C11.7673 15.3124 11.7673 15.0157 11.8168 15.0157C11.8662 14.6202 11.9651 14.4719 12.0145 14.0763C12.064 13.2852 12.064 12.4941 12.064 11.6535C12.064 11.6041 12.064 11.5547 12.064 11.5547C12.064 11.258 12.064 10.9119 12.064 10.6152C12.509 10.6152 12.9045 10.6152 13.3495 10.6152C13.3495 11.0108 13.3495 11.4063 13.3495 11.7524C13.3495 12.2963 13.3495 12.8402 13.3495 13.3841C13.399 14.2246 13.4978 15.0158 13.7945 15.8069C14.0417 16.4991 14.3878 17.1418 14.4373 17.9329V20.3557Z" fill="#F6D751"/>
<path d="M12.7071 28.3651C5.68607 28.3651 0 22.679 0 15.7569C0 8.63693 5.63662 2.95088 12.806 3.00032C19.7282 3.04976 25.4637 8.73582 25.3648 15.8558C25.2659 22.7779 19.6293 28.3651 12.7071 28.3651ZM14.9815 16.4985C14.9815 16.5974 15.0804 16.6963 15.1793 16.7952C16.6626 18.2785 18.146 19.7618 19.5798 21.1957C19.9754 21.5913 20.3215 21.9374 20.717 22.3329C22.7442 20.0585 23.9309 16.2019 22.5959 12.3947C21.2115 8.38972 18.3437 5.96698 14.1904 5.27476C11.1249 4.78032 8.35604 5.62086 5.93328 7.54917C7.76271 9.42805 9.5427 11.208 11.3227 13.0374L14.9815 16.4985ZM10.4327 15.0647C9.19659 13.8286 7.96048 12.5925 6.67494 11.3564C5.93328 10.6147 5.24107 9.87305 4.49941 9.13139C1.2361 13.0375 1.13721 19.7124 5.93328 23.7174C10.3338 27.4257 16.2671 26.4862 19.0854 23.9151C17.7504 22.5801 16.4154 21.1957 15.031 19.8113L10.4327 15.0647Z" fill="#3DBCC8"/>
<path d="M16.9099 8.63672C17.8494 8.63672 18.7888 8.63672 19.7282 8.63672C19.7777 8.63672 19.926 8.7356 19.926 8.78504C20.0743 9.62559 20.2721 10.5156 20.371 11.3561C20.4204 12.345 19.9754 12.9383 19.036 13.2844C18.8877 13.3339 18.7393 13.5317 18.6899 13.68C18.591 13.9767 18.5416 14.2733 18.5416 14.57C18.5416 15.5589 18.5416 16.4983 18.591 17.4872C18.591 17.5366 18.591 17.5861 18.6405 17.6355C19.1843 17.685 19.7282 17.6355 20.2227 17.9322C19.8271 18.4266 17.1077 18.4266 16.6132 17.9322C17.1077 17.6355 17.6516 17.685 18.1955 17.6355C18.1955 17.5861 18.2449 17.5861 18.2449 17.5366C18.2449 16.3994 18.2449 15.2622 18.2449 14.125C18.2449 13.68 18.0966 13.3339 17.5527 13.1361C16.9594 12.9383 16.6132 12.4439 16.5144 11.8011C16.366 11.0595 16.5144 10.2684 16.7121 9.5267C16.7616 9.27948 16.8605 8.98283 16.9099 8.63672Z" fill="#F6D751"/>
<path d="M5.09269 16.2025C5.04325 16.0541 4.99381 15.9552 4.94436 15.8563C4.74659 15.3619 4.94436 14.9169 5.4388 14.7686C5.73547 14.6697 6.03213 14.4225 6.37824 14.5214H6.42768C6.82323 14.2247 7.26823 14.2247 7.66378 14.5708C7.71323 14.6203 7.81212 14.5708 7.86156 14.6202C8.25711 14.6202 8.55377 14.8675 8.65266 15.2136C8.65266 15.3125 8.70211 15.3619 8.75156 15.4114C9.04822 15.8069 8.99877 16.3014 8.55378 16.5486C8.40544 16.6475 8.356 16.7464 8.356 16.8947C8.40545 17.8836 8.45489 18.8724 8.55378 19.8613C8.55378 20.0591 8.50433 20.1085 8.30656 20.1085C7.41656 20.158 6.52657 20.158 5.63658 20.158C5.48825 20.158 5.29047 20.158 5.14214 20.158C4.99381 20.158 4.84548 20.1085 4.89492 19.8613C4.94437 19.713 4.89492 19.6141 4.74659 19.5646C4.59826 19.5152 4.44993 19.4163 4.3016 19.3669C3.80716 19.1691 3.60938 18.823 3.60938 18.378C3.60938 17.8836 3.65882 17.4386 3.70826 16.9441C3.75771 16.4497 3.95548 16.3013 4.44992 16.2519C4.69714 16.2519 4.89492 16.2519 5.09269 16.2025ZM6.22991 14.818C6.22991 14.818 6.22991 14.7686 6.18046 14.7686C6.13102 14.7686 6.08158 14.7686 6.08158 14.7686C5.93324 14.818 5.78491 14.9169 5.58714 14.9664C5.24103 15.0652 5.0927 15.263 5.04326 15.5102C5.04326 15.8069 5.24103 16.2024 5.5377 16.2519C5.98269 16.3013 6.42769 16.2519 6.87268 16.2025L6.92212 16.153C6.97157 16.153 6.97157 16.153 7.02102 16.153C7.31768 16.2519 7.61434 16.3014 7.911 16.4002C8.20767 16.4991 8.50433 16.4002 8.65266 16.153C8.80099 15.9058 8.801 15.708 8.55378 15.4608C8.50433 15.4114 8.50433 15.3619 8.45489 15.3125C8.40544 14.9664 8.10878 14.7686 7.76268 14.7686C7.66379 14.7686 7.5649 14.7192 7.51546 14.6697C7.26824 14.4719 6.97157 14.4225 6.72435 14.5708C6.57602 14.6697 6.42768 14.7191 6.22991 14.818ZM5.09269 16.6969C4.89492 16.6969 4.79603 16.6969 4.6477 16.6969C4.44993 16.6969 4.3016 16.7958 4.3016 16.9936C4.25215 17.5374 4.25215 18.0813 4.25215 18.6252C4.25215 18.7241 4.35104 18.823 4.40048 18.8724C4.59826 18.9713 4.84548 19.0702 5.09269 19.2185C5.09269 18.3285 5.09269 17.5374 5.09269 16.6969Z" fill="#F6D751"/>
<path fill-rule="evenodd" clip-rule="evenodd" d="M30.8525 15.5095C30.9514 15.9545 30.6547 16.3995 30.2098 16.4984L29.1714 16.6961L32.6325 23.7666C32.8303 24.1622 32.682 24.6566 32.237 24.8544C31.8414 25.0522 31.347 24.9039 31.1492 24.4589L27.2431 16.4489C27.1442 16.2017 27.1442 15.9545 27.2431 15.7073C27.342 15.46 27.5892 15.3117 27.8364 15.2623L29.9131 14.8667C30.3581 14.7678 30.8031 15.0645 30.8525 15.5095Z" fill="#20505A"/>
<path fill-rule="evenodd" clip-rule="evenodd" d="M29.0728 18.2285C29.4683 18.0307 29.9627 18.1791 30.1605 18.6241L36.0443 30.8862C36.2421 31.2818 36.0938 31.7762 35.6488 31.974C35.2038 32.1718 34.7588 32.0234 34.561 31.5784L28.6772 19.3163C28.4794 18.9207 28.6772 18.4263 29.0728 18.2285Z" fill="#3DBCC8"/>
<path fill-rule="evenodd" clip-rule="evenodd" d="M34.4622 28.612C34.8578 28.8592 35.0061 29.3537 34.7589 29.7493L31.8911 34.8914C31.7428 35.1386 31.4461 35.3364 31.1495 35.3364H17.404C16.959 35.3364 16.5635 34.9903 16.5635 34.4959C16.5635 34.0509 16.9096 33.6553 17.404 33.6553H30.7045L33.3744 28.9087C33.5722 28.5626 34.0667 28.4142 34.4622 28.612Z" fill="#3DBCC8"/>
<path fill-rule="evenodd" clip-rule="evenodd" d="M13.5474 35.9294C14.2397 35.9294 14.7835 35.3855 14.7835 34.6933C14.7835 34.0011 14.2397 33.4572 13.5474 33.4572C12.8552 33.4572 12.3113 34.0011 12.3113 34.6933C12.3113 35.3855 12.9047 35.9294 13.5474 35.9294ZM13.5474 37.6105C15.1296 37.6105 16.4152 36.325 16.4152 34.7427C16.4152 33.1605 15.1296 31.875 13.5474 31.875C11.9652 31.875 10.6797 33.1605 10.6797 34.7427C10.6797 36.325 11.9652 37.6105 13.5474 37.6105Z" fill="#20505A"/>
<path fill-rule="evenodd" clip-rule="evenodd" d="M37.1324 35.9294C37.8246 35.9294 38.3685 35.3855 38.3685 34.6933C38.3685 34.0011 37.8246 33.4572 37.1324 33.4572C36.4402 33.4572 35.8963 34.0011 35.8963 34.6933C35.8963 35.3855 36.4896 35.9294 37.1324 35.9294ZM37.1324 37.6105C38.7146 37.6105 40.0001 36.325 40.0001 34.7427C40.0001 33.1605 38.7146 31.875 37.1324 31.875C35.5502 31.875 34.2646 33.1605 34.2646 34.7427C34.2646 36.325 35.5502 37.6105 37.1324 37.6105Z" fill="#20505A"/>
<path fill-rule="evenodd" clip-rule="evenodd" d="M33.9183 26.5345C34.3139 26.3367 34.8083 26.485 35.0061 26.8806L35.4017 27.7211C35.5994 28.1167 35.4511 28.6111 35.0555 28.8089C34.66 29.0067 34.1656 28.8583 33.9678 28.4628L33.5722 27.6222C33.325 27.2267 33.4733 26.7323 33.9183 26.5345Z" fill="#20505A"/>
</svg>
