<svg width="266" height="149" viewBox="0 0 266 149" fill="none" xmlns="http://www.w3.org/2000/svg">
<path d="M132.53 148.549C205.724 148.549 265.059 142.911 265.059 135.955C265.059 129 205.724 123.361 132.53 123.361C59.3355 123.361 0 129 0 135.955C0 142.911 59.3355 148.549 132.53 148.549Z" fill="#F3F3F3"/>
<path d="M123.265 132.516H68.5244V134.547H123.265V132.516Z" fill="#F1F1F1"/>
<path fill-rule="evenodd" clip-rule="evenodd" d="M128.344 38.5591C128.344 38.5591 132.015 36.8985 133.067 30.2395C134.118 23.5806 131.259 15.6233 139.793 10.0677C148.327 4.51203 166.574 13.4668 160.227 25.4418C152.722 39.6178 128.744 40.1137 128.344 38.5591Z" fill="#A2D855"/>
<path fill-rule="evenodd" clip-rule="evenodd" d="M124.691 37.7181C124.691 37.7181 124.185 33.7172 118.132 30.7583C112.085 27.7994 103.651 28.2062 100.847 18.4044C98.0432 8.60264 111.94 -6.24767 121.514 3.33677C132.841 14.6821 126.288 37.785 124.691 37.7181Z" fill="#A2D855"/>
<path fill-rule="evenodd" clip-rule="evenodd" d="M126.641 43.0727C126.641 43.0727 129.451 45.9648 136.06 44.6775C142.669 43.3903 149.161 37.9852 157.289 44.1203C165.417 50.2555 163.247 70.4942 149.84 68.6108C133.974 66.3874 125.323 43.981 126.641 43.0727Z" fill="#A2D855"/>
<path d="M119.128 9.58888L119.05 10.8371L112.864 10.447L112.641 13.9799L118.41 14.3421L118.333 15.5903L112.564 15.2281L112.319 19.073L118.555 19.4687L118.477 20.7169L110.767 20.2321L111.468 9.11523L119.134 9.60003L119.128 9.58888Z" fill="white"/>
<path d="M146.682 16.9997C148.39 17.1055 149.68 17.6293 150.548 18.5599C151.416 19.4905 151.794 20.8502 151.683 22.6333C151.622 23.5695 151.466 24.3886 151.216 25.0963C150.965 25.804 150.604 26.3891 150.136 26.8571C149.669 27.3252 149.091 27.6651 148.401 27.8825C147.711 28.0998 146.904 28.1778 145.981 28.1221L142.17 27.8825L142.871 16.7656L146.682 17.0052V16.9997ZM146.181 26.8794C146.348 26.8906 146.554 26.8906 146.804 26.8794C147.054 26.8683 147.321 26.8237 147.611 26.7401C147.894 26.6565 148.184 26.5339 148.467 26.3668C148.751 26.1996 149.018 25.96 149.252 25.6479C149.491 25.3415 149.697 24.9514 149.864 24.4778C150.031 24.0041 150.142 23.4246 150.187 22.7392C150.231 22.0761 150.203 21.4743 150.103 20.9449C150.009 20.4099 149.825 19.953 149.552 19.5629C149.28 19.1785 148.918 18.872 148.462 18.6491C148.006 18.4262 147.438 18.2924 146.754 18.2534L144.267 18.0974L143.722 26.7234L146.181 26.8794Z" fill="white"/>
<path d="M149.902 50.5907C149.434 50.2007 148.811 49.9833 148.049 49.9332C147.738 49.9109 147.432 49.9276 147.126 49.9666C146.82 50.0112 146.547 50.0948 146.308 50.2285C146.063 50.3567 145.868 50.5406 145.713 50.7746C145.557 51.0087 145.468 51.3096 145.446 51.6718C145.423 52.0117 145.507 52.3014 145.696 52.5243C145.885 52.7472 146.141 52.9423 146.469 53.0983C146.797 53.2543 147.17 53.388 147.593 53.5051C148.01 53.6221 148.439 53.7447 148.873 53.8728C149.306 54.0066 149.729 54.1515 150.146 54.3186C150.564 54.4858 150.931 54.6975 151.254 54.9594C151.576 55.2213 151.827 55.539 152.005 55.9123C152.183 56.2912 152.255 56.7537 152.222 57.2998C152.183 57.8905 152.021 58.3864 151.726 58.7932C151.437 59.1944 151.076 59.5176 150.642 59.7572C150.213 59.9969 149.735 60.1584 149.212 60.2476C148.689 60.3368 148.177 60.3646 147.671 60.3312C147.048 60.2922 146.464 60.1752 145.924 59.9857C145.379 59.7962 144.906 59.5288 144.505 59.1833C144.105 58.8378 143.799 58.4143 143.587 57.9072C143.376 57.4001 143.293 56.8095 143.332 56.1296L144.728 56.2188C144.7 56.6869 144.761 57.0937 144.923 57.4447C145.084 57.7958 145.301 58.0855 145.585 58.3251C145.868 58.5648 146.202 58.7431 146.586 58.8712C146.975 58.9994 147.376 59.0774 147.788 59.1053C148.121 59.1276 148.455 59.1164 148.795 59.0774C149.134 59.0384 149.446 58.9492 149.724 58.8155C150.002 58.6818 150.235 58.4923 150.414 58.2416C150.592 57.9908 150.697 57.6676 150.725 57.2608C150.753 56.854 150.669 56.5587 150.48 56.308C150.291 56.0572 150.035 55.8455 149.707 55.6727C149.379 55.5 149.006 55.3551 148.589 55.2325C148.172 55.1099 147.743 54.9873 147.309 54.8647C146.875 54.7366 146.447 54.5972 146.035 54.4412C145.624 54.2852 145.251 54.0902 144.923 53.8561C144.6 53.6221 144.344 53.3323 144.166 52.9813C143.982 52.6302 143.91 52.2011 143.943 51.6941C143.977 51.1312 144.122 50.6576 144.377 50.262C144.633 49.8663 144.956 49.5487 145.351 49.3091C145.746 49.0695 146.191 48.8967 146.681 48.7964C147.17 48.6961 147.671 48.6627 148.177 48.6961C148.745 48.7296 149.273 48.8354 149.751 48.997C150.23 49.1642 150.642 49.4038 150.992 49.7159C151.343 50.0279 151.61 50.4124 151.793 50.8693C151.977 51.3263 152.06 51.8557 152.044 52.4742L150.647 52.385C150.614 51.5826 150.363 50.9808 149.896 50.5963L149.902 50.5907Z" fill="white"/>
<path d="M201.748 46.207H164.594V125.875H201.748V46.207Z" fill="#E9E9E9"/>
<path d="M175.331 50.1719H169.537V55.9753H175.331V50.1719Z" fill="white"/>
<path d="M175.331 60.0801H169.537V65.8835H175.331V60.0801Z" fill="white"/>
<path d="M184.513 50.1719H178.719V55.9753H184.513V50.1719Z" fill="white"/>
<path d="M184.513 60.0801H178.719V65.8835H184.513V60.0801Z" fill="white"/>
<path d="M175.331 69.9824H169.537V75.7858H175.331V69.9824Z" fill="white"/>
<path d="M184.513 69.9824H178.719V75.7858H184.513V69.9824Z" fill="white"/>
<path d="M201.748 125.876V63.8984L164.594 125.876H201.748Z" fill="#E6E4E4"/>
<path d="M175.471 80.0293H169.677V85.8327H175.471V80.0293Z" fill="white"/>
<path d="M184.648 80.0293H178.854V85.8327H184.648V80.0293Z" fill="white"/>
<path d="M175.331 90.0781H169.537V95.8815H175.331V90.0781Z" fill="white"/>
<path d="M184.513 90.0781H178.719V95.8815H184.513V90.0781Z" fill="white"/>
<path d="M175.044 100.121H169.25V105.924H175.044V100.121Z" fill="white"/>
<path d="M184.229 100.121H178.436V105.924H184.229V100.121Z" fill="white"/>
<path d="M175.044 110.029H169.25V115.833H175.044V110.029Z" fill="white"/>
<path d="M184.229 110.029H178.436V115.833H184.229V110.029Z" fill="white"/>
<path d="M222.534 81.3027H201.661V126.062H222.534V81.3027Z" fill="#E9E9E9"/>
<path d="M207.697 83.5254H204.444V86.783H207.697V83.5254Z" fill="white"/>
<path d="M207.697 89.0957H204.444V92.3533H207.697V89.0957Z" fill="white"/>
<path d="M212.855 83.5254H209.603V86.783H212.855V83.5254Z" fill="white"/>
<path d="M212.855 89.0957H209.603V92.3533H212.855V89.0957Z" fill="white"/>
<path d="M207.697 94.6602H204.444V97.9177H207.697V94.6602Z" fill="white"/>
<path d="M212.855 94.6602H209.603V97.9177H212.855V94.6602Z" fill="white"/>
<path d="M222.539 126.062V91.2422L201.661 126.062H222.539Z" fill="#E5E4E4"/>
<path d="M207.776 100.303H204.523V103.56H207.776V100.303Z" fill="white"/>
<path d="M212.935 100.303H209.683V103.56H212.935V100.303Z" fill="white"/>
<path d="M207.697 105.951H204.444V109.209H207.697V105.951Z" fill="white"/>
<path d="M212.855 105.951H209.603V109.209H212.855V105.951Z" fill="white"/>
<path d="M207.533 111.592H204.28V114.849H207.533V111.592Z" fill="white"/>
<path d="M212.692 111.592H209.439V114.849H212.692V111.592Z" fill="white"/>
<path d="M207.533 117.156H204.28V120.414H207.533V117.156Z" fill="white"/>
<path d="M212.692 117.156H209.439V120.414H212.692V117.156Z" fill="white"/>
<path d="M205.359 70.4358L214.81 79.6682C216.195 81.0554 216.941 82.8998 216.884 84.8637L216.195 100.907L215.847 127.337H225.178L223.622 89.8826L223.275 84.9209C223.104 82.266 224.084 79.6682 226.039 77.8238L233.758 70.4358L234.795 69.3967H229.956L222.984 75.6313C222.87 75.7456 222.694 75.6313 222.694 75.517L222.751 66.0508H217.854L217.911 75.9171C217.911 76.0885 217.74 76.1457 217.621 76.0314L207.942 68.3576L203.735 68.4719L205.349 70.4358H205.359Z" fill="#AAAAAA"/>
<path d="M242.984 69.5675C237.74 70.8352 213.485 69.5675 196.545 69.3389C195.678 69.3389 194.817 69.2246 193.951 69.0479C188.365 67.7802 185.138 64.3148 183.178 59.7012C182.488 58.0854 182.14 56.3553 182.197 54.5628C182.312 50.5831 183.868 47.232 187.037 44.6966C184.905 41.1169 183.811 37.0228 184.734 32.2325C185.081 30.5024 185.771 28.8866 186.638 27.4423C189.174 23.2859 192.286 20.0543 196.721 18.8437C199.833 10.1308 205.881 6.32254 213.024 4.13003C219.881 3.03378 224.835 5.16913 228.466 9.84509C240.909 8.28644 247.538 13.3053 246.615 26.9851C253.934 31.4272 256.641 37.1423 256.584 43.5484C260.677 46.5514 262.347 50.183 262.171 54.2823C261.88 60.0545 257.964 65.0734 252.549 67.0944C249.613 68.1907 246.615 68.8245 245.002 69.0583C244.312 69.2869 243.617 69.4064 242.984 69.5779V69.5675Z" fill="#3DBCC8"/>
<path d="M243.267 71.7661C238.137 72.9766 214.23 71.7661 197.58 71.5375C196.714 71.5375 195.853 71.4232 195.044 71.2465C189.571 69.9788 186.345 66.6277 184.441 62.0713C183.752 60.4555 183.404 58.7254 183.461 57.0524C183.575 53.1298 185.074 49.841 188.186 47.3576C186.055 43.835 185.017 39.7981 185.941 35.065C186.288 33.3921 186.921 31.7763 187.844 30.3319C190.324 26.2327 193.431 23.0582 197.757 21.9048C200.812 13.3634 206.803 9.55507 213.774 7.41972C220.517 6.32346 225.414 8.45882 228.925 13.0153C241.198 11.4566 247.707 16.4183 246.784 29.8643C253.984 34.2493 256.696 39.8501 256.634 46.1938C260.67 49.1345 262.34 52.7142 262.107 56.7563C261.816 62.4713 257.957 67.3759 252.656 69.3346C249.777 70.4309 246.836 71.0076 245.223 71.2985C244.59 71.4128 243.957 71.5894 243.262 71.7609L243.267 71.7661Z" fill="#65C8D0"/>
</svg>
