<svg width="265" height="134" viewBox="0 0 265 134" fill="none" xmlns="http://www.w3.org/2000/svg">
<path d="M132.134 133.958C205.109 133.958 264.267 128.801 264.267 122.441C264.267 116.08 205.109 110.924 132.134 110.924C59.1583 110.924 0 116.08 0 122.441C0 128.801 59.1583 133.958 132.134 133.958Z" fill="#F3F3F3"/>
<g clip-path="url(#clip0_14673_34679)">
<path d="M238.92 115.785L45 116V109.481L238.92 109.271V115.785Z" fill="#EACE03"/>
<path d="M238.957 109.481H45.1611L60.2665 104.415L245 104.051L238.957 109.481Z" fill="#C6AA05"/>
<path d="M244.687 109.814L238.92 115.786V109.465L245 104.051L244.687 109.814Z" fill="#B79A08"/>
<path d="M230.982 22H211.504V60.3634H230.982V22Z" fill="#232323"/>
<path opacity="0.54" d="M221.245 33.8688C223.755 33.8688 225.79 31.8551 225.79 29.3709C225.79 26.8868 223.755 24.873 221.245 24.873C218.735 24.873 216.7 26.8868 216.7 29.3709C216.7 31.8551 218.735 33.8688 221.245 33.8688Z" fill="#CE1B0D"/>
<path opacity="0.54" d="M221.245 45.7106C223.755 45.7106 225.79 43.6968 225.79 41.2127C225.79 38.7286 223.755 36.7148 221.245 36.7148C218.735 36.7148 216.7 38.7286 216.7 41.2127C216.7 43.6968 218.735 45.7106 221.245 45.7106Z" fill="#E56D0A"/>
<path d="M221.245 57.4899C223.755 57.4899 225.79 55.4761 225.79 52.992C225.79 50.5079 223.755 48.4941 221.245 48.4941C218.735 48.4941 216.7 50.5079 216.7 52.992C216.7 55.4761 218.735 57.4899 221.245 57.4899Z" fill="#00A300"/>
<path d="M222.98 60.0957H219.355V115.861H222.98V60.0957Z" fill="#232323"/>
<path d="M149.786 98.5938H148.467V104.432H149.786V98.5938Z" fill="#754C24"/>
<path d="M152.883 99.2633C152.711 99.4348 148.763 100.287 146.534 99.2633C143.874 97.982 146.534 89.0988 146.534 89.0988C146.534 89.0988 149.367 80.7303 150.05 80.044C150.734 79.3632 151.337 84.3168 152.366 86.9651C153.395 89.6135 152.883 93.1142 153.395 95.0817C153.912 97.0438 153.998 97.3869 153.567 98.3251C153.308 99.0059 152.883 99.2633 152.883 99.2633Z" fill="#8FC140"/>
<path d="M82.4746 98.6035H81.1553V104.442H82.4746V98.6035Z" fill="#754C24"/>
<path d="M85.5715 99.273C85.3992 99.4446 81.4518 100.297 79.2224 99.273C76.5621 97.9918 79.2224 89.1086 79.2224 89.1086C79.2224 89.1086 82.055 80.74 82.7389 80.0538C83.4228 79.373 84.026 84.3265 85.0545 86.9749C86.0831 89.6232 85.5715 93.124 86.0831 95.0915C86.6001 97.0536 86.6862 97.3967 86.2554 98.3349C85.9969 99.0157 85.5715 99.273 85.5715 99.273Z" fill="#8FC140"/>
<path d="M194.435 98.6074H193.115V104.446H194.435V98.6074Z" fill="#754C24"/>
<path d="M197.531 99.2828C197.359 99.4544 193.412 100.307 191.182 99.2828C188.522 98.0015 191.182 89.1183 191.182 89.1183C191.182 89.1183 194.015 80.7498 194.699 80.0636C195.383 79.3827 195.986 84.3363 197.014 86.9846C198.043 89.633 197.531 93.1337 198.043 95.1012C198.56 97.0634 198.646 97.4064 198.215 98.3446C197.957 99.0255 197.531 99.2828 197.531 99.2828Z" fill="#8FC140"/>
<path d="M172.418 98.4316H171.099V104.27H172.418V98.4316Z" fill="#754C24"/>
<path d="M175.515 99.1012C175.343 99.2727 171.395 100.125 169.166 99.1012C166.505 97.8199 169.166 88.9367 169.166 88.9367C169.166 88.9367 171.998 80.5681 172.682 79.8819C173.366 79.2011 173.969 84.1547 174.998 86.803C176.026 89.4513 175.515 92.9521 176.026 94.9196C176.543 96.8817 176.63 97.2248 176.199 98.163C175.94 98.8438 175.515 99.1012 175.515 99.1012Z" fill="#8FC140"/>
</g>
<path d="M71.6525 12.793L75.4152 13.424C73.9793 15.7641 73.4448 18.0989 74.5191 19.8974L69.5039 19.0876C70.9398 17.8308 72.0141 15.0437 71.6525 12.793Z" fill="#EDBD98"/>
<path fill-rule="evenodd" clip-rule="evenodd" d="M116.989 97.6663C118.241 98.3867 118.692 100.006 117.974 101.263L108.656 117.896C108.211 118.706 107.315 119.243 106.324 119.243H62.1571C60.7212 119.243 59.4688 118.075 59.4688 116.545C59.4688 115.015 60.6321 113.847 62.1571 113.847H104.715L113.226 98.5602C114.122 97.3928 115.736 96.9406 116.989 97.661V97.6663Z" fill="#3DBCC8"/>
<path fill-rule="evenodd" clip-rule="evenodd" d="M49.7893 121.31C52.0271 121.31 53.7302 119.511 53.7302 117.355C53.7302 115.199 51.938 113.401 49.7893 113.401C47.6407 113.401 45.8485 115.199 45.8485 117.355C45.8485 119.511 47.6407 121.31 49.7893 121.31ZM49.7893 126.616C54.8989 126.616 59.107 122.482 59.107 117.266C59.107 112.049 54.988 107.916 49.7893 107.916C44.5907 107.916 40.4717 112.049 40.4717 117.266C40.4717 122.482 44.6851 126.616 49.7893 126.616Z" fill="#20505A"/>
<path fill-rule="evenodd" clip-rule="evenodd" d="M125.683 121.31C127.921 121.31 129.624 119.511 129.624 117.355C129.624 115.199 127.832 113.401 125.683 113.401C123.534 113.401 121.742 115.199 121.742 117.355C121.653 119.511 123.445 121.31 125.683 121.31ZM125.683 126.616C130.792 126.616 135.001 122.482 135.001 117.266C135.001 112.049 130.882 107.916 125.683 107.916C120.484 107.916 116.365 112.049 116.365 117.266C116.365 122.482 120.484 126.616 125.683 126.616Z" fill="#20505A"/>
<path fill-rule="evenodd" clip-rule="evenodd" d="M106.152 65.2106C107.493 64.5795 109.018 65.2106 109.647 66.4674L110.9 69.1651C111.528 70.5113 110.9 72.0415 109.647 72.6726C108.305 73.3036 106.78 72.6726 106.152 71.4158L104.899 68.7181C104.27 67.3719 104.81 65.8416 106.152 65.2106Z" fill="#20505A"/>
<path fill-rule="evenodd" clip-rule="evenodd" d="M110.9 91.1934L116.544 105.581C116.811 106.391 117.618 107.469 118.336 108.011C119.232 108.642 120.306 108.82 121.381 108.189C122.633 107.201 122.277 104.503 121.292 102.347L120.128 99.6493L110.989 77.1738L104.391 60.1568L103.285 57.3066L99.166 59.4627L110.905 91.1986L110.9 91.1934Z" fill="#65C8D0"/>
<path fill-rule="evenodd" clip-rule="evenodd" d="M99.1604 59.4583L94.3234 46.2433C94.5907 46.2433 92.6203 46.1539 91.4569 46.6903C90.828 46.9585 89.2192 47.8577 89.0357 47.6789C88.2287 47.3213 87.5998 46.6903 87.5107 45.6123C87.5107 44.6236 88.1396 44.082 89.0357 43.9032L94.7689 43.4562L94.5907 42.3782L90.2882 42.7358L90.11 42.0153L96.0214 41.5684L96.5611 43.9085C97.6354 43.9979 98.5316 44.4501 99.0714 45.6175L103.285 57.3075L99.1657 59.4635L99.1604 59.4583Z" fill="#1A1A1A"/>
<path d="M66.4586 51.3654C63.9484 58.5592 62.785 65.8424 62.9632 73.3045C53.9128 74.2931 44.0711 74.8821 38.0654 81.9865L50.213 102.106C57.0362 93.9604 63.5292 87.1978 69.3828 83.0487C69.9226 82.6911 71.4424 81.103 71.7987 80.5614C72.9621 79.0311 74.9116 77.1853 75.8077 75.1187C76.075 74.4876 73.7115 72.584 74.157 71.953L75.2313 70.6068L71.4686 55.1411L67.2552 49.9245L66.7364 48.4258L66.7154 49.7457C66.7154 50.2873 66.6263 50.8237 66.4481 51.3654H66.4586Z" fill="#51BABC"/>
<path d="M68.8752 42.463C69.0534 41.7426 76.8513 40.6646 78.9108 42.463C80.7922 44.0827 84.0203 52.6227 84.0203 52.6227C85.8126 56.6667 86.5044 62.3039 87.4319 68.6984C87.6992 72.6477 88.2599 74.8511 89.067 78.3323C90.985 85.6576 87.3428 91.7681 87.2537 98.2626L86.8135 105.898L62.749 103.411C62.9272 94.0609 70.9347 85.8048 74.3411 77.8012C72.727 70.7861 71.2963 64.1339 70.4002 58.1128C70.3111 57.5711 70.1329 57.1242 69.9548 56.5825L67.5336 51.9076C66.6375 50.1091 66.4593 47.9531 67.0882 46.0652C67.4445 44.8978 67.9843 43.7251 68.8804 42.4683L68.8752 42.463Z" fill="#65C8D0"/>
<g opacity="0.96">
<path d="M108.928 78.8782C108.75 78.9676 108.572 79.057 108.483 79.2358L108.037 78.0684L107.408 78.3366L108.304 80.582C108.572 81.213 109.29 81.4812 109.918 81.213C110.547 80.9448 110.904 80.2244 110.636 79.5934C110.369 78.9623 109.651 78.6941 108.933 78.8729L108.928 78.8782ZM109.646 80.5873C109.379 80.6767 109.017 80.5873 108.928 80.3191C108.839 80.0509 108.928 79.688 109.195 79.5986C109.462 79.5092 109.824 79.5986 109.913 79.8668C110.091 80.135 109.913 80.4979 109.646 80.5873Z" fill="white"/>
<path d="M111.706 85.7988C111.077 86.067 110.81 86.7874 110.988 87.4184L111.433 88.5859L112.062 88.3177L111.617 87.1502C111.528 86.8821 111.617 86.5192 111.884 86.4298C112.151 86.3404 112.513 86.4298 112.602 86.698L113.047 87.8654L113.676 87.5972L113.231 86.4298C113.053 85.7988 112.335 85.5306 111.706 85.7988Z" fill="white"/>
<path d="M110.631 82.9222C110.453 83.0116 110.364 83.1904 110.453 83.3692L111.171 85.3464L111.889 85.0782L111.082 83.1904C110.993 82.9222 110.815 82.8328 110.631 82.9222Z" fill="white"/>
<path d="M110.27 82.6498C110.516 82.6498 110.715 82.4497 110.715 82.2028C110.715 81.956 110.516 81.7559 110.27 81.7559C110.024 81.7559 109.824 81.956 109.824 82.2028C109.824 82.4497 110.024 82.6498 110.27 82.6498Z" fill="white"/>
<path d="M104.447 67.8196C104.269 67.909 104.091 67.9984 104.002 68.1772L103.557 67.0098L102.928 67.278L103.824 69.5234C104.091 70.1544 104.809 70.4226 105.438 70.1544C106.067 69.8863 106.423 69.1658 106.156 68.5348C105.889 67.9037 105.082 67.5461 104.453 67.8143L104.447 67.8196ZM105.165 69.5287C104.898 69.6181 104.537 69.5287 104.447 69.2605C104.358 68.9923 104.447 68.6294 104.715 68.54C104.982 68.4506 105.344 68.54 105.433 68.8082C105.611 69.0764 105.433 69.3499 105.165 69.5287Z" fill="white"/>
<path d="M107.225 74.7402C106.596 75.0084 106.329 75.7288 106.507 76.3598L106.953 77.5273L107.582 77.2591L107.136 76.0917C107.047 75.8235 107.136 75.4606 107.403 75.3712C107.671 75.2818 108.032 75.3712 108.121 75.6394L108.567 76.8068L109.196 76.5386L108.75 75.3712C108.572 74.7402 107.854 74.472 107.225 74.7402Z" fill="white"/>
<path d="M106.062 71.8636C105.884 71.953 105.794 72.1318 105.884 72.3106L106.602 74.2878L107.319 74.0196L106.512 72.1318C106.512 71.8636 106.245 71.7742 106.062 71.8636Z" fill="white"/>
<path d="M105.789 71.5893C106.035 71.5893 106.235 71.3892 106.235 71.1423C106.235 70.8954 106.035 70.6953 105.789 70.6953C105.543 70.6953 105.344 70.8954 105.344 71.1423C105.344 71.3892 105.543 71.5893 105.789 71.5893Z" fill="white"/>
</g>
<path d="M76.3896 104.814V110.031L80.5087 108.233L80.0633 107.602C79.8851 107.333 79.796 106.97 79.796 106.613L79.9218 105.172L76.3896 104.814Z" fill="#FFD2C1"/>
<path d="M42.6248 89.4857C41.3723 90.7425 39.4019 91.5524 37.248 92.1834C38.3224 93.4402 39.2185 94.6129 40.5653 95.1493C41.8178 94.4289 43.1436 93.3245 44.218 92.1519L42.6248 89.4805V89.4857Z" fill="#FFD2C1"/>
<path d="M40.094 91.5685C40.6075 92.3836 38.4327 93.5931 39.1507 94.2241C39.3812 94.4029 39.811 94.6974 40.2459 94.6185C40.7857 94.4397 40.791 94.5975 41.205 94.4713C41.5613 94.3451 42.2373 94.1558 42.1483 94.4292C42.0592 95.239 41.1001 96.9165 41.8391 99.0463L42.5413 101.481C42.578 101.597 42.6723 101.965 42.7195 102.091C43.4951 104.421 42.447 105.288 41.1054 106.188C40.8381 106.366 40.4765 106.277 40.2983 106.009L35.7496 98.2785L33.2655 94.2925C33.1765 94.1137 33.1765 93.7508 33.3546 93.572C34.2508 92.7622 37.3846 90.9059 38.7314 90.9953C39.3708 90.99 39.9158 91.295 40.094 91.5632V91.5685Z" fill="#101011"/>
<path d="M41.9023 99.2462C41.9495 99.3881 41.5302 98.1997 41.5564 97.3215C41.5826 96.4538 41.1162 96.5485 40.8227 96.6379C40.3721 96.7746 40.0367 97.9262 40.2777 98.5836C40.545 99.3145 40.9904 100.466 41.9495 99.8246C42.1067 99.73 41.9966 99.488 41.9075 99.2514L41.9023 99.2462Z" fill="#C6C6C6"/>
<path d="M76.4893 27.9856L78.6379 31.8507C78.9052 32.3923 79.3559 32.9287 79.8013 33.2916L89.5697 40.6642C90.5549 41.3846 91.1838 42.3733 91.8074 43.5407C91.9856 43.8983 92.0747 44.2611 92.0747 44.6187C92.0747 45.1603 91.8965 45.6073 91.5349 46.3278C91.0894 47.1376 90.906 47.227 89.4753 46.8694C89.3863 47.0482 90.1933 46.149 90.3715 45.5232C90.6387 44.8028 90.1933 43.5459 89.6535 43.0043C88.4901 42.0157 87.3215 41.1164 86.1581 40.4854C85.8908 40.3066 85.5292 40.2172 85.262 40.1278C83.2915 39.7702 81.3211 39.1392 79.3506 38.24C78.9943 38.0612 78.6327 37.8824 78.3654 37.5195C76.2168 35.5423 74.5136 33.2022 72.4541 30.1469L76.395 27.4492L76.4841 27.9909L76.4893 27.9856Z" fill="#E5C6B1"/>
<path d="M76.4898 28.0812L78.8218 32.5773C79.0891 33.1189 79.5397 33.6553 79.9852 34.0182L89.7535 41.3908C90.7388 42.1112 91.4567 43.1893 91.9912 44.3567C92.1694 44.7143 92.2585 45.2559 92.1694 45.7029C92.117 45.8764 92.1223 45.929 92.0803 46.0605C91.9022 46.7809 91.4515 47.3173 90.8278 47.5907C89.8426 48.0377 88.7683 47.9483 88.4067 47.3225C88.9465 47.5907 89.3919 47.0544 89.6592 46.5127C89.9265 46.0657 90.1047 45.5241 90.1047 44.9824C90.1047 44.5355 90.1047 43.9938 89.7483 43.815C88.4958 43.0052 87.4163 41.9272 86.2529 41.2961C85.9856 41.1173 85.7131 41.0279 85.3567 40.9385C83.3863 40.581 81.4159 39.9499 79.4454 39.0507C79.0891 38.8719 78.7275 38.6931 78.4602 38.4197C76.3116 36.4424 74.1577 33.6553 72.2764 30.5054L76.3954 27.6289L76.4845 28.0812H76.4898Z" fill="#F4D2BA"/>
<path d="M76.8507 3.17578C76.8507 3.17578 78.6429 5.78407 78.1031 7.49313C78.0141 7.76132 77.925 7.94012 77.925 8.12417C77.6577 9.1128 78.1031 9.1128 78.6429 9.65444C79.0884 10.1014 78.6429 10.4643 78.3756 10.6431C78.1975 10.7325 78.1084 10.9113 78.1084 11.1847V11.6317C78.1084 11.7211 78.4647 12.2627 77.6629 12.2627C76.8611 12.2627 75.9598 11.8157 75.9598 11.8157C75.8235 11.7421 77.4848 12.2627 77.8411 12.4468C77.8411 12.4468 78.1084 12.6256 78.0193 12.8044C77.9302 12.9832 77.752 13.162 77.6629 13.346C77.5738 13.5301 77.4848 14.2452 77.3066 14.5134C77.1284 14.7816 75.4252 15.1445 74.44 14.7816C73.7221 14.5134 72.6477 14.1506 72.2023 14.0612C72.0241 14.0612 71.8459 13.6142 71.7569 13.5195C71.5787 13.3408 71.0389 13.162 70.5935 12.7991C69.7864 12.1681 70.5044 11.8999 70.5935 11.5423C70.6825 11.1847 70.8607 10.5537 70.7716 10.2855C70.6825 10.1067 69.9646 9.11806 69.8755 8.75521C69.6973 8.12417 70.1428 7.13555 70.5044 6.86735C70.8607 6.50977 71.4005 6.42037 71.7569 6.68856C72.0241 6.95675 72.653 7.409 72.8312 7.04615C73.0093 6.6833 74.9798 3.99087 75.3414 3.81208C75.6977 3.63328 76.8664 3.18104 76.8664 3.18104L76.8507 3.17578Z" fill="#F4D2BA"/>
<path fill-rule="evenodd" clip-rule="evenodd" d="M90.0942 42.0425L90.9012 41.9531L91.3414 42.6473L90.0942 42.763L89.916 42.0425H90.0942Z" fill="#1A1A1A"/>
<path d="M76.2958 106.719C77.2548 106.682 77.1972 109.18 78.0985 108.88C78.3711 108.769 78.8375 108.549 78.9894 108.133C79.1047 107.576 79.2462 107.649 79.3458 107.229C79.4139 106.855 79.5973 106.177 79.786 106.387C80.4358 106.876 81.3948 108.549 83.5959 108.99L86.0432 109.616C86.1585 109.642 86.5253 109.748 86.6563 109.774C89.0513 110.284 89.2661 111.625 89.3604 113.245C89.3814 113.571 89.1194 113.834 88.7997 113.849L79.8541 113.876L75.1848 114.007C74.9857 113.991 74.6765 113.812 74.6136 113.565C74.3725 112.382 74.362 108.727 75.1167 107.613C75.4364 107.055 75.9761 106.74 76.2958 106.719Z" fill="#101011"/>
<path d="M83.8058 109.037C83.9525 109.063 82.721 108.832 81.9769 108.364C81.2432 107.907 81.0912 108.354 81.0178 108.653C80.9078 109.111 81.7253 109.989 82.4171 110.11C83.1822 110.247 84.398 110.446 84.3246 109.29C84.3246 109.105 84.0573 109.074 83.8058 109.037Z" fill="#C6C6C6"/>
<path fill-rule="evenodd" clip-rule="evenodd" d="M104.752 58.3971C104.422 58.2867 103.751 58.5391 103.751 58.5391L105.245 62.3832L105.811 62.157C105.811 62.157 105.753 58.7389 104.752 58.3971Z" fill="#1A1A1A"/>
<path d="M78.643 31.8567C78.643 31.8567 76.6831 27.776 76.463 26.7085C76.2429 25.6409 75.3048 21.0922 74.917 20.4927C74.5292 19.8932 74.4087 19.7828 74.4087 19.7828C74.4087 19.7828 73.3606 19.6829 72.4959 19.4936C71.6312 19.3043 69.7289 19.0939 69.4773 18.9835C69.2258 18.8731 67.9785 21.8126 67.2658 23.5112C66.1024 26.272 65.6675 28.9329 65.7618 29.8163C65.8771 30.8733 65.0805 34.1337 65.1434 35.3642C65.2115 36.8103 63.0786 48.7106 63.6079 49.3732C64.1372 50.0358 67.161 51.3873 71.2748 51.5608C75.3887 51.7396 82.8931 49.3101 80.624 42.5528C80.451 42.0322 80.2099 39.3555 80.2099 39.3555C80.2099 39.3555 78.9522 38.9085 78.4648 38.4142C77.9775 37.9199 75.593 35.5219 75.0899 34.7226C74.5869 33.9233 72.5326 30.9837 72.4068 30.7418C72.281 30.4999 76.4001 27.6235 76.4001 27.6235L76.4892 27.981L77.8622 30.4526L78.6378 31.8462L78.643 31.8567Z" fill="#1A1A1A"/>
<path d="M76.3993 27.4492L72.2803 30.5045L72.3379 30.8253L73.124 31.8349L75.4141 35.2531L77.6833 37.6931L78.6318 38.6238L79.9577 39.3338L82.9343 40.3434L84.04 40.6537L85.2873 40.9114C85.2873 40.9114 85.8952 41.0113 86.4035 41.3689C86.9118 41.7265 87.8971 42.4206 87.8971 42.4206C87.8971 42.4206 87.7189 41.5529 88.2534 41.5424C88.7827 41.5319 88.9242 41.1427 88.9399 41.0008C88.9504 40.8851 88.8404 40.68 88.8194 40.6747L87.7084 39.8386L86.566 38.9762L85.5388 38.1926L84.3545 37.3144L82.1744 35.658L80.8328 34.6588L79.8057 33.8543C79.8057 33.8543 79.072 33.0655 78.8991 32.7131C78.7261 32.3608 77.8824 30.7201 77.8824 30.7201L76.7767 28.5851L76.4151 27.4545L76.3993 27.4492Z" fill="#1A1A1A"/>
<path d="M76.7718 28.6695L76.6094 28.2383C76.8085 28.4539 77.516 29.6897 78.0977 30.673L78.8261 32.1823L79.1353 32.6187L79.5965 33.113L80.676 33.9439L82.0071 34.9483L83.6264 36.1631L84.9261 37.157L85.969 37.9352L87.1271 38.8187L88.6312 39.944L89.6793 40.7381C89.6793 40.7381 89.3543 40.5751 89.2024 40.6697C89.0504 40.7644 88.8093 40.6697 88.8093 40.6697L87.038 39.3393L84.5331 37.4514L82.4368 35.8475L80.9695 34.7695L79.6698 33.7441C79.6698 33.7441 78.7947 32.6924 78.737 32.5399C78.6794 32.3874 76.7666 28.6695 76.7666 28.6695H76.7718Z" fill="#2D2D2D"/>
<path d="M74.9888 18.7828C75.104 19.2035 75.4656 20.4866 74.9049 20.7232C74.58 20.8599 74.0664 21.4331 72.9135 21.1649C71.7658 20.8967 71.2889 20.3656 69.6382 20.8704C67.9874 21.3753 66.7716 25.2088 66.672 25.456C66.4519 26.0292 66.0484 28.0906 66.0589 28.4955C66.0746 29.1581 65.3829 34.9689 65.2466 35.0478C65.2466 35.0478 61.1328 36.3467 61.5311 30.9618C61.7145 28.4955 63.0351 24.6935 64.9846 22.4691C65.7287 21.6172 66.0903 20.4971 66.8607 19.6715C67.5629 18.9195 68.4276 18.0308 69.0145 17.547C70.4609 16.369 70.1046 18.1991 72.5257 18.1097C74.9416 18.0203 74.9835 18.7722 74.9835 18.7722L74.9888 18.7828Z" fill="#A8938A"/>
<path d="M77.1332 3.63305C77.1332 3.63305 74.8483 4.53753 73.4753 6.71461C72.1022 8.89169 71.6096 11.0109 71.4839 11.7314C71.3581 12.4518 71.4943 13.2932 72.0394 13.7191C72.4062 14.0084 73.2918 14.3975 73.8683 14.6078C74.2247 14.7393 74.5863 14.8287 74.9583 14.8813C75.2046 14.9181 75.4667 14.9444 75.6029 14.9339C75.8387 14.9181 74.5234 16.7849 74.7906 17.2845C74.9059 17.4948 75.8492 21.1181 74.8483 20.8972C74.3347 20.7815 70.0794 20.1189 69.0365 21.0181C68.2924 21.6597 68.24 18.7674 68.6225 18.0891C69.0051 17.4107 70.1999 15.9751 69.9641 14.9812C69.7492 14.0872 69.7178 13.5298 68.8898 13.3247C68.0618 13.1196 65.7664 12.4939 65.1743 11.2528C64.5821 10.0118 64.21 4.84779 67.9832 1.38234C67.9832 1.38234 69.8017 -0.32146 72.5162 0.125526C75.2308 0.567252 76.8764 3.10718 76.8764 3.10718C76.9864 3.31227 77.1227 3.52261 77.1227 3.63305H77.1332Z" fill="#A8938A"/>
<rect x="106.943" y="0.916016" width="2.60761" height="13.038" rx="1.3038" transform="rotate(3.97469 106.943 0.916016)" fill="#1A1A1A"/>
<rect x="133.243" y="32.1172" width="2.60761" height="13.038" rx="1.3038" transform="rotate(101.133 133.243 32.1172)" fill="#1A1A1A"/>
<rect x="129.176" y="7.86914" width="2.60761" height="18.2533" rx="1.3038" transform="rotate(48.0463 129.176 7.86914)" fill="#1A1A1A"/>
<path d="M111.958 31.8515C107.681 29.5666 107.508 25.6468 107.113 24.6389C106.187 22.2745 103.643 21.03 101.246 21.661L101.043 21.1436C100.933 20.8606 100.614 20.7211 100.331 20.832C100.047 20.9428 99.9082 21.2619 100.019 21.5447L100.22 22.0568C97.6089 23.4011 96.7989 26.7761 98.3406 29.1196C98.3722 29.2001 100.724 32.5272 99.2785 36.8103C99.1272 37.2535 99.5614 37.6683 99.9968 37.4978C101.263 36.9991 111.444 33.0209 111.903 32.8416C112.338 32.6712 112.373 32.0668 111.958 31.8512L111.958 31.8515Z" fill="#65C8D0"/>
<path d="M104.613 36.2986C104.947 37.1505 105.907 37.5702 106.759 37.2366C107.611 36.9031 108.03 35.9431 107.697 35.0913L107.692 35.0797L104.607 36.2832L104.613 36.2986Z" fill="#65C8D0"/>
<defs>
<clipPath id="clip0_14673_34679">
<rect width="200" height="94" fill="white" transform="translate(45 22)"/>
</clipPath>
</defs>
</svg>
