<svg width="265" height="149" viewBox="0 0 265 149" fill="none" xmlns="http://www.w3.org/2000/svg">
<path d="M150.905 85.0678L157.51 94.7834C159.08 97.5229 159.398 102.149 159.633 103.636L159.868 106.615C160.024 107.79 159.946 108.808 159.946 109.593L159.868 129.882H164.271L163.248 99.3319C163.248 98.625 163.326 96.7484 163.405 95.6515C164.427 85.78 167.333 85.9359 170.087 85.0782L170.797 84.3713H167.495L162.544 88.7586V82.0996H159.242V88.9925L152.481 83.6643L149.653 83.7423L150.911 85.073L150.905 85.0678Z" fill="#754C24"/>
<path d="M174.408 84.4396C170.005 88.9049 153.415 95.408 142.883 84.2836C142.492 83.8938 141.704 84.2057 141.151 84.0497C137.379 83.1868 135.178 80.8372 133.842 77.7806C133.373 76.6838 133.133 75.5089 133.133 74.3341C133.211 71.6726 134.234 69.401 136.435 67.6751C134.943 65.2475 134.234 62.5028 134.865 59.2955C135.1 58.1207 135.574 57.0238 136.2 56.083C137.932 53.2655 139.189 50.3648 142.173 49.5799C143.665 42.3751 147.046 40.5713 153.494 42.2139C157.584 38.7675 163.004 39.3133 164.579 44.2517C172.754 41.98 176.447 46.4453 176.844 55.8438C184.074 57.8816 185.019 62.113 183.605 67.0461C186.354 69.0839 187.533 71.5115 187.376 74.3289C187.22 78.2432 184.549 81.6117 180.85 82.9477C178.884 83.6546 176.839 84.1225 175.738 84.2784C175.268 84.2784 174.715 84.1225 174.402 84.4344L174.408 84.4396Z" fill="#A9D661"/>
<path d="M120.635 92.1948L126.06 100.185C127.396 102.456 127.63 106.215 127.792 107.389L128.027 109.817C128.105 110.758 128.105 111.621 128.105 112.245L128.027 128.853H131.642L130.776 103.865C130.776 103.319 130.854 101.749 130.933 100.886C131.799 92.8186 134.157 92.9746 136.358 92.2676L136.906 91.7218H134.235L130.223 95.3242V89.918H127.474V95.5581L121.97 91.1708L119.612 91.2487L120.635 92.1896V92.1948Z" fill="#754C24"/>
<path d="M139.815 91.7276C136.2 95.408 122.678 100.658 114.028 91.5717C113.715 91.2598 113.084 91.4937 112.615 91.4157C109.547 90.7087 107.742 88.8322 106.642 86.2434C106.25 85.3805 106.094 84.3616 106.094 83.426C106.172 81.2323 107.038 79.3505 108.765 78.0197C107.586 76.06 106.955 73.7883 107.507 71.1268C107.664 70.1859 108.055 69.323 108.608 68.4653C110.022 66.1936 111.044 63.7661 113.481 63.1371C114.738 57.263 117.492 55.7711 122.756 57.1071C126.058 54.2896 130.539 54.6795 131.797 58.7497C138.479 56.8679 141.547 60.5535 141.86 68.2262C147.755 69.8688 148.542 73.3205 147.442 77.3908C149.721 79.0334 150.666 81.0711 150.509 83.3428C150.353 86.5553 148.151 89.2948 145.162 90.3917C143.513 91.0207 141.86 91.3326 140.994 91.4885C140.602 91.4885 140.128 91.4105 139.815 91.7224V91.7276Z" fill="#EACE03"/>
<path d="M173.781 65.5657L182.586 78.4886C184.71 82.169 185.101 88.2822 185.414 90.2367L185.727 94.2342C185.883 95.7989 185.805 97.1349 185.883 98.1485L185.805 130.503H191.7L190.365 84.3627C190.286 83.4218 190.443 80.9162 190.599 79.5075C191.935 66.3454 195.868 66.5846 199.483 65.4877L200.428 64.5468H196.025L189.42 70.3429V61.4902H184.939V70.6548L175.977 63.528L172.205 63.6839L173.775 65.5657H173.781Z" fill="#754C24"/>
<path d="M204.991 64.7807C199.175 70.7327 177.004 79.3515 163.012 64.5468C162.464 64.0009 161.442 64.4688 160.654 64.3128C155.625 63.138 152.714 60.0814 150.904 55.9332C150.273 54.4465 149.96 52.8766 150.038 51.3119C150.116 47.7095 151.53 44.7309 154.363 42.4593C152.396 39.2467 151.452 35.5663 152.318 31.257C152.631 29.6923 153.262 28.2784 154.05 26.9476C156.33 23.1892 157.978 19.3477 161.99 18.2509C164.035 8.69642 168.516 6.26362 177.082 8.37932C182.507 3.75805 189.738 4.46502 191.783 11.1188C202.712 8.06223 207.662 14.0974 208.132 26.5525C217.72 29.214 218.983 34.8542 217.172 41.4352C220.866 44.0967 222.363 47.3872 222.201 51.0728C221.967 56.2451 218.43 60.7884 213.552 62.587C210.881 63.6059 208.205 64.1517 206.713 64.3908C206.165 64.5468 205.456 64.3908 204.981 64.7807H204.991Z" fill="#BC8E6F"/>
<path d="M132.5 148.375C205.678 148.375 265 143.008 265 136.388C265 129.767 205.678 124.4 132.5 124.4C59.3223 124.4 0 129.767 0 136.388C0 143.008 59.3223 148.375 132.5 148.375Z" fill="#F3F3F3"/>
<path d="M250.77 61.7685L204.232 57.5371L197.94 126.627L253.838 131.644L259.023 75.4764L250.77 61.7685Z" fill="#65C8D0"/>
<path d="M259.023 75.4774L250.77 61.7695C250.77 61.7695 245.501 72.582 249.278 74.1466C253.05 75.7893 259.028 75.4774 259.028 75.4774H259.023Z" fill="#EFEFEF"/>
<path d="M250.928 78.1384L247.078 81.3509L245.664 79.6251C245.508 79.3912 245.117 79.3912 244.955 79.5471C244.72 79.7031 244.72 80.0929 244.877 80.2541L246.687 82.3698C246.765 82.4477 246.922 82.5257 247.078 82.5257C247.235 82.5257 247.313 82.5257 247.469 82.3698L251.794 78.7674C252.029 78.6114 252.029 78.2215 251.872 78.0604C251.481 77.9824 251.085 77.9044 250.928 78.1384Z" fill="white"/>
<path d="M249.667 91.8513L245.817 95.0638L244.404 93.338C244.247 93.104 243.856 93.104 243.694 93.26C243.459 93.4159 243.459 93.8058 243.616 93.967L245.426 96.0827C245.504 96.1606 245.661 96.2386 245.817 96.2386C245.974 96.2386 246.052 96.2386 246.209 96.0827L250.533 92.4803C250.768 92.3243 250.768 91.9344 250.612 91.7733C250.22 91.6953 249.824 91.6173 249.667 91.8513Z" fill="white"/>
<path d="M248.417 105.558L244.567 108.771L243.154 107.045C242.997 106.811 242.606 106.811 242.444 106.967C242.209 107.123 242.209 107.513 242.366 107.674L244.176 109.79C244.254 109.868 244.411 109.946 244.567 109.946C244.724 109.946 244.802 109.946 244.959 109.79L249.283 106.187C249.518 106.031 249.518 105.641 249.362 105.48C248.97 105.402 248.652 105.324 248.417 105.558Z" fill="white"/>
<path d="M247.152 119.267L243.302 122.48L241.888 120.754C241.732 120.52 241.34 120.52 241.179 120.676C240.944 120.832 240.944 121.222 241.1 121.383L242.91 123.499C242.989 123.577 243.145 123.655 243.302 123.655C243.458 123.655 243.537 123.655 243.693 123.499L248.018 119.896C248.252 119.74 248.252 119.35 248.096 119.189C247.705 119.111 247.386 119.033 247.152 119.267Z" fill="white"/>
<path d="M236.858 79.3182L209.892 76.8906C209.579 76.8906 209.423 76.5787 209.423 76.3448C209.423 76.0329 209.736 75.877 209.971 75.877L236.936 78.3046C237.249 78.3046 237.405 78.6164 237.405 78.8504C237.405 79.1623 237.171 79.3182 236.858 79.3182Z" fill="white"/>
<path d="M235.681 92.4745L208.716 90.0469C208.403 90.0469 208.246 89.735 208.246 89.501C208.246 89.1891 208.559 89.0332 208.794 89.0332L235.759 91.4608C236.072 91.4608 236.229 91.7727 236.229 92.0066C236.229 92.3185 235.994 92.5524 235.681 92.4745Z" fill="white"/>
<path d="M234.415 106.262L207.45 103.834C207.137 103.834 206.98 103.522 206.98 103.288C206.98 102.976 207.293 102.82 207.528 102.82L234.494 105.248C234.807 105.248 234.963 105.56 234.963 105.794C234.963 106.028 234.728 106.262 234.415 106.262Z" fill="white"/>
<path d="M233.158 119.974L206.193 117.547C205.88 117.547 205.724 117.235 205.724 117.001C205.724 116.689 206.037 116.533 206.271 116.533L233.237 118.961C233.55 118.961 233.706 119.273 233.706 119.507C233.706 119.741 233.471 119.974 233.158 119.974Z" fill="white"/>
<path fill-rule="evenodd" clip-rule="evenodd" d="M101.953 107.473C103.3 108.242 103.779 109.966 103.013 111.308L93.0099 129.042C92.5312 129.907 91.5673 130.48 90.5076 130.48H43.0855C41.5471 130.48 40.2002 129.233 40.2002 127.605C40.2002 125.976 41.4513 124.73 43.0855 124.73H88.7777L97.9187 108.433C98.8826 107.187 100.613 106.71 101.959 107.473H101.953Z" fill="#3DBCC8"/>
<path fill-rule="evenodd" clip-rule="evenodd" d="M29.8065 132.682C32.213 132.682 34.0387 130.768 34.0387 128.465C34.0387 126.163 32.1173 124.248 29.8065 124.248C27.4957 124.248 25.5743 126.163 25.5743 128.465C25.5743 130.768 27.4957 132.682 29.8065 132.682ZM29.8065 138.337C35.2898 138.337 39.8092 133.929 39.8092 128.37C39.8092 122.81 35.3855 118.402 29.8065 118.402C24.2274 118.402 19.8037 122.81 19.8037 128.37C19.8037 133.929 24.3231 138.337 29.8065 138.337Z" fill="#20505A"/>
<path fill-rule="evenodd" clip-rule="evenodd" d="M111.281 132.682C113.688 132.682 115.513 130.768 115.513 128.465C115.513 126.163 113.592 124.248 111.281 124.248C108.97 124.248 107.049 126.163 107.049 128.465C106.953 130.768 108.875 132.682 111.281 132.682ZM111.281 138.337C116.764 138.337 121.284 133.929 121.284 128.37C121.284 122.81 116.86 118.402 111.281 118.402C105.702 118.402 101.278 122.81 101.278 128.37C101.278 133.929 105.702 138.337 111.281 138.337Z" fill="#20505A"/>
<path fill-rule="evenodd" clip-rule="evenodd" d="M90.3129 72.8713C91.7556 72.2034 93.3897 72.8713 94.0663 74.2134L95.4132 77.0885C96.0835 78.526 95.4132 80.1544 94.0663 80.8286C92.6237 81.4965 90.9896 80.8286 90.3129 79.4865L88.966 76.6114C88.2958 75.1739 88.8703 73.5455 90.3129 72.8713Z" fill="#20505A"/>
<path fill-rule="evenodd" clip-rule="evenodd" d="M95.4158 100.572L101.474 115.908C101.761 116.773 102.629 117.918 103.395 118.496C104.359 119.164 105.514 119.362 106.663 118.687C108.01 117.631 107.627 114.756 106.568 112.454L105.316 109.579L95.5051 85.6175L88.4196 67.4701L87.2323 64.4297L82.8086 66.7323L95.4094 100.565L95.4158 100.572Z" fill="#65C8D0"/>
<path fill-rule="evenodd" clip-rule="evenodd" d="M82.8156 66.7323L77.6195 52.6431C77.9068 52.6431 75.7939 52.5477 74.5427 53.1202C73.8725 53.4064 72.1362 54.3669 71.9447 54.1761C71.0766 53.7944 70.4063 53.1202 70.3105 51.9689C70.3105 50.913 70.9808 50.3405 71.9447 50.1497L78.0983 49.6726L77.9068 48.5213L73.2916 48.903L73.1001 48.1333L79.4515 47.6562L80.0261 50.1497C81.1814 50.2451 82.1453 50.7222 82.7198 51.9689L87.2393 64.4297L82.8156 66.7323Z" fill="#1A1A1A"/>
<g opacity="0.96">
<path d="M93.3045 87.4373C93.113 87.5327 92.9215 87.6282 92.8258 87.819L92.347 86.5723L91.6768 86.8585L92.6407 89.2565C92.9279 89.9244 93.7003 90.217 94.3705 89.9244C95.0408 89.6382 95.4302 88.8685 95.1429 88.2006C94.8557 87.5327 94.0833 87.2402 93.3173 87.431L93.3045 87.4373ZM94.0769 89.2565C93.7897 89.3519 93.4067 89.2565 93.3045 88.9703C93.2088 88.6841 93.3045 88.3024 93.5918 88.2006C93.879 88.1052 94.262 88.2006 94.3642 88.4869C94.5557 88.7731 94.3642 89.1548 94.0769 89.2565Z" fill="white"/>
<path d="M96.2831 94.8222C95.6128 95.1085 95.3192 95.8781 95.5107 96.546L95.9894 97.7927L96.6597 97.5065L96.1809 96.2598C96.0852 95.9735 96.1809 95.5919 96.4682 95.4901C96.7554 95.3947 97.1384 95.4901 97.2406 95.7764L97.7193 97.0231L98.3896 96.7368L97.9108 95.4901C97.7193 94.8222 96.9469 94.5296 96.2767 94.8222H96.2831Z" fill="white"/>
<path d="M95.1304 91.7501C94.9389 91.8455 94.8432 92.0364 94.9389 92.2272L95.7113 94.339L96.4837 94.0527L95.6156 92.0427C95.5198 91.7565 95.3283 91.6611 95.1368 91.7565L95.1304 91.7501Z" fill="white"/>
<path d="M94.7434 91.4619C95.0078 91.4619 95.2222 91.2483 95.2222 90.9849C95.2222 90.7214 95.0078 90.5078 94.7434 90.5078C94.479 90.5078 94.2646 90.7214 94.2646 90.9849C94.2646 91.2483 94.479 91.4619 94.7434 91.4619Z" fill="white"/>
<path d="M88.4969 75.6502C88.3054 75.7456 88.1139 75.8411 88.0182 76.0319L87.5394 74.7852L86.8691 75.0714L87.833 77.4694C88.1203 78.1373 88.8927 78.4299 89.5629 78.1373C90.2332 77.8511 90.6226 77.0814 90.3353 76.4135C90.0481 75.7456 89.1799 75.3576 88.5097 75.6439L88.4969 75.6502ZM89.2693 77.4694C88.982 77.5648 88.599 77.4694 88.4969 77.1832C88.4012 76.8969 88.4969 76.5153 88.7842 76.4135C89.0714 76.3181 89.4544 76.4135 89.5565 76.6998C89.7481 76.986 89.5566 77.2722 89.2693 77.4694Z" fill="white"/>
<path d="M91.4754 83.0293C90.8052 83.3155 90.5116 84.0852 90.7031 84.753L91.1818 85.9998L91.8521 85.7135L91.3733 84.4668C91.2776 84.1806 91.3733 83.7989 91.6606 83.6971C91.9478 83.6017 92.3308 83.6971 92.433 83.9834L92.9117 85.2301L93.582 84.9439L93.1032 83.6971C92.9117 83.0293 92.1393 82.7367 91.4691 83.0293H91.4754Z" fill="white"/>
<path d="M90.23 79.9611C90.0385 80.0565 89.9428 80.2473 90.0385 80.4381L90.8109 82.5499L91.5833 82.2637L90.7152 80.2537C90.7152 79.9674 90.4279 79.872 90.2364 79.9674L90.23 79.9611Z" fill="white"/>
<path d="M89.9465 79.669C90.2109 79.669 90.4253 79.4554 90.4253 79.1919C90.4253 78.9284 90.2109 78.7148 89.9465 78.7148C89.6821 78.7148 89.4678 78.9284 89.4678 79.1919C89.4678 79.4554 89.6821 79.669 89.9465 79.669Z" fill="white"/>
</g>
<path fill-rule="evenodd" clip-rule="evenodd" d="M73.0997 48.236L73.9615 48.1406L74.4466 48.9039L73.0997 48.9993L72.9082 48.236H73.0997Z" fill="#1A1A1A"/>
<path opacity="0.51" d="M89.3467 68.3044L198.726 40.3359L199.76 92.2973L89.3467 68.3044Z" fill="#E5E5E5"/>
<path fill-rule="evenodd" clip-rule="evenodd" d="M88.924 65.8726C88.5665 65.7518 87.8516 66.0253 87.8516 66.0253L89.4538 70.1216L90.0602 69.8799C90.0602 69.8799 90.0028 66.2352 88.924 65.8726Z" fill="#1A1A1A"/>
<path d="M51.9549 70.0215C55.8168 71.0837 50.5761 76.2869 53.1869 89.9499C54.5465 97.0612 48.3419 114.388 50.7739 122.345C51.4378 124.521 46.9375 122.854 45.5332 122.943C46.5609 121.232 46.8737 117.638 46.5418 115.126C45.6481 108.244 46.5226 96.0372 47.0397 92.4815L45.4502 76.0452L51.9612 70.0279L51.9549 70.0215Z" fill="#FFD2C1"/>
<path d="M53.8114 122.924C54.2518 121.646 54.4178 118.847 54.0539 115.787C53.9135 114.623 53.8369 113.453 53.8624 112.283C53.9901 105.489 54.2646 98.2253 55.2731 90.6432C55.3625 90.2043 55.0944 89.2439 55.0944 89.2439C55.0944 89.2439 51.7368 71.6817 50.9708 67.4772L49.8281 62.9292L56.7605 60.3086C59.4798 71.8471 62.0523 83.8372 60.999 89.2566V89.5174C60.5969 96.5969 58.3372 105.101 57.3924 115.686C57.335 116.309 57.418 117.543 57.4627 118.166C57.4627 118.23 57.469 118.3 57.4754 118.364L57.5903 122.269C56.02 123.045 54.6284 123.573 53.8114 122.924Z" fill="#FFD2C1"/>
<path d="M52.1978 16.5137L56.3215 16.8635C55.0065 19.5732 54.6554 22.1112 55.9704 23.9431L50.4424 23.5042C51.8467 22.0158 52.7213 18.8735 52.1978 16.5137Z" fill="#FFD2C1"/>
<path d="M58.339 32.8555L60.7073 37.0537C61.0583 37.6643 61.4988 38.1923 62.0222 38.6248L72.6378 46.6648C73.6911 47.4536 74.4826 48.5858 75.006 49.8134C75.1784 50.1633 75.2678 50.6022 75.2678 51.0347C75.2678 51.6453 75.0954 52.1733 74.655 52.9557C74.1315 53.9161 73.9528 54.0052 72.3761 53.5663C72.2867 53.738 73.0783 52.7776 73.34 52.0779C73.6017 51.2891 73.1676 49.8898 72.5484 49.3682C71.3228 48.3186 70.0015 47.3582 68.6865 46.6585C68.4248 46.4867 68.0737 46.3977 67.7226 46.3086C65.6161 45.8697 63.4266 45.17 61.2307 44.2096C60.7903 44.0378 60.4392 43.7707 60.0881 43.5099C57.7198 41.3218 55.875 38.8792 53.6855 35.5525L57.9816 32.582L58.3326 32.8428L58.339 32.8555Z" fill="#E8C2B8"/>
<path d="M58.3361 32.8546L60.883 37.7524C61.2341 38.363 61.6746 38.891 62.198 39.3235L72.8136 47.3636C73.8668 48.1523 74.6584 49.2845 75.2712 50.5949C75.4435 50.9447 75.5329 51.6444 75.5329 52.0833C75.5329 52.255 75.5329 52.3441 75.4435 52.5222C75.2712 53.3109 74.7414 53.9216 74.0392 54.2714C72.9859 54.7103 71.7603 54.6213 71.4092 54.0106C71.9327 54.2714 72.4625 53.7498 72.7242 53.1392C72.9859 52.6176 73.1647 52.0897 73.2476 51.479C73.2476 50.9574 73.2476 50.3404 72.8966 50.1687C71.4922 49.2973 70.439 48.1587 69.124 47.459C68.8623 47.2872 68.5112 47.1982 68.1601 47.1091C66.0536 46.6702 63.8641 45.9706 61.6682 45.0101C61.2277 44.8383 60.8766 44.5712 60.5256 44.3104C58.1573 42.2113 54.9082 38.0196 52.8081 34.6102C50.6186 30.5456 51.3271 28.2494 54.3528 27.3652C56.2423 27.7214 57.5828 29.5152 58.3361 32.861V32.8546Z" fill="#FFD2C1"/>
<path d="M56.7217 4.50491C56.7217 4.50491 59.2176 8.29594 58.6941 10.2169C58.6048 10.4777 58.6048 10.7385 58.5218 10.9166C58.3494 12.0552 58.4324 12.1379 59.0452 12.7549C59.5687 13.1938 59.4857 13.3655 59.2176 13.6263C59.0452 13.7153 58.9559 13.9761 58.9559 14.1479C58.9559 14.4087 59.0452 14.5868 59.0452 14.6695C59.0452 14.7522 59.3069 15.3692 58.6048 15.2801C56.5876 14.9303 58.1643 15.3692 58.6048 15.4518C58.6048 15.4518 59.2176 15.6236 59.1282 15.8017C59.0388 15.9798 58.7771 16.4123 58.6878 16.6731C58.5984 16.9339 58.5984 17.6336 58.426 17.9834C58.2537 18.3333 56.4089 18.8549 55.2663 18.5941C54.3917 18.4223 53.2491 18.1552 52.7193 18.0725C52.5469 18.0725 52.2788 17.6336 52.1065 17.5509C51.8448 17.3792 50.5681 16.6222 50.0383 16.2724C49.0744 15.6617 49.3935 15.1211 49.4829 14.7712C49.5723 14.4214 50.6447 14.4723 50.5553 14.2942C50.466 14.1224 49.7383 13.092 49.5659 12.564C49.3042 11.8644 49.7383 10.8148 50.0064 10.465C50.3574 10.1151 50.9702 9.85434 51.4107 10.2042C51.7618 10.465 52.1384 10.007 51.832 9.76529C51.1043 9.19918 52.4703 5.81523 53.6257 5.72618C54.0662 5.28729 56.7153 4.49219 56.7153 4.49219L56.7217 4.50491Z" fill="#FFD2C1"/>
<path d="M59.0833 14.9748C59.0705 14.6441 59.0833 14.5359 58.8216 14.714C58.7322 14.8031 57.5002 15.0766 57.5896 15.1657L58.2088 15.242C58.4067 15.2802 58.6556 15.3438 58.7322 15.331C58.8152 15.312 58.911 15.331 58.9939 15.242C59.0897 15.1529 59.0769 15.0384 59.0833 14.9812V14.9748Z" fill="#EA2D3B"/>
<path d="M58.8808 16.2792C59.0531 16.1075 59.1425 15.8403 59.1425 15.7576C59.1425 15.6749 59.1425 15.5859 58.9702 15.4968C58.4467 15.4078 57.585 15.2297 57.585 15.1406C57.585 15.2297 58.3574 16.1965 58.8872 16.2856L58.8808 16.2792Z" fill="#EA2D3B"/>
<path d="M50.5486 23.1855C50.8613 23.37 51.9082 23.4336 53.6445 23.3064C55.3808 23.1855 55.1318 23.1855 55.9361 23.4273C56.7404 23.669 56.7724 25.4945 57.1107 26.0797C57.449 26.6649 58.4703 27.8544 58.7448 28.7449C59.0257 29.6418 59.1214 29.7435 59.5236 30.5768C59.9257 31.4101 59.6385 35.2202 59.6385 35.2202L58.3235 32.854C57.8639 32.2751 58.0235 29.7372 55.5276 27.8607C53.8871 26.6267 52.5976 28.4332 52.0104 29.61C51.7359 30.1633 51.5635 30.8757 51.7422 31.4609C52.055 32.9112 52.387 33.6999 52.8721 34.6159L54.302 36.8358L54.7041 37.3828C54.7935 37.3447 54.7041 37.5609 56.1276 39.183C57.6979 40.964 56.7979 40.188 58.4703 42.0962C58.6554 42.3061 59.6959 43.4829 59.6959 43.4829C59.9449 52.8968 62.0833 57.1967 63.9728 63.7865C67.9752 74.0847 73.4904 105.392 70.3051 107.104C62.6898 111.194 53.37 117.033 48.1995 112.498C45.3333 109.985 36.0647 104.483 28.2003 105.303C16.5634 106.512 38.0627 69.8293 43.2715 62.7942C45.212 60.1736 47.3632 55.6447 48.0463 52.9286C48.7293 50.2126 46.4249 43.1648 46.2717 39.7872C46.1568 37.3065 45.5376 34.1325 45.9398 31.9062C46.1057 31.003 46.5717 29.6863 46.9419 28.8403L50.5486 23.1855Z" fill="#181A33"/>
<path d="M51.5713 123.776C51.4437 123.84 51.3415 124.584 51.3415 124.737C51.3415 124.921 51.3224 125.424 51.482 125.583C51.5841 125.691 51.948 125.786 52.7523 125.812C53.5566 125.837 55.2992 125.882 55.2992 125.882H59.0208L61.6252 125.85C61.9954 125.824 63.9998 125.576 64.7211 125.398C65.3658 125.239 66.2467 124.946 66.4382 124.8C66.5595 124.711 66.6234 124.571 66.6297 124.482C66.6297 124.406 66.6489 123.961 66.6234 123.814C66.5978 123.668 66.5212 123.382 66.5021 123.318C66.4829 123.254 66.3936 123.14 66.3808 123.121C66.368 123.102 66.2914 123.013 66.234 122.975C66.1829 122.936 66.151 122.911 66.1382 122.898C66.1255 122.886 65.8318 122.707 65.7297 122.682C65.6275 122.657 65.3722 122.65 65.3403 122.669C65.3084 122.688 65.2445 122.695 65.2445 122.695C65.2445 122.695 65.4743 122.676 65.5382 122.733C65.602 122.79 65.7999 122.962 65.8382 123.089C65.8765 123.216 65.8956 123.305 65.8573 123.337C65.819 123.369 65.2637 123.528 65.0467 123.592C64.8296 123.655 64.0062 123.846 63.8849 123.865C63.7636 123.884 63.1891 123.992 63.087 124.011C62.9848 124.031 62.3337 124.088 62.2124 124.107C62.0912 124.126 61.0762 124.183 61.0762 124.183L60.2208 124.196L58.8675 124.209H54.629L53.1736 124.151L52.165 124.139C52.165 124.139 51.7884 124.031 51.7118 124.018C51.6352 124.005 51.5713 123.789 51.5713 123.789V123.776Z" fill="#BFBAB8"/>
<path d="M52.5332 121.365C52.5332 121.365 52.7949 121.683 52.8907 121.753C52.9864 121.823 53.4907 122.097 53.9312 122.141C54.3716 122.186 55.1632 122.205 55.5845 122.084C56.0058 121.963 56.5356 121.709 56.7016 121.601C56.8675 121.493 57.4676 121.035 57.4931 121.022C57.5186 121.009 57.6271 121.251 57.6591 121.321C57.691 121.391 57.7165 121.423 57.691 121.454C57.6654 121.486 57.3463 121.709 57.3399 121.715C57.3335 121.722 57.0207 121.906 57.008 121.906C56.9952 121.906 56.5994 122.084 56.5994 122.084L56.1717 122.269C56.1717 122.269 55.9866 122.345 55.9483 122.351C55.91 122.358 55.361 122.479 55.361 122.479C55.361 122.479 54.9653 122.542 54.8887 122.549C54.8121 122.555 54.6653 122.568 54.5376 122.536C54.4099 122.504 54.129 122.428 54.1099 122.421C54.0907 122.415 53.5928 122.256 53.5928 122.256C53.5928 122.256 53.1971 122.116 53.1077 122.059C53.0183 122.002 52.8971 121.944 52.8524 121.881C52.8077 121.817 52.7375 121.728 52.6928 121.652C52.6481 121.575 52.5332 121.353 52.5332 121.353V121.365Z" fill="#C18E6C"/>
<path d="M59.1329 120.647C59.1329 120.647 59.2861 120.571 59.2478 120.527C59.2095 120.482 59.1201 120.412 59.1201 120.412C59.1201 120.412 59.1712 120.412 59.2095 120.431C59.2478 120.45 59.8159 120.749 59.8606 120.781C59.9244 120.826 60.55 121.163 60.6011 121.214C60.6521 121.264 61.0926 121.5 61.1819 121.544C61.2713 121.589 61.7948 121.805 61.8267 121.824C61.8586 121.843 62.2927 122.002 62.299 122.002C62.3054 122.002 62.8416 122.339 62.8416 122.339L61.1819 121.608L59.9883 121.055L59.1393 120.647H59.1329Z" fill="#4F2305"/>
<path d="M52.4212 121.25C52.4212 121.25 51.9424 121.358 51.8722 121.708C51.8658 121.747 51.8595 121.791 51.8467 121.829C51.8084 121.995 51.7126 122.395 51.6871 122.631C51.6552 122.93 51.5339 123.725 51.5403 123.833C51.5467 123.941 51.5658 123.998 51.8275 124.075C52.1084 124.157 55.1214 124.214 55.115 124.208L60.9175 124.234C60.9175 124.234 63.7708 124.132 65.1114 123.667C65.3795 123.585 65.6093 123.489 65.788 123.375C65.8582 123.33 65.9093 123.299 65.9029 123.241C65.8901 123.165 65.8646 123.044 65.8454 123.006C65.8071 122.93 65.5327 122.694 65.4497 122.669C65.3667 122.643 65.022 122.72 64.8369 122.682C64.6517 122.643 62.8899 122.319 62.8325 122.294C62.775 122.268 62.3984 122.077 61.792 121.823C61.1856 121.568 59.3408 120.672 59.1748 120.608C59.0088 120.544 58.396 120.792 58.2556 120.907C58.1152 121.021 57.3236 121.67 57.1513 121.766C57.0364 121.829 56.4746 122.071 56.1746 122.198C56.047 122.255 55.9129 122.294 55.7725 122.325C55.4341 122.395 54.8213 122.484 54.5277 122.484C54.1766 122.484 53.1042 122.096 52.8553 121.842C52.6063 121.587 52.5297 121.263 52.4786 121.257H52.4276L52.4212 121.25Z" fill="#EAE4E1"/>
<path d="M61.4664 122.351C61.6144 122.351 61.7345 122.231 61.7345 122.084C61.7345 121.936 61.6144 121.816 61.4664 121.816C61.3183 121.816 61.1982 121.936 61.1982 122.084C61.1982 122.231 61.3183 122.351 61.4664 122.351Z" fill="#4F2305"/>
<path d="M62.1599 122.548C62.2762 122.548 62.3705 122.451 62.3705 122.331C62.3705 122.212 62.2762 122.115 62.1599 122.115C62.0435 122.115 61.9492 122.212 61.9492 122.331C61.9492 122.451 62.0435 122.548 62.1599 122.548Z" fill="#4F2305"/>
<path d="M59.3839 121.492C59.5426 121.492 59.6712 121.364 59.6712 121.206C59.6712 121.048 59.5426 120.92 59.3839 120.92C59.2253 120.92 59.0967 121.048 59.0967 121.206C59.0967 121.364 59.2253 121.492 59.3839 121.492Z" fill="#4F2305"/>
<path d="M60.0777 121.773C60.2257 121.773 60.3458 121.653 60.3458 121.505C60.3458 121.358 60.2257 121.238 60.0777 121.238C59.9296 121.238 59.8096 121.358 59.8096 121.505C59.8096 121.653 59.9296 121.773 60.0777 121.773Z" fill="#4F2305"/>
<path d="M60.7456 122.052C60.8937 122.052 61.0137 121.932 61.0137 121.785C61.0137 121.637 60.8937 121.518 60.7456 121.518C60.5976 121.518 60.4775 121.637 60.4775 121.785C60.4775 121.932 60.5976 122.052 60.7456 122.052Z" fill="#4F2305"/>
<path d="M59.2829 121.275C59.1999 121.174 59.2509 120.938 59.3722 120.881C59.4616 120.836 59.5829 120.652 59.6212 120.658C59.6595 120.665 59.934 120.817 60.0169 120.868C60.0872 120.913 60.0297 120.926 59.8957 121.015C59.6212 121.199 59.5701 121.333 59.4488 121.339C59.3275 121.345 59.2829 121.275 59.2829 121.275Z" fill="#C18E6C"/>
<path d="M60.036 121.563C59.9658 121.48 60.0105 121.296 60.1126 121.245C60.1828 121.213 60.2913 121.035 60.3232 121.035C60.3552 121.035 60.585 121.156 60.6233 121.226C60.6616 121.296 60.6233 121.277 60.5211 121.353C60.3041 121.499 60.2658 121.608 60.1637 121.614C60.0615 121.62 60.0296 121.563 60.0296 121.563H60.036Z" fill="#C18E6C"/>
<path d="M60.6677 121.843C60.6039 121.766 60.6486 121.595 60.738 121.55C60.8018 121.518 60.8912 121.385 60.9231 121.385C60.955 121.385 61.1593 121.487 61.1976 121.55C61.2359 121.614 61.2231 121.582 61.1273 121.652C60.9295 121.792 60.8912 121.887 60.8018 121.887C60.7124 121.887 60.6805 121.843 60.6805 121.843H60.6677Z" fill="#C18E6C"/>
<path d="M61.4106 122.096C61.3595 122.033 61.3914 121.893 61.468 121.855C61.5191 121.829 61.5957 121.715 61.6212 121.721C61.6468 121.727 61.8319 121.797 61.8638 121.848C61.8957 121.899 61.8638 121.886 61.7872 121.944C61.6212 122.058 61.5893 122.134 61.5191 122.141C61.4489 122.147 61.417 122.103 61.417 122.103L61.4106 122.096Z" fill="#C18E6C"/>
<path d="M62.0854 122.383C62.0343 122.32 62.0662 122.18 62.1428 122.142C62.1939 122.116 62.2705 122.002 62.296 122.008C62.3215 122.014 62.4875 122.091 62.5194 122.142C62.5514 122.193 62.5386 122.167 62.462 122.224C62.296 122.339 62.2641 122.415 62.1939 122.422C62.1237 122.428 62.0918 122.383 62.0918 122.383H62.0854Z" fill="#C18E6C"/>
<path d="M57.6972 121.371C57.6972 121.371 57.6206 120.977 57.6206 120.862C57.6206 120.748 57.7035 119.972 57.7035 119.934C57.7035 119.895 57.6844 119.755 57.6333 119.819C57.6014 119.857 57.3844 120.398 57.4482 120.824C57.5184 121.269 57.6844 121.384 57.6972 121.371Z" fill="#2D1301"/>
<path d="M57.6191 119.813C57.6191 119.813 57.8042 119.578 58.0404 119.699C58.2383 119.8 58.7873 120.163 58.9405 120.265C58.9724 120.284 58.9979 120.303 59.0298 120.316C59.1575 120.373 59.2788 120.436 59.3235 120.481C59.3235 120.481 59.2405 120.576 59.2086 120.595H59.1958C59.1511 120.627 59.1064 120.64 59.0554 120.646C58.966 120.659 58.8192 120.678 58.7681 120.697C58.6979 120.723 58.4234 120.85 58.3341 120.926C58.3341 120.926 58.2064 121.034 58.0915 121.123C57.9766 121.212 57.6957 121.352 57.6829 121.352C57.6638 121.359 57.5361 120.742 57.5361 120.64C57.5361 120.583 57.5489 120.277 57.6127 120.055C57.6702 119.851 57.6255 119.8 57.6255 119.8L57.6191 119.813Z" fill="#4F2305"/>
<path d="M57.7982 120.304C57.7982 120.304 57.6255 120.329 57.7023 120.202C57.779 120.074 57.7854 119.979 57.843 119.991C57.9005 120.004 57.9453 120.042 57.9133 120.112C57.8814 120.183 57.9261 120.285 57.8941 120.285C57.8622 120.285 57.7982 120.297 57.7982 120.297V120.304Z" fill="#F2D6BB"/>
<path d="M57.87 121.022C57.87 121.022 57.8764 121.124 57.8061 121.073C57.7359 121.022 57.6785 121.015 57.6912 120.977C57.704 120.939 57.7232 120.92 57.7678 120.939C57.8125 120.958 57.87 120.939 57.87 120.958C57.87 120.977 57.87 121.015 57.87 121.015V121.022Z" fill="#F2D6BB"/>
<path d="M58.0077 120.711C58.0077 120.711 57.9757 120.737 57.9117 120.596C57.8478 120.456 57.9565 120.373 58.0524 120.386C58.11 120.392 58.1548 120.437 58.1228 120.507C58.0908 120.577 58.1228 120.66 58.1036 120.679C58.0716 120.705 58.0525 120.698 58.0077 120.705V120.711Z" fill="#F2D6BB"/>
<path d="M58.3275 120.151C58.3275 120.151 58.3275 120.176 58.2251 120.163C58.1228 120.144 58.1164 120.049 58.1612 120.004C58.1868 119.972 58.2251 119.966 58.2571 120.01C58.2891 120.055 58.3467 120.068 58.3467 120.087C58.3467 120.112 58.3403 120.125 58.3275 120.151Z" fill="#F2D6BB"/>
<path d="M58.799 120.551C58.799 120.551 58.7734 120.538 58.8374 120.455C58.9013 120.373 58.9845 120.417 59.0101 120.481C59.0228 120.519 59.0101 120.557 58.9589 120.564C58.9077 120.57 58.863 120.615 58.8502 120.602C58.8246 120.589 58.8246 120.576 58.8054 120.551H58.799Z" fill="#F2D6BB"/>
<path d="M58.5132 120.239C58.5132 120.239 58.4941 120.233 58.5387 120.175C58.5834 120.118 58.6409 120.15 58.6537 120.194C58.66 120.22 58.6537 120.245 58.6154 120.252C58.5771 120.258 58.5515 120.284 58.5387 120.277C58.5196 120.271 58.5196 120.258 58.5068 120.245L58.5132 120.239Z" fill="#F2D6BB"/>
<path d="M57.896 119.844C57.896 119.844 57.8769 119.838 57.9216 119.781C57.9663 119.724 58.0237 119.755 58.0365 119.8C58.0428 119.825 58.0365 119.851 57.9982 119.857C57.9599 119.864 57.9343 119.889 57.9216 119.883C57.9024 119.876 57.9024 119.864 57.8896 119.851L57.896 119.844Z" fill="#F2D6BB"/>
<path d="M58.2392 120.895C58.2392 120.895 58.2265 120.914 58.1945 120.85C58.1626 120.786 58.2137 120.748 58.2584 120.755C58.2839 120.755 58.3031 120.78 58.2903 120.812C58.2775 120.844 58.2903 120.882 58.2839 120.895C58.2711 120.907 58.2392 120.907 58.2392 120.901V120.895Z" fill="#F2D6BB"/>
<path d="M57.6367 120.646C57.6367 120.646 57.6239 120.666 57.592 120.602C57.5601 120.538 57.6112 120.5 57.6558 120.507C57.6814 120.507 57.7005 120.532 57.6878 120.564C57.675 120.596 57.6877 120.634 57.6814 120.646C57.6686 120.659 57.6367 120.659 57.6367 120.653V120.646Z" fill="#F2D6BB"/>
<path d="M58.537 120.469C58.537 120.469 58.5626 120.494 58.4474 120.539C58.3323 120.584 58.2684 120.482 58.2876 120.405C58.3003 120.361 58.3387 120.329 58.3963 120.361C58.4538 120.392 58.5242 120.373 58.537 120.392C58.5562 120.418 58.5498 120.475 58.537 120.475V120.469Z" fill="#F2D6BB"/>
<path d="M49.1013 16.4376C49.1013 16.4376 47.2437 16.6411 45.1755 13.4416C43.2158 10.4075 44.6584 9.10355 44.8691 8.17487C45.3223 6.17122 47.1671 6.23483 47.8373 5.15986C48.5076 4.08488 48.9608 3.89406 50.7035 3.25162C52.4461 2.60918 54.3612 2.22117 55.4655 3.07987C56.5698 3.93858 57.3741 4.89906 56.9017 5.14077C56.4294 5.38248 55.0123 6.11397 54.4824 6.38749C53.9526 6.661 52.9313 8.13035 52.8802 8.86184C52.8292 9.58697 52.6057 9.94317 52.5674 10.6238C52.5355 11.2344 51.6035 10.6238 51.1056 11.0118C50.6077 11.3998 50.9078 12.5702 51.495 13.0663C52.1525 13.6197 51.5269 15.5089 51.2333 15.9414C50.8312 16.5266 50.8375 16.9273 49.0949 16.4439L49.1013 16.4376Z" fill="#42210B"/>
<path d="M48.533 5.35678C48.533 5.35678 46.535 6.9279 45.7946 6.41267C45.0541 5.89745 43.771 4.56804 44.9903 3.66481C46.2095 2.76157 46.1073 1.48941 46.6116 1.30495C47.1159 1.12048 47.9202 0.51621 48.7756 0.923301C49.631 1.33039 51.08 2.4817 50.9013 2.99692C50.7225 3.51214 48.533 5.36314 48.533 5.36314V5.35678Z" fill="#492815"/>
<path d="M44.6602 124.202C44.5325 124.265 44.4304 125.01 44.4304 125.162C44.4304 125.347 44.4113 125.849 44.5708 126.008C44.673 126.116 45.0368 126.212 45.8411 126.237C46.6454 126.263 48.3881 126.307 48.3881 126.307H52.1096L54.714 126.275C55.0843 126.25 57.0887 126.002 57.81 125.824C58.4547 125.665 59.3356 125.372 59.5271 125.226C59.6484 125.137 59.7122 124.997 59.7186 124.908C59.7186 124.832 59.7378 124.386 59.7122 124.24C59.6867 124.094 59.6101 123.807 59.5909 123.744C59.5718 123.68 59.4824 123.566 59.4697 123.547C59.4569 123.528 59.3803 123.439 59.3228 123.4C59.2718 123.362 59.2399 123.337 59.2271 123.324C59.2143 123.311 58.9207 123.133 58.8186 123.108C58.7164 123.082 58.4611 123.076 58.4292 123.095C58.3972 123.114 58.3334 123.121 58.3334 123.121C58.3334 123.121 58.5632 123.101 58.627 123.159C58.6909 123.216 58.8888 123.388 58.9271 123.515C58.9654 123.642 58.9845 123.731 58.9462 123.763C58.9079 123.795 58.3526 123.954 58.1355 124.017C57.9185 124.081 57.095 124.272 56.9738 124.291C56.8525 124.31 56.278 124.418 56.1758 124.437C56.0737 124.456 55.4226 124.514 55.3013 124.533C55.18 124.552 54.1651 124.609 54.1651 124.609L53.3097 124.622L51.9564 124.634H47.7178L46.2624 124.577L45.2539 124.564C45.2539 124.564 44.8772 124.456 44.8006 124.444C44.724 124.431 44.6602 124.215 44.6602 124.215V124.202Z" fill="#BFBAB8"/>
<path d="M45.6221 121.791C45.6221 121.791 45.8838 122.109 45.9795 122.179C46.0753 122.249 46.5796 122.523 47.02 122.567C47.4605 122.612 48.252 122.631 48.6733 122.51C49.0946 122.389 49.6245 122.135 49.7904 122.027C49.9564 121.918 50.5564 121.46 50.582 121.448C50.6075 121.435 50.716 121.677 50.7479 121.747C50.7798 121.817 50.8054 121.848 50.7798 121.88C50.7543 121.912 50.4351 122.135 50.4288 122.141C50.4224 122.147 50.1096 122.332 50.0968 122.332C50.0841 122.332 49.6883 122.51 49.6883 122.51L49.2606 122.694C49.2606 122.694 49.0755 122.771 49.0372 122.777C48.9989 122.784 48.4499 122.904 48.4499 122.904C48.4499 122.904 48.0541 122.968 47.9775 122.974C47.9009 122.981 47.7541 122.993 47.6265 122.962C47.4988 122.93 47.2179 122.853 47.1988 122.847C47.1796 122.841 46.6817 122.682 46.6817 122.682C46.6817 122.682 46.2859 122.542 46.1966 122.485C46.1072 122.427 45.9859 122.37 45.9412 122.306C45.8966 122.243 45.8263 122.154 45.7817 122.077C45.737 122.001 45.6221 121.779 45.6221 121.779V121.791Z" fill="#C18E6C"/>
<path d="M52.2218 121.073C52.2218 121.073 52.375 120.997 52.3367 120.952C52.2984 120.908 52.209 120.838 52.209 120.838C52.209 120.838 52.2601 120.838 52.2984 120.857C52.3367 120.876 52.9048 121.175 52.9495 121.207C53.0133 121.251 53.6389 121.588 53.6899 121.639C53.741 121.69 54.1815 121.926 54.2708 121.97C54.3602 122.015 54.8836 122.231 54.9155 122.25C54.9475 122.269 55.3815 122.428 55.3879 122.428C55.3943 122.428 55.9305 122.765 55.9305 122.765L54.2708 122.034L53.0771 121.48L52.2281 121.073H52.2218Z" fill="#4F2305"/>
<path d="M45.5101 121.676C45.5101 121.676 45.0313 121.784 44.9611 122.134C44.9547 122.172 44.9483 122.217 44.9356 122.255C44.8973 122.42 44.8015 122.821 44.776 123.056C44.7441 123.355 44.6228 124.15 44.6291 124.259C44.6355 124.367 44.6547 124.424 44.9164 124.5C45.1973 124.583 48.2102 124.64 48.2038 124.634L54.0063 124.659C54.0063 124.659 56.8597 124.558 58.2002 124.093C58.4683 124.011 58.6981 123.915 58.8769 123.801C58.9471 123.756 58.9981 123.724 58.9918 123.667C58.979 123.591 58.9535 123.47 58.9343 123.432C58.896 123.355 58.6215 123.12 58.5385 123.095C58.4556 123.069 58.1109 123.145 57.9257 123.107C57.7406 123.069 55.9788 122.745 55.9214 122.719C55.8639 122.694 55.4873 122.503 54.8809 122.249C54.2744 121.994 52.4296 121.097 52.2637 121.034C52.0977 120.97 51.4849 121.218 51.3445 121.333C51.204 121.447 50.4125 122.096 50.2401 122.191C50.1252 122.255 49.5635 122.497 49.2635 122.624C49.1358 122.681 49.0018 122.719 48.8613 122.751C48.523 122.821 47.9102 122.91 47.6166 122.91C47.2655 122.91 46.1931 122.522 45.9441 122.268C45.6952 122.013 45.6186 121.689 45.5675 121.683H45.5164L45.5101 121.676Z" fill="#EAE4E1"/>
<path d="M54.5552 122.776C54.7033 122.776 54.8233 122.657 54.8233 122.509C54.8233 122.362 54.7033 122.242 54.5552 122.242C54.4071 122.242 54.2871 122.362 54.2871 122.509C54.2871 122.657 54.4071 122.776 54.5552 122.776Z" fill="#4F2305"/>
<path d="M55.2487 122.968C55.3651 122.968 55.4594 122.871 55.4594 122.751C55.4594 122.632 55.3651 122.535 55.2487 122.535C55.1324 122.535 55.0381 122.632 55.0381 122.751C55.0381 122.871 55.1324 122.968 55.2487 122.968Z" fill="#4F2305"/>
<path d="M52.4728 121.918C52.6314 121.918 52.7601 121.79 52.7601 121.632C52.7601 121.474 52.6314 121.346 52.4728 121.346C52.3142 121.346 52.1855 121.474 52.1855 121.632C52.1855 121.79 52.3142 121.918 52.4728 121.918Z" fill="#4F2305"/>
<path d="M53.1665 122.198C53.3146 122.198 53.4346 122.079 53.4346 121.931C53.4346 121.784 53.3146 121.664 53.1665 121.664C53.0185 121.664 52.8984 121.784 52.8984 121.931C52.8984 122.079 53.0185 122.198 53.1665 122.198Z" fill="#4F2305"/>
<path d="M53.8335 122.472C53.9816 122.472 54.1016 122.352 54.1016 122.205C54.1016 122.057 53.9816 121.938 53.8335 121.938C53.6855 121.938 53.5654 122.057 53.5654 122.205C53.5654 122.352 53.6855 122.472 53.8335 122.472Z" fill="#4F2305"/>
<path d="M52.3717 121.695C52.2887 121.594 52.3398 121.358 52.4611 121.301C52.5505 121.256 52.6717 121.072 52.71 121.078C52.7483 121.085 53.0228 121.237 53.1058 121.288C53.176 121.333 53.1186 121.345 52.9845 121.434C52.71 121.619 52.659 121.753 52.5377 121.759C52.4164 121.765 52.3717 121.695 52.3717 121.695Z" fill="#C18E6C"/>
<path d="M53.1249 121.989C53.0546 121.906 53.0993 121.722 53.2015 121.671C53.2717 121.639 53.3802 121.461 53.4121 121.461C53.444 121.461 53.6738 121.582 53.7121 121.652C53.7504 121.722 53.7121 121.703 53.61 121.779C53.393 121.925 53.3547 122.033 53.2525 122.04C53.1504 122.046 53.1185 121.989 53.1185 121.989H53.1249Z" fill="#C18E6C"/>
<path d="M53.7566 122.269C53.6928 122.192 53.7375 122.02 53.8268 121.976C53.8907 121.944 53.98 121.811 54.0119 121.811C54.0439 121.811 54.2481 121.912 54.2864 121.976C54.3247 122.04 54.312 122.008 54.2162 122.078C54.0183 122.218 53.98 122.313 53.8907 122.313C53.8013 122.313 53.7694 122.269 53.7694 122.269H53.7566Z" fill="#C18E6C"/>
<path d="M54.4955 122.522C54.4445 122.458 54.4764 122.318 54.553 122.28C54.604 122.255 54.6806 122.14 54.7062 122.147C54.7317 122.153 54.9168 122.223 54.9487 122.274C54.9807 122.325 54.9487 122.312 54.8721 122.369C54.7062 122.484 54.6743 122.56 54.604 122.567C54.5338 122.573 54.5019 122.528 54.5019 122.528L54.4955 122.522Z" fill="#C18E6C"/>
<path d="M55.1742 122.803C55.1232 122.74 55.1551 122.6 55.2317 122.562C55.2828 122.536 55.3594 122.422 55.3849 122.428C55.4104 122.434 55.5764 122.511 55.6083 122.562C55.6402 122.612 55.6275 122.587 55.5509 122.644C55.3849 122.759 55.353 122.835 55.2828 122.841C55.2125 122.848 55.1806 122.803 55.1806 122.803H55.1742Z" fill="#C18E6C"/>
<path d="M50.786 121.797C50.786 121.797 50.7094 121.403 50.7094 121.288C50.7094 121.174 50.7924 120.398 50.7924 120.359C50.7924 120.321 50.7733 120.181 50.7222 120.245C50.6903 120.283 50.4732 120.824 50.5371 121.25C50.6073 121.695 50.7733 121.81 50.786 121.797Z" fill="#2D1301"/>
<path d="M50.708 120.239C50.708 120.239 50.8931 120.004 51.1293 120.124C51.3272 120.226 51.8761 120.589 52.0293 120.69C52.0613 120.71 52.0868 120.729 52.1187 120.741C52.2464 120.799 52.3677 120.862 52.4123 120.907C52.4123 120.907 52.3294 121.002 52.2974 121.021H52.2847C52.24 121.053 52.1953 121.066 52.1442 121.072C52.0549 121.085 51.9081 121.104 51.857 121.123C51.7868 121.148 51.5123 121.276 51.4229 121.352C51.4229 121.352 51.2953 121.46 51.1804 121.549C51.0655 121.638 50.7846 121.778 50.7718 121.778C50.7527 121.785 50.625 121.168 50.625 121.066C50.625 121.009 50.6378 120.703 50.7016 120.481C50.759 120.277 50.7144 120.226 50.7144 120.226L50.708 120.239Z" fill="#4F2305"/>
<path d="M50.8861 120.724C50.8861 120.724 50.7134 120.749 50.7902 120.622C50.8669 120.494 50.8733 120.399 50.9309 120.411C50.9884 120.424 51.0332 120.462 51.0012 120.532C50.9692 120.602 51.014 120.704 50.982 120.704C50.9501 120.704 50.8861 120.717 50.8861 120.717V120.724Z" fill="#F2D6BB"/>
<path d="M50.9588 121.448C50.9588 121.448 50.9652 121.549 50.895 121.498C50.8248 121.448 50.7673 121.441 50.7801 121.403C50.7929 121.365 50.812 121.346 50.8567 121.365C50.9014 121.384 50.9588 121.365 50.9588 121.384C50.9588 121.403 50.9588 121.441 50.9588 121.441V121.448Z" fill="#F2D6BB"/>
<path d="M51.0965 121.137C51.0965 121.137 51.0646 121.162 51.0006 121.022C50.9367 120.882 51.0454 120.799 51.1413 120.812C51.1989 120.818 51.2436 120.863 51.2117 120.933C51.1797 121.003 51.2117 121.086 51.1925 121.105C51.1605 121.13 51.1413 121.124 51.0965 121.13V121.137Z" fill="#F2D6BB"/>
<path d="M51.4163 120.576C51.4163 120.576 51.4163 120.602 51.314 120.589C51.2117 120.57 51.2053 120.474 51.2501 120.43C51.2756 120.398 51.314 120.392 51.346 120.436C51.378 120.481 51.4355 120.494 51.4355 120.513C51.4355 120.538 51.4291 120.551 51.4163 120.576Z" fill="#F2D6BB"/>
<path d="M51.8879 120.971C51.8879 120.971 51.8623 120.958 51.9262 120.875C51.9902 120.792 52.0733 120.837 52.0989 120.901C52.1117 120.939 52.0989 120.977 52.0478 120.984C51.9966 120.99 51.9518 121.035 51.939 121.022C51.9134 121.009 51.9134 120.996 51.8943 120.971H51.8879Z" fill="#F2D6BB"/>
<path d="M51.6021 120.665C51.6021 120.665 51.5829 120.658 51.6276 120.601C51.6723 120.544 51.7298 120.576 51.7425 120.62C51.7489 120.646 51.7425 120.671 51.7042 120.678C51.6659 120.684 51.6404 120.709 51.6276 120.703C51.6085 120.697 51.6085 120.684 51.5957 120.671L51.6021 120.665Z" fill="#F2D6BB"/>
<path d="M50.9839 120.27C50.9839 120.27 50.9648 120.264 51.0095 120.207C51.0541 120.149 51.1116 120.181 51.1244 120.226C51.1307 120.251 51.1244 120.277 51.0861 120.283C51.0478 120.289 51.0222 120.315 51.0095 120.308C50.9903 120.302 50.9903 120.289 50.9775 120.277L50.9839 120.27Z" fill="#F2D6BB"/>
<path d="M51.3281 121.32C51.3281 121.32 51.3153 121.339 51.2834 121.276C51.2515 121.212 51.3026 121.174 51.3472 121.18C51.3728 121.18 51.3919 121.206 51.3792 121.238C51.3664 121.269 51.3792 121.308 51.3728 121.32C51.36 121.333 51.3281 121.333 51.3281 121.327V121.32Z" fill="#F2D6BB"/>
<path d="M50.7256 121.072C50.7256 121.072 50.7128 121.091 50.6809 121.028C50.6489 120.964 50.7 120.926 50.7447 120.932C50.7702 120.932 50.7894 120.958 50.7766 120.99C50.7639 121.021 50.7766 121.06 50.7702 121.072C50.7575 121.085 50.7256 121.085 50.7256 121.079V121.072Z" fill="#F2D6BB"/>
<path d="M51.6258 120.895C51.6258 120.895 51.6514 120.92 51.5363 120.965C51.4212 121.009 51.3572 120.907 51.3764 120.831C51.3892 120.786 51.4276 120.754 51.4851 120.786C51.5427 120.818 51.6131 120.799 51.6258 120.818C51.645 120.844 51.6386 120.901 51.6258 120.901V120.895Z" fill="#F2D6BB"/>
<path d="M51.5256 21.7871C51.5256 21.7871 50.4723 22.0288 51.0915 22.614C51.7681 23.2565 54.0917 23.53 54.8385 23.4282C55.5152 23.3391 55.7577 23.8098 56.0003 24.6304C56.262 25.5145 57.2195 27.4609 57.3153 27.4164L57.0855 26.7931L56.8812 26.3033C56.6004 25.8008 56.345 25.2347 56.3067 24.8912C56.2365 24.1915 55.5152 22.9957 55.2088 23.0784C55.0045 23.1356 53.115 23.0847 52.5597 22.9193C52.0043 22.7539 51.2511 22.4614 51.3404 22.2451C51.4298 22.0288 51.5256 21.7871 51.5256 21.7871Z" fill="#B59702"/>
<path d="M54.1397 23.0969C54.1397 23.0969 55.4802 23.0587 55.4227 22.9251C55.3653 22.7979 55.3653 22.7598 55.3653 22.7598C55.3653 22.7598 55.6589 22.7916 55.6334 22.9824C55.6206 23.0842 55.5121 23.1541 55.1738 23.2114C54.8674 23.2623 53.6992 23.1859 53.6992 23.1859L54.1397 23.0969Z" fill="#B59702"/>
<path d="M57.4539 26.6774C57.0517 26.9127 56.924 27.428 57.1602 27.8287C57.3964 28.2294 57.9135 28.3566 58.3156 28.1213C58.3667 28.0895 58.4114 28.0577 58.4561 28.0195C58.0986 28.1086 57.7092 27.9559 57.5113 27.6251C57.3134 27.2944 57.3645 26.8809 57.6135 26.6074C57.5624 26.6265 57.5113 26.6519 57.4602 26.6774H57.4539Z" fill="#F9EAAF"/>
<path d="M52.4718 12.6582L52.5612 12.8363L52.7591 12.8617L52.6186 13.0017L52.6506 13.1989L52.4718 13.1098L52.2931 13.1989L52.325 13.0017L52.1846 12.8617L52.3825 12.8363L52.4718 12.6582Z" fill="#B59702"/>
</svg>
