<svg width="266" height="164" viewBox="0 0 266 164" fill="none" xmlns="http://www.w3.org/2000/svg">
<path fill-rule="evenodd" clip-rule="evenodd" d="M183.165 52.8071C183.165 52.8071 184.078 47.9599 178.085 42.2154C172.098 36.4731 162.041 33.7386 162.442 21.269C162.842 8.7994 184.757 -3.19162 192.389 11.6002C201.415 29.1071 185.015 53.4921 183.165 52.8071Z" fill="#3DBCC8"/>
<path fill-rule="evenodd" clip-rule="evenodd" d="M172.724 16.44V20.3084H176.662V16.44H172.724ZM172.655 14.5059C171.625 14.5059 170.79 15.3409 170.79 16.371V20.3775C170.79 21.4075 171.625 22.2426 172.655 22.2426H176.662C177.692 22.2426 178.527 21.4075 178.527 20.3775V16.371C178.527 15.3409 177.692 14.5059 176.662 14.5059L172.655 14.5059Z" fill="white"/>
<path fill-rule="evenodd" clip-rule="evenodd" d="M180.426 25.0748C180.426 24.5597 180.844 24.1422 181.359 24.1422H184.467C184.982 24.1422 185.4 24.5597 185.4 25.0748C185.4 25.5898 184.982 26.0073 184.467 26.0073H182.292V27.8724C182.292 28.3875 181.874 28.805 181.359 28.805C180.844 28.805 180.426 28.3875 180.426 27.8724V25.0748Z" fill="white"/>
<path fill-rule="evenodd" clip-rule="evenodd" d="M180.426 30.9809C180.426 30.4659 180.844 30.0484 181.359 30.0484H184.467C184.982 30.0484 185.4 30.4659 185.4 30.9809C185.4 31.496 184.982 31.9135 184.467 31.9135H181.359C180.844 31.9135 180.426 31.496 180.426 30.9809Z" fill="white"/>
<path fill-rule="evenodd" clip-rule="evenodd" d="M187.265 26.9399C187.78 26.9399 188.198 27.3574 188.198 27.8724V30.9809C188.198 31.496 187.78 31.9135 187.265 31.9135C186.75 31.9135 186.333 31.496 186.333 30.9809V28.805H184.467C183.952 28.805 183.535 28.3875 183.535 27.8724C183.535 27.3574 183.952 26.9399 184.467 26.9399H187.265Z" fill="white"/>
<path d="M175.591 18.3397C175.591 18.8547 175.173 19.2722 174.658 19.2722C174.143 19.2722 173.726 18.8547 173.726 18.3397C173.726 17.8246 174.143 17.4071 174.658 17.4071C175.173 17.4071 175.591 17.8246 175.591 18.3397Z" fill="white"/>
<path d="M188.198 25.0748C188.198 25.5898 187.78 26.0073 187.265 26.0073C186.75 26.0073 186.333 25.5898 186.333 25.0748C186.333 24.5597 186.75 24.1422 187.265 24.1422C187.78 24.1422 188.198 24.5597 188.198 25.0748Z" fill="white"/>
<path fill-rule="evenodd" clip-rule="evenodd" d="M182.395 16.44V20.3084H186.333V16.44H182.395ZM182.326 14.5059C181.296 14.5059 180.461 15.3409 180.461 16.371V20.3775C180.461 21.4075 181.296 22.2426 182.326 22.2426H186.333C187.363 22.2426 188.198 21.4075 188.198 20.3775V16.371C188.198 15.3409 187.363 14.5059 186.333 14.5059L182.326 14.5059Z" fill="white"/>
<path d="M185.262 18.3397C185.262 18.8547 184.844 19.2722 184.329 19.2722C183.814 19.2722 183.397 18.8547 183.397 18.3397C183.397 17.8246 183.814 17.4071 184.329 17.4071C184.844 17.4071 185.262 17.8246 185.262 18.3397Z" fill="white"/>
<path fill-rule="evenodd" clip-rule="evenodd" d="M172.724 26.1109V29.9793H176.662V26.1109H172.724ZM172.655 24.1768C171.625 24.1768 170.79 25.0118 170.79 26.0419V30.0484C170.79 31.0785 171.625 31.9135 172.655 31.9135H176.662C177.692 31.9135 178.527 31.0785 178.527 30.0484V26.0419C178.527 25.0118 177.692 24.1768 176.662 24.1768H172.655Z" fill="white"/>
<path d="M175.591 28.0106C175.591 28.5256 175.173 28.9431 174.658 28.9431C174.143 28.9431 173.726 28.5256 173.726 28.0106C173.726 27.4956 174.143 27.078 174.658 27.078C175.173 27.078 175.591 27.4956 175.591 28.0106Z" fill="white"/>
<path d="M60.7307 23.8741L89.6272 24.3123C90.2499 24.3123 90.9358 24.1857 91.5002 23.8109C92.7504 23.1245 93.6844 22.1266 94.3703 20.8123C95.679 18.3784 95.679 15.4431 94.4968 13.0043C92.9352 9.75749 89.8802 8.32149 84.9474 9.07113C83.7604 5.8243 81.7026 3.76035 78.7059 3.20055C78.2048 3.07399 77.7086 3.07399 77.1443 3.13727C74.5855 3.44881 72.7126 4.76312 71.5256 7.19702C70.4018 6.94877 69.3413 6.8222 68.344 6.88549C66.4711 7.01205 64.8512 8.19493 64.1604 9.94734C63.7225 11.0718 63.6009 12.1963 63.849 13.384C61.6648 13.199 59.9183 13.7588 58.5416 15.3847C57.5443 16.5724 57.1065 18.135 57.2914 19.6927C57.5395 21.6301 58.2254 23.0028 59.6021 23.6259C59.9767 23.8109 60.3513 23.8741 60.7259 23.8741H60.7307Z" fill="#E8E8E8"/>
<path d="M113.658 29.4963L131.195 29.7445C131.57 29.7445 131.944 29.6812 132.319 29.433C133.068 28.9949 133.627 28.3718 134.065 27.6222C134.878 26.1229 134.878 24.3753 134.128 22.8761C133.194 20.8754 131.321 20.004 128.325 20.5006C127.576 18.4999 126.325 17.317 124.516 16.9422C124.204 16.8789 123.893 16.8789 123.582 16.8789C122.02 17.0639 120.896 17.8768 120.147 19.3128C119.461 19.1278 118.838 19.0646 118.211 19.1278C117.087 19.1911 116.09 19.9408 115.652 21.0019C115.404 21.6883 115.278 22.3747 115.467 23.061C114.159 22.9345 113.035 23.3093 112.286 24.2488C111.663 24.9984 111.41 25.933 111.537 26.8725C111.663 28.0603 112.096 28.8732 112.908 29.3064C113.22 29.433 113.409 29.4914 113.658 29.4914V29.4963Z" fill="#E8E8E8"/>
<path d="M102.429 13.8799L114.727 14.0649C114.975 14.0649 115.286 14.0016 115.539 13.8799C116.041 13.5684 116.473 13.1303 116.726 12.6289C117.286 11.5677 117.286 10.3799 116.79 9.31876C116.167 7.94603 114.854 7.31808 112.732 7.63449C112.231 6.26177 111.361 5.38556 110.047 5.1373C109.862 5.07402 109.609 5.07402 109.424 5.1373C108.301 5.26387 107.552 5.82367 107.05 6.88485C106.549 6.75829 106.116 6.69987 105.679 6.75829C104.866 6.82157 104.18 7.31808 103.932 8.06773C103.747 8.56911 103.684 9.00235 103.806 9.50373C102.872 9.44045 102.123 9.68871 101.558 10.3167C101.12 10.818 100.936 11.5044 101.057 12.1275C101.184 12.9404 101.432 13.5635 102.054 13.8117C102.118 13.8117 102.239 13.875 102.429 13.875V13.8799Z" fill="#E8E8E8"/>
<path d="M88.2628 37.8876L103.358 38.1164C103.665 38.1164 104.049 38.0385 104.355 37.8876C104.968 37.5031 105.503 36.9676 105.81 36.3543C106.501 35.0497 106.501 33.5942 105.888 32.2897C105.119 30.6005 103.514 29.8363 100.906 30.2208C100.293 28.5317 99.2182 27.4608 97.6128 27.1541C97.3842 27.0762 97.0777 27.0762 96.8442 27.1541C95.4626 27.3099 94.5432 27.9962 93.9302 29.3008C93.3173 29.1451 92.7822 29.072 92.2422 29.1451C91.2449 29.2229 90.4033 29.8363 90.0968 30.7563C89.8682 31.3696 89.7903 31.9051 89.9412 32.5184C88.7931 32.4406 87.8736 32.7472 87.1828 33.5163C86.6477 34.1297 86.4142 34.9718 86.5699 35.7409C86.7256 36.7388 87.032 37.5031 87.7958 37.8098C87.8736 37.8098 88.0244 37.8876 88.2579 37.8876H88.2628Z" fill="#E8E8E8"/>
<path d="M132.685 163.244C205.965 163.244 265.37 157.839 265.37 151.172C265.37 144.505 205.965 139.1 132.685 139.1C59.405 139.1 0 144.505 0 151.172C0 157.839 59.405 163.244 132.685 163.244Z" fill="#F3F3F3"/>
<g opacity="0.54">
<path d="M74.94 125.674L33.2695 156.098H134.822L94.0793 125.674H74.94Z" fill="#E6E6E6"/>
<path d="M59.8936 144.054H59.5052C58.6587 144.054 57.9629 143.358 57.9629 142.511V134.557C57.9629 133.71 58.6587 133.014 59.5052 133.014H59.8936C60.7401 133.014 61.4359 133.71 61.4359 134.557V142.511C61.4359 143.358 60.7401 144.054 59.8936 144.054Z" fill="#1A1A1A"/>
<path d="M106.888 144.054H106.499C105.653 144.054 104.957 143.358 104.957 142.511V134.557C104.957 133.71 105.653 133.014 106.499 133.014H106.888C107.734 133.014 108.43 133.71 108.43 134.557V142.511C108.43 143.358 107.734 144.054 106.888 144.054Z" fill="#1A1A1A"/>
<path d="M82.5796 98.4169H67.7656V66.6816H82.5796V98.4169ZM68.8441 97.3378H81.5012V67.842H68.8441V97.3378Z" fill="#3F3D3D"/>
<path d="M67.3791 98.4169H58.3516V66.6816H67.3791V98.4169ZM59.43 97.3378H66.3007V67.842H59.43V97.3378Z" fill="#3F3D3D"/>
<path d="M107.817 98.4169H98.4014V66.6816H107.817V98.4169ZM99.561 97.3378H106.658V67.842H99.561V97.3378Z" fill="#3F3D3D"/>
<path d="M58.4266 98.4169L55.1855 97.9528V67.2966L58.3513 66.6816L58.4266 98.4169ZM56.3452 97.0245L57.2728 97.1812L57.1975 68.1495L56.351 68.3061V97.0303L56.3452 97.0245Z" fill="#3F3D3D"/>
<path d="M107.891 98.4924L107.734 66.6816L110.9 67.3778V98.034L107.891 98.4982V98.4924ZM108.819 68.0682L108.975 97.1L109.671 96.9433V68.1437L108.824 68.0682H108.819Z" fill="#3F3D3D"/>
<path d="M98.168 98.4169H83.1221V66.6816H98.168V98.4169ZM84.2005 97.3378H97.0084V67.842H84.2005V97.3378Z" fill="#3F3D3D"/>
<path d="M55.188 97.8789L58.3537 98.343L89.5297 98.4997H107.898L109.672 98.1922L110.832 97.8847L111.446 131.395C111.446 131.935 111.058 132.324 110.519 132.324L55.8837 132.167C55.4199 132.167 54.9561 131.778 54.9561 131.239L55.188 97.8789Z" fill="#EF001A"/>
<path d="M54.9566 128.842L58.1223 128.999L89.7622 129.074L108.374 128.97L110.206 128.836L111.4 128.691L111.916 139.419C111.916 139.575 111.528 139.726 110.989 139.726L55.6582 139.651C55.1189 139.651 54.7305 139.494 54.7305 139.343L54.9624 128.842H54.9566Z" fill="#B2B2B2"/>
<path d="M82.9639 116.641C85.564 116.641 87.6719 114.532 87.6719 111.93C87.6719 109.328 85.564 107.219 82.9639 107.219C80.3637 107.219 78.2559 109.328 78.2559 111.93C78.2559 114.532 80.3637 116.641 82.9639 116.641Z" fill="#1A1A1A"/>
<path d="M82.963 114.785C84.5384 114.785 85.8156 113.507 85.8156 111.931C85.8156 110.354 84.5384 109.076 82.963 109.076C81.3875 109.076 80.1104 110.354 80.1104 111.931C80.1104 113.507 81.3875 114.785 82.963 114.785Z" fill="#EFEFEF"/>
<path d="M55.1855 67.3728L58.2701 66.6824H107.733L110.823 67.3728V66.7578L107.814 64.5938L58.1947 64.7504L55.1855 66.6011V67.3728Z" fill="#B2B2B2"/>
<path d="M58.1946 64.7511V62.1229H55.7246V53.8613H63.9056V62.0475H61.8995V64.7511H58.1946Z" fill="#3F3D3D"/>
<path d="M59.9681 61.74C61.8862 61.74 63.4412 60.1503 63.4412 58.1893C63.4412 56.2283 61.8862 54.6387 59.9681 54.6387C58.05 54.6387 56.4951 56.2283 56.4951 58.1893C56.4951 60.1503 58.05 61.74 59.9681 61.74Z" fill="#6B6A68"/>
<path d="M59.9693 60.8935C61.4199 60.8935 62.5958 59.6831 62.5958 58.1899C62.5958 56.6968 61.4199 55.4863 59.9693 55.4863C58.5187 55.4863 57.3428 56.6968 57.3428 58.1899C57.3428 59.6831 58.5187 60.8935 59.9693 60.8935Z" fill="#ED6478"/>
<path d="M104.113 64.593V61.9706H101.643V53.709H109.899V61.8952H107.817V64.593H104.113Z" fill="#3F3D3D"/>
<path d="M105.812 61.2751C107.73 61.2751 109.285 59.6854 109.285 57.7245C109.285 55.7635 107.73 54.1738 105.812 54.1738C103.894 54.1738 102.339 55.7635 102.339 57.7245C102.339 59.6854 103.894 61.2751 105.812 61.2751Z" fill="#6B6A68"/>
<path d="M105.809 60.4267C107.26 60.4267 108.436 59.2163 108.436 57.7231C108.436 56.23 107.26 55.0195 105.809 55.0195C104.359 55.0195 103.183 56.23 103.183 57.7231C103.183 59.2163 104.359 60.4267 105.809 60.4267Z" fill="#ED6478"/>
<path d="M101.713 62.0468H63.9043V53.8606H78.179C77.4079 50.3854 77.8718 47.9139 80.2605 46.8348C81.1071 46.4461 82.1101 46.3707 83.0378 46.4461C86.5108 46.8348 87.6704 49.3005 86.8181 53.6286L101.632 53.704L101.707 62.041L101.713 62.0468Z" fill="#C1272D"/>
<path d="M67.2981 56.9532V59.9643H66.8343V56.9532H65.7559V56.5645H68.4577V56.9532H67.2981Z" fill="#F9F9F9"/>
<path d="M70.3906 59.9635L70.1586 59.2673H68.8483L68.6164 59.9635H68.0771L69.4687 56.4883H69.6252L70.9356 59.9635H70.3964H70.3906ZM69.4629 57.4166L68.9237 58.9598H69.9267L69.4629 57.4166Z" fill="#F9F9F9"/>
<path d="M73.0919 59.9643L72.0888 58.421L71.625 59.036V59.9643H71.1611V56.5645H71.625V58.4152L72.9353 56.5645H73.4745L72.4715 58.0323L73.6311 59.9643H73.0919Z" fill="#F9F9F9"/>
<path d="M73.8594 59.8068L74.0159 59.3427C74.0913 59.4181 74.2478 59.4993 74.3232 59.4993C74.4798 59.5747 74.5551 59.5747 74.7117 59.5747C74.8682 59.5747 75.019 59.4993 75.1755 59.4181C75.2509 59.3427 75.3321 59.186 75.3321 59.0294C75.3321 58.9539 75.3321 58.7973 75.2567 58.7219C75.1813 58.6465 75.0248 58.4898 74.7929 58.4144L74.4856 58.2577C74.2536 58.1823 74.0971 58.0257 74.0217 57.869C73.9463 57.7124 73.8652 57.5615 73.8652 57.3295C73.8652 57.0974 73.9406 56.8653 74.1725 56.7145C74.4044 56.5578 74.5609 56.4824 74.8682 56.4824C75.2567 56.4824 75.4828 56.5578 75.6394 56.6391L75.4828 57.0278C75.4075 56.9524 75.3263 56.9524 75.1755 56.8711C75.0248 56.7899 74.9436 56.7957 74.7871 56.7957C74.6305 56.7957 74.4798 56.8711 74.3986 56.9524C74.3174 57.0336 74.242 57.1844 74.242 57.3411C74.242 57.4165 74.242 57.4977 74.3174 57.5731C74.3174 57.6486 74.3928 57.7298 74.474 57.7298C74.5493 57.8052 74.6305 57.8864 74.8624 57.9619L75.1697 58.1185C75.4017 58.1939 75.5582 58.3506 75.6336 58.5072C75.7089 58.6639 75.7901 58.8959 75.7901 59.1222C75.7901 59.3485 75.7147 59.5863 75.4828 59.7372C75.2509 59.8938 75.019 59.9692 74.6363 59.9692C74.329 60.0447 74.0971 59.9692 73.8652 59.8126L73.8594 59.8068Z" fill="#F9F9F9"/>
<path d="M76.6364 55.7168C76.7118 55.7168 76.7929 55.7168 76.8683 55.7922C76.9437 55.8676 76.9437 55.9489 76.9437 56.0243C76.9437 56.0997 76.9437 56.1809 76.8683 56.2564C76.7929 56.3318 76.7118 56.3318 76.6364 56.3318C76.561 56.3318 76.4798 56.3318 76.4045 56.2564C76.3291 56.1809 76.3291 56.0997 76.3291 56.0243C76.3291 55.9489 76.3291 55.8676 76.4045 55.7922C76.4798 55.7168 76.561 55.7168 76.6364 55.7168ZM76.4045 59.9636V56.5638H76.8683V59.9636H76.4045Z" fill="#F9F9F9"/>
<path d="M80.1867 59.9643L79.7982 57.7248L79.0271 59.9643H78.8705L78.0994 57.7248L77.7109 59.9643H77.2471L77.8617 56.5645H78.0936L78.9401 59.036L79.7112 56.5645H79.9432L80.6389 59.9643H80.1751H80.1867Z" fill="#F9F9F9"/>
<path d="M82.501 58.8028V58.4141H83.504V58.8028H82.501Z" fill="#F9F9F9"/>
<path d="M86.8235 56.9532V59.9643H86.3597V56.9532H85.2812V56.5645H87.9831V56.9532H86.8235Z" fill="#F9F9F9"/>
<path d="M88.3682 56.5638H88.832V58.8787C88.832 59.1108 88.9074 59.2674 89.0639 59.4183C89.2205 59.5691 89.3712 59.6503 89.6031 59.6503C89.8351 59.6503 89.9916 59.5749 90.1424 59.4183C90.2989 59.2616 90.3743 59.1108 90.3743 58.8787V56.5638H90.8381V58.9599C90.8381 59.2674 90.7627 59.5749 90.5308 59.807C90.2989 60.0391 89.9916 60.1145 89.6843 60.1145C89.2959 60.1145 88.9886 60.0391 88.8378 59.807C88.6059 59.6504 88.5305 59.3429 88.5305 58.9599V56.5638H88.374H88.3682ZM88.9828 55.7168C89.0581 55.7168 89.1393 55.7168 89.1393 55.7922C89.1896 55.8425 89.2147 55.8947 89.2147 55.9489C89.2147 56.0243 89.2147 56.1055 89.1393 56.1055C89.0891 56.1558 89.0369 56.1809 88.9828 56.1809C88.9074 56.1809 88.8262 56.1809 88.8262 56.1055C88.776 56.0552 88.7508 56.003 88.7508 55.9489C88.7508 55.8734 88.7508 55.7922 88.8262 55.7922C88.8262 55.7922 88.9016 55.7168 88.9828 55.7168ZM90.0612 55.7168C90.1366 55.7168 90.2177 55.7168 90.2177 55.7922C90.268 55.8425 90.2931 55.8947 90.2931 55.9489C90.2931 56.0243 90.2931 56.1055 90.2177 56.1055C90.1675 56.1558 90.1153 56.1809 90.0612 56.1809C89.9858 56.1809 89.9046 56.1809 89.9046 56.1055C89.9046 56.0301 89.8293 56.0301 89.8293 55.9489C89.8293 55.8676 89.8293 55.7922 89.9046 55.7922C89.9046 55.7922 89.98 55.7168 90.0612 55.7168Z" fill="#F9F9F9"/>
<path d="M93.6902 60.0385L91.916 57.5669V60.0385H91.4521V56.6387H91.6087L93.3075 59.0348V56.6387H93.7714V60.1139H93.696V60.0385H93.6902Z" fill="#F9F9F9"/>
<path d="M95 56.9525V57.8807H96.1596V58.2695H95V59.5052H96.5423V59.8939H94.5361V56.4941H96.6176V56.8829L95 56.9583V56.9525Z" fill="#F9F9F9"/>
<path d="M97.0908 59.9643V56.5645H97.5547V59.5755H99.0969V59.9643H97.0908Z" fill="#F9F9F9"/>
<path d="M83.0397 51.3887V52.317H82.4251V51.3887H80.8828V51L82.7324 48.8359H82.9643V50.9188H83.2716V51.3829H83.0397V51.3887ZM82.4251 49.9209L81.5786 50.9246H82.4251V49.9209Z" fill="#F9F9F9"/>
<path d="M99.7088 127.913H66.3701V101.428C66.3701 100.581 67.0659 99.8848 67.9124 99.8848H98.1607C99.0072 99.8848 99.703 100.581 99.703 101.428V127.913H99.7088ZM67.1471 127.141H98.8623V101.428C98.8623 101.039 98.555 100.732 98.0911 100.732H67.9182C67.5297 100.732 67.2224 101.039 67.2224 101.428L67.1471 127.141Z" fill="white"/>
<path d="M59.8134 128.528C58.0392 128.528 56.265 128.296 54.6416 127.913L54.8735 127.141C57.9581 127.913 61.3557 127.988 65.0607 127.217V101.503C65.0607 101.271 64.9853 101.115 64.8287 100.964C64.6722 100.813 64.5214 100.732 64.2895 100.732C62.208 100.807 59.2742 100.807 55.4939 100.656H55.1866V99.8848H55.4939C59.1989 100.041 62.1327 100.041 64.2141 99.9602C64.6026 99.9602 65.0607 100.117 65.3738 100.349C65.681 100.656 65.8376 101.045 65.8376 101.428V127.837L65.5303 127.913C63.5242 128.301 61.5934 128.528 59.8192 128.528H59.8134Z" fill="white"/>
<path d="M106.345 128.529C104.57 128.529 102.64 128.297 100.633 127.914L100.326 127.838V101.51C100.326 101.121 100.483 100.663 100.79 100.431C101.097 100.123 101.486 99.9668 101.95 100.042C104.031 100.118 106.965 100.118 110.67 99.9668H110.977V100.738H110.67C106.965 100.895 103.956 100.895 101.874 100.814C101.642 100.814 101.486 100.889 101.335 101.046C101.178 101.203 101.103 101.353 101.103 101.585V127.299C104.808 128.07 108.2 128.07 111.29 127.223L111.522 127.995C109.905 128.302 108.125 128.534 106.35 128.534L106.345 128.529Z" fill="white"/>
<path d="M54.9932 128.843V125.675C65.8703 121.428 75.0427 120.425 83.6064 120.5C90.9352 120.5 101.256 123.204 111.362 126.679L111.396 128.686C90.4191 131.233 73.3497 129.841 54.9932 128.837V128.843Z" fill="#C1272D"/>
<path d="M73.9363 108.147C75.1723 108.147 76.1743 107.144 76.1743 105.907C76.1743 104.671 75.1723 103.668 73.9363 103.668C72.7002 103.668 71.6982 104.671 71.6982 105.907C71.6982 107.144 72.7002 108.147 73.9363 108.147Z" fill="#1A1A1A"/>
<path d="M73.9332 107.143C74.6153 107.143 75.1682 106.59 75.1682 105.908C75.1682 105.225 74.6153 104.672 73.9332 104.672C73.2512 104.672 72.6982 105.225 72.6982 105.908C72.6982 106.59 73.2512 107.143 73.9332 107.143Z" fill="#EFEFEF"/>
<path d="M92.1472 108.147C93.3833 108.147 94.3853 107.144 94.3853 105.907C94.3853 104.671 93.3833 103.668 92.1472 103.668C90.9112 103.668 89.9092 104.671 89.9092 105.907C89.9092 107.144 90.9112 108.147 92.1472 108.147Z" fill="#1A1A1A"/>
<path d="M92.1442 107.143C92.8262 107.143 93.3791 106.59 93.3791 105.908C93.3791 105.225 92.8262 104.672 92.1442 104.672C91.4621 104.672 90.9092 105.225 90.9092 105.908C90.9092 106.59 91.4621 107.143 92.1442 107.143Z" fill="#EFEFEF"/>
</g>
<path fill-rule="evenodd" clip-rule="evenodd" d="M220.388 118.124C221.756 118.845 222.187 120.572 221.466 121.942L211.684 139.435C211.178 140.298 210.247 140.872 209.236 140.872H162.758C161.248 140.872 159.953 139.651 159.953 138.065C159.953 136.48 161.174 135.259 162.758 135.259H207.584L216.578 119.203C217.367 117.834 219.025 117.334 220.394 118.124H220.388Z" fill="#3DBCC8"/>
<path fill-rule="evenodd" clip-rule="evenodd" d="M149.656 142.894C151.961 142.894 153.829 141.025 153.829 138.719C153.829 136.412 151.961 134.543 149.656 134.543C147.35 134.543 145.483 136.412 145.483 138.719C145.483 141.025 147.35 142.894 149.656 142.894ZM149.656 148.507C155.049 148.507 159.438 144.116 159.438 138.719C159.438 133.321 155.049 128.93 149.656 128.93C144.262 128.93 139.873 133.321 139.873 138.719C139.873 144.116 144.262 148.507 149.656 148.507Z" fill="#20505A"/>
<path fill-rule="evenodd" clip-rule="evenodd" d="M229.448 142.894C231.753 142.894 233.621 141.025 233.621 138.719C233.621 136.412 231.753 134.543 229.448 134.543C227.142 134.543 225.275 136.412 225.275 138.719C225.275 141.025 227.142 142.894 229.448 142.894ZM229.448 148.507C234.841 148.507 239.23 144.116 239.23 138.719C239.23 133.321 234.841 128.93 229.448 128.93C224.054 128.93 219.665 133.321 219.665 138.719C219.739 144.116 224.054 148.507 229.448 148.507Z" fill="#20505A"/>
<path fill-rule="evenodd" clip-rule="evenodd" d="M208.943 84.0009C210.312 83.3532 212.038 83.9269 212.685 85.3702L213.979 88.1767C214.627 89.5461 214.053 91.2731 212.611 91.9208C211.243 92.5685 209.517 91.9948 208.869 90.5515L207.575 87.745C206.928 86.3078 207.575 84.6485 208.943 84.0009Z" fill="#20505A"/>
<path fill-rule="evenodd" clip-rule="evenodd" d="M213.902 111.399L219.801 126.443C220.158 127.307 220.953 128.46 221.669 128.966C222.673 129.688 223.684 129.83 224.905 129.108C226.273 128.103 225.842 125.222 224.831 122.915L223.536 120.035L213.895 96.4907L205.82 75.8027L201.518 77.9863L213.895 111.393L213.902 111.399Z" fill="#65C8D0"/>
<path fill-rule="evenodd" clip-rule="evenodd" d="M201.535 78.0232L196.498 64.1263C196.856 64.1263 194.698 64.0523 193.478 64.6321C192.831 64.922 191.172 65.8534 190.889 65.7116C190.026 65.2798 189.379 64.6321 189.305 63.5527C189.305 62.4733 190.026 61.9675 190.889 61.7516L196.862 61.2458L196.646 60.0924L192.183 60.4501L192.042 59.7284L198.231 59.2227L198.804 61.7454C199.883 61.8873 200.887 62.2512 201.467 63.5465L205.856 75.8582L201.541 78.017L201.535 78.0232Z" fill="#1A1A1A"/>
<g opacity="0.96">
<path d="M212.682 99.26C212.466 99.3341 212.324 99.4759 212.176 99.6178L211.671 98.3965L211.023 98.6864L211.96 101.061C212.25 101.709 212.965 101.999 213.686 101.709C214.334 101.419 214.691 100.629 214.408 99.9817C214.118 99.334 213.329 99.0441 212.682 99.26ZM213.403 101.061C213.113 101.203 212.756 101.061 212.614 100.703C212.472 100.346 212.614 100.056 212.971 99.9139C213.261 99.772 213.619 99.9139 213.76 100.272C213.902 100.629 213.686 100.919 213.403 101.061Z" fill="white"/>
<path d="M215.638 106.533C214.991 106.823 214.633 107.538 214.917 108.186L215.422 109.407L216.069 109.117L215.564 107.896C215.422 107.606 215.564 107.248 215.854 107.174C216.143 107.032 216.501 107.174 216.575 107.464L217.08 108.685L217.728 108.395L217.222 107.174C217.006 106.527 216.285 106.237 215.638 106.527V106.533Z" fill="white"/>
<path d="M214.411 103.51C214.195 103.584 214.121 103.8 214.195 104.016L214.984 106.033L215.705 105.743L214.842 103.726C214.768 103.51 214.552 103.436 214.411 103.51Z" fill="white"/>
<path d="M214.125 103.295C214.404 103.295 214.63 103.068 214.63 102.789C214.63 102.51 214.404 102.283 214.125 102.283C213.845 102.283 213.619 102.51 213.619 102.789C213.619 103.068 213.845 103.295 214.125 103.295Z" fill="white"/>
<path d="M207.936 87.596C207.72 87.67 207.578 87.8118 207.43 87.9537L206.925 86.7324L206.277 87.0223L207.214 89.3971C207.504 90.0447 208.219 90.3346 208.94 90.0447C209.588 89.7548 209.945 88.9653 209.662 88.3176C209.378 87.67 208.583 87.3801 207.936 87.596ZM208.657 89.3971C208.367 89.5389 208.009 89.3971 207.868 89.0393C207.726 88.6816 207.868 88.3917 208.225 88.2498C208.515 88.1079 208.872 88.2498 209.014 88.6075C209.156 88.9653 208.94 89.2552 208.657 89.3971Z" fill="white"/>
<path d="M210.88 94.8678C210.233 95.1577 209.875 95.8732 210.159 96.5209L210.664 97.7422L211.312 97.4523L210.806 96.231C210.664 95.9411 210.806 95.5833 211.096 95.5093C211.386 95.3674 211.743 95.5093 211.817 95.7992L212.322 97.0205L212.97 96.7306L212.464 95.5093C212.322 94.9357 211.527 94.5718 210.88 94.8617V94.8678Z" fill="white"/>
<path d="M209.661 91.8462C209.445 91.9202 209.371 92.1361 209.445 92.352L210.234 94.369L210.955 94.0791L210.092 92.0621C210.018 91.8462 209.802 91.7722 209.661 91.8462Z" fill="white"/>
<path d="M209.371 91.6307C209.65 91.6307 209.876 91.4043 209.876 91.1249C209.876 90.8456 209.65 90.6191 209.371 90.6191C209.092 90.6191 208.865 90.8456 208.865 91.1249C208.865 91.4043 209.092 91.6307 209.371 91.6307Z" fill="white"/>
</g>
<path d="M143.207 58.8397C143.515 61.1836 153.501 73.7049 159.111 74.1367C159.172 74.1367 159.296 74.1984 159.419 74.1984C159.851 74.1984 160.282 74.075 160.59 73.8283C162.563 72.5947 170.761 67.2284 173.535 64.0209L173.042 60.7518C168.789 62.2322 159.357 67.9686 159.357 67.9686C159.357 67.9686 158.926 68.0919 158.803 67.9069C151.406 60.9369 148.077 58.4079 145.611 56.6191L143.207 58.8397Z" fill="#D8A988"/>
<path d="M129.209 142.479C129.579 143.528 128.839 147.352 128.839 148.647C129.64 149.758 131.674 148.894 131.921 147.722C131.921 147.599 132.044 147.537 132.044 147.29C131.798 146.55 132.291 143.774 132.907 142.232L129.209 142.479Z" fill="#F9AC91"/>
<path d="M141.604 144.207C141.912 145.256 140.988 147.846 140.864 149.08C141.604 150.252 143.7 149.45 143.946 148.278C144.008 148.155 144.07 148.093 144.131 147.846C143.823 147.045 144.501 144.762 145.303 143.344L141.604 144.207Z" fill="#F9AC91"/>
<path d="M141.48 84.1914H149.063C152.884 95.6025 153.994 108.617 151.713 121.447C151.528 122.434 151.282 123.421 150.973 124.346L148.446 144.269C146.535 145.071 140.864 144.516 138.953 144.023C141.48 136.682 142.96 130.083 143.576 122.927C143.823 121.817 143.823 119.473 143.823 119.473C144.563 108.432 142.035 86.9671 141.48 84.1914Z" fill="#131851"/>
<path d="M135.317 144.084C132.729 144.824 129.153 143.591 127.181 142.789L132.112 120.583C132.174 120.152 132.174 119.72 132.174 119.288L130.386 92.6416C130.324 92.0248 130.386 91.3463 130.448 90.7295C130.756 88.3856 131.372 85.0548 132.297 83.8828H142.221C145.057 97.0827 144.564 108.37 143.454 114.724C143.331 115.279 142.838 121.447 142.16 123.236L135.317 144.084Z" fill="#131851"/>
<path d="M149.064 84.3149L132.236 84.5616L132.112 83.8215L148.941 83.7598L149.064 84.3149Z" fill="#0E0E38"/>
<path d="M136.368 40.1504L142.162 40.7055C140.498 43.3578 139.203 45.7017 141.114 47.5522L135.566 47.0587C137.477 45.7634 137.231 42.6177 136.368 40.1504Z" fill="#EDBD98"/>
<path d="M142.157 29.2324C142.157 29.2324 144.377 31.9464 143.883 33.8585C143.822 34.167 143.76 34.4137 143.699 34.5987C143.452 35.709 143.452 35.6473 144.623 36.2024C145.24 36.5109 144.685 37.066 144.377 37.3127C144.192 37.4361 144.068 37.6828 144.13 37.8678C144.13 38.1146 144.192 38.3613 144.192 38.3613C144.192 38.423 144.438 39.1015 143.76 39.1015C140.555 39.1632 143.205 39.1015 143.945 39.3482C143.945 39.3482 144.253 39.5332 144.192 39.6566C144.13 39.8417 143.883 40.0267 143.822 40.2734C143.76 40.5202 143.699 41.2603 143.575 41.5687C143.452 41.8771 141.541 42.4323 140.431 42.1239C139.568 41.9388 138.397 41.6304 137.904 41.5687C137.719 41.5687 137.473 41.137 137.349 41.0136C137.103 40.8286 136.486 40.6435 135.993 40.3351C135.007 39.7183 135.87 39.4099 135.932 38.9781C135.993 38.608 136.116 37.8678 135.993 37.6211C135.87 37.4361 135.069 36.4492 134.884 36.0174C134.637 35.3389 135.069 34.2286 135.377 33.8585C135.685 33.4885 136.363 33.2417 136.795 33.6118C137.164 33.8585 137.534 33.8585 137.719 33.5501C137.904 33.18 140.062 30.4661 140.493 30.2193C140.74 30.0343 142.157 29.2324 142.157 29.2324Z" fill="#EDBD98"/>
<path d="M144.195 30.8361C144.072 31.1445 143.948 31.3913 143.763 31.638C143.517 32.0698 143.085 32.3782 142.654 32.5632C141.236 33.18 139.941 33.7352 138.647 33.6118C138.092 33.5501 137.599 33.8585 137.414 34.4137C137.229 34.9071 136.921 35.2155 136.613 35.5856C136.058 36.1407 135.873 37.0043 136.181 37.8061C136.551 38.8547 136.181 39.4715 135.75 40.3968C135.503 40.7052 135.195 40.7669 134.764 40.5818C132.853 39.5949 131.681 37.5594 131.25 35.1538C130.572 32.995 130.88 32.3782 131.312 31.3913C131.435 31.0828 131.681 30.8361 131.866 30.5894C132.791 29.6025 133.592 28.3689 134.455 27.752C135.195 27.2586 135.935 26.8885 136.859 26.5801C138.277 26.0866 139.818 26.2717 141.051 27.0119C142.407 27.8137 143.64 28.924 144.133 29.8492C144.318 30.1576 144.318 30.5277 144.195 30.8361Z" fill="#42210B"/>
<path d="M136.511 35.6972C136.388 35.4505 136.203 35.2655 136.018 35.2038C135.926 35.1791 135.833 35.1853 135.772 35.2038C135.217 35.4505 135.075 35.8638 135.34 36.4374L135.371 36.4991C135.741 37.1344 135.957 37.1776 136.45 37.4243L136.511 35.6972Z" fill="#ECBC97"/>
<path d="M128.717 146.367C129.95 146.922 131.183 146.922 132.416 146.182C132.478 146.12 132.539 146.182 132.601 146.243C133.279 147.539 134.019 149.204 135.19 150.191C136.361 150.993 137.84 151.61 139.443 152.042C139.628 152.103 139.875 152.165 140.06 152.165C140.861 152.165 141.477 152.288 141.97 152.535C142.032 152.597 142.155 152.597 142.217 152.658C142.587 152.843 142.71 153.214 142.772 153.645C142.772 153.954 142.649 154.2 142.402 154.324C141.107 155.064 139.443 155.434 137.409 155.372L133.649 154.879L127.793 154.385L127.115 154.139C126.991 154.077 126.93 154.015 126.93 153.83C126.93 152.843 127.115 151.857 127.484 150.746C127.608 150.438 127.854 150.006 127.978 149.698C128.471 148.834 128.594 147.662 128.594 146.367C128.594 146.367 128.656 146.305 128.717 146.367Z" fill="#F7931E"/>
<path d="M127.056 152.658C126.933 152.658 126.81 153.768 126.933 154.015C127.056 154.324 128.166 154.447 128.351 154.509C129.275 154.632 130.262 154.694 131.31 154.755L134.638 155.125C135.563 155.249 136.672 155.434 137.782 155.434C138.707 155.434 139.57 155.372 140.433 155.125C141.111 155.002 141.789 154.694 142.467 154.262L142.652 154.077C142.837 153.707 142.775 153.028 142.22 152.658C141.481 153.028 140.371 153.337 139.138 153.522C138.213 153.707 137.166 153.707 136.056 153.707C134.268 153.645 132.542 153.522 131.063 153.275C129.584 153.152 128.166 152.967 127.056 152.658Z" fill="#CE751D"/>
<path d="M139.816 152.103C139.692 152.658 139.754 153.09 140 153.399C140.863 153.275 141.603 153.029 142.22 152.658C141.603 152.227 140.802 152.042 139.816 152.103Z" fill="#F15A24"/>
<path d="M132.296 147.722C132.466 147.722 132.604 147.584 132.604 147.414C132.604 147.244 132.466 147.105 132.296 147.105C132.125 147.105 131.987 147.244 131.987 147.414C131.987 147.584 132.125 147.722 132.296 147.722Z" fill="#D8CDC3"/>
<path d="M132.792 148.834C132.962 148.834 133.1 148.696 133.1 148.525C133.1 148.355 132.962 148.217 132.792 148.217C132.621 148.217 132.483 148.355 132.483 148.525C132.483 148.696 132.621 148.834 132.792 148.834Z" fill="#D8CDC3"/>
<path d="M133.343 149.82C133.514 149.82 133.652 149.682 133.652 149.512C133.652 149.341 133.514 149.203 133.343 149.203C133.173 149.203 133.035 149.341 133.035 149.512C133.035 149.682 133.173 149.82 133.343 149.82Z" fill="#D8CDC3"/>
<path d="M134.084 150.808C134.254 150.808 134.392 150.67 134.392 150.5C134.392 150.329 134.254 150.191 134.084 150.191C133.913 150.191 133.775 150.329 133.775 150.5C133.775 150.67 133.913 150.808 134.084 150.808Z" fill="#D8CDC3"/>
<path d="M135.072 151.423C135.242 151.423 135.38 151.285 135.38 151.115C135.38 150.945 135.242 150.807 135.072 150.807C134.902 150.807 134.764 150.945 134.764 151.115C134.764 151.285 134.902 151.423 135.072 151.423Z" fill="#D8CDC3"/>
<path d="M136.116 151.98C136.286 151.98 136.424 151.842 136.424 151.672C136.424 151.501 136.286 151.363 136.116 151.363C135.946 151.363 135.808 151.501 135.808 151.672C135.808 151.842 135.946 151.98 136.116 151.98Z" fill="#D8CDC3"/>
<path d="M137.335 152.251C137.439 152.163 137.453 152.008 137.365 151.903C137.278 151.799 137.122 151.785 137.018 151.873C136.914 151.96 136.9 152.116 136.987 152.22C137.075 152.325 137.23 152.338 137.335 152.251Z" fill="#D8CDC3"/>
<path d="M138.565 152.547C138.632 152.429 138.59 152.278 138.472 152.211C138.353 152.144 138.203 152.186 138.136 152.305C138.069 152.423 138.111 152.574 138.229 152.641C138.348 152.708 138.498 152.666 138.565 152.547Z" fill="#D8CDC3"/>
<path d="M132.913 148.216C133.16 148.154 133.468 148.093 133.653 148.278C133.714 148.401 133.838 148.586 133.899 148.709C133.653 148.586 133.221 148.586 133.036 148.648C133.16 148.463 133.098 148.278 132.913 148.216Z" fill="#686461"/>
<path d="M133.405 149.204C133.59 149.081 134.022 149.019 134.268 149.081C134.33 149.204 134.453 149.266 134.515 149.389C134.207 149.328 133.837 149.451 133.652 149.513C133.652 149.389 133.59 149.266 133.405 149.204Z" fill="#686461"/>
<path d="M134.146 150.19C134.33 150.067 134.7 149.943 134.947 149.943L135.255 150.252C134.947 150.252 134.515 150.437 134.392 150.56C134.392 150.375 134.33 150.19 134.146 150.19Z" fill="#686461"/>
<path d="M135.067 150.808C135.191 150.623 135.499 150.5 135.745 150.5L136.115 150.685C135.807 150.747 135.437 150.993 135.314 151.117C135.314 151.055 135.314 150.87 135.067 150.808Z" fill="#686461"/>
<path d="M136.056 151.362C136.241 151.177 136.426 151.054 136.61 150.992C136.734 151.054 136.795 151.116 136.98 151.177C136.734 151.301 136.549 151.547 136.426 151.671C136.364 151.486 136.302 151.362 136.056 151.362Z" fill="#686461"/>
<path d="M137.104 151.856C137.288 151.671 137.473 151.486 137.658 151.424C137.782 151.486 137.843 151.486 138.028 151.547C137.782 151.671 137.535 151.979 137.412 152.041C137.412 151.979 137.288 151.856 137.104 151.856Z" fill="#686461"/>
<path d="M138.151 152.227C138.213 151.919 138.275 151.857 138.336 151.672C138.46 151.672 138.645 151.795 138.645 151.795C138.521 152.042 138.583 152.165 138.521 152.35C138.46 152.227 138.336 152.104 138.151 152.227Z" fill="#686461"/>
<path d="M132.42 147.106C132.666 147.045 132.851 146.983 133.098 147.106C133.221 147.23 133.283 147.415 133.283 147.538C132.975 147.415 132.79 147.415 132.605 147.476C132.605 147.291 132.543 147.168 132.42 147.106Z" fill="#686461"/>
<path d="M131.184 146.675V146.428C131.245 146.243 131.307 146.12 131.492 146.058C131.738 145.873 131.985 145.749 132.293 145.564C132.416 145.749 132.478 145.935 132.478 146.181C132.232 146.305 131.985 146.428 131.8 146.49C131.615 146.551 131.43 146.613 131.184 146.675Z" fill="#F15A24"/>
<path d="M140.922 146.982C142.155 147.537 143.388 147.537 144.621 146.797C144.683 146.735 144.744 146.797 144.806 146.859C145.484 148.154 146.224 149.819 147.395 150.806C148.566 151.608 150.046 152.225 151.648 152.657C151.833 152.718 152.08 152.78 152.265 152.78C153.066 152.78 153.682 152.904 154.176 153.15C154.237 153.212 154.36 153.212 154.422 153.274C154.792 153.459 154.915 153.829 154.977 154.261C154.977 154.569 154.854 154.816 154.607 154.939C153.313 155.679 151.648 156.049 149.614 155.988L145.854 155.494L139.998 155.001L139.32 154.754C139.196 154.692 139.135 154.631 139.135 154.446C139.135 153.459 139.32 152.472 139.69 151.361C139.813 151.053 140.059 150.621 140.183 150.313C140.676 149.449 140.799 148.277 140.799 146.982C140.799 146.982 140.861 146.92 140.922 146.982Z" fill="#F7931E"/>
<path d="M139.261 153.273C139.138 153.273 139.015 154.384 139.138 154.63C139.261 154.939 140.371 155.062 140.556 155.124C141.48 155.247 142.467 155.309 143.515 155.371L146.843 155.741C147.768 155.864 148.878 156.049 149.987 156.049C150.912 156.049 151.775 155.987 152.638 155.741C153.316 155.617 153.994 155.309 154.672 154.877L154.857 154.692C155.042 154.322 154.98 153.644 154.425 153.273C153.686 153.644 152.576 153.952 151.343 154.137C150.419 154.322 149.371 154.322 148.261 154.322C146.473 154.26 144.747 154.137 143.268 153.89C141.789 153.767 140.371 153.582 139.261 153.273Z" fill="#CE751D"/>
<path d="M152.021 152.719C151.897 153.274 151.959 153.705 152.206 154.014C153.069 153.891 153.808 153.644 154.425 153.274C153.808 152.842 153.007 152.657 152.021 152.719Z" fill="#F15A24"/>
<path d="M144.501 148.339C144.671 148.339 144.809 148.201 144.809 148.031C144.809 147.861 144.671 147.723 144.501 147.723C144.33 147.723 144.192 147.861 144.192 148.031C144.192 148.201 144.33 148.339 144.501 148.339Z" fill="#D8CDC3"/>
<path d="M145.055 149.451C145.226 149.451 145.363 149.313 145.363 149.142C145.363 148.972 145.226 148.834 145.055 148.834C144.885 148.834 144.747 148.972 144.747 149.142C144.747 149.313 144.885 149.451 145.055 149.451Z" fill="#D8CDC3"/>
<path d="M145.548 150.437C145.719 150.437 145.857 150.299 145.857 150.129C145.857 149.958 145.719 149.82 145.548 149.82C145.378 149.82 145.24 149.958 145.24 150.129C145.24 150.299 145.378 150.437 145.548 150.437Z" fill="#D8CDC3"/>
<path d="M146.289 151.363C146.459 151.363 146.597 151.225 146.597 151.055C146.597 150.884 146.459 150.746 146.289 150.746C146.118 150.746 145.98 150.884 145.98 151.055C145.98 151.225 146.118 151.363 146.289 151.363Z" fill="#D8CDC3"/>
<path d="M147.277 152.041C147.447 152.041 147.585 151.903 147.585 151.732C147.585 151.562 147.447 151.424 147.277 151.424C147.107 151.424 146.969 151.562 146.969 151.732C146.969 151.903 147.107 152.041 147.277 152.041Z" fill="#D8CDC3"/>
<path d="M148.321 152.535C148.491 152.535 148.629 152.397 148.629 152.226C148.629 152.056 148.491 151.918 148.321 151.918C148.151 151.918 148.013 152.056 148.013 152.226C148.013 152.397 148.151 152.535 148.321 152.535Z" fill="#D8CDC3"/>
<path d="M149.54 152.882C149.644 152.794 149.658 152.639 149.571 152.534C149.483 152.43 149.328 152.416 149.223 152.504C149.119 152.591 149.105 152.747 149.193 152.851C149.28 152.956 149.436 152.969 149.54 152.882Z" fill="#D8CDC3"/>
<path d="M150.829 153.129C150.896 153.011 150.854 152.86 150.735 152.793C150.617 152.726 150.467 152.768 150.4 152.887C150.333 153.005 150.374 153.156 150.493 153.223C150.612 153.29 150.762 153.248 150.829 153.129Z" fill="#D8CDC3"/>
<path d="M145.117 148.833C145.364 148.771 145.672 148.71 145.857 148.895C145.919 149.018 146.042 149.203 146.103 149.327C145.857 149.203 145.425 149.203 145.24 149.265C145.364 149.018 145.302 148.895 145.117 148.833Z" fill="#686461"/>
<path d="M145.61 149.819C145.795 149.696 146.227 149.634 146.473 149.696C146.535 149.819 146.658 149.881 146.72 150.004C146.412 149.943 146.042 150.066 145.857 150.128C145.857 150.004 145.795 149.881 145.61 149.819Z" fill="#686461"/>
<path d="M146.351 150.745C146.536 150.621 146.905 150.498 147.152 150.498L147.46 150.806C147.152 150.806 146.72 150.991 146.597 151.115C146.659 150.93 146.536 150.745 146.351 150.745Z" fill="#686461"/>
<path d="M147.272 151.424C147.396 151.239 147.704 151.115 147.951 151.115L148.32 151.3C148.012 151.362 147.642 151.609 147.519 151.732C147.519 151.609 147.519 151.424 147.272 151.424Z" fill="#686461"/>
<path d="M148.261 151.917C148.446 151.732 148.631 151.609 148.816 151.547C148.939 151.609 149 151.67 149.185 151.732C148.939 151.855 148.754 152.102 148.631 152.225C148.569 152.102 148.507 151.917 148.261 151.917Z" fill="#686461"/>
<path d="M149.309 152.41C149.494 152.225 149.678 152.04 149.863 151.979C149.987 152.04 150.048 152.04 150.233 152.102C149.987 152.225 149.74 152.534 149.617 152.595C149.617 152.595 149.494 152.41 149.309 152.41Z" fill="#686461"/>
<path d="M150.356 152.782C150.418 152.473 150.48 152.412 150.541 152.227C150.665 152.227 150.85 152.35 150.85 152.35C150.726 152.597 150.788 152.72 150.726 152.905C150.665 152.843 150.541 152.658 150.356 152.782Z" fill="#686461"/>
<path d="M144.625 147.724C144.872 147.662 145.056 147.6 145.303 147.724C145.426 147.847 145.488 148.032 145.488 148.155C145.18 148.032 144.995 148.032 144.81 148.094C144.81 147.909 144.748 147.785 144.625 147.724Z" fill="#686461"/>
<path d="M143.389 147.229V146.983C143.45 146.798 143.512 146.674 143.697 146.613C143.943 146.428 144.19 146.304 144.498 146.119C144.622 146.304 144.683 146.489 144.683 146.736C144.437 146.859 144.19 146.983 144.005 147.044C143.82 147.168 143.635 147.229 143.389 147.229Z" fill="#F15A24"/>
<path d="M142.837 59.5799C143.145 61.9238 153.131 74.4452 158.741 74.877C158.802 74.877 158.926 74.9386 159.049 74.9386C159.48 74.9386 159.912 74.8153 160.22 74.5685C162.193 73.3349 170.453 67.9069 173.227 64.6995L171.562 61.6154C167.309 63.0958 158.987 68.7088 158.987 68.7088C158.987 68.7088 158.494 68.8322 158.432 68.6471C155.042 63.0958 150.172 60.0734 145.241 57.3594L142.837 59.5799Z" fill="#EDBD98"/>
<path d="M180.62 55.3848L176.922 61.2445C176.922 61.2445 177.353 61.923 178.278 61.8613C179.203 61.7997 180.435 59.5174 180.559 59.0857C180.682 58.6539 180.497 58.1604 180.62 57.852C180.744 57.5436 180.682 56.6801 180.682 56.6801C180.62 56.8651 181.483 55.7549 180.62 55.3848Z" fill="#D8A988"/>
<path d="M175.874 61.3066L177.785 53.5347C177.847 53.288 177.97 53.1029 178.216 52.9796L181.052 51.3142C181.237 51.1908 181.422 51.2525 181.545 51.4375C181.607 51.5609 181.607 51.6226 181.607 51.746L179.573 59.9496L175.874 61.3066Z" fill="#1A2E35"/>
<path d="M179.511 60.6896C179.511 60.6896 179.572 60.5663 179.572 60.3196C179.572 60.0728 179.572 59.7644 179.449 59.3327C179.511 59.2093 179.572 59.0242 179.511 58.9009C179.449 58.7775 179.326 58.5925 179.202 58.5308L179.141 58.4691L179.202 58.4074C179.387 58.1607 179.511 57.914 179.696 57.6056C179.757 57.5439 179.819 57.4822 179.819 57.4205V57.2355C179.757 57.1121 179.634 56.9888 179.511 56.8654L179.449 56.8037L179.511 56.742C179.634 56.557 179.819 56.4336 179.942 56.2486C180.189 55.9402 180.497 55.6934 180.682 55.385C180.805 55.2617 180.867 55.0766 180.928 54.9533C180.99 54.8916 180.99 54.8299 180.99 54.7065C180.99 54.6448 180.99 54.5832 180.928 54.5832C180.867 54.5832 180.744 54.5832 180.682 54.6449C180.62 54.7065 180.497 54.7065 180.435 54.7682C180.25 54.8299 180.127 54.9533 179.942 55.0766C179.634 55.2617 179.387 55.4467 179.202 55.5701C179.018 55.6934 178.894 55.8168 178.709 55.9402C178.586 56.0018 178.524 56.0635 178.524 56.0635L178.648 55.9402C178.771 55.8785 178.894 55.6934 179.079 55.5701C179.264 55.385 179.511 55.2 179.819 55.0149C179.942 54.8916 180.127 54.8299 180.312 54.7065C180.374 54.6448 180.497 54.5832 180.559 54.5832C180.682 54.5215 180.744 54.5215 180.928 54.5215C181.052 54.5215 181.113 54.6448 181.113 54.7682C181.113 54.8916 181.052 54.9533 181.052 55.0149C180.99 55.2 180.867 55.3233 180.744 55.5084C180.497 55.8168 180.25 56.1252 180.004 56.3719C179.819 56.557 179.696 56.6803 179.572 56.8654V56.742C179.696 56.8654 179.881 56.9888 179.942 57.1738C180.004 57.2355 180.004 57.3588 179.942 57.4822C179.881 57.6056 179.881 57.6672 179.819 57.7289C179.634 57.9757 179.449 58.2841 179.326 58.5308V58.4691C179.511 58.5925 179.634 58.7158 179.696 58.9009C179.757 59.0859 179.696 59.271 179.634 59.3943V59.3327C179.757 59.7644 179.757 60.0728 179.696 60.3196C179.696 60.4429 179.634 60.5046 179.634 60.5663L179.511 60.6896Z" fill="#C99877"/>
<path d="M181.541 51.4375C181.541 51.4375 181.48 51.4992 181.295 51.6225C181.11 51.7459 180.925 51.8693 180.617 52.0543C180.309 52.2394 180 52.4244 179.63 52.6711C179.446 52.7945 179.261 52.9179 179.014 53.0412C178.829 53.1646 178.583 53.288 178.398 53.4113C178.213 53.5964 178.151 53.7814 178.089 54.0281C178.028 54.2749 177.966 54.4599 177.905 54.7066C177.781 55.1384 177.72 55.5085 177.596 55.8169C177.535 56.1253 177.411 56.372 177.411 56.5571C177.35 56.7421 177.35 56.8038 177.288 56.8038C177.288 56.8038 177.288 56.6804 177.35 56.4954C177.411 56.3103 177.411 56.0636 177.535 55.7552C177.596 55.4468 177.72 55.015 177.781 54.6449C177.843 54.4599 177.904 54.2132 177.966 53.9664C178.028 53.7197 178.089 53.473 178.274 53.2879C178.459 53.1029 178.706 52.9795 178.891 52.8562C179.076 52.7328 179.322 52.6095 179.507 52.5478C179.877 52.3627 180.247 52.1777 180.493 51.9926C180.802 51.8076 180.987 51.6842 181.172 51.6225C181.418 51.4375 181.541 51.4375 181.541 51.4375Z" fill="#375A64"/>
<path d="M179.697 54.0909C179.635 54.2759 179.635 54.3993 179.697 54.461C179.758 54.461 179.882 54.3993 179.943 54.2143C180.005 54.0292 180.005 53.9059 179.943 53.8442C179.882 53.7825 179.758 53.9059 179.697 54.0909Z" fill="white"/>
<path d="M172.734 60.9988C173.35 60.6904 173.412 59.6418 173.72 59.025C173.967 58.4699 174.336 57.9147 174.521 57.7914C174.953 57.5446 177.172 56.1876 177.172 56.1876L176.925 57.2362L179.083 55.6942C179.329 55.5091 180.871 54.0905 181.179 54.6456C181.364 55.0157 180.131 56.0643 179.946 56.311C179.514 56.8661 179.638 56.8661 179.638 56.8661C179.638 56.8661 180.069 57.1129 179.884 57.5446C179.638 57.9764 179.268 58.4699 179.268 58.4699C179.268 58.4699 179.884 58.6549 179.514 59.4568C179.514 59.4568 179.699 59.8885 179.576 60.4437C179.514 60.7521 179.268 61.1839 178.96 61.4923C178.651 61.8624 178.22 62.1708 177.788 62.3558C175.877 62.9726 174.275 63.7128 173.227 64.6997L171.562 61.6156L172.734 60.9988Z" fill="#EDBD98"/>
<path d="M177.6 56.7422C177.6 56.8039 177.107 57.1123 176.491 57.4824C175.874 57.8525 175.319 58.1609 175.319 58.1609C175.319 58.0992 175.812 57.7908 176.429 57.4207C177.045 56.989 177.538 56.6806 177.6 56.7422Z" fill="#C99877"/>
<path d="M179.638 56.8047C179.638 56.8047 179.206 57.2981 178.651 57.8533C178.097 58.4084 177.604 58.8402 177.604 58.8402C177.604 58.8402 178.035 58.3467 178.59 57.7916C179.145 57.2365 179.576 56.8047 179.638 56.8047Z" fill="#C99877"/>
<path d="M179.39 58.2848C179.39 58.2848 179.205 58.5932 178.958 58.9017L178.403 59.4568C178.403 59.4568 178.588 59.1484 178.835 58.84C179.143 58.4699 179.39 58.2232 179.39 58.2848Z" fill="#C99877"/>
<path d="M151.16 83.7596H127.181C127.181 83.7596 128.044 63.2813 131.126 51.9935C131.557 50.3898 132.913 48.1076 134.085 46.9356C134.578 46.5039 135.071 46.0721 135.749 45.8254C136.18 45.6403 136.674 45.5786 137.167 45.6403L141.297 46.0104C141.728 46.0721 142.16 46.3188 142.345 46.7506L146.413 56.0028C146.66 56.558 147.03 57.0514 147.461 57.4215L153.44 62.7878L149.495 67.599L149.002 68.1541" fill="#EACE03"/>
<path d="M147.89 67.7842C141.257 62.4919 140.961 61.5173 140.425 59.7409C140.246 59.1488 140.043 58.4764 139.55 57.508L140.098 57.2305C140.616 58.2482 140.826 58.9514 141.017 59.5682C141.522 61.2274 141.8 62.1403 148.278 67.3092L147.896 67.7904L147.89 67.7842Z" fill="#603813"/>
</svg>
