<svg width="261" height="156" viewBox="0 0 261 156" fill="none" xmlns="http://www.w3.org/2000/svg">
<path d="M130.5 156C202.573 156 261 150.179 261 142.998C261 135.817 202.573 129.996 130.5 129.996C58.4268 129.996 0 135.817 0 142.998C0 150.179 58.4268 156 130.5 156Z" fill="#F3F3F3"/>
<path d="M10.9246 124.756C18.8757 115.243 20.775 112.108 31.1873 109.866C41.5996 107.63 47.0839 101.584 56.8219 107.293C66.6723 113.001 67.0095 114.906 75.1797 111.996C83.4624 109.198 87.4969 110.765 94.8861 117.036C102.163 123.418 107.872 128.116 112.688 128.453C117.391 128.79 115.823 137.634 115.823 137.634L25.8153 139.538L8.35098 139.875C6.55846 135.397 8.2386 130.138 10.9246 124.761V124.756Z" fill="#AED3D3"/>
<path d="M44.6586 117.538C44.6586 117.538 45.2093 116.988 44.6586 111.847C44.1079 106.706 46.4961 102.115 46.4961 102.115C46.4961 102.115 45.3947 112.948 45.5802 114.229C45.7656 115.516 44.6642 117.533 44.6642 117.533L44.6586 117.538Z" fill="#0B9D99"/>
<path d="M46.1286 122.865C46.1286 122.865 46.1286 122.314 43.0099 119.746C39.8913 117.179 38.6045 113.324 38.6045 113.324C38.6045 113.324 44.1113 119.746 44.8474 120.482C45.5835 121.218 46.1342 122.87 46.1342 122.87L46.1286 122.865Z" fill="#0B9D99"/>
<path d="M46.4863 129.288C46.4863 129.288 47.037 128.922 46.8516 124.883C46.6661 120.843 48.8689 117.354 48.8689 117.354C48.8689 117.354 47.4023 125.613 47.4023 126.714C47.4023 127.63 46.4863 129.282 46.4863 129.282V129.288Z" fill="#0B9D99"/>
<path d="M45.9405 133.878C45.9405 133.878 45.3898 133.512 44.8391 129.472C44.103 125.433 41.3496 122.494 41.3496 122.494C41.3496 122.494 44.2884 130.388 44.6537 131.304C45.0189 132.22 45.9405 133.872 45.9405 133.872V133.878Z" fill="#0B9D99"/>
<path d="M44.2866 137.546C44.2866 137.546 49.2427 123.044 41.8984 111.846C34.5542 100.648 40.6116 105.424 41.8984 107.627C43.365 110.014 48.5066 124.331 46.6691 134.062C46.6691 134.062 46.1184 137.366 45.933 137.731C45.5677 137.917 44.281 137.546 44.281 137.546H44.2866Z" fill="#0B9D99"/>
<path d="M64.3769 106.34C64.3769 106.34 65.113 105.604 64.3769 99.1822C63.6408 92.76 66.7651 87.0684 66.7651 87.0684C66.7651 87.0684 65.4783 100.469 65.4783 101.935C65.4783 103.773 64.3769 106.34 64.3769 106.34Z" fill="#EACE03"/>
<path d="M66.2102 112.768C66.2102 112.768 66.2102 112.032 62.17 108.914C58.3152 105.795 56.8486 101.02 56.8486 101.02C56.8486 101.02 63.6422 108.914 64.5581 109.83C65.2942 110.745 66.2102 112.768 66.2102 112.768Z" fill="#EACE03"/>
<path d="M66.5808 120.662C66.5808 120.662 67.1315 120.111 66.9461 115.155C66.7606 110.2 69.514 105.975 69.514 105.975C69.514 105.975 67.6766 116.257 67.6766 117.538C67.6766 118.819 66.5752 120.656 66.5752 120.656L66.5808 120.662Z" fill="#EACE03"/>
<path d="M66.0305 129.287C66.0305 129.287 65.4799 128.736 65.2944 123.781C65.109 118.825 62.1758 114.785 62.1758 114.785C62.1758 114.785 64.5639 124.882 64.7437 126.169C64.9292 127.455 66.0305 129.287 66.0305 129.287Z" fill="#EACE03"/>
<path d="M64.0099 139.018C64.0099 139.018 70.0674 113.133 60.8913 99.3674C51.7095 85.6017 59.2392 91.4732 60.8913 94.0466C62.7287 96.9851 68.9716 114.42 66.7633 126.539C66.7633 126.539 66.2126 138.473 65.8474 139.024C65.6619 139.389 64.0099 139.024 64.0099 139.024V139.018Z" fill="#EACE03"/>
<path d="M101.351 95.6335C101.351 95.6335 102.087 94.8974 101.351 88.8405C100.615 82.7836 103.553 77.2773 103.553 77.2773C103.553 77.2773 102.267 90.1272 102.452 91.5937C102.452 93.0601 101.351 95.6335 101.351 95.6335Z" fill="#EACE03"/>
<path d="M103.185 101.876C103.185 101.876 103.185 101.14 99.33 98.2067C95.6607 95.2682 94.1885 90.6777 94.1885 90.6777C94.1885 90.6777 100.611 98.3865 101.533 99.1226C102.269 99.8586 103.185 101.876 103.185 101.876Z" fill="#EACE03"/>
<path d="M103.55 109.398C103.55 109.398 104.1 108.848 103.915 104.078C103.73 99.3074 106.303 95.2676 106.303 95.2676C106.303 95.2676 104.466 105.179 104.466 106.28C104.466 107.567 103.55 109.398 103.55 109.398Z" fill="#EACE03"/>
<path d="M102.821 114.904C102.821 114.904 102.271 114.539 101.355 109.763C100.439 104.993 97.3145 101.504 97.3145 101.504C97.3145 101.504 100.804 110.865 101.169 111.966C101.355 113.252 102.821 114.904 102.821 114.904Z" fill="#EACE03"/>
<path d="M100.797 119.311C100.797 119.311 106.669 102.056 98.0439 88.8414C89.2331 75.6263 96.5773 81.3124 98.0439 83.7003C99.696 86.6389 105.753 103.343 103.736 114.906C103.736 114.906 103 118.761 102.82 119.126C102.455 119.677 100.803 119.311 100.803 119.311H100.797Z" fill="#EACE03"/>
<path d="M79.0483 99.5774C79.0483 99.5774 78.3122 98.6616 79.0483 91.1326C79.7844 83.6036 76.2949 76.9961 76.2949 76.9961C76.2949 76.9961 77.7615 92.7845 77.7615 94.6162C77.7615 96.6333 79.0483 99.5718 79.0483 99.5718V99.5774Z" fill="#0B9D99"/>
<path d="M77.0254 107.285C77.0254 107.285 77.0254 106.369 81.6162 102.695C86.2071 99.0256 88.039 93.5137 88.039 93.5137C88.039 93.5137 80.144 102.874 79.0427 103.976C77.9413 104.891 77.0254 107.279 77.0254 107.279V107.285Z" fill="#0B9D99"/>
<path d="M76.474 116.653C76.474 116.653 75.7379 116.103 75.9233 110.231C76.1088 104.36 72.8047 99.3984 72.8047 99.3984C72.8047 99.3984 75.0074 111.512 75.0074 112.984C75.0074 114.456 76.474 116.653 76.474 116.653Z" fill="#0B9D99"/>
<path d="M77.0254 126.743C77.0254 126.743 77.7615 126.193 77.9413 120.321C78.1267 114.45 81.6106 109.674 81.6106 109.674C81.6106 109.674 78.6718 121.608 78.492 123.074C78.492 124.541 77.0254 126.743 77.0254 126.743Z" fill="#0B9D99"/>
<path d="M79.5955 138.128C79.5955 138.128 72.4367 107.658 83.2648 91.1332C94.0986 74.7941 85.1023 81.7725 83.2648 84.8908C81.0621 88.38 73.7178 109.124 76.2858 123.255C76.2858 123.255 77.0219 137.391 77.2017 137.942C77.567 138.678 79.5899 138.128 79.5899 138.128H79.5955Z" fill="#0B9D99"/>
<path d="M111.691 85.1373C111.691 85.1373 112.242 84.4012 111.691 78.3443C111.14 72.2874 113.894 66.9609 113.894 66.9609C113.894 66.9609 112.607 79.6254 112.792 81.2772C112.792 82.5639 111.691 85.1316 111.691 85.1316V85.1373Z" fill="#0B9D99"/>
<path d="M113.339 91.3796C113.339 91.3796 113.339 90.6436 109.67 87.7106C106.001 84.7721 104.528 80.1816 104.528 80.1816C104.528 80.1816 110.951 87.7106 111.873 88.6265C112.609 89.3625 113.339 91.3796 113.339 91.3796Z" fill="#0B9D99"/>
<path d="M113.711 98.7226C113.711 98.7226 114.262 98.172 114.076 93.4017C113.891 88.6315 116.464 84.7715 116.464 84.7715C116.464 84.7715 114.812 94.503 114.627 95.784C114.812 96.8853 113.711 98.7226 113.711 98.7226Z" fill="#0B9D99"/>
<path d="M113.34 106.982C113.34 106.982 112.789 106.432 112.604 101.841C112.418 97.0709 109.665 93.2109 109.665 93.2109C109.665 93.2109 112.053 102.942 112.053 104.044C112.053 105.145 113.34 106.982 113.34 106.982Z" fill="#0B9D99"/>
<path d="M111.138 116.162C111.138 116.162 116.83 91.5639 108.199 78.3489C99.5678 65.1338 106.732 70.8199 108.199 73.3932C109.851 76.3318 115.908 92.8506 113.706 104.234C113.706 104.234 113.155 115.617 112.97 116.168C112.784 116.533 111.132 116.168 111.132 116.168L111.138 116.162Z" fill="#0B9D99"/>
<path d="M134.458 122.474C129.44 113.254 128.187 110.191 122.253 108.32C116.32 106.449 112.886 100.606 107.823 106.64C102.761 112.675 102.626 114.591 97.9 111.973C93.1125 109.467 90.9716 111.175 87.2461 117.687C83.5936 124.305 80.711 129.199 78.0531 129.699C75.457 130.199 76.8787 138.97 76.8787 138.97L127.092 137.74L136.835 137.47C137.543 132.829 136.285 127.632 134.458 122.479V122.474Z" fill="#C4EDEE"/>
<path d="M45.1552 138.713H44.4922V143.309H45.1552V138.713Z" fill="#754C24"/>
<path d="M44.749 138.713C44.4736 138.752 42.3496 137.37 42.1136 135.325C41.8663 133.167 42.3889 131.734 42.8103 130.706C43.5352 128.925 44.9456 128.195 45.4289 128.178C45.4289 128.178 46.9011 128.228 47.3394 131.088C47.7777 133.948 48.4576 132.903 47.7777 135.746C47.2045 138.145 45.3221 138.718 44.749 138.713Z" fill="#76A814"/>
<path d="M21.8711 137.393H21.208V141.989H21.8711V137.393Z" fill="#754C24"/>
<path d="M21.4726 137.781C21.1973 137.82 19.0732 136.438 18.8372 134.393C18.59 132.235 19.1125 130.803 19.534 129.774C20.2589 127.993 21.6693 127.263 22.1525 127.246C22.1525 127.246 23.6247 127.297 24.063 130.157C24.5013 133.016 25.1812 131.971 24.5013 134.814C23.9282 137.214 22.0457 137.787 21.4726 137.781Z" fill="#76A814"/>
<path d="M71.04 137.277H70.377V141.873H71.04V137.277Z" fill="#754C24"/>
<path d="M70.6337 137.666C70.3584 137.705 68.2343 136.323 67.9983 134.278C67.7511 132.12 68.2737 130.687 68.6951 129.659C69.42 127.878 70.8304 127.148 71.3136 127.131C71.3136 127.131 72.7859 127.181 73.2242 130.041C73.6625 132.901 74.3424 131.856 73.6625 134.699C73.0893 137.098 71.2069 137.671 70.6337 137.666Z" fill="#76A814"/>
<path d="M33.9814 136.463H33.3184V141.059H33.9814V136.463Z" fill="#754C24"/>
<path d="M33.5751 136.851C33.2998 136.891 31.1757 135.509 30.9397 133.463C30.6925 131.306 31.2151 129.873 31.6365 128.845C32.3614 127.064 33.7718 126.333 34.255 126.316C34.255 126.316 35.7273 126.367 36.1656 129.227C36.6039 132.087 37.2838 131.042 36.6039 133.885C36.0307 136.284 34.1483 136.857 33.5751 136.851Z" fill="#A9D661"/>
<path d="M8.74509 138.258H8.08203V142.854H8.74509V138.258Z" fill="#754C24"/>
<path d="M8.34662 138.646C8.07128 138.686 5.94723 137.303 5.71123 135.258C5.46398 133.101 5.98657 131.668 6.40801 130.64C7.13288 128.859 8.54329 128.128 9.02654 128.111C9.02654 128.111 10.4988 128.162 10.9371 131.022C11.3753 133.882 12.0553 132.837 11.3753 135.68C10.8022 138.079 8.91977 138.652 8.34662 138.646Z" fill="#A9D661"/>
<path d="M58.0644 135.66H57.4014V140.256H58.0644V135.66Z" fill="#754C24"/>
<path d="M57.6581 136.049C57.3828 136.088 55.2588 134.706 55.0228 132.661C54.7755 130.503 55.2981 129.07 55.7195 128.042C56.4444 126.261 57.8548 125.531 58.3381 125.514C58.3381 125.514 59.8103 125.564 60.2486 128.424C60.6869 131.284 61.3668 130.239 60.6869 133.082C60.1137 135.481 58.2313 136.054 57.6581 136.049Z" fill="#A9D661"/>
<g clip-path="url(#clip0_14673_7096)">
<path d="M166.142 16.6152L173.585 16.7479C171.805 20.2824 170.172 23.216 172.828 25.4792L166.527 26.471C168.749 24.5432 167.509 19.5978 166.135 16.6222L166.142 16.6152Z" fill="#BC9275"/>
<path d="M173.964 2.6733C173.964 2.6733 176.774 6.03308 176.186 8.49877C176.087 8.91089 176.087 9.21823 175.989 9.42079C175.695 10.8597 175.695 10.7549 177.244 11.4604C178.071 11.8655 177.356 12.585 176.949 12.7945C176.746 13.0041 176.648 13.2067 176.648 13.514C176.648 13.8213 176.76 14.1287 176.76 14.1287C176.76 14.2334 177.076 15.0507 176.256 15.0577C172.239 15.1974 175.534 15.0577 176.466 15.365C176.466 15.365 176.879 15.5676 176.781 15.7701C176.683 15.9797 176.375 16.287 176.277 16.5944C176.178 16.9017 176.186 17.8237 175.982 18.2358C175.779 18.648 173.417 19.3884 171.973 18.9902C170.943 18.6899 169.394 18.3965 168.777 18.4035C168.574 18.4035 168.258 17.8936 168.048 17.691C167.74 17.4884 166.913 17.2929 166.289 16.8877C165.048 16.0775 166.072 15.6584 166.17 15.2463C166.268 14.7294 166.464 13.8074 166.254 13.5C166.044 13.1927 165.006 12.0751 164.796 11.4604C164.481 10.6432 164.978 9.20426 165.385 8.78516C165.791 8.26827 166.611 8.05174 167.13 8.46385C167.544 8.7642 168.062 8.7642 168.258 8.35209C168.56 7.8352 171.209 4.42653 171.721 4.11221C172.232 3.79788 173.971 2.65234 173.971 2.65234L173.964 2.6733Z" fill="#BC9275"/>
<path d="M176.053 9.72058C176.102 14.3097 174.735 17.0339 170.621 17.7044C165.911 18.4798 163.079 14.8056 162.988 9.46214C162.897 4.1745 164.082 1.4783 169.38 0.968394C173.593 0.563265 175.983 3.93003 176.053 9.72058Z" fill="#BC9275"/>
<path d="M167.887 9.36485L175.008 8.37299L175.499 8.00977L167.635 9.10641L167.887 9.36485Z" fill="#303030"/>
<path d="M175.912 11.3067C175.435 11.3696 175.057 10.5244 174.938 9.69316C174.819 8.86195 174.959 7.94692 175.428 7.87707C175.898 7.80722 176.283 8.65939 176.403 9.48361C176.522 10.3078 176.389 11.2299 175.912 11.2997V11.3067ZM175.47 8.14948C175.281 8.17742 175.085 8.77813 175.211 9.65824C175.337 10.5383 175.688 11.0622 175.877 11.0343C176.066 11.0063 176.262 10.4056 176.136 9.52552C176.01 8.64542 175.66 8.12154 175.47 8.14948Z" fill="#303030"/>
<path d="M175.751 8.09375L176.236 8.23367L176.187 8.47154L175.737 8.30363L175.751 8.09375Z" fill="#303030"/>
<path d="M168.371 10.9282C168.371 10.9282 168.265 10.4882 168.237 10.3974C168.209 10.3066 168.195 10.2577 168.195 10.2018C168.195 10.1459 168.195 9.72683 168.167 9.67095C168.139 9.61507 167.789 9.0912 167.487 8.9515C167.186 8.8118 166.569 8.56034 166.121 9.06326C165.672 9.55919 165.742 10.2158 165.742 10.2158C165.742 10.2158 165.784 10.9702 166.058 11.3124C166.331 11.6547 166.527 11.983 166.724 12.1087C166.92 12.2344 167.27 12.458 167.354 12.4999C167.438 12.5418 167.782 12.7863 167.894 12.7863C168.006 12.7863 168.223 12.8282 168.343 12.6466C168.455 12.4719 168.441 12.0598 168.497 11.983C168.581 11.8712 168.637 11.5988 168.581 11.508C168.525 11.4242 168.378 10.9282 168.378 10.9282H168.371Z" fill="#B28A6F"/>
<path d="M167.67 10.6351C167.677 10.5234 167.811 10.3208 167.768 10.1043C167.719 9.84583 167.705 9.48261 167.355 9.33592C167.012 9.18226 166.563 9.33592 166.472 9.3918C166.381 9.44768 166.149 9.66422 166.149 10.0484C166.149 10.4326 166.184 11.0333 166.43 11.3127C166.675 11.5921 167.103 11.9064 167.173 11.9553C167.243 12.0042 167.909 12.2696 167.909 12.2696C167.909 12.2696 168.098 12.2417 168.196 12.0112C168.308 11.7597 168.252 11.6899 168.119 11.5641C168 11.4454 167.979 11.2289 167.965 11.1171C167.951 10.9984 167.909 11.0333 167.804 10.9145C167.698 10.7818 167.649 10.7539 167.663 10.6421L167.67 10.6351Z" fill="#BC957A"/>
<path d="M167.776 12.2696C167.776 12.2696 167.544 12.8005 167.783 13.1078C168.028 13.4221 168.252 13.5339 168.329 13.1916C168.406 12.8494 168.392 12.5141 168.392 12.5141C168.392 12.5211 168.329 12.6817 168.238 12.8074C168.133 12.9122 167.972 12.8494 167.937 12.7236C167.902 12.6119 167.979 12.4233 167.986 12.3325C167.986 12.2417 167.804 12.2207 167.804 12.2207L167.783 12.2696H167.776Z" fill="#706964"/>
<path fill-rule="evenodd" clip-rule="evenodd" d="M211.608 133.894L217.124 140.397C217.818 140.348 218.295 140.034 218.575 139.489L213.263 132.965L211.608 133.901V133.894Z" fill="#20505A"/>
<path fill-rule="evenodd" clip-rule="evenodd" d="M228.437 104.991C230.196 105.976 230.855 108.162 229.866 109.915L217.124 132.567C216.465 133.664 215.26 134.425 213.942 134.425H153.427C151.451 134.425 149.804 132.784 149.804 130.814C149.804 128.844 151.451 127.203 153.427 127.203H211.741L223.383 106.409C224.484 104.655 226.677 104.111 228.437 104.984V104.991Z" fill="#3DBCC8"/>
<path fill-rule="evenodd" clip-rule="evenodd" d="M136.41 137.163C139.375 137.163 141.898 134.753 141.898 131.694C141.898 128.635 139.48 126.225 136.41 126.225C133.34 126.225 130.922 128.635 130.922 131.694C130.922 134.753 133.445 137.163 136.41 137.163ZM136.41 144.386C143.44 144.386 149.152 138.693 149.152 131.687C149.152 124.681 143.44 118.988 136.41 118.988C129.38 118.988 123.668 124.688 123.668 131.694C123.668 138.7 129.38 144.393 136.41 144.393V144.386Z" fill="#20505A"/>
<path fill-rule="evenodd" clip-rule="evenodd" d="M240.296 137.163C243.261 137.163 245.784 134.753 245.784 131.694C245.784 128.635 243.366 126.225 240.296 126.225C237.226 126.225 234.808 128.635 234.808 131.694C234.808 134.753 237.331 137.163 240.296 137.163ZM240.296 144.386C247.326 144.386 253.038 138.693 253.038 131.687C253.038 124.681 247.326 118.988 240.296 118.988C233.266 118.988 227.554 124.681 227.554 131.687C227.554 138.693 233.266 144.386 240.296 144.386Z" fill="#20505A"/>
<path fill-rule="evenodd" clip-rule="evenodd" d="M213.606 60.776C215.471 59.9029 217.559 60.776 218.436 62.5292L220.195 66.2522C221.071 68.1102 220.195 70.1917 218.436 71.0649C216.571 71.938 214.483 71.0649 213.606 69.3116L211.847 65.5886C210.971 63.8354 211.735 61.6491 213.606 60.776Z" fill="#20505A"/>
<path fill-rule="evenodd" clip-rule="evenodd" d="M220.09 96.231L227.779 115.712C228.22 116.809 229.313 118.339 230.197 118.995C231.514 119.868 232.832 120.092 234.367 119.212C236.126 117.898 235.572 114.175 234.255 111.221L232.608 107.498L220.09 76.9595L209.436 50.2559L203.948 53.0987L220.09 96.2171V96.231Z" fill="#65C8D0"/>
<path fill-rule="evenodd" clip-rule="evenodd" d="M211.321 51.7649C210.915 51.6252 210.095 51.9326 210.095 51.9326L211.924 56.6125L212.618 56.3401C212.618 56.3401 212.548 52.177 211.321 51.7649Z" fill="#1A1A1A"/>
<path fill-rule="evenodd" clip-rule="evenodd" d="M203.948 53.1126L197.36 35.1612C197.802 35.1612 195.054 35.0494 193.407 35.8177C192.531 36.2578 190.33 37.4592 190.001 37.1309C188.795 36.5861 188.024 35.8177 187.912 34.288C187.912 32.8631 188.788 32.2065 190.001 31.99L197.795 31.3334L197.465 29.9084L191.536 30.3485L191.318 29.3636L199.442 28.707L200.213 31.99C201.643 32.1017 202.848 32.6466 203.724 34.288L209.436 50.2697L203.948 53.1126Z" fill="#1A1A1A"/>
<g opacity="0.96">
<path d="M218.443 80.5857C218.226 80.6975 218.001 80.8023 217.784 81.0258L217.125 79.4961L216.249 79.8244L217.455 82.8908C217.784 83.7639 218.772 84.0922 219.648 83.7639C220.524 83.4356 220.966 82.4507 220.637 81.5776C220.307 80.7045 219.319 80.2644 218.443 80.5927V80.5857ZM219.431 82.8838C218.99 82.9956 218.555 82.8838 218.443 82.4438C218.331 82.0037 218.443 81.5706 218.884 81.4589C219.326 81.3471 219.76 81.4589 219.873 81.8989C219.985 82.339 219.76 82.7721 219.431 82.8838Z" fill="white"/>
<path d="M222.283 89.9935C221.407 90.3218 220.965 91.3067 221.407 92.1798L222.066 93.8213L222.942 93.493L222.283 91.8515C222.171 91.5232 222.283 91.0832 222.724 90.8666C223.054 90.7549 223.495 90.8666 223.713 91.3067L224.372 92.9481L225.248 92.6198L224.589 90.9784C224.147 90.1052 223.159 89.6652 222.283 89.9935Z" fill="white"/>
<path d="M220.636 86.0546C220.419 86.1663 220.307 86.3829 220.419 86.7112L221.407 89.3375L222.396 88.8975L221.295 86.2711C221.183 86.1594 220.966 85.9428 220.636 86.0546Z" fill="white"/>
<path d="M220.306 85.8386C220.67 85.8386 220.965 85.5446 220.965 85.182C220.965 84.8194 220.67 84.5254 220.306 84.5254C219.942 84.5254 219.647 84.8194 219.647 85.182C219.647 85.5446 219.942 85.8386 220.306 85.8386Z" fill="white"/>
<path d="M212.289 65.4764C212.071 65.5881 211.847 65.6929 211.63 65.9164L210.971 64.3867L210.095 64.715L211.3 67.7814C211.63 68.6545 212.618 68.9828 213.494 68.6545C214.37 68.3263 214.812 67.3414 214.482 66.4682C214.153 65.5951 213.165 65.1551 212.289 65.4834V65.4764ZM213.165 67.7744C212.723 67.8862 212.289 67.7744 212.176 67.3344C212.064 66.8943 212.176 66.4613 212.618 66.3495C213.059 66.2377 213.494 66.3495 213.606 66.7895C213.823 67.2296 213.606 67.6627 213.165 67.7744Z" fill="white"/>
<path d="M216.136 74.8919C215.26 75.2202 214.819 76.2051 215.26 77.0782L215.919 78.7197L216.795 78.3914L216.136 76.7499C216.024 76.4216 216.136 75.9816 216.578 75.7651C217.02 75.5485 217.349 75.765 217.566 76.2051L218.225 77.8466L219.101 77.5183L218.442 75.8768C217.896 75.0037 217.013 74.5636 216.136 74.8919Z" fill="white"/>
<path d="M214.489 70.9531C214.272 71.0649 214.16 71.2814 214.272 71.6097L215.26 74.2361L216.248 73.796L215.148 71.1697C215.036 71.0579 214.706 70.9531 214.489 70.9531Z" fill="white"/>
<path d="M214.16 70.7292C214.524 70.7292 214.819 70.4352 214.819 70.0726C214.819 69.71 214.524 69.416 214.16 69.416C213.796 69.416 213.501 69.71 213.501 70.0726C213.501 70.4352 213.796 70.7292 214.16 70.7292Z" fill="white"/>
</g>
<path d="M164.383 35.8944C164.39 38.5766 173.852 54.0973 180.118 55.3895C180.188 55.3965 180.321 55.4873 180.454 55.5012C180.938 55.5641 181.45 55.4873 181.828 55.2568C184.52 54.3068 190.519 41.5872 192.468 37.5289L190.982 36.544C189.335 38.6255 183.167 48.2229 181.176 47.6152C181.176 47.6152 180.672 47.692 180.56 47.4685C173.221 38.5627 169.941 36.1179 167.411 33.75L164.376 35.9014L164.383 35.8944Z" fill="#AD876D"/>
<path d="M165.637 134.724C166.093 136.002 165.182 140.661 165.182 142.24C166.163 143.595 168.651 142.54 168.952 141.115C168.952 140.962 169.107 140.892 169.107 140.592C168.805 139.69 169.408 136.303 170.165 134.424L165.637 134.724Z" fill="#BC9275"/>
<path d="M196.687 130.506C197.346 131.665 196.96 134.997 197.156 136.499C198.362 137.686 200.64 136.156 200.605 134.697C200.647 134.536 200.703 134.445 200.703 134.131C200.114 133.265 200.289 130.366 200.85 128.459L196.68 130.506H196.687Z" fill="#BC9275"/>
<path d="M170.054 62.0807L186.602 58.9863C195.994 70.281 199.505 83.9157 202.561 99.5062C202.785 100.708 202.94 101.937 202.996 103.124L204.502 127.32C202.673 129.074 195.959 130.939 193.555 131.211C193.204 121.753 191.985 113.602 189.531 105.192C189.321 103.823 188.291 101.155 188.291 101.155C184.268 88.2744 171.918 64.9794 170.061 62.0667L170.054 62.0807Z" fill="#131851"/>
<path d="M173.102 136.681C169.934 137.582 165.561 136.08 163.143 135.103L169.177 108.036C169.254 107.512 169.254 106.981 169.254 106.457L167.068 73.9769C166.99 73.2225 167.068 72.3983 167.145 71.6439C167.523 68.7871 168.273 64.7288 169.409 63.2969H181.555C185.024 79.3903 184.422 93.1437 183.062 100.89C182.908 101.568 182.305 109.083 181.478 111.263L173.102 136.674V136.681Z" fill="#131851"/>
<path d="M187.008 59.5669L167.985 67.446L167.509 66.6637L186.622 58.9941L187.008 59.5669Z" fill="#0E0E38"/>
<path d="M165.034 139.46C166.541 140.138 168.055 140.138 169.562 139.237C169.639 139.16 169.716 139.237 169.786 139.314C170.614 140.892 171.525 142.925 172.955 144.126C174.391 145.104 176.2 145.859 178.162 146.383C178.386 146.459 178.688 146.536 178.919 146.536C179.9 146.536 180.657 146.69 181.26 146.99C181.337 147.067 181.484 147.067 181.561 147.144C182.017 147.367 182.164 147.821 182.241 148.345C182.241 148.723 182.087 149.023 181.786 149.17C180.202 150.071 178.162 150.525 175.674 150.448L171.069 149.847L163.899 149.246L163.072 148.946C162.918 148.869 162.848 148.792 162.848 148.569C162.848 147.367 163.072 146.166 163.528 144.811C163.682 144.434 163.983 143.91 164.13 143.533C164.733 142.478 164.887 141.053 164.887 139.474C164.887 139.474 164.964 139.398 165.041 139.474L165.034 139.46Z" fill="#F7931E"/>
<path d="M162.995 147.129C162.841 147.129 162.694 148.484 162.841 148.784C162.995 149.162 164.348 149.308 164.579 149.385C165.708 149.539 166.92 149.609 168.203 149.685L172.275 150.139C173.403 150.293 174.763 150.517 176.123 150.517C177.251 150.517 178.31 150.44 179.368 150.139C180.195 149.986 181.029 149.616 181.856 149.085L182.081 148.861C182.305 148.407 182.235 147.583 181.555 147.129C180.651 147.583 179.291 147.953 177.784 148.184C176.656 148.407 175.373 148.407 174.013 148.407C171.826 148.33 169.71 148.184 167.901 147.883C166.093 147.73 164.355 147.506 162.995 147.129Z" fill="#CE751D"/>
<path d="M178.612 146.452C178.457 147.129 178.534 147.653 178.836 148.031C179.894 147.877 180.798 147.577 181.555 147.129C180.798 146.606 179.817 146.375 178.612 146.452Z" fill="#F15A24"/>
<path d="M169.409 141.116C169.618 141.116 169.787 140.947 169.787 140.739C169.787 140.53 169.618 140.361 169.409 140.361C169.2 140.361 169.03 140.53 169.03 140.739C169.03 140.947 169.2 141.116 169.409 141.116Z" fill="#D8CDC3"/>
<path d="M170.011 142.471C170.22 142.471 170.39 142.302 170.39 142.094C170.39 141.886 170.22 141.717 170.011 141.717C169.802 141.717 169.633 141.886 169.633 142.094C169.633 142.302 169.802 142.471 170.011 142.471Z" fill="#D8CDC3"/>
<path d="M170.691 143.672C170.9 143.672 171.069 143.503 171.069 143.295C171.069 143.087 170.9 142.918 170.691 142.918C170.482 142.918 170.312 143.087 170.312 143.295C170.312 143.503 170.482 143.672 170.691 143.672Z" fill="#D8CDC3"/>
<path d="M171.595 144.874C171.804 144.874 171.974 144.705 171.974 144.496C171.974 144.288 171.804 144.119 171.595 144.119C171.386 144.119 171.217 144.288 171.217 144.496C171.217 144.705 171.386 144.874 171.595 144.874Z" fill="#D8CDC3"/>
<path d="M172.8 145.627C173.009 145.627 173.179 145.459 173.179 145.25C173.179 145.042 173.009 144.873 172.8 144.873C172.591 144.873 172.422 145.042 172.422 145.25C172.422 145.459 172.591 145.627 172.8 145.627Z" fill="#D8CDC3"/>
<path d="M174.084 146.305C174.293 146.305 174.462 146.136 174.462 145.928C174.462 145.72 174.293 145.551 174.084 145.551C173.875 145.551 173.705 145.72 173.705 145.928C173.705 146.136 173.875 146.305 174.084 146.305Z" fill="#D8CDC3"/>
<path d="M175.586 146.651C175.714 146.544 175.73 146.354 175.623 146.227C175.516 146.1 175.326 146.083 175.198 146.19C175.07 146.296 175.054 146.486 175.161 146.613C175.268 146.741 175.458 146.757 175.586 146.651Z" fill="#D8CDC3"/>
<path d="M177.084 146.993C177.166 146.848 177.115 146.665 176.97 146.583C176.825 146.501 176.641 146.552 176.559 146.697C176.477 146.842 176.528 147.025 176.673 147.107C176.818 147.189 177.002 147.138 177.084 146.993Z" fill="#D8CDC3"/>
<path d="M170.165 141.716C170.467 141.639 170.845 141.562 171.069 141.792C171.146 141.946 171.294 142.17 171.371 142.316C171.069 142.163 170.544 142.163 170.312 142.239C170.467 142.016 170.389 141.785 170.158 141.716H170.165Z" fill="#686461"/>
<path d="M170.769 142.917C170.993 142.763 171.526 142.694 171.827 142.763C171.904 142.917 172.051 142.987 172.128 143.141C171.75 143.064 171.301 143.217 171.07 143.294C171.07 143.141 170.993 142.994 170.769 142.917Z" fill="#686461"/>
<path d="M171.672 144.127C171.896 143.973 172.352 143.826 172.653 143.826L173.032 144.203C172.653 144.203 172.127 144.427 171.973 144.581C171.973 144.357 171.896 144.127 171.672 144.127Z" fill="#686461"/>
<path d="M172.801 144.873C172.955 144.65 173.326 144.496 173.628 144.496L174.083 144.72C173.705 144.796 173.256 145.097 173.102 145.243C173.102 145.167 173.102 144.943 172.801 144.866V144.873Z" fill="#686461"/>
<path d="M174.014 145.552C174.238 145.328 174.469 145.174 174.694 145.098C174.848 145.174 174.918 145.251 175.149 145.321C174.848 145.475 174.623 145.775 174.469 145.922C174.392 145.698 174.315 145.545 174.014 145.545V145.552Z" fill="#686461"/>
<path d="M175.296 146.153C175.52 145.929 175.751 145.699 175.976 145.629C176.13 145.706 176.2 145.706 176.431 145.783C176.13 145.936 175.829 146.306 175.674 146.383C175.674 146.306 175.52 146.16 175.296 146.16V146.153Z" fill="#686461"/>
<path d="M176.578 146.605C176.655 146.228 176.732 146.151 176.803 145.928C176.957 145.928 177.181 146.081 177.181 146.081C177.027 146.382 177.104 146.535 177.027 146.759C176.95 146.605 176.803 146.459 176.571 146.605H176.578Z" fill="#686461"/>
<path d="M169.556 140.362C169.857 140.285 170.081 140.208 170.383 140.362C170.537 140.516 170.607 140.739 170.607 140.886C170.229 140.732 170.004 140.732 169.78 140.809C169.78 140.586 169.703 140.432 169.556 140.355V140.362Z" fill="#686461"/>
<path d="M168.049 139.838V139.537C168.126 139.314 168.203 139.16 168.427 139.083C168.729 138.86 169.03 138.706 169.409 138.482C169.563 138.706 169.633 138.936 169.633 139.237C169.331 139.39 169.03 139.537 168.806 139.614C168.582 139.691 168.35 139.768 168.049 139.838Z" fill="#F15A24"/>
<path d="M196.645 133.991C198.272 134.312 199.736 133.97 201.005 132.747C201.061 132.656 201.152 132.712 201.243 132.768C202.414 134.116 203.753 135.89 205.428 136.736C207.047 137.364 208.981 137.686 211.014 137.755C211.252 137.776 211.56 137.783 211.785 137.735C212.738 137.511 213.509 137.49 214.168 137.644C214.259 137.7 214.406 137.665 214.497 137.721C214.988 137.839 215.24 138.244 215.429 138.74C215.513 139.104 215.436 139.432 215.177 139.648C213.838 140.885 211.96 141.786 209.514 142.275L204.895 142.729L197.781 143.763L196.905 143.658C196.744 143.616 196.652 143.56 196.596 143.343C196.323 142.17 196.267 140.948 196.4 139.53C196.463 139.132 196.638 138.552 196.695 138.147C197.045 136.987 196.863 135.562 196.505 134.019C196.505 134.019 196.561 133.928 196.652 133.984L196.645 133.991Z" fill="#F7931E"/>
<path d="M196.407 141.918C196.26 141.953 196.421 143.301 196.639 143.567C196.87 143.902 198.23 143.741 198.468 143.762C199.603 143.651 200.795 143.455 202.064 143.239L206.136 142.757C207.271 142.645 208.645 142.561 209.97 142.254C211.07 141.995 212.086 141.688 213.046 141.157C213.817 140.822 214.546 140.27 215.233 139.571L215.401 139.299C215.521 138.81 215.254 138.021 214.49 137.734C213.712 138.377 212.472 139.055 211.056 139.613C210.005 140.088 208.757 140.382 207.432 140.689C205.288 141.108 203.192 141.443 201.363 141.555C199.568 141.821 197.823 141.988 196.414 141.932L196.407 141.918Z" fill="#CE751D"/>
<path d="M211.47 137.729C211.477 138.42 211.673 138.916 212.051 139.216C213.047 138.832 213.86 138.336 214.491 137.722C213.635 137.379 212.626 137.379 211.47 137.722V137.729Z" fill="#F15A24"/>
<path d="M201.202 134.62C201.411 134.62 201.58 134.451 201.58 134.242C201.58 134.034 201.411 133.865 201.202 133.865C200.993 133.865 200.823 134.034 200.823 134.242C200.823 134.451 200.993 134.62 201.202 134.62Z" fill="#D8CDC3"/>
<path d="M202.169 135.786C202.378 135.786 202.547 135.617 202.547 135.408C202.547 135.2 202.378 135.031 202.169 135.031C201.959 135.031 201.79 135.2 201.79 135.408C201.79 135.617 201.959 135.786 202.169 135.786Z" fill="#D8CDC3"/>
<path d="M203.031 136.821C203.24 136.821 203.409 136.652 203.409 136.444C203.409 136.235 203.24 136.066 203.031 136.066C202.822 136.066 202.652 136.235 202.652 136.444C202.652 136.652 202.822 136.821 203.031 136.821Z" fill="#D8CDC3"/>
<path d="M204.173 137.713C204.382 137.713 204.552 137.544 204.552 137.336C204.552 137.128 204.382 136.959 204.173 136.959C203.964 136.959 203.795 137.128 203.795 137.336C203.795 137.544 203.964 137.713 204.173 137.713Z" fill="#D8CDC3"/>
<path d="M205.533 138.252C205.742 138.252 205.911 138.084 205.911 137.875C205.911 137.667 205.742 137.498 205.533 137.498C205.324 137.498 205.154 137.667 205.154 137.875C205.154 138.084 205.324 138.252 205.533 138.252Z" fill="#D8CDC3"/>
<path d="M206.92 138.545C207.13 138.545 207.299 138.377 207.299 138.168C207.299 137.96 207.13 137.791 206.92 137.791C206.711 137.791 206.542 137.96 206.542 138.168C206.542 138.377 206.711 138.545 206.92 138.545Z" fill="#D8CDC3"/>
<path d="M208.569 138.617C208.669 138.484 208.643 138.296 208.509 138.196C208.376 138.096 208.187 138.123 208.087 138.256C207.986 138.388 208.013 138.577 208.147 138.677C208.28 138.777 208.469 138.75 208.569 138.617Z" fill="#D8CDC3"/>
<path d="M210.152 138.547C210.198 138.387 210.107 138.22 209.947 138.173C209.787 138.127 209.619 138.218 209.572 138.377C209.525 138.537 209.617 138.704 209.777 138.751C209.937 138.797 210.105 138.706 210.152 138.547Z" fill="#D8CDC3"/>
<path d="M202.161 135.025C202.434 134.885 202.785 134.724 203.058 134.892C203.163 135.025 203.367 135.206 203.472 135.339C203.142 135.262 202.631 135.381 202.427 135.507C202.505 135.178 202.399 135.053 202.161 135.025Z" fill="#686461"/>
<path d="M203.017 136.058C203.206 135.863 203.703 135.667 204.012 135.674C204.117 135.807 204.285 135.842 204.39 135.974C204.005 135.988 203.598 136.233 203.395 136.359C203.36 136.212 203.255 136.086 203.017 136.058Z" fill="#686461"/>
<path d="M204.159 136.952C204.348 136.757 204.755 136.505 205.049 136.436L205.505 136.715C205.14 136.799 204.678 137.141 204.559 137.323C204.58 137.085 204.383 136.904 204.159 136.952Z" fill="#686461"/>
<path d="M205.448 137.505C205.546 137.253 205.876 137.016 206.17 136.953L206.661 137.072C206.31 137.233 205.939 137.624 205.827 137.805C205.792 137.659 205.743 137.442 205.448 137.505Z" fill="#686461"/>
<path d="M206.76 137.818C206.928 137.546 207.117 137.35 207.32 137.225C207.482 137.267 207.573 137.322 207.811 137.343C207.552 137.56 207.398 137.902 207.285 138.084C207.18 137.951 207.054 137.748 206.76 137.818Z" fill="#686461"/>
<path d="M208.147 138.113C208.316 137.84 208.484 137.568 208.687 137.449C208.848 137.491 208.925 137.47 209.164 137.491C208.904 137.708 208.694 138.141 208.568 138.246C208.568 138.246 208.372 138.057 208.147 138.113Z" fill="#686461"/>
<path d="M209.5 138.267C209.486 137.883 209.542 137.792 209.563 137.554C209.71 137.519 209.963 137.617 209.963 137.617C209.886 137.946 209.991 138.071 209.97 138.309C209.879 138.253 209.682 138.064 209.493 138.267H209.5Z" fill="#686461"/>
<path d="M201.265 133.845C201.538 133.705 201.748 133.579 202.071 133.656C202.253 133.768 202.379 133.97 202.414 134.117C202.015 134.054 201.79 134.11 201.587 134.229C201.538 134.012 201.426 133.88 201.265 133.838V133.845Z" fill="#686461"/>
<path d="M199.659 133.6L199.589 133.307C199.61 133.069 199.652 132.909 199.855 132.783C200.101 132.497 200.36 132.28 200.675 131.973C200.871 132.161 200.998 132.364 201.068 132.657C200.808 132.874 200.549 133.083 200.346 133.209C200.157 133.405 199.953 133.53 199.659 133.6Z" fill="#F15A24"/>
<path d="M169.444 33.4764C168.203 35.8513 174.238 50.6944 179.186 54.7457C179.242 54.7876 179.319 54.9203 179.431 55.0041C179.831 55.2835 180.314 55.4511 180.763 55.4232C183.405 55.5629 196.126 55.1717 200.801 53.9983L201.124 51.2671C196.197 49.8701 183.44 49.1786 183.44 49.1786C183.44 49.1786 182.901 48.9691 182.964 48.7595C183.433 41.3974 175.436 37.7023 172.612 31.9746L169.444 33.4764Z" fill="#BC9275"/>
<path d="M176.509 51.5893L183.02 47.566C183.09 46.4204 182.894 44.9676 182.347 43.7382L179.887 37.0885C179.515 36.2782 178.73 34.8603 178.387 34.2596L173.719 25.7519C173.432 25.3467 172.934 25.1861 172.472 25.214L168.105 25.7309C167.579 25.7728 167.082 25.9474 166.675 26.2338C166.023 26.639 165.61 27.1908 165.189 27.7426C164.229 29.2094 163.318 31.8637 163.227 33.61C162.491 45.9385 166.065 67.2846 166.065 67.2846L186.609 58.9934C179.642 55.5009 178.934 54.9072 176.516 51.5963L176.509 51.5893Z" fill="#F7931E"/>
<path d="M176.368 51.5336C171.364 46.4765 171.216 45.6383 170.95 44.1225C170.859 43.6057 170.754 43.0189 170.438 42.1528L170.733 42.041C171.062 42.9351 171.167 43.5358 171.259 44.0667C171.518 45.5195 171.658 46.3228 176.592 51.3101L176.368 51.5336Z" fill="#9E4F0D"/>
<path d="M208.399 50.5134C208.399 49.9686 208.076 49.9197 207.81 49.9546L205.196 50.5972L206.275 49.8638C206.415 49.7171 206.296 49.5285 206.1 49.4796C205.49 49.333 204.383 49.8848 204.025 50.0384C203.836 50.0524 203.107 50.2131 202.686 50.5274C202.196 50.8557 201.887 51.2259 201.299 51.1979L199.406 51.0513L199.939 54.1805C201.137 53.8802 202.827 53.985 204.523 54.3272C204.922 54.3691 205.378 54.3272 205.763 54.1736C206.121 54.0758 206.492 53.8522 206.667 53.6497C206.99 53.2865 207.039 52.8883 207.039 52.8883C207.656 52.4483 207.27 52.0501 207.27 52.0501C207.27 52.0501 207.754 51.8336 208.118 51.617C208.441 51.3726 208.118 50.8766 208.118 50.8766C208.251 50.8487 208.371 50.688 208.399 50.5274V50.5134Z" fill="#BC9275"/>
<path d="M205.28 50.5486C205.273 50.5975 204.873 50.7512 204.382 50.9328C203.892 51.1144 203.45 51.2611 203.45 51.2611C203.457 51.2122 203.857 51.0585 204.347 50.8769C204.852 50.6464 205.244 50.4927 205.28 50.5486Z" fill="#BC9275"/>
<path d="M208.125 50.855C208.125 50.855 207.578 51.0506 206.906 51.2392C206.233 51.4278 205.665 51.5465 205.665 51.5465C205.665 51.5465 206.212 51.3509 206.885 51.1623C207.557 50.9737 208.076 50.827 208.125 50.855Z" fill="#BC9275"/>
<path d="M207.032 52.8597C207.032 52.8597 206.78 52.9994 206.486 53.1182L205.883 53.2858C205.883 53.2858 206.135 53.1461 206.43 53.0274C206.787 52.8877 207.06 52.8178 207.032 52.8597Z" fill="#BC9275"/>
<path d="M207.271 52.0562C207.271 52.0562 207.004 52.1679 206.703 52.2518L206.079 52.3496C206.079 52.3496 206.345 52.2378 206.647 52.154C207.018 52.0632 207.299 52.0143 207.271 52.0562Z" fill="#BC9275"/>
<path d="M205.974 49.9416C206.051 49.9137 206.142 49.8648 206.233 49.8159C206.233 49.8159 206.282 49.6971 206.233 49.6343C206.191 49.5714 206.016 49.5085 205.932 49.5295C205.855 49.5435 205.609 49.6063 205.609 49.6063C205.609 49.6063 205.672 49.8857 205.707 49.9486C205.743 50.0115 205.743 50.0115 205.743 50.0115C205.827 49.9905 205.911 49.9696 205.974 49.9486V49.9416Z" fill="#C9AB97"/>
<path d="M193.456 31.0395C193.456 31.0395 193.66 30.823 193.814 30.7532C193.968 30.6833 194.283 30.837 194.164 31.1024C194.045 31.3678 193.309 32.0384 193.309 32.0384C193.309 32.0384 192.994 32.7509 192.959 32.8347C192.924 32.9185 193.043 33.5122 193.127 33.7288C193.211 33.9453 192.987 35.7823 192.98 35.9081C192.973 36.0338 192.734 37.5845 192.405 37.5565C192.076 37.5286 190.814 37.0396 190.989 36.4669C191.164 35.8941 191.999 32.1152 192.44 31.7101C192.882 31.305 193.449 31.0395 193.449 31.0395H193.456Z" fill="#AD876D"/>
<path d="M193.526 31.0544L193.8 30.8095C193.941 30.7256 194.137 30.8375 194.053 31.0264C193.962 31.1384 193.863 31.2363 193.758 31.2923C193.653 31.2293 193.576 31.1523 193.526 31.0544Z" fill="#C9AB97"/>
<path d="M184.162 55.4242L186.601 58.9866L183.433 59.0285L179.305 55.3683L179.725 55.1309C179.725 55.1309 180.062 55.3264 180.244 55.3614C180.426 55.3963 182.508 55.4522 182.508 55.4522L184.169 55.4242H184.162Z" fill="#F7931E"/>
<path d="M174.083 18.9915C174.083 18.9915 173.999 18.3559 174.041 17.8599C174.041 17.371 174.097 16.9729 174.097 16.9729C174.097 16.9729 174.181 16.8611 174.153 17.3221C174.125 17.7831 174.09 18.1813 174.097 18.3629C174.104 18.5445 174.153 18.9845 174.125 18.9845C174.097 18.9845 174.083 18.9915 174.083 18.9915Z" fill="#876650"/>
<path d="M174.153 16.9719C174.153 16.9719 174.167 17.6355 174.167 18.1384C174.167 18.6413 174.167 18.9766 174.167 18.9766C174.167 18.9766 174.132 19.0884 174.132 18.6274C174.132 18.1663 174.139 17.7612 174.139 17.5866C174.139 17.377 174.111 16.9579 174.125 16.9649C174.139 16.9649 174.146 16.9649 174.146 16.9649L174.153 16.9719Z" fill="#876650"/>
<path d="M174.223 18.9697C174.223 18.9697 174.23 18.3062 174.223 17.8032C174.216 17.3003 174.202 16.965 174.202 16.965C174.202 16.965 174.139 16.8533 174.153 17.3143C174.16 17.7753 174.188 18.1804 174.195 18.3551C174.195 18.5646 174.153 18.9837 174.195 18.9767C174.223 18.9767 174.238 18.9767 174.238 18.9767L174.223 18.9697Z" fill="#876650"/>
<path d="M174.664 18.8645C174.664 18.8645 174.629 18.2009 174.587 17.7049C174.545 17.209 174.51 16.8737 174.51 16.8737C174.51 16.8737 174.44 16.769 174.482 17.223C174.524 17.684 174.573 18.0821 174.594 18.2568C174.615 18.4663 174.594 18.8854 174.629 18.8784L174.671 18.8645H174.664Z" fill="#876650"/>
<path d="M174.777 18.8371C174.777 18.8371 174.721 18.1735 174.665 17.6776C174.609 17.1817 174.56 16.8464 174.56 16.8464C174.56 16.8464 174.49 16.7416 174.546 17.1956C174.602 17.6566 174.665 18.0548 174.686 18.2294C174.714 18.439 174.707 18.8581 174.742 18.8441L174.784 18.8301L174.777 18.8371Z" fill="#876650"/>
<path d="M174.314 18.9561C174.314 18.9561 174.321 18.2925 174.314 17.7896C174.307 17.2866 174.293 16.9514 174.293 16.9514C174.293 16.9514 174.23 16.8396 174.244 17.3006C174.251 17.7616 174.279 18.1668 174.286 18.3414C174.286 18.5509 174.244 18.97 174.286 18.963C174.314 18.963 174.328 18.963 174.328 18.963L174.314 18.9561Z" fill="#876650"/>
<path d="M174.405 18.9346C174.405 18.9346 174.412 18.271 174.405 17.7681C174.398 17.2652 174.384 16.9299 174.384 16.9299C174.384 16.9299 174.321 16.8181 174.335 17.2791C174.342 17.7401 174.37 18.1453 174.377 18.3199C174.377 18.5294 174.335 18.9485 174.377 18.9416C174.405 18.9416 174.419 18.9416 174.419 18.9416L174.405 18.9346Z" fill="#876650"/>
<path d="M174.454 16.8945C174.454 16.8945 174.496 17.5581 174.51 18.061C174.524 18.5639 174.524 18.8992 174.524 18.8992C174.524 18.8992 174.461 19.004 174.454 18.557C174.447 18.1099 174.454 17.6908 174.447 17.5162C174.447 17.3066 174.377 16.8945 174.412 16.9015C174.44 16.9015 174.454 16.9015 174.454 16.9015V16.8945Z" fill="#876650"/>
<path d="M175.016 18.7662C175.016 18.7662 174.805 18.1446 174.742 17.6346C174.679 17.1247 174.616 16.7266 174.616 16.7266C174.616 16.7266 174.672 16.6009 174.742 17.0619C174.812 17.5229 174.855 17.942 174.904 18.1236C174.953 18.3052 175.086 18.7313 175.065 18.7453C175.044 18.7592 175.023 18.7662 175.023 18.7662H175.016Z" fill="#876650"/>
<path d="M175.085 18.7459C175.085 18.7459 174.924 18.1103 174.896 17.5934C174.833 17.0974 174.84 16.6853 174.84 16.6853C174.84 16.6853 174.91 16.5666 174.938 17.0346C174.966 17.5026 174.98 17.9147 175.015 18.1033C175.05 18.2919 175.148 18.7249 175.127 18.7389C175.106 18.7529 175.085 18.7529 175.085 18.7529V18.7459Z" fill="#876650"/>
<path d="M174.847 18.8156C174.847 18.8156 174.819 18.1799 174.7 17.677C174.581 17.1741 174.49 16.7899 174.49 16.7899C174.49 16.7899 174.392 16.6921 174.497 17.1531C174.602 17.6142 174.707 18.0123 174.728 18.2009C174.749 18.3895 174.784 18.8365 174.805 18.8295C174.833 18.8295 174.847 18.8226 174.847 18.8156Z" fill="#876650"/>
<path d="M174.931 18.7941C174.931 18.7941 174.826 18.1165 174.735 17.6136C174.644 17.1107 174.566 16.7684 174.566 16.7684C174.566 16.7684 174.489 16.6707 174.573 17.1317C174.658 17.5997 174.756 17.9978 174.791 18.1794C174.833 18.389 174.854 18.822 174.889 18.8081C174.917 18.8011 174.931 18.8011 174.931 18.7941Z" fill="#876650"/>
<path d="M174.756 16.7266C174.756 16.7266 174.854 17.4041 174.91 17.914C174.966 18.4239 174.995 18.7662 174.995 18.7662C174.995 18.7662 174.945 18.8849 174.896 18.4169C174.847 17.9489 174.819 17.5368 174.798 17.3552C174.777 17.1387 174.679 16.7266 174.707 16.7266C174.735 16.7266 174.749 16.7266 174.749 16.7266H174.756Z" fill="#876650"/>
<path d="M174.89 16.6778C174.89 16.6778 174.988 17.3554 175.051 17.8653C175.114 18.3752 175.156 18.7174 175.156 18.7174C175.156 18.7174 175.128 18.8013 175.079 18.3682C175.023 17.9002 174.981 17.4881 174.96 17.3065C174.932 17.0969 174.848 16.6708 174.869 16.6778C174.883 16.6778 174.89 16.6778 174.89 16.6778Z" fill="#876650"/>
<path d="M175.226 18.6893C175.226 18.6893 175.149 18.0188 175.079 17.5089C175.009 16.999 174.946 16.6567 174.946 16.6567C174.946 16.6567 174.869 16.5519 174.939 17.013C175.009 17.4809 175.079 17.8861 175.114 18.0677C175.149 18.2772 175.156 18.7103 175.184 18.6963C175.212 18.6893 175.226 18.6824 175.226 18.6754V18.6893Z" fill="#876650"/>
<path d="M175.583 18.5499C175.583 18.5499 175.478 17.8724 175.387 17.3695C175.296 16.8666 175.219 16.5243 175.219 16.5243C175.219 16.5243 175.142 16.4265 175.226 16.8875C175.317 17.3555 175.408 17.7537 175.443 17.9353C175.485 18.1448 175.513 18.5779 175.541 18.5639C175.569 18.5569 175.583 18.5499 175.583 18.5499Z" fill="#876650"/>
<path d="M175.296 18.662C175.296 18.662 175.219 17.9914 175.149 17.4815C175.079 16.9716 175.016 16.6294 175.016 16.6294C175.016 16.6294 174.939 16.5246 175.009 16.9856C175.079 17.4536 175.149 17.8587 175.184 18.0403C175.219 18.2499 175.226 18.683 175.254 18.669C175.282 18.662 175.296 18.655 175.296 18.655V18.662Z" fill="#876650"/>
<path d="M175.394 18.626C175.394 18.626 175.317 17.9485 175.247 17.4386C175.177 16.9287 175.114 16.5864 175.114 16.5864C175.114 16.5864 175.036 16.4816 175.107 16.9426C175.177 17.4106 175.247 17.8158 175.282 17.9974C175.317 18.2069 175.324 18.64 175.352 18.626C175.38 18.619 175.394 18.619 175.394 18.619V18.626Z" fill="#876650"/>
<path d="M175.163 16.5449C175.163 16.5449 175.289 17.2155 175.366 17.7254C175.443 18.2353 175.485 18.5776 175.485 18.5776C175.485 18.5776 175.443 18.6963 175.373 18.2353C175.303 17.7673 175.254 17.3552 175.233 17.1736C175.205 16.964 175.086 16.5449 175.121 16.5519C175.149 16.5519 175.163 16.5519 175.163 16.5519V16.5449Z" fill="#876650"/>
<path d="M175.744 18.4523C175.744 18.4523 175.583 17.8516 175.52 17.3487C175.456 16.8458 175.4 16.4476 175.4 16.4476C175.4 16.4476 175.428 16.3079 175.492 16.7689C175.555 17.2299 175.604 17.649 175.639 17.8237C175.674 17.9983 175.786 18.4174 175.772 18.4383C175.758 18.4593 175.744 18.4593 175.744 18.4593V18.4523Z" fill="#876650"/>
<path d="M175.786 18.4245C175.786 18.4245 175.653 17.7958 175.618 17.2789C175.555 16.783 175.548 16.3569 175.548 16.3569C175.548 16.3569 175.583 16.2242 175.625 16.6992C175.667 17.1741 175.688 17.5932 175.716 17.7749C175.744 17.9565 175.828 18.3965 175.814 18.4035C175.8 18.4105 175.786 18.4245 175.786 18.4245Z" fill="#876650"/>
<path d="M175.632 18.516C175.632 18.516 175.59 17.8664 175.492 17.3774C175.394 16.8885 175.324 16.5043 175.324 16.5043C175.324 16.5043 175.254 16.4205 175.345 16.8675C175.436 17.3145 175.513 17.7057 175.534 17.8943C175.555 18.0829 175.597 18.5369 175.611 18.5299C175.625 18.5229 175.639 18.516 175.639 18.509L175.632 18.516Z" fill="#876650"/>
<path d="M175.688 18.4809C175.688 18.4809 175.597 17.8033 175.512 17.3074C175.428 16.8114 175.372 16.4762 175.372 16.4762C175.372 16.4762 175.316 16.3854 175.393 16.8394C175.47 17.3004 175.54 17.6985 175.575 17.8732C175.611 18.0827 175.639 18.5158 175.66 18.4948C175.681 18.4878 175.688 18.4809 175.688 18.4739V18.4809Z" fill="#876650"/>
<path d="M175.499 16.3984C175.499 16.3984 175.59 17.076 175.646 17.5859C175.702 18.0958 175.737 18.445 175.737 18.445C175.737 18.445 175.716 18.5708 175.66 18.1028C175.611 17.6278 175.576 17.2157 175.555 17.0341C175.534 16.8175 175.45 16.4124 175.471 16.4054C175.485 16.4054 175.499 16.3984 175.499 16.4054V16.3984Z" fill="#876650"/>
<path d="M175.576 16.3438C175.576 16.3438 175.668 17.0213 175.731 17.5242C175.794 18.0271 175.829 18.3764 175.829 18.3764C175.829 18.3764 175.822 18.4951 175.766 18.0341C175.71 17.5661 175.668 17.154 175.646 16.9724C175.618 16.7629 175.548 16.3438 175.562 16.3438C175.569 16.3438 175.576 16.3438 175.576 16.3438Z" fill="#876650"/>
<path d="M175.87 18.3623C175.87 18.3623 175.793 17.6847 175.73 17.1818C175.667 16.6789 175.611 16.3366 175.611 16.3366C175.611 16.3366 175.562 16.2388 175.618 16.7068C175.681 17.1748 175.744 17.5799 175.772 17.7546C175.8 17.9641 175.821 18.4042 175.842 18.3902C175.856 18.3762 175.87 18.3693 175.87 18.3693V18.3623Z" fill="#876650"/>
<path d="M176.039 17.9641C176.039 17.9641 175.969 17.3914 175.891 16.9513C175.814 16.5112 175.765 16.2109 175.765 16.2109C175.765 16.2109 175.716 16.1341 175.779 16.5392C175.842 16.9443 175.912 17.3005 175.94 17.4542C175.976 17.6358 176.011 18.0549 176.018 18.034C176.025 18.013 176.039 17.9641 176.039 17.9641Z" fill="#876650"/>
<path d="M175.968 17.915C175.968 17.915 175.954 17.3422 175.94 16.9092C175.926 16.4761 175.898 16.1897 175.898 16.1897C175.898 16.1897 175.856 16.1129 175.877 16.504C175.898 16.9022 175.926 17.2444 175.933 17.3911C175.94 17.5727 175.94 17.9709 175.954 17.9499C175.968 17.929 175.975 17.908 175.975 17.908L175.968 17.915Z" fill="#876650"/>
<path d="M176.102 17.0422C176.102 17.0422 176.193 16.7767 176.249 16.5811C176.305 16.3856 176.34 16.2529 176.34 16.2529C176.34 16.2529 176.312 16.2179 176.263 16.3926C176.214 16.5742 176.179 16.7348 176.158 16.8047C176.137 16.8885 176.06 17.0701 176.081 17.0631C176.102 17.0561 176.109 17.0422 176.109 17.0422H176.102Z" fill="#876650"/>
<path d="M176.102 16.9576C176.102 16.9576 176.137 16.6782 176.158 16.4757C176.179 16.2731 176.179 16.1334 176.179 16.1334C176.179 16.1334 176.144 16.0985 176.13 16.2871C176.116 16.4757 176.116 16.6363 176.109 16.7132C176.109 16.797 176.067 16.9926 176.081 16.9856C176.095 16.9786 176.102 16.9646 176.102 16.9646V16.9576Z" fill="#876650"/>
<path d="M176.052 17.8935C176.052 17.8935 176.038 17.3207 176.024 16.8877C176.01 16.4546 175.982 16.1682 175.982 16.1682C175.982 16.1682 175.94 16.0914 175.961 16.4825C175.982 16.8807 176.01 17.223 176.017 17.3696C176.024 17.5512 176.024 17.9494 176.038 17.9284C176.052 17.9075 176.059 17.8865 176.059 17.8865L176.052 17.8935Z" fill="#876650"/>
<path d="M176.053 16.1886C176.053 16.1886 176.06 16.6007 176.053 16.9011C176.046 17.2014 176.039 17.411 176.039 17.411C176.039 17.411 175.997 17.4599 176.004 17.1874C176.004 16.908 176.025 16.6636 176.025 16.5588C176.025 16.4331 176.011 16.1467 176.025 16.1606C176.039 16.1746 176.046 16.1956 176.046 16.1956L176.053 16.1886Z" fill="#876650"/>
<path d="M175.969 16.4905C175.969 16.4905 176.004 16.9375 176.011 17.2728C176.018 17.6081 176.025 17.8316 176.025 17.8316C176.025 17.8316 175.99 17.8944 175.976 17.5871C175.962 17.2798 175.969 17.0143 175.962 16.8956C175.962 16.7559 175.927 16.4416 175.941 16.4555C175.955 16.4695 175.962 16.4905 175.962 16.4905H175.969Z" fill="#876650"/>
<path d="M175.857 16.217C175.857 16.217 175.892 16.6641 175.899 16.9993C175.906 17.3346 175.913 17.5581 175.913 17.5581C175.913 17.5581 175.878 17.621 175.864 17.3137C175.85 17.0063 175.857 16.7409 175.85 16.6221C175.85 16.4824 175.814 16.1681 175.829 16.1821C175.843 16.1961 175.85 16.217 175.85 16.217H175.857Z" fill="#876650"/>
<path d="M176.045 17.9416C176.045 17.9416 176.087 17.3689 176.109 16.9358C176.13 16.5027 176.137 16.2163 176.137 16.2163C176.137 16.2163 176.101 16.1325 176.08 16.5307C176.059 16.9288 176.059 17.2711 176.052 17.4247C176.052 17.6064 176.01 18.0045 176.017 17.9835C176.024 17.9626 176.038 17.9416 176.038 17.9416H176.045Z" fill="#876650"/>
<path d="M176.053 17.8578C176.053 17.8578 176.109 17.3758 176.151 16.9288C176.193 16.4957 176.27 16.2443 176.27 16.2443C176.27 16.2443 176.249 16.1604 176.179 16.5376C176.109 16.9148 176.074 17.2501 176.074 17.3968C176.074 17.5574 176.032 17.8648 176.039 17.8508C176.039 17.8299 176.053 17.8578 176.053 17.8508V17.8578Z" fill="#876650"/>
<path d="M175.92 18.3048C175.92 18.3048 175.843 17.6273 175.78 17.1173C175.717 16.6074 175.66 16.2722 175.66 16.2722C175.66 16.2722 175.611 16.1744 175.668 16.6424C175.731 17.1104 175.794 17.5155 175.822 17.6901C175.85 17.8997 175.878 18.3467 175.899 18.3327C175.913 18.3188 175.92 18.3048 175.92 18.3048Z" fill="#876650"/>
<path d="M175.962 18.242C175.962 18.242 175.892 17.5784 175.828 17.0685C175.765 16.5586 175.709 16.2233 175.709 16.2233C175.709 16.2233 175.66 16.1255 175.716 16.5935C175.779 17.0615 175.842 17.4667 175.871 17.6413C175.899 17.8508 175.92 18.2909 175.941 18.2769C175.955 18.263 175.962 18.242 175.962 18.242Z" fill="#876650"/>
<path d="M175.751 16.2031C175.751 16.2031 175.849 16.8318 175.905 17.3137C175.961 17.7957 176.01 18.0961 176.01 18.0961C176.01 18.0961 175.982 18.2427 175.926 17.8027C175.87 17.3626 175.828 16.9715 175.814 16.7969C175.793 16.5943 175.702 16.2171 175.73 16.2101C175.744 16.2101 175.758 16.1961 175.758 16.2031H175.751Z" fill="#876650"/>
</g>
<defs>
<clipPath id="clip0_14673_7096">
<rect width="129.363" height="149.576" fill="white" transform="translate(123.668 0.941406)"/>
</clipPath>
</defs>
</svg>
