<svg width="343" height="203" viewBox="0 0 343 203" fill="none" xmlns="http://www.w3.org/2000/svg">
<path d="M171.5 174.371C257.104 174.371 326.5 168.991 326.5 162.355C326.5 155.719 257.104 150.34 171.5 150.34C85.8959 150.34 16.5 155.719 16.5 162.355C16.5 168.991 85.8959 174.371 171.5 174.371Z" fill="#D6D6D6"/>
<path d="M124.777 160.695H77.3096V162.46H124.777V160.695Z" fill="#F2F2F2"/>
<path d="M208.164 160.695H160.697V162.46H208.164V160.695Z" fill="#F2F2F2"/>
<path d="M90.2165 104.877C93.5141 105.806 89.0554 110.264 91.2847 122.012C92.4459 128.142 87.1511 143.002 89.1947 149.828C89.752 151.685 85.8971 150.246 84.6895 150.339C85.572 148.853 85.8506 145.788 85.572 143.605C84.7824 137.708 85.572 127.213 85.99 124.148L84.6431 110.031L90.2165 104.877Z" fill="#FFD2C1"/>
<path d="M91.8705 150.291C92.2421 149.176 92.3814 146.808 92.0563 144.161C91.917 143.14 91.8705 142.164 91.8705 141.143C91.9634 135.292 92.1957 129.069 93.0781 122.568C93.171 122.197 92.9388 121.361 92.9388 121.361C92.9388 121.361 90.0592 106.269 89.4089 102.647L88.4336 98.7461L94.3786 96.4707C96.7009 106.362 98.9302 116.671 98.0013 121.361C98.0013 121.454 98.0013 121.5 98.0013 121.593C97.6762 127.676 95.7255 134.967 94.9359 144.068C94.8895 144.626 94.9359 145.647 94.9824 146.204C94.9824 146.251 94.9824 146.297 94.9824 146.39L95.0753 149.734C93.7748 150.384 92.5672 150.848 91.8705 150.291Z" fill="#FFD2C1"/>
<path d="M90.414 58.9043L93.9438 59.1829C92.8291 61.5048 92.504 63.6873 93.6652 65.2661L88.9277 64.8946C90.1353 63.6409 90.8784 60.9011 90.414 58.9043Z" fill="#FFD2C1"/>
<path fill-rule="evenodd" clip-rule="evenodd" d="M133.648 137.894C134.855 138.591 135.32 140.077 134.623 141.284L125.891 156.841C125.427 157.584 124.637 158.094 123.709 158.094H82.3259C80.9789 158.094 79.8643 156.98 79.8643 155.633C79.8643 154.287 80.9789 153.172 82.3259 153.172H122.222L130.164 138.916C130.954 137.662 132.44 137.291 133.648 137.894Z" fill="#3DBCC8"/>
<path fill-rule="evenodd" clip-rule="evenodd" d="M70.7156 159.952C72.7592 159.952 74.4777 158.281 74.4777 156.191C74.4777 154.101 72.8056 152.43 70.7156 152.43C68.672 152.43 66.9535 154.101 66.9535 156.191C66.9535 158.327 68.672 159.952 70.7156 159.952ZM70.7156 164.921C75.4995 164.921 79.4473 161.02 79.4473 156.191C79.4473 151.408 75.5459 147.461 70.7156 147.461C65.9317 147.461 61.9839 151.362 61.9839 156.191C61.9839 161.02 65.8853 164.921 70.7156 164.921Z" fill="#20505A"/>
<path fill-rule="evenodd" clip-rule="evenodd" d="M141.742 159.952C143.786 159.952 145.505 158.281 145.505 156.191C145.505 154.101 143.832 152.43 141.742 152.43C139.652 152.43 137.98 154.101 137.98 156.191C137.98 158.327 139.699 159.952 141.742 159.952ZM141.742 164.921C146.526 164.921 150.474 161.02 150.474 156.191C150.474 151.408 146.573 147.461 141.742 147.461C136.912 147.461 133.011 151.362 133.011 156.191C133.011 161.02 136.912 164.921 141.742 164.921Z" fill="#20505A"/>
<path fill-rule="evenodd" clip-rule="evenodd" d="M123.511 107.571C124.766 106.967 126.205 107.571 126.809 108.778L128.017 111.332C128.62 112.586 128.017 114.025 126.809 114.629C125.555 115.233 124.115 114.629 123.511 113.422L122.304 110.868C121.7 109.66 122.211 108.174 123.511 107.571Z" fill="#20505A"/>
<path fill-rule="evenodd" clip-rule="evenodd" d="M127.915 131.904L133.163 145.277C133.442 146.02 134.231 147.088 134.835 147.553C135.718 148.156 136.647 148.296 137.668 147.692C138.876 146.81 138.504 144.256 137.575 142.213L136.461 139.659L127.915 118.716L120.623 100.373L116.861 102.323L127.915 131.904Z" fill="#65C8D0"/>
<path fill-rule="evenodd" clip-rule="evenodd" d="M121.899 101.395C121.62 101.302 121.063 101.534 121.063 101.534L122.317 104.738L122.781 104.553C122.781 104.506 122.735 101.674 121.899 101.395Z" fill="#1A1A1A"/>
<path fill-rule="evenodd" clip-rule="evenodd" d="M116.863 102.277L112.358 89.9711C112.636 89.9711 110.779 89.8783 109.664 90.4355C109.06 90.7141 107.574 91.55 107.342 91.3178C106.506 90.9463 105.995 90.4355 105.902 89.3674C105.902 88.3923 106.506 87.9279 107.342 87.7886L112.683 87.3243L112.451 86.349L108.41 86.6277L108.271 85.9312L113.844 85.4668L114.355 87.7422C115.33 87.835 116.166 88.2065 116.77 89.321L120.671 100.28L116.863 102.277Z" fill="#1A1A1A"/>
<g opacity="0.96">
<path d="M126.798 121.129C126.658 121.222 126.519 121.269 126.333 121.408L125.869 120.34L125.265 120.572L126.101 122.662C126.333 123.265 126.984 123.498 127.587 123.265C128.191 123.033 128.47 122.383 128.284 121.779C128.052 121.222 127.402 120.943 126.798 121.129ZM127.448 122.708C127.169 122.801 126.844 122.708 126.751 122.429C126.658 122.151 126.751 121.826 127.03 121.733C127.309 121.64 127.634 121.733 127.727 122.012C127.82 122.337 127.68 122.662 127.448 122.708Z" fill="white"/>
<path d="M129.438 127.583C128.835 127.815 128.556 128.465 128.835 129.069L129.299 130.184L129.903 129.951L129.438 128.837C129.345 128.605 129.438 128.326 129.717 128.14C129.949 128.047 130.228 128.14 130.414 128.419L130.878 129.533L131.482 129.301L131.017 128.187C130.739 127.676 130.042 127.397 129.438 127.583Z" fill="white"/>
<path d="M128.326 124.89C128.186 124.983 128.093 125.122 128.186 125.354L128.883 127.165L129.58 126.887L128.837 125.076C128.697 124.983 128.558 124.844 128.326 124.89Z" fill="white"/>
<path d="M128.037 124.751C128.294 124.751 128.502 124.543 128.502 124.287C128.502 124.03 128.294 123.822 128.037 123.822C127.781 123.822 127.573 124.03 127.573 124.287C127.573 124.543 127.781 124.751 128.037 124.751Z" fill="white"/>
<path d="M122.596 110.774C122.456 110.867 122.317 110.913 122.131 111.052L121.667 109.984L121.063 110.217L121.899 112.306C122.131 112.91 122.781 113.142 123.385 112.91C123.989 112.678 124.268 112.028 124.082 111.424C123.896 110.867 123.199 110.542 122.596 110.774ZM123.199 112.353C122.921 112.446 122.596 112.353 122.503 112.074C122.41 111.795 122.503 111.47 122.781 111.377C123.06 111.285 123.385 111.377 123.478 111.656C123.664 111.981 123.525 112.306 123.199 112.353Z" fill="white"/>
<path d="M125.236 117.229C124.632 117.461 124.354 118.111 124.632 118.715L125.097 119.829L125.701 119.597L125.236 118.482C125.143 118.25 125.236 117.972 125.515 117.786C125.794 117.647 126.026 117.786 126.212 118.065L126.676 119.179L127.28 118.947L126.815 117.832C126.444 117.322 125.84 116.996 125.236 117.229Z" fill="white"/>
<path d="M124.041 114.535C123.902 114.628 123.809 114.767 123.902 115L124.599 116.811L125.295 116.532L124.552 114.721C124.413 114.628 124.181 114.535 124.041 114.535Z" fill="white"/>
<path d="M123.835 114.396C124.091 114.396 124.299 114.188 124.299 113.931C124.299 113.675 124.091 113.467 123.835 113.467C123.578 113.467 123.37 113.675 123.37 113.931C123.37 114.188 123.578 114.396 123.835 114.396Z" fill="white"/>
</g>
<path d="M95.6773 72.9284L97.7209 76.5504C97.9996 77.0612 98.4176 77.5256 98.8356 77.8971L107.939 84.8162C108.821 85.5127 109.518 86.4879 109.982 87.5095C110.122 87.7881 110.215 88.2061 110.215 88.5776C110.215 89.0884 110.075 89.5527 109.704 90.2493C109.239 91.0851 109.1 91.1315 107.753 90.7601C107.66 90.8994 108.357 90.0635 108.589 89.5063C108.821 88.8097 108.45 87.6488 107.892 87.1844C106.824 86.3022 105.71 85.4663 104.595 84.8626C104.363 84.7233 104.084 84.6304 103.759 84.584C101.947 84.2125 100.09 83.6088 98.1854 82.773C97.8138 82.6336 97.4887 82.4014 97.21 82.1693C95.1664 80.3118 93.5873 78.1757 91.7295 75.3431L95.3987 72.7891L95.6773 72.9284Z" fill="#E8C2B8"/>
<path d="M95.6986 72.9284L97.8816 77.1541C98.1602 77.6649 98.5782 78.1293 98.9963 78.5008L108.1 85.4198C108.982 86.1164 109.679 87.0916 110.19 88.206C110.329 88.4847 110.422 89.0884 110.422 89.4599C110.422 89.5992 110.422 89.692 110.329 89.8313C110.19 90.5279 109.725 91.0387 109.121 91.3173C108.239 91.6888 107.171 91.596 106.845 91.0852C107.31 91.3173 107.728 90.853 107.96 90.3422C108.192 89.8778 108.332 89.4598 108.425 88.9026C108.425 88.4382 108.425 87.9275 108.146 87.7882C106.938 87.0452 106.056 86.07 104.895 85.4663C104.848 85.4663 104.848 85.4198 104.802 85.4198C104.57 85.327 104.337 85.2341 104.059 85.1877C102.247 84.8162 100.39 84.2125 98.4854 83.3767C98.1138 83.2374 97.7887 83.0052 97.51 82.773C95.4664 80.9619 92.7261 77.3863 90.9148 74.4608C89.057 70.978 89.6608 68.9813 92.2152 68.2383C93.9337 68.5169 95.0948 70.0493 95.6986 72.9284Z" fill="#FFD2C1"/>
<path d="M94.4471 48.3633C94.4471 48.3633 96.3978 51.7996 95.9334 53.4713C95.8405 53.7035 95.8405 53.9357 95.7941 54.075C95.6547 55.0502 95.7012 55.143 96.2585 55.6538C96.723 56.0253 96.6301 56.1646 96.3978 56.3968C96.2585 56.4897 96.1656 56.6754 96.1656 56.8612C96.1656 57.0934 96.2585 57.2327 96.2585 57.3256C96.2585 57.4184 96.4907 57.9292 95.8869 57.8364C94.1685 57.5577 95.5154 57.9292 95.8869 57.9757C95.8869 57.9757 96.3978 58.115 96.3514 58.2543C96.2585 58.3936 96.0727 58.7651 95.9798 58.9973C95.887 59.2295 95.887 59.8331 95.7476 60.1118C95.6083 60.3904 94.0291 60.8547 93.0538 60.6226C92.3107 60.4832 91.3353 60.2511 90.8709 60.1582C90.7315 60.1582 90.4993 59.7867 90.36 59.6938C90.1277 59.5545 89.6168 59.4152 89.1524 59.0902C88.3164 58.5793 89.0131 58.2543 89.0595 57.9757C89.1524 57.697 89.0595 57.0469 89.0131 56.9076C88.9202 56.7683 88.3164 55.886 88.177 55.4216C87.9448 54.818 88.3164 53.9357 88.5486 53.6106C88.8273 53.332 89.3846 53.0998 89.7562 53.3784C90.0348 53.6106 90.6386 53.9821 90.8244 53.6571C90.9638 53.3784 92.5429 50.6387 92.9145 50.4065C93.286 50.1743 94.4471 48.3633 94.4471 48.3633Z" fill="#FFD2C1"/>
<path fill-rule="evenodd" clip-rule="evenodd" d="M108.441 86.0225L109.184 85.9297L109.649 86.5798L108.441 86.7191L108.209 86.0225H108.441Z" fill="#1A1A1A"/>
<path d="M96.3274 57.5579C96.3274 57.2793 96.3274 57.1864 96.0952 57.3257C96.0023 57.4186 94.9805 57.6508 95.0269 57.6972L95.5378 57.7436C95.7236 57.7901 95.9094 57.8365 96.0023 57.8365C96.0952 57.8365 96.1416 57.8365 96.2345 57.7436C96.3274 57.7436 96.3274 57.6043 96.3274 57.5579Z" fill="#D6A483"/>
<path d="M96.1401 58.7189C96.2794 58.5796 96.3723 58.3474 96.3723 58.2545C96.3723 58.1616 96.3723 58.1152 96.233 58.0223C95.7685 57.9295 95.0254 57.7901 95.0254 57.6973C95.0254 57.7901 95.7221 58.626 96.1401 58.7189Z" fill="#D6A483"/>
<path d="M94.7254 48.8289C94.7254 48.8289 94.0288 48.9218 93.8894 49.8041C93.7501 50.6864 93.7501 51.4294 92.8676 52.0331C91.9852 52.6367 91.6136 52.9154 91.4278 53.4726C91.1491 54.262 90.5918 54.4478 89.988 54.2156C89.3378 53.9834 88.8269 53.5655 88.4089 54.3085C88.0373 54.9586 88.6411 56.6303 89.1984 57.0018C89.5236 57.234 89.2913 57.0482 89.4771 58.302C89.7093 59.6022 89.7558 59.2772 89.5236 59.8809C89.2449 60.7167 88.8733 60.9489 87.5729 61.0418C85.7615 61.1811 86.4117 60.2059 85.0648 60.531C83.9037 60.8096 82.0459 60.6703 81.7208 59.3236C81.3956 58.0234 81.8136 57.559 80.2345 56.6303C78.7018 55.748 80.2345 53.9834 79.7236 52.9618C79.2127 51.9402 79.2127 51.0579 80.0023 50.3614C80.7918 49.6648 80.6061 48.5039 82.4639 48.5503C84.3217 48.5967 84.461 47.5751 85.5293 46.8321C86.5975 46.0892 88.0838 45.7177 89.1984 45.857C90.3131 45.9963 92.2638 46.2749 93.007 46.6C93.7036 46.9715 94.8648 48.5503 94.7254 48.8289Z" fill="#42210B"/>
<path d="M89.0656 64.6172C89.3443 64.7565 90.2267 64.8493 91.713 64.71C93.1992 64.6172 92.967 64.6172 93.6637 64.8029C94.3603 65.0351 94.3603 66.5675 94.6855 67.0783C94.9641 67.5891 95.3821 68.9358 95.6608 69.7252C95.893 70.5147 96.1253 70.5611 96.4504 71.2576C96.7755 71.9542 96.8684 74.9725 96.8684 74.9725L95.7537 72.9294C95.3821 72.4186 95.475 70.236 93.3386 68.6572C91.9452 67.5891 90.8305 69.168 90.3196 70.1431C90.0874 70.6075 89.948 71.2112 90.0874 71.722C90.3661 72.9758 90.6447 73.6259 91.0627 74.4153L92.2703 76.3192L92.5954 76.7836C92.6883 76.7372 92.5954 76.9229 93.803 78.316C95.1499 79.8484 94.3603 79.1983 95.8002 80.8236C95.9395 81.0094 96.8684 82.031 96.8684 82.031L99.7016 101.534C99.7016 101.534 101.606 111.75 100.352 114.258C98.8191 117.416 92.3632 116.766 87.9509 117.184C84.6533 117.462 84.6533 115.651 78.7083 114.862C72.9491 114.072 84.0959 103.345 84.8391 99.4912C85.3964 96.4728 86.3253 92.5257 86.9291 90.1574C87.5329 87.7891 85.5357 81.7523 85.3964 78.8732C85.3035 76.7372 85.4429 74.7404 85.8144 72.79C85.9538 72.0006 86.186 71.2576 86.5111 70.5146L89.0656 64.6172Z" fill="#74B79C"/>
<path d="M89.3097 57.374C89.5662 57.374 89.7741 57.1661 89.7741 56.9097C89.7741 56.6532 89.5662 56.4453 89.3097 56.4453C89.0532 56.4453 88.8452 56.6532 88.8452 56.9097C88.8452 57.1661 89.0532 57.374 89.3097 57.374Z" fill="#2EB779"/>
<path d="M89.9377 150.99C89.8448 151.037 89.752 151.687 89.752 151.826C89.752 151.966 89.7519 152.43 89.8913 152.569C89.9842 152.662 90.3093 152.755 90.9595 152.755C91.6562 152.801 93.1425 152.801 93.1425 152.801H96.3472L98.5766 152.755C98.9017 152.755 100.62 152.523 101.224 152.383C101.781 152.244 102.524 152.012 102.71 151.873C102.803 151.78 102.85 151.687 102.896 151.594C102.896 151.548 102.896 151.13 102.896 151.037C102.85 150.898 102.803 150.665 102.803 150.619C102.803 150.572 102.71 150.48 102.71 150.433C102.71 150.433 102.617 150.34 102.571 150.294C102.524 150.247 102.478 150.247 102.478 150.247C102.478 150.247 102.199 150.062 102.153 150.062C102.06 150.062 101.828 150.015 101.828 150.062C101.828 150.108 101.735 150.108 101.735 150.108C101.735 150.108 101.921 150.108 101.967 150.155C102.013 150.201 102.199 150.34 102.246 150.48C102.292 150.572 102.292 150.665 102.246 150.712C102.199 150.758 101.735 150.851 101.549 150.944C101.363 151.037 100.667 151.176 100.574 151.176C100.481 151.176 99.9699 151.269 99.877 151.315C99.7841 151.315 99.2268 151.362 99.1339 151.408C99.041 151.408 98.1585 151.455 98.1585 151.455H97.4154H96.2543H94.8609H93.6998H92.6316L91.3775 151.408H90.4951C90.4951 151.408 90.17 151.315 90.1235 151.315C90.0771 151.315 89.9377 150.99 89.9377 150.99Z" fill="#F9F9F9"/>
<path d="M90.7407 148.946C90.7407 148.946 90.9729 149.225 91.0658 149.271C91.1587 149.318 91.5767 149.55 91.9483 149.596C92.3199 149.643 93.0165 149.643 93.3881 149.55C93.7597 149.457 94.1777 149.225 94.3635 149.132C94.5028 149.039 95.0137 148.668 95.0601 148.621C95.0601 148.621 95.153 148.807 95.1995 148.9C95.2459 148.946 95.2459 148.993 95.2459 148.993C95.1995 149.039 94.9672 149.225 94.9208 149.225C94.8744 149.225 94.6421 149.41 94.6421 149.41L94.2706 149.55L93.899 149.689C93.899 149.689 93.7597 149.736 93.7132 149.782C93.6668 149.782 93.2023 149.875 93.2023 149.875C93.2023 149.875 92.8772 149.921 92.7843 149.921C92.7379 149.921 92.5985 149.921 92.5056 149.921C92.4128 149.875 92.1341 149.828 92.1341 149.828L91.6696 149.689C91.6696 149.689 91.3445 149.55 91.2516 149.503C91.1587 149.457 91.0658 149.411 91.0194 149.364C90.9729 149.318 90.9265 149.225 90.8801 149.178C90.8336 149.132 90.7407 148.946 90.7407 148.946Z" fill="#3A1903"/>
<path d="M96.4263 148.295C96.4263 148.295 96.5656 148.249 96.5192 148.202C96.4727 148.156 96.4263 148.109 96.4263 148.109C96.4263 148.109 96.4727 148.109 96.5192 148.109C96.5656 148.109 97.0301 148.388 97.0765 148.388C97.1229 148.434 97.6803 148.713 97.7267 148.76C97.7732 148.806 98.1447 148.992 98.2376 149.038C98.3305 149.085 98.7485 149.27 98.795 149.27C98.8414 149.27 99.213 149.41 99.213 149.41L99.6774 149.688L98.2376 149.085L97.2158 148.62L96.4263 148.295Z" fill="#260E01"/>
<path d="M90.6596 148.853C90.6596 148.853 90.2416 148.946 90.1952 149.225C90.1952 149.271 90.1952 149.318 90.1952 149.318C90.1487 149.457 90.1023 149.782 90.0558 150.014C90.0094 150.293 89.9165 150.943 89.9165 151.036C89.9165 151.129 89.9165 151.175 90.1487 151.221C90.381 151.314 92.9819 151.361 92.9819 151.314H97.9515C97.9515 151.314 100.413 151.221 101.528 150.85C101.76 150.757 101.946 150.711 102.085 150.618C102.132 150.571 102.178 150.571 102.178 150.478C102.178 150.432 102.132 150.293 102.132 150.293C102.085 150.246 101.853 150.014 101.806 150.014C101.76 150.014 101.435 150.061 101.296 150.014C101.156 149.968 99.6236 149.689 99.5771 149.689C99.5307 149.643 99.2056 149.503 98.6947 149.271C98.1838 149.039 96.6046 148.296 96.4653 148.249C96.326 148.203 95.815 148.389 95.6757 148.528C95.5364 148.621 94.8861 149.178 94.7468 149.271C94.6539 149.317 94.1895 149.55 93.9108 149.643C93.8179 149.689 93.6786 149.735 93.5857 149.735C93.307 149.782 92.7961 149.875 92.5174 149.875C92.2388 149.875 91.3099 149.55 91.0776 149.318C90.8454 149.132 90.7525 148.853 90.6596 148.853Z" fill="#66300C"/>
<path d="M98.4715 149.781C98.5997 149.781 98.7037 149.677 98.7037 149.549C98.7037 149.42 98.5997 149.316 98.4715 149.316C98.3432 149.316 98.2393 149.42 98.2393 149.549C98.2393 149.677 98.3432 149.781 98.4715 149.781Z" fill="#C3F2F4"/>
<path d="M99.0012 149.967C99.1038 149.967 99.187 149.884 99.187 149.781C99.187 149.679 99.1038 149.596 99.0012 149.596C98.8986 149.596 98.8154 149.679 98.8154 149.781C98.8154 149.884 98.8986 149.967 99.0012 149.967Z" fill="#C3F2F4"/>
<path d="M96.6585 149.039C96.7868 149.039 96.8907 148.935 96.8907 148.806C96.8907 148.678 96.7868 148.574 96.6585 148.574C96.5302 148.574 96.4263 148.678 96.4263 148.806C96.4263 148.935 96.5302 149.039 96.6585 149.039Z" fill="#C3F2F4"/>
<path d="M97.2352 149.271C97.3634 149.271 97.4674 149.167 97.4674 149.039C97.4674 148.911 97.3634 148.807 97.2352 148.807C97.1069 148.807 97.0029 148.911 97.0029 149.039C97.0029 149.167 97.1069 149.271 97.2352 149.271Z" fill="#C3F2F4"/>
<path d="M97.8118 149.503C97.9401 149.503 98.044 149.399 98.044 149.271C98.044 149.143 97.9401 149.039 97.8118 149.039C97.6836 149.039 97.5796 149.143 97.5796 149.271C97.5796 149.399 97.6836 149.503 97.8118 149.503Z" fill="#C3F2F4"/>
<path d="M96.5571 148.853C96.4642 148.76 96.5107 148.574 96.65 148.528C96.7429 148.481 96.8358 148.342 96.8822 148.342C96.9287 148.342 97.1609 148.481 97.2073 148.528C97.2538 148.574 97.2073 148.574 97.1145 148.667C96.8822 148.806 96.8358 148.945 96.7429 148.945C96.5571 148.899 96.5571 148.853 96.5571 148.853Z" fill="#C18E6C"/>
<path d="M97.1872 149.085C97.1408 148.993 97.1872 148.853 97.2337 148.807C97.2801 148.76 97.373 148.621 97.4194 148.621C97.4659 148.621 97.6517 148.714 97.6981 148.807C97.7446 148.853 97.6981 148.853 97.6052 148.9C97.4194 149.039 97.373 149.132 97.2801 149.132C97.1872 149.132 97.1872 149.085 97.1872 149.085Z" fill="#C18E6C"/>
<path d="M97.7639 149.364C97.7174 149.317 97.7639 149.132 97.8103 149.132C97.8568 149.085 97.9496 148.992 97.9496 148.992C97.9961 148.992 98.1354 149.085 98.1819 149.132C98.2283 149.178 98.1819 149.178 98.1354 149.224C97.9497 149.364 97.9496 149.41 97.8568 149.41C97.8103 149.364 97.7639 149.364 97.7639 149.364Z" fill="#C18E6C"/>
<path d="M98.423 149.55C98.3766 149.503 98.423 149.364 98.4695 149.364C98.5159 149.364 98.5624 149.225 98.6088 149.225C98.6088 149.225 98.7946 149.271 98.7946 149.318C98.8411 149.364 98.7946 149.364 98.7482 149.41C98.6088 149.503 98.5624 149.596 98.5159 149.596C98.423 149.596 98.423 149.55 98.423 149.55Z" fill="#C18E6C"/>
<path d="M98.9172 149.829C98.8707 149.783 98.9172 149.643 98.9636 149.643C99.0101 149.643 99.0565 149.504 99.103 149.504C99.103 149.504 99.2888 149.597 99.2888 149.643C99.3352 149.69 99.2888 149.643 99.2423 149.736C99.103 149.829 99.0565 149.922 99.0101 149.922C98.9636 149.829 98.9172 149.829 98.9172 149.829Z" fill="#C18E6C"/>
<path d="M95.1543 148.946C95.1543 148.946 95.1079 148.621 95.1079 148.528C95.1079 148.435 95.2008 147.785 95.1543 147.738C95.1543 147.692 95.1543 147.599 95.1079 147.645C95.0614 147.692 94.8756 148.156 94.9685 148.528C95.015 148.853 95.1543 148.946 95.1543 148.946Z" fill="#2D1301"/>
<path d="M95.1183 147.599C95.1183 147.599 95.2576 147.414 95.4898 147.506C95.6756 147.599 96.1401 147.924 96.2794 147.971C96.3259 147.971 96.3259 148.017 96.3723 148.017C96.4652 148.064 96.6045 148.11 96.6045 148.157C96.6045 148.157 96.5581 148.249 96.5116 148.249C96.4652 148.249 96.4187 148.296 96.3723 148.296C96.2794 148.296 96.1865 148.342 96.1401 148.342C96.0936 148.342 95.8614 148.482 95.7685 148.528C95.7685 148.528 95.6756 148.621 95.5363 148.714C95.4434 148.807 95.2112 148.9 95.1647 148.9C95.1647 148.9 95.0254 148.389 95.0254 148.296C95.0254 148.249 95.0254 147.971 95.0718 147.785C95.1647 147.646 95.1183 147.599 95.1183 147.599Z" fill="#4F2305"/>
<path d="M84.0051 151.408C83.9122 151.455 83.8193 152.105 83.8193 152.244C83.8193 152.383 83.8193 152.848 83.9587 152.987C84.0516 153.08 84.3767 153.173 85.0269 153.173C85.7236 153.219 87.2098 153.219 87.2098 153.219H90.4146L92.6439 153.173C92.969 153.173 94.6875 152.941 95.2913 152.801C95.8487 152.662 96.5918 152.43 96.7776 152.291C96.8704 152.198 96.9169 152.105 96.9633 152.012C96.9633 151.966 96.9633 151.548 96.9633 151.455C96.9169 151.315 96.8704 151.083 96.8704 151.037C96.8704 150.99 96.7776 150.898 96.7776 150.851C96.7776 150.851 96.6847 150.758 96.6382 150.712C96.5918 150.665 96.5453 150.665 96.5453 150.665C96.5453 150.665 96.2667 150.48 96.2202 150.48C96.1273 150.48 95.8951 150.433 95.8951 150.48C95.8951 150.526 95.8022 150.526 95.8022 150.526C95.8022 150.526 95.988 150.526 96.0344 150.572C96.0809 150.619 96.2667 150.758 96.3131 150.898C96.3595 151.037 96.3595 151.083 96.3131 151.13C96.2667 151.176 95.8022 151.269 95.6164 151.362C95.4306 151.408 94.734 151.594 94.6411 151.594C94.5482 151.594 94.0373 151.687 93.9444 151.733C93.8515 151.733 93.2942 151.78 93.2013 151.826C93.1084 151.826 92.2259 151.873 92.2259 151.873H91.4828H90.3217H88.9283H87.7672H86.6989L85.4449 151.826H84.5625C84.5625 151.826 84.2373 151.733 84.1909 151.733C84.1445 151.733 84.0051 151.408 84.0051 151.408Z" fill="white"/>
<path d="M84.8081 149.317C84.8081 149.317 85.0403 149.596 85.1332 149.642C85.2261 149.689 85.6441 149.921 86.0157 149.967C86.3872 150.014 87.0839 150.014 87.4555 149.921C87.827 149.828 88.2451 149.596 88.4308 149.503C88.5702 149.41 89.0811 149.039 89.1275 148.992C89.1275 148.992 89.2204 149.178 89.2669 149.271C89.3133 149.364 89.3133 149.364 89.3133 149.364C89.2668 149.41 89.0346 149.596 88.9882 149.596L88.7095 149.782L88.3379 149.921L87.9664 150.06C87.9664 150.06 87.827 150.107 87.7806 150.153C87.7342 150.2 87.2697 150.246 87.2697 150.246C87.2697 150.246 86.9446 150.292 86.8517 150.292C86.8052 150.292 86.6659 150.292 86.573 150.292C86.4801 150.292 86.2015 150.2 86.2015 150.2L85.737 150.06C85.737 150.06 85.4119 149.921 85.319 149.874C85.2261 149.828 85.1332 149.782 85.0868 149.735C85.0403 149.689 84.9939 149.596 84.9474 149.549C84.901 149.503 84.8081 149.317 84.8081 149.317Z" fill="#3A1903"/>
<path d="M90.4937 148.713C90.4937 148.713 90.633 148.667 90.5865 148.62C90.5401 148.574 90.4937 148.527 90.4937 148.527C90.4937 148.527 90.5401 148.527 90.5865 148.527C90.633 148.527 91.0974 148.806 91.1439 148.806C91.1903 148.852 91.7477 149.131 91.7941 149.177C91.8406 149.224 92.2121 149.41 92.305 149.456C92.3979 149.503 92.8159 149.688 92.8624 149.688C92.9088 149.688 93.2804 149.828 93.2804 149.828L93.7448 150.106L92.305 149.503L91.2832 149.038L90.4937 148.713Z" fill="#260E01"/>
<path d="M84.727 149.224C84.727 149.224 84.309 149.317 84.2626 149.596C84.2626 149.642 84.2626 149.689 84.2626 149.689C84.2161 149.828 84.1697 150.153 84.1232 150.385C84.0768 150.664 83.9839 151.314 83.9839 151.407C83.9839 151.5 83.9839 151.546 84.2161 151.592C84.4483 151.685 87.0493 151.732 87.0493 151.685H92.0189C92.0189 151.685 94.4805 151.592 95.5952 151.221C95.8274 151.128 96.0132 151.082 96.1525 150.989C96.199 150.942 96.2454 150.942 96.2454 150.849C96.2454 150.803 96.199 150.664 96.199 150.664C96.1525 150.617 95.9203 150.385 95.8739 150.385C95.8274 150.385 95.5023 150.432 95.363 150.385C95.2236 150.339 93.6909 150.06 93.6445 150.06C93.5981 150.014 93.2729 149.874 92.762 149.642C92.2511 149.41 90.672 148.667 90.5327 148.621C90.3933 148.574 89.8824 148.76 89.7431 148.899C89.6038 148.992 88.9535 149.549 88.8142 149.642C88.7213 149.689 88.2569 149.921 87.9782 150.014C87.8853 150.06 87.746 150.107 87.6531 150.107C87.3744 150.153 86.8635 150.246 86.5848 150.246C86.3062 150.246 85.3772 149.921 85.145 149.689C84.9128 149.549 84.8199 149.224 84.727 149.224Z" fill="#66300C"/>
<path d="M92.4563 150.154C92.5846 150.154 92.6886 150.05 92.6886 149.922C92.6886 149.793 92.5846 149.689 92.4563 149.689C92.3281 149.689 92.2241 149.793 92.2241 149.922C92.2241 150.05 92.3281 150.154 92.4563 150.154Z" fill="#C3F2F4"/>
<path d="M93.0686 150.338C93.1712 150.338 93.2544 150.255 93.2544 150.153C93.2544 150.05 93.1712 149.967 93.0686 149.967C92.966 149.967 92.8828 150.05 92.8828 150.153C92.8828 150.255 92.966 150.338 93.0686 150.338Z" fill="#C3F2F4"/>
<path d="M90.6434 149.41C90.7716 149.41 90.8756 149.306 90.8756 149.177C90.8756 149.049 90.7716 148.945 90.6434 148.945C90.5151 148.945 90.4111 149.049 90.4111 149.177C90.4111 149.306 90.5151 149.41 90.6434 149.41Z" fill="#C3F2F4"/>
<path d="M91.3025 149.689C91.4308 149.689 91.5348 149.585 91.5348 149.457C91.5348 149.329 91.4308 149.225 91.3025 149.225C91.1743 149.225 91.0703 149.329 91.0703 149.457C91.0703 149.585 91.1743 149.689 91.3025 149.689Z" fill="#C3F2F4"/>
<path d="M91.8792 149.921C92.0075 149.921 92.1114 149.817 92.1114 149.689C92.1114 149.561 92.0075 149.457 91.8792 149.457C91.7509 149.457 91.647 149.561 91.647 149.689C91.647 149.817 91.7509 149.921 91.8792 149.921Z" fill="#C3F2F4"/>
<path d="M90.6245 149.224C90.5316 149.131 90.5781 148.945 90.7174 148.899C90.8103 148.852 90.9032 148.713 90.9496 148.713C90.9961 148.713 91.2283 148.852 91.2747 148.899C91.3212 148.945 91.2747 148.945 91.1818 149.038C90.9496 149.177 90.9032 149.317 90.8103 149.317C90.7174 149.317 90.6245 149.224 90.6245 149.224Z" fill="#C18E6C"/>
<path d="M91.2541 149.503C91.2077 149.411 91.2541 149.271 91.3005 149.225C91.347 149.178 91.4399 149.039 91.4863 149.039C91.5328 149.039 91.7186 149.132 91.765 149.225C91.8114 149.271 91.765 149.271 91.6721 149.318C91.4863 149.457 91.4399 149.55 91.347 149.55C91.3005 149.55 91.2541 149.503 91.2541 149.503Z" fill="#C18E6C"/>
<path d="M91.7487 149.737C91.7023 149.69 91.7487 149.505 91.7952 149.505C91.8416 149.458 91.9345 149.365 91.9345 149.365C91.981 149.365 92.1203 149.458 92.1667 149.505C92.2132 149.551 92.1667 149.551 92.1203 149.597C91.9345 149.737 91.9345 149.783 91.8416 149.783C91.7952 149.783 91.7487 149.737 91.7487 149.737Z" fill="#C18E6C"/>
<path d="M92.4079 149.968C92.3615 149.921 92.4079 149.782 92.4544 149.782C92.5008 149.782 92.5472 149.643 92.5937 149.643C92.5937 149.643 92.7795 149.689 92.7795 149.735C92.8259 149.782 92.7795 149.782 92.733 149.828C92.5937 149.921 92.5473 150.014 92.5008 150.014C92.4079 149.968 92.4079 149.968 92.4079 149.968Z" fill="#C18E6C"/>
<path d="M92.9846 150.2C92.9381 150.154 92.9846 150.014 93.031 150.014C93.0775 150.014 93.1239 149.875 93.1703 149.875C93.1703 149.875 93.3561 149.968 93.3561 150.014C93.4026 150.061 93.3561 150.014 93.3097 150.107C93.1704 150.2 93.1239 150.293 93.0775 150.293C93.031 150.247 92.9846 150.2 92.9846 150.2Z" fill="#C18E6C"/>
<path d="M89.2217 149.317C89.2217 149.317 89.1752 148.992 89.1752 148.899C89.1752 148.806 89.2681 148.156 89.2217 148.109C89.2217 148.063 89.2217 147.97 89.1752 148.017C89.1288 148.063 88.943 148.527 89.0359 148.899C89.0824 149.224 89.2217 149.317 89.2217 149.317Z" fill="#2D1301"/>
<path d="M89.1857 148.017C89.1857 148.017 89.325 147.832 89.5572 147.924C89.743 148.017 90.2075 148.342 90.3468 148.389C90.3932 148.389 90.3932 148.435 90.4397 148.435C90.5326 148.482 90.6719 148.528 90.6719 148.575C90.6719 148.575 90.6255 148.667 90.579 148.667C90.5326 148.667 90.4861 148.714 90.4397 148.714C90.3468 148.714 90.2539 148.76 90.2075 148.76C90.161 148.76 89.9288 148.9 89.8359 148.946C89.8359 148.946 89.743 149.039 89.6037 149.132C89.5108 149.225 89.2786 149.318 89.2321 149.318C89.2321 149.318 89.0928 148.807 89.0928 148.714C89.0928 148.667 89.0928 148.389 89.1392 148.203C89.2321 148.064 89.1857 148.017 89.1857 148.017Z" fill="#4F2305"/>
<path d="M224.146 107.712L222.66 99.1672C222.474 97.9134 221.824 96.7989 220.895 95.9166C220.756 95.7773 220.57 95.638 220.431 95.4987C218.898 94.3842 216.901 94.0591 215.09 94.7092C214.532 94.895 214.021 95.2665 213.557 95.6844C212.628 96.6132 212.303 97.7741 212.86 99.3529C210.909 97.9598 208.959 97.5419 206.962 97.867C206.683 97.867 206.451 97.9598 206.172 98.1456C205.15 98.7028 204.546 99.8637 204.454 100.978C204.407 102.232 204.779 102.882 205.522 103.764C206.869 105.065 208.262 105.993 209.795 105.715C208.959 106.318 208.541 107.154 208.401 108.129C208.309 108.919 208.541 109.708 209.098 110.266C209.609 110.73 210.213 111.055 210.863 111.148C215.786 112.03 220.152 110.591 224.239 107.944L224.146 107.712Z" fill="#AFC681"/>
<path d="M223.372 89.1366L223.233 84.5394C223.233 83.8893 222.954 83.2391 222.582 82.7283C222.536 82.6355 222.443 82.589 222.396 82.4497C221.7 81.7532 220.632 81.4281 219.656 81.6603C219.331 81.7067 219.052 81.846 218.774 82.0318C218.216 82.4497 217.938 83.0534 218.17 83.8893C217.241 83.007 216.266 82.6354 215.197 82.6354C215.058 82.6354 214.919 82.6355 214.779 82.6819C214.222 82.8677 213.804 83.4713 213.711 84.0285C213.618 84.6322 213.711 85.0502 214.083 85.561C214.687 86.3504 215.337 86.9076 216.126 86.9076C215.662 87.1863 215.337 87.5578 215.197 88.0686C215.105 88.4865 215.151 88.9044 215.476 89.2295C215.662 89.5081 215.987 89.6938 216.359 89.8331C218.867 90.669 221.235 90.2511 223.558 89.183L223.372 89.1366Z" fill="#AFC681"/>
<path d="M227.198 68.0535C227.198 68.0999 227.198 68.1464 227.198 68.1928C226.594 70.7933 223.668 117.462 229.567 142.77C229.567 142.817 229.567 142.863 229.567 142.91L231.425 153.776H225.34C225.851 153.961 224.458 118.53 223.529 95.4976C222.646 74.6475 223.993 69.4466 224.504 63.9207C224.876 60.1128 227.43 50.5004 226.362 51.1506L227.802 54.4476L227.198 68.0535Z" fill="#937F6F"/>
<path d="M227.068 71.5367L235.103 75.3909C236.264 75.9482 237.565 76.0875 238.865 75.8553C239.051 75.8089 239.283 75.7625 239.469 75.716C241.327 75.1588 242.813 73.6263 243.278 71.7224C243.417 71.1188 243.464 70.4687 243.371 69.865C243.185 68.5183 242.349 67.5432 240.77 67.0788C243.092 66.2894 244.578 64.8498 245.554 63.0388C245.693 62.853 245.739 62.528 245.832 62.2494C245.972 61.0884 245.414 59.8811 244.439 59.1845C243.464 58.3951 242.627 58.3022 241.466 58.3951C239.609 58.7666 238.029 59.3703 237.286 60.8098C237.286 59.7882 236.868 58.9059 236.125 58.2094C235.568 57.6521 234.685 57.3735 233.896 57.5593H233.849C233.199 57.6986 232.502 58.0236 232.038 58.488C228.369 62.0636 226.929 66.568 226.697 71.5367H227.068Z" fill="#AFC681"/>
<path d="M231.297 54.6335C238.479 54.6335 244.302 48.8122 244.302 41.6312C244.302 34.4502 238.479 28.6289 231.297 28.6289C224.115 28.6289 218.292 34.4502 218.292 41.6312C218.292 48.8122 224.115 54.6335 231.297 54.6335Z" fill="#A9D661"/>
<path d="M225.049 52.3586L232.62 51.5692C233.688 51.4763 234.756 51.0119 235.546 50.2225C235.685 50.1296 235.824 49.9439 235.917 49.8046C237.032 48.5508 237.403 46.7862 236.939 45.1609C236.8 44.6501 236.521 44.1857 236.242 43.7678C235.546 42.8855 234.431 42.514 233.084 42.8855C234.431 41.3066 234.895 39.5885 234.802 37.7774C234.802 37.5917 234.756 37.3131 234.663 37.1273C234.245 36.1986 233.316 35.5949 232.294 35.5021C231.226 35.4092 230.576 35.6414 229.833 36.2915C228.672 37.3595 227.743 38.5204 227.882 39.8671C227.418 39.1705 226.721 38.7062 225.885 38.474C225.235 38.3347 224.492 38.5204 223.981 38.9848C223.516 39.4027 223.191 39.9136 223.098 40.4708C222.03 44.743 223.005 48.5972 225.003 52.3586H225.049Z" fill="#DEF2AF"/>
<path d="M225.402 85.4211C225.402 85.4211 221.361 69.6791 217.181 67.0786C213.001 64.5246 215.881 66.9393 215.881 66.9393C215.881 66.9393 221.269 73.5334 222.523 79.8952C223.823 86.1642 225.402 85.4211 225.402 85.4211Z" fill="#937F6F"/>
<path d="M224.884 117.881C224.884 117.881 226.696 107.386 233.616 102.789C240.536 98.1454 235.985 101.675 235.985 101.675C235.985 101.675 228.228 109.104 228.275 113.052C228.321 116.906 224.884 117.881 224.884 117.881Z" fill="#937F6F"/>
<path d="M211.353 75.4838C217.715 75.4838 222.872 70.3278 222.872 63.9675C222.872 57.6072 217.715 52.4512 211.353 52.4512C204.992 52.4512 199.835 57.6072 199.835 63.9675C199.835 70.3278 204.992 75.4838 211.353 75.4838Z" fill="#A9D661"/>
<path d="M218.155 72.5581L219.967 66.1034C220.245 65.1746 220.152 64.153 219.827 63.2707C219.781 63.1314 219.734 62.9457 219.642 62.8528C218.991 61.5061 217.644 60.6238 216.205 60.531C215.74 60.4845 215.276 60.531 214.811 60.6703C213.836 60.9953 213.232 61.7383 213.046 62.9921C212.164 61.4133 210.956 60.4381 209.47 59.9737C209.284 59.9273 209.052 59.8809 208.866 59.8809C207.937 59.9273 207.148 60.4845 206.776 61.3204C206.312 62.1562 206.358 62.7599 206.637 63.5958C207.148 64.9425 207.798 66.0105 208.959 66.382C208.17 66.5213 207.612 66.9392 207.148 67.6358C206.776 68.1466 206.73 68.7967 206.962 69.4004C207.148 69.8648 207.473 70.3291 207.891 70.6542C211.049 72.9296 214.533 73.394 218.295 72.9296V72.5581H218.155Z" fill="#DEF2AF"/>
<path d="M240.557 105.62C247.893 105.62 253.84 99.6743 253.84 92.3395C253.84 85.0046 247.893 79.0586 240.557 79.0586C233.221 79.0586 227.273 85.0046 227.273 92.3395C227.273 99.6743 233.221 105.62 240.557 105.62Z" fill="#A9D661"/>
<path d="M231.887 101.58L239.597 102.555C240.712 102.695 241.873 102.509 242.848 101.905C242.987 101.812 243.173 101.72 243.312 101.58C244.706 100.605 245.542 98.9798 245.356 97.2152C245.31 96.658 245.217 96.1472 244.938 95.6828C244.427 94.6148 243.452 94.0575 242.012 94.104C243.73 92.8038 244.566 91.2249 244.892 89.4603C244.938 89.2746 244.938 88.9959 244.892 88.7638C244.706 87.7422 243.916 86.9063 242.894 86.6277C241.873 86.2562 241.176 86.349 240.294 86.8134C238.854 87.6028 237.739 88.578 237.507 89.9711C237.182 89.1352 236.624 88.5316 235.788 88.1136C235.185 87.7886 234.395 87.835 233.791 88.1601C233.28 88.4851 232.816 88.8566 232.537 89.4603C230.494 93.4074 230.54 97.5403 231.701 101.673L231.887 101.58Z" fill="#DEF2AF"/>
<path d="M232.65 141.701H200.742V166.452H232.65V141.701Z" fill="#65C7CF"/>
<path d="M211.425 137.059L238.827 137.198L232.604 141.702H200.742L211.425 137.059Z" fill="#4FBCBF"/>
<path d="M238.854 137.197V162.18L232.63 166.452V141.702L238.854 137.197Z" fill="#47B2B2"/>
<path d="M184.359 135.527L180.364 156.702C179.993 158.653 181.479 160.464 183.476 160.51L198.06 160.65C200.104 160.65 201.636 158.792 201.218 156.795L196.899 135.574H184.359V135.527Z" fill="#6B5353"/>
<path d="M186.157 142.028C186.157 142.028 187.04 129.954 187.179 129.025C187.318 128.097 190.523 124.8 190.802 124.893C191.87 125.264 192.242 125.728 192.938 126.425C193.867 127.354 194.471 128.515 194.517 129.768L194.935 142.213L193.588 142.121C193.542 137.059 193.496 131.997 193.124 129.211C192.613 128.004 192.242 126.564 190.848 126.286C189.733 127.214 188.294 128.84 188.015 130.233C187.69 133.112 187.411 137.709 187.179 142.167L186.157 142.028Z" fill="#6B5353"/>
<path d="M195.221 139.474L190.67 163.761C190.252 166.036 191.97 168.126 194.246 168.126L210.966 168.265C213.289 168.265 215.1 166.129 214.589 163.853L209.62 139.428H195.221V139.474Z" fill="#896A6A"/>
<path d="M197.281 146.996C197.281 146.996 198.303 133.158 198.489 132.09C198.675 131.022 202.344 127.214 202.669 127.353C203.876 127.818 204.341 128.329 205.13 129.118C206.199 130.186 206.895 131.486 206.942 132.926L207.406 147.228L205.874 147.135C205.827 141.331 205.781 135.526 205.316 132.322C204.759 130.975 204.294 129.257 202.715 128.979C201.461 130.047 199.789 131.904 199.464 133.529C199.093 136.826 198.768 142.12 198.489 147.275L197.281 146.996Z" fill="#755959"/>
<path d="M238.195 164.503L246.462 167.057C247.67 167.428 248.924 167.382 250.132 166.964C250.317 166.918 250.503 166.825 250.689 166.732C252.407 165.896 253.568 164.224 253.801 162.32C253.894 161.717 253.801 161.113 253.615 160.509C253.197 159.256 252.314 158.466 250.689 158.188C252.825 157.073 254.079 155.541 254.73 153.59C254.869 153.358 254.869 153.079 254.869 152.801C254.823 151.64 254.126 150.572 253.104 150.015C252.036 149.411 251.293 149.411 250.132 149.69C248.367 150.293 246.927 151.129 246.462 152.615C246.277 151.594 245.766 150.851 244.93 150.293C244.279 149.829 243.443 149.69 242.7 149.968C242.05 150.2 241.493 150.618 241.121 151.129C238.102 155.123 237.406 159.674 237.87 164.456L238.195 164.503Z" fill="#AFC681"/>
<path d="M222.75 167.986L225.119 164.364C225.444 163.853 225.63 163.249 225.583 162.599C225.583 162.506 225.537 162.413 225.537 162.274C225.351 161.345 224.747 160.556 223.865 160.184C223.586 160.045 223.261 160.045 222.982 159.999C222.332 159.999 221.821 160.324 221.496 161.067C221.264 159.906 220.706 159.07 219.87 158.513C219.778 158.42 219.638 158.373 219.499 158.327C218.942 158.188 218.338 158.373 217.92 158.791C217.502 159.209 217.409 159.581 217.362 160.184C217.409 161.113 217.595 161.903 218.245 162.321C217.734 162.274 217.316 162.413 216.944 162.738C216.666 162.971 216.48 163.389 216.48 163.76C216.526 164.085 216.619 164.41 216.805 164.689C218.291 166.686 220.381 167.661 222.75 168.079V167.986Z" fill="#DEF2AF"/>
<path d="M218.71 140.68V139.008C218.71 138.776 218.617 138.544 218.477 138.312C218.431 138.265 218.431 138.265 218.385 138.219C218.152 137.94 217.781 137.801 217.409 137.894C217.316 137.894 217.177 137.987 217.084 138.033C216.898 138.173 216.759 138.405 216.805 138.683C216.48 138.358 216.109 138.219 215.737 138.219C215.691 138.219 215.644 138.219 215.598 138.219C215.366 138.312 215.226 138.498 215.18 138.683C215.133 138.916 215.18 139.055 215.273 139.241C215.459 139.519 215.691 139.751 216.016 139.751C215.83 139.844 215.737 139.984 215.691 140.169C215.644 140.309 215.644 140.494 215.737 140.587C215.83 140.68 215.923 140.773 216.016 140.819C216.898 141.144 217.781 141.052 218.663 140.68H218.71Z" fill="#DEF2AF"/>
<path d="M105.654 85.7008C105.701 85.7472 106.537 84.5399 106.583 84.3077C106.583 84.1684 106.769 84.3541 106.769 84.3541C106.769 84.3541 106.63 84.5398 106.63 84.5863C106.583 84.6327 105.933 85.5614 105.933 85.5614L105.701 85.8865L105.654 85.7008Z" fill="#1A1A1A"/>
<path d="M105.593 86.0258C105.696 86.0258 105.779 85.9426 105.779 85.8401C105.779 85.7375 105.696 85.6543 105.593 85.6543C105.49 85.6543 105.407 85.7375 105.407 85.8401C105.407 85.9426 105.49 86.0258 105.593 86.0258Z" fill="#5E3930"/>
<path d="M105.923 85.561C106.025 85.561 106.108 85.4778 106.108 85.3752C106.108 85.2726 106.025 85.1895 105.923 85.1895C105.82 85.1895 105.737 85.2726 105.737 85.3752C105.737 85.4778 105.82 85.561 105.923 85.561Z" fill="#74B79C"/>
<path d="M106.252 85.0981C106.355 85.0981 106.438 85.0149 106.438 84.9123C106.438 84.8097 106.355 84.7266 106.252 84.7266C106.15 84.7266 106.066 84.8097 106.066 84.9123C106.066 85.0149 106.15 85.0981 106.252 85.0981Z" fill="#5E3930"/>
<path d="M106.582 84.5864C106.684 84.5864 106.768 84.5032 106.768 84.4006C106.768 84.298 106.684 84.2148 106.582 84.2148C106.479 84.2148 106.396 84.298 106.396 84.4006C106.396 84.5032 106.479 84.5864 106.582 84.5864Z" fill="#74B79C"/>
<path d="M105.243 85.3746C105.289 85.421 106.125 84.2137 106.172 83.9815C106.172 83.8422 106.357 84.0279 106.357 84.0279C106.357 84.0279 106.218 84.2137 106.218 84.2601C106.172 84.3065 105.521 85.2353 105.521 85.2353L105.289 85.5604L105.243 85.3746Z" fill="#1A1A1A"/>
<path d="M105.181 85.6527C105.284 85.6527 105.367 85.5696 105.367 85.467C105.367 85.3644 105.284 85.2812 105.181 85.2812C105.079 85.2812 104.996 85.3644 104.996 85.467C104.996 85.5696 105.079 85.6527 105.181 85.6527Z" fill="#5E3930"/>
<path d="M105.511 85.1879C105.614 85.1879 105.697 85.1047 105.697 85.0022C105.697 84.8996 105.614 84.8164 105.511 84.8164C105.408 84.8164 105.325 84.8996 105.325 85.0022C105.325 85.1047 105.408 85.1879 105.511 85.1879Z" fill="#74B79C"/>
<path d="M105.84 84.725C105.943 84.725 106.026 84.6419 106.026 84.5393C106.026 84.4367 105.943 84.3535 105.84 84.3535C105.737 84.3535 105.654 84.4367 105.654 84.5393C105.654 84.6419 105.737 84.725 105.84 84.725Z" fill="#5E3930"/>
<path d="M106.17 84.2133C106.273 84.2133 106.356 84.1301 106.356 84.0275C106.356 83.9249 106.273 83.8418 106.17 83.8418C106.068 83.8418 105.984 83.9249 105.984 84.0275C105.984 84.1301 106.068 84.2133 106.17 84.2133Z" fill="#74B79C"/>
</svg>
