<svg width="343" height="203" viewBox="0 0 343 203" fill="none" xmlns="http://www.w3.org/2000/svg">
<path d="M173.737 110.194L180.436 120.049C182.018 122.842 182.334 127.533 182.598 129.009L182.862 132.013C183.02 133.225 182.967 134.226 182.967 135.017L182.862 155.571H187.293L186.238 124.582C186.238 123.844 186.343 121.946 186.396 120.84C187.451 110.826 190.352 110.984 193.148 110.141L193.886 109.403H190.563L185.552 113.83V107.084H182.229V114.094L175.372 108.718L172.523 108.823L173.737 110.194Z" fill="#754C24"/>
<path d="M197.526 109.561C193.095 114.093 176.322 120.681 165.667 109.402C165.245 108.981 164.454 109.297 163.926 109.139C160.129 108.243 157.86 105.871 156.542 102.762C156.067 101.655 155.803 100.443 155.803 99.2834C155.909 96.5955 156.911 94.2765 159.126 92.5373C157.597 90.0602 156.911 87.3196 157.544 84.052C157.808 82.8398 158.282 81.733 158.915 80.7844C160.656 77.9384 161.922 74.987 164.981 74.1964C166.511 66.8706 169.887 65.0787 176.427 66.7125C180.542 63.2341 186.027 63.7611 187.61 68.768C195.891 66.449 199.636 70.9815 200.005 80.5208C207.337 82.5763 208.287 86.898 206.863 91.8521C209.658 93.9075 210.819 96.3846 210.66 99.2306C210.502 103.183 207.812 106.609 204.067 107.979C202.063 108.717 200.005 109.192 198.898 109.35C198.423 109.402 197.843 109.244 197.526 109.561Z" fill="#A9D661"/>
<path d="M143.146 117.413L148.631 125.529C150.003 127.848 150.214 131.643 150.372 132.855L150.636 135.332C150.741 136.281 150.741 137.177 150.741 137.809L150.636 154.621H154.275L153.379 129.271C153.379 128.691 153.484 127.11 153.537 126.267C154.434 118.098 156.807 118.256 159.023 117.518L159.603 116.938H156.913L152.851 120.575V115.094H150.056V120.786L144.517 116.359L142.144 116.464L143.146 117.413Z" fill="#754C24"/>
<path d="M162.556 116.939C158.917 120.681 145.202 126.004 136.499 116.781C136.183 116.464 135.55 116.675 135.075 116.623C131.963 115.885 130.169 113.987 129.009 111.405C128.587 110.509 128.429 109.508 128.429 108.559C128.534 106.345 129.378 104.448 131.119 103.078C129.906 101.075 129.273 98.8087 129.853 96.0681C130.011 95.1195 130.433 94.2235 130.961 93.3803C132.385 91.0613 133.44 88.637 135.866 88.0045C137.132 82.049 139.928 80.5206 145.255 81.8909C148.578 79.0449 153.114 79.4138 154.38 83.5774C161.132 81.6801 164.244 85.422 164.561 93.1694C170.521 94.8559 171.312 98.3344 170.205 102.445C172.525 104.132 173.475 106.187 173.317 108.506C173.158 111.774 170.943 114.567 167.936 115.674C166.248 116.306 164.613 116.623 163.717 116.781C163.347 116.675 162.873 116.623 162.556 116.939Z" fill="#EACE03"/>
<path d="M196.893 90.3746L205.807 103.498C207.97 107.24 208.339 113.406 208.656 115.409L208.972 119.467C209.13 121.048 209.078 122.418 209.13 123.42L209.025 156.201H214.985L213.614 109.401C213.508 108.452 213.719 105.922 213.878 104.499C215.249 91.1651 219.205 91.3759 222.845 90.2691L223.794 89.3205H219.363L212.664 95.2233V86.2637H208.128V95.5395L199.056 88.3191L195.258 88.4773L196.893 90.3746Z" fill="#754C24"/>
<path d="M228.436 89.5842C222.528 95.6451 200.163 104.341 185.974 89.3207C185.394 88.741 184.392 89.2153 183.601 89.0572C178.537 87.845 175.583 84.7882 173.737 80.5719C173.104 79.0435 172.787 77.4624 172.84 75.8813C172.946 72.2448 174.37 69.1879 177.218 66.9217C175.214 63.6541 174.264 59.9121 175.161 55.5904C175.478 54.0093 176.11 52.5863 176.902 51.216C179.223 47.4213 180.858 43.5213 184.919 42.4145C186.976 32.7171 191.513 30.24 200.163 32.4008C205.649 27.7102 212.981 28.4481 215.038 35.1941C226.062 32.0846 231.073 38.1982 231.548 50.8471C241.253 53.535 242.519 59.2797 240.673 65.9203C244.418 68.6082 245.895 71.9812 245.737 75.6705C245.473 80.8881 241.939 85.526 236.981 87.3706C234.291 88.4247 231.601 88.9517 230.071 89.2153C229.649 89.3734 228.91 89.2153 228.436 89.5842Z" fill="#BC8E6F"/>
<path d="M171.5 173.593C257.105 173.593 326.502 168.142 326.502 161.419C326.502 154.695 257.105 149.244 171.5 149.244C85.8951 149.244 16.4985 154.695 16.4985 161.419C16.4985 168.142 85.8951 173.593 171.5 173.593Z" fill="#D6D6D6"/>
<path d="M274.749 85.7904L227.699 81.4688L221.316 151.512L277.861 156.624L283.083 99.6515L274.749 85.7904Z" fill="#65C8D0"/>
<path d="M283.085 99.6501L274.751 85.7363C274.751 85.7363 269.423 96.6987 273.221 98.2798C277.019 99.9663 283.085 99.6501 283.085 99.6501Z" fill="#EFEFEF"/>
<path d="M274.907 102.338L271.004 105.606L269.58 103.867C269.422 103.603 269 103.603 268.841 103.761C268.578 103.919 268.578 104.341 268.736 104.499L270.582 106.66C270.688 106.765 270.846 106.818 271.004 106.818C271.162 106.818 271.268 106.818 271.426 106.66L275.804 103.023C276.068 102.865 276.068 102.444 275.91 102.286C275.435 102.18 275.066 102.127 274.907 102.338Z" fill="white"/>
<path d="M273.642 116.252L269.738 119.52L268.314 117.781C268.156 117.517 267.734 117.517 267.576 117.675C267.312 117.833 267.312 118.255 267.47 118.413L269.316 120.574C269.422 120.679 269.58 120.732 269.738 120.732C269.897 120.732 270.002 120.732 270.16 120.574L274.538 116.938C274.802 116.779 274.802 116.358 274.644 116.2C274.169 116.094 273.8 116.042 273.642 116.252Z" fill="white"/>
<path d="M272.376 130.165L268.473 133.433L267.049 131.694C266.89 131.43 266.468 131.43 266.31 131.588C266.046 131.746 266.046 132.168 266.205 132.326L268.051 134.487C268.156 134.592 268.315 134.645 268.473 134.645C268.631 134.645 268.737 134.645 268.895 134.487L273.273 130.85C273.537 130.692 273.537 130.271 273.378 130.113C272.904 130.007 272.587 129.902 272.376 130.165Z" fill="white"/>
<path d="M271.057 144.079L267.154 147.347L265.73 145.608C265.572 145.344 265.15 145.344 264.991 145.502C264.728 145.661 264.728 146.082 264.886 146.24L266.732 148.401C266.837 148.507 266.996 148.559 267.154 148.559C267.312 148.559 267.418 148.559 267.576 148.401L271.954 144.765C272.218 144.606 272.218 144.185 272.059 144.027C271.637 143.921 271.321 143.816 271.057 144.079Z" fill="white"/>
<path d="M260.667 103.551L233.397 101.074C233.081 101.074 232.922 100.757 232.922 100.494C232.922 100.178 233.239 100.02 233.503 100.02L260.773 102.497C261.089 102.497 261.248 102.813 261.248 103.076C261.248 103.393 260.984 103.551 260.667 103.551Z" fill="white"/>
<path d="M259.452 116.885L232.181 114.408C231.865 114.408 231.707 114.091 231.707 113.828C231.707 113.512 232.023 113.354 232.287 113.354L259.557 115.831C259.874 115.831 260.032 116.147 260.032 116.41C260.032 116.727 259.768 116.99 259.452 116.885Z" fill="white"/>
<path d="M258.187 130.851L230.917 128.374C230.601 128.374 230.442 128.058 230.442 127.795C230.442 127.478 230.759 127.32 231.023 127.32L258.293 129.797C258.609 129.797 258.768 130.114 258.768 130.377C258.768 130.641 258.504 130.851 258.187 130.851Z" fill="white"/>
<path d="M256.922 144.765L229.651 142.288C229.335 142.288 229.177 141.972 229.177 141.709C229.177 141.392 229.493 141.234 229.757 141.234L257.027 143.711C257.344 143.711 257.502 144.028 257.502 144.291C257.502 144.555 257.238 144.765 256.922 144.765Z" fill="white"/>
<path d="M128.006 160.471H76.6831V162.368H128.006V160.471Z" fill="#F2F2F2"/>
<path d="M218.152 160.471H166.829V162.368H218.152V160.471Z" fill="#F2F2F2"/>
<path fill-rule="evenodd" clip-rule="evenodd" d="M120.831 138.6C121.938 139.232 122.36 140.655 121.727 141.762L113.446 156.466C113.024 157.204 112.233 157.679 111.389 157.679H72.1978C70.9319 157.679 69.8242 156.624 69.8242 155.307C69.8242 153.937 70.8792 152.935 72.1978 152.935H109.965L117.508 139.443C118.299 138.389 119.723 137.967 120.831 138.6Z" fill="#3DBCC8"/>
<path fill-rule="evenodd" clip-rule="evenodd" d="M61.2271 159.47C63.2315 159.47 64.7084 157.889 64.7084 155.991C64.7084 153.988 63.126 152.513 61.2271 152.513C59.2228 152.513 57.7458 154.094 57.7458 155.991C57.693 157.889 59.2755 159.47 61.2271 159.47ZM61.2271 164.16C65.7634 164.16 69.5084 160.524 69.5084 155.886C69.5084 151.301 65.8689 147.611 61.2271 147.611C56.6909 147.611 52.9458 151.248 52.9458 155.886C52.9458 160.524 56.6909 164.16 61.2271 164.16Z" fill="#20505A"/>
<path fill-rule="evenodd" clip-rule="evenodd" d="M128.532 159.47C130.536 159.47 132.013 157.889 132.013 155.991C132.013 153.988 130.431 152.513 128.532 152.513C126.633 152.513 125.051 154.094 125.051 155.991C124.945 157.889 126.527 159.47 128.532 159.47ZM128.532 164.16C133.068 164.16 136.813 160.524 136.813 155.886C136.813 151.301 133.174 147.611 128.532 147.611C123.943 147.611 120.25 151.248 120.25 155.886C120.25 160.524 123.943 164.16 128.532 164.16Z" fill="#20505A"/>
<path fill-rule="evenodd" clip-rule="evenodd" d="M111.23 109.928C112.443 109.348 113.762 109.928 114.342 111.034L115.45 113.406C116.03 114.618 115.45 115.936 114.342 116.516C113.129 117.095 111.81 116.516 111.23 115.409L110.122 113.037C109.542 111.825 110.017 110.507 111.23 109.928Z" fill="#20505A"/>
<path fill-rule="evenodd" clip-rule="evenodd" d="M115.398 132.904L120.409 145.606C120.673 146.344 121.359 147.292 121.991 147.767C122.783 148.347 123.732 148.505 124.682 147.925C125.789 147.029 125.473 144.657 124.576 142.76L123.521 140.388L115.398 120.519L109.543 105.498L108.541 102.969L104.901 104.866L115.398 132.904Z" fill="#65C8D0"/>
<path fill-rule="evenodd" clip-rule="evenodd" d="M105.006 104.868L100.734 93.1674C100.998 93.1674 99.2043 93.0621 98.2021 93.5891C97.6218 93.8526 96.1977 94.6431 96.0394 94.485C95.301 94.1688 94.7735 93.5891 94.668 92.6404C94.668 91.7444 95.2482 91.2702 96.0394 91.112L101.103 90.6904L100.945 89.7417L97.1471 90.058L96.9889 89.4255L102.211 89.0039L102.686 91.0593C103.635 91.1647 104.426 91.5336 104.901 92.5877L108.646 102.918L105.006 104.868Z" fill="#1A1A1A"/>
<g opacity="0.96">
<path d="M113.658 121.996C113.499 122.101 113.341 122.154 113.236 122.312L112.814 121.258L112.233 121.521L113.025 123.524C113.288 124.104 113.921 124.315 114.449 124.104C115.029 123.84 115.345 123.208 115.082 122.681C114.924 122.101 114.291 121.838 113.658 121.996ZM114.291 123.524C114.027 123.629 113.71 123.524 113.658 123.261C113.552 122.997 113.658 122.681 113.921 122.628C114.185 122.575 114.502 122.628 114.554 122.892C114.713 123.102 114.554 123.419 114.291 123.524Z" fill="white"/>
<path d="M116.137 128.108C115.557 128.372 115.346 129.004 115.504 129.531L115.926 130.585L116.507 130.322L116.085 129.268C115.979 129.004 116.085 128.688 116.348 128.635C116.612 128.53 116.929 128.635 116.981 128.899L117.403 129.953L117.984 129.689L117.562 128.635C117.351 128.108 116.665 127.897 116.137 128.108Z" fill="white"/>
<path d="M115.188 125.578C115.03 125.684 114.924 125.842 115.03 126L115.663 127.739L116.296 127.476L115.557 125.789C115.505 125.578 115.346 125.473 115.188 125.578Z" fill="white"/>
<path d="M114.87 125.369C115.103 125.369 115.292 125.18 115.292 124.947C115.292 124.714 115.103 124.525 114.87 124.525C114.638 124.525 114.449 124.714 114.449 124.947C114.449 125.18 114.638 125.369 114.87 125.369Z" fill="white"/>
<path d="M109.701 112.246C109.543 112.351 109.385 112.404 109.279 112.562L108.857 111.508L108.277 111.771L109.068 113.774C109.332 114.354 109.965 114.565 110.492 114.354C111.072 114.09 111.389 113.458 111.125 112.931C110.967 112.298 110.228 111.982 109.701 112.246ZM110.334 113.721C110.07 113.827 109.754 113.721 109.701 113.458C109.596 113.194 109.701 112.878 109.965 112.825C110.228 112.72 110.545 112.825 110.598 113.089C110.703 113.352 110.545 113.563 110.334 113.721Z" fill="white"/>
<path d="M112.18 118.359C111.6 118.623 111.389 119.255 111.547 119.782L111.969 120.836L112.55 120.573L112.128 119.519C112.022 119.255 112.128 118.939 112.391 118.886C112.655 118.834 112.972 118.886 113.024 119.15L113.446 120.204L114.027 119.94L113.605 118.886C113.341 118.359 112.708 118.096 112.18 118.359Z" fill="white"/>
<path d="M111.126 115.83C110.967 115.936 110.862 116.094 110.967 116.252L111.6 117.991L112.233 117.728L111.495 116.041C111.547 115.83 111.284 115.725 111.126 115.83Z" fill="white"/>
<path d="M110.862 115.619C111.094 115.619 111.283 115.43 111.283 115.197C111.283 114.964 111.094 114.775 110.862 114.775C110.629 114.775 110.44 114.964 110.44 115.197C110.44 115.43 110.629 115.619 110.862 115.619Z" fill="white"/>
</g>
<path fill-rule="evenodd" clip-rule="evenodd" d="M96.9907 89.5293L97.6765 89.4238L98.0984 90.0563L96.9907 90.1617L96.8325 89.5293H96.9907Z" fill="#1A1A1A"/>
<path opacity="0.51" d="M110.39 106.133L200.798 82.9961L201.642 126.055L110.39 106.133Z" fill="#E5E5E5"/>
<path fill-rule="evenodd" clip-rule="evenodd" d="M110.072 104.129C109.756 104.024 109.175 104.235 109.175 104.235L110.494 107.608L111.021 107.397C111.021 107.449 110.969 104.445 110.072 104.129Z" fill="#1A1A1A"/>
<path d="M79.4808 107.557C82.6984 108.453 78.3204 112.722 80.483 124.053C81.5907 129.956 76.4742 144.291 78.4786 150.879C79.0061 152.671 75.3138 151.301 74.1534 151.353C74.9973 149.93 75.2611 146.979 74.9973 144.871C74.2589 139.179 74.9973 129.06 75.4193 126.108L74.1006 112.511L79.4808 107.557Z" fill="#FFD2C1"/>
<path d="M81.0096 151.407C81.3789 150.353 81.537 148.034 81.2206 145.504C81.1151 144.556 81.0624 143.554 81.0624 142.606C81.1679 136.966 81.3788 130.958 82.2228 124.687C82.2755 124.318 82.0646 123.527 82.0646 123.527C82.0646 123.527 79.269 108.981 78.636 105.502L77.6865 101.76L83.436 99.5996C85.7041 109.139 87.814 119.1 86.9173 123.58C86.9173 123.632 86.9173 123.738 86.9173 123.791C86.6008 129.641 84.7019 136.703 83.9107 145.452C83.858 145.979 83.9107 146.98 83.9635 147.507C83.9635 147.56 83.9635 147.613 83.9635 147.665L84.0689 150.88C82.8557 151.513 81.6953 151.934 81.0096 151.407Z" fill="#FFD2C1"/>
<path d="M79.6928 63.2324L83.1213 63.4959C82.0136 65.7622 81.7499 67.8176 82.8576 69.346L78.2686 68.9771C79.429 67.8176 80.1147 65.1825 79.6928 63.2324Z" fill="#FFD2C1"/>
<path d="M84.7554 76.7752L86.707 80.2537C86.9707 80.7807 87.3399 81.2023 87.8147 81.5712L96.5707 88.212C97.4147 88.8444 98.1004 89.793 98.5224 90.7944C98.6806 91.0579 98.7334 91.4268 98.7334 91.7958C98.7334 92.3228 98.5751 92.7444 98.2059 93.3769C97.7839 94.1674 97.6257 94.2201 96.307 93.9039C96.2543 94.062 96.8872 93.2715 97.0982 92.6918C97.3092 92.0593 96.9399 90.8998 96.4652 90.4255C95.463 89.5822 94.3553 88.7389 93.3004 88.1592C93.0894 88.0011 92.7729 87.9484 92.5092 87.8957C90.7685 87.5268 88.9751 86.9471 87.129 86.1565C86.7597 85.9984 86.496 85.7876 86.1795 85.5768C84.2279 83.7849 82.6982 81.7294 80.9048 78.9888L84.4389 76.5117L84.7554 76.7752Z" fill="#E8C2B8"/>
<path d="M84.7574 76.7765L86.8673 80.8348C87.131 81.3618 87.5003 81.7834 87.975 82.1524L96.731 88.793C97.575 89.4254 98.2607 90.3741 98.7354 91.4809C98.8937 91.7444 98.9464 92.3241 98.9464 92.6931C98.9464 92.8512 98.9464 92.9039 98.8936 93.062C98.7354 93.6944 98.3134 94.2214 97.7332 94.4849C96.8893 94.8539 95.8343 94.7485 95.5706 94.2742C95.9926 94.485 96.4145 94.0633 96.6783 93.5363C96.8893 93.1147 97.0475 92.6931 97.1003 92.166C97.1003 91.7444 97.1003 91.2173 96.8365 91.0592C95.6761 90.3214 94.8321 89.3727 93.7244 88.793C93.5135 88.6349 93.197 88.5822 92.9332 88.5295C91.1926 88.1605 89.3991 87.5808 87.553 86.7902C87.1838 86.6321 86.9201 86.4213 86.6036 86.2105C84.6519 84.4713 81.9618 80.9928 80.2212 78.1468C78.4278 74.7738 79.0079 72.8765 81.4871 72.1387C83.0695 72.5076 84.1772 73.9833 84.7574 76.7765Z" fill="#FFD2C1"/>
<path d="M83.437 53.2715C83.437 53.2715 85.4941 56.4337 85.0721 58.0148C85.0194 58.2256 85.0193 58.4364 84.9139 58.5945C84.7556 59.5432 84.8611 59.5959 85.3359 60.123C85.7578 60.4919 85.7051 60.65 85.4941 60.8608C85.3359 60.9135 85.2831 61.1243 85.2831 61.2824C85.2831 61.4932 85.3359 61.6514 85.3359 61.7041C85.3359 61.7568 85.5469 62.2838 84.9667 62.2311C83.2787 61.9676 84.5974 62.2838 84.9667 62.3892C84.9667 62.3892 85.4941 62.5473 85.3886 62.6527C85.3358 62.8108 85.1249 63.1798 85.0194 63.3906C84.9666 63.6014 84.9666 64.1811 84.8084 64.4973C84.6501 64.8136 83.1205 65.2352 82.2238 65.0244C81.4853 64.8663 80.5359 64.6555 80.1139 64.6028C79.9556 64.6028 79.7446 64.2338 79.5864 64.1811C79.3754 64.023 78.3205 63.3906 77.8985 63.1271C77.1073 62.6 77.371 62.1784 77.4238 61.8622C77.4765 61.5986 78.3732 61.5986 78.3205 61.4932C78.2677 61.3351 77.6348 60.4919 77.4765 60.0703C77.2655 59.4905 77.6348 58.6472 77.8458 58.331C78.1095 58.0675 78.637 57.804 79.0062 58.1202C79.2699 58.331 79.5864 57.9621 79.3754 57.7513C78.7952 57.277 79.9029 54.4837 80.8523 54.3782C81.2216 53.9566 83.437 53.2715 83.437 53.2715Z" fill="#FFD2C1"/>
<path d="M85.3875 61.9668C85.3875 61.7032 85.3875 61.5978 85.1765 61.7559C85.1238 61.8086 84.0689 62.0722 84.1744 62.1249L84.7019 62.1776C84.8601 62.2303 85.0711 62.283 85.1238 62.2303C85.1766 62.2303 85.2821 62.2303 85.3348 62.1776C85.3876 62.1249 85.3875 62.0195 85.3875 61.9668Z" fill="#EA2D3B"/>
<path d="M85.2308 63.0229C85.389 62.8648 85.4417 62.654 85.4417 62.6013C85.4417 62.5486 85.4418 62.4431 85.2835 62.3904C84.8615 62.3377 84.123 62.1796 84.123 62.0742C84.123 62.1796 84.8088 62.9702 85.2308 63.0229Z" fill="#EA2D3B"/>
<path d="M78.3716 68.7656C78.6353 68.9237 79.4793 68.9764 80.9562 68.871C82.3803 68.7656 82.1694 68.7656 82.8551 68.9764C83.5408 69.1872 83.5408 70.6629 83.8045 71.19C84.0683 71.6643 84.9122 72.6657 85.1759 73.4035C85.4397 74.1414 85.4925 74.2468 85.809 74.9319C86.1254 75.6171 85.9144 78.7793 85.9144 78.7793L84.8067 76.8292C84.4375 76.3549 84.543 74.2468 82.4859 72.7184C81.1144 71.717 80.0595 73.1927 79.5848 74.1941C79.3738 74.6684 79.2155 75.2481 79.3738 75.7225C79.6375 76.9347 79.9013 77.5671 80.3232 78.3577L81.4836 80.2023L81.8002 80.6766C81.8529 80.6239 81.8002 80.8348 82.9606 82.1523C84.2793 83.628 83.5408 82.9956 84.9122 84.5767C85.0705 84.7348 85.9144 85.7362 85.9144 85.7362C86.1254 93.5363 87.8661 97.1201 89.4485 102.549C92.7716 111.087 97.3078 137.017 94.6704 138.44C88.3935 141.813 80.6924 146.661 76.4199 142.92C74.0463 140.811 66.398 136.279 59.9101 136.964C50.3101 137.965 68.0859 107.555 72.3584 101.758C73.9408 99.5972 75.7342 95.8553 76.3145 93.589C76.8947 91.3227 74.9958 85.5254 74.8375 82.6794C74.732 80.6239 74.2573 77.9888 74.5738 76.1441C74.732 75.4063 75.1012 74.2995 75.4177 73.6143L78.3716 68.7656Z" fill="#181A33"/>
<path d="M79.1617 152.089C79.0562 152.142 78.9507 152.774 78.9507 152.88C78.9507 153.038 78.9507 153.46 79.0562 153.565C79.1616 153.67 79.4254 153.723 80.1111 153.776C80.7968 153.776 82.221 153.829 82.221 153.829H85.2803L87.443 153.776C87.7595 153.776 89.3946 153.565 90.0276 153.407C90.5551 153.301 91.2935 153.038 91.4517 152.933C91.5572 152.88 91.61 152.722 91.61 152.669C91.61 152.616 91.61 152.247 91.61 152.089C91.61 151.984 91.5045 151.72 91.5045 151.668C91.5045 151.615 91.399 151.51 91.399 151.51C91.399 151.51 91.3463 151.404 91.2935 151.404C91.2408 151.351 91.2407 151.351 91.2407 151.351C91.2407 151.351 90.977 151.193 90.9243 151.193C90.8715 151.193 90.6078 151.193 90.6078 151.193H90.5551C90.5551 151.193 90.7661 151.193 90.8188 151.246C90.8715 151.299 91.0298 151.457 91.0825 151.562C91.1353 151.668 91.1353 151.72 91.0825 151.773C91.0298 151.773 90.6078 151.931 90.3968 151.984C90.1858 152.037 89.5529 152.195 89.4474 152.195C89.3419 152.195 88.8671 152.3 88.8144 152.3C88.7089 152.3 88.1814 152.353 88.0759 152.353C87.9704 152.353 87.1265 152.406 87.1265 152.406H86.4408H85.3331H83.9617H82.8012H81.799L80.5858 152.353H79.7419C79.7419 152.353 79.4254 152.247 79.3726 152.247C79.3199 152.247 79.1617 152.089 79.1617 152.089Z" fill="#BFBAB8"/>
<path d="M79.9551 150.14C79.9551 150.14 80.1661 150.404 80.2715 150.457C80.377 150.509 80.7463 150.72 81.1155 150.773C81.4847 150.826 82.1177 150.826 82.4869 150.72C82.8561 150.615 83.2782 150.404 83.3836 150.299C83.5419 150.193 84.0166 149.824 84.0166 149.824C84.0166 149.824 84.1221 150.035 84.1749 150.088C84.2276 150.14 84.2276 150.193 84.1749 150.193C84.1749 150.246 83.9111 150.404 83.8583 150.404C83.8056 150.404 83.5946 150.562 83.5946 150.562L83.2781 150.72L82.9089 150.878L82.7506 150.931C82.6979 150.931 82.2759 151.036 82.2759 151.036C82.2759 151.036 81.9594 151.089 81.9067 151.089C81.854 151.089 81.7485 151.089 81.643 151.089C81.5375 151.089 81.3265 150.984 81.2738 150.984L80.8518 150.826C80.8518 150.826 80.5352 150.72 80.4298 150.668C80.377 150.615 80.2716 150.562 80.2188 150.509C80.1661 150.457 80.1133 150.404 80.0605 150.299L79.9551 150.14Z" fill="#C18E6C"/>
<path d="M85.439 149.508C85.439 149.508 85.5445 149.455 85.5445 149.402C85.4918 149.35 85.439 149.297 85.439 149.297H85.4918C85.5445 149.297 85.9665 149.56 86.0192 149.56C86.072 149.613 86.5994 149.877 86.6522 149.929C86.7049 149.982 87.0742 150.193 87.1269 150.193C87.1797 150.193 87.6544 150.404 87.6544 150.404L88.0236 150.562L88.4456 150.825L87.0742 150.246L86.072 149.771L85.439 149.508Z" fill="#4F2305"/>
<path d="M79.901 150.035C79.901 150.035 79.5318 150.141 79.4263 150.404C79.4263 150.457 79.4263 150.457 79.4263 150.51C79.3736 150.668 79.3208 150.984 79.3208 151.195C79.2681 151.458 79.2153 152.091 79.2153 152.196C79.2153 152.302 79.2153 152.354 79.4791 152.407C79.6901 152.46 82.2219 152.512 82.1692 152.512H86.9691C86.9691 152.512 89.3428 152.407 90.4504 152.038C90.6614 151.985 90.8725 151.88 91.0307 151.775C91.0835 151.722 91.1362 151.722 91.1362 151.669C91.1362 151.616 91.0834 151.511 91.0834 151.458C91.0307 151.406 90.8197 151.195 90.767 151.195C90.7142 151.195 90.3977 151.248 90.2395 151.195C90.0813 151.142 88.6043 150.879 88.6043 150.879C88.5515 150.879 88.2351 150.721 87.7603 150.51C87.2856 150.299 85.756 149.561 85.5977 149.508C85.4395 149.456 84.9647 149.666 84.8593 149.772C84.7538 149.877 84.0681 150.404 83.9626 150.51C83.8571 150.562 83.3824 150.773 83.1714 150.879C83.0659 150.931 82.9604 150.984 82.8549 150.984C82.5912 151.037 82.0637 151.142 81.8 151.142C81.5362 151.142 80.6395 150.826 80.4285 150.615C80.0592 150.299 79.9538 150.035 79.901 150.035Z" fill="#EAE4E1"/>
<path d="M87.3378 150.929C87.4542 150.929 87.5485 150.835 87.5485 150.719C87.5485 150.602 87.4542 150.508 87.3378 150.508C87.2214 150.508 87.127 150.602 87.127 150.719C87.127 150.835 87.2214 150.929 87.3378 150.929Z" fill="#4F2305"/>
<path d="M87.9189 151.088C88.0062 151.088 88.077 151.017 88.077 150.93C88.077 150.842 88.0062 150.771 87.9189 150.771C87.8316 150.771 87.7607 150.842 87.7607 150.93C87.7607 151.017 87.8316 151.088 87.9189 151.088Z" fill="#4F2305"/>
<path d="M85.6498 150.248C85.7662 150.248 85.8606 150.13 85.8606 149.984C85.8606 149.839 85.7662 149.721 85.6498 149.721C85.5334 149.721 85.439 149.839 85.439 149.984C85.439 150.13 85.5334 150.248 85.6498 150.248Z" fill="#4F2305"/>
<path d="M86.2298 150.457C86.3462 150.457 86.4406 150.362 86.4406 150.246C86.4406 150.13 86.3462 150.035 86.2298 150.035C86.1134 150.035 86.019 150.13 86.019 150.246C86.019 150.362 86.1134 150.457 86.2298 150.457Z" fill="#4F2305"/>
<path d="M86.7571 150.668C86.8736 150.668 86.968 150.573 86.968 150.457C86.968 150.34 86.8736 150.246 86.7571 150.246C86.6407 150.246 86.5464 150.34 86.5464 150.457C86.5464 150.573 86.6407 150.668 86.7571 150.668Z" fill="#4F2305"/>
<path d="M85.5438 150.035C85.4911 149.929 85.5438 149.771 85.5965 149.719C85.6492 149.666 85.7546 149.508 85.8073 149.508C85.86 149.508 86.0708 149.613 86.1235 149.666C86.1762 149.719 86.1236 149.719 86.0182 149.771C85.8073 149.929 85.7546 150.035 85.6492 150.035C85.5965 150.088 85.5438 150.035 85.5438 150.035Z" fill="#C18E6C"/>
<path d="M86.1771 150.299C86.1244 150.246 86.1771 150.088 86.2298 150.035C86.2825 149.982 86.3879 149.877 86.3879 149.877C86.3879 149.877 86.5987 149.982 86.6515 150.035C86.7042 150.088 86.6515 150.088 86.5461 150.14C86.388 150.246 86.3352 150.351 86.2298 150.351C86.2298 150.299 86.1771 150.299 86.1771 150.299Z" fill="#C18E6C"/>
<path d="M86.7045 150.508C86.6517 150.455 86.7044 150.297 86.7571 150.244C86.8098 150.191 86.8626 150.086 86.9153 150.086C86.9153 150.086 87.1261 150.191 87.1261 150.244C87.1261 150.297 87.1261 150.297 87.0734 150.349C86.9153 150.455 86.8626 150.56 86.8099 150.56C86.7572 150.56 86.7045 150.508 86.7045 150.508Z" fill="#C18E6C"/>
<path d="M87.2835 150.719C87.2308 150.666 87.2836 150.56 87.3363 150.508C87.389 150.508 87.4417 150.402 87.4417 150.402C87.4417 150.402 87.5998 150.455 87.6525 150.508C87.6525 150.56 87.6525 150.56 87.5998 150.56C87.4417 150.666 87.4417 150.719 87.389 150.719C87.3363 150.771 87.2835 150.719 87.2835 150.719Z" fill="#C18E6C"/>
<path d="M87.8651 150.982C87.8124 150.93 87.8651 150.824 87.9178 150.771C87.9705 150.771 88.0232 150.666 88.0232 150.666C88.0232 150.666 88.1813 150.719 88.1813 150.771C88.1813 150.824 88.1813 150.771 88.1286 150.824C87.9705 150.929 87.9705 150.982 87.9178 150.982C87.8651 150.982 87.8651 150.982 87.8651 150.982Z" fill="#C18E6C"/>
<path d="M84.2251 150.141C84.2251 150.141 84.1725 149.824 84.1725 149.719C84.1725 149.613 84.2251 148.981 84.2251 148.928C84.2251 148.876 84.2252 148.77 84.1725 148.823C84.1725 148.876 83.9616 149.297 84.0143 149.666C84.1197 150.035 84.2251 150.141 84.2251 150.141Z" fill="#2D1301"/>
<path d="M84.1729 148.822C84.1729 148.822 84.3311 148.612 84.5421 148.717C84.7004 148.822 85.1751 149.086 85.2806 149.191L85.3333 149.244C85.4388 149.297 85.5443 149.349 85.5971 149.402C85.5971 149.402 85.5443 149.455 85.4916 149.508C85.4388 149.508 85.4388 149.56 85.3861 149.56C85.3333 149.56 85.1751 149.613 85.1223 149.613C85.0696 149.613 84.8586 149.718 84.7531 149.824C84.7531 149.824 84.6476 149.929 84.5421 149.982C84.4366 150.035 84.2257 150.193 84.2257 150.193C84.2257 150.193 84.1201 149.666 84.1201 149.613C84.1201 149.56 84.1202 149.297 84.1729 149.139C84.2257 148.875 84.1729 148.822 84.1729 148.822Z" fill="#4F2305"/>
<path d="M84.3315 149.244C84.3315 149.244 84.1734 149.244 84.2261 149.139C84.2788 149.033 84.2788 148.98 84.3315 148.98C84.3842 148.98 84.4369 149.033 84.3842 149.086C84.3315 149.139 84.3842 149.244 84.3842 149.244H84.3315Z" fill="#F2D6BB"/>
<path d="M84.3827 149.822C84.3827 149.822 84.3827 149.928 84.33 149.875C84.2773 149.822 84.2246 149.822 84.2246 149.822L84.2773 149.77C84.2773 149.77 84.3827 149.77 84.3827 149.822Z" fill="#F2D6BB"/>
<path d="M84.4899 149.56C84.4899 149.56 84.4372 149.56 84.3845 149.455C84.3318 149.35 84.4372 149.297 84.4899 149.297C84.5426 149.297 84.5953 149.35 84.5426 149.402C84.5426 149.455 84.5426 149.508 84.5426 149.56C84.5426 149.56 84.5426 149.56 84.4899 149.56Z" fill="#F2D6BB"/>
<path d="M84.7523 149.086C84.7523 149.086 84.7523 149.086 84.6469 149.086C84.5415 149.086 84.5415 148.98 84.5942 148.928C84.5942 148.928 84.6469 148.875 84.6469 148.928C84.7523 149.033 84.805 149.033 84.7523 149.086C84.805 149.086 84.7523 149.086 84.7523 149.086Z" fill="#F2D6BB"/>
<path d="M85.1743 149.455C85.1743 149.455 85.1744 149.456 85.2271 149.403C85.2798 149.35 85.3324 149.35 85.3851 149.403C85.3851 149.456 85.3852 149.455 85.3325 149.455C85.227 149.455 85.227 149.508 85.1743 149.455Z" fill="#F2D6BB"/>
<path d="M84.9116 149.192C84.9116 149.192 84.9116 149.192 84.9116 149.139C84.9647 149.086 85.0178 149.139 85.0178 149.139C85.0178 149.139 85.0178 149.192 84.9647 149.192C84.9647 149.192 84.9647 149.192 84.9116 149.192Z" fill="#F2D6BB"/>
<path d="M84.3828 148.877C84.3828 148.877 84.3828 148.877 84.3828 148.824C84.4359 148.771 84.489 148.824 84.489 148.824C84.489 148.824 84.489 148.877 84.4359 148.877C84.3829 148.877 84.4359 148.877 84.3828 148.877C84.4359 148.877 84.4359 148.877 84.3828 148.877Z" fill="#F2D6BB"/>
<path d="M84.7003 149.719C84.6473 149.613 84.7003 149.613 84.7003 149.613C84.7003 149.613 84.7534 149.613 84.7534 149.666C84.7003 149.666 84.7534 149.719 84.7003 149.719Z" fill="#F2D6BB"/>
<path d="M84.2248 149.507C84.1717 149.56 84.2248 149.507 84.2248 149.507C84.1717 149.4 84.2248 149.4 84.2248 149.4C84.2248 149.4 84.2778 149.4 84.2778 149.453C84.2247 149.453 84.2248 149.507 84.2248 149.507Z" fill="#F2D6BB"/>
<path d="M84.9635 149.348C84.9635 149.348 84.9634 149.348 84.9107 149.4C84.8053 149.453 84.7526 149.348 84.8053 149.295C84.8053 149.242 84.858 149.242 84.9107 149.242C84.9634 149.242 85.0162 149.242 85.0162 149.242C84.9635 149.348 84.9635 149.348 84.9635 149.348Z" fill="#F2D6BB"/>
<path d="M77.1588 63.1807C77.1588 63.1807 75.6291 63.3388 73.9412 60.7036C72.306 58.1738 73.5192 57.1198 73.6775 56.3292C74.0467 54.6427 75.5763 54.6954 76.1566 53.8522C76.684 52.9562 77.106 52.7981 78.5302 52.271C79.9544 51.744 81.5368 51.4278 82.4862 52.1129C83.3829 52.8508 84.0687 53.6414 83.6994 53.7995C83.3302 54.0103 82.117 54.59 81.695 54.8535C81.273 55.0643 80.4291 56.2765 80.3763 56.909C80.3236 57.4887 80.1653 57.8049 80.1126 58.3847C80.1126 58.9117 79.3214 58.3847 78.8994 58.7009C78.4775 59.0171 78.7412 59.9658 79.2159 60.3874C79.7434 60.8617 79.2159 62.3901 79.0049 62.7591C78.5829 63.2334 78.5829 63.6023 77.1588 63.1807Z" fill="#42210B"/>
<path d="M76.6842 54.0086C76.6842 54.0086 75.0491 55.3261 74.4162 54.9045C73.7832 54.4829 72.7282 53.3761 73.7304 52.6382C74.7326 51.9004 74.6799 50.8463 75.0491 50.6882C75.4711 50.5301 76.1568 50.0558 76.8425 50.372C77.5282 50.6882 78.7414 51.6369 78.5831 52.1112C78.4776 52.4801 76.6842 54.0086 76.6842 54.0086Z" fill="#492815"/>
<path d="M73.4644 152.458C73.3589 152.511 73.2534 153.144 73.2534 153.249C73.2534 153.407 73.2535 153.829 73.359 153.934C73.4644 154.04 73.7282 154.092 74.4139 154.145C75.0996 154.145 76.5238 154.198 76.5238 154.198H79.5831L81.7457 154.145C82.0622 154.145 83.6974 153.934 84.3303 153.776C84.8578 153.671 85.5963 153.407 85.7545 153.302C85.86 153.249 85.9127 153.091 85.9127 153.038C85.9127 152.986 85.9127 152.617 85.9127 152.458C85.9127 152.353 85.8073 152.09 85.8073 152.037C85.8073 151.984 85.7017 151.879 85.7017 151.879C85.7017 151.879 85.649 151.773 85.5963 151.773C85.5435 151.721 85.5435 151.721 85.5435 151.721C85.5435 151.721 85.2798 151.563 85.2271 151.563C85.1216 151.563 84.9105 151.563 84.9105 151.563H84.8578C84.8578 151.563 85.0688 151.562 85.1215 151.615C85.1743 151.668 85.3325 151.826 85.3853 151.931C85.438 152.037 85.438 152.09 85.3853 152.142C85.3325 152.195 84.9106 152.3 84.6996 152.353C84.5414 152.406 83.8556 152.564 83.7501 152.564C83.6446 152.564 83.1699 152.669 83.1172 152.669C83.0117 152.669 82.4842 152.722 82.3787 152.722C82.2732 152.722 81.4292 152.775 81.4292 152.775H80.7436H79.6358H78.2644H77.104H76.1018L74.8886 152.722H74.0446C74.0446 152.722 73.7282 152.617 73.6754 152.617C73.5172 152.617 73.4644 152.458 73.4644 152.458Z" fill="#BFBAB8"/>
<path d="M74.2563 150.455C74.2563 150.455 74.4673 150.718 74.5728 150.771C74.6783 150.824 75.0475 151.035 75.4168 151.087C75.786 151.14 76.419 151.14 76.7882 151.035C77.1575 150.929 77.5794 150.718 77.6849 150.613C77.8432 150.508 78.3179 150.139 78.3179 150.139C78.3179 150.139 78.4234 150.349 78.4761 150.402C78.5289 150.455 78.5289 150.508 78.4761 150.508C78.4234 150.508 78.2124 150.718 78.1597 150.718L77.8959 150.876L77.5794 151.035L77.2102 151.193L77.052 151.245C76.9992 151.245 76.5772 151.351 76.5772 151.351C76.5772 151.351 76.2607 151.404 76.208 151.404C76.1552 151.404 76.0497 151.404 75.9442 151.404C75.8387 151.404 75.6278 151.298 75.575 151.298C75.5223 151.298 75.153 151.14 75.153 151.14C75.153 151.14 74.8366 151.035 74.7311 150.982C74.6783 150.929 74.5728 150.876 74.5201 150.824C74.4673 150.771 74.4146 150.718 74.3618 150.613C74.3618 150.666 74.2563 150.455 74.2563 150.455Z" fill="#C18E6C"/>
<path d="M79.7397 149.877C79.7397 149.877 79.8452 149.824 79.8452 149.771C79.7925 149.719 79.7397 149.666 79.7397 149.666H79.7925C79.7925 149.666 80.2672 149.93 80.32 149.93C80.3727 149.982 80.9001 150.246 80.9529 150.298C81.0056 150.351 81.3749 150.562 81.4276 150.562C81.4804 150.562 81.9551 150.773 81.9551 150.773L82.3244 150.931L82.7463 151.194L81.3749 150.615L80.3727 150.14L79.7397 149.877Z" fill="#4F2305"/>
<path d="M74.2038 150.352C74.2038 150.352 73.8346 150.457 73.7291 150.721C73.7291 150.773 73.7291 150.773 73.7291 150.826C73.6763 150.984 73.6236 151.3 73.6236 151.511C73.5709 151.775 73.5181 152.407 73.5181 152.513C73.5181 152.618 73.5181 152.671 73.7818 152.723C73.9928 152.776 76.5246 152.829 76.4719 152.829H81.2719C81.2719 152.829 83.6456 152.723 84.7532 152.355C84.9642 152.302 85.1752 152.196 85.3334 152.091C85.3862 152.038 85.4389 152.038 85.4389 151.986C85.4389 151.933 85.3862 151.828 85.3862 151.775C85.3334 151.722 85.1225 151.511 85.0697 151.511C85.017 151.511 84.7005 151.564 84.5422 151.511C84.384 151.459 82.9071 151.195 82.9071 151.195C82.8543 151.195 82.5379 151.037 82.0631 150.826C81.5884 150.615 80.0587 149.877 79.9005 149.825C79.7422 149.772 79.2675 149.983 79.1621 150.088C79.0566 150.194 78.3708 150.721 78.2653 150.826C78.1598 150.879 77.6851 151.09 77.4741 151.195C77.3686 151.248 77.2631 151.3 77.1576 151.3C76.8939 151.353 76.3664 151.459 76.1027 151.459C75.839 151.459 74.9423 151.142 74.7313 150.932C74.3093 150.668 74.2566 150.404 74.2038 150.352Z" fill="#EAE4E1"/>
<path d="M81.6405 151.299C81.7569 151.299 81.8513 151.204 81.8513 151.088C81.8513 150.971 81.7569 150.877 81.6405 150.877C81.5241 150.877 81.4297 150.971 81.4297 151.088C81.4297 151.204 81.5241 151.299 81.6405 151.299Z" fill="#4F2305"/>
<path d="M82.2215 151.406C82.3089 151.406 82.3797 151.335 82.3797 151.248C82.3797 151.161 82.3089 151.09 82.2215 151.09C82.1342 151.09 82.0635 151.161 82.0635 151.248C82.0635 151.335 82.1342 151.406 82.2215 151.406Z" fill="#4F2305"/>
<path d="M79.9506 150.617C80.067 150.617 80.1613 150.499 80.1613 150.353C80.1613 150.208 80.067 150.09 79.9506 150.09C79.8341 150.09 79.7397 150.208 79.7397 150.353C79.7397 150.499 79.8341 150.617 79.9506 150.617Z" fill="#4F2305"/>
<path d="M80.5326 150.773C80.649 150.773 80.7434 150.679 80.7434 150.562C80.7434 150.446 80.649 150.352 80.5326 150.352C80.4162 150.352 80.3218 150.446 80.3218 150.562C80.3218 150.679 80.4162 150.773 80.5326 150.773Z" fill="#4F2305"/>
<path d="M81.0599 151.037C81.1764 151.037 81.2708 150.942 81.2708 150.826C81.2708 150.71 81.1764 150.615 81.0599 150.615C80.9435 150.615 80.8491 150.71 80.8491 150.826C80.8491 150.942 80.9435 151.037 81.0599 151.037Z" fill="#4F2305"/>
<path d="M79.8465 150.404C79.7938 150.299 79.8465 150.14 79.8992 150.088C79.9519 150.035 80.0574 149.877 80.1101 149.877C80.1628 149.877 80.3736 149.982 80.4263 150.035C80.479 150.088 80.4263 150.088 80.3209 150.14C80.1101 150.299 80.0574 150.404 79.952 150.404C79.8993 150.457 79.8465 150.404 79.8465 150.404Z" fill="#C18E6C"/>
<path d="M80.4798 150.615C80.4271 150.562 80.4798 150.404 80.5325 150.351C80.5852 150.299 80.6906 150.193 80.6906 150.193C80.6906 150.193 80.9014 150.299 80.9541 150.351C81.0068 150.404 80.9541 150.404 80.8487 150.457C80.6906 150.562 80.6379 150.668 80.5325 150.668C80.4798 150.668 80.4798 150.615 80.4798 150.615Z" fill="#C18E6C"/>
<path d="M81.0086 150.877C80.9559 150.824 81.0086 150.666 81.0613 150.613C81.114 150.56 81.1667 150.455 81.2194 150.455C81.2194 150.455 81.4302 150.56 81.4302 150.613C81.4829 150.666 81.4303 150.666 81.3775 150.719C81.2194 150.824 81.1667 150.929 81.114 150.929C81.0086 150.877 81.0086 150.877 81.0086 150.877Z" fill="#C18E6C"/>
<path d="M81.5863 151.088C81.5336 151.035 81.5863 150.93 81.639 150.877C81.6917 150.877 81.7444 150.771 81.7444 150.771C81.7444 150.771 81.9025 150.824 81.9552 150.877C81.9552 150.93 81.9552 150.93 81.9025 150.93C81.7444 151.035 81.7444 151.088 81.6917 151.088C81.639 151.088 81.5863 151.088 81.5863 151.088Z" fill="#C18E6C"/>
<path d="M82.1678 151.299C82.1151 151.246 82.1678 151.141 82.2205 151.088C82.2732 151.088 82.326 150.982 82.326 150.982C82.326 150.982 82.484 151.035 82.484 151.088C82.484 151.141 82.4841 151.088 82.4313 151.14C82.2732 151.246 82.2732 151.299 82.2205 151.299C82.1678 151.351 82.1678 151.299 82.1678 151.299Z" fill="#C18E6C"/>
<path d="M78.5279 150.455C78.5279 150.455 78.4752 150.139 78.4752 150.033C78.4752 149.928 78.5279 149.295 78.5279 149.243C78.5279 149.19 78.5279 149.085 78.4752 149.137C78.4752 149.19 78.2643 149.612 78.3171 149.981C78.3698 150.402 78.5279 150.455 78.5279 150.455Z" fill="#2D1301"/>
<path d="M78.4756 149.192C78.4756 149.192 78.6338 148.981 78.8448 149.086C79.003 149.192 79.4778 149.455 79.5833 149.56L79.636 149.613C79.7415 149.666 79.847 149.719 79.8997 149.771C79.8997 149.771 79.847 149.824 79.7943 149.877C79.7415 149.877 79.7415 149.929 79.6888 149.929C79.636 149.929 79.4778 149.982 79.4251 149.982C79.3723 149.982 79.1613 150.088 79.0558 150.193C79.0558 150.193 78.9503 150.298 78.8448 150.351C78.7393 150.404 78.5283 150.562 78.5283 150.562C78.5283 150.562 78.4229 150.035 78.4229 149.982C78.4229 149.929 78.4228 149.666 78.4756 149.508C78.5283 149.244 78.4756 149.192 78.4756 149.192Z" fill="#4F2305"/>
<path d="M78.6343 149.56C78.6343 149.56 78.4761 149.56 78.5288 149.455C78.5815 149.35 78.5816 149.297 78.6343 149.297C78.687 149.297 78.7397 149.35 78.687 149.402C78.687 149.455 78.687 149.56 78.687 149.56H78.6343Z" fill="#F2D6BB"/>
<path d="M78.6869 150.191C78.6869 150.191 78.687 150.297 78.6343 150.244C78.5816 150.191 78.5288 150.191 78.5288 150.191L78.5815 150.139C78.5815 150.139 78.6869 150.139 78.6869 150.191C78.6869 150.191 78.6869 150.139 78.6869 150.191Z" fill="#F2D6BB"/>
<path d="M78.7926 149.93C78.7926 149.93 78.7399 149.929 78.6872 149.824C78.6345 149.719 78.7399 149.666 78.7926 149.666C78.8453 149.666 78.898 149.719 78.8453 149.771C78.7926 149.824 78.8453 149.877 78.8453 149.93C78.8453 149.93 78.8453 149.93 78.7926 149.93Z" fill="#F2D6BB"/>
<path d="M79.055 149.455C79.055 149.455 79.055 149.455 78.9496 149.455C78.8442 149.455 78.8442 149.35 78.8969 149.297C78.8969 149.297 78.9496 149.244 78.9496 149.297C79.0023 149.402 79.055 149.402 79.055 149.455Z" fill="#F2D6BB"/>
<path d="M79.4253 149.772C79.4253 149.772 79.4253 149.772 79.478 149.719C79.5307 149.667 79.5834 149.667 79.6361 149.719C79.6361 149.772 79.6361 149.772 79.5834 149.772C79.5307 149.825 79.478 149.825 79.4253 149.772C79.478 149.825 79.478 149.825 79.4253 149.772Z" fill="#F2D6BB"/>
<path d="M79.2144 149.508C79.2144 149.508 79.2144 149.508 79.2144 149.455C79.2674 149.402 79.3205 149.455 79.3205 149.455C79.3205 149.455 79.3205 149.508 79.2674 149.508C79.2674 149.561 79.2674 149.561 79.2144 149.508C79.2144 149.561 79.2144 149.561 79.2144 149.508Z" fill="#F2D6BB"/>
<path d="M78.6855 149.192C78.6855 149.192 78.6855 149.192 78.6855 149.139C78.7386 149.086 78.7917 149.139 78.7917 149.139C78.7917 149.139 78.7917 149.192 78.7386 149.192C78.7386 149.192 78.7386 149.245 78.6855 149.192C78.6855 149.245 78.6855 149.245 78.6855 149.192Z" fill="#F2D6BB"/>
<path d="M79.0031 150.089C78.95 150.089 79.0031 150.089 79.0031 150.089C78.95 149.982 79.0031 149.982 79.0031 149.982C79.0031 149.982 79.0561 149.982 79.0561 150.035C79.0031 150.035 79.0561 150.089 79.0031 150.089Z" fill="#F2D6BB"/>
<path d="M78.4757 149.878C78.4227 149.772 78.4757 149.771 78.4757 149.771C78.4757 149.771 78.5288 149.771 78.5288 149.825C78.5288 149.878 78.5288 149.878 78.4757 149.878C78.5288 149.878 78.4757 149.878 78.4757 149.878Z" fill="#F2D6BB"/>
<path d="M79.2149 149.719C79.2149 149.719 79.215 149.719 79.1622 149.771C79.0568 149.824 79.0041 149.719 79.0568 149.666C79.0568 149.613 79.1095 149.613 79.1622 149.613C79.215 149.613 79.2676 149.613 79.2676 149.613C79.2676 149.666 79.2149 149.719 79.2149 149.719Z" fill="#F2D6BB"/>
<path d="M79.1619 67.6055C79.1619 67.6055 78.2652 67.8163 78.7927 68.2906C79.3729 68.8176 81.2718 69.0285 81.9048 68.9757C82.485 68.923 82.6432 69.292 82.8542 69.9771C83.0652 70.715 83.8564 72.2961 83.9619 72.2961L83.7509 71.769L83.5926 71.3474C83.3816 70.9258 83.1707 70.4514 83.118 70.1879C83.0652 69.6082 82.485 68.6068 82.2212 68.6595C82.063 68.7122 80.4806 68.6595 80.0059 68.5014C79.5311 68.3433 78.9509 68.1325 79.0037 67.9217C79.0564 67.8163 79.1619 67.6055 79.1619 67.6055Z" fill="#B59702"/>
<path d="M81.3253 68.7146C81.3253 68.7146 82.433 68.6619 82.3803 68.5565C82.3275 68.4511 82.3275 68.3984 82.3275 68.3984C82.3275 68.3984 82.5912 68.4511 82.5385 68.5565C82.5385 68.6619 82.433 68.7147 82.1693 68.7674C81.9055 68.8201 80.9561 68.7674 80.9561 68.7674L81.3253 68.7146Z" fill="#B59702"/>
<path d="M84.0679 71.664C83.7514 71.8748 83.6459 72.2964 83.8041 72.6126C84.0151 72.9289 84.4371 73.0343 84.7536 72.8762C84.8064 72.8762 84.8591 72.8235 84.8591 72.7708C84.5426 72.8235 84.2261 72.7181 84.0679 72.4546C83.9096 72.1911 83.9624 71.8221 84.1734 71.6113C84.1207 71.6113 84.0679 71.6113 84.0679 71.664Z" fill="#F9EAAF"/>
<path d="M79.9525 60.0703L80.0052 60.2284H80.1633L80.0579 60.3338L80.1106 60.4919L79.9525 60.4392L79.7944 60.4919L79.8471 60.3338L79.7417 60.2284H79.8998L79.9525 60.0703Z" fill="#B59702"/>
</svg>
