<svg width="343" height="157" viewBox="0 0 343 157" fill="none" xmlns="http://www.w3.org/2000/svg">
<path d="M171.59 139.713C246.458 139.713 307.151 134.326 307.151 127.681C307.151 121.036 246.458 115.648 171.59 115.648C96.7219 115.648 36.0293 121.036 36.0293 127.681C36.0293 134.326 96.7219 139.713 171.59 139.713Z" fill="#D5D5D5"/>
<path d="M150.516 124.406H99.6807V126.329H150.516V124.406Z" fill="#F1F1F1"/>
<path d="M246.633 124.406H195.797V126.329H246.633V124.406Z" fill="#F1F1F1"/>
<path d="M211.176 27.6465L214.523 28.2161C213.312 30.2808 212.814 32.3455 213.739 33.9119L209.325 33.1287C210.536 32.0607 211.461 29.64 211.176 27.6465Z" fill="#ECBC97"/>
<path fill-rule="evenodd" clip-rule="evenodd" d="M251.262 102.477C252.401 103.117 252.828 104.541 252.187 105.68L244 120.347C243.572 121.059 242.789 121.558 241.935 121.558H202.918C201.637 121.558 200.569 120.49 200.569 119.208C200.569 117.926 201.637 116.858 202.918 116.858H240.582L248.129 103.402C248.699 102.263 250.123 101.836 251.262 102.477Z" fill="#3DBBC7"/>
<path fill-rule="evenodd" clip-rule="evenodd" d="M191.811 123.266C193.734 123.266 195.3 121.7 195.3 119.778C195.3 117.855 193.734 116.289 191.811 116.289C189.889 116.289 188.323 117.855 188.323 119.778C188.323 121.7 189.889 123.266 191.811 123.266ZM191.811 127.965C196.368 127.965 199.999 124.263 199.999 119.778C199.999 115.221 196.297 111.59 191.811 111.59C187.326 111.59 183.624 115.292 183.624 119.778C183.624 124.263 187.326 127.965 191.811 127.965Z" fill="#20505A"/>
<path fill-rule="evenodd" clip-rule="evenodd" d="M258.879 123.266C260.801 123.266 262.368 121.7 262.368 119.778C262.368 117.855 260.801 116.289 258.879 116.289C256.957 116.289 255.39 117.855 255.39 119.778C255.39 121.7 256.957 123.266 258.879 123.266ZM258.879 127.965C263.436 127.965 267.067 124.263 267.067 119.778C267.067 115.221 263.365 111.59 258.879 111.59C254.394 111.59 250.691 115.292 250.691 119.778C250.691 124.263 254.394 127.965 258.879 127.965Z" fill="#20505A"/>
<path fill-rule="evenodd" clip-rule="evenodd" d="M241.65 73.8543C242.789 73.2847 244.213 73.8543 244.782 74.9935L245.85 77.343C246.42 78.4822 245.85 79.9061 244.711 80.4757C243.572 81.0453 242.148 80.4757 241.578 79.3365L240.51 76.987C239.941 75.7767 240.439 74.3527 241.65 73.8543Z" fill="#20505A"/>
<path fill-rule="evenodd" clip-rule="evenodd" d="M245.85 96.7792L250.834 109.452C251.119 110.164 251.831 111.09 252.401 111.588C253.255 112.158 254.109 112.3 255.106 111.731C256.245 110.876 255.889 108.456 255.035 106.533L253.967 104.113L245.85 84.2484L239.015 66.9473L235.456 68.7984L245.85 96.7792Z" fill="#65C7CF"/>
<path fill-rule="evenodd" clip-rule="evenodd" d="M235.456 68.799L231.184 57.1225C231.469 57.1225 229.689 57.0513 228.692 57.5497C228.122 57.8345 226.698 58.6177 226.485 58.4041C225.773 58.0481 225.203 57.5497 225.203 56.5529C225.203 55.6274 225.773 55.2002 226.556 55.0578L231.611 54.6306L231.397 53.705L227.553 53.9898L227.41 53.349L232.608 52.9219L233.106 54.9866C234.032 55.0578 234.815 55.4138 235.313 56.4818L239.015 66.8054L235.456 68.799Z" fill="#1A1A1A"/>
<path d="M206.548 61.6796C204.341 68.0162 203.273 74.424 203.416 80.9742C195.441 81.8286 189.034 85.8869 183.694 92.1523L189.461 102.12L208.542 87.4533C208.969 87.0973 209.396 86.6701 209.752 86.2429C210.749 84.8901 211.675 83.2526 212.458 81.4014C212.743 80.8319 213.027 80.2622 213.455 79.7639L214.38 78.5535L211.034 64.8835L207.26 60.2557L206.833 60.1133C206.833 60.7541 206.691 61.2525 206.548 61.6796Z" fill="#51B9BB"/>
<path d="M208.684 53.8477C208.826 53.2069 215.732 52.2813 217.583 53.8477C219.221 55.2717 222.14 62.7474 222.14 62.7474C223.778 66.3073 224.133 71.6472 223.635 76.7734C223.564 79.4789 223.208 82.1844 222.354 84.6763L220.004 103.544L219.078 109.097L209.182 108.1C209.324 99.8415 210.606 92.0809 213.596 85.0323C212.172 78.8381 210.891 72.9287 210.108 67.7313C210.036 67.3041 209.894 66.8057 209.68 66.3785L207.544 62.249C206.761 60.6827 206.548 58.8315 207.117 57.1228C207.402 55.9836 207.9 54.9157 208.684 53.8477Z" fill="#65C7CF"/>
<g opacity="0.96">
<path d="M244.139 85.96C243.997 86.0312 243.854 86.1024 243.712 86.2448L243.285 85.248L242.715 85.4616L243.499 87.4552C243.712 88.0248 244.353 88.2384 244.922 88.0248C245.492 87.8112 245.777 87.1704 245.563 86.6008C245.35 85.96 244.709 85.6752 244.139 85.96ZM244.709 87.4552C244.424 87.5264 244.139 87.4552 244.068 87.1704C243.997 86.8856 244.068 86.6008 244.353 86.5296C244.638 86.4584 244.922 86.5296 244.994 86.8144C245.136 87.028 244.994 87.3128 244.709 87.4552Z" fill="white"/>
<path d="M246.56 92.0117C245.991 92.2253 245.706 92.8661 245.991 93.4357L246.418 94.4325L246.987 94.2189L246.56 93.2221C246.489 93.0085 246.56 92.7237 246.845 92.5813C247.13 92.4389 247.343 92.5813 247.486 92.8661L247.913 93.8629L248.483 93.6493L248.055 92.6525C247.771 92.0118 247.13 91.7981 246.56 92.0117Z" fill="white"/>
<path d="M245.562 89.4453C245.42 89.5165 245.349 89.6589 245.42 89.8725L246.061 91.5812L246.702 91.2964L245.99 89.5877C245.918 89.5165 245.705 89.4453 245.562 89.4453Z" fill="white"/>
<path d="M245.35 89.3056C245.585 89.3056 245.777 89.1143 245.777 88.8784C245.777 88.6425 245.585 88.4512 245.35 88.4512C245.114 88.4512 244.922 88.6425 244.922 88.8784C244.922 89.1143 245.114 89.3056 245.35 89.3056Z" fill="white"/>
<path d="M240.152 76.1339C240.01 76.2051 239.868 76.2763 239.725 76.4187L239.298 75.4219L238.729 75.6355L239.512 77.629C239.725 78.1986 240.366 78.4122 240.936 78.1986C241.505 77.985 241.79 77.3442 241.576 76.7747C241.363 76.2051 240.722 75.9203 240.152 76.1339ZM240.793 77.629C240.508 77.7002 240.224 77.629 240.152 77.3442C240.081 77.0594 240.152 76.7746 240.437 76.7034C240.722 76.6322 241.007 76.7034 241.078 76.9882C241.149 77.273 241.007 77.5578 240.793 77.629Z" fill="white"/>
<path d="M242.644 82.1842C242.075 82.3978 241.79 83.0386 242.075 83.6082L242.502 84.6049L243.071 84.3913L242.644 83.3946C242.573 83.181 242.644 82.8962 242.929 82.7538C243.214 82.6114 243.427 82.7538 243.57 83.0386L243.997 84.0353L244.567 83.8217L244.139 82.825C243.783 82.2554 243.143 81.9706 242.644 82.1842Z" fill="white"/>
<path d="M241.578 79.692C241.435 79.7632 241.364 79.9056 241.435 80.1192L242.076 81.8279L242.717 81.5431L242.005 79.8344C241.934 79.692 241.72 79.6208 241.578 79.692Z" fill="white"/>
<path d="M241.363 79.5497C241.599 79.5497 241.79 79.3585 241.79 79.1225C241.79 78.8866 241.599 78.6953 241.363 78.6953C241.127 78.6953 240.936 78.8866 240.936 79.1225C240.936 79.3585 241.127 79.5497 241.363 79.5497Z" fill="white"/>
</g>
<path d="M215.306 108.672V113.229L218.937 111.662L218.51 111.093C218.368 110.808 218.225 110.523 218.296 110.238L218.368 109.028L215.306 108.672Z" fill="#FFD1C0"/>
<path d="M215.021 113.225C216.374 112.655 217.941 111.659 218.724 111.587C218.937 111.587 219.222 111.445 219.365 111.231C219.578 111.018 219.863 110.804 220.148 110.733C220.361 110.662 220.504 110.733 220.646 110.875C221.073 111.374 221.144 111.943 220.931 112.513L221.144 112.584L224.776 113.866C224.918 113.937 224.989 113.937 225.132 113.937C227.41 114.435 227.979 115.29 227.979 116.286C227.979 116.5 227.766 116.714 227.481 116.714L213.882 116.856L213.954 114.863C213.954 114.507 214.096 114.151 214.238 113.866C214.523 113.581 214.737 113.367 215.021 113.225Z" fill="#890051"/>
<path d="M221.927 112.869L221.073 114.507C220.93 114.72 221.001 115.005 221.286 115.147C221.429 115.219 221.571 115.147 221.642 115.005L222.639 113.083L221.927 112.869Z" fill="white"/>
<path d="M223.067 113.299L222.141 115.008C221.999 115.221 222.07 115.577 222.355 115.72C222.497 115.791 222.639 115.72 222.711 115.577L223.707 113.512L223.067 113.299Z" fill="white"/>
<path d="M185.473 95.2852C184.405 96.3531 182.625 97.0651 180.703 97.6347C181.628 98.7026 182.483 99.7706 183.622 100.198C184.69 99.557 185.829 98.5602 186.826 97.6347L185.473 95.2852Z" fill="#FFD1C0"/>
<path d="M180.49 97.3497C181.059 97.9904 181.629 98.6312 182.27 99.1296C183.053 99.6992 183.622 100.126 183.978 100.411C184.405 100.269 184.761 100.34 185.117 100.411C185.331 100.482 185.473 100.696 185.473 100.91C185.402 101.622 184.904 101.978 184.049 102.049L184.975 106.178C184.975 106.249 185.046 106.321 185.046 106.463C185.829 108.385 185.616 109.667 184.477 110.521C184.263 110.664 183.907 110.592 183.765 110.379L179.422 102.832L176.93 98.6312C176.787 98.4176 176.858 98.204 177.001 98.0616C177.784 97.3497 178.781 97.0649 179.92 97.1361C180.134 97.0649 180.347 97.1361 180.49 97.3497Z" fill="#9D005D"/>
<path d="M215.448 41.1031L217.371 44.5206C217.656 45.019 218.011 45.4462 218.439 45.8022L227.054 52.2812C227.908 52.922 228.549 53.8475 228.976 54.8443C229.118 55.1291 229.19 55.4851 229.19 55.7699C229.19 56.2683 229.047 56.6954 228.691 57.3362C228.264 58.0482 228.122 58.1906 226.84 57.8346C226.769 57.977 227.41 57.1939 227.623 56.6955C227.837 56.0547 227.481 54.9155 226.982 54.4883C225.986 53.6339 224.989 52.8508 223.921 52.2812C223.707 52.1388 223.423 52.0676 223.138 51.9964C221.429 51.6404 219.649 51.0708 217.869 50.2877C217.513 50.1453 217.228 49.9317 216.944 49.7181C215.092 47.9381 213.526 45.9446 211.746 43.2391L215.235 40.8184L215.448 41.1031Z" fill="#DAAC8C"/>
<path d="M215.447 41.104L217.512 45.0911C217.797 45.5895 218.153 46.0167 218.58 46.3727L227.195 52.8517C228.049 53.4925 228.69 54.418 229.188 55.486C229.331 55.7708 229.402 56.3404 229.402 56.6252C229.402 56.7675 229.402 56.8387 229.331 56.9811C229.188 57.6219 228.761 58.1203 228.192 58.3339C227.337 58.6899 226.341 58.6187 225.985 58.1203C226.412 58.3339 226.839 57.8355 227.053 57.4084C227.266 56.9812 227.409 56.554 227.409 56.0556C227.409 55.6284 227.409 55.2012 227.124 54.9876C225.985 54.2756 225.13 53.3501 224.062 52.7805C223.849 52.6381 223.564 52.5669 223.279 52.4957C221.57 52.1397 219.79 51.5701 218.01 50.787C217.654 50.6446 217.37 50.4309 217.156 50.2173C215.234 48.5086 213.383 46.0167 211.674 43.24L215.305 40.748L215.447 41.104Z" fill="#ECBC97"/>
<path d="M215.803 19.1758C215.803 19.1758 217.37 21.4541 216.871 23.0205C216.8 23.2341 216.729 23.4477 216.729 23.5901C216.515 24.5156 216.871 24.4444 217.37 24.9428C217.797 25.37 217.37 25.6548 217.085 25.7972C216.943 25.8684 216.8 26.082 216.871 26.2244C216.871 26.438 216.871 26.5804 216.871 26.6516C216.871 26.7228 217.156 27.2211 216.444 27.2211C215.732 27.2211 214.949 26.8651 214.878 26.8651C214.735 26.8651 216.231 27.2923 216.515 27.4347C216.515 27.4347 216.729 27.5771 216.658 27.7195C216.587 27.8619 216.373 28.0043 216.302 28.2179C216.231 28.4315 216.159 29.0011 216.017 29.2859C215.875 29.5707 214.308 29.8554 213.454 29.5706C212.813 29.3571 211.816 29.0723 211.46 29.0011C211.318 29.0011 211.104 28.6451 211.033 28.5027C210.891 28.3603 210.392 28.1467 209.965 27.8619C209.253 27.2923 209.894 27.0787 209.965 26.794C210.036 26.5092 210.179 25.8684 210.108 25.726C210.036 25.5124 209.396 24.7292 209.324 24.3732C209.182 23.8036 209.609 22.9493 209.823 22.6645C210.108 22.3797 210.677 22.2373 210.962 22.5221C211.247 22.7357 211.745 23.1629 211.959 22.8781C212.172 22.5933 213.81 20.1726 214.166 20.0302C214.522 19.8878 215.803 19.1758 215.803 19.1758Z" fill="#ECBC97"/>
<path d="M210.535 26.2934L210.25 27.4326C210.25 27.9309 209.966 27.9309 209.61 27.7885C207.474 26.6494 205.694 27.575 205.053 25.8662C204.982 25.7238 204.911 25.6526 204.768 25.5814C204.483 25.439 204.127 25.2255 204.056 24.7983C203.914 24.1575 203.985 23.3031 203.985 23.0183C204.056 21.452 204.555 20.028 206.192 18.2481C206.406 18.0345 207.474 17.1801 207.687 17.0377C208.898 16.3257 210.108 16.1121 211.461 16.2545C211.746 16.2545 212.03 16.3257 212.315 16.3969C214.095 16.8953 215.59 17.6073 215.875 19.1024C215.946 19.316 215.804 19.5296 215.662 19.6008C214.024 20.4552 212.956 21.6655 212.244 23.1607C212.173 23.3743 211.959 23.3743 211.817 23.3031L211.105 22.8047C210.606 22.5911 210.037 22.8759 209.895 23.3031V23.3743C209.539 24.1575 209.752 25.1543 210.393 25.7238C210.535 25.9374 210.606 26.0798 210.535 26.2934Z" fill="#42210B"/>
<path d="M213.382 33.2718C213.311 33.2718 213.026 33.343 212.457 33.4142C212.101 33.4854 211.816 33.4143 211.46 33.3431C210.677 33.2007 210.036 32.987 209.609 32.7734C208.043 33.4854 206.69 35.7637 205.764 39.8932C205.123 43.0971 206.476 47.8674 207.971 52.7801C208.826 54.1328 210.606 54.4176 212.884 54.204C215.234 53.9192 217.369 53.5632 217.654 52.5665L217.797 50.7153C215.874 49.3625 214.237 47.2266 212.67 44.8059L215.946 42.0292C216.729 43.3107 217.156 44.5211 217.583 44.9483L217.868 43.2395C217.868 43.0259 217.868 42.7411 217.725 42.5275L215.02 36.9029C214.949 36.6894 214.806 36.4757 214.735 36.2621C214.45 35.2654 213.952 34.1974 213.382 33.2718Z" fill="#1A1A1A"/>
<path fill-rule="evenodd" clip-rule="evenodd" d="M227.48 53.4911L228.192 53.4199L228.548 53.9895L227.48 54.1319L227.267 53.4911H227.48Z" fill="#1A1A1A"/>
<path d="M184.121 102.762L182.625 102.833C182.554 102.833 182.483 102.904 182.412 102.975C182.341 103.118 182.412 103.189 182.483 103.26C182.554 103.331 182.625 103.331 182.697 103.331L184.192 103.118L184.121 102.762Z" fill="white"/>
<path d="M184.335 103.543L182.911 103.614C182.839 103.614 182.768 103.685 182.697 103.757C182.626 103.899 182.697 103.97 182.768 104.041C182.839 104.113 182.911 104.113 182.982 104.113L184.477 103.899L184.335 103.543Z" fill="white"/>
<path d="M93.9136 118.425L95.1239 59.1172H96.4767V117.072V118.425H93.9136Z" fill="#686867"/>
<path d="M105.945 98.3479C105.945 98.3479 97.1878 107.461 85.0842 97.7783C72.9806 88.0954 81.8803 74.7102 83.7315 70.0823C85.5826 65.4545 89.6409 63.105 88.4305 55.3444C87.2201 47.5838 87.3625 44.9495 89.4985 39.1113C91.6344 33.2731 94.9095 22.2374 96.8319 23.0918C98.7542 23.9462 102.884 24.3022 103.168 31.4219C103.453 38.5417 102.884 40.6777 106.016 47.0855C109.149 53.4221 110.075 58.9755 109.149 64.3865C108.152 69.7976 108.437 71.2927 110.715 75.9918C112.994 80.6908 115.913 83.3251 112.994 90.0889C109.861 96.8527 105.945 98.3479 105.945 98.3479Z" fill="#E9CD03"/>
<path d="M104.735 119.565C104.593 119.707 101.318 120.419 99.4668 119.565C97.2597 118.497 99.4668 111.092 99.4668 111.092C99.4668 111.092 101.816 104.115 102.386 103.546C102.955 102.976 103.454 107.105 104.308 109.313C105.163 111.52 104.735 114.439 105.163 116.076C105.59 117.714 105.661 117.999 105.305 118.782C105.02 119.351 104.735 119.565 104.735 119.565Z" fill="#0B9D99"/>
<path d="M91.564 120.489C91.4216 120.631 88.1465 121.343 86.2954 120.489C84.0883 119.421 86.2954 112.016 86.2954 112.016C86.2954 112.016 88.6449 105.039 89.2145 104.469C89.7841 103.9 90.2825 108.029 91.1368 110.236C91.9912 112.444 91.564 115.363 91.9912 117C92.4184 118.638 92.4896 118.923 92.1336 119.706C91.92 120.347 91.564 120.489 91.564 120.489Z" fill="#0B9D99"/>
<path d="M106.587 119.565C106.729 119.707 110.004 120.419 111.855 119.565C114.062 118.497 111.855 111.092 111.855 111.092C111.855 111.092 109.506 104.115 108.936 103.546C108.367 102.976 107.868 107.105 107.014 109.313C106.159 111.52 106.587 114.439 106.159 116.076C105.732 117.714 105.661 117.999 106.017 118.782C106.231 119.351 106.587 119.565 106.587 119.565Z" fill="#0B9D99"/>
<path d="M118.618 119.208C118.547 119.35 115.842 119.92 114.275 119.208C112.424 118.353 114.275 112.23 114.275 112.23C114.275 112.23 116.198 106.392 116.696 105.965C117.123 105.538 117.622 108.884 118.262 110.735C118.974 112.586 118.618 115.007 118.974 116.36C119.33 117.713 119.33 117.997 119.117 118.567C118.903 118.994 118.618 119.208 118.618 119.208Z" fill="#0B9D99"/>
<path d="M83.0198 120.776C82.9486 120.919 80.2431 121.488 78.6767 120.776C76.8256 119.922 78.6767 113.799 78.6767 113.799C78.6767 113.799 80.5991 107.961 81.0975 107.533C81.5246 107.106 82.023 110.453 82.6638 112.304C83.3758 114.155 83.0198 116.576 83.3758 117.928C83.7318 119.281 83.7318 119.566 83.5182 120.135C83.3046 120.634 83.0198 120.776 83.0198 120.776Z" fill="#0B9D99"/>
<path d="M75.2598 123.338C75.1886 123.409 72.5543 124.05 71.0592 123.338C69.2792 122.484 71.0592 116.646 71.0592 116.646C71.0592 116.646 72.9103 111.092 73.3375 110.665C73.7647 110.238 74.1919 113.513 74.9038 115.293C75.5446 117.073 75.2598 119.351 75.5446 120.704C75.9006 121.985 75.9006 122.27 75.687 122.84C75.4734 123.196 75.2598 123.338 75.2598 123.338Z" fill="#0B9D99"/>
<path d="M156.853 48.6507C157.138 50.7154 165.966 61.8223 170.95 62.1783C171.021 62.1783 171.093 62.1783 171.235 62.1783C171.591 62.1783 171.947 62.0359 172.303 61.8935C174.083 60.7543 181.274 56.0552 183.766 53.2073L183.339 50.2882C179.565 51.5698 171.235 56.696 171.235 56.696C171.235 56.696 170.879 56.8384 170.737 56.6248C164.186 50.5018 161.196 48.2235 159.06 46.5859L156.853 48.6507Z" fill="#D7A887"/>
<path d="M144.393 122.698C144.749 123.623 144.108 127.041 144.037 128.109C144.749 129.106 146.529 128.322 146.743 127.254C146.743 127.112 146.885 127.112 146.885 126.827C146.671 126.186 147.099 123.695 147.597 122.342L144.393 122.698Z" fill="#F8AB90"/>
<path d="M155.428 124.193C155.713 125.119 154.859 127.397 154.788 128.536C155.428 129.604 157.28 128.892 157.564 127.824C157.564 127.682 157.707 127.682 157.707 127.397C157.422 126.685 158.063 124.692 158.703 123.41L155.428 124.193Z" fill="#F8AB90"/>
<path d="M155.286 71.0781H161.979C165.325 81.1882 166.322 92.6511 164.328 104.043C164.186 104.897 163.972 105.751 163.687 106.606L161.409 124.263C159.7 124.975 154.717 124.476 153.008 124.049C155.286 117.499 156.568 111.732 157.066 105.395C157.28 104.399 157.28 102.334 157.28 102.334C158.063 92.5086 155.785 73.57 155.286 71.0781Z" fill="#8BA943"/>
<path d="M149.875 124.121C147.597 124.762 144.464 123.694 142.684 122.982L147.027 103.331C147.098 102.975 147.098 102.548 147.098 102.192L145.532 78.6258C145.532 78.0562 145.532 77.4866 145.603 76.917C145.888 74.8523 146.386 71.862 147.241 70.8652H155.998C158.49 82.5417 158.063 92.5094 157.066 98.134C156.995 98.6324 156.496 104.115 155.927 105.681L149.875 124.121Z" fill="#8BA943"/>
<path d="M161.978 71.221L147.098 71.4346L147.027 70.7938L161.907 70.7227L161.978 71.221Z" fill="#778E30"/>
<path d="M150.801 32.1328L155.927 32.6312C154.432 34.9807 153.293 37.0455 155.002 38.683L150.089 38.2558C151.798 37.1166 151.513 34.3399 150.801 32.1328Z" fill="#ECBC97"/>
<path d="M155.928 22.4512C155.928 22.4512 157.85 24.8007 157.423 26.5095C157.352 26.7942 157.352 27.0079 157.28 27.1503C157.067 28.147 157.067 28.0758 158.135 28.5742C158.704 28.859 158.206 29.3574 157.921 29.571C157.779 29.7133 157.707 29.8558 157.707 30.0693C157.707 30.2829 157.779 30.4966 157.779 30.4966C157.779 30.5678 157.992 31.1373 157.423 31.1373C154.575 31.2085 156.924 31.1373 157.565 31.3509C157.565 31.3509 157.85 31.4933 157.779 31.6357C157.707 31.7781 157.494 31.9917 157.423 32.2053C157.352 32.4189 157.352 33.0597 157.209 33.3445C157.067 33.6293 155.429 34.1276 154.432 33.8428C153.649 33.6292 152.652 33.4157 152.225 33.3445C152.083 33.3445 151.798 32.9885 151.727 32.8461C151.513 32.7037 150.944 32.5613 150.517 32.2765C149.662 31.7069 150.374 31.4221 150.445 31.0661C150.517 30.7101 150.659 30.0694 150.517 29.8558C150.374 29.6422 149.662 28.7878 149.52 28.4318C149.306 27.8622 149.662 26.8654 149.947 26.5095C150.232 26.1535 150.801 26.0111 151.157 26.2959C151.442 26.5095 151.798 26.5095 151.94 26.2247C152.154 25.8687 154.005 23.448 154.361 23.2344C154.717 23.0208 155.928 22.4512 155.928 22.4512Z" fill="#ECBC97"/>
<path d="M157.707 23.9452C157.636 24.23 157.493 24.4436 157.351 24.6572C157.137 25.0132 156.781 25.298 156.354 25.4404C155.073 25.9388 154.005 26.4371 152.794 26.3659C152.296 26.2947 151.869 26.5795 151.655 27.0779C151.513 27.5051 151.228 27.7899 150.943 28.0747C150.445 28.5731 150.302 29.3563 150.516 29.9971C150.872 30.9226 152.296 34.2689 151.94 35.0521C152.723 41.6735 145.888 49.2916 139.907 44.1654C137.06 41.1039 142.613 35.9065 142.755 32.7026C142.542 28.6443 145.817 25.1556 146.173 24.3012C146.315 24.0164 146.458 23.8028 146.671 23.5893C147.526 22.7349 148.238 21.5957 148.95 21.0973C149.59 20.5989 150.302 20.3142 151.086 20.0294C152.296 19.6022 153.649 19.7446 154.788 20.4565C155.998 21.1685 157.066 22.1653 157.493 23.0197C157.778 23.3045 157.849 23.6604 157.707 23.9452Z" fill="#BC9D02"/>
<path d="M151.228 27.861C151.086 27.5762 150.872 27.3626 150.659 27.2914C150.588 27.2202 150.445 27.2914 150.374 27.2914C149.733 27.5762 149.591 28.0746 149.876 28.7154C149.876 28.7154 149.876 28.7153 149.876 28.7865C150.303 29.4273 150.588 29.5697 151.157 29.8545L151.228 27.861Z" fill="#ECBC97"/>
<path d="M144.037 126.115C145.105 126.613 146.173 126.613 147.312 125.973C147.383 125.973 147.455 125.973 147.455 126.044C148.095 127.183 148.736 128.678 149.733 129.533C150.801 130.245 152.083 130.743 153.506 131.17C153.649 131.241 153.862 131.313 154.076 131.241C154.788 131.241 155.286 131.313 155.785 131.597C155.856 131.597 155.927 131.668 155.998 131.668C156.283 131.811 156.426 132.167 156.497 132.594C156.497 132.879 156.354 133.092 156.141 133.235C155.002 133.876 153.506 134.16 151.727 134.16L148.451 133.733L143.254 133.306L142.684 133.092C142.613 133.021 142.542 132.95 142.542 132.879C142.542 132.024 142.684 131.099 143.04 130.173C143.112 129.889 143.325 129.533 143.468 129.248C143.895 128.465 144.037 127.468 143.966 126.329C143.895 126.115 143.966 126.044 144.037 126.115Z" fill="#F6921E"/>
<path d="M142.543 131.668C142.4 131.668 142.329 132.665 142.4 132.878C142.472 133.163 143.468 133.306 143.682 133.306C144.465 133.448 145.391 133.448 146.245 133.519L149.164 133.804C150.019 133.946 150.944 134.089 151.941 134.089C152.724 134.089 153.507 134.017 154.291 133.804C154.931 133.662 155.501 133.448 156.07 133.092C156.142 133.021 156.213 133.021 156.213 132.878C156.355 132.522 156.355 131.953 155.786 131.668C155.145 132.024 154.148 132.238 153.08 132.451C152.297 132.594 151.371 132.665 150.375 132.594C148.808 132.522 147.313 132.451 145.96 132.166C144.75 132.095 143.54 131.953 142.543 131.668Z" fill="#CD751D"/>
<path d="M153.862 131.168C153.791 131.666 153.791 132.022 154.005 132.307C154.788 132.165 155.429 131.951 155.998 131.666C155.429 131.31 154.717 131.097 153.862 131.168Z" fill="#F05A24"/>
<path d="M147.171 127.325C147.328 127.325 147.456 127.198 147.456 127.041C147.456 126.883 147.328 126.756 147.171 126.756C147.014 126.756 146.886 126.883 146.886 127.041C146.886 127.198 147.014 127.325 147.171 127.325Z" fill="#D7CCC2"/>
<path d="M147.669 128.322C147.826 128.322 147.953 128.194 147.953 128.037C147.953 127.879 147.826 127.752 147.669 127.752C147.511 127.752 147.384 127.879 147.384 128.037C147.384 128.194 147.511 128.322 147.669 128.322Z" fill="#D7CCC2"/>
<path d="M148.097 129.177C148.254 129.177 148.382 129.049 148.382 128.892C148.382 128.735 148.254 128.607 148.097 128.607C147.94 128.607 147.812 128.735 147.812 128.892C147.812 129.049 147.94 129.177 148.097 129.177Z" fill="#D7CCC2"/>
<path d="M148.809 130.031C148.966 130.031 149.094 129.903 149.094 129.746C149.094 129.588 148.966 129.461 148.809 129.461C148.652 129.461 148.524 129.588 148.524 129.746C148.524 129.903 148.652 130.031 148.809 130.031Z" fill="#D7CCC2"/>
<path d="M149.591 130.599C149.748 130.599 149.876 130.471 149.876 130.314C149.876 130.157 149.748 130.029 149.591 130.029C149.434 130.029 149.306 130.157 149.306 130.314C149.306 130.471 149.434 130.599 149.591 130.599Z" fill="#D7CCC2"/>
<path d="M150.705 131.031C150.825 130.93 150.841 130.75 150.74 130.63C150.639 130.509 150.459 130.493 150.339 130.594C150.218 130.695 150.202 130.875 150.304 130.996C150.405 131.116 150.584 131.132 150.705 131.031Z" fill="#D7CCC2"/>
<path d="M151.559 131.341C151.649 131.265 151.661 131.13 151.585 131.04C151.509 130.949 151.375 130.937 151.284 131.013C151.194 131.089 151.182 131.224 151.258 131.314C151.334 131.404 151.468 131.416 151.559 131.341Z" fill="#D7CCC2"/>
<path d="M152.689 131.563C152.747 131.46 152.711 131.33 152.608 131.272C152.506 131.214 152.375 131.25 152.317 131.353C152.259 131.456 152.296 131.586 152.398 131.644C152.501 131.702 152.631 131.666 152.689 131.563Z" fill="#D7CCC2"/>
<path d="M147.74 127.752C147.954 127.681 148.239 127.681 148.381 127.823C148.452 127.965 148.523 128.108 148.595 128.179C148.381 128.037 148.025 128.108 147.883 128.108C147.954 127.965 147.883 127.823 147.74 127.752Z" fill="#686461"/>
<path d="M148.168 128.607C148.382 128.536 148.667 128.394 148.88 128.465C148.952 128.536 149.023 128.607 149.094 128.75C148.809 128.678 148.453 128.821 148.382 128.892C148.382 128.749 148.311 128.678 148.168 128.607Z" fill="#686461"/>
<path d="M148.808 129.46C148.951 129.317 149.306 129.246 149.52 129.246C149.591 129.317 149.662 129.389 149.805 129.46C149.52 129.46 149.164 129.602 149.022 129.744C149.022 129.602 148.951 129.46 148.808 129.46Z" fill="#686461"/>
<path d="M149.662 130.029C149.804 129.887 150.018 129.815 150.302 129.744C150.374 129.815 150.516 129.815 150.658 129.958C150.374 130.029 150.089 130.243 149.946 130.314C149.875 130.243 149.804 130.1 149.662 130.029Z" fill="#686461"/>
<path d="M150.517 130.529C150.659 130.315 150.802 130.244 151.015 130.244C151.158 130.315 151.158 130.315 151.3 130.387C151.087 130.529 150.873 130.743 150.802 130.814C150.802 130.671 150.731 130.529 150.517 130.529Z" fill="#686461"/>
<path d="M151.442 130.956C151.584 130.742 151.798 130.671 151.94 130.6C152.083 130.671 152.154 130.671 152.296 130.742C152.083 130.884 151.869 131.098 151.727 131.169C151.655 131.098 151.584 130.956 151.442 130.956Z" fill="#686461"/>
<path d="M152.368 131.311C152.439 131.026 152.439 130.955 152.581 130.812C152.724 130.812 152.866 130.884 152.866 130.884C152.795 131.097 152.795 131.24 152.724 131.382C152.652 131.311 152.51 131.168 152.368 131.311Z" fill="#686461"/>
<path d="M147.242 126.755C147.456 126.683 147.669 126.683 147.812 126.755C147.883 126.897 147.954 127.039 148.025 127.111C147.741 127.039 147.598 126.968 147.456 127.039C147.456 126.968 147.385 126.826 147.242 126.755Z" fill="#686461"/>
<path d="M146.174 126.399C146.174 126.328 146.174 126.257 146.174 126.186C146.174 126.043 146.317 125.901 146.459 125.83C146.673 125.687 146.886 125.545 147.171 125.402C147.242 125.545 147.313 125.758 147.385 125.972C147.171 126.114 146.886 126.186 146.744 126.257C146.602 126.257 146.388 126.328 146.174 126.399Z" fill="#F05A24"/>
<path d="M154.789 126.613C155.857 127.111 156.925 127.111 158.064 126.471C158.135 126.471 158.207 126.471 158.207 126.542C158.847 127.681 159.488 129.176 160.485 130.031C161.553 130.743 162.834 131.241 164.258 131.668C164.401 131.739 164.614 131.811 164.828 131.739C165.54 131.739 166.038 131.811 166.537 132.095C166.608 132.095 166.679 132.167 166.75 132.167C167.035 132.309 167.178 132.665 167.249 133.092C167.249 133.377 167.106 133.59 166.893 133.733C165.754 134.374 164.258 134.658 162.478 134.658L159.203 134.231L154.006 133.804L153.436 133.59C153.365 133.519 153.294 133.448 153.294 133.377C153.294 132.523 153.436 131.597 153.792 130.671C153.864 130.387 154.077 130.031 154.22 129.746C154.647 128.963 154.789 127.966 154.718 126.827C154.718 126.613 154.789 126.613 154.789 126.613Z" fill="#F6921E"/>
<path d="M153.364 132.236C153.222 132.236 153.151 133.233 153.222 133.447C153.293 133.731 154.29 133.874 154.503 133.874C155.287 134.016 156.212 134.016 157.066 134.087L159.986 134.372C160.84 134.515 161.766 134.657 162.762 134.657C163.545 134.657 164.329 134.586 165.112 134.372C165.753 134.23 166.322 134.016 166.892 133.66C166.963 133.589 167.034 133.589 167.034 133.447C167.177 133.091 167.177 132.521 166.607 132.236C165.966 132.592 164.969 132.806 163.901 133.02C163.118 133.162 162.193 133.233 161.196 133.162C159.63 133.091 158.134 133.02 156.782 132.735C155.571 132.664 154.361 132.521 153.364 132.236Z" fill="#CD751D"/>
<path d="M164.612 131.738C164.541 132.237 164.541 132.593 164.755 132.877C165.538 132.735 166.179 132.521 166.748 132.237C166.179 131.809 165.538 131.667 164.612 131.738Z" fill="#F05A24"/>
<path d="M157.992 127.823C158.15 127.823 158.277 127.696 158.277 127.539C158.277 127.381 158.15 127.254 157.992 127.254C157.835 127.254 157.708 127.381 157.708 127.539C157.708 127.696 157.835 127.823 157.992 127.823Z" fill="#D7CCC2"/>
<path d="M158.42 128.82C158.577 128.82 158.704 128.692 158.704 128.535C158.704 128.377 158.577 128.25 158.42 128.25C158.262 128.25 158.135 128.377 158.135 128.535C158.135 128.692 158.262 128.82 158.42 128.82Z" fill="#D7CCC2"/>
<path d="M158.919 129.745C159.076 129.745 159.203 129.618 159.203 129.461C159.203 129.303 159.076 129.176 158.919 129.176C158.761 129.176 158.634 129.303 158.634 129.461C158.634 129.618 158.761 129.745 158.919 129.745Z" fill="#D7CCC2"/>
<path d="M159.558 130.529C159.716 130.529 159.843 130.401 159.843 130.244C159.843 130.087 159.716 129.959 159.558 129.959C159.401 129.959 159.273 130.087 159.273 130.244C159.273 130.401 159.401 130.529 159.558 130.529Z" fill="#D7CCC2"/>
<path d="M160.412 131.097C160.57 131.097 160.697 130.969 160.697 130.812C160.697 130.655 160.57 130.527 160.412 130.527C160.255 130.527 160.127 130.655 160.127 130.812C160.127 130.969 160.255 131.097 160.412 131.097Z" fill="#D7CCC2"/>
<path d="M161.506 131.529C161.627 131.428 161.643 131.248 161.542 131.128C161.441 131.007 161.261 130.991 161.141 131.092C161.02 131.193 161.004 131.373 161.105 131.494C161.206 131.614 161.386 131.63 161.506 131.529Z" fill="#D7CCC2"/>
<path d="M162.359 131.837C162.449 131.761 162.461 131.626 162.385 131.536C162.31 131.445 162.175 131.434 162.085 131.509C161.994 131.585 161.982 131.72 162.058 131.81C162.134 131.901 162.269 131.912 162.359 131.837Z" fill="#D7CCC2"/>
<path d="M163.544 132.1C163.602 131.997 163.566 131.867 163.463 131.809C163.36 131.751 163.23 131.787 163.172 131.89C163.114 131.993 163.15 132.123 163.253 132.181C163.356 132.239 163.486 132.203 163.544 132.1Z" fill="#D7CCC2"/>
<path d="M158.562 128.25C158.775 128.179 159.06 128.179 159.202 128.321C159.274 128.463 159.345 128.606 159.416 128.677C159.202 128.535 158.846 128.606 158.704 128.606C158.704 128.463 158.704 128.321 158.562 128.25Z" fill="#686461"/>
<path d="M158.99 129.175C159.203 129.104 159.488 128.962 159.702 129.033C159.773 129.104 159.844 129.175 159.915 129.318C159.631 129.247 159.275 129.389 159.203 129.46C159.203 129.318 159.132 129.175 158.99 129.175Z" fill="#686461"/>
<path d="M159.629 129.958C159.772 129.815 160.128 129.744 160.341 129.744C160.413 129.815 160.484 129.887 160.626 129.958C160.341 129.958 159.985 130.1 159.843 130.243C159.843 130.171 159.772 130.029 159.629 129.958Z" fill="#686461"/>
<path d="M160.414 130.599C160.556 130.457 160.77 130.386 161.054 130.314C161.126 130.386 161.268 130.386 161.41 130.528C161.126 130.599 160.841 130.813 160.698 130.884C160.698 130.742 160.627 130.599 160.414 130.599Z" fill="#686461"/>
<path d="M161.338 131.027C161.481 130.813 161.623 130.742 161.837 130.742C161.979 130.813 161.979 130.813 162.122 130.885C161.908 131.027 161.694 131.241 161.623 131.312C161.552 131.169 161.481 131.027 161.338 131.027Z" fill="#686461"/>
<path d="M162.263 131.454C162.405 131.24 162.619 131.169 162.761 131.098C162.903 131.169 162.975 131.169 163.117 131.24C162.903 131.382 162.69 131.596 162.547 131.667C162.476 131.596 162.405 131.454 162.263 131.454Z" fill="#686461"/>
<path d="M163.189 131.809C163.261 131.524 163.261 131.453 163.403 131.311C163.545 131.311 163.688 131.382 163.688 131.382C163.617 131.595 163.617 131.738 163.545 131.88C163.474 131.809 163.332 131.667 163.189 131.809Z" fill="#686461"/>
<path d="M158.063 127.253C158.277 127.181 158.491 127.181 158.633 127.253C158.704 127.395 158.775 127.537 158.847 127.609C158.562 127.537 158.419 127.466 158.277 127.537C158.277 127.466 158.206 127.324 158.063 127.253Z" fill="#686461"/>
<path d="M156.996 126.897C156.996 126.826 156.996 126.755 156.996 126.684C156.996 126.541 157.138 126.399 157.28 126.328C157.494 126.185 157.708 126.043 157.992 125.9C158.064 126.043 158.135 126.256 158.206 126.47C157.992 126.612 157.708 126.684 157.565 126.755C157.423 126.826 157.209 126.897 156.996 126.897Z" fill="#F05A24"/>
<path d="M156.497 49.2924C156.781 51.3571 165.61 62.464 170.594 62.8199C170.665 62.8199 170.736 62.8199 170.879 62.8199C171.235 62.8199 171.591 62.6776 171.947 62.5352C173.726 61.396 180.917 56.6969 183.409 53.849L181.914 51.1435C178.141 52.4251 170.807 57.4089 170.807 57.4089C170.807 57.4089 170.38 57.5513 170.309 57.3377C167.319 52.4251 162.976 49.7908 158.633 47.2988L156.497 49.2924Z" fill="#ECBC97"/>
<path d="M189.96 45.6621L186.685 50.8595C186.685 50.8595 187.041 51.5003 187.895 51.4291C188.678 51.3579 189.817 49.3644 189.888 49.0084C190.031 48.5812 189.817 48.2252 189.96 47.9404C190.102 47.6557 190.031 46.9437 190.031 46.9437C189.96 46.9437 190.672 45.9469 189.96 45.6621Z" fill="#D7A887"/>
<path d="M185.758 50.8597L187.467 43.9535C187.538 43.7399 187.681 43.5975 187.823 43.4551L190.315 42.0311C190.457 41.9599 190.671 41.96 190.742 42.1024C190.813 42.1736 190.813 42.3159 190.813 42.3871L189.033 49.6493L185.758 50.8597Z" fill="#1A2E35"/>
<path d="M188.963 50.2896C188.963 50.2896 189.035 50.2184 189.035 50.0048C189.035 49.7912 189.035 49.5064 188.963 49.1504C189.035 49.008 189.035 48.9368 189.035 48.7944C188.963 48.652 188.892 48.5096 188.75 48.4384H188.679V48.3672C188.821 48.1536 188.963 47.94 189.106 47.6552C189.177 47.584 189.177 47.5128 189.177 47.5128C189.177 47.4416 189.177 47.3705 189.177 47.2993C189.106 47.1569 189.035 47.0856 188.892 47.0144V46.9433L188.963 46.8721C189.106 46.7297 189.248 46.5873 189.391 46.4449C189.604 46.1601 189.889 45.9465 190.031 45.6617C190.103 45.5193 190.245 45.3769 190.245 45.2345C190.245 45.1633 190.316 45.0921 190.316 45.0209C190.316 44.9497 190.316 44.9497 190.245 44.9497C190.174 44.9497 190.103 44.9497 190.031 45.0209C189.96 45.0209 189.889 45.0921 189.818 45.0921C189.675 45.1633 189.533 45.2345 189.391 45.3057C189.106 45.4481 188.892 45.6617 188.75 45.7329C188.607 45.8753 188.465 45.9465 188.323 46.0177C188.251 46.0889 188.18 46.1601 188.18 46.0889C188.18 46.0889 188.251 46.0177 188.323 45.9465C188.394 45.8753 188.536 45.7329 188.679 45.5905C188.821 45.4481 189.035 45.3057 189.319 45.0921C189.462 45.0209 189.604 44.9497 189.747 44.8073C189.818 44.7361 189.889 44.7361 189.96 44.6649C190.031 44.6649 190.174 44.5938 190.245 44.5938C190.387 44.5938 190.459 44.7361 190.387 44.8073C190.387 44.8785 190.387 44.9497 190.316 45.0209C190.245 45.1633 190.174 45.3057 190.031 45.4481C189.818 45.7329 189.604 45.9465 189.391 46.2313C189.248 46.3737 189.106 46.5161 188.963 46.6585V46.5873C189.106 46.6585 189.248 46.8009 189.319 46.9433C189.319 47.0145 189.391 47.0857 189.319 47.2281C189.319 47.2993 189.248 47.3705 189.177 47.4417C189.035 47.6553 188.892 47.94 188.679 48.1536V48.0824C188.821 48.2248 188.963 48.296 188.963 48.5096C189.035 48.652 188.963 48.8656 188.892 48.9368C188.963 49.2928 188.963 49.6488 188.963 49.7912C189.035 50.1472 189.035 50.2184 188.963 50.2896Z" fill="#C89777"/>
<path d="M190.743 42.1035C190.743 42.1035 190.672 42.1747 190.529 42.2459C190.387 42.3171 190.173 42.4595 189.96 42.6019C189.675 42.7443 189.39 42.9579 189.105 43.1003C188.963 43.1715 188.749 43.3139 188.607 43.3851C188.393 43.4563 188.251 43.5987 188.109 43.7411C187.966 43.8835 187.895 44.097 187.824 44.3106C187.753 44.5242 187.753 44.7378 187.681 44.8802C187.61 45.2362 187.468 45.5922 187.397 45.877C187.325 46.1618 187.254 46.3754 187.183 46.5178C187.112 46.6602 187.112 46.7314 187.112 46.7314C187.112 46.7314 187.112 46.6602 187.183 46.4466C187.183 46.3042 187.254 46.0906 187.325 45.8058C187.397 45.521 187.468 45.165 187.539 44.809C187.61 44.5954 187.61 44.453 187.681 44.2395C187.753 44.0259 187.824 43.8122 187.966 43.5987C188.109 43.4563 188.322 43.3139 188.536 43.2427C188.749 43.1715 188.892 43.0291 189.034 42.9579C189.39 42.7443 189.675 42.6019 189.96 42.4595C190.245 42.3171 190.387 42.1747 190.601 42.1035C190.672 42.1747 190.743 42.1035 190.743 42.1035Z" fill="#375A64"/>
<path d="M189.105 44.4499C189.033 44.5923 189.033 44.7347 189.105 44.7347C189.176 44.7347 189.247 44.6635 189.318 44.5211C189.389 44.3787 189.389 44.2363 189.318 44.2363C189.247 44.2363 189.176 44.3075 189.105 44.4499Z" fill="white"/>
<path d="M182.982 50.575C183.551 50.2902 183.551 49.3647 183.836 48.7951C184.05 48.2967 184.334 47.7983 184.548 47.7271C184.904 47.5135 186.897 46.3032 186.897 46.3032L186.684 47.2288L188.606 45.876C188.82 45.7336 190.173 44.452 190.457 44.9504C190.6 45.3064 189.532 46.232 189.389 46.4456C189.033 46.9439 189.176 46.944 189.176 46.944C189.176 46.944 189.603 47.1575 189.389 47.5135C189.176 47.8695 188.82 48.2967 188.82 48.2967C188.82 48.2967 189.318 48.5103 189.033 49.1511C189.033 49.1511 189.176 49.5071 189.105 50.0055C189.033 50.2902 188.82 50.6462 188.535 50.931C188.25 51.287 187.894 51.5006 187.467 51.643C185.829 52.2126 184.405 52.8534 183.409 53.7077L181.914 51.0022L182.982 50.575Z" fill="#ECBC97"/>
<path d="M187.254 46.8008C187.254 46.8008 186.827 47.1568 186.258 47.4416C185.688 47.7976 185.261 48.0112 185.261 48.0112C185.261 48.0112 185.688 47.6551 186.258 47.3704C186.756 47.0144 187.254 46.8008 187.254 46.8008Z" fill="#C89777"/>
<path d="M189.033 46.8691C189.033 46.8691 188.677 47.2963 188.179 47.7947C187.681 48.2931 187.253 48.6491 187.253 48.6491C187.253 48.6491 187.609 48.2219 188.108 47.7235C188.606 47.2251 189.033 46.8691 189.033 46.8691Z" fill="#C89777"/>
<path d="M188.89 48.1543C188.89 48.1543 188.748 48.4391 188.463 48.7239C188.25 49.0087 187.965 49.2223 187.965 49.2223C187.965 49.2223 188.107 48.9375 188.392 48.6527C188.606 48.3679 188.89 48.1543 188.89 48.1543Z" fill="#C89777"/>
<path d="M163.83 70.7213H142.613C142.613 70.7213 143.396 52.6371 146.101 42.5982C146.457 41.1742 147.668 39.1094 148.736 38.1127C149.163 37.6855 149.661 37.3295 150.231 37.1159C150.587 36.9735 151.014 36.9023 151.441 36.9023L155.072 37.1871C155.5 37.1871 155.856 37.4719 155.998 37.8279L159.629 46.0157C159.843 46.514 160.127 46.9412 160.555 47.2972L165.894 52.0675L162.406 56.3393L161.979 56.8377" fill="#131851"/>
<path d="M160.982 56.5535C155.144 51.9256 154.859 51 154.432 49.4337C154.29 48.9353 154.076 48.2945 153.649 47.4401L154.147 47.2266C154.574 48.1521 154.788 48.7217 154.93 49.2913C155.358 50.7864 155.642 51.5696 161.338 56.1263L160.982 56.5535Z" fill="black"/>
</svg>
