<svg width="343" height="203" viewBox="0 0 343 203" fill="none" xmlns="http://www.w3.org/2000/svg">
<path d="M171.5 170.951C257.104 170.951 326.5 165.571 326.5 158.935C326.5 152.299 257.104 146.92 171.5 146.92C85.8959 146.92 16.5 152.299 16.5 158.935C16.5 165.571 85.8959 170.951 171.5 170.951Z" fill="#D6D6D6"/>
<path d="M263.545 159.715H196.863V162.199H263.545V159.715Z" fill="#F2F2F2"/>
<path fill-rule="evenodd" clip-rule="evenodd" d="M258.822 153.564L263.854 159.488C264.49 159.424 264.936 159.169 265.191 158.66L260.35 152.736L258.822 153.564Z" fill="#20505A"/>
<path fill-rule="evenodd" clip-rule="evenodd" d="M274.11 127.195C275.702 128.087 276.275 130.061 275.384 131.717L263.792 152.354C263.219 153.373 262.073 154.074 260.926 154.074H205.964C204.18 154.074 202.652 152.545 202.652 150.762C202.652 148.978 204.18 147.45 205.964 147.45H258.952L269.524 128.469C270.543 126.94 272.518 126.431 274.11 127.195Z" fill="#3DBCC8"/>
<path fill-rule="evenodd" clip-rule="evenodd" d="M190.488 156.558C193.163 156.558 195.455 154.392 195.455 151.59C195.455 148.787 193.29 146.621 190.488 146.621C187.813 146.621 185.52 148.787 185.52 151.59C185.52 154.392 187.813 156.558 190.488 156.558ZM190.488 163.118C196.857 163.118 202.079 157.959 202.079 151.526C202.079 145.093 196.92 139.934 190.488 139.934C184.119 139.934 178.896 145.093 178.896 151.526C178.896 157.959 184.119 163.118 190.488 163.118Z" fill="#20505A"/>
<path fill-rule="evenodd" clip-rule="evenodd" d="M284.873 156.558C287.548 156.558 289.841 154.392 289.841 151.59C289.841 148.787 287.676 146.621 284.873 146.621C282.071 146.621 279.906 148.787 279.906 151.59C279.906 154.392 282.199 156.558 284.873 156.558ZM284.873 163.118C291.242 163.118 296.465 157.959 296.465 151.526C296.465 145.093 291.306 139.934 284.873 139.934C278.441 139.934 273.282 145.093 273.282 151.526C273.346 157.959 278.505 163.118 284.873 163.118Z" fill="#20505A"/>
<path fill-rule="evenodd" clip-rule="evenodd" d="M260.672 86.8769C262.391 86.0488 264.239 86.8769 265.067 88.4692L266.659 91.845C267.487 93.5647 266.659 95.4118 265.067 96.2399C263.347 97.0679 261.5 96.2399 260.672 94.6475L259.079 91.2717C258.251 89.6794 258.952 87.7049 260.672 86.8769Z" fill="#20505A"/>
<path fill-rule="evenodd" clip-rule="evenodd" d="M266.531 119.234L273.536 137.004C273.919 138.023 274.938 139.425 275.702 139.998C276.912 140.826 278.122 141.017 279.523 140.189C281.115 138.979 280.606 135.603 279.396 132.928L277.867 129.552L266.467 101.718L256.787 77.3867L251.819 79.9982L266.531 119.234Z" fill="#65C8D0"/>
<path fill-rule="evenodd" clip-rule="evenodd" d="M258.569 78.6607C258.187 78.5333 257.486 78.7881 257.486 78.7881L259.142 83.0556L259.779 82.8008C259.779 82.8645 259.716 79.0428 258.569 78.6607Z" fill="#1A1A1A"/>
<path fill-rule="evenodd" clip-rule="evenodd" d="M251.882 79.9343L245.895 63.5649C246.277 63.5649 243.793 63.4375 242.329 64.1382C241.501 64.5203 239.526 65.6668 239.208 65.3484C238.125 64.8388 237.425 64.1382 237.297 62.7369C237.297 61.463 238.125 60.8261 239.208 60.635L246.277 60.0618L245.959 58.7879L240.546 59.1701L240.354 58.2783L247.742 57.7051L248.443 60.6987C249.717 60.8261 250.863 61.2719 251.627 62.8006L256.786 77.3865L251.882 79.9343Z" fill="#1A1A1A"/>
<g opacity="0.96">
<path d="M265.066 104.966C264.875 105.094 264.684 105.157 264.493 105.349L263.919 103.947L263.091 104.266L264.174 107.068C264.493 107.896 265.384 108.151 266.149 107.896C266.977 107.578 267.359 106.686 267.04 105.922C266.722 105.03 265.83 104.648 265.066 104.966ZM265.958 107.068C265.575 107.196 265.13 107.068 265.066 106.686C264.938 106.304 265.066 105.858 265.448 105.794C265.83 105.667 266.276 105.794 266.34 106.177C266.467 106.559 266.212 106.941 265.958 107.068Z" fill="white"/>
<path d="M268.505 113.566C267.677 113.884 267.295 114.776 267.677 115.54L268.25 117.069L269.078 116.75L268.505 115.222C268.378 114.903 268.505 114.521 268.887 114.33C269.206 114.203 269.588 114.33 269.779 114.712L270.352 116.241L271.18 115.922L270.607 114.394C270.225 113.629 269.333 113.247 268.505 113.566Z" fill="white"/>
<path d="M267.039 109.935C266.848 110.062 266.721 110.253 266.848 110.508L267.74 112.928L268.632 112.546L267.613 110.126C267.549 110.062 267.358 109.871 267.039 109.935Z" fill="white"/>
<path d="M266.72 109.744C267.037 109.744 267.293 109.488 267.293 109.171C267.293 108.854 267.037 108.598 266.72 108.598C266.404 108.598 266.147 108.854 266.147 109.171C266.147 109.488 266.404 109.744 266.72 109.744Z" fill="white"/>
<path d="M259.461 91.2086C259.27 91.3359 259.079 91.3996 258.888 91.5907L258.314 90.1895L257.486 90.5079L258.569 93.3105C258.888 94.1385 259.779 94.3933 260.544 94.1385C261.372 93.82 261.754 92.9283 261.435 92.164C261.181 91.2723 260.225 90.8901 259.461 91.2086ZM260.225 93.3105C259.843 93.4378 259.397 93.3105 259.334 92.9283C259.206 92.5461 259.333 92.1003 259.716 92.0366C260.098 91.9729 260.544 92.0366 260.607 92.4187C260.862 92.8009 260.671 93.1831 260.225 93.3105Z" fill="white"/>
<path d="M262.963 99.7433C262.135 100.062 261.753 100.953 262.135 101.718L262.708 103.246L263.536 102.928L262.963 101.399C262.836 101.081 262.963 100.699 263.345 100.508C263.727 100.317 264.046 100.508 264.237 100.89L264.81 102.418L265.638 102.1L265.065 100.571C264.555 99.8707 263.727 99.4885 262.963 99.7433Z" fill="white"/>
<path d="M261.436 96.1777C261.245 96.3051 261.118 96.4962 261.245 96.751L262.137 99.1714L263.028 98.7892L262.009 96.3688C261.946 96.3051 261.627 96.1777 261.436 96.1777Z" fill="white"/>
<path d="M261.181 95.9219C261.498 95.9219 261.754 95.6652 261.754 95.3486C261.754 95.032 261.498 94.7754 261.181 94.7754C260.864 94.7754 260.608 95.032 260.608 95.3486C260.608 95.6652 260.864 95.9219 261.181 95.9219Z" fill="white"/>
</g>
<path d="M215.896 64.203C215.896 66.6234 224.494 80.8272 230.226 81.9737C230.29 81.9737 230.417 82.0374 230.544 82.1011C230.99 82.1647 231.436 82.101 231.818 81.8463C234.238 80.9545 239.715 69.3622 241.499 65.668L240.161 64.7763C238.633 66.6871 233.092 75.4132 231.245 74.8399C231.245 74.8399 230.799 74.9036 230.672 74.7125C223.985 66.5597 220.991 64.3304 218.698 62.2285L215.896 64.203Z" fill="#D8A988"/>
<path d="M217.042 154.329C217.424 155.475 216.66 159.743 216.66 161.208C217.552 162.418 219.845 161.463 220.1 160.189C220.1 160.061 220.227 159.998 220.227 159.679C219.972 158.851 220.482 155.794 221.182 154.074L217.042 154.329Z" fill="#F9AC91"/>
<path d="M245.256 150.507C245.83 151.59 245.511 154.584 245.702 155.985C246.785 157.068 248.887 155.666 248.823 154.329C248.887 154.202 248.887 154.074 248.887 153.819C248.377 153.055 248.505 150.38 249.014 148.66L245.256 150.507Z" fill="#F9AC91"/>
<path d="M221.054 88.0877L236.085 85.2852C244.619 95.6036 247.803 108.024 250.605 122.228C250.796 123.31 250.924 124.457 250.988 125.54L252.389 147.578C250.733 149.17 244.619 150.89 242.453 151.145C242.135 142.546 241.052 135.094 238.823 127.451C238.632 126.177 237.677 123.756 237.677 123.756C233.983 111.973 222.774 90.7628 221.054 88.0877Z" fill="#131851"/>
<path d="M223.857 156.114C220.991 156.942 216.978 155.541 214.813 154.649L220.29 129.936C220.354 129.426 220.354 128.981 220.354 128.471L218.38 98.8534C218.316 98.1527 218.379 97.3884 218.443 96.7515C218.762 94.14 219.462 90.4458 220.481 89.1719H231.499C234.684 103.821 234.111 116.369 232.901 123.439C232.773 124.076 232.2 130.891 231.436 132.93L223.857 156.114Z" fill="#131851"/>
<path d="M236.467 85.7947L219.207 92.9921L218.761 92.2915L236.148 85.2852L236.467 85.7947Z" fill="#0E0E38"/>
<path d="M218.953 47.5801L225.386 48.217C223.539 51.1469 222.074 53.7584 224.239 55.7966L218.061 55.2234C220.163 53.8221 219.908 50.3189 218.953 47.5801Z" fill="#EDBD98"/>
<path d="M225.385 35.4141C225.385 35.4141 227.869 38.4077 227.296 40.5733C227.232 40.8918 227.169 41.2102 227.105 41.4013C226.85 42.6115 226.85 42.5478 228.124 43.1847C228.825 43.5032 228.188 44.1401 227.869 44.3949C227.678 44.5223 227.551 44.7771 227.615 45.0319C227.615 45.2866 227.678 45.6051 227.678 45.6051C227.678 45.6688 227.933 46.4331 227.169 46.4331C223.602 46.4968 226.532 46.4331 227.36 46.6879C227.36 46.6879 227.678 46.879 227.615 47.0064C227.551 47.1975 227.296 47.3885 227.232 47.707C227.169 47.9618 227.105 48.7898 226.978 49.172C226.85 49.5541 224.685 50.1274 223.475 49.8089C222.52 49.6178 221.182 49.2357 220.672 49.172C220.481 49.172 220.163 48.6624 220.036 48.535C219.781 48.344 219.08 48.1529 218.507 47.7707C217.424 47.0701 218.38 46.7516 218.443 46.242C218.507 45.8599 218.634 45.0319 218.507 44.7134C218.38 44.5223 217.488 43.4395 217.297 42.93C217.042 42.1656 217.488 40.9554 217.87 40.5096C218.189 40.1274 218.953 39.809 219.462 40.2548C219.845 40.5096 220.29 40.5096 220.482 40.1911C220.673 39.8089 223.093 36.7516 223.538 36.4969C223.793 36.3058 225.385 35.4141 225.385 35.4141Z" fill="#EDBD98"/>
<path d="M227.678 37.1968C227.551 37.5153 227.423 37.8337 227.169 38.0885C226.914 38.5981 226.404 38.9165 225.958 39.1076C224.366 39.8082 222.965 40.3815 221.5 40.2541C220.863 40.1904 220.354 40.5089 220.099 41.1458C219.908 41.7191 219.526 42.0375 219.208 42.4197C218.571 43.0566 218.38 44.012 218.698 44.9037C219.08 46.0502 218.698 46.7509 218.188 47.77C217.934 48.0884 217.552 48.1522 217.106 47.9611C215.004 46.8783 213.667 44.5853 213.221 41.9101C212.456 39.4898 212.839 38.8528 213.284 37.7063C213.412 37.3879 213.667 37.0694 213.921 36.8146C214.94 35.7318 215.832 34.3306 216.787 33.6299C217.615 33.0567 218.443 32.6745 219.462 32.356C221.054 31.7828 222.774 32.0376 224.111 32.8656C225.64 33.7573 226.977 34.9675 227.551 36.0503C227.805 36.4324 227.805 36.8783 227.678 37.1968Z" fill="#42210B"/>
<path d="M216.532 158.661C217.933 159.298 219.271 159.298 220.672 158.47C220.736 158.406 220.799 158.47 220.863 158.533C221.627 159.998 222.455 161.846 223.729 162.928C225.003 163.82 226.659 164.521 228.442 164.967C228.633 165.03 228.952 165.094 229.143 165.094C230.034 165.094 230.735 165.221 231.244 165.476C231.308 165.54 231.435 165.54 231.499 165.603C231.881 165.795 232.072 166.24 232.136 166.686C232.136 167.005 232.009 167.323 231.754 167.451C230.289 168.279 228.442 168.661 226.213 168.597L222.01 168.024L215.513 167.451L214.749 167.196C214.622 167.132 214.558 167.068 214.558 166.877C214.558 165.795 214.749 164.712 215.195 163.438C215.322 163.119 215.577 162.61 215.768 162.291C216.341 161.336 216.469 159.998 216.469 158.597C216.341 158.661 216.469 158.597 216.532 158.661Z" fill="#F7931E"/>
<path d="M214.685 165.668C214.558 165.668 214.431 166.878 214.558 167.197C214.686 167.515 215.959 167.706 216.15 167.77C217.169 167.897 218.252 167.961 219.462 168.025L223.156 168.407C224.175 168.534 225.449 168.725 226.659 168.725C227.678 168.725 228.633 168.662 229.588 168.407C230.353 168.279 231.117 167.897 231.881 167.451C231.945 167.388 232.009 167.324 232.072 167.26C232.263 166.878 232.2 166.114 231.563 165.668C230.735 166.05 229.525 166.432 228.124 166.623C227.105 166.814 225.958 166.814 224.684 166.814C222.71 166.751 220.8 166.623 219.144 166.305C217.488 166.178 215.896 165.986 214.685 165.668Z" fill="#CE751D"/>
<path d="M228.824 165.031C228.697 165.668 228.76 166.114 229.015 166.496C229.97 166.369 230.798 166.114 231.499 165.668C230.862 165.159 229.97 164.968 228.824 165.031Z" fill="#F15A24"/>
<path d="M220.481 160.127C220.656 160.127 220.799 159.985 220.799 159.809C220.799 159.633 220.656 159.49 220.481 159.49C220.305 159.49 220.162 159.633 220.162 159.809C220.162 159.985 220.305 160.127 220.481 160.127Z" fill="#D8CDC3"/>
<path d="M221.054 161.401C221.23 161.401 221.372 161.258 221.372 161.082C221.372 160.906 221.23 160.764 221.054 160.764C220.878 160.764 220.735 160.906 220.735 161.082C220.735 161.258 220.878 161.401 221.054 161.401Z" fill="#D8CDC3"/>
<path d="M221.627 162.483C221.803 162.483 221.946 162.34 221.946 162.164C221.946 161.988 221.803 161.846 221.627 161.846C221.451 161.846 221.309 161.988 221.309 162.164C221.309 162.34 221.451 162.483 221.627 162.483Z" fill="#D8CDC3"/>
<path d="M222.455 163.565C222.631 163.565 222.774 163.422 222.774 163.246C222.774 163.07 222.631 162.928 222.455 162.928C222.279 162.928 222.137 163.07 222.137 163.246C222.137 163.422 222.279 163.565 222.455 163.565Z" fill="#D8CDC3"/>
<path d="M223.538 164.266C223.714 164.266 223.856 164.123 223.856 163.947C223.856 163.771 223.714 163.629 223.538 163.629C223.362 163.629 223.219 163.771 223.219 163.947C223.219 164.123 223.362 164.266 223.538 164.266Z" fill="#D8CDC3"/>
<path d="M224.749 164.84C224.925 164.84 225.067 164.697 225.067 164.522C225.067 164.346 224.925 164.203 224.749 164.203C224.573 164.203 224.43 164.346 224.43 164.522C224.43 164.697 224.573 164.84 224.749 164.84Z" fill="#D8CDC3"/>
<path d="M226.009 165.27C226.117 165.179 226.131 165.019 226.041 164.911C225.95 164.803 225.789 164.789 225.682 164.879C225.574 164.97 225.56 165.13 225.65 165.238C225.74 165.346 225.901 165.36 226.009 165.27Z" fill="#D8CDC3"/>
<path d="M227.506 165.472C227.575 165.35 227.532 165.194 227.409 165.125C227.287 165.056 227.131 165.099 227.062 165.222C226.993 165.344 227.036 165.499 227.159 165.569C227.281 165.638 227.437 165.595 227.506 165.472Z" fill="#D8CDC3"/>
<path d="M221.181 160.7C221.436 160.637 221.818 160.573 222.009 160.764C222.073 160.892 222.2 161.083 222.264 161.274C222.009 161.146 221.5 161.146 221.309 161.21C221.436 160.955 221.372 160.764 221.181 160.7Z" fill="#686461"/>
<path d="M221.691 161.781C221.882 161.654 222.392 161.59 222.646 161.654C222.71 161.781 222.837 161.845 222.901 161.972C222.583 161.909 222.137 162.036 221.946 162.1C222.009 162.036 221.946 161.845 221.691 161.781Z" fill="#686461"/>
<path d="M222.519 162.929C222.71 162.801 223.155 162.674 223.41 162.674C223.538 162.801 223.601 162.865 223.729 162.992C223.41 162.992 222.901 163.183 222.773 163.311C222.837 163.12 222.773 162.929 222.519 162.929Z" fill="#686461"/>
<path d="M223.538 163.565C223.665 163.373 224.047 163.246 224.302 163.246C224.429 163.31 224.557 163.374 224.684 163.437C224.366 163.501 223.92 163.756 223.792 163.947C223.856 163.883 223.856 163.628 223.538 163.565Z" fill="#686461"/>
<path d="M224.684 164.202C224.875 164.011 225.066 163.884 225.321 163.82C225.448 163.884 225.512 163.948 225.703 164.011C225.448 164.139 225.193 164.394 225.066 164.585C225.002 164.33 224.938 164.202 224.684 164.202Z" fill="#686461"/>
<path d="M225.831 164.775C226.022 164.584 226.213 164.393 226.468 164.266C226.595 164.329 226.659 164.329 226.85 164.393C226.595 164.52 226.277 164.903 226.15 164.966C226.15 164.903 226.022 164.775 225.831 164.775Z" fill="#686461"/>
<path d="M226.976 165.158C227.04 164.84 227.103 164.776 227.167 164.521C227.295 164.521 227.486 164.649 227.486 164.649C227.358 164.904 227.422 165.031 227.358 165.286C227.358 165.158 227.231 165.031 226.976 165.158Z" fill="#686461"/>
<path d="M220.608 159.49C220.863 159.426 221.117 159.362 221.372 159.49C221.5 159.617 221.563 159.808 221.563 159.999C221.245 159.872 220.99 159.872 220.799 159.935C220.799 159.681 220.735 159.553 220.608 159.49Z" fill="#686461"/>
<path d="M219.271 158.98C219.271 158.916 219.271 158.789 219.271 158.725C219.335 158.534 219.398 158.406 219.589 158.343C219.844 158.152 220.163 158.024 220.481 157.77C220.609 157.961 220.672 158.152 220.672 158.47C220.417 158.598 220.099 158.725 219.908 158.789C219.717 158.852 219.526 158.916 219.271 158.98Z" fill="#F15A24"/>
<path d="M245.257 153.694C246.721 154.013 248.059 153.694 249.205 152.548C249.269 152.484 249.333 152.548 249.396 152.548C250.479 153.758 251.689 155.414 253.218 156.178C254.682 156.752 256.466 157.07 258.313 157.134C258.504 157.134 258.822 157.134 259.013 157.134C259.905 156.943 260.605 156.879 261.179 157.07C261.242 157.134 261.37 157.07 261.497 157.134C261.943 157.261 262.198 157.58 262.325 158.089C262.389 158.408 262.325 158.726 262.07 158.917C260.86 160.064 259.141 160.892 256.912 161.338L252.708 161.783L246.212 162.739L245.384 162.611C245.257 162.548 245.129 162.548 245.129 162.293C244.875 161.21 244.811 160.127 244.938 158.79C245.002 158.408 245.129 157.898 245.193 157.516C245.511 156.433 245.32 155.159 245.002 153.758C245.129 153.694 245.129 153.631 245.257 153.694Z" fill="#F7931E"/>
<path d="M245.002 160.892C244.875 160.892 245.002 162.166 245.193 162.421C245.384 162.739 246.658 162.548 246.849 162.612C247.868 162.484 248.951 162.357 250.098 162.102L253.791 161.656C254.81 161.529 256.084 161.465 257.294 161.21C258.313 160.956 259.205 160.701 260.097 160.191C260.797 159.873 261.434 159.363 262.071 158.726C262.134 158.663 262.198 158.535 262.198 158.472C262.326 158.026 262.071 157.325 261.37 157.07C260.67 157.644 259.523 158.28 258.249 158.79C257.294 159.236 256.148 159.491 254.938 159.745C252.963 160.128 251.116 160.446 249.397 160.51C247.868 160.765 246.276 160.956 245.002 160.892Z" fill="#CE751D"/>
<path d="M258.694 157.069C258.694 157.706 258.885 158.152 259.204 158.406C260.095 158.024 260.86 157.578 261.433 157.069C260.669 156.75 259.777 156.75 258.694 157.069Z" fill="#F15A24"/>
<path d="M249.397 154.203C249.573 154.203 249.716 154.061 249.716 153.885C249.716 153.709 249.573 153.566 249.397 153.566C249.221 153.566 249.079 153.709 249.079 153.885C249.079 154.061 249.221 154.203 249.397 154.203Z" fill="#D8CDC3"/>
<path d="M250.225 155.287C250.401 155.287 250.543 155.145 250.543 154.969C250.543 154.793 250.401 154.65 250.225 154.65C250.049 154.65 249.906 154.793 249.906 154.969C249.906 155.145 250.049 155.287 250.225 155.287Z" fill="#D8CDC3"/>
<path d="M251.052 156.242C251.228 156.242 251.37 156.1 251.37 155.924C251.37 155.748 251.228 155.605 251.052 155.605C250.876 155.605 250.733 155.748 250.733 155.924C250.733 156.1 250.876 156.242 251.052 156.242Z" fill="#D8CDC3"/>
<path d="M252.071 157.006C252.247 157.006 252.39 156.863 252.39 156.688C252.39 156.512 252.247 156.369 252.071 156.369C251.896 156.369 251.753 156.512 251.753 156.688C251.753 156.863 251.896 157.006 252.071 157.006Z" fill="#D8CDC3"/>
<path d="M253.281 157.516C253.457 157.516 253.6 157.373 253.6 157.197C253.6 157.021 253.457 156.879 253.281 156.879C253.105 156.879 252.963 157.021 252.963 157.197C252.963 157.373 253.105 157.516 253.281 157.516Z" fill="#D8CDC3"/>
<path d="M254.555 157.77C254.731 157.77 254.874 157.627 254.874 157.451C254.874 157.275 254.731 157.133 254.555 157.133C254.379 157.133 254.237 157.275 254.237 157.451C254.237 157.627 254.379 157.77 254.555 157.77Z" fill="#D8CDC3"/>
<path d="M256.101 157.964C256.185 157.851 256.163 157.692 256.05 157.607C255.938 157.522 255.778 157.545 255.694 157.658C255.609 157.77 255.632 157.93 255.744 158.014C255.857 158.099 256.016 158.076 256.101 157.964Z" fill="#D8CDC3"/>
<path d="M257.411 157.828C257.451 157.693 257.373 157.552 257.238 157.512C257.103 157.473 256.962 157.55 256.922 157.685C256.883 157.82 256.96 157.962 257.095 158.001C257.23 158.041 257.372 157.963 257.411 157.828Z" fill="#D8CDC3"/>
<path d="M250.225 154.586C250.479 154.459 250.798 154.332 251.053 154.459C251.18 154.586 251.307 154.778 251.435 154.841C251.116 154.778 250.67 154.905 250.479 154.969C250.543 154.777 250.479 154.65 250.225 154.586Z" fill="#686461"/>
<path d="M251.052 155.54C251.243 155.349 251.689 155.158 251.943 155.158C252.071 155.286 252.198 155.286 252.262 155.413C251.943 155.413 251.561 155.668 251.37 155.795C251.37 155.668 251.243 155.54 251.052 155.54Z" fill="#686461"/>
<path d="M252.072 156.37C252.263 156.179 252.581 155.988 252.9 155.924C253.091 156.051 253.155 156.051 253.282 156.179C252.964 156.242 252.518 156.561 252.454 156.752C252.454 156.497 252.263 156.306 252.072 156.37Z" fill="#686461"/>
<path d="M253.218 156.879C253.281 156.624 253.6 156.433 253.855 156.369C253.982 156.433 254.173 156.433 254.301 156.497C253.982 156.624 253.664 157.006 253.536 157.197C253.536 157.006 253.473 156.815 253.218 156.879Z" fill="#686461"/>
<path d="M254.428 157.133C254.555 156.878 254.746 156.687 254.937 156.623C255.065 156.687 255.192 156.687 255.383 156.75C255.128 156.942 255.001 157.26 254.937 157.451C254.81 157.26 254.683 157.069 254.428 157.133Z" fill="#686461"/>
<path d="M255.702 157.451C255.829 157.197 256.02 156.942 256.211 156.814C256.339 156.878 256.402 156.814 256.657 156.878C256.402 157.069 256.211 157.451 256.084 157.579C256.084 157.515 255.893 157.388 255.702 157.451Z" fill="#686461"/>
<path d="M256.913 157.578C256.913 157.26 256.976 157.132 256.976 156.941C257.104 156.941 257.358 157.005 257.358 157.005C257.295 157.324 257.358 157.451 257.358 157.642C257.295 157.578 257.104 157.387 256.913 157.578Z" fill="#686461"/>
<path d="M249.46 153.503C249.715 153.376 249.906 153.248 250.225 153.312C250.416 153.439 250.48 153.63 250.543 153.758C250.161 153.694 249.97 153.758 249.779 153.885C249.652 153.694 249.588 153.567 249.46 153.503Z" fill="#686461"/>
<path d="M247.995 153.312C247.995 153.248 247.931 153.121 247.931 153.057C247.931 152.866 247.995 152.675 248.186 152.548C248.377 152.293 248.632 152.102 248.95 151.783C249.141 151.974 249.269 152.165 249.332 152.42C249.078 152.611 248.887 152.802 248.695 152.93C248.441 153.121 248.25 153.248 247.995 153.312Z" fill="#F15A24"/>
<path d="M220.545 62.0376C219.398 64.2031 224.876 77.7063 229.397 81.4642C229.461 81.5279 229.525 81.6553 229.652 81.719C230.034 81.9738 230.48 82.1012 230.862 82.1012C233.282 82.2286 244.81 81.8464 249.077 80.8273L249.396 78.3432C244.937 77.0693 233.346 76.4324 233.346 76.4324C233.346 76.4324 232.837 76.2413 232.9 76.0502C233.346 69.3624 226.086 65.9866 223.474 60.7637L220.545 62.0376Z" fill="#EDBD98"/>
<path d="M226.914 78.5334L232.837 74.8391C232.9 73.82 232.709 72.4824 232.2 71.3359L229.971 65.285C229.652 64.5207 228.952 63.2468 228.633 62.7373L224.366 54.9666C224.111 54.5844 223.666 54.457 223.22 54.457L219.271 54.9029C218.825 54.9666 218.316 55.094 217.997 55.3488C217.424 55.7309 217.042 56.2405 216.66 56.75C215.768 58.0876 214.94 60.508 214.877 62.1003C214.24 73.3742 217.424 92.8008 217.424 92.8008L236.085 85.2213C229.78 82.1002 229.143 81.527 226.914 78.5334Z" fill="#F7931E"/>
<path d="M226.787 78.471C222.265 73.885 222.138 73.1207 221.883 71.7194C221.819 71.2736 221.692 70.7003 221.437 69.936L221.692 69.8086C222.01 70.6366 222.074 71.1462 222.201 71.6557C222.456 72.9933 222.583 73.6939 227.042 78.2799L226.787 78.471Z" fill="#9E4F0D"/>
<path d="M255.894 77.5147C255.894 77.0052 255.575 76.9415 255.384 77.0052L253.027 77.5784L253.983 76.8778C254.11 76.7504 253.983 76.5593 253.855 76.5593C253.282 76.4319 252.263 76.9415 251.945 77.0689C251.754 77.0689 251.117 77.26 250.734 77.5147C250.289 77.8332 250.034 78.1517 249.461 78.1517L247.741 78.0243L248.25 80.8905C249.333 80.6357 250.862 80.6994 252.39 81.0179C252.773 81.0816 253.155 81.0179 253.537 80.8905C253.855 80.8268 254.174 80.5721 254.365 80.381C254.683 80.0625 254.683 79.6803 254.683 79.6803C255.257 79.2982 254.875 78.916 254.875 78.916C254.875 78.916 255.32 78.7249 255.639 78.5339C255.957 78.2791 255.639 77.8332 255.639 77.8332C255.766 77.8332 255.894 77.7058 255.894 77.5147Z" fill="#EDBD98"/>
<path d="M253.09 77.5787C253.09 77.6424 252.708 77.7698 252.262 77.8972C251.816 78.0883 251.434 78.2157 251.434 78.2157C251.434 78.152 251.816 78.0246 252.262 77.8972C252.708 77.6424 253.026 77.515 253.09 77.5787Z" fill="#C99877"/>
<path d="M255.637 77.834C255.637 77.834 255.128 78.0251 254.555 78.1525C253.918 78.3435 253.408 78.4072 253.408 78.4072C253.408 78.4072 253.918 78.2161 254.491 78.0888C255.064 77.9614 255.637 77.834 255.637 77.834Z" fill="#C99877"/>
<path d="M254.683 79.6793C254.683 79.6793 254.428 79.8067 254.173 79.9341C253.855 79.9977 253.6 80.0615 253.6 80.0615C253.6 80.0615 253.855 79.9341 254.11 79.8067C254.428 79.6793 254.683 79.6156 254.683 79.6793Z" fill="#C99877"/>
<path d="M254.874 78.9795C254.874 78.9795 254.62 79.1069 254.365 79.1706C254.046 79.2343 253.792 79.2343 253.792 79.2343C253.792 79.2343 254.046 79.1069 254.301 79.0432C254.683 78.9795 254.938 78.9158 254.874 78.9795Z" fill="#C99877"/>
<path d="M253.728 77.0045C253.791 77.0045 253.855 76.9408 253.982 76.8771C253.982 76.8771 254.046 76.7497 253.982 76.686C253.919 76.6223 253.791 76.5586 253.728 76.5586C253.664 76.5586 253.409 76.6223 253.409 76.6223C253.409 76.6223 253.473 76.8771 253.473 76.9408C253.536 77.0045 253.537 77.0045 253.537 77.0045C253.6 77.0682 253.664 77.0682 253.728 77.0045Z" fill="#E5B28F"/>
<path d="M242.326 59.8081C242.326 59.8081 242.517 59.617 242.645 59.5533C242.772 59.4896 243.091 59.617 242.963 59.8718C242.836 60.1266 242.199 60.6998 242.199 60.6998C242.199 60.6998 241.944 61.3368 241.88 61.4005C241.817 61.4642 241.944 62.0374 242.008 62.2285C242.072 62.4196 241.88 64.0756 241.88 64.203C241.88 64.3304 241.626 65.7317 241.371 65.7317C241.116 65.7317 239.906 65.2858 240.097 64.7126C240.288 64.1393 240.989 60.7635 241.435 60.3814C241.817 59.9992 242.326 59.8081 242.326 59.8081Z" fill="#D8A988"/>
<path d="M242.39 59.8087L242.644 59.6176C242.772 59.5539 242.963 59.6176 242.899 59.8087C242.836 59.9361 242.708 59.9998 242.644 60.0635C242.517 59.9361 242.453 59.8724 242.39 59.8087Z" fill="#EDC7AE"/>
<path d="M233.92 82.0368L236.149 85.2852L233.283 85.3489L229.525 82.0368L229.907 81.8457C229.907 81.8457 230.226 82.0368 230.353 82.0368C230.544 82.0368 232.391 82.1005 232.391 82.1005L233.92 82.0368Z" fill="#F7931E"/>
<path d="M28.6593 136.993C37.6393 126.229 39.8046 122.662 51.6506 120.114C63.4329 117.566 69.6744 110.751 80.6925 117.184C91.8379 123.681 92.22 125.783 101.518 122.534C110.881 119.35 115.466 121.133 123.873 128.267C132.153 135.528 138.585 140.815 144.062 141.197C149.412 141.579 147.629 151.579 147.629 151.579L45.6003 153.744L25.7934 154.127C23.6916 149.095 25.6023 143.108 28.6593 136.993Z" fill="#AED3D3"/>
<path d="M75.5331 130.306C75.5331 130.306 76.17 129.669 75.5331 123.873C74.8961 118.076 77.635 112.854 77.635 112.854C77.635 112.854 76.3612 125.146 76.616 126.611C76.8071 128.013 75.5331 130.306 75.5331 130.306Z" fill="#0B9D99"/>
<path d="M77.1917 136.357C77.1917 136.357 77.1916 135.72 73.6247 132.79C70.0579 129.86 68.6567 125.529 68.6567 125.529C68.6567 125.529 74.8987 132.79 75.7267 133.618C76.5547 134.446 77.1917 136.357 77.1917 136.357Z" fill="#0B9D99"/>
<path d="M77.6357 143.618C77.6357 143.618 78.2727 143.173 78.0816 138.65C77.8905 134.064 80.3746 130.115 80.3746 130.115C80.3746 130.115 78.7185 139.478 78.7185 140.752C78.6548 141.771 77.6357 143.618 77.6357 143.618Z" fill="#0B9D99"/>
<path d="M76.9997 148.841C76.9997 148.841 76.3628 148.395 75.7259 143.873C74.8978 139.287 71.7769 135.975 71.7769 135.975C71.7769 135.975 75.0889 144.892 75.5347 145.975C75.9806 146.93 76.9997 148.841 76.9997 148.841Z" fill="#0B9D99"/>
<path d="M75.1518 152.981C75.1518 152.981 80.7564 136.548 72.4769 123.873C64.1338 111.197 71.0121 116.611 72.4769 119.096C74.1328 121.771 79.9921 138.013 77.8904 149.032C77.8904 149.032 77.2535 152.79 77.0625 153.172C76.553 153.427 75.1518 152.981 75.1518 152.981Z" fill="#0B9D99"/>
<path d="M91.5832 115.275C91.5832 115.275 92.4112 114.447 91.5832 107.186C90.7552 99.9245 94.2583 93.4277 94.2583 93.4277C94.2583 93.4277 92.7933 108.587 92.7933 110.307C92.857 112.345 91.5832 115.275 91.5832 115.275Z" fill="#EACE03"/>
<path d="M93.6852 122.537C93.6852 122.537 93.6852 121.709 89.0997 118.142C84.7052 114.575 83.0493 109.225 83.0493 109.225C83.0493 109.225 90.7556 118.142 91.7746 119.225C92.6662 120.244 93.6852 122.537 93.6852 122.537Z" fill="#EACE03"/>
<path d="M94.1309 131.452C94.1309 131.452 94.7678 130.815 94.5767 125.21C94.3856 119.605 97.5065 114.828 97.5065 114.828C97.5065 114.828 95.4047 126.484 95.4047 127.949C95.4047 129.414 94.1309 131.452 94.1309 131.452Z" fill="#EACE03"/>
<path d="M93.4951 141.261C93.4951 141.261 92.8581 140.624 92.667 135.019C92.4759 129.414 89.1001 124.828 89.1001 124.828C89.1001 124.828 91.7753 136.293 92.0301 137.758C92.2212 139.159 93.4951 141.261 93.4951 141.261Z" fill="#EACE03"/>
<path d="M91.201 152.282C91.201 152.282 98.0793 122.919 87.6344 107.314C77.2532 91.7086 85.7875 98.3964 87.6344 101.263C89.7361 104.575 96.8055 124.384 94.3217 138.078C94.3217 138.078 93.6849 151.581 93.3027 152.218C93.048 152.727 91.201 152.282 91.201 152.282Z" fill="#EACE03"/>
<path d="M133.49 107.312C133.49 107.312 134.318 106.484 133.49 99.6053C132.662 92.7264 135.974 86.4844 135.974 86.4844C135.974 86.4844 134.509 101.07 134.7 102.726C134.764 104.446 133.49 107.312 133.49 107.312Z" fill="#EACE03"/>
<path d="M135.592 114.382C135.592 114.382 135.592 113.554 131.198 110.242C127.058 106.93 125.402 101.707 125.402 101.707C125.402 101.707 132.662 110.433 133.745 111.261C134.573 112.089 135.592 114.382 135.592 114.382Z" fill="#EACE03"/>
<path d="M136.038 122.918C136.038 122.918 136.675 122.281 136.484 116.867C136.292 111.453 139.159 106.867 139.159 106.867C139.159 106.867 137.057 118.077 137.057 119.351C137.057 120.88 136.038 122.918 136.038 122.918Z" fill="#EACE03"/>
<path d="M135.21 129.159C135.21 129.159 134.573 128.713 133.554 123.363C132.535 117.949 128.968 114 128.968 114C128.968 114 132.917 124.637 133.363 125.847C133.49 127.312 135.21 129.159 135.21 129.159Z" fill="#EACE03"/>
<path d="M132.917 134.191C132.917 134.191 139.604 114.637 129.796 99.6692C119.797 84.7011 128.14 91.1342 129.796 93.8731C131.643 97.1852 138.522 116.166 136.229 129.223C136.229 129.223 135.401 133.618 135.21 134C134.764 134.574 132.917 134.191 132.917 134.191Z" fill="#EACE03"/>
<path d="M106.104 108.65C106.104 108.65 105.276 107.631 106.104 99.0958C106.932 90.5608 102.983 83.0449 102.983 83.0449C102.983 83.0449 104.639 100.943 104.639 103.045C104.703 105.338 106.104 108.65 106.104 108.65Z" fill="#0B9D99"/>
<path d="M103.81 117.376C103.81 117.376 103.81 116.357 109.032 112.154C114.255 108.013 116.293 101.771 116.293 101.771C116.293 101.771 107.377 112.408 106.103 113.619C104.893 114.701 103.81 117.376 103.81 117.376Z" fill="#0B9D99"/>
<path d="M103.237 128.013C103.237 128.013 102.409 127.376 102.6 120.752C102.792 114.064 99.0337 108.459 99.0337 108.459C99.0337 108.459 101.518 122.217 101.518 123.873C101.581 125.465 103.237 128.013 103.237 128.013Z" fill="#0B9D99"/>
<path d="M103.81 139.415C103.81 139.415 104.638 138.778 104.829 132.153C105.02 125.529 108.969 120.115 108.969 120.115C108.969 120.115 105.657 133.618 105.402 135.274C105.53 136.93 103.81 139.415 103.81 139.415Z" fill="#0B9D99"/>
<path d="M106.74 152.344C106.74 152.344 98.6515 117.822 110.88 99.0956C123.171 80.5607 112.981 88.4587 110.88 92.0256C108.396 95.9746 100.053 119.478 102.982 135.529C102.982 135.529 103.81 151.579 104.001 152.153C104.447 152.981 106.74 152.344 106.74 152.344Z" fill="#0B9D99"/>
<path d="M145.208 95.465C145.208 95.465 145.845 94.637 145.208 87.758C144.571 80.8791 147.692 74.8281 147.692 74.8281C147.692 74.8281 146.227 89.1593 146.418 91.0701C146.482 92.5351 145.208 95.465 145.208 95.465Z" fill="#0B9D99"/>
<path d="M147.119 102.534C147.119 102.534 147.119 101.706 142.979 98.3944C138.839 95.0823 137.183 89.8594 137.183 89.8594C137.183 89.8594 144.444 98.3944 145.526 99.4135C146.291 100.241 147.119 102.534 147.119 102.534Z" fill="#0B9D99"/>
<path d="M147.5 110.815C147.5 110.815 148.138 110.178 147.946 104.764C147.755 99.35 150.622 94.9551 150.622 94.9551C150.622 94.9551 148.774 105.974 148.52 107.439C148.774 108.777 147.5 110.815 147.5 110.815Z" fill="#0B9D99"/>
<path d="M147.118 120.179C147.118 120.179 146.481 119.542 146.29 114.383C146.099 108.969 142.978 104.574 142.978 104.574C142.978 104.574 145.653 115.593 145.653 116.867C145.653 118.141 147.118 120.179 147.118 120.179Z" fill="#0B9D99"/>
<path d="M144.634 130.624C144.634 130.624 151.067 102.726 141.323 87.7581C131.515 72.79 139.667 79.2231 141.323 82.153C143.17 85.4651 150.048 104.191 147.564 117.121C147.564 117.121 146.927 130.051 146.736 130.624C146.481 131.006 144.634 130.624 144.634 130.624Z" fill="#0B9D99"/>
<path d="M170.556 133.873C164.888 123.427 163.423 119.924 156.736 117.822C149.985 115.72 146.1 109.096 140.368 115.911C134.636 122.726 134.509 124.956 129.095 121.962C123.682 119.096 121.262 121.07 116.994 128.459C112.855 135.975 109.607 141.516 106.55 142.089C103.62 142.663 105.212 152.599 105.212 152.599L162.149 151.198L173.167 150.879C173.995 145.593 172.594 139.733 170.556 133.873Z" fill="#C4EDEE"/>
<path d="M129.032 153.107H128.268V158.33H129.032V153.107Z" fill="#754C24"/>
<path d="M128.586 153.553C128.268 153.617 125.847 152.025 125.593 149.732C125.338 147.311 125.911 145.655 126.357 144.509C127.185 142.471 128.777 141.643 129.351 141.643C129.351 141.643 131.007 141.706 131.516 144.955C132.026 148.203 132.79 146.993 132.026 150.241C131.389 152.916 129.223 153.553 128.586 153.553Z" fill="#76A814"/>
<path d="M69.2908 154.51H68.5264V159.733H69.2908V154.51Z" fill="#754C24"/>
<path d="M68.7815 154.956C68.4631 155.019 66.0427 153.427 65.7879 151.134C65.5332 148.714 66.1064 147.058 66.5522 145.911C67.3803 143.873 68.9726 143.045 69.5458 143.045C69.5458 143.045 71.2018 143.109 71.7114 146.357C72.2209 149.605 72.9853 148.395 72.2209 151.644C71.584 154.319 69.4185 155.019 68.7815 154.956Z" fill="#76A814"/>
<path d="M39.1676 153.553H38.4033V158.776H39.1676V153.553Z" fill="#754C24"/>
<path d="M38.6585 153.999C38.34 154.062 35.9197 152.47 35.6649 150.177C35.4101 147.757 35.9833 146.101 36.4292 144.954C37.2572 142.916 38.8495 142.088 39.4228 142.088C39.4228 142.088 41.0789 142.152 41.5885 145.4C42.098 148.648 42.8622 147.438 42.0979 150.687C41.461 153.362 39.3591 153.999 38.6585 153.999Z" fill="#76A814"/>
<path d="M99.1632 154.51H98.3989V159.733H99.1632V154.51Z" fill="#754C24"/>
<path d="M98.7171 154.956C98.3986 155.019 95.9783 153.427 95.7235 151.134C95.4687 148.714 96.0419 147.058 96.4878 145.911C97.3158 143.873 98.9081 143.045 99.4814 143.045C99.4814 143.045 101.137 143.109 101.647 146.357C102.156 149.605 102.921 148.395 102.156 151.644C101.52 154.319 99.354 155.019 98.7171 154.956Z" fill="#76A814"/>
<path d="M160.238 151.961H159.474V157.184H160.238V151.961Z" fill="#754C24"/>
<path d="M159.729 152.407C159.41 152.471 156.99 150.878 156.735 148.585C156.48 146.165 157.054 144.509 157.5 143.362C158.328 141.324 159.92 140.496 160.493 140.496C160.493 140.496 162.149 140.56 162.659 143.808C163.168 147.057 163.933 145.846 163.168 149.095C162.531 151.77 160.43 152.407 159.729 152.407Z" fill="#76A814"/>
<path d="M143.87 150.688H143.106V155.91H143.87V150.688Z" fill="#754C24"/>
<path d="M143.425 151.133C143.107 151.197 140.686 149.605 140.431 147.312C140.177 144.891 140.75 143.235 141.196 142.089C142.024 140.051 143.616 139.223 144.189 139.223C144.189 139.223 145.846 139.286 146.355 142.535C146.865 145.783 147.629 144.573 146.864 147.821C146.164 150.496 144.062 151.133 143.425 151.133Z" fill="#A9D661"/>
<path d="M114.129 150.307H113.365V155.53H114.129V150.307Z" fill="#754C24"/>
<path d="M113.62 150.753C113.301 150.816 110.881 149.224 110.626 146.931C110.372 144.511 110.945 142.855 111.391 141.708C112.219 139.67 113.811 138.842 114.384 138.842C114.384 138.842 116.04 138.905 116.55 142.154C117.059 145.402 117.824 144.192 117.059 147.44C116.423 150.116 114.321 150.753 113.62 150.753Z" fill="#A9D661"/>
<path d="M54.8351 153.107H54.0708V158.33H54.8351V153.107Z" fill="#754C24"/>
<path d="M54.389 153.553C54.0705 153.617 51.6501 152.025 51.3954 149.732C51.1406 147.311 51.7138 145.655 52.1597 144.509C52.9877 142.471 54.58 141.643 55.1532 141.643C55.1532 141.643 56.8094 141.706 57.3189 144.955C57.8285 148.203 58.5928 146.993 57.8285 150.241C57.1279 152.916 55.0259 153.553 54.389 153.553Z" fill="#A9D661"/>
<path d="M27.131 150.941H26.3667V156.164H27.131V150.941Z" fill="#754C24"/>
<path d="M26.6848 151.387C26.3664 151.451 23.946 149.859 23.6913 147.566C23.4365 145.145 24.0097 143.489 24.4556 142.343C25.2836 140.305 26.8759 139.477 27.4491 139.477C27.4491 139.477 29.1053 139.54 29.6148 142.789C30.1244 146.037 30.8887 144.827 30.1244 148.075C29.4875 150.75 27.3218 151.387 26.6848 151.387Z" fill="#A9D661"/>
<path d="M84.4503 152.725H83.686V157.948H84.4503V152.725Z" fill="#754C24"/>
<path d="M84.0042 153.171C83.6857 153.234 81.2654 151.642 81.0106 149.349C80.7558 146.929 81.329 145.272 81.7749 144.126C82.6029 142.088 84.1952 141.26 84.7685 141.26C84.7685 141.26 86.4246 141.323 86.9342 144.572C87.4437 147.82 88.2081 146.61 87.4438 149.858C86.8068 152.534 84.6411 153.171 84.0042 153.171Z" fill="#A9D661"/>
<path d="M173.167 147.566H172.403V152.789H173.167V147.566Z" fill="#754C24"/>
<path d="M172.658 148.012C172.34 148.076 169.919 146.484 169.664 144.191C169.41 141.77 169.983 140.114 170.429 138.968C171.257 136.93 172.849 136.102 173.422 136.102C173.422 136.102 175.078 136.165 175.588 139.414C176.098 142.662 176.862 141.452 176.098 144.7C175.461 147.375 173.295 148.012 172.658 148.012Z" fill="#A9D661"/>
</svg>
