<svg width="343" height="203" viewBox="0 0 343 203" fill="none" xmlns="http://www.w3.org/2000/svg">
<path d="M171.5 173.5C257.104 173.5 326.5 167.68 326.5 160.5C326.5 153.32 257.104 147.5 171.5 147.5C85.8959 147.5 16.5 153.32 16.5 160.5C16.5 167.68 85.8959 173.5 171.5 173.5Z" fill="#D5D5D5"/>
<path d="M147.353 155.455H89.2227V157.233H147.353V155.455Z" fill="#F1F1F1"/>
<path d="M257.084 155.455H198.953V157.233H257.084V155.455Z" fill="#F1F1F1"/>
<path fill-rule="evenodd" clip-rule="evenodd" d="M180.125 132.572C181.491 133.315 181.987 135.05 181.242 136.351L171.434 153.886C170.937 154.754 170.006 155.311 168.95 155.311H122.266C120.714 155.311 119.473 154.072 119.473 152.523C119.473 150.974 120.714 149.735 122.266 149.735H167.274L176.276 133.687C177.083 132.324 178.821 131.89 180.125 132.572Z" fill="#3DBCC8"/>
<path fill-rule="evenodd" clip-rule="evenodd" d="M109.104 157.419C111.4 157.419 113.325 155.56 113.325 153.206C113.325 150.851 111.463 148.992 109.104 148.992C106.807 148.992 104.882 150.851 104.882 153.206C104.882 155.56 106.807 157.419 109.104 157.419ZM109.104 162.996C114.504 162.996 118.912 158.596 118.912 153.206C118.912 147.815 114.504 143.416 109.104 143.416C103.703 143.416 99.2949 147.815 99.2949 153.206C99.2949 158.596 103.703 162.996 109.104 162.996Z" fill="#20505A"/>
<path fill-rule="evenodd" clip-rule="evenodd" d="M189.309 157.419C191.606 157.419 193.531 155.56 193.531 153.206C193.531 150.851 191.668 148.992 189.309 148.992C186.95 148.992 185.088 150.851 185.088 153.206C185.088 155.56 187.012 157.419 189.309 157.419ZM189.309 162.996C194.71 162.996 199.118 158.596 199.118 153.206C199.118 147.815 194.71 143.416 189.309 143.416C183.908 143.416 179.501 147.815 179.501 153.206C179.439 158.596 183.846 162.996 189.309 162.996Z" fill="#20505A"/>
<path fill-rule="evenodd" clip-rule="evenodd" d="M168.7 98.3709C170.128 97.6893 171.742 98.3709 172.425 99.734L173.791 102.584C174.474 104.009 173.791 105.62 172.425 106.302C170.997 106.983 169.383 106.302 168.7 104.939L167.335 102.089C166.652 100.725 167.273 99.0525 168.7 98.3709Z" fill="#20505A"/>
<path fill-rule="evenodd" clip-rule="evenodd" d="M173.729 125.818L179.689 140.874C179.999 141.742 180.868 142.919 181.551 143.415C182.544 144.096 183.6 144.282 184.779 143.6C186.145 142.609 185.71 139.697 184.717 137.404L183.475 134.554L173.791 110.947L165.596 90.3145L161.375 92.545L173.729 125.818Z" fill="#65C8D0"/>
<path fill-rule="evenodd" clip-rule="evenodd" d="M166.962 91.4312C166.652 91.3073 166.031 91.5551 166.031 91.5551L167.459 95.1488L168.018 94.9629C167.956 94.9629 167.894 91.741 166.962 91.4312Z" fill="#1A1A1A"/>
<path fill-rule="evenodd" clip-rule="evenodd" d="M161.25 92.4833L156.16 78.6042C156.47 78.6042 154.36 78.5422 153.118 79.0999C152.435 79.4097 150.759 80.3391 150.511 80.0912C149.579 79.6575 148.959 79.0999 148.896 77.8607C148.896 76.7454 149.579 76.2497 150.511 76.0638L156.532 75.5681L156.284 74.4528L151.69 74.7626L151.504 74.0191L157.774 73.5234L158.395 76.0638C159.512 76.1258 160.443 76.5595 161.126 77.8607L165.534 90.1908L161.25 92.4833Z" fill="#1A1A1A"/>
<g opacity="0.96">
<path d="M172.424 113.672C172.238 113.734 172.114 113.858 171.928 113.982L171.431 112.805L170.748 113.053L171.679 115.407C171.928 116.089 172.673 116.336 173.355 116.089C174.038 115.841 174.349 115.097 174.1 114.416C173.852 113.796 173.107 113.424 172.424 113.672ZM173.169 115.469C172.859 115.531 172.486 115.469 172.424 115.159C172.362 114.849 172.424 114.478 172.735 114.416C173.045 114.354 173.418 114.416 173.48 114.725C173.604 115.035 173.418 115.407 173.169 115.469Z" fill="white"/>
<path d="M175.405 120.985C174.722 121.233 174.412 121.977 174.722 122.658L175.219 123.897L175.902 123.649L175.405 122.41C175.343 122.162 175.405 121.791 175.715 121.667C175.964 121.605 176.336 121.667 176.46 121.977L176.957 123.216L177.64 122.968L177.143 121.729C176.833 121.047 176.088 120.737 175.405 120.985Z" fill="white"/>
<path d="M174.1 117.947C173.914 118.009 173.852 118.195 173.914 118.443L174.659 120.487L175.404 120.178L174.535 118.133C174.535 118.009 174.411 117.823 174.1 117.947Z" fill="white"/>
<path d="M173.852 117.761C174.126 117.761 174.349 117.539 174.349 117.265C174.349 116.991 174.126 116.77 173.852 116.77C173.578 116.77 173.355 116.991 173.355 117.265C173.355 117.539 173.578 117.761 173.852 117.761Z" fill="white"/>
<path d="M167.707 102.024C167.521 102.086 167.397 102.21 167.211 102.333L166.714 101.156L166.031 101.404L166.962 103.759C167.211 104.44 167.956 104.688 168.639 104.44C169.321 104.192 169.632 103.449 169.384 102.767C169.135 102.086 168.39 101.776 167.707 102.024ZM168.39 103.821C168.08 103.883 167.707 103.821 167.645 103.511C167.583 103.201 167.645 102.829 167.956 102.767C168.266 102.705 168.639 102.767 168.701 103.077C168.887 103.387 168.701 103.697 168.39 103.821Z" fill="white"/>
<path d="M170.624 109.275C169.941 109.523 169.631 110.266 169.941 110.948L170.438 112.187L171.12 111.939L170.624 110.7C170.562 110.452 170.624 110.08 170.934 109.956C171.245 109.833 171.555 109.956 171.679 110.266L172.176 111.505L172.859 111.258L172.362 110.018C171.99 109.399 171.307 109.027 170.624 109.275Z" fill="white"/>
<path d="M169.383 106.236C169.197 106.298 169.135 106.484 169.197 106.732L169.942 108.777L170.687 108.467L169.818 106.422C169.818 106.298 169.57 106.236 169.383 106.236Z" fill="white"/>
<path d="M169.135 106.05C169.41 106.05 169.632 105.828 169.632 105.554C169.632 105.281 169.41 105.059 169.135 105.059C168.861 105.059 168.639 105.281 168.639 105.554C168.639 105.828 168.861 106.05 169.135 106.05Z" fill="white"/>
</g>
<path d="M95.4434 63.6693C95.7538 66.1477 106.307 79.3453 112.267 79.779C112.329 79.779 112.453 79.841 112.577 79.841C113.012 79.841 113.509 79.717 113.819 79.4692C116.178 78.292 120.151 65.8999 121.455 61.9344L120.027 61.1289C118.785 63.2356 114.192 72.8394 112.329 72.4677C112.329 72.4677 111.895 72.5916 111.77 72.4057C103.948 65.0324 100.658 63.1736 98.0508 61.3148L95.4434 63.6693Z" fill="#D8A988"/>
<path d="M80.6674 151.838C81.0399 152.953 80.2949 156.98 80.2949 158.344C81.164 159.521 83.2747 158.591 83.5231 157.352C83.5231 157.228 83.6472 157.166 83.6472 156.918C83.3989 156.113 83.8955 153.201 84.5784 151.59L80.6674 151.838Z" fill="#F9AC91"/>
<path d="M93.7661 153.636C94.0765 154.752 93.1452 157.478 92.959 158.779C93.766 160.018 95.9389 159.151 96.1872 157.912C96.2493 157.788 96.3113 157.726 96.3734 157.478C96.063 156.611 96.7459 154.256 97.615 152.707L93.7661 153.636Z" fill="#F9AC91"/>
<path d="M93.6417 90.4355H101.65C105.685 102.456 106.865 116.149 104.444 129.718C104.257 130.772 104.009 131.825 103.637 132.755L100.967 153.759C98.9184 154.627 92.9588 154.007 90.9102 153.511C93.5796 145.766 95.1316 138.827 95.8145 131.267C96.0628 130.09 96.0628 127.612 96.0628 127.612C96.8698 115.963 94.2004 93.3477 93.6417 90.4355Z" fill="#131851"/>
<path d="M87.1237 153.512C84.3922 154.317 80.6053 153.016 78.5566 152.149L83.7714 128.728C83.8335 128.294 83.8334 127.798 83.8334 127.365L81.971 99.2966C81.909 98.677 81.971 97.9334 82.0331 97.2519C82.3435 94.7735 83.0264 91.2417 83.9576 90.0645H94.4491C97.4289 104.006 96.9323 115.84 95.7528 122.594C95.6286 123.151 95.132 129.657 94.387 131.578L87.1237 153.512Z" fill="#131851"/>
<path d="M101.65 90.561L83.8956 90.8089L83.7715 90.0034L101.526 89.9414L101.65 90.561Z" fill="#0E0E38"/>
<path d="M88.2425 43.9668L94.3885 44.5244C92.6502 47.3127 91.2844 49.7911 93.271 51.7119L87.4355 51.2162C89.4221 49.915 89.1737 46.5691 88.2425 43.9668Z" fill="#EDBD98"/>
<path d="M94.3872 32.5039C94.3872 32.5039 96.7462 35.3541 96.1875 37.3988C96.1254 37.7086 96.0633 37.9564 96.0012 38.2043C95.7529 39.3815 95.7529 39.3196 96.9945 39.8772C97.6153 40.187 97.0567 40.8066 96.7463 41.0544C96.56 41.1784 96.4358 41.4262 96.4979 41.6121C96.4979 41.8599 96.56 42.1078 96.56 42.1078C96.56 42.1697 96.8083 42.9133 96.1255 42.9133C92.7111 42.9752 95.5667 42.9133 96.3116 43.1611C96.3116 43.1611 96.6221 43.347 96.56 43.4709C96.4979 43.6568 96.2496 43.8427 96.1875 44.0905C96.1254 44.3383 96.0633 45.1438 95.9392 45.4536C95.815 45.7634 93.7664 46.383 92.5868 46.0113C91.6556 45.8254 90.4141 45.5156 89.9175 45.4536C89.7312 45.4536 89.4829 45.0199 89.3587 44.896C89.1104 44.7101 88.4275 44.5242 87.9308 44.1525C86.8755 43.5329 87.8067 43.1611 87.8688 42.7274C87.9309 42.3556 88.055 41.5501 87.9308 41.3023C87.8067 41.1164 86.9376 40.0631 86.7513 39.6294C86.503 38.8858 86.9376 37.7705 87.248 37.3368C87.5584 36.9031 88.3034 36.7172 88.7379 37.089C89.1104 37.3368 89.5449 37.3368 89.7312 37.027C89.9174 36.6552 92.2144 33.8051 92.6489 33.4953C92.8352 33.3094 94.3872 32.5039 94.3872 32.5039Z" fill="#EDBD98"/>
<path d="M96.4992 34.1758C96.375 34.4856 96.2508 34.7335 96.0646 35.0433C95.8162 35.477 95.3197 35.8488 94.8851 36.0346C93.3952 36.6542 92.0294 37.2739 90.6636 37.1499C90.1049 37.088 89.5462 37.3978 89.36 38.0174C89.1737 38.5131 88.8633 38.8848 88.4908 39.2566C87.9321 39.8142 87.6838 40.7436 88.0563 41.6111C88.4288 42.7264 88.0563 43.346 87.6217 44.3374C87.3734 44.6472 87.063 44.7091 86.5664 44.5232C84.5177 43.4699 83.3382 41.3632 82.8416 38.8229C82.0966 36.5303 82.4691 35.9107 82.9036 34.8574C83.0278 34.5476 83.2761 34.2998 83.4624 33.99C84.4557 32.9366 85.2627 31.6355 86.1939 31.0159C87.0009 30.5202 87.7459 30.0865 88.7392 29.7767C90.2291 29.281 91.8432 29.4668 93.1468 30.2104C94.5747 31.0778 95.8783 32.2551 96.375 33.1845C96.6233 33.4943 96.6233 33.866 96.4992 34.1758Z" fill="#42210B"/>
<path d="M80.1701 155.928C81.4738 156.486 82.7775 156.486 84.0812 155.742C84.1433 155.681 84.2053 155.742 84.2674 155.804C85.0123 157.168 85.7573 158.902 86.9989 159.956C88.2405 160.823 89.7926 161.443 91.4687 161.877C91.655 161.939 91.9033 162 92.0895 162C92.9586 162 93.5794 162.124 94.1381 162.372C94.2002 162.434 94.3244 162.434 94.3865 162.496C94.7589 162.682 94.8831 163.054 94.9452 163.549C94.9452 163.859 94.821 164.107 94.5727 164.293C93.207 165.098 91.4687 165.47 89.2959 165.408L85.3228 164.913L79.1148 164.417L78.3698 164.169C78.2456 164.107 78.1836 164.045 78.1836 163.859C78.1836 162.806 78.3698 161.753 78.7423 160.637C78.8665 160.328 79.1148 159.832 79.2389 159.522C79.7356 158.593 79.8597 157.353 79.8597 155.99C80.046 155.928 80.108 155.866 80.1701 155.928Z" fill="#F7931E"/>
<path d="M78.3709 162.556C78.2467 162.556 78.1226 163.733 78.2467 163.981C78.3709 164.291 79.5504 164.415 79.7367 164.477C80.73 164.601 81.7853 164.663 82.8407 164.725L86.3792 165.096C87.3725 165.22 88.552 165.406 89.7315 165.406C90.7248 165.406 91.5939 165.344 92.5251 165.096C93.2701 164.973 93.953 164.663 94.6979 164.167C94.76 164.105 94.8221 164.043 94.8842 163.981C95.0705 163.609 95.0083 162.866 94.4496 162.494C93.6426 162.866 92.5252 163.238 91.2215 163.424C90.2282 163.609 89.1107 163.609 87.9933 163.609C86.1309 163.547 84.2685 163.424 82.7165 163.176C81.1024 163.052 79.5504 162.866 78.3709 162.556Z" fill="#CE751D"/>
<path d="M91.9039 162.002C91.7797 162.559 91.8418 163.055 92.0901 163.365C93.0213 163.241 93.7663 162.993 94.4491 162.56C93.7663 162.126 92.8971 161.94 91.9039 162.002Z" fill="#F15A24"/>
<path d="M83.9569 157.354C84.1283 157.354 84.2673 157.215 84.2673 157.044C84.2673 156.873 84.1283 156.734 83.9569 156.734C83.7855 156.734 83.6465 156.873 83.6465 157.044C83.6465 157.215 83.7855 157.354 83.9569 157.354Z" fill="#D8CDC3"/>
<path d="M84.453 158.53C84.6244 158.53 84.7634 158.391 84.7634 158.22C84.7634 158.049 84.6244 157.91 84.453 157.91C84.2815 157.91 84.1426 158.049 84.1426 158.22C84.1426 158.391 84.2815 158.53 84.453 158.53Z" fill="#D8CDC3"/>
<path d="M85.0116 159.52C85.183 159.52 85.322 159.381 85.322 159.21C85.322 159.039 85.183 158.9 85.0116 158.9C84.8401 158.9 84.7012 159.039 84.7012 159.21C84.7012 159.381 84.8401 159.52 85.0116 159.52Z" fill="#D8CDC3"/>
<path d="M85.8202 160.577C85.9916 160.577 86.1306 160.438 86.1306 160.267C86.1306 160.096 85.9916 159.957 85.8202 159.957C85.6487 159.957 85.5098 160.096 85.5098 160.267C85.5098 160.438 85.6487 160.577 85.8202 160.577Z" fill="#D8CDC3"/>
<path d="M86.8749 161.256C87.0463 161.256 87.1853 161.118 87.1853 160.947C87.1853 160.775 87.0463 160.637 86.8749 160.637C86.7034 160.637 86.5645 160.775 86.5645 160.947C86.5645 161.118 86.7034 161.256 86.8749 161.256Z" fill="#D8CDC3"/>
<path d="M87.992 161.815C88.1635 161.815 88.3024 161.676 88.3024 161.505C88.3024 161.334 88.1635 161.195 87.992 161.195C87.8206 161.195 87.6816 161.334 87.6816 161.505C87.6816 161.676 87.8206 161.815 87.992 161.815Z" fill="#D8CDC3"/>
<path d="M89.2706 162.092C89.3756 162.004 89.3893 161.848 89.3013 161.743C89.2133 161.638 89.0568 161.624 88.9518 161.712C88.8468 161.8 88.8331 161.956 88.9211 162.061C89.0091 162.166 89.1656 162.18 89.2706 162.092Z" fill="#D8CDC3"/>
<path d="M90.5519 162.444C90.6193 162.325 90.5773 162.173 90.458 162.106C90.3388 162.039 90.1875 162.081 90.1201 162.2C90.0527 162.319 90.0947 162.47 90.2139 162.538C90.3332 162.605 90.4845 162.563 90.5519 162.444Z" fill="#D8CDC3"/>
<path d="M84.5781 157.847C84.8264 157.785 85.1369 157.723 85.3852 157.909C85.4473 158.033 85.5715 158.219 85.6335 158.343C85.3852 158.219 84.8886 158.219 84.7023 158.281C84.8265 158.157 84.7644 157.971 84.5781 157.847Z" fill="#686461"/>
<path d="M85.1387 158.902C85.3249 158.778 85.7595 158.716 86.0699 158.778C86.132 158.902 86.2561 158.964 86.3182 159.088C86.0078 159.026 85.5732 159.15 85.387 159.212C85.387 159.088 85.3249 158.964 85.1387 158.902Z" fill="#686461"/>
<path d="M85.8848 159.957C86.071 159.833 86.4434 159.709 86.7538 159.709C86.878 159.833 86.9401 159.895 87.0642 160.019C86.7538 160.019 86.2572 160.205 86.133 160.329C86.133 160.143 86.071 159.957 85.8848 159.957Z" fill="#686461"/>
<path d="M86.875 160.64C86.9992 160.454 87.3095 160.33 87.6199 160.33C87.7441 160.392 87.8682 160.454 87.9924 160.516C87.682 160.578 87.2475 160.826 87.1233 160.95C87.1233 160.888 87.1233 160.702 86.875 160.64Z" fill="#686461"/>
<path d="M87.9297 161.196C88.1159 161.01 88.3022 160.886 88.4884 160.824C88.6126 160.886 88.6746 160.948 88.8609 161.01C88.6126 161.134 88.4263 161.382 88.3022 161.506C88.2401 161.32 88.178 161.196 87.9297 161.196Z" fill="#686461"/>
<path d="M88.9844 161.692C89.1706 161.506 89.3568 161.32 89.543 161.258C89.6672 161.32 89.7293 161.32 89.9156 161.382C89.6673 161.506 89.4189 161.815 89.2948 161.877C89.3569 161.815 89.2327 161.692 88.9844 161.692Z" fill="#686461"/>
<path d="M90.1016 162.124C90.1635 161.814 90.2255 161.752 90.2875 161.566C90.4114 161.566 90.5973 161.69 90.5973 161.69C90.4734 161.938 90.5353 162.062 90.4733 162.248C90.4733 162.124 90.2874 162 90.1016 162.124Z" fill="#686461"/>
<path d="M84.082 156.732C84.3304 156.67 84.5166 156.608 84.827 156.732C84.9511 156.856 85.0132 157.042 85.0132 157.165C84.7028 157.042 84.5165 157.042 84.2682 157.103C84.2682 156.918 84.2062 156.794 84.082 156.732Z" fill="#686461"/>
<path d="M82.7793 156.238C82.7793 156.176 82.7793 156.052 82.7793 155.991C82.8414 155.805 82.9035 155.681 83.0897 155.619C83.338 155.433 83.5863 155.309 83.9588 155.123C84.0829 155.309 84.145 155.495 84.145 155.743C83.8967 155.867 83.6484 155.99 83.4001 156.052C83.2139 156.114 83.0276 156.176 82.7793 156.238Z" fill="#F15A24"/>
<path d="M93.0823 156.547C94.386 157.105 95.6896 157.105 96.9933 156.362C97.0554 156.3 97.1175 156.362 97.1796 156.424C97.9245 157.787 98.6695 159.522 99.9111 160.575C101.153 161.442 102.705 162.062 104.381 162.496C104.567 162.558 104.815 162.62 105.002 162.62C105.871 162.62 106.492 162.744 107.05 162.991C107.112 163.053 107.237 163.053 107.299 163.115C107.671 163.301 107.795 163.673 107.857 164.169C107.857 164.478 107.733 164.726 107.485 164.912C106.119 165.718 104.381 166.089 102.208 166.027L98.2349 165.532L92.0269 165.036L91.282 164.788C91.1578 164.726 91.0957 164.664 91.0957 164.478C91.0957 163.425 91.282 162.372 91.6544 161.256C91.7786 160.947 92.0269 160.451 92.1511 160.141C92.6477 159.212 92.7719 157.973 92.7719 156.609C92.8961 156.548 92.9581 156.486 93.0823 156.547Z" fill="#F7931E"/>
<path d="M91.283 163.175C91.1588 163.175 91.0347 164.352 91.1589 164.6C91.283 164.91 92.4625 165.034 92.6487 165.096C93.642 165.22 94.6974 165.282 95.7527 165.344L99.2913 165.716C100.285 165.84 101.464 166.025 102.644 166.025C103.637 166.025 104.506 165.963 105.437 165.716C106.182 165.592 106.865 165.282 107.61 164.786C107.672 164.724 107.734 164.662 107.796 164.6C107.982 164.229 107.92 163.485 107.362 163.113C106.555 163.485 105.437 163.857 104.134 164.043C103.14 164.229 102.023 164.229 100.905 164.229C99.043 164.167 97.1806 164.043 95.6286 163.795C93.9524 163.733 92.4625 163.547 91.283 163.175Z" fill="#CE751D"/>
<path d="M104.753 162.621C104.629 163.179 104.691 163.674 104.94 163.984C105.871 163.86 106.616 163.612 107.299 163.179C106.678 162.745 105.809 162.559 104.753 162.621Z" fill="#F15A24"/>
<path d="M96.8065 157.973C96.9779 157.973 97.1169 157.834 97.1169 157.663C97.1169 157.492 96.9779 157.354 96.8065 157.354C96.6351 157.354 96.4961 157.492 96.4961 157.663C96.4961 157.834 96.6351 157.973 96.8065 157.973Z" fill="#D8CDC3"/>
<path d="M97.4256 159.151C97.5971 159.151 97.736 159.012 97.736 158.841C97.736 158.67 97.5971 158.531 97.4256 158.531C97.2542 158.531 97.1152 158.67 97.1152 158.841C97.1152 159.012 97.2542 159.151 97.4256 159.151Z" fill="#D8CDC3"/>
<path d="M97.9237 160.204C98.0951 160.204 98.2341 160.065 98.2341 159.894C98.2341 159.723 98.0951 159.584 97.9237 159.584C97.7523 159.584 97.6133 159.723 97.6133 159.894C97.6133 160.065 97.7523 160.204 97.9237 160.204Z" fill="#D8CDC3"/>
<path d="M98.7303 161.196C98.9018 161.196 99.0407 161.057 99.0407 160.886C99.0407 160.715 98.9018 160.576 98.7303 160.576C98.5589 160.576 98.4199 160.715 98.4199 160.886C98.4199 161.057 98.5589 161.196 98.7303 161.196Z" fill="#D8CDC3"/>
<path d="M99.787 161.877C99.9584 161.877 100.097 161.739 100.097 161.568C100.097 161.397 99.9584 161.258 99.787 161.258C99.6155 161.258 99.4766 161.397 99.4766 161.568C99.4766 161.739 99.6155 161.877 99.787 161.877Z" fill="#D8CDC3"/>
<path d="M100.844 162.434C101.015 162.434 101.154 162.295 101.154 162.124C101.154 161.953 101.015 161.814 100.844 161.814C100.672 161.814 100.533 161.953 100.533 162.124C100.533 162.295 100.672 162.434 100.844 162.434Z" fill="#D8CDC3"/>
<path d="M102.19 162.76C102.295 162.672 102.309 162.516 102.221 162.411C102.133 162.306 101.977 162.292 101.872 162.38C101.767 162.468 101.753 162.624 101.841 162.729C101.929 162.834 102.085 162.847 102.19 162.76Z" fill="#D8CDC3"/>
<path d="M103.487 163.092C103.555 162.973 103.513 162.822 103.394 162.755C103.274 162.688 103.123 162.73 103.056 162.849C102.988 162.968 103.03 163.119 103.149 163.186C103.269 163.253 103.42 163.211 103.487 163.092Z" fill="#D8CDC3"/>
<path d="M97.4902 158.531C97.7386 158.469 98.049 158.407 98.2973 158.593C98.3594 158.717 98.4835 158.902 98.5456 159.026C98.2972 158.902 97.8006 158.902 97.6144 158.964C97.7385 158.717 97.6765 158.593 97.4902 158.531Z" fill="#686461"/>
<path d="M97.9863 159.584C98.1726 159.46 98.6071 159.398 98.9175 159.46C98.9796 159.584 99.1037 159.646 99.1658 159.77C98.8554 159.708 98.4208 159.832 98.2346 159.894C98.2346 159.77 98.1726 159.646 97.9863 159.584Z" fill="#686461"/>
<path d="M98.793 160.513C98.9792 160.39 99.3517 160.266 99.6621 160.266C99.7863 160.39 99.8483 160.452 99.9725 160.575C99.6621 160.575 99.1655 160.761 99.0413 160.885C99.1034 160.761 98.9792 160.513 98.793 160.513Z" fill="#686461"/>
<path d="M99.7871 161.259C99.9113 161.073 100.222 160.949 100.532 160.949C100.656 161.011 100.78 161.073 100.905 161.135C100.594 161.197 100.16 161.445 100.035 161.569C100.035 161.445 100.035 161.259 99.7871 161.259Z" fill="#686461"/>
<path d="M100.779 161.753C100.966 161.567 101.152 161.443 101.338 161.381C101.462 161.443 101.524 161.505 101.71 161.567C101.462 161.691 101.276 161.939 101.152 162.062C101.152 162 101.09 161.753 100.779 161.753Z" fill="#686461"/>
<path d="M101.896 162.311C102.083 162.125 102.269 161.939 102.455 161.877C102.579 161.939 102.641 161.939 102.828 162.001C102.579 162.125 102.331 162.435 102.207 162.497C102.207 162.497 102.083 162.311 101.896 162.311Z" fill="#686461"/>
<path d="M103.016 162.681C103.078 162.371 103.14 162.309 103.201 162.123C103.325 162.123 103.511 162.247 103.511 162.247C103.387 162.495 103.449 162.619 103.387 162.805C103.325 162.743 103.202 162.557 103.016 162.681Z" fill="#686461"/>
<path d="M96.9316 157.353C97.18 157.291 97.3662 157.229 97.6766 157.353C97.8008 157.477 97.8628 157.663 97.8628 157.787C97.5524 157.663 97.3662 157.663 97.1179 157.725C97.18 157.539 97.1179 157.415 96.9316 157.353Z" fill="#686461"/>
<path d="M95.6914 156.857C95.6914 156.796 95.6914 156.672 95.6914 156.61C95.7535 156.424 95.8156 156.3 96.0018 156.238C96.2501 156.052 96.4985 155.928 96.8709 155.742C96.9951 155.928 97.0572 156.114 97.0572 156.362C96.8089 156.486 96.5605 156.61 96.3122 156.672C96.126 156.796 95.9397 156.857 95.6914 156.857Z" fill="#F15A24"/>
<path d="M95.0703 64.4756C95.3807 66.954 105.934 80.1516 111.894 80.5853C111.956 80.5853 112.08 80.6473 112.204 80.6473C112.639 80.6473 113.136 80.5234 113.446 80.2755C115.557 78.9743 124.993 71.9109 127.911 68.503L126.669 66.2725C122.199 67.8215 112.142 74.0795 112.142 74.0795C112.142 74.0795 111.646 74.2034 111.584 74.0175C107.983 68.1932 102.83 64.9713 97.6156 62.1211L95.0703 64.4756Z" fill="#EDBD98"/>
<path d="M121.391 63.236L122.011 43.9043C125.302 44.338 132.689 45.3913 134.8 50.596L130.889 69.6798L121.391 63.236Z" fill="#65C8D0"/>
<path d="M128.777 66.828L130.64 59.3307C130.702 59.0829 130.826 58.897 131.074 58.7731L133.806 57.1621C133.992 57.0382 134.178 57.1002 134.302 57.2861C134.365 57.41 134.365 57.4719 134.365 57.5959L132.378 65.5268L128.777 66.828Z" fill="#1A2E35"/>
<path d="M134.245 57.2852C134.245 57.2852 134.183 57.3471 133.997 57.471C133.81 57.595 133.624 57.7189 133.314 57.9048C133.003 58.0906 132.693 58.2765 132.382 58.5244C132.196 58.6483 132.01 58.7722 131.762 58.8961C131.575 59.0201 131.327 59.144 131.141 59.2679C130.955 59.4538 130.893 59.6396 130.83 59.8875C130.768 60.1353 130.706 60.3212 130.644 60.5691C130.52 61.0028 130.458 61.3126 130.334 61.6224C130.272 61.9322 130.148 62.18 130.148 62.3659C130.085 62.5518 130.086 62.6138 130.023 62.6138C130.023 62.6138 130.023 62.4898 130.086 62.304C130.148 62.1181 130.148 61.8702 130.272 61.5604C130.334 61.2506 130.458 60.8169 130.52 60.5071C130.582 60.3212 130.644 60.0734 130.706 59.8255C130.768 59.5777 130.83 59.3299 131.017 59.144C131.203 58.9581 131.451 58.8342 131.638 58.7102C131.824 58.5863 132.072 58.4624 132.258 58.4004C132.631 58.2146 133.003 58.0287 133.19 57.8428C133.5 57.6569 133.686 57.533 133.872 57.471C134.121 57.2851 134.245 57.2852 134.245 57.2852Z" fill="#375A64"/>
<path d="M132.441 59.8245C132.379 60.0104 132.379 60.1343 132.441 60.1963C132.503 60.1963 132.627 60.1343 132.689 59.9484C132.751 59.7625 132.751 59.6386 132.689 59.5767C132.627 59.5147 132.503 59.6386 132.441 59.8245Z" fill="white"/>
<path d="M127.54 65.8371C127.974 65.5892 128.036 65.2175 128.285 64.7838C128.471 64.35 128.967 63.9783 129.092 63.8543C129.278 63.6065 129.899 62.7391 130.395 62.5532C130.582 62.4912 130.706 62.6151 130.706 62.739L130.395 63.2347L131.885 62.1814C132.071 62.0575 133.189 61.0042 133.437 61.3759C133.561 61.6238 133.003 62.1814 132.878 62.3673C132.568 62.801 132.63 62.801 132.63 62.801C132.63 62.801 132.941 62.9869 132.816 63.2967C132.63 63.6065 132.382 63.9783 132.382 63.9783C132.382 63.9783 132.816 64.1022 132.568 64.7218C132.568 64.7218 132.692 65.0316 132.63 65.4653C132.568 65.7131 132.382 66.023 132.196 66.2088C131.947 66.4567 131.637 66.7045 131.326 66.8284C129.961 67.2622 128.781 67.8198 127.974 68.5633L126.174 66.5186L127.54 65.8371Z" fill="#EDBD98"/>
<path d="M130.454 63.1759C130.454 63.2379 130.205 63.4857 129.957 63.8575C129.709 64.2292 129.398 64.4771 129.398 64.4771C129.398 64.4151 129.647 64.1673 129.895 63.7955C130.205 63.4237 130.392 63.1139 130.454 63.1759Z" fill="#C99877"/>
<path d="M132.499 62.8047C132.499 62.8047 132.189 63.1764 131.754 63.6102C131.32 64.0439 130.947 64.3537 130.947 64.3537C130.947 64.3537 131.258 63.9819 131.692 63.5482C132.189 63.1145 132.499 62.8047 132.499 62.8047Z" fill="#C99877"/>
<path d="M132.503 64.6602C132.503 64.6602 132.379 64.846 132.193 65.0939C132.007 65.2798 131.82 65.4656 131.82 65.4656C131.82 65.4656 131.944 65.2798 132.131 65.0319C132.317 64.7841 132.503 64.6602 132.503 64.6602Z" fill="#C99877"/>
<path d="M103.885 89.9412H78.5566C78.5566 89.9412 79.4878 68.3789 82.716 56.4825C83.1505 54.8096 84.5784 52.3932 85.82 51.154C86.3166 50.7202 86.8754 50.2245 87.5582 49.9767C87.9928 49.7908 88.5515 49.7289 89.0482 49.7908L93.3938 50.1626C93.8283 50.2245 94.3249 50.4724 94.5112 50.9681L98.7947 60.6959C99.043 61.2535 99.4155 61.8111 99.9122 62.1829L106.244 67.8213L102.085 72.9021L101.588 73.4597" fill="#F7931E"/>
<path d="M100.47 73.0256C93.5172 67.4492 93.2067 66.4578 92.648 64.599C92.4618 63.9794 92.2134 63.2359 91.7168 62.2445L92.0893 62.0586C92.6481 63.1119 92.8343 63.8555 93.0205 64.4751C93.5793 66.2719 93.8275 67.2013 100.718 72.7158L100.47 73.0256Z" fill="#9E4F0D"/>
<path d="M88.6139 39.1949C88.4898 38.9471 88.3036 38.7612 88.1173 38.6992C87.9932 38.6992 87.9311 38.6992 87.869 38.6992C87.3103 38.9471 87.1861 39.3808 87.4345 39.9384C87.4345 39.9384 87.4345 39.9384 87.4345 40.0004C87.869 40.558 88.0552 40.682 88.5519 40.9298L88.6139 39.1949Z" fill="#ECBC97"/>
<path d="M130.518 62.9895C130.58 62.9275 130.642 62.8656 130.642 62.8036C130.642 62.8036 130.642 62.6797 130.58 62.6797C130.518 62.6797 130.394 62.6797 130.332 62.7417C130.27 62.8036 130.146 62.9275 130.146 62.9275L130.332 63.1134C130.394 63.1754 130.394 63.1754 130.394 63.1754C130.394 63.0515 130.456 62.9895 130.518 62.9895Z" fill="#E5B28F"/>
<path d="M132.939 62.0584L133.249 61.7486C133.249 61.6867 133.311 61.3149 132.939 61.5008L132.566 61.8106C132.566 61.8106 132.628 61.9965 132.691 62.0584C132.753 62.1204 132.877 62.1204 132.877 62.1204C132.939 62.1204 132.939 62.1204 132.939 62.0584Z" fill="#E5B28F"/>
<path d="M121.764 56.6683C121.764 56.6683 121.889 56.4824 122.013 56.4204C122.137 56.3585 122.385 56.4824 122.323 56.6683C122.261 56.8541 121.702 57.4737 121.702 57.4737C121.702 57.4737 121.516 58.0933 121.454 58.1553C121.454 58.2173 121.578 58.713 121.64 58.8988C121.702 59.0847 121.64 60.5718 121.64 60.6957C121.64 60.8196 121.64 62.0588 121.392 62.0588C121.144 62.0588 119.902 61.687 120.026 61.1914C120.15 60.6957 120.647 57.7216 120.957 57.3498C121.33 56.9161 121.764 56.6683 121.764 56.6683Z" fill="#D8A988"/>
<path d="M121.826 56.6662L122.012 56.4803C122.136 56.4183 122.26 56.4803 122.198 56.6662C122.136 56.7901 122.074 56.852 121.95 56.914C121.95 56.7901 121.888 56.7281 121.826 56.6662Z" fill="#EDC7AE"/>
<path d="M269.567 88.6039C269.567 88.6039 245.631 98.7316 239.412 86.7662C233.192 74.76 233.561 30.1655 256.719 34.4534C279.878 38.7414 297.063 67.0417 284.788 78.6396C280.164 82.6008 275.132 85.9903 269.567 88.6039Z" fill="#A2D855"/>
<path d="M263.799 93.0972C264.085 93.7915 264.331 94.5265 264.495 95.3024C265.845 100.938 271.205 125.604 265.517 141.245C259.053 159.05 259.053 159.05 259.053 159.05L270.796 158.682C270.796 158.682 269.527 157.008 269.609 152.067C269.691 147.411 272.473 131.035 271.737 123.562C271 116.456 268.423 99.9987 266.54 95.2616C264.863 90.9737 264.249 88.891 264.904 87.9517C265.149 87.5842 264.167 89.6669 264.167 89.6669L261.63 87.9925L263.799 93.0972Z" fill="#725D51"/>
<path d="M264.616 89.2166C264.616 89.2166 266.212 82.8868 269.24 76.1077C272.268 69.3287 276.277 65.6942 276.277 65.6942H275.95C275.95 65.6942 272.963 69.0429 272.227 70.023C271.49 71.0031 267.399 78.4355 266.989 79.8239C266.58 81.2533 264.043 89.0124 264.043 89.0124C264.043 89.0124 266.908 68.3895 265.394 66.4701C263.88 64.5507 264.821 60.957 264.821 60.957L264.616 61.0795C264.616 61.0795 263.634 63.3664 264.002 64.7141C264.371 66.0617 264.821 67.5727 264.944 68.3078C265.066 68.9612 264.984 71.8198 264.944 73.2083C264.903 74.27 263.757 85.9087 263.757 85.9087L263.471 88.8899L262.325 81.9066C262.243 81.4166 262.243 80.9674 262.12 80.3957C261.793 78.2313 260.77 71.4931 258.52 68.3486C255.696 64.3874 247.759 62.0596 247.759 62.0596C247.759 62.0596 254.019 66.1434 254.469 66.2251C255.165 66.3884 258.397 69.7371 258.97 71.2889C259.502 72.6365 261.384 81.4166 261.507 81.9883C261.67 82.6826 262.775 88.9715 262.775 88.9715C262.775 88.9715 249.805 69.6962 243.299 70.1455C243.299 70.1455 246.818 71.6156 248.372 73.29C249.927 75.0051 257.824 83.0501 258.192 83.826C258.602 84.6019 261.261 87.6239 261.793 88.6448C262.325 89.6658 262.529 90.0741 262.529 90.0741C262.529 90.0741 262.57 90.1967 263.307 90.36C264.125 90.4417 264.616 89.2166 264.616 89.2166Z" fill="#725D51"/>
<path d="M264.615 61.5704C264.615 61.5704 264.001 60.0186 264.533 59.0793C264.983 58.2218 265.802 57.5684 265.802 57.5684C265.802 57.5684 266.211 58.7935 266.047 59.4877C265.884 60.2228 265.556 60.7945 265.147 61.2029C264.738 61.6113 264.615 61.5704 264.615 61.5704Z" fill="#725D51"/>
<path d="M248.904 62.6317C248.904 62.6317 247.226 62.6726 246.531 61.8558C245.876 61.1207 245.549 60.1406 245.549 60.1406C245.549 60.1406 246.817 60.1815 247.431 60.549C248.045 60.9165 248.495 61.4474 248.74 61.9783C248.986 62.5092 248.904 62.6317 248.904 62.6317Z" fill="#725D51"/>
<path d="M251.236 63.61C251.236 63.61 249.804 62.7933 249.599 61.7315C249.394 60.7922 249.64 59.7305 249.64 59.7305C249.64 59.7305 250.704 60.4247 251.072 61.0781C251.399 61.7315 251.522 62.3849 251.481 62.9566C251.44 63.5284 251.236 63.61 251.236 63.61Z" fill="#725D51"/>
<path d="M252.628 64.5099C252.628 64.5099 251.278 65.49 250.214 65.2042C249.273 64.9591 248.414 64.3466 248.414 64.3466C248.414 64.3466 249.478 63.6523 250.214 63.6523C250.951 63.6523 251.606 63.8157 252.097 64.1016C252.628 64.3874 252.628 64.5099 252.628 64.5099Z" fill="#725D51"/>
<path d="M255.121 66.3891C255.121 66.3891 254.18 67.2058 253.362 67.0833C252.625 66.9608 251.971 66.5524 251.971 66.5524C251.971 66.5524 252.748 65.9807 253.28 65.899C253.812 65.8174 254.303 65.9399 254.712 66.1032C255.08 66.3074 255.121 66.3891 255.121 66.3891Z" fill="#725D51"/>
<path d="M257.005 66.7977C257.005 66.7977 255.941 66.1035 255.859 65.3276C255.777 64.5925 255.982 63.8574 255.982 63.8574C255.982 63.8574 256.759 64.4291 256.964 64.9192C257.168 65.4092 257.209 65.9401 257.168 66.3485C257.087 66.7569 257.005 66.7977 257.005 66.7977Z" fill="#725D51"/>
<path d="M259.583 69.9414C259.583 69.9414 258.846 68.9204 259.01 68.1445C259.174 67.4094 259.624 66.7969 259.624 66.7969C259.624 66.7969 260.156 67.5728 260.197 68.1445C260.238 68.7162 260.115 69.1655 259.91 69.5738C259.706 69.9414 259.583 69.9414 259.583 69.9414Z" fill="#725D51"/>
<path d="M259.501 72.3095C259.501 72.3095 258.274 72.5545 257.66 72.0237C257.087 71.5744 256.719 70.8802 256.719 70.8802C256.719 70.8802 257.66 70.7577 258.192 70.9619C258.683 71.1661 259.092 71.4928 259.337 71.8603C259.583 72.2278 259.501 72.3095 259.501 72.3095Z" fill="#725D51"/>
<path d="M260.974 74.8837C260.974 74.8837 260.646 73.6994 261.055 73.0051C261.465 72.3926 262.119 71.9434 262.119 71.9434C262.119 71.9434 262.324 72.8826 262.201 73.4135C262.037 73.9444 261.751 74.3528 261.424 74.6386C261.096 74.9245 260.974 74.8837 260.974 74.8837Z" fill="#725D51"/>
<path d="M261.874 78.4346C261.874 78.4346 261.423 77.577 261.669 76.9645C261.874 76.4336 262.324 75.9844 262.324 75.9844C262.324 75.9844 262.61 76.6786 262.569 77.087C262.528 77.4954 262.365 77.8629 262.16 78.1488C261.955 78.4346 261.874 78.4346 261.874 78.4346Z" fill="#725D51"/>
<path d="M261.875 82.2336C261.875 82.2336 260.934 81.9886 260.648 81.4169C260.402 80.886 260.361 80.2734 260.361 80.2734C260.361 80.2734 261.057 80.4776 261.384 80.8043C261.671 81.131 261.834 81.4577 261.916 81.8253C261.957 82.1928 261.875 82.2336 261.875 82.2336Z" fill="#725D51"/>
<path d="M260.688 77.8638C260.688 77.8638 259.419 77.7413 258.969 77.0879C258.519 76.4753 258.355 75.7402 258.355 75.7402C258.355 75.7402 259.297 75.8627 259.747 76.1894C260.197 76.5161 260.442 76.9654 260.606 77.3329C260.77 77.7004 260.688 77.8638 260.688 77.8638Z" fill="#725D51"/>
<path d="M243.954 70.2682C243.954 70.2682 242.726 70.5541 242.072 70.1049C241.458 69.6965 241.049 69.0023 241.049 69.0023C241.049 69.0023 241.99 68.8389 242.522 69.0023C243.054 69.1656 243.422 69.4923 243.708 69.819C243.995 70.1457 243.954 70.2682 243.954 70.2682Z" fill="#725D51"/>
<path d="M245.345 70.4735C245.345 70.4735 244.567 70.0243 244.486 69.4934C244.404 69.0034 244.486 68.4316 244.486 68.4316C244.486 68.4316 245.058 68.7992 245.222 69.1259C245.386 69.4526 245.468 69.8201 245.427 70.1468C245.386 70.4327 245.345 70.4735 245.345 70.4735Z" fill="#725D51"/>
<path d="M246.489 71.5756C246.489 71.5756 245.875 72.229 245.302 72.1881C244.77 72.1881 244.279 71.9431 244.279 71.9431C244.279 71.9431 244.77 71.4939 245.139 71.3714C245.507 71.2897 245.875 71.2897 246.161 71.4122C246.448 71.5347 246.489 71.5756 246.489 71.5756Z" fill="#725D51"/>
<path d="M247.717 71.7779C247.717 71.7779 247.021 71.247 246.98 70.6752C246.939 70.1443 247.144 69.6543 247.144 69.6543C247.144 69.6543 247.676 70.1035 247.798 70.471C247.921 70.8386 247.921 71.2061 247.88 71.492C247.798 71.737 247.717 71.7779 247.717 71.7779Z" fill="#725D51"/>
<path d="M248.823 73.3721C248.823 73.3721 248.127 73.9439 247.595 73.8213C247.104 73.7397 246.613 73.413 246.613 73.413C246.613 73.413 247.145 73.0046 247.554 72.9637C247.923 72.9229 248.291 73.0046 248.577 73.1271C248.823 73.2904 248.823 73.3721 248.823 73.3721Z" fill="#725D51"/>
<path d="M250.172 73.7386C250.172 73.7386 249.518 73.1669 249.518 72.5952C249.518 72.0643 249.763 71.5742 249.763 71.5742C249.763 71.5742 250.254 72.0643 250.336 72.4318C250.459 72.7993 250.418 73.1669 250.336 73.4527C250.254 73.7386 250.172 73.7386 250.172 73.7386Z" fill="#725D51"/>
<path d="M250.747 75.5755C250.747 75.5755 249.969 75.9838 249.437 75.8205C248.946 75.6571 248.537 75.2488 248.537 75.2488C248.537 75.2488 249.151 74.9629 249.519 74.9629C249.887 75.0037 250.256 75.1262 250.501 75.2896C250.747 75.4529 250.747 75.5755 250.747 75.5755Z" fill="#725D51"/>
<path d="M252.709 76.2716C252.709 76.2716 252.096 75.6182 252.177 75.0465C252.218 74.5156 252.505 74.0664 252.505 74.0664C252.505 74.0664 252.955 74.5973 252.996 74.9648C253.078 75.3324 252.996 75.6999 252.873 75.9858C252.791 76.2716 252.709 76.2716 252.709 76.2716Z" fill="#725D51"/>
<path d="M254.591 78.4353C254.591 78.4353 253.937 77.5777 254.1 76.8835C254.223 76.2709 254.632 75.6992 254.632 75.6992C254.632 75.6992 255.082 76.3935 255.123 76.8835C255.164 77.3736 255.042 77.7819 254.878 78.1086C254.673 78.4353 254.591 78.4353 254.591 78.4353Z" fill="#725D51"/>
<path d="M255.206 80.1085C255.206 80.1085 254.224 80.8027 253.446 80.5985C252.751 80.4352 252.178 79.9451 252.178 79.9451C252.178 79.9451 252.955 79.4551 253.487 79.4551C254.019 79.4551 254.469 79.5776 254.837 79.7818C255.206 79.986 255.206 80.1085 255.206 80.1085Z" fill="#725D51"/>
<path d="M257.088 81.4573C257.088 81.4573 256.352 80.5181 256.475 79.7422C256.597 79.0479 257.048 78.3945 257.048 78.3945C257.048 78.3945 257.579 79.1296 257.62 79.6605C257.661 80.1914 257.579 80.6814 257.375 81.049C257.17 81.4165 257.088 81.4573 257.088 81.4573Z" fill="#725D51"/>
<path d="M258.398 83.786C258.398 83.786 257.089 84.276 256.311 83.8677C255.616 83.5001 255.043 82.8059 255.043 82.8059C255.043 82.8059 256.066 82.4792 256.639 82.6017C257.212 82.7242 257.703 83.0101 258.071 83.3368C258.439 83.6635 258.398 83.786 258.398 83.786Z" fill="#725D51"/>
<path d="M260.115 85.1732C260.115 85.1732 259.093 84.0706 259.215 83.1314C259.338 82.2738 259.788 81.457 259.788 81.457C259.788 81.457 260.525 82.3555 260.606 83.0089C260.729 83.6622 260.606 84.234 260.402 84.724C260.238 85.1732 260.115 85.1732 260.115 85.1732Z" fill="#725D51"/>
<path d="M253.243 78.068C253.243 78.068 252.424 78.4355 251.933 78.1905C251.442 77.9863 251.074 77.5779 251.074 77.5779C251.074 77.5779 251.688 77.3329 252.097 77.3737C252.506 77.4146 252.793 77.5779 253.038 77.7821C253.243 77.9863 253.243 78.068 253.243 78.068Z" fill="#725D51"/>
<path d="M257.62 69.002C257.62 69.002 256.433 69.4104 255.738 69.002C255.124 68.6344 254.633 67.981 254.633 67.981C254.633 67.981 255.574 67.736 256.106 67.8585C256.638 67.981 257.047 68.2669 257.374 68.5936C257.62 68.8795 257.62 69.002 257.62 69.002Z" fill="#725D51"/>
<path d="M254.06 65.1642C254.06 65.1642 252.71 64.1841 252.628 63.1223C252.547 62.1422 252.874 61.1621 252.874 61.1621C252.874 61.1621 253.856 61.9789 254.101 62.6731C254.347 63.3673 254.388 64.0207 254.265 64.5925C254.142 65.1642 254.06 65.1642 254.06 65.1642Z" fill="#725D51"/>
<path d="M265.189 66.4701C265.189 66.4701 264.821 65.3267 265.23 64.6733C265.598 64.0607 266.212 63.6523 266.212 63.6523C266.212 63.6523 266.458 64.5508 266.294 65.0408C266.171 65.5309 265.885 65.9392 265.558 66.2251C265.271 66.511 265.189 66.4701 265.189 66.4701Z" fill="#725D51"/>
<path d="M264.044 63.3247C264.044 63.3247 263.349 62.998 263.226 62.5488C263.103 62.1404 263.185 61.6504 263.185 61.6504C263.185 61.6504 263.676 61.9363 263.88 62.2221C264.044 62.508 264.126 62.7938 264.126 63.0797C264.085 63.3247 264.044 63.3247 264.044 63.3247Z" fill="#725D51"/>
<path d="M265.762 70.9632C265.762 70.9632 265.598 69.5339 266.212 68.8805C266.785 68.2679 267.603 67.9004 267.603 67.9004C267.603 67.9004 267.685 69.003 267.399 69.5339C267.112 70.1056 266.703 70.514 266.294 70.759C265.885 71.0449 265.762 70.9632 265.762 70.9632Z" fill="#725D51"/>
<path d="M275.991 65.7754C275.991 65.7754 275.909 64.9178 276.318 64.5502C276.687 64.1827 277.178 63.9785 277.178 63.9785C277.178 63.9785 277.178 64.6319 277.014 64.9586C276.85 65.2853 276.605 65.5303 276.318 65.6529C276.032 65.8162 275.991 65.7754 275.991 65.7754Z" fill="#725D51"/>
<path d="M275.172 66.6337C275.172 66.6337 274.559 66.1028 274.559 65.5719C274.559 65.0818 274.763 64.5918 274.763 64.5918C274.763 64.5918 275.213 65.041 275.336 65.3677C275.418 65.7352 275.418 66.062 275.336 66.307C275.254 66.552 275.172 66.6337 275.172 66.6337Z" fill="#725D51"/>
<path d="M274.477 67.5316C274.477 67.5316 273.945 67.3274 273.823 66.9599C273.7 66.6332 273.741 66.2656 273.741 66.2656C273.741 66.2656 274.15 66.4698 274.273 66.674C274.437 66.8782 274.477 67.1232 274.477 67.2866C274.518 67.4907 274.477 67.5316 274.477 67.5316Z" fill="#725D51"/>
<path d="M273.371 68.7164C273.371 68.7164 272.962 68.308 273.003 67.9405C273.044 67.6138 273.207 67.2871 273.207 67.2871C273.207 67.2871 273.494 67.6138 273.576 67.8588C273.617 68.1039 273.617 68.3489 273.535 68.5122C273.453 68.6756 273.371 68.7164 273.371 68.7164Z" fill="#725D51"/>
<path d="M272.717 69.6562C272.717 69.6562 272.226 69.3704 272.144 69.0028C272.062 68.6761 272.144 68.3086 272.144 68.3086C272.144 68.3086 272.512 68.5536 272.635 68.7578C272.758 68.962 272.798 69.207 272.758 69.4112C272.758 69.6562 272.717 69.6562 272.717 69.6562Z" fill="#725D51"/>
<path d="M271.858 70.7587C271.858 70.7587 271.531 70.432 271.572 70.1461C271.613 69.9011 271.736 69.6152 271.736 69.6152C271.736 69.6152 271.981 69.8602 272.022 70.0644C272.063 70.2686 272.022 70.432 271.981 70.5953C271.899 70.7587 271.858 70.7587 271.858 70.7587Z" fill="#725D51"/>
<path d="M271.285 71.7787C271.285 71.7787 270.754 71.4521 270.713 71.0437C270.672 70.6761 270.754 70.3086 270.754 70.3086C270.754 70.3086 271.122 70.5945 271.245 70.8395C271.367 71.0845 271.367 71.3295 271.367 71.5337C271.326 71.7379 271.285 71.7787 271.285 71.7787Z" fill="#725D51"/>
<path d="M270.794 72.8825C270.794 72.8825 270.18 72.8416 269.935 72.5557C269.689 72.2699 269.607 71.9023 269.607 71.9023C269.607 71.9023 270.098 71.9432 270.303 72.1065C270.508 72.2699 270.671 72.4741 270.753 72.6783C270.835 72.8416 270.794 72.8825 270.794 72.8825Z" fill="#725D51"/>
<path d="M269.73 74.5152C269.73 74.5152 269.198 74.2294 269.116 73.821C269.035 73.4535 269.116 73.0859 269.116 73.0859C269.116 73.0859 269.526 73.331 269.648 73.576C269.771 73.821 269.812 74.066 269.812 74.2702C269.771 74.5152 269.73 74.5152 269.73 74.5152Z" fill="#725D51"/>
<path d="M268.871 76.4341C268.871 76.4341 268.052 75.9849 267.93 75.4132C267.807 74.8823 267.93 74.3105 267.93 74.3105C267.93 74.3105 268.543 74.6781 268.707 75.0456C268.912 75.4132 268.952 75.7807 268.952 76.1074C268.952 76.3933 268.871 76.4341 268.871 76.4341Z" fill="#725D51"/>
<path d="M267.685 78.8872C267.685 78.8872 266.867 78.438 266.744 77.8663C266.621 77.3354 266.744 76.7637 266.744 76.7637C266.744 76.7637 267.358 77.1312 267.521 77.4987C267.726 77.8663 267.767 78.2338 267.767 78.5605C267.767 78.8464 267.685 78.8872 267.685 78.8872Z" fill="#725D51"/>
<path d="M275.049 66.8797C275.049 66.8797 275.458 66.4305 275.867 66.4714C276.235 66.4714 276.563 66.6347 276.563 66.6347C276.563 66.6347 276.235 66.9614 275.949 67.0023C275.703 67.0839 275.458 67.0431 275.253 66.9614C275.049 66.9614 275.049 66.8797 275.049 66.8797Z" fill="#725D51"/>
<path d="M273.904 68.2665C273.904 68.2665 274.313 67.8173 274.723 67.8581C275.091 67.8581 275.418 68.0214 275.418 68.0214C275.418 68.0214 275.091 68.3482 274.804 68.389C274.559 68.4707 274.313 68.4298 274.109 68.3481C273.904 68.2665 273.904 68.2665 273.904 68.2665Z" fill="#725D51"/>
<path d="M273.043 69.411C273.043 69.411 273.452 68.9618 273.861 69.0026C274.23 69.0026 274.557 69.166 274.557 69.166C274.557 69.166 274.23 69.4927 273.943 69.5335C273.698 69.6152 273.452 69.5743 273.248 69.4927C273.043 69.4518 273.043 69.411 273.043 69.411Z" fill="#725D51"/>
<path d="M271.652 71.3719C271.652 71.3719 272.062 70.9227 272.471 70.9636C272.839 70.9636 273.166 71.1269 273.166 71.1269C273.166 71.1269 272.839 71.4536 272.553 71.4944C272.266 71.5353 272.062 71.5353 271.857 71.4536C271.652 71.4536 271.652 71.3719 271.652 71.3719Z" fill="#725D51"/>
<path d="M270.057 74.2294C270.057 74.2294 270.466 73.7801 270.875 73.821C271.243 73.821 271.571 73.9843 271.571 73.9843C271.571 73.9843 271.243 74.311 270.957 74.3519C270.67 74.3927 270.466 74.3927 270.261 74.311C270.057 74.311 270.057 74.2294 270.057 74.2294Z" fill="#725D51"/>
<path d="M269.199 76.0262C269.199 76.0262 269.854 75.332 270.509 75.3728C271.081 75.4137 271.613 75.6587 271.613 75.6587C271.613 75.6587 271.081 76.1487 270.672 76.2713C270.263 76.3529 269.854 76.3529 269.567 76.2304C269.199 76.1079 269.199 76.0262 269.199 76.0262Z" fill="#725D51"/>
<path d="M268.094 78.3934C268.094 78.3934 268.748 77.6992 269.403 77.74C269.976 77.7809 270.508 78.0259 270.508 78.0259C270.508 78.0259 269.976 78.5159 269.567 78.6384C269.158 78.7201 268.748 78.7201 268.462 78.5976C268.135 78.4751 268.094 78.3934 268.094 78.3934Z" fill="#725D51"/>
<path d="M267.07 80.8457C267.07 80.8457 267.398 79.9064 267.97 79.7022C268.502 79.498 269.116 79.498 269.116 79.498C269.116 79.498 268.83 80.1923 268.502 80.4373C268.175 80.6823 267.807 80.8457 267.479 80.8865C267.152 80.9274 267.07 80.8457 267.07 80.8457Z" fill="#725D51"/>
<path d="M266.211 83.2539C266.211 83.2539 266.538 82.3146 267.111 82.1104C267.643 81.9062 268.257 81.9062 268.257 81.9062C268.257 81.9062 267.97 82.6005 267.643 82.8455C267.316 83.0905 266.947 83.2539 266.62 83.2947C266.252 83.3356 266.211 83.2539 266.211 83.2539Z" fill="#725D51"/>
<path d="M265.762 85.011C265.762 85.011 266.171 84.3168 266.662 84.2351C267.112 84.1534 267.644 84.2759 267.644 84.2759C267.644 84.2759 267.317 84.8068 266.989 84.9702C266.662 85.1335 266.335 85.1744 266.089 85.1744C265.803 85.0927 265.762 85.011 265.762 85.011Z" fill="#725D51"/>
<path d="M266.416 82.194C266.416 82.194 265.843 81.8265 265.761 81.3773C265.721 80.9689 265.802 80.5605 265.802 80.5605C265.802 80.5605 266.212 80.8464 266.375 81.1323C266.539 81.4181 266.539 81.704 266.498 81.9082C266.498 82.1532 266.416 82.194 266.416 82.194Z" fill="#725D51"/>
<path d="M265.845 83.8247C265.845 83.8247 265.354 83.5797 265.231 83.253C265.149 82.9263 265.19 82.5996 265.19 82.5996C265.19 82.5996 265.558 82.8038 265.681 83.008C265.804 83.2122 265.845 83.4164 265.845 83.6205C265.885 83.7839 265.845 83.8247 265.845 83.8247Z" fill="#725D51"/>
<path d="M272.512 70.2269C272.512 70.2269 272.88 69.9819 273.125 70.0635C273.371 70.1452 273.576 70.3086 273.576 70.3086C273.576 70.3086 273.289 70.4719 273.085 70.4719C272.88 70.4719 272.716 70.4311 272.594 70.3494C272.512 70.2677 272.512 70.2269 272.512 70.2269Z" fill="#725D51"/>
<path d="M270.959 72.514C270.959 72.514 271.327 72.269 271.573 72.3507C271.818 72.4323 272.023 72.5957 272.023 72.5957C272.023 72.5957 271.736 72.759 271.532 72.759C271.327 72.759 271.164 72.7182 271.041 72.6365C270.959 72.5548 270.959 72.514 270.959 72.514Z" fill="#725D51"/>
<path d="M265.639 74.5161C265.639 74.5161 265.516 73.3318 266.048 72.7601C266.539 72.2292 267.194 71.9434 267.194 71.9434C267.194 71.9434 267.235 72.8418 267.03 73.3318C266.826 73.8219 266.458 74.1486 266.089 74.3528C265.721 74.557 265.639 74.5161 265.639 74.5161Z" fill="#725D51"/>
<path d="M265.354 76.9657C265.354 76.9657 265.394 76.149 265.804 75.8223C266.172 75.5364 266.663 75.373 266.663 75.373C266.663 75.373 266.622 75.9856 266.376 76.3123C266.172 76.5982 265.885 76.8024 265.64 76.9249C265.394 77.0474 265.354 76.9657 265.354 76.9657Z" fill="#725D51"/>
<path d="M265.188 68.4291C265.188 68.4291 263.961 68.1841 263.552 67.4899C263.183 66.8365 263.102 66.0605 263.102 66.0605C263.102 66.0605 264.043 66.3056 264.411 66.6731C264.82 67.0406 265.025 67.4899 265.147 67.9391C265.27 68.3474 265.188 68.4291 265.188 68.4291Z" fill="#725D51"/>
<path d="M265.271 72.6784C265.271 72.6784 263.716 72.3517 263.225 71.4941C262.775 70.6774 262.652 69.6973 262.652 69.6973C262.652 69.6973 263.839 69.9831 264.33 70.4732C264.821 70.9632 265.107 71.535 265.271 72.0658C265.353 72.5559 265.271 72.6784 265.271 72.6784Z" fill="#725D51"/>
<path d="M264.984 79.0882C264.984 79.0882 263.838 78.8432 263.47 78.2306C263.142 77.6589 263.061 76.9238 263.061 76.9238C263.061 76.9238 263.92 77.128 264.288 77.4956C264.656 77.8631 264.861 78.2715 264.984 78.639C265.106 79.0065 264.984 79.0882 264.984 79.0882Z" fill="#725D51"/>
<path d="M264.985 75.4955C264.985 75.4955 263.758 75.2505 263.349 74.5563C262.98 73.9029 262.898 73.127 262.898 73.127C262.898 73.127 263.84 73.372 264.249 73.7395C264.658 74.1071 264.862 74.5971 264.985 75.0055C265.067 75.4139 264.985 75.4955 264.985 75.4955Z" fill="#725D51"/>
<path d="M281.064 120.091C281.064 120.091 293.502 126.135 297.144 119.928C300.785 113.72 301.767 89.9938 289.37 91.6273C276.931 93.2608 267.07 107.881 273.249 114.374C275.581 116.62 278.159 118.539 281.064 120.091Z" fill="#A2D855"/>
<path d="M284.012 122.626C283.849 122.993 283.685 123.402 283.562 123.769C282.703 126.75 279.184 139.696 281.762 148.19C284.708 157.828 284.708 157.828 284.708 157.828L278.652 158.114C278.652 158.114 279.184 156.48 279.266 153.826C279.348 151.335 278.325 142.595 278.898 138.634C279.471 134.877 281.394 126.219 282.417 123.728C283.358 121.401 283.685 120.216 283.48 119.89C283.358 119.685 283.849 120.829 283.849 120.829L285.24 120.012L284.012 122.626Z" fill="#725D51"/>
<path d="M283.684 120.542C283.684 120.542 282.988 117.152 281.597 113.436C280.165 109.761 278.119 107.719 278.119 107.719H278.283C278.283 107.719 279.797 109.597 280.165 110.128C280.533 110.659 282.497 114.743 282.702 115.478C282.865 116.254 284.011 120.419 284.011 120.419C284.011 120.419 283.029 109.393 283.888 108.413C284.748 107.433 284.338 105.473 284.338 105.473L284.461 105.513C284.461 105.513 284.911 106.739 284.666 107.474C284.42 108.168 284.134 108.944 284.052 109.352C283.97 109.679 283.929 111.231 283.929 111.966C283.929 112.538 284.216 118.745 284.216 118.745L284.298 120.338L285.075 116.662C285.116 116.417 285.157 116.172 285.198 115.886C285.443 114.743 286.139 111.19 287.448 109.556C289.044 107.515 293.34 106.494 293.34 106.494C293.34 106.494 289.903 108.495 289.658 108.535C289.289 108.617 287.489 110.291 287.121 111.108C286.793 111.802 285.566 116.417 285.484 116.744C285.402 117.111 284.625 120.419 284.625 120.419C284.625 120.419 292.031 110.496 295.468 110.945C295.468 110.945 293.545 111.639 292.685 112.497C291.785 113.354 287.407 117.438 287.162 117.806C286.916 118.214 285.443 119.725 285.116 120.297C284.789 120.828 284.707 121.032 284.707 121.032C284.707 121.032 284.666 121.073 284.298 121.154C283.888 121.195 283.684 120.542 283.684 120.542Z" fill="#725D51"/>
<path d="M284.417 105.84C284.417 105.84 284.786 105.023 284.54 104.533C284.336 104.084 283.885 103.676 283.885 103.676C283.885 103.676 283.64 104.288 283.722 104.697C283.763 105.064 283.967 105.391 284.131 105.636C284.336 105.84 284.417 105.84 284.417 105.84Z" fill="#725D51"/>
<path d="M292.723 106.819C292.723 106.819 293.624 106.86 293.992 106.492C294.36 106.125 294.565 105.594 294.565 105.594C294.565 105.594 293.869 105.594 293.542 105.757C293.214 105.92 292.969 106.206 292.805 106.492C292.682 106.737 292.723 106.819 292.723 106.819Z" fill="#725D51"/>
<path d="M291.457 107.269C291.457 107.269 292.235 106.86 292.398 106.329C292.521 105.839 292.439 105.268 292.439 105.268C292.439 105.268 291.867 105.594 291.662 105.921C291.457 106.248 291.376 106.615 291.416 106.901C291.457 107.187 291.457 107.269 291.457 107.269Z" fill="#725D51"/>
<path d="M290.721 107.718C290.721 107.718 291.416 108.249 291.989 108.167C292.48 108.086 292.971 107.759 292.971 107.759C292.971 107.759 292.398 107.35 292.03 107.35C291.662 107.31 291.294 107.391 291.007 107.514C290.721 107.636 290.721 107.718 290.721 107.718Z" fill="#725D51"/>
<path d="M289.328 108.656C289.328 108.656 289.819 109.105 290.228 109.064C290.637 109.023 291.006 108.819 291.006 108.819C291.006 108.819 290.637 108.492 290.351 108.452C290.065 108.411 289.778 108.452 289.574 108.533C289.369 108.615 289.328 108.656 289.328 108.656Z" fill="#725D51"/>
<path d="M288.347 108.819C288.347 108.819 288.92 108.493 289.002 108.043C289.084 107.676 288.961 107.268 288.961 107.268C288.961 107.268 288.552 107.553 288.388 107.798C288.266 108.043 288.225 108.329 288.225 108.574C288.225 108.819 288.347 108.819 288.347 108.819Z" fill="#725D51"/>
<path d="M286.874 110.415C286.874 110.415 287.283 109.884 287.242 109.475C287.16 109.108 286.955 108.74 286.955 108.74C286.955 108.74 286.669 109.149 286.628 109.434C286.587 109.72 286.669 110.006 286.751 110.21C286.833 110.415 286.874 110.415 286.874 110.415Z" fill="#725D51"/>
<path d="M286.832 111.678C286.832 111.678 287.487 111.841 287.814 111.596C288.141 111.351 288.346 111.025 288.346 111.025C288.346 111.025 287.855 110.943 287.569 111.025C287.282 111.106 287.078 111.27 286.914 111.474C286.832 111.637 286.832 111.678 286.832 111.678Z" fill="#725D51"/>
<path d="M286.015 112.985C286.015 112.985 286.219 112.373 286.015 112.005C285.81 111.679 285.483 111.434 285.483 111.434C285.483 111.434 285.36 111.924 285.401 112.21C285.442 112.495 285.605 112.74 285.769 112.863C285.933 113.026 286.015 112.985 286.015 112.985Z" fill="#725D51"/>
<path d="M285.443 114.863C285.443 114.863 285.688 114.414 285.606 114.088C285.483 113.802 285.279 113.557 285.279 113.557C285.279 113.557 285.115 113.924 285.115 114.128C285.115 114.373 285.197 114.537 285.32 114.7C285.402 114.904 285.443 114.863 285.443 114.863Z" fill="#725D51"/>
<path d="M285.319 116.908C285.319 116.908 285.81 116.826 286.015 116.499C286.178 116.254 286.219 115.928 286.219 115.928C286.219 115.928 285.851 116.009 285.687 116.173C285.524 116.336 285.442 116.499 285.401 116.704C285.278 116.867 285.319 116.908 285.319 116.908Z" fill="#725D51"/>
<path d="M286.055 114.618C286.055 114.618 286.71 114.578 286.996 114.251C287.242 113.965 287.365 113.557 287.365 113.557C287.365 113.557 286.874 113.597 286.628 113.761C286.383 113.924 286.219 114.128 286.137 114.373C286.014 114.578 286.055 114.618 286.055 114.618Z" fill="#725D51"/>
<path d="M295.18 111.025C295.18 111.025 295.835 111.229 296.162 110.984C296.49 110.78 296.735 110.413 296.735 110.413C296.735 110.413 296.244 110.29 295.958 110.372C295.671 110.454 295.467 110.617 295.303 110.78C295.139 110.944 295.18 111.025 295.18 111.025Z" fill="#725D51"/>
<path d="M294.445 111.068C294.445 111.068 294.854 110.863 294.936 110.578C295.018 110.292 294.936 110.006 294.936 110.006C294.936 110.006 294.609 110.169 294.527 110.373C294.404 110.537 294.404 110.741 294.404 110.904C294.404 111.068 294.445 111.068 294.445 111.068Z" fill="#725D51"/>
<path d="M293.789 111.639C293.789 111.639 294.075 112.006 294.403 112.006C294.689 112.006 294.935 111.884 294.935 111.884C294.935 111.884 294.689 111.639 294.485 111.557C294.28 111.475 294.116 111.516 293.953 111.557C293.789 111.598 293.789 111.639 293.789 111.639Z" fill="#725D51"/>
<path d="M293.135 111.72C293.135 111.72 293.503 111.434 293.544 111.148C293.585 110.862 293.503 110.576 293.503 110.576C293.503 110.576 293.216 110.78 293.135 110.985C293.053 111.189 293.053 111.352 293.053 111.515C293.094 111.679 293.135 111.72 293.135 111.72Z" fill="#725D51"/>
<path d="M292.52 112.536C292.52 112.536 292.888 112.863 293.174 112.822C293.461 112.781 293.706 112.658 293.706 112.658C293.706 112.658 293.42 112.413 293.215 112.413C293.011 112.373 292.806 112.413 292.683 112.454C292.52 112.495 292.52 112.536 292.52 112.536Z" fill="#725D51"/>
<path d="M291.784 112.7C291.784 112.7 292.153 112.414 292.153 112.087C292.153 111.801 292.071 111.516 292.071 111.516C292.071 111.516 291.784 111.761 291.744 111.965C291.662 112.169 291.662 112.332 291.703 112.496C291.744 112.659 291.784 112.7 291.784 112.7Z" fill="#725D51"/>
<path d="M291.416 113.68C291.416 113.68 291.825 113.925 292.112 113.844C292.357 113.762 292.603 113.558 292.603 113.558C292.603 113.558 292.275 113.395 292.071 113.395C291.866 113.395 291.702 113.476 291.539 113.558C291.416 113.64 291.416 113.68 291.416 113.68Z" fill="#725D51"/>
<path d="M290.353 113.964C290.353 113.964 290.68 113.637 290.68 113.351C290.68 113.065 290.516 112.82 290.516 112.82C290.516 112.82 290.271 113.065 290.23 113.27C290.189 113.474 290.189 113.678 290.271 113.8C290.312 113.964 290.353 113.964 290.353 113.964Z" fill="#725D51"/>
<path d="M289.286 115.068C289.286 115.068 289.655 114.619 289.614 114.251C289.573 113.924 289.368 113.598 289.368 113.598C289.368 113.598 289.123 113.965 289.082 114.21C289.041 114.455 289.082 114.7 289.204 114.864C289.245 115.068 289.286 115.068 289.286 115.068Z" fill="#725D51"/>
<path d="M288.92 115.924C288.92 115.924 289.452 116.333 289.82 116.21C290.188 116.129 290.516 115.884 290.516 115.884C290.516 115.884 290.106 115.598 289.82 115.598C289.534 115.598 289.288 115.639 289.084 115.761C288.92 115.884 288.92 115.924 288.92 115.924Z" fill="#725D51"/>
<path d="M287.899 116.62C287.899 116.62 288.308 116.13 288.267 115.721C288.226 115.354 288.021 114.986 288.021 114.986C288.021 114.986 287.735 115.354 287.653 115.64C287.571 115.926 287.653 116.171 287.735 116.375C287.817 116.579 287.899 116.62 287.899 116.62Z" fill="#725D51"/>
<path d="M287.119 117.804C287.119 117.804 287.773 118.089 288.223 117.885C288.592 117.681 288.919 117.354 288.919 117.354C288.919 117.354 288.387 117.15 288.06 117.191C287.732 117.232 287.487 117.395 287.282 117.558C287.078 117.722 287.119 117.804 287.119 117.804Z" fill="#725D51"/>
<path d="M286.179 118.499C286.179 118.499 286.752 117.928 286.711 117.437C286.67 116.988 286.465 116.539 286.465 116.539C286.465 116.539 286.056 116.988 285.974 117.315C285.892 117.642 285.933 117.968 286.015 118.254C286.097 118.499 286.179 118.499 286.179 118.499Z" fill="#725D51"/>
<path d="M290.025 114.906C290.025 114.906 290.435 115.11 290.721 115.028C290.966 114.946 291.171 114.701 291.171 114.701C291.171 114.701 290.844 114.538 290.639 114.579C290.435 114.579 290.271 114.66 290.148 114.783C290.025 114.865 290.025 114.906 290.025 114.906Z" fill="#725D51"/>
<path d="M287.938 109.963C287.938 109.963 288.551 110.208 288.92 110.004C289.247 109.841 289.533 109.514 289.533 109.514C289.533 109.514 289.042 109.35 288.756 109.391C288.469 109.432 288.224 109.596 288.06 109.759C287.938 109.922 287.938 109.963 287.938 109.963Z" fill="#725D51"/>
<path d="M289.941 108.043C289.941 108.043 290.677 107.553 290.759 106.982C290.841 106.451 290.677 105.92 290.677 105.92C290.677 105.92 290.145 106.328 289.981 106.696C289.818 107.063 289.818 107.39 289.859 107.717C289.9 108.043 289.941 108.043 289.941 108.043Z" fill="#725D51"/>
<path d="M284.01 108.413C284.01 108.413 284.214 107.801 284.051 107.433C283.887 107.106 283.56 106.861 283.56 106.861C283.56 106.861 283.396 107.311 283.478 107.596C283.519 107.882 283.683 108.086 283.846 108.25C283.928 108.454 284.01 108.413 284.01 108.413Z" fill="#725D51"/>
<path d="M284.707 106.777C284.707 106.777 285.075 106.614 285.157 106.369C285.239 106.165 285.198 105.879 285.198 105.879C285.198 105.879 284.912 106.001 284.83 106.165C284.748 106.328 284.707 106.451 284.666 106.614C284.666 106.777 284.707 106.777 284.707 106.777Z" fill="#725D51"/>
<path d="M283.561 110.78C283.561 110.78 283.684 110.045 283.357 109.677C283.07 109.35 282.661 109.105 282.661 109.105C282.661 109.105 282.579 109.677 282.743 110.004C282.907 110.331 283.07 110.535 283.316 110.698C283.479 110.821 283.561 110.78 283.561 110.78Z" fill="#725D51"/>
<path d="M278.28 107.757C278.28 107.757 278.321 107.308 278.158 107.104C277.994 106.9 277.707 106.777 277.707 106.777C277.707 106.777 277.667 107.104 277.748 107.308C277.83 107.472 277.953 107.635 278.076 107.717C278.239 107.798 278.28 107.757 278.28 107.757Z" fill="#725D51"/>
<path d="M278.691 108.247C278.691 108.247 279.018 107.961 279.059 107.675C279.059 107.43 278.977 107.145 278.977 107.145C278.977 107.145 278.732 107.349 278.65 107.553C278.568 107.716 278.568 107.92 278.609 108.043C278.65 108.247 278.691 108.247 278.691 108.247Z" fill="#725D51"/>
<path d="M279.018 108.739C279.018 108.739 279.304 108.617 279.386 108.453C279.468 108.29 279.427 108.086 279.427 108.086C279.427 108.086 279.222 108.168 279.14 108.29C279.058 108.413 279.018 108.535 279.018 108.617C279.018 108.699 279.018 108.739 279.018 108.739Z" fill="#725D51"/>
<path d="M279.591 109.391C279.591 109.391 279.836 109.187 279.795 108.983C279.795 108.819 279.713 108.615 279.713 108.615C279.713 108.615 279.55 108.779 279.509 108.901C279.468 109.024 279.468 109.146 279.509 109.269C279.55 109.391 279.591 109.391 279.591 109.391Z" fill="#725D51"/>
<path d="M279.918 109.923C279.918 109.923 280.204 109.8 280.245 109.596C280.286 109.433 280.245 109.229 280.245 109.229C280.245 109.229 280.041 109.351 279.959 109.474C279.877 109.596 279.877 109.719 279.877 109.8C279.877 109.923 279.918 109.923 279.918 109.923Z" fill="#725D51"/>
<path d="M280.326 110.534C280.326 110.534 280.49 110.371 280.49 110.208C280.49 110.085 280.408 109.922 280.408 109.922C280.408 109.922 280.286 110.044 280.245 110.167C280.204 110.289 280.245 110.371 280.245 110.453C280.286 110.534 280.326 110.534 280.326 110.534Z" fill="#725D51"/>
<path d="M280.613 111.065C280.613 111.065 280.9 110.902 280.941 110.697C280.981 110.493 280.941 110.289 280.941 110.289C280.941 110.289 280.736 110.412 280.654 110.534C280.572 110.657 280.572 110.779 280.572 110.902C280.572 111.065 280.613 111.065 280.613 111.065Z" fill="#725D51"/>
<path d="M280.818 111.678C280.818 111.678 281.146 111.678 281.268 111.514C281.391 111.351 281.473 111.188 281.473 111.188C281.473 111.188 281.228 111.188 281.105 111.269C280.982 111.351 280.9 111.433 280.859 111.555C280.818 111.678 280.818 111.678 280.818 111.678Z" fill="#725D51"/>
<path d="M281.352 112.575C281.352 112.575 281.638 112.411 281.72 112.207C281.761 112.003 281.72 111.799 281.72 111.799C281.72 111.799 281.516 111.921 281.434 112.044C281.352 112.166 281.311 112.289 281.352 112.411C281.352 112.575 281.352 112.575 281.352 112.575Z" fill="#725D51"/>
<path d="M281.76 113.64C281.76 113.64 282.21 113.436 282.292 113.109C282.373 112.823 282.332 112.537 282.332 112.537C282.332 112.537 282.005 112.741 281.882 112.905C281.76 113.109 281.719 113.272 281.719 113.476C281.719 113.599 281.76 113.64 281.76 113.64Z" fill="#725D51"/>
<path d="M282.33 114.946C282.33 114.946 282.78 114.742 282.862 114.415C282.944 114.13 282.903 113.844 282.903 113.844C282.903 113.844 282.575 114.048 282.453 114.211C282.33 114.415 282.289 114.579 282.289 114.783C282.289 114.946 282.33 114.946 282.33 114.946Z" fill="#725D51"/>
<path d="M278.732 108.372C278.732 108.372 278.528 108.127 278.323 108.127C278.119 108.127 277.955 108.209 277.955 108.209C277.955 108.209 278.119 108.372 278.241 108.413C278.364 108.454 278.528 108.454 278.61 108.413C278.732 108.413 278.732 108.372 278.732 108.372Z" fill="#725D51"/>
<path d="M279.305 109.145C279.305 109.145 279.1 108.9 278.896 108.9C278.691 108.9 278.527 108.982 278.527 108.982C278.527 108.982 278.691 109.145 278.814 109.186C278.937 109.227 279.1 109.227 279.182 109.186C279.305 109.186 279.305 109.145 279.305 109.145Z" fill="#725D51"/>
<path d="M279.754 109.759C279.754 109.759 279.549 109.514 279.345 109.514C279.14 109.514 278.977 109.595 278.977 109.595C278.977 109.595 279.14 109.759 279.263 109.8C279.386 109.84 279.549 109.84 279.631 109.8C279.713 109.8 279.754 109.759 279.754 109.759Z" fill="#725D51"/>
<path d="M280.408 110.862C280.408 110.862 280.204 110.617 279.999 110.617C279.795 110.617 279.631 110.699 279.631 110.699C279.631 110.699 279.795 110.862 279.917 110.903C280.04 110.944 280.204 110.944 280.286 110.903C280.408 110.903 280.408 110.862 280.408 110.862Z" fill="#725D51"/>
<path d="M281.186 112.413C281.186 112.413 280.981 112.168 280.776 112.168C280.572 112.168 280.408 112.25 280.408 112.25C280.408 112.25 280.572 112.413 280.695 112.454C280.817 112.495 280.981 112.495 281.063 112.454C281.186 112.454 281.186 112.413 281.186 112.413Z" fill="#725D51"/>
<path d="M281.597 113.395C281.597 113.395 281.269 112.986 280.942 112.986C280.655 112.986 280.328 113.109 280.328 113.109C280.328 113.109 280.615 113.395 280.819 113.476C281.024 113.558 281.228 113.517 281.433 113.476C281.597 113.436 281.597 113.395 281.597 113.395Z" fill="#725D51"/>
<path d="M282.128 114.66C282.128 114.66 281.8 114.252 281.473 114.252C281.187 114.252 280.859 114.374 280.859 114.374C280.859 114.374 281.146 114.66 281.35 114.742C281.555 114.824 281.76 114.783 281.964 114.742C282.087 114.742 282.128 114.66 282.128 114.66Z" fill="#725D51"/>
<path d="M282.577 116.008C282.577 116.008 282.455 115.518 282.127 115.355C281.841 115.232 281.514 115.191 281.514 115.191C281.514 115.191 281.636 115.559 281.8 115.722C281.964 115.886 282.168 115.967 282.332 115.967C282.577 116.049 282.577 116.008 282.577 116.008Z" fill="#725D51"/>
<path d="M282.988 117.313C282.988 117.313 282.865 116.823 282.538 116.659C282.251 116.537 281.924 116.496 281.924 116.496C281.924 116.496 282.047 116.864 282.21 117.027C282.374 117.19 282.578 117.272 282.742 117.272C282.947 117.354 282.988 117.313 282.988 117.313Z" fill="#725D51"/>
<path d="M283.191 118.253C283.191 118.253 282.986 117.885 282.741 117.803C282.495 117.762 282.209 117.803 282.209 117.803C282.209 117.803 282.373 118.089 282.536 118.171C282.7 118.253 282.864 118.293 283.027 118.293C283.15 118.293 283.191 118.253 283.191 118.253Z" fill="#725D51"/>
<path d="M282.904 116.742C282.904 116.742 283.232 116.579 283.272 116.334C283.313 116.13 283.272 115.885 283.272 115.885C283.272 115.885 283.027 116.048 282.945 116.171C282.863 116.293 282.863 116.456 282.863 116.579C282.863 116.702 282.904 116.742 282.904 116.742Z" fill="#725D51"/>
<path d="M283.193 117.642C283.193 117.642 283.48 117.519 283.521 117.356C283.561 117.192 283.562 116.988 283.562 116.988C283.562 116.988 283.357 117.07 283.275 117.192C283.193 117.315 283.152 117.397 283.152 117.519C283.152 117.601 283.193 117.642 283.193 117.642Z" fill="#725D51"/>
<path d="M279.999 110.208C279.999 110.208 279.794 110.086 279.671 110.086C279.549 110.127 279.426 110.208 279.426 110.208C279.426 110.208 279.589 110.29 279.671 110.331C279.753 110.372 279.876 110.331 279.917 110.29C279.999 110.249 279.999 110.208 279.999 110.208Z" fill="#725D51"/>
<path d="M280.737 111.474C280.737 111.474 280.532 111.352 280.41 111.352C280.287 111.392 280.164 111.474 280.164 111.474C280.164 111.474 280.328 111.556 280.41 111.597C280.491 111.637 280.614 111.597 280.655 111.556C280.737 111.515 280.737 111.474 280.737 111.474Z" fill="#725D51"/>
<path d="M283.518 112.699C283.518 112.699 283.6 112.086 283.354 111.76C283.109 111.474 282.741 111.311 282.741 111.311C282.741 111.311 282.7 111.801 282.782 112.046C282.904 112.291 283.068 112.495 283.232 112.617C283.477 112.74 283.518 112.699 283.518 112.699Z" fill="#725D51"/>
<path d="M283.602 114.008C283.602 114.008 283.602 113.559 283.397 113.395C283.193 113.232 282.947 113.15 282.947 113.15C282.947 113.15 282.947 113.477 283.07 113.64C283.193 113.804 283.315 113.926 283.438 113.967C283.602 114.049 283.602 114.008 283.602 114.008Z" fill="#725D51"/>
<path d="M283.926 109.473C283.926 109.473 284.581 109.392 284.826 109.024C285.031 108.697 285.113 108.289 285.113 108.289C285.113 108.289 284.622 108.371 284.376 108.575C284.172 108.779 284.008 108.983 283.967 109.228C283.885 109.433 283.926 109.473 283.926 109.473Z" fill="#725D51"/>
<path d="M283.764 111.72C283.764 111.72 284.582 111.597 284.869 111.148C285.114 110.74 285.237 110.209 285.237 110.209C285.237 110.209 284.623 110.331 284.337 110.577C284.051 110.822 283.887 111.107 283.805 111.393C283.723 111.679 283.764 111.72 283.764 111.72Z" fill="#725D51"/>
<path d="M283.765 115.149C283.765 115.149 284.379 115.068 284.583 114.741C284.788 114.455 284.829 114.047 284.829 114.047C284.829 114.047 284.379 114.129 284.174 114.333C283.969 114.496 283.847 114.741 283.765 114.945C283.683 115.149 283.765 115.149 283.765 115.149Z" fill="#725D51"/>
<path d="M283.846 113.229C283.846 113.229 284.501 113.148 284.746 112.78C284.951 112.453 285.033 112.045 285.033 112.045C285.033 112.045 284.542 112.127 284.296 112.331C284.092 112.535 283.928 112.78 283.887 112.984C283.805 113.188 283.846 113.229 283.846 113.229Z" fill="#725D51"/>
<path d="M256.024 121.887C256.024 121.887 243.299 127.277 239.984 120.907C236.67 114.536 238.266 95.1791 250.623 97.466C262.979 99.7529 270.672 110.411 264.125 116.578C261.67 118.701 258.97 120.498 256.024 121.887Z" fill="#B3DD68"/>
<path d="M252.912 124.217C253.117 124.666 253.239 125.115 253.362 125.605C254.139 128.832 256.881 141.695 253.894 149.945C250.457 159.419 250.457 159.419 250.457 159.419L256.717 159.215C256.717 159.215 256.022 158.316 256.103 155.703C256.144 153.212 257.617 144.513 257.208 140.552C256.84 136.754 255.326 128.056 254.467 125.483C253.648 123.114 253.403 121.889 253.608 121.603C253.73 121.399 253.198 122.502 253.198 122.502L251.848 121.603L252.912 124.217Z" fill="#725D51"/>
<path d="M253.404 122.216C253.404 122.216 254.263 118.826 255.859 115.232C257.455 111.598 259.623 109.678 259.623 109.678H259.46C259.46 109.678 257.864 111.475 257.455 111.965C257.046 112.455 254.877 116.457 254.673 117.193C254.468 117.928 253.118 122.093 253.118 122.093C253.118 122.093 254.632 111.108 253.854 110.087C253.036 109.066 253.527 107.146 253.527 107.146L253.404 107.187C253.404 107.187 252.872 108.412 253.077 109.107C253.281 109.842 253.527 110.618 253.568 111.026C253.609 111.394 253.609 112.905 253.568 113.64C253.568 114.211 252.954 120.419 252.954 120.419L252.79 122.011L252.177 118.295C252.136 118.009 252.136 117.805 252.095 117.478C251.931 116.335 251.399 112.741 250.172 111.067C248.658 108.943 244.443 107.718 244.443 107.718C244.443 107.718 247.799 109.883 248.003 109.923C248.371 110.005 250.09 111.802 250.417 112.619C250.704 113.313 251.727 118.009 251.767 118.336C251.849 118.703 252.422 122.052 252.422 122.052C252.422 122.052 245.507 111.802 242.07 112.047C242.07 112.047 243.952 112.823 244.771 113.721C245.589 114.62 249.803 118.908 250.008 119.316C250.213 119.724 251.645 121.317 251.931 121.889C252.218 122.42 252.299 122.665 252.299 122.665C252.299 122.665 252.34 122.706 252.709 122.828C253.118 122.869 253.404 122.216 253.404 122.216Z" fill="#725D51"/>
<path d="M253.363 107.512C253.363 107.512 253.036 106.695 253.323 106.164C253.568 105.715 254.018 105.348 254.018 105.348C254.018 105.348 254.223 106.001 254.141 106.369C254.059 106.736 253.895 107.063 253.65 107.267C253.404 107.471 253.363 107.512 253.363 107.512Z" fill="#725D51"/>
<path d="M245.017 108.084C245.017 108.084 244.117 108.084 243.749 107.676C243.421 107.308 243.217 106.777 243.217 106.777C243.217 106.777 243.912 106.818 244.24 107.022C244.567 107.227 244.813 107.512 244.935 107.798C245.099 108.002 245.017 108.084 245.017 108.084Z" fill="#725D51"/>
<path d="M246.286 108.614C246.286 108.614 245.509 108.165 245.386 107.634C245.304 107.144 245.386 106.572 245.386 106.572C245.386 106.572 245.959 106.94 246.122 107.266C246.286 107.593 246.368 107.961 246.327 108.287C246.327 108.573 246.286 108.614 246.286 108.614Z" fill="#725D51"/>
<path d="M247.022 109.062C247.022 109.062 246.285 109.593 245.754 109.43C245.263 109.308 244.812 108.981 244.812 108.981C244.812 108.981 245.385 108.613 245.794 108.613C246.163 108.613 246.531 108.695 246.776 108.858C247.022 109.022 247.022 109.062 247.022 109.062Z" fill="#725D51"/>
<path d="M248.332 110.086C248.332 110.086 247.841 110.536 247.391 110.454C247.023 110.413 246.654 110.168 246.654 110.168C246.654 110.168 247.063 109.841 247.35 109.8C247.636 109.76 247.923 109.8 248.127 109.923C248.332 110.005 248.332 110.086 248.332 110.086Z" fill="#725D51"/>
<path d="M249.315 110.288C249.315 110.288 248.743 109.921 248.702 109.512C248.661 109.145 248.784 108.736 248.784 108.736C248.784 108.736 249.193 109.022 249.315 109.308C249.438 109.594 249.438 109.839 249.438 110.084C249.397 110.288 249.315 110.288 249.315 110.288Z" fill="#725D51"/>
<path d="M250.704 111.963C250.704 111.963 250.295 111.433 250.418 111.024C250.499 110.657 250.745 110.289 250.745 110.289C250.745 110.289 251.031 110.697 251.031 111.024C251.031 111.31 250.99 111.596 250.868 111.759C250.745 111.963 250.704 111.963 250.704 111.963Z" fill="#725D51"/>
<path d="M250.662 113.229C250.662 113.229 250.008 113.351 249.68 113.106C249.394 112.861 249.189 112.493 249.189 112.493C249.189 112.493 249.68 112.412 249.967 112.534C250.253 112.657 250.458 112.82 250.581 113.024C250.703 113.188 250.662 113.229 250.662 113.229Z" fill="#725D51"/>
<path d="M251.441 114.577C251.441 114.577 251.237 113.924 251.482 113.597C251.687 113.27 252.055 113.025 252.055 113.025C252.055 113.025 252.178 113.515 252.096 113.801C252.014 114.087 251.85 114.291 251.687 114.455C251.523 114.618 251.441 114.577 251.441 114.577Z" fill="#725D51"/>
<path d="M251.933 116.496C251.933 116.496 251.687 116.047 251.81 115.72C251.933 115.434 252.178 115.189 252.178 115.189C252.178 115.189 252.342 115.557 252.301 115.761C252.26 116.006 252.178 116.17 252.096 116.333C251.973 116.496 251.933 116.496 251.933 116.496Z" fill="#725D51"/>
<path d="M251.934 118.497C251.934 118.497 251.443 118.375 251.279 118.089C251.156 117.803 251.115 117.477 251.115 117.477C251.115 117.477 251.484 117.599 251.647 117.762C251.811 117.926 251.893 118.13 251.934 118.293C251.974 118.497 251.934 118.497 251.934 118.497Z" fill="#725D51"/>
<path d="M251.276 116.212C251.276 116.212 250.622 116.171 250.376 115.803C250.131 115.477 250.049 115.068 250.049 115.068C250.049 115.068 250.54 115.15 250.785 115.313C251.031 115.477 251.154 115.722 251.235 115.926C251.317 116.13 251.276 116.212 251.276 116.212Z" fill="#725D51"/>
<path d="M242.399 112.127C242.399 112.127 241.744 112.291 241.417 112.046C241.089 111.8 240.885 111.474 240.885 111.474C240.885 111.474 241.376 111.392 241.662 111.474C241.949 111.555 242.153 111.719 242.276 111.923C242.399 112.086 242.399 112.127 242.399 112.127Z" fill="#725D51"/>
<path d="M243.136 112.249C243.136 112.249 242.727 112.004 242.686 111.718C242.645 111.432 242.686 111.146 242.686 111.146C242.686 111.146 242.973 111.351 243.095 111.514C243.177 111.677 243.218 111.882 243.218 112.045C243.177 112.208 243.136 112.249 243.136 112.249Z" fill="#725D51"/>
<path d="M243.749 112.821C243.749 112.821 243.422 113.148 243.135 113.148C242.849 113.148 242.604 113.025 242.604 113.025C242.604 113.025 242.849 112.78 243.054 112.74C243.258 112.699 243.463 112.699 243.586 112.74C243.708 112.78 243.749 112.821 243.749 112.821Z" fill="#725D51"/>
<path d="M244.403 112.942C244.403 112.942 244.035 112.656 243.994 112.371C243.994 112.085 244.076 111.799 244.076 111.799C244.076 111.799 244.362 112.044 244.403 112.207C244.485 112.411 244.485 112.575 244.444 112.738C244.444 112.942 244.403 112.942 244.403 112.942Z" fill="#725D51"/>
<path d="M244.976 113.802C244.976 113.802 244.607 114.088 244.321 114.047C244.035 114.006 243.789 113.843 243.789 113.843C243.789 113.843 244.075 113.639 244.28 113.598C244.485 113.557 244.689 113.598 244.812 113.68C244.976 113.761 244.976 113.802 244.976 113.802Z" fill="#725D51"/>
<path d="M245.713 113.964C245.713 113.964 245.345 113.637 245.386 113.351C245.386 113.065 245.509 112.82 245.509 112.82C245.509 112.82 245.754 113.065 245.836 113.27C245.877 113.474 245.877 113.678 245.836 113.8C245.795 113.923 245.713 113.964 245.713 113.964Z" fill="#725D51"/>
<path d="M245.999 114.985C245.999 114.985 245.59 115.23 245.304 115.107C245.058 115.026 244.812 114.822 244.812 114.822C244.812 114.822 245.14 114.658 245.344 114.658C245.549 114.658 245.713 114.74 245.876 114.822C245.999 114.944 245.999 114.985 245.999 114.985Z" fill="#725D51"/>
<path d="M247.063 115.352C247.063 115.352 246.736 115.026 246.777 114.699C246.818 114.413 246.941 114.168 246.941 114.168C246.941 114.168 247.186 114.454 247.186 114.658C247.227 114.862 247.186 115.066 247.145 115.189C247.104 115.311 247.063 115.352 247.063 115.352Z" fill="#725D51"/>
<path d="M248.046 116.498C248.046 116.498 247.718 116.048 247.8 115.681C247.882 115.354 248.087 115.068 248.087 115.068C248.087 115.068 248.332 115.436 248.332 115.681C248.332 115.926 248.291 116.171 248.209 116.334C248.087 116.498 248.046 116.498 248.046 116.498Z" fill="#725D51"/>
<path d="M248.371 117.354C248.371 117.354 247.839 117.722 247.43 117.599C247.062 117.517 246.734 117.272 246.734 117.272C246.734 117.272 247.144 117.027 247.43 117.027C247.716 117.027 247.962 117.109 248.166 117.191C248.371 117.272 248.371 117.354 248.371 117.354Z" fill="#725D51"/>
<path d="M249.395 118.089C249.395 118.089 248.986 117.599 249.067 117.19C249.149 116.823 249.354 116.496 249.354 116.496C249.354 116.496 249.64 116.904 249.681 117.19C249.722 117.476 249.64 117.721 249.558 117.925C249.436 118.089 249.395 118.089 249.395 118.089Z" fill="#725D51"/>
<path d="M250.091 119.314C250.091 119.314 249.396 119.559 248.987 119.355C248.618 119.151 248.332 118.783 248.332 118.783C248.332 118.783 248.864 118.62 249.191 118.661C249.519 118.702 249.764 118.865 249.928 119.069C250.091 119.273 250.091 119.314 250.091 119.314Z" fill="#725D51"/>
<path d="M250.992 120.091C250.992 120.091 250.46 119.478 250.542 118.988C250.583 118.539 250.869 118.09 250.869 118.09C250.869 118.09 251.237 118.58 251.319 118.907C251.36 119.233 251.319 119.56 251.196 119.805C251.074 120.05 250.992 120.091 250.992 120.091Z" fill="#725D51"/>
<path d="M247.308 116.291C247.308 116.291 246.899 116.496 246.612 116.373C246.367 116.251 246.162 116.046 246.162 116.046C246.162 116.046 246.489 115.924 246.694 115.924C246.899 115.924 247.062 116.046 247.185 116.128C247.349 116.251 247.308 116.291 247.308 116.291Z" fill="#725D51"/>
<path d="M249.641 111.474C249.641 111.474 249.027 111.679 248.659 111.474C248.331 111.27 248.086 110.944 248.086 110.944C248.086 110.944 248.577 110.821 248.863 110.862C249.15 110.903 249.354 111.066 249.518 111.229C249.682 111.393 249.641 111.474 249.641 111.474Z" fill="#725D51"/>
<path d="M247.759 109.432C247.759 109.432 247.063 108.901 247.022 108.329C246.981 107.798 247.145 107.268 247.145 107.268C247.145 107.268 247.677 107.717 247.8 108.043C247.922 108.411 247.963 108.779 247.881 109.064C247.841 109.391 247.759 109.432 247.759 109.432Z" fill="#725D51"/>
<path d="M253.691 110.126C253.691 110.126 253.487 109.513 253.732 109.146C253.937 108.819 254.264 108.574 254.264 108.574C254.264 108.574 254.387 109.064 254.305 109.309C254.223 109.595 254.1 109.799 253.937 109.963C253.732 110.126 253.691 110.126 253.691 110.126Z" fill="#725D51"/>
<path d="M253.078 108.451C253.078 108.451 252.709 108.288 252.668 108.043C252.587 107.798 252.627 107.553 252.627 107.553C252.627 107.553 252.914 107.716 252.996 107.839C253.077 107.961 253.118 108.165 253.118 108.288C253.118 108.41 253.078 108.451 253.078 108.451Z" fill="#725D51"/>
<path d="M254.019 112.495C254.019 112.495 253.937 111.719 254.264 111.392C254.551 111.066 255.001 110.861 255.001 110.861C255.001 110.861 255.042 111.433 254.878 111.719C254.714 112.005 254.51 112.25 254.305 112.372C254.06 112.536 254.019 112.495 254.019 112.495Z" fill="#725D51"/>
<path d="M259.419 109.758C259.419 109.758 259.378 109.308 259.583 109.104C259.788 108.9 260.033 108.818 260.033 108.818C260.033 108.818 260.033 109.145 259.951 109.349C259.869 109.513 259.706 109.635 259.583 109.717C259.46 109.758 259.419 109.758 259.419 109.758Z" fill="#725D51"/>
<path d="M259.009 110.206C259.009 110.206 258.682 109.92 258.682 109.634C258.682 109.389 258.804 109.104 258.804 109.104C258.804 109.104 259.05 109.349 259.091 109.512C259.132 109.716 259.132 109.879 259.091 110.002C259.05 110.124 259.009 110.206 259.009 110.206Z" fill="#725D51"/>
<path d="M258.644 110.655C258.644 110.655 258.357 110.533 258.316 110.369C258.275 110.206 258.275 110.002 258.275 110.002C258.275 110.002 258.48 110.084 258.562 110.206C258.644 110.329 258.685 110.451 258.685 110.533C258.685 110.615 258.644 110.655 258.644 110.655Z" fill="#725D51"/>
<path d="M258.028 111.309C258.028 111.309 257.824 111.105 257.824 110.901C257.824 110.737 257.906 110.533 257.906 110.533C257.906 110.533 258.069 110.697 258.11 110.819C258.151 110.942 258.11 111.064 258.069 111.187C258.028 111.309 258.028 111.309 258.028 111.309Z" fill="#725D51"/>
<path d="M257.7 111.841C257.7 111.841 257.414 111.677 257.374 111.514C257.333 111.351 257.374 111.146 257.374 111.146C257.374 111.146 257.578 111.269 257.619 111.392C257.7 111.514 257.7 111.637 257.7 111.759C257.7 111.8 257.7 111.841 257.7 111.841Z" fill="#725D51"/>
<path d="M257.251 112.411C257.251 112.411 257.088 112.248 257.088 112.085C257.088 111.962 257.17 111.799 257.17 111.799C257.17 111.799 257.292 111.921 257.292 112.044C257.292 112.166 257.292 112.248 257.251 112.33C257.251 112.411 257.251 112.411 257.251 112.411Z" fill="#725D51"/>
<path d="M256.923 112.944C256.923 112.944 256.636 112.781 256.595 112.576C256.555 112.372 256.636 112.168 256.636 112.168C256.636 112.168 256.841 112.331 256.923 112.454C257.005 112.576 257.005 112.699 257.005 112.821C257.005 112.944 256.923 112.944 256.923 112.944Z" fill="#725D51"/>
<path d="M256.68 113.515C256.68 113.515 256.353 113.515 256.23 113.352C256.107 113.189 256.066 112.984 256.066 112.984C256.066 112.984 256.312 113.025 256.435 113.107C256.557 113.189 256.639 113.311 256.68 113.393C256.68 113.515 256.68 113.515 256.68 113.515Z" fill="#725D51"/>
<path d="M256.105 114.415C256.105 114.415 255.819 114.251 255.778 114.047C255.737 113.843 255.778 113.639 255.778 113.639C255.778 113.639 255.983 113.761 256.064 113.884C256.146 114.006 256.146 114.129 256.146 114.251C256.146 114.374 256.105 114.415 256.105 114.415Z" fill="#725D51"/>
<path d="M255.656 115.435C255.656 115.435 255.206 115.19 255.165 114.904C255.124 114.618 255.165 114.332 255.165 114.332C255.165 114.332 255.492 114.536 255.574 114.74C255.697 114.945 255.697 115.149 255.697 115.312C255.697 115.475 255.656 115.435 255.656 115.435Z" fill="#725D51"/>
<path d="M255.042 116.741C255.042 116.741 254.592 116.496 254.551 116.21C254.51 115.925 254.551 115.639 254.551 115.639C254.551 115.639 254.879 115.843 254.961 116.047C255.083 116.251 255.083 116.455 255.083 116.619C255.083 116.782 255.042 116.741 255.042 116.741Z" fill="#725D51"/>
<path d="M258.93 110.33C258.93 110.33 259.134 110.085 259.38 110.126C259.584 110.126 259.748 110.207 259.748 110.207C259.748 110.207 259.584 110.371 259.421 110.412C259.257 110.452 259.134 110.452 259.052 110.412C258.93 110.371 258.93 110.33 258.93 110.33Z" fill="#725D51"/>
<path d="M258.316 111.064C258.316 111.064 258.521 110.819 258.766 110.86C258.971 110.86 259.135 110.942 259.135 110.942C259.135 110.942 258.971 111.105 258.807 111.146C258.644 111.187 258.521 111.187 258.439 111.146C258.316 111.105 258.316 111.064 258.316 111.064Z" fill="#725D51"/>
<path d="M257.865 111.678C257.865 111.678 258.07 111.433 258.315 111.473C258.52 111.473 258.684 111.555 258.684 111.555C258.684 111.555 258.52 111.718 258.356 111.759C258.193 111.8 258.07 111.8 257.988 111.759C257.865 111.718 257.865 111.678 257.865 111.678Z" fill="#725D51"/>
<path d="M257.129 112.74C257.129 112.74 257.334 112.495 257.579 112.536C257.784 112.536 257.947 112.618 257.947 112.618C257.947 112.618 257.784 112.781 257.62 112.822C257.497 112.863 257.333 112.863 257.252 112.822C257.17 112.781 257.129 112.74 257.129 112.74Z" fill="#725D51"/>
<path d="M256.27 114.25C256.27 114.25 256.474 114.005 256.72 114.046C256.924 114.046 257.088 114.127 257.088 114.127C257.088 114.127 256.924 114.291 256.761 114.331C256.638 114.372 256.474 114.372 256.392 114.331C256.27 114.291 256.27 114.25 256.27 114.25Z" fill="#725D51"/>
<path d="M255.818 115.19C255.818 115.19 256.187 114.822 256.514 114.822C256.8 114.822 257.128 114.986 257.128 114.986C257.128 114.986 256.841 115.271 256.637 115.312C256.432 115.353 256.228 115.353 256.023 115.271C255.818 115.231 255.818 115.19 255.818 115.19Z" fill="#725D51"/>
<path d="M255.246 116.455C255.246 116.455 255.614 116.088 255.942 116.088C256.228 116.088 256.555 116.251 256.555 116.251C256.555 116.251 256.269 116.537 256.064 116.578C255.86 116.619 255.655 116.619 255.451 116.537C255.246 116.455 255.246 116.455 255.246 116.455Z" fill="#725D51"/>
<path d="M254.715 117.762C254.715 117.762 254.878 117.272 255.165 117.15C255.451 117.027 255.779 117.027 255.779 117.027C255.779 117.027 255.615 117.395 255.451 117.517C255.288 117.64 255.083 117.722 254.919 117.762C254.756 117.803 254.715 117.762 254.715 117.762Z" fill="#725D51"/>
<path d="M254.223 119.069C254.223 119.069 254.386 118.579 254.673 118.456C254.959 118.334 255.286 118.334 255.286 118.334C255.286 118.334 255.123 118.702 254.959 118.824C254.795 118.947 254.591 119.028 254.427 119.069C254.264 119.069 254.223 119.069 254.223 119.069Z" fill="#725D51"/>
<path d="M253.979 120.009C253.979 120.009 254.183 119.641 254.47 119.6C254.715 119.559 255.001 119.6 255.001 119.6C255.001 119.6 254.838 119.886 254.633 119.968C254.429 120.049 254.306 120.09 254.142 120.049C254.019 120.049 253.979 120.009 253.979 120.009Z" fill="#725D51"/>
<path d="M254.347 118.498C254.347 118.498 254.019 118.294 254.019 118.049C253.978 117.845 254.06 117.6 254.06 117.6C254.06 117.6 254.306 117.763 254.347 117.926C254.428 118.09 254.428 118.212 254.428 118.335C254.388 118.457 254.347 118.498 254.347 118.498Z" fill="#725D51"/>
<path d="M254.019 119.356C254.019 119.356 253.732 119.234 253.691 119.03C253.65 118.866 253.65 118.662 253.65 118.662C253.65 118.662 253.855 118.785 253.937 118.866C254.019 118.989 254.019 119.111 254.019 119.193C254.06 119.356 254.019 119.356 254.019 119.356Z" fill="#725D51"/>
<path d="M257.578 112.127C257.578 112.127 257.783 112.005 257.905 112.045C258.028 112.086 258.151 112.168 258.151 112.168C258.151 112.168 257.987 112.25 257.905 112.25C257.824 112.25 257.701 112.209 257.66 112.168C257.578 112.127 257.578 112.127 257.578 112.127Z" fill="#725D51"/>
<path d="M256.76 113.311C256.76 113.311 256.964 113.188 257.087 113.229C257.21 113.27 257.333 113.352 257.333 113.352C257.333 113.352 257.169 113.433 257.087 113.433C257.005 113.433 256.882 113.392 256.842 113.352C256.801 113.311 256.76 113.311 256.76 113.311Z" fill="#725D51"/>
<path d="M253.937 114.414C253.937 114.414 253.855 113.801 254.141 113.475C254.387 113.189 254.755 113.025 254.755 113.025C254.755 113.025 254.796 113.515 254.673 113.76C254.55 114.005 254.346 114.21 254.182 114.291C253.978 114.414 253.937 114.414 253.937 114.414Z" fill="#725D51"/>
<path d="M253.773 115.721C253.773 115.721 253.773 115.272 254.019 115.108C254.224 114.945 254.469 114.863 254.469 114.863C254.469 114.863 254.428 115.19 254.346 115.353C254.224 115.517 254.101 115.598 253.937 115.68C253.814 115.721 253.773 115.721 253.773 115.721Z" fill="#725D51"/>
<path d="M253.691 111.147C253.691 111.147 253.036 111.024 252.831 110.657C252.627 110.33 252.586 109.881 252.586 109.881C252.586 109.881 253.077 110.003 253.282 110.208C253.486 110.412 253.609 110.657 253.691 110.861C253.732 111.106 253.691 111.147 253.691 111.147Z" fill="#725D51"/>
<path d="M253.733 113.433C253.733 113.433 252.915 113.269 252.628 112.779C252.383 112.33 252.342 111.84 252.342 111.84C252.342 111.84 252.956 112.003 253.242 112.248C253.528 112.493 253.651 112.82 253.733 113.106C253.815 113.392 253.733 113.433 253.733 113.433Z" fill="#725D51"/>
<path d="M253.568 116.823C253.568 116.823 252.954 116.701 252.75 116.374C252.586 116.047 252.545 115.68 252.545 115.68C252.545 115.68 252.995 115.802 253.2 115.966C253.404 116.17 253.527 116.374 253.568 116.578C253.609 116.782 253.568 116.823 253.568 116.823Z" fill="#725D51"/>
<path d="M253.568 114.905C253.568 114.905 252.913 114.782 252.708 114.415C252.504 114.088 252.463 113.639 252.463 113.639C252.463 113.639 252.954 113.761 253.158 113.965C253.363 114.17 253.486 114.415 253.568 114.619C253.609 114.864 253.568 114.905 253.568 114.905Z" fill="#725D51"/>
</svg>
