<svg width="343" height="203" viewBox="0 0 343 203" fill="none" xmlns="http://www.w3.org/2000/svg">
<path d="M175 195C258.395 195 326 188.956 326 181.5C326 174.044 258.395 168 175 168C91.605 168 24 174.044 24 181.5C24 188.956 91.605 195 175 195Z" fill="#F3F3F3"/>
<path d="M216.476 103.691L228.904 115.296C230.722 117.036 231.705 119.355 231.635 121.821L230.722 141.982L230.266 175.199H242.54L240.496 128.125L240.04 121.889C239.815 118.556 241.1 115.29 243.677 112.965L253.83 103.684L255.193 102.381H248.824L239.654 110.216C239.5 110.364 239.275 110.216 239.275 110.068L239.352 98.1738H232.914L232.991 110.579C232.991 110.794 232.766 110.868 232.611 110.726L219.881 101.083L214.349 101.23L216.469 103.697L216.476 103.691Z" fill="#937F6F"/>
<path d="M265.955 102.602C259.06 104.194 227.155 102.602 204.875 102.312C203.738 102.312 202.601 102.165 201.463 101.95C194.112 100.357 189.871 96.0024 187.294 90.2028C186.381 88.1732 185.931 85.996 186.008 83.7451C186.163 78.7388 188.206 74.5321 192.377 71.3401C189.575 66.8443 188.136 61.6966 189.344 55.6756C189.8 53.4984 190.706 51.4689 191.843 49.6545C195.178 44.433 199.272 40.3739 205.107 38.8487C209.2 27.8952 217.156 23.1103 226.55 20.355C235.566 18.9774 242.089 21.6589 246.857 27.5323C263.224 25.5765 271.938 31.8866 270.73 49.0703C280.356 54.6547 283.916 61.8381 283.839 69.8887C289.217 73.6587 291.415 78.2283 291.19 83.376C290.811 90.6271 285.657 96.9372 278.537 99.4772C274.675 100.855 270.73 101.654 268.609 101.943C267.697 102.233 266.79 102.38 265.955 102.595V102.602Z" fill="#DEF2AF"/>
<path d="M266.337 105.357C259.589 106.883 228.14 105.357 206.24 105.068C205.103 105.068 203.966 104.921 202.905 104.706C195.708 103.113 191.46 98.9059 188.961 93.1739C188.048 91.1444 187.598 88.9672 187.675 86.8638C187.83 81.9314 189.796 77.7985 193.889 74.6803C191.088 70.2583 189.719 65.1783 190.933 59.231C191.39 57.1277 192.219 55.0981 193.433 53.2838C196.691 48.1361 200.785 44.1446 206.465 42.6931C210.482 31.9611 218.36 27.1701 227.53 24.4886C236.398 23.1109 242.837 25.7924 247.464 31.5244C263.606 29.5686 272.165 35.8049 270.957 52.7057C280.429 58.2162 283.989 65.2521 283.919 73.2289C289.22 76.9251 291.418 81.4271 291.116 86.501C290.737 93.6782 285.66 99.8469 278.688 102.313C274.896 103.691 271.034 104.416 268.914 104.779C268.078 104.927 267.249 105.142 266.337 105.357Z" fill="#A9D661"/>
<path fill-rule="evenodd" clip-rule="evenodd" d="M283.268 187.664L271.816 187.566L276.691 135.113L278.44 135.185L283.268 187.664Z" fill="#D1EEF2"/>
<path d="M277.578 152.288C288.514 152.288 297.378 143.776 297.378 133.276C297.378 122.776 288.514 114.264 277.578 114.264C266.643 114.264 257.778 122.776 257.778 133.276C257.778 143.776 266.643 152.288 277.578 152.288Z" fill="#1ECAD3"/>
<path d="M264.932 131.786C264.491 131.786 264.079 131.891 263.709 132.078V129.373H262.21V134.613C262.27 136.056 263.467 137.207 264.928 137.207C266.389 137.207 267.65 135.993 267.65 134.494C267.65 132.996 266.431 131.781 264.928 131.781L264.932 131.786ZM264.932 135.718C264.257 135.718 263.709 135.172 263.709 134.499C263.709 133.826 264.257 133.28 264.932 133.28C265.607 133.28 266.155 133.826 266.155 134.499C266.155 135.172 265.607 135.718 264.932 135.718Z" fill="white"/>
<path d="M269.4 131.951C268.988 131.951 268.653 132.286 268.653 132.696L268.568 137.161H270.232L270.147 132.696C270.147 132.286 269.812 131.951 269.4 131.951Z" fill="white"/>
<path d="M274.122 131.785C272.653 131.785 271.455 132.979 271.455 134.443V137.165H272.954V134.443C272.954 133.8 273.481 133.279 274.122 133.279C274.763 133.279 275.289 133.804 275.289 134.443V137.165H276.788V134.443C276.788 132.979 275.591 131.785 274.122 131.785Z" fill="white"/>
<path d="M269.398 131.358C269.956 131.358 270.409 130.907 270.409 130.351C270.409 129.795 269.956 129.344 269.398 129.344C268.84 129.344 268.388 129.795 268.388 130.351C268.388 130.907 268.84 131.358 269.398 131.358Z" fill="white"/>
<path d="M285.555 131.358C286.113 131.358 286.565 130.907 286.565 130.351C286.565 129.795 286.113 129.344 285.555 129.344C284.996 129.344 284.544 129.795 284.544 130.351C284.544 130.907 284.996 131.358 285.555 131.358Z" fill="white"/>
<path d="M290.275 131.785C288.805 131.785 287.608 132.979 287.608 134.443V137.165H289.107V134.443C289.107 133.8 289.633 133.279 290.275 133.279C290.916 133.279 291.442 133.804 291.442 134.443V137.165H292.941V134.443C292.941 132.979 291.744 131.785 290.275 131.785Z" fill="white"/>
<path d="M281.085 131.786C280.644 131.786 280.232 131.891 279.862 132.078V129.373H278.363V134.613C278.423 136.056 279.62 137.207 281.081 137.207C282.542 137.207 283.803 135.993 283.803 134.494C283.803 132.996 282.584 131.781 281.081 131.781L281.085 131.786ZM281.085 135.718C280.41 135.718 279.862 135.172 279.862 134.499C279.862 133.826 280.41 133.28 281.085 133.28C281.76 133.28 282.308 133.826 282.308 134.499C282.308 135.172 281.76 135.718 281.085 135.718Z" fill="white"/>
<path d="M285.553 131.951C285.141 131.951 284.806 132.286 284.806 132.696L284.721 137.161H286.385L286.3 132.696C286.3 132.286 285.965 131.951 285.553 131.951Z" fill="white"/>
<path fill-rule="evenodd" clip-rule="evenodd" d="M254.71 164.506C255.228 164.792 255.417 165.44 255.13 165.949L251.388 172.6C251.193 172.921 250.842 173.145 250.452 173.145H232.686C232.106 173.145 231.623 172.663 231.623 172.085C231.623 171.506 232.106 171.025 232.686 171.025H249.808L253.228 164.918C253.549 164.403 254.193 164.242 254.71 164.5V164.506Z" fill="#3DBCC8"/>
<path fill-rule="evenodd" clip-rule="evenodd" d="M227.694 173.958C228.562 173.958 229.303 173.254 229.303 172.354C229.303 171.455 228.596 170.75 227.694 170.75C226.791 170.75 226.084 171.455 226.084 172.354C226.084 173.254 226.826 173.958 227.694 173.958ZM227.694 176.078C229.757 176.078 231.435 174.405 231.435 172.349C231.435 170.292 229.757 168.619 227.694 168.619C225.63 168.619 223.952 170.292 223.952 172.349C223.952 174.405 225.63 176.078 227.694 176.078Z" fill="#20505A"/>
<path fill-rule="evenodd" clip-rule="evenodd" d="M258.194 173.958C259.062 173.958 259.803 173.254 259.803 172.354C259.803 171.455 259.096 170.75 258.194 170.75C257.291 170.75 256.584 171.455 256.584 172.354C256.584 173.254 257.326 173.958 258.194 173.958ZM258.194 176.078C260.257 176.078 261.935 174.405 261.935 172.349C261.935 170.292 260.257 168.619 258.194 168.619C256.13 168.619 254.452 170.292 254.452 172.349C254.452 174.405 256.13 176.078 258.194 176.078Z" fill="#20505A"/>
<path fill-rule="evenodd" clip-rule="evenodd" d="M250.36 151.525C250.906 151.267 251.521 151.525 251.779 152.041L252.297 153.135C252.555 153.679 252.297 154.292 251.779 154.55C251.233 154.808 250.618 154.55 250.36 154.034L249.842 152.94C249.584 152.424 249.808 151.783 250.36 151.525Z" fill="#20505A"/>
<path fill-rule="evenodd" clip-rule="evenodd" d="M252.266 161.94L254.524 167.663C254.651 167.984 254.978 168.437 255.231 168.626C255.616 168.883 256.007 168.946 256.455 168.689C256.973 168.305 256.812 167.211 256.421 166.34L255.938 165.246L252.26 156.28L249.133 148.438L247.524 149.274L252.266 161.934V161.94Z" fill="#65C8D0"/>
<path fill-rule="evenodd" clip-rule="evenodd" d="M249.689 148.879C249.569 148.839 249.327 148.931 249.327 148.931L249.862 150.306L250.063 150.226C250.063 150.226 250.046 149.005 249.683 148.879H249.689Z" fill="#1A1A1A"/>
<path fill-rule="evenodd" clip-rule="evenodd" d="M247.523 149.274L245.587 144.004C245.713 144.004 244.908 143.969 244.426 144.198C244.167 144.324 243.523 144.68 243.426 144.582C243.069 144.422 242.845 144.198 242.811 143.746C242.811 143.328 243.069 143.133 243.426 143.07L245.713 142.875L245.615 142.457L243.874 142.583L243.811 142.296L246.196 142.102L246.42 143.064C246.839 143.098 247.196 143.259 247.454 143.74L249.133 148.432L247.518 149.268L247.523 149.274Z" fill="#1A1A1A"/>
<g opacity="0.96">
<path d="M251.78 157.34C251.717 157.375 251.654 157.403 251.585 157.466L251.39 157.014L251.131 157.111L251.487 158.01C251.585 158.268 251.872 158.366 252.131 158.268C252.39 158.171 252.516 157.884 252.418 157.627C252.321 157.369 252.033 157.243 251.775 157.34H251.78ZM252.068 158.016C251.941 158.051 251.809 158.016 251.78 157.89C251.746 157.764 251.78 157.632 251.907 157.604C252.033 157.575 252.165 157.604 252.194 157.73C252.229 157.856 252.16 157.988 252.068 158.016Z" fill="white"/>
<path d="M252.907 160.107C252.648 160.204 252.522 160.491 252.648 160.749L252.844 161.23L253.102 161.133L252.907 160.651C252.872 160.554 252.907 160.428 253.033 160.365C253.131 160.33 253.257 160.365 253.321 160.491L253.516 160.972L253.775 160.875L253.579 160.394C253.453 160.136 253.16 160.01 252.901 160.107H252.907Z" fill="white"/>
<path d="M252.425 158.95C252.361 158.984 252.327 159.047 252.361 159.144L252.649 159.918L252.936 159.792L252.614 159.018C252.58 158.984 252.516 158.921 252.419 158.955L252.425 158.95Z" fill="white"/>
<path d="M252.326 158.888C252.434 158.888 252.521 158.8 252.521 158.693C252.521 158.585 252.434 158.498 252.326 158.498C252.218 158.498 252.13 158.585 252.13 158.693C252.13 158.8 252.218 158.888 252.326 158.888Z" fill="white"/>
<path d="M249.977 152.907C249.913 152.941 249.85 152.97 249.781 153.033L249.586 152.58L249.327 152.677L249.683 153.577C249.781 153.835 250.069 153.932 250.327 153.835C250.586 153.737 250.712 153.451 250.615 153.193C250.517 152.935 250.229 152.809 249.971 152.907H249.977ZM250.235 153.583C250.109 153.617 249.977 153.583 249.948 153.457C249.913 153.331 249.948 153.199 250.074 153.17C250.201 153.141 250.333 153.17 250.362 153.296C250.425 153.422 250.362 153.554 250.235 153.583Z" fill="white"/>
<path d="M251.103 155.673C250.844 155.771 250.718 156.057 250.844 156.315L251.04 156.796L251.298 156.699L251.103 156.218C251.069 156.12 251.103 155.994 251.229 155.931C251.356 155.868 251.454 155.931 251.517 156.057L251.712 156.539L251.971 156.441L251.776 155.96C251.615 155.702 251.356 155.576 251.097 155.673H251.103Z" fill="white"/>
<path d="M250.622 154.518C250.559 154.552 250.524 154.615 250.559 154.712L250.846 155.486L251.133 155.36L250.811 154.586C250.777 154.552 250.685 154.523 250.616 154.523L250.622 154.518Z" fill="white"/>
<path d="M250.523 154.454C250.63 154.454 250.718 154.367 250.718 154.259C250.718 154.152 250.63 154.064 250.523 154.064C250.415 154.064 250.327 154.152 250.327 154.259C250.327 154.367 250.415 154.454 250.523 154.454Z" fill="white"/>
</g>
<path fill-rule="evenodd" clip-rule="evenodd" d="M243.917 142.302L244.238 142.268L244.434 142.56L243.917 142.623L243.819 142.331L243.917 142.302Z" fill="#1A1A1A"/>
<path fill-rule="evenodd" clip-rule="evenodd" d="M245.155 168.289C245.816 168.662 246.063 169.481 245.69 170.14L240.902 178.653C240.655 179.065 240.201 179.351 239.707 179.351H216.981C216.24 179.351 215.619 178.733 215.619 177.994C215.619 177.255 216.24 176.636 216.981 176.636H238.885L243.258 168.822C243.672 168.163 244.494 167.957 245.155 168.289Z" fill="#3DBCC8"/>
<path fill-rule="evenodd" clip-rule="evenodd" d="M210.589 180.376C211.704 180.376 212.653 179.47 212.653 178.319C212.653 177.167 211.745 176.262 210.589 176.262C209.434 176.262 208.526 177.167 208.526 178.319C208.526 179.47 209.474 180.376 210.589 180.376ZM210.589 183.091C213.227 183.091 215.377 180.954 215.377 178.319C215.377 175.684 213.233 173.547 210.589 173.547C207.946 173.547 205.802 175.684 205.802 178.319C205.802 180.954 207.946 183.091 210.589 183.091Z" fill="#20505A"/>
<path fill-rule="evenodd" clip-rule="evenodd" d="M249.609 180.376C250.724 180.376 251.672 179.47 251.672 178.319C251.672 177.167 250.764 176.262 249.609 176.262C248.454 176.262 247.546 177.167 247.546 178.319C247.546 179.47 248.494 180.376 249.609 180.376ZM249.609 183.091C252.247 183.091 254.396 180.954 254.396 178.319C254.396 175.684 252.253 173.547 249.609 173.547C246.965 173.547 244.821 175.684 244.821 178.319C244.821 180.954 246.965 183.091 249.609 183.091Z" fill="#20505A"/>
<path fill-rule="evenodd" clip-rule="evenodd" d="M239.584 151.681C240.285 151.354 241.066 151.681 241.4 152.34L242.061 153.737C242.388 154.436 242.061 155.215 241.4 155.548C240.699 155.874 239.917 155.548 239.584 154.889L238.923 153.491C238.595 152.832 238.882 152.013 239.584 151.681Z" fill="#20505A"/>
<path fill-rule="evenodd" clip-rule="evenodd" d="M242.022 164.999L244.907 172.314C245.074 172.727 245.482 173.3 245.815 173.546C246.31 173.873 246.804 173.959 247.384 173.626C248.045 173.134 247.838 171.736 247.344 170.624L246.723 169.227L242.022 157.758L238.022 147.727L235.958 148.798L242.022 164.999Z" fill="#65C8D0"/>
<path fill-rule="evenodd" clip-rule="evenodd" d="M238.727 148.295C238.572 148.243 238.267 148.358 238.267 148.358L238.957 150.116L239.215 150.013C239.215 150.013 239.192 148.449 238.727 148.295Z" fill="#1A1A1A"/>
<path fill-rule="evenodd" clip-rule="evenodd" d="M235.957 148.799L233.48 142.056C233.647 142.056 232.612 142.016 231.997 142.302C231.669 142.468 230.842 142.921 230.721 142.795C230.267 142.589 229.98 142.302 229.939 141.724C229.939 141.191 230.267 140.945 230.721 140.859L233.652 140.612L233.526 140.08L231.296 140.246L231.215 139.873L234.267 139.627L234.555 140.859C235.089 140.899 235.543 141.105 235.877 141.724L238.02 147.727L235.957 148.799Z" fill="#1A1A1A"/>
<g opacity="0.96">
<path d="M241.399 159.122C241.318 159.162 241.232 159.202 241.151 159.288L240.904 158.715L240.577 158.841L241.031 159.992C241.157 160.319 241.525 160.445 241.858 160.319C242.186 160.193 242.353 159.826 242.232 159.494C242.105 159.167 241.738 159.001 241.404 159.122H241.399ZM241.772 159.987C241.605 160.027 241.445 159.987 241.399 159.82C241.358 159.654 241.399 159.494 241.565 159.448C241.732 159.402 241.893 159.448 241.939 159.614C241.979 159.78 241.899 159.941 241.772 159.987Z" fill="white"/>
<path d="M242.843 162.656C242.516 162.782 242.349 163.149 242.516 163.481L242.763 164.1L243.09 163.974L242.843 163.355C242.803 163.229 242.843 163.069 243.01 162.983C243.136 162.943 243.297 162.983 243.384 163.149L243.631 163.768L243.958 163.642L243.711 163.023C243.544 162.696 243.177 162.53 242.843 162.65V162.656Z" fill="white"/>
<path d="M242.221 161.177C242.14 161.217 242.094 161.303 242.14 161.424L242.514 162.409L242.887 162.243L242.474 161.257C242.433 161.217 242.347 161.131 242.227 161.177H242.221Z" fill="white"/>
<path d="M242.1 161.092C242.237 161.092 242.347 160.982 242.347 160.846C242.347 160.71 242.237 160.6 242.1 160.6C241.964 160.6 241.853 160.71 241.853 160.846C241.853 160.982 241.964 161.092 242.1 161.092Z" fill="white"/>
<path d="M239.09 153.444C239.009 153.484 238.923 153.524 238.843 153.61L238.596 153.037L238.268 153.163L238.722 154.315C238.849 154.641 239.216 154.767 239.55 154.641C239.877 154.515 240.044 154.148 239.923 153.816C239.797 153.49 239.429 153.324 239.096 153.444H239.09ZM239.418 154.309C239.251 154.349 239.09 154.309 239.044 154.143C239.004 153.977 239.044 153.816 239.211 153.77C239.377 153.725 239.538 153.77 239.584 153.937C239.665 154.103 239.584 154.263 239.418 154.309Z" fill="white"/>
<path d="M240.531 156.984C240.204 157.11 240.037 157.477 240.204 157.809L240.451 158.428L240.778 158.302L240.531 157.683C240.491 157.557 240.531 157.397 240.698 157.311C240.865 157.225 240.985 157.311 241.072 157.477L241.319 158.096L241.646 157.97L241.399 157.351C241.192 157.024 240.865 156.858 240.531 156.979V156.984Z" fill="white"/>
<path d="M239.913 155.5C239.832 155.54 239.786 155.626 239.832 155.746L240.206 156.732L240.579 156.566L240.166 155.58C240.125 155.54 239.999 155.5 239.918 155.5H239.913Z" fill="white"/>
<path d="M239.792 155.42C239.929 155.42 240.039 155.31 240.039 155.174C240.039 155.038 239.929 154.928 239.792 154.928C239.656 154.928 239.545 155.038 239.545 155.174C239.545 155.31 239.656 155.42 239.792 155.42Z" fill="white"/>
</g>
<path fill-rule="evenodd" clip-rule="evenodd" d="M231.337 139.88L231.745 139.84L231.998 140.206L231.337 140.292L231.211 139.92L231.337 139.88Z" fill="#1A1A1A"/>
<path fill-rule="evenodd" clip-rule="evenodd" d="M234.396 171.539C235.207 171.992 235.511 173.006 235.057 173.813L229.177 184.274C228.873 184.778 228.315 185.134 227.706 185.134H199.779C198.866 185.134 198.107 184.377 198.107 183.466C198.107 182.556 198.866 181.799 199.779 181.799H226.695L232.068 172.198C232.574 171.39 233.591 171.138 234.402 171.539H234.396Z" fill="#3DBCC8"/>
<path fill-rule="evenodd" clip-rule="evenodd" d="M191.923 186.395C193.291 186.395 194.458 185.283 194.458 183.868C194.458 182.453 193.343 181.342 191.923 181.342C190.503 181.342 189.388 182.453 189.388 183.868C189.388 185.283 190.555 186.395 191.923 186.395ZM191.923 189.729C195.165 189.729 197.803 187.099 197.803 183.868C197.803 180.637 195.165 178.008 191.923 178.008C188.682 178.008 186.043 180.637 186.043 183.868C186.043 187.099 188.682 189.729 191.923 189.729Z" fill="#20505A"/>
<path fill-rule="evenodd" clip-rule="evenodd" d="M239.875 186.395C241.243 186.395 242.41 185.283 242.41 183.868C242.41 182.453 241.295 181.342 239.875 181.342C238.456 181.342 237.341 182.453 237.341 183.868C237.341 185.283 238.507 186.395 239.875 186.395ZM239.875 189.729C243.117 189.729 245.755 187.099 245.755 183.868C245.755 180.637 243.117 178.008 239.875 178.008C236.634 178.008 233.996 180.637 233.996 183.868C233.996 187.099 236.634 189.729 239.875 189.729Z" fill="#20505A"/>
<path fill-rule="evenodd" clip-rule="evenodd" d="M227.558 151.128C228.42 150.722 229.38 151.128 229.788 151.936L230.599 153.655C231.007 154.514 230.599 155.471 229.788 155.878C228.926 156.284 227.966 155.878 227.558 155.07L226.748 153.351C226.34 152.543 226.696 151.535 227.558 151.128Z" fill="#20505A"/>
<path fill-rule="evenodd" clip-rule="evenodd" d="M230.546 167.497L234.092 176.491C234.294 176.995 234.799 177.705 235.207 178.009C235.817 178.416 236.426 178.513 237.133 178.112C237.943 177.505 237.69 175.786 237.081 174.423L236.322 172.704L230.546 158.606L225.632 146.277L223.098 147.589L230.546 167.497Z" fill="#65C8D0"/>
<path fill-rule="evenodd" clip-rule="evenodd" d="M226.5 146.971C226.311 146.908 225.937 147.051 225.937 147.051L226.782 149.211L227.104 149.085C227.104 149.085 227.075 147.166 226.506 146.971H226.5Z" fill="#1A1A1A"/>
<path fill-rule="evenodd" clip-rule="evenodd" d="M223.096 147.589L220.056 139.305C220.257 139.305 218.992 139.254 218.234 139.609C217.826 139.809 216.814 140.365 216.665 140.216C216.107 139.964 215.751 139.609 215.699 138.904C215.699 138.245 216.107 137.942 216.665 137.844L220.263 137.541L220.113 136.882L217.377 137.082L217.274 136.63L221.027 136.326L221.383 137.844C222.044 137.896 222.602 138.148 223.004 138.904L225.642 146.283L223.108 147.595L223.096 147.589Z" fill="#1A1A1A"/>
<g opacity="0.96">
<path d="M229.786 160.274C229.682 160.325 229.585 160.377 229.481 160.474L229.177 159.77L228.769 159.918L229.326 161.333C229.475 161.74 229.935 161.889 230.338 161.74C230.746 161.591 230.947 161.133 230.792 160.732C230.642 160.325 230.182 160.125 229.78 160.279L229.786 160.274ZM230.24 161.333C230.039 161.385 229.832 161.333 229.786 161.133C229.734 160.932 229.786 160.726 229.987 160.68C230.188 160.635 230.395 160.68 230.441 160.881C230.493 161.081 230.389 161.288 230.24 161.333Z" fill="white"/>
<path d="M231.557 164.615C231.149 164.764 230.947 165.222 231.149 165.623L231.453 166.379L231.861 166.23L231.557 165.474C231.505 165.325 231.557 165.119 231.758 165.022C231.907 164.97 232.114 165.022 232.212 165.222L232.517 165.978L232.925 165.829L232.62 165.073C232.419 164.666 231.959 164.466 231.557 164.621V164.615Z" fill="white"/>
<path d="M230.797 162.799C230.693 162.851 230.647 162.948 230.693 163.103L231.147 164.317L231.601 164.117L231.095 162.902C231.044 162.851 230.946 162.753 230.791 162.799H230.797Z" fill="white"/>
<path d="M230.648 162.697C230.816 162.697 230.952 162.561 230.952 162.393C230.952 162.226 230.816 162.09 230.648 162.09C230.48 162.09 230.343 162.226 230.343 162.393C230.343 162.561 230.48 162.697 230.648 162.697Z" fill="white"/>
<path d="M226.946 153.301C226.843 153.353 226.745 153.404 226.641 153.502L226.337 152.797L225.929 152.946L226.486 154.361C226.636 154.768 227.095 154.917 227.498 154.768C227.906 154.619 228.107 154.16 227.952 153.759C227.802 153.353 227.343 153.152 226.94 153.307L226.946 153.301ZM227.354 154.361C227.153 154.412 226.946 154.361 226.9 154.16C226.848 153.96 226.9 153.754 227.101 153.708C227.302 153.662 227.509 153.708 227.555 153.908C227.659 154.109 227.555 154.315 227.354 154.361Z" fill="white"/>
<path d="M228.721 157.644C228.313 157.793 228.112 158.251 228.313 158.652L228.617 159.409L229.025 159.26L228.721 158.503C228.669 158.354 228.721 158.148 228.922 158.051C229.123 157.953 229.278 158.051 229.376 158.251L229.681 159.008L230.089 158.859L229.784 158.102C229.531 157.696 229.123 157.495 228.721 157.65V157.644Z" fill="white"/>
<path d="M227.958 155.828C227.854 155.88 227.808 155.977 227.854 156.132L228.308 157.346L228.762 157.146L228.257 155.931C228.205 155.88 228.055 155.828 227.952 155.828H227.958Z" fill="white"/>
<path d="M227.809 155.724C227.977 155.724 228.114 155.588 228.114 155.421C228.114 155.253 227.977 155.117 227.809 155.117C227.641 155.117 227.504 155.253 227.504 155.421C227.504 155.588 227.641 155.724 227.809 155.724Z" fill="white"/>
</g>
<path fill-rule="evenodd" clip-rule="evenodd" d="M217.418 136.63L217.924 136.578L218.228 137.031L217.418 137.134L217.263 136.681L217.418 136.63Z" fill="#1A1A1A"/>
<g clip-path="url(#clip0_15230_85049)">
<path d="M97.2019 109.104C101.549 110.296 95.6512 116.154 98.5877 131.528C100.12 139.533 93.136 159.031 95.871 167.986C96.6158 170.432 91.5487 168.558 89.9737 168.656C91.1275 166.733 91.4816 162.688 91.1092 159.859C90.1019 152.114 91.0847 138.372 91.6647 134.375L89.876 115.875L97.2019 109.104Z" fill="#FFD2C1"/>
<path d="M99.2896 168.638C99.7841 167.202 99.9734 164.045 99.5582 160.608C99.3995 159.3 99.314 157.98 99.3384 156.659C99.4789 149.019 99.7902 140.836 100.926 132.307C101.023 131.814 100.73 130.731 100.73 130.731C100.73 130.731 96.9514 110.972 96.0906 106.233L94.8086 101.117L102.611 98.166C105.669 111.154 108.563 124.642 107.379 130.743V131.042C106.921 139.011 104.381 148.574 103.319 160.492C103.258 161.192 103.349 162.579 103.398 163.278C103.398 163.351 103.41 163.424 103.41 163.497L103.539 167.89C101.774 168.76 100.205 169.356 99.2896 168.626V168.638Z" fill="#FFD2C1"/>
<path d="M97.4765 48.8828L102.116 49.2782C100.633 52.3261 100.242 55.1793 101.719 57.2477L95.4985 56.7549C97.0797 55.082 98.0626 51.5413 97.4704 48.8828H97.4765Z" fill="#FFD2C1"/>
<path fill-rule="evenodd" clip-rule="evenodd" d="M154.24 152.375C155.821 153.264 156.413 155.229 155.522 156.804L144.069 177.166C143.477 178.151 142.39 178.839 141.206 178.839H86.8113C85.0348 178.839 83.5513 177.361 83.5513 175.59C83.5513 173.82 85.0348 172.342 86.8113 172.342H139.234L149.698 153.653C150.687 152.077 152.659 151.585 154.24 152.375Z" fill="#3DBCC8"/>
<path fill-rule="evenodd" clip-rule="evenodd" d="M71.5124 181.297C74.1802 181.297 76.4513 179.132 76.4513 176.376C76.4513 173.62 74.2779 171.454 71.5124 171.454C68.7469 171.454 66.5735 173.62 66.5735 176.376C66.5735 179.132 68.8445 181.297 71.5124 181.297ZM71.5124 187.788C77.831 187.788 82.9652 182.672 82.9652 176.376C82.9652 170.079 77.831 164.963 71.5124 164.963C65.1938 164.963 60.0596 170.079 60.0596 176.376C60.0596 182.672 65.1938 187.788 71.5124 187.788Z" fill="#20505A"/>
<path fill-rule="evenodd" clip-rule="evenodd" d="M164.899 181.297C167.567 181.297 169.838 179.132 169.838 176.376C169.838 173.62 167.665 171.454 164.899 171.454C162.134 171.454 159.96 173.62 159.96 176.376C159.96 179.132 162.231 181.297 164.899 181.297ZM164.899 187.788C171.218 187.788 176.352 182.672 176.352 176.376C176.352 170.079 171.218 164.963 164.899 164.963C158.581 164.963 153.446 170.079 153.446 176.376C153.446 182.672 158.581 187.788 164.899 187.788Z" fill="#20505A"/>
<path fill-rule="evenodd" clip-rule="evenodd" d="M140.913 112.632C142.592 111.847 144.466 112.632 145.26 114.208L146.841 117.554C147.629 119.227 146.841 121.094 145.26 121.885C143.581 122.67 141.707 121.885 140.913 120.309L139.332 116.963C138.545 115.388 139.234 113.423 140.913 112.632Z" fill="#20505A"/>
<path fill-rule="evenodd" clip-rule="evenodd" d="M146.737 144.503L153.648 162.012C154.045 162.997 155.028 164.372 155.821 164.962C157.006 165.747 158.19 165.948 159.57 165.157C161.151 163.977 160.656 160.631 159.472 157.978L157.989 154.633L146.737 127.183L137.159 103.178L132.22 105.733L146.731 144.491L146.737 144.503Z" fill="#65C8D0"/>
<path fill-rule="evenodd" clip-rule="evenodd" d="M138.856 104.529C138.489 104.408 137.757 104.681 137.757 104.681L139.399 108.891L140.022 108.648C140.022 108.648 139.961 104.906 138.856 104.535V104.529Z" fill="#1A1A1A"/>
<path fill-rule="evenodd" clip-rule="evenodd" d="M132.226 105.746L126.304 89.6123C126.701 89.6123 124.229 89.515 122.751 90.2024C121.964 90.5978 119.986 91.6807 119.693 91.3826C118.606 90.8899 117.916 90.2024 117.818 88.8275C117.818 87.55 118.606 86.9599 119.693 86.7591L126.701 86.169L126.402 84.8915L121.072 85.2869L120.877 84.3987L128.185 83.8086L128.874 86.7591C130.156 86.8565 131.243 87.3492 132.031 88.8275L137.165 103.191L132.226 105.746Z" fill="#1A1A1A"/>
<g opacity="0.96">
<path d="M145.254 130.438C145.058 130.536 144.857 130.633 144.661 130.834L144.069 129.459L143.282 129.757L144.368 132.513C144.668 133.298 145.553 133.596 146.34 133.298C147.128 133 147.525 132.118 147.232 131.333C146.932 130.548 146.047 130.153 145.26 130.445L145.254 130.438ZM146.145 132.507C145.748 132.604 145.357 132.507 145.254 132.111C145.156 131.716 145.254 131.327 145.65 131.223C146.047 131.126 146.438 131.223 146.542 131.619C146.639 132.014 146.444 132.403 146.145 132.507Z" fill="white"/>
<path d="M148.709 138.895C147.921 139.193 147.525 140.076 147.921 140.86L148.514 142.339L149.301 142.041L148.709 140.562C148.611 140.264 148.709 139.875 149.106 139.674C149.405 139.577 149.796 139.674 149.997 140.07L150.589 141.548L151.377 141.25L150.785 139.771C150.388 138.987 149.503 138.591 148.709 138.883V138.895Z" fill="white"/>
<path d="M147.231 135.355C147.036 135.452 146.932 135.653 147.036 135.945L147.927 138.306L148.819 137.91L147.83 135.55C147.732 135.452 147.531 135.252 147.238 135.355H147.231Z" fill="white"/>
<path d="M146.933 135.159C147.26 135.159 147.525 134.895 147.525 134.569C147.525 134.243 147.26 133.979 146.933 133.979C146.605 133.979 146.34 134.243 146.34 134.569C146.34 134.895 146.605 135.159 146.933 135.159Z" fill="white"/>
<path d="M139.729 116.86C139.533 116.958 139.332 117.055 139.137 117.256L138.544 115.881L137.757 116.179L138.844 118.935C139.143 119.72 140.028 120.018 140.815 119.72C141.603 119.421 142 118.539 141.707 117.755C141.408 116.97 140.522 116.574 139.735 116.866L139.729 116.86ZM140.516 118.929C140.119 119.026 139.729 118.929 139.625 118.533C139.527 118.138 139.625 117.749 140.022 117.645C140.419 117.542 140.809 117.645 140.913 118.041C141.108 118.436 140.913 118.825 140.516 118.929Z" fill="white"/>
<path d="M143.184 125.323C142.397 125.621 142 126.503 142.397 127.288L142.989 128.766L143.776 128.468L143.184 126.99C143.086 126.692 143.184 126.303 143.581 126.102C143.978 125.907 144.271 126.102 144.472 126.497L145.064 127.976L145.852 127.677L145.26 126.199C144.765 125.414 143.978 125.019 143.184 125.311V125.323Z" fill="white"/>
<path d="M141.701 121.781C141.505 121.879 141.402 122.079 141.505 122.371L142.397 124.732L143.288 124.336L142.299 121.976C142.201 121.879 141.902 121.781 141.707 121.781H141.701Z" fill="white"/>
<path d="M141.408 121.581C141.735 121.581 142 121.316 142 120.99C142 120.665 141.735 120.4 141.408 120.4C141.081 120.4 140.815 120.665 140.815 120.99C140.815 121.316 141.081 121.581 141.408 121.581Z" fill="white"/>
</g>
<path d="M104.387 67.2786L107.055 71.9994C107.452 72.6869 107.946 73.277 108.539 73.7697L120.486 82.8221C121.67 83.7103 122.562 84.9878 123.154 86.3627C123.349 86.7581 123.453 87.2509 123.453 87.7376C123.453 88.425 123.257 89.0151 122.763 89.9033C122.171 90.9862 121.975 91.0835 120.199 90.5908C120.101 90.7854 120.986 89.7026 121.286 88.9178C121.585 88.0296 121.09 86.46 120.394 85.8699C119.015 84.6897 117.531 83.6068 116.048 82.8221C115.748 82.6274 115.358 82.524 114.961 82.4266C112.592 81.9339 110.126 81.1491 107.653 80.0662C107.159 79.8715 106.762 79.5734 106.371 79.2814C103.703 76.8237 101.634 74.0678 99.1675 70.3264L104.003 66.9805L104.399 67.2786H104.387Z" fill="#E8C2B8"/>
<path d="M104.387 67.2788L107.251 72.7905C107.647 73.4779 108.142 74.068 108.734 74.5608L120.681 83.6131C121.866 84.5014 122.757 85.7789 123.447 87.2511C123.642 87.6465 123.746 88.4313 123.746 88.9241C123.746 89.1188 123.746 89.2222 123.648 89.4169C123.453 90.3051 122.861 90.9925 122.067 91.3819C120.883 91.8746 119.503 91.7773 119.106 91.0838C119.699 91.3819 120.291 90.7857 120.59 90.0982C120.889 89.5081 121.084 88.918 121.182 88.2306C121.182 87.6405 121.182 86.953 120.785 86.7523C119.204 85.7667 118.02 84.4892 116.542 83.7044C116.5 83.674 116.457 83.6496 116.414 83.6253C116.139 83.4793 115.797 83.3941 115.456 83.309C113.087 82.8162 110.621 82.0314 108.148 80.9485C107.654 80.7539 107.257 80.4558 106.866 80.1638C104.198 77.8033 100.547 73.0825 98.1787 69.2438C95.7184 64.6689 96.5182 62.0834 99.9186 61.0918C102.043 61.4933 103.557 63.507 104.4 67.2727L104.387 67.2788Z" fill="#FFD2C1"/>
<path d="M102.806 35.1094C102.806 35.1094 105.37 39.6355 104.778 41.8013C104.68 42.0994 104.68 42.3914 104.583 42.5861C104.387 43.8636 104.485 43.961 105.175 44.6545C105.767 45.1473 105.669 45.3419 105.37 45.64C105.175 45.7374 105.071 46.0355 105.071 46.2301C105.071 46.5282 105.169 46.7229 105.169 46.8202C105.169 46.9176 105.468 47.605 104.674 47.5077C102.403 47.1122 104.18 47.605 104.674 47.7024C104.674 47.7024 105.364 47.897 105.266 48.0978C105.169 48.2985 104.87 48.7852 104.772 49.0833C104.674 49.3814 104.674 50.1662 104.473 50.5616C104.271 50.9571 102.202 51.5472 100.92 51.2491C99.9306 51.0544 98.6486 50.7563 98.0564 50.659C97.8611 50.659 97.5619 50.1662 97.3666 50.0689C97.0674 49.8742 96.3776 49.6734 95.7854 49.2841C94.6987 48.5966 95.5901 48.2012 95.6877 47.8058C95.7854 47.4103 95.7183 46.6012 95.6206 46.4066C95.5229 46.2119 94.7048 45.0499 94.5034 44.4598C94.2042 43.675 94.6987 42.4948 94.9979 42.0994C95.3947 41.704 96.0846 41.4119 96.5791 41.8013C96.9759 42.0994 97.7634 42.5861 97.9588 42.1967C98.1541 41.8013 100.23 38.2607 100.724 37.9686C101.219 37.4759 102.8 35.1155 102.8 35.1155L102.806 35.1094Z" fill="#FFD2C1"/>
<path fill-rule="evenodd" clip-rule="evenodd" d="M121.17 84.3983L122.153 84.2949L122.739 85.1588L121.164 85.3413L120.871 84.4288L121.17 84.3983Z" fill="#1A1A1A"/>
<path d="M105.23 47.1478C105.218 46.7767 105.23 46.655 104.931 46.8497C104.833 46.9471 103.447 47.2573 103.545 47.3546L104.241 47.4398C104.461 47.4763 104.748 47.5554 104.833 47.5372C104.931 47.5189 105.028 47.5372 105.132 47.4398C105.242 47.3425 105.224 47.2086 105.23 47.1417V47.1478Z" fill="#D6A483"/>
<path d="M104.992 48.6217C105.187 48.4271 105.291 48.129 105.291 48.0316C105.291 47.9343 105.291 47.837 105.096 47.7335C104.503 47.6362 103.533 47.4294 103.533 47.332C103.533 47.4294 104.406 48.5183 104.998 48.6157L104.992 48.6217Z" fill="#D6A483"/>
<path d="M103.16 35.6983C103.16 35.6983 102.257 35.8382 102.043 36.9454C101.829 38.0526 101.835 39.099 100.718 39.8595C99.6011 40.6199 99.0882 41.0275 98.8379 41.7332C98.4594 42.7917 97.7696 43.0107 96.9576 42.7066C96.1335 42.3963 95.4314 41.8305 94.8697 42.81C94.3752 43.6678 95.175 45.8822 95.8832 46.3385C96.3105 46.6122 95.993 46.3932 96.2617 48.054C96.5425 49.7696 96.628 49.3316 96.3288 50.1346C95.932 51.1992 95.5047 51.5217 93.7831 51.6616C91.4022 51.8563 92.2752 50.5544 90.4742 51.0106C88.9419 51.4 86.5304 51.1871 86.0848 49.435C85.6452 47.7133 86.2313 47.1232 84.1312 45.8944C82.141 44.7263 84.1312 42.4206 83.4352 41.1005C82.7393 39.7804 82.7393 38.6002 83.7832 37.6998C84.8272 36.7994 84.5524 35.2664 86.9883 35.3394C89.4242 35.4124 89.6378 34.0922 91.0298 33.1189C92.4217 32.1455 94.3813 31.671 95.8465 31.8778C97.3117 32.0847 99.8636 32.4375 100.865 32.8512C101.817 33.2405 103.343 35.3333 103.166 35.6983H103.16Z" fill="#42210B"/>
<path d="M95.6392 56.3887C95.9872 56.5955 97.1715 56.6685 99.1251 56.5286C101.079 56.3887 100.798 56.3887 101.701 56.6685C102.605 56.9484 102.642 58.9924 103.026 59.6555C103.411 60.3126 103.966 62.089 104.278 63.0928C104.589 64.1026 104.87 64.1696 105.322 65.1064C105.773 66.0433 105.865 69.9429 105.865 69.9429L104.381 67.2783C103.869 66.6273 104.04 63.7741 101.231 61.657C99.3876 60.27 97.9346 62.2958 97.2753 63.6281C96.9639 64.2486 96.7686 65.0517 96.9762 65.7087C97.3241 67.3391 97.7026 68.2273 98.2521 69.2554L99.8638 71.7558L100.316 72.3702C100.413 72.3215 100.316 72.571 101.921 74.396C103.685 76.4036 102.678 75.5276 104.558 77.669C104.766 77.9062 105.938 79.2325 105.938 79.2325L109.644 104.79C109.644 104.79 112.116 118.173 110.529 121.428C108.502 125.583 100.016 124.744 94.2167 125.23C89.8761 125.595 89.8761 123.253 82.0435 122.182C74.4917 121.154 89.1496 107.077 90.0898 102.058C90.8346 98.0793 92.0617 92.9144 92.8248 89.8604C93.594 86.8065 91.0055 78.8735 90.8285 75.0713C90.7003 72.2789 90.9079 69.6265 91.3596 67.1262C91.5428 66.1102 91.848 65.1186 92.2571 64.1696L95.6392 56.3887Z" fill="#74B79C"/>
<path d="M95.9323 46.8802C96.2694 46.8802 96.5428 46.5996 96.5428 46.2536C96.5428 45.9075 96.2694 45.627 95.9323 45.627C95.5951 45.627 95.3218 45.9075 95.3218 46.2536C95.3218 46.5996 95.5951 46.8802 95.9323 46.8802Z" fill="#2EB779"/>
<path d="M96.8236 169.549C96.6771 169.616 96.5672 170.461 96.5611 170.632C96.5611 170.845 96.5428 171.398 96.7198 171.581C96.8358 171.702 97.2387 171.806 98.1484 171.842C99.058 171.879 101.012 171.921 101.012 171.921H105.2L108.13 171.891C108.545 171.867 110.804 171.581 111.616 171.386C112.342 171.21 113.331 170.875 113.551 170.717C113.685 170.613 113.759 170.461 113.765 170.358C113.765 170.273 113.789 169.774 113.759 169.604C113.728 169.433 113.649 169.117 113.618 169.044C113.588 168.971 113.496 168.843 113.484 168.825C113.466 168.801 113.38 168.703 113.319 168.661C113.264 168.618 113.228 168.588 113.209 168.575C113.191 168.563 112.861 168.356 112.751 168.332C112.641 168.308 112.348 168.296 112.312 168.32C112.275 168.344 112.208 168.35 112.208 168.35C112.208 168.35 112.47 168.326 112.538 168.393C112.605 168.46 112.831 168.648 112.873 168.794C112.916 168.94 112.934 169.038 112.898 169.068C112.861 169.099 112.226 169.281 111.988 169.348C111.75 169.415 110.816 169.634 110.682 169.658C110.547 169.683 109.9 169.798 109.784 169.823C109.668 169.847 108.936 169.908 108.795 169.926C108.655 169.944 107.513 170.011 107.513 170.011L106.549 170.023L105.029 170.035H100.261L98.6245 169.969L97.489 169.956C97.489 169.956 97.0617 169.835 96.9762 169.823C96.8908 169.81 96.8175 169.561 96.8175 169.561L96.8236 169.549Z" fill="#F9F9F9"/>
<path d="M97.9102 166.835C97.9102 166.835 98.2032 167.194 98.3131 167.273C98.423 167.352 98.9846 167.656 99.4852 167.705C99.9858 167.754 100.871 167.778 101.347 167.644C101.823 167.51 102.416 167.224 102.605 167.097C102.794 166.969 103.466 166.458 103.49 166.446C103.514 166.434 103.637 166.701 103.679 166.78C103.722 166.859 103.746 166.89 103.71 166.926C103.673 166.963 103.319 167.218 103.313 167.218C103.307 167.218 102.953 167.431 102.941 167.431C102.928 167.431 102.477 167.632 102.477 167.632L101.994 167.839C101.994 167.839 101.787 167.924 101.744 167.936C101.701 167.948 101.085 168.082 101.085 168.082C101.085 168.082 100.645 168.155 100.554 168.161C100.462 168.167 100.303 168.186 100.163 168.149C100.022 168.113 99.705 168.027 99.6806 168.021C99.6562 168.015 99.0945 167.839 99.0945 167.839C99.0945 167.839 98.6489 167.681 98.5451 167.62C98.4413 167.559 98.3131 167.492 98.2581 167.419C98.2032 167.346 98.1238 167.243 98.075 167.157C98.0262 167.072 97.8979 166.823 97.8979 166.823L97.9102 166.835Z" fill="#3A1903"/>
<path d="M105.328 166.032C105.328 166.032 105.499 165.941 105.462 165.898C105.425 165.856 105.315 165.764 105.315 165.764C105.315 165.764 105.376 165.758 105.413 165.783C105.45 165.807 106.091 166.135 106.146 166.172C106.219 166.221 106.921 166.598 106.982 166.659C107.043 166.719 107.538 166.981 107.635 167.036C107.733 167.091 108.325 167.328 108.356 167.352C108.386 167.376 108.881 167.553 108.887 167.553C108.899 167.553 109.497 167.936 109.497 167.936L107.629 167.115L106.286 166.494L105.328 166.038V166.032Z" fill="#260E01"/>
<path d="M97.7881 166.708C97.7881 166.708 97.2509 166.829 97.1715 167.225C97.1593 167.273 97.1532 167.316 97.141 167.365C97.0982 167.553 96.9944 168.003 96.9639 168.265C96.9273 168.6 96.7869 169.494 96.7991 169.616C96.8113 169.737 96.8296 169.798 97.1226 169.889C97.4401 169.987 100.828 170.048 100.822 170.035L107.354 170.06C107.354 170.06 110.566 169.95 112.074 169.421C112.379 169.33 112.635 169.22 112.837 169.092C112.922 169.044 112.977 169.001 112.965 168.94C112.953 168.855 112.922 168.721 112.898 168.673C112.855 168.587 112.544 168.32 112.452 168.295C112.361 168.271 111.976 168.35 111.768 168.308C111.561 168.265 109.577 167.9 109.51 167.87C109.442 167.839 109.021 167.632 108.337 167.34C107.654 167.048 105.578 166.038 105.389 165.978C105.199 165.917 104.51 166.184 104.351 166.318C104.192 166.452 103.307 167.176 103.105 167.286C102.977 167.359 102.342 167.632 102.007 167.772C101.86 167.833 101.707 167.882 101.555 167.912C101.176 167.991 100.486 168.095 100.151 168.095C99.7539 168.095 98.5451 167.657 98.2643 167.377C97.9834 167.097 97.898 166.726 97.843 166.714H97.782L97.7881 166.708Z" fill="#66300C"/>
<path d="M107.953 167.948C108.118 167.948 108.252 167.812 108.252 167.644C108.252 167.476 108.118 167.34 107.953 167.34C107.788 167.34 107.654 167.476 107.654 167.644C107.654 167.812 107.788 167.948 107.953 167.948Z" fill="#C3F2F4"/>
<path d="M108.741 168.168C108.872 168.168 108.979 168.059 108.979 167.925C108.979 167.791 108.872 167.682 108.741 167.682C108.609 167.682 108.502 167.791 108.502 167.925C108.502 168.059 108.609 168.168 108.741 168.168Z" fill="#C3F2F4"/>
<path d="M105.615 166.981C105.793 166.981 105.938 166.836 105.938 166.658C105.938 166.48 105.793 166.336 105.615 166.336C105.436 166.336 105.291 166.48 105.291 166.658C105.291 166.836 105.436 166.981 105.615 166.981Z" fill="#C3F2F4"/>
<path d="M106.402 167.298C106.567 167.298 106.701 167.162 106.701 166.994C106.701 166.826 106.567 166.689 106.402 166.689C106.237 166.689 106.103 166.826 106.103 166.994C106.103 167.162 106.237 167.298 106.402 167.298Z" fill="#C3F2F4"/>
<path d="M107.147 167.608C107.312 167.608 107.446 167.472 107.446 167.304C107.446 167.136 107.312 167 107.147 167C106.982 167 106.848 167.136 106.848 167.304C106.848 167.472 106.982 167.608 107.147 167.608Z" fill="#C3F2F4"/>
<path d="M105.505 166.733C105.407 166.617 105.474 166.349 105.609 166.289C105.706 166.24 105.847 166.033 105.889 166.039C105.932 166.045 106.244 166.216 106.335 166.276C106.414 166.331 106.347 166.343 106.195 166.447C105.889 166.654 105.828 166.806 105.694 166.812C105.56 166.818 105.505 166.739 105.505 166.739V166.733Z" fill="#C18E6C"/>
<path d="M106.347 167.061C106.274 166.97 106.323 166.757 106.433 166.702C106.512 166.666 106.634 166.465 106.671 166.471C106.708 166.477 106.97 166.611 107.013 166.684C107.056 166.757 107.019 166.745 106.897 166.824C106.653 166.988 106.61 167.11 106.494 167.116C106.378 167.122 106.347 167.061 106.347 167.061Z" fill="#C18E6C"/>
<path d="M107.068 167.371C106.995 167.285 107.043 167.091 107.147 167.042C107.22 167.006 107.324 166.854 107.355 166.854C107.385 166.854 107.623 166.969 107.66 167.042C107.697 167.115 107.69 167.079 107.574 167.158C107.349 167.31 107.306 167.425 107.202 167.425C107.098 167.425 107.062 167.371 107.062 167.371H107.068Z" fill="#C18E6C"/>
<path d="M107.892 167.664C107.837 167.591 107.874 167.433 107.953 167.396C108.014 167.366 108.093 167.244 108.124 167.244C108.154 167.244 108.362 167.329 108.399 167.384C108.435 167.439 108.399 167.427 108.307 167.487C108.124 167.615 108.087 167.706 108.002 167.706C107.916 167.706 107.886 167.664 107.886 167.664H107.892Z" fill="#C18E6C"/>
<path d="M108.655 167.98C108.6 167.907 108.637 167.749 108.716 167.713C108.777 167.682 108.857 167.561 108.887 167.561C108.918 167.561 109.107 167.658 109.137 167.713C109.168 167.767 109.162 167.743 109.07 167.804C108.887 167.932 108.85 168.023 108.765 168.023C108.68 168.023 108.649 167.98 108.649 167.98H108.655Z" fill="#C18E6C"/>
<path d="M103.716 166.841C103.716 166.841 103.63 166.397 103.63 166.263C103.63 166.129 103.728 165.259 103.722 165.223C103.722 165.18 103.698 165.022 103.643 165.095C103.606 165.144 103.362 165.746 103.435 166.221C103.514 166.719 103.704 166.847 103.716 166.835V166.841Z" fill="#2D1301"/>
<path d="M103.636 165.102C103.636 165.102 103.844 164.834 104.107 164.974C104.332 165.09 104.943 165.491 105.12 165.613C105.151 165.637 105.187 165.655 105.224 165.668C105.364 165.735 105.505 165.801 105.553 165.856C105.553 165.856 105.462 165.96 105.419 165.984H105.407C105.358 166.02 105.303 166.039 105.248 166.045C105.151 166.057 104.98 166.081 104.925 166.106C104.845 166.136 104.54 166.282 104.436 166.367C104.436 166.367 104.29 166.489 104.162 166.592C104.033 166.696 103.716 166.848 103.704 166.854C103.685 166.86 103.539 166.166 103.533 166.051C103.533 165.984 103.551 165.643 103.618 165.394C103.679 165.169 103.63 165.108 103.63 165.108L103.636 165.102Z" fill="#4F2305"/>
<path d="M89.0028 170.061C88.8563 170.127 88.7464 170.973 88.7403 171.143C88.7403 171.356 88.722 171.91 88.899 172.092C89.015 172.214 89.4179 172.318 90.3276 172.354C91.2311 172.384 93.1908 172.433 93.1908 172.433H97.3787L100.309 172.403C100.724 172.378 102.983 172.092 103.795 171.898C104.521 171.721 105.51 171.387 105.73 171.229C105.865 171.125 105.938 170.973 105.944 170.87C105.944 170.784 105.968 170.286 105.938 170.115C105.907 169.945 105.828 169.629 105.797 169.556C105.767 169.483 105.675 169.355 105.663 169.337C105.645 169.312 105.559 169.215 105.498 169.172C105.443 169.13 105.407 169.099 105.388 169.087C105.37 169.075 105.04 168.868 104.931 168.844C104.821 168.819 104.528 168.807 104.491 168.832C104.454 168.856 104.387 168.862 104.387 168.862C104.387 168.862 104.65 168.838 104.717 168.905C104.784 168.972 105.01 169.16 105.053 169.306C105.095 169.452 105.114 169.549 105.077 169.58C105.04 169.61 104.405 169.793 104.167 169.86C103.929 169.927 102.995 170.146 102.861 170.17C102.727 170.194 102.08 170.31 101.964 170.334C101.848 170.359 101.115 170.419 100.975 170.438C100.834 170.456 99.6925 170.523 99.6925 170.523L98.7279 170.535L97.2078 170.547H92.4399L90.8037 170.48L89.6682 170.468C89.6682 170.468 89.2409 170.346 89.1554 170.334C89.0699 170.322 88.9967 170.073 88.9967 170.073L89.0028 170.061Z" fill="white"/>
<path d="M90.0894 167.347C90.0894 167.347 90.3824 167.706 90.4923 167.785C90.6022 167.864 91.1638 168.168 91.6644 168.217C92.165 168.265 93.0502 168.29 93.5264 168.156C94.0026 168.022 94.5948 167.736 94.784 167.608C94.9733 167.481 95.6448 166.97 95.6693 166.957C95.6937 166.945 95.8158 167.213 95.8585 167.292C95.9012 167.371 95.9257 167.402 95.889 167.438C95.8524 167.475 95.4983 167.73 95.4922 167.73C95.4861 167.73 95.132 167.943 95.1198 167.943C95.1076 167.943 94.6558 168.144 94.6558 168.144L94.1735 168.351C94.1735 168.351 93.966 168.436 93.9232 168.448C93.8805 168.46 93.2639 168.594 93.2639 168.594C93.2639 168.594 92.8244 168.667 92.7328 168.673C92.6412 168.679 92.4825 168.697 92.3421 168.661C92.2017 168.624 91.8842 168.539 91.8598 168.533C91.8354 168.527 91.2737 168.351 91.2737 168.351C91.2737 168.351 90.8281 168.192 90.7243 168.132C90.6205 168.071 90.4923 168.004 90.4373 167.931C90.3824 167.858 90.303 167.754 90.2542 167.669C90.2054 167.584 90.0771 167.335 90.0771 167.335L90.0894 167.347Z" fill="#3A1903"/>
<path d="M97.5132 166.538C97.5132 166.538 97.6841 166.447 97.6475 166.404C97.6109 166.361 97.501 166.27 97.501 166.27C97.501 166.27 97.562 166.264 97.5987 166.288C97.6353 166.313 98.2763 166.641 98.3312 166.678C98.4045 166.726 99.1066 167.104 99.1676 167.164C99.2287 167.225 99.7232 167.487 99.8208 167.542C99.9185 167.596 100.511 167.834 100.541 167.858C100.572 167.882 101.066 168.059 101.072 168.059C101.085 168.059 101.683 168.442 101.683 168.442L99.8147 167.621L98.4717 167L97.5132 166.544V166.538Z" fill="#260E01"/>
<path d="M89.9673 167.219C89.9673 167.219 89.4301 167.341 89.3507 167.736C89.3385 167.785 89.3324 167.828 89.3202 167.876C89.2774 168.065 89.1736 168.515 89.1431 168.777C89.1065 169.111 88.9661 170.006 88.9783 170.127C88.9905 170.249 89.0088 170.31 89.3019 170.401C89.6193 170.498 93.0075 170.559 93.0014 170.547L99.5337 170.571C99.5337 170.571 102.745 170.462 104.253 169.933C104.558 169.841 104.814 169.732 105.016 169.604C105.101 169.555 105.156 169.513 105.144 169.452C105.132 169.367 105.101 169.233 105.077 169.184C105.034 169.099 104.723 168.831 104.631 168.807C104.54 168.783 104.155 168.862 103.948 168.819C103.74 168.777 101.756 168.412 101.689 168.381C101.622 168.351 101.2 168.144 100.517 167.852C99.8328 167.56 97.7572 166.55 97.5679 166.489C97.3787 166.428 96.6888 166.696 96.5301 166.83C96.3713 166.964 95.4861 167.688 95.2847 167.797C95.1565 167.87 94.5216 168.144 94.1858 168.284C94.0393 168.345 93.8866 168.393 93.734 168.424C93.3555 168.503 92.6657 168.606 92.3299 168.606C91.9331 168.606 90.7243 168.168 90.4435 167.889C90.1626 167.609 90.0772 167.238 90.0222 167.225H89.9612L89.9673 167.219Z" fill="#66300C"/>
<path d="M100.138 168.46C100.303 168.46 100.437 168.324 100.437 168.156C100.437 167.988 100.303 167.852 100.138 167.852C99.9728 167.852 99.8389 167.988 99.8389 168.156C99.8389 168.324 99.9728 168.46 100.138 168.46Z" fill="#C3F2F4"/>
<path d="M100.926 168.68C101.057 168.68 101.164 168.571 101.164 168.437C101.164 168.302 101.057 168.193 100.926 168.193C100.794 168.193 100.688 168.302 100.688 168.437C100.688 168.571 100.794 168.68 100.926 168.68Z" fill="#C3F2F4"/>
<path d="M97.8001 167.493C97.9788 167.493 98.1237 167.348 98.1237 167.17C98.1237 166.992 97.9788 166.848 97.8001 166.848C97.6214 166.848 97.4766 166.992 97.4766 167.17C97.4766 167.348 97.6214 167.493 97.8001 167.493Z" fill="#C3F2F4"/>
<path d="M98.5814 167.81C98.7466 167.81 98.8805 167.673 98.8805 167.505C98.8805 167.337 98.7466 167.201 98.5814 167.201C98.4162 167.201 98.2822 167.337 98.2822 167.505C98.2822 167.673 98.4162 167.81 98.5814 167.81Z" fill="#C3F2F4"/>
<path d="M99.326 168.12C99.4912 168.12 99.6251 167.984 99.6251 167.816C99.6251 167.648 99.4912 167.512 99.326 167.512C99.1608 167.512 99.0269 167.648 99.0269 167.816C99.0269 167.984 99.1608 168.12 99.326 168.12Z" fill="#C3F2F4"/>
<path d="M97.6841 167.244C97.5864 167.129 97.6535 166.861 97.7878 166.8C97.8855 166.752 98.0259 166.545 98.0687 166.551C98.1114 166.557 98.4228 166.727 98.5143 166.788C98.5937 166.843 98.5265 166.855 98.3739 166.959C98.0687 167.165 98.0076 167.317 97.8733 167.324C97.739 167.33 97.6841 167.251 97.6841 167.251V167.244Z" fill="#C18E6C"/>
<path d="M98.5324 167.567C98.4591 167.476 98.508 167.263 98.6179 167.208C98.6972 167.171 98.8193 166.971 98.856 166.977C98.8926 166.983 99.1551 167.117 99.1978 167.19C99.2406 167.263 99.2039 167.25 99.0818 167.33C98.8376 167.494 98.7949 167.615 98.6789 167.622C98.5629 167.628 98.5324 167.567 98.5324 167.567Z" fill="#C18E6C"/>
<path d="M99.247 167.882C99.1737 167.797 99.2225 167.603 99.3263 167.554C99.3996 167.517 99.5034 167.365 99.5339 167.365C99.5644 167.365 99.8025 167.481 99.8391 167.554C99.8758 167.627 99.8697 167.59 99.7537 167.669C99.5278 167.822 99.4851 167.937 99.3813 167.937C99.2775 167.937 99.2409 167.882 99.2409 167.882H99.247Z" fill="#C18E6C"/>
<path d="M100.071 168.168C100.016 168.095 100.053 167.937 100.132 167.9C100.193 167.87 100.273 167.748 100.303 167.748C100.334 167.748 100.541 167.833 100.578 167.888C100.614 167.943 100.578 167.931 100.486 167.991C100.303 168.119 100.267 168.21 100.181 168.21C100.096 168.21 100.065 168.168 100.065 168.168H100.071Z" fill="#C18E6C"/>
<path d="M100.834 168.492C100.779 168.419 100.816 168.261 100.895 168.224C100.956 168.194 101.036 168.072 101.066 168.072C101.097 168.072 101.286 168.17 101.317 168.224C101.347 168.279 101.341 168.255 101.249 168.316C101.066 168.443 101.03 168.535 100.944 168.535C100.859 168.535 100.828 168.492 100.828 168.492H100.834Z" fill="#C18E6C"/>
<path d="M95.895 167.353C95.895 167.353 95.8096 166.909 95.8096 166.775C95.8096 166.641 95.9073 165.771 95.9011 165.735C95.9011 165.692 95.8767 165.534 95.8218 165.607C95.7852 165.656 95.541 166.258 95.6142 166.732C95.6936 167.231 95.8828 167.359 95.895 167.347V167.353Z" fill="#2D1301"/>
<path d="M95.8157 165.614C95.8157 165.614 96.0233 165.346 96.2858 165.486C96.5117 165.601 97.1221 166.003 97.2992 166.125C97.3297 166.149 97.3663 166.167 97.403 166.179C97.5434 166.246 97.6838 166.313 97.7326 166.368C97.7326 166.368 97.6411 166.471 97.5983 166.496H97.5861C97.5373 166.532 97.4823 166.55 97.4274 166.557C97.3297 166.569 97.1588 166.593 97.1038 166.617C97.0245 166.648 96.7192 166.794 96.6154 166.879C96.6154 166.879 96.4689 167.001 96.3407 167.104C96.2125 167.207 95.8951 167.36 95.8829 167.366C95.8645 167.372 95.718 166.678 95.7119 166.563C95.7119 166.496 95.7302 166.155 95.7974 165.906C95.8584 165.68 95.8096 165.62 95.8096 165.62L95.8157 165.614Z" fill="#4F2305"/>
</g>
<defs>
<clipPath id="clip0_15230_85049">
<rect width="116.293" height="155.958" fill="white" transform="translate(60.0596 31.8301)"/>
</clipPath>
</defs>
</svg>
