<svg width="343" height="203" viewBox="0 0 343 203" fill="none" xmlns="http://www.w3.org/2000/svg">
<path d="M171.5 165.584C257.104 165.584 326.5 160.204 326.5 153.568C326.5 146.932 257.104 141.553 171.5 141.553C85.8959 141.553 16.5 146.932 16.5 153.568C16.5 160.204 85.8959 165.584 171.5 165.584Z" fill="#D6D6D6"/>
<path d="M123.041 151.832H58.938V154.211H123.041V151.832Z" fill="#F2F2F2"/>
<path d="M235.628 151.832H171.524V154.211H235.628V151.832Z" fill="#F2F2F2"/>
<path d="M271.801 146.783L62.7114 147.015V139.996L271.801 139.764V146.783Z" fill="#EACE03"/>
<path d="M271.859 139.996H62.8853L79.2013 134.484L278.362 134.078L271.859 139.996Z" fill="#C6AA05"/>
<path d="M278.014 140.344L271.801 146.783V139.938L278.363 134.078L278.014 140.344Z" fill="#B79A08"/>
<path d="M263.267 45.3184H242.248V86.8563H263.267V45.3184Z" fill="#232323"/>
<path opacity="0.54" d="M252.757 58.1409C255.451 58.1409 257.634 55.9591 257.634 53.2677C257.634 50.5763 255.451 48.3945 252.757 48.3945C250.063 48.3945 247.879 50.5763 247.879 53.2677C247.879 55.9591 250.063 58.1409 252.757 58.1409Z" fill="#CE1B0D"/>
<path opacity="0.54" d="M252.757 70.9612C255.451 70.9612 257.634 68.7794 257.634 66.088C257.634 63.3967 255.451 61.2148 252.757 61.2148C250.063 61.2148 247.879 63.3967 247.879 66.088C247.879 68.7794 250.063 70.9612 252.757 70.9612Z" fill="#E56D0A"/>
<path d="M252.757 83.7249C255.451 83.7249 257.634 81.5431 257.634 78.8517C257.634 76.1603 255.451 73.9785 252.757 73.9785C250.063 73.9785 247.879 76.1603 247.879 78.8517C247.879 81.5431 250.063 83.7249 252.757 83.7249Z" fill="#00A300"/>
<path d="M254.615 86.5078H250.725V146.842H254.615V86.5078Z" fill="#232323"/>
<path d="M42.3876 125.26H38.1489V146.957H42.3876V125.26Z" fill="#754C24"/>
<path d="M56.1489 126.711C55.4521 127.407 39.949 130.772 31.1232 126.711C20.6716 121.663 31.1232 86.5071 31.1232 86.5071C31.1232 86.5071 42.2715 53.4391 45.0005 50.7124C47.7296 47.9857 50.0522 67.5944 54.1167 78.037C58.1812 88.4795 56.1489 102.345 58.1812 110.119C60.2134 117.893 60.5618 119.227 58.8779 122.94C57.8328 125.724 56.1489 126.711 56.1489 126.711Z" fill="#A2D855"/>
<path d="M85.0659 128.221H83.6724V134.544H85.0659V128.221Z" fill="#754C24"/>
<path d="M88.434 128.916C88.2598 129.09 84.0211 130.018 81.5824 128.916C78.7372 127.524 81.5824 117.893 81.5824 117.893C81.5824 117.893 84.6598 108.843 85.3566 108.089C86.0533 107.335 86.7501 112.73 87.8534 115.573C88.9566 118.416 88.434 122.245 88.9566 124.333C89.5372 126.48 89.5953 126.828 89.1308 127.872C88.8985 128.626 88.434 128.916 88.434 128.916Z" fill="#8FC140"/>
<path d="M103.066 128.221H101.673V134.544H103.066V128.221Z" fill="#754C24"/>
<path d="M106.434 128.916C106.26 129.09 102.021 130.018 99.5824 128.916C96.7372 127.524 99.5824 117.893 99.5824 117.893C99.5824 117.893 102.66 108.843 103.357 108.089C104.111 107.335 104.75 112.73 105.853 115.573C106.957 118.416 106.434 122.245 106.957 124.333C107.537 126.48 107.595 126.828 107.131 127.872C106.898 128.626 106.434 128.916 106.434 128.916Z" fill="#8FC140"/>
<path d="M121.938 128.104H120.544V134.427H121.938V128.104Z" fill="#754C24"/>
<path d="M124.616 128.9C124.442 129.075 120.203 130.003 117.765 128.9C114.919 127.508 117.765 117.878 117.765 117.878C117.765 117.878 120.842 108.828 121.539 108.073C122.294 107.319 122.932 112.715 124.035 115.557C125.139 118.4 124.616 122.229 125.139 124.317C125.661 126.406 125.777 126.812 125.313 127.856C125.081 128.61 124.616 128.9 124.616 128.9Z" fill="#8FC140"/>
<path d="M179.42 128.047H178.027V134.37H179.42V128.047Z" fill="#754C24"/>
<path d="M182.789 128.801C182.615 128.975 178.376 129.903 175.937 128.801C173.092 127.408 175.937 117.778 175.937 117.778C175.937 117.778 179.015 108.728 179.712 107.974C180.466 107.22 181.105 112.615 182.208 115.458C183.312 118.3 182.789 122.129 183.312 124.218C183.834 126.306 183.95 126.712 183.486 127.757C183.253 128.511 182.789 128.801 182.789 128.801Z" fill="#8FC140"/>
<path d="M200.092 128.045H198.699V134.368H200.092V128.045Z" fill="#754C24"/>
<path d="M203.458 128.742C203.284 128.916 199.046 129.845 196.607 128.742C193.762 127.35 196.607 117.72 196.607 117.72C196.607 117.72 199.684 108.669 200.381 107.915C201.078 107.161 201.775 112.556 202.878 115.399C203.981 118.242 203.458 122.071 203.981 124.159C204.562 126.306 204.62 126.654 204.155 127.698C203.923 128.452 203.458 128.742 203.458 128.742Z" fill="#8FC140"/>
<path d="M62.8862 127.641H58.6475V146.611H62.8862V127.641Z" fill="#754C24"/>
<path d="M71.8859 128.799C71.3052 129.379 58.531 132.106 51.3311 128.799C42.7375 124.622 51.3311 95.7312 51.3311 95.7312C51.3311 95.7312 60.5052 68.5227 62.7117 66.2602C64.9181 64.0556 66.8923 80.1255 70.202 88.7696C73.5117 97.3556 71.8859 108.784 73.5117 115.166C75.1375 121.547 75.4859 122.65 74.0923 125.724C73.2794 127.987 71.8859 128.799 71.8859 128.799Z" fill="#0B9D99"/>
<path d="M165.172 49.0527L168.633 49.6291C167.335 51.7423 166.806 53.9034 167.816 55.5364L163.201 54.816C164.499 53.6633 165.508 51.1179 165.172 49.0527Z" fill="#EDBD98"/>
<path fill-rule="evenodd" clip-rule="evenodd" d="M206.753 126.57C207.907 127.242 208.291 128.683 207.666 129.836L199.11 145.013C198.677 145.733 197.86 146.261 196.995 146.261H156.473C155.175 146.261 154.021 145.205 154.021 143.812C154.021 142.419 155.079 141.362 156.473 141.362H195.505L203.292 127.387C204.109 126.33 205.599 125.898 206.753 126.57Z" fill="#3DBCC8"/>
<path fill-rule="evenodd" clip-rule="evenodd" d="M145.128 148.134C147.195 148.134 148.733 146.501 148.733 144.532C148.733 142.466 147.099 140.93 145.128 140.93C143.061 140.93 141.523 142.562 141.523 144.532C141.523 146.501 143.157 148.134 145.128 148.134ZM145.128 152.984C149.791 152.984 153.684 149.19 153.684 144.436C153.684 139.681 149.887 135.887 145.128 135.887C140.465 135.887 136.572 139.681 136.572 144.436C136.572 149.238 140.417 152.984 145.128 152.984Z" fill="#20505A"/>
<path fill-rule="evenodd" clip-rule="evenodd" d="M214.732 148.134C216.799 148.134 218.337 146.501 218.337 144.532C218.337 142.466 216.703 140.93 214.732 140.93C212.761 140.93 211.127 142.562 211.127 144.532C211.031 146.501 212.665 148.134 214.732 148.134ZM214.732 152.984C219.395 152.984 223.288 149.19 223.288 144.436C223.288 139.681 219.491 135.887 214.732 135.887C209.973 135.887 206.176 139.681 206.176 144.436C206.176 149.238 209.973 152.984 214.732 152.984Z" fill="#20505A"/>
<path fill-rule="evenodd" clip-rule="evenodd" d="M196.802 96.937C198.052 96.3607 199.446 96.937 200.023 98.0897L201.177 100.539C201.753 101.788 201.177 103.181 200.023 103.757C198.773 104.333 197.379 103.757 196.802 102.604L195.649 100.155C195.072 98.9061 195.601 97.5134 196.802 96.937Z" fill="#20505A"/>
<path fill-rule="evenodd" clip-rule="evenodd" d="M201.177 120.662L206.368 133.821C206.608 134.542 207.377 135.55 208.002 136.031C208.82 136.607 209.829 136.751 210.79 136.175C211.944 135.262 211.608 132.813 210.694 130.844L209.637 128.394L201.273 107.887L195.216 92.3259L194.207 89.7324L190.409 91.7015L201.177 120.662Z" fill="#65C8D0"/>
<path fill-rule="evenodd" clip-rule="evenodd" d="M190.409 91.6535L185.986 79.5986C186.227 79.5986 184.448 79.5025 183.342 80.0308C182.766 80.271 181.275 81.0875 181.131 80.9434C180.41 80.6072 179.833 80.0308 179.737 79.0703C179.737 78.1578 180.314 77.6775 181.131 77.5335L186.371 77.1012L186.227 76.0926L182.285 76.4288L182.141 75.7565L187.573 75.3242L188.053 77.4374C189.063 77.5335 189.88 77.9177 190.361 78.9743L194.206 89.6363L190.409 91.6535Z" fill="#1A1A1A"/>
<path d="M160.413 84.2567C158.106 90.8365 157.048 97.4642 157.193 104.284C148.877 105.197 139.888 105.725 134.36 112.209L145.512 130.603C151.761 123.159 157.721 116.963 163.105 113.217C163.586 112.881 164.98 111.44 165.316 110.96C166.374 109.567 168.152 107.886 169.018 105.965C169.258 105.389 167.095 103.66 167.527 103.083L168.537 101.835L165.076 87.7147L161.23 82.96L160.75 81.6152V82.8159C160.654 83.2962 160.557 83.7765 160.413 84.2567Z" fill="#51BABC"/>
<path d="M163.479 75.9532C163.643 75.2855 170.831 74.5395 172.656 76.2278C174.341 77.7677 177.039 85.6323 177.039 85.6323C178.562 89.3776 179.033 94.5329 179.723 100.415C179.855 104.023 180.323 106.055 180.949 109.245C182.528 115.971 178.998 121.439 178.723 127.389L178.131 134.338L156.145 131.422C156.544 122.882 164.121 115.565 167.462 108.361C166.164 101.932 165.049 95.7963 164.396 90.2992C164.314 89.8163 164.183 89.3799 164.005 88.8941L161.923 84.5555C161.155 82.8988 161.022 80.9249 161.65 79.2139C162.115 78.1227 162.627 77.0809 163.479 75.9532Z" fill="#65C8D0"/>
<g opacity="0.96">
<path d="M199.349 109.377C199.205 109.473 199.012 109.521 198.916 109.713L198.484 108.656L197.907 108.896L198.724 110.962C198.964 111.538 199.637 111.778 200.214 111.538C200.791 111.298 201.127 110.625 200.887 110.049C200.695 109.473 200.022 109.233 199.349 109.377ZM200.022 110.962C199.781 111.058 199.445 110.962 199.349 110.721C199.253 110.481 199.349 110.145 199.589 110.049C199.829 109.953 200.166 110.049 200.262 110.289C200.406 110.529 200.262 110.865 200.022 110.962Z" fill="white"/>
<path d="M201.897 115.715C201.32 115.956 201.08 116.628 201.224 117.204L201.657 118.261L202.233 118.021L201.801 116.964C201.705 116.724 201.801 116.388 202.041 116.292C202.282 116.196 202.618 116.292 202.714 116.532L203.147 117.589L203.724 117.348L203.291 116.292C203.147 115.715 202.474 115.475 201.897 115.715Z" fill="white"/>
<path d="M200.934 113.075C200.79 113.171 200.694 113.315 200.79 113.507L201.463 115.332L202.136 115.092L201.415 113.363C201.271 113.075 201.079 113.027 200.934 113.075Z" fill="white"/>
<path d="M200.599 112.882C200.838 112.882 201.031 112.688 201.031 112.45C201.031 112.211 200.838 112.018 200.599 112.018C200.36 112.018 200.166 112.211 200.166 112.45C200.166 112.688 200.36 112.882 200.599 112.882Z" fill="white"/>
<path d="M195.262 99.2907C195.118 99.3868 194.925 99.4348 194.829 99.6269L194.397 98.5703L193.82 98.8104L194.637 100.876C194.877 101.452 195.55 101.692 196.127 101.452C196.704 101.212 197.04 100.539 196.8 99.9631C196.56 99.3867 195.839 99.0506 195.262 99.2907ZM195.887 100.876C195.646 100.972 195.31 100.876 195.214 100.635C195.118 100.395 195.214 100.059 195.454 99.9631C195.695 99.867 196.031 99.9631 196.127 100.203C196.319 100.443 196.175 100.683 195.887 100.876Z" fill="white"/>
<path d="M197.811 105.63C197.234 105.87 196.993 106.542 197.138 107.118L197.57 108.175L198.147 107.935L197.714 106.878C197.618 106.638 197.714 106.302 197.955 106.206C198.195 106.11 198.532 106.206 198.628 106.446L199.06 107.503L199.637 107.262L199.205 106.206C199.012 105.63 198.387 105.389 197.811 105.63Z" fill="white"/>
<path d="M196.753 102.987C196.609 103.083 196.512 103.227 196.609 103.419L197.281 105.244L197.954 105.004L197.233 103.275C197.137 102.987 196.897 102.891 196.753 102.987Z" fill="white"/>
<path d="M196.465 102.747C196.704 102.747 196.897 102.554 196.897 102.315C196.897 102.076 196.704 101.883 196.465 101.883C196.226 101.883 196.032 102.076 196.032 102.315C196.032 102.554 196.226 102.747 196.465 102.747Z" fill="white"/>
</g>
<path d="M169.498 133.1V137.854L173.296 136.221L172.863 135.645C172.719 135.405 172.623 135.069 172.623 134.733L172.719 133.436L169.498 133.1Z" fill="#FFD2C1"/>
<path d="M138.541 119.076C137.388 120.229 135.561 120.949 133.59 121.526C134.6 122.678 135.417 123.735 136.619 124.215C137.772 123.543 138.974 122.534 139.983 121.478L138.541 119.076Z" fill="#FFD2C1"/>
<path d="M136.234 120.998C136.715 121.719 134.696 122.871 135.369 123.399C135.561 123.544 135.994 123.832 136.378 123.736C136.859 123.592 136.859 123.736 137.244 123.592C137.58 123.496 138.205 123.303 138.109 123.544C138.013 124.264 137.148 125.801 137.82 127.77L138.445 129.979C138.493 130.075 138.59 130.411 138.59 130.556C139.311 132.669 138.349 133.485 137.099 134.302C136.859 134.446 136.523 134.398 136.378 134.158L132.196 127.098L129.937 123.447C129.841 123.303 129.841 122.967 130.033 122.775C130.85 122.055 133.735 120.326 134.984 120.422C135.561 120.47 136.042 120.758 136.234 120.998Z" fill="#101011"/>
<path d="M137.869 128.011C137.917 128.155 137.533 127.05 137.533 126.234C137.533 125.417 137.148 125.513 136.86 125.609C136.427 125.753 136.139 126.762 136.379 127.386C136.619 128.059 137.052 129.115 137.917 128.539C138.062 128.443 137.965 128.203 137.869 128.011Z" fill="#C6C6C6"/>
<path d="M169.594 62.9326L171.564 66.4866C171.805 66.9669 172.237 67.4952 172.622 67.7833L181.563 74.5071C182.476 75.1795 183.053 76.044 183.63 77.1486C183.774 77.4848 183.87 77.821 183.87 78.1572C183.87 78.6375 183.726 79.0697 183.389 79.6941C182.957 80.4145 182.813 80.5105 181.515 80.1744C181.419 80.3184 182.188 79.502 182.332 78.9257C182.572 78.2533 182.188 77.1006 181.659 76.6203C180.601 75.7078 179.544 74.8914 178.438 74.3151C178.198 74.171 177.861 74.0749 177.621 73.9788C175.795 73.6426 174.016 73.0663 172.189 72.2499C171.853 72.1058 171.516 71.9137 171.276 71.5775C169.305 69.7524 167.719 67.6392 165.844 64.8537L169.449 62.4043L169.594 62.9326Z" fill="#E5C6B1"/>
<path d="M169.594 62.981L171.71 67.0633C171.95 67.5436 172.383 68.0719 172.767 68.3601L181.708 75.0839C182.621 75.7563 183.246 76.7168 183.775 77.7734C183.919 78.1096 184.015 78.5899 183.919 79.0221C183.871 79.1662 183.871 79.2143 183.823 79.3583C183.679 80.0307 183.246 80.5109 182.669 80.7511C181.756 81.1833 180.795 81.0873 180.458 80.5109C180.939 80.7511 181.371 80.2708 181.612 79.7905C181.852 79.3583 182.044 78.8781 182.044 78.3978C182.044 77.9655 182.044 77.4852 181.708 77.3412C180.554 76.6208 179.593 75.6122 178.487 75.0359C178.247 74.8918 178.007 74.7957 177.67 74.6997C175.843 74.3635 174.065 73.7872 172.238 72.9707C171.902 72.8266 171.565 72.6345 171.325 72.3944C169.354 70.5694 167.383 68.0239 165.653 65.1903L169.45 62.5488L169.594 62.981Z" fill="#F4D2BA"/>
<path d="M169.931 40.2637C169.931 40.2637 171.565 42.665 171.085 44.2019C170.988 44.442 170.94 44.6341 170.94 44.7782C170.7 45.6907 171.085 45.6907 171.613 46.171C172.046 46.6033 171.613 46.8914 171.373 47.0835C171.229 47.1796 171.133 47.3236 171.133 47.5638C171.133 47.7079 171.133 47.996 171.133 47.996C171.133 48.0921 171.469 48.5724 170.7 48.5724C169.979 48.5724 169.162 48.1401 169.162 48.1401C169.018 48.0921 170.556 48.5724 170.892 48.7164C170.892 48.7164 171.133 48.8605 171.036 49.0526C170.94 49.1967 170.796 49.3888 170.7 49.5329C170.604 49.677 170.556 50.3494 170.364 50.5895C170.219 50.8296 168.633 51.1658 167.72 50.8296C167.047 50.5895 166.085 50.2533 165.653 50.1573C165.509 50.1573 165.316 49.725 165.22 49.677C165.076 49.5329 164.547 49.3408 164.163 49.0046C163.442 48.4283 164.066 48.1881 164.163 47.852C164.259 47.5158 164.403 46.9394 164.307 46.6993C164.211 46.5552 163.586 45.6427 163.49 45.3065C163.345 44.7302 163.73 43.8177 164.066 43.5775C164.403 43.2413 164.884 43.1453 165.22 43.4335C165.46 43.6736 166.037 44.1058 166.23 43.7696C166.374 43.4335 168.2 40.9841 168.537 40.792C168.873 40.6479 169.931 40.2637 169.931 40.2637Z" fill="#F4D2BA"/>
<path fill-rule="evenodd" clip-rule="evenodd" d="M182.092 75.7562L182.813 75.6602L183.246 76.2845L182.092 76.4286L181.9 75.7562H182.092Z" fill="#1A1A1A"/>
<path d="M169.451 134.83C170.316 134.782 170.268 137.087 171.085 136.799C171.326 136.703 171.758 136.511 171.903 136.127C171.999 135.598 172.143 135.695 172.239 135.31C172.287 134.974 172.479 134.35 172.624 134.542C173.2 134.974 174.114 136.511 176.133 136.943L178.392 137.52C178.488 137.52 178.824 137.616 178.969 137.664C181.18 138.144 181.372 139.345 181.468 140.833C181.468 141.122 181.228 141.362 180.939 141.41H172.72L168.442 141.554C168.249 141.554 167.961 141.362 167.913 141.17C167.672 140.065 167.672 136.751 168.393 135.742C168.634 135.118 169.115 134.83 169.451 134.83Z" fill="#101011"/>
<path d="M176.325 136.942C176.469 136.99 175.315 136.75 174.642 136.318C173.97 135.885 173.825 136.318 173.777 136.606C173.681 137.038 174.45 137.806 175.075 137.951C175.796 138.095 176.902 138.239 176.806 137.182C176.806 136.99 176.565 136.99 176.325 136.942Z" fill="#C6C6C6"/>
<path fill-rule="evenodd" clip-rule="evenodd" d="M195.551 90.6926C195.263 90.5965 194.638 90.8367 194.638 90.8367L195.984 94.3427L196.512 94.1505C196.512 94.1505 196.464 91.0288 195.551 90.6926Z" fill="#1A1A1A"/>
<path d="M171.566 66.4391C171.566 66.4391 169.787 62.6929 169.547 61.7324C169.355 60.7719 168.489 56.5935 168.105 56.0652C167.768 55.5369 167.624 55.3928 167.624 55.3928C167.624 55.3928 166.663 55.2968 165.846 55.1527C165.077 54.9606 163.298 54.7685 163.058 54.6724C162.817 54.5764 161.664 57.2659 161.039 58.8028C159.981 61.3002 159.597 63.7496 159.645 64.566C159.741 65.5266 159.02 68.5042 159.068 69.6569C159.116 70.9536 157.193 81.8558 157.674 82.4321C158.155 83.0565 160.943 84.2572 164.692 84.4493C168.441 84.6414 175.363 82.3841 173.248 76.2366C173.104 75.7564 172.864 73.3069 172.864 73.3069C172.864 73.3069 171.71 72.9228 171.277 72.4425C170.845 71.9622 168.634 69.801 168.201 69.0806C167.72 68.3602 165.846 65.6707 165.749 65.4305C165.653 65.1904 169.403 62.5969 169.403 62.5969L169.499 62.9331L170.749 65.1904L171.566 66.4391Z" fill="#1A1A1A"/>
<path d="M169.547 62.4043L165.75 65.1899L165.798 65.478L166.519 66.3906L168.634 69.5123L170.701 71.7216L171.566 72.586L172.768 73.2584L175.507 74.171L176.517 74.4591L177.671 74.6992C177.671 74.6992 178.247 74.7953 178.68 75.1315C179.161 75.4677 180.026 76.092 180.026 76.092C180.026 76.092 179.882 75.3236 180.362 75.2756C180.843 75.2756 180.987 74.8914 180.987 74.7953C180.987 74.6993 180.891 74.5071 180.891 74.5071L179.882 73.7387L178.824 72.9703L177.863 72.2499L176.757 71.4334L174.738 69.9445L173.489 69.0321L172.527 68.3117C172.527 68.3117 171.854 67.5912 171.71 67.255C171.566 66.9188 170.797 65.43 170.797 65.43L169.787 63.4609L169.547 62.4043Z" fill="#1A1A1A"/>
<path d="M169.883 63.5581L169.739 63.1738C169.931 63.3659 170.556 64.5186 171.085 65.3831L171.758 66.7759L172.046 67.1601L172.479 67.5924L173.488 68.3608L174.69 69.2733L176.18 70.3779L177.382 71.2904L178.343 72.0108L179.401 72.8273L180.795 73.8359L181.756 74.5563C181.756 74.5563 181.468 74.4122 181.323 74.5082C181.179 74.6043 180.939 74.5082 180.939 74.5082L179.304 73.3076L176.997 71.5786L175.074 70.1378L173.729 69.1772L172.527 68.2167C172.527 68.2167 171.71 67.2562 171.662 67.1121C171.613 66.968 169.883 63.5581 169.883 63.5581Z" fill="#2D2D2D"/>
<path d="M168.249 54.5295C168.345 54.9137 168.682 56.0664 168.153 56.3065C167.865 56.4506 167.384 56.9789 166.326 56.6907C165.269 56.4506 164.836 55.9703 163.346 56.4026C161.808 56.8829 160.702 60.3408 160.606 60.5809C160.414 61.1092 160.029 62.9823 160.029 63.3665C160.029 63.9909 159.404 69.2739 159.308 69.3699C159.308 69.3699 155.559 70.5706 155.895 65.6238C156.04 63.3665 157.289 59.9086 159.068 57.8914C159.741 57.123 160.077 56.1144 160.798 55.346C161.423 54.6736 162.24 53.8572 162.769 53.4249C164.115 52.3683 163.779 54.0012 165.99 53.9532C168.201 53.9052 168.249 54.5295 168.249 54.5295Z" fill="#A8938A"/>
<path d="M170.219 40.6975C170.219 40.6975 168.104 41.5139 166.855 43.5311C165.605 45.5482 165.124 47.4693 165.028 48.0937C164.932 48.718 165.028 49.5345 165.557 49.9187C165.893 50.1588 166.71 50.543 167.239 50.7351C167.576 50.8312 167.912 50.9272 168.249 50.9753C168.489 51.0233 168.729 51.0233 168.825 51.0233C169.018 51.0233 167.816 52.7043 168.104 53.1846C168.2 53.3767 169.066 56.6905 168.152 56.4984C167.672 56.4023 163.778 55.778 162.817 56.5945C162.144 57.1708 162.096 54.5293 162.432 53.905C162.769 53.2806 163.874 51.9839 163.682 51.0713C163.49 50.2549 163.442 49.7266 162.721 49.5345C161.951 49.3424 159.836 48.766 159.308 47.6614C158.779 46.5568 158.442 41.8021 161.903 38.6323C161.903 38.6323 163.586 37.0954 166.085 37.4796C168.585 37.8639 170.075 40.2172 170.075 40.2172C170.075 40.3613 170.219 40.5534 170.219 40.6975Z" fill="#A8938A"/>
</svg>
