<svg width="343" height="203" viewBox="0 0 343 203" fill="none" xmlns="http://www.w3.org/2000/svg">
<path d="M155 173.595C240.604 173.595 310 167.987 310 161.068C310 154.15 240.604 148.541 155 148.541C69.3958 148.541 0 154.15 0 161.068C0 167.987 69.3958 173.595 155 173.595Z" fill="#D5D5D5"/>
<path d="M119.791 157.6H66.5967V159.618H119.791V157.6Z" fill="#F1F1F1"/>
<path d="M220.282 157.6H167.087V159.618H220.282V157.6Z" fill="#F1F1F1"/>
<path fill-rule="evenodd" clip-rule="evenodd" d="M134.539 71.0443C134.539 71.0443 137.954 69.4914 138.937 63.3314C139.92 57.1714 137.281 49.769 145.198 44.5925C153.115 39.4161 170.088 47.7502 164.189 58.8796C157.203 72.0279 134.901 72.4938 134.539 71.0443Z" fill="#A2D855"/>
<path fill-rule="evenodd" clip-rule="evenodd" d="M131.124 70.2681C131.124 70.2681 130.659 66.5411 125.018 63.7975C119.378 61.054 111.565 61.4164 108.926 52.3058C106.286 43.1951 119.223 29.4257 128.123 38.3293C138.731 48.8893 132.625 70.3199 131.124 70.2681Z" fill="#A2D855"/>
<path fill-rule="evenodd" clip-rule="evenodd" d="M132.987 75.2378C132.987 75.2378 135.626 77.9296 141.732 76.739C147.89 75.5484 153.893 70.5272 161.499 76.2213C169.106 81.9155 167.036 100.706 154.565 98.9979C139.766 96.9273 131.746 76.1178 132.987 75.2378Z" fill="#A2D855"/>
<path d="M125.951 44.128L125.899 45.2668L120.155 44.9045L119.948 48.1657L125.33 48.528L125.278 49.6668L119.897 49.3045L119.69 52.8763L125.485 53.2386L125.433 54.3775L118.241 53.9116L118.913 43.5586L125.951 44.128Z" fill="white"/>
<path d="M151.615 51.0108C153.219 51.1143 154.41 51.5802 155.186 52.4602C156.014 53.3402 156.324 54.5825 156.221 56.239C156.169 57.119 156.014 57.8955 155.807 58.5167C155.6 59.1379 155.237 59.7072 154.823 60.1731C154.41 60.5872 153.84 60.8979 153.219 61.1049C152.598 61.312 151.822 61.3637 150.994 61.312L147.476 61.1049L148.148 50.752L151.615 51.0108ZM151.15 60.2249C151.305 60.2249 151.512 60.2249 151.719 60.2249C151.977 60.2249 152.184 60.1731 152.443 60.1214C152.702 60.0696 152.961 59.9143 153.219 59.759C153.478 59.6037 153.737 59.3967 153.944 59.0861C154.151 58.7755 154.358 58.4131 154.513 57.999C154.668 57.5849 154.772 57.0155 154.823 56.3943C154.875 55.7731 154.823 55.2037 154.772 54.7378C154.668 54.2202 154.513 53.8061 154.254 53.4437C153.996 53.0813 153.685 52.8225 153.219 52.6155C152.805 52.4084 152.288 52.3049 151.615 52.2531L149.287 52.0978L148.769 60.1214L151.15 60.2249Z" fill="white"/>
<path d="M154.616 82.2268C154.202 81.8644 153.581 81.6574 152.908 81.6056C152.598 81.6056 152.339 81.6056 152.028 81.6574C151.77 81.7092 151.511 81.7609 151.252 81.9162C151.045 82.0198 150.838 82.2268 150.683 82.4339C150.528 82.6409 150.476 82.9515 150.424 83.2621C150.424 83.5727 150.476 83.8315 150.683 84.0386C150.838 84.2456 151.097 84.4009 151.408 84.5562C151.718 84.7115 152.08 84.8151 152.442 84.9186C152.856 85.0221 153.219 85.1256 153.633 85.2809C154.047 85.3845 154.409 85.5398 154.823 85.6951C155.237 85.8504 155.547 86.0574 155.858 86.2645C156.168 86.5233 156.375 86.7821 156.53 87.1445C156.686 87.5068 156.789 87.9209 156.737 88.4386C156.686 89.008 156.53 89.4739 156.272 89.8363C156.013 90.1986 155.651 90.5092 155.288 90.7162C154.874 90.9233 154.46 91.0786 153.943 91.1821C153.477 91.2857 152.96 91.2857 152.494 91.2339C151.925 91.1821 151.356 91.0786 150.89 90.9233C150.373 90.768 149.959 90.5092 149.596 90.1986C149.234 89.888 148.924 89.4739 148.717 89.008C148.51 88.5422 148.458 87.9727 148.458 87.3515L149.752 87.4551C149.7 87.8692 149.803 88.2833 149.959 88.5939C150.114 88.9045 150.321 89.2151 150.58 89.4221C150.838 89.6292 151.149 89.8362 151.511 89.9398C151.873 90.0433 152.235 90.1468 152.649 90.1468C152.96 90.1468 153.27 90.1469 153.581 90.0951C153.891 90.0433 154.202 89.9916 154.46 89.8363C154.719 89.7327 154.926 89.5257 155.081 89.3186C155.237 89.1116 155.34 88.8009 155.392 88.3868C155.392 88.0245 155.34 87.7139 155.185 87.5069C155.03 87.248 154.771 87.0927 154.46 86.9374C154.15 86.7822 153.788 86.6268 153.426 86.5233C153.012 86.4198 152.649 86.3163 152.235 86.161C151.821 86.0574 151.459 85.9021 151.045 85.7468C150.683 85.5915 150.321 85.4363 150.01 85.1774C149.7 84.9704 149.493 84.7116 149.286 84.3492C149.131 84.0386 149.027 83.6245 149.079 83.1586C149.131 82.6409 149.234 82.1751 149.493 81.8127C149.752 81.4504 150.01 81.1397 150.424 80.9327C150.787 80.7256 151.201 80.5704 151.666 80.4668C152.132 80.3633 152.598 80.3633 153.063 80.3633C153.581 80.415 154.098 80.4668 154.512 80.6221C154.978 80.7774 155.34 80.9845 155.651 81.2951C155.961 81.6057 156.22 81.968 156.375 82.3821C156.53 82.7962 156.634 83.3139 156.582 83.8833L155.288 83.7797C155.288 83.1586 155.03 82.5892 154.616 82.2268Z" fill="white"/>
<path d="M214.226 71.6152H177.176V150.971H214.226V71.6152Z" fill="#E9E9E9"/>
<path d="M187.887 75.6016H182.092V81.3992H187.887V75.6016Z" fill="white"/>
<path d="M187.887 85.4355H182.092V91.2332H187.887V85.4355Z" fill="white"/>
<path d="M197.046 75.6016H191.25V81.3992H197.046V75.6016Z" fill="white"/>
<path d="M197.046 85.4355H191.25V91.2332H197.046V85.4355Z" fill="white"/>
<path d="M187.887 95.3242H182.092V101.122H187.887V95.3242Z" fill="white"/>
<path d="M197.046 95.3242H191.25V101.122H197.046V95.3242Z" fill="white"/>
<path d="M214.226 151.021V89.2656L177.176 151.021H214.226Z" fill="#F3F3F3"/>
<path d="M188.043 105.312H182.247V111.11H188.043V105.312Z" fill="white"/>
<path d="M197.203 105.312H191.407V111.11H197.203V105.312Z" fill="white"/>
<path d="M187.887 115.355H182.092V121.153H187.887V115.355Z" fill="white"/>
<path d="M197.046 115.355H191.25V121.153H197.046V115.355Z" fill="white"/>
<path d="M187.628 125.346H181.833V131.143H187.628V125.346Z" fill="white"/>
<path d="M196.788 125.346H190.993V131.143H196.788V125.346Z" fill="white"/>
<path d="M187.628 135.234H181.833V141.032H187.628V135.234Z" fill="white"/>
<path d="M196.788 135.234H190.993V141.032H196.788V135.234Z" fill="white"/>
<path d="M234.978 106.609H214.176V151.231H234.978V106.609Z" fill="#E9E9E9"/>
<path d="M220.177 108.834H216.917V112.095H220.177V108.834Z" fill="white"/>
<path d="M220.177 114.375H216.917V117.636H220.177V114.375Z" fill="white"/>
<path d="M225.352 108.834H222.092V112.095H225.352V108.834Z" fill="white"/>
<path d="M225.352 114.375H222.092V117.636H225.352V114.375Z" fill="white"/>
<path d="M220.177 119.912H216.917V123.173H220.177V119.912Z" fill="white"/>
<path d="M225.352 119.912H222.092V123.173H225.352V119.912Z" fill="white"/>
<path d="M234.978 151.18V116.498L214.176 151.18H234.978Z" fill="#F3F3F3"/>
<path d="M220.283 125.557H217.023V128.818H220.283V125.557Z" fill="white"/>
<path d="M225.406 125.557H222.146V128.818H225.406V125.557Z" fill="white"/>
<path d="M220.177 131.146H216.917V134.408H220.177V131.146Z" fill="white"/>
<path d="M225.352 131.146H222.092V134.408H225.352V131.146Z" fill="white"/>
<path d="M220.022 136.789H216.762V140.05H220.022V136.789Z" fill="white"/>
<path d="M225.197 136.789H221.938V140.05H225.197V136.789Z" fill="white"/>
<path d="M220.022 142.328H216.762V145.589H220.022V142.328Z" fill="white"/>
<path d="M225.197 142.328H221.938V145.589H225.197V142.328Z" fill="white"/>
<path d="M217.851 95.7916L227.269 105.006C228.666 106.403 229.39 108.215 229.339 110.182L228.666 126.178L228.304 152.526H237.618L236.066 115.203L235.703 110.234C235.548 107.594 236.531 105.006 238.446 103.142L246.156 95.7916L247.191 94.7563H242.379L235.445 100.968C235.341 101.072 235.134 100.968 235.134 100.865L235.186 91.4434H230.322L230.374 101.279C230.374 101.434 230.218 101.486 230.063 101.382L220.387 93.721L216.195 93.8245L217.851 95.7916Z" fill="#AAAAAA"/>
<path d="M255.367 94.9094C250.14 96.1517 225.923 94.9094 209.054 94.7024C208.175 94.7024 207.347 94.5988 206.467 94.3917C200.878 93.1494 197.67 89.6811 195.704 85.0741C195.031 83.4694 194.669 81.7612 194.721 79.9494C194.824 75.9635 196.377 72.6506 199.533 70.1141C197.411 66.5423 196.325 62.4529 197.256 57.6905C197.618 55.9823 198.291 54.3776 199.171 52.9281C201.706 48.787 204.811 45.5775 209.209 44.3352C212.314 35.6387 218.368 31.8599 225.458 29.6858C232.288 28.5987 237.256 30.7211 240.878 35.3799C253.297 33.8269 259.92 38.8481 258.989 52.4623C266.285 56.914 268.976 62.5564 268.924 68.9752C273.012 71.9776 274.668 75.6012 274.512 79.6906C274.202 85.4365 270.321 90.4576 264.939 92.4765C261.99 93.5635 259.04 94.1847 257.385 94.4435C256.712 94.5988 255.987 94.7541 255.367 94.9094Z" fill="#3DBCC8"/>
<path d="M255.677 97.0836C250.555 98.2742 226.7 97.0836 210.089 96.8766C209.21 96.8766 208.382 96.7731 207.554 96.566C202.069 95.3236 198.861 91.9589 196.998 87.4036C196.325 85.7989 195.963 84.0907 196.015 82.3824C196.118 78.4483 197.619 75.1871 200.724 72.7024C198.602 69.1824 197.567 65.1447 198.498 60.4341C198.861 58.7777 199.482 57.173 200.413 55.7235C202.897 51.6341 206.002 48.4765 210.296 47.3376C213.349 38.8482 219.3 35.0176 226.286 32.8953C233.013 31.8082 237.877 33.9306 241.396 38.4859C253.659 36.9329 260.127 41.9023 259.196 55.2577C266.389 59.6059 269.079 65.1965 269.028 71.5118C273.064 74.4624 274.72 78.0342 274.513 82.0201C274.202 87.7142 270.373 92.5801 265.095 94.5472C262.197 95.6342 259.3 96.2037 257.695 96.5142C256.971 96.7213 256.35 96.9284 255.677 97.0836Z" fill="#65C8D0"/>
<path d="M84.2456 58.1562L87.8678 58.7774C86.5224 61.0551 86.005 63.281 87.0399 64.9892L82.2275 64.161C83.4694 62.9704 84.5044 60.3304 84.2456 58.1562Z" fill="#EDBD98"/>
<path fill-rule="evenodd" clip-rule="evenodd" d="M127.762 139.429C129.004 140.101 129.418 141.654 128.746 142.897L119.845 158.84C119.431 159.669 118.5 160.186 117.62 160.186H75.1888C73.7917 160.186 72.6016 159.047 72.6016 157.598C72.6016 156.2 73.74 155.01 75.1888 155.01H116.068L124.295 140.412C125.02 139.221 126.521 138.704 127.762 139.429Z" fill="#3DBCC8"/>
<path fill-rule="evenodd" clip-rule="evenodd" d="M63.2362 161.996C65.306 161.996 67.0653 160.236 67.0653 158.165C67.0653 156.095 65.306 154.335 63.2362 154.335C61.1663 154.335 59.407 156.095 59.407 158.165C59.407 160.339 61.1146 161.996 63.2362 161.996ZM63.2362 167.172C68.152 167.172 72.1364 163.186 72.1364 158.269C72.1364 153.351 68.152 149.365 63.2362 149.365C58.3203 149.365 54.3359 153.351 54.3359 158.269C54.3359 163.135 58.3203 167.172 63.2362 167.172Z" fill="#20505A"/>
<path fill-rule="evenodd" clip-rule="evenodd" d="M136.043 161.996C138.113 161.996 139.872 160.236 139.872 158.165C139.872 156.095 138.113 154.335 136.043 154.335C133.973 154.335 132.214 156.095 132.214 158.165C132.214 160.339 133.973 161.996 136.043 161.996ZM136.043 167.172C140.959 167.172 144.943 163.186 144.943 158.269C144.943 153.351 140.959 149.365 136.043 149.365C131.127 149.365 127.143 153.351 127.143 158.269C127.143 163.135 131.127 167.172 136.043 167.172Z" fill="#20505A"/>
<path fill-rule="evenodd" clip-rule="evenodd" d="M117.363 108.316C118.604 107.695 120.157 108.265 120.778 109.559L121.968 112.147C122.589 113.389 122.02 114.942 120.726 115.564C119.484 116.185 117.932 115.615 117.311 114.321L116.121 111.733C115.448 110.387 116.017 108.938 117.363 108.316Z" fill="#20505A"/>
<path fill-rule="evenodd" clip-rule="evenodd" d="M121.866 133.214L127.299 146.932C127.558 147.708 128.334 148.744 129.059 149.21C129.938 149.831 130.921 150.038 131.956 149.365C133.198 148.485 132.836 145.793 131.905 143.723L130.715 141.134L121.866 119.652L114.57 100.758L110.585 102.828L121.866 133.214Z" fill="#65C8D0"/>
<path fill-rule="evenodd" clip-rule="evenodd" d="M110.584 102.881L105.978 90.1988C106.237 90.1988 104.374 90.1471 103.288 90.613C102.667 90.8718 101.114 91.7518 100.907 91.5965C100.079 91.2342 99.5103 90.613 99.5103 89.5777C99.5103 88.5942 100.131 88.1283 100.959 87.973L106.444 87.5588L106.237 86.5235L102.046 86.8859L101.891 86.213L107.583 85.7988L108.048 88.0765C109.031 88.2318 109.911 88.5424 110.48 89.6812L114.516 100.862L110.584 102.881Z" fill="#1A1A1A"/>
<path fill-rule="evenodd" clip-rule="evenodd" d="M115.967 101.898C115.656 101.795 115.087 102.002 115.087 102.002L116.433 105.418L116.95 105.211C116.899 105.263 116.847 102.209 115.967 101.898Z" fill="#1A1A1A"/>
<g opacity="0.96">
<path d="M120.052 121.466C119.845 121.518 119.69 121.673 119.587 121.828L119.173 120.689L118.552 120.948L119.431 123.122C119.69 123.692 120.415 123.951 120.984 123.744C121.605 123.485 121.863 122.76 121.656 122.139C121.398 121.518 120.622 121.259 120.052 121.466ZM120.673 123.071C120.415 123.226 120.052 123.071 120.001 122.812C119.845 122.553 120.001 122.191 120.259 122.139C120.518 121.984 120.88 122.139 120.932 122.398C121.087 122.657 120.984 123.019 120.673 123.071Z" fill="white"/>
<path d="M122.693 128.091C122.072 128.349 121.813 128.971 122.072 129.644L122.537 130.782L123.158 130.524L122.693 129.437C122.537 129.178 122.693 128.867 122.951 128.764C123.21 128.608 123.521 128.764 123.624 129.022L124.09 130.161L124.711 129.902L124.245 128.815C124.038 128.091 123.314 127.78 122.693 128.091Z" fill="white"/>
<path d="M121.606 125.297C121.45 125.348 121.347 125.555 121.399 125.711L122.072 127.574L122.745 127.316L121.968 125.504C121.916 125.348 121.813 125.245 121.606 125.297Z" fill="white"/>
<path d="M121.294 125.09C121.523 125.09 121.708 124.905 121.708 124.676C121.708 124.447 121.523 124.262 121.294 124.262C121.065 124.262 120.88 124.447 120.88 124.676C120.88 124.905 121.065 125.09 121.294 125.09Z" fill="white"/>
<path d="M115.758 110.802C115.551 110.854 115.396 111.009 115.292 111.164L114.878 110.025L114.257 110.284L115.137 112.458C115.396 113.028 116.12 113.287 116.689 113.08C117.31 112.821 117.569 112.096 117.362 111.475C117.052 110.905 116.327 110.595 115.758 110.802ZM116.379 112.51C116.12 112.665 115.758 112.51 115.706 112.251C115.551 111.992 115.706 111.63 115.965 111.578C116.224 111.423 116.586 111.578 116.638 111.837C116.793 111.992 116.638 112.355 116.379 112.51Z" fill="white"/>
<path d="M118.396 117.428C117.775 117.687 117.517 118.308 117.775 118.981L118.241 120.12L118.862 119.861L118.396 118.722C118.241 118.464 118.396 118.153 118.655 118.049C118.914 117.946 119.224 118.049 119.328 118.308L119.793 119.447L120.414 119.188L119.949 118.049C119.69 117.48 119.017 117.221 118.396 117.428Z" fill="white"/>
<path d="M117.259 114.736C117.103 114.788 117 114.995 117.052 115.15L117.724 117.014L118.397 116.755L117.621 114.943C117.621 114.736 117.414 114.632 117.259 114.736Z" fill="white"/>
<path d="M117 114.426C117.229 114.426 117.414 114.24 117.414 114.012C117.414 113.783 117.229 113.598 117 113.598C116.771 113.598 116.586 113.783 116.586 114.012C116.586 114.24 116.771 114.426 117 114.426Z" fill="white"/>
</g>
<path d="M88.7471 146.154V151.072L92.7315 149.312L92.3175 148.691C92.1105 148.432 92.0587 148.07 92.0587 147.707L92.1105 146.361L88.7471 146.154Z" fill="#FFD2C1"/>
<path d="M56.3542 131.609C55.1641 132.8 53.3013 133.576 51.2314 134.198C52.2146 135.388 53.1978 136.475 54.4396 136.993C55.6298 136.32 56.8717 135.233 57.9066 134.146L56.3542 131.609Z" fill="#FFD2C1"/>
<path d="M88.8496 72.753L90.9194 76.4283C91.1782 76.9977 91.5922 77.4118 92.1096 77.8259L101.424 84.8659C102.304 85.5389 103.028 86.5224 103.494 87.6612C103.649 88.0235 103.752 88.3341 103.752 88.6965C103.752 89.2659 103.545 89.6801 103.183 90.353C102.769 91.1812 102.562 91.233 101.165 90.9224C101.113 91.0777 101.786 90.3012 102.045 89.68C102.303 89.0071 101.889 87.713 101.372 87.2471C100.234 86.2636 99.147 85.4871 98.0086 84.8141C97.7498 84.6588 97.4394 84.5553 97.1807 84.5553C95.3178 84.193 93.4032 83.5718 91.4886 82.7435C91.1264 82.5882 90.8159 82.3812 90.5055 82.1224C88.4874 80.2588 86.8316 78.033 84.8652 75.0824L88.6944 72.4941L88.8496 72.753Z" fill="#DBAD8D"/>
<path d="M88.8501 72.752L91.0752 77.0484C91.3339 77.6178 91.7478 78.032 92.2653 78.4461L101.579 85.4861C102.459 86.1591 103.184 87.1426 103.753 88.3332C103.908 88.6955 103.96 89.2132 103.96 89.5755C103.96 89.7308 103.908 89.8343 103.908 89.9379C103.753 90.6108 103.287 91.1803 102.666 91.3873C101.786 91.8014 100.648 91.7497 100.286 91.1802C100.752 91.4391 101.166 90.9214 101.476 90.4038C101.683 89.9897 101.89 89.5237 101.89 88.9543C101.89 88.5402 101.89 88.0744 101.528 87.8155C100.338 87.0391 99.3027 86.0556 98.1643 85.3826C97.9056 85.2273 97.5951 85.1238 97.3364 85.1238C95.4735 84.7614 93.5589 84.1403 91.6443 83.312C91.2821 83.1567 90.9716 82.9496 90.6612 82.6908C88.5913 80.8273 86.5733 78.0837 84.6587 75.1332L88.6431 72.4414L88.8501 72.752Z" fill="#EDBD98"/>
<path d="M89.2645 48.8887C89.2645 48.8887 91.0238 51.3734 90.4546 53.0816C90.4029 53.3405 90.2994 53.5475 90.2477 53.7028C90.0407 54.6863 90.4029 54.5828 90.9204 55.1522C91.3343 55.5664 90.9204 55.9287 90.6616 56.0322C90.5064 56.084 90.4029 56.291 90.4029 56.4981C90.4029 56.7052 90.4029 56.9122 90.4029 56.9122C90.4029 56.964 90.7651 57.5852 89.9889 57.5334C89.2127 57.4816 88.3848 57.1193 88.3331 57.1193C88.3848 57.1193 89.782 57.5334 90.1442 57.7405C90.1442 57.7405 90.4029 57.8958 90.3512 57.9993C90.2994 58.1546 90.0924 58.2581 89.9889 58.4652C89.9372 58.6722 89.8337 59.2934 89.6267 59.604C89.4197 59.9146 87.7639 60.2252 86.8325 59.8628C86.1598 59.604 85.0731 59.2934 84.6592 59.2416C84.5039 59.2416 84.2969 58.8275 84.1934 58.7758C83.9865 58.5687 83.5207 58.4134 83.0033 58.1028C82.1753 57.4816 82.9515 57.2746 83.0033 56.9122C83.055 56.5499 83.262 55.9287 83.1585 55.7216C83.0033 55.5146 82.3824 54.6346 82.3306 54.1687C82.1236 53.5475 82.5893 52.6157 82.8998 52.3569C83.1585 52.0981 83.7795 51.9428 84.1417 52.2016C84.4004 52.4605 84.9696 52.8228 85.1766 52.6157C85.3836 52.3569 87.1947 49.7169 87.6086 49.5099C87.9191 49.5616 89.2645 48.8887 89.2645 48.8887Z" fill="#F4D2BA"/>
<path fill-rule="evenodd" clip-rule="evenodd" d="M101.891 86.21L102.668 86.1582L103.133 86.8311L101.995 86.8829L101.684 86.21H101.891Z" fill="#1A1A1A"/>
<path d="M54.1302 133.421C54.5442 134.197 52.4226 135.181 53.0436 135.802C53.2506 136.009 53.6127 136.268 54.0267 136.268C54.5442 136.164 54.5442 136.268 54.9064 136.216C55.2686 136.113 55.8896 136.009 55.7861 136.268C55.6308 136.993 54.6477 138.494 55.1651 140.513L55.6309 142.842C55.6826 142.946 55.7343 143.308 55.7343 143.411C56.3035 145.637 55.2686 146.362 53.9232 147.087C53.6645 147.242 53.354 147.139 53.1988 146.88L49.5249 139.374L47.5068 135.491C47.455 135.336 47.455 134.974 47.662 134.819C48.5417 134.146 51.6464 132.644 52.8883 132.851C53.4575 132.8 53.975 133.162 54.1302 133.421Z" fill="#101011"/>
<path d="M54.2339 138.96C54.0269 138.805 53.8716 138.649 53.8716 138.442C53.8716 138.287 53.9234 138.184 54.0787 138.028C54.2857 137.873 54.4928 137.821 54.6481 137.873C54.9586 137.976 55.0622 138.442 55.114 138.598C55.1657 138.805 54.9586 139.322 54.9069 139.322V139.374H54.8551C54.8034 139.322 54.4927 139.167 54.2339 138.96ZM54.6998 138.028C54.648 137.976 54.6481 137.976 54.5963 137.976C54.441 137.925 54.2857 137.976 54.0787 138.132C53.9751 138.235 53.8716 138.339 53.9233 138.494C53.9751 138.856 54.6998 139.271 54.8551 139.322C54.9069 139.219 55.0621 138.805 55.0104 138.649C55.0104 138.494 54.9069 138.184 54.6998 138.028Z" fill="#AAB2B2"/>
<path d="M55.5791 139.116C55.7862 139.064 56.0451 139.064 56.2004 139.168C56.3039 139.271 56.4074 139.375 56.3556 139.582C56.3556 139.841 56.2521 140.048 56.0968 140.1C55.838 140.255 55.3721 140.048 55.2686 139.996C55.0615 139.893 54.8545 139.375 54.8545 139.375V139.323H54.9062C54.9062 139.323 55.2168 139.168 55.5791 139.116ZM55.9933 140.1C56.0451 140.1 56.0968 140.1 56.0968 140.048C56.2521 139.996 56.3039 139.789 56.3039 139.582C56.3039 139.427 56.2521 139.323 56.1486 139.22C55.838 139.013 55.0615 139.271 54.9062 139.375C54.958 139.478 55.165 139.841 55.3203 139.944C55.4239 139.996 55.7345 140.151 55.9933 140.1Z" fill="#AAB2B2"/>
<path d="M54.8556 139.271C54.8556 139.271 54.545 139.582 54.1826 139.582C53.8203 139.634 53.5615 139.686 53.3544 139.841C53.1474 139.996 53.1991 140.1 53.1991 140.1C53.1991 140.1 53.1991 140.151 53.3027 139.996C53.4062 139.893 53.3544 139.944 53.5615 139.841C53.7686 139.737 54.2344 139.686 54.4415 139.634C54.6485 139.582 54.9591 139.427 54.9591 139.375C54.9591 139.323 54.8556 139.271 54.8556 139.271Z" fill="#AAB2B2"/>
<path d="M54.8552 139.271C54.8552 139.271 54.7516 139.686 54.4928 139.944C54.234 140.203 54.0269 140.41 53.9752 140.669C53.9234 140.928 53.9752 140.98 53.9752 140.98C53.9752 140.98 54.0269 140.98 54.0269 140.824C54.0269 140.669 54.0269 140.721 54.1305 140.514C54.234 140.307 54.5963 139.996 54.6999 139.841C54.8034 139.634 55.0105 139.323 54.9587 139.323C54.9069 139.323 54.8552 139.271 54.8552 139.271Z" fill="#AAB2B2"/>
<path d="M54.9585 139.529C55.0729 139.529 55.1656 139.437 55.1656 139.322C55.1656 139.208 55.0729 139.115 54.9585 139.115C54.8442 139.115 54.7515 139.208 54.7515 139.322C54.7515 139.437 54.8442 139.529 54.9585 139.529Z" fill="#AAB2B2"/>
<path d="M56.3521 131.609C62.4063 125.759 68.8228 121.463 75.3945 117.787C76.2741 117.166 76.9468 116.183 77.2056 115.096L81.9144 95.8391L82.9493 86.9355H87.0372C87.296 97.4956 85.2262 106.089 83.0528 117.218C82.7941 119.081 81.6557 120.79 79.9998 121.67L57.7492 134.197L56.3521 131.609Z" fill="#FFD2C1"/>
<path d="M88.7462 146.157C88.1252 137.772 87.97 129.023 89.8328 118.67C87.4008 110.233 86.935 99.0515 87.142 86.8867L90.7642 86.4727C93.8172 97.0844 97.6464 107.541 96.3528 120.068C94.3864 129.23 93.0928 137.927 92.1096 146.52L88.7462 146.157Z" fill="#FFD2C1"/>
<path d="M58.8362 135.649C58.8362 135.649 56.8698 133.527 55.5762 130.214C55.5762 130.214 56.7146 130.783 59.0949 128.713C61.5269 126.642 65.7701 123.277 68.7713 121.103C71.7725 118.929 76.5332 117.325 77.7233 114.426C78.9135 111.527 83.0013 87.3009 83.0013 87.3009L84.295 86.1621L88.9004 86.5244L87.348 107.334C87.348 107.334 86.1578 122.76 84.1915 121.621C81.035 119.757 61.5787 132.233 58.8362 135.649Z" fill="#B2AAA8"/>
<path d="M85.5381 86.4192L89.0051 117.012C89.0051 119.6 87.6079 144.706 87.7114 145.638C87.7632 146.156 92.886 145.638 92.886 145.638C94.3349 135.958 94.5936 125.295 95.6285 120.998C95.111 117.789 95.9389 107.539 95.9389 106.142C95.9389 105.52 89.626 84.7109 89.626 84.7109L85.5381 86.4192Z" fill="#B2AAA8"/>
<path d="M97.6465 129.799C97.1808 130.265 96.4564 130.368 95.9389 129.954C95.0075 129.281 93.1447 128.246 90.2987 127.987C85.952 127.573 84.5032 129.903 81.5019 127.366C78.5524 124.83 77.7244 123.846 72.6534 122.293C67.5823 120.74 62.7182 118.462 62.3043 117.375C61.2176 114.477 56.4053 114.062 55.9396 112.044C55.5256 110.18 65.2538 112.199 67.7893 106.453C70.2731 100.707 81.3984 96.1518 80.8292 89.9918C80.8292 89.9918 80.6222 84.453 79.4838 81.2953C78.3454 78.0859 78.9146 70.1659 79.3286 68.3541C79.6908 66.853 82.485 63.9023 82.485 63.9023L86.573 64.3165L90.6609 73.3753C90.8679 73.8412 90.9713 74.3071 91.0231 74.773L91.2301 77.1542L91.2818 77.5682C91.2818 77.5682 91.7993 78.1894 92.0062 78.3447C92.2132 78.5518 96.1976 81.5542 96.1976 81.5542L98.2157 83.0554L97.75 85.2812L94.6971 84.5565C93.2999 84.0906 91.9545 83.6247 91.2818 83.2624L91.2301 85.1777C91.2301 85.333 91.23 85.4883 91.2818 85.6436C91.9545 87.8695 95.6802 105.314 95.7837 106.142C95.8872 107.126 98.6297 128.039 98.2157 129.022C98.164 129.385 97.8535 129.592 97.6465 129.799Z" fill="#112E44"/>
<path d="M89.2631 48.9422C89.2631 48.9422 87.2967 49.7187 86.1583 51.5304C85.0199 53.3422 84.6059 55.0505 84.5024 55.6716C84.3989 56.2928 84.4507 58.1046 84.9164 58.5187C85.2269 58.7775 85.6926 59.2952 86.2101 59.554C86.4688 59.7093 86.9862 59.9163 87.2967 59.9681C87.5037 60.0199 88.5903 60.0716 88.6938 60.0199C88.9008 60.0199 86.9862 61.1587 86.7275 61.6763C86.417 62.2975 87.5037 66.0246 87.7107 66.4905C87.9177 66.9046 82.0704 64.8857 81.1907 65.6105C80.5698 66.1281 81.1907 61.5728 81.5012 61.0034C81.8117 60.434 82.3291 59.8646 82.1221 59.0363C81.9669 58.3116 82.0186 58.0528 81.4494 57.4834C80.8802 56.9658 79.7936 56.2928 79.2761 55.2575C78.8104 54.274 78.5 49.9775 81.6047 47.1304C81.6047 47.1304 83.1053 45.7328 85.3303 46.0951C87.5554 46.4575 88.9525 48.5281 88.9525 48.5281C89.1078 48.7351 89.2631 48.8387 89.2631 48.9422Z" fill="#B2AAA8"/>
<path d="M91.3833 77.5167L91.3315 77.0508L92.1077 77.8273L98.4207 82.5897L98.6277 82.7449L98.4207 83.1073L94.9019 80.4155C93.8153 79.5873 92.6769 78.759 92.1077 78.2931C91.849 78.1379 91.642 77.879 91.3833 77.5167Z" fill="#0A2333"/>
<path d="M87.2441 66.8024C87.2441 66.8024 84.8638 66.44 83.5184 66.3365C82.173 66.2329 80.5172 66.5953 79.948 67.9412C79.4305 69.1835 76.1188 72.0823 74.1524 70.3223C72.4448 68.8212 68.1499 72.9624 66.9598 72.0824C65.7696 71.2024 63.1824 71.4612 61.1643 72.0824C59.5084 72.6 57.5421 70.9436 59.0427 69.2871C61.2161 66.9059 57.7491 62.7129 59.9741 62.04C66.2353 60.1247 64.7347 56.4494 69.2883 58.727C74.3077 61.2635 77.7229 59.0894 78.4991 60.1247C79.4822 61.4188 83.3114 62.4541 85.3295 62.247C87.2441 62.04 87.4511 65.6635 87.865 66.1812C88.7964 67.4235 87.7616 66.8541 87.2441 66.8024Z" fill="#B2AAA8"/>
<path d="M88.9517 148.281C89.8313 148.229 89.7796 150.558 90.6593 150.299C90.918 150.196 91.332 149.989 91.4872 149.626C91.5907 149.109 91.7459 149.161 91.7977 148.798C91.8494 148.436 92.0564 147.815 92.2117 148.022C92.8326 148.488 93.7123 150.041 95.7821 150.455L98.0589 151.024C98.1624 151.024 98.5246 151.128 98.6281 151.179C100.853 151.645 101.06 152.888 101.164 154.441C101.164 154.751 100.957 155.01 100.646 155.01H92.2634L87.9167 155.113C87.7098 155.113 87.451 154.906 87.3993 154.699C87.1923 153.612 87.1406 150.196 87.865 149.161C88.1237 148.591 88.6412 148.332 88.9517 148.281Z" fill="#101011"/>
<path d="M94.0228 150.611C93.8157 150.714 93.5569 150.766 93.4016 150.714C93.2463 150.663 93.1428 150.559 93.1428 150.352C93.091 150.093 93.091 149.886 93.2463 149.783C93.4533 149.576 93.9192 149.627 94.0745 149.679C94.2816 149.731 94.6439 150.145 94.6439 150.145C94.5921 150.249 94.3333 150.456 94.0228 150.611ZM93.3498 149.731C93.298 149.731 93.2981 149.783 93.2463 149.783C93.1428 149.886 93.091 150.041 93.1428 150.3C93.1945 150.456 93.2463 150.559 93.4016 150.611C93.764 150.714 94.3851 150.249 94.5404 150.145C94.4369 150.041 94.1781 149.731 94.0228 149.679C93.9192 149.731 93.5569 149.627 93.3498 149.731Z" fill="#AAB2B2"/>
<path d="M94.6929 149.469C94.7447 149.262 94.8482 149.003 95.0035 148.951C95.107 148.899 95.2623 148.899 95.4694 148.951C95.7282 149.054 95.8317 149.21 95.8317 149.417C95.8317 149.727 95.4694 150.038 95.3658 150.09C95.1588 150.193 94.6411 150.193 94.6411 150.193H94.5894V150.142C94.5894 150.142 94.5894 149.779 94.6929 149.469ZM95.78 149.52C95.78 149.469 95.78 149.417 95.78 149.417C95.78 149.262 95.6764 149.106 95.4176 149.003C95.2623 148.951 95.1588 148.899 95.0553 149.003C94.7447 149.21 94.6411 149.986 94.6411 150.193C94.7446 150.193 95.1588 150.193 95.3141 150.09C95.4694 149.986 95.7282 149.779 95.78 149.52Z" fill="#AAB2B2"/>
<path d="M94.5397 150.197C94.5397 150.197 94.6432 150.611 94.5397 150.974C94.4362 151.336 94.3326 151.595 94.3844 151.854C94.4361 152.112 94.5397 152.112 94.5397 152.112C94.5397 152.112 94.5915 152.112 94.4879 151.957C94.4362 151.802 94.4362 151.854 94.4362 151.647C94.4362 151.439 94.5914 151.025 94.6432 150.767C94.6432 150.559 94.6432 150.197 94.6432 150.145C94.6432 150.094 94.5397 150.197 94.5397 150.197Z" fill="#AAB2B2"/>
<path d="M94.5396 150.143C94.5396 150.143 94.9019 150.401 95.0054 150.764C95.109 151.126 95.2125 151.385 95.4195 151.54C95.6266 151.696 95.7302 151.644 95.7302 151.644C95.7302 151.644 95.7819 151.592 95.6266 151.54C95.4713 151.488 95.5231 151.488 95.4195 151.333C95.2642 151.178 95.1607 150.712 95.0572 150.505C94.9537 150.298 94.7466 150.039 94.6949 150.039C94.6431 150.039 94.5396 150.143 94.5396 150.143Z" fill="#AAB2B2"/>
<path d="M94.6435 150.301C94.7579 150.301 94.8506 150.208 94.8506 150.094C94.8506 149.979 94.7579 149.887 94.6435 149.887C94.5292 149.887 94.4365 149.979 94.4365 150.094C94.4365 150.208 94.5292 150.301 94.6435 150.301Z" fill="#AAB2B2"/>
<path d="M85.0171 53.9132L89.7259 53.3438L89.9847 53.1367L85.0688 53.7061L85.0171 53.9132Z" fill="#303030"/>
<path d="M90.1929 54.8948C89.9341 54.9466 89.727 54.4807 89.6753 54.0148C89.6235 53.549 89.6753 53.0831 89.9341 53.0313C90.1929 52.9795 90.4 53.4454 90.4517 53.9113C90.5035 54.3772 90.4517 54.8948 90.1929 54.8948ZM89.9858 53.1866C89.8823 53.1866 89.7788 53.4972 89.8306 54.0148C89.8823 54.5325 90.0894 54.7913 90.1929 54.7395C90.2964 54.7395 90.4 54.4289 90.3482 53.9113C90.2447 53.4972 90.0894 53.1866 89.9858 53.1866Z" fill="#303030"/>
<path d="M90.1392 53.1875L90.3988 53.2395L90.3469 53.3952L90.1392 53.2914V53.1875Z" fill="#303030"/>
</svg>
