<svg width="24" height="24" viewBox="0 0 24 24" fill="none" xmlns="http://www.w3.org/2000/svg">
<path fill-rule="evenodd" clip-rule="evenodd" d="M16.8947 3.7255C16.9916 4.21282 16.6776 4.68688 16.1934 4.78434L15.0938 5.00567L18.8335 12.7313C19.0498 13.178 18.8652 13.7167 18.4213 13.9343C17.9774 14.152 17.4422 13.9662 17.2259 13.5195L12.979 4.746C12.8576 4.49533 12.8586 4.20222 12.9816 3.95238C13.1046 3.70254 13.3358 3.52421 13.6074 3.46952L15.8427 3.0196C16.3269 2.92214 16.7979 3.23818 16.8947 3.7255Z" fill="#003E67"/>
<path fill-rule="evenodd" clip-rule="evenodd" d="M14.9394 6.69148C15.3836 6.47443 15.9186 6.6609 16.1342 7.10797L19.2812 13.6318C19.4969 14.0789 19.3116 14.6173 18.8674 14.8343C18.4232 15.0514 17.8883 14.8649 17.6726 14.4178L14.5256 7.89396C14.3099 7.44689 14.4952 6.90852 14.9394 6.69148Z" fill="#00DFF4"/>
<path fill-rule="evenodd" clip-rule="evenodd" d="M17.5718 11.2164C18.0027 11.4593 18.1563 12.0076 17.9151 12.4412L14.7857 18.0653C14.6276 18.3494 14.3293 18.5254 14.0056 18.5254H8.41753C7.92374 18.5254 7.52344 18.1226 7.52344 17.6256C7.52344 17.1286 7.92374 16.7257 8.41753 16.7257H13.4816L16.3549 11.5619C16.5961 11.1283 17.141 10.9736 17.5718 11.2164Z" fill="#00DFF4"/>
<path fill-rule="evenodd" clip-rule="evenodd" d="M3.50043 19.2004C4.24112 19.2004 4.84157 18.5961 4.84157 17.8506C4.84157 17.1052 4.24112 16.5009 3.50043 16.5009C2.75974 16.5009 2.15929 17.1052 2.15929 17.8506C2.15929 18.5961 2.75974 19.2004 3.50043 19.2004ZM3.50043 21.0001C5.22871 21.0001 6.62977 19.59 6.62977 17.8506C6.62977 16.1112 5.22871 14.7012 3.50043 14.7012C1.77215 14.7012 0.371094 16.1112 0.371094 17.8506C0.371094 19.59 1.77215 21.0001 3.50043 21.0001Z" fill="#003E67"/>
<path fill-rule="evenodd" clip-rule="evenodd" d="M20.4868 19.2004C21.2275 19.2004 21.8279 18.5961 21.8279 17.8506C21.8279 17.1052 21.2275 16.5009 20.4868 16.5009C19.7461 16.5009 19.1456 17.1052 19.1456 17.8506C19.1456 18.5961 19.7461 19.2004 20.4868 19.2004ZM20.4868 21.0001C22.215 21.0001 23.6161 19.59 23.6161 17.8506C23.6161 16.1112 22.215 14.7012 20.4868 14.7012C18.7585 14.7012 17.3574 16.1112 17.3574 17.8506C17.3574 19.59 18.7585 21.0001 20.4868 21.0001Z" fill="#003E67"/>
<path fill-rule="evenodd" clip-rule="evenodd" d="M16.9593 8.94676C17.4009 8.72451 17.938 8.90468 18.1588 9.34918L18.6059 10.249C18.8267 10.6935 18.6477 11.234 18.206 11.4563C17.7644 11.6785 17.2273 11.4984 17.0065 11.0539L16.5594 10.154C16.3386 9.70952 16.5176 9.16901 16.9593 8.94676Z" fill="#003E67"/>
</svg>
