<svg width="343" height="203" viewBox="0 0 343 203" fill="none" xmlns="http://www.w3.org/2000/svg">
<path d="M171.5 173.642C257.104 173.642 326.5 168.263 326.5 161.627C326.5 154.991 257.104 149.611 171.5 149.611C85.8959 149.611 16.5 154.991 16.5 161.627C16.5 168.263 85.8959 173.642 171.5 173.642Z" fill="#D6D6D6"/>
<path d="M132.019 160.639H81.3843V162.513H132.019V160.639Z" fill="#F2F2F2"/>
<path d="M220.903 160.639H170.269V162.513H220.903V160.639Z" fill="#F2F2F2"/>
<path d="M99.5863 94.769L108.907 103.84C110.27 105.2 111.008 107.012 110.955 108.94L110.27 124.698L109.928 150.66H119.133L117.6 113.867L117.258 108.993C117.089 106.388 118.053 103.835 119.986 102.018L127.6 94.7641L128.622 93.745H123.846L116.969 99.8692C116.853 99.9846 116.685 99.8692 116.685 99.7539L116.742 90.457H111.914L111.972 100.153C111.972 100.321 111.803 100.379 111.687 100.268L102.14 92.7308L97.9912 92.8461L99.5815 94.7738L99.5863 94.769Z" fill="#937F6F"/>
<path d="M136.694 93.9176C131.523 95.1626 107.596 93.9176 90.8878 93.6917C90.0348 93.6917 89.1818 93.5763 88.3288 93.4081C82.8157 92.163 79.6351 88.7596 77.7026 84.2266C77.0183 82.6403 76.681 80.9386 76.7388 79.1792C76.8544 75.2663 78.3869 71.9782 81.5145 69.4834C79.4134 65.9694 78.3339 61.9459 79.2399 57.2398C79.5821 55.5381 80.2616 53.9518 81.1146 52.5337C83.6157 48.4525 86.6855 45.2799 91.0612 44.0878C94.131 35.5264 100.097 31.7865 107.143 29.633C113.904 28.5562 118.795 30.6521 122.371 35.2428C134.645 33.7141 141.18 38.6462 140.274 52.0771C147.493 56.4419 150.163 62.0565 150.105 68.3489C154.139 71.2956 155.787 74.8673 155.618 78.8908C155.334 84.5583 151.469 89.4903 146.129 91.4756C143.233 92.5524 140.274 93.1773 138.684 93.4032C138 93.6292 137.32 93.7445 136.694 93.9128V93.9176Z" fill="#DEF2AF"/>
<path d="M136.978 96.0719C131.918 97.264 108.333 96.0719 91.9098 95.8459C91.0568 95.8459 90.2038 95.7306 89.4087 95.5623C84.0112 94.3173 80.8258 91.0293 78.9511 86.5491C78.2668 84.9628 77.9295 83.2611 77.9873 81.6171C78.103 77.7618 79.5776 74.5315 82.6474 72.0943C80.5463 68.638 79.5198 64.6674 80.4306 60.019C80.7728 58.375 81.3945 56.7887 82.3053 55.3706C84.7486 51.3471 87.8183 48.2273 92.0785 47.0929C95.0904 38.7046 100.999 34.9599 107.876 32.864C114.526 31.7872 119.355 33.8831 122.825 38.3633C134.93 36.8346 141.349 41.709 140.443 54.9187C147.547 59.2259 150.216 64.7251 150.163 70.9599C154.139 73.8489 155.787 77.3676 155.561 81.3335C155.277 86.9433 151.469 91.7647 146.241 93.6924C143.397 94.7691 140.501 95.3364 138.911 95.62C138.284 95.7354 137.663 95.9036 136.978 96.0719Z" fill="#A9D661"/>
<path fill-rule="evenodd" clip-rule="evenodd" d="M66.8361 161.409L53.8389 161.298L59.3712 101.725L61.3567 101.806L66.8361 161.409Z" fill="#D1EEF2"/>
<path d="M60.3788 121.231C72.7896 121.231 82.8504 111.564 82.8504 99.6382C82.8504 87.7126 72.7896 78.0449 60.3788 78.0449C47.9681 78.0449 37.9072 87.7126 37.9072 99.6382C37.9072 111.564 47.9681 121.231 60.3788 121.231Z" fill="#1ECAD3"/>
<path d="M46.028 97.9451C45.5268 97.9451 45.0594 98.0653 44.6401 98.2768V95.2051H42.939V101.156C43.0064 102.795 44.3654 104.103 46.0232 104.103C47.681 104.103 49.1123 102.723 49.1123 101.022C49.1123 99.3199 47.7292 97.9403 46.0232 97.9403L46.028 97.9451ZM46.028 102.411C45.2618 102.411 44.6401 101.791 44.6401 101.026C44.6401 100.262 45.2618 99.642 46.028 99.642C46.7943 99.642 47.4159 100.262 47.4159 101.026C47.4159 101.791 46.7943 102.411 46.028 102.411Z" fill="white"/>
<path d="M51.0974 98.1328C50.6299 98.1328 50.2492 98.5126 50.2492 98.9789L50.1528 104.05H52.0419L51.9455 98.9789C51.9455 98.5126 51.5648 98.1328 51.0974 98.1328Z" fill="white"/>
<path d="M56.4561 97.9453C54.7887 97.9453 53.4297 99.3009 53.4297 100.964V104.055H55.1308V100.964C55.1308 100.233 55.7284 99.6422 56.4561 99.6422C57.1838 99.6422 57.7814 100.238 57.7814 100.964V104.055H59.4825V100.964C59.4825 99.3009 58.1235 97.9453 56.4561 97.9453Z" fill="white"/>
<path d="M51.0971 97.46C51.7306 97.46 52.2441 96.9478 52.2441 96.316C52.2441 95.6841 51.7306 95.1719 51.0971 95.1719C50.4637 95.1719 49.9502 95.6841 49.9502 96.316C49.9502 96.9478 50.4637 97.46 51.0971 97.46Z" fill="white"/>
<path d="M69.4297 97.46C70.0631 97.46 70.5766 96.9478 70.5766 96.316C70.5766 95.6841 70.0631 95.1719 69.4297 95.1719C68.7962 95.1719 68.2827 95.6841 68.2827 96.316C68.2827 96.9478 68.7962 97.46 69.4297 97.46Z" fill="white"/>
<path d="M74.7886 97.9453C73.1212 97.9453 71.7622 99.3009 71.7622 100.964V104.055H73.4634V100.964C73.4634 100.233 74.0609 99.6422 74.7886 99.6422C75.5163 99.6422 76.1139 100.238 76.1139 100.964V104.055H77.815V100.964C77.815 99.3009 76.456 97.9453 74.7886 97.9453Z" fill="white"/>
<path d="M64.3601 97.9451C63.8589 97.9451 63.3914 98.0653 62.9721 98.2768V95.2051H61.271V101.156C61.3385 102.795 62.6975 104.103 64.3552 104.103C66.013 104.103 67.4443 102.723 67.4443 101.022C67.4443 99.3199 66.0612 97.9403 64.3552 97.9403L64.3601 97.9451ZM64.3601 102.411C63.5938 102.411 62.9721 101.791 62.9721 101.026C62.9721 100.262 63.5938 99.642 64.3601 99.642C65.1263 99.642 65.748 100.262 65.748 101.026C65.748 101.791 65.1263 102.411 64.3601 102.411Z" fill="white"/>
<path d="M69.4299 98.1328C68.9624 98.1328 68.5817 98.5126 68.5817 98.9789L68.4854 104.05H70.3744L70.2781 98.9789C70.2781 98.5126 69.8974 98.1328 69.4299 98.1328Z" fill="white"/>
<path fill-rule="evenodd" clip-rule="evenodd" d="M112.52 143.981C112.819 144.159 112.93 144.558 112.761 144.87L110.593 148.971C110.482 149.168 110.275 149.307 110.048 149.307H99.7448C99.4074 149.307 99.1279 149.009 99.1279 148.654C99.1279 148.298 99.4074 148 99.7448 148H109.672L111.653 144.236C111.841 143.919 112.212 143.818 112.511 143.976L112.52 143.981Z" fill="#3DBCC8"/>
<path fill-rule="evenodd" clip-rule="evenodd" d="M96.8532 149.808C97.3592 149.808 97.7881 149.37 97.7881 148.817C97.7881 148.264 97.3785 147.827 96.8532 147.827C96.3279 147.827 95.9183 148.264 95.9183 148.817C95.9183 149.37 96.3472 149.808 96.8532 149.808ZM96.8532 151.115C98.0483 151.115 99.0218 150.086 99.0218 148.817C99.0218 147.548 98.0483 146.52 96.8532 146.52C95.658 146.52 94.6846 147.548 94.6846 148.817C94.6846 150.086 95.658 151.115 96.8532 151.115Z" fill="#20505A"/>
<path fill-rule="evenodd" clip-rule="evenodd" d="M114.539 149.808C115.045 149.808 115.474 149.37 115.474 148.817C115.474 148.264 115.064 147.827 114.539 147.827C114.014 147.827 113.604 148.264 113.604 148.817C113.604 149.37 114.033 149.808 114.539 149.808ZM114.539 151.115C115.734 151.115 116.708 150.086 116.708 148.817C116.708 147.548 115.734 146.52 114.539 146.52C113.344 146.52 112.371 147.548 112.371 148.817C112.371 150.086 113.344 151.115 114.539 151.115Z" fill="#20505A"/>
<path fill-rule="evenodd" clip-rule="evenodd" d="M109.995 135.978C110.313 135.82 110.67 135.978 110.819 136.296L111.118 136.968C111.267 137.305 111.118 137.68 110.819 137.839C110.501 137.997 110.144 137.839 109.995 137.521L109.696 136.848C109.547 136.531 109.677 136.137 109.995 135.978Z" fill="#20505A"/>
<path fill-rule="evenodd" clip-rule="evenodd" d="M111.099 142.395L112.41 145.924C112.487 146.121 112.67 146.399 112.82 146.52C113.046 146.678 113.268 146.717 113.528 146.558C113.827 146.323 113.736 145.645 113.509 145.111L113.229 144.438L111.099 138.91L109.287 134.074L108.353 134.589L111.099 142.395Z" fill="#65C8D0"/>
<path fill-rule="evenodd" clip-rule="evenodd" d="M109.61 134.344C109.542 134.32 109.402 134.373 109.402 134.373L109.716 135.219L109.836 135.171C109.836 135.171 109.826 134.416 109.614 134.344H109.61Z" fill="#1A1A1A"/>
<path fill-rule="evenodd" clip-rule="evenodd" d="M108.353 134.589L107.23 131.34C107.307 131.34 106.839 131.321 106.555 131.46C106.406 131.537 106.03 131.758 105.977 131.696C105.77 131.595 105.639 131.46 105.62 131.181C105.62 130.922 105.77 130.806 105.977 130.763L107.302 130.643L107.244 130.383L106.232 130.46L106.194 130.282L107.577 130.162L107.707 130.758C107.948 130.777 108.155 130.878 108.304 131.176L109.278 134.07L108.343 134.585L108.353 134.589Z" fill="#1A1A1A"/>
<g opacity="0.96">
<path d="M110.819 139.563C110.781 139.582 110.742 139.602 110.708 139.64L110.598 139.361L110.448 139.419L110.655 139.972C110.713 140.13 110.882 140.188 111.031 140.13C111.181 140.073 111.258 139.895 111.2 139.736C111.142 139.578 110.974 139.501 110.824 139.558L110.819 139.563ZM110.988 139.981C110.911 140.001 110.839 139.981 110.819 139.905C110.8 139.828 110.819 139.746 110.896 139.727C110.974 139.707 111.046 139.727 111.065 139.804C111.084 139.88 111.046 139.962 110.988 139.981Z" fill="white"/>
<path d="M111.475 141.265C111.325 141.323 111.248 141.501 111.325 141.659L111.436 141.957L111.585 141.9L111.475 141.602C111.455 141.544 111.475 141.462 111.552 141.424C111.61 141.405 111.682 141.424 111.72 141.501L111.831 141.799L111.981 141.741L111.87 141.443C111.793 141.284 111.629 141.208 111.479 141.265H111.475Z" fill="white"/>
<path d="M111.196 140.555C111.157 140.574 111.138 140.612 111.157 140.675L111.326 141.151L111.494 141.074L111.306 140.598C111.306 140.598 111.249 140.54 111.196 140.559V140.555Z" fill="white"/>
<path d="M111.137 140.516C111.198 140.516 111.247 140.462 111.247 140.396C111.247 140.329 111.198 140.275 111.137 140.275C111.076 140.275 111.026 140.329 111.026 140.396C111.026 140.462 111.076 140.516 111.137 140.516Z" fill="white"/>
<path d="M109.773 136.829C109.735 136.848 109.696 136.867 109.663 136.906L109.552 136.627L109.402 136.685L109.61 137.237C109.667 137.396 109.836 137.454 109.985 137.396C110.135 137.338 110.212 137.161 110.154 137.002C110.096 136.843 109.928 136.766 109.778 136.824L109.773 136.829ZM109.923 137.247C109.846 137.266 109.773 137.247 109.754 137.17C109.735 137.093 109.754 137.012 109.831 136.992C109.908 136.973 109.981 136.992 110 137.069C110.038 137.146 110 137.228 109.923 137.247Z" fill="white"/>
<path d="M110.429 138.535C110.279 138.592 110.202 138.77 110.279 138.929L110.39 139.227L110.54 139.169L110.429 138.871C110.409 138.814 110.429 138.732 110.506 138.693C110.583 138.655 110.636 138.693 110.675 138.77L110.785 139.068L110.935 139.011L110.824 138.713C110.732 138.554 110.583 138.477 110.434 138.535H110.429Z" fill="white"/>
<path d="M110.144 137.82C110.106 137.84 110.086 137.878 110.106 137.94L110.274 138.416L110.443 138.339L110.255 137.864C110.255 137.864 110.178 137.825 110.144 137.825V137.82Z" fill="white"/>
<path d="M110.091 137.781C110.152 137.781 110.202 137.728 110.202 137.661C110.202 137.595 110.152 137.541 110.091 137.541C110.03 137.541 109.98 137.595 109.98 137.661C109.98 137.728 110.03 137.781 110.091 137.781Z" fill="white"/>
</g>
<path fill-rule="evenodd" clip-rule="evenodd" d="M106.257 130.293L106.445 130.273L106.555 130.451L106.257 130.49L106.204 130.312L106.257 130.293Z" fill="#1A1A1A"/>
<path fill-rule="evenodd" clip-rule="evenodd" d="M106.574 145.313C107.007 145.554 107.167 146.097 106.926 146.525L103.788 152.106C103.624 152.375 103.33 152.562 103.003 152.562H88.1069C87.6201 152.562 87.2153 152.159 87.2153 151.673C87.2153 151.188 87.6201 150.784 88.1069 150.784H102.463L105.33 145.66C105.6 145.227 106.14 145.092 106.574 145.309V145.313Z" fill="#3DBCC8"/>
<path fill-rule="evenodd" clip-rule="evenodd" d="M83.9195 153.246C84.6472 153.246 85.2688 152.655 85.2688 151.9C85.2688 151.145 84.6761 150.554 83.9195 150.554C83.1629 150.554 82.5701 151.145 82.5701 151.9C82.5701 152.655 83.1918 153.246 83.9195 153.246ZM83.9195 155.024C85.6495 155.024 87.0567 153.621 87.0567 151.895C87.0567 150.169 85.6495 148.766 83.9195 148.766C82.1894 148.766 80.7822 150.169 80.7822 151.895C80.7822 153.621 82.1894 155.024 83.9195 155.024Z" fill="#20505A"/>
<path fill-rule="evenodd" clip-rule="evenodd" d="M109.495 153.246C110.222 153.246 110.844 152.655 110.844 151.9C110.844 151.145 110.251 150.554 109.495 150.554C108.738 150.554 108.145 151.145 108.145 151.9C108.145 152.655 108.767 153.246 109.495 153.246ZM109.495 155.024C111.225 155.024 112.632 153.621 112.632 151.895C112.632 150.169 111.225 148.766 109.495 148.766C107.765 148.766 106.357 150.169 106.357 151.895C106.357 153.621 107.765 155.024 109.495 155.024Z" fill="#20505A"/>
<path fill-rule="evenodd" clip-rule="evenodd" d="M102.926 134.421C103.384 134.204 103.899 134.421 104.116 134.853L104.55 135.772C104.767 136.228 104.55 136.743 104.116 136.959C103.658 137.175 103.143 136.959 102.926 136.526L102.492 135.608C102.275 135.175 102.463 134.637 102.926 134.421Z" fill="#20505A"/>
<path fill-rule="evenodd" clip-rule="evenodd" d="M104.521 143.16L106.415 147.963C106.521 148.232 106.796 148.611 107.008 148.77C107.331 148.986 107.658 149.039 108.034 148.823C108.468 148.501 108.333 147.583 108.005 146.852L107.601 145.934L104.516 138.411L101.895 131.83L100.545 132.532L104.521 143.155V143.16Z" fill="#65C8D0"/>
<path fill-rule="evenodd" clip-rule="evenodd" d="M102.363 132.2C102.261 132.166 102.059 132.243 102.059 132.243L102.507 133.397L102.676 133.33C102.676 133.33 102.661 132.306 102.358 132.2H102.363Z" fill="#1A1A1A"/>
<path fill-rule="evenodd" clip-rule="evenodd" d="M100.545 132.532L98.9214 128.11C99.0274 128.11 98.3527 128.081 97.9479 128.273C97.7311 128.379 97.1913 128.677 97.1094 128.595C96.8106 128.461 96.6227 128.273 96.5938 127.893C96.5938 127.542 96.8106 127.379 97.1094 127.326L99.0274 127.163L98.9455 126.812L97.4853 126.917L97.4323 126.677L99.4322 126.514L99.6202 127.321C99.972 127.35 100.271 127.485 100.488 127.888L101.895 131.825L100.541 132.527L100.545 132.532Z" fill="#1A1A1A"/>
<g opacity="0.96">
<path d="M104.116 139.301C104.063 139.33 104.01 139.354 103.952 139.407L103.789 139.027L103.572 139.109L103.871 139.864C103.952 140.08 104.193 140.162 104.41 140.08C104.627 139.998 104.733 139.758 104.651 139.542C104.569 139.325 104.328 139.22 104.112 139.301H104.116ZM104.357 139.869C104.251 139.897 104.14 139.869 104.116 139.763C104.087 139.657 104.116 139.547 104.222 139.522C104.328 139.498 104.439 139.522 104.463 139.628C104.492 139.734 104.434 139.845 104.357 139.869Z" fill="white"/>
<path d="M105.062 141.623C104.845 141.705 104.739 141.945 104.845 142.162L105.009 142.565L105.225 142.484L105.062 142.08C105.033 141.998 105.062 141.892 105.168 141.84C105.25 141.811 105.356 141.84 105.409 141.945L105.572 142.349L105.789 142.267L105.625 141.864C105.519 141.647 105.274 141.542 105.057 141.623H105.062Z" fill="white"/>
<path d="M104.657 140.652C104.604 140.681 104.575 140.734 104.604 140.815L104.845 141.464L105.086 141.359L104.816 140.71C104.787 140.681 104.734 140.628 104.652 140.657L104.657 140.652Z" fill="white"/>
<path d="M104.574 140.598C104.665 140.598 104.738 140.525 104.738 140.435C104.738 140.345 104.665 140.271 104.574 140.271C104.484 140.271 104.411 140.345 104.411 140.435C104.411 140.525 104.484 140.598 104.574 140.598Z" fill="white"/>
<path d="M102.604 135.581C102.551 135.609 102.498 135.634 102.44 135.686L102.276 135.307L102.059 135.388L102.358 136.143C102.44 136.359 102.681 136.441 102.898 136.359C103.114 136.278 103.22 136.037 103.139 135.821C103.057 135.605 102.816 135.499 102.599 135.581H102.604ZM102.821 136.148C102.714 136.177 102.604 136.148 102.58 136.042C102.551 135.936 102.58 135.826 102.686 135.802C102.792 135.778 102.902 135.802 102.927 135.908C102.98 136.013 102.927 136.124 102.821 136.148Z" fill="white"/>
<path d="M103.548 137.903C103.331 137.984 103.225 138.225 103.331 138.441L103.495 138.845L103.712 138.763L103.548 138.359C103.519 138.278 103.548 138.172 103.654 138.119C103.76 138.066 103.842 138.119 103.895 138.225L104.059 138.628L104.276 138.547L104.112 138.143C103.977 137.927 103.76 137.821 103.543 137.903H103.548Z" fill="white"/>
<path d="M103.144 136.932C103.091 136.96 103.062 137.013 103.091 137.095L103.331 137.744L103.572 137.638L103.303 136.989C103.274 136.96 103.197 136.936 103.139 136.936L103.144 136.932Z" fill="white"/>
<path d="M103.062 136.88C103.152 136.88 103.226 136.806 103.226 136.716C103.226 136.626 103.152 136.553 103.062 136.553C102.971 136.553 102.898 136.626 102.898 136.716C102.898 136.806 102.971 136.88 103.062 136.88Z" fill="white"/>
</g>
<path fill-rule="evenodd" clip-rule="evenodd" d="M97.5199 126.683L97.7898 126.654L97.9536 126.899L97.5199 126.952L97.438 126.707L97.5199 126.683Z" fill="#1A1A1A"/>
<path fill-rule="evenodd" clip-rule="evenodd" d="M99.2074 148.643C99.7616 148.955 99.9688 149.643 99.6556 150.196L95.6412 157.339C95.434 157.685 95.0533 157.925 94.6389 157.925H75.584C74.9624 157.925 74.4419 157.406 74.4419 156.786C74.4419 156.166 74.9624 155.647 75.584 155.647H93.9497L97.6171 149.09C97.9641 148.537 98.6532 148.364 99.2074 148.643Z" fill="#3DBCC8"/>
<path fill-rule="evenodd" clip-rule="evenodd" d="M70.2253 158.785C71.1602 158.785 71.9553 158.025 71.9553 157.059C71.9553 156.093 71.1939 155.333 70.2253 155.333C69.2566 155.333 68.4952 156.093 68.4952 157.059C68.4952 158.025 69.2904 158.785 70.2253 158.785ZM70.2253 161.063C72.4373 161.063 74.2396 159.27 74.2396 157.059C74.2396 154.848 72.4421 153.055 70.2253 153.055C68.0085 153.055 66.2109 154.848 66.2109 157.059C66.2109 159.27 68.0085 161.063 70.2253 161.063Z" fill="#20505A"/>
<path fill-rule="evenodd" clip-rule="evenodd" d="M102.943 158.785C103.877 158.785 104.673 158.025 104.673 157.059C104.673 156.093 103.911 155.333 102.943 155.333C101.974 155.333 101.212 156.093 101.212 157.059C101.212 158.025 102.008 158.785 102.943 158.785ZM102.943 161.063C105.155 161.063 106.957 159.27 106.957 157.059C106.957 154.848 105.159 153.055 102.943 153.055C100.726 153.055 98.9282 154.848 98.9282 157.059C98.9282 159.27 100.726 161.063 102.943 161.063Z" fill="#20505A"/>
<path fill-rule="evenodd" clip-rule="evenodd" d="M94.538 134.707C95.1259 134.433 95.7813 134.707 96.0608 135.26L96.615 136.433C96.8897 137.019 96.615 137.673 96.0608 137.952C95.4729 138.226 94.8175 137.952 94.538 137.399L93.9838 136.226C93.7091 135.673 93.95 134.986 94.538 134.707Z" fill="#20505A"/>
<path fill-rule="evenodd" clip-rule="evenodd" d="M96.5803 145.882L98.9995 152.021C99.1392 152.367 99.4814 152.847 99.7609 153.054C100.175 153.328 100.59 153.4 101.077 153.121C101.631 152.708 101.457 151.535 101.043 150.602L100.522 149.43L96.5803 139.806L93.2262 131.389L91.4961 132.288L96.5803 145.882Z" fill="#65C8D0"/>
<path fill-rule="evenodd" clip-rule="evenodd" d="M93.8196 131.865C93.6895 131.821 93.4341 131.918 93.4341 131.918L94.0124 133.393L94.2292 133.307C94.2292 133.307 94.21 131.994 93.8196 131.865Z" fill="#1A1A1A"/>
<path fill-rule="evenodd" clip-rule="evenodd" d="M91.4963 132.288L89.4193 126.63C89.559 126.63 88.6916 126.596 88.1759 126.837C87.9012 126.976 87.2073 127.356 87.1061 127.25C86.7254 127.077 86.4844 126.837 86.4507 126.351C86.4507 125.904 86.7254 125.697 87.1061 125.625L89.5638 125.419L89.4578 124.972L87.588 125.111L87.5205 124.799L90.0795 124.592L90.3204 125.625C90.7686 125.659 91.1493 125.832 91.4288 126.351L93.2264 131.389L91.4963 132.288Z" fill="#1A1A1A"/>
<g opacity="0.96">
<path d="M96.0607 140.951C95.9932 140.984 95.921 141.018 95.8535 141.09L95.6463 140.609L95.3716 140.715L95.7523 141.681C95.8583 141.955 96.1667 142.061 96.4462 141.955C96.7209 141.85 96.8607 141.542 96.7595 141.263C96.6535 140.989 96.345 140.85 96.0655 140.951H96.0607ZM96.374 141.677C96.2342 141.71 96.0993 141.677 96.0607 141.537C96.027 141.398 96.0607 141.263 96.2005 141.225C96.3402 141.186 96.4752 141.225 96.5137 141.364C96.5474 141.503 96.48 141.638 96.374 141.677Z" fill="white"/>
<path d="M97.271 143.917C96.9963 144.022 96.8566 144.33 96.9963 144.609L97.2036 145.128L97.4782 145.022L97.271 144.503C97.2373 144.397 97.271 144.263 97.4108 144.191C97.5168 144.157 97.6517 144.191 97.724 144.33L97.9312 144.849L98.2059 144.743L97.9987 144.224C97.859 143.95 97.5505 143.811 97.271 143.912V143.917Z" fill="white"/>
<path d="M96.7498 142.677C96.6823 142.711 96.6438 142.783 96.6823 142.884L96.9955 143.711L97.3088 143.571L96.9618 142.744C96.9281 142.711 96.8558 142.639 96.7546 142.677H96.7498Z" fill="white"/>
<path d="M96.6486 142.605C96.7631 142.605 96.8559 142.512 96.8559 142.398C96.8559 142.284 96.7631 142.191 96.6486 142.191C96.5342 142.191 96.4414 142.284 96.4414 142.398C96.4414 142.512 96.5342 142.605 96.6486 142.605Z" fill="white"/>
<path d="M94.1237 136.187C94.0562 136.221 93.984 136.254 93.9165 136.326L93.7093 135.846L93.4346 135.951L93.8153 136.918C93.9213 137.192 94.2297 137.297 94.5092 137.192C94.7839 137.086 94.9237 136.778 94.8225 136.499C94.7165 136.225 94.408 136.086 94.1285 136.187H94.1237ZM94.3984 136.913C94.2586 136.947 94.1237 136.913 94.0852 136.773C94.0514 136.634 94.0852 136.499 94.2249 136.461C94.3647 136.423 94.4996 136.461 94.5381 136.6C94.6056 136.74 94.5382 136.874 94.3984 136.913Z" fill="white"/>
<path d="M95.3335 139.157C95.0588 139.263 94.9191 139.57 95.0588 139.849L95.2661 140.368L95.5407 140.262L95.3335 139.743C95.2998 139.638 95.3335 139.503 95.4733 139.431C95.613 139.359 95.7142 139.431 95.7865 139.57L95.9937 140.089L96.2684 139.984L96.0612 139.464C95.8877 139.19 95.613 139.051 95.3335 139.152V139.157Z" fill="white"/>
<path d="M94.8128 137.912C94.7453 137.946 94.7067 138.018 94.7453 138.119L95.0585 138.946L95.3718 138.806L95.0248 137.979C94.9911 137.946 94.885 137.912 94.8176 137.912H94.8128Z" fill="white"/>
<path d="M94.7121 137.845C94.8265 137.845 94.9193 137.752 94.9193 137.638C94.9193 137.524 94.8265 137.432 94.7121 137.432C94.5977 137.432 94.5049 137.524 94.5049 137.638C94.5049 137.752 94.5977 137.845 94.7121 137.845Z" fill="white"/>
</g>
<path fill-rule="evenodd" clip-rule="evenodd" d="M87.6216 124.803L87.9638 124.77L88.1758 125.077L87.6216 125.149L87.5156 124.837L87.6216 124.803Z" fill="#1A1A1A"/>
<path fill-rule="evenodd" clip-rule="evenodd" d="M91.1585 153.314C91.8379 153.693 92.0934 154.544 91.7127 155.222L86.7827 164C86.5273 164.423 86.0598 164.721 85.549 164.721H62.1328C61.3666 164.721 60.7305 164.086 60.7305 163.322C60.7305 162.558 61.3666 161.923 62.1328 161.923H84.7008L89.2067 153.866C89.6308 153.189 90.4838 152.977 91.1633 153.314H91.1585Z" fill="#3DBCC8"/>
<path fill-rule="evenodd" clip-rule="evenodd" d="M55.5452 165.778C56.6922 165.778 57.6704 164.845 57.6704 163.658C57.6704 162.471 56.7355 161.538 55.5452 161.538C54.3549 161.538 53.42 162.471 53.42 163.658C53.42 164.845 54.3982 165.778 55.5452 165.778ZM55.5452 168.575C58.2632 168.575 60.4752 166.369 60.4752 163.658C60.4752 160.947 58.2632 158.74 55.5452 158.74C52.8272 158.74 50.6152 160.947 50.6152 163.658C50.6152 166.369 52.8272 168.575 55.5452 168.575Z" fill="#20505A"/>
<path fill-rule="evenodd" clip-rule="evenodd" d="M95.7508 165.778C96.8977 165.778 97.876 164.845 97.876 163.658C97.876 162.471 96.9411 161.538 95.7508 161.538C94.5604 161.538 93.6255 162.471 93.6255 163.658C93.6255 164.845 94.6038 165.778 95.7508 165.778ZM95.7508 168.575C98.4688 168.575 100.681 166.369 100.681 163.658C100.681 160.947 98.4688 158.74 95.7508 158.74C93.0328 158.74 90.8208 160.947 90.8208 163.658C90.8208 166.369 93.0328 168.575 95.7508 168.575Z" fill="#20505A"/>
<path fill-rule="evenodd" clip-rule="evenodd" d="M85.4235 136.187C86.1463 135.845 86.9511 136.187 87.2933 136.865L87.9728 138.307C88.3149 139.028 87.9728 139.83 87.2933 140.172C86.5704 140.513 85.7656 140.172 85.4235 139.494L84.744 138.052C84.4018 137.374 84.7006 136.528 85.4235 136.187Z" fill="#20505A"/>
<path fill-rule="evenodd" clip-rule="evenodd" d="M87.9297 149.921L90.9031 157.468C91.0717 157.891 91.4958 158.487 91.838 158.741C92.3488 159.083 92.8596 159.164 93.4524 158.828C94.1319 158.318 93.9199 156.876 93.409 155.732L92.7729 154.29L87.9297 142.46L83.8093 132.115L81.6841 133.216L87.9297 149.921Z" fill="#65C8D0"/>
<path fill-rule="evenodd" clip-rule="evenodd" d="M84.5367 132.697C84.3777 132.644 84.0645 132.764 84.0645 132.764L84.7729 134.577L85.0427 134.471C85.0427 134.471 85.0186 132.86 84.5415 132.697H84.5367Z" fill="#1A1A1A"/>
<path fill-rule="evenodd" clip-rule="evenodd" d="M81.6837 133.216L79.1343 126.265C79.303 126.265 78.2428 126.222 77.6067 126.52C77.2645 126.688 76.4164 127.155 76.2911 127.03C75.8236 126.818 75.5248 126.52 75.4814 125.929C75.4814 125.376 75.8236 125.121 76.2911 125.039L79.3078 124.785L79.1825 124.232L76.8886 124.4L76.8019 124.02L79.9488 123.766L80.2476 125.039C80.8018 125.083 81.2692 125.294 81.6066 125.929L83.8185 132.12L81.6933 133.221L81.6837 133.216Z" fill="#1A1A1A"/>
<g opacity="0.96">
<path d="M87.2944 143.859C87.2076 143.902 87.1257 143.945 87.039 144.027L86.7836 143.436L86.4414 143.561L86.9089 144.748C87.0342 145.089 87.4197 145.214 87.757 145.089C88.0992 144.964 88.2679 144.58 88.1377 144.243C88.0124 143.902 87.6269 143.734 87.2896 143.863L87.2944 143.859ZM87.6751 144.748C87.5064 144.791 87.3329 144.748 87.2944 144.58C87.251 144.411 87.2944 144.238 87.4631 144.2C87.6317 144.161 87.8052 144.2 87.8438 144.368C87.8871 144.536 87.8004 144.709 87.6751 144.748Z" fill="white"/>
<path d="M88.7783 147.502C88.4362 147.627 88.2675 148.011 88.4362 148.348L88.6916 148.982L89.0338 148.857L88.7783 148.223C88.735 148.098 88.7784 147.925 88.947 147.843C89.0723 147.8 89.2458 147.843 89.3277 148.011L89.5831 148.646L89.9253 148.521L89.6699 147.886C89.5012 147.545 89.1157 147.377 88.7783 147.507V147.502Z" fill="white"/>
<path d="M88.1417 145.979C88.055 146.022 88.0164 146.104 88.055 146.234L88.4357 147.253L88.8164 147.084L88.3923 146.065C88.3489 146.022 88.267 145.94 88.1369 145.979H88.1417Z" fill="white"/>
<path d="M88.0162 145.892C88.1572 145.892 88.2716 145.778 88.2716 145.638C88.2716 145.497 88.1572 145.383 88.0162 145.383C87.8751 145.383 87.7607 145.497 87.7607 145.638C87.7607 145.778 87.8751 145.892 88.0162 145.892Z" fill="white"/>
<path d="M84.913 138.009C84.8263 138.052 84.7444 138.095 84.6576 138.177L84.4022 137.586L84.0601 137.711L84.5275 138.898C84.6528 139.24 85.0383 139.365 85.3757 139.24C85.7178 139.115 85.8865 138.73 85.7564 138.394C85.6311 138.052 85.2456 137.884 84.9082 138.014L84.913 138.009ZM85.2552 138.898C85.0865 138.942 84.913 138.898 84.8745 138.73C84.8311 138.562 84.8745 138.389 85.0432 138.35C85.2118 138.312 85.3853 138.35 85.4239 138.519C85.5106 138.687 85.4239 138.86 85.2552 138.898Z" fill="white"/>
<path d="M86.4019 141.652C86.0597 141.777 85.8911 142.162 86.0597 142.498L86.3151 143.133L86.6573 143.008L86.4019 142.373C86.3585 142.248 86.4019 142.075 86.5706 141.994C86.7392 141.912 86.8693 141.994 86.9513 142.162L87.2067 142.796L87.5488 142.671L87.2934 142.037C87.0814 141.696 86.7392 141.527 86.4019 141.657V141.652Z" fill="white"/>
<path d="M85.7609 140.129C85.6741 140.172 85.6356 140.254 85.6741 140.384L86.0548 141.403L86.4355 141.235L86.0115 140.215C85.9681 140.172 85.8428 140.129 85.7561 140.129H85.7609Z" fill="white"/>
<path d="M85.6353 140.043C85.7764 140.043 85.8907 139.929 85.8907 139.788C85.8907 139.647 85.7764 139.533 85.6353 139.533C85.4942 139.533 85.3799 139.647 85.3799 139.788C85.3799 139.929 85.4942 140.043 85.6353 140.043Z" fill="white"/>
</g>
<path fill-rule="evenodd" clip-rule="evenodd" d="M76.9226 124.02L77.3467 123.977L77.6021 124.356L76.9226 124.443L76.7925 124.063L76.9226 124.02Z" fill="#1A1A1A"/>
<path d="M185.711 148.144C185.938 148.984 184.87 152.024 184.719 153.089C185.253 154.079 187.006 153.547 187.313 152.632C187.389 152.556 187.464 152.481 187.464 152.25C187.389 151.566 188.074 149.36 188.683 148.214L185.706 148.139L185.711 148.144Z" fill="#BC9275"/>
<path d="M195.399 148.826C195.625 149.666 194.639 151.716 194.482 152.781C195.016 153.771 196.769 153.238 197.077 152.324C197.152 152.248 197.228 152.173 197.228 151.942C197.152 151.258 197.837 149.429 198.446 148.363L195.393 148.821L195.399 148.826Z" fill="#BC9275"/>
<path d="M194.534 151.924C195.527 151.49 196.804 150.749 197.379 150.72C197.599 150.72 197.762 150.598 197.889 150.471C198.052 150.314 198.273 150.193 198.528 150.065C198.656 150.036 198.812 150.065 198.94 150.164C199.254 150.546 199.312 150.963 199.149 151.403L199.37 151.501L202.156 152.486C202.249 152.52 202.313 152.52 202.411 152.584C204.124 152.984 204.594 153.655 204.553 154.414C204.553 154.634 204.391 154.726 204.17 154.726H194.772C194.209 154.726 193.762 154.263 193.78 153.707L193.797 153.209C193.797 152.926 193.745 151.472 193.96 151.218C194.198 150.992 194.291 152.046 194.546 151.918L194.534 151.924Z" fill="#0F0E0F"/>
<path d="M199.724 151.623L199.056 152.862C198.964 153.018 199.027 153.273 199.213 153.372C199.306 153.401 199.434 153.372 199.498 153.279L200.258 151.82L199.718 151.629L199.724 151.623Z" fill="white"/>
<path d="M200.646 151.953L199.95 153.221C199.857 153.441 199.921 153.632 200.107 153.76C200.234 153.789 200.362 153.76 200.391 153.667L201.186 152.144L200.646 151.953Z" fill="white"/>
<path d="M184.778 151.924C185.77 151.49 187.047 150.749 187.622 150.72C187.842 150.72 188.005 150.598 188.133 150.471C188.295 150.314 188.516 150.193 188.771 150.065C188.899 150.036 189.056 150.065 189.183 150.164C189.497 150.546 189.555 150.963 189.392 151.403L189.613 151.501L192.399 152.486C192.492 152.52 192.556 152.52 192.654 152.584C194.367 152.984 194.837 153.655 194.796 154.414C194.796 154.634 194.634 154.726 194.413 154.726H185.016C184.452 154.726 184.006 154.263 184.023 153.707L184.04 153.209C184.04 152.926 183.988 151.472 184.203 151.218C184.441 150.992 184.534 152.046 184.789 151.918L184.778 151.924Z" fill="#0F0E0F"/>
<path d="M189.967 151.623L189.3 152.862C189.207 153.018 189.271 153.273 189.456 153.372C189.549 153.401 189.677 153.372 189.741 153.279L190.501 151.82L189.961 151.629L189.967 151.623Z" fill="white"/>
<path d="M190.889 151.953L190.193 153.221C190.1 153.441 190.164 153.632 190.349 153.76C190.477 153.789 190.605 153.76 190.634 153.667L191.429 152.144L190.889 151.953Z" fill="white"/>
<path d="M196.769 92.7441H203.938C207.525 103.473 208.593 115.65 206.457 127.745C206.306 128.66 206.074 129.569 205.772 130.484L199.515 149.052C197.762 149.811 196.235 149.434 194.401 148.977C196.763 142.052 198.139 135.891 198.749 129.192C198.975 128.127 198.975 125.996 198.975 125.996C199.735 115.493 197.297 95.3323 196.763 92.7441H196.769Z" fill="#131851"/>
<path d="M190.97 149.058C188.527 149.742 186.39 148.983 184.562 148.219L187.917 126.987C187.993 126.605 187.993 126.147 187.993 125.771L186.315 100.735C186.315 100.127 186.315 99.5188 186.39 98.9108C186.698 96.7048 187.232 93.584 188.143 92.4434H197.448C200.118 104.846 199.66 115.424 198.592 121.434C198.516 121.967 197.982 127.751 197.373 129.424L190.964 149.058H190.97Z" fill="#131851"/>
<path d="M204.332 93.9613L187.342 94.1813L187.58 93.5039H204.187L204.332 93.9613Z" fill="#0E0E38"/>
<path d="M192.572 51.3535L198.063 51.8862C196.536 54.3991 195.242 56.5298 197.07 58.3537L191.881 57.8962C193.634 56.6051 193.407 53.6348 192.566 51.3535H192.572Z" fill="#BC9275"/>
<path fill-rule="evenodd" clip-rule="evenodd" d="M241.092 138.099C242.387 138.858 242.845 140.537 242.16 141.828L232.623 158.874C232.165 159.714 231.248 160.246 230.261 160.246H184.718C183.192 160.246 181.973 159.03 181.973 157.508C181.973 155.985 183.192 154.769 184.718 154.769H228.659L237.43 139.095C238.115 137.879 239.792 137.422 241.092 138.105V138.099Z" fill="#3DBBC7"/>
<path fill-rule="evenodd" clip-rule="evenodd" d="M171.826 162.295C174.113 162.295 175.947 160.471 175.947 158.184C175.947 155.897 174.119 154.073 171.826 154.073C169.533 154.073 167.705 155.897 167.705 158.184C167.705 160.471 169.533 162.295 171.826 162.295ZM171.826 167.772C177.091 167.772 181.363 163.511 181.363 158.259C181.363 153.008 177.091 148.746 171.826 148.746C166.561 148.746 162.289 153.008 162.289 158.259C162.214 163.511 166.561 167.772 171.826 167.772Z" fill="#20505A"/>
<path fill-rule="evenodd" clip-rule="evenodd" d="M250.013 162.295C252.3 162.295 254.134 160.471 254.134 158.184C254.134 155.897 252.306 154.073 250.013 154.073C247.72 154.073 245.892 155.897 245.892 158.184C245.892 160.471 247.72 162.295 250.013 162.295ZM250.013 167.772C255.278 167.772 259.55 163.511 259.55 158.259C259.55 153.008 255.278 148.746 250.013 148.746C244.748 148.746 240.476 153.008 240.476 158.259C240.401 163.511 244.673 167.772 250.013 167.772Z" fill="#20505A"/>
<path fill-rule="evenodd" clip-rule="evenodd" d="M229.877 104.847C231.253 104.239 232.855 104.772 233.54 106.138L234.834 108.877C235.443 110.249 234.909 111.847 233.54 112.53C232.164 113.138 230.562 112.605 229.877 111.239L228.582 108.5C227.897 107.053 228.507 105.455 229.877 104.847Z" fill="#20505A"/>
<path fill-rule="evenodd" clip-rule="evenodd" d="M234.76 131.482L240.558 146.165C240.866 147.005 241.702 148.145 242.387 148.603C243.379 149.286 244.372 149.442 245.591 148.753C246.885 147.763 246.508 144.949 245.515 142.743L244.296 139.929L234.835 116.949L226.819 96.834L222.628 98.9705L234.76 131.482Z" fill="#65C7CF"/>
<path fill-rule="evenodd" clip-rule="evenodd" d="M222.628 98.9875L217.671 85.4446C217.978 85.4446 215.918 85.3693 214.774 85.902C214.165 86.2089 212.487 87.1179 212.255 86.8921C211.413 86.51 210.804 85.902 210.729 84.7614C210.729 83.696 211.413 83.2386 212.255 83.0128L218.129 82.5554L217.903 81.49L213.48 81.8722L213.329 81.1137L219.43 80.6562L219.964 83.0938C221.032 83.1691 221.949 83.6265 222.558 84.8424L226.83 96.8625L222.634 98.9933L222.628 98.9875Z" fill="#1A1A1A"/>
<g opacity="0.96">
<path d="M232.774 118.924C232.548 118.999 232.391 119.149 232.316 119.306L231.857 118.09L231.172 118.397L232.089 120.678C232.397 121.286 233.082 121.593 233.767 121.361C234.452 121.054 234.76 120.371 234.452 119.688C234.144 119.005 233.459 118.623 232.774 118.929V118.924ZM233.459 120.597C233.152 120.747 232.85 120.597 232.699 120.29C232.548 119.983 232.699 119.682 233.007 119.532C233.314 119.381 233.616 119.532 233.767 119.838C233.918 120.145 233.767 120.522 233.459 120.597Z" fill="white"/>
<path d="M235.677 125.923C235.067 126.149 234.684 126.913 234.992 127.596L235.45 128.812L236.135 128.505L235.677 127.289C235.526 126.983 235.677 126.681 235.984 126.606C236.292 126.456 236.594 126.606 236.669 126.913L237.128 128.129L237.813 127.822L237.354 126.606C237.047 125.998 236.286 125.691 235.677 125.923Z" fill="white"/>
<path d="M234.452 123.035C234.301 123.111 234.145 123.342 234.226 123.493L234.986 125.473L235.747 125.166L234.905 123.186C234.83 123.035 234.679 122.96 234.446 123.035H234.452Z" fill="white"/>
<path d="M234.15 122.809C234.404 122.809 234.609 122.605 234.609 122.352C234.609 122.099 234.404 121.895 234.15 121.895C233.897 121.895 233.692 122.099 233.692 122.352C233.692 122.605 233.897 122.809 234.15 122.809Z" fill="white"/>
<path d="M228.126 107.512C227.899 107.587 227.742 107.737 227.667 107.894L227.208 106.678L226.523 106.985L227.441 109.266C227.748 109.874 228.433 110.181 229.118 109.949C229.803 109.642 230.111 108.959 229.803 108.276C229.577 107.593 228.81 107.286 228.126 107.517V107.512ZM228.886 109.26C228.578 109.411 228.276 109.26 228.126 108.953C227.975 108.646 228.126 108.345 228.433 108.195C228.741 108.044 229.043 108.195 229.194 108.502C229.269 108.808 229.194 109.11 228.886 109.26Z" fill="white"/>
<path d="M231.022 114.587C230.412 114.813 230.029 115.577 230.337 116.26L230.795 117.476L231.48 117.169L231.022 115.953C230.871 115.646 231.022 115.345 231.329 115.27C231.637 115.12 231.939 115.27 232.014 115.577L232.473 116.793L233.158 116.486L232.699 115.27C232.391 114.662 231.706 114.28 231.022 114.587Z" fill="white"/>
<path d="M229.803 111.624C229.652 111.699 229.496 111.931 229.577 112.081L230.337 114.062L231.098 113.755L230.256 111.775C230.256 111.699 230.03 111.549 229.797 111.624H229.803Z" fill="white"/>
<path d="M229.571 111.391C229.825 111.391 230.03 111.187 230.03 110.934C230.03 110.681 229.825 110.477 229.571 110.477C229.318 110.477 229.113 110.681 229.113 110.934C229.113 111.187 229.318 111.391 229.571 111.391Z" fill="white"/>
</g>
<path d="M199.289 66.801C200.148 68.7001 201.018 70.6919 201.732 71.4446C202.04 72.0526 202.417 72.51 202.951 72.8921L213.022 80.425C214.015 81.1834 214.775 82.2488 215.309 83.4705C215.46 83.8527 215.536 84.4606 215.536 84.8428C215.536 84.9933 215.536 85.0686 215.46 85.2249C215.309 85.9834 214.775 86.5161 214.166 86.8229C213.173 87.2051 212.03 87.1298 211.647 86.5161C212.181 86.8229 212.564 86.2092 212.866 85.7576C213.092 85.3002 213.324 84.7675 213.324 84.2348C213.4 83.7774 213.324 83.1694 212.941 82.9436C211.647 82.1041 210.579 81.0387 209.354 80.3555C209.046 80.2049 208.744 80.1297 208.437 79.9733C206.527 79.4406 204.623 78.4506 202.336 77.9179C201.953 77.8426 201.576 77.611 201.268 77.3852C199.056 75.405 196.003 71.4504 194.018 68.2543L199.283 65.5156V66.8068L199.289 66.801Z" fill="#BC9275"/>
<path d="M198.07 41.082C198.07 41.082 200.13 43.5949 199.672 45.4188C199.596 45.7256 199.596 45.9515 199.521 46.102C199.294 47.1674 199.294 47.0921 200.438 47.6248C201.047 47.9316 200.513 48.4643 200.212 48.6149C200.061 48.7654 199.985 48.9217 199.985 49.1475C199.985 49.3734 200.061 49.605 200.061 49.605C200.061 49.6802 200.287 50.2882 199.678 50.2882C196.7 50.3635 199.144 50.2882 199.828 50.514C199.828 50.514 200.136 50.6645 200.055 50.8209C199.979 50.9714 199.747 51.203 199.672 51.4288C199.596 51.6546 199.596 52.3436 199.445 52.6447C199.294 52.9516 197.536 53.4843 196.468 53.1774C195.707 52.9516 194.558 52.72 194.105 52.72C193.954 52.72 193.722 52.3379 193.571 52.1873C193.345 52.0368 192.729 51.8804 192.277 51.5794C191.36 50.9714 192.126 50.6645 192.201 50.3635C192.277 49.9813 192.428 49.2981 192.277 49.0723C192.126 48.8465 191.36 48.0069 191.209 47.5495C190.982 46.9415 191.36 45.8762 191.667 45.5693C191.975 45.1872 192.584 45.0366 192.962 45.3435C193.269 45.5693 193.647 45.5693 193.803 45.2682C194.03 44.8861 196.015 42.379 196.398 42.1474C196.781 41.9216 198.075 41.082 198.075 41.082H198.07Z" fill="#BC9275"/>
<path fill-rule="evenodd" clip-rule="evenodd" d="M213.323 81.1086L214.17 81.0449L214.611 81.7687L213.393 81.9076L213.073 81.1202L213.323 81.1086Z" fill="#1A1A1A"/>
<path d="M202.26 93.5844L188.3 93.9665H186.924C184.788 81.7148 184.179 63.9857 191.882 57.9004L197.071 58.3578C199.816 60.7143 200.583 65.0569 200.96 70.0768L211.257 78.675L209.272 80.4989L201.645 77.9107L204.396 93.567L202.359 93.5902H202.26V93.5844Z" fill="#A8D561"/>
<path d="M201.773 78.6006C195.591 73.5807 195.318 72.6716 194.86 70.923C194.709 70.3903 194.477 69.7071 194.018 68.7923L194.094 68.4102C194.552 69.4003 194.778 70.0835 194.935 70.6162C195.394 72.1389 195.632 72.9785 201.657 77.9232L201.773 78.6006Z" fill="#8EB14B"/>
<path d="M200.965 70.0708C199.973 69.4628 199.207 68.4032 198.516 67.2626C197.831 66.1972 197.065 65.0566 195.997 64.217V63.9102C197.216 64.825 197.982 66.0409 198.742 67.1063C199.427 68.1716 200.095 69.0864 200.936 69.6944L200.959 70.0708H200.965Z" fill="#8EB14B"/>
<path d="M199.567 46.3265C199.567 49.731 198.54 51.7402 195.486 52.2092C191.992 52.7476 189.92 50.0032 189.891 46.0428C189.862 42.1229 190.762 40.1312 194.691 39.7896C197.814 39.5174 199.567 42.0361 199.573 46.3265H199.567Z" fill="#BC9275"/>
<path d="M194.484 46.2434L198.869 45.6714L199.173 45.4551L194.33 46.08L194.484 46.2434Z" fill="#303030"/>
<path d="M199.409 47.4892C199.115 47.5277 198.888 47.0037 198.821 46.4942C198.753 45.9846 198.84 45.4174 199.134 45.3789C199.428 45.3405 199.655 45.8645 199.722 46.374C199.79 46.8836 199.703 47.4508 199.409 47.4892ZM199.158 45.5424C199.043 45.5568 198.917 45.927 198.99 46.4701C199.062 47.0133 199.274 47.3402 199.39 47.3258C199.505 47.3114 199.631 46.9412 199.558 46.398C199.486 45.8548 199.274 45.528 199.158 45.5424Z" fill="#303030"/>
<path d="M199.327 45.5039L199.62 45.5952L199.591 45.7443L199.322 45.6337L199.327 45.5039Z" fill="#303030"/>
<path d="M192.738 47.5198C192.738 47.5198 192.68 47.2506 192.66 47.1929C192.641 47.1352 192.636 47.1064 192.636 47.0727C192.636 47.0391 192.636 46.7843 192.622 46.7459C192.607 46.7074 192.395 46.3901 192.207 46.2988C192.019 46.2075 191.644 46.0536 191.364 46.3565C191.085 46.6593 191.128 47.0631 191.128 47.0631C191.128 47.0631 191.147 47.5294 191.316 47.7409C191.485 47.9524 191.6 48.1543 191.721 48.236C191.841 48.3178 192.053 48.4572 192.106 48.4812C192.159 48.5052 192.366 48.6591 192.439 48.6591C192.511 48.6591 192.641 48.6879 192.713 48.5725C192.786 48.4668 192.776 48.212 192.81 48.1639C192.863 48.0966 192.901 47.9284 192.863 47.8707C192.829 47.8178 192.742 47.515 192.742 47.515L192.738 47.5198Z" fill="#B28A6F"/>
<path d="M192.304 47.3329C192.308 47.2656 192.39 47.1406 192.371 47.006C192.342 46.8474 192.337 46.6263 192.12 46.5301C191.908 46.434 191.634 46.5205 191.576 46.559C191.518 46.5974 191.374 46.7272 191.374 46.9628C191.374 47.1983 191.393 47.5684 191.537 47.7463C191.682 47.9242 191.947 48.1165 191.99 48.1453C192.034 48.1741 192.443 48.3424 192.443 48.3424C192.443 48.3424 192.559 48.328 192.622 48.1838C192.694 48.0299 192.66 47.9867 192.578 47.9097C192.506 47.8376 192.492 47.703 192.487 47.6357C192.477 47.5636 192.453 47.5829 192.39 47.506C192.323 47.4242 192.294 47.405 192.304 47.3377V47.3329Z" fill="#BC957A"/>
<path d="M192.361 48.3422C192.361 48.3422 192.212 48.6691 192.361 48.8614C192.511 49.0537 192.646 49.1258 192.699 48.9143C192.752 48.7028 192.742 48.4961 192.742 48.4961C192.742 48.5009 192.703 48.597 192.646 48.6739C192.583 48.7412 192.482 48.698 192.458 48.6211C192.438 48.5489 192.482 48.4384 192.487 48.3807C192.487 48.323 192.376 48.3086 192.376 48.3086L192.361 48.3374V48.3422Z" fill="#706964"/>
</svg>
