<svg width="343" height="203" viewBox="0 0 343 203" fill="none" xmlns="http://www.w3.org/2000/svg">
<rect width="343" height="203" fill="white"/>
<path fill-rule="evenodd" clip-rule="evenodd" d="M213.165 64.8071C213.165 64.8071 214.078 59.9599 208.085 54.2154C202.099 48.4731 192.041 45.7386 192.442 33.269C192.843 20.7994 214.758 8.80838 222.39 23.6002C231.416 41.1071 215.015 65.4921 213.165 64.8071Z" fill="#3DBCC8"/>
<path fill-rule="evenodd" clip-rule="evenodd" d="M202.724 28.44V32.3084H206.662V28.44H202.724ZM202.655 26.5059C201.625 26.5059 200.79 27.3409 200.79 28.371V32.3775C200.79 33.4075 201.625 34.2426 202.655 34.2426H206.662C207.692 34.2426 208.527 33.4075 208.527 32.3775V28.371C208.527 27.3409 207.692 26.5059 206.662 26.5059L202.655 26.5059Z" fill="white"/>
<path fill-rule="evenodd" clip-rule="evenodd" d="M210.426 37.0748C210.426 36.5597 210.844 36.1422 211.359 36.1422H214.467C214.982 36.1422 215.4 36.5597 215.4 37.0748C215.4 37.5898 214.982 38.0073 214.467 38.0073H212.292V39.8724C212.292 40.3875 211.874 40.805 211.359 40.805C210.844 40.805 210.426 40.3875 210.426 39.8724V37.0748Z" fill="white"/>
<path fill-rule="evenodd" clip-rule="evenodd" d="M210.426 42.9809C210.426 42.4659 210.844 42.0484 211.359 42.0484H214.467C214.982 42.0484 215.4 42.4659 215.4 42.9809C215.4 43.496 214.982 43.9135 214.467 43.9135H211.359C210.844 43.9135 210.426 43.496 210.426 42.9809Z" fill="white"/>
<path fill-rule="evenodd" clip-rule="evenodd" d="M217.265 38.9399C217.78 38.9399 218.198 39.3574 218.198 39.8724V42.9809C218.198 43.496 217.78 43.9135 217.265 43.9135C216.75 43.9135 216.333 43.496 216.333 42.9809V40.805H214.467C213.952 40.805 213.535 40.3875 213.535 39.8724C213.535 39.3574 213.952 38.9399 214.467 38.9399H217.265Z" fill="white"/>
<path d="M205.591 30.3397C205.591 30.8547 205.173 31.2722 204.658 31.2722C204.143 31.2722 203.726 30.8547 203.726 30.3397C203.726 29.8246 204.143 29.4071 204.658 29.4071C205.173 29.4071 205.591 29.8246 205.591 30.3397Z" fill="white"/>
<path d="M218.198 37.0748C218.198 37.5898 217.78 38.0073 217.265 38.0073C216.75 38.0073 216.333 37.5898 216.333 37.0748C216.333 36.5597 216.75 36.1422 217.265 36.1422C217.78 36.1422 218.198 36.5597 218.198 37.0748Z" fill="white"/>
<path fill-rule="evenodd" clip-rule="evenodd" d="M212.395 28.44V32.3084H216.333V28.44H212.395ZM212.326 26.5059C211.296 26.5059 210.461 27.3409 210.461 28.371V32.3775C210.461 33.4075 211.296 34.2426 212.326 34.2426H216.333C217.363 34.2426 218.198 33.4075 218.198 32.3775V28.371C218.198 27.3409 217.363 26.5059 216.333 26.5059L212.326 26.5059Z" fill="white"/>
<path d="M215.262 30.3397C215.262 30.8547 214.844 31.2722 214.329 31.2722C213.814 31.2722 213.397 30.8547 213.397 30.3397C213.397 29.8246 213.814 29.4071 214.329 29.4071C214.844 29.4071 215.262 29.8246 215.262 30.3397Z" fill="white"/>
<path fill-rule="evenodd" clip-rule="evenodd" d="M202.724 38.1109V41.9793H206.662V38.1109H202.724ZM202.655 36.1768C201.625 36.1768 200.79 37.0118 200.79 38.0419V42.0484C200.79 43.0785 201.625 43.9135 202.655 43.9135H206.662C207.692 43.9135 208.527 43.0785 208.527 42.0484V38.0419C208.527 37.0118 207.692 36.1768 206.662 36.1768H202.655Z" fill="white"/>
<path d="M205.591 40.0106C205.591 40.5256 205.173 40.9431 204.658 40.9431C204.143 40.9431 203.726 40.5256 203.726 40.0106C203.726 39.4956 204.143 39.078 204.658 39.078C205.173 39.078 205.591 39.4956 205.591 40.0106Z" fill="white"/>
<path d="M90.7307 35.8741L119.627 36.3123C120.25 36.3123 120.936 36.1857 121.5 35.8109C122.75 35.1245 123.684 34.1266 124.37 32.8123C125.679 30.3784 125.679 27.4431 124.497 25.0043C122.935 21.7575 119.88 20.3215 114.947 21.0711C113.76 17.8243 111.703 15.7603 108.706 15.2006C108.205 15.074 107.709 15.074 107.144 15.1373C104.585 15.4488 102.713 16.7631 101.526 19.197C100.402 18.9488 99.3413 18.8222 98.344 18.8855C96.4711 19.012 94.8512 20.1949 94.1604 21.9473C93.7225 23.0718 93.6009 24.1963 93.849 25.384C91.6648 25.199 89.9183 25.7588 88.5416 27.3847C87.5443 28.5724 87.1065 30.135 87.2914 31.6927C87.5395 33.6301 88.2254 35.0028 89.6021 35.6259C89.9767 35.8109 90.3513 35.8741 90.7259 35.8741H90.7307Z" fill="#E8E8E8"/>
<path d="M143.658 41.4963L161.195 41.7445C161.57 41.7445 161.944 41.6812 162.319 41.433C163.068 40.9949 163.627 40.3718 164.065 39.6222C164.878 38.1229 164.878 36.3753 164.128 34.8761C163.194 32.8754 161.321 32.004 158.325 32.5006C157.576 30.4999 156.325 29.317 154.516 28.9422C154.204 28.8789 153.893 28.8789 153.582 28.8789C152.02 29.0639 150.896 29.8768 150.147 31.3128C149.461 31.1278 148.838 31.0646 148.211 31.1278C147.087 31.1911 146.09 31.9408 145.652 33.0019C145.404 33.6883 145.278 34.3747 145.467 35.061C144.159 34.9345 143.035 35.3093 142.286 36.2488C141.663 36.9984 141.41 37.933 141.537 38.8725C141.663 40.0603 142.096 40.8732 142.908 41.3064C143.22 41.433 143.409 41.4914 143.658 41.4914V41.4963Z" fill="#E8E8E8"/>
<path d="M132.429 25.8799L144.727 26.0649C144.975 26.0649 145.286 26.0016 145.539 25.8799C146.041 25.5684 146.473 25.1303 146.726 24.6289C147.286 23.5677 147.286 22.3799 146.79 21.3188C146.167 19.946 144.854 19.3181 142.732 19.6345C142.231 18.2618 141.361 17.3856 140.047 17.1373C139.862 17.074 139.609 17.074 139.424 17.1373C138.301 17.2639 137.552 17.8237 137.05 18.8848C136.549 18.7583 136.116 18.6999 135.679 18.7583C134.866 18.8216 134.18 19.3181 133.932 20.0677C133.747 20.5691 133.684 21.0023 133.806 21.5037C132.872 21.4405 132.123 21.6887 131.558 22.3167C131.12 22.818 130.936 23.5044 131.057 24.1275C131.184 24.9404 131.432 25.5635 132.054 25.8117C132.118 25.8117 132.239 25.875 132.429 25.875V25.8799Z" fill="#E8E8E8"/>
<path d="M118.263 49.8876L133.359 50.1164C133.665 50.1164 134.049 50.0385 134.356 49.8876C134.969 49.5031 135.504 48.9676 135.81 48.3543C136.501 47.0497 136.501 45.5942 135.888 44.2897C135.12 42.6005 133.514 41.8363 130.907 42.2208C130.294 40.5317 129.219 39.4608 127.613 39.1541C127.385 39.0762 127.078 39.0762 126.845 39.1541C125.463 39.3099 124.544 39.9962 123.931 41.3008C123.318 41.1451 122.783 41.072 122.243 41.1451C121.245 41.2229 120.404 41.8363 120.097 42.7563C119.869 43.3696 119.791 43.9051 119.942 44.5184C118.794 44.4406 117.874 44.7472 117.183 45.5163C116.648 46.1297 116.415 46.9718 116.57 47.7409C116.726 48.7388 117.033 49.5031 117.796 49.8098C117.874 49.8098 118.025 49.8876 118.258 49.8876H118.263Z" fill="#E8E8E8"/>
<path d="M162.685 175.244C235.965 175.244 295.37 169.839 295.37 163.172C295.37 156.505 235.965 151.1 162.685 151.1C89.405 151.1 30 156.505 30 163.172C30 169.839 89.405 175.244 162.685 175.244Z" fill="#F3F3F3"/>
<g opacity="0.54">
<path d="M104.94 137.674L63.2695 168.098H164.822L124.079 137.674H104.94Z" fill="#E6E6E6"/>
<path d="M89.8927 156.054H89.5042C88.6577 156.054 87.9619 155.358 87.9619 154.511V146.557C87.9619 145.71 88.6577 145.014 89.5042 145.014H89.8927C90.7392 145.014 91.4349 145.71 91.4349 146.557V154.511C91.4349 155.358 90.7392 156.054 89.8927 156.054Z" fill="#1A1A1A"/>
<path d="M136.888 156.054H136.499C135.653 156.054 134.957 155.358 134.957 154.511V146.557C134.957 145.71 135.653 145.014 136.499 145.014H136.888C137.734 145.014 138.43 145.71 138.43 146.557V154.511C138.43 155.358 137.734 156.054 136.888 156.054Z" fill="#1A1A1A"/>
<path d="M112.579 110.417H97.7651V78.6816H112.579V110.417ZM98.8436 109.338H111.501V79.842H98.8436V109.338Z" fill="#3F3D3D"/>
<path d="M97.3781 110.417H88.3506V78.6816H97.3781V110.417ZM89.429 109.338H96.2997V79.842H89.429V109.338Z" fill="#3F3D3D"/>
<path d="M137.816 110.417H128.4V78.6816H137.816V110.417ZM129.56 109.338H136.657V79.842H129.56V109.338Z" fill="#3F3D3D"/>
<path d="M88.4266 110.417L85.1855 109.953V79.2966L88.3513 78.6816L88.4266 110.417ZM86.3452 109.025L87.2728 109.181L87.1975 80.1495L86.351 80.3061V109.03L86.3452 109.025Z" fill="#3F3D3D"/>
<path d="M137.89 110.492L137.733 78.6816L140.899 79.3778V110.034L137.89 110.498V110.492ZM138.818 80.0682L138.974 109.1L139.67 108.943V80.1437L138.823 80.0682H138.818Z" fill="#3F3D3D"/>
<path d="M128.167 110.417H113.122V78.6816H128.167V110.417ZM114.2 109.338H127.008V79.842H114.2V109.338Z" fill="#3F3D3D"/>
<path d="M85.1875 109.879L88.3532 110.343L119.529 110.5H137.897L139.672 110.192L140.831 109.885L141.446 143.395C141.446 143.935 141.057 144.324 140.518 144.324L85.8833 144.167C85.4194 144.167 84.9556 143.778 84.9556 143.239L85.1875 109.879Z" fill="#EF001A"/>
<path d="M84.9561 140.842L88.1218 140.999L119.762 141.074L138.373 140.97L140.206 140.836L141.4 140.691L141.916 151.419C141.916 151.575 141.527 151.726 140.988 151.726L85.6577 151.651C85.1184 151.651 84.73 151.494 84.73 151.343L84.9619 140.842H84.9561Z" fill="#B2B2B2"/>
<path d="M112.963 128.641C115.564 128.641 117.671 126.532 117.671 123.93C117.671 121.328 115.564 119.219 112.963 119.219C110.363 119.219 108.255 121.328 108.255 123.93C108.255 126.532 110.363 128.641 112.963 128.641Z" fill="#1A1A1A"/>
<path d="M112.963 126.785C114.538 126.785 115.816 125.507 115.816 123.931C115.816 122.354 114.538 121.076 112.963 121.076C111.388 121.076 110.11 122.354 110.11 123.931C110.11 125.507 111.388 126.785 112.963 126.785Z" fill="#EFEFEF"/>
<path d="M85.1855 79.3728L88.2701 78.6824H137.733L140.823 79.3728V78.7578L137.814 76.5938L88.1947 76.7504L85.1855 78.6011V79.3728Z" fill="#B2B2B2"/>
<path d="M88.1941 76.7511V74.1229H85.7241V65.8613H93.9051V74.0475H91.899V76.7511H88.1941Z" fill="#3F3D3D"/>
<path d="M89.9672 73.74C91.8853 73.74 93.4402 72.1503 93.4402 70.1893C93.4402 68.2283 91.8853 66.6387 89.9672 66.6387C88.0491 66.6387 86.4941 68.2283 86.4941 70.1893C86.4941 72.1503 88.0491 73.74 89.9672 73.74Z" fill="#6B6A68"/>
<path d="M89.9683 72.8935C91.4189 72.8935 92.5948 71.6831 92.5948 70.1899C92.5948 68.6968 91.4189 67.4863 89.9683 67.4863C88.5177 67.4863 87.3418 68.6968 87.3418 70.1899C87.3418 71.6831 88.5177 72.8935 89.9683 72.8935Z" fill="#ED6478"/>
<path d="M134.112 76.593V73.9706H131.642V65.709H139.898V73.8952H137.817V76.593H134.112Z" fill="#3F3D3D"/>
<path d="M135.81 73.2751C137.729 73.2751 139.283 71.6854 139.283 69.7245C139.283 67.7635 137.729 66.1738 135.81 66.1738C133.892 66.1738 132.337 67.7635 132.337 69.7245C132.337 71.6854 133.892 73.2751 135.81 73.2751Z" fill="#6B6A68"/>
<path d="M135.808 72.4267C137.259 72.4267 138.435 71.2163 138.435 69.7231C138.435 68.23 137.259 67.0195 135.808 67.0195C134.358 67.0195 133.182 68.23 133.182 69.7231C133.182 71.2163 134.358 72.4267 135.808 72.4267Z" fill="#ED6478"/>
<path d="M131.713 74.0468H93.9038V65.8606H108.179C107.407 62.3854 107.871 59.9139 110.26 58.8348C111.107 58.4461 112.11 58.3707 113.037 58.4461C116.51 58.8348 117.67 61.3005 116.818 65.6286L131.632 65.704L131.707 74.041L131.713 74.0468Z" fill="#C1272D"/>
<path d="M97.2972 68.9532V71.9643H96.8333V68.9532H95.7549V68.5645H98.4568V68.9532H97.2972Z" fill="#F9F9F9"/>
<path d="M100.39 71.9635L100.158 71.2673H98.8473L98.6154 71.9635H98.0762L99.4677 68.4883H99.6242L100.935 71.9635H100.395H100.39ZM99.4619 69.4166L98.9227 70.9598H99.9257L99.4619 69.4166Z" fill="#F9F9F9"/>
<path d="M103.09 71.9643L102.087 70.421L101.624 71.036V71.9643H101.16V68.5645H101.624V70.4152L102.934 68.5645H103.473L102.47 70.0323L103.63 71.9643H103.09Z" fill="#F9F9F9"/>
<path d="M103.859 71.8068L104.015 71.3427C104.091 71.4181 104.247 71.4993 104.323 71.4993C104.479 71.5747 104.555 71.5747 104.711 71.5747C104.868 71.5747 105.018 71.4993 105.175 71.4181C105.25 71.3427 105.332 71.186 105.332 71.0294C105.332 70.9539 105.332 70.7973 105.256 70.7219C105.181 70.6465 105.024 70.4898 104.792 70.4144L104.485 70.2577C104.253 70.1823 104.097 70.0257 104.021 69.869C103.946 69.7124 103.865 69.5615 103.865 69.3295C103.865 69.0974 103.94 68.8653 104.172 68.7145C104.404 68.5578 104.56 68.4824 104.868 68.4824C105.256 68.4824 105.482 68.5578 105.639 68.6391L105.482 69.0278C105.407 68.9524 105.326 68.9524 105.175 68.8711C105.024 68.7899 104.943 68.7957 104.787 68.7957C104.63 68.7957 104.479 68.8711 104.398 68.9524C104.317 69.0336 104.242 69.1844 104.242 69.3411C104.242 69.4165 104.242 69.4977 104.317 69.5731C104.317 69.6486 104.392 69.7298 104.473 69.7298C104.549 69.8052 104.63 69.8864 104.862 69.9619L105.169 70.1185C105.401 70.1939 105.558 70.3506 105.633 70.5072C105.708 70.6639 105.79 70.8959 105.79 71.1222C105.79 71.3485 105.714 71.5863 105.482 71.7372C105.25 71.8938 105.018 71.9692 104.636 71.9692C104.329 72.0447 104.097 71.9692 103.865 71.8126L103.859 71.8068Z" fill="#F9F9F9"/>
<path d="M106.635 67.7168C106.711 67.7168 106.792 67.7168 106.867 67.7922C106.943 67.8676 106.943 67.9489 106.943 68.0243C106.943 68.0997 106.943 68.1809 106.867 68.2564C106.792 68.3318 106.711 68.3318 106.635 68.3318C106.56 68.3318 106.479 68.3318 106.403 68.2564C106.328 68.1809 106.328 68.0997 106.328 68.0243C106.328 67.9489 106.328 67.8676 106.403 67.7922C106.479 67.7168 106.56 67.7168 106.635 67.7168ZM106.403 71.9636V68.5638H106.867V71.9636H106.403Z" fill="#F9F9F9"/>
<path d="M110.186 71.9643L109.797 69.7248L109.026 71.9643H108.87L108.098 69.7248L107.71 71.9643H107.246L107.861 68.5645H108.093L108.939 71.036L109.71 68.5645H109.942L110.638 71.9643H110.174H110.186Z" fill="#F9F9F9"/>
<path d="M112.5 70.8028V70.4141H113.503V70.8028H112.5Z" fill="#F9F9F9"/>
<path d="M116.822 68.9532V71.9643H116.358V68.9532H115.28V68.5645H117.982V68.9532H116.822Z" fill="#F9F9F9"/>
<path d="M118.368 68.5638H118.832V70.8787C118.832 71.1108 118.907 71.2674 119.063 71.4183C119.22 71.5691 119.371 71.6503 119.603 71.6503C119.835 71.6503 119.991 71.5749 120.142 71.4183C120.298 71.2616 120.374 71.1108 120.374 70.8787V68.5638H120.838V70.9599C120.838 71.2674 120.762 71.5749 120.53 71.807C120.298 72.0391 119.991 72.1145 119.684 72.1145C119.295 72.1145 118.988 72.0391 118.837 71.807C118.605 71.6504 118.53 71.3429 118.53 70.9599V68.5638H118.373H118.368ZM118.982 67.7168C119.058 67.7168 119.139 67.7168 119.139 67.7922C119.189 67.8425 119.214 67.8947 119.214 67.9489C119.214 68.0243 119.214 68.1055 119.139 68.1055C119.089 68.1558 119.036 68.1809 118.982 68.1809C118.907 68.1809 118.826 68.1809 118.826 68.1055C118.775 68.0552 118.75 68.003 118.75 67.9489C118.75 67.8734 118.75 67.7922 118.826 67.7922C118.826 67.7922 118.901 67.7168 118.982 67.7168ZM120.061 67.7168C120.136 67.7168 120.217 67.7168 120.217 67.7922C120.267 67.8425 120.293 67.8947 120.293 67.9489C120.293 68.0243 120.293 68.1055 120.217 68.1055C120.167 68.1558 120.115 68.1809 120.061 68.1809C119.985 68.1809 119.904 68.1809 119.904 68.1055C119.904 68.0301 119.829 68.0301 119.829 67.9489C119.829 67.8676 119.829 67.7922 119.904 67.7922C119.904 67.7922 119.98 67.7168 120.061 67.7168Z" fill="#F9F9F9"/>
<path d="M123.689 72.0385L121.915 69.5669V72.0385H121.451V68.6387H121.608L123.307 71.0348V68.6387H123.77V72.1139H123.695V72.0385H123.689Z" fill="#F9F9F9"/>
<path d="M124.999 68.9525V69.8807H126.159V70.2695H124.999V71.5052H126.541V71.8939H124.535V68.4941H126.617V68.8829L124.999 68.9583V68.9525Z" fill="#F9F9F9"/>
<path d="M127.09 71.9643V68.5645H127.554V71.5755H129.096V71.9643H127.09Z" fill="#F9F9F9"/>
<path d="M113.039 63.3887V64.317H112.424V63.3887H110.882V63L112.731 60.8359H112.963V62.9188H113.271V63.3829H113.039V63.3887ZM112.424 61.9209L111.578 62.9246H112.424V61.9209Z" fill="#F9F9F9"/>
<path d="M129.708 139.913H96.3696V113.428C96.3696 112.581 97.0654 111.885 97.9119 111.885H128.16C129.007 111.885 129.703 112.581 129.703 113.428V139.913H129.708ZM97.1466 139.141H128.862V113.428C128.862 113.039 128.554 112.732 128.091 112.732H97.9177C97.5292 112.732 97.2219 113.039 97.2219 113.428L97.1466 139.141Z" fill="white"/>
<path d="M89.813 140.528C88.0388 140.528 86.2646 140.296 84.6411 139.913L84.873 139.141C87.9576 139.913 91.3552 139.988 95.0602 139.217V113.503C95.0602 113.271 94.9848 113.115 94.8282 112.964C94.6717 112.813 94.521 112.732 94.289 112.732C92.2075 112.807 89.2737 112.807 85.4934 112.656H85.1861V111.885H85.4934C89.1984 112.041 92.1322 112.041 94.2137 111.96C94.6021 111.96 95.0602 112.117 95.3733 112.349C95.6806 112.656 95.8371 113.045 95.8371 113.428V139.837L95.5298 139.913C93.5237 140.301 91.593 140.528 89.8188 140.528H89.813Z" fill="white"/>
<path d="M136.344 140.529C134.57 140.529 132.639 140.297 130.633 139.914L130.326 139.838V113.51C130.326 113.121 130.482 112.663 130.79 112.431C131.097 112.123 131.485 111.967 131.949 112.042C134.031 112.118 136.964 112.118 140.669 111.967H140.977V112.738H140.669C136.964 112.895 133.955 112.895 131.874 112.814C131.642 112.814 131.485 112.889 131.335 113.046C131.178 113.203 131.103 113.353 131.103 113.585V139.299C134.808 140.07 138.199 140.07 141.29 139.223L141.522 139.995C139.904 140.302 138.124 140.534 136.35 140.534L136.344 140.529Z" fill="white"/>
<path d="M84.9927 140.843V137.675C95.8698 133.428 105.042 132.425 113.606 132.5C120.935 132.5 131.255 135.204 141.361 138.679L141.396 140.686C120.419 143.233 103.349 141.841 84.9927 140.837V140.843Z" fill="#C1272D"/>
<path d="M103.936 120.147C105.172 120.147 106.174 119.144 106.174 117.907C106.174 116.671 105.172 115.668 103.936 115.668C102.7 115.668 101.698 116.671 101.698 117.907C101.698 119.144 102.7 120.147 103.936 120.147Z" fill="#1A1A1A"/>
<path d="M103.932 119.143C104.614 119.143 105.167 118.59 105.167 117.908C105.167 117.225 104.614 116.672 103.932 116.672C103.25 116.672 102.697 117.225 102.697 117.908C102.697 118.59 103.25 119.143 103.932 119.143Z" fill="#EFEFEF"/>
<path d="M122.147 120.147C123.383 120.147 124.385 119.144 124.385 117.907C124.385 116.671 123.383 115.668 122.147 115.668C120.911 115.668 119.909 116.671 119.909 117.907C119.909 119.144 120.911 120.147 122.147 120.147Z" fill="#1A1A1A"/>
<path d="M122.143 119.143C122.825 119.143 123.378 118.59 123.378 117.908C123.378 117.225 122.825 116.672 122.143 116.672C121.461 116.672 120.908 117.225 120.908 117.908C120.908 118.59 121.461 119.143 122.143 119.143Z" fill="#EFEFEF"/>
</g>
<path fill-rule="evenodd" clip-rule="evenodd" d="M250.388 130.124C251.756 130.845 252.188 132.572 251.467 133.942L241.684 151.435C241.179 152.298 240.248 152.872 239.237 152.872H192.758C191.248 152.872 189.954 151.651 189.954 150.065C189.954 148.48 191.174 147.259 192.758 147.259H237.585L246.578 131.203C247.368 129.834 249.026 129.334 250.394 130.124H250.388Z" fill="#3DBCC8"/>
<path fill-rule="evenodd" clip-rule="evenodd" d="M179.656 154.894C181.961 154.894 183.829 153.025 183.829 150.719C183.829 148.412 181.961 146.543 179.656 146.543C177.35 146.543 175.483 148.412 175.483 150.719C175.483 153.025 177.35 154.894 179.656 154.894ZM179.656 160.507C185.049 160.507 189.438 156.116 189.438 150.719C189.438 145.321 185.049 140.93 179.656 140.93C174.262 140.93 169.873 145.321 169.873 150.719C169.873 156.116 174.262 160.507 179.656 160.507Z" fill="#20505A"/>
<path fill-rule="evenodd" clip-rule="evenodd" d="M259.448 154.894C261.754 154.894 263.621 153.025 263.621 150.719C263.621 148.412 261.754 146.543 259.448 146.543C257.143 146.543 255.275 148.412 255.275 150.719C255.275 153.025 257.143 154.894 259.448 154.894ZM259.448 160.507C264.842 160.507 269.231 156.116 269.231 150.719C269.231 145.321 264.842 140.93 259.448 140.93C254.054 140.93 249.666 145.321 249.666 150.719C249.739 156.116 254.054 160.507 259.448 160.507Z" fill="#20505A"/>
<path fill-rule="evenodd" clip-rule="evenodd" d="M238.943 96.0009C240.312 95.3532 242.038 95.9269 242.685 97.3702L243.979 100.177C244.627 101.546 244.053 103.273 242.611 103.921C241.243 104.568 239.517 103.995 238.869 102.551L237.575 99.745C236.928 98.3078 237.575 96.6485 238.943 96.0009Z" fill="#20505A"/>
<path fill-rule="evenodd" clip-rule="evenodd" d="M243.902 123.399L249.801 138.443C250.159 139.307 250.954 140.46 251.669 140.966C252.674 141.688 253.685 141.83 254.905 141.108C256.274 140.103 255.842 137.222 254.831 134.915L253.537 132.035L243.896 108.491L235.821 87.8027L231.518 89.9863L243.896 123.393L243.902 123.399Z" fill="#65C8D0"/>
<path fill-rule="evenodd" clip-rule="evenodd" d="M231.535 90.0232L226.498 76.1263C226.856 76.1263 224.698 76.0523 223.478 76.6321C222.831 76.922 221.172 77.8534 220.889 77.7116C220.026 77.2798 219.379 76.6321 219.305 75.5527C219.305 74.4733 220.026 73.9675 220.889 73.7516L226.862 73.2458L226.646 72.0924L222.183 72.4501L222.042 71.7284L228.231 71.2227L228.804 73.7454C229.883 73.8873 230.887 74.2512 231.467 75.5465L235.856 87.8582L231.541 90.017L231.535 90.0232Z" fill="#1A1A1A"/>
<g opacity="0.96">
<path d="M242.682 111.26C242.466 111.334 242.324 111.476 242.176 111.618L241.671 110.396L241.023 110.686L241.96 113.061C242.25 113.709 242.965 113.999 243.686 113.709C244.334 113.419 244.691 112.629 244.408 111.982C244.118 111.334 243.329 111.044 242.682 111.26ZM243.403 113.061C243.113 113.203 242.756 113.061 242.614 112.703C242.472 112.346 242.614 112.056 242.971 111.914C243.261 111.772 243.619 111.914 243.76 112.272C243.902 112.629 243.686 112.919 243.403 113.061Z" fill="white"/>
<path d="M245.638 118.533C244.991 118.823 244.633 119.538 244.917 120.186L245.422 121.407L246.069 121.117L245.564 119.896C245.422 119.606 245.564 119.248 245.854 119.174C246.143 119.032 246.501 119.174 246.575 119.464L247.08 120.685L247.728 120.395L247.222 119.174C247.006 118.527 246.285 118.237 245.638 118.527V118.533Z" fill="white"/>
<path d="M244.41 115.51C244.194 115.584 244.12 115.8 244.194 116.016L244.983 118.033L245.705 117.743L244.842 115.726C244.768 115.51 244.552 115.436 244.41 115.51Z" fill="white"/>
<path d="M244.124 115.295C244.403 115.295 244.63 115.068 244.63 114.789C244.63 114.51 244.403 114.283 244.124 114.283C243.845 114.283 243.619 114.51 243.619 114.789C243.619 115.068 243.845 115.295 244.124 115.295Z" fill="white"/>
<path d="M237.936 99.596C237.72 99.67 237.578 99.8118 237.43 99.9537L236.925 98.7324L236.277 99.0223L237.214 101.397C237.504 102.045 238.219 102.335 238.94 102.045C239.588 101.755 239.945 100.965 239.662 100.318C239.378 99.67 238.583 99.3801 237.936 99.596ZM238.657 101.397C238.367 101.539 238.009 101.397 237.868 101.039C237.726 100.682 237.868 100.392 238.225 100.25C238.515 100.108 238.872 100.25 239.014 100.608C239.156 100.965 238.94 101.255 238.657 101.397Z" fill="white"/>
<path d="M240.881 106.868C240.233 107.158 239.876 107.873 240.159 108.521L240.665 109.742L241.312 109.452L240.807 108.231C240.665 107.941 240.807 107.583 241.096 107.509C241.386 107.367 241.744 107.509 241.817 107.799L242.323 109.021L242.97 108.731L242.465 107.509C242.323 106.936 241.528 106.572 240.881 106.862V106.868Z" fill="white"/>
<path d="M239.661 103.846C239.445 103.92 239.371 104.136 239.445 104.352L240.234 106.369L240.956 106.079L240.093 104.062C240.019 103.846 239.803 103.772 239.661 103.846Z" fill="white"/>
<path d="M239.371 103.631C239.65 103.631 239.877 103.404 239.877 103.125C239.877 102.846 239.65 102.619 239.371 102.619C239.092 102.619 238.866 102.846 238.866 103.125C238.866 103.404 239.092 103.631 239.371 103.631Z" fill="white"/>
</g>
<path d="M173.208 70.8397C173.516 73.1836 183.502 85.7049 189.111 86.1367C189.173 86.1367 189.296 86.1984 189.42 86.1984C189.851 86.1984 190.283 86.075 190.591 85.8283C192.563 84.5947 200.762 79.2284 203.536 76.0209L203.043 72.7518C198.789 74.2322 189.358 79.9686 189.358 79.9686C189.358 79.9686 188.926 80.0919 188.803 79.9069C181.406 72.9369 178.077 70.4079 175.612 68.6191L173.208 70.8397Z" fill="#D8A988"/>
<path d="M159.209 154.479C159.579 155.528 158.839 159.352 158.839 160.647C159.641 161.758 161.675 160.894 161.921 159.722C161.921 159.599 162.045 159.537 162.045 159.29C161.798 158.55 162.291 155.774 162.908 154.232L159.209 154.479Z" fill="#F9AC91"/>
<path d="M171.603 156.207C171.912 157.256 170.987 159.846 170.864 161.08C171.603 162.252 173.699 161.45 173.946 160.278C174.008 160.155 174.069 160.093 174.131 159.846C173.823 159.045 174.501 156.762 175.302 155.344L171.603 156.207Z" fill="#F9AC91"/>
<path d="M171.481 96.1914H179.063C182.885 107.603 183.994 120.617 181.714 133.447C181.529 134.434 181.282 135.421 180.974 136.346L178.447 156.269C176.536 157.071 170.865 156.516 168.954 156.023C171.481 148.682 172.96 142.083 173.577 134.927C173.823 133.817 173.823 131.473 173.823 131.473C174.563 120.432 172.036 98.9671 171.481 96.1914Z" fill="#131851"/>
<path d="M165.317 156.084C162.729 156.824 159.153 155.591 157.181 154.789L162.112 132.583C162.174 132.152 162.174 131.72 162.174 131.288L160.386 104.642C160.324 104.025 160.386 103.346 160.448 102.729C160.756 100.386 161.372 97.0548 162.297 95.8828H172.221C175.057 109.083 174.564 120.37 173.454 126.724C173.331 127.279 172.838 133.447 172.16 135.236L165.317 156.084Z" fill="#131851"/>
<path d="M179.064 96.3149L162.235 96.5616L162.112 95.8215L178.94 95.7598L179.064 96.3149Z" fill="#0E0E38"/>
<path d="M166.367 52.1504L172.162 52.7055C170.497 55.3578 169.203 57.7017 171.114 59.5522L165.566 59.0587C167.477 57.7634 167.23 54.6177 166.367 52.1504Z" fill="#EDBD98"/>
<path d="M172.158 41.2324C172.158 41.2324 174.377 43.9464 173.884 45.8585C173.822 46.167 173.761 46.4137 173.699 46.5987C173.452 47.709 173.452 47.6473 174.624 48.2024C175.24 48.5109 174.685 49.066 174.377 49.3127C174.192 49.4361 174.069 49.6828 174.13 49.8678C174.13 50.1146 174.192 50.3613 174.192 50.3613C174.192 50.423 174.439 51.1015 173.761 51.1015C170.555 51.1632 173.206 51.1015 173.946 51.3482C173.946 51.3482 174.254 51.5332 174.192 51.6566C174.13 51.8417 173.884 52.0267 173.822 52.2734C173.761 52.5202 173.699 53.2603 173.576 53.5687C173.452 53.8771 171.541 54.4323 170.432 54.1239C169.569 53.9388 168.398 53.6304 167.905 53.5687C167.72 53.5687 167.473 53.137 167.35 53.0136C167.103 52.8286 166.487 52.6435 165.994 52.3351C165.007 51.7183 165.87 51.4099 165.932 50.9781C165.994 50.608 166.117 49.8678 165.994 49.6211C165.87 49.4361 165.069 48.4492 164.884 48.0174C164.638 47.3389 165.069 46.2286 165.377 45.8585C165.685 45.4885 166.364 45.2417 166.795 45.6118C167.165 45.8585 167.535 45.8585 167.72 45.5501C167.905 45.18 170.062 42.4661 170.494 42.2193C170.74 42.0343 172.158 41.2324 172.158 41.2324Z" fill="#EDBD98"/>
<path d="M174.195 42.8361C174.072 43.1445 173.948 43.3913 173.763 43.638C173.517 44.0698 173.085 44.3782 172.654 44.5632C171.236 45.18 169.941 45.7352 168.647 45.6118C168.092 45.5501 167.599 45.8585 167.414 46.4137C167.229 46.9071 166.921 47.2155 166.613 47.5856C166.058 48.1407 165.873 49.0043 166.181 49.8061C166.551 50.8547 166.181 51.4715 165.75 52.3968C165.503 52.7052 165.195 52.7669 164.764 52.5818C162.853 51.5949 161.681 49.5594 161.25 47.1538C160.572 44.995 160.88 44.3782 161.312 43.3913C161.435 43.0828 161.681 42.8361 161.866 42.5894C162.791 41.6025 163.592 40.3689 164.455 39.752C165.195 39.2586 165.935 38.8885 166.859 38.5801C168.277 38.0866 169.818 38.2717 171.051 39.0119C172.407 39.8137 173.64 40.924 174.133 41.8492C174.318 42.1576 174.318 42.5277 174.195 42.8361Z" fill="#42210B"/>
<path d="M166.511 47.6972C166.388 47.4505 166.203 47.2655 166.018 47.2038C165.926 47.1791 165.833 47.1853 165.772 47.2038C165.217 47.4505 165.075 47.8638 165.34 48.4374L165.371 48.4991C165.741 49.1344 165.957 49.1776 166.45 49.4243L166.511 47.6972Z" fill="#ECBC97"/>
<path d="M158.718 158.367C159.951 158.922 161.184 158.922 162.416 158.182C162.478 158.12 162.54 158.182 162.601 158.243C163.279 159.539 164.019 161.204 165.19 162.191C166.361 162.993 167.841 163.61 169.444 164.042C169.629 164.103 169.875 164.165 170.06 164.165C170.861 164.165 171.478 164.288 171.971 164.535C172.033 164.597 172.156 164.597 172.218 164.658C172.587 164.843 172.711 165.214 172.772 165.645C172.772 165.954 172.649 166.2 172.402 166.324C171.108 167.064 169.444 167.434 167.409 167.372L163.649 166.879L157.793 166.385L157.115 166.139C156.992 166.077 156.93 166.015 156.93 165.83C156.93 164.843 157.115 163.857 157.485 162.746C157.608 162.438 157.855 162.006 157.978 161.698C158.471 160.834 158.595 159.662 158.595 158.367C158.595 158.367 158.656 158.305 158.718 158.367Z" fill="#F7931E"/>
<path d="M157.056 164.658C156.933 164.658 156.81 165.768 156.933 166.015C157.056 166.324 158.166 166.447 158.351 166.509C159.275 166.632 160.262 166.694 161.31 166.755L164.638 167.125C165.563 167.249 166.672 167.434 167.782 167.434C168.707 167.434 169.57 167.372 170.433 167.125C171.111 167.002 171.789 166.694 172.467 166.262L172.652 166.077C172.837 165.707 172.775 165.028 172.22 164.658C171.481 165.028 170.371 165.337 169.138 165.522C168.213 165.707 167.166 165.707 166.056 165.707C164.268 165.645 162.542 165.522 161.063 165.275C159.584 165.152 158.166 164.967 157.056 164.658Z" fill="#CE751D"/>
<path d="M169.816 164.103C169.693 164.658 169.754 165.09 170.001 165.399C170.864 165.275 171.604 165.029 172.22 164.658C171.604 164.227 170.802 164.042 169.816 164.103Z" fill="#F15A24"/>
<path d="M162.296 159.722C162.466 159.722 162.604 159.584 162.604 159.414C162.604 159.244 162.466 159.105 162.296 159.105C162.125 159.105 161.987 159.244 161.987 159.414C161.987 159.584 162.125 159.722 162.296 159.722Z" fill="#D8CDC3"/>
<path d="M162.792 160.834C162.962 160.834 163.1 160.696 163.1 160.525C163.1 160.355 162.962 160.217 162.792 160.217C162.621 160.217 162.483 160.355 162.483 160.525C162.483 160.696 162.621 160.834 162.792 160.834Z" fill="#D8CDC3"/>
<path d="M163.343 161.82C163.513 161.82 163.651 161.682 163.651 161.512C163.651 161.341 163.513 161.203 163.343 161.203C163.173 161.203 163.035 161.341 163.035 161.512C163.035 161.682 163.173 161.82 163.343 161.82Z" fill="#D8CDC3"/>
<path d="M164.084 162.808C164.254 162.808 164.392 162.67 164.392 162.5C164.392 162.329 164.254 162.191 164.084 162.191C163.913 162.191 163.775 162.329 163.775 162.5C163.775 162.67 163.913 162.808 164.084 162.808Z" fill="#D8CDC3"/>
<path d="M165.072 163.423C165.242 163.423 165.38 163.285 165.38 163.115C165.38 162.945 165.242 162.807 165.072 162.807C164.902 162.807 164.764 162.945 164.764 163.115C164.764 163.285 164.902 163.423 165.072 163.423Z" fill="#D8CDC3"/>
<path d="M166.116 163.98C166.286 163.98 166.424 163.842 166.424 163.672C166.424 163.501 166.286 163.363 166.116 163.363C165.946 163.363 165.808 163.501 165.808 163.672C165.808 163.842 165.946 163.98 166.116 163.98Z" fill="#D8CDC3"/>
<path d="M167.335 164.251C167.44 164.163 167.453 164.008 167.366 163.903C167.278 163.799 167.123 163.785 167.019 163.873C166.914 163.96 166.901 164.116 166.988 164.22C167.075 164.325 167.231 164.338 167.335 164.251Z" fill="#D8CDC3"/>
<path d="M168.565 164.547C168.632 164.429 168.59 164.278 168.471 164.211C168.353 164.144 168.202 164.186 168.135 164.305C168.068 164.423 168.11 164.574 168.229 164.641C168.347 164.708 168.498 164.666 168.565 164.547Z" fill="#D8CDC3"/>
<path d="M162.913 160.216C163.159 160.154 163.467 160.093 163.652 160.278C163.714 160.401 163.837 160.586 163.899 160.709C163.652 160.586 163.221 160.586 163.036 160.648C163.159 160.463 163.098 160.278 162.913 160.216Z" fill="#686461"/>
<path d="M163.405 161.204C163.59 161.081 164.021 161.019 164.268 161.081C164.329 161.204 164.453 161.266 164.514 161.389C164.206 161.328 163.836 161.451 163.651 161.513C163.651 161.389 163.59 161.266 163.405 161.204Z" fill="#686461"/>
<path d="M164.146 162.19C164.33 162.067 164.7 161.943 164.947 161.943L165.255 162.252C164.947 162.252 164.515 162.437 164.392 162.56C164.392 162.375 164.33 162.19 164.146 162.19Z" fill="#686461"/>
<path d="M165.067 162.808C165.191 162.623 165.499 162.5 165.745 162.5L166.115 162.685C165.807 162.747 165.437 162.993 165.314 163.117C165.314 163.055 165.314 162.87 165.067 162.808Z" fill="#686461"/>
<path d="M166.056 163.362C166.241 163.177 166.426 163.054 166.61 162.992C166.734 163.054 166.795 163.116 166.98 163.177C166.734 163.301 166.549 163.547 166.426 163.671C166.364 163.486 166.302 163.362 166.056 163.362Z" fill="#686461"/>
<path d="M167.104 163.856C167.288 163.671 167.473 163.486 167.658 163.424C167.782 163.486 167.843 163.486 168.028 163.547C167.782 163.671 167.535 163.979 167.412 164.041C167.412 163.979 167.288 163.856 167.104 163.856Z" fill="#686461"/>
<path d="M168.151 164.227C168.213 163.919 168.275 163.857 168.336 163.672C168.46 163.672 168.645 163.795 168.645 163.795C168.521 164.042 168.583 164.165 168.521 164.35C168.46 164.227 168.336 164.104 168.151 164.227Z" fill="#686461"/>
<path d="M162.42 159.106C162.667 159.045 162.852 158.983 163.098 159.106C163.222 159.23 163.283 159.415 163.283 159.538C162.975 159.415 162.79 159.415 162.605 159.476C162.605 159.291 162.544 159.168 162.42 159.106Z" fill="#686461"/>
<path d="M161.184 158.675V158.428C161.245 158.243 161.307 158.12 161.492 158.058C161.738 157.873 161.985 157.749 162.293 157.564C162.416 157.749 162.478 157.935 162.478 158.181C162.232 158.305 161.985 158.428 161.8 158.49C161.615 158.551 161.43 158.613 161.184 158.675Z" fill="#F15A24"/>
<path d="M170.922 158.982C172.155 159.537 173.388 159.537 174.621 158.797C174.683 158.735 174.744 158.797 174.806 158.859C175.484 160.154 176.224 161.819 177.395 162.806C178.566 163.608 180.046 164.225 181.648 164.657C181.833 164.718 182.08 164.78 182.265 164.78C183.066 164.78 183.682 164.904 184.176 165.15C184.237 165.212 184.36 165.212 184.422 165.274C184.792 165.459 184.915 165.829 184.977 166.261C184.977 166.569 184.854 166.816 184.607 166.939C183.313 167.679 181.648 168.049 179.614 167.988L175.854 167.494L169.998 167.001L169.32 166.754C169.196 166.692 169.135 166.631 169.135 166.446C169.135 165.459 169.32 164.472 169.69 163.361C169.813 163.053 170.059 162.621 170.183 162.313C170.676 161.449 170.799 160.277 170.799 158.982C170.799 158.982 170.861 158.92 170.922 158.982Z" fill="#F7931E"/>
<path d="M169.261 165.273C169.138 165.273 169.015 166.384 169.138 166.63C169.261 166.939 170.371 167.062 170.556 167.124C171.48 167.247 172.467 167.309 173.515 167.371L176.843 167.741C177.768 167.864 178.878 168.049 179.987 168.049C180.912 168.049 181.775 167.987 182.638 167.741C183.316 167.617 183.994 167.309 184.672 166.877L184.857 166.692C185.042 166.322 184.98 165.644 184.425 165.273C183.686 165.644 182.576 165.952 181.343 166.137C180.419 166.322 179.371 166.322 178.261 166.322C176.473 166.26 174.747 166.137 173.268 165.89C171.789 165.767 170.371 165.582 169.261 165.273Z" fill="#CE751D"/>
<path d="M182.021 164.719C181.897 165.274 181.959 165.705 182.206 166.014C183.069 165.891 183.808 165.644 184.425 165.274C183.808 164.842 183.007 164.657 182.021 164.719Z" fill="#F15A24"/>
<path d="M174.5 160.339C174.67 160.339 174.808 160.201 174.808 160.031C174.808 159.861 174.67 159.723 174.5 159.723C174.33 159.723 174.192 159.861 174.192 160.031C174.192 160.201 174.33 160.339 174.5 160.339Z" fill="#D8CDC3"/>
<path d="M175.056 161.451C175.226 161.451 175.364 161.313 175.364 161.142C175.364 160.972 175.226 160.834 175.056 160.834C174.886 160.834 174.748 160.972 174.748 161.142C174.748 161.313 174.886 161.451 175.056 161.451Z" fill="#D8CDC3"/>
<path d="M175.548 162.437C175.718 162.437 175.856 162.299 175.856 162.129C175.856 161.958 175.718 161.82 175.548 161.82C175.378 161.82 175.24 161.958 175.24 162.129C175.24 162.299 175.378 162.437 175.548 162.437Z" fill="#D8CDC3"/>
<path d="M176.288 163.363C176.458 163.363 176.596 163.225 176.596 163.055C176.596 162.884 176.458 162.746 176.288 162.746C176.118 162.746 175.98 162.884 175.98 163.055C175.98 163.225 176.118 163.363 176.288 163.363Z" fill="#D8CDC3"/>
<path d="M177.277 164.041C177.447 164.041 177.585 163.903 177.585 163.732C177.585 163.562 177.447 163.424 177.277 163.424C177.107 163.424 176.969 163.562 176.969 163.732C176.969 163.903 177.107 164.041 177.277 164.041Z" fill="#D8CDC3"/>
<path d="M178.321 164.535C178.491 164.535 178.629 164.397 178.629 164.226C178.629 164.056 178.491 163.918 178.321 163.918C178.151 163.918 178.013 164.056 178.013 164.226C178.013 164.397 178.151 164.535 178.321 164.535Z" fill="#D8CDC3"/>
<path d="M179.54 164.882C179.645 164.794 179.658 164.639 179.571 164.534C179.484 164.43 179.328 164.416 179.224 164.504C179.119 164.591 179.106 164.747 179.193 164.851C179.281 164.956 179.436 164.969 179.54 164.882Z" fill="#D8CDC3"/>
<path d="M180.829 165.129C180.896 165.011 180.854 164.86 180.735 164.793C180.617 164.726 180.467 164.768 180.4 164.887C180.333 165.005 180.374 165.156 180.493 165.223C180.612 165.29 180.762 165.248 180.829 165.129Z" fill="#D8CDC3"/>
<path d="M175.118 160.833C175.364 160.771 175.672 160.71 175.857 160.895C175.919 161.018 176.042 161.203 176.104 161.327C175.857 161.203 175.426 161.203 175.241 161.265C175.364 161.018 175.303 160.895 175.118 160.833Z" fill="#686461"/>
<path d="M175.61 161.819C175.795 161.696 176.226 161.634 176.473 161.696C176.535 161.819 176.658 161.881 176.719 162.004C176.411 161.943 176.041 162.066 175.856 162.128C175.856 162.004 175.795 161.881 175.61 161.819Z" fill="#686461"/>
<path d="M176.351 162.745C176.536 162.621 176.905 162.498 177.152 162.498L177.46 162.806C177.152 162.806 176.72 162.991 176.597 163.115C176.659 162.93 176.536 162.745 176.351 162.745Z" fill="#686461"/>
<path d="M177.272 163.424C177.396 163.239 177.704 163.115 177.951 163.115L178.32 163.3C178.012 163.362 177.642 163.609 177.519 163.732C177.519 163.609 177.519 163.424 177.272 163.424Z" fill="#686461"/>
<path d="M178.261 163.917C178.446 163.732 178.631 163.609 178.816 163.547C178.939 163.609 179 163.67 179.185 163.732C178.939 163.855 178.754 164.102 178.631 164.225C178.569 164.102 178.507 163.917 178.261 163.917Z" fill="#686461"/>
<path d="M179.309 164.41C179.494 164.225 179.678 164.04 179.863 163.979C179.987 164.04 180.048 164.04 180.233 164.102C179.987 164.225 179.74 164.534 179.617 164.595C179.617 164.595 179.494 164.41 179.309 164.41Z" fill="#686461"/>
<path d="M180.356 164.782C180.418 164.473 180.479 164.412 180.541 164.227C180.664 164.227 180.849 164.35 180.849 164.35C180.726 164.597 180.787 164.72 180.726 164.905C180.664 164.843 180.541 164.658 180.356 164.782Z" fill="#686461"/>
<path d="M174.625 159.724C174.872 159.662 175.056 159.6 175.303 159.724C175.426 159.847 175.488 160.032 175.488 160.155C175.18 160.032 174.995 160.032 174.81 160.094C174.81 159.909 174.748 159.785 174.625 159.724Z" fill="#686461"/>
<path d="M173.389 159.229V158.983C173.45 158.798 173.512 158.674 173.697 158.613C173.943 158.428 174.19 158.304 174.498 158.119C174.622 158.304 174.683 158.489 174.683 158.736C174.437 158.859 174.19 158.983 174.005 159.044C173.82 159.168 173.635 159.229 173.389 159.229Z" fill="#F15A24"/>
<path d="M172.837 71.5799C173.145 73.9238 183.131 86.4452 188.741 86.877C188.802 86.877 188.926 86.9386 189.049 86.9386C189.48 86.9386 189.912 86.8153 190.22 86.5685C192.193 85.3349 200.453 79.9069 203.227 76.6995L201.562 73.6154C197.309 75.0958 188.987 80.7088 188.987 80.7088C188.987 80.7088 188.494 80.8322 188.432 80.6471C185.042 75.0958 180.172 72.0734 175.241 69.3594L172.837 71.5799Z" fill="#EDBD98"/>
<path d="M210.62 67.3848L206.922 73.2445C206.922 73.2445 207.353 73.923 208.278 73.8613C209.203 73.7997 210.435 71.5174 210.559 71.0857C210.682 70.6539 210.497 70.1604 210.62 69.852C210.744 69.5436 210.682 68.6801 210.682 68.6801C210.62 68.8651 211.483 67.7549 210.62 67.3848Z" fill="#D8A988"/>
<path d="M205.874 73.3066L207.785 65.5347C207.847 65.288 207.97 65.1029 208.216 64.9796L211.052 63.3142C211.237 63.1908 211.422 63.2525 211.545 63.4375C211.607 63.5609 211.607 63.6226 211.607 63.746L209.573 71.9496L205.874 73.3066Z" fill="#1A2E35"/>
<path d="M209.511 72.6896C209.511 72.6896 209.573 72.5663 209.573 72.3196C209.573 72.0728 209.573 71.7644 209.45 71.3327C209.511 71.2093 209.573 71.0242 209.511 70.9009C209.45 70.7775 209.326 70.5925 209.203 70.5308L209.141 70.4691L209.203 70.4074C209.388 70.1607 209.511 69.914 209.696 69.6056C209.758 69.5439 209.819 69.4822 209.819 69.4205V69.2355C209.758 69.1121 209.634 68.9888 209.511 68.8654L209.45 68.8037L209.511 68.742C209.634 68.557 209.819 68.4336 209.943 68.2486C210.189 67.9402 210.497 67.6934 210.682 67.385C210.806 67.2617 210.867 67.0766 210.929 66.9533C210.991 66.8916 210.991 66.8299 210.991 66.7065C210.991 66.6448 210.991 66.5832 210.929 66.5832C210.867 66.5832 210.744 66.5832 210.682 66.6449C210.621 66.7065 210.497 66.7065 210.436 66.7682C210.251 66.8299 210.128 66.9533 209.943 67.0766C209.634 67.2617 209.388 67.4467 209.203 67.5701C209.018 67.6934 208.895 67.8168 208.71 67.9402C208.587 68.0018 208.525 68.0635 208.525 68.0635L208.648 67.9402C208.771 67.8785 208.895 67.6934 209.08 67.5701C209.265 67.385 209.511 67.2 209.819 67.0149C209.943 66.8916 210.128 66.8299 210.313 66.7065C210.374 66.6448 210.497 66.5832 210.559 66.5832C210.682 66.5215 210.744 66.5215 210.929 66.5215C211.052 66.5215 211.114 66.6448 211.114 66.7682C211.114 66.8916 211.052 66.9533 211.052 67.0149C210.991 67.2 210.867 67.3233 210.744 67.5084C210.497 67.8168 210.251 68.1252 210.004 68.3719C209.819 68.557 209.696 68.6803 209.573 68.8654V68.742C209.696 68.8654 209.881 68.9888 209.943 69.1738C210.004 69.2355 210.004 69.3588 209.943 69.4822C209.881 69.6056 209.881 69.6672 209.819 69.7289C209.634 69.9757 209.45 70.2841 209.326 70.5308V70.4691C209.511 70.5925 209.634 70.7158 209.696 70.9009C209.758 71.0859 209.696 71.271 209.634 71.3943V71.3327C209.758 71.7644 209.758 72.0728 209.696 72.3196C209.696 72.4429 209.634 72.5046 209.634 72.5663L209.511 72.6896Z" fill="#C99877"/>
<path d="M211.541 63.4375C211.541 63.4375 211.48 63.4992 211.295 63.6225C211.11 63.7459 210.925 63.8693 210.617 64.0543C210.309 64.2394 210 64.4244 209.63 64.6711C209.446 64.7945 209.261 64.9179 209.014 65.0412C208.829 65.1646 208.583 65.288 208.398 65.4113C208.213 65.5964 208.151 65.7814 208.089 66.0281C208.028 66.2749 207.966 66.4599 207.905 66.7066C207.781 67.1384 207.72 67.5085 207.596 67.8169C207.535 68.1253 207.411 68.372 207.411 68.5571C207.35 68.7421 207.35 68.8038 207.288 68.8038C207.288 68.8038 207.288 68.6804 207.35 68.4954C207.411 68.3103 207.411 68.0636 207.535 67.7552C207.596 67.4468 207.72 67.015 207.781 66.6449C207.843 66.4599 207.904 66.2132 207.966 65.9664C208.028 65.7197 208.089 65.473 208.274 65.2879C208.459 65.1029 208.706 64.9795 208.891 64.8562C209.076 64.7328 209.322 64.6095 209.507 64.5478C209.877 64.3627 210.247 64.1777 210.493 63.9926C210.802 63.8076 210.987 63.6842 211.172 63.6225C211.418 63.4375 211.541 63.4375 211.541 63.4375Z" fill="#375A64"/>
<path d="M209.697 66.0909C209.635 66.2759 209.635 66.3993 209.697 66.461C209.758 66.461 209.882 66.3993 209.943 66.2143C210.005 66.0292 210.005 65.9059 209.943 65.8442C209.882 65.7825 209.758 65.9059 209.697 66.0909Z" fill="white"/>
<path d="M202.733 72.9988C203.35 72.6904 203.411 71.6418 203.72 71.025C203.966 70.4699 204.336 69.9147 204.521 69.7914C204.952 69.5446 207.171 68.1876 207.171 68.1876L206.925 69.2362L209.082 67.6942C209.329 67.5091 210.87 66.0905 211.178 66.6456C211.363 67.0157 210.13 68.0643 209.945 68.311C209.514 68.8661 209.637 68.8661 209.637 68.8661C209.637 68.8661 210.069 69.1129 209.884 69.5446C209.637 69.9764 209.267 70.4699 209.267 70.4699C209.267 70.4699 209.884 70.6549 209.514 71.4568C209.514 71.4568 209.699 71.8885 209.576 72.4437C209.514 72.7521 209.267 73.1839 208.959 73.4923C208.651 73.8624 208.219 74.1708 207.788 74.3558C205.877 74.9726 204.274 75.7128 203.226 76.6997L201.562 73.6156L202.733 72.9988Z" fill="#EDBD98"/>
<path d="M207.601 68.7422C207.601 68.8039 207.107 69.1123 206.491 69.4824C205.875 69.8525 205.32 70.1609 205.32 70.1609C205.32 70.0992 205.813 69.7908 206.429 69.4207C207.046 68.989 207.539 68.6806 207.601 68.7422Z" fill="#C99877"/>
<path d="M209.638 68.8047C209.638 68.8047 209.207 69.2981 208.652 69.8533C208.097 70.4084 207.604 70.8402 207.604 70.8402C207.604 70.8402 208.035 70.3467 208.59 69.7916C209.145 69.2365 209.577 68.8047 209.638 68.8047Z" fill="#C99877"/>
<path d="M209.39 70.2848C209.39 70.2848 209.205 70.5932 208.959 70.9017L208.404 71.4568C208.404 71.4568 208.589 71.1484 208.835 70.84C209.144 70.4699 209.39 70.2232 209.39 70.2848Z" fill="#C99877"/>
<path d="M181.16 95.7596H157.181C157.181 95.7596 158.044 75.2813 161.126 63.9935C161.557 62.3898 162.913 60.1076 164.085 58.9356C164.578 58.5039 165.071 58.0721 165.749 57.8254C166.18 57.6403 166.674 57.5786 167.167 57.6403L171.297 58.0104C171.728 58.0721 172.16 58.3188 172.345 58.7506L176.413 68.0028C176.66 68.558 177.03 69.0514 177.461 69.4215L183.44 74.7878L179.495 79.599L179.002 80.1541" fill="#EACE03"/>
<path d="M177.89 79.7842C171.257 74.4919 170.961 73.5173 170.425 71.7409C170.246 71.1488 170.043 70.4764 169.55 69.508L170.098 69.2305C170.616 70.2482 170.826 70.9514 171.017 71.5682C171.522 73.2274 171.8 74.1403 178.278 79.3092L177.896 79.7904L177.89 79.7842Z" fill="#603813"/>
</svg>
