<svg width="343" height="203" viewBox="0 0 343 203" fill="none" xmlns="http://www.w3.org/2000/svg">
<path d="M171.5 172.617C257.104 172.617 326.5 167.237 326.5 160.601C326.5 153.965 257.104 148.586 171.5 148.586C85.8959 148.586 16.5 153.965 16.5 160.601C16.5 167.237 85.8959 172.617 171.5 172.617Z" fill="#D6D6D6"/>
<path d="M239.003 160.701H183.882V162.763H239.003V160.701Z" fill="#F2F2F2"/>
<path d="M150.654 160.547H95.5332V162.609H150.654V160.547Z" fill="#F2F2F2"/>
<path d="M260.51 154.315L263.801 80.4453H265.333L268.17 152.563V154.315H260.51Z" fill="#754C24"/>
<path d="M276.17 101.81C276.17 101.81 265.163 110.457 250.071 101.245C234.978 92.0323 246.042 79.3721 248.312 74.9637C250.581 70.5552 255.744 68.351 254.156 61.0036C252.68 53.6562 252.851 51.1128 255.517 45.6305C258.184 40.1482 262.269 29.6358 264.766 30.427C267.262 31.2183 272.255 31.5574 272.652 38.3396C272.993 45.0088 272.312 47.1 276.227 53.204C280.085 59.2515 281.333 64.5077 280.085 69.5944C278.893 74.6811 279.177 76.1506 282.014 80.6155C284.851 85.024 288.539 87.5673 284.851 93.9539C281.106 100.397 276.17 101.81 276.17 101.81Z" fill="#EACE03"/>
<path d="M285.363 157.903L287.803 103.08H288.938L291.037 156.66V157.903H285.363Z" fill="#754C24"/>
<path d="M296.994 118.962C296.994 118.962 288.824 125.405 277.647 118.566C266.413 111.727 274.64 102.345 276.342 99.0673C278.044 95.7892 281.846 94.1502 280.711 88.7244C279.633 83.2421 279.746 81.377 281.732 77.3077C283.718 73.2383 286.782 65.4387 288.597 66.0605C290.413 66.6822 294.158 66.9082 294.441 71.9384C294.725 76.912 294.158 78.438 297.108 82.9595C299.945 87.481 300.909 91.3243 299.945 95.1675C299.037 98.9543 299.264 100.028 301.363 103.363C303.463 106.641 306.186 108.506 303.463 113.253C300.683 117.888 296.994 118.962 296.994 118.962Z" fill="#0B9D99"/>
<path d="M228.455 149.541H223.632V82.5662C223.632 82.001 224.086 81.5488 224.654 81.5488H227.491C228.058 81.5488 228.512 82.001 228.512 82.5662V149.541H228.455Z" fill="#AED3D3"/>
<path d="M205.476 149.541H200.653V82.5662C200.653 82.001 201.107 81.5488 201.675 81.5488H204.512C205.079 81.5488 205.533 82.001 205.533 82.5662V149.541H205.476Z" fill="#AED3D3"/>
<path d="M182.044 149.541H177.448V82.5662C177.448 82.001 177.902 81.5488 178.469 81.5488H181.079C181.646 81.5488 182.1 82.001 182.1 82.5662V149.541H182.044Z" fill="#AED3D3"/>
<path d="M160.143 149.541H155.32V82.5662C155.32 82.001 155.774 81.5488 156.341 81.5488H159.178C159.745 81.5488 160.199 82.001 160.199 82.5662V149.541H160.143Z" fill="#AED3D3"/>
<path d="M137.164 149.541H132.341V82.5662C132.341 82.001 132.795 81.5488 133.362 81.5488H136.199C136.766 81.5488 137.22 82.001 137.22 82.5662V149.541H137.164Z" fill="#AED3D3"/>
<path d="M113.731 149.541H109.135V82.5662C109.135 82.001 109.589 81.5488 110.156 81.5488H112.766C113.334 81.5488 113.788 82.001 113.788 82.5662V149.541H113.731Z" fill="#AED3D3"/>
<path d="M91.8872 149.541H87.0645V82.5662C87.0645 82.001 87.5184 81.5488 88.0858 81.5488H90.9226C91.49 81.5488 91.9439 82.001 91.9439 82.5662V149.541H91.8872Z" fill="#AED3D3"/>
<path d="M68.4546 149.541H63.8589V82.5662C63.8589 82.001 64.3128 81.5488 64.8802 81.5488H67.49C68.0574 81.5488 68.5113 82.001 68.5113 82.5662V149.541H68.4546Z" fill="#AED3D3"/>
<path d="M232.653 101.273H60.2275V105.343H232.653V101.273Z" fill="#C4EDEE"/>
<path d="M232.653 119.078H60.2275V123.148H232.653V119.078Z" fill="#C4EDEE"/>
<path d="M59.66 149.483C59.66 149.483 56.8232 144.283 56.4828 143.323C56.0856 142.249 55.8019 140.61 56.3125 141.684C56.7664 142.757 58.1281 145.244 58.8089 147.109C59.4898 148.975 59.7167 148.466 59.66 147.279C59.5465 146.036 58.5821 140.892 58.7523 140.61C58.9225 140.327 59.4898 139.762 59.3763 140.949C59.2628 142.136 59.8302 145.244 59.8302 145.527C59.8302 145.809 60.0005 147.618 60.0005 147.901C60.0005 148.183 60.6246 148.127 60.7381 147.166C60.8516 146.431 60.6246 139.932 60.6246 139.932C60.6246 139.932 60.9082 138.406 60.965 139.366C61.0217 140.327 61.3054 146.601 61.1352 147.505C60.965 148.353 61.0217 149.257 60.3976 149.427C59.7735 149.653 59.66 149.483 59.66 149.483Z" fill="#8AC43F"/>
<path d="M68.7948 148.75C68.7948 148.75 68.2275 142.872 68.2843 141.854C68.341 140.724 68.7381 139.085 68.7381 140.272C68.7381 141.459 69.0218 144.228 68.9651 146.263C68.8516 148.241 69.3055 147.902 69.6459 146.715C70.0431 145.528 71.1211 140.385 71.4048 140.215C71.6885 140.046 72.3693 139.707 71.8586 140.78C71.348 141.854 70.6105 144.963 70.497 145.189C70.3835 145.415 69.8161 147.167 69.7594 147.45C69.6459 147.732 70.27 147.902 70.7239 147.054C71.0643 146.432 73.4473 140.328 73.4473 140.328C73.4473 140.328 74.2985 139.085 73.958 139.933C73.6176 140.837 71.4615 146.715 70.9509 147.506C70.497 148.241 70.2133 149.089 69.5325 149.032C68.8516 148.919 68.7948 148.75 68.7948 148.75Z" fill="#8AC43F"/>
<path d="M77.0785 148.354C77.0785 148.354 74.9792 142.815 74.7522 141.854C74.5253 140.78 74.4686 139.084 74.809 140.215C75.1495 141.345 76.1707 144.002 76.5678 145.923C77.0217 147.901 77.3055 147.393 77.3622 146.149C77.419 144.906 77.1353 139.65 77.3622 139.424C77.5324 139.141 78.1566 138.689 77.9296 139.876C77.7027 141.063 77.8161 144.228 77.7594 144.51C77.7026 144.793 77.6459 146.601 77.6459 146.884C77.6459 147.167 78.2133 147.167 78.497 146.262C78.6672 145.584 79.348 139.028 79.348 139.028C79.348 139.028 79.8019 137.558 79.7452 138.519C79.6884 139.48 79.121 145.697 78.8373 146.601C78.5536 147.449 78.4969 148.297 77.816 148.41C77.1352 148.523 77.0785 148.354 77.0785 148.354Z" fill="#8AC43F"/>
<path d="M81.8442 149.145C81.8442 149.145 79.7448 143.606 79.5179 142.645C79.2909 141.571 79.2342 139.875 79.5747 141.006C79.9151 142.136 80.9364 144.793 81.3336 146.714C81.7875 148.692 82.0711 148.184 82.1279 146.94C82.1846 145.697 81.9009 140.441 82.1279 140.215C82.2981 139.932 82.9222 139.48 82.6952 140.667C82.4683 141.854 82.5817 145.019 82.525 145.301C82.4683 145.584 82.4115 147.392 82.4115 147.675C82.4115 147.958 82.9789 147.958 83.2626 147.053C83.4328 146.375 84.1137 139.819 84.1137 139.819C84.1137 139.819 84.5675 138.349 84.5108 139.31C84.4541 140.271 83.8868 146.488 83.6031 147.392C83.3194 148.24 83.2626 149.088 82.5818 149.201C81.9009 149.314 81.8442 149.145 81.8442 149.145Z" fill="#8AC43F"/>
<path d="M85.6455 147.789C85.6455 147.789 84.0001 142.137 83.8867 141.12C83.7165 139.989 83.8298 138.294 84.0568 139.481C84.2837 140.667 85.0781 143.324 85.3618 145.302C85.6455 147.28 85.986 146.828 86.1562 145.641C86.3264 144.454 86.4965 139.198 86.6668 138.915C86.8937 138.633 87.5178 138.237 87.2341 139.424C86.8937 140.554 86.7802 143.719 86.6668 144.002C86.61 144.285 86.383 146.093 86.3263 146.376C86.2695 146.658 86.8937 146.715 87.2341 145.811C87.4611 145.132 88.7094 138.689 88.7094 138.689C88.7094 138.689 89.3334 137.276 89.1632 138.237C88.9929 139.141 87.915 145.358 87.5746 146.206C87.2342 146.997 87.1207 147.845 86.4399 147.958C85.7023 147.958 85.6455 147.789 85.6455 147.789Z" fill="#8AC43F"/>
<path d="M91.6035 149.711C91.6035 149.711 89.9582 144.059 89.8447 143.041C89.6745 141.911 89.7878 140.215 90.0148 141.402C90.2417 142.533 91.0361 145.246 91.3198 147.224C91.6035 149.202 91.944 148.75 92.1142 147.563C92.2844 146.376 92.4546 141.12 92.6248 140.837C92.795 140.555 93.4758 140.159 93.1921 141.346C92.8517 142.476 92.7382 145.641 92.6248 145.924C92.5113 146.206 92.341 148.015 92.2843 148.298C92.2275 148.58 92.8517 148.637 93.1921 147.732C93.4191 147.054 94.6674 140.611 94.6674 140.611C94.6674 140.611 95.2914 139.198 95.1212 140.159C94.951 141.063 93.8731 147.28 93.5326 148.128C93.1922 148.919 93.0787 149.767 92.3979 149.88C91.6603 149.88 91.6035 149.711 91.6035 149.711Z" fill="#8AC43F"/>
<path d="M98.8653 148.183C98.8653 148.183 97.2198 142.531 97.1064 141.514C96.9361 140.384 97.0497 138.688 97.2766 139.875C97.5036 141.062 98.2979 143.718 98.5816 145.696C98.8653 147.675 99.2057 147.222 99.3759 146.036C99.5461 144.849 99.7164 139.592 99.8866 139.31C100.114 139.027 100.738 138.632 100.454 139.819C100.114 140.949 100 144.114 99.8866 144.397C99.7731 144.679 99.6028 146.488 99.5461 146.77C99.4894 147.053 100.114 147.109 100.454 146.205C100.681 145.527 101.929 139.084 101.929 139.084C101.929 139.084 102.553 137.671 102.383 138.632C102.213 139.536 101.135 145.753 100.794 146.601C100.454 147.392 100.34 148.24 99.6596 148.353C98.922 148.353 98.8653 148.183 98.8653 148.183Z" fill="#8AC43F"/>
<path d="M106.752 147.789C106.752 147.789 105.107 142.137 104.993 141.12C104.823 139.989 104.936 138.294 105.163 139.481C105.39 140.667 106.184 143.324 106.468 145.302C106.752 147.28 107.092 146.828 107.263 145.641C107.433 144.454 107.603 139.198 107.773 138.915C108 138.633 108.624 138.237 108.341 139.424C108 140.554 107.887 143.719 107.773 144.002C107.716 144.285 107.49 146.093 107.433 146.376C107.376 146.658 108 146.715 108.341 145.811C108.567 145.132 109.816 138.689 109.816 138.689C109.816 138.689 110.44 137.276 110.27 138.237C110.099 139.141 109.021 145.358 108.681 146.206C108.341 146.997 108.227 147.845 107.546 147.958C106.809 147.958 106.752 147.789 106.752 147.789Z" fill="#8AC43F"/>
<path d="M113.731 148.183C113.731 148.183 112.086 142.531 111.972 141.514C111.802 140.384 111.915 138.688 112.142 139.875C112.369 141.062 113.164 143.718 113.447 145.696C113.731 147.675 114.071 147.222 114.242 146.036C114.412 144.849 114.582 139.592 114.752 139.31C114.979 139.027 115.603 138.632 115.32 139.819C114.979 140.949 114.866 144.114 114.752 144.397C114.695 144.679 114.468 146.488 114.412 146.77C114.355 147.053 114.979 147.109 115.32 146.205C115.547 145.527 116.795 139.084 116.795 139.084C116.795 139.084 117.419 137.671 117.249 138.632C117.078 139.536 116 145.753 115.66 146.601C115.32 147.392 115.206 148.24 114.525 148.353C113.788 148.353 113.731 148.183 113.731 148.183Z" fill="#8AC43F"/>
<path d="M124.17 147.789C124.17 147.789 122.525 142.137 122.412 141.12C122.241 139.989 122.355 138.294 122.582 139.481C122.809 140.667 123.603 143.324 123.887 145.302C124.17 147.28 124.511 146.828 124.681 145.641C124.851 144.454 125.021 139.198 125.192 138.915C125.419 138.633 126.043 138.237 125.759 139.424C125.419 140.554 125.305 143.719 125.192 144.002C125.135 144.285 124.908 146.093 124.851 146.376C124.795 146.658 125.419 146.715 125.759 145.811C125.986 145.132 127.234 138.689 127.234 138.689C127.234 138.689 127.858 137.276 127.688 138.237C127.518 139.141 126.44 145.358 126.099 146.206C125.759 146.997 125.646 147.845 124.965 147.958C124.227 147.958 124.17 147.789 124.17 147.789Z" fill="#8AC43F"/>
<path d="M132.851 147.506C132.851 147.506 131.206 141.854 131.092 140.836C130.922 139.706 131.035 138.01 131.262 139.197C131.489 140.384 132.284 143.041 132.567 145.019C132.851 146.997 133.191 146.545 133.362 145.358C133.532 144.171 133.702 138.915 133.872 138.632C134.043 138.35 134.723 137.954 134.44 139.141C134.099 140.271 133.986 143.436 133.872 143.719C133.816 144.001 133.589 145.81 133.532 146.093C133.475 146.375 134.099 146.432 134.44 145.527C134.667 144.849 135.915 138.406 135.915 138.406C135.915 138.406 136.539 136.993 136.369 137.954C136.199 138.858 135.121 145.075 134.78 145.923C134.44 146.714 134.326 147.562 133.645 147.675C132.908 147.675 132.851 147.506 132.851 147.506Z" fill="#8AC43F"/>
<path d="M142.724 147.789C142.724 147.789 141.079 142.137 140.965 141.12C140.795 139.989 140.909 138.294 141.135 139.481C141.362 140.667 142.157 143.324 142.44 145.302C142.724 147.28 143.065 146.828 143.235 145.641C143.405 144.454 143.575 139.198 143.745 138.915C143.972 138.633 144.597 138.237 144.313 139.424C143.972 140.554 143.859 143.719 143.745 144.002C143.689 144.285 143.462 146.093 143.405 146.376C143.348 146.658 143.972 146.715 144.313 145.811C144.54 145.132 145.788 138.689 145.788 138.689C145.788 138.689 146.412 137.276 146.242 138.237C146.072 139.141 144.994 145.358 144.653 146.206C144.313 146.997 144.199 147.845 143.518 147.958C142.781 147.958 142.724 147.789 142.724 147.789Z" fill="#8AC43F"/>
<path d="M153.164 147.506C153.164 147.506 151.519 141.854 151.405 140.836C151.235 139.706 151.348 138.01 151.575 139.197C151.802 140.384 152.597 143.041 152.88 145.019C153.164 146.997 153.505 146.545 153.675 145.358C153.845 144.171 154.015 138.915 154.185 138.632C154.356 138.35 155.036 137.954 154.753 139.141C154.412 140.271 154.299 143.436 154.185 143.719C154.129 144.001 153.902 145.81 153.845 146.093C153.788 146.375 154.412 146.432 154.753 145.527C154.98 144.849 156.228 138.406 156.228 138.406C156.228 138.406 156.852 136.993 156.682 137.954C156.512 138.858 155.434 145.075 155.093 145.923C154.753 146.714 154.639 147.562 153.958 147.675C153.221 147.675 153.164 147.506 153.164 147.506Z" fill="#8AC43F"/>
<path d="M160.256 147.789C160.256 147.789 158.61 142.137 158.497 141.12C158.327 139.989 158.44 138.294 158.667 139.481C158.894 140.667 159.688 143.324 159.972 145.302C160.256 147.28 160.596 146.828 160.767 145.641C160.937 144.454 161.107 139.198 161.277 138.915C161.504 138.633 162.128 138.237 161.844 139.424C161.504 140.554 161.391 143.719 161.277 144.002C161.22 144.285 160.993 146.093 160.937 146.376C160.88 146.658 161.504 146.715 161.844 145.811C162.071 145.132 163.32 138.689 163.32 138.689C163.32 138.689 163.944 137.276 163.774 138.237C163.603 139.141 162.525 145.358 162.185 146.206C161.845 146.997 161.731 147.845 161.05 147.958C160.369 147.958 160.256 147.789 160.256 147.789Z" fill="#8AC43F"/>
<path d="M167.065 147.789C167.065 147.789 165.42 142.137 165.306 141.12C165.136 139.989 165.249 138.294 165.476 139.481C165.703 140.667 166.498 143.324 166.781 145.302C167.065 147.28 167.405 146.828 167.576 145.641C167.746 144.454 167.916 139.198 168.086 138.915C168.313 138.633 168.937 138.237 168.654 139.424C168.313 140.554 168.2 143.719 168.086 144.002C168.029 144.285 167.802 146.093 167.746 146.376C167.689 146.658 168.313 146.715 168.654 145.811C168.881 145.132 170.129 138.689 170.129 138.689C170.129 138.689 170.753 137.276 170.583 138.237C170.412 139.141 169.334 145.358 168.994 146.206C168.654 146.997 168.54 147.845 167.859 147.958C167.122 147.958 167.065 147.789 167.065 147.789Z" fill="#8AC43F"/>
<path d="M173.079 148.58C173.079 148.58 171.433 142.928 171.32 141.911C171.15 140.78 171.263 139.085 171.49 140.271C171.717 141.402 172.511 144.115 172.795 146.093C173.079 148.071 173.419 147.619 173.589 146.432C173.759 145.245 173.93 139.989 174.1 139.706C174.327 139.424 174.951 139.028 174.667 140.215C174.327 141.345 174.213 144.51 174.1 144.793C174.043 145.076 173.816 146.884 173.759 147.167C173.703 147.449 174.327 147.506 174.667 146.602C174.894 145.923 176.142 139.48 176.142 139.48C176.142 139.48 176.767 138.067 176.596 139.028C176.426 139.932 175.348 146.149 175.008 146.997C174.667 147.788 174.554 148.636 173.873 148.749C173.135 148.749 173.079 148.58 173.079 148.58Z" fill="#8AC43F"/>
<path d="M180.057 147.506C180.057 147.506 178.412 141.854 178.298 140.836C178.128 139.706 178.242 138.01 178.468 139.197C178.695 140.384 179.49 143.041 179.773 145.019C180.057 146.997 180.398 146.545 180.568 145.358C180.738 144.171 180.908 138.915 181.078 138.632C181.305 138.35 181.929 137.954 181.646 139.141C181.305 140.271 181.192 143.436 181.078 143.719C181.022 144.001 180.795 145.81 180.738 146.093C180.681 146.375 181.305 146.432 181.646 145.527C181.873 144.849 183.121 138.406 183.121 138.406C183.121 138.406 183.745 136.993 183.575 137.954C183.405 138.858 182.327 145.075 181.986 145.923C181.646 146.714 181.532 147.562 180.851 147.675C180.114 147.675 180.057 147.506 180.057 147.506Z" fill="#8AC43F"/>
<path d="M188.852 149.201C188.852 149.201 187.206 143.549 187.093 142.532C186.922 141.401 187.036 139.706 187.263 140.893C187.49 142.023 188.284 144.736 188.568 146.714C188.852 148.692 189.192 148.24 189.362 147.053C189.532 145.866 189.703 140.61 189.873 140.327C190.1 140.045 190.724 139.649 190.44 140.836C190.1 141.966 189.986 145.132 189.873 145.414C189.816 145.697 189.589 147.505 189.532 147.788C189.476 148.07 190.1 148.127 190.44 147.223C190.667 146.544 191.915 140.101 191.915 140.101C191.915 140.101 192.54 138.688 192.369 139.649C192.199 140.554 191.121 146.771 190.781 147.618C190.44 148.41 190.327 149.257 189.646 149.37C188.965 149.37 188.852 149.201 188.852 149.201Z" fill="#8AC43F"/>
<path d="M210.411 149.201C210.411 149.201 208.766 143.549 208.652 142.532C208.482 141.401 208.596 139.706 208.823 140.893C209.049 142.08 209.844 144.736 210.127 146.714C210.411 148.692 210.752 148.24 210.922 147.053C211.092 145.866 211.262 140.61 211.432 140.327C211.603 140.045 212.283 139.649 212 140.836C211.659 141.966 211.546 145.132 211.432 145.414C211.376 145.697 211.149 147.505 211.092 147.788C211.035 148.07 211.659 148.127 212 147.223C212.227 146.544 213.475 140.101 213.475 140.101C213.475 140.101 214.099 138.688 213.929 139.649C213.759 140.554 212.681 146.771 212.34 147.618C212 148.41 211.886 149.257 211.205 149.37C210.468 149.37 210.411 149.201 210.411 149.201Z" fill="#8AC43F"/>
<path d="M217.106 149.654C217.106 149.654 215.461 144.002 215.348 142.985C215.177 141.854 215.291 140.159 215.518 141.346C215.745 142.476 216.539 145.189 216.823 147.167C217.106 149.145 217.447 148.693 217.617 147.506C217.787 146.319 217.957 141.063 218.128 140.781C218.355 140.498 218.979 140.102 218.695 141.289C218.355 142.42 218.241 145.585 218.128 145.867C218.071 146.15 217.844 147.958 217.787 148.241C217.731 148.524 218.355 148.58 218.695 147.676C218.922 146.998 220.17 140.554 220.17 140.554C220.17 140.554 220.794 139.142 220.624 140.102C220.454 141.007 219.376 147.224 219.036 148.071C218.695 148.863 218.582 149.71 217.901 149.824C217.22 149.824 217.106 149.654 217.106 149.654Z" fill="#8AC43F"/>
<path d="M225.901 150.105C225.901 150.105 224.255 144.453 224.142 143.436C223.972 142.306 224.085 140.61 224.312 141.797C224.539 142.984 225.333 145.64 225.617 147.618C225.901 149.596 226.241 149.144 226.412 147.957C226.582 146.771 226.752 141.514 226.922 141.232C227.149 140.949 227.773 140.554 227.489 141.74C227.149 142.871 227.036 146.036 226.922 146.318C226.865 146.601 226.638 148.41 226.582 148.692C226.525 148.975 227.149 149.031 227.489 148.127C227.716 147.449 228.965 141.006 228.965 141.006C228.965 141.006 229.589 139.593 229.419 140.554C229.248 141.458 228.17 147.675 227.83 148.523C227.49 149.314 227.376 150.162 226.695 150.275C225.958 150.275 225.901 150.105 225.901 150.105Z" fill="#8AC43F"/>
<path d="M195.206 147.506C195.206 147.506 193.56 141.854 193.447 140.836C193.276 139.706 193.39 138.01 193.617 139.197C193.844 140.384 194.638 143.041 194.922 145.019C195.206 146.997 195.546 146.545 195.716 145.358C195.886 144.171 196.057 138.915 196.227 138.632C196.397 138.35 197.078 137.954 196.794 139.141C196.454 140.271 196.34 143.436 196.227 143.719C196.17 144.001 195.943 145.81 195.886 146.093C195.83 146.375 196.454 146.432 196.794 145.527C197.021 144.849 198.269 138.406 198.269 138.406C198.269 138.406 198.894 136.993 198.723 137.954C198.553 138.858 197.475 145.075 197.135 145.923C196.794 146.714 196.681 147.562 196 147.675C195.262 147.675 195.206 147.506 195.206 147.506Z" fill="#8AC43F"/>
<path d="M202.866 149.822C202.866 149.822 201.22 144.17 201.107 143.153C200.937 142.022 201.05 140.327 201.277 141.514C201.504 142.644 202.298 145.357 202.582 147.335C202.866 149.313 203.206 148.861 203.376 147.674C203.547 146.487 203.717 141.231 203.887 140.949C204.057 140.666 204.738 140.27 204.454 141.457C204.171 142.644 204.001 145.753 203.887 146.035C203.83 146.318 203.603 148.126 203.547 148.409C203.49 148.692 204.114 148.748 204.454 147.844C204.681 147.166 205.93 140.722 205.93 140.722C205.93 140.722 206.554 139.309 206.383 140.27C206.213 141.175 205.135 147.392 204.795 148.239C204.454 149.031 204.341 149.878 203.66 149.992C202.922 149.992 202.866 149.822 202.866 149.822Z" fill="#8AC43F"/>
<path d="M236.398 149.371C236 149.427 225.901 149.992 219.093 148.805C212.284 147.619 197.93 147.788 191.348 147.562C184.766 147.336 150.837 147.675 150.837 147.675L110.61 147.336L61.9294 148.975C61.9294 148.975 49.8443 151.688 60.5677 150.727C72.2557 149.71 88.4827 151.405 99.7735 150.162C114.752 148.523 125.873 150.671 137.788 150.162C163.603 149.031 206.043 149.145 214.157 150.727C222.781 152.423 236.795 149.032 236.398 149.371Z" fill="#8AC43F"/>
<path d="M160.085 95.2838C160.085 95.2838 161.163 95.962 159.801 96.1881C158.496 96.4142 156.794 96.3577 155.716 96.6403C154.638 96.8663 154.752 97.0359 154.752 97.2054C154.808 97.375 154.468 97.8837 154.922 98.1097C155.376 98.3358 158.553 98.3358 159.915 98.1663C161.333 97.9967 160.369 97.5446 160.028 97.6011C159.688 97.6011 155.319 97.8837 155.206 97.7141C155.149 97.5446 155.092 97.2055 155.489 97.1489C155.83 97.0924 158.667 96.9794 159.518 96.8098C160.369 96.6403 161.503 96.0185 161.22 95.6794C160.936 95.3403 160.879 94.8882 160.539 94.7752C160.142 94.6621 160.028 94.6621 160.028 94.6621V95.2838H160.085Z" fill="#1A1A1A"/>
<path d="M155.319 98.5049C155.319 98.5049 155.773 98.9005 157.021 98.844C158.326 98.7875 160.256 99.7483 161.844 98.844C163.773 97.7136 166.724 97.6006 166.497 96.8093C166.213 95.905 166.951 96.3007 167.007 96.6963C167.007 96.6963 167.404 96.8093 167.177 97.318C166.894 97.9397 163.206 98.731 162.582 99.0701C161.958 99.4092 161.447 100.2 160.255 99.9744C159.064 99.6918 157.362 99.7483 156.17 99.3527C154.922 98.9005 155.319 98.5049 155.319 98.5049Z" fill="#1A1A1A"/>
<path fill-rule="evenodd" clip-rule="evenodd" d="M171.717 158.584L176.256 163.954C176.823 163.897 177.22 163.671 177.447 163.219L173.079 157.85L171.717 158.584Z" fill="#20505A"/>
<path fill-rule="evenodd" clip-rule="evenodd" d="M185.617 134.79C187.092 135.581 187.603 137.389 186.809 138.859L176.312 157.51C175.745 158.414 174.78 159.036 173.702 159.036H123.83C122.184 159.036 120.823 157.68 120.823 156.041C120.823 154.401 122.184 153.045 123.83 153.045H171.83L181.419 135.92C182.326 134.507 184.142 134.055 185.617 134.79Z" fill="#3DBCC8"/>
<path fill-rule="evenodd" clip-rule="evenodd" d="M109.816 161.239C112.256 161.239 114.355 159.261 114.355 156.718C114.355 154.174 112.369 152.196 109.816 152.196C107.376 152.196 105.277 154.174 105.277 156.718C105.277 159.261 107.376 161.239 109.816 161.239ZM109.816 167.174C115.603 167.174 120.312 162.483 120.312 156.718C120.312 150.953 115.603 146.262 109.816 146.262C104.029 146.262 99.3193 150.953 99.3193 156.718C99.3193 162.539 104.029 167.174 109.816 167.174Z" fill="#20505A"/>
<path fill-rule="evenodd" clip-rule="evenodd" d="M195.376 161.239C197.816 161.239 199.915 159.261 199.915 156.718C199.915 154.174 197.93 152.196 195.376 152.196C192.823 152.196 190.837 154.174 190.837 156.718C190.837 159.261 192.937 161.239 195.376 161.239ZM195.376 167.174C201.164 167.174 205.873 162.483 205.873 156.718C205.873 150.953 201.164 146.262 195.376 146.262C189.589 146.262 184.88 150.953 184.88 156.718C184.88 162.539 189.589 167.174 195.376 167.174Z" fill="#20505A"/>
<path fill-rule="evenodd" clip-rule="evenodd" d="M173.418 98.3918C174.95 97.657 176.652 98.3918 177.39 99.8613L178.865 102.913C179.603 104.439 178.865 106.135 177.39 106.87C175.858 107.604 174.156 106.87 173.418 105.4L171.943 102.348C171.206 100.879 171.83 99.07 173.418 98.3918Z" fill="#20505A"/>
<path fill-rule="evenodd" clip-rule="evenodd" d="M167.858 96.978L167.234 97.2606C166.667 97.4867 166.042 97.2606 165.815 96.6954L165.248 95.3955C165.021 94.8303 165.248 94.2086 165.815 93.9825L166.44 93.6999C167.007 93.4738 167.631 93.6999 167.858 94.2651L168.425 95.565C168.652 96.1302 168.369 96.7519 167.858 96.978Z" fill="#1A1E1E"/>
<path fill-rule="evenodd" clip-rule="evenodd" d="M178.752 127.553L185.107 143.604C185.447 144.509 186.355 145.752 187.093 146.317C188.171 147.052 189.249 147.222 190.554 146.487C192.029 145.413 191.575 142.361 190.44 139.931L189.079 136.879L178.752 111.728L169.958 89.7422L165.419 92.0595L178.752 127.553Z" fill="#65C8D0"/>
<path fill-rule="evenodd" clip-rule="evenodd" d="M171.49 90.9301C171.15 90.8171 170.469 91.0431 170.469 91.0431L172.001 94.8864L172.568 94.6603C172.568 94.7168 172.511 91.2692 171.49 90.9301Z" fill="#1A1A1A"/>
<path fill-rule="evenodd" clip-rule="evenodd" d="M165.419 92.0602L159.972 77.3088C160.313 77.3088 158.1 77.1958 156.738 77.874C156 78.2131 154.185 79.2305 153.958 78.9479C152.937 78.4957 152.313 77.874 152.256 76.6306C152.256 75.4437 152.993 74.935 153.958 74.7655L160.369 74.2003L160.086 73.0134L155.206 73.3525L155.036 72.5613L161.731 71.9961L162.355 74.709C163.547 74.822 164.511 75.2742 165.249 76.5741L169.958 89.7429L165.419 92.0602Z" fill="#1A1A1A"/>
<g opacity="0.96">
<path d="M177.391 114.668C177.221 114.781 177.05 114.837 176.823 115.007L176.256 113.764L175.519 114.046L176.54 116.59C176.823 117.324 177.618 117.607 178.355 117.324C179.093 117.042 179.433 116.25 179.15 115.516C178.923 114.781 178.072 114.385 177.391 114.668ZM178.185 116.59C177.845 116.703 177.448 116.59 177.391 116.25C177.277 115.911 177.391 115.516 177.731 115.459C178.072 115.346 178.469 115.459 178.526 115.798C178.639 116.137 178.469 116.477 178.185 116.59Z" fill="white"/>
<path d="M180.511 122.411C179.774 122.693 179.433 123.485 179.774 124.219L180.341 125.576L181.078 125.293L180.511 123.937C180.398 123.654 180.511 123.315 180.852 123.145C181.135 123.032 181.476 123.145 181.646 123.484L182.213 124.841L182.951 124.558L182.383 123.202C182.1 122.524 181.249 122.128 180.511 122.411Z" fill="white"/>
<path d="M179.206 119.189C179.036 119.302 178.922 119.472 179.036 119.754L179.83 121.902L180.625 121.563L179.717 119.415C179.603 119.245 179.433 119.076 179.206 119.189Z" fill="white"/>
<path d="M178.922 119.021C179.236 119.021 179.49 118.768 179.49 118.456C179.49 118.144 179.236 117.891 178.922 117.891C178.609 117.891 178.355 118.144 178.355 118.456C178.355 118.768 178.609 119.021 178.922 119.021Z" fill="white"/>
<path d="M172.284 102.234C172.114 102.347 171.944 102.404 171.717 102.573L171.15 101.33L170.412 101.613L171.433 104.156C171.717 104.891 172.511 105.173 173.249 104.891C173.987 104.608 174.327 103.817 174.043 103.082C173.816 102.347 173.022 101.952 172.284 102.234ZM173.022 104.156C172.682 104.269 172.284 104.156 172.228 103.817C172.114 103.478 172.228 103.082 172.568 103.026C172.908 102.969 173.306 103.026 173.362 103.365C173.589 103.704 173.419 104.043 173.022 104.156Z" fill="white"/>
<path d="M175.461 109.977C174.724 110.26 174.383 111.051 174.724 111.786L175.291 113.142L176.029 112.859L175.461 111.503C175.348 111.22 175.461 110.881 175.802 110.712C176.142 110.542 176.426 110.712 176.596 111.051L177.164 112.407L177.901 112.125L177.334 110.768C176.937 110.09 176.199 109.694 175.461 109.977Z" fill="white"/>
<path d="M174.1 106.756C173.929 106.869 173.816 107.038 173.929 107.321L174.724 109.469L175.518 109.13L174.61 106.982C174.554 106.812 174.27 106.756 174.1 106.756Z" fill="white"/>
<path d="M173.816 106.585C174.129 106.585 174.383 106.332 174.383 106.02C174.383 105.708 174.129 105.455 173.816 105.455C173.503 105.455 173.249 105.708 173.249 106.02C173.249 106.332 173.503 106.585 173.816 106.585Z" fill="white"/>
</g>
<path d="M165.702 94.1512C165.646 94.1512 165.702 94.1512 165.702 94.1512C165.646 94.1512 165.646 94.1512 165.589 94.1512C165.532 94.0947 165.476 94.0382 165.419 93.8686V93.8121C165.476 93.7556 165.589 93.6991 165.589 93.6426H165.646C165.646 93.6426 165.646 93.6426 165.702 93.6426C165.702 93.6426 165.816 93.8687 165.816 93.9252C165.816 93.9817 165.872 93.9817 165.816 94.0382C165.816 94.0947 165.759 94.1512 165.702 94.1512ZM165.419 93.8121C165.419 93.8121 165.419 93.8686 165.419 93.8121C165.532 93.9817 165.589 94.0382 165.589 94.0947H165.646C165.702 94.0947 165.759 94.0382 165.759 94.0382V93.9817L165.646 93.7556C165.589 93.6991 165.476 93.8121 165.419 93.8121Z" fill="#1A1E1E"/>
<path d="M164.966 93.1344L165.25 92.9648C165.25 93.0214 165.703 93.3605 165.76 93.53C165.817 93.6996 165.76 93.6996 165.647 93.8126C165.59 93.8691 165.476 93.9257 165.42 93.9257C165.363 93.9257 165.363 93.9257 165.306 93.9257C165.193 93.9257 165.136 93.6996 165.079 93.53C165.079 93.4735 164.966 93.1344 164.966 93.1344Z" fill="#1A1E1E"/>
<path d="M165.191 93.0217C165.135 92.9652 163.376 92.1739 162.979 91.6653C162.241 90.761 162.298 90.5349 161.844 90.648C161.05 90.761 160.936 93.1348 159.688 92.9652C158.44 92.7956 158.723 92.0609 158.099 92.1174C157.362 92.1739 157.532 93.0782 157.135 93.1347C155.943 93.3608 156.511 92.6261 155.66 92.5696C154.808 92.5696 154.128 93.2478 154.298 94.1521C154.581 95.6216 155.376 95.5085 155.376 95.5085C155.319 95.5085 155.319 94.5477 155.319 94.3782C155.319 94.3782 154.752 93.1347 155.83 93.3043C156.794 93.4739 157.021 93.8695 157.418 93.4739C158.042 92.9087 158.042 92.6826 158.326 92.8522C158.496 92.9652 159.574 93.4739 159.801 93.5304C159.971 93.5304 160.823 93.5869 161.106 92.7391C161.39 92.0044 161.787 90.5349 162.298 91.3827C162.752 92.1174 162.808 92.1739 163.886 92.7957C164.567 93.1913 164.737 92.9087 164.964 93.0782L165.021 93.0217H165.191Z" fill="black"/>
<path d="M76.6807 78.384C76.9644 80.5317 86.2127 92.0615 91.3758 92.4571C91.4325 92.4571 91.546 92.4571 91.6595 92.4571C92.0566 92.4571 92.3971 92.2876 92.7942 92.1745C94.6666 90.9876 102.156 86.1271 104.766 83.1316L104.312 80.0796C100.397 81.436 91.6595 86.7488 91.6595 86.7488C91.6595 86.7488 91.2622 86.9183 91.1488 86.6923C84.2835 80.3057 81.1629 77.9319 78.9502 76.2363L76.6807 78.384Z" fill="#D7A887"/>
<path d="M63.6877 155.419C64.0848 156.38 63.404 159.941 63.2905 161.071C64.0281 162.088 65.9005 161.297 66.1274 160.167C66.1274 159.997 66.2977 159.997 66.2977 159.714C66.0707 159.036 66.5245 156.436 67.0351 155.023L63.6877 155.419Z" fill="#F8AB90"/>
<path d="M75.2043 156.944C75.4879 157.904 74.6369 160.278 74.5234 161.465C75.2043 162.595 77.1333 161.861 77.417 160.73C77.417 160.561 77.5872 160.561 77.5872 160.278C77.3035 159.543 77.9844 157.452 78.6085 156.152L75.2043 156.944Z" fill="#F8AB90"/>
<path d="M75.0354 101.727H82.0142C85.5319 112.239 86.5532 124.164 84.454 136.033C84.2837 136.938 84.0567 137.785 83.773 138.69L81.39 157.058C79.6312 157.793 74.4113 157.284 72.5957 156.832C74.9787 149.993 76.3404 144.002 76.851 137.446C77.078 136.429 77.0781 134.281 77.0781 134.281C77.9291 123.995 75.5461 104.326 75.0354 101.727Z" fill="#8BA943"/>
<path d="M69.4182 156.888C67.0352 157.566 63.7443 156.436 61.9287 155.701L66.4677 135.242C66.5245 134.846 66.5245 134.45 66.5245 134.055L64.8792 109.526C64.8792 108.96 64.8791 108.339 64.9358 107.774C65.2195 105.626 65.7302 102.517 66.638 101.5H75.7728C78.3827 113.651 77.9288 123.994 76.9075 129.872C76.8508 130.381 76.3401 136.089 75.716 137.728L69.4182 156.888Z" fill="#8BA943"/>
<path d="M82.014 101.839L66.5246 102.065L66.4111 101.387L81.9572 101.33L82.014 101.839Z" fill="#778E30"/>
<path d="M70.3821 61.2012L75.7154 61.7099C74.1268 64.1402 72.9921 66.2878 74.7509 67.9834L69.6445 67.5313C71.4034 66.4009 71.1197 63.4619 70.3821 61.2012Z" fill="#ECBC97"/>
<path d="M75.7154 51.1406C75.7154 51.1406 77.7013 53.5709 77.3041 55.3795C77.2474 55.6621 77.2474 55.8882 77.1339 56.0577C76.9069 57.0751 76.907 57.0185 78.0417 57.5272C78.6091 57.8098 78.0984 58.3185 77.8147 58.5445C77.6445 58.7141 77.5878 58.8272 77.5878 59.0532C77.5878 59.2793 77.6446 59.5054 77.6446 59.5054C77.6446 59.5619 77.8714 60.1836 77.2473 60.1836C74.297 60.2401 76.7367 60.1836 77.4176 60.4097C77.4176 60.4097 77.7013 60.5792 77.6446 60.6923C77.5879 60.8618 77.3608 61.0879 77.2473 61.2575C77.1906 61.4835 77.1906 62.1617 77.0204 62.4443C76.8502 62.7269 75.148 63.2356 74.1268 62.953C73.3324 62.7269 72.2545 62.5009 71.8006 62.4443C71.6304 62.4443 71.3466 62.0487 71.2899 61.9357C71.0629 61.7661 70.4956 61.6531 70.0417 61.3705C69.1339 60.8053 69.8715 60.4662 69.985 60.1271C70.0418 59.7315 70.2119 59.1098 70.0417 58.8837C69.8715 58.6576 69.1338 57.7533 69.0204 57.4142C68.7934 56.849 69.1906 55.7751 69.4743 55.436C69.758 55.0404 70.3821 54.9274 70.7225 55.21C71.0062 55.436 71.4034 55.436 71.5169 55.1534C71.7439 54.7578 73.6729 52.271 74.0701 52.0449C74.4673 51.8188 75.7154 51.1406 75.7154 51.1406Z" fill="#ECBC97"/>
<path d="M77.5877 52.6681C77.531 52.9507 77.3608 53.1768 77.1906 53.4029C76.9636 53.7985 76.6232 54.0811 76.1693 54.1941C74.8076 54.7028 73.7295 55.2114 72.4245 55.1549C71.9139 55.0984 71.4601 55.381 71.2331 55.8897C71.0629 56.3418 70.7792 56.6244 70.4955 56.907C69.9849 57.4157 69.8146 58.2635 70.0416 58.8852C70.4388 59.846 71.914 63.3501 71.5168 64.1414C72.3112 71.0367 65.2189 78.9493 58.9778 73.6365C56.0274 70.4715 61.8146 65.0457 61.9281 61.7111C61.7011 57.4722 65.1054 53.855 65.5026 52.9507C65.6728 52.6681 65.7864 52.4421 66.0133 52.216C66.9211 51.3117 67.6587 50.1248 68.3963 49.6161C69.0771 49.1074 69.8146 48.8249 70.609 48.4857C71.8572 48.0336 73.2757 48.2031 74.4672 48.9379C75.7154 49.6726 76.8501 50.69 77.304 51.5943C77.6445 51.9899 77.7012 52.3855 77.5877 52.6681Z" fill="#BC9D02"/>
<path d="M70.8364 56.7368C70.6661 56.4542 70.4392 56.2281 70.269 56.1716C70.2122 56.1151 70.042 56.1716 69.9853 56.1716C69.3044 56.4542 69.1909 56.9628 69.4746 57.6411C69.4746 57.6411 69.4746 57.6411 69.4746 57.6976C69.9285 58.3758 70.2122 58.4888 70.8364 58.8279V56.7368Z" fill="#ECBC97"/>
<path d="M63.2915 158.978C64.4262 159.487 65.5042 159.487 66.6957 158.809C66.7525 158.809 66.866 158.809 66.866 158.865C67.5468 160.052 68.2276 161.578 69.2489 162.482C70.3837 163.217 71.6886 163.726 73.1638 164.178C73.334 164.234 73.5609 164.347 73.7311 164.234C74.4687 164.234 74.9794 164.291 75.4901 164.63C75.5468 164.63 75.6602 164.687 75.717 164.687C76.0006 164.856 76.1709 165.195 76.2277 165.647C76.2277 165.93 76.0574 166.156 75.8304 166.326C74.6389 167.004 73.1071 167.286 71.2347 167.286L67.8305 166.834L62.3836 166.382L61.8162 166.156C61.7595 166.099 61.646 165.986 61.646 165.93C61.646 165.026 61.8163 164.065 62.1567 163.104C62.2135 162.821 62.4404 162.426 62.6106 162.143C63.0645 161.352 63.178 160.278 63.1212 159.091C63.178 158.978 63.2347 158.865 63.2915 158.978Z" fill="#131851"/>
<path d="M61.7589 164.742C61.5887 164.742 61.5319 165.759 61.5887 165.986C61.6454 166.268 62.7234 166.438 62.9503 166.438C63.7446 166.607 64.7091 166.607 65.6169 166.664L68.6809 166.946C69.5887 167.116 70.5531 167.229 71.5744 167.229C72.3687 167.229 73.2198 167.172 74.0141 166.946C74.695 166.777 75.2624 166.551 75.8865 166.212C75.9432 166.155 76.0568 166.155 76.0568 165.986C76.227 165.59 76.2269 165.025 75.6028 164.742C74.922 165.138 73.9007 165.307 72.7659 165.533C71.9716 165.703 71.0071 165.759 69.9291 165.703C68.2837 165.646 66.7517 165.533 65.3333 165.251C64.0283 165.194 62.7802 165.025 61.7589 164.742Z" fill="#090D2D"/>
<path d="M73.5608 164.234C73.5041 164.743 73.5041 165.138 73.7311 165.421C74.5254 165.251 75.2062 165.025 75.8303 164.743C75.2062 164.347 74.4686 164.121 73.5608 164.234Z" fill="#0C1A82"/>
<path d="M66.5812 160.221C66.7377 160.221 66.8646 160.095 66.8646 159.939C66.8646 159.783 66.7377 159.656 66.5812 159.656C66.4247 159.656 66.2979 159.783 66.2979 159.939C66.2979 160.095 66.4247 160.221 66.5812 160.221Z" fill="#D7CCC2"/>
<path d="M67.092 161.239C67.2485 161.239 67.3753 161.112 67.3753 160.956C67.3753 160.8 67.2485 160.674 67.092 160.674C66.9355 160.674 66.8086 160.8 66.8086 160.956C66.8086 161.112 66.9355 161.239 67.092 161.239Z" fill="#D7CCC2"/>
<path d="M67.547 162.143C67.7035 162.143 67.8304 162.017 67.8304 161.861C67.8304 161.705 67.7035 161.578 67.547 161.578C67.3905 161.578 67.2637 161.705 67.2637 161.861C67.2637 162.017 67.3905 162.143 67.547 162.143Z" fill="#D7CCC2"/>
<path d="M68.2834 162.991C68.4399 162.991 68.5667 162.864 68.5667 162.708C68.5667 162.552 68.4399 162.426 68.2834 162.426C68.1269 162.426 68 162.552 68 162.708C68 162.864 68.1269 162.991 68.2834 162.991Z" fill="#D7CCC2"/>
<path d="M69.0773 163.612C69.2338 163.612 69.3607 163.486 69.3607 163.329C69.3607 163.173 69.2338 163.047 69.0773 163.047C68.9208 163.047 68.7939 163.173 68.7939 163.329C68.7939 163.486 68.9208 163.612 69.0773 163.612Z" fill="#D7CCC2"/>
<path d="M70.1592 164.095C70.2792 163.995 70.2949 163.817 70.1943 163.697C70.0937 163.578 69.9149 163.562 69.7949 163.662C69.6749 163.763 69.6592 163.941 69.7598 164.06C69.8604 164.18 70.0392 164.195 70.1592 164.095Z" fill="#D7CCC2"/>
<path d="M71.092 164.426C71.1879 164.346 71.2005 164.203 71.1201 164.108C71.0397 164.012 70.8968 164 70.8009 164.08C70.7051 164.16 70.6926 164.302 70.773 164.398C70.8534 164.493 70.9962 164.506 71.092 164.426Z" fill="#D7CCC2"/>
<path d="M72.3741 164.6C72.4358 164.491 72.3973 164.353 72.2883 164.292C72.1792 164.23 72.0408 164.269 71.9792 164.377C71.9176 164.486 71.9561 164.624 72.0651 164.685C72.1742 164.747 72.3125 164.708 72.3741 164.6Z" fill="#D7CCC2"/>
<path d="M67.1499 160.674C67.3769 160.617 67.6605 160.617 67.8307 160.73C67.8875 160.9 68.0009 161.013 68.0576 161.126C67.8307 160.956 67.4902 161.069 67.32 161.069C67.3767 160.9 67.3201 160.73 67.1499 160.674Z" fill="#686461"/>
<path d="M67.6025 161.577C67.8295 161.521 68.1132 161.351 68.3402 161.408C68.3969 161.464 68.5105 161.577 68.5672 161.69C68.2835 161.634 67.8863 161.747 67.8296 161.86C67.8296 161.69 67.7728 161.634 67.6025 161.577Z" fill="#686461"/>
<path d="M68.2842 162.425C68.4544 162.256 68.7947 162.199 69.0217 162.199C69.0784 162.256 69.1919 162.369 69.3053 162.425C69.0217 162.425 68.6246 162.595 68.5111 162.708C68.5111 162.595 68.4544 162.425 68.2842 162.425Z" fill="#686461"/>
<path d="M69.1914 163.048C69.3616 162.879 69.5885 162.822 69.8722 162.766C69.929 162.822 70.0993 162.822 70.2695 162.992C69.9858 163.048 69.7021 163.274 69.5319 163.387C69.4184 163.274 69.3049 163.105 69.1914 163.048Z" fill="#686461"/>
<path d="M70.042 163.556C70.2122 163.33 70.3258 163.273 70.5527 163.273C70.7229 163.33 70.7229 163.33 70.8364 163.443C70.6095 163.613 70.3824 163.839 70.3257 163.895C70.3824 163.726 70.2689 163.556 70.042 163.556Z" fill="#686461"/>
<path d="M71.0068 164.009C71.177 163.783 71.4041 163.726 71.5176 163.613C71.6878 163.67 71.7445 163.67 71.9147 163.783C71.6877 163.952 71.4608 164.178 71.3473 164.235C71.2338 164.122 71.177 164.009 71.0068 164.009Z" fill="#686461"/>
<path d="M72.0288 164.349C72.0855 164.066 72.0856 163.953 72.2556 163.84C72.4256 163.84 72.5389 163.896 72.5389 163.896C72.4823 164.122 72.4822 164.292 72.3689 164.405C72.3122 164.349 72.1422 164.235 72.0288 164.349Z" fill="#686461"/>
<path d="M66.6387 159.599C66.8656 159.543 67.0926 159.543 67.206 159.599C67.2628 159.769 67.3763 159.882 67.4331 159.995C67.1494 159.938 66.9792 159.825 66.8657 159.938C66.8657 159.825 66.8089 159.712 66.6387 159.599Z" fill="#686461"/>
<path d="M65.5039 159.261C65.5039 159.205 65.5039 159.092 65.5039 159.035C65.5039 158.866 65.6741 158.753 65.7876 158.64C66.0145 158.47 66.2415 158.357 66.5252 158.188C66.5819 158.357 66.6954 158.583 66.7521 158.753C66.5252 158.922 66.2415 158.979 66.0713 159.035C65.9578 159.148 65.7309 159.261 65.5039 159.261Z" fill="#090D2D"/>
<path d="M74.4114 159.433C75.5462 159.942 76.6242 159.942 77.8157 159.264C77.8724 159.264 77.9859 159.264 77.9859 159.32C78.6668 160.507 79.3476 162.033 80.3689 162.937C81.5037 163.672 82.8087 164.181 84.2839 164.633C84.4541 164.689 84.681 164.802 84.8513 164.689C85.5888 164.689 86.0994 164.746 86.61 165.085C86.6668 165.085 86.7803 165.142 86.8371 165.142C87.1208 165.311 87.2909 165.65 87.3477 166.102C87.3477 166.385 87.1775 166.611 86.9505 166.781C85.759 167.459 84.2271 167.741 82.3547 167.741L78.9505 167.289L73.5037 166.837L72.9364 166.611C72.8796 166.555 72.7661 166.442 72.7661 166.385C72.7661 165.481 72.9363 164.52 73.2767 163.559C73.3334 163.276 73.5604 162.881 73.7306 162.598C74.1845 161.807 74.2981 160.733 74.2413 159.546C74.2413 159.433 74.3547 159.377 74.4114 159.433Z" fill="#131851"/>
<path d="M72.8224 165.197C72.6522 165.197 72.5954 166.215 72.6521 166.441C72.7089 166.723 73.7868 166.893 74.0138 166.893C74.8081 167.062 75.7726 167.062 76.6804 167.119L79.7443 167.401C80.6521 167.571 81.6166 167.684 82.6379 167.684C83.4322 167.684 84.2833 167.628 85.0776 167.401C85.7585 167.232 86.3259 167.006 86.95 166.667C87.0067 166.61 87.1202 166.61 87.1202 166.441C87.2904 166.045 87.2904 165.48 86.6663 165.197C85.9854 165.593 84.9642 165.762 83.8294 165.988C83.0351 166.158 82.0706 166.215 80.9925 166.158C79.3471 166.102 77.8152 165.988 76.3967 165.706C75.1485 165.649 73.9004 165.536 72.8224 165.197Z" fill="#090D2D"/>
<path d="M84.6809 164.688C84.6242 165.197 84.6242 165.593 84.8512 165.875C85.6455 165.706 86.3263 165.48 86.9504 165.197C86.3263 164.858 85.5887 164.632 84.6809 164.688Z" fill="#0C1A82"/>
<path d="M77.7023 160.675C77.8588 160.675 77.9857 160.548 77.9857 160.392C77.9857 160.236 77.8588 160.109 77.7023 160.109C77.5458 160.109 77.4189 160.236 77.4189 160.392C77.4189 160.548 77.5458 160.675 77.7023 160.675Z" fill="#D7CCC2"/>
<path d="M78.2121 161.749C78.3686 161.749 78.4954 161.622 78.4954 161.466C78.4954 161.31 78.3686 161.184 78.2121 161.184C78.0556 161.184 77.9287 161.31 77.9287 161.466C77.9287 161.622 78.0556 161.749 78.2121 161.749Z" fill="#D7CCC2"/>
<path d="M78.6672 162.596C78.8237 162.596 78.9505 162.47 78.9505 162.314C78.9505 162.158 78.8237 162.031 78.6672 162.031C78.5107 162.031 78.3838 162.158 78.3838 162.314C78.3838 162.47 78.5107 162.596 78.6672 162.596Z" fill="#D7CCC2"/>
<path d="M79.4035 163.501C79.56 163.501 79.6868 163.374 79.6868 163.218C79.6868 163.062 79.56 162.936 79.4035 162.936C79.247 162.936 79.1201 163.062 79.1201 163.218C79.1201 163.374 79.247 163.501 79.4035 163.501Z" fill="#D7CCC2"/>
<path d="M80.1974 164.067C80.3539 164.067 80.4808 163.941 80.4808 163.785C80.4808 163.628 80.3539 163.502 80.1974 163.502C80.0409 163.502 79.9141 163.628 79.9141 163.785C79.9141 163.941 80.0409 164.067 80.1974 164.067Z" fill="#D7CCC2"/>
<path d="M81.2939 164.591C81.4139 164.491 81.4297 164.313 81.3291 164.194C81.2285 164.074 81.0497 164.058 80.9297 164.158C80.8097 164.259 80.7939 164.437 80.8945 164.556C80.9951 164.676 81.1739 164.692 81.2939 164.591Z" fill="#D7CCC2"/>
<path d="M82.1912 164.877C82.287 164.797 82.2995 164.655 82.2191 164.559C82.1387 164.464 81.9959 164.451 81.9001 164.531C81.8042 164.611 81.7917 164.753 81.8721 164.849C81.9525 164.944 82.0953 164.957 82.1912 164.877Z" fill="#D7CCC2"/>
<path d="M83.5123 165.082C83.5739 164.973 83.5354 164.836 83.4264 164.774C83.3173 164.713 83.179 164.751 83.1174 164.86C83.0558 164.969 83.0943 165.106 83.2033 165.168C83.3124 165.229 83.4507 165.191 83.5123 165.082Z" fill="#D7CCC2"/>
<path d="M78.2695 161.127C78.4965 161.07 78.7801 161.07 78.9504 161.183C79.0071 161.353 79.1207 161.466 79.1774 161.579C78.9504 161.41 78.61 161.523 78.4398 161.523C78.4965 161.353 78.4397 161.24 78.2695 161.127Z" fill="#686461"/>
<path d="M78.7227 162.031C78.9496 161.974 79.2333 161.804 79.4603 161.861C79.517 161.918 79.6304 162.031 79.6872 162.144C79.4035 162.087 79.0063 162.2 78.9496 162.313C78.9496 162.2 78.8929 162.087 78.7227 162.031Z" fill="#686461"/>
<path d="M79.4048 162.937C79.575 162.767 79.9155 162.711 80.1424 162.711C80.1991 162.767 80.3126 162.881 80.4261 162.937C80.1424 162.937 79.7453 163.107 79.6318 163.22C79.6318 163.05 79.5183 162.937 79.4048 162.937Z" fill="#686461"/>
<path d="M80.2559 163.501C80.4261 163.332 80.653 163.275 80.9367 163.219C80.9934 163.275 81.1637 163.275 81.334 163.445C81.0503 163.501 80.7666 163.727 80.5963 163.84C80.4829 163.727 80.4261 163.614 80.2559 163.501Z" fill="#686461"/>
<path d="M81.1641 164.009C81.3343 163.783 81.4477 163.727 81.6746 163.727C81.8449 163.783 81.8449 163.783 81.9583 163.896C81.7314 164.066 81.5045 164.292 81.4478 164.348C81.4478 164.179 81.391 164.009 81.1641 164.009Z" fill="#686461"/>
<path d="M82.1274 164.462C82.2977 164.236 82.5245 164.179 82.638 164.066C82.8082 164.123 82.8651 164.123 83.0353 164.236C82.8083 164.405 82.5814 164.632 82.4679 164.688C82.3544 164.632 82.2977 164.462 82.1274 164.462Z" fill="#686461"/>
<path d="M83.0928 164.858C83.1494 164.576 83.1495 164.463 83.3195 164.35C83.4896 164.35 83.6029 164.406 83.6029 164.406C83.5462 164.632 83.5462 164.802 83.4329 164.915C83.4329 164.858 83.2628 164.689 83.0928 164.858Z" fill="#686461"/>
<path d="M77.7588 160.111C77.9857 160.054 78.2127 160.054 78.3262 160.111C78.3829 160.28 78.4963 160.393 78.5531 160.506C78.2694 160.45 78.0992 160.337 77.9857 160.45C77.9857 160.337 77.929 160.167 77.7588 160.111Z" fill="#686461"/>
<path d="M76.625 159.714C76.625 159.658 76.625 159.545 76.625 159.488C76.625 159.319 76.7952 159.206 76.9087 159.093C77.1356 158.923 77.3626 158.81 77.6463 158.641C77.703 158.81 77.8165 159.036 77.8732 159.206C77.6462 159.375 77.3626 159.432 77.1924 159.488C77.0789 159.658 76.852 159.771 76.625 159.714Z" fill="#090D2D"/>
<path d="M76.3398 79.1185C76.6235 81.2662 85.8717 92.796 91.0348 93.1917C91.0916 93.1917 91.2051 93.1917 91.3185 93.1917C91.7157 93.1917 92.0561 93.0221 92.4533 92.9091C94.3256 91.7222 101.815 86.8616 104.425 83.8661L102.836 81.0402C98.9214 82.3966 91.2619 87.5398 91.2619 87.5398C91.2619 87.5398 90.8079 87.7094 90.7512 87.4833C87.6306 82.3966 83.0916 79.6272 78.5526 77.0273L76.3398 79.1185Z" fill="#ECBC97"/>
<path d="M111.234 75.2754L107.83 80.7012C107.83 80.7012 108.227 81.3794 109.078 81.2663C109.873 81.2098 111.064 79.1187 111.178 78.6665C111.348 78.2144 111.121 77.8752 111.234 77.5361C111.348 77.197 111.291 76.5188 111.291 76.5188C111.234 76.5753 112.029 75.558 111.234 75.2754Z" fill="#D7A887"/>
<path d="M106.865 80.6443L108.624 73.4665C108.68 73.2404 108.85 73.0708 109.021 72.9578L111.631 71.4883C111.801 71.4318 112.028 71.4318 112.085 71.5448C112.141 71.6013 112.141 71.7709 112.141 71.8274L110.269 79.4009L106.865 80.6443Z" fill="#1A2E35"/>
<path d="M110.215 80.0789C110.215 80.0789 110.272 80.0224 110.272 79.7963C110.272 79.5702 110.272 79.2876 110.215 78.892C110.272 78.7224 110.272 78.6659 110.272 78.4964C110.215 78.3268 110.101 78.2138 109.988 78.1007H109.931V78.0442C110.101 77.8181 110.215 77.592 110.385 77.3095C110.442 77.2529 110.442 77.1399 110.442 77.1399C110.442 77.0834 110.442 76.9703 110.442 76.9138C110.385 76.7443 110.272 76.6877 110.158 76.6312V76.5747L110.215 76.5182C110.385 76.3487 110.499 76.2356 110.669 76.066C110.896 75.7834 111.179 75.5574 111.35 75.2748C111.406 75.1052 111.576 74.9922 111.576 74.8227C111.576 74.7661 111.633 74.6531 111.633 74.5966C111.633 74.5401 111.633 74.5401 111.576 74.5401C111.52 74.5401 111.406 74.5401 111.35 74.5966C111.293 74.5966 111.179 74.6531 111.123 74.6531C110.952 74.7096 110.839 74.8226 110.669 74.8792C110.385 75.0487 110.158 75.2748 109.988 75.3313C109.818 75.5009 109.704 75.5574 109.534 75.6139C109.477 75.6704 109.364 75.6704 109.364 75.6704C109.364 75.6704 109.421 75.6139 109.534 75.5009C109.591 75.4443 109.761 75.2748 109.931 75.1053C110.101 74.9357 110.328 74.8226 110.612 74.5966C110.782 74.5401 110.896 74.427 111.066 74.314C111.123 74.2575 111.236 74.2575 111.293 74.1444C111.35 74.1444 111.52 74.0879 111.576 74.0879C111.747 74.0879 111.803 74.2575 111.747 74.314C111.747 74.3705 111.747 74.4835 111.69 74.5401C111.633 74.7096 111.52 74.8227 111.406 74.9922C111.179 75.2748 110.952 75.5009 110.725 75.7834C110.555 75.953 110.442 76.0661 110.272 76.2356V76.1791C110.442 76.2356 110.555 76.4052 110.669 76.5747C110.669 76.6312 110.726 76.7443 110.669 76.8573C110.669 76.9138 110.612 77.0269 110.499 77.0834C110.328 77.3095 110.215 77.5921 109.988 77.8181V77.7616C110.158 77.9312 110.272 77.9877 110.272 78.2138C110.328 78.3833 110.272 78.6094 110.215 78.6659C110.272 79.0615 110.272 79.4006 110.272 79.5702C110.272 79.9093 110.272 80.0224 110.215 80.0789Z" fill="#C89777"/>
<path d="M112.083 71.5449C112.083 71.5449 112.026 71.6015 111.856 71.7145C111.686 71.771 111.459 71.9406 111.289 72.1101C111.005 72.2797 110.721 72.5058 110.381 72.6188C110.211 72.6753 109.984 72.8449 109.87 72.9014C109.643 72.9579 109.473 73.1275 109.36 73.297C109.189 73.4666 109.133 73.6926 109.076 73.8622C109.019 74.0883 109.019 74.3144 108.906 74.4274C108.849 74.823 108.679 75.1621 108.622 75.4447C108.565 75.7273 108.452 75.9534 108.395 76.1229C108.338 76.2925 108.338 76.349 108.338 76.349C108.338 76.349 108.338 76.2925 108.395 76.0664C108.395 75.8969 108.452 75.6708 108.565 75.3882C108.622 75.1056 108.736 74.71 108.792 74.3709C108.849 74.1448 108.849 73.9752 108.963 73.8057C109.019 73.5796 109.133 73.3535 109.246 73.1275C109.416 72.9579 109.643 72.8449 109.814 72.7318C110.041 72.6753 110.211 72.5058 110.324 72.4492C110.721 72.2232 111.005 72.0536 111.289 71.9406C111.572 71.771 111.743 71.658 111.97 71.5449C112.026 71.658 112.083 71.5449 112.083 71.5449Z" fill="#375A64"/>
<path d="M110.382 74.0327C110.325 74.2023 110.325 74.3153 110.382 74.3153C110.439 74.3153 110.552 74.2588 110.608 74.0892C110.665 73.9197 110.665 73.8066 110.608 73.8066C110.552 73.8066 110.439 73.8632 110.382 74.0327Z" fill="white"/>
<path d="M103.971 80.3624C104.539 80.0799 104.539 79.119 104.879 78.4973C105.106 77.9887 105.39 77.48 105.617 77.367C106.014 77.1409 108.056 75.8975 108.056 75.8975L107.83 76.8583L109.815 75.4453C110.042 75.2758 111.461 73.9758 111.744 74.4845C111.915 74.8801 110.78 75.8409 110.61 76.067C110.212 76.5757 110.383 76.5757 110.383 76.5757C110.383 76.5757 110.837 76.8018 110.61 77.1409C110.383 77.5365 110.042 77.9322 110.042 77.9322C110.042 77.9322 110.553 78.1582 110.269 78.8364C110.269 78.8364 110.439 79.2321 110.326 79.7407C110.269 80.0233 110.042 80.419 109.759 80.7015C109.475 81.0972 109.078 81.2667 108.624 81.4363C106.922 82.0015 105.446 82.6797 104.368 83.584L102.78 80.7581L103.971 80.3624Z" fill="#ECBC97"/>
<path d="M108.455 76.4629C108.455 76.4629 108.001 76.8585 107.433 77.1411C106.866 77.5368 106.412 77.7063 106.412 77.7063C106.412 77.7063 106.866 77.3107 107.433 77.0281C107.887 76.689 108.455 76.4629 108.455 76.4629Z" fill="#C89777"/>
<path d="M110.27 76.5195C110.27 76.5195 109.873 76.9717 109.362 77.4803C108.851 77.989 108.397 78.3846 108.397 78.3846C108.397 78.3846 108.795 77.9325 109.305 77.4238C109.873 76.9151 110.27 76.5195 110.27 76.5195Z" fill="#C89777"/>
<path d="M110.156 77.875C110.156 77.875 109.986 78.1576 109.702 78.4402C109.475 78.7228 109.191 78.9489 109.191 78.9489C109.191 78.9489 109.362 78.6663 109.645 78.3837C109.872 78.1011 110.156 77.875 110.156 77.875Z" fill="#C89777"/>
<path d="M83.9999 101.33H61.8154C61.8154 101.33 62.6098 82.5095 65.4467 72.0536C65.8439 70.5841 67.092 68.4364 68.17 67.3626C68.6239 66.9104 69.1346 66.5713 69.7587 66.3452C70.1559 66.1757 70.553 66.1191 71.0069 66.1191L74.8084 66.4017C75.2623 66.4017 75.6027 66.6843 75.7729 67.08L79.5743 75.6143C79.8013 76.1229 80.0849 76.5751 80.5389 76.9707L86.0992 81.9443L82.468 86.4093L82.0141 86.918" fill="#131851"/>
<path d="M80.9916 86.5786C74.9207 81.7745 74.5802 80.8137 74.1263 79.1747C73.9561 78.666 73.7292 77.9878 73.332 77.0835L73.8426 76.8574C74.2965 77.8182 74.5235 78.4399 74.637 79.0051C75.0909 80.5876 75.3746 81.3789 81.3321 86.1265L80.9916 86.5786Z" fill="black"/>
</svg>
