<svg width="343" height="203" viewBox="0 0 343 203" fill="none" xmlns="http://www.w3.org/2000/svg">
<path d="M171.5 173.593C257.104 173.593 326.5 167.1 326.5 159.09C326.5 151.08 257.104 144.586 171.5 144.586C85.8959 144.586 16.5 151.08 16.5 159.09C16.5 167.1 85.8959 173.593 171.5 173.593Z" fill="#D5D5D5"/>
<path d="M133.836 153.162H76.6001V155.332H133.836V153.162Z" fill="#F1F1F1"/>
<path d="M241.962 153.162H184.726V155.332H241.962V153.162Z" fill="#F1F1F1"/>
<path d="M208.001 99.3047H185.953V146.434H208.001V99.3047Z" fill="#E9E9E9"/>
<path d="M192.355 101.641H188.903V105.09H192.355V101.641Z" fill="white"/>
<path d="M192.355 107.486H188.903V110.936H192.355V107.486Z" fill="white"/>
<path d="M197.813 101.641H194.361V105.09H197.813V101.641Z" fill="white"/>
<path d="M197.813 107.486H194.361V110.936H197.813V107.486Z" fill="white"/>
<path d="M192.355 113.383H188.903V116.833H192.355V113.383Z" fill="white"/>
<path d="M197.813 113.383H194.361V116.833H197.813V113.383Z" fill="white"/>
<path d="M208.001 146.432V109.764L185.953 146.432H208.001Z" fill="#F3F3F3"/>
<path d="M192.412 119.336H188.96V122.786H192.412V119.336Z" fill="white"/>
<path d="M197.867 119.336H194.416V122.786H197.867V119.336Z" fill="white"/>
<path d="M192.355 125.234H188.903V128.684H192.355V125.234Z" fill="white"/>
<path d="M197.813 125.234H194.361V128.684H197.813V125.234Z" fill="white"/>
<path d="M192.189 131.189H188.737V134.639H192.189V131.189Z" fill="white"/>
<path d="M197.644 131.189H194.192V134.639H197.644V131.189Z" fill="white"/>
<path d="M192.189 137.086H188.737V140.536H192.189V137.086Z" fill="white"/>
<path d="M197.644 137.086H194.192V140.536H197.644V137.086Z" fill="white"/>
<path d="M237.731 82.9453H207.999V146.433H237.731V82.9453Z" fill="#E9E9E9"/>
<path d="M216.63 86.0625H211.953V90.7364H216.63V86.0625Z" fill="white"/>
<path d="M216.63 94.0195H211.953V98.6935H216.63V94.0195Z" fill="white"/>
<path d="M223.978 86.0625H219.301V90.7364H223.978V86.0625Z" fill="white"/>
<path d="M223.978 94.0195H219.301V98.6935H223.978V94.0195Z" fill="white"/>
<path d="M216.685 101.975H212.008V106.649H216.685V101.975Z" fill="white"/>
<path d="M224.091 101.975H219.415V106.649H224.091V101.975Z" fill="white"/>
<path d="M237.731 146.434V97.0234L207.999 146.434H237.731Z" fill="#F3F3F3"/>
<path d="M216.685 109.934H212.008V114.608H216.685V109.934Z" fill="white"/>
<path d="M224.091 109.934H219.415V114.608H224.091V109.934Z" fill="white"/>
<path d="M216.63 117.889H211.953V122.563H216.63V117.889Z" fill="white"/>
<path d="M223.978 117.889H219.301V122.563H223.978V117.889Z" fill="white"/>
<path d="M216.352 125.846H211.675V130.52H216.352V125.846Z" fill="white"/>
<path d="M223.756 125.846H219.08V130.52H223.756V125.846Z" fill="white"/>
<path d="M216.352 133.803H211.675V138.477H216.352V133.803Z" fill="white"/>
<path d="M223.756 133.803H219.08V138.477H223.756V133.803Z" fill="white"/>
<path d="M242.52 145.955L244.023 78.127H245.47V144.397V145.955H242.52Z" fill="#686867"/>
<path d="M254.936 128.484C254.936 128.484 244.858 139.111 231.05 127.816C217.242 116.52 227.376 100.941 229.436 95.4877C231.551 90.0348 236.228 87.3639 234.781 78.2942C233.445 69.2245 233.612 66.1642 236.061 59.3759C238.511 52.5875 242.242 39.6785 244.524 40.6801C246.807 41.6816 251.372 42.1268 251.707 50.4175C252.041 58.6525 251.373 61.2121 254.992 68.6681C258.499 76.1242 259.668 82.5787 258.499 88.8663C257.386 95.1538 257.664 96.9344 260.281 102.443C262.898 107.896 266.238 111.012 262.898 118.857C259.446 126.703 254.936 128.484 254.936 128.484Z" fill="#8AC43F"/>
<path d="M178.436 146.436L178.936 122.844H179.437V145.88V146.436H178.436Z" fill="#686867"/>
<path d="M182.666 140.314C182.666 140.314 179.159 143.987 174.37 140.036C169.582 136.085 173.09 130.632 173.758 128.796C174.537 126.849 176.096 125.958 175.595 122.843C175.094 119.727 175.15 118.669 176.041 116.332C176.876 113.995 178.212 109.488 178.992 109.822C179.771 110.156 181.441 110.323 181.497 113.161C181.608 115.999 181.386 116.944 182.611 119.504C183.891 122.119 184.225 124.345 183.891 126.515C183.557 128.685 183.613 129.297 184.504 131.189C185.45 133.136 186.619 134.138 185.45 136.864C184.281 139.591 182.666 140.314 182.666 140.314Z" fill="#8AC43F"/>
<path fill-rule="evenodd" clip-rule="evenodd" d="M146.422 134.193C147.814 134.972 148.315 136.697 147.48 138.088L137.402 155.95C136.845 156.84 135.954 157.396 134.897 157.396H87.237C85.6224 157.396 84.3418 156.117 84.3418 154.503C84.3418 152.889 85.6224 151.61 87.237 151.61H133.226L142.413 135.195C143.304 133.971 145.085 133.415 146.422 134.193Z" fill="#3DBCC8"/>
<path fill-rule="evenodd" clip-rule="evenodd" d="M73.9315 159.62C76.27 159.62 78.2186 157.729 78.2186 155.336C78.2186 152.943 76.3257 151.051 73.9315 151.051C71.5931 151.051 69.6444 152.943 69.6444 155.336C69.5887 157.729 71.5931 159.62 73.9315 159.62ZM73.9315 165.351C79.4992 165.351 84.0091 160.844 84.0091 155.28C84.0091 149.716 79.4992 145.209 73.9315 145.209C68.3638 145.209 63.854 149.716 63.854 155.28C63.9097 160.844 68.4195 165.351 73.9315 165.351Z" fill="#20505A"/>
<path fill-rule="evenodd" clip-rule="evenodd" d="M155.832 159.62C158.171 159.62 160.12 157.729 160.12 155.336C160.12 152.943 158.227 151.051 155.832 151.051C153.438 151.051 151.545 152.943 151.545 155.336C151.545 157.729 153.438 159.62 155.832 159.62ZM155.832 165.351C161.4 165.351 165.91 160.844 165.91 155.28C165.91 149.716 161.4 145.209 155.832 145.209C150.265 145.209 145.755 149.716 145.755 155.28C145.755 160.844 150.265 165.351 155.832 165.351Z" fill="#20505A"/>
<path fill-rule="evenodd" clip-rule="evenodd" d="M134.73 99.2483C136.178 98.5806 137.848 99.1926 138.516 100.639L139.908 103.533C140.576 104.979 139.964 106.649 138.516 107.316C137.069 107.984 135.398 107.372 134.73 105.925L133.338 103.032C132.67 101.641 133.338 99.9716 134.73 99.2483Z" fill="#20505A"/>
<path fill-rule="evenodd" clip-rule="evenodd" d="M139.909 127.29L145.978 142.759C146.256 143.594 147.147 144.818 147.871 145.374C148.873 146.042 149.987 146.265 151.212 145.541C152.604 144.54 152.214 141.591 151.156 139.198L149.875 136.305L139.965 112.156L131.669 91.0117L127.159 93.2374L139.909 127.29Z" fill="#65C8D0"/>
<path fill-rule="evenodd" clip-rule="evenodd" d="M127.158 93.1839L121.98 78.9394C122.259 78.9394 120.143 78.8838 118.918 79.4959C118.25 79.7741 116.58 80.7756 116.246 80.5531C115.355 80.1636 114.742 79.4959 114.631 78.3274C114.631 77.2702 115.299 76.6581 116.246 76.4912L122.426 76.046L122.203 74.8775L117.582 75.2671L117.415 74.4881L123.818 73.9316L124.43 76.5468C125.599 76.7137 126.546 77.1033 127.158 78.383L131.668 90.9582L127.158 93.1839Z" fill="#1A1A1A"/>
<g opacity="0.96">
<path d="M137.735 114.048C137.513 114.103 137.346 114.27 137.178 114.437L136.622 113.213L135.954 113.491L136.956 115.939C137.234 116.607 138.014 116.941 138.682 116.607C139.35 116.329 139.684 115.55 139.461 114.882C139.294 114.103 138.459 113.825 137.735 114.048ZM138.515 115.884C138.236 116.051 137.847 115.884 137.735 115.606C137.568 115.327 137.735 114.938 138.014 114.827C138.292 114.66 138.682 114.827 138.793 115.105C138.96 115.383 138.849 115.717 138.515 115.884Z" fill="white"/>
<path d="M140.797 121.388C140.129 121.666 139.795 122.445 140.017 123.113L140.574 124.393L141.242 124.115L140.686 122.835C140.519 122.557 140.686 122.223 140.964 122.056C141.242 121.889 141.576 122.056 141.743 122.334L142.3 123.614L142.968 123.336L142.412 122.056C142.245 121.499 141.521 121.166 140.797 121.388Z" fill="white"/>
<path d="M139.516 118.385C139.293 118.44 139.237 118.663 139.293 118.83L140.128 120.889L140.908 120.61L140.017 118.552C139.961 118.385 139.738 118.273 139.516 118.385Z" fill="white"/>
<path d="M139.185 118.164C139.492 118.164 139.741 117.915 139.741 117.607C139.741 117.3 139.492 117.051 139.185 117.051C138.878 117.051 138.628 117.3 138.628 117.607C138.628 117.915 138.878 118.164 139.185 118.164Z" fill="white"/>
<path d="M132.892 102.083C132.669 102.138 132.502 102.305 132.335 102.472L131.778 101.248L131.11 101.526L132.112 103.975C132.39 104.642 133.17 104.976 133.838 104.642C134.506 104.364 134.84 103.585 134.618 102.917C134.395 102.138 133.671 101.86 132.892 102.083ZM133.671 103.919C133.393 104.086 133.003 103.919 132.892 103.641C132.725 103.362 132.892 102.973 133.17 102.862C133.448 102.695 133.838 102.862 133.949 103.14C134.116 103.474 133.949 103.808 133.671 103.919Z" fill="white"/>
<path d="M135.953 109.541C135.285 109.819 134.951 110.598 135.174 111.266L135.73 112.545L136.399 112.267L135.842 110.987C135.675 110.709 135.842 110.375 136.12 110.208C136.399 110.041 136.733 110.208 136.9 110.487L137.456 111.766L138.125 111.488L137.568 110.208C137.401 109.541 136.621 109.262 135.953 109.541Z" fill="white"/>
<path d="M134.73 106.425C134.507 106.481 134.452 106.703 134.507 106.87L135.343 108.929L136.122 108.651L135.231 106.592C135.12 106.425 134.897 106.37 134.73 106.425Z" fill="white"/>
<path d="M134.395 106.312C134.703 106.312 134.952 106.063 134.952 105.756C134.952 105.448 134.703 105.199 134.395 105.199C134.088 105.199 133.839 105.448 133.839 105.756C133.839 106.063 134.088 106.312 134.395 106.312Z" fill="white"/>
</g>
<path d="M97.2044 147.377C98.8191 146.709 100.768 145.485 101.714 145.485C101.993 145.485 102.271 145.318 102.494 145.096C102.716 144.818 103.106 144.651 103.496 144.484C103.719 144.428 103.941 144.484 104.108 144.651C104.665 145.263 104.721 145.93 104.387 146.654L104.665 146.709L109.064 148.212C109.231 148.267 109.342 148.267 109.509 148.379C112.237 148.991 113.017 150.048 112.961 151.272C112.961 151.55 112.683 151.829 112.349 151.829L95.7568 151.884L95.8125 149.436C95.8125 148.991 95.9796 148.601 96.2023 148.212C96.4807 147.767 96.8147 147.488 97.2044 147.377Z" fill="#0299C1"/>
<path d="M105.5 146.988L104.386 148.991C104.219 149.27 104.33 149.603 104.609 149.77C104.776 149.826 104.999 149.77 105.054 149.603L106.279 147.266L105.5 146.988Z" fill="black"/>
<path d="M106.892 147.488L105.723 149.547C105.555 149.825 105.667 150.215 105.945 150.382C106.112 150.437 106.335 150.382 106.391 150.215L107.671 147.766L106.892 147.488Z" fill="black"/>
<path d="M102.716 59.2937L105.054 63.4669C105.333 64.079 105.834 64.6354 106.335 64.9693L116.858 72.8705C117.916 73.6495 118.584 74.7623 119.196 75.9864C119.363 76.3759 119.475 76.7654 119.475 77.1549C119.475 77.767 119.252 78.2121 118.862 79.0468C118.305 79.937 118.083 80.0483 116.579 79.6588C116.524 79.8258 117.359 78.8798 117.582 78.2121C117.86 77.4331 117.415 76.0977 116.802 75.5413C115.577 74.4841 114.297 73.5382 113.016 72.8148C112.738 72.6479 112.404 72.5366 112.014 72.4253C109.898 71.9802 107.727 71.2568 105.611 70.3666C105.221 70.1996 104.832 69.9214 104.553 69.5876C102.27 67.4732 100.377 64.9693 98.2061 61.6864L102.493 58.793L102.716 59.2937Z" fill="#DBAD8D"/>
<path d="M102.715 59.4067L105.22 64.3032C105.499 64.9153 106 65.4717 106.501 65.8055L117.024 73.7067C118.082 74.5414 118.861 75.5986 119.362 76.8784C119.529 77.2678 119.641 77.9356 119.585 78.3251C119.585 78.492 119.585 78.6033 119.529 78.7145C119.362 79.4935 118.861 80.1056 118.137 80.3838C117.079 80.8289 115.91 80.7733 115.465 80.1056C116.022 80.3838 116.467 79.8274 116.745 79.271C117.024 78.8258 117.191 78.2138 117.302 77.6573C117.358 77.1009 117.302 76.6001 116.912 76.2663C115.52 75.4317 114.463 74.2632 113.182 73.5955C112.904 73.4285 112.57 73.3172 112.18 73.206C110.064 72.7608 107.893 72.0375 105.777 71.1472C105.387 70.9803 104.997 70.7577 104.719 70.4795C102.381 68.3651 99.2627 64.2476 97.0913 60.909L102.548 58.0156L102.715 59.4067Z" fill="#EDBD98"/>
<path fill-rule="evenodd" clip-rule="evenodd" d="M117.525 74.542L118.361 74.4863L118.917 75.2097L117.525 75.321L117.303 74.542H117.525Z" fill="#1A1A1A"/>
<path d="M96.8134 99.6367C101.379 105.646 94.9761 108.595 96.0339 115.383C96.4237 122.45 93.083 137.195 93.8625 145.653C91.6911 146.654 90.2992 147.1 88.963 147.211C89.5754 144.763 90.0208 142.426 90.1322 140.534C89.464 132.41 90.5776 121.56 89.7424 118.11L88.7402 101.974L96.8134 99.6367Z" fill="#FFD2C1"/>
<path d="M96.871 147.489L96.704 139.476C96.2586 132.243 96.8711 124.508 98.3743 116.273C98.43 115.828 98.3743 115.383 98.2073 114.882C94.8667 108.094 93.6418 100.86 94.1986 93.3488L93.0293 88.8418L99.8776 86.2266C102.606 97.6332 105.501 109.429 104.443 114.771C104.443 114.827 104.443 114.938 104.443 114.994C104.053 122.283 102.439 131.742 100.546 141.869C100.49 142.147 100.49 142.481 100.546 142.87L100.991 145.486L96.871 147.489Z" fill="#FFD2C1"/>
<path d="M104.498 70.3669C103.217 73.316 104.386 76.5432 105.054 78.1012C105.221 78.4907 105.166 78.602 105.221 79.381C105.221 79.9374 104.999 80.2156 104.943 80.4938C104.887 80.6051 104.609 81.1059 104.442 81.1059C102.326 81.3285 101.881 81.3841 100.378 80.9946C97.7051 81.2728 95.1439 81.2172 93.0281 80.8277C91.6362 80.3269 92.5271 79.3254 91.9146 78.3794C91.8589 78.3238 91.6362 77.4892 91.5806 77.3222C91.1351 75.486 92.4714 72.2031 93.0281 70.5895C93.0838 70.367 93.1952 70.0331 93.1952 69.8105C93.1952 68.1413 90.8567 61.5198 92.193 57.1797C92.1373 54.0081 94.253 51.1147 95.2552 49.7793L97.9834 50.2244L100.322 50.1688L102.772 53.2291C103.05 53.6186 103.328 54.0638 103.44 54.5089L105.444 61.4085C105.5 61.6868 105.611 62.0762 105.611 62.4101L105.778 64.3019C105.221 63.7455 103.774 61.1303 102.605 58.9046L97.705 61.186L101.213 66.4164L104.498 70.3669Z" fill="#153E44"/>
<path d="M104.776 69.6452C103.662 73.3732 103.439 75.2094 104.998 78.1584C105.054 78.2141 105.11 78.9931 105.11 79.1044C105.11 79.3269 105.165 79.8834 104.943 80.2729C104.887 80.3285 104.609 80.8293 104.553 80.8293C102.382 81.0519 101.881 80.7736 100.322 80.4398C97.6491 80.718 95.1436 80.8293 93.0279 80.4398C92.2484 79.7164 92.9166 79.2713 92.0257 78.1028C91.9701 78.1028 91.7473 77.1569 91.7473 77.1012C91.1906 75.0425 93.0836 72.4273 93.6404 70.8137C93.6961 70.5911 93.8074 70.2573 93.8074 70.0347C93.8074 68.3654 91.3019 62.0778 92.1927 56.291C93.1949 52.6187 94.8653 50.226 95.8675 48.8906L97.9275 49.3358L99.9319 49.1688L102.827 52.2848C103.105 52.6743 103.384 53.1194 103.495 53.5646L105.5 60.4642C105.555 60.7424 105.667 61.1319 105.667 61.4658L105.722 63.3576C105.166 62.8012 103.829 60.0747 102.604 57.9047L97.7048 60.186L101.212 65.4164L104.776 69.6452Z" fill="#20505A"/>
<path d="M88.7958 147.211C89.8537 147.044 90.8559 146.821 91.7467 146.543C92.8046 146.098 93.6398 145.709 94.1965 145.542C94.3636 144.985 94.5862 144.651 94.8646 144.373C95.0873 144.206 95.4214 144.151 95.6441 144.318C96.3122 144.874 96.4236 145.597 95.9225 146.543L100.822 148.157C100.878 148.157 101.045 148.213 101.1 148.213C103.606 148.491 104.831 149.659 104.998 151.384C104.998 151.662 104.775 151.996 104.385 151.996L93.7511 151.829H87.7379C87.4596 151.829 87.1812 151.607 87.1812 151.384C86.9585 150.104 87.2368 148.88 88.0163 147.712C88.1834 147.434 88.5174 147.211 88.7958 147.211Z" fill="#0095C9"/>
<path d="M96.8129 146.766L95.9778 148.379C95.9221 148.435 95.9221 148.602 95.9778 148.657C96.0335 148.713 96.2005 148.824 96.3675 148.824C96.4232 148.824 96.5345 148.769 96.5902 148.657L97.3697 146.933L96.8129 146.766Z" fill="black"/>
<path d="M97.649 147.047L96.8699 148.549C96.8143 148.605 96.8699 148.772 96.8699 148.827C96.9256 148.883 97.0925 148.994 97.1482 148.994C97.2038 148.994 97.3151 148.939 97.3151 148.827L97.9828 147.158L97.649 147.047Z" fill="black"/>
<path d="M104.553 81.0501C104.553 80.9944 104.497 80.9388 104.441 80.9388C103.829 80.9944 101.156 80.8275 100.488 80.6606C99.7086 80.438 97.1475 80.9388 95.9782 80.8275C94.809 80.7162 93.25 80.5493 93.0273 80.438C92.8046 80.2711 87.8494 88.6174 88.3505 95.7953C88.7959 102.083 88.9072 111.431 89.4083 112.766C89.9094 114.102 95.6999 113.378 95.9782 113.1C96.0896 112.989 95.9225 112.989 96.368 111.375C97.0918 108.871 97.3145 103.919 97.2031 103.696L96.4793 110.874C96.4793 110.874 97.3145 113.044 97.4815 113.49C97.6485 113.99 104.72 112.933 104.664 111.041C104.608 109.205 105.499 98.633 105.109 95.0163C104.72 91.6221 104.553 82.3299 104.553 81.0501Z" fill="#564B47"/>
<path d="M95.8671 120.224C95.8671 120.224 96.7022 115.049 96.0898 114.827C95.4773 114.548 93.1946 114.215 92.0254 115.105C90.9118 115.995 89.5756 116.106 89.5756 116.106C89.5199 116.162 89.7983 120.28 90.021 120.558C90.4107 121.114 94.8649 120.725 95.366 120.391C95.4773 120.28 95.8671 120.335 95.8671 120.224Z" fill="#CECECE"/>
<path d="M104.274 118.496C104.33 118.162 104.664 114.601 104.72 112.988C104.72 112.821 103.217 112.932 102.214 113.377C101.546 113.655 100.711 114.323 100.266 114.323C99.9316 114.323 99.6532 114.434 99.3192 114.49C99.0408 114.546 98.6511 114.657 98.4284 114.657C98.4284 114.657 98.15 114.657 98.0943 114.601L98.2613 114.935C98.2613 114.935 98.5397 115.603 98.484 116.159C98.4283 116.771 98.2056 117.662 98.2056 117.662L98.0386 118.775L97.9272 119.609C97.9272 119.609 100.154 119.164 101.825 119.442C103.606 119.72 104.219 119.108 104.219 119.053C104.219 118.886 104.219 118.775 104.274 118.496Z" fill="#CECECE"/>
<path d="M96.0319 119.055C96.0319 119.055 96.4773 115.939 96.2546 115.605C96.0876 115.327 94.974 114.325 94.3616 115.994C93.7491 117.664 94.4173 119.277 94.5286 119.5C94.8627 120.223 95.8092 120.056 96.0319 119.055Z" fill="#AEAFAF"/>
<path d="M104.329 117.83C104.329 117.886 104.663 114.826 104.663 114.269C104.663 113.935 103.215 112.989 102.603 114.659C101.99 116.328 102.658 117.886 102.77 118.164C103.048 118.943 104.05 118.887 104.329 117.83Z" fill="#AEAFAF"/>
<path d="M97.644 43.2695L101.152 43.8816C99.8711 46.0516 99.37 48.2217 100.317 49.891L95.6953 49.0563C96.9759 47.8878 97.9781 45.3839 97.644 43.2695Z" fill="#ECBC97"/>
<path d="M102.546 34.3652C102.546 34.3652 104.216 36.7578 103.66 38.4271C103.604 38.6497 103.493 38.8723 103.493 39.0392C103.27 39.9851 103.66 39.9295 104.161 40.4859C104.606 40.931 104.161 41.2092 103.882 41.3762C103.715 41.4318 103.604 41.6544 103.66 41.8213C103.66 42.0439 103.66 42.2108 103.66 42.2664C103.66 42.3221 103.938 42.8785 103.214 42.8785C102.49 42.8785 101.655 42.489 101.544 42.489C101.377 42.489 102.991 42.9341 103.27 43.1011C103.27 43.1011 103.493 43.268 103.437 43.3793C103.381 43.5462 103.158 43.6575 103.047 43.8801C102.936 44.1026 102.88 44.7147 102.769 44.9929C102.602 45.2711 100.987 45.605 100.096 45.2711C99.4282 45.0486 98.3703 44.7703 97.9805 44.6591C97.8135 44.6591 97.5908 44.2696 97.5352 44.1583C97.3681 43.9914 96.867 43.7688 96.4216 43.4906C95.6978 42.8785 96.3659 42.6559 96.4216 42.3777C96.4773 42.0995 96.6443 41.4318 96.5886 41.2649C96.5329 41.0423 95.8648 40.2077 95.7534 39.8182C95.5864 39.2061 96.0318 38.3158 96.2546 38.0376C96.5329 37.7594 97.1454 37.5925 97.4794 37.8707C97.7578 38.0933 98.3146 38.5384 98.5373 38.2602C98.76 37.982 100.486 35.4224 100.876 35.2555C101.266 35.0886 102.546 34.3652 102.546 34.3652Z" fill="#ECBC97"/>
<path d="M96.9774 41.8775C96.5877 42.9903 96.5877 43.8249 96.8661 44.437C96.8661 44.9378 96.532 45.1047 96.198 44.8265C94.2493 42.879 93.3584 44.0475 92.5233 42.6008C92.4676 42.4339 91.0757 41.2654 90.9086 41.2098C90.6302 41.0428 90.2405 40.8203 90.1848 40.3751C90.0178 39.7074 90.1291 38.8171 90.1291 38.4833C90.1848 36.814 90.7416 35.3673 92.4676 33.4755C92.6903 33.2529 93.8038 32.3626 94.0265 32.1957C95.3071 31.4724 96.5877 31.2498 97.9796 31.3611C98.258 31.3611 98.592 31.4167 98.8704 31.528C100.763 32.0288 102.322 32.8078 102.601 34.3658C102.656 34.5883 102.545 34.8109 102.378 34.8665C100.652 35.7568 99.5386 37.0366 98.7591 38.5946C98.7034 38.8171 98.4807 38.8171 98.3136 38.7615L97.5899 38.2607C97.0888 38.0381 96.4763 38.3164 96.3093 38.7615V38.8171C95.9195 39.6518 96.1423 40.709 96.8104 41.2654C96.9774 41.488 97.0331 41.6549 96.9774 41.8775Z" fill="#42210B"/>
<path d="M101.097 32.5302C100.93 32.9197 98.2016 33.8099 96.754 35.4792C95.3064 37.1485 94.6382 37.8162 94.4155 37.9275C94.1928 37.9831 94.9723 36.4251 94.9723 36.4251L98.5356 33.3092L100.54 32.252C100.54 32.252 100.985 32.3632 101.041 32.5302C101.097 32.5302 101.097 32.5302 101.097 32.5302Z" fill="#222323"/>
<path d="M92.3555 39.8195C92.3555 39.8195 94.4155 39.597 94.8609 41.767C95.362 43.9927 99.9832 46.8305 99.9832 46.8305L100.15 46.2184C99.7048 45.8289 98.647 44.9943 98.4243 44.8273C98.0902 44.6048 96.2529 43.0468 95.9745 42.546C95.6961 42.0452 94.9166 40.4316 94.8053 39.6526C94.6939 38.8736 94.5826 37.8164 94.5826 37.8164C94.5826 37.8164 92.5782 39.43 92.5782 39.5413C92.4112 39.597 92.3555 39.8195 92.3555 39.8195Z" fill="black"/>
<path d="M94.2497 29.636C91.967 30.3593 90.4637 31.9173 89.6842 33.0858C89.0717 33.976 88.682 35.0333 88.7377 36.2017C88.7377 37.2589 88.849 38.65 89.3501 39.5959C90.408 41.4878 92.6908 43.4909 92.6908 43.4909C92.6908 43.4909 92.8578 42.8788 92.5238 41.5434C92.134 40.2636 92.3567 39.5959 93.1919 39.2621C94.027 38.8726 94.3054 38.8169 94.5838 37.7041C94.9735 36.5356 96.9222 34.922 96.9222 34.922C96.9222 34.922 99.2606 33.1971 99.6504 33.0301C100.04 32.8632 100.82 32.4737 101.154 32.585C101.432 32.4737 98.1471 28.4118 94.2497 29.636Z" fill="#29A9E0"/>
<path d="M92.693 36.8674C92.6373 36.923 92.5817 36.9787 92.5817 37.0899L92.2476 36.7561L92.0806 36.923L92.7487 37.5907C92.9714 37.7577 93.2498 37.7576 93.4168 37.5351C93.5839 37.3682 93.5839 37.0343 93.4168 36.8674C93.2498 36.7005 92.86 36.7005 92.693 36.8674ZM93.1941 37.3682C93.0828 37.4794 92.9714 37.4794 92.8601 37.3682C92.7487 37.2569 92.7487 37.1456 92.8601 37.0343C92.9714 36.923 93.0828 36.923 93.1941 37.0343C93.3055 37.1456 93.3055 37.2569 93.1941 37.3682Z" fill="white"/>
<path d="M93.2488 36.3135C93.1931 36.3691 93.1931 36.4247 93.2488 36.4804L93.8052 37.0368L94.0278 36.8142L93.4157 36.2578C93.4157 36.2578 93.3044 36.2578 93.2488 36.3135Z" fill="white"/>
<path d="M93.8068 35.6996C93.6399 35.8665 93.6399 36.2004 93.8068 36.3673L94.1407 36.7012L94.3076 36.5342L93.9738 36.2004C93.8625 36.1447 93.8625 35.9778 93.9738 35.9222C94.0294 35.8109 94.1964 35.8109 94.252 35.9222L94.5858 36.256L94.7528 36.0891L94.4189 35.7553C94.3076 35.477 94.0294 35.477 93.8068 35.6996Z" fill="white"/>
<path d="M93.0272 36.2577C93.1194 36.2577 93.1942 36.183 93.1942 36.0908C93.1942 35.9986 93.1194 35.9238 93.0272 35.9238C92.935 35.9238 92.8604 35.9986 92.8604 36.0908C92.8604 36.183 92.935 36.2577 93.0272 36.2577Z" fill="white"/>
<path d="M95.0317 34.1991C95.1239 34.1991 95.1986 34.1243 95.1986 34.0322C95.1986 33.94 95.1239 33.8652 95.0317 33.8652C94.9395 33.8652 94.8647 33.94 94.8647 34.0322C94.8647 34.1243 94.9395 34.1991 95.0317 34.1991Z" fill="white"/>
<path d="M95.8112 33.5864C95.6443 33.7533 95.6443 34.0871 95.8112 34.2541L96.1451 34.5879L96.312 34.421L95.9782 34.0872C95.8669 34.0315 95.8669 33.8646 95.9782 33.8089C96.0338 33.6977 96.2008 33.6977 96.2564 33.8089L96.5902 34.1428L96.7572 33.9759L96.4233 33.642C96.3121 33.3638 96.0338 33.4195 95.8112 33.5864Z" fill="white"/>
<path d="M94.6974 34.7561C94.6417 34.8117 94.5861 34.8674 94.5861 34.9786L94.252 34.6448L94.085 34.8117L94.7531 35.4794C94.9758 35.6463 95.2542 35.6463 95.4212 35.4238C95.5883 35.2568 95.5883 34.923 95.4212 34.7561C95.2542 34.5891 94.8644 34.5891 94.6974 34.7561ZM95.1985 35.2568C95.0871 35.3681 94.9758 35.3681 94.8645 35.2568C94.7531 35.1456 94.7531 35.0343 94.8645 34.923C94.9758 34.8117 95.0871 34.8117 95.1985 34.923C95.2542 35.0343 95.3099 35.2012 95.1985 35.2568Z" fill="white"/>
<path d="M95.2536 34.1982C95.198 34.2538 95.198 34.3095 95.2536 34.3651L95.8101 34.9216L96.0327 34.699L95.4206 34.1426C95.4206 34.1426 95.3093 34.1426 95.2536 34.1982Z" fill="white"/>
<path d="M106.332 65.6363C106.332 65.6363 105.441 64.6904 105.33 64.4678C105.219 64.2452 104.216 64.4678 103.882 64.746C103.604 65.0242 101.488 66.304 101.599 66.5266C101.711 66.7491 103.882 70.4215 104.94 70.6997C105.998 70.9779 107.501 67.1943 107.39 66.7491C107.39 66.3596 106.332 65.6363 106.332 65.6363Z" fill="#CECECE"/>
<path d="M106.278 67.1407C106.278 67.1407 105.109 65.527 104.719 65.6383C104.385 65.694 101.879 67.1407 102.269 67.7527C102.714 68.3648 103.55 69.6446 103.772 69.8115C103.995 70.0341 105.331 69.3664 105.61 68.9212C105.944 68.4761 106.278 67.864 106.278 67.6971C106.333 67.4745 106.389 67.1963 106.278 67.1407Z" fill="#AEAFAF"/>
<path d="M96.3662 94.6281C96.6444 99.3577 96.867 103.809 96.867 106.758C96.867 106.758 96.9783 106.424 96.9783 106.146C97.0896 105.311 96.5331 96.2974 96.5331 96.2417C96.5331 96.1861 96.4218 94.3499 96.3662 94.4055L96.3105 94.4612L96.3662 94.6281Z" fill="#423836"/>
<path fill-rule="evenodd" clip-rule="evenodd" d="M133.002 92.3456C132.779 92.2343 132.278 92.4569 132.278 92.4569L133.392 95.3503L133.837 95.1834C133.782 95.1277 133.726 92.5682 133.002 92.3456Z" fill="#1A1A1A"/>
</svg>
