<svg width="40" height="40" viewBox="0 0 40 40" fill="none" xmlns="http://www.w3.org/2000/svg">
<path fill-rule="evenodd" clip-rule="evenodd" d="M26.4126 16.3374C26.5222 16.8309 26.1932 17.3244 25.6998 17.434L24.6032 17.6534L27.2898 23.7395C27.5092 24.1782 27.3447 24.7265 26.906 24.9458C26.4674 25.1651 25.9191 25.0006 25.7546 24.5072L22.5744 17.3792C22.4648 17.1051 22.4648 16.8309 22.5744 16.5568C22.6841 16.2826 22.9034 16.1181 23.1776 16.0633L25.3708 15.6246C25.8643 15.515 26.3577 15.844 26.4126 16.3374Z" fill="#20505A"/>
<path fill-rule="evenodd" clip-rule="evenodd" d="M24.3841 19.3531C24.8227 19.1338 25.371 19.2983 25.5903 19.7918L31.0733 31.5803C31.2927 32.0189 31.1282 32.5672 30.6347 32.7865C30.1961 33.0059 29.6478 32.8414 29.4284 32.3479L23.9454 20.5594C23.7261 20.1208 23.9454 19.5724 24.3841 19.3531Z" fill="#3DBCC8"/>
<path fill-rule="evenodd" clip-rule="evenodd" d="M29.3183 29.1119C29.7569 29.3861 29.9214 29.9344 29.6473 30.373L26.4671 36.0754C26.3026 36.3495 25.9736 36.5688 25.6447 36.5688H10.4018C9.90838 36.5688 9.46973 36.185 9.46973 35.6367C9.46973 35.1432 9.85355 34.7046 10.4018 34.7046H25.0964L28.0572 29.4409C28.3313 29.0571 28.8797 28.8926 29.3183 29.1119Z" fill="#3DBCC8"/>
<path fill-rule="evenodd" clip-rule="evenodd" d="M6.18015 37.2285C6.94777 37.2285 7.55091 36.6254 7.55091 35.8578C7.55091 35.0901 6.94777 34.487 6.18015 34.487C5.41253 34.487 4.80939 35.0901 4.80939 35.8578C4.80939 36.6254 5.41253 37.2285 6.18015 37.2285ZM6.18015 39.0927C7.93472 39.0927 9.3603 37.6671 9.3603 35.9126C9.3603 34.158 7.93472 32.7324 6.18015 32.7324C4.42558 32.7324 3 34.158 3 35.9126C3 37.6671 4.42558 39.0927 6.18015 39.0927Z" fill="#20505A"/>
<path fill-rule="evenodd" clip-rule="evenodd" d="M32.3345 37.2285C33.1021 37.2285 33.7052 36.6254 33.7052 35.8578C33.7052 35.0901 33.1021 34.487 32.3345 34.487C31.5668 34.487 30.9637 35.0901 30.9637 35.8578C30.9637 36.6254 31.5668 37.2285 32.3345 37.2285ZM32.3345 39.0927C34.089 39.0927 35.5146 37.6671 35.5146 35.9126C35.5146 34.158 34.089 32.7324 32.3345 32.7324C30.5799 32.7324 29.1543 34.158 29.1543 35.9126C29.1543 37.6671 30.5799 39.0927 32.3345 39.0927Z" fill="#20505A"/>
<path fill-rule="evenodd" clip-rule="evenodd" d="M28.7157 26.8096C29.1543 26.5903 29.7026 26.7548 29.9219 27.1934L30.3606 28.1255C30.5799 28.5642 30.4154 29.1125 29.9768 29.3318C29.5381 29.5511 28.9898 29.3866 28.7705 28.948L28.3319 28.0159C28.0577 27.5772 28.277 27.0289 28.7157 26.8096Z" fill="#20505A"/>
<path d="M11.7182 8.60742C11.7182 8.60742 11.5537 11.5682 11.5537 14.4194C11.5537 17.2706 11.8827 23.1923 11.8827 23.1923C11.8827 23.1923 11.9924 27.3046 11.9924 27.3594L12.0472 33.1714C12.0472 34.1583 12.8696 34.926 13.9114 34.926C14.3501 34.926 14.7339 34.7615 15.008 34.4873C15.3918 34.1583 15.666 33.61 15.666 33.0617L15.7756 26.9756L15.9401 20.6701C15.9401 20.0121 15.9401 19.3541 15.9401 18.6414L15.4467 9.21054L11.7182 8.60742Z" stroke="#F6D751" stroke-width="2.2673" stroke-miterlimit="10" stroke-linecap="round" stroke-linejoin="round"/>
<path d="M16.0498 13.8164L19.6138 15.0775L22.9036 14.3647C23.7809 14.0906 24.713 14.6388 24.9323 15.5161C24.9871 15.6258 24.9871 15.7903 24.9871 15.8999C24.9871 16.6127 24.5485 17.3255 23.7809 17.5449L19.5041 18.477L16.1046 17.2159" stroke="#F6D751" stroke-width="2.2673" stroke-miterlimit="10" stroke-linecap="round" stroke-linejoin="round"/>
<path d="M11.3893 4.05735C11.1699 4.00252 11.0055 3.94769 10.841 3.7832C10.2378 5.09913 10.841 6.63436 12.2117 7.29232C12.4859 7.45681 12.8149 7.51164 13.089 7.56647L12.9245 4.38632L11.3893 4.05735Z" stroke="#F6D751" stroke-width="1.2078" stroke-miterlimit="22.9256" stroke-linejoin="round"/>
<path d="M16.7081 5.20817L14.7891 4.76953L14.9535 7.62071C15.7212 7.40139 16.3243 6.96275 16.7081 6.24996C16.8726 5.92097 16.9823 5.53715 16.9823 5.20817C16.9274 5.20817 16.8178 5.20817 16.7081 5.20817Z" stroke="#F6D751" stroke-width="1.2078" stroke-miterlimit="22.9256" stroke-linejoin="round"/>
<path d="M17.3663 4.38475L17.6405 4.1106L10.9512 2.13672L11.006 2.79466C11.0608 3.17847 11.335 3.50746 11.7188 3.56229L13.5282 3.94611L13.7475 7.40041L14.241 7.45523L14.0217 4.05578L16.4342 4.60408C16.818 4.71374 17.147 4.60407 17.3663 4.38475Z" fill="#3DBCC8"/>
<path d="M15.2278 0.163221C13.5281 -0.330251 11.8283 0.327705 11.0059 1.69846L17.8596 3.72719C17.9693 2.13711 16.9275 0.656694 15.2278 0.163221ZM15.3923 1.53398C15.2278 1.42432 15.0633 1.36951 14.8988 1.31468C14.6795 1.25985 14.4602 1.20501 14.2409 1.20501L14.0215 1.04053C14.2957 1.04053 14.6247 1.0405 14.9536 1.15016C15.2278 1.20499 15.4471 1.3695 15.6664 1.47916L15.3923 1.53398ZM15.8858 1.42431C15.6116 1.20499 15.3375 1.04052 14.9536 0.930858C14.5698 0.821198 14.186 0.766361 13.8022 0.821191L13.6377 0.656707C14.0764 0.547046 14.5698 0.601863 15.0085 0.711524C15.4471 0.821184 15.7761 1.04053 16.1051 1.31468L15.8858 1.42431ZM16.3792 1.36949C15.9954 1.04051 15.6116 0.766347 15.0633 0.601857C14.515 0.437366 13.9667 0.437379 13.4184 0.54704L13.2539 0.382556C13.857 0.218065 14.515 0.218065 15.1181 0.382556C15.6664 0.547046 16.2147 0.876015 16.5986 1.25983L16.3792 1.36949Z" fill="#3DBCC8"/>
</svg>
