<svg width="24" height="24" viewBox="0 0 24 24" fill="none" xmlns="http://www.w3.org/2000/svg">
<path d="M22.128 8.02489C21.9806 8.03874 21.8685 8.1633 21.87 8.31133C21.9061 8.60013 21.7212 8.87049 21.4389 8.94143L21 8.94385L21.2255 9.60138C21.2255 9.60138 24.0513 9.58462 23.9666 8.65637C23.9008 7.93511 22.6745 7.97245 22.128 8.02489Z" fill="#323232"/>
<path d="M1.84072 8.02489C1.98813 8.03874 2.10029 8.1633 2.09876 8.31133C2.0626 8.60013 2.24756 8.87049 2.52984 8.94143L2.96875 8.94385L2.74327 9.60138C2.74327 9.60138 -0.0825474 9.58462 0.00210285 8.65637C0.0679114 7.93511 1.29424 7.97245 1.84072 8.02489Z" fill="#323232"/>
<path d="M14.4329 1.47802C14.4052 1.36538 14.3042 1.2862 14.1882 1.28613H9.84142C9.72532 1.28606 9.62419 1.36531 9.59641 1.47802L9.1167 3.41362H14.9102L14.4329 1.47802Z" fill="#FFC700"/>
<path d="M10.2271 2.72949H10.7431V3.2455H10.2271V2.72949Z" fill="#FFC700"/>
<path d="M11.2456 2.72949H11.7616V3.2455H11.2456V2.72949Z" fill="#FFC700"/>
<path d="M12.2646 2.72949H12.7807V3.2455H12.2646V2.72949Z" fill="#FFC700"/>
<path d="M13.2837 2.72949H13.7997V3.2455H13.2837V2.72949Z" fill="#FFC700"/>
<path d="M20.1541 16.8865L21.918 16.876C22.2543 16.874 22.5285 17.145 22.5305 17.4812L22.5514 20.984C22.5534 21.3203 22.2825 21.5945 21.9462 21.5965L20.1823 21.6071C19.846 21.6091 19.5718 21.3381 19.5698 21.0018L19.5488 17.499C19.5468 17.1628 19.8178 16.8885 20.1541 16.8865Z" fill="#323232"/>
<path d="M2.20192 16.993L3.96586 16.9824C4.30211 16.9804 4.57636 17.2514 4.57837 17.5877L4.59929 21.0905C4.6013 21.4267 4.3303 21.701 3.99406 21.703L2.23011 21.7135C1.89387 21.7155 1.61962 21.4445 1.61761 21.1083L1.59669 17.6055C1.59468 17.2692 1.86567 16.995 2.20192 16.993Z" fill="#323232"/>
<path d="M23.3686 13.8653C23.3157 13.1751 23.1162 12.5041 22.7834 11.8972L21.5944 9.71317C21.5944 9.71317 19.4775 4.94662 18.5962 4.56729C17.7444 4.20063 12.3087 4.1191 11.9465 4.11328H11.9269C11.5664 4.12256 6.13038 4.27018 5.28297 4.64681C4.40647 5.03675 2.3475 9.82795 2.3475 9.82795L1.18248 12.0264C0.856762 12.6371 0.665156 13.3103 0.620544 14.001C0.538665 15.5268 0.703048 17.0557 1.10746 18.5291C1.29782 19.2239 1.93242 19.7033 2.65278 19.6965L12.0194 19.641H12.0389L21.4042 19.5852C22.1247 19.5833 22.7535 19.0963 22.9358 18.3993C23.3223 16.9209 23.4685 15.3901 23.3686 13.8653Z" fill="#FFC403"/>
<path d="M7.44627 16.6993L16.5723 16.6445C16.7357 16.6436 16.8688 16.7752 16.8698 16.9385L16.8791 18.4924C16.8801 18.6557 16.7485 18.7889 16.5852 18.7898L7.45916 18.8445C7.29581 18.8455 7.16267 18.7139 7.1617 18.5506L7.15235 16.9967C7.15138 16.8334 7.283 16.7002 7.44627 16.6993Z" fill="#323232"/>
<path d="M18.7668 5.28645C18.6717 5.07891 18.4663 4.94404 18.2381 4.93933L11.9978 4.81152H11.9782L5.73968 5.01401C5.51184 5.02183 5.30846 5.15899 5.21577 5.36729L3.42578 9.39373L12.0053 9.34233H12.0249L20.6044 9.29301L18.7668 5.28645Z" fill="#323232"/>
<path d="M20.4406 12.0946C18.6383 12.319 18.1791 13.8273 18.0599 14.5489C18.0312 14.7274 18.1527 14.8952 18.3311 14.9239C18.3511 14.9272 18.3715 14.9285 18.3919 14.9279C19.1679 14.9132 19.9423 14.8531 20.7112 14.748C22.0205 14.5561 22.8237 11.7979 20.4406 12.0946Z" fill="#E1E6E9"/>
<path d="M20.5961 12.6592C20.2147 12.6942 19.9338 13.0317 19.9688 13.4131C20.0037 13.7945 20.3412 14.0754 20.7227 14.0404C21.1041 14.0054 21.385 13.6679 21.35 13.2865C21.35 13.2862 21.3499 13.2859 21.3499 13.2855C21.3144 12.9045 20.9772 12.6243 20.5961 12.6592Z" fill="#E1E6E9"/>
<path d="M19.1646 13.3959C18.8747 13.4227 18.6615 13.6793 18.6883 13.9691C18.7151 14.2589 18.9718 14.4721 19.2615 14.4453C19.5514 14.4185 19.7646 14.1619 19.7378 13.8721C19.7112 13.5825 19.4549 13.3692 19.1652 13.3958C19.165 13.3958 19.1648 13.3958 19.1646 13.3959Z" fill="#E1E6E9"/>
<path d="M3.58948 12.0946C5.3918 12.319 5.85093 13.8273 5.96987 14.5489C5.99848 14.7274 5.87705 14.8952 5.69867 14.9239C5.67859 14.9272 5.65822 14.9285 5.63785 14.9279C4.86187 14.9132 4.08741 14.8531 3.31849 14.748C2.00952 14.5561 1.20666 11.7979 3.58948 12.0946Z" fill="#E1E6E9"/>
<path d="M3.43359 12.6592C3.815 12.6942 4.0959 13.0317 4.06092 13.4131C4.02593 13.7945 3.68844 14.0754 3.30703 14.0404C2.92562 14.0054 2.64472 13.6679 2.6797 13.2865C2.6797 13.2862 2.67977 13.2859 2.67977 13.2855C2.71524 12.9045 3.05252 12.6243 3.43359 12.6592Z" fill="#E1E6E9"/>
<path d="M4.86539 13.3958C5.15515 13.4228 5.36824 13.6796 5.34129 13.9694C5.31434 14.2592 5.05755 14.4722 4.76772 14.4453C4.47809 14.4183 4.26508 14.1618 4.29182 13.8721C4.31856 13.5823 4.57521 13.3691 4.86504 13.3958C4.86504 13.3958 4.86525 13.3957 4.86539 13.3958Z" fill="#E1E6E9"/>
<path d="M6.4209 12.9453L7.38371 14.9286H16.4299L17.608 12.9453H6.4209Z" fill="#323232"/>
</svg>
