<svg width="40" height="40" viewBox="0 0 40 40" fill="none" xmlns="http://www.w3.org/2000/svg">
<path d="M15.977 34.6667H3.96552V15.0115H4.88506C5.17241 15.0115 5.34483 14.7816 5.34483 14.5517V3.45976C5.34483 3.17241 5.11494 3 4.88506 3H0.459772C0.172416 3 0 3.22988 0 3.45976V14.5517C0 14.8391 0.229887 15.0115 0.459772 15.0115H1.43678V34.6667H1.09196C0.804603 34.6667 0.632187 34.8965 0.632187 35.1264C0.632187 35.3563 0.862074 35.5862 1.09196 35.5862H39.5402C39.8276 35.5862 40 35.3563 40 35.1264C40 34.8965 39.7701 34.6667 39.5402 34.6667H39.3103H15.977ZM0.919544 14.0345V3.86207H4.42529V14.0345H0.919544ZM2.98851 34.6667H2.35633V15.0115H2.98851V34.6667Z" fill="#3DBCC8"/>
<path d="M2.7009 10.2416C3.39919 10.2416 3.96526 9.67552 3.96526 8.97723C3.96526 8.27894 3.39919 7.71289 2.7009 7.71289C2.00261 7.71289 1.43652 8.27894 1.43652 8.97723C1.43652 9.67552 2.00261 10.2416 2.7009 10.2416Z" fill="#F6D751"/>
<path d="M2.7009 7.25332C3.39919 7.25332 3.96526 6.68728 3.96526 5.98898C3.96526 5.29069 3.39919 4.72461 2.7009 4.72461C2.00261 4.72461 1.43652 5.29069 1.43652 5.98898C1.43652 6.68728 2.00261 7.25332 2.7009 7.25332Z" fill="#F53B57"/>
<path d="M2.7009 13.1733C3.39919 13.1733 3.96526 12.6072 3.96526 11.9089C3.96526 11.2106 3.39919 10.6445 2.7009 10.6445C2.00261 10.6445 1.43652 11.2106 1.43652 11.9089C1.43652 12.6072 2.00261 13.1733 2.7009 13.1733Z" fill="#05C46B"/>
<path fill-rule="evenodd" clip-rule="evenodd" d="M19.3661 12.2526C19.3087 12.7124 19.5386 13.1721 19.9983 13.2296L20.9753 13.4595L17.6995 20.6434C17.5271 21.0457 17.6995 21.5629 18.0443 21.7353C18.4466 21.9652 18.9064 21.7928 19.0788 21.333L22.7569 13.1722C22.8719 12.9423 22.8719 12.6549 22.7569 12.425C22.642 12.1951 22.4696 12.0227 22.2397 11.9652L20.2857 11.5629C19.8259 11.5055 19.4236 11.8503 19.3661 12.2526Z" fill="#20505A"/>
<path fill-rule="evenodd" clip-rule="evenodd" d="M21.0324 15.0112C20.6301 14.7814 20.1704 15.0113 19.998 15.4136L14.4807 27.8274C14.3083 28.2297 14.4807 28.7469 14.8255 28.9193C15.2278 29.1492 15.6876 28.9193 15.86 28.517L21.3773 16.1032C21.6072 15.7584 21.4347 15.2411 21.0324 15.0112Z" fill="#3DBCC8"/>
<path fill-rule="evenodd" clip-rule="evenodd" d="M15.9748 25.5851C15.5725 25.815 15.4576 26.3323 15.6875 26.7346L18.3886 31.9644C18.5036 32.2518 18.7909 32.3667 19.0783 32.3667H32.0093C32.4116 32.3667 32.8139 31.9644 32.8139 31.5047C32.8139 31.0449 32.4691 30.6426 32.0093 30.6426H19.5381L17.0668 25.8725C16.8369 25.5277 16.3197 25.3553 15.9748 25.5851Z" fill="#3DBCC8"/>
<path fill-rule="evenodd" clip-rule="evenodd" d="M36.8369 31.7338C36.8369 31.0441 36.3197 30.4694 35.6875 30.4694C35.0553 30.4694 34.5381 31.0441 34.5381 31.7338C34.5381 32.4234 35.0553 32.9982 35.6875 32.9982C36.3197 32.9982 36.8369 32.4234 36.8369 31.7338ZM38.3886 31.7338C38.3886 30.1246 37.1817 28.8027 35.6875 28.8027C34.1932 28.8027 32.9863 30.1246 32.9863 31.7338C32.9863 33.343 34.1932 34.6648 35.6875 34.6648C37.1817 34.6648 38.3886 33.343 38.3886 31.7338Z" fill="#20505A"/>
<path fill-rule="evenodd" clip-rule="evenodd" d="M14.5957 31.7338C14.5957 31.0441 14.0784 30.4694 13.4463 30.4694C12.8141 30.4694 12.2968 31.0441 12.2968 31.7338C12.2968 32.4234 12.8141 32.9982 13.4463 32.9982C14.0784 32.9982 14.5957 32.4234 14.5957 31.7338ZM16.1474 31.7338C16.1474 30.1246 14.9405 28.8027 13.4463 28.8027C11.952 28.8027 10.7451 30.1246 10.7451 31.7338C10.7451 33.343 11.952 34.6648 13.4463 34.6648C14.9405 34.6648 16.1474 33.343 16.1474 31.7338Z" fill="#20505A"/>
<path fill-rule="evenodd" clip-rule="evenodd" d="M16.4919 23.4588C16.0896 23.2289 15.6298 23.4013 15.4574 23.8611L15.0551 24.7232C14.8827 25.1255 14.9976 25.6427 15.3999 25.8726C15.8022 26.1025 16.262 25.9301 16.4344 25.4703L16.8367 24.6082C17.0666 24.2059 16.8942 23.6887 16.4919 23.4588Z" fill="#20505A"/>
</svg>
